ply
format ascii 1.0
element vertex 768
property float x
property float y
property float z
property float nx
property float ny
property float nz
element quads 192
property list uchar int vertex_indices
end_header
320 87 0 1 0 0
320 26 0 1 0 0
320 26 150 1 0 0
320 87 150 1 0 0
310 87 0 -1 -0 0
310 16 0 -1 -0 0
310 16 150 -1 -0 0
310 87 150 -1 -0 0
320 26 0 -0 1 0
354 26 0 -0 1 0
354 26 150 -0 1 0
320 26 150 -0 1 0
310 16 0 0 -1 0
354 16 0 0 -1 0
354 16 150 0 -1 0
310 16 150 0 -1 0
140 294 0 1 0 0
140 81 0 1 0 0
140 81 150 1 0 0
140 294 150 1 0 0
130 294 0 -1 -0 0
130 71 0 -1 -0 0
130 71 150 -1 -0 0
130 294 150 -1 -0 0
140 81 0 -0 1 0
206 81 0 -0 1 0
206 81 150 -0 1 0
140 81 150 -0 1 0
130 71 0 0 -1 0
206 71 0 0 -1 0
206 71 150 0 -1 0
130 71 150 0 -1 0
374 522 0 1 0 0
374 184 0 1 0 0
374 184 150 1 0 0
374 522 150 1 0 0
364 532 0 -1 -0 0
364 174 0 -1 -0 0
364 174 150 -1 -0 0
364 532 150 -1 -0 0
364 532 0 -0 1 0
395 532 0 -0 1 0
395 532 150 -0 1 0
364 532 150 -0 1 0
374 522 0 0 -1 0
395 522 0 0 -1 0
395 522 150 0 -1 0
374 522 150 0 -1 0
374 184 0 -0 1 0
441 184 0 -0 1 0
441 184 150 -0 1 0
374 184 150 -0 1 0
364 174 0 0 -1 0
441 174 0 0 -1 0
441 174 150 0 -1 0
364 174 150 0 -1 0
320.58404541015625 281 0 1 0 0
320.58404541015625 168 0 1 0 0
320.58404541015625 168 150 1 0 0
320.58404541015625 281 150 1 0 0
310.58404541015625 281 0 -1 -0 0
310.58404541015625 168 0 -1 -0 0
310.58404541015625 168 150 -1 -0 0
310.58404541015625 281 150 -1 -0 0
635 15.5103445053100586 0 -0 -1 0
596 15.5103445053100586 0 -0 -1 0
596 15.5103445053100586 150 -0 -1 0
635 15.5103445053100586 150 -0 -1 0
635 25.510345458984375 0 0 1 0
596 25.510345458984375 0 0 1 0
596 25.510345458984375 150 0 1 0
635 25.510345458984375 150 0 1 0
546 15.5090093612670898 0 -0 -1 0
433 15.5090093612670898 0 -0 -1 0
433 15.5090093612670898 150 -0 -1 0
546 15.5090093612670898 150 -0 -1 0
546 25.5090084075927734 0 0 1 0
433 25.5090084075927734 0 0 1 0
433 25.5090084075927734 150 0 1 0
546 25.5090084075927734 150 0 1 0
633 170.233688354492188 0 -0 -1 0
490 170.233688354492188 0 -0 -1 0
490 170.233688354492188 150 -0 -1 0
633 170.233688354492188 150 -0 -1 0
633 180.233688354492188 0 0 1 0
490 180.233688354492188 0 0 1 0
490 180.233688354492188 150 0 1 0
633 180.233688354492188 150 0 1 0
633 251.847625732421875 0 -0 -1 0
483 251.847625732421875 0 -0 -1 0
483 251.847625732421875 150 -0 -1 0
633 251.847625732421875 150 -0 -1 0
633 261.847625732421875 0 0 1 0
483 261.847625732421875 0 0 1 0
483 261.847625732421875 150 0 1 0
633 261.847625732421875 150 0 1 0
502 182 0 -0 -1 0
486 182 0 -0 -1 0
486 182 150 -0 -1 0
502 182 150 -0 -1 0
502 192 0 0 1 0
496 192 0 0 1 0
496 192 150 0 1 0
502 192 150 0 1 0
486 182 0 -1 0 0
486 208 0 -1 0 0
486 208 150 -1 0 0
486 182 150 -1 0 0
496 192 0 1 -0 0
496 208 0 1 -0 0
496 208 150 1 -0 0
496 192 150 1 -0 0
544 182.5 0 -0 -1 0
534 182.5 0 -0 -1 0
534 182.5 150 -0 -1 0
544 182.5 150 -0 -1 0
544 192.5 0 0 1 0
534 192.5 0 0 1 0
534 192.5 150 0 1 0
544 192.5 150 0 1 0
367 416 0 -0 -1 0
316 416 0 -0 -1 0
316 416 150 -0 -1 0
367 416 150 -0 -1 0
367 426 0 0 1 0
316 426 0 0 1 0
316 426 150 0 1 0
367 426 150 0 1 0
549 212 0 1 0 0
549 188 0 1 0 0
549 188 150 1 0 0
549 212 150 1 0 0
539 212 0 -1 -0 0
539 188 0 -1 -0 0
539 188 150 -1 -0 0
539 212 150 -1 -0 0
251 417 0 -0 -1 0
232 417 0 -0 -1 0
232 417 150 -0 -1 0
251 417 150 -0 -1 0
251 427 0 0 1 0
222 427 0 0 1 0
222 427 150 0 1 0
251 427 150 0 1 0
232 417 0 1 0 0
232 333.2789306640625 0 1 0 0
232 333.2789306640625 150 1 0 0
232 417 150 1 0 0
222 427 0 -1 -0 0
222 342.7210693359375 0 -1 -0 0
222 342.7210693359375 150 -1 -0 0
222 427 150 -1 -0 0
606.0875244140625 113 0 1 0 0
606.0875244140625 83 0 1 0 0
606.0875244140625 83 150 1 0 0
606.0875244140625 113 150 1 0 0
596.0875244140625 113 0 -1 -0 0
596.0875244140625 83 0 -1 -0 0
596.0875244140625 83 150 -1 -0 0
596.0875244140625 113 150 -1 -0 0
343 400.737701416015625 0 -0 -1 0
318 400.737701416015625 0 -0 -1 0
318 400.737701416015625 150 -0 -1 0
343 400.737701416015625 150 -0 -1 0
343 410.737701416015625 0 0 1 0
318 410.737701416015625 0 0 1 0
318 410.737701416015625 150 0 1 0
343 410.737701416015625 150 0 1 0
527 139 0 -0 -1 0
506 139 0 -0 -1 0
506 139 150 -0 -1 0
527 139 150 -0 -1 0
527 149 0 0 1 0
506 149 0 0 1 0
506 149 150 0 1 0
527 149 150 0 1 0
361 410 0 1 0 0
361 398 0 1 0 0
361 398 150 1 0 0
361 410 150 1 0 0
351 410 0 -1 -0 0
351 398 0 -1 -0 0
351 398 150 -1 -0 0
351 410 150 -1 -0 0
313 70 0 -0 -1 0
302 70 0 -0 -1 0
302 70 150 -0 -1 0
313 70 150 -0 -1 0
313 80 0 0 1 0
302 80 0 0 1 0
302 80 150 0 1 0
313 80 150 0 1 0
576 35 0 1 0 0
576 24 0 1 0 0
576 24 150 1 0 0
576 35 150 1 0 0
566 35 0 -1 -0 0
566 24 0 -1 -0 0
566 24 150 -1 -0 0
566 35 150 -1 -0 0
630 21 0 -1 0 0
630 521.193115234375 0 -1 0 0
630 521.193115234375 150 -1 0 0
630 21 150 -1 0 0
640 21 0 1 -0 0
640 530.806884765625 0 1 -0 0
640 530.806884765625 150 1 -0 0
640 21 150 1 -0 0
630 521.193115234375 0 -0.0393724329769611359 -0.999224603176116943 0
609.80316162109375 521.98895263671875 0 -0.0393724329769611359 -0.999224603176116943 0
609.80316162109375 521.98895263671875 150 -0.0393724329769611359 -0.999224603176116943 0
630 521.193115234375 150 -0.0393724329769611359 -0.999224603176116943 0
640 530.806884765625 0 0.0393724329769611359 0.999224603176116943 0
610.19683837890625 531.981201171875 0 0.0393724329769611359 0.999224603176116943 0
610.19683837890625 531.981201171875 150 0.0393724329769611359 0.999224603176116943 0
640 530.806884765625 150 0.0393724329769611359 0.999224603176116943 0
372.018798828125 262.251922607421875 0 0.00376069732010364532 0.999992907047271729 0
443.9381103515625 261.981475830078125 0 0.00376069732010364532 0.999992907047271729 0
443.9381103515625 261.981475830078125 150 0.00376069732010364532 0.999992907047271729 0
372.018798828125 262.251922607421875 150 0.00376069732010364532 0.999992907047271729 0
371.981201171875 252.251998901367188 0 -0.00376069732010364532 -0.999992907047271729 0
434.0618896484375 252.018539428710938 0 -0.00376069732010364532 -0.999992907047271729 0
434.0618896484375 252.018539428710938 150 -0.00376069732010364532 -0.999992907047271729 0
371.981201171875 252.251998901367188 150 -0.00376069732010364532 -0.999992907047271729 0
443.9381103515625 261.981475830078125 0 0.999921858310699463 0.0124990232288837433 0
444.499603271484375 217.0625 0 0.999921858310699463 0.0124990232288837433 0
444.499603271484375 217.0625 150 0.999921858310699463 0.0124990232288837433 0
443.9381103515625 261.981475830078125 150 0.999921858310699463 0.0124990232288837433 0
434.0618896484375 252.018539428710938 0 -0.999921858310699463 -0.0124990232288837433 0
434.500396728515625 216.9375 0 -0.999921858310699463 -0.0124990232288837433 0
434.500396728515625 216.9375 150 -0.999921858310699463 -0.0124990232288837433 0
434.0618896484375 252.018539428710938 150 -0.999921858310699463 -0.0124990232288837433 0
633 270 0 -0 -1 0
559.16943359375 270 0 -0 -1 0
559.16943359375 270 150 -0 -1 0
633 270 150 -0 -1 0
633 280 0 0 1 0
548.83056640625 280 0 0 1 0
548.83056640625 280 150 0 1 0
633 280 150 0 1 0
559.16943359375 270 0 0.999444901943206787 0.033314831554889679 0
559.49725341796875 260.16656494140625 0 0.999444901943206787 0.033314831554889679 0
559.49725341796875 260.16656494140625 150 0.999444901943206787 0.033314831554889679 0
559.16943359375 270 150 0.999444901943206787 0.033314831554889679 0
548.83056640625 280 0 -0.999444901943206787 -0.033314831554889679 0
549.50274658203125 259.83343505859375 0 -0.999444901943206787 -0.033314831554889679 0
549.50274658203125 259.83343505859375 150 -0.999444901943206787 -0.033314831554889679 0
548.83056640625 280 150 -0.999444901943206787 -0.033314831554889679 0
310.85723876953125 387.87042236328125 0 -0.999664068222045898 -0.0259172171354293823 0
310.127960205078125 416 0 -0.999664068222045898 -0.0259172171354293823 0
310.127960205078125 416 150 -0.999664068222045898 -0.0259172171354293823 0
310.85723876953125 387.87042236328125 150 -0.999664068222045898 -0.0259172171354293823 0
320.8538818359375 388.12957763671875 0 0.999664068222045898 0.0259172171354293823 0
319.872039794921875 426 0 0.999664068222045898 0.0259172171354293823 0
319.872039794921875 426 150 0.999664068222045898 0.0259172171354293823 0
320.8538818359375 388.12957763671875 150 0.999664068222045898 0.0259172171354293823 0
310.127960205078125 416 0 -0 -1 0
293 416 0 -0 -1 0
293 416 150 -0 -1 0
310.127960205078125 416 150 -0 -1 0
319.872039794921875 426 0 0 1 0
293 426 0 0 1 0
293 426 150 0 1 0
319.872039794921875 426 150 0 1 0
130.088348388671875 324.966064453125 0 -0.999976992607116699 -0.00678717391565442085 0
129.9659423828125 343 0 -0.999976992607116699 -0.00678717391565442085 0
129.9659423828125 343 150 -0.999976992607116699 -0.00678717391565442085 0
130.088348388671875 324.966064453125 150 -0.999976992607116699 -0.00678717391565442085 0
140.088119506835938 325.033935546875 0 0.999976992607116699 0.00678717391565442085 0
140.0340576171875 333 0 0.999976992607116699 0.00678717391565442085 0
140.0340576171875 333 150 0.999976992607116699 0.00678717391565442085 0
140.088119506835938 325.033935546875 150 0.999976992607116699 0.00678717391565442085 0
129.9659423828125 343 0 -0 1 0
147 343 0 -0 1 0
147 343 150 -0 1 0
129.9659423828125 343 150 -0 1 0
140.0340576171875 333 0 0 -1 0
147 333 0 0 -1 0
147 333 150 0 -1 0
140.0340576171875 333 150 0 -1 0
232 333.2789306640625 0 0.0573379471898078918 -0.998354852199554443 0
211.28668212890625 332.08929443359375 0 0.0573379471898078918 -0.998354852199554443 0
211.28668212890625 332.08929443359375 150 0.0573379471898078918 -0.998354852199554443 0
232 333.2789306640625 150 0.0573379471898078918 -0.998354852199554443 0
222 342.7210693359375 0 -0.0573379471898078918 0.998354852199554443 0
210.71331787109375 342.072845458984375 0 -0.0573379471898078918 0.998354852199554443 0
210.71331787109375 342.072845458984375 150 -0.0573379471898078918 0.998354852199554443 0
222 342.7210693359375 150 -0.0573379471898078918 0.998354852199554443 0
320 87 0 314.75408935546875 86.5737686157226562 0
310 87 0 314.75408935546875 86.5737686157226562 0
310 87 150 314.75408935546875 86.5737686157226562 0
320 87 150 314.75408935546875 86.5737686157226562 0
140 294 0 139.342727661132812 293.619720458984375 0
130 294 0 139.342727661132812 293.619720458984375 0
130 294 150 139.342727661132812 293.619720458984375 0
140 294 150 139.342727661132812 293.619720458984375 0
320.58404541015625 281 0 317.74700927734375 279.513275146484375 0
310.58404541015625 281 0 317.74700927734375 279.513275146484375 0
310.58404541015625 281 150 317.74700927734375 279.513275146484375 0
320.58404541015625 281 150 317.74700927734375 279.513275146484375 0
320.58404541015625 168 0 317.74700927734375 165.513275146484375 0
310.58404541015625 168 0 317.74700927734375 165.513275146484375 0
310.58404541015625 168 150 317.74700927734375 165.513275146484375 0
320.58404541015625 168 150 317.74700927734375 165.513275146484375 0
635 15.5103445053100586 0 619.71795654296875 15.1126432418823242 0
635 25.510345458984375 0 619.71795654296875 15.1126432418823242 0
635 25.510345458984375 150 619.71795654296875 15.1126432418823242 0
635 15.5103445053100586 150 619.71795654296875 15.1126432418823242 0
596 15.5103445053100586 0 579.71795654296875 15.1126432418823242 0
596 25.510345458984375 0 579.71795654296875 15.1126432418823242 0
596 25.510345458984375 150 579.71795654296875 15.1126432418823242 0
596 15.5103445053100586 150 579.71795654296875 15.1126432418823242 0
546 15.5090093612670898 0 542.16815185546875 15.3717613220214844 0
546 25.5090084075927734 0 542.16815185546875 15.3717613220214844 0
546 25.5090084075927734 150 542.16815185546875 15.3717613220214844 0
546 15.5090093612670898 150 542.16815185546875 15.3717613220214844 0
433 15.5090093612670898 0 428.16815185546875 15.3717613220214844 0
433 25.5090084075927734 0 428.16815185546875 15.3717613220214844 0
433 25.5090084075927734 150 428.16815185546875 15.3717613220214844 0
433 15.5090093612670898 150 428.16815185546875 15.3717613220214844 0
354 26 0 344.588226318359375 25.2352943420410156 0
354 16 0 344.588226318359375 25.2352943420410156 0
354 16 150 344.588226318359375 25.2352943420410156 0
354 26 150 344.588226318359375 25.2352943420410156 0
633 170.233688354492188 0 629.57342529296875 169.043243408203125 0
633 180.233688354492188 0 629.57342529296875 169.043243408203125 0
633 180.233688354492188 150 629.57342529296875 169.043243408203125 0
633 170.233688354492188 150 629.57342529296875 169.043243408203125 0
490 170.233688354492188 0 485.57342529296875 169.043243408203125 0
490 180.233688354492188 0 485.57342529296875 169.043243408203125 0
490 180.233688354492188 150 485.57342529296875 169.043243408203125 0
490 170.233688354492188 150 485.57342529296875 169.043243408203125 0
633 251.847625732421875 0 629.780029296875 250.16864013671875 0
633 261.847625732421875 0 629.780029296875 250.16864013671875 0
633 261.847625732421875 150 629.780029296875 250.16864013671875 0
633 251.847625732421875 150 629.780029296875 250.16864013671875 0
483 251.847625732421875 0 478.779998779296875 250.16864013671875 0
483 261.847625732421875 0 478.779998779296875 250.16864013671875 0
483 261.847625732421875 150 478.779998779296875 250.16864013671875 0
483 251.847625732421875 150 478.779998779296875 250.16864013671875 0
206 81 0 203.8787841796875 79.7727279663085938 0
206 71 0 203.8787841796875 79.7727279663085938 0
206 71 150 203.8787841796875 79.7727279663085938 0
206 81 150 203.8787841796875 79.7727279663085938 0
441 184 0 435.41790771484375 181.253738403320312 0
441 174 0 435.41790771484375 181.253738403320312 0
441 174 150 435.41790771484375 181.253738403320312 0
441 184 150 435.41790771484375 181.253738403320312 0
502 182 0 471.625 170.625 0
502 192 0 471.625 170.625 0
502 192 150 471.625 170.625 0
502 182 150 471.625 170.625 0
544 182.5 0 490.600006103515625 164.25 0
544 192.5 0 490.600006103515625 164.25 0
544 192.5 150 490.600006103515625 164.25 0
544 182.5 150 490.600006103515625 164.25 0
534 182.5 0 479.600006103515625 164.25 0
534 192.5 0 479.600006103515625 164.25 0
534 192.5 150 479.600006103515625 164.25 0
534 182.5 150 479.600006103515625 164.25 0
367 416 0 360.803924560546875 407.8431396484375 0
367 426 0 360.803924560546875 407.8431396484375 0
367 426 150 360.803924560546875 407.8431396484375 0
367 416 150 360.803924560546875 407.8431396484375 0
316 416 0 308.803924560546875 407.8431396484375 0
316 426 0 308.803924560546875 407.8431396484375 0
316 426 150 308.803924560546875 407.8431396484375 0
316 416 150 308.803924560546875 407.8431396484375 0
549 212 0 526.125 204.166671752929688 0
539 212 0 526.125 204.166671752929688 0
539 212 150 526.125 204.166671752929688 0
549 212 150 526.125 204.166671752929688 0
549 188 0 526.125 179.166671752929688 0
539 188 0 526.125 179.166671752929688 0
539 188 150 526.125 179.166671752929688 0
549 188 150 526.125 179.166671752929688 0
486 208 0 467.30767822265625 201 0
496 208 0 467.30767822265625 201 0
496 208 150 467.30767822265625 201 0
486 208 150 467.30767822265625 201 0
251 417 0 238.789474487304688 395.052642822265625 0
251 427 0 238.789474487304688 395.052642822265625 0
251 427 150 238.789474487304688 395.052642822265625 0
251 417 150 238.789474487304688 395.052642822265625 0
606.0875244140625 113 0 585.88458251953125 110.233329772949219 0
596.0875244140625 113 0 585.88458251953125 110.233329772949219 0
596.0875244140625 113 150 585.88458251953125 110.233329772949219 0
606.0875244140625 113 150 585.88458251953125 110.233329772949219 0
606.0875244140625 83 0 585.88458251953125 79.2333297729492188 0
596.0875244140625 83 0 585.88458251953125 79.2333297729492188 0
596.0875244140625 83 150 585.88458251953125 79.2333297729492188 0
606.0875244140625 83 150 585.88458251953125 79.2333297729492188 0
343 400.737701416015625 0 330.279998779296875 384.70819091796875 0
343 410.737701416015625 0 330.279998779296875 384.70819091796875 0
343 410.737701416015625 150 330.279998779296875 384.70819091796875 0
343 400.737701416015625 150 330.279998779296875 384.70819091796875 0
318 400.737701416015625 0 304.279998779296875 384.70819091796875 0
318 410.737701416015625 0 304.279998779296875 384.70819091796875 0
318 410.737701416015625 150 304.279998779296875 384.70819091796875 0
318 400.737701416015625 150 304.279998779296875 384.70819091796875 0
395 532 0 383.258056640625 514.83868408203125 0
395 522 0 383.258056640625 514.83868408203125 0
395 522 150 383.258056640625 514.83868408203125 0
395 532 150 383.258056640625 514.83868408203125 0
527 139 0 502.904754638671875 132.380950927734375 0
527 149 0 502.904754638671875 132.380950927734375 0
527 149 150 502.904754638671875 132.380950927734375 0
527 139 150 502.904754638671875 132.380950927734375 0
506 139 0 480.904754638671875 132.380950927734375 0
506 149 0 480.904754638671875 132.380950927734375 0
506 149 150 480.904754638671875 132.380950927734375 0
506 139 150 480.904754638671875 132.380950927734375 0
361 410 0 330.916656494140625 376.833343505859375 0
351 410 0 330.916656494140625 376.833343505859375 0
351 410 150 330.916656494140625 376.833343505859375 0
361 410 150 330.916656494140625 376.833343505859375 0
361 398 0 330.916656494140625 363.833343505859375 0
351 398 0 330.916656494140625 363.833343505859375 0
351 398 150 330.916656494140625 363.833343505859375 0
361 398 150 330.916656494140625 363.833343505859375 0
313 70 0 285.545440673828125 63.6363639831542969 0
313 80 0 285.545440673828125 63.6363639831542969 0
313 80 150 285.545440673828125 63.6363639831542969 0
313 70 150 285.545440673828125 63.6363639831542969 0
302 70 0 273.545440673828125 63.6363639831542969 0
302 80 0 273.545440673828125 63.6363639831542969 0
302 80 150 273.545440673828125 63.6363639831542969 0
302 70 150 273.545440673828125 63.6363639831542969 0
576 35 0 523.6363525390625 32.8181800842285156 0
566 35 0 523.6363525390625 32.8181800842285156 0
566 35 150 523.6363525390625 32.8181800842285156 0
576 35 150 523.6363525390625 32.8181800842285156 0
576 24 0 523.6363525390625 20.8181819915771484 0
566 24 0 523.6363525390625 20.8181819915771484 0
566 24 150 523.6363525390625 20.8181819915771484 0
576 24 150 523.6363525390625 20.8181819915771484 0
630 21 0 628.740478515625 19.9580154418945312 0
640 21 0 628.740478515625 19.9580154418945312 0
640 21 150 628.740478515625 19.9580154418945312 0
630 21 150 628.740478515625 19.9580154418945312 0
609.80316162109375 521.98895263671875 0 578.63433837890625 496.20330810546875 0
610.19683837890625 531.981201171875 0 578.63433837890625 496.20330810546875 0
610.19683837890625 531.981201171875 150 578.63433837890625 496.20330810546875 0
609.80316162109375 521.98895263671875 150 578.63433837890625 496.20330810546875 0
372.018798828125 262.251922607421875 0 365.84613037109375 258.6092529296875 0
371.981201171875 252.251998901367188 0 365.84613037109375 258.6092529296875 0
371.981201171875 252.251998901367188 150 365.84613037109375 258.6092529296875 0
372.018798828125 262.251922607421875 150 365.84613037109375 258.6092529296875 0
444.499603271484375 217.0625 0 434.617279052734375 211.230636596679688 0
434.500396728515625 216.9375 0 434.617279052734375 211.230636596679688 0
434.500396728515625 216.9375 150 434.617279052734375 211.230636596679688 0
444.499603271484375 217.0625 150 434.617279052734375 211.230636596679688 0
633 270 0 625.42633056640625 266.342987060546875 0
633 280 0 625.42633056640625 266.342987060546875 0
633 280 150 625.42633056640625 266.342987060546875 0
633 270 150 625.42633056640625 266.342987060546875 0
559.49725341796875 260.16656494140625 0 502.664642333984375 232.724441528320312 0
549.50274658203125 259.83343505859375 0 502.664642333984375 232.724441528320312 0
549.50274658203125 259.83343505859375 150 502.664642333984375 232.724441528320312 0
559.49725341796875 260.16656494140625 150 502.664642333984375 232.724441528320312 0
310.85723876953125 387.87042236328125 0 299.835968017578125 373.086669921875 0
320.8538818359375 388.12957763671875 0 299.835968017578125 373.086669921875 0
320.8538818359375 388.12957763671875 150 299.835968017578125 373.086669921875 0
310.85723876953125 387.87042236328125 150 299.835968017578125 373.086669921875 0
293 416 0 274.893463134765625 391.71221923828125 0
293 426 0 274.893463134765625 391.71221923828125 0
293 426 150 274.893463134765625 391.71221923828125 0
293 416 150 274.893463134765625 391.71221923828125 0
130.088348388671875 324.966064453125 0 122.88177490234375 305.946807861328125 0
140.088119506835938 325.033935546875 0 122.88177490234375 305.946807861328125 0
140.088119506835938 325.033935546875 150 122.88177490234375 305.946807861328125 0
130.088348388671875 324.966064453125 150 122.88177490234375 305.946807861328125 0
147 343 0 139.370223999023438 322.863861083984375 0
147 333 0 139.370223999023438 322.863861083984375 0
147 333 150 139.370223999023438 322.863861083984375 0
147 343 150 139.370223999023438 322.863861083984375 0
211.28668212890625 332.08929443359375 0 200.104583740234375 316.02569580078125 0
210.71331787109375 342.072845458984375 0 200.104583740234375 316.02569580078125 0
210.71331787109375 342.072845458984375 150 200.104583740234375 316.02569580078125 0
211.28668212890625 332.08929443359375 150 200.104583740234375 316.02569580078125 0
320 87 0 0 0 -1
310 87 0 0 0 -1
310 16 0 0 0 -1
320 26 0 0 0 -1
320 87 150 0 0 1
310 87 150 0 0 1
310 16 150 0 0 1
320 26 150 0 0 1
320 26 0 0 0 -1
310 16 0 0 0 -1
354 16 0 0 0 -1
354 26 0 0 0 -1
320 26 150 0 0 1
310 16 150 0 0 1
354 16 150 0 0 1
354 26 150 0 0 1
140 294 0 0 0 -1
130 294 0 0 0 -1
130 71 0 0 0 -1
140 81 0 0 0 -1
140 294 150 0 0 1
130 294 150 0 0 1
130 71 150 0 0 1
140 81 150 0 0 1
140 81 0 0 0 -1
130 71 0 0 0 -1
206 71 0 0 0 -1
206 81 0 0 0 -1
140 81 150 0 0 1
130 71 150 0 0 1
206 71 150 0 0 1
206 81 150 0 0 1
374 522 0 0 0 -1
364 532 0 0 0 -1
364 174 0 0 0 -1
374 184 0 0 0 -1
374 522 150 0 0 1
364 532 150 0 0 1
364 174 150 0 0 1
374 184 150 0 0 1
364 532 0 0 0 -1
374 522 0 0 0 -1
395 522 0 0 0 -1
395 532 0 0 0 -1
364 532 150 0 0 1
374 522 150 0 0 1
395 522 150 0 0 1
395 532 150 0 0 1
374 184 0 0 0 -1
364 174 0 0 0 -1
441 174 0 0 0 -1
441 184 0 0 0 -1
374 184 150 0 0 1
364 174 150 0 0 1
441 174 150 0 0 1
441 184 150 0 0 1
320.58404541015625 281 0 0 0 -1
310.58404541015625 281 0 0 0 -1
310.58404541015625 168 0 0 0 -1
320.58404541015625 168 0 0 0 -1
320.58404541015625 281 150 0 0 1
310.58404541015625 281 150 0 0 1
310.58404541015625 168 150 0 0 1
320.58404541015625 168 150 0 0 1
635 15.5103445053100586 0 0 0 -1
635 25.510345458984375 0 0 0 -1
596 25.510345458984375 0 0 0 -1
596 15.5103445053100586 0 0 0 -1
635 15.5103445053100586 150 0 0 1
635 25.510345458984375 150 0 0 1
596 25.510345458984375 150 0 0 1
596 15.5103445053100586 150 0 0 1
546 15.5090093612670898 0 0 0 -1
546 25.5090084075927734 0 0 0 -1
433 25.5090084075927734 0 0 0 -1
433 15.5090093612670898 0 0 0 -1
546 15.5090093612670898 150 0 0 1
546 25.5090084075927734 150 0 0 1
433 25.5090084075927734 150 0 0 1
433 15.5090093612670898 150 0 0 1
633 170.233688354492188 0 0 0 -1
633 180.233688354492188 0 0 0 -1
490 180.233688354492188 0 0 0 -1
490 170.233688354492188 0 0 0 -1
633 170.233688354492188 150 0 0 1
633 180.233688354492188 150 0 0 1
490 180.233688354492188 150 0 0 1
490 170.233688354492188 150 0 0 1
633 251.847625732421875 0 0 0 -1
633 261.847625732421875 0 0 0 -1
483 261.847625732421875 0 0 0 -1
483 251.847625732421875 0 0 0 -1
633 251.847625732421875 150 0 0 1
633 261.847625732421875 150 0 0 1
483 261.847625732421875 150 0 0 1
483 251.847625732421875 150 0 0 1
502 182 0 0 0 -1
502 192 0 0 0 -1
496 192 0 0 0 -1
486 182 0 0 0 -1
502 182 150 0 0 1
502 192 150 0 0 1
496 192 150 0 0 1
486 182 150 0 0 1
486 182 0 0 0 -1
496 192 0 0 0 -1
496 208 0 0 0 -1
486 208 0 0 0 -1
486 182 150 0 0 1
496 192 150 0 0 1
496 208 150 0 0 1
486 208 150 0 0 1
544 182.5 0 0 0 -1
544 192.5 0 0 0 -1
534 192.5 0 0 0 -1
534 182.5 0 0 0 -1
544 182.5 150 0 0 1
544 192.5 150 0 0 1
534 192.5 150 0 0 1
534 182.5 150 0 0 1
367 416 0 0 0 -1
367 426 0 0 0 -1
316 426 0 0 0 -1
316 416 0 0 0 -1
367 416 150 0 0 1
367 426 150 0 0 1
316 426 150 0 0 1
316 416 150 0 0 1
549 212 0 0 0 -1
539 212 0 0 0 -1
539 188 0 0 0 -1
549 188 0 0 0 -1
549 212 150 0 0 1
539 212 150 0 0 1
539 188 150 0 0 1
549 188 150 0 0 1
251 417 0 0 0 -1
251 427 0 0 0 -1
222 427 0 0 0 -1
232 417 0 0 0 -1
251 417 150 0 0 1
251 427 150 0 0 1
222 427 150 0 0 1
232 417 150 0 0 1
232 417 0 0 0 -1
222 427 0 0 0 -1
222 342.7210693359375 0 0 0 -1
232 333.2789306640625 0 0 0 -1
232 417 150 0 0 1
222 427 150 0 0 1
222 342.7210693359375 150 0 0 1
232 333.2789306640625 150 0 0 1
606.0875244140625 113 0 0 0 -1
596.0875244140625 113 0 0 0 -1
596.0875244140625 83 0 0 0 -1
606.0875244140625 83 0 0 0 -1
606.0875244140625 113 150 0 0 1
596.0875244140625 113 150 0 0 1
596.0875244140625 83 150 0 0 1
606.0875244140625 83 150 0 0 1
343 400.737701416015625 0 0 0 -1
343 410.737701416015625 0 0 0 -1
318 410.737701416015625 0 0 0 -1
318 400.737701416015625 0 0 0 -1
343 400.737701416015625 150 0 0 1
343 410.737701416015625 150 0 0 1
318 410.737701416015625 150 0 0 1
318 400.737701416015625 150 0 0 1
527 139 0 0 0 -1
527 149 0 0 0 -1
506 149 0 0 0 -1
506 139 0 0 0 -1
527 139 150 0 0 1
527 149 150 0 0 1
506 149 150 0 0 1
506 139 150 0 0 1
361 410 0 0 0 -1
351 410 0 0 0 -1
351 398 0 0 0 -1
361 398 0 0 0 -1
361 410 150 0 0 1
351 410 150 0 0 1
351 398 150 0 0 1
361 398 150 0 0 1
313 70 0 0 0 -1
313 80 0 0 0 -1
302 80 0 0 0 -1
302 70 0 0 0 -1
313 70 150 0 0 1
313 80 150 0 0 1
302 80 150 0 0 1
302 70 150 0 0 1
576 35 0 0 0 -1
566 35 0 0 0 -1
566 24 0 0 0 -1
576 24 0 0 0 -1
576 35 150 0 0 1
566 35 150 0 0 1
566 24 150 0 0 1
576 24 150 0 0 1
630 21 0 0 0 -1
640 21 0 0 0 -1
640 530.806884765625 0 0 0 -1
630 521.193115234375 0 0 0 -1
630 21 150 0 0 1
640 21 150 0 0 1
640 530.806884765625 150 0 0 1
630 521.193115234375 150 0 0 1
630 521.193115234375 0 0 0 -1
640 530.806884765625 0 0 0 -1
610.19683837890625 531.981201171875 0 0 0 -1
609.80316162109375 521.98895263671875 0 0 0 -1
630 521.193115234375 150 0 0 1
640 530.806884765625 150 0 0 1
610.19683837890625 531.981201171875 150 0 0 1
609.80316162109375 521.98895263671875 150 0 0 1
372.018798828125 262.251922607421875 0 0 0 -1
371.981201171875 252.251998901367188 0 0 0 -1
434.0618896484375 252.018539428710938 0 0 0 -1
443.9381103515625 261.981475830078125 0 0 0 -1
372.018798828125 262.251922607421875 150 0 0 1
371.981201171875 252.251998901367188 150 0 0 1
434.0618896484375 252.018539428710938 150 0 0 1
443.9381103515625 261.981475830078125 150 0 0 1
443.9381103515625 261.981475830078125 0 0 0 -1
434.0618896484375 252.018539428710938 0 0 0 -1
434.500396728515625 216.9375 0 0 0 -1
444.499603271484375 217.0625 0 0 0 -1
443.9381103515625 261.981475830078125 150 0 0 1
434.0618896484375 252.018539428710938 150 0 0 1
434.500396728515625 216.9375 150 0 0 1
444.499603271484375 217.0625 150 0 0 1
633 270 0 0 0 -1
633 280 0 0 0 -1
548.83056640625 280 0 0 0 -1
559.16943359375 270 0 0 0 -1
633 270 150 0 0 1
633 280 150 0 0 1
548.83056640625 280 150 0 0 1
559.16943359375 270 150 0 0 1
559.16943359375 270 0 0 0 -1
548.83056640625 280 0 0 0 -1
549.50274658203125 259.83343505859375 0 0 0 -1
559.49725341796875 260.16656494140625 0 0 0 -1
559.16943359375 270 150 0 0 1
548.83056640625 280 150 0 0 1
549.50274658203125 259.83343505859375 150 0 0 1
559.49725341796875 260.16656494140625 150 0 0 1
310.85723876953125 387.87042236328125 0 0 0 -1
320.8538818359375 388.12957763671875 0 0 0 -1
319.872039794921875 426 0 0 0 -1
310.127960205078125 416 0 0 0 -1
310.85723876953125 387.87042236328125 150 0 0 1
320.8538818359375 388.12957763671875 150 0 0 1
319.872039794921875 426 150 0 0 1
310.127960205078125 416 150 0 0 1
310.127960205078125 416 0 0 0 -1
319.872039794921875 426 0 0 0 -1
293 426 0 0 0 -1
293 416 0 0 0 -1
310.127960205078125 416 150 0 0 1
319.872039794921875 426 150 0 0 1
293 426 150 0 0 1
293 416 150 0 0 1
130.088348388671875 324.966064453125 0 0 0 -1
140.088119506835938 325.033935546875 0 0 0 -1
140.0340576171875 333 0 0 0 -1
129.9659423828125 343 0 0 0 -1
130.088348388671875 324.966064453125 150 0 0 1
140.088119506835938 325.033935546875 150 0 0 1
140.0340576171875 333 150 0 0 1
129.9659423828125 343 150 0 0 1
129.9659423828125 343 0 0 0 -1
140.0340576171875 333 0 0 0 -1
147 333 0 0 0 -1
147 343 0 0 0 -1
129.9659423828125 343 150 0 0 1
140.0340576171875 333 150 0 0 1
147 333 150 0 0 1
147 343 150 0 0 1
232 333.2789306640625 0 0 0 -1
222 342.7210693359375 0 0 0 -1
210.71331787109375 342.072845458984375 0 0 0 -1
211.28668212890625 332.08929443359375 0 0 0 -1
232 333.2789306640625 150 0 0 1
222 342.7210693359375 150 0 0 1
210.71331787109375 342.072845458984375 150 0 0 1
211.28668212890625 332.08929443359375 150 0 0 1
4 0 1 2 3
4 4 5 6 7
4 8 9 10 11
4 12 13 14 15
4 16 17 18 19
4 20 21 22 23
4 24 25 26 27
4 28 29 30 31
4 32 33 34 35
4 36 37 38 39
4 40 41 42 43
4 44 45 46 47
4 48 49 50 51
4 52 53 54 55
4 56 57 58 59
4 60 61 62 63
4 64 65 66 67
4 68 69 70 71
4 72 73 74 75
4 76 77 78 79
4 80 81 82 83
4 84 85 86 87
4 88 89 90 91
4 92 93 94 95
4 96 97 98 99
4 100 101 102 103
4 104 105 106 107
4 108 109 110 111
4 112 113 114 115
4 116 117 118 119
4 120 121 122 123
4 124 125 126 127
4 128 129 130 131
4 132 133 134 135
4 136 137 138 139
4 140 141 142 143
4 144 145 146 147
4 148 149 150 151
4 152 153 154 155
4 156 157 158 159
4 160 161 162 163
4 164 165 166 167
4 168 169 170 171
4 172 173 174 175
4 176 177 178 179
4 180 181 182 183
4 184 185 186 187
4 188 189 190 191
4 192 193 194 195
4 196 197 198 199
4 200 201 202 203
4 204 205 206 207
4 208 209 210 211
4 212 213 214 215
4 216 217 218 219
4 220 221 222 223
4 224 225 226 227
4 228 229 230 231
4 232 233 234 235
4 236 237 238 239
4 240 241 242 243
4 244 245 246 247
4 248 249 250 251
4 252 253 254 255
4 256 257 258 259
4 260 261 262 263
4 264 265 266 267
4 268 269 270 271
4 272 273 274 275
4 276 277 278 279
4 280 281 282 283
4 284 285 286 287
4 288 289 290 291
4 292 293 294 295
4 296 297 298 299
4 300 301 302 303
4 304 305 306 307
4 308 309 310 311
4 312 313 314 315
4 316 317 318 319
4 320 321 322 323
4 324 325 326 327
4 328 329 330 331
4 332 333 334 335
4 336 337 338 339
4 340 341 342 343
4 344 345 346 347
4 348 349 350 351
4 352 353 354 355
4 356 357 358 359
4 360 361 362 363
4 364 365 366 367
4 368 369 370 371
4 372 373 374 375
4 376 377 378 379
4 380 381 382 383
4 384 385 386 387
4 388 389 390 391
4 392 393 394 395
4 396 397 398 399
4 400 401 402 403
4 404 405 406 407
4 408 409 410 411
4 412 413 414 415
4 416 417 418 419
4 420 421 422 423
4 424 425 426 427
4 428 429 430 431
4 432 433 434 435
4 436 437 438 439
4 440 441 442 443
4 444 445 446 447
4 448 449 450 451
4 452 453 454 455
4 456 457 458 459
4 460 461 462 463
4 464 465 466 467
4 468 469 470 471
4 472 473 474 475
4 476 477 478 479
4 480 481 482 483
4 484 485 486 487
4 488 489 490 491
4 492 493 494 495
4 496 497 498 499
4 500 501 502 503
4 504 505 506 507
4 508 509 510 511
4 512 513 514 515
4 516 517 518 519
4 520 521 522 523
4 524 525 526 527
4 528 529 530 531
4 532 533 534 535
4 536 537 538 539
4 540 541 542 543
4 544 545 546 547
4 548 549 550 551
4 552 553 554 555
4 556 557 558 559
4 560 561 562 563
4 564 565 566 567
4 568 569 570 571
4 572 573 574 575
4 576 577 578 579
4 580 581 582 583
4 584 585 586 587
4 588 589 590 591
4 592 593 594 595
4 596 597 598 599
4 600 601 602 603
4 604 605 606 607
4 608 609 610 611
4 612 613 614 615
4 616 617 618 619
4 620 621 622 623
4 624 625 626 627
4 628 629 630 631
4 632 633 634 635
4 636 637 638 639
4 640 641 642 643
4 644 645 646 647
4 648 649 650 651
4 652 653 654 655
4 656 657 658 659
4 660 661 662 663
4 664 665 666 667
4 668 669 670 671
4 672 673 674 675
4 676 677 678 679
4 680 681 682 683
4 684 685 686 687
4 688 689 690 691
4 692 693 694 695
4 696 697 698 699
4 700 701 702 703
4 704 705 706 707
4 708 709 710 711
4 712 713 714 715
4 716 717 718 719
4 720 721 722 723
4 724 725 726 727
4 728 729 730 731
4 732 733 734 735
4 736 737 738 739
4 740 741 742 743
4 744 745 746 747
4 748 749 750 751
4 752 753 754 755
4 756 757 758 759
4 760 761 762 763
4 764 765 766 767
