ply
format ascii 1.0
element vertex 880
property float x
property float y
property float z
property float nx
property float ny
property float nz
element quads 220
property list uchar int vertex_indices
end_header
491 257 0 -0 -1 0
468 257 0 -0 -1 0
468 257 150 -0 -1 0
491 257 150 -0 -1 0
491 267 0 0 1 0
458 267 0 0 1 0
458 267 150 0 1 0
491 267 150 0 1 0
468 257 0 1 0 0
468 239 0 1 0 0
468 239 150 1 0 0
468 257 150 1 0 0
458 267 0 -1 -0 0
458 239 0 -1 -0 0
458 239 150 -1 -0 0
458 267 150 -1 -0 0
674 447 0 1 0 0
674 372 0 1 0 0
674 372 150 1 0 0
674 447 150 1 0 0
664 437 0 -1 -0 0
664 362 0 -1 -0 0
664 362 150 -1 -0 0
664 437 150 -1 -0 0
664 437 0 -0 -1 0
645 437 0 -0 -1 0
645 437 150 -0 -1 0
664 437 150 -0 -1 0
674 447 0 0 1 0
645 447 0 0 1 0
645 447 150 0 1 0
674 447 150 0 1 0
674 372 0 -0 1 0
680 372 0 -0 1 0
680 372 150 -0 1 0
674 372 150 -0 1 0
664 362 0 0 -1 0
680 362 0 0 -1 0
680 362 150 0 -1 0
664 362 150 0 -1 0
602 139.530609130859375 0 -0 -1 0
550 139.530609130859375 0 -0 -1 0
550 139.530609130859375 150 -0 -1 0
602 139.530609130859375 150 -0 -1 0
602 149.530609130859375 0 0 1 0
550 149.530609130859375 0 0 1 0
550 149.530609130859375 150 0 1 0
602 149.530609130859375 150 0 1 0
568.7794189453125 442 0 1 0 0
568.7794189453125 397 0 1 0 0
568.7794189453125 397 150 1 0 0
568.7794189453125 442 150 1 0 0
558.7794189453125 442 0 -1 -0 0
558.7794189453125 397 0 -1 -0 0
558.7794189453125 397 150 -1 -0 0
558.7794189453125 442 150 -1 -0 0
636 253 0 -0 -1 0
600 253 0 -0 -1 0
600 253 150 -0 -1 0
636 253 150 -0 -1 0
636 263 0 0 1 0
610 263 0 0 1 0
610 263 150 0 1 0
636 263 150 0 1 0
600 253 0 -1 0 0
600 300 0 -1 0 0
600 300 150 -1 0 0
600 253 150 -1 0 0
610 263 0 1 -0 0
610 290 0 1 -0 0
610 290 150 1 -0 0
610 263 150 1 -0 0
573.4833984375 364 0 1 0 0
573.4833984375 295 0 1 0 0
573.4833984375 295 150 1 0 0
573.4833984375 364 150 1 0 0
563.4833984375 364 0 -1 -0 0
563.4833984375 295 0 -1 -0 0
563.4833984375 295 150 -1 -0 0
563.4833984375 364 150 -1 -0 0
78 159 0 1 0 0
78 142 0 1 0 0
78 142 150 1 0 0
78 159 150 1 0 0
68 159 0 -1 -0 0
68 142 0 -1 -0 0
68 142 150 -1 -0 0
68 159 150 -1 -0 0
716 335 0 1 0 0
716 295 0 1 0 0
716 295 150 1 0 0
716 335 150 1 0 0
706 335 0 -1 -0 0
706 295 0 -1 -0 0
706 295 150 -1 -0 0
706 335 150 -1 -0 0
585 437 0 -0 -1 0
564 437 0 -0 -1 0
564 437 150 -0 -1 0
585 437 150 -0 -1 0
585 447 0 0 1 0
564 447 0 0 1 0
564 447 150 0 1 0
585 447 150 0 1 0
575 259.14959716796875 0 -0 -1 0
545 259.14959716796875 0 -0 -1 0
545 259.14959716796875 150 -0 -1 0
575 259.14959716796875 150 -0 -1 0
575 269.14959716796875 0 0 1 0
545 269.14959716796875 0 0 1 0
545 269.14959716796875 150 0 1 0
575 269.14959716796875 150 0 1 0
257 253 0 1 0 0
257 202 0 1 0 0
257 202 150 1 0 0
257 253 150 1 0 0
247 253 0 -1 -0 0
247 192 0 -1 -0 0
247 192 150 -1 -0 0
247 253 150 -1 -0 0
257 202 0 -0 1 0
267 202 0 -0 1 0
267 202 150 -0 1 0
257 202 150 -0 1 0
247 192 0 0 -1 0
267 192 0 0 -1 0
267 192 150 0 -1 0
247 192 150 0 -1 0
207 227 0 1 0 0
207 207 0 1 0 0
207 207 150 1 0 0
207 227 150 1 0 0
197 227 0 -1 -0 0
197 207 0 -1 -0 0
197 207 150 -1 -0 0
197 227 150 -1 -0 0
389 284 0 -0 -1 0
337 284 0 -0 -1 0
337 284 150 -0 -1 0
389 284 150 -0 -1 0
389 294 0 0 1 0
337 294 0 0 1 0
337 294 150 0 1 0
389 294 150 0 1 0
476 139.309524536132812 0 -0 -1 0
447 139.309524536132812 0 -0 -1 0
447 139.309524536132812 150 -0 -1 0
476 139.309524536132812 150 -0 -1 0
476 149.309524536132812 0 0 1 0
447 149.309524536132812 0 0 1 0
447 149.309524536132812 150 0 1 0
476 149.309524536132812 150 0 1 0
319 237.424774169921875 0 -0 -1 0
298 237.424774169921875 0 -0 -1 0
298 237.424774169921875 150 -0 -1 0
319 237.424774169921875 150 -0 -1 0
319 247.424774169921875 0 0 1 0
298 247.424774169921875 0 0 1 0
298 247.424774169921875 150 0 1 0
319 247.424774169921875 150 0 1 0
476 393 0 -0 -1 0
450 393 0 -0 -1 0
450 393 150 -0 -1 0
476 393 150 -0 -1 0
476 403 0 0 1 0
450 403 0 0 1 0
450 403 150 0 1 0
476 403 150 0 1 0
429 392.5 0 -0 -1 0
413 392.5 0 -0 -1 0
413 392.5 150 -0 -1 0
429 392.5 150 -0 -1 0
429 402.5 0 0 1 0
413 402.5 0 0 1 0
413 402.5 150 0 1 0
429 402.5 150 0 1 0
78 230 0 1 0 0
78 204 0 1 0 0
78 204 150 1 0 0
78 230 150 1 0 0
68 230 0 -1 -0 0
68 204 0 -1 -0 0
68 204 150 -1 -0 0
68 230 150 -1 -0 0
310 138 0 -0 -1 0
297 138 0 -0 -1 0
297 138 150 -0 -1 0
310 138 150 -0 -1 0
310 148 0 0 1 0
297 148 0 0 1 0
297 148 150 0 1 0
310 148 150 0 1 0
518 393 0 -0 -1 0
504 393 0 -0 -1 0
504 393 150 -0 -1 0
518 393 150 -0 -1 0
518 403 0 0 1 0
504 403 0 0 1 0
504 403 150 0 1 0
518 403 150 0 1 0
574 364 0 1 0 0
574 354 0 1 0 0
574 354 150 1 0 0
574 364 150 1 0 0
564 364 0 -1 -0 0
564 354 0 -1 -0 0
564 354 150 -1 -0 0
564 364 150 -1 -0 0
207 288 0 1 0 0
207 274 0 1 0 0
207 274 150 1 0 0
207 288 150 1 0 0
197 288 0 -1 -0 0
197 274 0 -1 -0 0
197 274 150 -1 -0 0
197 288 150 -1 -0 0
658.0823974609375 299.83990478515625 0 0.0164797175675630569 0.99986422061920166 0
714 298.91827392578125 0 0.0164797175675630569 0.99986422061920166 0
714 298.91827392578125 150 0.0164797175675630569 0.99986422061920166 0
658.0823974609375 299.83990478515625 150 0.0164797175675630569 0.99986422061920166 0
657.9176025390625 289.84124755859375 0 -0.0164797175675630569 -0.99986422061920166 0
704 289.08172607421875 0 -0.0164797175675630569 -0.99986422061920166 0
704 289.08172607421875 150 -0.0164797175675630569 -0.99986422061920166 0
657.9176025390625 289.84124755859375 150 -0.0164797175675630569 -0.99986422061920166 0
714 298.91827392578125 0 1 0 0
714 228.994766235351562 0 1 0 0
714 228.994766235351562 150 1 0 0
714 298.91827392578125 150 1 0 0
704 289.08172607421875 0 -1 -0 0
704 239.005233764648438 0 -1 -0 0
704 239.005233764648438 150 -1 -0 0
704 289.08172607421875 150 -1 -0 0
637 290 0 -0 -1 0
610 290 0 -0 -1 0
610 290 150 -0 -1 0
637 290 150 -0 -1 0
637 300 0 0 1 0
600 300 0 0 1 0
600 300 150 0 1 0
637 300 150 0 1 0
707.4466552734375 351.8519287109375 0 -0.999561309814453125 -0.0296166315674781799 0
707.14593505859375 362 0 -0.999561309814453125 -0.0296166315674781799 0
707.14593505859375 362 150 -0.999561309814453125 -0.0296166315674781799 0
707.4466552734375 351.8519287109375 150 -0.999561309814453125 -0.0296166315674781799 0
717.4422607421875 352.1480712890625 0 0.999561309814453125 0.0296166315674781799 0
716.85406494140625 372 0 0.999561309814453125 0.0296166315674781799 0
716.85406494140625 372 150 0.999561309814453125 0.0296166315674781799 0
717.4422607421875 352.1480712890625 150 0.999561309814453125 0.0296166315674781799 0
707.14593505859375 362 0 -0 -1 0
698 362 0 -0 -1 0
698 362 150 -0 -1 0
707.14593505859375 362 150 -0 -1 0
716.85406494140625 372 0 0 1 0
698 372 0 0 1 0
698 372 150 0 1 0
716.85406494140625 372 150 0 1 0
285 284 0 -0 -1 0
257.16943359375 284 0 -0 -1 0
257.16943359375 284 150 -0 -1 0
285 284 150 -0 -1 0
285 294 0 0 1 0
246.830551147460938 294 0 0 1 0
246.830551147460938 294 150 0 1 0
285 294 150 0 1 0
257.16943359375 284 0 0.999444901943206787 0.033314831554889679 0
257.497222900390625 274.16656494140625 0 0.999444901943206787 0.033314831554889679 0
257.497222900390625 274.16656494140625 150 0.999444901943206787 0.033314831554889679 0
257.16943359375 284 150 0.999444901943206787 0.033314831554889679 0
246.830551147460938 294 0 -0.999444901943206787 -0.033314831554889679 0
247.502777099609375 273.83343505859375 0 -0.999444901943206787 -0.033314831554889679 0
247.502777099609375 273.83343505859375 150 -0.999444901943206787 -0.033314831554889679 0
246.830551147460938 294 150 -0.999444901943206787 -0.033314831554889679 0
282.16119384765625 202.481277465820312 0 0.0322412922978401184 0.999480128288269043 0
301.922515869140625 201.84381103515625 0 0.0322412922978401184 0.999480128288269043 0
301.922515869140625 201.84381103515625 150 0.0322412922978401184 0.999480128288269043 0
282.16119384765625 202.481277465820312 150 0.0322412922978401184 0.999480128288269043 0
281.83880615234375 192.486465454101562 0 -0.0322412922978401184 -0.999480128288269043 0
292.077484130859375 192.15618896484375 0 -0.0322412922978401184 -0.999480128288269043 0
292.077484130859375 192.15618896484375 150 -0.0322412922978401184 -0.999480128288269043 0
281.83880615234375 192.486465454101562 150 -0.0322412922978401184 -0.999480128288269043 0
301.922515869140625 201.84381103515625 0 0.999869942665100098 0.0161269344389438629 0
302.499359130859375 166.08062744140625 0 0.999869942665100098 0.0161269344389438629 0
302.499359130859375 166.08062744140625 150 0.999869942665100098 0.0161269344389438629 0
301.922515869140625 201.84381103515625 150 0.999869942665100098 0.0161269344389438629 0
292.077484130859375 192.15618896484375 0 -0.999869942665100098 -0.0161269344389438629 0
292.500640869140625 165.91937255859375 0 -0.999869942665100098 -0.0161269344389438629 0
292.500640869140625 165.91937255859375 150 -0.999869942665100098 -0.0161269344389438629 0
292.077484130859375 192.15618896484375 150 -0.999869942665100098 -0.0161269344389438629 0
665.5831298828125 177.96356201171875 0 -0.999973416328430176 -0.00728762941434979439 0
665.03485107421875 253.202545166015625 0 -0.999973416328430176 -0.00728762941434979439 0
665.03485107421875 253.202545166015625 150 -0.999973416328430176 -0.00728762941434979439 0
665.5831298828125 177.96356201171875 150 -0.999973416328430176 -0.00728762941434979439 0
675.5828857421875 178.03643798828125 0 0.999973416328430176 0.00728762941434979439 0
674.96514892578125 262.797454833984375 0 0.999973416328430176 0.00728762941434979439 0
674.96514892578125 262.797454833984375 150 0.999973416328430176 0.00728762941434979439 0
675.5828857421875 178.03643798828125 150 0.999973416328430176 0.00728762941434979439 0
665.03485107421875 253.202545166015625 0 -0.0416305437684059143 -0.999133050441741943 0
657.7918701171875 253.50433349609375 0 -0.0416305437684059143 -0.999133050441741943 0
657.7918701171875 253.50433349609375 150 -0.0416305437684059143 -0.999133050441741943 0
665.03485107421875 253.202545166015625 150 -0.0416305437684059143 -0.999133050441741943 0
674.96514892578125 262.797454833984375 0 0.0416305437684059143 0.999133050441741943 0
658.2081298828125 263.49566650390625 0 0.0416305437684059143 0.999133050441741943 0
658.2081298828125 263.49566650390625 150 0.0416305437684059143 0.999133050441741943 0
674.96514892578125 262.797454833984375 150 0.0416305437684059143 0.999133050441741943 0
673.0052490234375 239.037628173828125 0 0.00104539969470351934 0.999999463558197021 0
704 239.005233764648438 0 0.00104539969470351934 0.999999463558197021 0
704 239.005233764648438 150 0.00104539969470351934 0.999999463558197021 0
673.0052490234375 239.037628173828125 150 0.00104539969470351934 0.999999463558197021 0
672.9947509765625 229.037643432617188 0 -0.00104539969470351934 -0.999999463558197021 0
714 228.994766235351562 0 -0.00104539969470351934 -0.999999463558197021 0
714 228.994766235351562 150 -0.00104539969470351934 -0.999999463558197021 0
672.9947509765625 229.037643432617188 150 -0.00104539969470351934 -0.999999463558197021 0
652.09918212890625 150.356155395507812 0 0.0198373645544052124 0.999803245067596436 0
665 150.100189208984375 0 0.0198373645544052124 0.999803245067596436 0
665 150.100189208984375 150 0.0198373645544052124 0.999803245067596436 0
652.09918212890625 150.356155395507812 150 0.0198373645544052124 0.999803245067596436 0
651.90081787109375 140.358123779296875 0 -0.0198373645544052124 -0.999803245067596436 0
675 139.899810791015625 0 -0.0198373645544052124 -0.999803245067596436 0
675 139.899810791015625 150 -0.0198373645544052124 -0.999803245067596436 0
651.90081787109375 140.358123779296875 150 -0.0198373645544052124 -0.999803245067596436 0
665 150.100189208984375 0 -1 0 0
665 161 0 -1 0 0
665 161 150 -1 0 0
665 150.100189208984375 150 -1 0 0
675 139.899810791015625 0 1 -0 0
675 161 0 1 -0 0
675 161 150 1 -0 0
675 139.899810791015625 150 1 -0 0
491 257 0 470.65216064453125 245.826080322265625 0
491 267 0 470.65216064453125 245.826080322265625 0
491 267 150 470.65216064453125 245.826080322265625 0
491 257 150 470.65216064453125 245.826080322265625 0
602 139.530609130859375 0 591.423095703125 136.847335815429688 0
602 149.530609130859375 0 591.423095703125 136.847335815429688 0
602 149.530609130859375 150 591.423095703125 136.847335815429688 0
602 139.530609130859375 150 591.423095703125 136.847335815429688 0
550 139.530609130859375 0 538.423095703125 136.847335815429688 0
550 149.530609130859375 0 538.423095703125 136.847335815429688 0
550 149.530609130859375 150 538.423095703125 136.847335815429688 0
550 139.530609130859375 150 538.423095703125 136.847335815429688 0
568.7794189453125 442 0 556.139892578125 433.177764892578125 0
558.7794189453125 442 0 556.139892578125 433.177764892578125 0
558.7794189453125 442 150 556.139892578125 433.177764892578125 0
568.7794189453125 442 150 556.139892578125 433.177764892578125 0
568.7794189453125 397 0 556.139892578125 387.177764892578125 0
558.7794189453125 397 0 556.139892578125 387.177764892578125 0
558.7794189453125 397 150 556.139892578125 387.177764892578125 0
568.7794189453125 397 150 556.139892578125 387.177764892578125 0
636 253 0 619.33331298828125 245.97222900390625 0
636 263 0 619.33331298828125 245.97222900390625 0
636 263 150 619.33331298828125 245.97222900390625 0
636 253 150 619.33331298828125 245.97222900390625 0
573.4833984375 364 0 565.17205810546875 359.724639892578125 0
563.4833984375 364 0 565.17205810546875 359.724639892578125 0
563.4833984375 364 150 565.17205810546875 359.724639892578125 0
573.4833984375 364 150 565.17205810546875 359.724639892578125 0
573.4833984375 295 0 565.17205810546875 289.724639892578125 0
563.4833984375 295 0 565.17205810546875 289.724639892578125 0
563.4833984375 295 150 565.17205810546875 289.724639892578125 0
573.4833984375 295 150 565.17205810546875 289.724639892578125 0
78 159 0 73.4117660522460938 150.647064208984375 0
68 159 0 73.4117660522460938 150.647064208984375 0
68 159 150 73.4117660522460938 150.647064208984375 0
78 159 150 73.4117660522460938 150.647064208984375 0
78 142 0 73.4117660522460938 132.647064208984375 0
68 142 0 73.4117660522460938 132.647064208984375 0
68 142 150 73.4117660522460938 132.647064208984375 0
78 142 150 73.4117660522460938 132.647064208984375 0
716 335 0 698.0999755859375 327.625 0
706 335 0 698.0999755859375 327.625 0
706 335 150 698.0999755859375 327.625 0
716 335 150 698.0999755859375 327.625 0
716 295 0 698.0999755859375 286.625 0
706 295 0 698.0999755859375 286.625 0
706 295 150 698.0999755859375 286.625 0
716 295 150 698.0999755859375 286.625 0
585 437 0 558.14288330078125 416.19049072265625 0
585 447 0 558.14288330078125 416.19049072265625 0
585 447 150 558.14288330078125 416.19049072265625 0
585 437 150 558.14288330078125 416.19049072265625 0
564 437 0 536.14288330078125 416.19049072265625 0
564 447 0 536.14288330078125 416.19049072265625 0
564 447 150 536.14288330078125 416.19049072265625 0
564 437 150 536.14288330078125 416.19049072265625 0
575 259.14959716796875 0 556.83331298828125 250.51129150390625 0
575 269.14959716796875 0 556.83331298828125 250.51129150390625 0
575 269.14959716796875 150 556.83331298828125 250.51129150390625 0
575 259.14959716796875 150 556.83331298828125 250.51129150390625 0
545 259.14959716796875 0 525.83331298828125 250.51129150390625 0
545 269.14959716796875 0 525.83331298828125 250.51129150390625 0
545 269.14959716796875 150 525.83331298828125 250.51129150390625 0
545 259.14959716796875 150 525.83331298828125 250.51129150390625 0
257 253 0 251.960784912109375 249.039215087890625 0
247 253 0 251.960784912109375 249.039215087890625 0
247 253 150 251.960784912109375 249.039215087890625 0
257 253 150 251.960784912109375 249.039215087890625 0
207 227 0 196.649993896484375 216.649993896484375 0
197 227 0 196.649993896484375 216.649993896484375 0
197 227 150 196.649993896484375 216.649993896484375 0
207 227 150 196.649993896484375 216.649993896484375 0
207 207 0 196.649993896484375 195.649993896484375 0
197 207 0 196.649993896484375 195.649993896484375 0
197 207 150 196.649993896484375 195.649993896484375 0
207 207 150 196.649993896484375 195.649993896484375 0
468 239 0 442 224.72222900390625 0
458 239 0 442 224.72222900390625 0
458 239 150 442 224.72222900390625 0
468 239 150 442 224.72222900390625 0
389 284 0 382.51922607421875 278.5384521484375 0
389 294 0 382.51922607421875 278.5384521484375 0
389 294 150 382.51922607421875 278.5384521484375 0
389 284 150 382.51922607421875 278.5384521484375 0
337 284 0 329.51922607421875 278.5384521484375 0
337 294 0 329.51922607421875 278.5384521484375 0
337 294 150 329.51922607421875 278.5384521484375 0
337 284 150 329.51922607421875 278.5384521484375 0
476 139.309524536132812 0 460.586212158203125 134.505752563476562 0
476 149.309524536132812 0 460.586212158203125 134.505752563476562 0
476 149.309524536132812 150 460.586212158203125 134.505752563476562 0
476 139.309524536132812 150 460.586212158203125 134.505752563476562 0
447 139.309524536132812 0 430.586212158203125 134.505752563476562 0
447 149.309524536132812 0 430.586212158203125 134.505752563476562 0
447 149.309524536132812 150 430.586212158203125 134.505752563476562 0
447 139.309524536132812 150 430.586212158203125 134.505752563476562 0
319 237.424774169921875 0 304.80950927734375 226.11883544921875 0
319 247.424774169921875 0 304.80950927734375 226.11883544921875 0
319 247.424774169921875 150 304.80950927734375 226.11883544921875 0
319 237.424774169921875 150 304.80950927734375 226.11883544921875 0
298 237.424774169921875 0 282.80950927734375 226.11883544921875 0
298 247.424774169921875 0 282.80950927734375 226.11883544921875 0
298 247.424774169921875 150 282.80950927734375 226.11883544921875 0
298 237.424774169921875 150 282.80950927734375 226.11883544921875 0
476 393 0 458.69232177734375 377.884613037109375 0
476 403 0 458.69232177734375 377.884613037109375 0
476 403 150 458.69232177734375 377.884613037109375 0
476 393 150 458.69232177734375 377.884613037109375 0
450 393 0 431.69232177734375 377.884613037109375 0
450 403 0 431.69232177734375 377.884613037109375 0
450 403 150 431.69232177734375 377.884613037109375 0
450 393 150 431.69232177734375 377.884613037109375 0
645 437 0 610.0526123046875 414 0
645 447 0 610.0526123046875 414 0
645 447 150 610.0526123046875 414 0
645 437 150 610.0526123046875 414 0
680 372 0 567.66668701171875 310 0
680 362 0 567.66668701171875 310 0
680 362 150 567.66668701171875 310 0
680 372 150 567.66668701171875 310 0
429 392.5 0 403.1875 367.96875 0
429 402.5 0 403.1875 367.96875 0
429 402.5 150 403.1875 367.96875 0
429 392.5 150 403.1875 367.96875 0
413 392.5 0 386.1875 367.96875 0
413 402.5 0 386.1875 367.96875 0
413 402.5 150 386.1875 367.96875 0
413 392.5 150 386.1875 367.96875 0
267 202 0 241.300003051757812 181.800003051757812 0
267 192 0 241.300003051757812 181.800003051757812 0
267 192 150 241.300003051757812 181.800003051757812 0
267 202 150 241.300003051757812 181.800003051757812 0
78 230 0 75 222.153839111328125 0
68 230 0 75 222.153839111328125 0
68 230 150 75 222.153839111328125 0
78 230 150 75 222.153839111328125 0
78 204 0 75 195.153839111328125 0
68 204 0 75 195.153839111328125 0
68 204 150 75 195.153839111328125 0
78 204 150 75 195.153839111328125 0
310 138 0 287.153839111328125 127.384613037109375 0
310 148 0 287.153839111328125 127.384613037109375 0
310 148 150 287.153839111328125 127.384613037109375 0
310 138 150 287.153839111328125 127.384613037109375 0
297 138 0 273.153839111328125 127.384613037109375 0
297 148 0 273.153839111328125 127.384613037109375 0
297 148 150 273.153839111328125 127.384613037109375 0
297 138 150 273.153839111328125 127.384613037109375 0
518 393 0 482 364.928558349609375 0
518 403 0 482 364.928558349609375 0
518 403 150 482 364.928558349609375 0
518 393 150 482 364.928558349609375 0
504 393 0 467 364.928558349609375 0
504 403 0 467 364.928558349609375 0
504 403 150 467 364.928558349609375 0
504 393 150 467 364.928558349609375 0
574 364 0 516.5999755859375 328.600006103515625 0
564 364 0 516.5999755859375 328.600006103515625 0
564 364 150 516.5999755859375 328.600006103515625 0
574 364 150 516.5999755859375 328.600006103515625 0
574 354 0 516.5999755859375 317.600006103515625 0
564 354 0 516.5999755859375 317.600006103515625 0
564 354 150 516.5999755859375 317.600006103515625 0
574 354 150 516.5999755859375 317.600006103515625 0
207 288 0 192.214279174804688 268.428558349609375 0
197 288 0 192.214279174804688 268.428558349609375 0
197 288 150 192.214279174804688 268.428558349609375 0
207 288 150 192.214279174804688 268.428558349609375 0
207 274 0 192.214279174804688 253.428573608398438 0
197 274 0 192.214279174804688 253.428573608398438 0
197 274 150 192.214279174804688 253.428573608398438 0
207 274 150 192.214279174804688 253.428573608398438 0
658.0823974609375 299.83990478515625 0 645.31536865234375 294.49493408203125 0
657.9176025390625 289.84124755859375 0 645.31536865234375 294.49493408203125 0
657.9176025390625 289.84124755859375 150 645.31536865234375 294.49493408203125 0
658.0823974609375 299.83990478515625 150 645.31536865234375 294.49493408203125 0
637 290 0 614.40740966796875 279.259246826171875 0
637 300 0 614.40740966796875 279.259246826171875 0
637 300 150 614.40740966796875 279.259246826171875 0
637 290 150 614.40740966796875 279.259246826171875 0
707.4466552734375 351.8519287109375 0 637.79449462890625 316.19580078125 0
717.4422607421875 352.1480712890625 0 637.79449462890625 316.19580078125 0
717.4422607421875 352.1480712890625 150 637.79449462890625 316.19580078125 0
707.4466552734375 351.8519287109375 150 637.79449462890625 316.19580078125 0
698 362 0 620.68212890625 322.419647216796875 0
698 372 0 620.68212890625 322.419647216796875 0
698 372 150 620.68212890625 322.419647216796875 0
698 362 150 620.68212890625 322.419647216796875 0
285 284 0 275.75946044921875 273.795379638671875 0
285 294 0 275.75946044921875 273.795379638671875 0
285 294 150 275.75946044921875 273.795379638671875 0
285 284 150 275.75946044921875 273.795379638671875 0
257.497222900390625 274.16656494140625 0 231.359161376953125 245.301528930664062 0
247.502777099609375 273.83343505859375 0 231.359161376953125 245.301528930664062 0
247.502777099609375 273.83343505859375 150 231.359161376953125 245.301528930664062 0
257.497222900390625 274.16656494140625 150 231.359161376953125 245.301528930664062 0
282.16119384765625 202.481277465820312 0 266.89068603515625 192.272491455078125 0
281.83880615234375 192.486465454101562 0 266.89068603515625 192.272491455078125 0
281.83880615234375 192.486465454101562 150 266.89068603515625 192.272491455078125 0
282.16119384765625 202.481277465820312 150 266.89068603515625 192.272491455078125 0
302.499359130859375 166.08062744140625 0 294.05816650390625 160.437469482421875 0
292.500640869140625 165.91937255859375 0 294.05816650390625 160.437469482421875 0
292.500640869140625 165.91937255859375 150 294.05816650390625 160.437469482421875 0
302.499359130859375 166.08062744140625 150 294.05816650390625 160.437469482421875 0
665.5831298828125 177.96356201171875 0 656.74444580078125 174.598342895507812 0
675.5828857421875 178.03643798828125 0 656.74444580078125 174.598342895507812 0
675.5828857421875 178.03643798828125 150 656.74444580078125 174.598342895507812 0
665.5831298828125 177.96356201171875 150 656.74444580078125 174.598342895507812 0
657.7918701171875 253.50433349609375 0 566.05364990234375 218.576324462890625 0
658.2081298828125 263.49566650390625 0 566.05364990234375 218.576324462890625 0
658.2081298828125 263.49566650390625 150 566.05364990234375 218.576324462890625 0
657.7918701171875 253.50433349609375 150 566.05364990234375 218.576324462890625 0
673.0052490234375 239.037628173828125 0 650.291748046875 231.326492309570312 0
672.9947509765625 229.037643432617188 0 650.291748046875 231.326492309570312 0
672.9947509765625 229.037643432617188 150 650.291748046875 231.326492309570312 0
673.0052490234375 239.037628173828125 150 650.291748046875 231.326492309570312 0
652.09918212890625 150.356155395507812 0 600.56219482421875 138.7235107421875 0
651.90081787109375 140.358123779296875 0 600.56219482421875 138.7235107421875 0
651.90081787109375 140.358123779296875 150 600.56219482421875 138.7235107421875 0
652.09918212890625 150.356155395507812 150 600.56219482421875 138.7235107421875 0
665 161 0 603.98974609375 147.229095458984375 0
675 161 0 603.98974609375 147.229095458984375 0
675 161 150 603.98974609375 147.229095458984375 0
665 161 150 603.98974609375 147.229095458984375 0
491 257 0 0 0 -1
491 267 0 0 0 -1
458 267 0 0 0 -1
468 257 0 0 0 -1
491 257 150 0 0 1
491 267 150 0 0 1
458 267 150 0 0 1
468 257 150 0 0 1
468 257 0 0 0 -1
458 267 0 0 0 -1
458 239 0 0 0 -1
468 239 0 0 0 -1
468 257 150 0 0 1
458 267 150 0 0 1
458 239 150 0 0 1
468 239 150 0 0 1
674 447 0 0 0 -1
664 437 0 0 0 -1
664 362 0 0 0 -1
674 372 0 0 0 -1
674 447 150 0 0 1
664 437 150 0 0 1
664 362 150 0 0 1
674 372 150 0 0 1
664 437 0 0 0 -1
674 447 0 0 0 -1
645 447 0 0 0 -1
645 437 0 0 0 -1
664 437 150 0 0 1
674 447 150 0 0 1
645 447 150 0 0 1
645 437 150 0 0 1
674 372 0 0 0 -1
664 362 0 0 0 -1
680 362 0 0 0 -1
680 372 0 0 0 -1
674 372 150 0 0 1
664 362 150 0 0 1
680 362 150 0 0 1
680 372 150 0 0 1
602 139.530609130859375 0 0 0 -1
602 149.530609130859375 0 0 0 -1
550 149.530609130859375 0 0 0 -1
550 139.530609130859375 0 0 0 -1
602 139.530609130859375 150 0 0 1
602 149.530609130859375 150 0 0 1
550 149.530609130859375 150 0 0 1
550 139.530609130859375 150 0 0 1
568.7794189453125 442 0 0 0 -1
558.7794189453125 442 0 0 0 -1
558.7794189453125 397 0 0 0 -1
568.7794189453125 397 0 0 0 -1
568.7794189453125 442 150 0 0 1
558.7794189453125 442 150 0 0 1
558.7794189453125 397 150 0 0 1
568.7794189453125 397 150 0 0 1
636 253 0 0 0 -1
636 263 0 0 0 -1
610 263 0 0 0 -1
600 253 0 0 0 -1
636 253 150 0 0 1
636 263 150 0 0 1
610 263 150 0 0 1
600 253 150 0 0 1
600 253 0 0 0 -1
610 263 0 0 0 -1
610 290 0 0 0 -1
600 300 0 0 0 -1
600 253 150 0 0 1
610 263 150 0 0 1
610 290 150 0 0 1
600 300 150 0 0 1
573.4833984375 364 0 0 0 -1
563.4833984375 364 0 0 0 -1
563.4833984375 295 0 0 0 -1
573.4833984375 295 0 0 0 -1
573.4833984375 364 150 0 0 1
563.4833984375 364 150 0 0 1
563.4833984375 295 150 0 0 1
573.4833984375 295 150 0 0 1
78 159 0 0 0 -1
68 159 0 0 0 -1
68 142 0 0 0 -1
78 142 0 0 0 -1
78 159 150 0 0 1
68 159 150 0 0 1
68 142 150 0 0 1
78 142 150 0 0 1
716 335 0 0 0 -1
706 335 0 0 0 -1
706 295 0 0 0 -1
716 295 0 0 0 -1
716 335 150 0 0 1
706 335 150 0 0 1
706 295 150 0 0 1
716 295 150 0 0 1
585 437 0 0 0 -1
585 447 0 0 0 -1
564 447 0 0 0 -1
564 437 0 0 0 -1
585 437 150 0 0 1
585 447 150 0 0 1
564 447 150 0 0 1
564 437 150 0 0 1
575 259.14959716796875 0 0 0 -1
575 269.14959716796875 0 0 0 -1
545 269.14959716796875 0 0 0 -1
545 259.14959716796875 0 0 0 -1
575 259.14959716796875 150 0 0 1
575 269.14959716796875 150 0 0 1
545 269.14959716796875 150 0 0 1
545 259.14959716796875 150 0 0 1
257 253 0 0 0 -1
247 253 0 0 0 -1
247 192 0 0 0 -1
257 202 0 0 0 -1
257 253 150 0 0 1
247 253 150 0 0 1
247 192 150 0 0 1
257 202 150 0 0 1
257 202 0 0 0 -1
247 192 0 0 0 -1
267 192 0 0 0 -1
267 202 0 0 0 -1
257 202 150 0 0 1
247 192 150 0 0 1
267 192 150 0 0 1
267 202 150 0 0 1
207 227 0 0 0 -1
197 227 0 0 0 -1
197 207 0 0 0 -1
207 207 0 0 0 -1
207 227 150 0 0 1
197 227 150 0 0 1
197 207 150 0 0 1
207 207 150 0 0 1
389 284 0 0 0 -1
389 294 0 0 0 -1
337 294 0 0 0 -1
337 284 0 0 0 -1
389 284 150 0 0 1
389 294 150 0 0 1
337 294 150 0 0 1
337 284 150 0 0 1
476 139.309524536132812 0 0 0 -1
476 149.309524536132812 0 0 0 -1
447 149.309524536132812 0 0 0 -1
447 139.309524536132812 0 0 0 -1
476 139.309524536132812 150 0 0 1
476 149.309524536132812 150 0 0 1
447 149.309524536132812 150 0 0 1
447 139.309524536132812 150 0 0 1
319 237.424774169921875 0 0 0 -1
319 247.424774169921875 0 0 0 -1
298 247.424774169921875 0 0 0 -1
298 237.424774169921875 0 0 0 -1
319 237.424774169921875 150 0 0 1
319 247.424774169921875 150 0 0 1
298 247.424774169921875 150 0 0 1
298 237.424774169921875 150 0 0 1
476 393 0 0 0 -1
476 403 0 0 0 -1
450 403 0 0 0 -1
450 393 0 0 0 -1
476 393 150 0 0 1
476 403 150 0 0 1
450 403 150 0 0 1
450 393 150 0 0 1
429 392.5 0 0 0 -1
429 402.5 0 0 0 -1
413 402.5 0 0 0 -1
413 392.5 0 0 0 -1
429 392.5 150 0 0 1
429 402.5 150 0 0 1
413 402.5 150 0 0 1
413 392.5 150 0 0 1
78 230 0 0 0 -1
68 230 0 0 0 -1
68 204 0 0 0 -1
78 204 0 0 0 -1
78 230 150 0 0 1
68 230 150 0 0 1
68 204 150 0 0 1
78 204 150 0 0 1
310 138 0 0 0 -1
310 148 0 0 0 -1
297 148 0 0 0 -1
297 138 0 0 0 -1
310 138 150 0 0 1
310 148 150 0 0 1
297 148 150 0 0 1
297 138 150 0 0 1
518 393 0 0 0 -1
518 403 0 0 0 -1
504 403 0 0 0 -1
504 393 0 0 0 -1
518 393 150 0 0 1
518 403 150 0 0 1
504 403 150 0 0 1
504 393 150 0 0 1
574 364 0 0 0 -1
564 364 0 0 0 -1
564 354 0 0 0 -1
574 354 0 0 0 -1
574 364 150 0 0 1
564 364 150 0 0 1
564 354 150 0 0 1
574 354 150 0 0 1
207 288 0 0 0 -1
197 288 0 0 0 -1
197 274 0 0 0 -1
207 274 0 0 0 -1
207 288 150 0 0 1
197 288 150 0 0 1
197 274 150 0 0 1
207 274 150 0 0 1
658.0823974609375 299.83990478515625 0 0 0 -1
657.9176025390625 289.84124755859375 0 0 0 -1
704 289.08172607421875 0 0 0 -1
714 298.91827392578125 0 0 0 -1
658.0823974609375 299.83990478515625 150 0 0 1
657.9176025390625 289.84124755859375 150 0 0 1
704 289.08172607421875 150 0 0 1
714 298.91827392578125 150 0 0 1
714 298.91827392578125 0 0 0 -1
704 289.08172607421875 0 0 0 -1
704 239.005233764648438 0 0 0 -1
714 228.994766235351562 0 0 0 -1
714 298.91827392578125 150 0 0 1
704 289.08172607421875 150 0 0 1
704 239.005233764648438 150 0 0 1
714 228.994766235351562 150 0 0 1
637 290 0 0 0 -1
637 300 0 0 0 -1
600 300 0 0 0 -1
610 290 0 0 0 -1
637 290 150 0 0 1
637 300 150 0 0 1
600 300 150 0 0 1
610 290 150 0 0 1
707.4466552734375 351.8519287109375 0 0 0 -1
717.4422607421875 352.1480712890625 0 0 0 -1
716.85406494140625 372 0 0 0 -1
707.14593505859375 362 0 0 0 -1
707.4466552734375 351.8519287109375 150 0 0 1
717.4422607421875 352.1480712890625 150 0 0 1
716.85406494140625 372 150 0 0 1
707.14593505859375 362 150 0 0 1
707.14593505859375 362 0 0 0 -1
716.85406494140625 372 0 0 0 -1
698 372 0 0 0 -1
698 362 0 0 0 -1
707.14593505859375 362 150 0 0 1
716.85406494140625 372 150 0 0 1
698 372 150 0 0 1
698 362 150 0 0 1
285 284 0 0 0 -1
285 294 0 0 0 -1
246.830551147460938 294 0 0 0 -1
257.16943359375 284 0 0 0 -1
285 284 150 0 0 1
285 294 150 0 0 1
246.830551147460938 294 150 0 0 1
257.16943359375 284 150 0 0 1
257.16943359375 284 0 0 0 -1
246.830551147460938 294 0 0 0 -1
247.502777099609375 273.83343505859375 0 0 0 -1
257.497222900390625 274.16656494140625 0 0 0 -1
257.16943359375 284 150 0 0 1
246.830551147460938 294 150 0 0 1
247.502777099609375 273.83343505859375 150 0 0 1
257.497222900390625 274.16656494140625 150 0 0 1
282.16119384765625 202.481277465820312 0 0 0 -1
281.83880615234375 192.486465454101562 0 0 0 -1
292.077484130859375 192.15618896484375 0 0 0 -1
301.922515869140625 201.84381103515625 0 0 0 -1
282.16119384765625 202.481277465820312 150 0 0 1
281.83880615234375 192.486465454101562 150 0 0 1
292.077484130859375 192.15618896484375 150 0 0 1
301.922515869140625 201.84381103515625 150 0 0 1
301.922515869140625 201.84381103515625 0 0 0 -1
292.077484130859375 192.15618896484375 0 0 0 -1
292.500640869140625 165.91937255859375 0 0 0 -1
302.499359130859375 166.08062744140625 0 0 0 -1
301.922515869140625 201.84381103515625 150 0 0 1
292.077484130859375 192.15618896484375 150 0 0 1
292.500640869140625 165.91937255859375 150 0 0 1
302.499359130859375 166.08062744140625 150 0 0 1
665.5831298828125 177.96356201171875 0 0 0 -1
675.5828857421875 178.03643798828125 0 0 0 -1
674.96514892578125 262.797454833984375 0 0 0 -1
665.03485107421875 253.202545166015625 0 0 0 -1
665.5831298828125 177.96356201171875 150 0 0 1
675.5828857421875 178.03643798828125 150 0 0 1
674.96514892578125 262.797454833984375 150 0 0 1
665.03485107421875 253.202545166015625 150 0 0 1
665.03485107421875 253.202545166015625 0 0 0 -1
674.96514892578125 262.797454833984375 0 0 0 -1
658.2081298828125 263.49566650390625 0 0 0 -1
657.7918701171875 253.50433349609375 0 0 0 -1
665.03485107421875 253.202545166015625 150 0 0 1
674.96514892578125 262.797454833984375 150 0 0 1
658.2081298828125 263.49566650390625 150 0 0 1
657.7918701171875 253.50433349609375 150 0 0 1
673.0052490234375 239.037628173828125 0 0 0 -1
672.9947509765625 229.037643432617188 0 0 0 -1
714 228.994766235351562 0 0 0 -1
704 239.005233764648438 0 0 0 -1
673.0052490234375 239.037628173828125 150 0 0 1
672.9947509765625 229.037643432617188 150 0 0 1
714 228.994766235351562 150 0 0 1
704 239.005233764648438 150 0 0 1
652.09918212890625 150.356155395507812 0 0 0 -1
651.90081787109375 140.358123779296875 0 0 0 -1
675 139.899810791015625 0 0 0 -1
665 150.100189208984375 0 0 0 -1
652.09918212890625 150.356155395507812 150 0 0 1
651.90081787109375 140.358123779296875 150 0 0 1
675 139.899810791015625 150 0 0 1
665 150.100189208984375 150 0 0 1
665 150.100189208984375 0 0 0 -1
675 139.899810791015625 0 0 0 -1
675 161 0 0 0 -1
665 161 0 0 0 -1
665 150.100189208984375 150 0 0 1
675 139.899810791015625 150 0 0 1
675 161 150 0 0 1
665 161 150 0 0 1
4 0 1 2 3
4 4 5 6 7
4 8 9 10 11
4 12 13 14 15
4 16 17 18 19
4 20 21 22 23
4 24 25 26 27
4 28 29 30 31
4 32 33 34 35
4 36 37 38 39
4 40 41 42 43
4 44 45 46 47
4 48 49 50 51
4 52 53 54 55
4 56 57 58 59
4 60 61 62 63
4 64 65 66 67
4 68 69 70 71
4 72 73 74 75
4 76 77 78 79
4 80 81 82 83
4 84 85 86 87
4 88 89 90 91
4 92 93 94 95
4 96 97 98 99
4 100 101 102 103
4 104 105 106 107
4 108 109 110 111
4 112 113 114 115
4 116 117 118 119
4 120 121 122 123
4 124 125 126 127
4 128 129 130 131
4 132 133 134 135
4 136 137 138 139
4 140 141 142 143
4 144 145 146 147
4 148 149 150 151
4 152 153 154 155
4 156 157 158 159
4 160 161 162 163
4 164 165 166 167
4 168 169 170 171
4 172 173 174 175
4 176 177 178 179
4 180 181 182 183
4 184 185 186 187
4 188 189 190 191
4 192 193 194 195
4 196 197 198 199
4 200 201 202 203
4 204 205 206 207
4 208 209 210 211
4 212 213 214 215
4 216 217 218 219
4 220 221 222 223
4 224 225 226 227
4 228 229 230 231
4 232 233 234 235
4 236 237 238 239
4 240 241 242 243
4 244 245 246 247
4 248 249 250 251
4 252 253 254 255
4 256 257 258 259
4 260 261 262 263
4 264 265 266 267
4 268 269 270 271
4 272 273 274 275
4 276 277 278 279
4 280 281 282 283
4 284 285 286 287
4 288 289 290 291
4 292 293 294 295
4 296 297 298 299
4 300 301 302 303
4 304 305 306 307
4 308 309 310 311
4 312 313 314 315
4 316 317 318 319
4 320 321 322 323
4 324 325 326 327
4 328 329 330 331
4 332 333 334 335
4 336 337 338 339
4 340 341 342 343
4 344 345 346 347
4 348 349 350 351
4 352 353 354 355
4 356 357 358 359
4 360 361 362 363
4 364 365 366 367
4 368 369 370 371
4 372 373 374 375
4 376 377 378 379
4 380 381 382 383
4 384 385 386 387
4 388 389 390 391
4 392 393 394 395
4 396 397 398 399
4 400 401 402 403
4 404 405 406 407
4 408 409 410 411
4 412 413 414 415
4 416 417 418 419
4 420 421 422 423
4 424 425 426 427
4 428 429 430 431
4 432 433 434 435
4 436 437 438 439
4 440 441 442 443
4 444 445 446 447
4 448 449 450 451
4 452 453 454 455
4 456 457 458 459
4 460 461 462 463
4 464 465 466 467
4 468 469 470 471
4 472 473 474 475
4 476 477 478 479
4 480 481 482 483
4 484 485 486 487
4 488 489 490 491
4 492 493 494 495
4 496 497 498 499
4 500 501 502 503
4 504 505 506 507
4 508 509 510 511
4 512 513 514 515
4 516 517 518 519
4 520 521 522 523
4 524 525 526 527
4 528 529 530 531
4 532 533 534 535
4 536 537 538 539
4 540 541 542 543
4 544 545 546 547
4 548 549 550 551
4 552 553 554 555
4 556 557 558 559
4 560 561 562 563
4 564 565 566 567
4 568 569 570 571
4 572 573 574 575
4 576 577 578 579
4 580 581 582 583
4 584 585 586 587
4 588 589 590 591
4 592 593 594 595
4 596 597 598 599
4 600 601 602 603
4 604 605 606 607
4 608 609 610 611
4 612 613 614 615
4 616 617 618 619
4 620 621 622 623
4 624 625 626 627
4 628 629 630 631
4 632 633 634 635
4 636 637 638 639
4 640 641 642 643
4 644 645 646 647
4 648 649 650 651
4 652 653 654 655
4 656 657 658 659
4 660 661 662 663
4 664 665 666 667
4 668 669 670 671
4 672 673 674 675
4 676 677 678 679
4 680 681 682 683
4 684 685 686 687
4 688 689 690 691
4 692 693 694 695
4 696 697 698 699
4 700 701 702 703
4 704 705 706 707
4 708 709 710 711
4 712 713 714 715
4 716 717 718 719
4 720 721 722 723
4 724 725 726 727
4 728 729 730 731
4 732 733 734 735
4 736 737 738 739
4 740 741 742 743
4 744 745 746 747
4 748 749 750 751
4 752 753 754 755
4 756 757 758 759
4 760 761 762 763
4 764 765 766 767
4 768 769 770 771
4 772 773 774 775
4 776 777 778 779
4 780 781 782 783
4 784 785 786 787
4 788 789 790 791
4 792 793 794 795
4 796 797 798 799
4 800 801 802 803
4 804 805 806 807
4 808 809 810 811
4 812 813 814 815
4 816 817 818 819
4 820 821 822 823
4 824 825 826 827
4 828 829 830 831
4 832 833 834 835
4 836 837 838 839
4 840 841 842 843
4 844 845 846 847
4 848 849 850 851
4 852 853 854 855
4 856 857 858 859
4 860 861 862 863
4 864 865 866 867
4 868 869 870 871
4 872 873 874 875
4 876 877 878 879
