ply
format ascii 1.0
element vertex 352
property float x
property float y
property float z
property float nx
property float ny
property float nz
element quads 88
property list uchar int vertex_indices
end_header
320 125.25 0 -0 1 0
342 125.25 0 -0 1 0
342 125.25 100 -0 1 0
320 125.25 100 -0 1 0
320 124.75 0 0 -1 0
342 124.75 0 0 -1 0
342 124.75 100 0 -1 0
320 124.75 100 0 -1 0
653.25 264.25 0 1 0 0
653.25 223 0 1 0 0
653.25 223 100 1 0 0
653.25 264.25 100 1 0 0
652.75 263.75 0 -1 -0 0
652.75 223 0 -1 -0 0
652.75 223 100 -1 -0 0
652.75 263.75 100 -1 -0 0
652.75 263.75 0 -0 -1 0
549 263.75 0 -0 -1 0
549 263.75 100 -0 -1 0
652.75 263.75 100 -0 -1 0
653.25 264.25 0 0 1 0
549 264.25 0 0 1 0
549 264.25 100 0 1 0
653.25 264.25 100 0 1 0
485.25 247 0 1 0 0
485.25 186 0 1 0 0
485.25 186 100 1 0 0
485.25 247 100 1 0 0
484.75 247 0 -1 -0 0
484.75 186 0 -1 -0 0
484.75 186 100 -1 -0 0
484.75 247 100 -1 -0 0
215.25 288 0 1 0 0
215.25 244 0 1 0 0
215.25 244 100 1 0 0
215.25 288 100 1 0 0
214.75 288 0 -1 -0 0
214.75 244 0 -1 -0 0
214.75 244 100 -1 -0 0
214.75 288 100 -1 -0 0
159.75 292.25 0 -0 1 0
318 292.25 0 -0 1 0
318 292.25 100 -0 1 0
159.75 292.25 100 -0 1 0
160.25 291.75 0 0 -1 0
318 291.75 0 0 -1 0
318 291.75 100 0 -1 0
160.25 291.75 100 0 -1 0
160.25 291.75 0 1 0 0
160.25 125 0 1 0 0
160.25 125 100 1 0 0
160.25 291.75 100 1 0 0
159.75 292.25 0 -1 -0 0
159.75 125 0 -1 -0 0
159.75 125 100 -1 -0 0
159.75 292.25 100 -1 -0 0
318 352.25 0 -0 1 0
408 352.25 0 -0 1 0
408 352.25 100 -0 1 0
318 352.25 100 -0 1 0
318 351.75 0 0 -1 0
408 351.75 0 0 -1 0
408 351.75 100 0 -1 0
318 351.75 100 0 -1 0
388 125.25 0 -0 1 0
421 125.25 0 -0 1 0
421 125.25 100 -0 1 0
388 125.25 100 -0 1 0
388 124.75 0 0 -1 0
421 124.75 0 0 -1 0
421 124.75 100 0 -1 0
388 124.75 100 0 -1 0
544.75 313 0 -1 0 0
544.75 376 0 -1 0 0
544.75 376 100 -1 0 0
544.75 313 100 -1 0 0
545.25 313 0 1 -0 0
545.25 376 0 1 -0 0
545.25 376 100 1 -0 0
545.25 313 100 1 -0 0
215.25 96.25 0 -0 1 0
321 96.25 0 -0 1 0
321 96.25 100 -0 1 0
215.25 96.25 100 -0 1 0
214.75 95.75 0 0 -1 0
321 95.75 0 0 -1 0
321 95.75 100 0 -1 0
214.75 95.75 100 0 -1 0
214.75 95.75 0 -1 0 0
214.75 128 0 -1 0 0
214.75 128 100 -1 0 0
214.75 95.75 100 -1 0 0
215.25 96.25 0 1 -0 0
215.25 128 0 1 -0 0
215.25 128 100 1 -0 0
215.25 96.25 100 1 -0 0
637.75 125.25 0 -1 0 0
637.75 376 0 -1 0 0
637.75 376 100 -1 0 0
637.75 125.25 100 -1 0 0
638.25 124.75 0 1 -0 0
638.25 376 0 1 -0 0
638.25 376 100 1 -0 0
638.25 124.75 100 1 -0 0
638.25 124.75 0 -0 -1 0
468 124.75 0 -0 -1 0
468 124.75 100 -0 -1 0
638.25 124.75 100 -0 -1 0
637.75 125.25 0 0 1 0
468 125.25 0 0 1 0
468 125.25 100 0 1 0
637.75 125.25 100 0 1 0
484.75 306 0 -1 0 0
484.75 339 0 -1 0 0
484.75 339 100 -1 0 0
484.75 306 100 -1 0 0
485.25 306 0 1 -0 0
485.25 339 0 1 -0 0
485.25 339 100 1 -0 0
485.25 306 100 1 -0 0
318.75 223 0 -1 0 0
318.75 456 0 -1 0 0
318.75 456 100 -1 0 0
318.75 223 100 -1 0 0
319.25 223 0 1 -0 0
319.25 456 0 1 -0 0
319.25 456 100 1 -0 0
319.25 223 100 1 -0 0
320 125.25 0 304.454559326171875 119.556816101074219 0
320 124.75 0 304.454559326171875 119.556816101074219 0
320 124.75 100 304.454559326171875 119.556816101074219 0
320 125.25 100 304.454559326171875 119.556816101074219 0
342 125.25 0 327.454559326171875 119.556816101074219 0
342 124.75 0 327.454559326171875 119.556816101074219 0
342 124.75 100 327.454559326171875 119.556816101074219 0
342 125.25 100 327.454559326171875 119.556816101074219 0
653.25 223 0 637.41363525390625 216.59393310546875 0
652.75 223 0 637.41363525390625 216.59393310546875 0
652.75 223 100 637.41363525390625 216.59393310546875 0
653.25 223 100 637.41363525390625 216.59393310546875 0
549 263.75 0 542.70843505859375 261.20782470703125 0
549 264.25 0 542.70843505859375 261.20782470703125 0
549 264.25 100 542.70843505859375 261.20782470703125 0
549 263.75 100 542.70843505859375 261.20782470703125 0
485.25 247 0 477.295074462890625 243.950820922851562 0
484.75 247 0 477.295074462890625 243.950820922851562 0
484.75 247 100 477.295074462890625 243.950820922851562 0
485.25 247 100 477.295074462890625 243.950820922851562 0
485.25 186 0 477.295074462890625 181.950820922851562 0
484.75 186 0 477.295074462890625 181.950820922851562 0
484.75 186 100 477.295074462890625 181.950820922851562 0
485.25 186 100 477.295074462890625 181.950820922851562 0
215.25 288 0 210.357955932617188 282.454559326171875 0
214.75 288 0 210.357955932617188 282.454559326171875 0
214.75 288 100 210.357955932617188 282.454559326171875 0
215.25 288 100 210.357955932617188 282.454559326171875 0
215.25 244 0 210.357955932617188 237.454544067382812 0
214.75 244 0 210.357955932617188 237.454544067382812 0
214.75 244 100 210.357955932617188 237.454544067382812 0
215.25 244 100 210.357955932617188 237.454544067382812 0
318 292.25 0 316.990509033203125 290.403228759765625 0
318 291.75 0 316.990509033203125 290.403228759765625 0
318 291.75 100 316.990509033203125 290.403228759765625 0
318 292.25 100 316.990509033203125 290.403228759765625 0
318 352.25 0 313.4666748046875 348.33612060546875 0
318 351.75 0 313.4666748046875 348.33612060546875 0
318 351.75 100 313.4666748046875 348.33612060546875 0
318 352.25 100 313.4666748046875 348.33612060546875 0
408 352.25 0 404.4666748046875 348.33612060546875 0
408 351.75 0 404.4666748046875 348.33612060546875 0
408 351.75 100 404.4666748046875 348.33612060546875 0
408 352.25 100 404.4666748046875 348.33612060546875 0
388 125.25 0 375.242431640625 121.454544067382812 0
388 124.75 0 375.242431640625 121.454544067382812 0
388 124.75 100 375.242431640625 121.454544067382812 0
388 125.25 100 375.242431640625 121.454544067382812 0
421 125.25 0 409.242431640625 121.454544067382812 0
421 124.75 0 409.242431640625 121.454544067382812 0
421 124.75 100 409.242431640625 121.454544067382812 0
421 125.25 100 409.242431640625 121.454544067382812 0
544.75 313 0 536.1031494140625 307.03173828125 0
545.25 313 0 536.1031494140625 307.03173828125 0
545.25 313 100 536.1031494140625 307.03173828125 0
544.75 313 100 536.1031494140625 307.03173828125 0
544.75 376 0 536.1031494140625 371.03173828125 0
545.25 376 0 536.1031494140625 371.03173828125 0
545.25 376 100 536.1031494140625 371.03173828125 0
544.75 376 100 536.1031494140625 371.03173828125 0
321 96.25 0 318.96453857421875 95.3398361206054688 0
321 95.75 0 318.96453857421875 95.3398361206054688 0
321 95.75 100 318.96453857421875 95.3398361206054688 0
321 96.25 100 318.96453857421875 95.3398361206054688 0
160.25 125 0 159.288986206054688 123.250373840332031 0
159.75 125 0 159.288986206054688 123.250373840332031 0
159.75 125 100 159.288986206054688 123.250373840332031 0
160.25 125 100 159.288986206054688 123.250373840332031 0
637.75 376 0 635.20660400390625 375.50048828125 0
638.25 376 0 635.20660400390625 375.50048828125 0
638.25 376 100 635.20660400390625 375.50048828125 0
637.75 376 100 635.20660400390625 375.50048828125 0
468 124.75 0 464.2510986328125 124.017257690429688 0
468 125.25 0 464.2510986328125 124.017257690429688 0
468 125.25 100 464.2510986328125 124.017257690429688 0
468 124.75 100 464.2510986328125 124.017257690429688 0
214.75 128 0 208.091079711914062 125.031005859375 0
215.25 128 0 208.091079711914062 125.031005859375 0
215.25 128 100 208.091079711914062 125.031005859375 0
214.75 128 100 208.091079711914062 125.031005859375 0
484.75 306 0 470.06060791015625 295.727264404296875 0
485.25 306 0 470.06060791015625 295.727264404296875 0
485.25 306 100 470.06060791015625 295.727264404296875 0
484.75 306 100 470.06060791015625 295.727264404296875 0
484.75 339 0 470.06060791015625 329.727264404296875 0
485.25 339 0 470.06060791015625 329.727264404296875 0
485.25 339 100 470.06060791015625 329.727264404296875 0
484.75 339 100 470.06060791015625 329.727264404296875 0
318.75 223 0 317.381988525390625 221.042922973632812 0
319.25 223 0 317.381988525390625 221.042922973632812 0
319.25 223 100 317.381988525390625 221.042922973632812 0
318.75 223 100 317.381988525390625 221.042922973632812 0
318.75 456 0 317.381988525390625 455.04290771484375 0
319.25 456 0 317.381988525390625 455.04290771484375 0
319.25 456 100 317.381988525390625 455.04290771484375 0
318.75 456 100 317.381988525390625 455.04290771484375 0
320 125.25 0 0 0 -1
320 124.75 0 0 0 -1
342 124.75 0 0 0 -1
342 125.25 0 0 0 -1
320 125.25 100 0 0 1
320 124.75 100 0 0 1
342 124.75 100 0 0 1
342 125.25 100 0 0 1
653.25 264.25 0 0 0 -1
652.75 263.75 0 0 0 -1
652.75 223 0 0 0 -1
653.25 223 0 0 0 -1
653.25 264.25 100 0 0 1
652.75 263.75 100 0 0 1
652.75 223 100 0 0 1
653.25 223 100 0 0 1
652.75 263.75 0 0 0 -1
653.25 264.25 0 0 0 -1
549 264.25 0 0 0 -1
549 263.75 0 0 0 -1
652.75 263.75 100 0 0 1
653.25 264.25 100 0 0 1
549 264.25 100 0 0 1
549 263.75 100 0 0 1
485.25 247 0 0 0 -1
484.75 247 0 0 0 -1
484.75 186 0 0 0 -1
485.25 186 0 0 0 -1
485.25 247 100 0 0 1
484.75 247 100 0 0 1
484.75 186 100 0 0 1
485.25 186 100 0 0 1
215.25 288 0 0 0 -1
214.75 288 0 0 0 -1
214.75 244 0 0 0 -1
215.25 244 0 0 0 -1
215.25 288 100 0 0 1
214.75 288 100 0 0 1
214.75 244 100 0 0 1
215.25 244 100 0 0 1
159.75 292.25 0 0 0 -1
160.25 291.75 0 0 0 -1
318 291.75 0 0 0 -1
318 292.25 0 0 0 -1
159.75 292.25 100 0 0 1
160.25 291.75 100 0 0 1
318 291.75 100 0 0 1
318 292.25 100 0 0 1
160.25 291.75 0 0 0 -1
159.75 292.25 0 0 0 -1
159.75 125 0 0 0 -1
160.25 125 0 0 0 -1
160.25 291.75 100 0 0 1
159.75 292.25 100 0 0 1
159.75 125 100 0 0 1
160.25 125 100 0 0 1
318 352.25 0 0 0 -1
318 351.75 0 0 0 -1
408 351.75 0 0 0 -1
408 352.25 0 0 0 -1
318 352.25 100 0 0 1
318 351.75 100 0 0 1
408 351.75 100 0 0 1
408 352.25 100 0 0 1
388 125.25 0 0 0 -1
388 124.75 0 0 0 -1
421 124.75 0 0 0 -1
421 125.25 0 0 0 -1
388 125.25 100 0 0 1
388 124.75 100 0 0 1
421 124.75 100 0 0 1
421 125.25 100 0 0 1
544.75 313 0 0 0 -1
545.25 313 0 0 0 -1
545.25 376 0 0 0 -1
544.75 376 0 0 0 -1
544.75 313 100 0 0 1
545.25 313 100 0 0 1
545.25 376 100 0 0 1
544.75 376 100 0 0 1
215.25 96.25 0 0 0 -1
214.75 95.75 0 0 0 -1
321 95.75 0 0 0 -1
321 96.25 0 0 0 -1
215.25 96.25 100 0 0 1
214.75 95.75 100 0 0 1
321 95.75 100 0 0 1
321 96.25 100 0 0 1
214.75 95.75 0 0 0 -1
215.25 96.25 0 0 0 -1
215.25 128 0 0 0 -1
214.75 128 0 0 0 -1
214.75 95.75 100 0 0 1
215.25 96.25 100 0 0 1
215.25 128 100 0 0 1
214.75 128 100 0 0 1
637.75 125.25 0 0 0 -1
638.25 124.75 0 0 0 -1
638.25 376 0 0 0 -1
637.75 376 0 0 0 -1
637.75 125.25 100 0 0 1
638.25 124.75 100 0 0 1
638.25 376 100 0 0 1
637.75 376 100 0 0 1
638.25 124.75 0 0 0 -1
637.75 125.25 0 0 0 -1
468 125.25 0 0 0 -1
468 124.75 0 0 0 -1
638.25 124.75 100 0 0 1
637.75 125.25 100 0 0 1
468 125.25 100 0 0 1
468 124.75 100 0 0 1
484.75 306 0 0 0 -1
485.25 306 0 0 0 -1
485.25 339 0 0 0 -1
484.75 339 0 0 0 -1
484.75 306 100 0 0 1
485.25 306 100 0 0 1
485.25 339 100 0 0 1
484.75 339 100 0 0 1
318.75 223 0 0 0 -1
319.25 223 0 0 0 -1
319.25 456 0 0 0 -1
318.75 456 0 0 0 -1
318.75 223 100 0 0 1
319.25 223 100 0 0 1
319.25 456 100 0 0 1
318.75 456 100 0 0 1
4 0 1 2 3
4 4 5 6 7
4 8 9 10 11
4 12 13 14 15
4 16 17 18 19
4 20 21 22 23
4 24 25 26 27
4 28 29 30 31
4 32 33 34 35
4 36 37 38 39
4 40 41 42 43
4 44 45 46 47
4 48 49 50 51
4 52 53 54 55
4 56 57 58 59
4 60 61 62 63
4 64 65 66 67
4 68 69 70 71
4 72 73 74 75
4 76 77 78 79
4 80 81 82 83
4 84 85 86 87
4 88 89 90 91
4 92 93 94 95
4 96 97 98 99
4 100 101 102 103
4 104 105 106 107
4 108 109 110 111
4 112 113 114 115
4 116 117 118 119
4 120 121 122 123
4 124 125 126 127
4 128 129 130 131
4 132 133 134 135
4 136 137 138 139
4 140 141 142 143
4 144 145 146 147
4 148 149 150 151
4 152 153 154 155
4 156 157 158 159
4 160 161 162 163
4 164 165 166 167
4 168 169 170 171
4 172 173 174 175
4 176 177 178 179
4 180 181 182 183
4 184 185 186 187
4 188 189 190 191
4 192 193 194 195
4 196 197 198 199
4 200 201 202 203
4 204 205 206 207
4 208 209 210 211
4 212 213 214 215
4 216 217 218 219
4 220 221 222 223
4 224 225 226 227
4 228 229 230 231
4 232 233 234 235
4 236 237 238 239
4 240 241 242 243
4 244 245 246 247
4 248 249 250 251
4 252 253 254 255
4 256 257 258 259
4 260 261 262 263
4 264 265 266 267
4 268 269 270 271
4 272 273 274 275
4 276 277 278 279
4 280 281 282 283
4 284 285 286 287
4 288 289 290 291
4 292 293 294 295
4 296 297 298 299
4 300 301 302 303
4 304 305 306 307
4 308 309 310 311
4 312 313 314 315
4 316 317 318 319
4 320 321 322 323
4 324 325 326 327
4 328 329 330 331
4 332 333 334 335
4 336 337 338 339
4 340 341 342 343
4 344 345 346 347
4 348 349 350 351
