ply
format ascii 1.0
element vertex 298
property float x
property float y
property float z
property float nx
property float ny
property float nz
element quads 73
property list uchar int vertex_indices
element triads 2
property list uchar int vertex_indices
end_header
239 513 0 1 0 0
239 69 0 1 0 0
239 69 100 1 0 0
239 513 100 1 0 0
233 519 0 -1 -0 0
233 63 0 -1 -0 0
233 63 100 -1 -0 0
233 519 100 -1 -0 0
233 519 0 -0 1 0
259 519 0 -0 1 0
259 519 100 -0 1 0
233 519 100 -0 1 0
239 513 0 0 -1 0
259 513 0 0 -1 0
259 513 100 0 -1 0
239 513 100 0 -1 0
239 69 0 -0 1 0
304 69 0 -0 1 0
304 69 100 -0 1 0
239 69 100 -0 1 0
233 63 0 0 -1 0
304 63 0 0 -1 0
304 63 100 0 -1 0
233 63 100 0 -1 0
630 318 0 1 0 0
630 5 0 1 0 0
630 5 100 1 0 0
630 318 100 1 0 0
624 312 0 -1 -0 0
624 11 0 -1 -0 0
624 11 100 -1 -0 0
624 312 100 -1 -0 0
624 312 0 -0 -1 0
510 312 0 -0 -1 0
510 312 100 -0 -1 0
624 312 100 -0 -1 0
630 318 0 0 1 0
516 318 0 0 1 0
516 318 100 0 1 0
630 318 100 0 1 0
630 5 0 -0 -1 0
304 5 0 -0 -1 0
304 5 100 -0 -1 0
630 5 100 -0 -1 0
624 11 0 0 1 0
310 11 0 0 1 0
310 11 100 0 1 0
624 11 100 0 1 0
385 210.429580688476562 0 -0 -1 0
239 210.429580688476562 0 -0 -1 0
239 210.429580688476562 100 -0 -1 0
385 210.429580688476562 100 -0 -1 0
385 216.429580688476562 0 0 1 0
239 216.429580688476562 0 0 1 0
239 216.429580688476562 100 0 1 0
385 216.429580688476562 100 0 1 0
304 5 0 -1 0 0
304 105 0 -1 0 0
304 105 100 -1 0 0
304 5 100 -1 0 0
310 11 0 1 -0 0
310 99 0 1 -0 0
310 99 100 1 -0 0
310 11 100 1 -0 0
624 99.41033935546875 0 -0 -1 0
430 99.41033935546875 0 -0 -1 0
430 99.41033935546875 100 -0 -1 0
624 99.41033935546875 100 -0 -1 0
624 105.41033935546875 0 0 1 0
430 105.41033935546875 0 0 1 0
430 105.41033935546875 100 0 1 0
624 105.41033935546875 100 0 1 0
385 99 0 -0 -1 0
310 99 0 -0 -1 0
310 99 100 -0 -1 0
385 99 100 -0 -1 0
385 105 0 0 1 0
304 105 0 0 1 0
304 105 100 0 1 0
385 105 100 0 1 0
510 312 0 -1 0 0
510 519 0 -1 0 0
510 519 100 -1 0 0
510 312 100 -1 0 0
516 318 0 1 -0 0
516 518.9844970703125 0 1 -0 0
516 518.9844970703125 100 1 -0 0
516 318 100 1 -0 0
385 155.562057495117188 0 -0 -1 0
312 155.562057495117188 0 -0 -1 0
312 155.562057495117188 100 -0 -1 0
385 155.562057495117188 100 -0 -1 0
385 161.562057495117188 0 0 1 0
312 161.562057495117188 0 0 1 0
312 161.562057495117188 100 0 1 0
385 161.562057495117188 100 0 1 0
630 513 0 -0 -1 0
512.99224853515625 513 0 -0 -1 0
512.99224853515625 513 100 -0 -1 0
630 513 100 -0 -1 0
630 519 0 0 1 0
510 519 0 0 1 0
510 519 100 0 1 0
630 519 100 0 1 0
512.99224853515625 513 0 -0.00518469652161002159 -0.999986588954925537 0
488.98443603515625 513.12445068359375 0 -0.00518469652161002159 -0.999986588954925537 0
488.98443603515625 513.12445068359375 100 -0.00518469652161002159 -0.999986588954925537 0
512.99224853515625 513 100 -0.00518469652161002159 -0.999986588954925537 0
516 518.9844970703125 0 0.00518469652161002159 0.999986588954925537 0
489.01556396484375 519.1243896484375 0 0.00518469652161002159 0.999986588954925537 0
489.01556396484375 519.1243896484375 100 0.00518469652161002159 0.999986588954925537 0
516 518.9844970703125 100 0.00518469652161002159 0.999986588954925537 0
559 199 0 1 0 0
559 189 0 1 0 0
559 189 100 1 0 0
559 199 100 1 0 0
553 199 0 -1 -0 0
553 189 0 -1 -0 0
553 189 100 -1 -0 0
553 199 100 -1 -0 0
385 210.429580688476562 0 383.363006591796875 208.98828125 0
385 216.429580688476562 0 383.363006591796875 208.98828125 0
385 216.429580688476562 100 383.363006591796875 208.98828125 0
385 210.429580688476562 100 383.363006591796875 208.98828125 0
239 210.429580688476562 0 236.363006591796875 208.98828125 0
239 216.429580688476562 0 236.363006591796875 208.98828125 0
239 216.429580688476562 100 236.363006591796875 208.98828125 0
239 210.429580688476562 100 236.363006591796875 208.98828125 0
624 99.41033935546875 0 621.78350830078125 98.897918701171875 0
624 105.41033935546875 0 621.78350830078125 98.897918701171875 0
624 105.41033935546875 100 621.78350830078125 98.897918701171875 0
624 99.41033935546875 100 621.78350830078125 98.897918701171875 0
430 99.41033935546875 0 426.78350830078125 98.897918701171875 0
430 105.41033935546875 0 426.78350830078125 98.897918701171875 0
430 105.41033935546875 100 426.78350830078125 98.897918701171875 0
430 99.41033935546875 100 426.78350830078125 98.897918701171875 0
385 99 0 380.866668701171875 97.6800003051757812 0
385 105 0 380.866668701171875 97.6800003051757812 0
385 105 100 380.866668701171875 97.6800003051757812 0
385 99 100 380.866668701171875 97.6800003051757812 0
385 155.562057495117188 0 380.72601318359375 153.431076049804688 0
385 161.562057495117188 0 380.72601318359375 153.431076049804688 0
385 161.562057495117188 100 380.72601318359375 153.431076049804688 0
385 155.562057495117188 100 380.72601318359375 153.431076049804688 0
312 155.562057495117188 0 306.72601318359375 153.431076049804688 0
312 161.562057495117188 0 306.72601318359375 153.431076049804688 0
312 161.562057495117188 100 306.72601318359375 153.431076049804688 0
312 155.562057495117188 100 306.72601318359375 153.431076049804688 0
630 513 0 625.61572265625 508.61566162109375 0
630 519 0 625.61572265625 508.61566162109375 0
630 519 100 625.61572265625 508.61566162109375 0
630 513 100 625.61572265625 508.61566162109375 0
259 519 0 250.038467407226562 499.0384521484375 0
259 513 0 250.038467407226562 499.0384521484375 0
259 513 100 250.038467407226562 499.0384521484375 0
259 519 100 250.038467407226562 499.0384521484375 0
304 69 0 300.323089599609375 67.9384613037109375 0
304 63 0 300.323089599609375 67.9384613037109375 0
304 63 100 300.323089599609375 67.9384613037109375 0
304 69 100 300.323089599609375 67.9384613037109375 0
559 199 0 503.100006103515625 180.100006103515625 0
553 199 0 503.100006103515625 180.100006103515625 0
553 199 100 503.100006103515625 180.100006103515625 0
559 199 100 503.100006103515625 180.100006103515625 0
559 189 0 503.100006103515625 169.100006103515625 0
553 189 0 503.100006103515625 169.100006103515625 0
553 189 100 503.100006103515625 169.100006103515625 0
559 189 100 503.100006103515625 169.100006103515625 0
488.98443603515625 513.12445068359375 0 467.616973876953125 491.756683349609375 0
489.01556396484375 519.1243896484375 0 467.616973876953125 491.756683349609375 0
489.01556396484375 519.1243896484375 100 467.616973876953125 491.756683349609375 0
488.98443603515625 513.12445068359375 100 467.616973876953125 491.756683349609375 0
239 513 0 0 0 -1
233 519 0 0 0 -1
233 63 0 0 0 -1
239 69 0 0 0 -1
239 513 100 0 0 1
233 519 100 0 0 1
233 63 100 0 0 1
239 69 100 0 0 1
233 519 0 0 0 -1
239 513 0 0 0 -1
259 513 0 0 0 -1
259 519 0 0 0 -1
233 519 100 0 0 1
239 513 100 0 0 1
259 513 100 0 0 1
259 519 100 0 0 1
239 69 0 0 0 -1
233 63 0 0 0 -1
304 63 0 0 0 -1
304 69 0 0 0 -1
239 69 100 0 0 1
233 63 100 0 0 1
304 63 100 0 0 1
304 69 100 0 0 1
630 318 0 0 0 -1
624 312 0 0 0 -1
624 11 0 0 0 -1
630 5 0 0 0 -1
630 318 100 0 0 1
624 312 100 0 0 1
624 11 100 0 0 1
630 5 100 0 0 1
624 312 0 0 0 -1
630 318 0 0 0 -1
516 318 0 0 0 -1
510 312 0 0 0 -1
624 312 100 0 0 1
630 318 100 0 0 1
516 318 100 0 0 1
510 312 100 0 0 1
630 5 0 0 0 -1
624 11 0 0 0 -1
310 11 0 0 0 -1
304 5 0 0 0 -1
630 5 100 0 0 1
624 11 100 0 0 1
310 11 100 0 0 1
304 5 100 0 0 1
385 210.429580688476562 0 0 0 -1
385 216.429580688476562 0 0 0 -1
239 216.429580688476562 0 0 0 -1
239 210.429580688476562 0 0 0 -1
385 210.429580688476562 100 0 0 1
385 216.429580688476562 100 0 0 1
239 216.429580688476562 100 0 0 1
239 210.429580688476562 100 0 0 1
304 5 0 0 0 -1
310 11 0 0 0 -1
310 99 0 0 0 -1
304 105 0 0 0 -1
304 5 100 0 0 1
310 11 100 0 0 1
310 99 100 0 0 1
304 105 100 0 0 1
624 99.41033935546875 0 0 0 -1
624 105.41033935546875 0 0 0 -1
430 105.41033935546875 0 0 0 -1
430 99.41033935546875 0 0 0 -1
624 99.41033935546875 100 0 0 1
624 105.41033935546875 100 0 0 1
430 105.41033935546875 100 0 0 1
430 99.41033935546875 100 0 0 1
385 99 0 0 0 -1
385 105 0 0 0 -1
304 105 0 0 0 -1
310 99 0 0 0 -1
385 99 100 0 0 1
385 105 100 0 0 1
304 105 100 0 0 1
310 99 100 0 0 1
510 312 0 0 0 -1
516 318 0 0 0 -1
516 518.9844970703125 0 0 0 -1
510 519 0 0 0 -1
510 312 100 0 0 1
516 318 100 0 0 1
516 518.9844970703125 100 0 0 1
510 519 100 0 0 1
385 155.562057495117188 0 0 0 -1
385 161.562057495117188 0 0 0 -1
312 161.562057495117188 0 0 0 -1
312 155.562057495117188 0 0 0 -1
385 155.562057495117188 100 0 0 1
385 161.562057495117188 100 0 0 1
312 161.562057495117188 100 0 0 1
312 155.562057495117188 100 0 0 1
630 513 0 0 0 -1
630 519 0 0 0 -1
510 519 0 0 0 -1
512.99224853515625 513 0 0 0 -1
630 513 100 0 0 1
630 519 100 0 0 1
510 519 100 0 0 1
512.99224853515625 513 100 0 0 1
512.99224853515625 513 0 0 0 -1
516 518.9844970703125 0 0 0 -1
489.01556396484375 519.1243896484375 0 0 0 -1
488.98443603515625 513.12445068359375 0 0 0 -1
512.99224853515625 513 100 0 0 1
516 518.9844970703125 100 0 0 1
489.01556396484375 519.1243896484375 100 0 0 1
488.98443603515625 513.12445068359375 100 0 0 1
559 199 0 0 0 -1
553 199 0 0 0 -1
553 189 0 0 0 -1
559 189 0 0 0 -1
559 199 100 0 0 1
553 199 100 0 0 1
553 189 100 0 0 1
559 189 100 0 0 1
510 519 0 0 0 -1
516 518.9844970703125 0 0 0 -1
512.99224853515625 513 0 0 0 -1
510 519 100 0 0 1
516 518.9844970703125 100 0 0 1
512.99224853515625 513 100 0 0 1
4 0 1 2 3
4 4 5 6 7
4 8 9 10 11
4 12 13 14 15
4 16 17 18 19
4 20 21 22 23
4 24 25 26 27
4 28 29 30 31
4 32 33 34 35
4 36 37 38 39
4 40 41 42 43
4 44 45 46 47
4 48 49 50 51
4 52 53 54 55
4 56 57 58 59
4 60 61 62 63
4 64 65 66 67
4 68 69 70 71
4 72 73 74 75
4 76 77 78 79
4 80 81 82 83
4 84 85 86 87
4 88 89 90 91
4 92 93 94 95
4 96 97 98 99
4 100 101 102 103
4 104 105 106 107
4 108 109 110 111
4 112 113 114 115
4 116 117 118 119
4 120 121 122 123
4 124 125 126 127
4 128 129 130 131
4 132 133 134 135
4 136 137 138 139
4 140 141 142 143
4 144 145 146 147
4 148 149 150 151
4 152 153 154 155
4 156 157 158 159
4 160 161 162 163
4 164 165 166 167
4 168 169 170 171
4 172 173 174 175
4 176 177 178 179
4 180 181 182 183
4 184 185 186 187
4 188 189 190 191
4 192 193 194 195
4 196 197 198 199
4 200 201 202 203
4 204 205 206 207
4 208 209 210 211
4 212 213 214 215
4 216 217 218 219
4 220 221 222 223
4 224 225 226 227
4 228 229 230 231
4 232 233 234 235
4 236 237 238 239
4 240 241 242 243
4 244 245 246 247
4 248 249 250 251
4 252 253 254 255
4 256 257 258 259
4 260 261 262 263
4 264 265 266 267
4 268 269 270 271
4 272 273 274 275
4 276 277 278 279
4 280 281 282 283
4 284 285 286 287
4 288 289 290 291
3 292 293 294
3 295 296 297
