ply
format ascii 1.0
element vertex 408
property float x
property float y
property float z
property float nx
property float ny
property float nz
element quads 102
property list uchar int vertex_indices
end_header
679.25 429.25 0 1 0 0
679.25 392 0 1 0 0
679.25 392 100 1 0 0
679.25 429.25 100 1 0 0
678.75 428.75 0 -1 -0 0
678.75 392 0 -1 -0 0
678.75 392 100 -1 -0 0
678.75 428.75 100 -1 -0 0
678.75 428.75 0 -0 -1 0
559.75 428.75 0 -0 -1 0
559.75 428.75 100 -0 -1 0
678.75 428.75 100 -0 -1 0
679.25 429.25 0 0 1 0
560.25 429.25 0 0 1 0
560.25 429.25 100 0 1 0
679.25 429.25 100 0 1 0
213.25 28.25 0 -0 1 0
417 28.25 0 -0 1 0
417 28.25 100 -0 1 0
213.25 28.25 100 -0 1 0
212.75 27.75 0 0 -1 0
417 27.75 0 0 -1 0
417 27.75 100 0 -1 0
212.75 27.75 100 0 -1 0
212.75 27.75 0 -1 0 0
212.75 55.75 0 -1 0 0
212.75 55.75 100 -1 0 0
212.75 27.75 100 -1 0 0
213.25 28.25 0 1 -0 0
213.25 56.25 0 1 -0 0
213.25 56.25 100 1 -0 0
213.25 28.25 100 1 -0 0
409.25 429 0 1 0 0
409.25 375 0 1 0 0
409.25 375 100 1 0 0
409.25 429 100 1 0 0
408.75 429 0 -1 -0 0
408.75 375 0 -1 -0 0
408.75 375 100 -1 -0 0
408.75 429 100 -1 -0 0
470.25 473 0 1 0 0
470.25 428 0 1 0 0
470.25 428 100 1 0 0
470.25 473 100 1 0 0
469.75 473 0 -1 -0 0
469.75 428 0 -1 -0 0
469.75 428 100 -1 -0 0
469.75 473 100 -1 -0 0
647 206.25 0 -0 1 0
678.75 206.25 0 -0 1 0
678.75 206.25 100 -0 1 0
647 206.25 100 -0 1 0
647 205.75 0 0 -1 0
679.25 205.75 0 0 -1 0
679.25 205.75 100 0 -1 0
647 205.75 100 0 -1 0
678.75 206.25 0 -1 0 0
678.75 335 0 -1 0 0
678.75 335 100 -1 0 0
678.75 206.25 100 -1 0 0
679.25 205.75 0 1 -0 0
679.25 335 0 1 -0 0
679.25 335 100 1 -0 0
679.25 205.75 100 1 -0 0
429 313.25 0 -0 1 0
578 313.25 0 -0 1 0
578 313.25 100 -0 1 0
429 313.25 100 -0 1 0
429 312.75 0 0 -1 0
578 312.75 0 0 -1 0
578 312.75 100 0 -1 0
429 312.75 100 0 -1 0
269.25 54 0 1 0 0
269.25 29 0 1 0 0
269.25 29 100 1 0 0
269.25 54 100 1 0 0
268.75 54 0 -1 -0 0
268.75 29 0 -1 -0 0
268.75 29 100 -1 -0 0
268.75 54 100 -1 -0 0
559.75 428.75 0 -1 0 0
559.75 474 0 -1 0 0
559.75 474 100 -1 0 0
559.75 428.75 100 -1 0 0
560.25 429.25 0 1 -0 0
560.25 474 0 1 -0 0
560.25 474 100 1 -0 0
560.25 429.25 100 1 -0 0
212.75 55.75 0 -0 -1 0
149 55.75 0 -0 -1 0
149 55.75 100 -0 -1 0
212.75 55.75 100 -0 -1 0
213.25 56.25 0 0 1 0
149 56.25 0 0 1 0
149 56.25 100 0 1 0
213.25 56.25 100 0 1 0
248.75 214 0 -1 0 0
248.75 288 0 -1 0 0
248.75 288 100 -1 0 0
248.75 214 100 -1 0 0
249.25 214 0 1 -0 0
249.25 288 0 1 -0 0
249.25 288 100 1 -0 0
249.25 214 100 1 -0 0
496 206.25 0 -0 1 0
590 206.25 0 -0 1 0
590 206.25 100 -0 1 0
496 206.25 100 -0 1 0
496 205.75 0 0 -1 0
590 205.75 0 0 -1 0
590 205.75 100 0 -1 0
496 205.75 100 0 -1 0
334 373.25 0 -0 1 0
428 373.25 0 -0 1 0
428 373.25 100 -0 1 0
334 373.25 100 -0 1 0
334 372.75 0 0 -1 0
428 372.75 0 0 -1 0
428 372.75 100 0 -1 0
334 372.75 100 0 -1 0
338 9.25 0 -0 1 0
377 9.25 0 -0 1 0
377 9.25 100 -0 1 0
338 9.25 100 -0 1 0
338 8.75 0 0 -1 0
377 8.75 0 0 -1 0
377 8.75 100 0 -1 0
338 8.75 100 0 -1 0
213 206.25 0 -0 1 0
248 206.25 0 -0 1 0
248 206.25 100 -0 1 0
213 206.25 100 -0 1 0
213 205.75 0 0 -1 0
248 205.75 0 0 -1 0
248 205.75 100 0 -1 0
213 205.75 100 0 -1 0
212.75 146.25 0 -1 0 0
212.75 215 0 -1 0 0
212.75 215 100 -1 0 0
212.75 146.25 100 -1 0 0
213.25 145.75 0 1 -0 0
213.25 215 0 1 -0 0
213.25 215 100 1 -0 0
213.25 145.75 100 1 -0 0
213.25 145.75 0 -0 -1 0
149 145.75 0 -0 -1 0
149 145.75 100 -0 -1 0
213.25 145.75 100 -0 -1 0
212.75 146.25 0 0 1 0
149 146.25 0 0 1 0
149 146.25 100 0 1 0
212.75 146.25 100 0 1 0
679.25 392 0 661.01507568359375 380.47650146484375 0
678.75 392 0 661.01507568359375 380.47650146484375 0
678.75 392 100 661.01507568359375 380.47650146484375 0
679.25 392 100 661.01507568359375 380.47650146484375 0
417 28.25 0 415.953369140625 28.1113491058349609 0
417 27.75 0 415.953369140625 28.1113491058349609 0
417 27.75 100 415.953369140625 28.1113491058349609 0
417 28.25 100 415.953369140625 28.1113491058349609 0
409.25 429 0 401.671295166015625 422.0555419921875 0
408.75 429 0 401.671295166015625 422.0555419921875 0
408.75 429 100 401.671295166015625 422.0555419921875 0
409.25 429 100 401.671295166015625 422.0555419921875 0
409.25 375 0 401.671295166015625 367.0555419921875 0
408.75 375 0 401.671295166015625 367.0555419921875 0
408.75 375 100 401.671295166015625 367.0555419921875 0
409.25 375 100 401.671295166015625 367.0555419921875 0
470.25 473 0 459.79998779296875 463.4888916015625 0
469.75 473 0 459.79998779296875 463.4888916015625 0
469.75 473 100 459.79998779296875 463.4888916015625 0
470.25 473 100 459.79998779296875 463.4888916015625 0
470.25 428 0 459.79998779296875 417.4888916015625 0
469.75 428 0 459.79998779296875 417.4888916015625 0
469.75 428 100 459.79998779296875 417.4888916015625 0
470.25 428 100 459.79998779296875 417.4888916015625 0
647 206.25 0 625.6220703125 199.753936767578125 0
647 205.75 0 625.6220703125 199.753936767578125 0
647 205.75 100 625.6220703125 199.753936767578125 0
647 206.25 100 625.6220703125 199.753936767578125 0
429 313.25 0 425.120819091796875 311.14764404296875 0
429 312.75 0 425.120819091796875 311.14764404296875 0
429 312.75 100 425.120819091796875 311.14764404296875 0
429 313.25 100 425.120819091796875 311.14764404296875 0
578 313.25 0 575.12078857421875 311.14764404296875 0
578 312.75 0 575.12078857421875 311.14764404296875 0
578 312.75 100 575.12078857421875 311.14764404296875 0
578 313.25 100 575.12078857421875 311.14764404296875 0
269.25 54 0 258.480010986328125 52.8400001525878906 0
268.75 54 0 258.480010986328125 52.8400001525878906 0
268.75 54 100 258.480010986328125 52.8400001525878906 0
269.25 54 100 258.480010986328125 52.8400001525878906 0
269.25 29 0 258.480010986328125 26.8400001525878906 0
268.75 29 0 258.480010986328125 26.8400001525878906 0
268.75 29 100 258.480010986328125 26.8400001525878906 0
269.25 29 100 258.480010986328125 26.8400001525878906 0
678.75 335 0 673.4781494140625 333.3980712890625 0
679.25 335 0 673.4781494140625 333.3980712890625 0
679.25 335 100 673.4781494140625 333.3980712890625 0
678.75 335 100 673.4781494140625 333.3980712890625 0
248.75 214 0 245.388519287109375 210.108108520507812 0
249.25 214 0 245.388519287109375 210.108108520507812 0
249.25 214 100 245.388519287109375 210.108108520507812 0
248.75 214 100 245.388519287109375 210.108108520507812 0
248.75 288 0 245.388519287109375 285.10809326171875 0
249.25 288 0 245.388519287109375 285.10809326171875 0
249.25 288 100 245.388519287109375 285.10809326171875 0
248.75 288 100 245.388519287109375 285.10809326171875 0
496 206.25 0 489.723419189453125 204.05584716796875 0
496 205.75 0 489.723419189453125 204.05584716796875 0
496 205.75 100 489.723419189453125 204.05584716796875 0
496 206.25 100 489.723419189453125 204.05584716796875 0
590 206.25 0 584.723388671875 204.05584716796875 0
590 205.75 0 584.723388671875 204.05584716796875 0
590 205.75 100 584.723388671875 204.05584716796875 0
590 206.25 100 584.723388671875 204.05584716796875 0
334 373.25 0 329.446807861328125 369.279266357421875 0
334 372.75 0 329.446807861328125 369.279266357421875 0
334 372.75 100 329.446807861328125 369.279266357421875 0
334 373.25 100 329.446807861328125 369.279266357421875 0
428 373.25 0 424.446807861328125 369.279266357421875 0
428 372.75 0 424.446807861328125 369.279266357421875 0
428 372.75 100 424.446807861328125 369.279266357421875 0
428 373.25 100 424.446807861328125 369.279266357421875 0
338 9.25 0 328.333343505859375 9.01282024383544922 0
338 8.75 0 328.333343505859375 9.01282024383544922 0
338 8.75 100 328.333343505859375 9.01282024383544922 0
338 9.25 100 328.333343505859375 9.01282024383544922 0
377 9.25 0 368.333343505859375 9.01282024383544922 0
377 8.75 0 368.333343505859375 9.01282024383544922 0
377 8.75 100 368.333343505859375 9.01282024383544922 0
377 9.25 100 368.333343505859375 9.01282024383544922 0
559.75 474 0 547.37982177734375 464.524871826171875 0
560.25 474 0 547.37982177734375 464.524871826171875 0
560.25 474 100 547.37982177734375 464.524871826171875 0
559.75 474 100 547.37982177734375 464.524871826171875 0
149 55.75 0 145.662750244140625 54.8754920959472656 0
149 56.25 0 145.662750244140625 54.8754920959472656 0
149 56.25 100 145.662750244140625 54.8754920959472656 0
149 55.75 100 145.662750244140625 54.8754920959472656 0
213 206.25 0 205.914291381835938 200.357147216796875 0
213 205.75 0 205.914291381835938 200.357147216796875 0
213 205.75 100 205.914291381835938 200.357147216796875 0
213 206.25 100 205.914291381835938 200.357147216796875 0
248 206.25 0 241.914291381835938 200.357147216796875 0
248 205.75 0 241.914291381835938 200.357147216796875 0
248 205.75 100 241.914291381835938 200.357147216796875 0
248 206.25 100 241.914291381835938 200.357147216796875 0
212.75 215 0 209.65545654296875 212.872726440429688 0
213.25 215 0 209.65545654296875 212.872726440429688 0
213.25 215 100 209.65545654296875 212.872726440429688 0
212.75 215 100 209.65545654296875 212.872726440429688 0
149 145.75 0 145.680938720703125 143.481521606445312 0
149 146.25 0 145.680938720703125 143.481521606445312 0
149 146.25 100 145.680938720703125 143.481521606445312 0
149 145.75 100 145.680938720703125 143.481521606445312 0
679.25 429.25 0 0 0 -1
678.75 428.75 0 0 0 -1
678.75 392 0 0 0 -1
679.25 392 0 0 0 -1
679.25 429.25 100 0 0 1
678.75 428.75 100 0 0 1
678.75 392 100 0 0 1
679.25 392 100 0 0 1
678.75 428.75 0 0 0 -1
679.25 429.25 0 0 0 -1
560.25 429.25 0 0 0 -1
559.75 428.75 0 0 0 -1
678.75 428.75 100 0 0 1
679.25 429.25 100 0 0 1
560.25 429.25 100 0 0 1
559.75 428.75 100 0 0 1
213.25 28.25 0 0 0 -1
212.75 27.75 0 0 0 -1
417 27.75 0 0 0 -1
417 28.25 0 0 0 -1
213.25 28.25 100 0 0 1
212.75 27.75 100 0 0 1
417 27.75 100 0 0 1
417 28.25 100 0 0 1
212.75 27.75 0 0 0 -1
213.25 28.25 0 0 0 -1
213.25 56.25 0 0 0 -1
212.75 55.75 0 0 0 -1
212.75 27.75 100 0 0 1
213.25 28.25 100 0 0 1
213.25 56.25 100 0 0 1
212.75 55.75 100 0 0 1
409.25 429 0 0 0 -1
408.75 429 0 0 0 -1
408.75 375 0 0 0 -1
409.25 375 0 0 0 -1
409.25 429 100 0 0 1
408.75 429 100 0 0 1
408.75 375 100 0 0 1
409.25 375 100 0 0 1
470.25 473 0 0 0 -1
469.75 473 0 0 0 -1
469.75 428 0 0 0 -1
470.25 428 0 0 0 -1
470.25 473 100 0 0 1
469.75 473 100 0 0 1
469.75 428 100 0 0 1
470.25 428 100 0 0 1
647 206.25 0 0 0 -1
647 205.75 0 0 0 -1
679.25 205.75 0 0 0 -1
678.75 206.25 0 0 0 -1
647 206.25 100 0 0 1
647 205.75 100 0 0 1
679.25 205.75 100 0 0 1
678.75 206.25 100 0 0 1
678.75 206.25 0 0 0 -1
679.25 205.75 0 0 0 -1
679.25 335 0 0 0 -1
678.75 335 0 0 0 -1
678.75 206.25 100 0 0 1
679.25 205.75 100 0 0 1
679.25 335 100 0 0 1
678.75 335 100 0 0 1
429 313.25 0 0 0 -1
429 312.75 0 0 0 -1
578 312.75 0 0 0 -1
578 313.25 0 0 0 -1
429 313.25 100 0 0 1
429 312.75 100 0 0 1
578 312.75 100 0 0 1
578 313.25 100 0 0 1
269.25 54 0 0 0 -1
268.75 54 0 0 0 -1
268.75 29 0 0 0 -1
269.25 29 0 0 0 -1
269.25 54 100 0 0 1
268.75 54 100 0 0 1
268.75 29 100 0 0 1
269.25 29 100 0 0 1
559.75 428.75 0 0 0 -1
560.25 429.25 0 0 0 -1
560.25 474 0 0 0 -1
559.75 474 0 0 0 -1
559.75 428.75 100 0 0 1
560.25 429.25 100 0 0 1
560.25 474 100 0 0 1
559.75 474 100 0 0 1
212.75 55.75 0 0 0 -1
213.25 56.25 0 0 0 -1
149 56.25 0 0 0 -1
149 55.75 0 0 0 -1
212.75 55.75 100 0 0 1
213.25 56.25 100 0 0 1
149 56.25 100 0 0 1
149 55.75 100 0 0 1
248.75 214 0 0 0 -1
249.25 214 0 0 0 -1
249.25 288 0 0 0 -1
248.75 288 0 0 0 -1
248.75 214 100 0 0 1
249.25 214 100 0 0 1
249.25 288 100 0 0 1
248.75 288 100 0 0 1
496 206.25 0 0 0 -1
496 205.75 0 0 0 -1
590 205.75 0 0 0 -1
590 206.25 0 0 0 -1
496 206.25 100 0 0 1
496 205.75 100 0 0 1
590 205.75 100 0 0 1
590 206.25 100 0 0 1
334 373.25 0 0 0 -1
334 372.75 0 0 0 -1
428 372.75 0 0 0 -1
428 373.25 0 0 0 -1
334 373.25 100 0 0 1
334 372.75 100 0 0 1
428 372.75 100 0 0 1
428 373.25 100 0 0 1
338 9.25 0 0 0 -1
338 8.75 0 0 0 -1
377 8.75 0 0 0 -1
377 9.25 0 0 0 -1
338 9.25 100 0 0 1
338 8.75 100 0 0 1
377 8.75 100 0 0 1
377 9.25 100 0 0 1
213 206.25 0 0 0 -1
213 205.75 0 0 0 -1
248 205.75 0 0 0 -1
248 206.25 0 0 0 -1
213 206.25 100 0 0 1
213 205.75 100 0 0 1
248 205.75 100 0 0 1
248 206.25 100 0 0 1
212.75 146.25 0 0 0 -1
213.25 145.75 0 0 0 -1
213.25 215 0 0 0 -1
212.75 215 0 0 0 -1
212.75 146.25 100 0 0 1
213.25 145.75 100 0 0 1
213.25 215 100 0 0 1
212.75 215 100 0 0 1
213.25 145.75 0 0 0 -1
212.75 146.25 0 0 0 -1
149 146.25 0 0 0 -1
149 145.75 0 0 0 -1
213.25 145.75 100 0 0 1
212.75 146.25 100 0 0 1
149 146.25 100 0 0 1
149 145.75 100 0 0 1
4 0 1 2 3
4 4 5 6 7
4 8 9 10 11
4 12 13 14 15
4 16 17 18 19
4 20 21 22 23
4 24 25 26 27
4 28 29 30 31
4 32 33 34 35
4 36 37 38 39
4 40 41 42 43
4 44 45 46 47
4 48 49 50 51
4 52 53 54 55
4 56 57 58 59
4 60 61 62 63
4 64 65 66 67
4 68 69 70 71
4 72 73 74 75
4 76 77 78 79
4 80 81 82 83
4 84 85 86 87
4 88 89 90 91
4 92 93 94 95
4 96 97 98 99
4 100 101 102 103
4 104 105 106 107
4 108 109 110 111
4 112 113 114 115
4 116 117 118 119
4 120 121 122 123
4 124 125 126 127
4 128 129 130 131
4 132 133 134 135
4 136 137 138 139
4 140 141 142 143
4 144 145 146 147
4 148 149 150 151
4 152 153 154 155
4 156 157 158 159
4 160 161 162 163
4 164 165 166 167
4 168 169 170 171
4 172 173 174 175
4 176 177 178 179
4 180 181 182 183
4 184 185 186 187
4 188 189 190 191
4 192 193 194 195
4 196 197 198 199
4 200 201 202 203
4 204 205 206 207
4 208 209 210 211
4 212 213 214 215
4 216 217 218 219
4 220 221 222 223
4 224 225 226 227
4 228 229 230 231
4 232 233 234 235
4 236 237 238 239
4 240 241 242 243
4 244 245 246 247
4 248 249 250 251
4 252 253 254 255
4 256 257 258 259
4 260 261 262 263
4 264 265 266 267
4 268 269 270 271
4 272 273 274 275
4 276 277 278 279
4 280 281 282 283
4 284 285 286 287
4 288 289 290 291
4 292 293 294 295
4 296 297 298 299
4 300 301 302 303
4 304 305 306 307
4 308 309 310 311
4 312 313 314 315
4 316 317 318 319
4 320 321 322 323
4 324 325 326 327
4 328 329 330 331
4 332 333 334 335
4 336 337 338 339
4 340 341 342 343
4 344 345 346 347
4 348 349 350 351
4 352 353 354 355
4 356 357 358 359
4 360 361 362 363
4 364 365 366 367
4 368 369 370 371
4 372 373 374 375
4 376 377 378 379
4 380 381 382 383
4 384 385 386 387
4 388 389 390 391
4 392 393 394 395
4 396 397 398 399
4 400 401 402 403
4 404 405 406 407
