ply
format ascii 1.0
element vertex 544
property float x
property float y
property float z
property float nx
property float ny
property float nz
element quads 136
property list uchar int vertex_indices
end_header
240.497543334960938 159 0 1 0 0
240.497543334960938 57 0 1 0 0
240.497543334960938 57 150 1 0 0
240.497543334960938 159 150 1 0 0
230.497543334960938 159 0 -1 -0 0
230.497543334960938 57 0 -1 -0 0
230.497543334960938 57 150 -1 -0 0
230.497543334960938 159 150 -1 -0 0
240.5 235 0 1 0 0
240.5 198 0 1 0 0
240.5 198 150 1 0 0
240.5 235 150 1 0 0
230.5 235 0 -1 -0 0
230.5 198 0 -1 -0 0
230.5 198 150 -1 -0 0
230.5 235 150 -1 -0 0
587 242 0 1 0 0
587 112 0 1 0 0
587 112 150 1 0 0
587 242 150 1 0 0
577 242 0 -1 -0 0
577 112 0 -1 -0 0
577 112 150 -1 -0 0
577 242 150 -1 -0 0
411 313.5 0 -0 -1 0
357 313.5 0 -0 -1 0
357 313.5 150 -0 -1 0
411 313.5 150 -0 -1 0
411 323.5 0 0 1 0
357 323.5 0 0 1 0
357 323.5 150 0 1 0
411 323.5 150 0 1 0
587.5 278 0 1 0 0
587.5 268 0 1 0 0
587.5 268 150 1 0 0
587.5 278 150 1 0 0
577.5 278 0 -1 -0 0
577.5 268 0 -1 -0 0
577.5 268 150 -1 -0 0
577.5 278 150 -1 -0 0
330 313 0 -0 -1 0
236 313 0 -0 -1 0
236 313 150 -0 -1 0
330 313 150 -0 -1 0
330 323 0 0 1 0
236 323 0 0 1 0
236 323 150 0 1 0
330 323 150 0 1 0
291 1 0 -0 -1 0
230 1 0 -0 -1 0
230 1 150 -0 -1 0
291 1 150 -0 -1 0
291 11 0 0 1 0
240 11 0 0 1 0
240 11 150 0 1 0
291 11 150 0 1 0
230 1 0 -1 0 0
230 36 0 -1 0 0
230 36 150 -1 0 0
230 1 150 -1 0 0
240 11 0 1 -0 0
240 36 0 1 -0 0
240 36 150 1 -0 0
240 11 150 1 -0 0
457 110.098724365234375 0 -0 -1 0
408 110.098724365234375 0 -0 -1 0
408 110.098724365234375 150 -0 -1 0
457 110.098724365234375 150 -0 -1 0
457 120.098724365234375 0 0 1 0
408 120.098724365234375 0 0 1 0
408 120.098724365234375 150 0 1 0
457 120.098724365234375 150 0 1 0
240.5 318 0 1 0 0
240.5 274 0 1 0 0
240.5 274 150 1 0 0
240.5 318 150 1 0 0
230.5 318 0 -1 -0 0
230.5 274 0 -1 -0 0
230.5 274 150 -1 -0 0
230.5 318 150 -1 -0 0
513 106.509803771972656 0 -0 -1 0
487 106.509803771972656 0 -0 -1 0
487 106.509803771972656 150 -0 -1 0
513 106.509803771972656 150 -0 -1 0
513 116.509803771972656 0 0 1 0
487 116.509803771972656 0 0 1 0
487 116.509803771972656 150 0 1 0
513 116.509803771972656 150 0 1 0
427 119.75 0 -0 -1 0
408 119.75 0 -0 -1 0
408 119.75 150 -0 -1 0
427 119.75 150 -0 -1 0
427 129.75 0 0 1 0
408 129.75 0 0 1 0
408 129.75 150 0 1 0
427 129.75 150 0 1 0
582 106.5 0 -0 -1 0
569 106.5 0 -0 -1 0
569 106.5 150 -0 -1 0
582 106.5 150 -0 -1 0
582 116.5 0 0 1 0
569 116.5 0 0 1 0
569 116.5 150 0 1 0
582 116.5 150 0 1 0
587 320 0 1 0 0
587 310 0 1 0 0
587 310 150 1 0 0
587 320 150 1 0 0
577 320 0 -1 -0 0
577 310 0 -1 -0 0
577 310 150 -1 -0 0
577 320 150 -1 -0 0
402 154.390762329101562 0 0.719936728477478027 0.694039702415466309 0
423.361602783203125 132.232101440429688 0 0.719936728477478027 0.694039702415466309 0
423.361602783203125 132.232101440429688 150 0.719936728477478027 0.694039702415466309 0
402 154.390762329101562 150 0.719936728477478027 0.694039702415466309 0
412 129.609237670898438 0 -0.719936728477478027 -0.694039702415466309 0
416.1622314453125 125.291709899902344 0 -0.719936728477478027 -0.694039702415466309 0
416.1622314453125 125.291709899902344 150 -0.719936728477478027 -0.694039702415466309 0
412 129.609237670898438 150 -0.719936728477478027 -0.694039702415466309 0
412 129.609237670898438 0 1 0 0
412 0.955157876014709473 0 1 0 0
412 0.955157876014709473 150 1 0 0
412 129.609237670898438 150 1 0 0
402 154.390762329101562 0 -1 -0 0
402 11.0448417663574219 0 -1 -0 0
402 11.0448417663574219 150 -1 -0 0
402 154.390762329101562 150 -1 -0 0
412 0.955157876014709473 0 -0.00892821513116359711 -0.999960124492645264 0
350.955352783203125 1.50019931793212891 0 -0.00892821513116359711 -0.999960124492645264 0
350.955352783203125 1.50019931793212891 150 -0.00892821513116359711 -0.999960124492645264 0
412 0.955157876014709473 150 -0.00892821513116359711 -0.999960124492645264 0
402 11.0448417663574219 0 0.00892821513116359711 0.999960124492645264 0
351.044647216796875 11.4998006820678711 0 0.00892821513116359711 0.999960124492645264 0
351.044647216796875 11.4998006820678711 150 0.00892821513116359711 0.999960124492645264 0
402 11.0448417663574219 150 0.00892821513116359711 0.999960124492645264 0
450.007293701171875 315.999237060546875 0 -1 -0.000155303612700663507 0
449.999237060546875 368 0 -1 -0.000155303612700663507 0
449.999237060546875 368 150 -1 -0.000155303612700663507 0
450.007293701171875 315.999237060546875 150 -1 -0.000155303612700663507 0
460.007293701171875 316.000762939453125 0 1 0.000155303612700663507 0
460.000762939453125 358 0 1 0.000155303612700663507 0
460.000762939453125 358 150 1 0.000155303612700663507 0
460.007293701171875 316.000762939453125 150 1 0.000155303612700663507 0
449.999237060546875 368 0 -0 1 0
490 368 0 -0 1 0
490 368 150 -0 1 0
449.999237060546875 368 150 -0 1 0
460.000762939453125 358 0 0 -1 0
490 358 0 0 -1 0
490 358 150 0 -1 0
460.000762939453125 358 150 0 -1 0
577.48828125 396.86492919921875 0 -0.999634981155395508 -0.0270171612501144409 0
577.13330078125 410 0 -0.999634981155395508 -0.0270171612501144409 0
577.13330078125 410 150 -0.999634981155395508 -0.0270171612501144409 0
577.48828125 396.86492919921875 150 -0.999634981155395508 -0.0270171612501144409 0
587.48468017578125 397.13507080078125 0 0.999634981155395508 0.0270171612501144409 0
586.86669921875 420 0 0.999634981155395508 0.0270171612501144409 0
586.86669921875 420 150 0.999634981155395508 0.0270171612501144409 0
587.48468017578125 397.13507080078125 150 0.999634981155395508 0.0270171612501144409 0
577.13330078125 410 0 -0 -1 0
564 410 0 -0 -1 0
564 410 150 -0 -1 0
577.13330078125 410 150 -0 -1 0
586.86669921875 420 0 0 1 0
564 420 0 0 1 0
564 420 150 0 1 0
586.86669921875 420 150 0 1 0
548.07354736328125 367.49945068359375 0 0.0147042926400899887 0.999891877174377441 0
586.848388671875 366.929229736328125 0 0.0147042926400899887 0.999891877174377441 0
586.848388671875 366.929229736328125 150 0.0147042926400899887 0.999891877174377441 0
548.07354736328125 367.49945068359375 150 0.0147042926400899887 0.999891877174377441 0
547.92645263671875 357.50054931640625 0 -0.0147042926400899887 -0.999891877174377441 0
577.151611328125 357.070770263671875 0 -0.0147042926400899887 -0.999891877174377441 0
577.151611328125 357.070770263671875 150 -0.0147042926400899887 -0.999891877174377441 0
547.92645263671875 357.50054931640625 150 -0.0147042926400899887 -0.999891877174377441 0
586.848388671875 366.929229736328125 0 0.999512076377868652 0.0312347523868083954 0
587.49755859375 346.15618896484375 0 0.999512076377868652 0.0312347523868083954 0
587.49755859375 346.15618896484375 150 0.999512076377868652 0.0312347523868083954 0
586.848388671875 366.929229736328125 150 0.999512076377868652 0.0312347523868083954 0
577.151611328125 357.070770263671875 0 -0.999512076377868652 -0.0312347523868083954 0
577.50244140625 345.84381103515625 0 -0.999512076377868652 -0.0312347523868083954 0
577.50244140625 345.84381103515625 150 -0.999512076377868652 -0.0312347523868083954 0
577.151611328125 357.070770263671875 150 -0.999512076377868652 -0.0312347523868083954 0
450.018524169921875 396.994842529296875 0 -0.999999463558197021 -0.00102880608756095171 0
449.994842529296875 420 0 -0.999999463558197021 -0.00102880608756095171 0
449.994842529296875 420 150 -0.999999463558197021 -0.00102880608756095171 0
450.018524169921875 396.994842529296875 150 -0.999999463558197021 -0.00102880608756095171 0
460.018524169921875 397.005157470703125 0 0.999999463558197021 0.00102880608756095171 0
460.005157470703125 410 0 0.999999463558197021 0.00102880608756095171 0
460.005157470703125 410 150 0.999999463558197021 0.00102880608756095171 0
460.018524169921875 397.005157470703125 150 0.999999463558197021 0.00102880608756095171 0
449.994842529296875 420 0 -0 1 0
473 420 0 -0 1 0
473 420 150 -0 1 0
449.994842529296875 420 150 -0 1 0
460.005157470703125 410 0 0 -1 0
473 410 0 0 -1 0
473 410 150 0 -1 0
460.005157470703125 410 150 0 -1 0
240.497543334960938 159 0 238.139724731445312 158.441177368164062 0
230.497543334960938 159 0 238.139724731445312 158.441177368164062 0
230.497543334960938 159 150 238.139724731445312 158.441177368164062 0
240.497543334960938 159 150 238.139724731445312 158.441177368164062 0
240.497543334960938 57 0 238.139724731445312 55.4411773681640625 0
230.497543334960938 57 0 238.139724731445312 55.4411773681640625 0
230.497543334960938 57 150 238.139724731445312 55.4411773681640625 0
240.497543334960938 57 150 238.139724731445312 55.4411773681640625 0
240.5 235 0 234 229.648651123046875 0
230.5 235 0 234 229.648651123046875 0
230.5 235 150 234 229.648651123046875 0
240.5 235 150 234 229.648651123046875 0
240.5 198 0 234 191.648651123046875 0
230.5 198 0 234 191.648651123046875 0
230.5 198 150 234 191.648651123046875 0
240.5 198 150 234 191.648651123046875 0
587 242 0 582.484619140625 241.138458251953125 0
577 242 0 582.484619140625 241.138458251953125 0
577 242 150 582.484619140625 241.138458251953125 0
587 242 150 582.484619140625 241.138458251953125 0
587 112 0 582.484619140625 110.138458251953125 0
577 112 0 582.484619140625 110.138458251953125 0
577 112 150 582.484619140625 110.138458251953125 0
587 112 150 582.484619140625 110.138458251953125 0
411 313.5 0 404.388885498046875 307.6944580078125 0
411 323.5 0 404.388885498046875 307.6944580078125 0
411 323.5 150 404.388885498046875 307.6944580078125 0
411 313.5 150 404.388885498046875 307.6944580078125 0
357 313.5 0 349.388885498046875 307.6944580078125 0
357 323.5 0 349.388885498046875 307.6944580078125 0
357 323.5 150 349.388885498046875 307.6944580078125 0
357 313.5 150 349.388885498046875 307.6944580078125 0
587.5 278 0 528.75 251.199996948242188 0
577.5 278 0 528.75 251.199996948242188 0
577.5 278 150 528.75 251.199996948242188 0
587.5 278 150 528.75 251.199996948242188 0
587.5 268 0 528.75 240.199996948242188 0
577.5 268 0 528.75 240.199996948242188 0
577.5 268 150 528.75 240.199996948242188 0
587.5 268 150 528.75 240.199996948242188 0
330 313 0 327.489349365234375 309.67022705078125 0
330 323 0 327.489349365234375 309.67022705078125 0
330 323 150 327.489349365234375 309.67022705078125 0
330 313 150 327.489349365234375 309.67022705078125 0
236 313 0 232.489364624023438 309.67022705078125 0
236 323 0 232.489364624023438 309.67022705078125 0
236 323 150 232.489364624023438 309.67022705078125 0
236 313 150 232.489364624023438 309.67022705078125 0
291 1 0 287.229522705078125 0.983606576919555664 0
291 11 0 287.229522705078125 0.983606576919555664 0
291 11 150 287.229522705078125 0.983606576919555664 0
291 1 150 287.229522705078125 0.983606576919555664 0
457 110.098724365234375 0 448.6734619140625 107.851814270019531 0
457 120.098724365234375 0 448.6734619140625 107.851814270019531 0
457 120.098724365234375 150 448.6734619140625 107.851814270019531 0
457 110.098724365234375 150 448.6734619140625 107.851814270019531 0
408 110.098724365234375 0 398.6734619140625 107.851814270019531 0
408 120.098724365234375 0 398.6734619140625 107.851814270019531 0
408 120.098724365234375 150 398.6734619140625 107.851814270019531 0
408 110.098724365234375 150 398.6734619140625 107.851814270019531 0
230 36 0 223.428573608398438 35.9714279174804688 0
240 36 0 223.428573608398438 35.9714279174804688 0
240 36 150 223.428573608398438 35.9714279174804688 0
230 36 150 223.428573608398438 35.9714279174804688 0
240.5 318 0 235.034088134765625 311.772735595703125 0
230.5 318 0 235.034088134765625 311.772735595703125 0
230.5 318 150 235.034088134765625 311.772735595703125 0
240.5 318 150 235.034088134765625 311.772735595703125 0
240.5 274 0 235.034088134765625 266.772735595703125 0
230.5 274 0 235.034088134765625 266.772735595703125 0
230.5 274 150 235.034088134765625 266.772735595703125 0
240.5 274 150 235.034088134765625 266.772735595703125 0
513 106.509803771972656 0 494.26922607421875 102.413276672363281 0
513 116.509803771972656 0 494.26922607421875 102.413276672363281 0
513 116.509803771972656 150 494.26922607421875 102.413276672363281 0
513 106.509803771972656 150 494.26922607421875 102.413276672363281 0
487 106.509803771972656 0 467.26922607421875 102.413276672363281 0
487 116.509803771972656 0 467.26922607421875 102.413276672363281 0
487 116.509803771972656 150 467.26922607421875 102.413276672363281 0
487 106.509803771972656 150 467.26922607421875 102.413276672363281 0
427 119.75 0 405.52630615234375 113.447364807128906 0
427 129.75 0 405.52630615234375 113.447364807128906 0
427 129.75 150 405.52630615234375 113.447364807128906 0
427 119.75 150 405.52630615234375 113.447364807128906 0
408 119.75 0 385.52630615234375 113.447364807128906 0
408 129.75 0 385.52630615234375 113.447364807128906 0
408 129.75 150 385.52630615234375 113.447364807128906 0
408 119.75 150 385.52630615234375 113.447364807128906 0
582 106.5 0 538.23077392578125 98.3076934814453125 0
582 116.5 0 538.23077392578125 98.3076934814453125 0
582 116.5 150 538.23077392578125 98.3076934814453125 0
582 106.5 150 538.23077392578125 98.3076934814453125 0
569 106.5 0 524.23077392578125 98.3076934814453125 0
569 116.5 0 524.23077392578125 98.3076934814453125 0
569 116.5 150 524.23077392578125 98.3076934814453125 0
569 106.5 150 524.23077392578125 98.3076934814453125 0
587 320 0 528.29998779296875 289 0
577 320 0 528.29998779296875 289 0
577 320 150 528.29998779296875 289 0
587 320 150 528.29998779296875 289 0
587 310 0 528.29998779296875 278 0
577 310 0 528.29998779296875 278 0
577 310 150 528.29998779296875 278 0
587 310 150 528.29998779296875 278 0
423.361602783203125 132.232101440429688 0 410.300567626953125 127.215934753417969 0
416.1622314453125 125.291709899902344 0 410.300567626953125 127.215934753417969 0
416.1622314453125 125.291709899902344 150 410.300567626953125 127.215934753417969 0
423.361602783203125 132.232101440429688 150 410.300567626953125 127.215934753417969 0
350.955352783203125 1.50019931793212891 0 344.20648193359375 1.48455297946929932 0
351.044647216796875 11.4998006820678711 0 344.20648193359375 1.48455297946929932 0
351.044647216796875 11.4998006820678711 150 344.20648193359375 1.48455297946929932 0
350.955352783203125 1.50019931793212891 150 344.20648193359375 1.48455297946929932 0
450.007293701171875 315.999237060546875 0 441.353607177734375 308.922393798828125 0
460.007293701171875 316.000762939453125 0 441.353607177734375 308.922393798828125 0
460.007293701171875 316.000762939453125 150 441.353607177734375 308.922393798828125 0
450.007293701171875 315.999237060546875 150 441.353607177734375 308.922393798828125 0
490 368 0 478.750244140625 358.8001708984375 0
490 358 0 478.750244140625 358.8001708984375 0
490 358 150 478.750244140625 358.8001708984375 0
490 368 150 478.750244140625 358.8001708984375 0
577.48828125 396.86492919921875 0 533.5660400390625 365.662200927734375 0
587.48468017578125 397.13507080078125 0 533.5660400390625 365.662200927734375 0
587.48468017578125 397.13507080078125 150 533.5660400390625 365.662200927734375 0
577.48828125 396.86492919921875 150 533.5660400390625 365.662200927734375 0
564 410 0 520.0557861328125 378.78167724609375 0
564 420 0 520.0557861328125 378.78167724609375 0
564 420 150 520.0557861328125 378.78167724609375 0
564 410 150 520.0557861328125 378.78167724609375 0
548.07354736328125 367.49945068359375 0 532.9404296875 358.03741455078125 0
547.92645263671875 357.50054931640625 0 532.9404296875 358.03741455078125 0
547.92645263671875 357.50054931640625 150 532.9404296875 358.03741455078125 0
548.07354736328125 367.49945068359375 150 532.9404296875 358.03741455078125 0
587.49755859375 346.15618896484375 0 559.26092529296875 328.5010986328125 0
577.50244140625 345.84381103515625 0 559.26092529296875 328.5010986328125 0
577.50244140625 345.84381103515625 150 559.26092529296875 328.5010986328125 0
587.49755859375 346.15618896484375 150 559.26092529296875 328.5010986328125 0
450.018524169921875 396.994842529296875 0 430.457916259765625 378.738067626953125 0
460.018524169921875 397.005157470703125 0 430.457916259765625 378.738067626953125 0
460.018524169921875 397.005157470703125 150 430.457916259765625 378.738067626953125 0
450.018524169921875 396.994842529296875 150 430.457916259765625 378.738067626953125 0
473 420 0 453.43939208984375 401.74322509765625 0
473 410 0 453.43939208984375 401.74322509765625 0
473 410 150 453.43939208984375 401.74322509765625 0
473 420 150 453.43939208984375 401.74322509765625 0
240.497543334960938 159 0 0 0 -1
230.497543334960938 159 0 0 0 -1
230.497543334960938 57 0 0 0 -1
240.497543334960938 57 0 0 0 -1
240.497543334960938 159 150 0 0 1
230.497543334960938 159 150 0 0 1
230.497543334960938 57 150 0 0 1
240.497543334960938 57 150 0 0 1
240.5 235 0 0 0 -1
230.5 235 0 0 0 -1
230.5 198 0 0 0 -1
240.5 198 0 0 0 -1
240.5 235 150 0 0 1
230.5 235 150 0 0 1
230.5 198 150 0 0 1
240.5 198 150 0 0 1
587 242 0 0 0 -1
577 242 0 0 0 -1
577 112 0 0 0 -1
587 112 0 0 0 -1
587 242 150 0 0 1
577 242 150 0 0 1
577 112 150 0 0 1
587 112 150 0 0 1
411 313.5 0 0 0 -1
411 323.5 0 0 0 -1
357 323.5 0 0 0 -1
357 313.5 0 0 0 -1
411 313.5 150 0 0 1
411 323.5 150 0 0 1
357 323.5 150 0 0 1
357 313.5 150 0 0 1
587.5 278 0 0 0 -1
577.5 278 0 0 0 -1
577.5 268 0 0 0 -1
587.5 268 0 0 0 -1
587.5 278 150 0 0 1
577.5 278 150 0 0 1
577.5 268 150 0 0 1
587.5 268 150 0 0 1
330 313 0 0 0 -1
330 323 0 0 0 -1
236 323 0 0 0 -1
236 313 0 0 0 -1
330 313 150 0 0 1
330 323 150 0 0 1
236 323 150 0 0 1
236 313 150 0 0 1
291 1 0 0 0 -1
291 11 0 0 0 -1
240 11 0 0 0 -1
230 1 0 0 0 -1
291 1 150 0 0 1
291 11 150 0 0 1
240 11 150 0 0 1
230 1 150 0 0 1
230 1 0 0 0 -1
240 11 0 0 0 -1
240 36 0 0 0 -1
230 36 0 0 0 -1
230 1 150 0 0 1
240 11 150 0 0 1
240 36 150 0 0 1
230 36 150 0 0 1
457 110.098724365234375 0 0 0 -1
457 120.098724365234375 0 0 0 -1
408 120.098724365234375 0 0 0 -1
408 110.098724365234375 0 0 0 -1
457 110.098724365234375 150 0 0 1
457 120.098724365234375 150 0 0 1
408 120.098724365234375 150 0 0 1
408 110.098724365234375 150 0 0 1
240.5 318 0 0 0 -1
230.5 318 0 0 0 -1
230.5 274 0 0 0 -1
240.5 274 0 0 0 -1
240.5 318 150 0 0 1
230.5 318 150 0 0 1
230.5 274 150 0 0 1
240.5 274 150 0 0 1
513 106.509803771972656 0 0 0 -1
513 116.509803771972656 0 0 0 -1
487 116.509803771972656 0 0 0 -1
487 106.509803771972656 0 0 0 -1
513 106.509803771972656 150 0 0 1
513 116.509803771972656 150 0 0 1
487 116.509803771972656 150 0 0 1
487 106.509803771972656 150 0 0 1
427 119.75 0 0 0 -1
427 129.75 0 0 0 -1
408 129.75 0 0 0 -1
408 119.75 0 0 0 -1
427 119.75 150 0 0 1
427 129.75 150 0 0 1
408 129.75 150 0 0 1
408 119.75 150 0 0 1
582 106.5 0 0 0 -1
582 116.5 0 0 0 -1
569 116.5 0 0 0 -1
569 106.5 0 0 0 -1
582 106.5 150 0 0 1
582 116.5 150 0 0 1
569 116.5 150 0 0 1
569 106.5 150 0 0 1
587 320 0 0 0 -1
577 320 0 0 0 -1
577 310 0 0 0 -1
587 310 0 0 0 -1
587 320 150 0 0 1
577 320 150 0 0 1
577 310 150 0 0 1
587 310 150 0 0 1
402 154.390762329101562 0 0 0 -1
412 129.609237670898438 0 0 0 -1
416.1622314453125 125.291709899902344 0 0 0 -1
423.361602783203125 132.232101440429688 0 0 0 -1
402 154.390762329101562 150 0 0 1
412 129.609237670898438 150 0 0 1
416.1622314453125 125.291709899902344 150 0 0 1
423.361602783203125 132.232101440429688 150 0 0 1
412 129.609237670898438 0 0 0 -1
402 154.390762329101562 0 0 0 -1
402 11.0448417663574219 0 0 0 -1
412 0.955157876014709473 0 0 0 -1
412 129.609237670898438 150 0 0 1
402 154.390762329101562 150 0 0 1
402 11.0448417663574219 150 0 0 1
412 0.955157876014709473 150 0 0 1
412 0.955157876014709473 0 0 0 -1
402 11.0448417663574219 0 0 0 -1
351.044647216796875 11.4998006820678711 0 0 0 -1
350.955352783203125 1.50019931793212891 0 0 0 -1
412 0.955157876014709473 150 0 0 1
402 11.0448417663574219 150 0 0 1
351.044647216796875 11.4998006820678711 150 0 0 1
350.955352783203125 1.50019931793212891 150 0 0 1
450.007293701171875 315.999237060546875 0 0 0 -1
460.007293701171875 316.000762939453125 0 0 0 -1
460.000762939453125 358 0 0 0 -1
449.999237060546875 368 0 0 0 -1
450.007293701171875 315.999237060546875 150 0 0 1
460.007293701171875 316.000762939453125 150 0 0 1
460.000762939453125 358 150 0 0 1
449.999237060546875 368 150 0 0 1
449.999237060546875 368 0 0 0 -1
460.000762939453125 358 0 0 0 -1
490 358 0 0 0 -1
490 368 0 0 0 -1
449.999237060546875 368 150 0 0 1
460.000762939453125 358 150 0 0 1
490 358 150 0 0 1
490 368 150 0 0 1
577.48828125 396.86492919921875 0 0 0 -1
587.48468017578125 397.13507080078125 0 0 0 -1
586.86669921875 420 0 0 0 -1
577.13330078125 410 0 0 0 -1
577.48828125 396.86492919921875 150 0 0 1
587.48468017578125 397.13507080078125 150 0 0 1
586.86669921875 420 150 0 0 1
577.13330078125 410 150 0 0 1
577.13330078125 410 0 0 0 -1
586.86669921875 420 0 0 0 -1
564 420 0 0 0 -1
564 410 0 0 0 -1
577.13330078125 410 150 0 0 1
586.86669921875 420 150 0 0 1
564 420 150 0 0 1
564 410 150 0 0 1
548.07354736328125 367.49945068359375 0 0 0 -1
547.92645263671875 357.50054931640625 0 0 0 -1
577.151611328125 357.070770263671875 0 0 0 -1
586.848388671875 366.929229736328125 0 0 0 -1
548.07354736328125 367.49945068359375 150 0 0 1
547.92645263671875 357.50054931640625 150 0 0 1
577.151611328125 357.070770263671875 150 0 0 1
586.848388671875 366.929229736328125 150 0 0 1
586.848388671875 366.929229736328125 0 0 0 -1
577.151611328125 357.070770263671875 0 0 0 -1
577.50244140625 345.84381103515625 0 0 0 -1
587.49755859375 346.15618896484375 0 0 0 -1
586.848388671875 366.929229736328125 150 0 0 1
577.151611328125 357.070770263671875 150 0 0 1
577.50244140625 345.84381103515625 150 0 0 1
587.49755859375 346.15618896484375 150 0 0 1
450.018524169921875 396.994842529296875 0 0 0 -1
460.018524169921875 397.005157470703125 0 0 0 -1
460.005157470703125 410 0 0 0 -1
449.994842529296875 420 0 0 0 -1
450.018524169921875 396.994842529296875 150 0 0 1
460.018524169921875 397.005157470703125 150 0 0 1
460.005157470703125 410 150 0 0 1
449.994842529296875 420 150 0 0 1
449.994842529296875 420 0 0 0 -1
460.005157470703125 410 0 0 0 -1
473 410 0 0 0 -1
473 420 0 0 0 -1
449.994842529296875 420 150 0 0 1
460.005157470703125 410 150 0 0 1
473 410 150 0 0 1
473 420 150 0 0 1
4 0 1 2 3
4 4 5 6 7
4 8 9 10 11
4 12 13 14 15
4 16 17 18 19
4 20 21 22 23
4 24 25 26 27
4 28 29 30 31
4 32 33 34 35
4 36 37 38 39
4 40 41 42 43
4 44 45 46 47
4 48 49 50 51
4 52 53 54 55
4 56 57 58 59
4 60 61 62 63
4 64 65 66 67
4 68 69 70 71
4 72 73 74 75
4 76 77 78 79
4 80 81 82 83
4 84 85 86 87
4 88 89 90 91
4 92 93 94 95
4 96 97 98 99
4 100 101 102 103
4 104 105 106 107
4 108 109 110 111
4 112 113 114 115
4 116 117 118 119
4 120 121 122 123
4 124 125 126 127
4 128 129 130 131
4 132 133 134 135
4 136 137 138 139
4 140 141 142 143
4 144 145 146 147
4 148 149 150 151
4 152 153 154 155
4 156 157 158 159
4 160 161 162 163
4 164 165 166 167
4 168 169 170 171
4 172 173 174 175
4 176 177 178 179
4 180 181 182 183
4 184 185 186 187
4 188 189 190 191
4 192 193 194 195
4 196 197 198 199
4 200 201 202 203
4 204 205 206 207
4 208 209 210 211
4 212 213 214 215
4 216 217 218 219
4 220 221 222 223
4 224 225 226 227
4 228 229 230 231
4 232 233 234 235
4 236 237 238 239
4 240 241 242 243
4 244 245 246 247
4 248 249 250 251
4 252 253 254 255
4 256 257 258 259
4 260 261 262 263
4 264 265 266 267
4 268 269 270 271
4 272 273 274 275
4 276 277 278 279
4 280 281 282 283
4 284 285 286 287
4 288 289 290 291
4 292 293 294 295
4 296 297 298 299
4 300 301 302 303
4 304 305 306 307
4 308 309 310 311
4 312 313 314 315
4 316 317 318 319
4 320 321 322 323
4 324 325 326 327
4 328 329 330 331
4 332 333 334 335
4 336 337 338 339
4 340 341 342 343
4 344 345 346 347
4 348 349 350 351
4 352 353 354 355
4 356 357 358 359
4 360 361 362 363
4 364 365 366 367
4 368 369 370 371
4 372 373 374 375
4 376 377 378 379
4 380 381 382 383
4 384 385 386 387
4 388 389 390 391
4 392 393 394 395
4 396 397 398 399
4 400 401 402 403
4 404 405 406 407
4 408 409 410 411
4 412 413 414 415
4 416 417 418 419
4 420 421 422 423
4 424 425 426 427
4 428 429 430 431
4 432 433 434 435
4 436 437 438 439
4 440 441 442 443
4 444 445 446 447
4 448 449 450 451
4 452 453 454 455
4 456 457 458 459
4 460 461 462 463
4 464 465 466 467
4 468 469 470 471
4 472 473 474 475
4 476 477 478 479
4 480 481 482 483
4 484 485 486 487
4 488 489 490 491
4 492 493 494 495
4 496 497 498 499
4 500 501 502 503
4 504 505 506 507
4 508 509 510 511
4 512 513 514 515
4 516 517 518 519
4 520 521 522 523
4 524 525 526 527
4 528 529 530 531
4 532 533 534 535
4 536 537 538 539
4 540 541 542 543
