ply
format ascii 1.0
element vertex 240
property float x
property float y
property float z
property float nx
property float ny
property float nz
element quads 60
property list uchar int vertex_indices
end_header
407.25 321 0 1 0 0
407.25 237 0 1 0 0
407.25 237 100 1 0 0
407.25 321 100 1 0 0
406.75 321 0 -1 -0 0
406.75 237 0 -1 -0 0
406.75 237 100 -1 -0 0
406.75 321 100 -1 -0 0
235.75 318.25 0 -0 1 0
457 318.25 0 -0 1 0
457 318.25 100 -0 1 0
235.75 318.25 100 -0 1 0
236.25 317.75 0 0 -1 0
457 317.75 0 0 -1 0
457 317.75 100 0 -1 0
236.25 317.75 100 0 -1 0
236.25 317.75 0 1 0 0
236.25 7.25 0 1 0 0
236.25 7.25 100 1 0 0
236.25 317.75 100 1 0 0
235.75 318.25 0 -1 -0 0
235.75 6.75 0 -1 -0 0
235.75 6.75 100 -1 -0 0
235.75 318.25 100 -1 -0 0
456 363.25 0 -0 1 0
489 363.25 0 -0 1 0
489 363.25 100 -0 1 0
456 363.25 100 -0 1 0
456 362.75 0 0 -1 0
489 362.75 0 0 -1 0
489 362.75 100 0 -1 0
456 362.75 100 0 -1 0
548 363.25 0 -0 1 0
581 363.25 0 -0 1 0
581 363.25 100 -0 1 0
548 363.25 100 -0 1 0
548 362.75 0 0 -1 0
581 362.75 0 0 -1 0
581 362.75 100 0 -1 0
548 362.75 100 0 -1 0
351 7.25 0 -0 1 0
406.75 7.25 0 -0 1 0
406.75 7.25 100 -0 1 0
351 7.25 100 -0 1 0
351 6.75 0 0 -1 0
407.25 6.75 0 0 -1 0
407.25 6.75 100 0 -1 0
351 6.75 100 0 -1 0
406.75 7.25 0 -1 0 0
406.75 159 0 -1 0 0
406.75 159 100 -1 0 0
406.75 7.25 100 -1 0 0
407.25 6.75 0 1 -0 0
407.25 159 0 1 -0 0
407.25 159 100 1 -0 0
407.25 6.75 100 1 -0 0
236.25 7.25 0 -0 1 0
291 7.25 0 -0 1 0
291 7.25 100 -0 1 0
236.25 7.25 100 -0 1 0
235.75 6.75 0 0 -1 0
291 6.75 0 0 -1 0
291 6.75 100 0 -1 0
235.75 6.75 100 0 -1 0
454.75 269 0 -1 0 0
454.75 416 0 -1 0 0
454.75 416 100 -1 0 0
454.75 269 100 -1 0 0
455.25 269 0 1 -0 0
455.25 416 0 1 -0 0
455.25 416 100 1 -0 0
455.25 269 100 1 -0 0
382 112.25 0 -0 1 0
513 112.25 0 -0 1 0
513 112.25 100 -0 1 0
382 112.25 100 -0 1 0
382 111.75 0 0 -1 0
513 111.75 0 0 -1 0
513 111.75 100 0 -1 0
382 111.75 100 0 -1 0
582.75 111 0 -1 0 0
582.75 416 0 -1 0 0
582.75 416 100 -1 0 0
582.75 111 100 -1 0 0
583.25 111 0 1 -0 0
583.25 416 0 1 -0 0
583.25 416 100 1 -0 0
583.25 111 100 1 -0 0
407.25 321 0 402.40179443359375 318.178558349609375 0
406.75 321 0 402.40179443359375 318.178558349609375 0
406.75 321 100 402.40179443359375 318.178558349609375 0
407.25 321 100 402.40179443359375 318.178558349609375 0
407.25 237 0 402.40179443359375 233.178573608398438 0
406.75 237 0 402.40179443359375 233.178573608398438 0
406.75 237 100 402.40179443359375 233.178573608398438 0
407.25 237 100 402.40179443359375 233.178573608398438 0
457 318.25 0 455.9344482421875 316.81158447265625 0
457 317.75 0 455.9344482421875 316.81158447265625 0
457 317.75 100 455.9344482421875 316.81158447265625 0
457 318.25 100 455.9344482421875 316.81158447265625 0
456 363.25 0 441.18182373046875 352.242431640625 0
456 362.75 0 441.18182373046875 352.242431640625 0
456 362.75 100 441.18182373046875 352.242431640625 0
456 363.25 100 441.18182373046875 352.242431640625 0
489 363.25 0 475.18182373046875 352.242431640625 0
489 362.75 0 475.18182373046875 352.242431640625 0
489 362.75 100 475.18182373046875 352.242431640625 0
489 363.25 100 475.18182373046875 352.242431640625 0
548 363.25 0 530.3939208984375 352.242431640625 0
548 362.75 0 530.3939208984375 352.242431640625 0
548 362.75 100 530.3939208984375 352.242431640625 0
548 363.25 100 530.3939208984375 352.242431640625 0
581 363.25 0 564.3939208984375 352.242431640625 0
581 362.75 0 564.3939208984375 352.242431640625 0
581 362.75 100 564.3939208984375 352.242431640625 0
581 363.25 100 564.3939208984375 352.242431640625 0
351 7.25 0 343.70404052734375 7.11995506286621094 0
351 6.75 0 343.70404052734375 7.11995506286621094 0
351 6.75 100 343.70404052734375 7.11995506286621094 0
351 7.25 100 343.70404052734375 7.11995506286621094 0
291 7.25 0 286.6849365234375 7.11757993698120117 0
291 6.75 0 286.6849365234375 7.11757993698120117 0
291 6.75 100 286.6849365234375 7.11757993698120117 0
291 7.25 100 286.6849365234375 7.11757993698120117 0
454.75 269 0 451.656463623046875 266.170074462890625 0
455.25 269 0 451.656463623046875 266.170074462890625 0
455.25 269 100 451.656463623046875 266.170074462890625 0
454.75 269 100 451.656463623046875 266.170074462890625 0
454.75 416 0 451.656463623046875 414.170074462890625 0
455.25 416 0 451.656463623046875 414.170074462890625 0
455.25 416 100 451.656463623046875 414.170074462890625 0
454.75 416 100 451.656463623046875 414.170074462890625 0
382 112.25 0 378.083984375 111.39312744140625 0
382 111.75 0 378.083984375 111.39312744140625 0
382 111.75 100 378.083984375 111.39312744140625 0
382 112.25 100 378.083984375 111.39312744140625 0
513 112.25 0 510.083984375 111.39312744140625 0
513 111.75 0 510.083984375 111.39312744140625 0
513 111.75 100 510.083984375 111.39312744140625 0
513 112.25 100 510.083984375 111.39312744140625 0
406.75 159 0 404.069610595703125 158.952224731445312 0
407.25 159 0 404.069610595703125 158.952224731445312 0
407.25 159 100 404.069610595703125 158.952224731445312 0
406.75 159 100 404.069610595703125 158.952224731445312 0
582.75 111 0 580.83935546875 109.636062622070312 0
583.25 111 0 580.83935546875 109.636062622070312 0
583.25 111 100 580.83935546875 109.636062622070312 0
582.75 111 100 580.83935546875 109.636062622070312 0
582.75 416 0 580.83935546875 415.636077880859375 0
583.25 416 0 580.83935546875 415.636077880859375 0
583.25 416 100 580.83935546875 415.636077880859375 0
582.75 416 100 580.83935546875 415.636077880859375 0
407.25 321 0 0 0 -1
406.75 321 0 0 0 -1
406.75 237 0 0 0 -1
407.25 237 0 0 0 -1
407.25 321 100 0 0 1
406.75 321 100 0 0 1
406.75 237 100 0 0 1
407.25 237 100 0 0 1
235.75 318.25 0 0 0 -1
236.25 317.75 0 0 0 -1
457 317.75 0 0 0 -1
457 318.25 0 0 0 -1
235.75 318.25 100 0 0 1
236.25 317.75 100 0 0 1
457 317.75 100 0 0 1
457 318.25 100 0 0 1
236.25 317.75 0 0 0 -1
235.75 318.25 0 0 0 -1
235.75 6.75 0 0 0 -1
236.25 7.25 0 0 0 -1
236.25 317.75 100 0 0 1
235.75 318.25 100 0 0 1
235.75 6.75 100 0 0 1
236.25 7.25 100 0 0 1
456 363.25 0 0 0 -1
456 362.75 0 0 0 -1
489 362.75 0 0 0 -1
489 363.25 0 0 0 -1
456 363.25 100 0 0 1
456 362.75 100 0 0 1
489 362.75 100 0 0 1
489 363.25 100 0 0 1
548 363.25 0 0 0 -1
548 362.75 0 0 0 -1
581 362.75 0 0 0 -1
581 363.25 0 0 0 -1
548 363.25 100 0 0 1
548 362.75 100 0 0 1
581 362.75 100 0 0 1
581 363.25 100 0 0 1
351 7.25 0 0 0 -1
351 6.75 0 0 0 -1
407.25 6.75 0 0 0 -1
406.75 7.25 0 0 0 -1
351 7.25 100 0 0 1
351 6.75 100 0 0 1
407.25 6.75 100 0 0 1
406.75 7.25 100 0 0 1
406.75 7.25 0 0 0 -1
407.25 6.75 0 0 0 -1
407.25 159 0 0 0 -1
406.75 159 0 0 0 -1
406.75 7.25 100 0 0 1
407.25 6.75 100 0 0 1
407.25 159 100 0 0 1
406.75 159 100 0 0 1
236.25 7.25 0 0 0 -1
235.75 6.75 0 0 0 -1
291 6.75 0 0 0 -1
291 7.25 0 0 0 -1
236.25 7.25 100 0 0 1
235.75 6.75 100 0 0 1
291 6.75 100 0 0 1
291 7.25 100 0 0 1
454.75 269 0 0 0 -1
455.25 269 0 0 0 -1
455.25 416 0 0 0 -1
454.75 416 0 0 0 -1
454.75 269 100 0 0 1
455.25 269 100 0 0 1
455.25 416 100 0 0 1
454.75 416 100 0 0 1
382 112.25 0 0 0 -1
382 111.75 0 0 0 -1
513 111.75 0 0 0 -1
513 112.25 0 0 0 -1
382 112.25 100 0 0 1
382 111.75 100 0 0 1
513 111.75 100 0 0 1
513 112.25 100 0 0 1
582.75 111 0 0 0 -1
583.25 111 0 0 0 -1
583.25 416 0 0 0 -1
582.75 416 0 0 0 -1
582.75 111 100 0 0 1
583.25 111 100 0 0 1
583.25 416 100 0 0 1
582.75 416 100 0 0 1
4 0 1 2 3
4 4 5 6 7
4 8 9 10 11
4 12 13 14 15
4 16 17 18 19
4 20 21 22 23
4 24 25 26 27
4 28 29 30 31
4 32 33 34 35
4 36 37 38 39
4 40 41 42 43
4 44 45 46 47
4 48 49 50 51
4 52 53 54 55
4 56 57 58 59
4 60 61 62 63
4 64 65 66 67
4 68 69 70 71
4 72 73 74 75
4 76 77 78 79
4 80 81 82 83
4 84 85 86 87
4 88 89 90 91
4 92 93 94 95
4 96 97 98 99
4 100 101 102 103
4 104 105 106 107
4 108 109 110 111
4 112 113 114 115
4 116 117 118 119
4 120 121 122 123
4 124 125 126 127
4 128 129 130 131
4 132 133 134 135
4 136 137 138 139
4 140 141 142 143
4 144 145 146 147
4 148 149 150 151
4 152 153 154 155
4 156 157 158 159
4 160 161 162 163
4 164 165 166 167
4 168 169 170 171
4 172 173 174 175
4 176 177 178 179
4 180 181 182 183
4 184 185 186 187
4 188 189 190 191
4 192 193 194 195
4 196 197 198 199
4 200 201 202 203
4 204 205 206 207
4 208 209 210 211
4 212 213 214 215
4 216 217 218 219
4 220 221 222 223
4 224 225 226 227
4 228 229 230 231
4 232 233 234 235
4 236 237 238 239
