ply
format ascii 1.0
element vertex 376
property float x
property float y
property float z
property float nx
property float ny
property float nz
element quads 94
property list uchar int vertex_indices
end_header
392.25 486 0 1 0 0
392.25 373 0 1 0 0
392.25 373 100 1 0 0
392.25 486 100 1 0 0
391.75 486 0 -1 -0 0
391.75 373 0 -1 -0 0
391.75 373 100 -1 -0 0
391.75 486 100 -1 -0 0
294 274.25 0 -0 1 0
387 274.25 0 -0 1 0
387 274.25 100 -0 1 0
294 274.25 100 -0 1 0
294 273.75 0 0 -1 0
387 273.75 0 0 -1 0
387 273.75 100 0 -1 0
294 273.75 100 0 -1 0
302.25 49.25 0 -0 1 0
332 49.25 0 -0 1 0
332 49.25 100 -0 1 0
302.25 49.25 100 -0 1 0
301.75 48.75 0 0 -1 0
332 48.75 0 0 -1 0
332 48.75 100 0 -1 0
301.75 48.75 100 0 -1 0
301.75 48.75 0 -1 0 0
301.75 74 0 -1 0 0
301.75 74 100 -1 0 0
301.75 48.75 100 -1 0 0
302.25 49.25 0 1 -0 0
302.25 74 0 1 -0 0
302.25 74 100 1 -0 0
302.25 49.25 100 1 -0 0
405 49.25 0 -0 1 0
434.75 49.25 0 -0 1 0
434.75 49.25 100 -0 1 0
405 49.25 100 -0 1 0
405 48.75 0 0 -1 0
435.25 48.75 0 0 -1 0
435.25 48.75 100 0 -1 0
405 48.75 100 0 -1 0
434.75 49.25 0 -1 0 0
434.75 216 0 -1 0 0
434.75 216 100 -1 0 0
434.75 49.25 100 -1 0 0
435.25 48.75 0 1 -0 0
435.25 216 0 1 -0 0
435.25 216 100 1 -0 0
435.25 48.75 100 1 -0 0
452.75 253.25 0 -0 1 0
526 253.25 0 -0 1 0
526 253.25 100 -0 1 0
452.75 253.25 100 -0 1 0
453.25 252.75 0 0 -1 0
526 252.75 0 0 -1 0
526 252.75 100 0 -1 0
453.25 252.75 100 0 -1 0
453.25 252.75 0 1 0 0
453.25 148 0 1 0 0
453.25 148 100 1 0 0
453.25 252.75 100 1 0 0
452.75 253.25 0 -1 -0 0
452.75 148 0 -1 -0 0
452.75 148 100 -1 -0 0
452.75 253.25 100 -1 -0 0
339.75 416.25 0 -0 1 0
389 416.25 0 -0 1 0
389 416.25 100 -0 1 0
339.75 416.25 100 -0 1 0
340.25 415.75 0 0 -1 0
389 415.75 0 0 -1 0
389 415.75 100 0 -1 0
340.25 415.75 100 0 -1 0
340.25 415.75 0 1 0 0
340.25 373 0 1 0 0
340.25 373 100 1 0 0
340.25 415.75 100 1 0 0
339.75 416.25 0 -1 -0 0
339.75 373 0 -1 -0 0
339.75 373 100 -1 -0 0
339.75 416.25 100 -1 -0 0
393 390.25 0 -0 1 0
526 390.25 0 -0 1 0
526 390.25 100 -0 1 0
393 390.25 100 -0 1 0
393 389.75 0 0 -1 0
526 389.75 0 0 -1 0
526 389.75 100 0 -1 0
393 389.75 100 0 -1 0
468.25 252 0 1 0 0
468.25 216 0 1 0 0
468.25 216 100 1 0 0
468.25 252 100 1 0 0
467.75 252 0 -1 -0 0
467.75 216 0 -1 -0 0
467.75 216 100 -1 -0 0
467.75 252 100 -1 -0 0
304 155.25 0 -0 1 0
393 155.25 0 -0 1 0
393 155.25 100 -0 1 0
304 155.25 100 -0 1 0
304 154.75 0 0 -1 0
393 154.75 0 0 -1 0
393 154.75 100 0 -1 0
304 154.75 100 0 -1 0
526.75 78 0 -1 0 0
526.75 486 0 -1 0 0
526.75 486 100 -1 0 0
526.75 78 100 -1 0 0
527.25 78 0 1 -0 0
527.25 486 0 1 -0 0
527.25 486 100 1 -0 0
527.25 78 100 1 -0 0
301.75 327 0 -1 0 0
301.75 390 0 -1 0 0
301.75 390 100 -1 0 0
301.75 327 100 -1 0 0
302.25 327 0 1 -0 0
302.25 390 0 1 -0 0
302.25 390 100 1 -0 0
302.25 327 100 1 -0 0
301.75 123 0 -1 0 0
301.75 221 0 -1 0 0
301.75 221 100 -1 0 0
301.75 123 100 -1 0 0
302.25 123 0 1 -0 0
302.25 221 0 1 -0 0
302.25 221 100 1 -0 0
302.25 123 100 1 -0 0
436 79.25 0 -0 1 0
476 79.25 0 -0 1 0
476 79.25 100 -0 1 0
436 79.25 100 -0 1 0
436 78.75 0 0 -1 0
476 78.75 0 0 -1 0
476 78.75 100 0 -1 0
436 78.75 100 0 -1 0
392.25 486 0 388.77874755859375 482.699127197265625 0
391.75 486 0 388.77874755859375 482.699127197265625 0
391.75 486 100 388.77874755859375 482.699127197265625 0
392.25 486 100 388.77874755859375 482.699127197265625 0
392.25 373 0 388.77874755859375 368.699127197265625 0
391.75 373 0 388.77874755859375 368.699127197265625 0
391.75 373 100 388.77874755859375 368.699127197265625 0
392.25 373 100 388.77874755859375 368.699127197265625 0
294 274.25 0 289.838714599609375 271.30108642578125 0
294 273.75 0 289.838714599609375 271.30108642578125 0
294 273.75 100 289.838714599609375 271.30108642578125 0
294 274.25 100 289.838714599609375 271.30108642578125 0
387 274.25 0 383.838714599609375 271.30108642578125 0
387 273.75 0 383.838714599609375 271.30108642578125 0
387 273.75 100 383.838714599609375 271.30108642578125 0
387 274.25 100 383.838714599609375 271.30108642578125 0
332 49.25 0 321.84033203125 47.5945396423339844 0
332 48.75 0 321.84033203125 47.5945396423339844 0
332 48.75 100 321.84033203125 47.5945396423339844 0
332 49.25 100 321.84033203125 47.5945396423339844 0
405 49.25 0 390.386566162109375 47.5945396423339844 0
405 48.75 0 390.386566162109375 47.5945396423339844 0
405 48.75 100 390.386566162109375 47.5945396423339844 0
405 49.25 100 390.386566162109375 47.5945396423339844 0
526 253.25 0 519.819091796875 249.79266357421875 0
526 252.75 0 519.819091796875 249.79266357421875 0
526 252.75 100 519.819091796875 249.79266357421875 0
526 253.25 100 519.819091796875 249.79266357421875 0
301.75 74 0 289.79949951171875 72.069305419921875 0
302.25 74 0 289.79949951171875 72.069305419921875 0
302.25 74 100 289.79949951171875 72.069305419921875 0
301.75 74 100 289.79949951171875 72.069305419921875 0
389 416.25 0 382.101531982421875 407.7982177734375 0
389 415.75 0 382.101531982421875 407.7982177734375 0
389 415.75 100 382.101531982421875 407.7982177734375 0
389 416.25 100 382.101531982421875 407.7982177734375 0
340.25 373 0 332.290924072265625 363.27484130859375 0
339.75 373 0 332.290924072265625 363.27484130859375 0
339.75 373 100 332.290924072265625 363.27484130859375 0
340.25 373 100 332.290924072265625 363.27484130859375 0
393 390.25 0 389.04510498046875 387.3157958984375 0
393 389.75 0 389.04510498046875 387.3157958984375 0
393 389.75 100 389.04510498046875 387.3157958984375 0
393 390.25 100 389.04510498046875 387.3157958984375 0
526 390.25 0 523.04510498046875 387.3157958984375 0
526 389.75 0 523.04510498046875 387.3157958984375 0
526 389.75 100 523.04510498046875 387.3157958984375 0
526 390.25 100 523.04510498046875 387.3157958984375 0
468.25 252 0 455.2430419921875 246 0
467.75 252 0 455.2430419921875 246 0
467.75 252 100 455.2430419921875 246 0
468.25 252 100 455.2430419921875 246 0
468.25 216 0 455.2430419921875 209 0
467.75 216 0 455.2430419921875 209 0
467.75 216 100 455.2430419921875 209 0
468.25 216 100 455.2430419921875 209 0
304 155.25 0 299.584259033203125 153.505615234375 0
304 154.75 0 299.584259033203125 153.505615234375 0
304 154.75 100 299.584259033203125 153.505615234375 0
304 155.25 100 299.584259033203125 153.505615234375 0
393 155.25 0 389.584259033203125 153.505615234375 0
393 154.75 0 389.584259033203125 153.505615234375 0
393 154.75 100 389.584259033203125 153.505615234375 0
393 155.25 100 389.584259033203125 153.505615234375 0
526.75 78 0 525.45892333984375 76.8088226318359375 0
527.25 78 0 525.45892333984375 76.8088226318359375 0
527.25 78 100 525.45892333984375 76.8088226318359375 0
526.75 78 100 525.45892333984375 76.8088226318359375 0
526.75 486 0 525.45892333984375 485.808837890625 0
527.25 486 0 525.45892333984375 485.808837890625 0
527.25 486 100 525.45892333984375 485.808837890625 0
526.75 486 100 525.45892333984375 485.808837890625 0
301.75 327 0 296.9603271484375 320.80950927734375 0
302.25 327 0 296.9603271484375 320.80950927734375 0
302.25 327 100 296.9603271484375 320.80950927734375 0
301.75 327 100 296.9603271484375 320.80950927734375 0
301.75 390 0 296.9603271484375 384.80950927734375 0
302.25 390 0 296.9603271484375 384.80950927734375 0
302.25 390 100 296.9603271484375 384.80950927734375 0
301.75 390 100 296.9603271484375 384.80950927734375 0
434.75 216 0 432.142791748046875 215.70465087890625 0
435.25 216 0 432.142791748046875 215.70465087890625 0
435.25 216 100 432.142791748046875 215.70465087890625 0
434.75 216 100 432.142791748046875 215.70465087890625 0
453.25 148 0 448.92303466796875 145.587112426757812 0
452.75 148 0 448.92303466796875 145.587112426757812 0
452.75 148 100 448.92303466796875 145.587112426757812 0
453.25 148 100 448.92303466796875 145.587112426757812 0
301.75 123 0 298.670928955078125 120.744895935058594 0
302.25 123 0 298.670928955078125 120.744895935058594 0
302.25 123 100 298.670928955078125 120.744895935058594 0
301.75 123 100 298.670928955078125 120.744895935058594 0
301.75 221 0 298.670928955078125 219.744903564453125 0
302.25 221 0 298.670928955078125 219.744903564453125 0
302.25 221 100 298.670928955078125 219.744903564453125 0
301.75 221 100 298.670928955078125 219.744903564453125 0
436 79.25 0 424.100006103515625 77.2687530517578125 0
436 78.75 0 424.100006103515625 77.2687530517578125 0
436 78.75 100 424.100006103515625 77.2687530517578125 0
436 79.25 100 424.100006103515625 77.2687530517578125 0
476 79.25 0 465.100006103515625 77.2687530517578125 0
476 78.75 0 465.100006103515625 77.2687530517578125 0
476 78.75 100 465.100006103515625 77.2687530517578125 0
476 79.25 100 465.100006103515625 77.2687530517578125 0
392.25 486 0 0 0 -1
391.75 486 0 0 0 -1
391.75 373 0 0 0 -1
392.25 373 0 0 0 -1
392.25 486 100 0 0 1
391.75 486 100 0 0 1
391.75 373 100 0 0 1
392.25 373 100 0 0 1
294 274.25 0 0 0 -1
294 273.75 0 0 0 -1
387 273.75 0 0 0 -1
387 274.25 0 0 0 -1
294 274.25 100 0 0 1
294 273.75 100 0 0 1
387 273.75 100 0 0 1
387 274.25 100 0 0 1
302.25 49.25 0 0 0 -1
301.75 48.75 0 0 0 -1
332 48.75 0 0 0 -1
332 49.25 0 0 0 -1
302.25 49.25 100 0 0 1
301.75 48.75 100 0 0 1
332 48.75 100 0 0 1
332 49.25 100 0 0 1
301.75 48.75 0 0 0 -1
302.25 49.25 0 0 0 -1
302.25 74 0 0 0 -1
301.75 74 0 0 0 -1
301.75 48.75 100 0 0 1
302.25 49.25 100 0 0 1
302.25 74 100 0 0 1
301.75 74 100 0 0 1
405 49.25 0 0 0 -1
405 48.75 0 0 0 -1
435.25 48.75 0 0 0 -1
434.75 49.25 0 0 0 -1
405 49.25 100 0 0 1
405 48.75 100 0 0 1
435.25 48.75 100 0 0 1
434.75 49.25 100 0 0 1
434.75 49.25 0 0 0 -1
435.25 48.75 0 0 0 -1
435.25 216 0 0 0 -1
434.75 216 0 0 0 -1
434.75 49.25 100 0 0 1
435.25 48.75 100 0 0 1
435.25 216 100 0 0 1
434.75 216 100 0 0 1
452.75 253.25 0 0 0 -1
453.25 252.75 0 0 0 -1
526 252.75 0 0 0 -1
526 253.25 0 0 0 -1
452.75 253.25 100 0 0 1
453.25 252.75 100 0 0 1
526 252.75 100 0 0 1
526 253.25 100 0 0 1
453.25 252.75 0 0 0 -1
452.75 253.25 0 0 0 -1
452.75 148 0 0 0 -1
453.25 148 0 0 0 -1
453.25 252.75 100 0 0 1
452.75 253.25 100 0 0 1
452.75 148 100 0 0 1
453.25 148 100 0 0 1
339.75 416.25 0 0 0 -1
340.25 415.75 0 0 0 -1
389 415.75 0 0 0 -1
389 416.25 0 0 0 -1
339.75 416.25 100 0 0 1
340.25 415.75 100 0 0 1
389 415.75 100 0 0 1
389 416.25 100 0 0 1
340.25 415.75 0 0 0 -1
339.75 416.25 0 0 0 -1
339.75 373 0 0 0 -1
340.25 373 0 0 0 -1
340.25 415.75 100 0 0 1
339.75 416.25 100 0 0 1
339.75 373 100 0 0 1
340.25 373 100 0 0 1
393 390.25 0 0 0 -1
393 389.75 0 0 0 -1
526 389.75 0 0 0 -1
526 390.25 0 0 0 -1
393 390.25 100 0 0 1
393 389.75 100 0 0 1
526 389.75 100 0 0 1
526 390.25 100 0 0 1
468.25 252 0 0 0 -1
467.75 252 0 0 0 -1
467.75 216 0 0 0 -1
468.25 216 0 0 0 -1
468.25 252 100 0 0 1
467.75 252 100 0 0 1
467.75 216 100 0 0 1
468.25 216 100 0 0 1
304 155.25 0 0 0 -1
304 154.75 0 0 0 -1
393 154.75 0 0 0 -1
393 155.25 0 0 0 -1
304 155.25 100 0 0 1
304 154.75 100 0 0 1
393 154.75 100 0 0 1
393 155.25 100 0 0 1
526.75 78 0 0 0 -1
527.25 78 0 0 0 -1
527.25 486 0 0 0 -1
526.75 486 0 0 0 -1
526.75 78 100 0 0 1
527.25 78 100 0 0 1
527.25 486 100 0 0 1
526.75 486 100 0 0 1
301.75 327 0 0 0 -1
302.25 327 0 0 0 -1
302.25 390 0 0 0 -1
301.75 390 0 0 0 -1
301.75 327 100 0 0 1
302.25 327 100 0 0 1
302.25 390 100 0 0 1
301.75 390 100 0 0 1
301.75 123 0 0 0 -1
302.25 123 0 0 0 -1
302.25 221 0 0 0 -1
301.75 221 0 0 0 -1
301.75 123 100 0 0 1
302.25 123 100 0 0 1
302.25 221 100 0 0 1
301.75 221 100 0 0 1
436 79.25 0 0 0 -1
436 78.75 0 0 0 -1
476 78.75 0 0 0 -1
476 79.25 0 0 0 -1
436 79.25 100 0 0 1
436 78.75 100 0 0 1
476 78.75 100 0 0 1
476 79.25 100 0 0 1
4 0 1 2 3
4 4 5 6 7
4 8 9 10 11
4 12 13 14 15
4 16 17 18 19
4 20 21 22 23
4 24 25 26 27
4 28 29 30 31
4 32 33 34 35
4 36 37 38 39
4 40 41 42 43
4 44 45 46 47
4 48 49 50 51
4 52 53 54 55
4 56 57 58 59
4 60 61 62 63
4 64 65 66 67
4 68 69 70 71
4 72 73 74 75
4 76 77 78 79
4 80 81 82 83
4 84 85 86 87
4 88 89 90 91
4 92 93 94 95
4 96 97 98 99
4 100 101 102 103
4 104 105 106 107
4 108 109 110 111
4 112 113 114 115
4 116 117 118 119
4 120 121 122 123
4 124 125 126 127
4 128 129 130 131
4 132 133 134 135
4 136 137 138 139
4 140 141 142 143
4 144 145 146 147
4 148 149 150 151
4 152 153 154 155
4 156 157 158 159
4 160 161 162 163
4 164 165 166 167
4 168 169 170 171
4 172 173 174 175
4 176 177 178 179
4 180 181 182 183
4 184 185 186 187
4 188 189 190 191
4 192 193 194 195
4 196 197 198 199
4 200 201 202 203
4 204 205 206 207
4 208 209 210 211
4 212 213 214 215
4 216 217 218 219
4 220 221 222 223
4 224 225 226 227
4 228 229 230 231
4 232 233 234 235
4 236 237 238 239
4 240 241 242 243
4 244 245 246 247
4 248 249 250 251
4 252 253 254 255
4 256 257 258 259
4 260 261 262 263
4 264 265 266 267
4 268 269 270 271
4 272 273 274 275
4 276 277 278 279
4 280 281 282 283
4 284 285 286 287
4 288 289 290 291
4 292 293 294 295
4 296 297 298 299
4 300 301 302 303
4 304 305 306 307
4 308 309 310 311
4 312 313 314 315
4 316 317 318 319
4 320 321 322 323
4 324 325 326 327
4 328 329 330 331
4 332 333 334 335
4 336 337 338 339
4 340 341 342 343
4 344 345 346 347
4 348 349 350 351
4 352 353 354 355
4 356 357 358 359
4 360 361 362 363
4 364 365 366 367
4 368 369 370 371
4 372 373 374 375
