ply
format ascii 1.0
element vertex 924
property float x
property float y
property float z
property float nx
property float ny
property float nz
element quads 231
property list uchar int vertex_indices
end_header
223 540 0 1 0 0
223 368 0 1 0 0
223 368 150 1 0 0
223 540 150 1 0 0
213 550 0 -1 -0 0
213 368 0 -1 -0 0
213 368 150 -1 -0 0
213 550 150 -1 -0 0
213 550 0 -0 1 0
264 550 0 -0 1 0
264 550 150 -0 1 0
213 550 150 -0 1 0
223 540 0 0 -1 0
264 540 0 0 -1 0
264 540 150 0 -1 0
223 540 150 0 -1 0
222.957611083984375 217 0 1 0 0
222.957611083984375 81 0 1 0 0
222.957611083984375 81 150 1 0 0
222.957611083984375 217 150 1 0 0
212.957611083984375 217 0 -1 -0 0
212.957611083984375 81 0 -1 -0 0
212.957611083984375 81 150 -1 -0 0
212.957611083984375 217 150 -1 -0 0
329 396 0 1 0 0
329 218.071075439453125 0 1 0 0
329 218.071075439453125 150 1 0 0
329 396 150 1 0 0
319 396 0 -1 -0 0
319 213.928924560546875 0 -1 -0 0
319 213.928924560546875 150 -1 -0 0
319 396 150 -1 -0 0
329 218.071075439453125 0 0.70710676908493042 0.70710676908493042 0
361.01165771484375 186.059417724609375 0 0.70710676908493042 0.70710676908493042 0
361.01165771484375 186.059417724609375 150 0.70710676908493042 0.70710676908493042 0
329 218.071075439453125 150 0.70710676908493042 0.70710676908493042 0
319 213.928924560546875 0 -0.70710676908493042 -0.70710676908493042 0
346.98834228515625 185.940582275390625 0 -0.70710676908493042 -0.70710676908493042 0
346.98834228515625 185.940582275390625 150 -0.70710676908493042 -0.70710676908493042 0
319 213.928924560546875 150 -0.70710676908493042 -0.70710676908493042 0
554 189 0 1 0 0
554 101 0 1 0 0
554 101 150 1 0 0
554 189 150 1 0 0
544 189 0 -1 -0 0
544 101 0 -1 -0 0
544 101 150 -1 -0 0
544 189 150 -1 -0 0
399 550 0 1 0 0
399 379 0 1 0 0
399 379 150 1 0 0
399 550 150 1 0 0
389 540 0 -1 -0 0
389 369 0 -1 -0 0
389 369 150 -1 -0 0
389 540 150 -1 -0 0
389 540 0 -0 -1 0
349 540 0 -0 -1 0
349 540 150 -0 -1 0
389 540 150 -0 -1 0
399 550 0 0 1 0
349 550 0 0 1 0
349 550 150 0 1 0
399 550 150 0 1 0
399 379 0 -0 1 0
553.997314453125 379 0 -0 1 0
553.997314453125 379 150 -0 1 0
399 379 150 -0 1 0
389 369 0 0 -1 0
544.002685546875 369 0 0 -1 0
544.002685546875 369 150 0 -1 0
389 369 150 0 -1 0
554 307 0 1 0 0
554 229 0 1 0 0
554 229 150 1 0 0
554 307 150 1 0 0
544 307 0 -1 -0 0
544 229 0 -1 -0 0
544 229 150 -1 -0 0
544 307 150 -1 -0 0
242 104 0 1 0 0
242 9 0 1 0 0
242 9 150 1 0 0
242 104 150 1 0 0
232 104 0 -1 -0 0
232 -1 0 -1 -0 0
232 -1 150 -1 -0 0
232 104 150 -1 -0 0
242 9 0 -0 1 0
250 9 0 -0 1 0
250 9 150 -0 1 0
242 9 150 -0 1 0
232 -1 0 0 -1 0
250 -1 0 0 -1 0
250 -1 150 0 -1 0
232 -1 150 0 -1 0
547 149 0 -0 -1 0
412 149 0 -0 -1 0
412 149 150 -0 -1 0
547 149 150 -0 -1 0
547 159 0 0 1 0
422 159 0 0 1 0
422 159 150 0 1 0
547 159 150 0 1 0
412 149 0 -1 0 0
412 247.810195922851562 0 -1 0 0
412 247.810195922851562 150 -1 0 0
412 149 150 -1 0 0
422 159 0 1 -0 0
422 224.189804077148438 0 1 -0 0
422 224.189804077148438 150 1 -0 0
422 159 150 1 -0 0
453 517 0 1 0 0
453 375 0 1 0 0
453 375 150 1 0 0
453 517 150 1 0 0
443 517 0 -1 -0 0
443 375 0 -1 -0 0
443 375 150 -1 -0 0
443 517 150 -1 -0 0
422 371 0 1 0 0
422 302.189971923828125 0 1 0 0
422 302.189971923828125 150 1 0 0
422 371 150 1 0 0
412 371 0 -1 -0 0
412 277.810028076171875 0 -1 -0 0
412 277.810028076171875 150 -1 -0 0
412 371 150 -1 -0 0
422 302.189971923828125 0 -0.711974501609802246 0.702205359935760498 0
436.777801513671875 317.173370361328125 0 -0.711974501609802246 0.702205359935760498 0
436.777801513671875 317.173370361328125 150 -0.711974501609802246 0.702205359935760498 0
422 302.189971923828125 150 -0.711974501609802246 0.702205359935760498 0
412 277.810028076171875 0 0.711974501609802246 -0.702205359935760498 0
443.89752197265625 310.15130615234375 0 0.711974501609802246 -0.702205359935760498 0
443.89752197265625 310.15130615234375 150 0.711974501609802246 -0.702205359935760498 0
412 277.810028076171875 150 0.711974501609802246 -0.702205359935760498 0
412 247.810195922851562 0 0.69601285457611084 0.718029320240020752 0
443.838165283203125 216.948257446289062 0 0.69601285457611084 0.718029320240020752 0
443.838165283203125 216.948257446289062 150 0.69601285457611084 0.718029320240020752 0
412 247.810195922851562 150 0.69601285457611084 0.718029320240020752 0
422 224.189804077148438 0 -0.69601285457611084 -0.718029320240020752 0
436.8780517578125 209.767959594726562 0 -0.69601285457611084 -0.718029320240020752 0
436.8780517578125 209.767959594726562 150 -0.69601285457611084 -0.718029320240020752 0
422 224.189804077148438 150 -0.69601285457611084 -0.718029320240020752 0
549 95.8973236083984375 0 -0 -1 0
513 95.8973236083984375 0 -0 -1 0
513 95.8973236083984375 150 -0 -1 0
549 95.8973236083984375 150 -0 -1 0
549 105.897323608398438 0 0 1 0
513 105.897323608398438 0 0 1 0
513 105.897323608398438 150 0 1 0
549 105.897323608398438 150 0 1 0
491 95 0 -0 -1 0
412 95 0 -0 -1 0
412 95 150 -0 -1 0
491 95 150 -0 -1 0
481 105 0 0 1 0
422 105 0 0 1 0
422 105 150 0 1 0
481 105 150 0 1 0
481 105 0 -1 0 0
481 125 0 -1 0 0
481 125 150 -1 0 0
481 105 150 -1 0 0
491 95 0 1 -0 0
491 125 0 1 -0 0
491 125 150 1 -0 0
491 95 150 1 -0 0
412 95 0 -1 0 0
412 125 0 -1 0 0
412 125 150 -1 0 0
412 95 150 -1 0 0
422 105 0 1 -0 0
422 125 0 1 -0 0
422 125 150 1 -0 0
422 105 150 1 -0 0
222.995834350585938 328 0 1 0 0
222.995834350585938 247 0 1 0 0
222.995834350585938 247 150 1 0 0
222.995834350585938 328 150 1 0 0
212.995834350585938 328 0 -1 -0 0
212.995834350585938 247 0 -1 -0 0
212.995834350585938 247 150 -1 -0 0
212.995834350585938 328 150 -1 -0 0
547 258 0 -0 -1 0
440 258 0 -0 -1 0
440 258 150 -0 -1 0
547 258 150 -0 -1 0
547 268 0 0 1 0
440 268 0 0 1 0
440 268 150 0 1 0
547 268 150 0 1 0
477 98 0 1 0 0
477 37 0 1 0 0
477 37 150 1 0 0
477 98 150 1 0 0
467 98 0 -1 -0 0
467 47 0 -1 -0 0
467 47 150 -1 -0 0
467 98 150 -1 -0 0
477 37 0 -0 -1 0
433 37 0 -0 -1 0
433 37 150 -0 -1 0
477 37 150 -0 -1 0
467 47 0 0 1 0
433 47 0 0 1 0
433 47 150 0 1 0
467 47 150 0 1 0
367 -1.5 0 -0 -1 0
334 -1.5 0 -0 -1 0
334 -1.5 150 -0 -1 0
367 -1.5 150 -0 -1 0
367 8.5 0 0 1 0
334 8.5 0 0 1 0
334 8.5 150 0 1 0
367 8.5 150 0 1 0
325 151.094833374023438 0 -0 -1 0
220 151.094833374023438 0 -0 -1 0
220 151.094833374023438 150 -0 -1 0
325 151.094833374023438 150 -0 -1 0
325 161.094833374023438 0 0 1 0
220 161.094833374023438 0 0 1 0
220 161.094833374023438 150 0 1 0
325 161.094833374023438 150 0 1 0
256 392.5 0 -0 -1 0
220 392.5 0 -0 -1 0
220 392.5 150 -0 -1 0
256 392.5 150 -0 -1 0
256 402.5 0 0 1 0
220 402.5 0 0 1 0
220 402.5 150 0 1 0
256 402.5 150 0 1 0
392 37 0 -0 -1 0
368 37 0 -0 -1 0
368 37 150 -0 -1 0
392 37 150 -0 -1 0
392 47 0 0 1 0
368 47 0 0 1 0
368 47 150 0 1 0
392 47 150 0 1 0
256 244 0 1 0 0
256 212 0 1 0 0
256 212 150 1 0 0
256 244 150 1 0 0
246 244 0 -1 -0 0
246 222 0 -1 -0 0
246 222 150 -1 -0 0
246 244 150 -1 -0 0
256 212 0 -0 -1 0
218 212 0 -0 -1 0
218 212 150 -0 -1 0
256 212 150 -0 -1 0
246 222 0 0 1 0
218 222 0 0 1 0
218 222 150 0 1 0
246 222 150 0 1 0
333 392 0 -0 -1 0
313 392 0 -0 -1 0
313 392 150 -0 -1 0
333 392 150 -0 -1 0
333 402 0 0 1 0
303 402 0 0 1 0
303 402 150 0 1 0
333 402 150 0 1 0
313 392 0 1 0 0
313 383 0 1 0 0
313 383 150 1 0 0
313 392 150 1 0 0
303 402 0 -1 -0 0
303 373 0 -1 -0 0
303 373 150 -1 -0 0
303 402 150 -1 -0 0
251 268 0 -0 -1 0
220 268 0 -0 -1 0
220 268 150 -0 -1 0
251 268 150 -0 -1 0
251 278 0 0 1 0
220 278 0 0 1 0
220 278 150 0 1 0
251 278 150 0 1 0
313 383 0 -0 1 0
322 383 0 -0 1 0
322 383 150 -0 1 0
313 383 150 -0 1 0
303 373 0 0 -1 0
322 373 0 0 -1 0
322 373 150 0 -1 0
303 373 150 0 -1 0
361.01165771484375 186.059417724609375 0 0.718988358974456787 -0.695022106170654297 0
328.594940185546875 152.524887084960938 0 0.718988358974456787 -0.695022106170654297 0
328.594940185546875 152.524887084960938 150 0.718988358974456787 -0.695022106170654297 0
361.01165771484375 186.059417724609375 150 0.718988358974456787 -0.695022106170654297 0
346.98834228515625 185.940582275390625 0 -0.718988358974456787 0.695022106170654297 0
321.405059814453125 159.475112915039062 0 -0.718988358974456787 0.695022106170654297 0
321.405059814453125 159.475112915039062 150 -0.718988358974456787 0.695022106170654297 0
346.98834228515625 185.940582275390625 150 -0.718988358974456787 0.695022106170654297 0
323 236 0 -0 -1 0
282 236 0 -0 -1 0
282 236 150 -0 -1 0
323 236 150 -0 -1 0
323 246 0 0 1 0
282 246 0 0 1 0
282 246 150 0 1 0
323 246 150 0 1 0
270 -1 0 -0 -1 0
250 -1 0 -0 -1 0
250 -1 150 -0 -1 0
270 -1 150 -0 -1 0
270 9 0 0 1 0
250 9 0 0 1 0
250 9 150 0 1 0
270 9 150 0 1 0
385.544219970703125 128.450424194335938 0 0.706570863723754883 -0.707642257213592529 0
372 114.926712036132812 0 0.706570863723754883 -0.707642257213592529 0
372 114.926712036132812 150 0.706570863723754883 -0.707642257213592529 0
385.544219970703125 128.450424194335938 150 0.706570863723754883 -0.707642257213592529 0
378.478515625 135.526840209960938 0 -0.706570863723754883 0.707642257213592529 0
362 119.073287963867188 0 -0.706570863723754883 0.707642257213592529 0
362 119.073287963867188 150 -0.706570863723754883 0.707642257213592529 0
378.478515625 135.526840209960938 150 -0.706570863723754883 0.707642257213592529 0
372 114.926712036132812 0 1 0 0
372 103.149223327636719 0 1 0 0
372 103.149223327636719 150 1 0 0
372 114.926712036132812 150 1 0 0
362 119.073287963867188 0 -1 -0 0
362 98 0 -1 -0 0
362 98 150 -1 -0 0
362 119.073287963867188 150 -1 -0 0
322 268 0 -0 -1 0
311 268 0 -0 -1 0
311 268 150 -0 -1 0
322 268 150 -0 -1 0
322 278 0 0 1 0
311 278 0 0 1 0
311 278 150 0 1 0
322 278 150 0 1 0
553.997314453125 379 0 0.999999880790710449 0.000536768580786883831 0
554.01446533203125 347.002685546875 0 0.999999880790710449 0.000536768580786883831 0
554.01446533203125 347.002685546875 150 0.999999880790710449 0.000536768580786883831 0
553.997314453125 379 150 0.999999880790710449 0.000536768580786883831 0
544.002685546875 369 0 -0.999999880790710449 -0.000536768580786883831 0
544.01446533203125 346.997314453125 0 -0.999999880790710449 -0.000536768580786883831 0
544.01446533203125 346.997314453125 150 -0.999999880790710449 -0.000536768580786883831 0
544.002685546875 369 150 -0.999999880790710449 -0.000536768580786883831 0
372 93.1448974609375 0 1 0 0
372 4 0 1 0 0
372 4 150 1 0 0
372 93.1448974609375 150 1 0 0
362 98 0 -1 -0 0
362 4 0 -1 -0 0
362 4 150 -1 -0 0
362 98 150 -1 -0 0
372 103.149223327636719 0 -0.0293990522623062134 0.999567747116088867 0
383.852996826171875 103.497840881347656 0 -0.0293990522623062134 0.999567747116088867 0
383.852996826171875 103.497840881347656 150 -0.0293990522623062134 0.999567747116088867 0
372 103.149223327636719 150 -0.0293990522623062134 0.999567747116088867 0
372 93.1448974609375 0 0.0293990522623062134 -0.999567747116088867 0
384.147003173828125 93.5021591186523438 0 0.0293990522623062134 -0.999567747116088867 0
384.147003173828125 93.5021591186523438 150 0.0293990522623062134 -0.999567747116088867 0
372 93.1448974609375 150 0.0293990522623062134 -0.999567747116088867 0
223 368 0 221.7034912109375 364.8604736328125 0
213 368 0 221.7034912109375 364.8604736328125 0
213 368 150 221.7034912109375 364.8604736328125 0
223 368 150 221.7034912109375 364.8604736328125 0
222.957611083984375 217 0 221.318206787109375 216.4044189453125 0
212.957611083984375 217 0 221.318206787109375 216.4044189453125 0
212.957611083984375 217 150 221.318206787109375 216.4044189453125 0
222.957611083984375 217 150 221.318206787109375 216.4044189453125 0
222.957611083984375 81 0 221.318206787109375 79.4044113159179688 0
212.957611083984375 81 0 221.318206787109375 79.4044113159179688 0
212.957611083984375 81 150 221.318206787109375 79.4044113159179688 0
222.957611083984375 81 150 221.318206787109375 79.4044113159179688 0
329 396 0 327.15093994140625 394.774383544921875 0
319 396 0 327.15093994140625 394.774383544921875 0
319 396 150 327.15093994140625 394.774383544921875 0
329 396 150 327.15093994140625 394.774383544921875 0
554 189 0 547.70452880859375 187.852279663085938 0
544 189 0 547.70452880859375 187.852279663085938 0
544 189 150 547.70452880859375 187.852279663085938 0
554 189 150 547.70452880859375 187.852279663085938 0
554 101 0 547.70452880859375 98.8522720336914062 0
544 101 0 547.70452880859375 98.8522720336914062 0
544 101 150 547.70452880859375 98.8522720336914062 0
554 101 150 547.70452880859375 98.8522720336914062 0
554 307 0 546.8974609375 304.064117431640625 0
544 307 0 546.8974609375 304.064117431640625 0
544 307 150 546.8974609375 304.064117431640625 0
554 307 150 546.8974609375 304.064117431640625 0
554 229 0 546.8974609375 225.064102172851562 0
544 229 0 546.8974609375 225.064102172851562 0
544 229 150 546.8974609375 225.064102172851562 0
554 229 150 546.8974609375 225.064102172851562 0
242 104 0 239.45263671875 103.905265808105469 0
232 104 0 239.45263671875 103.905265808105469 0
232 104 150 239.45263671875 103.905265808105469 0
242 104 150 239.45263671875 103.905265808105469 0
547 149 0 543.9481201171875 147.89630126953125 0
547 159 0 543.9481201171875 147.89630126953125 0
547 159 150 543.9481201171875 147.89630126953125 0
547 149 150 543.9481201171875 147.89630126953125 0
453 517 0 449.809844970703125 514.359130859375 0
443 517 0 449.809844970703125 514.359130859375 0
443 517 150 449.809844970703125 514.359130859375 0
453 517 150 449.809844970703125 514.359130859375 0
453 375 0 449.809844970703125 371.359161376953125 0
443 375 0 449.809844970703125 371.359161376953125 0
443 375 150 449.809844970703125 371.359161376953125 0
453 375 150 449.809844970703125 371.359161376953125 0
422 371 0 415.867156982421875 366.60833740234375 0
412 371 0 415.867156982421875 366.60833740234375 0
412 371 150 415.867156982421875 366.60833740234375 0
422 371 150 415.867156982421875 366.60833740234375 0
549 95.8973236083984375 0 534.75 93.2335052490234375 0
549 105.897323608398438 0 534.75 93.2335052490234375 0
549 105.897323608398438 150 534.75 93.2335052490234375 0
549 95.8973236083984375 150 534.75 93.2335052490234375 0
513 95.8973236083984375 0 497.75 93.2335052490234375 0
513 105.897323608398438 0 497.75 93.2335052490234375 0
513 105.897323608398438 150 497.75 93.2335052490234375 0
513 95.8973236083984375 150 497.75 93.2335052490234375 0
222.995834350585938 328 0 220.2427978515625 324.95062255859375 0
212.995834350585938 328 0 220.2427978515625 324.95062255859375 0
212.995834350585938 328 150 220.2427978515625 324.95062255859375 0
222.995834350585938 328 150 220.2427978515625 324.95062255859375 0
222.995834350585938 247 0 220.2427978515625 242.95062255859375 0
212.995834350585938 247 0 220.2427978515625 242.95062255859375 0
212.995834350585938 247 150 220.2427978515625 242.95062255859375 0
222.995834350585938 247 150 220.2427978515625 242.95062255859375 0
547 258 0 542.88787841796875 255.588790893554688 0
547 268 0 542.88787841796875 255.588790893554688 0
547 268 150 542.88787841796875 255.588790893554688 0
547 258 150 542.88787841796875 255.588790893554688 0
440 258 0 434.887847900390625 255.588790893554688 0
440 268 0 434.887847900390625 255.588790893554688 0
440 268 150 434.887847900390625 255.588790893554688 0
440 258 150 434.887847900390625 255.588790893554688 0
477 98 0 469.180328369140625 97.3934402465820312 0
467 98 0 469.180328369140625 97.3934402465820312 0
467 98 150 469.180328369140625 97.3934402465820312 0
477 98 150 469.180328369140625 97.3934402465820312 0
367 -1.5 0 356.8787841796875 -1.45454549789428711 0
367 8.5 0 356.8787841796875 -1.45454549789428711 0
367 8.5 150 356.8787841796875 -1.45454549789428711 0
367 -1.5 150 356.8787841796875 -1.45454549789428711 0
334 -1.5 0 322.8787841796875 -1.45454549789428711 0
334 8.5 0 322.8787841796875 -1.45454549789428711 0
334 8.5 150 322.8787841796875 -1.45454549789428711 0
334 -1.5 150 322.8787841796875 -1.45454549789428711 0
264 550 0 259.823516845703125 539.2156982421875 0
264 540 0 259.823516845703125 539.2156982421875 0
264 540 150 259.823516845703125 539.2156982421875 0
264 550 150 259.823516845703125 539.2156982421875 0
325 151.094833374023438 0 322.904754638671875 149.65582275390625 0
325 161.094833374023438 0 322.904754638671875 149.65582275390625 0
325 161.094833374023438 150 322.904754638671875 149.65582275390625 0
325 151.094833374023438 150 322.904754638671875 149.65582275390625 0
220 151.094833374023438 0 216.904754638671875 149.65582275390625 0
220 161.094833374023438 0 216.904754638671875 149.65582275390625 0
220 161.094833374023438 150 216.904754638671875 149.65582275390625 0
220 151.094833374023438 150 216.904754638671875 149.65582275390625 0
349 540 0 339.274993896484375 526.5 0
349 550 0 339.274993896484375 526.5 0
349 550 150 339.274993896484375 526.5 0
349 540 150 339.274993896484375 526.5 0
256 392.5 0 249.888885498046875 381.59722900390625 0
256 402.5 0 249.888885498046875 381.59722900390625 0
256 402.5 150 249.888885498046875 381.59722900390625 0
256 392.5 150 249.888885498046875 381.59722900390625 0
220 392.5 0 212.888885498046875 381.59722900390625 0
220 402.5 0 212.888885498046875 381.59722900390625 0
220 402.5 150 212.888885498046875 381.59722900390625 0
220 392.5 150 212.888885498046875 381.59722900390625 0
392 37 0 376.666656494140625 35.4583320617675781 0
392 47 0 376.666656494140625 35.4583320617675781 0
392 47 150 376.666656494140625 35.4583320617675781 0
392 37 150 376.666656494140625 35.4583320617675781 0
368 37 0 351.666656494140625 35.4583320617675781 0
368 47 0 351.666656494140625 35.4583320617675781 0
368 47 150 351.666656494140625 35.4583320617675781 0
368 37 150 351.666656494140625 35.4583320617675781 0
433 37 0 422.159088134765625 36.1590919494628906 0
433 47 0 422.159088134765625 36.1590919494628906 0
433 47 150 422.159088134765625 36.1590919494628906 0
433 37 150 422.159088134765625 36.1590919494628906 0
256 244 0 248 237.375 0
246 244 0 248 237.375 0
246 244 150 248 237.375 0
256 244 150 248 237.375 0
333 392 0 317.350006103515625 372.399993896484375 0
333 402 0 317.350006103515625 372.399993896484375 0
333 402 150 317.350006103515625 372.399993896484375 0
333 392 150 317.350006103515625 372.399993896484375 0
251 268 0 243.903228759765625 259.354827880859375 0
251 278 0 243.903228759765625 259.354827880859375 0
251 278 150 243.903228759765625 259.354827880859375 0
251 268 150 243.903228759765625 259.354827880859375 0
220 268 0 211.903228759765625 259.354827880859375 0
220 278 0 211.903228759765625 259.354827880859375 0
220 278 150 211.903228759765625 259.354827880859375 0
220 268 150 211.903228759765625 259.354827880859375 0
443.838165283203125 216.948257446289062 0 434.54656982421875 211.359527587890625 0
436.8780517578125 209.767959594726562 0 434.54656982421875 211.359527587890625 0
436.8780517578125 209.767959594726562 150 434.54656982421875 211.359527587890625 0
443.838165283203125 216.948257446289062 150 434.54656982421875 211.359527587890625 0
323 236 0 316.1219482421875 230.243896484375 0
323 246 0 316.1219482421875 230.243896484375 0
323 246 150 316.1219482421875 230.243896484375 0
323 236 150 316.1219482421875 230.243896484375 0
282 236 0 274.1219482421875 230.243896484375 0
282 246 0 274.1219482421875 230.243896484375 0
282 246 150 274.1219482421875 230.243896484375 0
282 236 150 274.1219482421875 230.243896484375 0
412 125 0 398.26666259765625 121.833335876464844 0
422 125 0 398.26666259765625 121.833335876464844 0
422 125 150 398.26666259765625 121.833335876464844 0
412 125 150 398.26666259765625 121.833335876464844 0
270 -1 0 257.5 -0.949999988079071045 0
270 9 0 257.5 -0.949999988079071045 0
270 9 150 257.5 -0.949999988079071045 0
270 -1 150 257.5 -0.949999988079071045 0
328.594940185546875 152.524887084960938 0 320.854766845703125 148.535736083984375 0
321.405059814453125 159.475112915039062 0 320.854766845703125 148.535736083984375 0
321.405059814453125 159.475112915039062 150 320.854766845703125 148.535736083984375 0
328.594940185546875 152.524887084960938 150 320.854766845703125 148.535736083984375 0
481 125 0 456.95001220703125 119.75 0
491 125 0 456.95001220703125 119.75 0
491 125 150 456.95001220703125 119.75 0
481 125 150 456.95001220703125 119.75 0
218 212 0 211.263153076171875 206.421051025390625 0
218 222 0 211.263153076171875 206.421051025390625 0
218 222 150 211.263153076171875 206.421051025390625 0
218 212 150 211.263153076171875 206.421051025390625 0
436.777801513671875 317.173370361328125 0 416.725341796875 302.81402587890625 0
443.89752197265625 310.15130615234375 0 416.725341796875 302.81402587890625 0
443.89752197265625 310.15130615234375 150 416.725341796875 302.81402587890625 0
436.777801513671875 317.173370361328125 150 416.725341796875 302.81402587890625 0
385.544219970703125 128.450424194335938 0 366.1083984375 122.445869445800781 0
378.478515625 135.526840209960938 0 366.1083984375 122.445869445800781 0
378.478515625 135.526840209960938 150 366.1083984375 122.445869445800781 0
385.544219970703125 128.450424194335938 150 366.1083984375 122.445869445800781 0
322 383 0 287.22222900390625 340.4444580078125 0
322 373 0 287.22222900390625 340.4444580078125 0
322 373 150 287.22222900390625 340.4444580078125 0
322 383 150 287.22222900390625 340.4444580078125 0
322 268 0 293.727264404296875 243.636367797851562 0
322 278 0 293.727264404296875 243.636367797851562 0
322 278 150 293.727264404296875 243.636367797851562 0
322 268 150 293.727264404296875 243.636367797851562 0
311 268 0 281.727264404296875 243.636367797851562 0
311 278 0 281.727264404296875 243.636367797851562 0
311 278 150 281.727264404296875 243.636367797851562 0
311 268 150 281.727264404296875 243.636367797851562 0
554.01446533203125 347.002685546875 0 536.70062255859375 335.157928466796875 0
544.01446533203125 346.997314453125 0 536.70062255859375 335.157928466796875 0
544.01446533203125 346.997314453125 150 536.70062255859375 335.157928466796875 0
554.01446533203125 347.002685546875 150 536.70062255859375 335.157928466796875 0
372 4 0 367.8270263671875 2.95512914657592773 0
362 4 0 367.8270263671875 2.95512914657592773 0
362 4 150 367.8270263671875 2.95512914657592773 0
372 4 150 367.8270263671875 2.95512914657592773 0
383.852996826171875 103.497840881347656 0 352.48211669921875 94.7992324829101562 0
384.147003173828125 93.5021591186523438 0 352.48211669921875 94.7992324829101562 0
384.147003173828125 93.5021591186523438 150 352.48211669921875 94.7992324829101562 0
383.852996826171875 103.497840881347656 150 352.48211669921875 94.7992324829101562 0
223 540 0 0 0 -1
213 550 0 0 0 -1
213 368 0 0 0 -1
223 368 0 0 0 -1
223 540 150 0 0 1
213 550 150 0 0 1
213 368 150 0 0 1
223 368 150 0 0 1
213 550 0 0 0 -1
223 540 0 0 0 -1
264 540 0 0 0 -1
264 550 0 0 0 -1
213 550 150 0 0 1
223 540 150 0 0 1
264 540 150 0 0 1
264 550 150 0 0 1
222.957611083984375 217 0 0 0 -1
212.957611083984375 217 0 0 0 -1
212.957611083984375 81 0 0 0 -1
222.957611083984375 81 0 0 0 -1
222.957611083984375 217 150 0 0 1
212.957611083984375 217 150 0 0 1
212.957611083984375 81 150 0 0 1
222.957611083984375 81 150 0 0 1
329 396 0 0 0 -1
319 396 0 0 0 -1
319 213.928924560546875 0 0 0 -1
329 218.071075439453125 0 0 0 -1
329 396 150 0 0 1
319 396 150 0 0 1
319 213.928924560546875 150 0 0 1
329 218.071075439453125 150 0 0 1
329 218.071075439453125 0 0 0 -1
319 213.928924560546875 0 0 0 -1
346.98834228515625 185.940582275390625 0 0 0 -1
361.01165771484375 186.059417724609375 0 0 0 -1
329 218.071075439453125 150 0 0 1
319 213.928924560546875 150 0 0 1
346.98834228515625 185.940582275390625 150 0 0 1
361.01165771484375 186.059417724609375 150 0 0 1
554 189 0 0 0 -1
544 189 0 0 0 -1
544 101 0 0 0 -1
554 101 0 0 0 -1
554 189 150 0 0 1
544 189 150 0 0 1
544 101 150 0 0 1
554 101 150 0 0 1
399 550 0 0 0 -1
389 540 0 0 0 -1
389 369 0 0 0 -1
399 379 0 0 0 -1
399 550 150 0 0 1
389 540 150 0 0 1
389 369 150 0 0 1
399 379 150 0 0 1
389 540 0 0 0 -1
399 550 0 0 0 -1
349 550 0 0 0 -1
349 540 0 0 0 -1
389 540 150 0 0 1
399 550 150 0 0 1
349 550 150 0 0 1
349 540 150 0 0 1
399 379 0 0 0 -1
389 369 0 0 0 -1
544.002685546875 369 0 0 0 -1
553.997314453125 379 0 0 0 -1
399 379 150 0 0 1
389 369 150 0 0 1
544.002685546875 369 150 0 0 1
553.997314453125 379 150 0 0 1
554 307 0 0 0 -1
544 307 0 0 0 -1
544 229 0 0 0 -1
554 229 0 0 0 -1
554 307 150 0 0 1
544 307 150 0 0 1
544 229 150 0 0 1
554 229 150 0 0 1
242 104 0 0 0 -1
232 104 0 0 0 -1
232 -1 0 0 0 -1
242 9 0 0 0 -1
242 104 150 0 0 1
232 104 150 0 0 1
232 -1 150 0 0 1
242 9 150 0 0 1
242 9 0 0 0 -1
232 -1 0 0 0 -1
250 -1 0 0 0 -1
250 9 0 0 0 -1
242 9 150 0 0 1
232 -1 150 0 0 1
250 -1 150 0 0 1
250 9 150 0 0 1
547 149 0 0 0 -1
547 159 0 0 0 -1
422 159 0 0 0 -1
412 149 0 0 0 -1
547 149 150 0 0 1
547 159 150 0 0 1
422 159 150 0 0 1
412 149 150 0 0 1
412 149 0 0 0 -1
422 159 0 0 0 -1
422 224.189804077148438 0 0 0 -1
412 247.810195922851562 0 0 0 -1
412 149 150 0 0 1
422 159 150 0 0 1
422 224.189804077148438 150 0 0 1
412 247.810195922851562 150 0 0 1
453 517 0 0 0 -1
443 517 0 0 0 -1
443 375 0 0 0 -1
453 375 0 0 0 -1
453 517 150 0 0 1
443 517 150 0 0 1
443 375 150 0 0 1
453 375 150 0 0 1
422 371 0 0 0 -1
412 371 0 0 0 -1
412 277.810028076171875 0 0 0 -1
422 302.189971923828125 0 0 0 -1
422 371 150 0 0 1
412 371 150 0 0 1
412 277.810028076171875 150 0 0 1
422 302.189971923828125 150 0 0 1
422 302.189971923828125 0 0 0 -1
412 277.810028076171875 0 0 0 -1
443.89752197265625 310.15130615234375 0 0 0 -1
436.777801513671875 317.173370361328125 0 0 0 -1
422 302.189971923828125 150 0 0 1
412 277.810028076171875 150 0 0 1
443.89752197265625 310.15130615234375 150 0 0 1
436.777801513671875 317.173370361328125 150 0 0 1
412 247.810195922851562 0 0 0 -1
422 224.189804077148438 0 0 0 -1
436.8780517578125 209.767959594726562 0 0 0 -1
443.838165283203125 216.948257446289062 0 0 0 -1
412 247.810195922851562 150 0 0 1
422 224.189804077148438 150 0 0 1
436.8780517578125 209.767959594726562 150 0 0 1
443.838165283203125 216.948257446289062 150 0 0 1
549 95.8973236083984375 0 0 0 -1
549 105.897323608398438 0 0 0 -1
513 105.897323608398438 0 0 0 -1
513 95.8973236083984375 0 0 0 -1
549 95.8973236083984375 150 0 0 1
549 105.897323608398438 150 0 0 1
513 105.897323608398438 150 0 0 1
513 95.8973236083984375 150 0 0 1
491 95 0 0 0 -1
481 105 0 0 0 -1
422 105 0 0 0 -1
412 95 0 0 0 -1
491 95 150 0 0 1
481 105 150 0 0 1
422 105 150 0 0 1
412 95 150 0 0 1
481 105 0 0 0 -1
491 95 0 0 0 -1
491 125 0 0 0 -1
481 125 0 0 0 -1
481 105 150 0 0 1
491 95 150 0 0 1
491 125 150 0 0 1
481 125 150 0 0 1
412 95 0 0 0 -1
422 105 0 0 0 -1
422 125 0 0 0 -1
412 125 0 0 0 -1
412 95 150 0 0 1
422 105 150 0 0 1
422 125 150 0 0 1
412 125 150 0 0 1
222.995834350585938 328 0 0 0 -1
212.995834350585938 328 0 0 0 -1
212.995834350585938 247 0 0 0 -1
222.995834350585938 247 0 0 0 -1
222.995834350585938 328 150 0 0 1
212.995834350585938 328 150 0 0 1
212.995834350585938 247 150 0 0 1
222.995834350585938 247 150 0 0 1
547 258 0 0 0 -1
547 268 0 0 0 -1
440 268 0 0 0 -1
440 258 0 0 0 -1
547 258 150 0 0 1
547 268 150 0 0 1
440 268 150 0 0 1
440 258 150 0 0 1
477 98 0 0 0 -1
467 98 0 0 0 -1
467 47 0 0 0 -1
477 37 0 0 0 -1
477 98 150 0 0 1
467 98 150 0 0 1
467 47 150 0 0 1
477 37 150 0 0 1
477 37 0 0 0 -1
467 47 0 0 0 -1
433 47 0 0 0 -1
433 37 0 0 0 -1
477 37 150 0 0 1
467 47 150 0 0 1
433 47 150 0 0 1
433 37 150 0 0 1
367 -1.5 0 0 0 -1
367 8.5 0 0 0 -1
334 8.5 0 0 0 -1
334 -1.5 0 0 0 -1
367 -1.5 150 0 0 1
367 8.5 150 0 0 1
334 8.5 150 0 0 1
334 -1.5 150 0 0 1
325 151.094833374023438 0 0 0 -1
325 161.094833374023438 0 0 0 -1
220 161.094833374023438 0 0 0 -1
220 151.094833374023438 0 0 0 -1
325 151.094833374023438 150 0 0 1
325 161.094833374023438 150 0 0 1
220 161.094833374023438 150 0 0 1
220 151.094833374023438 150 0 0 1
256 392.5 0 0 0 -1
256 402.5 0 0 0 -1
220 402.5 0 0 0 -1
220 392.5 0 0 0 -1
256 392.5 150 0 0 1
256 402.5 150 0 0 1
220 402.5 150 0 0 1
220 392.5 150 0 0 1
392 37 0 0 0 -1
392 47 0 0 0 -1
368 47 0 0 0 -1
368 37 0 0 0 -1
392 37 150 0 0 1
392 47 150 0 0 1
368 47 150 0 0 1
368 37 150 0 0 1
256 244 0 0 0 -1
246 244 0 0 0 -1
246 222 0 0 0 -1
256 212 0 0 0 -1
256 244 150 0 0 1
246 244 150 0 0 1
246 222 150 0 0 1
256 212 150 0 0 1
256 212 0 0 0 -1
246 222 0 0 0 -1
218 222 0 0 0 -1
218 212 0 0 0 -1
256 212 150 0 0 1
246 222 150 0 0 1
218 222 150 0 0 1
218 212 150 0 0 1
333 392 0 0 0 -1
333 402 0 0 0 -1
303 402 0 0 0 -1
313 392 0 0 0 -1
333 392 150 0 0 1
333 402 150 0 0 1
303 402 150 0 0 1
313 392 150 0 0 1
313 392 0 0 0 -1
303 402 0 0 0 -1
303 373 0 0 0 -1
313 383 0 0 0 -1
313 392 150 0 0 1
303 402 150 0 0 1
303 373 150 0 0 1
313 383 150 0 0 1
251 268 0 0 0 -1
251 278 0 0 0 -1
220 278 0 0 0 -1
220 268 0 0 0 -1
251 268 150 0 0 1
251 278 150 0 0 1
220 278 150 0 0 1
220 268 150 0 0 1
313 383 0 0 0 -1
303 373 0 0 0 -1
322 373 0 0 0 -1
322 383 0 0 0 -1
313 383 150 0 0 1
303 373 150 0 0 1
322 373 150 0 0 1
322 383 150 0 0 1
361.01165771484375 186.059417724609375 0 0 0 -1
346.98834228515625 185.940582275390625 0 0 0 -1
321.405059814453125 159.475112915039062 0 0 0 -1
328.594940185546875 152.524887084960938 0 0 0 -1
361.01165771484375 186.059417724609375 150 0 0 1
346.98834228515625 185.940582275390625 150 0 0 1
321.405059814453125 159.475112915039062 150 0 0 1
328.594940185546875 152.524887084960938 150 0 0 1
323 236 0 0 0 -1
323 246 0 0 0 -1
282 246 0 0 0 -1
282 236 0 0 0 -1
323 236 150 0 0 1
323 246 150 0 0 1
282 246 150 0 0 1
282 236 150 0 0 1
270 -1 0 0 0 -1
270 9 0 0 0 -1
250 9 0 0 0 -1
250 -1 0 0 0 -1
270 -1 150 0 0 1
270 9 150 0 0 1
250 9 150 0 0 1
250 -1 150 0 0 1
385.544219970703125 128.450424194335938 0 0 0 -1
378.478515625 135.526840209960938 0 0 0 -1
362 119.073287963867188 0 0 0 -1
372 114.926712036132812 0 0 0 -1
385.544219970703125 128.450424194335938 150 0 0 1
378.478515625 135.526840209960938 150 0 0 1
362 119.073287963867188 150 0 0 1
372 114.926712036132812 150 0 0 1
372 114.926712036132812 0 0 0 -1
362 119.073287963867188 0 0 0 -1
362 98 0 0 0 -1
372 103.149223327636719 0 0 0 -1
372 114.926712036132812 150 0 0 1
362 119.073287963867188 150 0 0 1
362 98 150 0 0 1
372 103.149223327636719 150 0 0 1
322 268 0 0 0 -1
322 278 0 0 0 -1
311 278 0 0 0 -1
311 268 0 0 0 -1
322 268 150 0 0 1
322 278 150 0 0 1
311 278 150 0 0 1
311 268 150 0 0 1
553.997314453125 379 0 0 0 -1
544.002685546875 369 0 0 0 -1
544.01446533203125 346.997314453125 0 0 0 -1
554.01446533203125 347.002685546875 0 0 0 -1
553.997314453125 379 150 0 0 1
544.002685546875 369 150 0 0 1
544.01446533203125 346.997314453125 150 0 0 1
554.01446533203125 347.002685546875 150 0 0 1
372 93.1448974609375 0 0 0 -1
362 98 0 0 0 -1
362 4 0 0 0 -1
372 4 0 0 0 -1
372 93.1448974609375 150 0 0 1
362 98 150 0 0 1
362 4 150 0 0 1
372 4 150 0 0 1
372 103.149223327636719 0 0 0 -1
372 93.1448974609375 0 0 0 -1
384.147003173828125 93.5021591186523438 0 0 0 -1
383.852996826171875 103.497840881347656 0 0 0 -1
372 103.149223327636719 150 0 0 1
372 93.1448974609375 150 0 0 1
384.147003173828125 93.5021591186523438 150 0 0 1
383.852996826171875 103.497840881347656 150 0 0 1
4 0 1 2 3
4 4 5 6 7
4 8 9 10 11
4 12 13 14 15
4 16 17 18 19
4 20 21 22 23
4 24 25 26 27
4 28 29 30 31
4 32 33 34 35
4 36 37 38 39
4 40 41 42 43
4 44 45 46 47
4 48 49 50 51
4 52 53 54 55
4 56 57 58 59
4 60 61 62 63
4 64 65 66 67
4 68 69 70 71
4 72 73 74 75
4 76 77 78 79
4 80 81 82 83
4 84 85 86 87
4 88 89 90 91
4 92 93 94 95
4 96 97 98 99
4 100 101 102 103
4 104 105 106 107
4 108 109 110 111
4 112 113 114 115
4 116 117 118 119
4 120 121 122 123
4 124 125 126 127
4 128 129 130 131
4 132 133 134 135
4 136 137 138 139
4 140 141 142 143
4 144 145 146 147
4 148 149 150 151
4 152 153 154 155
4 156 157 158 159
4 160 161 162 163
4 164 165 166 167
4 168 169 170 171
4 172 173 174 175
4 176 177 178 179
4 180 181 182 183
4 184 185 186 187
4 188 189 190 191
4 192 193 194 195
4 196 197 198 199
4 200 201 202 203
4 204 205 206 207
4 208 209 210 211
4 212 213 214 215
4 216 217 218 219
4 220 221 222 223
4 224 225 226 227
4 228 229 230 231
4 232 233 234 235
4 236 237 238 239
4 240 241 242 243
4 244 245 246 247
4 248 249 250 251
4 252 253 254 255
4 256 257 258 259
4 260 261 262 263
4 264 265 266 267
4 268 269 270 271
4 272 273 274 275
4 276 277 278 279
4 280 281 282 283
4 284 285 286 287
4 288 289 290 291
4 292 293 294 295
4 296 297 298 299
4 300 301 302 303
4 304 305 306 307
4 308 309 310 311
4 312 313 314 315
4 316 317 318 319
4 320 321 322 323
4 324 325 326 327
4 328 329 330 331
4 332 333 334 335
4 336 337 338 339
4 340 341 342 343
4 344 345 346 347
4 348 349 350 351
4 352 353 354 355
4 356 357 358 359
4 360 361 362 363
4 364 365 366 367
4 368 369 370 371
4 372 373 374 375
4 376 377 378 379
4 380 381 382 383
4 384 385 386 387
4 388 389 390 391
4 392 393 394 395
4 396 397 398 399
4 400 401 402 403
4 404 405 406 407
4 408 409 410 411
4 412 413 414 415
4 416 417 418 419
4 420 421 422 423
4 424 425 426 427
4 428 429 430 431
4 432 433 434 435
4 436 437 438 439
4 440 441 442 443
4 444 445 446 447
4 448 449 450 451
4 452 453 454 455
4 456 457 458 459
4 460 461 462 463
4 464 465 466 467
4 468 469 470 471
4 472 473 474 475
4 476 477 478 479
4 480 481 482 483
4 484 485 486 487
4 488 489 490 491
4 492 493 494 495
4 496 497 498 499
4 500 501 502 503
4 504 505 506 507
4 508 509 510 511
4 512 513 514 515
4 516 517 518 519
4 520 521 522 523
4 524 525 526 527
4 528 529 530 531
4 532 533 534 535
4 536 537 538 539
4 540 541 542 543
4 544 545 546 547
4 548 549 550 551
4 552 553 554 555
4 556 557 558 559
4 560 561 562 563
4 564 565 566 567
4 568 569 570 571
4 572 573 574 575
4 576 577 578 579
4 580 581 582 583
4 584 585 586 587
4 588 589 590 591
4 592 593 594 595
4 596 597 598 599
4 600 601 602 603
4 604 605 606 607
4 608 609 610 611
4 612 613 614 615
4 616 617 618 619
4 620 621 622 623
4 624 625 626 627
4 628 629 630 631
4 632 633 634 635
4 636 637 638 639
4 640 641 642 643
4 644 645 646 647
4 648 649 650 651
4 652 653 654 655
4 656 657 658 659
4 660 661 662 663
4 664 665 666 667
4 668 669 670 671
4 672 673 674 675
4 676 677 678 679
4 680 681 682 683
4 684 685 686 687
4 688 689 690 691
4 692 693 694 695
4 696 697 698 699
4 700 701 702 703
4 704 705 706 707
4 708 709 710 711
4 712 713 714 715
4 716 717 718 719
4 720 721 722 723
4 724 725 726 727
4 728 729 730 731
4 732 733 734 735
4 736 737 738 739
4 740 741 742 743
4 744 745 746 747
4 748 749 750 751
4 752 753 754 755
4 756 757 758 759
4 760 761 762 763
4 764 765 766 767
4 768 769 770 771
4 772 773 774 775
4 776 777 778 779
4 780 781 782 783
4 784 785 786 787
4 788 789 790 791
4 792 793 794 795
4 796 797 798 799
4 800 801 802 803
4 804 805 806 807
4 808 809 810 811
4 812 813 814 815
4 816 817 818 819
4 820 821 822 823
4 824 825 826 827
4 828 829 830 831
4 832 833 834 835
4 836 837 838 839
4 840 841 842 843
4 844 845 846 847
4 848 849 850 851
4 852 853 854 855
4 856 857 858 859
4 860 861 862 863
4 864 865 866 867
4 868 869 870 871
4 872 873 874 875
4 876 877 878 879
4 880 881 882 883
4 884 885 886 887
4 888 889 890 891
4 892 893 894 895
4 896 897 898 899
4 900 901 902 903
4 904 905 906 907
4 908 909 910 911
4 912 913 914 915
4 916 917 918 919
4 920 921 922 923
