ply
format ascii 1.0
element vertex 384
property float x
property float y
property float z
property float nx
property float ny
property float nz
element quads 96
property list uchar int vertex_indices
end_header
559.25 303 0 1 0 0
559.25 161 0 1 0 0
559.25 161 100 1 0 0
559.25 303 100 1 0 0
558.75 303 0 -1 -0 0
558.75 161 0 -1 -0 0
558.75 161 100 -1 -0 0
558.75 303 100 -1 -0 0
665 163.25 0 -0 1 0
708.75 163.25 0 -0 1 0
708.75 163.25 100 -0 1 0
665 163.25 100 -0 1 0
665 162.75 0 0 -1 0
709.25 162.75 0 0 -1 0
709.25 162.75 100 0 -1 0
665 162.75 100 0 -1 0
708.75 163.25 0 -1 0 0
708.75 462 0 -1 0 0
708.75 462 100 -1 0 0
708.75 163.25 100 -1 0 0
709.25 162.75 0 1 -0 0
709.25 462 0 1 -0 0
709.25 462 100 1 -0 0
709.25 162.75 100 1 -0 0
394.25 387 0 1 0 0
394.25 320 0 1 0 0
394.25 320 100 1 0 0
394.25 387 100 1 0 0
393.75 387 0 -1 -0 0
393.75 320 0 -1 -0 0
393.75 320 100 -1 -0 0
393.75 387 100 -1 -0 0
671 302.25 0 -0 1 0
706 302.25 0 -0 1 0
706 302.25 100 -0 1 0
671 302.25 100 -0 1 0
671 301.75 0 0 -1 0
706 301.75 0 0 -1 0
706 301.75 100 0 -1 0
671 301.75 100 0 -1 0
394.25 454 0 1 0 0
394.25 392 0 1 0 0
394.25 392 100 1 0 0
394.25 454 100 1 0 0
393.75 454 0 -1 -0 0
393.75 392 0 -1 -0 0
393.75 392 100 -1 -0 0
393.75 454 100 -1 -0 0
77.75 162.75 0 -1 0 0
77.75 508 0 -1 0 0
77.75 508 100 -1 0 0
77.75 162.75 100 -1 0 0
78.25 163.25 0 1 -0 0
78.25 508 0 1 -0 0
78.25 508 100 1 -0 0
78.25 163.25 100 1 -0 0
78.25 163.25 0 -0 1 0
601 163.25 0 -0 1 0
601 163.25 100 -0 1 0
78.25 163.25 100 -0 1 0
77.75 162.75 0 0 -1 0
601 162.75 0 0 -1 0
601 162.75 100 0 -1 0
77.75 162.75 100 0 -1 0
319.75 162 0 -1 0 0
319.75 508 0 -1 0 0
319.75 508 100 -1 0 0
319.75 162 100 -1 0 0
320.25 162 0 1 -0 0
320.25 508 0 1 -0 0
320.25 508 100 1 -0 0
320.25 162 100 1 -0 0
526.75 290 0 -1 0 0
526.75 454.75 0 -1 0 0
526.75 454.75 100 -1 0 0
526.75 290 100 -1 0 0
527.25 290 0 1 -0 0
527.25 455.25 0 1 -0 0
527.25 455.25 100 1 -0 0
527.25 290 100 1 -0 0
526.75 454.75 0 -0 -1 0
322 454.75 0 -0 -1 0
322 454.75 100 -0 -1 0
526.75 454.75 100 -0 -1 0
527.25 455.25 0 0 1 0
322 455.25 0 0 1 0
322 455.25 100 0 1 0
527.25 455.25 100 0 1 0
81 236.25 0 -0 1 0
318 236.25 0 -0 1 0
318 236.25 100 -0 1 0
81 236.25 100 -0 1 0
81 235.75 0 0 -1 0
318 235.75 0 0 -1 0
318 235.75 100 0 -1 0
81 235.75 100 0 -1 0
487.75 286 0 -1 0 0
487.75 365 0 -1 0 0
487.75 365 100 -1 0 0
487.75 286 100 -1 0 0
488.25 286 0 1 -0 0
488.25 365 0 1 -0 0
488.25 365 100 1 -0 0
488.25 286 100 1 -0 0
322 389.25 0 -0 1 0
425 389.25 0 -0 1 0
425 389.25 100 -0 1 0
322 389.25 100 -0 1 0
322 388.75 0 0 -1 0
425 388.75 0 0 -1 0
425 388.75 100 0 -1 0
322 388.75 100 0 -1 0
486 302.25 0 -0 1 0
596 302.25 0 -0 1 0
596 302.25 100 -0 1 0
486 302.25 100 -0 1 0
486 301.75 0 0 -1 0
596 301.75 0 0 -1 0
596 301.75 100 0 -1 0
486 301.75 100 0 -1 0
731.75 373 0 -1 0 0
731.75 435 0 -1 0 0
731.75 435 100 -1 0 0
731.75 373 100 -1 0 0
732.25 373 0 1 -0 0
732.25 435 0 1 -0 0
732.25 435 100 1 -0 0
732.25 373 100 1 -0 0
366 319.25 0 -0 1 0
526 319.25 0 -0 1 0
526 319.25 100 -0 1 0
366 319.25 100 -0 1 0
366 318.75 0 0 -1 0
526 318.75 0 0 -1 0
526 318.75 100 0 -1 0
366 318.75 100 0 -1 0
559.25 303 0 555.3116455078125 301.8662109375 0
558.75 303 0 555.3116455078125 301.8662109375 0
558.75 303 100 555.3116455078125 301.8662109375 0
559.25 303 100 555.3116455078125 301.8662109375 0
559.25 161 0 555.3116455078125 158.866195678710938 0
558.75 161 0 555.3116455078125 158.866195678710938 0
558.75 161 100 555.3116455078125 158.866195678710938 0
559.25 161 100 555.3116455078125 158.866195678710938 0
665 163.25 0 648.79998779296875 159.518569946289062 0
665 162.75 0 648.79998779296875 159.518569946289062 0
665 162.75 100 648.79998779296875 159.518569946289062 0
665 163.25 100 648.79998779296875 159.518569946289062 0
394.25 387 0 388.36566162109375 382.223876953125 0
393.75 387 0 388.36566162109375 382.223876953125 0
393.75 387 100 388.36566162109375 382.223876953125 0
394.25 387 100 388.36566162109375 382.223876953125 0
394.25 320 0 388.36566162109375 314.223876953125 0
393.75 320 0 388.36566162109375 314.223876953125 0
393.75 320 100 388.36566162109375 314.223876953125 0
394.25 320 100 388.36566162109375 314.223876953125 0
671 302.25 0 650.82855224609375 293.614288330078125 0
671 301.75 0 650.82855224609375 293.614288330078125 0
671 301.75 100 650.82855224609375 293.614288330078125 0
671 302.25 100 650.82855224609375 293.614288330078125 0
706 302.25 0 686.82855224609375 293.614288330078125 0
706 301.75 0 686.82855224609375 293.614288330078125 0
706 301.75 100 686.82855224609375 293.614288330078125 0
706 302.25 100 686.82855224609375 293.614288330078125 0
394.25 454 0 387.891143798828125 447.67742919921875 0
393.75 454 0 387.891143798828125 447.67742919921875 0
393.75 454 100 387.891143798828125 447.67742919921875 0
394.25 454 100 387.891143798828125 447.67742919921875 0
394.25 392 0 387.891143798828125 384.67742919921875 0
393.75 392 0 387.891143798828125 384.67742919921875 0
393.75 392 100 387.891143798828125 384.67742919921875 0
394.25 392 100 387.891143798828125 384.67742919921875 0
77.75 508 0 77.5248031616210938 507.528594970703125 0
78.25 508 0 77.5248031616210938 507.528594970703125 0
78.25 508 100 77.5248031616210938 507.528594970703125 0
77.75 508 100 77.5248031616210938 507.528594970703125 0
319.75 162 0 318.82586669921875 160.53179931640625 0
320.25 162 0 318.82586669921875 160.53179931640625 0
320.25 162 100 318.82586669921875 160.53179931640625 0
319.75 162 100 318.82586669921875 160.53179931640625 0
319.75 508 0 318.82586669921875 507.53179931640625 0
320.25 508 0 318.82586669921875 507.53179931640625 0
320.25 508 100 318.82586669921875 507.53179931640625 0
319.75 508 100 318.82586669921875 507.53179931640625 0
526.75 290 0 523.552734375 287.23974609375 0
527.25 290 0 523.552734375 287.23974609375 0
527.25 290 100 523.552734375 287.23974609375 0
526.75 290 100 523.552734375 287.23974609375 0
81 236.25 0 79.6582260131835938 235.253158569335938 0
81 235.75 0 79.6582260131835938 235.253158569335938 0
81 235.75 100 79.6582260131835938 235.253158569335938 0
81 236.25 100 79.6582260131835938 235.253158569335938 0
318 236.25 0 317.658233642578125 235.253158569335938 0
318 235.75 0 317.658233642578125 235.253158569335938 0
318 235.75 100 317.658233642578125 235.253158569335938 0
318 236.25 100 317.658233642578125 235.253158569335938 0
487.75 286 0 481.575958251953125 281.3797607421875 0
488.25 286 0 481.575958251953125 281.3797607421875 0
488.25 286 100 481.575958251953125 281.3797607421875 0
487.75 286 100 481.575958251953125 281.3797607421875 0
487.75 365 0 481.575958251953125 361.3797607421875 0
488.25 365 0 481.575958251953125 361.3797607421875 0
488.25 365 100 481.575958251953125 361.3797607421875 0
487.75 365 100 481.575958251953125 361.3797607421875 0
322 389.25 0 317.873779296875 385.47088623046875 0
322 388.75 0 317.873779296875 385.47088623046875 0
322 388.75 100 317.873779296875 385.47088623046875 0
322 389.25 100 317.873779296875 385.47088623046875 0
425 389.25 0 421.873779296875 385.47088623046875 0
425 388.75 0 421.873779296875 385.47088623046875 0
425 388.75 100 421.873779296875 385.47088623046875 0
425 389.25 100 421.873779296875 385.47088623046875 0
486 302.25 0 480.581817626953125 299.50225830078125 0
486 301.75 0 480.581817626953125 299.50225830078125 0
486 301.75 100 480.581817626953125 299.50225830078125 0
486 302.25 100 480.581817626953125 299.50225830078125 0
596 302.25 0 591.58184814453125 299.50225830078125 0
596 301.75 0 591.58184814453125 299.50225830078125 0
596 301.75 100 591.58184814453125 299.50225830078125 0
596 302.25 100 591.58184814453125 299.50225830078125 0
731.75 373 0 719.94757080078125 365.983856201171875 0
732.25 373 0 719.94757080078125 365.983856201171875 0
732.25 373 100 719.94757080078125 365.983856201171875 0
731.75 373 100 719.94757080078125 365.983856201171875 0
731.75 435 0 719.94757080078125 428.983856201171875 0
732.25 435 0 719.94757080078125 428.983856201171875 0
732.25 435 100 719.94757080078125 428.983856201171875 0
731.75 435 100 719.94757080078125 428.983856201171875 0
322 454.75 0 319.427337646484375 452.52899169921875 0
322 455.25 0 319.427337646484375 452.52899169921875 0
322 455.25 100 319.427337646484375 452.52899169921875 0
322 454.75 100 319.427337646484375 452.52899169921875 0
708.75 462 0 706.37762451171875 461.45355224609375 0
709.25 462 0 706.37762451171875 461.45355224609375 0
709.25 462 100 706.37762451171875 461.45355224609375 0
708.75 462 100 706.37762451171875 461.45355224609375 0
601 163.25 0 600.85028076171875 162.937713623046875 0
601 162.75 0 600.85028076171875 162.937713623046875 0
601 162.75 100 600.85028076171875 162.937713623046875 0
601 163.25 100 600.85028076171875 162.937713623046875 0
366 319.25 0 362.712493896484375 317.25469970703125 0
366 318.75 0 362.712493896484375 317.25469970703125 0
366 318.75 100 362.712493896484375 317.25469970703125 0
366 319.25 100 362.712493896484375 317.25469970703125 0
526 319.25 0 523.7125244140625 317.25469970703125 0
526 318.75 0 523.7125244140625 317.25469970703125 0
526 318.75 100 523.7125244140625 317.25469970703125 0
526 319.25 100 523.7125244140625 317.25469970703125 0
559.25 303 0 0 0 -1
558.75 303 0 0 0 -1
558.75 161 0 0 0 -1
559.25 161 0 0 0 -1
559.25 303 100 0 0 1
558.75 303 100 0 0 1
558.75 161 100 0 0 1
559.25 161 100 0 0 1
665 163.25 0 0 0 -1
665 162.75 0 0 0 -1
709.25 162.75 0 0 0 -1
708.75 163.25 0 0 0 -1
665 163.25 100 0 0 1
665 162.75 100 0 0 1
709.25 162.75 100 0 0 1
708.75 163.25 100 0 0 1
708.75 163.25 0 0 0 -1
709.25 162.75 0 0 0 -1
709.25 462 0 0 0 -1
708.75 462 0 0 0 -1
708.75 163.25 100 0 0 1
709.25 162.75 100 0 0 1
709.25 462 100 0 0 1
708.75 462 100 0 0 1
394.25 387 0 0 0 -1
393.75 387 0 0 0 -1
393.75 320 0 0 0 -1
394.25 320 0 0 0 -1
394.25 387 100 0 0 1
393.75 387 100 0 0 1
393.75 320 100 0 0 1
394.25 320 100 0 0 1
671 302.25 0 0 0 -1
671 301.75 0 0 0 -1
706 301.75 0 0 0 -1
706 302.25 0 0 0 -1
671 302.25 100 0 0 1
671 301.75 100 0 0 1
706 301.75 100 0 0 1
706 302.25 100 0 0 1
394.25 454 0 0 0 -1
393.75 454 0 0 0 -1
393.75 392 0 0 0 -1
394.25 392 0 0 0 -1
394.25 454 100 0 0 1
393.75 454 100 0 0 1
393.75 392 100 0 0 1
394.25 392 100 0 0 1
77.75 162.75 0 0 0 -1
78.25 163.25 0 0 0 -1
78.25 508 0 0 0 -1
77.75 508 0 0 0 -1
77.75 162.75 100 0 0 1
78.25 163.25 100 0 0 1
78.25 508 100 0 0 1
77.75 508 100 0 0 1
78.25 163.25 0 0 0 -1
77.75 162.75 0 0 0 -1
601 162.75 0 0 0 -1
601 163.25 0 0 0 -1
78.25 163.25 100 0 0 1
77.75 162.75 100 0 0 1
601 162.75 100 0 0 1
601 163.25 100 0 0 1
319.75 162 0 0 0 -1
320.25 162 0 0 0 -1
320.25 508 0 0 0 -1
319.75 508 0 0 0 -1
319.75 162 100 0 0 1
320.25 162 100 0 0 1
320.25 508 100 0 0 1
319.75 508 100 0 0 1
526.75 290 0 0 0 -1
527.25 290 0 0 0 -1
527.25 455.25 0 0 0 -1
526.75 454.75 0 0 0 -1
526.75 290 100 0 0 1
527.25 290 100 0 0 1
527.25 455.25 100 0 0 1
526.75 454.75 100 0 0 1
526.75 454.75 0 0 0 -1
527.25 455.25 0 0 0 -1
322 455.25 0 0 0 -1
322 454.75 0 0 0 -1
526.75 454.75 100 0 0 1
527.25 455.25 100 0 0 1
322 455.25 100 0 0 1
322 454.75 100 0 0 1
81 236.25 0 0 0 -1
81 235.75 0 0 0 -1
318 235.75 0 0 0 -1
318 236.25 0 0 0 -1
81 236.25 100 0 0 1
81 235.75 100 0 0 1
318 235.75 100 0 0 1
318 236.25 100 0 0 1
487.75 286 0 0 0 -1
488.25 286 0 0 0 -1
488.25 365 0 0 0 -1
487.75 365 0 0 0 -1
487.75 286 100 0 0 1
488.25 286 100 0 0 1
488.25 365 100 0 0 1
487.75 365 100 0 0 1
322 389.25 0 0 0 -1
322 388.75 0 0 0 -1
425 388.75 0 0 0 -1
425 389.25 0 0 0 -1
322 389.25 100 0 0 1
322 388.75 100 0 0 1
425 388.75 100 0 0 1
425 389.25 100 0 0 1
486 302.25 0 0 0 -1
486 301.75 0 0 0 -1
596 301.75 0 0 0 -1
596 302.25 0 0 0 -1
486 302.25 100 0 0 1
486 301.75 100 0 0 1
596 301.75 100 0 0 1
596 302.25 100 0 0 1
731.75 373 0 0 0 -1
732.25 373 0 0 0 -1
732.25 435 0 0 0 -1
731.75 435 0 0 0 -1
731.75 373 100 0 0 1
732.25 373 100 0 0 1
732.25 435 100 0 0 1
731.75 435 100 0 0 1
366 319.25 0 0 0 -1
366 318.75 0 0 0 -1
526 318.75 0 0 0 -1
526 319.25 0 0 0 -1
366 319.25 100 0 0 1
366 318.75 100 0 0 1
526 318.75 100 0 0 1
526 319.25 100 0 0 1
4 0 1 2 3
4 4 5 6 7
4 8 9 10 11
4 12 13 14 15
4 16 17 18 19
4 20 21 22 23
4 24 25 26 27
4 28 29 30 31
4 32 33 34 35
4 36 37 38 39
4 40 41 42 43
4 44 45 46 47
4 48 49 50 51
4 52 53 54 55
4 56 57 58 59
4 60 61 62 63
4 64 65 66 67
4 68 69 70 71
4 72 73 74 75
4 76 77 78 79
4 80 81 82 83
4 84 85 86 87
4 88 89 90 91
4 92 93 94 95
4 96 97 98 99
4 100 101 102 103
4 104 105 106 107
4 108 109 110 111
4 112 113 114 115
4 116 117 118 119
4 120 121 122 123
4 124 125 126 127
4 128 129 130 131
4 132 133 134 135
4 136 137 138 139
4 140 141 142 143
4 144 145 146 147
4 148 149 150 151
4 152 153 154 155
4 156 157 158 159
4 160 161 162 163
4 164 165 166 167
4 168 169 170 171
4 172 173 174 175
4 176 177 178 179
4 180 181 182 183
4 184 185 186 187
4 188 189 190 191
4 192 193 194 195
4 196 197 198 199
4 200 201 202 203
4 204 205 206 207
4 208 209 210 211
4 212 213 214 215
4 216 217 218 219
4 220 221 222 223
4 224 225 226 227
4 228 229 230 231
4 232 233 234 235
4 236 237 238 239
4 240 241 242 243
4 244 245 246 247
4 248 249 250 251
4 252 253 254 255
4 256 257 258 259
4 260 261 262 263
4 264 265 266 267
4 268 269 270 271
4 272 273 274 275
4 276 277 278 279
4 280 281 282 283
4 284 285 286 287
4 288 289 290 291
4 292 293 294 295
4 296 297 298 299
4 300 301 302 303
4 304 305 306 307
4 308 309 310 311
4 312 313 314 315
4 316 317 318 319
4 320 321 322 323
4 324 325 326 327
4 328 329 330 331
4 332 333 334 335
4 336 337 338 339
4 340 341 342 343
4 344 345 346 347
4 348 349 350 351
4 352 353 354 355
4 356 357 358 359
4 360 361 362 363
4 364 365 366 367
4 368 369 370 371
4 372 373 374 375
4 376 377 378 379
4 380 381 382 383
