ply
format ascii 1.0
element vertex 738
property float x
property float y
property float z
property float nx
property float ny
property float nz
element quads 183
property list uchar int vertex_indices
element triads 2
property list uchar int vertex_indices
end_header
321 54.5700492858886719 0 -0 -1 0
267 54.5700492858886719 0 -0 -1 0
267 54.5700492858886719 100 -0 -1 0
321 54.5700492858886719 100 -0 -1 0
321 60.5700492858886719 0 0 1 0
267 60.5700492858886719 0 0 1 0
267 60.5700492858886719 100 0 1 0
321 60.5700492858886719 100 0 1 0
574 54.5700492858886719 0 -0 -1 0
491 54.5700492858886719 0 -0 -1 0
491 54.5700492858886719 100 -0 -1 0
574 54.5700492858886719 100 -0 -1 0
574 60.5700492858886719 0 0 1 0
491 60.5700492858886719 0 0 1 0
491 60.5700492858886719 100 0 1 0
574 60.5700492858886719 100 0 1 0
246 55 0 -0 -1 0
148 55 0 -0 -1 0
148 55 100 -0 -1 0
246 55 100 -0 -1 0
246 61 0 0 1 0
154 61 0 0 1 0
154 61 100 0 1 0
246 61 100 0 1 0
148 55 0 -1 0 0
148 84 0 -1 0 0
148 84 100 -1 0 0
148 55 100 -1 0 0
154 61 0 1 -0 0
154 84 0 1 -0 0
154 84 100 1 -0 0
154 61 100 1 -0 0
460 54.5700492858886719 0 -0 -1 0
411 54.5700492858886719 0 -0 -1 0
411 54.5700492858886719 100 -0 -1 0
460 54.5700492858886719 100 -0 -1 0
460 60.5700492858886719 0 0 1 0
411 60.5700492858886719 0 0 1 0
411 60.5700492858886719 100 0 1 0
460 60.5700492858886719 100 0 1 0
376 54.5700492858886719 0 -0 -1 0
356 54.5700492858886719 0 -0 -1 0
356 54.5700492858886719 100 -0 -1 0
376 54.5700492858886719 100 -0 -1 0
376 60.5700492858886719 0 0 1 0
356 60.5700492858886719 0 0 1 0
356 60.5700492858886719 100 0 1 0
376 60.5700492858886719 100 0 1 0
197.504669189453125 410 0 1 0 0
197.504669189453125 356 0 1 0 0
197.504669189453125 356 100 1 0 0
197.504669189453125 410 100 1 0 0
191.504669189453125 410 0 -1 -0 0
191.504669189453125 356 0 -1 -0 0
191.504669189453125 356 100 -1 -0 0
191.504669189453125 410 100 -1 -0 0
198 265 0 1 0 0
198 214 0 1 0 0
198 214 100 1 0 0
198 265 100 1 0 0
192 265 0 -1 -0 0
192 208 0 -1 -0 0
192 208 100 -1 -0 0
192 265 100 -1 -0 0
198 214 0 -0 1 0
337 214 0 -0 1 0
337 214 100 -0 1 0
198 214 100 -0 1 0
192 208 0 0 -1 0
337 208 0 0 -1 0
337 208 100 0 -1 0
192 208 100 0 -1 0
429 283 0 1 0 0
429 208 0 1 0 0
429 208 100 1 0 0
429 283 100 1 0 0
423 283 0 -1 -0 0
423 214 0 -1 -0 0
423 214 100 -1 -0 0
423 283 100 -1 -0 0
429 208 0 -0 -1 0
376 208 0 -0 -1 0
376 208 100 -0 -1 0
429 208 100 -0 -1 0
423 214 0 0 1 0
376 214 0 0 1 0
376 214 100 0 1 0
423 214 100 0 1 0
429.5 394 0 1 0 0
429.5 310 0 1 0 0
429.5 310 100 1 0 0
429.5 394 100 1 0 0
423.5 394 0 -1 -0 0
423.5 310 0 -1 -0 0
423.5 310 100 -1 -0 0
423.5 394 100 -1 -0 0
576.88629150390625 335 0 1 0 0
576.88629150390625 308 0 1 0 0
576.88629150390625 308 100 1 0 0
576.88629150390625 335 100 1 0 0
570.88629150390625 335 0 -1 -0 0
570.88629150390625 308 0 -1 -0 0
570.88629150390625 308 100 -1 -0 0
570.88629150390625 335 100 -1 -0 0
577 114 0 1 0 0
577 58 0 1 0 0
577 58 100 1 0 0
577 114 100 1 0 0
571 114 0 -1 -0 0
571 58 0 -1 -0 0
571 58 100 -1 -0 0
571 114 100 -1 -0 0
576.88629150390625 216 0 1 0 0
576.88629150390625 206 0 1 0 0
576.88629150390625 206 100 1 0 0
576.88629150390625 216 100 1 0 0
570.88629150390625 216 0 -1 -0 0
570.88629150390625 206 0 -1 -0 0
570.88629150390625 206 100 -1 -0 0
570.88629150390625 216 100 -1 -0 0
303.589569091796875 156 0 1 0 0
303.589569091796875 60 0 1 0 0
303.589569091796875 60 100 1 0 0
303.589569091796875 156 100 1 0 0
297.589569091796875 156 0 -1 -0 0
297.589569091796875 60 0 -1 -0 0
297.589569091796875 60 100 -1 -0 0
297.589569091796875 156 100 -1 -0 0
303.589569091796875 210 0 1 0 0
303.589569091796875 184 0 1 0 0
303.589569091796875 184 100 1 0 0
303.589569091796875 210 100 1 0 0
297.589569091796875 210 0 -1 -0 0
297.589569091796875 184 0 -1 -0 0
297.589569091796875 184 100 -1 -0 0
297.589569091796875 210 100 -1 -0 0
154 215 0 1 0 0
154 190 0 1 0 0
154 190 100 1 0 0
154 215 100 1 0 0
148 215 0 -1 -0 0
148 190 0 -1 -0 0
148 190 100 -1 -0 0
148 215 100 -1 -0 0
514 39.2659339904785156 0 -0 -1 0
457 39.2659339904785156 0 -0 -1 0
457 39.2659339904785156 100 -0 -1 0
514 39.2659339904785156 100 -0 -1 0
514 45.2659339904785156 0 0 1 0
457 45.2659339904785156 0 0 1 0
457 45.2659339904785156 100 0 1 0
514 45.2659339904785156 100 0 1 0
341.423736572265625 139 0 1 0 0
341.423736572265625 114 0 1 0 0
341.423736572265625 114 100 1 0 0
341.423736572265625 139 100 1 0 0
335.423736572265625 139 0 -1 -0 0
335.423736572265625 114 0 -1 -0 0
335.423736572265625 114 100 -1 -0 0
335.423736572265625 139 100 -1 -0 0
379.5111083984375 283 0 1 0 0
379.5111083984375 237 0 1 0 0
379.5111083984375 237 100 1 0 0
379.5111083984375 283 100 1 0 0
373.5111083984375 283 0 -1 -0 0
373.5111083984375 237 0 -1 -0 0
373.5111083984375 237 100 -1 -0 0
373.5111083984375 283 100 -1 -0 0
299 115.595741271972656 0 -0 -1 0
243 115.595741271972656 0 -0 -1 0
243 115.595741271972656 100 -0 -1 0
299 115.595741271972656 100 -0 -1 0
299 121.595741271972656 0 0 1 0
243 121.595741271972656 0 0 1 0
243 121.595741271972656 100 0 1 0
299 121.595741271972656 100 0 1 0
220 407 0 -0 -1 0
195 407 0 -0 -1 0
195 407 100 -0 -1 0
220 407 100 -0 -1 0
220 413 0 0 1 0
195 413 0 0 1 0
195 413 100 0 1 0
220 413 100 0 1 0
425 256 0 -0 -1 0
378 256 0 -0 -1 0
378 256 100 -0 -1 0
425 256 100 -0 -1 0
425 262 0 0 1 0
378 262 0 0 1 0
378 262 100 0 1 0
425 262 100 0 1 0
576.88531494140625 427.924041748046875 0 0.999679505825042725 -0.0253146663308143616 0
575.92486572265625 389.99432373046875 0 0.999679505825042725 -0.0253146663308143616 0
575.92486572265625 389.99432373046875 100 0.999679505825042725 -0.0253146663308143616 0
576.88531494140625 427.924041748046875 100 0.999679505825042725 -0.0253146663308143616 0
570.88726806640625 428.075958251953125 0 -0.999679505825042725 0.0253146663308143616 0
569.998779296875 392.990509033203125 0 -0.999679505825042725 0.0253146663308143616 0
569.998779296875 392.990509033203125 100 -0.999679505825042725 0.0253146663308143616 0
570.88726806640625 428.075958251953125 100 -0.999679505825042725 0.0253146663308143616 0
575.90673828125 395.994354248046875 0 0.999499380588531494 0.031637631356716156 0
576.884765625 365.09490966796875 0 0.999499380588531494 0.031637631356716156 0
576.884765625 365.09490966796875 100 0.999499380588531494 0.031637631356716156 0
575.90673828125 395.994354248046875 100 0.999499380588531494 0.031637631356716156 0
569.998779296875 392.990509033203125 0 -0.999499380588531494 -0.031637631356716156 0
570.8878173828125 364.90509033203125 0 -0.999499380588531494 -0.031637631356716156 0
570.8878173828125 364.90509033203125 100 -0.999499380588531494 -0.031637631356716156 0
569.998779296875 392.990509033203125 100 -0.999499380588531494 -0.031637631356716156 0
575.92486572265625 389.99432373046875 0 -0.00194099009968340397 -0.999998092651367188 0
480.994171142578125 390.1785888671875 0 -0.00194099009968340397 -0.999998092651367188 0
480.994171142578125 390.1785888671875 100 -0.00194099009968340397 -0.999998092651367188 0
575.92486572265625 389.99432373046875 100 -0.00194099009968340397 -0.999998092651367188 0
575.90673828125 395.994354248046875 0 0.00194099009968340397 0.999998092651367188 0
481.005828857421875 396.178558349609375 0 0.00194099009968340397 0.999998092651367188 0
481.005828857421875 396.178558349609375 100 0.00194099009968340397 0.999998092651367188 0
575.90673828125 395.994354248046875 100 0.00194099009968340397 0.999998092651367188 0
570.8873291015625 491.92181396484375 0 -0.9996604323387146 -0.0260587185621261597 0
570.07635498046875 523.0316162109375 0 -0.9996604323387146 -0.0260587185621261597 0
570.07635498046875 523.0316162109375 100 -0.9996604323387146 -0.0260587185621261597 0
570.8873291015625 491.92181396484375 100 -0.9996604323387146 -0.0260587185621261597 0
576.88525390625 492.07818603515625 0 0.9996604323387146 0.0260587185621261597 0
575.92364501953125 528.9683837890625 0 0.9996604323387146 0.0260587185621261597 0
575.92364501953125 528.9683837890625 100 0.9996604323387146 0.0260587185621261597 0
576.88525390625 492.07818603515625 100 0.9996604323387146 0.0260587185621261597 0
570.07635498046875 523.0316162109375 0 -0.010884186252951622 -0.999940752983093262 0
540.96734619140625 523.3485107421875 0 -0.010884186252951622 -0.999940752983093262 0
540.96734619140625 523.3485107421875 100 -0.010884186252951622 -0.999940752983093262 0
570.07635498046875 523.0316162109375 100 -0.010884186252951622 -0.999940752983093262 0
575.92364501953125 528.9683837890625 0 0.010884186252951622 0.999940752983093262 0
541.03265380859375 529.34814453125 0 0.010884186252951622 0.999940752983093262 0
541.03265380859375 529.34814453125 100 0.010884186252951622 0.999940752983093262 0
575.92364501953125 528.9683837890625 100 0.010884186252951622 0.999940752983093262 0
398.279510498046875 409.992767333984375 0 -0.999997079372406006 -0.00240950263105332851 0
397.992767333984375 529 0 -0.999997079372406006 -0.00240950263105332851 0
397.992767333984375 529 100 -0.999997079372406006 -0.00240950263105332851 0
398.279510498046875 409.992767333984375 100 -0.999997079372406006 -0.00240950263105332851 0
404.27947998046875 410.007232666015625 0 0.999997079372406006 0.00240950263105332851 0
404.007232666015625 523 0 0.999997079372406006 0.00240950263105332851 0
404.007232666015625 523 100 0.999997079372406006 0.00240950263105332851 0
404.27947998046875 410.007232666015625 100 0.999997079372406006 0.00240950263105332851 0
397.992767333984375 529 0 -0 1 0
431 529 0 -0 1 0
431 529 100 -0 1 0
397.992767333984375 529 100 -0 1 0
404.007232666015625 523 0 0 -1 0
431 523 0 0 -1 0
431 523 100 0 -1 0
404.007232666015625 523 100 0 -1 0
335.42388916015625 369.968231201171875 0 -0.999943912029266357 -0.0105926264077425003 0
335.031036376953125 407.055328369140625 0 -0.999943912029266357 -0.0105926264077425003 0
335.031036376953125 407.055328369140625 100 -0.999943912029266357 -0.0105926264077425003 0
335.42388916015625 369.968231201171875 100 -0.999943912029266357 -0.0105926264077425003 0
341.423553466796875 370.031768798828125 0 0.999943912029266357 0.0105926264077425003 0
340.968963623046875 412.944671630859375 0 0.999943912029266357 0.0105926264077425003 0
340.968963623046875 412.944671630859375 100 0.999943912029266357 0.0105926264077425003 0
341.423553466796875 370.031768798828125 100 0.999943912029266357 0.0105926264077425003 0
335.031036376953125 407.055328369140625 0 -0.0188093800097703934 -0.999823093414306641 0
311.943572998046875 407.489654541015625 0 -0.0188093800097703934 -0.999823093414306641 0
311.943572998046875 407.489654541015625 100 -0.0188093800097703934 -0.999823093414306641 0
335.031036376953125 407.055328369140625 100 -0.0188093800097703934 -0.999823093414306641 0
340.968963623046875 412.944671630859375 0 0.0188093800097703934 0.999823093414306641 0
312.056427001953125 413.48858642578125 0 0.0188093800097703934 0.999823093414306641 0
312.056427001953125 413.48858642578125 100 0.0188093800097703934 0.999823093414306641 0
340.968963623046875 412.944671630859375 100 0.0188093800097703934 0.999823093414306641 0
321 54.5700492858886719 0 316.0555419921875 53.5594902038574219 0
321 60.5700492858886719 0 316.0555419921875 53.5594902038574219 0
321 60.5700492858886719 100 316.0555419921875 53.5594902038574219 0
321 54.5700492858886719 100 316.0555419921875 53.5594902038574219 0
267 54.5700492858886719 0 261.0555419921875 53.5594902038574219 0
267 60.5700492858886719 0 261.0555419921875 53.5594902038574219 0
267 60.5700492858886719 100 261.0555419921875 53.5594902038574219 0
267 54.5700492858886719 100 261.0555419921875 53.5594902038574219 0
574 54.5700492858886719 0 568.0843505859375 53.9125785827636719 0
574 60.5700492858886719 0 568.0843505859375 53.9125785827636719 0
574 60.5700492858886719 100 568.0843505859375 53.9125785827636719 0
574 54.5700492858886719 100 568.0843505859375 53.9125785827636719 0
491 54.5700492858886719 0 484.0843505859375 53.9125785827636719 0
491 60.5700492858886719 0 484.0843505859375 53.9125785827636719 0
491 60.5700492858886719 100 484.0843505859375 53.9125785827636719 0
491 54.5700492858886719 100 484.0843505859375 53.9125785827636719 0
246 55 0 244.489791870117188 54.4387741088867188 0
246 61 0 244.489791870117188 54.4387741088867188 0
246 61 100 244.489791870117188 54.4387741088867188 0
246 55 100 244.489791870117188 54.4387741088867188 0
460 54.5700492858886719 0 451.61224365234375 53.4563751220703125 0
460 60.5700492858886719 0 451.61224365234375 53.4563751220703125 0
460 60.5700492858886719 100 451.61224365234375 53.4563751220703125 0
460 54.5700492858886719 100 451.61224365234375 53.4563751220703125 0
411 54.5700492858886719 0 401.61224365234375 53.4563751220703125 0
411 60.5700492858886719 0 401.61224365234375 53.4563751220703125 0
411 60.5700492858886719 100 401.61224365234375 53.4563751220703125 0
411 54.5700492858886719 100 401.61224365234375 53.4563751220703125 0
376 54.5700492858886719 0 358.20001220703125 51.8415451049804688 0
376 60.5700492858886719 0 358.20001220703125 51.8415451049804688 0
376 60.5700492858886719 100 358.20001220703125 51.8415451049804688 0
376 54.5700492858886719 100 358.20001220703125 51.8415451049804688 0
356 54.5700492858886719 0 337.20001220703125 51.8415451049804688 0
356 60.5700492858886719 0 337.20001220703125 51.8415451049804688 0
356 60.5700492858886719 100 337.20001220703125 51.8415451049804688 0
356 54.5700492858886719 100 337.20001220703125 51.8415451049804688 0
197.504669189453125 410 0 193.847183227539062 403.40740966796875 0
191.504669189453125 410 0 193.847183227539062 403.40740966796875 0
191.504669189453125 410 100 193.847183227539062 403.40740966796875 0
197.504669189453125 410 100 193.847183227539062 403.40740966796875 0
197.504669189453125 356 0 193.847183227539062 348.40740966796875 0
191.504669189453125 356 0 193.847183227539062 348.40740966796875 0
191.504669189453125 356 100 193.847183227539062 348.40740966796875 0
197.504669189453125 356 100 193.847183227539062 348.40740966796875 0
198 265 0 194.117645263671875 260.803924560546875 0
192 265 0 194.117645263671875 260.803924560546875 0
192 265 100 194.117645263671875 260.803924560546875 0
198 265 100 194.117645263671875 260.803924560546875 0
429 283 0 423.279998779296875 280.226654052734375 0
423 283 0 423.279998779296875 280.226654052734375 0
423 283 100 423.279998779296875 280.226654052734375 0
429 283 100 423.279998779296875 280.226654052734375 0
429.5 394 0 424.38690185546875 390.30950927734375 0
423.5 394 0 424.38690185546875 390.30950927734375 0
423.5 394 100 424.38690185546875 390.30950927734375 0
429.5 394 100 424.38690185546875 390.30950927734375 0
429.5 310 0 424.38690185546875 305.30950927734375 0
423.5 310 0 424.38690185546875 305.30950927734375 0
423.5 310 100 424.38690185546875 305.30950927734375 0
429.5 310 100 424.38690185546875 305.30950927734375 0
576.88629150390625 335 0 555.5201416015625 323.59259033203125 0
570.88629150390625 335 0 555.5201416015625 323.59259033203125 0
570.88629150390625 335 100 555.5201416015625 323.59259033203125 0
576.88629150390625 335 100 555.5201416015625 323.59259033203125 0
576.88629150390625 308 0 555.5201416015625 295.59259033203125 0
570.88629150390625 308 0 555.5201416015625 295.59259033203125 0
570.88629150390625 308 100 555.5201416015625 295.59259033203125 0
576.88629150390625 308 100 555.5201416015625 295.59259033203125 0
577 114 0 566.6964111328125 112.964286804199219 0
571 114 0 566.6964111328125 112.964286804199219 0
571 114 100 566.6964111328125 112.964286804199219 0
577 114 100 566.6964111328125 112.964286804199219 0
577 58 0 566.6964111328125 55.9642868041992188 0
571 58 0 566.6964111328125 55.9642868041992188 0
571 58 100 566.6964111328125 55.9642868041992188 0
577 58 100 566.6964111328125 55.9642868041992188 0
576.88629150390625 216 0 519.19769287109375 195.399993896484375 0
570.88629150390625 216 0 519.19769287109375 195.399993896484375 0
570.88629150390625 216 100 519.19769287109375 195.399993896484375 0
576.88629150390625 216 100 519.19769287109375 195.399993896484375 0
576.88629150390625 206 0 519.19769287109375 184.399993896484375 0
570.88629150390625 206 0 519.19769287109375 184.399993896484375 0
570.88629150390625 206 100 519.19769287109375 184.399993896484375 0
576.88629150390625 206 100 519.19769287109375 184.399993896484375 0
337 214 0 335.575531005859375 212.460433959960938 0
337 208 0 335.575531005859375 212.460433959960938 0
337 208 100 335.575531005859375 212.460433959960938 0
337 214 100 335.575531005859375 212.460433959960938 0
376 208 0 367.905670166015625 204.075469970703125 0
376 214 0 367.905670166015625 204.075469970703125 0
376 214 100 367.905670166015625 204.075469970703125 0
376 208 100 367.905670166015625 204.075469970703125 0
303.589569091796875 156 0 300.42718505859375 155.375 0
297.589569091796875 156 0 300.42718505859375 155.375 0
297.589569091796875 156 100 300.42718505859375 155.375 0
303.589569091796875 156 100 300.42718505859375 155.375 0
303.589569091796875 60 0 300.42718505859375 58.375 0
297.589569091796875 60 0 300.42718505859375 58.375 0
297.589569091796875 60 100 300.42718505859375 58.375 0
303.589569091796875 60 100 300.42718505859375 58.375 0
303.589569091796875 210 0 291.913055419921875 202.923080444335938 0
297.589569091796875 210 0 291.913055419921875 202.923080444335938 0
297.589569091796875 210 100 291.913055419921875 202.923080444335938 0
303.589569091796875 210 100 291.913055419921875 202.923080444335938 0
303.589569091796875 184 0 291.913055419921875 175.923080444335938 0
297.589569091796875 184 0 291.913055419921875 175.923080444335938 0
297.589569091796875 184 100 291.913055419921875 175.923080444335938 0
303.589569091796875 184 100 291.913055419921875 175.923080444335938 0
154 215 0 147.839996337890625 207.399993896484375 0
148 215 0 147.839996337890625 207.399993896484375 0
148 215 100 147.839996337890625 207.399993896484375 0
154 215 100 147.839996337890625 207.399993896484375 0
154 190 0 147.839996337890625 181.399993896484375 0
148 190 0 147.839996337890625 181.399993896484375 0
148 190 100 147.839996337890625 181.399993896484375 0
154 190 100 147.839996337890625 181.399993896484375 0
148 84 0 142.89654541015625 82.1034469604492188 0
154 84 0 142.89654541015625 82.1034469604492188 0
154 84 100 142.89654541015625 82.1034469604492188 0
148 84 100 142.89654541015625 82.1034469604492188 0
514 39.2659339904785156 0 505.982452392578125 38.577056884765625 0
514 45.2659339904785156 0 505.982452392578125 38.577056884765625 0
514 45.2659339904785156 100 505.982452392578125 38.577056884765625 0
514 39.2659339904785156 100 505.982452392578125 38.577056884765625 0
457 39.2659339904785156 0 447.982452392578125 38.577056884765625 0
457 45.2659339904785156 0 447.982452392578125 38.577056884765625 0
457 45.2659339904785156 100 447.982452392578125 38.577056884765625 0
457 39.2659339904785156 100 447.982452392578125 38.577056884765625 0
341.423736572265625 139 0 327.76678466796875 134.44000244140625 0
335.423736572265625 139 0 327.76678466796875 134.44000244140625 0
335.423736572265625 139 100 327.76678466796875 134.44000244140625 0
341.423736572265625 139 100 327.76678466796875 134.44000244140625 0
341.423736572265625 114 0 327.76678466796875 108.44000244140625 0
335.423736572265625 114 0 327.76678466796875 108.44000244140625 0
335.423736572265625 114 100 327.76678466796875 108.44000244140625 0
341.423736572265625 114 100 327.76678466796875 108.44000244140625 0
379.5111083984375 283 0 371.2608642578125 277.84783935546875 0
373.5111083984375 283 0 371.2608642578125 277.84783935546875 0
373.5111083984375 283 100 371.2608642578125 277.84783935546875 0
379.5111083984375 283 100 371.2608642578125 277.84783935546875 0
379.5111083984375 237 0 371.2608642578125 230.847824096679688 0
373.5111083984375 237 0 371.2608642578125 230.847824096679688 0
373.5111083984375 237 100 371.2608642578125 230.847824096679688 0
379.5111083984375 237 100 371.2608642578125 230.847824096679688 0
299 115.595741271972656 0 294.66070556640625 113.531532287597656 0
299 121.595741271972656 0 294.66070556640625 113.531532287597656 0
299 121.595741271972656 100 294.66070556640625 113.531532287597656 0
299 115.595741271972656 100 294.66070556640625 113.531532287597656 0
243 115.595741271972656 0 237.660720825195312 113.531532287597656 0
243 121.595741271972656 0 237.660720825195312 113.531532287597656 0
243 121.595741271972656 100 237.660720825195312 113.531532287597656 0
243 115.595741271972656 100 237.660720825195312 113.531532287597656 0
220 407 0 212.199996948242188 390.720001220703125 0
220 413 0 212.199996948242188 390.720001220703125 0
220 413 100 212.199996948242188 390.720001220703125 0
220 407 100 212.199996948242188 390.720001220703125 0
195 407 0 186.199996948242188 390.720001220703125 0
195 413 0 186.199996948242188 390.720001220703125 0
195 413 100 186.199996948242188 390.720001220703125 0
195 407 100 186.199996948242188 390.720001220703125 0
425 256 0 416.95745849609375 250.553192138671875 0
425 262 0 416.95745849609375 250.553192138671875 0
425 262 100 416.95745849609375 250.553192138671875 0
425 256 100 416.95745849609375 250.553192138671875 0
378 256 0 368.95745849609375 250.553192138671875 0
378 262 0 368.95745849609375 250.553192138671875 0
378 262 100 368.95745849609375 250.553192138671875 0
378 256 100 368.95745849609375 250.553192138671875 0
576.88531494140625 427.924041748046875 0 561.70623779296875 417.64532470703125 0
570.88726806640625 428.075958251953125 0 561.70623779296875 417.64532470703125 0
570.88726806640625 428.075958251953125 100 561.70623779296875 417.64532470703125 0
576.88531494140625 427.924041748046875 100 561.70623779296875 417.64532470703125 0
576.884765625 365.09490966796875 0 558.25604248046875 352.285736083984375 0
570.8878173828125 364.90509033203125 0 558.25604248046875 352.285736083984375 0
570.8878173828125 364.90509033203125 100 558.25604248046875 352.285736083984375 0
576.884765625 365.09490966796875 100 558.25604248046875 352.285736083984375 0
480.994171142578125 390.1785888671875 0 474.927398681640625 386.07037353515625 0
481.005828857421875 396.178558349609375 0 474.927398681640625 386.07037353515625 0
481.005828857421875 396.178558349609375 100 474.927398681640625 386.07037353515625 0
480.994171142578125 390.1785888671875 100 474.927398681640625 386.07037353515625 0
570.8873291015625 491.92181396484375 0 552.56890869140625 475.1151123046875 0
576.88525390625 492.07818603515625 0 552.56890869140625 475.1151123046875 0
576.88525390625 492.07818603515625 100 552.56890869140625 475.1151123046875 0
570.8873291015625 491.92181396484375 100 552.56890869140625 475.1151123046875 0
540.96734619140625 523.3485107421875 0 521.38433837890625 505.38153076171875 0
541.03265380859375 529.34814453125 0 521.38433837890625 505.38153076171875 0
541.03265380859375 529.34814453125 100 521.38433837890625 505.38153076171875 0
540.96734619140625 523.3485107421875 100 521.38433837890625 505.38153076171875 0
398.279510498046875 409.992767333984375 0 394.93524169921875 405.54766845703125 0
404.27947998046875 410.007232666015625 0 394.93524169921875 405.54766845703125 0
404.27947998046875 410.007232666015625 100 394.93524169921875 405.54766845703125 0
398.279510498046875 409.992767333984375 100 394.93524169921875 405.54766845703125 0
431 529 0 418.9422607421875 512.97320556640625 0
431 523 0 418.9422607421875 512.97320556640625 0
431 523 100 418.9422607421875 512.97320556640625 0
431 529 100 418.9422607421875 512.97320556640625 0
335.42388916015625 369.968231201171875 0 326.390777587890625 358.993194580078125 0
341.423553466796875 370.031768798828125 0 326.390777587890625 358.993194580078125 0
341.423553466796875 370.031768798828125 100 326.390777587890625 358.993194580078125 0
335.42388916015625 369.968231201171875 100 326.390777587890625 358.993194580078125 0
311.943572998046875 407.489654541015625 0 297.43475341796875 389.86175537109375 0
312.056427001953125 413.48858642578125 0 297.43475341796875 389.86175537109375 0
312.056427001953125 413.48858642578125 100 297.43475341796875 389.86175537109375 0
311.943572998046875 407.489654541015625 100 297.43475341796875 389.86175537109375 0
321 54.5700492858886719 0 0 0 -1
321 60.5700492858886719 0 0 0 -1
267 60.5700492858886719 0 0 0 -1
267 54.5700492858886719 0 0 0 -1
321 54.5700492858886719 100 0 0 1
321 60.5700492858886719 100 0 0 1
267 60.5700492858886719 100 0 0 1
267 54.5700492858886719 100 0 0 1
574 54.5700492858886719 0 0 0 -1
574 60.5700492858886719 0 0 0 -1
491 60.5700492858886719 0 0 0 -1
491 54.5700492858886719 0 0 0 -1
574 54.5700492858886719 100 0 0 1
574 60.5700492858886719 100 0 0 1
491 60.5700492858886719 100 0 0 1
491 54.5700492858886719 100 0 0 1
246 55 0 0 0 -1
246 61 0 0 0 -1
154 61 0 0 0 -1
148 55 0 0 0 -1
246 55 100 0 0 1
246 61 100 0 0 1
154 61 100 0 0 1
148 55 100 0 0 1
148 55 0 0 0 -1
154 61 0 0 0 -1
154 84 0 0 0 -1
148 84 0 0 0 -1
148 55 100 0 0 1
154 61 100 0 0 1
154 84 100 0 0 1
148 84 100 0 0 1
460 54.5700492858886719 0 0 0 -1
460 60.5700492858886719 0 0 0 -1
411 60.5700492858886719 0 0 0 -1
411 54.5700492858886719 0 0 0 -1
460 54.5700492858886719 100 0 0 1
460 60.5700492858886719 100 0 0 1
411 60.5700492858886719 100 0 0 1
411 54.5700492858886719 100 0 0 1
376 54.5700492858886719 0 0 0 -1
376 60.5700492858886719 0 0 0 -1
356 60.5700492858886719 0 0 0 -1
356 54.5700492858886719 0 0 0 -1
376 54.5700492858886719 100 0 0 1
376 60.5700492858886719 100 0 0 1
356 60.5700492858886719 100 0 0 1
356 54.5700492858886719 100 0 0 1
197.504669189453125 410 0 0 0 -1
191.504669189453125 410 0 0 0 -1
191.504669189453125 356 0 0 0 -1
197.504669189453125 356 0 0 0 -1
197.504669189453125 410 100 0 0 1
191.504669189453125 410 100 0 0 1
191.504669189453125 356 100 0 0 1
197.504669189453125 356 100 0 0 1
198 265 0 0 0 -1
192 265 0 0 0 -1
192 208 0 0 0 -1
198 214 0 0 0 -1
198 265 100 0 0 1
192 265 100 0 0 1
192 208 100 0 0 1
198 214 100 0 0 1
198 214 0 0 0 -1
192 208 0 0 0 -1
337 208 0 0 0 -1
337 214 0 0 0 -1
198 214 100 0 0 1
192 208 100 0 0 1
337 208 100 0 0 1
337 214 100 0 0 1
429 283 0 0 0 -1
423 283 0 0 0 -1
423 214 0 0 0 -1
429 208 0 0 0 -1
429 283 100 0 0 1
423 283 100 0 0 1
423 214 100 0 0 1
429 208 100 0 0 1
429 208 0 0 0 -1
423 214 0 0 0 -1
376 214 0 0 0 -1
376 208 0 0 0 -1
429 208 100 0 0 1
423 214 100 0 0 1
376 214 100 0 0 1
376 208 100 0 0 1
429.5 394 0 0 0 -1
423.5 394 0 0 0 -1
423.5 310 0 0 0 -1
429.5 310 0 0 0 -1
429.5 394 100 0 0 1
423.5 394 100 0 0 1
423.5 310 100 0 0 1
429.5 310 100 0 0 1
576.88629150390625 335 0 0 0 -1
570.88629150390625 335 0 0 0 -1
570.88629150390625 308 0 0 0 -1
576.88629150390625 308 0 0 0 -1
576.88629150390625 335 100 0 0 1
570.88629150390625 335 100 0 0 1
570.88629150390625 308 100 0 0 1
576.88629150390625 308 100 0 0 1
577 114 0 0 0 -1
571 114 0 0 0 -1
571 58 0 0 0 -1
577 58 0 0 0 -1
577 114 100 0 0 1
571 114 100 0 0 1
571 58 100 0 0 1
577 58 100 0 0 1
576.88629150390625 216 0 0 0 -1
570.88629150390625 216 0 0 0 -1
570.88629150390625 206 0 0 0 -1
576.88629150390625 206 0 0 0 -1
576.88629150390625 216 100 0 0 1
570.88629150390625 216 100 0 0 1
570.88629150390625 206 100 0 0 1
576.88629150390625 206 100 0 0 1
303.589569091796875 156 0 0 0 -1
297.589569091796875 156 0 0 0 -1
297.589569091796875 60 0 0 0 -1
303.589569091796875 60 0 0 0 -1
303.589569091796875 156 100 0 0 1
297.589569091796875 156 100 0 0 1
297.589569091796875 60 100 0 0 1
303.589569091796875 60 100 0 0 1
303.589569091796875 210 0 0 0 -1
297.589569091796875 210 0 0 0 -1
297.589569091796875 184 0 0 0 -1
303.589569091796875 184 0 0 0 -1
303.589569091796875 210 100 0 0 1
297.589569091796875 210 100 0 0 1
297.589569091796875 184 100 0 0 1
303.589569091796875 184 100 0 0 1
154 215 0 0 0 -1
148 215 0 0 0 -1
148 190 0 0 0 -1
154 190 0 0 0 -1
154 215 100 0 0 1
148 215 100 0 0 1
148 190 100 0 0 1
154 190 100 0 0 1
514 39.2659339904785156 0 0 0 -1
514 45.2659339904785156 0 0 0 -1
457 45.2659339904785156 0 0 0 -1
457 39.2659339904785156 0 0 0 -1
514 39.2659339904785156 100 0 0 1
514 45.2659339904785156 100 0 0 1
457 45.2659339904785156 100 0 0 1
457 39.2659339904785156 100 0 0 1
341.423736572265625 139 0 0 0 -1
335.423736572265625 139 0 0 0 -1
335.423736572265625 114 0 0 0 -1
341.423736572265625 114 0 0 0 -1
341.423736572265625 139 100 0 0 1
335.423736572265625 139 100 0 0 1
335.423736572265625 114 100 0 0 1
341.423736572265625 114 100 0 0 1
379.5111083984375 283 0 0 0 -1
373.5111083984375 283 0 0 0 -1
373.5111083984375 237 0 0 0 -1
379.5111083984375 237 0 0 0 -1
379.5111083984375 283 100 0 0 1
373.5111083984375 283 100 0 0 1
373.5111083984375 237 100 0 0 1
379.5111083984375 237 100 0 0 1
299 115.595741271972656 0 0 0 -1
299 121.595741271972656 0 0 0 -1
243 121.595741271972656 0 0 0 -1
243 115.595741271972656 0 0 0 -1
299 115.595741271972656 100 0 0 1
299 121.595741271972656 100 0 0 1
243 121.595741271972656 100 0 0 1
243 115.595741271972656 100 0 0 1
220 407 0 0 0 -1
220 413 0 0 0 -1
195 413 0 0 0 -1
195 407 0 0 0 -1
220 407 100 0 0 1
220 413 100 0 0 1
195 413 100 0 0 1
195 407 100 0 0 1
425 256 0 0 0 -1
425 262 0 0 0 -1
378 262 0 0 0 -1
378 256 0 0 0 -1
425 256 100 0 0 1
425 262 100 0 0 1
378 262 100 0 0 1
378 256 100 0 0 1
576.88531494140625 427.924041748046875 0 0 0 -1
570.88726806640625 428.075958251953125 0 0 0 -1
569.998779296875 392.990509033203125 0 0 0 -1
575.92486572265625 389.99432373046875 0 0 0 -1
576.88531494140625 427.924041748046875 100 0 0 1
570.88726806640625 428.075958251953125 100 0 0 1
569.998779296875 392.990509033203125 100 0 0 1
575.92486572265625 389.99432373046875 100 0 0 1
575.90673828125 395.994354248046875 0 0 0 -1
569.998779296875 392.990509033203125 0 0 0 -1
570.8878173828125 364.90509033203125 0 0 0 -1
576.884765625 365.09490966796875 0 0 0 -1
575.90673828125 395.994354248046875 100 0 0 1
569.998779296875 392.990509033203125 100 0 0 1
570.8878173828125 364.90509033203125 100 0 0 1
576.884765625 365.09490966796875 100 0 0 1
575.92486572265625 389.99432373046875 0 0 0 -1
575.90673828125 395.994354248046875 0 0 0 -1
481.005828857421875 396.178558349609375 0 0 0 -1
480.994171142578125 390.1785888671875 0 0 0 -1
575.92486572265625 389.99432373046875 100 0 0 1
575.90673828125 395.994354248046875 100 0 0 1
481.005828857421875 396.178558349609375 100 0 0 1
480.994171142578125 390.1785888671875 100 0 0 1
570.8873291015625 491.92181396484375 0 0 0 -1
576.88525390625 492.07818603515625 0 0 0 -1
575.92364501953125 528.9683837890625 0 0 0 -1
570.07635498046875 523.0316162109375 0 0 0 -1
570.8873291015625 491.92181396484375 100 0 0 1
576.88525390625 492.07818603515625 100 0 0 1
575.92364501953125 528.9683837890625 100 0 0 1
570.07635498046875 523.0316162109375 100 0 0 1
570.07635498046875 523.0316162109375 0 0 0 -1
575.92364501953125 528.9683837890625 0 0 0 -1
541.03265380859375 529.34814453125 0 0 0 -1
540.96734619140625 523.3485107421875 0 0 0 -1
570.07635498046875 523.0316162109375 100 0 0 1
575.92364501953125 528.9683837890625 100 0 0 1
541.03265380859375 529.34814453125 100 0 0 1
540.96734619140625 523.3485107421875 100 0 0 1
398.279510498046875 409.992767333984375 0 0 0 -1
404.27947998046875 410.007232666015625 0 0 0 -1
404.007232666015625 523 0 0 0 -1
397.992767333984375 529 0 0 0 -1
398.279510498046875 409.992767333984375 100 0 0 1
404.27947998046875 410.007232666015625 100 0 0 1
404.007232666015625 523 100 0 0 1
397.992767333984375 529 100 0 0 1
397.992767333984375 529 0 0 0 -1
404.007232666015625 523 0 0 0 -1
431 523 0 0 0 -1
431 529 0 0 0 -1
397.992767333984375 529 100 0 0 1
404.007232666015625 523 100 0 0 1
431 523 100 0 0 1
431 529 100 0 0 1
335.42388916015625 369.968231201171875 0 0 0 -1
341.423553466796875 370.031768798828125 0 0 0 -1
340.968963623046875 412.944671630859375 0 0 0 -1
335.031036376953125 407.055328369140625 0 0 0 -1
335.42388916015625 369.968231201171875 100 0 0 1
341.423553466796875 370.031768798828125 100 0 0 1
340.968963623046875 412.944671630859375 100 0 0 1
335.031036376953125 407.055328369140625 100 0 0 1
335.031036376953125 407.055328369140625 0 0 0 -1
340.968963623046875 412.944671630859375 0 0 0 -1
312.056427001953125 413.48858642578125 0 0 0 -1
311.943572998046875 407.489654541015625 0 0 0 -1
335.031036376953125 407.055328369140625 100 0 0 1
340.968963623046875 412.944671630859375 100 0 0 1
312.056427001953125 413.48858642578125 100 0 0 1
311.943572998046875 407.489654541015625 100 0 0 1
569.998779296875 392.990509033203125 0 0 0 -1
575.90673828125 395.994354248046875 0 0 0 -1
575.92486572265625 389.99432373046875 0 0 0 -1
569.998779296875 392.990509033203125 100 0 0 1
575.90673828125 395.994354248046875 100 0 0 1
575.92486572265625 389.99432373046875 100 0 0 1
4 0 1 2 3
4 4 5 6 7
4 8 9 10 11
4 12 13 14 15
4 16 17 18 19
4 20 21 22 23
4 24 25 26 27
4 28 29 30 31
4 32 33 34 35
4 36 37 38 39
4 40 41 42 43
4 44 45 46 47
4 48 49 50 51
4 52 53 54 55
4 56 57 58 59
4 60 61 62 63
4 64 65 66 67
4 68 69 70 71
4 72 73 74 75
4 76 77 78 79
4 80 81 82 83
4 84 85 86 87
4 88 89 90 91
4 92 93 94 95
4 96 97 98 99
4 100 101 102 103
4 104 105 106 107
4 108 109 110 111
4 112 113 114 115
4 116 117 118 119
4 120 121 122 123
4 124 125 126 127
4 128 129 130 131
4 132 133 134 135
4 136 137 138 139
4 140 141 142 143
4 144 145 146 147
4 148 149 150 151
4 152 153 154 155
4 156 157 158 159
4 160 161 162 163
4 164 165 166 167
4 168 169 170 171
4 172 173 174 175
4 176 177 178 179
4 180 181 182 183
4 184 185 186 187
4 188 189 190 191
4 192 193 194 195
4 196 197 198 199
4 200 201 202 203
4 204 205 206 207
4 208 209 210 211
4 212 213 214 215
4 216 217 218 219
4 220 221 222 223
4 224 225 226 227
4 228 229 230 231
4 232 233 234 235
4 236 237 238 239
4 240 241 242 243
4 244 245 246 247
4 248 249 250 251
4 252 253 254 255
4 256 257 258 259
4 260 261 262 263
4 264 265 266 267
4 268 269 270 271
4 272 273 274 275
4 276 277 278 279
4 280 281 282 283
4 284 285 286 287
4 288 289 290 291
4 292 293 294 295
4 296 297 298 299
4 300 301 302 303
4 304 305 306 307
4 308 309 310 311
4 312 313 314 315
4 316 317 318 319
4 320 321 322 323
4 324 325 326 327
4 328 329 330 331
4 332 333 334 335
4 336 337 338 339
4 340 341 342 343
4 344 345 346 347
4 348 349 350 351
4 352 353 354 355
4 356 357 358 359
4 360 361 362 363
4 364 365 366 367
4 368 369 370 371
4 372 373 374 375
4 376 377 378 379
4 380 381 382 383
4 384 385 386 387
4 388 389 390 391
4 392 393 394 395
4 396 397 398 399
4 400 401 402 403
4 404 405 406 407
4 408 409 410 411
4 412 413 414 415
4 416 417 418 419
4 420 421 422 423
4 424 425 426 427
4 428 429 430 431
4 432 433 434 435
4 436 437 438 439
4 440 441 442 443
4 444 445 446 447
4 448 449 450 451
4 452 453 454 455
4 456 457 458 459
4 460 461 462 463
4 464 465 466 467
4 468 469 470 471
4 472 473 474 475
4 476 477 478 479
4 480 481 482 483
4 484 485 486 487
4 488 489 490 491
4 492 493 494 495
4 496 497 498 499
4 500 501 502 503
4 504 505 506 507
4 508 509 510 511
4 512 513 514 515
4 516 517 518 519
4 520 521 522 523
4 524 525 526 527
4 528 529 530 531
4 532 533 534 535
4 536 537 538 539
4 540 541 542 543
4 544 545 546 547
4 548 549 550 551
4 552 553 554 555
4 556 557 558 559
4 560 561 562 563
4 564 565 566 567
4 568 569 570 571
4 572 573 574 575
4 576 577 578 579
4 580 581 582 583
4 584 585 586 587
4 588 589 590 591
4 592 593 594 595
4 596 597 598 599
4 600 601 602 603
4 604 605 606 607
4 608 609 610 611
4 612 613 614 615
4 616 617 618 619
4 620 621 622 623
4 624 625 626 627
4 628 629 630 631
4 632 633 634 635
4 636 637 638 639
4 640 641 642 643
4 644 645 646 647
4 648 649 650 651
4 652 653 654 655
4 656 657 658 659
4 660 661 662 663
4 664 665 666 667
4 668 669 670 671
4 672 673 674 675
4 676 677 678 679
4 680 681 682 683
4 684 685 686 687
4 688 689 690 691
4 692 693 694 695
4 696 697 698 699
4 700 701 702 703
4 704 705 706 707
4 708 709 710 711
4 712 713 714 715
4 716 717 718 719
4 720 721 722 723
4 724 725 726 727
4 728 729 730 731
3 732 733 734
3 735 736 737
