ply
format ascii 1.0
element vertex 1012
property float x
property float y
property float z
property float nx
property float ny
property float nz
element quads 253
property list uchar int vertex_indices
end_header
625.49432373046875 344 0 1 0 0
625.49432373046875 225 0 1 0 0
625.49432373046875 225 100 1 0 0
625.49432373046875 344 100 1 0 0
619.49432373046875 344 0 -1 -0 0
619.49432373046875 225 0 -1 -0 0
619.49432373046875 225 100 -1 -0 0
619.49432373046875 344 100 -1 -0 0
625.49432373046875 532 0 1 0 0
625.49432373046875 382 0 1 0 0
625.49432373046875 382 100 1 0 0
625.49432373046875 532 100 1 0 0
619.49432373046875 532 0 -1 -0 0
619.49432373046875 382 0 -1 -0 0
619.49432373046875 382 100 -1 -0 0
619.49432373046875 532 100 -1 -0 0
625 125 0 1 0 0
625 44 0 1 0 0
625 44 100 1 0 0
625 125 100 1 0 0
619 125 0 -1 -0 0
619 50 0 -1 -0 0
619 50 100 -1 -0 0
619 125 100 -1 -0 0
625 44 0 -0 -1 0
597 44 0 -0 -1 0
597 44 100 -0 -1 0
625 44 100 -0 -1 0
619 50 0 0 1 0
597 50 0 0 1 0
597 50 100 0 1 0
619 50 100 0 1 0
625.49432373046875 201 0 1 0 0
625.49432373046875 149 0 1 0 0
625.49432373046875 149 100 1 0 0
625.49432373046875 201 100 1 0 0
619.49432373046875 201 0 -1 -0 0
619.49432373046875 149 0 -1 -0 0
619.49432373046875 149 100 -1 -0 0
619.49432373046875 201 100 -1 -0 0
207 142 0 1 0 0
207 50 0 1 0 0
207 50 100 1 0 0
207 142 100 1 0 0
201 142 0 -1 -0 0
201 44 0 -1 -0 0
201 44 100 -1 -0 0
201 142 100 -1 -0 0
207 50 0 -0 1 0
220 50 0 -0 1 0
220 50 100 -0 1 0
207 50 100 -0 1 0
201 44 0 0 -1 0
220 44 0 0 -1 0
220 44 100 0 -1 0
201 44 100 0 -1 0
207.02392578125 219 0 1 0 0
207.02392578125 166 0 1 0 0
207.02392578125 166 100 1 0 0
207.02392578125 219 100 1 0 0
201.02392578125 219 0 -1 -0 0
201.02392578125 166 0 -1 -0 0
201.02392578125 166 100 -1 -0 0
201.02392578125 219 100 -1 -0 0
370 44 0 -0 -1 0
244 44 0 -0 -1 0
244 44 100 -0 -1 0
370 44 100 -0 -1 0
364 50 0 0 1 0
244 50 0 0 1 0
244 50 100 0 1 0
364 50 100 0 1 0
364 50 0 -1 0 0
364 68 0 -1 0 0
364 68 100 -1 0 0
364 50 100 -1 0 0
370 44 0 1 -0 0
370 68 0 1 -0 0
370 68 100 1 -0 0
370 44 100 1 -0 0
550 44 0 -0 -1 0
521 44 0 -0 -1 0
521 44 100 -0 -1 0
550 44 100 -0 -1 0
550 50 0 0 1 0
527 50 0 0 1 0
527 50 100 0 1 0
550 50 100 0 1 0
521 44 0 -1 0 0
521 70 0 -1 0 0
521 70 100 -1 0 0
521 44 100 -1 0 0
527 50 0 1 -0 0
527 70 0 1 -0 0
527 70 100 1 -0 0
527 50 100 1 -0 0
449 102.289596557617188 0 -0 -1 0
431 102.289596557617188 0 -0 -1 0
431 102.289596557617188 100 -0 -1 0
449 102.289596557617188 100 -0 -1 0
449 108.289596557617188 0 0 1 0
431 108.289596557617188 0 0 1 0
431 108.289596557617188 100 0 1 0
449 108.289596557617188 100 0 1 0
536 102.289596557617188 0 -0 -1 0
495 102.289596557617188 0 -0 -1 0
495 102.289596557617188 100 -0 -1 0
536 102.289596557617188 100 -0 -1 0
536 108.289596557617188 0 0 1 0
495 108.289596557617188 0 0 1 0
495 108.289596557617188 100 0 1 0
536 108.289596557617188 100 0 1 0
288 352.67559814453125 0 -0 -1 0
249 352.67559814453125 0 -0 -1 0
249 352.67559814453125 100 -0 -1 0
288 352.67559814453125 100 -0 -1 0
288 358.67559814453125 0 0 1 0
249 358.67559814453125 0 0 1 0
249 358.67559814453125 100 0 1 0
288 358.67559814453125 100 0 1 0
548 527.5194091796875 0 -0 -1 0
510 527.5194091796875 0 -0 -1 0
510 527.5194091796875 100 -0 -1 0
548 527.5194091796875 100 -0 -1 0
548 533.5194091796875 0 0 1 0
510 533.5194091796875 0 0 1 0
510 533.5194091796875 100 0 1 0
548 533.5194091796875 100 0 1 0
370.156341552734375 381 0 1 0 0
370.156341552734375 329 0 1 0 0
370.156341552734375 329 100 1 0 0
370.156341552734375 381 100 1 0 0
364.156341552734375 381 0 -1 -0 0
364.156341552734375 329 0 -1 -0 0
364.156341552734375 329 100 -1 -0 0
364.156341552734375 381 100 -1 -0 0
370.156341552734375 102 0 1 0 0
370.156341552734375 85 0 1 0 0
370.156341552734375 85 100 1 0 0
370.156341552734375 102 100 1 0 0
364.156341552734375 102 0 -1 -0 0
364.156341552734375 85 0 -1 -0 0
364.156341552734375 85 100 -1 -0 0
364.156341552734375 102 100 -1 -0 0
370.156341552734375 115 0 1 0 0
370.156341552734375 105 0 1 0 0
370.156341552734375 105 100 1 0 0
370.156341552734375 115 100 1 0 0
364.156341552734375 115 0 -1 -0 0
364.156341552734375 105 0 -1 -0 0
364.156341552734375 105 100 -1 -0 0
364.156341552734375 115 100 -1 -0 0
548 376 0 1 0 0
548 321 0 1 0 0
548 321 100 1 0 0
548 376 100 1 0 0
542 376 0 -1 -0 0
542 321 0 -1 -0 0
542 321 100 -1 -0 0
542 376 100 -1 -0 0
545 327 0 -0 1 0
559 327 0 -0 1 0
559 327 100 -0 1 0
545 327 100 -0 1 0
542 321 0 0 -1 0
559 321 0 0 -1 0
559 321 100 0 -1 0
542 321 100 0 -1 0
548 321 0 -0 -1 0
524 321 0 -0 -1 0
524 321 100 -0 -1 0
548 321 100 -0 -1 0
545 327 0 0 1 0
524 327 0 0 1 0
524 327 100 0 1 0
545 327 100 0 1 0
472.407135009765625 374 0 1 0 0
472.407135009765625 354 0 1 0 0
472.407135009765625 354 100 1 0 0
472.407135009765625 374 100 1 0 0
466.407135009765625 374 0 -1 -0 0
466.407135009765625 354 0 -1 -0 0
466.407135009765625 354 100 -1 -0 0
466.407135009765625 374 100 -1 -0 0
472.407135009765625 403 0 1 0 0
472.407135009765625 391 0 1 0 0
472.407135009765625 391 100 1 0 0
472.407135009765625 403 100 1 0 0
466.407135009765625 403 0 -1 -0 0
466.407135009765625 391 0 -1 -0 0
466.407135009765625 391 100 -1 -0 0
466.407135009765625 403 100 -1 -0 0
526.78314208984375 324 0 1 0 0
526.78314208984375 297 0 1 0 0
526.78314208984375 297 100 1 0 0
526.78314208984375 324 100 1 0 0
520.78314208984375 324 0 -1 -0 0
520.78314208984375 297 0 -1 -0 0
520.78314208984375 297 100 -1 -0 0
520.78314208984375 324 100 -1 -0 0
526.78314208984375 102 0 1 0 0
526.78314208984375 90 0 1 0 0
526.78314208984375 90 100 1 0 0
526.78314208984375 102 100 1 0 0
520.78314208984375 102 0 -1 -0 0
520.78314208984375 90 0 -1 -0 0
520.78314208984375 90 100 -1 -0 0
520.78314208984375 102 100 -1 -0 0
508 240.484130859375 0 -0 -1 0
483 240.484130859375 0 -0 -1 0
483 240.484130859375 100 -0 -1 0
508 240.484130859375 100 -0 -1 0
508 246.484130859375 0 0 1 0
483 246.484130859375 0 0 1 0
483 246.484130859375 100 0 1 0
508 246.484130859375 100 0 1 0
306 240.484130859375 0 -0 -1 0
285 240.484130859375 0 -0 -1 0
285 240.484130859375 100 -0 -1 0
306 240.484130859375 100 -0 -1 0
306 246.484130859375 0 0 1 0
285 246.484130859375 0 0 1 0
285 246.484130859375 100 0 1 0
306 246.484130859375 100 0 1 0
357 265.07080078125 0 -0 -1 0
305 265.07080078125 0 -0 -1 0
305 265.07080078125 100 -0 -1 0
357 265.07080078125 100 -0 -1 0
357 271.07080078125 0 0 1 0
305 271.07080078125 0 0 1 0
305 271.07080078125 100 0 1 0
357 271.07080078125 100 0 1 0
264 265.07080078125 0 -0 -1 0
253 265.07080078125 0 -0 -1 0
253 265.07080078125 100 -0 -1 0
264 265.07080078125 100 -0 -1 0
264 271.07080078125 0 0 1 0
253 271.07080078125 0 0 1 0
253 271.07080078125 100 0 1 0
264 271.07080078125 100 0 1 0
253 207 0 -0 -1 0
226 207 0 -0 -1 0
226 207 100 -0 -1 0
253 207 100 -0 -1 0
253 213 0 0 1 0
226 213 0 0 1 0
226 213 100 0 1 0
253 213 100 0 1 0
291 367 0 1 0 0
291 356 0 1 0 0
291 356 100 1 0 0
291 367 100 1 0 0
285 373 0 -1 -0 0
285 356 0 -1 -0 0
285 356 100 -1 -0 0
285 373 100 -1 -0 0
285 373 0 -0 1 0
300 373 0 -0 1 0
300 373 100 -0 1 0
285 373 100 -0 1 0
291 367 0 0 -1 0
300 367 0 0 -1 0
300 367 100 0 -1 0
291 367 100 0 -1 0
309.5 77 0 1 0 0
309.5 61 0 1 0 0
309.5 61 100 1 0 0
309.5 77 100 1 0 0
303.5 77 0 -1 -0 0
303.5 61 0 -1 -0 0
303.5 61 100 -1 -0 0
303.5 77 100 -1 -0 0
290.621307373046875 109.621322631835938 0 0.70710676908493042 0.70710676908493042 0
305.621307373046875 94.6213226318359375 0 0.70710676908493042 0.70710676908493042 0
305.621307373046875 94.6213226318359375 100 0.70710676908493042 0.70710676908493042 0
290.621307373046875 109.621322631835938 100 0.70710676908493042 0.70710676908493042 0
286.378692626953125 105.378677368164062 0 -0.70710676908493042 -0.70710676908493042 0
301.378692626953125 90.3786773681640625 0 -0.70710676908493042 -0.70710676908493042 0
301.378692626953125 90.3786773681640625 100 -0.70710676908493042 -0.70710676908493042 0
286.378692626953125 105.378677368164062 100 -0.70710676908493042 -0.70710676908493042 0
498 291 0 1 0 0
498 269 0 1 0 0
498 269 100 1 0 0
498 291 100 1 0 0
492 291 0 -1 -0 0
492 269 0 -1 -0 0
492 269 100 -1 -0 0
492 291 100 -1 -0 0
201.02392578125 242.999359130859375 0 -1 -0.000211765218409709632 0
200.999359130859375 359 0 -1 -0.000211765218409709632 0
200.999359130859375 359 100 -1 -0.000211765218409709632 0
201.02392578125 242.999359130859375 100 -1 -0.000211765218409709632 0
207.02392578125 243.000640869140625 0 1 0.000211765218409709632 0
207.000640869140625 353 0 1 0.000211765218409709632 0
207.000640869140625 353 100 1 0.000211765218409709632 0
207.02392578125 243.000640869140625 100 1 0.000211765218409709632 0
200.999359130859375 359 0 -0 1 0
224 359 0 -0 1 0
224 359 100 -0 1 0
200.999359130859375 359 100 -0 1 0
207.000640869140625 353 0 0 -1 0
224 353 0 0 -1 0
224 353 100 0 -1 0
207.000640869140625 353 100 0 -1 0
424 353 0 -0 -1 0
415.001251220703125 353 0 -0 -1 0
415.001251220703125 353 100 -0 -1 0
424 353 100 -0 -1 0
424 359 0 0 1 0
408.998748779296875 359 0 0 1 0
408.998748779296875 359 100 0 1 0
424 359 100 0 1 0
415.001251220703125 353 0 0.999999940395355225 0.000416666618548333645 0
415.01251220703125 326.001251220703125 0 0.999999940395355225 0.000416666618548333645 0
415.01251220703125 326.001251220703125 100 0.999999940395355225 0.000416666618548333645 0
415.001251220703125 353 100 0.999999940395355225 0.000416666618548333645 0
408.998748779296875 359 0 -0.999999940395355225 -0.000416666618548333645 0
409.01251220703125 325.998748779296875 0 -0.999999940395355225 -0.000416666618548333645 0
409.01251220703125 325.998748779296875 100 -0.999999940395355225 -0.000416666618548333645 0
408.998748779296875 359 100 -0.999999940395355225 -0.000416666618548333645 0
486 528 0 -0 -1 0
472.103515625 528 0 -0 -1 0
472.103515625 528 100 -0 -1 0
486 528 100 -0 -1 0
486 534 0 0 1 0
465.896484375 534 0 0 1 0
465.896484375 534 100 0 1 0
486 534 100 0 1 0
472.103515625 528 0 0.999424934387207031 0.0339090600609779358 0
472.405426025390625 519.10174560546875 0 0.999424934387207031 0.0339090600609779358 0
472.405426025390625 519.10174560546875 100 0.999424934387207031 0.0339090600609779358 0
472.103515625 528 100 0.999424934387207031 0.0339090600609779358 0
465.896484375 534 0 -0.999424934387207031 -0.0339090600609779358 0
466.40887451171875 518.89825439453125 0 -0.999424934387207031 -0.0339090600609779358 0
466.40887451171875 518.89825439453125 100 -0.999424934387207031 -0.0339090600609779358 0
465.896484375 534 100 -0.999424934387207031 -0.0339090600609779358 0
458 240 0 -0 -1 0
440.025299072265625 240 0 -0 -1 0
440.025299072265625 240 100 -0 -1 0
458 240 100 -0 -1 0
458 246 0 0 1 0
433.974700927734375 246 0 0 1 0
433.974700927734375 246 100 0 1 0
458 246 100 0 1 0
440.025299072265625 240 0 0.999964714050292969 0.0083993496373295784 0
440.327484130859375 204.025192260742188 0 0.999964714050292969 0.0083993496373295784 0
440.327484130859375 204.025192260742188 100 0.999964714050292969 0.0083993496373295784 0
440.025299072265625 240 100 0.999964714050292969 0.0083993496373295784 0
433.974700927734375 246 0 -0.999964714050292969 -0.0083993496373295784 0
434.32769775390625 203.974807739257812 0 -0.999964714050292969 -0.0083993496373295784 0
434.32769775390625 203.974807739257812 100 -0.999964714050292969 -0.0083993496373295784 0
433.974700927734375 246 100 -0.999964714050292969 -0.0083993496373295784 0
539.666748046875 244.060134887695312 0 -0.769626975059509277 -0.638493776321411133 0
525.6131591796875 261 0 -0.769626975059509277 -0.638493776321411133 0
525.6131591796875 261 100 -0.769626975059509277 -0.638493776321411133 0
539.666748046875 244.060134887695312 100 -0.769626975059509277 -0.638493776321411133 0
544.28448486328125 247.891098022460938 0 0.769626975059509277 0.638493776321411133 0
538.3868408203125 255 0 0.769626975059509277 0.638493776321411133 0
538.3868408203125 255 100 0.769626975059509277 0.638493776321411133 0
544.28448486328125 247.891098022460938 100 0.769626975059509277 0.638493776321411133 0
525.6131591796875 261 0 -0 1 0
543 261 0 -0 1 0
543 261 100 -0 1 0
525.6131591796875 261 100 -0 1 0
538.3868408203125 255 0 0 -1 0
543 255 0 0 -1 0
543 255 100 0 -1 0
538.3868408203125 255 100 0 -1 0
625.49432373046875 344 0 620.238037109375 342.1092529296875 0
619.49432373046875 344 0 620.238037109375 342.1092529296875 0
619.49432373046875 344 100 620.238037109375 342.1092529296875 0
625.49432373046875 344 100 620.238037109375 342.1092529296875 0
625.49432373046875 225 0 620.238037109375 222.109237670898438 0
619.49432373046875 225 0 620.238037109375 222.109237670898438 0
619.49432373046875 225 100 620.238037109375 222.109237670898438 0
625.49432373046875 225 100 620.238037109375 222.109237670898438 0
625.49432373046875 532 0 621.3243408203125 529.45330810546875 0
619.49432373046875 532 0 621.3243408203125 529.45330810546875 0
619.49432373046875 532 100 621.3243408203125 529.45330810546875 0
625.49432373046875 532 100 621.3243408203125 529.45330810546875 0
625.49432373046875 382 0 621.3243408203125 378.453338623046875 0
619.49432373046875 382 0 621.3243408203125 378.453338623046875 0
619.49432373046875 382 100 621.3243408203125 378.453338623046875 0
625.49432373046875 382 100 621.3243408203125 378.453338623046875 0
625 125 0 617.283935546875 124.456787109375 0
619 125 0 617.283935546875 124.456787109375 0
619 125 100 617.283935546875 124.456787109375 0
625 125 100 617.283935546875 124.456787109375 0
625.49432373046875 201 0 613.465576171875 198.134613037109375 0
619.49432373046875 201 0 613.465576171875 198.134613037109375 0
619.49432373046875 201 100 613.465576171875 198.134613037109375 0
625.49432373046875 201 100 613.465576171875 198.134613037109375 0
625.49432373046875 149 0 613.465576171875 145.134613037109375 0
619.49432373046875 149 0 613.465576171875 145.134613037109375 0
619.49432373046875 149 100 613.465576171875 145.134613037109375 0
625.49432373046875 149 100 613.465576171875 145.134613037109375 0
207 142 0 204.75 141.456527709960938 0
201 142 0 204.75 141.456527709960938 0
201 142 100 204.75 141.456527709960938 0
207 142 100 204.75 141.456527709960938 0
207.02392578125 219 0 203.117813110351562 215.867919921875 0
201.02392578125 219 0 203.117813110351562 215.867919921875 0
201.02392578125 219 100 203.117813110351562 215.867919921875 0
207.02392578125 219 100 203.117813110351562 215.867919921875 0
207.02392578125 166 0 203.117813110351562 161.867919921875 0
201.02392578125 166 0 203.117813110351562 161.867919921875 0
201.02392578125 166 100 203.117813110351562 161.867919921875 0
207.02392578125 166 100 203.117813110351562 161.867919921875 0
244 44 0 241.063491821289062 43.6507949829101562 0
244 50 0 241.063491821289062 43.6507949829101562 0
244 50 100 241.063491821289062 43.6507949829101562 0
244 44 100 241.063491821289062 43.6507949829101562 0
550 44 0 532.03448486328125 42.482757568359375 0
550 50 0 532.03448486328125 42.482757568359375 0
550 50 100 532.03448486328125 42.482757568359375 0
550 44 100 532.03448486328125 42.482757568359375 0
597 44 0 574.6785888671875 42.4285697937011719 0
597 50 0 574.6785888671875 42.4285697937011719 0
597 50 100 574.6785888671875 42.4285697937011719 0
597 44 100 574.6785888671875 42.4285697937011719 0
220 50 0 204.076919555664062 46.1538467407226562 0
220 44 0 204.076919555664062 46.1538467407226562 0
220 44 100 204.076919555664062 46.1538467407226562 0
220 50 100 204.076919555664062 46.1538467407226562 0
449 102.289596557617188 0 425.0555419921875 96.6068344116210938 0
449 108.289596557617188 0 425.0555419921875 96.6068344116210938 0
449 108.289596557617188 100 425.0555419921875 96.6068344116210938 0
449 102.289596557617188 100 425.0555419921875 96.6068344116210938 0
431 102.289596557617188 0 406.0555419921875 96.6068344116210938 0
431 108.289596557617188 0 406.0555419921875 96.6068344116210938 0
431 108.289596557617188 100 406.0555419921875 96.6068344116210938 0
431 102.289596557617188 100 406.0555419921875 96.6068344116210938 0
536 102.289596557617188 0 523.92681884765625 99.7947235107421875 0
536 108.289596557617188 0 523.92681884765625 99.7947235107421875 0
536 108.289596557617188 100 523.92681884765625 99.7947235107421875 0
536 102.289596557617188 100 523.92681884765625 99.7947235107421875 0
495 102.289596557617188 0 481.92681884765625 99.7947235107421875 0
495 108.289596557617188 0 481.92681884765625 99.7947235107421875 0
495 108.289596557617188 100 481.92681884765625 99.7947235107421875 0
495 102.289596557617188 100 481.92681884765625 99.7947235107421875 0
288 352.67559814453125 0 281.615386962890625 343.63262939453125 0
288 358.67559814453125 0 281.615386962890625 343.63262939453125 0
288 358.67559814453125 100 281.615386962890625 343.63262939453125 0
288 352.67559814453125 100 281.615386962890625 343.63262939453125 0
249 352.67559814453125 0 241.615386962890625 343.63262939453125 0
249 358.67559814453125 0 241.615386962890625 343.63262939453125 0
249 358.67559814453125 100 241.615386962890625 343.63262939453125 0
249 352.67559814453125 100 241.615386962890625 343.63262939453125 0
548 527.5194091796875 0 534.57891845703125 513.6373291015625 0
548 533.5194091796875 0 534.57891845703125 513.6373291015625 0
548 533.5194091796875 100 534.57891845703125 513.6373291015625 0
548 527.5194091796875 100 534.57891845703125 513.6373291015625 0
510 527.5194091796875 0 495.578948974609375 513.6373291015625 0
510 533.5194091796875 0 495.578948974609375 513.6373291015625 0
510 533.5194091796875 100 495.578948974609375 513.6373291015625 0
510 527.5194091796875 100 495.578948974609375 513.6373291015625 0
370.156341552734375 381 0 363.037933349609375 374.673065185546875 0
364.156341552734375 381 0 363.037933349609375 374.673065185546875 0
364.156341552734375 381 100 363.037933349609375 374.673065185546875 0
370.156341552734375 381 100 363.037933349609375 374.673065185546875 0
370.156341552734375 329 0 363.037933349609375 321.673065185546875 0
364.156341552734375 329 0 363.037933349609375 321.673065185546875 0
364.156341552734375 329 100 363.037933349609375 321.673065185546875 0
370.156341552734375 329 100 363.037933349609375 321.673065185546875 0
364 68 0 343.77777099609375 65.2222213745117188 0
370 68 0 343.77777099609375 65.2222213745117188 0
370 68 100 343.77777099609375 65.2222213745117188 0
364 68 100 343.77777099609375 65.2222213745117188 0
370.156341552734375 102 0 348.382415771484375 97 0
364.156341552734375 102 0 348.382415771484375 97 0
364.156341552734375 102 100 348.382415771484375 97 0
370.156341552734375 102 100 348.382415771484375 97 0
370.156341552734375 85 0 348.382415771484375 79 0
364.156341552734375 85 0 348.382415771484375 79 0
364.156341552734375 85 100 348.382415771484375 79 0
370.156341552734375 85 100 348.382415771484375 79 0
370.156341552734375 115 0 333.14068603515625 104.5 0
364.156341552734375 115 0 333.14068603515625 104.5 0
364.156341552734375 115 100 333.14068603515625 104.5 0
370.156341552734375 115 100 333.14068603515625 104.5 0
370.156341552734375 105 0 333.14068603515625 93.5 0
364.156341552734375 105 0 333.14068603515625 93.5 0
364.156341552734375 105 100 333.14068603515625 93.5 0
370.156341552734375 105 100 333.14068603515625 93.5 0
548 376 0 538.036376953125 370.16363525390625 0
542 376 0 538.036376953125 370.16363525390625 0
542 376 100 538.036376953125 370.16363525390625 0
548 376 100 538.036376953125 370.16363525390625 0
472.407135009765625 374 0 448.786773681640625 356.29998779296875 0
466.407135009765625 374 0 448.786773681640625 356.29998779296875 0
466.407135009765625 374 100 448.786773681640625 356.29998779296875 0
472.407135009765625 374 100 448.786773681640625 356.29998779296875 0
472.407135009765625 354 0 448.786773681640625 335.29998779296875 0
466.407135009765625 354 0 448.786773681640625 335.29998779296875 0
466.407135009765625 354 100 448.786773681640625 335.29998779296875 0
472.407135009765625 354 100 448.786773681640625 335.29998779296875 0
472.407135009765625 403 0 433.039886474609375 370.416656494140625 0
466.407135009765625 403 0 433.039886474609375 370.416656494140625 0
466.407135009765625 403 100 433.039886474609375 370.416656494140625 0
472.407135009765625 403 100 433.039886474609375 370.416656494140625 0
472.407135009765625 391 0 433.039886474609375 357.416656494140625 0
466.407135009765625 391 0 433.039886474609375 357.416656494140625 0
466.407135009765625 391 100 433.039886474609375 357.416656494140625 0
472.407135009765625 391 100 433.039886474609375 357.416656494140625 0
521 70 0 500.9615478515625 68.3076934814453125 0
527 70 0 500.9615478515625 68.3076934814453125 0
527 70 100 500.9615478515625 68.3076934814453125 0
521 70 100 500.9615478515625 68.3076934814453125 0
526.78314208984375 324 0 507.27264404296875 313 0
520.78314208984375 324 0 507.27264404296875 313 0
520.78314208984375 324 100 507.27264404296875 313 0
526.78314208984375 324 100 507.27264404296875 313 0
526.78314208984375 297 0 507.27264404296875 285 0
520.78314208984375 297 0 507.27264404296875 285 0
520.78314208984375 297 100 507.27264404296875 285 0
526.78314208984375 297 100 507.27264404296875 285 0
526.78314208984375 102 0 482.884552001953125 94.5 0
520.78314208984375 102 0 482.884552001953125 94.5 0
520.78314208984375 102 100 482.884552001953125 94.5 0
526.78314208984375 102 100 482.884552001953125 94.5 0
526.78314208984375 90 0 482.884552001953125 81.5 0
520.78314208984375 90 0 482.884552001953125 81.5 0
520.78314208984375 90 100 482.884552001953125 81.5 0
526.78314208984375 90 100 482.884552001953125 81.5 0
508 240.484130859375 0 488.67999267578125 230.864761352539062 0
508 246.484130859375 0 488.67999267578125 230.864761352539062 0
508 246.484130859375 100 488.67999267578125 230.864761352539062 0
508 240.484130859375 100 488.67999267578125 230.864761352539062 0
483 240.484130859375 0 462.67999267578125 230.864761352539062 0
483 246.484130859375 0 462.67999267578125 230.864761352539062 0
483 246.484130859375 100 462.67999267578125 230.864761352539062 0
483 240.484130859375 100 462.67999267578125 230.864761352539062 0
306 240.484130859375 0 292.428558349609375 229.032501220703125 0
306 246.484130859375 0 292.428558349609375 229.032501220703125 0
306 246.484130859375 100 292.428558349609375 229.032501220703125 0
306 240.484130859375 100 292.428558349609375 229.032501220703125 0
285 240.484130859375 0 270.428558349609375 229.032501220703125 0
285 246.484130859375 0 270.428558349609375 229.032501220703125 0
285 246.484130859375 100 270.428558349609375 229.032501220703125 0
285 240.484130859375 100 270.428558349609375 229.032501220703125 0
357 265.07080078125 0 351.134613037109375 259.9732666015625 0
357 271.07080078125 0 351.134613037109375 259.9732666015625 0
357 271.07080078125 100 351.134613037109375 259.9732666015625 0
357 265.07080078125 100 351.134613037109375 259.9732666015625 0
305 265.07080078125 0 298.134613037109375 259.9732666015625 0
305 271.07080078125 0 298.134613037109375 259.9732666015625 0
305 271.07080078125 100 298.134613037109375 259.9732666015625 0
305 265.07080078125 100 298.134613037109375 259.9732666015625 0
264 265.07080078125 0 241 240.97344970703125 0
264 271.07080078125 0 241 240.97344970703125 0
264 271.07080078125 100 241 240.97344970703125 0
264 265.07080078125 100 241 240.97344970703125 0
253 265.07080078125 0 229 240.97344970703125 0
253 271.07080078125 0 229 240.97344970703125 0
253 271.07080078125 100 229 240.97344970703125 0
253 265.07080078125 100 229 240.97344970703125 0
253 207 0 244.629623413085938 199.333328247070312 0
253 213 0 244.629623413085938 199.333328247070312 0
253 213 100 244.629623413085938 199.333328247070312 0
253 207 100 244.629623413085938 199.333328247070312 0
226 207 0 216.629623413085938 199.333328247070312 0
226 213 0 216.629623413085938 199.333328247070312 0
226 213 100 216.629623413085938 199.333328247070312 0
226 207 100 216.629623413085938 199.333328247070312 0
291 356 0 264.545440673828125 322.6363525390625 0
285 356 0 264.545440673828125 322.6363525390625 0
285 356 100 264.545440673828125 322.6363525390625 0
291 356 100 264.545440673828125 322.6363525390625 0
309.5 77 0 290.15625 73.1875 0
303.5 77 0 290.15625 73.1875 0
303.5 77 100 290.15625 73.1875 0
309.5 77 100 290.15625 73.1875 0
309.5 61 0 290.15625 56.1875 0
303.5 61 0 290.15625 56.1875 0
303.5 61 100 290.15625 56.1875 0
309.5 61 100 290.15625 56.1875 0
290.621307373046875 109.621322631835938 0 276.214202880859375 105.16082763671875 0
286.378692626953125 105.378677368164062 0 276.214202880859375 105.16082763671875 0
286.378692626953125 105.378677368164062 100 276.214202880859375 105.16082763671875 0
290.621307373046875 109.621322631835938 100 276.214202880859375 105.16082763671875 0
305.621307373046875 94.6213226318359375 0 291.921295166015625 89.4537200927734375 0
301.378692626953125 90.3786773681640625 0 291.921295166015625 89.4537200927734375 0
301.378692626953125 90.3786773681640625 100 291.921295166015625 89.4537200927734375 0
305.621307373046875 94.6213226318359375 100 291.921295166015625 89.4537200927734375 0
498 291 0 475.3636474609375 278.772735595703125 0
492 291 0 475.3636474609375 278.772735595703125 0
492 291 100 475.3636474609375 278.772735595703125 0
498 291 100 475.3636474609375 278.772735595703125 0
498 269 0 475.3636474609375 255.772720336914062 0
492 269 0 475.3636474609375 255.772720336914062 0
492 269 100 475.3636474609375 255.772720336914062 0
498 269 100 475.3636474609375 255.772720336914062 0
559 327 0 520.0714111328125 303.642852783203125 0
559 321 0 520.0714111328125 303.642852783203125 0
559 321 100 520.0714111328125 303.642852783203125 0
559 327 100 520.0714111328125 303.642852783203125 0
524 321 0 501.166656494140625 307.625 0
524 327 0 501.166656494140625 307.625 0
524 327 100 501.166656494140625 307.625 0
524 321 100 501.166656494140625 307.625 0
300 373 0 281 348.133331298828125 0
300 367 0 281 348.133331298828125 0
300 367 100 281 348.133331298828125 0
300 373 100 281 348.133331298828125 0
201.02392578125 242.999359130859375 0 199.291183471679688 239.904556274414062 0
207.02392578125 243.000640869140625 0 199.291183471679688 239.904556274414062 0
207.02392578125 243.000640869140625 100 199.291183471679688 239.904556274414062 0
201.02392578125 242.999359130859375 100 199.291183471679688 239.904556274414062 0
224 359 0 215.261138916015625 343.3917236328125 0
224 353 0 215.261138916015625 343.3917236328125 0
224 353 100 215.261138916015625 343.3917236328125 0
224 359 100 215.261138916015625 343.3917236328125 0
424 353 0 377.882354736328125 313.7723388671875 0
424 359 0 377.882354736328125 313.7723388671875 0
424 359 100 377.882354736328125 313.7723388671875 0
424 353 100 377.882354736328125 313.7723388671875 0
415.01251220703125 326.001251220703125 0 399.641387939453125 312.92657470703125 0
409.01251220703125 325.998748779296875 0 399.641387939453125 312.92657470703125 0
409.01251220703125 325.998748779296875 100 399.641387939453125 312.92657470703125 0
415.01251220703125 326.001251220703125 100 399.641387939453125 312.92657470703125 0
486 528 0 452.027130126953125 490.004791259765625 0
486 534 0 452.027130126953125 490.004791259765625 0
486 534 100 452.027130126953125 490.004791259765625 0
486 528 100 452.027130126953125 490.004791259765625 0
472.405426025390625 519.10174560546875 0 419.380279541015625 459.798492431640625 0
466.40887451171875 518.89825439453125 0 419.380279541015625 459.798492431640625 0
466.40887451171875 518.89825439453125 100 419.380279541015625 459.798492431640625 0
472.405426025390625 519.10174560546875 100 419.380279541015625 459.798492431640625 0
458 240 0 433.519744873046875 226.647903442382812 0
458 246 0 433.519744873046875 226.647903442382812 0
458 246 100 433.519744873046875 226.647903442382812 0
458 240 100 433.519744873046875 226.647903442382812 0
440.327484130859375 204.025192260742188 0 428.096435546875 197.354095458984375 0
434.32769775390625 203.974807739257812 0 428.096435546875 197.354095458984375 0
434.32769775390625 203.974807739257812 100 428.096435546875 197.354095458984375 0
440.327484130859375 204.025192260742188 100 428.096435546875 197.354095458984375 0
539.666748046875 244.060134887695312 0 515.78662109375 232.2021484375 0
544.28448486328125 247.891098022460938 0 515.78662109375 232.2021484375 0
544.28448486328125 247.891098022460938 100 515.78662109375 232.2021484375 0
539.666748046875 244.060134887695312 100 515.78662109375 232.2021484375 0
543 261 0 512.76947021484375 245.9886474609375 0
543 255 0 512.76947021484375 245.9886474609375 0
543 255 100 512.76947021484375 245.9886474609375 0
543 261 100 512.76947021484375 245.9886474609375 0
625.49432373046875 344 0 0 0 -1
619.49432373046875 344 0 0 0 -1
619.49432373046875 225 0 0 0 -1
625.49432373046875 225 0 0 0 -1
625.49432373046875 344 100 0 0 1
619.49432373046875 344 100 0 0 1
619.49432373046875 225 100 0 0 1
625.49432373046875 225 100 0 0 1
625.49432373046875 532 0 0 0 -1
619.49432373046875 532 0 0 0 -1
619.49432373046875 382 0 0 0 -1
625.49432373046875 382 0 0 0 -1
625.49432373046875 532 100 0 0 1
619.49432373046875 532 100 0 0 1
619.49432373046875 382 100 0 0 1
625.49432373046875 382 100 0 0 1
625 125 0 0 0 -1
619 125 0 0 0 -1
619 50 0 0 0 -1
625 44 0 0 0 -1
625 125 100 0 0 1
619 125 100 0 0 1
619 50 100 0 0 1
625 44 100 0 0 1
625 44 0 0 0 -1
619 50 0 0 0 -1
597 50 0 0 0 -1
597 44 0 0 0 -1
625 44 100 0 0 1
619 50 100 0 0 1
597 50 100 0 0 1
597 44 100 0 0 1
625.49432373046875 201 0 0 0 -1
619.49432373046875 201 0 0 0 -1
619.49432373046875 149 0 0 0 -1
625.49432373046875 149 0 0 0 -1
625.49432373046875 201 100 0 0 1
619.49432373046875 201 100 0 0 1
619.49432373046875 149 100 0 0 1
625.49432373046875 149 100 0 0 1
207 142 0 0 0 -1
201 142 0 0 0 -1
201 44 0 0 0 -1
207 50 0 0 0 -1
207 142 100 0 0 1
201 142 100 0 0 1
201 44 100 0 0 1
207 50 100 0 0 1
207 50 0 0 0 -1
201 44 0 0 0 -1
220 44 0 0 0 -1
220 50 0 0 0 -1
207 50 100 0 0 1
201 44 100 0 0 1
220 44 100 0 0 1
220 50 100 0 0 1
207.02392578125 219 0 0 0 -1
201.02392578125 219 0 0 0 -1
201.02392578125 166 0 0 0 -1
207.02392578125 166 0 0 0 -1
207.02392578125 219 100 0 0 1
201.02392578125 219 100 0 0 1
201.02392578125 166 100 0 0 1
207.02392578125 166 100 0 0 1
370 44 0 0 0 -1
364 50 0 0 0 -1
244 50 0 0 0 -1
244 44 0 0 0 -1
370 44 100 0 0 1
364 50 100 0 0 1
244 50 100 0 0 1
244 44 100 0 0 1
364 50 0 0 0 -1
370 44 0 0 0 -1
370 68 0 0 0 -1
364 68 0 0 0 -1
364 50 100 0 0 1
370 44 100 0 0 1
370 68 100 0 0 1
364 68 100 0 0 1
550 44 0 0 0 -1
550 50 0 0 0 -1
527 50 0 0 0 -1
521 44 0 0 0 -1
550 44 100 0 0 1
550 50 100 0 0 1
527 50 100 0 0 1
521 44 100 0 0 1
521 44 0 0 0 -1
527 50 0 0 0 -1
527 70 0 0 0 -1
521 70 0 0 0 -1
521 44 100 0 0 1
527 50 100 0 0 1
527 70 100 0 0 1
521 70 100 0 0 1
449 102.289596557617188 0 0 0 -1
449 108.289596557617188 0 0 0 -1
431 108.289596557617188 0 0 0 -1
431 102.289596557617188 0 0 0 -1
449 102.289596557617188 100 0 0 1
449 108.289596557617188 100 0 0 1
431 108.289596557617188 100 0 0 1
431 102.289596557617188 100 0 0 1
536 102.289596557617188 0 0 0 -1
536 108.289596557617188 0 0 0 -1
495 108.289596557617188 0 0 0 -1
495 102.289596557617188 0 0 0 -1
536 102.289596557617188 100 0 0 1
536 108.289596557617188 100 0 0 1
495 108.289596557617188 100 0 0 1
495 102.289596557617188 100 0 0 1
288 352.67559814453125 0 0 0 -1
288 358.67559814453125 0 0 0 -1
249 358.67559814453125 0 0 0 -1
249 352.67559814453125 0 0 0 -1
288 352.67559814453125 100 0 0 1
288 358.67559814453125 100 0 0 1
249 358.67559814453125 100 0 0 1
249 352.67559814453125 100 0 0 1
548 527.5194091796875 0 0 0 -1
548 533.5194091796875 0 0 0 -1
510 533.5194091796875 0 0 0 -1
510 527.5194091796875 0 0 0 -1
548 527.5194091796875 100 0 0 1
548 533.5194091796875 100 0 0 1
510 533.5194091796875 100 0 0 1
510 527.5194091796875 100 0 0 1
370.156341552734375 381 0 0 0 -1
364.156341552734375 381 0 0 0 -1
364.156341552734375 329 0 0 0 -1
370.156341552734375 329 0 0 0 -1
370.156341552734375 381 100 0 0 1
364.156341552734375 381 100 0 0 1
364.156341552734375 329 100 0 0 1
370.156341552734375 329 100 0 0 1
370.156341552734375 102 0 0 0 -1
364.156341552734375 102 0 0 0 -1
364.156341552734375 85 0 0 0 -1
370.156341552734375 85 0 0 0 -1
370.156341552734375 102 100 0 0 1
364.156341552734375 102 100 0 0 1
364.156341552734375 85 100 0 0 1
370.156341552734375 85 100 0 0 1
370.156341552734375 115 0 0 0 -1
364.156341552734375 115 0 0 0 -1
364.156341552734375 105 0 0 0 -1
370.156341552734375 105 0 0 0 -1
370.156341552734375 115 100 0 0 1
364.156341552734375 115 100 0 0 1
364.156341552734375 105 100 0 0 1
370.156341552734375 105 100 0 0 1
548 376 0 0 0 -1
542 376 0 0 0 -1
542 321 0 0 0 -1
548 321 0 0 0 -1
548 376 100 0 0 1
542 376 100 0 0 1
542 321 100 0 0 1
548 321 100 0 0 1
545 327 0 0 0 -1
542 321 0 0 0 -1
559 321 0 0 0 -1
559 327 0 0 0 -1
545 327 100 0 0 1
542 321 100 0 0 1
559 321 100 0 0 1
559 327 100 0 0 1
548 321 0 0 0 -1
545 327 0 0 0 -1
524 327 0 0 0 -1
524 321 0 0 0 -1
548 321 100 0 0 1
545 327 100 0 0 1
524 327 100 0 0 1
524 321 100 0 0 1
472.407135009765625 374 0 0 0 -1
466.407135009765625 374 0 0 0 -1
466.407135009765625 354 0 0 0 -1
472.407135009765625 354 0 0 0 -1
472.407135009765625 374 100 0 0 1
466.407135009765625 374 100 0 0 1
466.407135009765625 354 100 0 0 1
472.407135009765625 354 100 0 0 1
472.407135009765625 403 0 0 0 -1
466.407135009765625 403 0 0 0 -1
466.407135009765625 391 0 0 0 -1
472.407135009765625 391 0 0 0 -1
472.407135009765625 403 100 0 0 1
466.407135009765625 403 100 0 0 1
466.407135009765625 391 100 0 0 1
472.407135009765625 391 100 0 0 1
526.78314208984375 324 0 0 0 -1
520.78314208984375 324 0 0 0 -1
520.78314208984375 297 0 0 0 -1
526.78314208984375 297 0 0 0 -1
526.78314208984375 324 100 0 0 1
520.78314208984375 324 100 0 0 1
520.78314208984375 297 100 0 0 1
526.78314208984375 297 100 0 0 1
526.78314208984375 102 0 0 0 -1
520.78314208984375 102 0 0 0 -1
520.78314208984375 90 0 0 0 -1
526.78314208984375 90 0 0 0 -1
526.78314208984375 102 100 0 0 1
520.78314208984375 102 100 0 0 1
520.78314208984375 90 100 0 0 1
526.78314208984375 90 100 0 0 1
508 240.484130859375 0 0 0 -1
508 246.484130859375 0 0 0 -1
483 246.484130859375 0 0 0 -1
483 240.484130859375 0 0 0 -1
508 240.484130859375 100 0 0 1
508 246.484130859375 100 0 0 1
483 246.484130859375 100 0 0 1
483 240.484130859375 100 0 0 1
306 240.484130859375 0 0 0 -1
306 246.484130859375 0 0 0 -1
285 246.484130859375 0 0 0 -1
285 240.484130859375 0 0 0 -1
306 240.484130859375 100 0 0 1
306 246.484130859375 100 0 0 1
285 246.484130859375 100 0 0 1
285 240.484130859375 100 0 0 1
357 265.07080078125 0 0 0 -1
357 271.07080078125 0 0 0 -1
305 271.07080078125 0 0 0 -1
305 265.07080078125 0 0 0 -1
357 265.07080078125 100 0 0 1
357 271.07080078125 100 0 0 1
305 271.07080078125 100 0 0 1
305 265.07080078125 100 0 0 1
264 265.07080078125 0 0 0 -1
264 271.07080078125 0 0 0 -1
253 271.07080078125 0 0 0 -1
253 265.07080078125 0 0 0 -1
264 265.07080078125 100 0 0 1
264 271.07080078125 100 0 0 1
253 271.07080078125 100 0 0 1
253 265.07080078125 100 0 0 1
253 207 0 0 0 -1
253 213 0 0 0 -1
226 213 0 0 0 -1
226 207 0 0 0 -1
253 207 100 0 0 1
253 213 100 0 0 1
226 213 100 0 0 1
226 207 100 0 0 1
291 367 0 0 0 -1
285 373 0 0 0 -1
285 356 0 0 0 -1
291 356 0 0 0 -1
291 367 100 0 0 1
285 373 100 0 0 1
285 356 100 0 0 1
291 356 100 0 0 1
285 373 0 0 0 -1
291 367 0 0 0 -1
300 367 0 0 0 -1
300 373 0 0 0 -1
285 373 100 0 0 1
291 367 100 0 0 1
300 367 100 0 0 1
300 373 100 0 0 1
309.5 77 0 0 0 -1
303.5 77 0 0 0 -1
303.5 61 0 0 0 -1
309.5 61 0 0 0 -1
309.5 77 100 0 0 1
303.5 77 100 0 0 1
303.5 61 100 0 0 1
309.5 61 100 0 0 1
290.621307373046875 109.621322631835938 0 0 0 -1
286.378692626953125 105.378677368164062 0 0 0 -1
301.378692626953125 90.3786773681640625 0 0 0 -1
305.621307373046875 94.6213226318359375 0 0 0 -1
290.621307373046875 109.621322631835938 100 0 0 1
286.378692626953125 105.378677368164062 100 0 0 1
301.378692626953125 90.3786773681640625 100 0 0 1
305.621307373046875 94.6213226318359375 100 0 0 1
498 291 0 0 0 -1
492 291 0 0 0 -1
492 269 0 0 0 -1
498 269 0 0 0 -1
498 291 100 0 0 1
492 291 100 0 0 1
492 269 100 0 0 1
498 269 100 0 0 1
201.02392578125 242.999359130859375 0 0 0 -1
207.02392578125 243.000640869140625 0 0 0 -1
207.000640869140625 353 0 0 0 -1
200.999359130859375 359 0 0 0 -1
201.02392578125 242.999359130859375 100 0 0 1
207.02392578125 243.000640869140625 100 0 0 1
207.000640869140625 353 100 0 0 1
200.999359130859375 359 100 0 0 1
200.999359130859375 359 0 0 0 -1
207.000640869140625 353 0 0 0 -1
224 353 0 0 0 -1
224 359 0 0 0 -1
200.999359130859375 359 100 0 0 1
207.000640869140625 353 100 0 0 1
224 353 100 0 0 1
224 359 100 0 0 1
424 353 0 0 0 -1
424 359 0 0 0 -1
408.998748779296875 359 0 0 0 -1
415.001251220703125 353 0 0 0 -1
424 353 100 0 0 1
424 359 100 0 0 1
408.998748779296875 359 100 0 0 1
415.001251220703125 353 100 0 0 1
415.001251220703125 353 0 0 0 -1
408.998748779296875 359 0 0 0 -1
409.01251220703125 325.998748779296875 0 0 0 -1
415.01251220703125 326.001251220703125 0 0 0 -1
415.001251220703125 353 100 0 0 1
408.998748779296875 359 100 0 0 1
409.01251220703125 325.998748779296875 100 0 0 1
415.01251220703125 326.001251220703125 100 0 0 1
486 528 0 0 0 -1
486 534 0 0 0 -1
465.896484375 534 0 0 0 -1
472.103515625 528 0 0 0 -1
486 528 100 0 0 1
486 534 100 0 0 1
465.896484375 534 100 0 0 1
472.103515625 528 100 0 0 1
472.103515625 528 0 0 0 -1
465.896484375 534 0 0 0 -1
466.40887451171875 518.89825439453125 0 0 0 -1
472.405426025390625 519.10174560546875 0 0 0 -1
472.103515625 528 100 0 0 1
465.896484375 534 100 0 0 1
466.40887451171875 518.89825439453125 100 0 0 1
472.405426025390625 519.10174560546875 100 0 0 1
458 240 0 0 0 -1
458 246 0 0 0 -1
433.974700927734375 246 0 0 0 -1
440.025299072265625 240 0 0 0 -1
458 240 100 0 0 1
458 246 100 0 0 1
433.974700927734375 246 100 0 0 1
440.025299072265625 240 100 0 0 1
440.025299072265625 240 0 0 0 -1
433.974700927734375 246 0 0 0 -1
434.32769775390625 203.974807739257812 0 0 0 -1
440.327484130859375 204.025192260742188 0 0 0 -1
440.025299072265625 240 100 0 0 1
433.974700927734375 246 100 0 0 1
434.32769775390625 203.974807739257812 100 0 0 1
440.327484130859375 204.025192260742188 100 0 0 1
539.666748046875 244.060134887695312 0 0 0 -1
544.28448486328125 247.891098022460938 0 0 0 -1
538.3868408203125 255 0 0 0 -1
525.6131591796875 261 0 0 0 -1
539.666748046875 244.060134887695312 100 0 0 1
544.28448486328125 247.891098022460938 100 0 0 1
538.3868408203125 255 100 0 0 1
525.6131591796875 261 100 0 0 1
525.6131591796875 261 0 0 0 -1
538.3868408203125 255 0 0 0 -1
543 255 0 0 0 -1
543 261 0 0 0 -1
525.6131591796875 261 100 0 0 1
538.3868408203125 255 100 0 0 1
543 255 100 0 0 1
543 261 100 0 0 1
4 0 1 2 3
4 4 5 6 7
4 8 9 10 11
4 12 13 14 15
4 16 17 18 19
4 20 21 22 23
4 24 25 26 27
4 28 29 30 31
4 32 33 34 35
4 36 37 38 39
4 40 41 42 43
4 44 45 46 47
4 48 49 50 51
4 52 53 54 55
4 56 57 58 59
4 60 61 62 63
4 64 65 66 67
4 68 69 70 71
4 72 73 74 75
4 76 77 78 79
4 80 81 82 83
4 84 85 86 87
4 88 89 90 91
4 92 93 94 95
4 96 97 98 99
4 100 101 102 103
4 104 105 106 107
4 108 109 110 111
4 112 113 114 115
4 116 117 118 119
4 120 121 122 123
4 124 125 126 127
4 128 129 130 131
4 132 133 134 135
4 136 137 138 139
4 140 141 142 143
4 144 145 146 147
4 148 149 150 151
4 152 153 154 155
4 156 157 158 159
4 160 161 162 163
4 164 165 166 167
4 168 169 170 171
4 172 173 174 175
4 176 177 178 179
4 180 181 182 183
4 184 185 186 187
4 188 189 190 191
4 192 193 194 195
4 196 197 198 199
4 200 201 202 203
4 204 205 206 207
4 208 209 210 211
4 212 213 214 215
4 216 217 218 219
4 220 221 222 223
4 224 225 226 227
4 228 229 230 231
4 232 233 234 235
4 236 237 238 239
4 240 241 242 243
4 244 245 246 247
4 248 249 250 251
4 252 253 254 255
4 256 257 258 259
4 260 261 262 263
4 264 265 266 267
4 268 269 270 271
4 272 273 274 275
4 276 277 278 279
4 280 281 282 283
4 284 285 286 287
4 288 289 290 291
4 292 293 294 295
4 296 297 298 299
4 300 301 302 303
4 304 305 306 307
4 308 309 310 311
4 312 313 314 315
4 316 317 318 319
4 320 321 322 323
4 324 325 326 327
4 328 329 330 331
4 332 333 334 335
4 336 337 338 339
4 340 341 342 343
4 344 345 346 347
4 348 349 350 351
4 352 353 354 355
4 356 357 358 359
4 360 361 362 363
4 364 365 366 367
4 368 369 370 371
4 372 373 374 375
4 376 377 378 379
4 380 381 382 383
4 384 385 386 387
4 388 389 390 391
4 392 393 394 395
4 396 397 398 399
4 400 401 402 403
4 404 405 406 407
4 408 409 410 411
4 412 413 414 415
4 416 417 418 419
4 420 421 422 423
4 424 425 426 427
4 428 429 430 431
4 432 433 434 435
4 436 437 438 439
4 440 441 442 443
4 444 445 446 447
4 448 449 450 451
4 452 453 454 455
4 456 457 458 459
4 460 461 462 463
4 464 465 466 467
4 468 469 470 471
4 472 473 474 475
4 476 477 478 479
4 480 481 482 483
4 484 485 486 487
4 488 489 490 491
4 492 493 494 495
4 496 497 498 499
4 500 501 502 503
4 504 505 506 507
4 508 509 510 511
4 512 513 514 515
4 516 517 518 519
4 520 521 522 523
4 524 525 526 527
4 528 529 530 531
4 532 533 534 535
4 536 537 538 539
4 540 541 542 543
4 544 545 546 547
4 548 549 550 551
4 552 553 554 555
4 556 557 558 559
4 560 561 562 563
4 564 565 566 567
4 568 569 570 571
4 572 573 574 575
4 576 577 578 579
4 580 581 582 583
4 584 585 586 587
4 588 589 590 591
4 592 593 594 595
4 596 597 598 599
4 600 601 602 603
4 604 605 606 607
4 608 609 610 611
4 612 613 614 615
4 616 617 618 619
4 620 621 622 623
4 624 625 626 627
4 628 629 630 631
4 632 633 634 635
4 636 637 638 639
4 640 641 642 643
4 644 645 646 647
4 648 649 650 651
4 652 653 654 655
4 656 657 658 659
4 660 661 662 663
4 664 665 666 667
4 668 669 670 671
4 672 673 674 675
4 676 677 678 679
4 680 681 682 683
4 684 685 686 687
4 688 689 690 691
4 692 693 694 695
4 696 697 698 699
4 700 701 702 703
4 704 705 706 707
4 708 709 710 711
4 712 713 714 715
4 716 717 718 719
4 720 721 722 723
4 724 725 726 727
4 728 729 730 731
4 732 733 734 735
4 736 737 738 739
4 740 741 742 743
4 744 745 746 747
4 748 749 750 751
4 752 753 754 755
4 756 757 758 759
4 760 761 762 763
4 764 765 766 767
4 768 769 770 771
4 772 773 774 775
4 776 777 778 779
4 780 781 782 783
4 784 785 786 787
4 788 789 790 791
4 792 793 794 795
4 796 797 798 799
4 800 801 802 803
4 804 805 806 807
4 808 809 810 811
4 812 813 814 815
4 816 817 818 819
4 820 821 822 823
4 824 825 826 827
4 828 829 830 831
4 832 833 834 835
4 836 837 838 839
4 840 841 842 843
4 844 845 846 847
4 848 849 850 851
4 852 853 854 855
4 856 857 858 859
4 860 861 862 863
4 864 865 866 867
4 868 869 870 871
4 872 873 874 875
4 876 877 878 879
4 880 881 882 883
4 884 885 886 887
4 888 889 890 891
4 892 893 894 895
4 896 897 898 899
4 900 901 902 903
4 904 905 906 907
4 908 909 910 911
4 912 913 914 915
4 916 917 918 919
4 920 921 922 923
4 924 925 926 927
4 928 929 930 931
4 932 933 934 935
4 936 937 938 939
4 940 941 942 943
4 944 945 946 947
4 948 949 950 951
4 952 953 954 955
4 956 957 958 959
4 960 961 962 963
4 964 965 966 967
4 968 969 970 971
4 972 973 974 975
4 976 977 978 979
4 980 981 982 983
4 984 985 986 987
4 988 989 990 991
4 992 993 994 995
4 996 997 998 999
4 1000 1001 1002 1003
4 1004 1005 1006 1007
4 1008 1009 1010 1011
