ply
format ascii 1.0
element vertex 144
property float x
property float y
property float z
property float nx
property float ny
property float nz
element quads 36
property list uchar int vertex_indices
end_header
212.5 289 0 1 0 0
212.5 263 0 1 0 0
212.5 263 100 1 0 0
212.5 289 100 1 0 0
206.5 289 0 -1 -0 0
206.5 263 0 -1 -0 0
206.5 263 100 -1 -0 0
206.5 289 100 -1 -0 0
588.0615234375 57 0 1 0 0
588.0615234375 36 0 1 0 0
588.0615234375 36 100 1 0 0
588.0615234375 57 100 1 0 0
582.0615234375 57 0 -1 -0 0
582.0615234375 36 0 -1 -0 0
582.0615234375 36 100 -1 -0 0
582.0615234375 57 100 -1 -0 0
588.0615234375 115 0 1 0 0
588.0615234375 91 0 1 0 0
588.0615234375 91 100 1 0 0
588.0615234375 115 100 1 0 0
582.0615234375 115 0 -1 -0 0
582.0615234375 91 0 -1 -0 0
582.0615234375 91 100 -1 -0 0
582.0615234375 115 100 -1 -0 0
358 296.600006103515625 0 -0 -1 0
343 296.600006103515625 0 -0 -1 0
343 296.600006103515625 100 -0 -1 0
358 296.600006103515625 100 -0 -1 0
358 302.600006103515625 0 0 1 0
343 302.600006103515625 0 0 1 0
343 302.600006103515625 100 0 1 0
358 302.600006103515625 100 0 1 0
256 318 0 1 0 0
256 307 0 1 0 0
256 307 100 1 0 0
256 318 100 1 0 0
250 318 0 -1 -0 0
250 307 0 -1 -0 0
250 307 100 -1 -0 0
250 318 100 -1 -0 0
550 204 0 -0 -1 0
536 204 0 -0 -1 0
536 204 100 -0 -1 0
550 204 100 -0 -1 0
550 210 0 0 1 0
536 210 0 0 1 0
536 210 100 0 1 0
550 210 100 0 1 0
212.5 289 0 204.326919555664062 278.884613037109375 0
206.5 289 0 204.326919555664062 278.884613037109375 0
206.5 289 100 204.326919555664062 278.884613037109375 0
212.5 289 100 204.326919555664062 278.884613037109375 0
212.5 263 0 204.326919555664062 251.884613037109375 0
206.5 263 0 204.326919555664062 251.884613037109375 0
206.5 263 100 204.326919555664062 251.884613037109375 0
212.5 263 100 204.326919555664062 251.884613037109375 0
588.0615234375 57 0 560.05859375 55.2857131958007812 0
582.0615234375 57 0 560.05859375 55.2857131958007812 0
582.0615234375 57 100 560.05859375 55.2857131958007812 0
588.0615234375 57 100 560.05859375 55.2857131958007812 0
588.0615234375 36 0 560.05859375 33.2857131958007812 0
582.0615234375 36 0 560.05859375 33.2857131958007812 0
582.0615234375 36 100 560.05859375 33.2857131958007812 0
588.0615234375 36 100 560.05859375 33.2857131958007812 0
588.0615234375 115 0 563.5589599609375 111.208335876464844 0
582.0615234375 115 0 563.5589599609375 111.208335876464844 0
582.0615234375 115 100 563.5589599609375 111.208335876464844 0
588.0615234375 115 100 563.5589599609375 111.208335876464844 0
588.0615234375 91 0 563.5589599609375 86.2083358764648438 0
582.0615234375 91 0 563.5589599609375 86.2083358764648438 0
582.0615234375 91 100 563.5589599609375 86.2083358764648438 0
588.0615234375 91 100 563.5589599609375 86.2083358764648438 0
358 296.600006103515625 0 335.133331298828125 276.82666015625 0
358 302.600006103515625 0 335.133331298828125 276.82666015625 0
358 302.600006103515625 100 335.133331298828125 276.82666015625 0
358 296.600006103515625 100 335.133331298828125 276.82666015625 0
343 296.600006103515625 0 319.133331298828125 276.82666015625 0
343 302.600006103515625 0 319.133331298828125 276.82666015625 0
343 302.600006103515625 100 319.133331298828125 276.82666015625 0
343 296.600006103515625 100 319.133331298828125 276.82666015625 0
256 318 0 232.727279663085938 290.090911865234375 0
250 318 0 232.727279663085938 290.090911865234375 0
250 318 100 232.727279663085938 290.090911865234375 0
256 318 100 232.727279663085938 290.090911865234375 0
256 307 0 232.727279663085938 278.090911865234375 0
250 307 0 232.727279663085938 278.090911865234375 0
250 307 100 232.727279663085938 278.090911865234375 0
256 307 100 232.727279663085938 278.090911865234375 0
550 204 0 511.71429443359375 189.428573608398438 0
550 210 0 511.71429443359375 189.428573608398438 0
550 210 100 511.71429443359375 189.428573608398438 0
550 204 100 511.71429443359375 189.428573608398438 0
536 204 0 496.71429443359375 189.428573608398438 0
536 210 0 496.71429443359375 189.428573608398438 0
536 210 100 496.71429443359375 189.428573608398438 0
536 204 100 496.71429443359375 189.428573608398438 0
212.5 289 0 0 0 -1
206.5 289 0 0 0 -1
206.5 263 0 0 0 -1
212.5 263 0 0 0 -1
212.5 289 100 0 0 1
206.5 289 100 0 0 1
206.5 263 100 0 0 1
212.5 263 100 0 0 1
588.0615234375 57 0 0 0 -1
582.0615234375 57 0 0 0 -1
582.0615234375 36 0 0 0 -1
588.0615234375 36 0 0 0 -1
588.0615234375 57 100 0 0 1
582.0615234375 57 100 0 0 1
582.0615234375 36 100 0 0 1
588.0615234375 36 100 0 0 1
588.0615234375 115 0 0 0 -1
582.0615234375 115 0 0 0 -1
582.0615234375 91 0 0 0 -1
588.0615234375 91 0 0 0 -1
588.0615234375 115 100 0 0 1
582.0615234375 115 100 0 0 1
582.0615234375 91 100 0 0 1
588.0615234375 91 100 0 0 1
358 296.600006103515625 0 0 0 -1
358 302.600006103515625 0 0 0 -1
343 302.600006103515625 0 0 0 -1
343 296.600006103515625 0 0 0 -1
358 296.600006103515625 100 0 0 1
358 302.600006103515625 100 0 0 1
343 302.600006103515625 100 0 0 1
343 296.600006103515625 100 0 0 1
256 318 0 0 0 -1
250 318 0 0 0 -1
250 307 0 0 0 -1
256 307 0 0 0 -1
256 318 100 0 0 1
250 318 100 0 0 1
250 307 100 0 0 1
256 307 100 0 0 1
550 204 0 0 0 -1
550 210 0 0 0 -1
536 210 0 0 0 -1
536 204 0 0 0 -1
550 204 100 0 0 1
550 210 100 0 0 1
536 210 100 0 0 1
536 204 100 0 0 1
4 0 1 2 3
4 4 5 6 7
4 8 9 10 11
4 12 13 14 15
4 16 17 18 19
4 20 21 22 23
4 24 25 26 27
4 28 29 30 31
4 32 33 34 35
4 36 37 38 39
4 40 41 42 43
4 44 45 46 47
4 48 49 50 51
4 52 53 54 55
4 56 57 58 59
4 60 61 62 63
4 64 65 66 67
4 68 69 70 71
4 72 73 74 75
4 76 77 78 79
4 80 81 82 83
4 84 85 86 87
4 88 89 90 91
4 92 93 94 95
4 96 97 98 99
4 100 101 102 103
4 104 105 106 107
4 108 109 110 111
4 112 113 114 115
4 116 117 118 119
4 120 121 122 123
4 124 125 126 127
4 128 129 130 131
4 132 133 134 135
4 136 137 138 139
4 140 141 142 143
