ply
format ascii 1.0
element vertex 48
property float x
property float y
property float z
property float nx
property float ny
property float nz
element quads 12
property list uchar int vertex_indices
end_header
584.75 36 0 -1 0 0
584.75 115 0 -1 0 0
584.75 115 100 -1 0 0
584.75 36 100 -1 0 0
585.25 36 0 1 -0 0
585.25 115 0 1 -0 0
585.25 115 100 1 -0 0
585.25 36 100 1 -0 0
209.75 215 0 -1 0 0
209.75 338 0 -1 0 0
209.75 338 100 -1 0 0
209.75 215 100 -1 0 0
210.25 215 0 1 -0 0
210.25 338 0 1 -0 0
210.25 338 100 1 -0 0
210.25 215 100 1 -0 0
584.75 36 0 577.34808349609375 34.5443038940429688 0
585.25 36 0 577.34808349609375 34.5443038940429688 0
585.25 36 100 577.34808349609375 34.5443038940429688 0
584.75 36 100 577.34808349609375 34.5443038940429688 0
584.75 115 0 577.34808349609375 114.544303894042969 0
585.25 115 0 577.34808349609375 114.544303894042969 0
585.25 115 100 577.34808349609375 114.544303894042969 0
584.75 115 100 577.34808349609375 114.544303894042969 0
209.75 215 0 208.044708251953125 212.252029418945312 0
210.25 215 0 208.044708251953125 212.252029418945312 0
210.25 215 100 208.044708251953125 212.252029418945312 0
209.75 215 100 208.044708251953125 212.252029418945312 0
209.75 338 0 208.044708251953125 336.252044677734375 0
210.25 338 0 208.044708251953125 336.252044677734375 0
210.25 338 100 208.044708251953125 336.252044677734375 0
209.75 338 100 208.044708251953125 336.252044677734375 0
584.75 36 0 0 0 -1
585.25 36 0 0 0 -1
585.25 115 0 0 0 -1
584.75 115 0 0 0 -1
584.75 36 100 0 0 1
585.25 36 100 0 0 1
585.25 115 100 0 0 1
584.75 115 100 0 0 1
209.75 215 0 0 0 -1
210.25 215 0 0 0 -1
210.25 338 0 0 0 -1
209.75 338 0 0 0 -1
209.75 215 100 0 0 1
210.25 215 100 0 0 1
210.25 338 100 0 0 1
209.75 338 100 0 0 1
4 0 1 2 3
4 4 5 6 7
4 8 9 10 11
4 12 13 14 15
4 16 17 18 19
4 20 21 22 23
4 24 25 26 27
4 28 29 30 31
4 32 33 34 35
4 36 37 38 39
4 40 41 42 43
4 44 45 46 47
