ply
format ascii 1.0
element vertex 688
property float x
property float y
property float z
property float nx
property float ny
property float nz
element quads 172
property list uchar int vertex_indices
end_header
653 407 0 1 0 0
653 67 0 1 0 0
653 67 100 1 0 0
653 407 100 1 0 0
647 401 0 -1 -0 0
647 67 0 -1 -0 0
647 67 100 -1 -0 0
647 401 100 -1 -0 0
647 401 0 -0 -1 0
620 401 0 -0 -1 0
620 401 100 -0 -1 0
647 401 100 -0 -1 0
653 407 0 0 1 0
620 407 0 0 1 0
620 407 100 0 1 0
653 407 100 0 1 0
247.503036499023438 245 0 1 0 0
247.503036499023438 162 0 1 0 0
247.503036499023438 162 100 1 0 0
247.503036499023438 245 100 1 0 0
241.503036499023438 245 0 -1 -0 0
241.503036499023438 162 0 -1 -0 0
241.503036499023438 162 100 -1 -0 0
241.503036499023438 245 100 -1 -0 0
480 63.632476806640625 0 -0 -1 0
466 63.632476806640625 0 -0 -1 0
466 63.632476806640625 100 -0 -1 0
480 63.632476806640625 100 -0 -1 0
480 69.632476806640625 0 0 1 0
466 69.632476806640625 0 0 1 0
466 69.632476806640625 100 0 1 0
480 69.632476806640625 100 0 1 0
650 63.632476806640625 0 -0 -1 0
592 63.632476806640625 0 -0 -1 0
592 63.632476806640625 100 -0 -1 0
650 63.632476806640625 100 -0 -1 0
650 69.632476806640625 0 0 1 0
592 69.632476806640625 0 0 1 0
592 69.632476806640625 100 0 1 0
650 69.632476806640625 100 0 1 0
406 64 0 -0 -1 0
389 64 0 -0 -1 0
389 64 100 -0 -1 0
406 64 100 -0 -1 0
406 70 0 0 1 0
395 70 0 0 1 0
395 70 100 0 1 0
406 70 100 0 1 0
389 64 0 -1 0 0
389 91 0 -1 0 0
389 91 100 -1 0 0
389 64 100 -1 0 0
395 70 0 1 -0 0
395 91 0 1 -0 0
395 91 100 1 -0 0
395 70 100 1 -0 0
443 63.632476806640625 0 -0 -1 0
428 63.632476806640625 0 -0 -1 0
428 63.632476806640625 100 -0 -1 0
443 63.632476806640625 100 -0 -1 0
443 69.632476806640625 0 0 1 0
428 69.632476806640625 0 0 1 0
428 69.632476806640625 100 0 1 0
443 69.632476806640625 100 0 1 0
516 63.632476806640625 0 -0 -1 0
504 63.632476806640625 0 -0 -1 0
504 63.632476806640625 100 -0 -1 0
516 63.632476806640625 100 -0 -1 0
516 69.632476806640625 0 0 1 0
504 69.632476806640625 0 0 1 0
504 69.632476806640625 100 0 1 0
516 69.632476806640625 100 0 1 0
395 309 0 1 0 0
395 257 0 1 0 0
395 257 100 1 0 0
395 309 100 1 0 0
389 309 0 -1 -0 0
389 251 0 -1 -0 0
389 251 100 -1 -0 0
389 309 100 -1 -0 0
395 257 0 -0 1 0
405 257 0 -0 1 0
405 257 100 -0 1 0
395 257 100 -0 1 0
389 251 0 0 -1 0
405 251 0 0 -1 0
405 251 100 0 -1 0
389 251 100 0 -1 0
394.86334228515625 215 0 1 0 0
394.86334228515625 203 0 1 0 0
394.86334228515625 203 100 1 0 0
394.86334228515625 215 100 1 0 0
388.86334228515625 215 0 -1 -0 0
388.86334228515625 203 0 -1 -0 0
388.86334228515625 203 100 -1 -0 0
388.86334228515625 215 100 -1 -0 0
206.638885498046875 308 0 1 0 0
206.638885498046875 244 0 1 0 0
206.638885498046875 244 100 1 0 0
206.638885498046875 308 100 1 0 0
200.638885498046875 308 0 -1 -0 0
200.638885498046875 244 0 -1 -0 0
200.638885498046875 244 100 -1 -0 0
200.638885498046875 308 100 -1 -0 0
521 309 0 1 0 0
521 254 0 1 0 0
521 254 100 1 0 0
521 309 100 1 0 0
515 309 0 -1 -0 0
515 254 0 -1 -0 0
515 254 100 -1 -0 0
515 309 100 -1 -0 0
356 305.237213134765625 0 -0 -1 0
286 305.237213134765625 0 -0 -1 0
286 305.237213134765625 100 -0 -1 0
356 305.237213134765625 100 -0 -1 0
356 311.237213134765625 0 0 1 0
286 311.237213134765625 0 0 1 0
286 311.237213134765625 100 0 1 0
356 311.237213134765625 100 0 1 0
254 305 0 -0 -1 0
204 305 0 -0 -1 0
204 305 100 -0 -1 0
254 305 100 -0 -1 0
260 311 0 0 1 0
204 311 0 0 1 0
204 311 100 0 1 0
260 311 100 0 1 0
260 311 0 1 0 0
260 290 0 1 0 0
260 290 100 1 0 0
260 311 100 1 0 0
254 305 0 -1 -0 0
254 290 0 -1 -0 0
254 290 100 -1 -0 0
254 305 100 -1 -0 0
377 105.9375 0 -0 -1 0
354 105.9375 0 -0 -1 0
354 105.9375 100 -0 -1 0
377 105.9375 100 -0 -1 0
377 111.9375 0 0 1 0
354 111.9375 0 0 1 0
354 111.9375 100 0 1 0
377 111.9375 100 0 1 0
391 80 0 -0 -1 0
364 80 0 -0 -1 0
364 80 100 -0 -1 0
391 80 100 -0 -1 0
391 86 0 0 1 0
370 86 0 0 1 0
370 86 100 0 1 0
391 86 100 0 1 0
364 80 0 -1 0 0
364 107 0 -1 0 0
364 107 100 -1 0 0
364 80 100 -1 0 0
370 86 0 1 -0 0
370 107 0 1 -0 0
370 107 100 1 -0 0
370 86 100 1 -0 0
480 250.81817626953125 0 -0 -1 0
466 250.81817626953125 0 -0 -1 0
466 250.81817626953125 100 -0 -1 0
480 250.81817626953125 100 -0 -1 0
480 256.81817626953125 0 0 1 0
466 256.81817626953125 0 0 1 0
466 256.81817626953125 100 0 1 0
480 256.81817626953125 100 0 1 0
442 250.81817626953125 0 -0 -1 0
428 250.81817626953125 0 -0 -1 0
428 250.81817626953125 100 -0 -1 0
442 250.81817626953125 100 -0 -1 0
442 256.81817626953125 0 0 1 0
428 256.81817626953125 0 0 1 0
428 256.81817626953125 100 0 1 0
442 256.81817626953125 100 0 1 0
518 250.81817626953125 0 -0 -1 0
503 250.81817626953125 0 -0 -1 0
503 250.81817626953125 100 -0 -1 0
518 250.81817626953125 100 -0 -1 0
518 256.81817626953125 0 0 1 0
503 256.81817626953125 0 0 1 0
503 256.81817626953125 100 0 1 0
518 256.81817626953125 100 0 1 0
570 212.395355224609375 0 -0 -1 0
560 212.395355224609375 0 -0 -1 0
560 212.395355224609375 100 -0 -1 0
570 212.395355224609375 100 -0 -1 0
570 218.395355224609375 0 0 1 0
560 218.395355224609375 0 0 1 0
560 218.395355224609375 100 0 1 0
570 218.395355224609375 100 0 1 0
346 212.395355224609375 0 -0 -1 0
329 212.395355224609375 0 -0 -1 0
329 212.395355224609375 100 -0 -1 0
346 212.395355224609375 100 -0 -1 0
346 218.395355224609375 0 0 1 0
329 218.395355224609375 0 0 1 0
329 218.395355224609375 100 0 1 0
346 218.395355224609375 100 0 1 0
260 261 0 1 0 0
260 246 0 1 0 0
260 246 100 1 0 0
260 261 100 1 0 0
254 261 0 -1 -0 0
254 246 0 -1 -0 0
254 246 100 -1 -0 0
254 261 100 -1 -0 0
648 158 0 -0 -1 0
638 158 0 -0 -1 0
638 158 100 -0 -1 0
648 158 100 -0 -1 0
648 164 0 0 1 0
638 164 0 0 1 0
638 164 100 0 1 0
648 164 100 0 1 0
555.50006103515625 308.984222412109375 0 -0.999986171722412109 -0.0052630850113928318 0
554.98419189453125 407 0 -0.999986171722412109 -0.0052630850113928318 0
554.98419189453125 407 100 -0.999986171722412109 -0.0052630850113928318 0
555.50006103515625 308.984222412109375 100 -0.999986171722412109 -0.0052630850113928318 0
561.49993896484375 309.015777587890625 0 0.999986171722412109 0.0052630850113928318 0
561.01580810546875 401 0 0.999986171722412109 0.0052630850113928318 0
561.01580810546875 401 100 0.999986171722412109 0.0052630850113928318 0
561.49993896484375 309.015777587890625 100 0.999986171722412109 0.0052630850113928318 0
554.98419189453125 407 0 -0 1 0
588 407 0 -0 1 0
588 407 100 -0 1 0
554.98419189453125 407 100 -0 1 0
561.01580810546875 401 0 0 -1 0
588 401 0 0 -1 0
588 401 100 0 -1 0
561.01580810546875 401 100 0 -1 0
272.020843505859375 138.374923706054688 0 0.00694427685812115669 0.999975860118865967 0
323 138.020904541015625 0 0.00694427685812115669 0.999975860118865967 0
323 138.020904541015625 100 0.00694427685812115669 0.999975860118865967 0
272.020843505859375 138.374923706054688 100 0.00694427685812115669 0.999975860118865967 0
271.979156494140625 132.375076293945312 0 -0.00694427685812115669 -0.999975860118865967 0
329 131.979095458984375 0 -0.00694427685812115669 -0.999975860118865967 0
329 131.979095458984375 100 -0.00694427685812115669 -0.999975860118865967 0
271.979156494140625 132.375076293945312 100 -0.00694427685812115669 -0.999975860118865967 0
323 138.020904541015625 0 -1 0 0
323 152 0 -1 0 0
323 152 100 -1 0 0
323 138.020904541015625 100 -1 0 0
329 131.979095458984375 0 1 -0 0
329 152 0 1 -0 0
329 152 100 1 -0 0
329 131.979095458984375 100 1 -0 0
653 67 0 651.07940673828125 65.8029403686523438 0
647 67 0 651.07940673828125 65.8029403686523438 0
647 67 100 651.07940673828125 65.8029403686523438 0
653 67 100 651.07940673828125 65.8029403686523438 0
247.503036499023438 245 0 244.521072387695312 243.048187255859375 0
241.503036499023438 245 0 244.521072387695312 243.048187255859375 0
241.503036499023438 245 100 244.521072387695312 243.048187255859375 0
247.503036499023438 245 100 244.521072387695312 243.048187255859375 0
247.503036499023438 162 0 244.521072387695312 159.048187255859375 0
241.503036499023438 162 0 244.521072387695312 159.048187255859375 0
241.503036499023438 162 100 244.521072387695312 159.048187255859375 0
247.503036499023438 162 100 244.521072387695312 159.048187255859375 0
480 63.632476806640625 0 446.71429443359375 59.0873031616210938 0
480 69.632476806640625 0 446.71429443359375 59.0873031616210938 0
480 69.632476806640625 100 446.71429443359375 59.0873031616210938 0
480 63.632476806640625 100 446.71429443359375 59.0873031616210938 0
466 63.632476806640625 0 431.71429443359375 59.0873031616210938 0
466 69.632476806640625 0 431.71429443359375 59.0873031616210938 0
466 69.632476806640625 100 431.71429443359375 59.0873031616210938 0
466 63.632476806640625 100 431.71429443359375 59.0873031616210938 0
650 63.632476806640625 0 639.7930908203125 62.5353660583496094 0
650 69.632476806640625 0 639.7930908203125 62.5353660583496094 0
650 69.632476806640625 100 639.7930908203125 62.5353660583496094 0
650 63.632476806640625 100 639.7930908203125 62.5353660583496094 0
592 63.632476806640625 0 580.7930908203125 62.5353660583496094 0
592 69.632476806640625 0 580.7930908203125 62.5353660583496094 0
592 69.632476806640625 100 580.7930908203125 62.5353660583496094 0
592 63.632476806640625 100 580.7930908203125 62.5353660583496094 0
406 64 0 383.117645263671875 60.2352943420410156 0
406 70 0 383.117645263671875 60.2352943420410156 0
406 70 100 383.117645263671875 60.2352943420410156 0
406 64 100 383.117645263671875 60.2352943420410156 0
443 63.632476806640625 0 414.4666748046875 59.3903121948242188 0
443 69.632476806640625 0 414.4666748046875 59.3903121948242188 0
443 69.632476806640625 100 414.4666748046875 59.3903121948242188 0
443 63.632476806640625 100 414.4666748046875 59.3903121948242188 0
428 63.632476806640625 0 398.4666748046875 59.3903121948242188 0
428 69.632476806640625 0 398.4666748046875 59.3903121948242188 0
428 69.632476806640625 100 398.4666748046875 59.3903121948242188 0
428 63.632476806640625 100 398.4666748046875 59.3903121948242188 0
516 63.632476806640625 0 474 58.32977294921875 0
516 69.632476806640625 0 474 58.32977294921875 0
516 69.632476806640625 100 474 58.32977294921875 0
516 63.632476806640625 100 474 58.32977294921875 0
504 63.632476806640625 0 461 58.32977294921875 0
504 69.632476806640625 0 461 58.32977294921875 0
504 69.632476806640625 100 461 58.32977294921875 0
504 63.632476806640625 100 461 58.32977294921875 0
395 309 0 387.403839111328125 304.05767822265625 0
389 309 0 387.403839111328125 304.05767822265625 0
389 309 100 387.403839111328125 304.05767822265625 0
395 309 100 387.403839111328125 304.05767822265625 0
389 91 0 374.59259033203125 88.6296310424804688 0
395 91 0 374.59259033203125 88.6296310424804688 0
395 91 100 374.59259033203125 88.6296310424804688 0
389 91 100 374.59259033203125 88.6296310424804688 0
394.86334228515625 215 0 361.95806884765625 198.083328247070312 0
388.86334228515625 215 0 361.95806884765625 198.083328247070312 0
388.86334228515625 215 100 361.95806884765625 198.083328247070312 0
394.86334228515625 215 100 361.95806884765625 198.083328247070312 0
394.86334228515625 203 0 361.95806884765625 185.083328247070312 0
388.86334228515625 203 0 361.95806884765625 185.083328247070312 0
388.86334228515625 203 100 361.95806884765625 185.083328247070312 0
394.86334228515625 203 100 361.95806884765625 185.083328247070312 0
206.638885498046875 308 0 203.41015625 304.1875 0
200.638885498046875 308 0 203.41015625 304.1875 0
200.638885498046875 308 100 203.41015625 304.1875 0
206.638885498046875 308 100 203.41015625 304.1875 0
206.638885498046875 244 0 203.41015625 239.1875 0
200.638885498046875 244 0 203.41015625 239.1875 0
200.638885498046875 244 100 203.41015625 239.1875 0
206.638885498046875 244 100 203.41015625 239.1875 0
521 309 0 511.52728271484375 304.381805419921875 0
515 309 0 511.52728271484375 304.381805419921875 0
515 309 100 511.52728271484375 304.381805419921875 0
521 309 100 511.52728271484375 304.381805419921875 0
521 254 0 511.52728271484375 248.381820678710938 0
515 254 0 511.52728271484375 248.381820678710938 0
515 254 100 511.52728271484375 248.381820678710938 0
521 254 100 511.52728271484375 248.381820678710938 0
356 305.237213134765625 0 351.914276123046875 300.876678466796875 0
356 311.237213134765625 0 351.914276123046875 300.876678466796875 0
356 311.237213134765625 100 351.914276123046875 300.876678466796875 0
356 305.237213134765625 100 351.914276123046875 300.876678466796875 0
286 305.237213134765625 0 280.914276123046875 300.876678466796875 0
286 311.237213134765625 0 280.914276123046875 300.876678466796875 0
286 311.237213134765625 100 280.914276123046875 300.876678466796875 0
286 305.237213134765625 100 280.914276123046875 300.876678466796875 0
204 305 0 198.919998168945312 298.899993896484375 0
204 311 0 198.919998168945312 298.899993896484375 0
204 311 100 198.919998168945312 298.899993896484375 0
204 305 100 198.919998168945312 298.899993896484375 0
377 105.9375 0 361.60870361328125 101.331520080566406 0
377 111.9375 0 361.60870361328125 101.331520080566406 0
377 111.9375 100 361.60870361328125 101.331520080566406 0
377 105.9375 100 361.60870361328125 101.331520080566406 0
354 105.9375 0 337.60870361328125 101.331520080566406 0
354 111.9375 0 337.60870361328125 101.331520080566406 0
354 111.9375 100 337.60870361328125 101.331520080566406 0
354 105.9375 100 337.60870361328125 101.331520080566406 0
391 80 0 377.518524169921875 77.0370407104492188 0
391 86 0 377.518524169921875 77.0370407104492188 0
391 86 100 377.518524169921875 77.0370407104492188 0
391 80 100 377.518524169921875 77.0370407104492188 0
620 401 0 596.03704833984375 386.148162841796875 0
620 407 0 596.03704833984375 386.148162841796875 0
620 407 100 596.03704833984375 386.148162841796875 0
620 401 100 596.03704833984375 386.148162841796875 0
405 257 0 365.5 231.300003051757812 0
405 251 0 365.5 231.300003051757812 0
405 251 100 365.5 231.300003051757812 0
405 257 100 365.5 231.300003051757812 0
480 250.81817626953125 0 446.71429443359375 232.902603149414062 0
480 256.81817626953125 0 446.71429443359375 232.902603149414062 0
480 256.81817626953125 100 446.71429443359375 232.902603149414062 0
480 250.81817626953125 100 446.71429443359375 232.902603149414062 0
466 250.81817626953125 0 431.71429443359375 232.902603149414062 0
466 256.81817626953125 0 431.71429443359375 232.902603149414062 0
466 256.81817626953125 100 431.71429443359375 232.902603149414062 0
466 250.81817626953125 100 431.71429443359375 232.902603149414062 0
442 250.81817626953125 0 411.428558349609375 232.902603149414062 0
442 256.81817626953125 0 411.428558349609375 232.902603149414062 0
442 256.81817626953125 100 411.428558349609375 232.902603149414062 0
442 250.81817626953125 100 411.428558349609375 232.902603149414062 0
428 250.81817626953125 0 396.428558349609375 232.902603149414062 0
428 256.81817626953125 0 396.428558349609375 232.902603149414062 0
428 256.81817626953125 100 396.428558349609375 232.902603149414062 0
428 250.81817626953125 100 396.428558349609375 232.902603149414062 0
518 250.81817626953125 0 484.4666748046875 234.096969604492188 0
518 256.81817626953125 0 484.4666748046875 234.096969604492188 0
518 256.81817626953125 100 484.4666748046875 234.096969604492188 0
518 250.81817626953125 100 484.4666748046875 234.096969604492188 0
503 250.81817626953125 0 468.4666748046875 234.096969604492188 0
503 256.81817626953125 0 468.4666748046875 234.096969604492188 0
503 256.81817626953125 100 468.4666748046875 234.096969604492188 0
503 250.81817626953125 100 468.4666748046875 234.096969604492188 0
570 212.395355224609375 0 514 191.155807495117188 0
570 218.395355224609375 0 514 191.155807495117188 0
570 218.395355224609375 100 514 191.155807495117188 0
570 212.395355224609375 100 514 191.155807495117188 0
560 212.395355224609375 0 503 191.155807495117188 0
560 218.395355224609375 0 503 191.155807495117188 0
560 218.395355224609375 100 503 191.155807495117188 0
560 212.395355224609375 100 503 191.155807495117188 0
346 212.395355224609375 0 326.647064208984375 199.901504516601562 0
346 218.395355224609375 0 326.647064208984375 199.901504516601562 0
346 218.395355224609375 100 326.647064208984375 199.901504516601562 0
346 212.395355224609375 100 326.647064208984375 199.901504516601562 0
329 212.395355224609375 0 308.647064208984375 199.901504516601562 0
329 218.395355224609375 0 308.647064208984375 199.901504516601562 0
329 218.395355224609375 100 308.647064208984375 199.901504516601562 0
329 212.395355224609375 100 308.647064208984375 199.901504516601562 0
364 107 0 350.518524169921875 104.037040710449219 0
370 107 0 350.518524169921875 104.037040710449219 0
370 107 100 350.518524169921875 104.037040710449219 0
364 107 100 350.518524169921875 104.037040710449219 0
260 261 0 242.666671752929688 244.600006103515625 0
254 261 0 242.666671752929688 244.600006103515625 0
254 261 100 242.666671752929688 244.600006103515625 0
260 261 100 242.666671752929688 244.600006103515625 0
260 246 0 242.666671752929688 228.600006103515625 0
254 246 0 242.666671752929688 228.600006103515625 0
254 246 100 242.666671752929688 228.600006103515625 0
260 246 100 242.666671752929688 228.600006103515625 0
260 290 0 247.619049072265625 275.19049072265625 0
254 290 0 247.619049072265625 275.19049072265625 0
254 290 100 247.619049072265625 275.19049072265625 0
260 290 100 247.619049072265625 275.19049072265625 0
648 158 0 584.20001220703125 142.199996948242188 0
648 164 0 584.20001220703125 142.199996948242188 0
648 164 100 584.20001220703125 142.199996948242188 0
648 158 100 584.20001220703125 142.199996948242188 0
638 158 0 573.20001220703125 142.199996948242188 0
638 164 0 573.20001220703125 142.199996948242188 0
638 164 100 573.20001220703125 142.199996948242188 0
638 158 100 573.20001220703125 142.199996948242188 0
555.50006103515625 308.984222412109375 0 549.83795166015625 304.831878662109375 0
561.49993896484375 309.015777587890625 0 549.83795166015625 304.831878662109375 0
561.49993896484375 309.015777587890625 100 549.83795166015625 304.831878662109375 0
555.50006103515625 308.984222412109375 100 549.83795166015625 304.831878662109375 0
588 407 0 571.19036865234375 394.672576904296875 0
588 401 0 571.19036865234375 394.672576904296875 0
588 401 100 571.19036865234375 394.672576904296875 0
588 407 100 571.19036865234375 394.672576904296875 0
272.020843505859375 138.374923706054688 0 265.68505859375 135.667587280273438 0
271.979156494140625 132.375076293945312 0 265.68505859375 135.667587280273438 0
271.979156494140625 132.375076293945312 100 265.68505859375 135.667587280273438 0
272.020843505859375 138.374923706054688 100 265.68505859375 135.667587280273438 0
323 152 0 299.894073486328125 142.126617431640625 0
329 152 0 299.894073486328125 142.126617431640625 0
329 152 100 299.894073486328125 142.126617431640625 0
323 152 100 299.894073486328125 142.126617431640625 0
653 407 0 0 0 -1
647 401 0 0 0 -1
647 67 0 0 0 -1
653 67 0 0 0 -1
653 407 100 0 0 1
647 401 100 0 0 1
647 67 100 0 0 1
653 67 100 0 0 1
647 401 0 0 0 -1
653 407 0 0 0 -1
620 407 0 0 0 -1
620 401 0 0 0 -1
647 401 100 0 0 1
653 407 100 0 0 1
620 407 100 0 0 1
620 401 100 0 0 1
247.503036499023438 245 0 0 0 -1
241.503036499023438 245 0 0 0 -1
241.503036499023438 162 0 0 0 -1
247.503036499023438 162 0 0 0 -1
247.503036499023438 245 100 0 0 1
241.503036499023438 245 100 0 0 1
241.503036499023438 162 100 0 0 1
247.503036499023438 162 100 0 0 1
480 63.632476806640625 0 0 0 -1
480 69.632476806640625 0 0 0 -1
466 69.632476806640625 0 0 0 -1
466 63.632476806640625 0 0 0 -1
480 63.632476806640625 100 0 0 1
480 69.632476806640625 100 0 0 1
466 69.632476806640625 100 0 0 1
466 63.632476806640625 100 0 0 1
650 63.632476806640625 0 0 0 -1
650 69.632476806640625 0 0 0 -1
592 69.632476806640625 0 0 0 -1
592 63.632476806640625 0 0 0 -1
650 63.632476806640625 100 0 0 1
650 69.632476806640625 100 0 0 1
592 69.632476806640625 100 0 0 1
592 63.632476806640625 100 0 0 1
406 64 0 0 0 -1
406 70 0 0 0 -1
395 70 0 0 0 -1
389 64 0 0 0 -1
406 64 100 0 0 1
406 70 100 0 0 1
395 70 100 0 0 1
389 64 100 0 0 1
389 64 0 0 0 -1
395 70 0 0 0 -1
395 91 0 0 0 -1
389 91 0 0 0 -1
389 64 100 0 0 1
395 70 100 0 0 1
395 91 100 0 0 1
389 91 100 0 0 1
443 63.632476806640625 0 0 0 -1
443 69.632476806640625 0 0 0 -1
428 69.632476806640625 0 0 0 -1
428 63.632476806640625 0 0 0 -1
443 63.632476806640625 100 0 0 1
443 69.632476806640625 100 0 0 1
428 69.632476806640625 100 0 0 1
428 63.632476806640625 100 0 0 1
516 63.632476806640625 0 0 0 -1
516 69.632476806640625 0 0 0 -1
504 69.632476806640625 0 0 0 -1
504 63.632476806640625 0 0 0 -1
516 63.632476806640625 100 0 0 1
516 69.632476806640625 100 0 0 1
504 69.632476806640625 100 0 0 1
504 63.632476806640625 100 0 0 1
395 309 0 0 0 -1
389 309 0 0 0 -1
389 251 0 0 0 -1
395 257 0 0 0 -1
395 309 100 0 0 1
389 309 100 0 0 1
389 251 100 0 0 1
395 257 100 0 0 1
395 257 0 0 0 -1
389 251 0 0 0 -1
405 251 0 0 0 -1
405 257 0 0 0 -1
395 257 100 0 0 1
389 251 100 0 0 1
405 251 100 0 0 1
405 257 100 0 0 1
394.86334228515625 215 0 0 0 -1
388.86334228515625 215 0 0 0 -1
388.86334228515625 203 0 0 0 -1
394.86334228515625 203 0 0 0 -1
394.86334228515625 215 100 0 0 1
388.86334228515625 215 100 0 0 1
388.86334228515625 203 100 0 0 1
394.86334228515625 203 100 0 0 1
206.638885498046875 308 0 0 0 -1
200.638885498046875 308 0 0 0 -1
200.638885498046875 244 0 0 0 -1
206.638885498046875 244 0 0 0 -1
206.638885498046875 308 100 0 0 1
200.638885498046875 308 100 0 0 1
200.638885498046875 244 100 0 0 1
206.638885498046875 244 100 0 0 1
521 309 0 0 0 -1
515 309 0 0 0 -1
515 254 0 0 0 -1
521 254 0 0 0 -1
521 309 100 0 0 1
515 309 100 0 0 1
515 254 100 0 0 1
521 254 100 0 0 1
356 305.237213134765625 0 0 0 -1
356 311.237213134765625 0 0 0 -1
286 311.237213134765625 0 0 0 -1
286 305.237213134765625 0 0 0 -1
356 305.237213134765625 100 0 0 1
356 311.237213134765625 100 0 0 1
286 311.237213134765625 100 0 0 1
286 305.237213134765625 100 0 0 1
254 305 0 0 0 -1
260 311 0 0 0 -1
204 311 0 0 0 -1
204 305 0 0 0 -1
254 305 100 0 0 1
260 311 100 0 0 1
204 311 100 0 0 1
204 305 100 0 0 1
260 311 0 0 0 -1
254 305 0 0 0 -1
254 290 0 0 0 -1
260 290 0 0 0 -1
260 311 100 0 0 1
254 305 100 0 0 1
254 290 100 0 0 1
260 290 100 0 0 1
377 105.9375 0 0 0 -1
377 111.9375 0 0 0 -1
354 111.9375 0 0 0 -1
354 105.9375 0 0 0 -1
377 105.9375 100 0 0 1
377 111.9375 100 0 0 1
354 111.9375 100 0 0 1
354 105.9375 100 0 0 1
391 80 0 0 0 -1
391 86 0 0 0 -1
370 86 0 0 0 -1
364 80 0 0 0 -1
391 80 100 0 0 1
391 86 100 0 0 1
370 86 100 0 0 1
364 80 100 0 0 1
364 80 0 0 0 -1
370 86 0 0 0 -1
370 107 0 0 0 -1
364 107 0 0 0 -1
364 80 100 0 0 1
370 86 100 0 0 1
370 107 100 0 0 1
364 107 100 0 0 1
480 250.81817626953125 0 0 0 -1
480 256.81817626953125 0 0 0 -1
466 256.81817626953125 0 0 0 -1
466 250.81817626953125 0 0 0 -1
480 250.81817626953125 100 0 0 1
480 256.81817626953125 100 0 0 1
466 256.81817626953125 100 0 0 1
466 250.81817626953125 100 0 0 1
442 250.81817626953125 0 0 0 -1
442 256.81817626953125 0 0 0 -1
428 256.81817626953125 0 0 0 -1
428 250.81817626953125 0 0 0 -1
442 250.81817626953125 100 0 0 1
442 256.81817626953125 100 0 0 1
428 256.81817626953125 100 0 0 1
428 250.81817626953125 100 0 0 1
518 250.81817626953125 0 0 0 -1
518 256.81817626953125 0 0 0 -1
503 256.81817626953125 0 0 0 -1
503 250.81817626953125 0 0 0 -1
518 250.81817626953125 100 0 0 1
518 256.81817626953125 100 0 0 1
503 256.81817626953125 100 0 0 1
503 250.81817626953125 100 0 0 1
570 212.395355224609375 0 0 0 -1
570 218.395355224609375 0 0 0 -1
560 218.395355224609375 0 0 0 -1
560 212.395355224609375 0 0 0 -1
570 212.395355224609375 100 0 0 1
570 218.395355224609375 100 0 0 1
560 218.395355224609375 100 0 0 1
560 212.395355224609375 100 0 0 1
346 212.395355224609375 0 0 0 -1
346 218.395355224609375 0 0 0 -1
329 218.395355224609375 0 0 0 -1
329 212.395355224609375 0 0 0 -1
346 212.395355224609375 100 0 0 1
346 218.395355224609375 100 0 0 1
329 218.395355224609375 100 0 0 1
329 212.395355224609375 100 0 0 1
260 261 0 0 0 -1
254 261 0 0 0 -1
254 246 0 0 0 -1
260 246 0 0 0 -1
260 261 100 0 0 1
254 261 100 0 0 1
254 246 100 0 0 1
260 246 100 0 0 1
648 158 0 0 0 -1
648 164 0 0 0 -1
638 164 0 0 0 -1
638 158 0 0 0 -1
648 158 100 0 0 1
648 164 100 0 0 1
638 164 100 0 0 1
638 158 100 0 0 1
555.50006103515625 308.984222412109375 0 0 0 -1
561.49993896484375 309.015777587890625 0 0 0 -1
561.01580810546875 401 0 0 0 -1
554.98419189453125 407 0 0 0 -1
555.50006103515625 308.984222412109375 100 0 0 1
561.49993896484375 309.015777587890625 100 0 0 1
561.01580810546875 401 100 0 0 1
554.98419189453125 407 100 0 0 1
554.98419189453125 407 0 0 0 -1
561.01580810546875 401 0 0 0 -1
588 401 0 0 0 -1
588 407 0 0 0 -1
554.98419189453125 407 100 0 0 1
561.01580810546875 401 100 0 0 1
588 401 100 0 0 1
588 407 100 0 0 1
272.020843505859375 138.374923706054688 0 0 0 -1
271.979156494140625 132.375076293945312 0 0 0 -1
329 131.979095458984375 0 0 0 -1
323 138.020904541015625 0 0 0 -1
272.020843505859375 138.374923706054688 100 0 0 1
271.979156494140625 132.375076293945312 100 0 0 1
329 131.979095458984375 100 0 0 1
323 138.020904541015625 100 0 0 1
323 138.020904541015625 0 0 0 -1
329 131.979095458984375 0 0 0 -1
329 152 0 0 0 -1
323 152 0 0 0 -1
323 138.020904541015625 100 0 0 1
329 131.979095458984375 100 0 0 1
329 152 100 0 0 1
323 152 100 0 0 1
4 0 1 2 3
4 4 5 6 7
4 8 9 10 11
4 12 13 14 15
4 16 17 18 19
4 20 21 22 23
4 24 25 26 27
4 28 29 30 31
4 32 33 34 35
4 36 37 38 39
4 40 41 42 43
4 44 45 46 47
4 48 49 50 51
4 52 53 54 55
4 56 57 58 59
4 60 61 62 63
4 64 65 66 67
4 68 69 70 71
4 72 73 74 75
4 76 77 78 79
4 80 81 82 83
4 84 85 86 87
4 88 89 90 91
4 92 93 94 95
4 96 97 98 99
4 100 101 102 103
4 104 105 106 107
4 108 109 110 111
4 112 113 114 115
4 116 117 118 119
4 120 121 122 123
4 124 125 126 127
4 128 129 130 131
4 132 133 134 135
4 136 137 138 139
4 140 141 142 143
4 144 145 146 147
4 148 149 150 151
4 152 153 154 155
4 156 157 158 159
4 160 161 162 163
4 164 165 166 167
4 168 169 170 171
4 172 173 174 175
4 176 177 178 179
4 180 181 182 183
4 184 185 186 187
4 188 189 190 191
4 192 193 194 195
4 196 197 198 199
4 200 201 202 203
4 204 205 206 207
4 208 209 210 211
4 212 213 214 215
4 216 217 218 219
4 220 221 222 223
4 224 225 226 227
4 228 229 230 231
4 232 233 234 235
4 236 237 238 239
4 240 241 242 243
4 244 245 246 247
4 248 249 250 251
4 252 253 254 255
4 256 257 258 259
4 260 261 262 263
4 264 265 266 267
4 268 269 270 271
4 272 273 274 275
4 276 277 278 279
4 280 281 282 283
4 284 285 286 287
4 288 289 290 291
4 292 293 294 295
4 296 297 298 299
4 300 301 302 303
4 304 305 306 307
4 308 309 310 311
4 312 313 314 315
4 316 317 318 319
4 320 321 322 323
4 324 325 326 327
4 328 329 330 331
4 332 333 334 335
4 336 337 338 339
4 340 341 342 343
4 344 345 346 347
4 348 349 350 351
4 352 353 354 355
4 356 357 358 359
4 360 361 362 363
4 364 365 366 367
4 368 369 370 371
4 372 373 374 375
4 376 377 378 379
4 380 381 382 383
4 384 385 386 387
4 388 389 390 391
4 392 393 394 395
4 396 397 398 399
4 400 401 402 403
4 404 405 406 407
4 408 409 410 411
4 412 413 414 415
4 416 417 418 419
4 420 421 422 423
4 424 425 426 427
4 428 429 430 431
4 432 433 434 435
4 436 437 438 439
4 440 441 442 443
4 444 445 446 447
4 448 449 450 451
4 452 453 454 455
4 456 457 458 459
4 460 461 462 463
4 464 465 466 467
4 468 469 470 471
4 472 473 474 475
4 476 477 478 479
4 480 481 482 483
4 484 485 486 487
4 488 489 490 491
4 492 493 494 495
4 496 497 498 499
4 500 501 502 503
4 504 505 506 507
4 508 509 510 511
4 512 513 514 515
4 516 517 518 519
4 520 521 522 523
4 524 525 526 527
4 528 529 530 531
4 532 533 534 535
4 536 537 538 539
4 540 541 542 543
4 544 545 546 547
4 548 549 550 551
4 552 553 554 555
4 556 557 558 559
4 560 561 562 563
4 564 565 566 567
4 568 569 570 571
4 572 573 574 575
4 576 577 578 579
4 580 581 582 583
4 584 585 586 587
4 588 589 590 591
4 592 593 594 595
4 596 597 598 599
4 600 601 602 603
4 604 605 606 607
4 608 609 610 611
4 612 613 614 615
4 616 617 618 619
4 620 621 622 623
4 624 625 626 627
4 628 629 630 631
4 632 633 634 635
4 636 637 638 639
4 640 641 642 643
4 644 645 646 647
4 648 649 650 651
4 652 653 654 655
4 656 657 658 659
4 660 661 662 663
4 664 665 666 667
4 668 669 670 671
4 672 673 674 675
4 676 677 678 679
4 680 681 682 683
4 684 685 686 687
