ply
format ascii 1.0
element vertex 1136
property float x
property float y
property float z
property float nx
property float ny
property float nz
element quads 284
property list uchar int vertex_indices
end_header
666 241 0 -0 -1 0
134 241 0 -0 -1 0
134 241 150 -0 -1 0
666 241 150 -0 -1 0
656 251 0 0 1 0
144 251 0 0 1 0
144 251 150 0 1 0
656 251 150 0 1 0
656 251 0 -1 0 0
656 304 0 -1 0 0
656 304 150 -1 0 0
656 251 150 -1 0 0
666 241 0 1 -0 0
666 304 0 1 -0 0
666 304 150 1 -0 0
666 241 150 1 -0 0
134 241 0 -1 0 0
134 313 0 -1 0 0
134 313 150 -1 0 0
134 241 150 -1 0 0
144 251 0 1 -0 0
144 313 0 1 -0 0
144 313 150 1 -0 0
144 251 150 1 -0 0
302 244 0 1 0 0
302 43 0 1 0 0
302 43 150 1 0 0
302 244 150 1 0 0
292 244 0 -1 -0 0
292 33 0 -1 -0 0
292 33 150 -1 -0 0
292 244 150 -1 -0 0
302 43 0 -0 1 0
322 43 0 -0 1 0
322 43 150 -0 1 0
302 43 150 -0 1 0
292 33 0 0 -1 0
322 33 0 0 -1 0
322 33 150 0 -1 0
292 33 150 0 -1 0
351.998199462890625 513 0 1 0 0
351.998199462890625 329 0 1 0 0
351.998199462890625 329 150 1 0 0
351.998199462890625 513 150 1 0 0
341.998199462890625 513 0 -1 -0 0
341.998199462890625 329 0 -1 -0 0
341.998199462890625 329 150 -1 -0 0
341.998199462890625 513 150 -1 -0 0
230 511 0 1 0 0
230 355 0 1 0 0
230 355 150 1 0 0
230 511 150 1 0 0
220 521 0 -1 -0 0
220 355 0 -1 -0 0
220 355 150 -1 -0 0
220 521 150 -1 -0 0
220 521 0 -0 1 0
270.876556396484375 521 0 -0 1 0
270.876556396484375 521 150 -0 1 0
220 521 150 -0 1 0
230 511 0 0 -1 0
261.123443603515625 511 0 0 -1 0
261.123443603515625 511 150 0 -1 0
230 511 150 0 -1 0
666.994140625 453 0 1 0 0
666.994140625 339 0 1 0 0
666.994140625 339 150 1 0 0
666.994140625 453 150 1 0 0
656.994140625 453 0 -1 -0 0
656.994140625 339 0 -1 -0 0
656.994140625 339 150 -1 -0 0
656.994140625 453 150 -1 -0 0
623.003173828125 453 0 1 0 0
623.003173828125 348 0 1 0 0
623.003173828125 348 150 1 0 0
623.003173828125 453 150 1 0 0
613.003173828125 453 0 -1 -0 0
613.003173828125 348 0 -1 -0 0
613.003173828125 348 150 -1 -0 0
613.003173828125 453 150 -1 -0 0
494 244 0 1 0 0
494 38 0 1 0 0
494 38 150 1 0 0
494 244 150 1 0 0
484 244 0 -1 -0 0
484 38 0 -1 -0 0
484 38 150 -1 -0 0
484 244 150 -1 -0 0
508 244 0 1 0 0
508 36 0 1 0 0
508 36 150 1 0 0
508 244 150 1 0 0
498 244 0 -1 -0 0
498 36 0 -1 -0 0
498 36 150 -1 -0 0
498 244 150 -1 -0 0
144.00933837890625 454 0 1 0 0
144.00933837890625 346 0 1 0 0
144.00933837890625 346 150 1 0 0
144.00933837890625 454 150 1 0 0
134.00933837890625 454 0 -1 -0 0
134.00933837890625 346 0 -1 -0 0
134.00933837890625 346 150 -1 -0 0
134.00933837890625 454 150 -1 -0 0
300 325 0 -0 -1 0
261 325 0 -0 -1 0
261 325 150 -0 -1 0
300 325 150 -0 -1 0
310 335 0 0 1 0
251 335 0 0 1 0
251 335 150 0 1 0
310 335 150 0 1 0
310 335 0 1 0 0
310 249 0 1 0 0
310 249 150 1 0 0
310 335 150 1 0 0
300 325 0 -1 -0 0
300 249 0 -1 -0 0
300 249 150 -1 -0 0
300 325 150 -1 -0 0
261 325 0 1 0 0
261 300 0 1 0 0
261 300 150 1 0 0
261 325 150 1 0 0
251 335 0 -1 -0 0
251 300 0 -1 -0 0
251 300 150 -1 -0 0
251 335 150 -1 -0 0
549.98651123046875 273 0 1 0 0
549.98651123046875 248 0 1 0 0
549.98651123046875 248 150 1 0 0
549.98651123046875 273 150 1 0 0
539.98651123046875 273 0 -1 -0 0
539.98651123046875 248 0 -1 -0 0
539.98651123046875 248 150 -1 -0 0
539.98651123046875 273 150 -1 -0 0
187.996810913085938 454 0 1 0 0
187.996810913085938 349 0 1 0 0
187.996810913085938 349 150 1 0 0
187.996810913085938 454 150 1 0 0
177.996810913085938 454 0 -1 -0 0
177.996810913085938 349 0 -1 -0 0
177.996810913085938 349 150 -1 -0 0
177.996810913085938 454 150 -1 -0 0
421 32.5030670166015625 0 -0 -1 0
379 32.5030670166015625 0 -0 -1 0
379 32.5030670166015625 150 -0 -1 0
421 32.5030670166015625 150 -0 -1 0
421 42.5030670166015625 0 0 1 0
379 42.5030670166015625 0 0 1 0
379 42.5030670166015625 150 0 1 0
421 42.5030670166015625 150 0 1 0
478 511 0 -0 -1 0
454 511 0 -0 -1 0
454 511 150 -0 -1 0
478 511 150 -0 -1 0
488 521 0 0 1 0
454 521 0 0 1 0
454 521 150 0 1 0
488 521 150 0 1 0
488 521 0 1 0 0
488 496 0 1 0 0
488 496 150 1 0 0
488 521 150 1 0 0
478 511 0 -1 -0 0
478 496 0 -1 -0 0
478 496 150 -1 -0 0
478 511 150 -1 -0 0
500.96551513671875 330 0 1 0 0
500.96551513671875 248 0 1 0 0
500.96551513671875 248 150 1 0 0
500.96551513671875 330 150 1 0 0
490.96551513671875 330 0 -1 -0 0
490.96551513671875 248 0 -1 -0 0
490.96551513671875 248 150 -1 -0 0
490.96551513671875 330 150 -1 -0 0
279 171 0 1 0 0
279 147 0 1 0 0
279 147 150 1 0 0
279 171 150 1 0 0
269 181 0 -1 -0 0
269 137 0 -1 -0 0
269 137 150 -1 -0 0
269 181 150 -1 -0 0
269 181 0 -0 1 0
295 181 0 -0 1 0
295 181 150 -0 1 0
269 181 150 -0 1 0
279 171 0 0 -1 0
295 171 0 0 -1 0
295 171 150 0 -1 0
279 171 150 0 -1 0
279 147 0 -0 1 0
295 147 0 -0 1 0
295 147 150 -0 1 0
279 147 150 -0 1 0
269 137 0 0 -1 0
295 137 0 0 -1 0
295 137 150 0 -1 0
269 137 150 0 -1 0
200.49090576171875 277 0 1 0 0
200.49090576171875 249 0 1 0 0
200.49090576171875 249 150 1 0 0
200.49090576171875 277 150 1 0 0
190.49090576171875 277 0 -1 -0 0
190.49090576171875 249 0 -1 -0 0
190.49090576171875 249 150 -1 -0 0
190.49090576171875 277 150 -1 -0 0
616 364 0 -0 -1 0
578 364 0 -0 -1 0
578 364 150 -0 -1 0
616 364 150 -0 -1 0
616 374 0 0 1 0
578 374 0 0 1 0
578 374 150 0 1 0
616 374 150 0 1 0
261.013519287109375 276 0 1 0 0
261.013519287109375 251 0 1 0 0
261.013519287109375 251 150 1 0 0
261.013519287109375 276 150 1 0 0
251.013519287109375 276 0 -1 -0 0
251.013519287109375 251 0 -1 -0 0
251.013519287109375 251 150 -1 -0 0
251.013519287109375 276 150 -1 -0 0
223 364 0 -0 -1 0
185 364 0 -0 -1 0
185 364 150 -0 -1 0
223 364 150 -0 -1 0
223 374 0 0 1 0
185 374 0 0 1 0
185 374 150 0 1 0
223 374 150 0 1 0
339 296 0 1 0 0
339 277 0 1 0 0
339 277 150 1 0 0
339 296 150 1 0 0
329 296 0 -1 -0 0
329 277 0 -1 -0 0
329 277 150 -1 -0 0
329 296 150 -1 -0 0
323 296 0 1 0 0
323 285 0 1 0 0
323 285 150 1 0 0
323 296 150 1 0 0
313 296 0 -1 -0 0
313 285 0 -1 -0 0
313 285 150 -1 -0 0
313 296 150 -1 -0 0
168 297.28448486328125 0 -0 -1 0
141 297.28448486328125 0 -0 -1 0
141 297.28448486328125 150 -0 -1 0
168 297.28448486328125 150 -0 -1 0
168 307.28448486328125 0 0 1 0
141 307.28448486328125 0 0 1 0
141 307.28448486328125 150 0 1 0
168 307.28448486328125 150 0 1 0
265.52630615234375 412 0 1 0 0
265.52630615234375 392 0 1 0 0
265.52630615234375 392 150 1 0 0
265.52630615234375 412 150 1 0 0
255.526321411132812 412 0 -1 -0 0
255.526321411132812 392 0 -1 -0 0
255.526321411132812 392 150 -1 -0 0
255.526321411132812 412 150 -1 -0 0
532 137 0 -0 -1 0
505 137 0 -0 -1 0
505 137 150 -0 -1 0
532 137 150 -0 -1 0
522 147 0 0 1 0
505 147 0 0 1 0
505 147 150 0 1 0
522 147 150 0 1 0
522 147 0 -1 0 0
522 170.112350463867188 0 -1 0 0
522 170.112350463867188 150 -1 0 0
522 147 150 -1 0 0
532 137 0 1 -0 0
532 179.887649536132812 0 1 -0 0
532 179.887649536132812 150 1 -0 0
532 137 150 1 -0 0
489 32.5 0 -0 -1 0
477 32.5 0 -0 -1 0
477 32.5 150 -0 -1 0
489 32.5 150 -0 -1 0
489 42.5 0 0 1 0
477 42.5 0 0 1 0
477 42.5 150 0 1 0
489 42.5 150 0 1 0
540 511 0 1 0 0
540 496 0 1 0 0
540 496 150 1 0 0
540 511 150 1 0 0
530 521 0 -1 -0 0
530 496 0 -1 -0 0
530 496 150 -1 -0 0
530 521 150 -1 -0 0
530 521 0 -0 1 0
580.9937744140625 521 0 -0 1 0
580.9937744140625 521 150 -0 1 0
530 521 150 -0 1 0
540 511 0 0 -1 0
571.0062255859375 511 0 0 -1 0
571.0062255859375 511 150 0 -1 0
540 511 150 0 -1 0
611.50946044921875 276 0 1 0 0
611.50946044921875 249 0 1 0 0
611.50946044921875 249 150 1 0 0
611.50946044921875 276 150 1 0 0
601.50946044921875 276 0 -1 -0 0
601.50946044921875 249 0 -1 -0 0
601.50946044921875 249 150 -1 -0 0
601.50946044921875 276 150 -1 -0 0
496.54052734375 414 0 1 0 0
496.54052734375 394 0 1 0 0
496.54052734375 394 150 1 0 0
496.54052734375 414 150 1 0 0
486.54052734375 414 0 -1 -0 0
486.54052734375 394 0 -1 -0 0
486.54052734375 394 150 -1 -0 0
486.54052734375 414 150 -1 -0 0
545.98248291015625 414 0 1 0 0
545.98248291015625 394 0 1 0 0
545.98248291015625 394 150 1 0 0
545.98248291015625 414 150 1 0 0
535.98248291015625 414 0 -1 -0 0
535.98248291015625 394 0 -1 -0 0
535.98248291015625 394 150 -1 -0 0
535.98248291015625 414 150 -1 -0 0
356.5 296 0 1 0 0
356.5 285 0 1 0 0
356.5 285 150 1 0 0
356.5 296 150 1 0 0
346.5 296 0 -1 -0 0
346.5 285 0 -1 -0 0
346.5 285 150 -1 -0 0
346.5 296 150 -1 -0 0
283.541656494140625 412 0 1 0 0
283.541656494140625 399 0 1 0 0
283.541656494140625 399 150 1 0 0
283.541656494140625 412 150 1 0 0
273.541656494140625 412 0 -1 -0 0
273.541656494140625 399 0 -1 -0 0
273.541656494140625 399 150 -1 -0 0
273.541656494140625 412 150 -1 -0 0
514.5 413 0 1 0 0
514.5 403 0 1 0 0
514.5 403 150 1 0 0
514.5 413 150 1 0 0
504.5 413 0 -1 -0 0
504.5 403 0 -1 -0 0
504.5 403 150 -1 -0 0
504.5 413 150 -1 -0 0
580.9937744140625 521 0 0.99999922513961792 0.00125064537860453129 0
581.1988525390625 357.006256103515625 0 0.99999922513961792 0.00125064537860453129 0
581.1988525390625 357.006256103515625 150 0.99999922513961792 0.00125064537860453129 0
580.9937744140625 521 150 0.99999922513961792 0.00125064537860453129 0
571.0062255859375 511 0 -0.99999922513961792 -0.00125064537860453129 0
571.1988525390625 356.993743896484375 0 -0.99999922513961792 -0.00125064537860453129 0
571.1988525390625 356.993743896484375 150 -0.99999922513961792 -0.00125064537860453129 0
571.0062255859375 511 150 -0.99999922513961792 -0.00125064537860453129 0
386 511 0 -0 -1 0
323.126556396484375 511 0 -0 -1 0
323.126556396484375 511 150 -0 -1 0
386 511 150 -0 -1 0
386 521 0 0 1 0
312.873443603515625 521 0 0 1 0
312.873443603515625 521 150 0 1 0
386 521 150 0 1 0
323.126556396484375 511 0 0.999687671661376953 0.0249921903014183044 0
323.498443603515625 496.124969482421875 0 0.999687671661376953 0.0249921903014183044 0
323.498443603515625 496.124969482421875 150 0.999687671661376953 0.0249921903014183044 0
323.126556396484375 511 150 0.999687671661376953 0.0249921903014183044 0
312.873443603515625 521 0 -0.999687671661376953 -0.0249921903014183044 0
313.501556396484375 495.875030517578125 0 -0.999687671661376953 -0.0249921903014183044 0
313.501556396484375 495.875030517578125 150 -0.999687671661376953 -0.0249921903014183044 0
312.873443603515625 521 150 -0.999687671661376953 -0.0249921903014183044 0
449.439697265625 323.988494873046875 0 -0.999997377395629883 -0.00230208016000688076 0
449.0113525390625 510.065216064453125 0 -0.999997377395629883 -0.00230208016000688076 0
449.0113525390625 510.065216064453125 150 -0.999997377395629883 -0.00230208016000688076 0
449.439697265625 323.988494873046875 150 -0.999997377395629883 -0.00230208016000688076 0
459.439697265625 324.011505126953125 0 0.999997377395629883 0.00230208016000688076 0
458.9886474609375 519.93475341796875 0 0.999997377395629883 0.00230208016000688076 0
458.9886474609375 519.93475341796875 150 0.999997377395629883 0.00230208016000688076 0
459.439697265625 324.011505126953125 150 0.999997377395629883 0.00230208016000688076 0
449.0113525390625 510.065216064453125 0 -0.0131612531840801239 -0.999913394451141357 0
414.9342041015625 510.513763427734375 0 -0.0131612531840801239 -0.999913394451141357 0
414.9342041015625 510.513763427734375 150 -0.0131612531840801239 -0.999913394451141357 0
449.0113525390625 510.065216064453125 150 -0.0131612531840801239 -0.999913394451141357 0
458.9886474609375 519.93475341796875 0 0.0131612531840801239 0.999913394451141357 0
415.0657958984375 520.51287841796875 0 0.0131612531840801239 0.999913394451141357 0
415.0657958984375 520.51287841796875 150 0.0131612531840801239 0.999913394451141357 0
458.9886474609375 519.93475341796875 150 0.0131612531840801239 0.999913394451141357 0
496 335 0 -0 1 0
548.860595703125 335 0 -0 1 0
548.860595703125 335 150 -0 1 0
496 335 150 -0 1 0
496 325 0 0 -1 0
539.139404296875 325 0 0 -1 0
539.139404296875 325 150 0 -1 0
496 325 150 0 -1 0
548.860595703125 335 0 0.999600350856781006 0.0282685812562704086 0
549.98779296875 295.141357421875 0 0.999600350856781006 0.0282685812562704086 0
549.98779296875 295.141357421875 150 0.999600350856781006 0.0282685812562704086 0
548.860595703125 335 150 0.999600350856781006 0.0282685812562704086 0
539.139404296875 325 0 -0.999600350856781006 -0.0282685812562704086 0
539.9918212890625 294.858642578125 0 -0.999600350856781006 -0.0282685812562704086 0
539.9918212890625 294.858642578125 150 -0.999600350856781006 -0.0282685812562704086 0
539.139404296875 325 150 -0.999600350856781006 -0.0282685812562704086 0
522 170.112350463867188 0 -0.0227214060723781586 -0.999741852283477783 0
504.886383056640625 170.501296997070312 0 -0.0227214060723781586 -0.999741852283477783 0
504.886383056640625 170.501296997070312 150 -0.0227214060723781586 -0.999741852283477783 0
522 170.112350463867188 150 -0.0227214060723781586 -0.999741852283477783 0
532 179.887649536132812 0 0.0227214060723781586 0.999741852283477783 0
505.113616943359375 180.498703002929688 0 0.0227214060723781586 0.999741852283477783 0
505.113616943359375 180.498703002929688 150 0.0227214060723781586 0.999741852283477783 0
532 179.887649536132812 150 0.0227214060723781586 0.999741852283477783 0
270.876556396484375 521 0 0.999687671661376953 0.0249921903014183044 0
271.498443603515625 496.124969482421875 0 0.999687671661376953 0.0249921903014183044 0
271.498443603515625 496.124969482421875 150 0.999687671661376953 0.0249921903014183044 0
270.876556396484375 521 150 0.999687671661376953 0.0249921903014183044 0
261.123443603515625 511 0 -0.999687671661376953 -0.0249921903014183044 0
261.501556396484375 495.875030517578125 0 -0.999687671661376953 -0.0249921903014183044 0
261.501556396484375 495.875030517578125 150 -0.999687671661376953 -0.0249921903014183044 0
261.123443603515625 511 150 -0.999687671661376953 -0.0249921903014183044 0
302 244 0 300.49749755859375 243.78607177734375 0
292 244 0 300.49749755859375 243.78607177734375 0
292 244 150 300.49749755859375 243.78607177734375 0
302 244 150 300.49749755859375 243.78607177734375 0
351.998199462890625 513 0 350.08514404296875 511.211944580078125 0
341.998199462890625 513 0 350.08514404296875 511.211944580078125 0
341.998199462890625 513 150 350.08514404296875 511.211944580078125 0
351.998199462890625 513 150 350.08514404296875 511.211944580078125 0
351.998199462890625 329 0 350.08514404296875 326.211944580078125 0
341.998199462890625 329 0 350.08514404296875 326.211944580078125 0
341.998199462890625 329 150 350.08514404296875 326.211944580078125 0
351.998199462890625 329 150 350.08514404296875 326.211944580078125 0
656 304 0 643.62261962890625 299.26416015625 0
666 304 0 643.62261962890625 299.26416015625 0
666 304 150 643.62261962890625 299.26416015625 0
656 304 150 643.62261962890625 299.26416015625 0
230 355 0 228.525634765625 351.724365234375 0
220 355 0 228.525634765625 351.724365234375 0
220 355 150 228.525634765625 351.724365234375 0
230 355 150 228.525634765625 351.724365234375 0
666.994140625 453 0 661.143310546875 450.02630615234375 0
656.994140625 453 0 661.143310546875 450.02630615234375 0
656.994140625 453 150 661.143310546875 450.02630615234375 0
666.994140625 453 150 661.143310546875 450.02630615234375 0
666.994140625 339 0 661.143310546875 335.02630615234375 0
656.994140625 339 0 661.143310546875 335.02630615234375 0
656.994140625 339 150 661.143310546875 335.02630615234375 0
666.994140625 339 150 661.143310546875 335.02630615234375 0
623.003173828125 453 0 617.06982421875 449.685699462890625 0
613.003173828125 453 0 617.06982421875 449.685699462890625 0
613.003173828125 453 150 617.06982421875 449.685699462890625 0
623.003173828125 453 150 617.06982421875 449.685699462890625 0
623.003173828125 348 0 617.06982421875 343.685699462890625 0
613.003173828125 348 0 617.06982421875 343.685699462890625 0
613.003173828125 348 150 617.06982421875 343.685699462890625 0
623.003173828125 348 150 617.06982421875 343.685699462890625 0
494 244 0 491.6019287109375 243.815536499023438 0
484 244 0 491.6019287109375 243.815536499023438 0
484 244 150 491.6019287109375 243.815536499023438 0
494 244 150 491.6019287109375 243.815536499023438 0
494 38 0 491.6019287109375 36.8155326843261719 0
484 38 0 491.6019287109375 36.8155326843261719 0
484 38 150 491.6019287109375 36.8155326843261719 0
494 38 150 491.6019287109375 36.8155326843261719 0
508 244 0 505.55767822265625 243.826919555664062 0
498 244 0 505.55767822265625 243.826919555664062 0
498 244 150 505.55767822265625 243.826919555664062 0
508 244 150 505.55767822265625 243.826919555664062 0
508 36 0 505.55767822265625 34.8269233703613281 0
498 36 0 505.55767822265625 34.8269233703613281 0
498 36 150 505.55767822265625 34.8269233703613281 0
508 36 150 505.55767822265625 34.8269233703613281 0
144.00933837890625 454 0 142.675918579101562 450.796295166015625 0
134.00933837890625 454 0 142.675918579101562 450.796295166015625 0
134.00933837890625 454 150 142.675918579101562 450.796295166015625 0
144.00933837890625 454 150 142.675918579101562 450.796295166015625 0
144.00933837890625 346 0 142.675918579101562 341.796295166015625 0
134.00933837890625 346 0 142.675918579101562 341.796295166015625 0
134.00933837890625 346 150 142.675918579101562 341.796295166015625 0
144.00933837890625 346 150 142.675918579101562 341.796295166015625 0
134 313 0 132.138885498046875 309.65277099609375 0
144 313 0 132.138885498046875 309.65277099609375 0
144 313 150 132.138885498046875 309.65277099609375 0
134 313 150 132.138885498046875 309.65277099609375 0
549.98651123046875 273 0 527.98699951171875 263.079986572265625 0
539.98651123046875 273 0 527.98699951171875 263.079986572265625 0
539.98651123046875 273 150 527.98699951171875 263.079986572265625 0
549.98651123046875 273 150 527.98699951171875 263.079986572265625 0
549.98651123046875 248 0 527.98699951171875 237.080001831054688 0
539.98651123046875 248 0 527.98699951171875 237.080001831054688 0
539.98651123046875 248 150 527.98699951171875 237.080001831054688 0
549.98651123046875 248 150 527.98699951171875 237.080001831054688 0
187.996810913085938 454 0 186.206375122070312 450.676177978515625 0
177.996810913085938 454 0 186.206375122070312 450.676177978515625 0
177.996810913085938 454 150 186.206375122070312 450.676177978515625 0
187.996810913085938 454 150 186.206375122070312 450.676177978515625 0
187.996810913085938 349 0 186.206375122070312 344.676177978515625 0
177.996810913085938 349 0 186.206375122070312 344.676177978515625 0
177.996810913085938 349 150 186.206375122070312 344.676177978515625 0
187.996810913085938 349 150 186.206375122070312 344.676177978515625 0
421 32.5030670166015625 0 411.9761962890625 31.7291851043701172 0
421 42.5030670166015625 0 411.9761962890625 31.7291851043701172 0
421 42.5030670166015625 150 411.9761962890625 31.7291851043701172 0
421 32.5030670166015625 150 411.9761962890625 31.7291851043701172 0
379 32.5030670166015625 0 368.9761962890625 31.7291851043701172 0
379 42.5030670166015625 0 368.9761962890625 31.7291851043701172 0
379 42.5030670166015625 150 368.9761962890625 31.7291851043701172 0
379 32.5030670166015625 150 368.9761962890625 31.7291851043701172 0
310 249 0 306.395355224609375 245.104644775390625 0
300 249 0 306.395355224609375 245.104644775390625 0
300 249 150 306.395355224609375 245.104644775390625 0
310 249 150 306.395355224609375 245.104644775390625 0
454 511 0 434.083343505859375 489.708343505859375 0
454 521 0 434.083343505859375 489.708343505859375 0
454 521 150 434.083343505859375 489.708343505859375 0
454 511 150 434.083343505859375 489.708343505859375 0
500.96551513671875 330 0 494.856170654296875 326.975616455078125 0
490.96551513671875 330 0 494.856170654296875 326.975616455078125 0
490.96551513671875 330 150 494.856170654296875 326.975616455078125 0
500.96551513671875 330 150 494.856170654296875 326.975616455078125 0
500.96551513671875 248 0 494.856170654296875 243.975616455078125 0
490.96551513671875 248 0 494.856170654296875 243.975616455078125 0
490.96551513671875 248 150 494.856170654296875 243.975616455078125 0
500.96551513671875 248 150 494.856170654296875 243.975616455078125 0
261 300 0 250.55999755859375 287 0
251 300 0 250.55999755859375 287 0
251 300 150 250.55999755859375 287 0
261 300 150 250.55999755859375 287 0
200.49090576171875 277 0 193.330520629882812 268.107147216796875 0
190.49090576171875 277 0 193.330520629882812 268.107147216796875 0
190.49090576171875 277 150 193.330520629882812 268.107147216796875 0
200.49090576171875 277 150 193.330520629882812 268.107147216796875 0
200.49090576171875 249 0 193.330520629882812 239.107147216796875 0
190.49090576171875 249 0 193.330520629882812 239.107147216796875 0
190.49090576171875 249 150 193.330520629882812 239.107147216796875 0
200.49090576171875 249 150 193.330520629882812 239.107147216796875 0
616 364 0 600.78948974609375 354.421051025390625 0
616 374 0 600.78948974609375 354.421051025390625 0
616 374 150 600.78948974609375 354.421051025390625 0
616 364 150 600.78948974609375 354.421051025390625 0
578 364 0 561.78948974609375 354.421051025390625 0
578 374 0 561.78948974609375 354.421051025390625 0
578 374 150 561.78948974609375 354.421051025390625 0
578 364 150 561.78948974609375 354.421051025390625 0
261.013519287109375 276 0 250.572967529296875 265.959991455078125 0
251.013519287109375 276 0 250.572967529296875 265.959991455078125 0
251.013519287109375 276 150 250.572967529296875 265.959991455078125 0
261.013519287109375 276 150 250.572967529296875 265.959991455078125 0
261.013519287109375 251 0 250.572967529296875 239.960006713867188 0
251.013519287109375 251 0 250.572967529296875 239.960006713867188 0
251.013519287109375 251 150 250.572967529296875 239.960006713867188 0
261.013519287109375 251 150 250.572967529296875 239.960006713867188 0
295 181 0 284.653839111328125 174.038467407226562 0
295 171 0 284.653839111328125 174.038467407226562 0
295 171 150 284.653839111328125 174.038467407226562 0
295 181 150 284.653839111328125 174.038467407226562 0
223 364 0 218.131576538085938 354.421051025390625 0
223 374 0 218.131576538085938 354.421051025390625 0
223 374 150 218.131576538085938 354.421051025390625 0
223 364 150 218.131576538085938 354.421051025390625 0
185 364 0 179.131576538085938 354.421051025390625 0
185 374 0 179.131576538085938 354.421051025390625 0
185 374 150 179.131576538085938 354.421051025390625 0
185 364 150 179.131576538085938 354.421051025390625 0
339 296 0 321.15789794921875 281.421051025390625 0
329 296 0 321.15789794921875 281.421051025390625 0
329 296 150 321.15789794921875 281.421051025390625 0
339 296 150 321.15789794921875 281.421051025390625 0
339 277 0 321.15789794921875 261.421051025390625 0
329 277 0 321.15789794921875 261.421051025390625 0
329 277 150 321.15789794921875 261.421051025390625 0
339 277 150 321.15789794921875 261.421051025390625 0
323 296 0 293.6363525390625 270.090911865234375 0
313 296 0 293.6363525390625 270.090911865234375 0
313 296 150 293.6363525390625 270.090911865234375 0
323 296 150 293.6363525390625 270.090911865234375 0
323 285 0 293.6363525390625 258.090911865234375 0
313 285 0 293.6363525390625 258.090911865234375 0
313 285 150 293.6363525390625 258.090911865234375 0
323 285 150 293.6363525390625 258.090911865234375 0
168 297.28448486328125 0 162.77777099609375 286.273956298828125 0
168 307.28448486328125 0 162.77777099609375 286.273956298828125 0
168 307.28448486328125 150 162.77777099609375 286.273956298828125 0
168 297.28448486328125 150 162.77777099609375 286.273956298828125 0
141 297.28448486328125 0 134.77777099609375 286.273956298828125 0
141 307.28448486328125 0 134.77777099609375 286.273956298828125 0
141 307.28448486328125 150 134.77777099609375 286.273956298828125 0
141 297.28448486328125 150 134.77777099609375 286.273956298828125 0
322 43 0 306.899993896484375 40.8499984741210938 0
322 33 0 306.899993896484375 40.8499984741210938 0
322 33 150 306.899993896484375 40.8499984741210938 0
322 43 150 306.899993896484375 40.8499984741210938 0
265.52630615234375 412 0 252.25 392.399993896484375 0
255.526321411132812 412 0 252.25 392.399993896484375 0
255.526321411132812 412 150 252.25 392.399993896484375 0
265.52630615234375 412 150 252.25 392.399993896484375 0
265.52630615234375 392 0 252.25 371.399993896484375 0
255.526321411132812 392 0 252.25 371.399993896484375 0
255.526321411132812 392 150 252.25 371.399993896484375 0
265.52630615234375 392 150 252.25 371.399993896484375 0
505 137 0 485.296295166015625 131.925918579101562 0
505 147 0 485.296295166015625 131.925918579101562 0
505 147 150 485.296295166015625 131.925918579101562 0
505 137 150 485.296295166015625 131.925918579101562 0
295 147 0 277.5625 137.8125 0
295 137 0 277.5625 137.8125 0
295 137 150 277.5625 137.8125 0
295 147 150 277.5625 137.8125 0
489 32.5 0 449.25 29.7916660308837891 0
489 42.5 0 449.25 29.7916660308837891 0
489 42.5 150 449.25 29.7916660308837891 0
489 32.5 150 449.25 29.7916660308837891 0
477 32.5 0 436.25 29.7916660308837891 0
477 42.5 0 436.25 29.7916660308837891 0
477 42.5 150 436.25 29.7916660308837891 0
477 32.5 150 436.25 29.7916660308837891 0
540 496 0 504 461.933319091796875 0
530 496 0 504 461.933319091796875 0
530 496 150 504 461.933319091796875 0
540 496 150 504 461.933319091796875 0
611.50946044921875 276 0 588.8609619140625 266.77777099609375 0
601.50946044921875 276 0 588.8609619140625 266.77777099609375 0
601.50946044921875 276 150 588.8609619140625 266.77777099609375 0
611.50946044921875 276 150 588.8609619140625 266.77777099609375 0
611.50946044921875 249 0 588.8609619140625 238.77777099609375 0
601.50946044921875 249 0 588.8609619140625 238.77777099609375 0
601.50946044921875 249 150 588.8609619140625 238.77777099609375 0
611.50946044921875 249 150 588.8609619140625 238.77777099609375 0
488 496 0 468.480010986328125 475.160003662109375 0
478 496 0 468.480010986328125 475.160003662109375 0
478 496 150 468.480010986328125 475.160003662109375 0
488 496 150 468.480010986328125 475.160003662109375 0
496.54052734375 414 0 471.7135009765625 394.29998779296875 0
486.54052734375 414 0 471.7135009765625 394.29998779296875 0
486.54052734375 414 150 471.7135009765625 394.29998779296875 0
496.54052734375 414 150 471.7135009765625 394.29998779296875 0
496.54052734375 394 0 471.7135009765625 373.29998779296875 0
486.54052734375 394 0 471.7135009765625 373.29998779296875 0
486.54052734375 394 150 471.7135009765625 373.29998779296875 0
496.54052734375 394 150 471.7135009765625 373.29998779296875 0
545.98248291015625 414 0 518.683349609375 394.29998779296875 0
535.98248291015625 414 0 518.683349609375 394.29998779296875 0
535.98248291015625 414 150 518.683349609375 394.29998779296875 0
545.98248291015625 414 150 518.683349609375 394.29998779296875 0
545.98248291015625 394 0 518.683349609375 373.29998779296875 0
535.98248291015625 394 0 518.683349609375 373.29998779296875 0
535.98248291015625 394 150 518.683349609375 373.29998779296875 0
545.98248291015625 394 150 518.683349609375 373.29998779296875 0
356.5 296 0 324.090911865234375 270.090911865234375 0
346.5 296 0 324.090911865234375 270.090911865234375 0
346.5 296 150 324.090911865234375 270.090911865234375 0
356.5 296 150 324.090911865234375 270.090911865234375 0
356.5 285 0 324.090911865234375 258.090911865234375 0
346.5 285 0 324.090911865234375 258.090911865234375 0
346.5 285 150 324.090911865234375 258.090911865234375 0
356.5 285 150 324.090911865234375 258.090911865234375 0
283.541656494140625 412 0 261.73077392578125 381.30767822265625 0
273.541656494140625 412 0 261.73077392578125 381.30767822265625 0
273.541656494140625 412 150 261.73077392578125 381.30767822265625 0
283.541656494140625 412 150 261.73077392578125 381.30767822265625 0
283.541656494140625 399 0 261.73077392578125 367.30767822265625 0
273.541656494140625 399 0 261.73077392578125 367.30767822265625 0
273.541656494140625 399 150 261.73077392578125 367.30767822265625 0
283.541656494140625 399 150 261.73077392578125 367.30767822265625 0
514.5 413 0 463.04998779296875 372.70001220703125 0
504.5 413 0 463.04998779296875 372.70001220703125 0
504.5 413 150 463.04998779296875 372.70001220703125 0
514.5 413 150 463.04998779296875 372.70001220703125 0
514.5 403 0 463.04998779296875 361.70001220703125 0
504.5 403 0 463.04998779296875 361.70001220703125 0
504.5 403 150 463.04998779296875 361.70001220703125 0
514.5 403 150 463.04998779296875 361.70001220703125 0
581.1988525390625 357.006256103515625 0 577.65606689453125 353.829315185546875 0
571.1988525390625 356.993743896484375 0 577.65606689453125 353.829315185546875 0
571.1988525390625 356.993743896484375 150 577.65606689453125 353.829315185546875 0
581.1988525390625 357.006256103515625 150 577.65606689453125 353.829315185546875 0
386 511 0 380.860687255859375 502.87255859375 0
386 521 0 380.860687255859375 502.87255859375 0
386 521 150 380.860687255859375 502.87255859375 0
386 511 150 380.860687255859375 502.87255859375 0
323.498443603515625 496.124969482421875 0 301.782501220703125 461.7828369140625 0
313.501556396484375 495.875030517578125 0 301.782501220703125 461.7828369140625 0
313.501556396484375 495.875030517578125 150 301.782501220703125 461.7828369140625 0
323.498443603515625 496.124969482421875 150 301.782501220703125 461.7828369140625 0
449.439697265625 323.988494873046875 0 447.02667236328125 321.247344970703125 0
459.439697265625 324.011505126953125 0 447.02667236328125 321.247344970703125 0
459.439697265625 324.011505126953125 150 447.02667236328125 321.247344970703125 0
449.439697265625 323.988494873046875 150 447.02667236328125 321.247344970703125 0
414.9342041015625 510.513763427734375 0 401.759033203125 495.547119140625 0
415.0657958984375 520.51287841796875 0 401.759033203125 495.547119140625 0
415.0657958984375 520.51287841796875 150 401.759033203125 495.547119140625 0
414.9342041015625 510.513763427734375 150 401.759033203125 495.547119140625 0
496 335 0 485.6168212890625 328.662567138671875 0
496 325 0 485.6168212890625 328.662567138671875 0
496 325 150 485.6168212890625 328.662567138671875 0
496 335 150 485.6168212890625 328.662567138671875 0
549.98779296875 295.141357421875 0 536.22314453125 286.739990234375 0
539.9918212890625 294.858642578125 0 536.22314453125 286.739990234375 0
539.9918212890625 294.858642578125 150 536.22314453125 286.739990234375 0
549.98779296875 295.141357421875 150 536.22314453125 286.739990234375 0
504.886383056640625 170.501296997070312 0 474.3922119140625 160.563674926757812 0
505.113616943359375 180.498703002929688 0 474.3922119140625 160.563674926757812 0
505.113616943359375 180.498703002929688 150 474.3922119140625 160.563674926757812 0
504.886383056640625 170.501296997070312 150 474.3922119140625 160.563674926757812 0
271.498443603515625 496.124969482421875 0 260.612335205078125 475.186798095703125 0
261.501556396484375 495.875030517578125 0 260.612335205078125 475.186798095703125 0
261.501556396484375 495.875030517578125 150 260.612335205078125 475.186798095703125 0
271.498443603515625 496.124969482421875 150 260.612335205078125 475.186798095703125 0
666 241 0 0 0 -1
656 251 0 0 0 -1
144 251 0 0 0 -1
134 241 0 0 0 -1
666 241 150 0 0 1
656 251 150 0 0 1
144 251 150 0 0 1
134 241 150 0 0 1
656 251 0 0 0 -1
666 241 0 0 0 -1
666 304 0 0 0 -1
656 304 0 0 0 -1
656 251 150 0 0 1
666 241 150 0 0 1
666 304 150 0 0 1
656 304 150 0 0 1
134 241 0 0 0 -1
144 251 0 0 0 -1
144 313 0 0 0 -1
134 313 0 0 0 -1
134 241 150 0 0 1
144 251 150 0 0 1
144 313 150 0 0 1
134 313 150 0 0 1
302 244 0 0 0 -1
292 244 0 0 0 -1
292 33 0 0 0 -1
302 43 0 0 0 -1
302 244 150 0 0 1
292 244 150 0 0 1
292 33 150 0 0 1
302 43 150 0 0 1
302 43 0 0 0 -1
292 33 0 0 0 -1
322 33 0 0 0 -1
322 43 0 0 0 -1
302 43 150 0 0 1
292 33 150 0 0 1
322 33 150 0 0 1
322 43 150 0 0 1
351.998199462890625 513 0 0 0 -1
341.998199462890625 513 0 0 0 -1
341.998199462890625 329 0 0 0 -1
351.998199462890625 329 0 0 0 -1
351.998199462890625 513 150 0 0 1
341.998199462890625 513 150 0 0 1
341.998199462890625 329 150 0 0 1
351.998199462890625 329 150 0 0 1
230 511 0 0 0 -1
220 521 0 0 0 -1
220 355 0 0 0 -1
230 355 0 0 0 -1
230 511 150 0 0 1
220 521 150 0 0 1
220 355 150 0 0 1
230 355 150 0 0 1
220 521 0 0 0 -1
230 511 0 0 0 -1
261.123443603515625 511 0 0 0 -1
270.876556396484375 521 0 0 0 -1
220 521 150 0 0 1
230 511 150 0 0 1
261.123443603515625 511 150 0 0 1
270.876556396484375 521 150 0 0 1
666.994140625 453 0 0 0 -1
656.994140625 453 0 0 0 -1
656.994140625 339 0 0 0 -1
666.994140625 339 0 0 0 -1
666.994140625 453 150 0 0 1
656.994140625 453 150 0 0 1
656.994140625 339 150 0 0 1
666.994140625 339 150 0 0 1
623.003173828125 453 0 0 0 -1
613.003173828125 453 0 0 0 -1
613.003173828125 348 0 0 0 -1
623.003173828125 348 0 0 0 -1
623.003173828125 453 150 0 0 1
613.003173828125 453 150 0 0 1
613.003173828125 348 150 0 0 1
623.003173828125 348 150 0 0 1
494 244 0 0 0 -1
484 244 0 0 0 -1
484 38 0 0 0 -1
494 38 0 0 0 -1
494 244 150 0 0 1
484 244 150 0 0 1
484 38 150 0 0 1
494 38 150 0 0 1
508 244 0 0 0 -1
498 244 0 0 0 -1
498 36 0 0 0 -1
508 36 0 0 0 -1
508 244 150 0 0 1
498 244 150 0 0 1
498 36 150 0 0 1
508 36 150 0 0 1
144.00933837890625 454 0 0 0 -1
134.00933837890625 454 0 0 0 -1
134.00933837890625 346 0 0 0 -1
144.00933837890625 346 0 0 0 -1
144.00933837890625 454 150 0 0 1
134.00933837890625 454 150 0 0 1
134.00933837890625 346 150 0 0 1
144.00933837890625 346 150 0 0 1
300 325 0 0 0 -1
310 335 0 0 0 -1
251 335 0 0 0 -1
261 325 0 0 0 -1
300 325 150 0 0 1
310 335 150 0 0 1
251 335 150 0 0 1
261 325 150 0 0 1
310 335 0 0 0 -1
300 325 0 0 0 -1
300 249 0 0 0 -1
310 249 0 0 0 -1
310 335 150 0 0 1
300 325 150 0 0 1
300 249 150 0 0 1
310 249 150 0 0 1
261 325 0 0 0 -1
251 335 0 0 0 -1
251 300 0 0 0 -1
261 300 0 0 0 -1
261 325 150 0 0 1
251 335 150 0 0 1
251 300 150 0 0 1
261 300 150 0 0 1
549.98651123046875 273 0 0 0 -1
539.98651123046875 273 0 0 0 -1
539.98651123046875 248 0 0 0 -1
549.98651123046875 248 0 0 0 -1
549.98651123046875 273 150 0 0 1
539.98651123046875 273 150 0 0 1
539.98651123046875 248 150 0 0 1
549.98651123046875 248 150 0 0 1
187.996810913085938 454 0 0 0 -1
177.996810913085938 454 0 0 0 -1
177.996810913085938 349 0 0 0 -1
187.996810913085938 349 0 0 0 -1
187.996810913085938 454 150 0 0 1
177.996810913085938 454 150 0 0 1
177.996810913085938 349 150 0 0 1
187.996810913085938 349 150 0 0 1
421 32.5030670166015625 0 0 0 -1
421 42.5030670166015625 0 0 0 -1
379 42.5030670166015625 0 0 0 -1
379 32.5030670166015625 0 0 0 -1
421 32.5030670166015625 150 0 0 1
421 42.5030670166015625 150 0 0 1
379 42.5030670166015625 150 0 0 1
379 32.5030670166015625 150 0 0 1
478 511 0 0 0 -1
488 521 0 0 0 -1
454 521 0 0 0 -1
454 511 0 0 0 -1
478 511 150 0 0 1
488 521 150 0 0 1
454 521 150 0 0 1
454 511 150 0 0 1
488 521 0 0 0 -1
478 511 0 0 0 -1
478 496 0 0 0 -1
488 496 0 0 0 -1
488 521 150 0 0 1
478 511 150 0 0 1
478 496 150 0 0 1
488 496 150 0 0 1
500.96551513671875 330 0 0 0 -1
490.96551513671875 330 0 0 0 -1
490.96551513671875 248 0 0 0 -1
500.96551513671875 248 0 0 0 -1
500.96551513671875 330 150 0 0 1
490.96551513671875 330 150 0 0 1
490.96551513671875 248 150 0 0 1
500.96551513671875 248 150 0 0 1
279 171 0 0 0 -1
269 181 0 0 0 -1
269 137 0 0 0 -1
279 147 0 0 0 -1
279 171 150 0 0 1
269 181 150 0 0 1
269 137 150 0 0 1
279 147 150 0 0 1
269 181 0 0 0 -1
279 171 0 0 0 -1
295 171 0 0 0 -1
295 181 0 0 0 -1
269 181 150 0 0 1
279 171 150 0 0 1
295 171 150 0 0 1
295 181 150 0 0 1
279 147 0 0 0 -1
269 137 0 0 0 -1
295 137 0 0 0 -1
295 147 0 0 0 -1
279 147 150 0 0 1
269 137 150 0 0 1
295 137 150 0 0 1
295 147 150 0 0 1
200.49090576171875 277 0 0 0 -1
190.49090576171875 277 0 0 0 -1
190.49090576171875 249 0 0 0 -1
200.49090576171875 249 0 0 0 -1
200.49090576171875 277 150 0 0 1
190.49090576171875 277 150 0 0 1
190.49090576171875 249 150 0 0 1
200.49090576171875 249 150 0 0 1
616 364 0 0 0 -1
616 374 0 0 0 -1
578 374 0 0 0 -1
578 364 0 0 0 -1
616 364 150 0 0 1
616 374 150 0 0 1
578 374 150 0 0 1
578 364 150 0 0 1
261.013519287109375 276 0 0 0 -1
251.013519287109375 276 0 0 0 -1
251.013519287109375 251 0 0 0 -1
261.013519287109375 251 0 0 0 -1
261.013519287109375 276 150 0 0 1
251.013519287109375 276 150 0 0 1
251.013519287109375 251 150 0 0 1
261.013519287109375 251 150 0 0 1
223 364 0 0 0 -1
223 374 0 0 0 -1
185 374 0 0 0 -1
185 364 0 0 0 -1
223 364 150 0 0 1
223 374 150 0 0 1
185 374 150 0 0 1
185 364 150 0 0 1
339 296 0 0 0 -1
329 296 0 0 0 -1
329 277 0 0 0 -1
339 277 0 0 0 -1
339 296 150 0 0 1
329 296 150 0 0 1
329 277 150 0 0 1
339 277 150 0 0 1
323 296 0 0 0 -1
313 296 0 0 0 -1
313 285 0 0 0 -1
323 285 0 0 0 -1
323 296 150 0 0 1
313 296 150 0 0 1
313 285 150 0 0 1
323 285 150 0 0 1
168 297.28448486328125 0 0 0 -1
168 307.28448486328125 0 0 0 -1
141 307.28448486328125 0 0 0 -1
141 297.28448486328125 0 0 0 -1
168 297.28448486328125 150 0 0 1
168 307.28448486328125 150 0 0 1
141 307.28448486328125 150 0 0 1
141 297.28448486328125 150 0 0 1
265.52630615234375 412 0 0 0 -1
255.526321411132812 412 0 0 0 -1
255.526321411132812 392 0 0 0 -1
265.52630615234375 392 0 0 0 -1
265.52630615234375 412 150 0 0 1
255.526321411132812 412 150 0 0 1
255.526321411132812 392 150 0 0 1
265.52630615234375 392 150 0 0 1
532 137 0 0 0 -1
522 147 0 0 0 -1
505 147 0 0 0 -1
505 137 0 0 0 -1
532 137 150 0 0 1
522 147 150 0 0 1
505 147 150 0 0 1
505 137 150 0 0 1
522 147 0 0 0 -1
532 137 0 0 0 -1
532 179.887649536132812 0 0 0 -1
522 170.112350463867188 0 0 0 -1
522 147 150 0 0 1
532 137 150 0 0 1
532 179.887649536132812 150 0 0 1
522 170.112350463867188 150 0 0 1
489 32.5 0 0 0 -1
489 42.5 0 0 0 -1
477 42.5 0 0 0 -1
477 32.5 0 0 0 -1
489 32.5 150 0 0 1
489 42.5 150 0 0 1
477 42.5 150 0 0 1
477 32.5 150 0 0 1
540 511 0 0 0 -1
530 521 0 0 0 -1
530 496 0 0 0 -1
540 496 0 0 0 -1
540 511 150 0 0 1
530 521 150 0 0 1
530 496 150 0 0 1
540 496 150 0 0 1
530 521 0 0 0 -1
540 511 0 0 0 -1
571.0062255859375 511 0 0 0 -1
580.9937744140625 521 0 0 0 -1
530 521 150 0 0 1
540 511 150 0 0 1
571.0062255859375 511 150 0 0 1
580.9937744140625 521 150 0 0 1
611.50946044921875 276 0 0 0 -1
601.50946044921875 276 0 0 0 -1
601.50946044921875 249 0 0 0 -1
611.50946044921875 249 0 0 0 -1
611.50946044921875 276 150 0 0 1
601.50946044921875 276 150 0 0 1
601.50946044921875 249 150 0 0 1
611.50946044921875 249 150 0 0 1
496.54052734375 414 0 0 0 -1
486.54052734375 414 0 0 0 -1
486.54052734375 394 0 0 0 -1
496.54052734375 394 0 0 0 -1
496.54052734375 414 150 0 0 1
486.54052734375 414 150 0 0 1
486.54052734375 394 150 0 0 1
496.54052734375 394 150 0 0 1
545.98248291015625 414 0 0 0 -1
535.98248291015625 414 0 0 0 -1
535.98248291015625 394 0 0 0 -1
545.98248291015625 394 0 0 0 -1
545.98248291015625 414 150 0 0 1
535.98248291015625 414 150 0 0 1
535.98248291015625 394 150 0 0 1
545.98248291015625 394 150 0 0 1
356.5 296 0 0 0 -1
346.5 296 0 0 0 -1
346.5 285 0 0 0 -1
356.5 285 0 0 0 -1
356.5 296 150 0 0 1
346.5 296 150 0 0 1
346.5 285 150 0 0 1
356.5 285 150 0 0 1
283.541656494140625 412 0 0 0 -1
273.541656494140625 412 0 0 0 -1
273.541656494140625 399 0 0 0 -1
283.541656494140625 399 0 0 0 -1
283.541656494140625 412 150 0 0 1
273.541656494140625 412 150 0 0 1
273.541656494140625 399 150 0 0 1
283.541656494140625 399 150 0 0 1
514.5 413 0 0 0 -1
504.5 413 0 0 0 -1
504.5 403 0 0 0 -1
514.5 403 0 0 0 -1
514.5 413 150 0 0 1
504.5 413 150 0 0 1
504.5 403 150 0 0 1
514.5 403 150 0 0 1
580.9937744140625 521 0 0 0 -1
571.0062255859375 511 0 0 0 -1
571.1988525390625 356.993743896484375 0 0 0 -1
581.1988525390625 357.006256103515625 0 0 0 -1
580.9937744140625 521 150 0 0 1
571.0062255859375 511 150 0 0 1
571.1988525390625 356.993743896484375 150 0 0 1
581.1988525390625 357.006256103515625 150 0 0 1
386 511 0 0 0 -1
386 521 0 0 0 -1
312.873443603515625 521 0 0 0 -1
323.126556396484375 511 0 0 0 -1
386 511 150 0 0 1
386 521 150 0 0 1
312.873443603515625 521 150 0 0 1
323.126556396484375 511 150 0 0 1
323.126556396484375 511 0 0 0 -1
312.873443603515625 521 0 0 0 -1
313.501556396484375 495.875030517578125 0 0 0 -1
323.498443603515625 496.124969482421875 0 0 0 -1
323.126556396484375 511 150 0 0 1
312.873443603515625 521 150 0 0 1
313.501556396484375 495.875030517578125 150 0 0 1
323.498443603515625 496.124969482421875 150 0 0 1
449.439697265625 323.988494873046875 0 0 0 -1
459.439697265625 324.011505126953125 0 0 0 -1
458.9886474609375 519.93475341796875 0 0 0 -1
449.0113525390625 510.065216064453125 0 0 0 -1
449.439697265625 323.988494873046875 150 0 0 1
459.439697265625 324.011505126953125 150 0 0 1
458.9886474609375 519.93475341796875 150 0 0 1
449.0113525390625 510.065216064453125 150 0 0 1
449.0113525390625 510.065216064453125 0 0 0 -1
458.9886474609375 519.93475341796875 0 0 0 -1
415.0657958984375 520.51287841796875 0 0 0 -1
414.9342041015625 510.513763427734375 0 0 0 -1
449.0113525390625 510.065216064453125 150 0 0 1
458.9886474609375 519.93475341796875 150 0 0 1
415.0657958984375 520.51287841796875 150 0 0 1
414.9342041015625 510.513763427734375 150 0 0 1
496 335 0 0 0 -1
496 325 0 0 0 -1
539.139404296875 325 0 0 0 -1
548.860595703125 335 0 0 0 -1
496 335 150 0 0 1
496 325 150 0 0 1
539.139404296875 325 150 0 0 1
548.860595703125 335 150 0 0 1
548.860595703125 335 0 0 0 -1
539.139404296875 325 0 0 0 -1
539.9918212890625 294.858642578125 0 0 0 -1
549.98779296875 295.141357421875 0 0 0 -1
548.860595703125 335 150 0 0 1
539.139404296875 325 150 0 0 1
539.9918212890625 294.858642578125 150 0 0 1
549.98779296875 295.141357421875 150 0 0 1
522 170.112350463867188 0 0 0 -1
532 179.887649536132812 0 0 0 -1
505.113616943359375 180.498703002929688 0 0 0 -1
504.886383056640625 170.501296997070312 0 0 0 -1
522 170.112350463867188 150 0 0 1
532 179.887649536132812 150 0 0 1
505.113616943359375 180.498703002929688 150 0 0 1
504.886383056640625 170.501296997070312 150 0 0 1
270.876556396484375 521 0 0 0 -1
261.123443603515625 511 0 0 0 -1
261.501556396484375 495.875030517578125 0 0 0 -1
271.498443603515625 496.124969482421875 0 0 0 -1
270.876556396484375 521 150 0 0 1
261.123443603515625 511 150 0 0 1
261.501556396484375 495.875030517578125 150 0 0 1
271.498443603515625 496.124969482421875 150 0 0 1
4 0 1 2 3
4 4 5 6 7
4 8 9 10 11
4 12 13 14 15
4 16 17 18 19
4 20 21 22 23
4 24 25 26 27
4 28 29 30 31
4 32 33 34 35
4 36 37 38 39
4 40 41 42 43
4 44 45 46 47
4 48 49 50 51
4 52 53 54 55
4 56 57 58 59
4 60 61 62 63
4 64 65 66 67
4 68 69 70 71
4 72 73 74 75
4 76 77 78 79
4 80 81 82 83
4 84 85 86 87
4 88 89 90 91
4 92 93 94 95
4 96 97 98 99
4 100 101 102 103
4 104 105 106 107
4 108 109 110 111
4 112 113 114 115
4 116 117 118 119
4 120 121 122 123
4 124 125 126 127
4 128 129 130 131
4 132 133 134 135
4 136 137 138 139
4 140 141 142 143
4 144 145 146 147
4 148 149 150 151
4 152 153 154 155
4 156 157 158 159
4 160 161 162 163
4 164 165 166 167
4 168 169 170 171
4 172 173 174 175
4 176 177 178 179
4 180 181 182 183
4 184 185 186 187
4 188 189 190 191
4 192 193 194 195
4 196 197 198 199
4 200 201 202 203
4 204 205 206 207
4 208 209 210 211
4 212 213 214 215
4 216 217 218 219
4 220 221 222 223
4 224 225 226 227
4 228 229 230 231
4 232 233 234 235
4 236 237 238 239
4 240 241 242 243
4 244 245 246 247
4 248 249 250 251
4 252 253 254 255
4 256 257 258 259
4 260 261 262 263
4 264 265 266 267
4 268 269 270 271
4 272 273 274 275
4 276 277 278 279
4 280 281 282 283
4 284 285 286 287
4 288 289 290 291
4 292 293 294 295
4 296 297 298 299
4 300 301 302 303
4 304 305 306 307
4 308 309 310 311
4 312 313 314 315
4 316 317 318 319
4 320 321 322 323
4 324 325 326 327
4 328 329 330 331
4 332 333 334 335
4 336 337 338 339
4 340 341 342 343
4 344 345 346 347
4 348 349 350 351
4 352 353 354 355
4 356 357 358 359
4 360 361 362 363
4 364 365 366 367
4 368 369 370 371
4 372 373 374 375
4 376 377 378 379
4 380 381 382 383
4 384 385 386 387
4 388 389 390 391
4 392 393 394 395
4 396 397 398 399
4 400 401 402 403
4 404 405 406 407
4 408 409 410 411
4 412 413 414 415
4 416 417 418 419
4 420 421 422 423
4 424 425 426 427
4 428 429 430 431
4 432 433 434 435
4 436 437 438 439
4 440 441 442 443
4 444 445 446 447
4 448 449 450 451
4 452 453 454 455
4 456 457 458 459
4 460 461 462 463
4 464 465 466 467
4 468 469 470 471
4 472 473 474 475
4 476 477 478 479
4 480 481 482 483
4 484 485 486 487
4 488 489 490 491
4 492 493 494 495
4 496 497 498 499
4 500 501 502 503
4 504 505 506 507
4 508 509 510 511
4 512 513 514 515
4 516 517 518 519
4 520 521 522 523
4 524 525 526 527
4 528 529 530 531
4 532 533 534 535
4 536 537 538 539
4 540 541 542 543
4 544 545 546 547
4 548 549 550 551
4 552 553 554 555
4 556 557 558 559
4 560 561 562 563
4 564 565 566 567
4 568 569 570 571
4 572 573 574 575
4 576 577 578 579
4 580 581 582 583
4 584 585 586 587
4 588 589 590 591
4 592 593 594 595
4 596 597 598 599
4 600 601 602 603
4 604 605 606 607
4 608 609 610 611
4 612 613 614 615
4 616 617 618 619
4 620 621 622 623
4 624 625 626 627
4 628 629 630 631
4 632 633 634 635
4 636 637 638 639
4 640 641 642 643
4 644 645 646 647
4 648 649 650 651
4 652 653 654 655
4 656 657 658 659
4 660 661 662 663
4 664 665 666 667
4 668 669 670 671
4 672 673 674 675
4 676 677 678 679
4 680 681 682 683
4 684 685 686 687
4 688 689 690 691
4 692 693 694 695
4 696 697 698 699
4 700 701 702 703
4 704 705 706 707
4 708 709 710 711
4 712 713 714 715
4 716 717 718 719
4 720 721 722 723
4 724 725 726 727
4 728 729 730 731
4 732 733 734 735
4 736 737 738 739
4 740 741 742 743
4 744 745 746 747
4 748 749 750 751
4 752 753 754 755
4 756 757 758 759
4 760 761 762 763
4 764 765 766 767
4 768 769 770 771
4 772 773 774 775
4 776 777 778 779
4 780 781 782 783
4 784 785 786 787
4 788 789 790 791
4 792 793 794 795
4 796 797 798 799
4 800 801 802 803
4 804 805 806 807
4 808 809 810 811
4 812 813 814 815
4 816 817 818 819
4 820 821 822 823
4 824 825 826 827
4 828 829 830 831
4 832 833 834 835
4 836 837 838 839
4 840 841 842 843
4 844 845 846 847
4 848 849 850 851
4 852 853 854 855
4 856 857 858 859
4 860 861 862 863
4 864 865 866 867
4 868 869 870 871
4 872 873 874 875
4 876 877 878 879
4 880 881 882 883
4 884 885 886 887
4 888 889 890 891
4 892 893 894 895
4 896 897 898 899
4 900 901 902 903
4 904 905 906 907
4 908 909 910 911
4 912 913 914 915
4 916 917 918 919
4 920 921 922 923
4 924 925 926 927
4 928 929 930 931
4 932 933 934 935
4 936 937 938 939
4 940 941 942 943
4 944 945 946 947
4 948 949 950 951
4 952 953 954 955
4 956 957 958 959
4 960 961 962 963
4 964 965 966 967
4 968 969 970 971
4 972 973 974 975
4 976 977 978 979
4 980 981 982 983
4 984 985 986 987
4 988 989 990 991
4 992 993 994 995
4 996 997 998 999
4 1000 1001 1002 1003
4 1004 1005 1006 1007
4 1008 1009 1010 1011
4 1012 1013 1014 1015
4 1016 1017 1018 1019
4 1020 1021 1022 1023
4 1024 1025 1026 1027
4 1028 1029 1030 1031
4 1032 1033 1034 1035
4 1036 1037 1038 1039
4 1040 1041 1042 1043
4 1044 1045 1046 1047
4 1048 1049 1050 1051
4 1052 1053 1054 1055
4 1056 1057 1058 1059
4 1060 1061 1062 1063
4 1064 1065 1066 1067
4 1068 1069 1070 1071
4 1072 1073 1074 1075
4 1076 1077 1078 1079
4 1080 1081 1082 1083
4 1084 1085 1086 1087
4 1088 1089 1090 1091
4 1092 1093 1094 1095
4 1096 1097 1098 1099
4 1100 1101 1102 1103
4 1104 1105 1106 1107
4 1108 1109 1110 1111
4 1112 1113 1114 1115
4 1116 1117 1118 1119
4 1120 1121 1122 1123
4 1124 1125 1126 1127
4 1128 1129 1130 1131
4 1132 1133 1134 1135
