ply
format ascii 1.0
element vertex 824
property float x
property float y
property float z
property float nx
property float ny
property float nz
element quads 203
property list uchar int vertex_indices
element triads 4
property list uchar int vertex_indices
end_header
129 315 0 1 0 0
129 112 0 1 0 0
129 112 150 1 0 0
129 315 150 1 0 0
119 325 0 -1 -0 0
119 102 0 -1 -0 0
119 102 150 -1 -0 0
119 325 150 -1 -0 0
119 325 0 -0 1 0
199 325 0 -0 1 0
199 325 150 -0 1 0
119 325 150 -0 1 0
129 315 0 0 -1 0
204 315 0 0 -1 0
204 315 150 0 -1 0
129 315 150 0 -1 0
129 112 0 -0 1 0
162 112 0 -0 1 0
162 112 150 -0 1 0
129 112 150 -0 1 0
119 102 0 0 -1 0
162 102 0 0 -1 0
162 102 150 0 -1 0
119 102 150 0 -1 0
466 269 0 1 0 0
466 107 0 1 0 0
466 107 150 1 0 0
466 269 150 1 0 0
456 259 0 -1 -0 0
456 107 0 -1 -0 0
456 107 150 -1 -0 0
456 259 150 -1 -0 0
456 259 0 -0 -1 0
392 259 0 -0 -1 0
392 259 150 -0 -1 0
456 259 150 -0 -1 0
466 269 0 0 1 0
382 269 0 0 1 0
382 269 150 0 1 0
466 269 150 0 1 0
204 490 0 1 0 0
204 315 0 1 0 0
204 315 150 1 0 0
204 490 150 1 0 0
194 500 0 -1 -0 0
194 315 0 -1 -0 0
194 315 150 -1 -0 0
194 500 150 -1 -0 0
194 500 0 -0 1 0
227 500 0 -0 1 0
227 500 150 -0 1 0
194 500 150 -0 1 0
204 490 0 0 -1 0
237 490 0 0 -1 0
237 490 150 0 -1 0
204 490 150 0 -1 0
199 325 0 -0 1 0
267 325 0 -0 1 0
267 325 150 -0 1 0
199 325 150 -0 1 0
194 315 0 0 -1 0
257 315 0 0 -1 0
257 315 150 0 -1 0
194 315 150 0 -1 0
249 259 0 1 0 0
249 107 0 1 0 0
249 107 150 1 0 0
249 259 150 1 0 0
239 269 0 -1 -0 0
239 107 0 -1 -0 0
239 107 150 -1 -0 0
239 269 150 -1 -0 0
239 269 0 -0 1 0
319 269 0 -0 1 0
319 269 150 -0 1 0
239 269 150 -0 1 0
249 259 0 0 -1 0
319 259 0 0 -1 0
319 259 150 0 -1 0
249 259 150 0 -1 0
358 500 0 1 0 0
358 427 0 1 0 0
358 427 150 1 0 0
358 500 150 1 0 0
348 490 0 -1 -0 0
348 427 0 -1 -0 0
348 427 150 -1 -0 0
348 490 150 -1 -0 0
348 490 0 -0 -1 0
320 490 0 -0 -1 0
320 490 150 -0 -1 0
348 490 150 -0 -1 0
358 500 0 0 1 0
330 500 0 0 1 0
330 500 150 0 1 0
358 500 150 0 1 0
467 295 0 -0 -1 0
339.96044921875 295 0 -0 -1 0
339.96044921875 295 150 -0 -1 0
467 295 150 -0 -1 0
457 305 0 0 1 0
344.03955078125 305 0 0 1 0
344.03955078125 305 150 0 1 0
457 305 150 0 1 0
457 305 0 -1 0 0
457 361 0 -1 0 0
457 361 150 -1 0 0
457 305 150 -1 0 0
467 295 0 1 -0 0
467 366 0 1 -0 0
467 366 150 1 -0 0
467 295 150 1 -0 0
339.96044921875 295 0 -0.699442923069000244 -0.714688479900360107 0
316.265594482421875 318.18939208984375 0 -0.699442923069000244 -0.714688479900360107 0
316.265594482421875 318.18939208984375 150 -0.699442923069000244 -0.714688479900360107 0
339.96044921875 295 150 -0.699442923069000244 -0.714688479900360107 0
344.03955078125 305 0 0.699442923069000244 0.714688479900360107 0
323.260040283203125 325.336273193359375 0 0.699442923069000244 0.714688479900360107 0
323.260040283203125 325.336273193359375 150 0.699442923069000244 0.714688479900360107 0
344.03955078125 305 150 0.699442923069000244 0.714688479900360107 0
461 101.510200500488281 0 -0 -1 0
435 101.510200500488281 0 -0 -1 0
435 101.510200500488281 150 -0 -1 0
461 101.510200500488281 150 -0 -1 0
461 111.510200500488281 0 0 1 0
435 111.510200500488281 0 0 1 0
435 111.510200500488281 150 0 1 0
461 111.510200500488281 150 0 1 0
457 361 0 -0 -1 0
348 361 0 -0 -1 0
348 361 150 -0 -1 0
457 361 150 -0 -1 0
457 371 0 0 1 0
358 371 0 0 1 0
358 371 150 0 1 0
457 371 150 0 1 0
457 371 0 -1 0 0
457 387 0 -1 0 0
457 387 150 -1 0 0
457 371 150 -1 0 0
467 366 0 1 -0 0
467 387 0 1 -0 0
467 387 150 1 -0 0
467 366 150 1 -0 0
348 361 0 -1 0 0
348 399.271240234375 0 -1 0 0
348 399.271240234375 150 -1 0 0
348 361 150 -1 0 0
358 371 0 1 -0 0
358 374.728759765625 0 1 -0 0
358 374.728759765625 150 1 -0 0
358 371 150 1 -0 0
669 168.004745483398438 0 -0 -1 0
528 168.004745483398438 0 -0 -1 0
528 168.004745483398438 150 -0 -1 0
669 168.004745483398438 150 -0 -1 0
669 178.004745483398438 0 0 1 0
528 178.004745483398438 0 0 1 0
528 178.004745483398438 150 0 1 0
669 178.004745483398438 150 0 1 0
267 325 0 1 0 0
267 298 0 1 0 0
267 298 150 1 0 0
267 325 150 1 0 0
257 315 0 -1 -0 0
257 298 0 -1 -0 0
257 298 150 -1 -0 0
257 315 150 -1 -0 0
392 259 0 1 0 0
392 242 0 1 0 0
392 242 150 1 0 0
392 259 150 1 0 0
382 269 0 -1 -0 0
382 242 0 -1 -0 0
382 242 150 -1 -0 0
382 269 150 -1 -0 0
205 259 0 -0 -1 0
128 259 0 -0 -1 0
128 259 150 -0 -1 0
205 259 150 -0 -1 0
215 269 0 0 1 0
128 269 0 0 1 0
128 269 150 0 1 0
215 269 150 0 1 0
215 269 0 1 0 0
215 239 0 1 0 0
215 239 150 1 0 0
215 269 150 1 0 0
205 259 0 -1 -0 0
205 239 0 -1 -0 0
205 239 150 -1 -0 0
205 259 150 -1 -0 0
114.0172119140625 212 0 1 0 0
114.0172119140625 159 0 1 0 0
114.0172119140625 159 150 1 0 0
114.0172119140625 212 150 1 0 0
104.0172119140625 212 0 -1 -0 0
104.0172119140625 159 0 -1 -0 0
104.0172119140625 159 150 -1 -0 0
104.0172119140625 212 150 -1 -0 0
215 318 0 1 0 0
215 294 0 1 0 0
215 294 150 1 0 0
215 318 150 1 0 0
205 318 0 -1 -0 0
205 294 0 -1 -0 0
205 294 150 -1 -0 0
205 318 150 -1 -0 0
120.5 212 0 1 0 0
120.5 159 0 1 0 0
120.5 159 150 1 0 0
120.5 212 150 1 0 0
110.5 212 0 -1 -0 0
110.5 159 0 -1 -0 0
110.5 159 150 -1 -0 0
110.5 212 150 -1 -0 0
495 318.989013671875 0 -0 -1 0
464 318.989013671875 0 -0 -1 0
464 318.989013671875 150 -0 -1 0
495 318.989013671875 150 -0 -1 0
495 328.989013671875 0 0 1 0
464 328.989013671875 0 0 1 0
464 328.989013671875 150 0 1 0
495 328.989013671875 150 0 1 0
348 399.271240234375 0 0.715235233306884766 0.698883771896362305 0
375.356475830078125 371.27471923828125 0 0.715235233306884766 0.698883771896362305 0
375.356475830078125 371.27471923828125 150 0.715235233306884766 0.698883771896362305 0
348 399.271240234375 150 0.715235233306884766 0.698883771896362305 0
358 374.728759765625 0 -0.715235233306884766 -0.698883771896362305 0
368.204132080078125 364.285888671875 0 -0.715235233306884766 -0.698883771896362305 0
368.204132080078125 364.285888671875 150 -0.715235233306884766 -0.698883771896362305 0
358 374.728759765625 150 -0.715235233306884766 -0.698883771896362305 0
382 101 0 -0 -1 0
351.975006103515625 101 0 -0 -1 0
351.975006103515625 101 150 -0 -1 0
382 101 150 -0 -1 0
382 111 0 0 1 0
357 111 0 0 1 0
357 111 150 0 1 0
382 111 150 0 1 0
347 111.050247192382812 0 -1 0 0
347 240 0 -1 0 0
347 240 150 -1 0 0
347 111.050247192382812 150 -1 0 0
357 111 0 1 -0 0
357 240 0 1 -0 0
357 240 150 1 -0 0
357 111 150 1 -0 0
351.975006103515625 101 0 -0.00999949965626001358 -0.999949991703033447 0
301.95001220703125 101.500251770019531 0 -0.00999949965626001358 -0.999949991703033447 0
301.95001220703125 101.500251770019531 150 -0.00999949965626001358 -0.999949991703033447 0
351.975006103515625 101 150 -0.00999949965626001358 -0.999949991703033447 0
347 111.050247192382812 0 0.00999949965626001358 0.999949991703033447 0
302.04998779296875 111.499748229980469 0 0.00999949965626001358 0.999949991703033447 0
302.04998779296875 111.499748229980469 150 0.00999949965626001358 0.999949991703033447 0
347 111.050247192382812 150 0.00999949965626001358 0.999949991703033447 0
466.48187255859375 383.411590576171875 0 0.696372687816619873 -0.71768033504486084 0
446.18048095703125 363.712982177734375 0 0.696372687816619873 -0.71768033504486084 0
446.18048095703125 363.712982177734375 150 0.696372687816619873 -0.71768033504486084 0
466.48187255859375 383.411590576171875 150 0.696372687816619873 -0.71768033504486084 0
459.51812744140625 390.588409423828125 0 -0.696372687816619873 0.71768033504486084 0
439.216766357421875 370.8897705078125 0 -0.696372687816619873 0.71768033504486084 0
439.216766357421875 370.8897705078125 150 -0.696372687816619873 0.71768033504486084 0
459.51812744140625 390.588409423828125 150 -0.696372687816619873 0.71768033504486084 0
244 101.50909423828125 0 -0 -1 0
214 101.50909423828125 0 -0 -1 0
214 101.50909423828125 150 -0 -1 0
244 101.50909423828125 150 -0 -1 0
244 111.50909423828125 0 0 1 0
214 111.50909423828125 0 0 1 0
214 111.50909423828125 150 0 1 0
244 111.50909423828125 150 0 1 0
320 490 0 -1 0 0
320 506 0 -1 0 0
320 506 150 -1 0 0
320 490 150 -1 0 0
330 500 0 1 -0 0
330 506 0 1 -0 0
330 506 150 1 -0 0
330 500 150 1 -0 0
466 461 0 1 0 0
466 447 0 1 0 0
466 447 150 1 0 0
466 461 150 1 0 0
456 461 0 -1 -0 0
456 437 0 -1 -0 0
456 437 150 -1 -0 0
456 461 150 -1 -0 0
466 447 0 -0 1 0
500.9976806640625 447 0 -0 1 0
500.9976806640625 447 150 -0 1 0
466 447 150 -0 1 0
456 437 0 0 -1 0
491.0023193359375 437 0 0 -1 0
491.0023193359375 437 150 0 -1 0
456 437 150 0 -1 0
227 500 0 -1 0 0
227 506 0 -1 0 0
227 506 150 -1 0 0
227 500 150 -1 0 0
237 490 0 1 -0 0
237 506 0 1 -0 0
237 506 150 1 -0 0
237 490 150 1 -0 0
357.952392578125 366 0 1 0 0
357.952392578125 349 0 1 0 0
357.952392578125 349 150 1 0 0
357.952392578125 366 150 1 0 0
347.952392578125 366 0 -1 -0 0
347.952392578125 349 0 -1 -0 0
347.952392578125 349 150 -1 -0 0
347.952392578125 366 150 -1 -0 0
484.29742431640625 409.29742431640625 0 0.70710676908493042 0.70710676908493042 0
495.79742431640625 397.79742431640625 0 0.70710676908493042 0.70710676908493042 0
495.79742431640625 397.79742431640625 150 0.70710676908493042 0.70710676908493042 0
484.29742431640625 409.29742431640625 150 0.70710676908493042 0.70710676908493042 0
477.22637939453125 402.22637939453125 0 -0.70710676908493042 -0.70710676908493042 0
488.72637939453125 390.72637939453125 0 -0.70710676908493042 -0.70710676908493042 0
488.72637939453125 390.72637939453125 150 -0.70710676908493042 -0.70710676908493042 0
477.22637939453125 402.22637939453125 150 -0.70710676908493042 -0.70710676908493042 0
491.066497802734375 297.9976806640625 0 -0.999999880790710449 -0.000461822608485817909 0
491.0023193359375 437 0 -0.999999880790710449 -0.000461822608485817909 0
491.0023193359375 437 150 -0.999999880790710449 -0.000461822608485817909 0
491.066497802734375 297.9976806640625 150 -0.999999880790710449 -0.000461822608485817909 0
501.066497802734375 298.0023193359375 0 0.999999880790710449 0.000461822608485817909 0
500.9976806640625 447 0 0.999999880790710449 0.000461822608485817909 0
500.9976806640625 447 150 0.999999880790710449 0.000461822608485817909 0
501.066497802734375 298.0023193359375 150 0.999999880790710449 0.000461822608485817909 0
466 107 0 463.123443603515625 105.339508056640625 0
456 107 0 463.123443603515625 105.339508056640625 0
456 107 150 463.123443603515625 105.339508056640625 0
466 107 150 463.123443603515625 105.339508056640625 0
249 107 0 247.361846923828125 105.296051025390625 0
239 107 0 247.361846923828125 105.296051025390625 0
239 107 150 247.361846923828125 105.296051025390625 0
249 107 150 247.361846923828125 105.296051025390625 0
358 427 0 353.09588623046875 420.15069580078125 0
348 427 0 353.09588623046875 420.15069580078125 0
348 427 150 353.09588623046875 420.15069580078125 0
358 427 150 353.09588623046875 420.15069580078125 0
461 101.510200500488281 0 444.26922607421875 97.6059646606445312 0
461 111.510200500488281 0 444.26922607421875 97.6059646606445312 0
461 111.510200500488281 150 444.26922607421875 97.6059646606445312 0
461 101.510200500488281 150 444.26922607421875 97.6059646606445312 0
435 101.510200500488281 0 417.26922607421875 97.6059646606445312 0
435 111.510200500488281 0 417.26922607421875 97.6059646606445312 0
435 111.510200500488281 150 417.26922607421875 97.6059646606445312 0
435 101.510200500488281 150 417.26922607421875 97.6059646606445312 0
319 269 0 316.01251220703125 265.63751220703125 0
319 259 0 316.01251220703125 265.63751220703125 0
319 259 150 316.01251220703125 265.63751220703125 0
319 269 150 316.01251220703125 265.63751220703125 0
669 168.004745483398438 0 665.25531005859375 166.813232421875 0
669 178.004745483398438 0 665.25531005859375 166.813232421875 0
669 178.004745483398438 150 665.25531005859375 166.813232421875 0
669 168.004745483398438 150 665.25531005859375 166.813232421875 0
528 168.004745483398438 0 523.25531005859375 166.813232421875 0
528 178.004745483398438 0 523.25531005859375 166.813232421875 0
528 178.004745483398438 150 523.25531005859375 166.813232421875 0
528 168.004745483398438 150 523.25531005859375 166.813232421875 0
128 259 0 125.337661743164062 255.636367797851562 0
128 269 0 125.337661743164062 255.636367797851562 0
128 269 150 125.337661743164062 255.636367797851562 0
128 259 150 125.337661743164062 255.636367797851562 0
114.0172119140625 212 0 111.865943908691406 209 0
104.0172119140625 212 0 111.865943908691406 209 0
104.0172119140625 212 150 111.865943908691406 209 0
114.0172119140625 212 150 111.865943908691406 209 0
114.0172119140625 159 0 111.865943908691406 155 0
104.0172119140625 159 0 111.865943908691406 155 0
104.0172119140625 159 150 111.865943908691406 155 0
114.0172119140625 159 150 111.865943908691406 155 0
215 318 0 206.041671752929688 305.75 0
205 318 0 206.041671752929688 305.75 0
205 318 150 206.041671752929688 305.75 0
215 318 150 206.041671752929688 305.75 0
215 294 0 206.041671752929688 280.75 0
205 294 0 206.041671752929688 280.75 0
205 294 150 206.041671752929688 280.75 0
215 294 150 206.041671752929688 280.75 0
162 112 0 158.090911865234375 108.606063842773438 0
162 102 0 158.090911865234375 108.606063842773438 0
162 102 150 158.090911865234375 108.606063842773438 0
162 112 150 158.090911865234375 108.606063842773438 0
120.5 212 0 118.226417541503906 209 0
110.5 212 0 118.226417541503906 209 0
110.5 212 150 118.226417541503906 209 0
120.5 212 150 118.226417541503906 209 0
120.5 159 0 118.226417541503906 155 0
110.5 159 0 118.226417541503906 155 0
110.5 159 150 118.226417541503906 155 0
120.5 159 150 118.226417541503906 155 0
215 239 0 207.833328247070312 230.033340454101562 0
205 239 0 207.833328247070312 230.033340454101562 0
205 239 150 207.833328247070312 230.033340454101562 0
215 239 150 207.833328247070312 230.033340454101562 0
495 318.989013671875 0 480.032257080078125 308.69903564453125 0
495 328.989013671875 0 480.032257080078125 308.69903564453125 0
495 328.989013671875 150 480.032257080078125 308.69903564453125 0
495 318.989013671875 150 480.032257080078125 308.69903564453125 0
464 318.989013671875 0 448.032257080078125 308.69903564453125 0
464 328.989013671875 0 448.032257080078125 308.69903564453125 0
464 328.989013671875 150 448.032257080078125 308.69903564453125 0
464 318.989013671875 150 448.032257080078125 308.69903564453125 0
382 101 0 370.27728271484375 97.636138916015625 0
382 111 0 370.27728271484375 97.636138916015625 0
382 111 150 370.27728271484375 97.636138916015625 0
382 101 150 370.27728271484375 97.636138916015625 0
466.48187255859375 383.411590576171875 0 450.70880126953125 370.553863525390625 0
459.51812744140625 390.588409423828125 0 450.70880126953125 370.553863525390625 0
459.51812744140625 390.588409423828125 150 450.70880126953125 370.553863525390625 0
466.48187255859375 383.411590576171875 150 450.70880126953125 370.553863525390625 0
446.18048095703125 363.712982177734375 0 429.689727783203125 350.15887451171875 0
439.216766357421875 370.8897705078125 0 429.689727783203125 350.15887451171875 0
439.216766357421875 370.8897705078125 150 429.689727783203125 350.15887451171875 0
446.18048095703125 363.712982177734375 150 429.689727783203125 350.15887451171875 0
244 101.50909423828125 0 236.866668701171875 98.125457763671875 0
244 111.50909423828125 0 236.866668701171875 98.125457763671875 0
244 111.50909423828125 150 236.866668701171875 98.125457763671875 0
244 101.50909423828125 150 236.866668701171875 98.125457763671875 0
214 101.50909423828125 0 205.866668701171875 98.125457763671875 0
214 111.50909423828125 0 205.866668701171875 98.125457763671875 0
214 111.50909423828125 150 205.866668701171875 98.125457763671875 0
214 101.50909423828125 150 205.866668701171875 98.125457763671875 0
316.265594482421875 318.18939208984375 0 306.01165771484375 309.291534423828125 0
323.260040283203125 325.336273193359375 0 306.01165771484375 309.291534423828125 0
323.260040283203125 325.336273193359375 150 306.01165771484375 309.291534423828125 0
316.265594482421875 318.18939208984375 150 306.01165771484375 309.291534423828125 0
375.356475830078125 371.27471923828125 0 366.466033935546875 361.074432373046875 0
368.204132080078125 364.285888671875 0 366.466033935546875 361.074432373046875 0
368.204132080078125 364.285888671875 150 366.466033935546875 361.074432373046875 0
375.356475830078125 371.27471923828125 150 366.466033935546875 361.074432373046875 0
466 461 0 432.71429443359375 429.071441650390625 0
456 461 0 432.71429443359375 429.071441650390625 0
456 461 150 432.71429443359375 429.071441650390625 0
466 461 150 432.71429443359375 429.071441650390625 0
457 387 0 428.4375 363.8125 0
467 387 0 428.4375 363.8125 0
467 387 150 428.4375 363.8125 0
457 387 150 428.4375 363.8125 0
267 298 0 257.111114501953125 285.96295166015625 0
257 298 0 257.111114501953125 285.96295166015625 0
257 298 150 257.111114501953125 285.96295166015625 0
267 298 150 257.111114501953125 285.96295166015625 0
392 242 0 368.941162109375 226.76470947265625 0
382 242 0 368.941162109375 226.76470947265625 0
382 242 150 368.941162109375 226.76470947265625 0
392 242 150 368.941162109375 226.76470947265625 0
357.952392578125 366 0 336.8963623046875 345.4705810546875 0
347.952392578125 366 0 336.8963623046875 345.4705810546875 0
347.952392578125 366 150 336.8963623046875 345.4705810546875 0
357.952392578125 366 150 336.8963623046875 345.4705810546875 0
357.952392578125 349 0 336.8963623046875 327.4705810546875 0
347.952392578125 349 0 336.8963623046875 327.4705810546875 0
347.952392578125 349 150 336.8963623046875 327.4705810546875 0
357.952392578125 349 150 336.8963623046875 327.4705810546875 0
484.29742431640625 409.29742431640625 0 453.81207275390625 384.837860107421875 0
477.22637939453125 402.22637939453125 0 453.81207275390625 384.837860107421875 0
477.22637939453125 402.22637939453125 150 453.81207275390625 384.837860107421875 0
484.29742431640625 409.29742431640625 150 453.81207275390625 384.837860107421875 0
495.79742431640625 397.79742431640625 0 466.0191650390625 372.6307373046875 0
488.72637939453125 390.72637939453125 0 466.0191650390625 372.6307373046875 0
488.72637939453125 390.72637939453125 150 466.0191650390625 372.6307373046875 0
495.79742431640625 397.79742431640625 150 466.0191650390625 372.6307373046875 0
320 506 0 300 475.375 0
330 506 0 300 475.375 0
330 506 150 300 475.375 0
320 506 150 300 475.375 0
227 506 0 189.166671752929688 422.666656494140625 0
237 506 0 189.166671752929688 422.666656494140625 0
237 506 150 189.166671752929688 422.666656494140625 0
227 506 150 189.166671752929688 422.666656494140625 0
491.066497802734375 297.9976806640625 0 487.5341796875 294.853851318359375 0
501.066497802734375 298.0023193359375 0 487.5341796875 294.853851318359375 0
501.066497802734375 298.0023193359375 150 487.5341796875 294.853851318359375 0
491.066497802734375 297.9976806640625 150 487.5341796875 294.853851318359375 0
347 240 0 344.30902099609375 239.138809204101562 0
357 240 0 344.30902099609375 239.138809204101562 0
357 240 150 344.30902099609375 239.138809204101562 0
347 240 150 344.30902099609375 239.138809204101562 0
301.95001220703125 101.500251770019531 0 294.91436767578125 99.4813613891601562 0
302.04998779296875 111.499748229980469 0 294.91436767578125 99.4813613891601562 0
302.04998779296875 111.499748229980469 150 294.91436767578125 99.4813613891601562 0
301.95001220703125 101.500251770019531 150 294.91436767578125 99.4813613891601562 0
129 315 0 0 0 -1
119 325 0 0 0 -1
119 102 0 0 0 -1
129 112 0 0 0 -1
129 315 150 0 0 1
119 325 150 0 0 1
119 102 150 0 0 1
129 112 150 0 0 1
119 325 0 0 0 -1
129 315 0 0 0 -1
204 315 0 0 0 -1
199 325 0 0 0 -1
119 325 150 0 0 1
129 315 150 0 0 1
204 315 150 0 0 1
199 325 150 0 0 1
129 112 0 0 0 -1
119 102 0 0 0 -1
162 102 0 0 0 -1
162 112 0 0 0 -1
129 112 150 0 0 1
119 102 150 0 0 1
162 102 150 0 0 1
162 112 150 0 0 1
466 269 0 0 0 -1
456 259 0 0 0 -1
456 107 0 0 0 -1
466 107 0 0 0 -1
466 269 150 0 0 1
456 259 150 0 0 1
456 107 150 0 0 1
466 107 150 0 0 1
456 259 0 0 0 -1
466 269 0 0 0 -1
382 269 0 0 0 -1
392 259 0 0 0 -1
456 259 150 0 0 1
466 269 150 0 0 1
382 269 150 0 0 1
392 259 150 0 0 1
204 490 0 0 0 -1
194 500 0 0 0 -1
194 315 0 0 0 -1
204 315 0 0 0 -1
204 490 150 0 0 1
194 500 150 0 0 1
194 315 150 0 0 1
204 315 150 0 0 1
194 500 0 0 0 -1
204 490 0 0 0 -1
237 490 0 0 0 -1
227 500 0 0 0 -1
194 500 150 0 0 1
204 490 150 0 0 1
237 490 150 0 0 1
227 500 150 0 0 1
199 325 0 0 0 -1
194 315 0 0 0 -1
257 315 0 0 0 -1
267 325 0 0 0 -1
199 325 150 0 0 1
194 315 150 0 0 1
257 315 150 0 0 1
267 325 150 0 0 1
249 259 0 0 0 -1
239 269 0 0 0 -1
239 107 0 0 0 -1
249 107 0 0 0 -1
249 259 150 0 0 1
239 269 150 0 0 1
239 107 150 0 0 1
249 107 150 0 0 1
239 269 0 0 0 -1
249 259 0 0 0 -1
319 259 0 0 0 -1
319 269 0 0 0 -1
239 269 150 0 0 1
249 259 150 0 0 1
319 259 150 0 0 1
319 269 150 0 0 1
358 500 0 0 0 -1
348 490 0 0 0 -1
348 427 0 0 0 -1
358 427 0 0 0 -1
358 500 150 0 0 1
348 490 150 0 0 1
348 427 150 0 0 1
358 427 150 0 0 1
348 490 0 0 0 -1
358 500 0 0 0 -1
330 500 0 0 0 -1
320 490 0 0 0 -1
348 490 150 0 0 1
358 500 150 0 0 1
330 500 150 0 0 1
320 490 150 0 0 1
467 295 0 0 0 -1
457 305 0 0 0 -1
344.03955078125 305 0 0 0 -1
339.96044921875 295 0 0 0 -1
467 295 150 0 0 1
457 305 150 0 0 1
344.03955078125 305 150 0 0 1
339.96044921875 295 150 0 0 1
457 305 0 0 0 -1
467 295 0 0 0 -1
467 366 0 0 0 -1
457 361 0 0 0 -1
457 305 150 0 0 1
467 295 150 0 0 1
467 366 150 0 0 1
457 361 150 0 0 1
339.96044921875 295 0 0 0 -1
344.03955078125 305 0 0 0 -1
323.260040283203125 325.336273193359375 0 0 0 -1
316.265594482421875 318.18939208984375 0 0 0 -1
339.96044921875 295 150 0 0 1
344.03955078125 305 150 0 0 1
323.260040283203125 325.336273193359375 150 0 0 1
316.265594482421875 318.18939208984375 150 0 0 1
461 101.510200500488281 0 0 0 -1
461 111.510200500488281 0 0 0 -1
435 111.510200500488281 0 0 0 -1
435 101.510200500488281 0 0 0 -1
461 101.510200500488281 150 0 0 1
461 111.510200500488281 150 0 0 1
435 111.510200500488281 150 0 0 1
435 101.510200500488281 150 0 0 1
457 361 0 0 0 -1
457 371 0 0 0 -1
358 371 0 0 0 -1
348 361 0 0 0 -1
457 361 150 0 0 1
457 371 150 0 0 1
358 371 150 0 0 1
348 361 150 0 0 1
457 371 0 0 0 -1
467 366 0 0 0 -1
467 387 0 0 0 -1
457 387 0 0 0 -1
457 371 150 0 0 1
467 366 150 0 0 1
467 387 150 0 0 1
457 387 150 0 0 1
348 361 0 0 0 -1
358 371 0 0 0 -1
358 374.728759765625 0 0 0 -1
348 399.271240234375 0 0 0 -1
348 361 150 0 0 1
358 371 150 0 0 1
358 374.728759765625 150 0 0 1
348 399.271240234375 150 0 0 1
669 168.004745483398438 0 0 0 -1
669 178.004745483398438 0 0 0 -1
528 178.004745483398438 0 0 0 -1
528 168.004745483398438 0 0 0 -1
669 168.004745483398438 150 0 0 1
669 178.004745483398438 150 0 0 1
528 178.004745483398438 150 0 0 1
528 168.004745483398438 150 0 0 1
267 325 0 0 0 -1
257 315 0 0 0 -1
257 298 0 0 0 -1
267 298 0 0 0 -1
267 325 150 0 0 1
257 315 150 0 0 1
257 298 150 0 0 1
267 298 150 0 0 1
392 259 0 0 0 -1
382 269 0 0 0 -1
382 242 0 0 0 -1
392 242 0 0 0 -1
392 259 150 0 0 1
382 269 150 0 0 1
382 242 150 0 0 1
392 242 150 0 0 1
205 259 0 0 0 -1
215 269 0 0 0 -1
128 269 0 0 0 -1
128 259 0 0 0 -1
205 259 150 0 0 1
215 269 150 0 0 1
128 269 150 0 0 1
128 259 150 0 0 1
215 269 0 0 0 -1
205 259 0 0 0 -1
205 239 0 0 0 -1
215 239 0 0 0 -1
215 269 150 0 0 1
205 259 150 0 0 1
205 239 150 0 0 1
215 239 150 0 0 1
114.0172119140625 212 0 0 0 -1
104.0172119140625 212 0 0 0 -1
104.0172119140625 159 0 0 0 -1
114.0172119140625 159 0 0 0 -1
114.0172119140625 212 150 0 0 1
104.0172119140625 212 150 0 0 1
104.0172119140625 159 150 0 0 1
114.0172119140625 159 150 0 0 1
215 318 0 0 0 -1
205 318 0 0 0 -1
205 294 0 0 0 -1
215 294 0 0 0 -1
215 318 150 0 0 1
205 318 150 0 0 1
205 294 150 0 0 1
215 294 150 0 0 1
120.5 212 0 0 0 -1
110.5 212 0 0 0 -1
110.5 159 0 0 0 -1
120.5 159 0 0 0 -1
120.5 212 150 0 0 1
110.5 212 150 0 0 1
110.5 159 150 0 0 1
120.5 159 150 0 0 1
495 318.989013671875 0 0 0 -1
495 328.989013671875 0 0 0 -1
464 328.989013671875 0 0 0 -1
464 318.989013671875 0 0 0 -1
495 318.989013671875 150 0 0 1
495 328.989013671875 150 0 0 1
464 328.989013671875 150 0 0 1
464 318.989013671875 150 0 0 1
348 399.271240234375 0 0 0 -1
358 374.728759765625 0 0 0 -1
368.204132080078125 364.285888671875 0 0 0 -1
375.356475830078125 371.27471923828125 0 0 0 -1
348 399.271240234375 150 0 0 1
358 374.728759765625 150 0 0 1
368.204132080078125 364.285888671875 150 0 0 1
375.356475830078125 371.27471923828125 150 0 0 1
382 101 0 0 0 -1
382 111 0 0 0 -1
357 111 0 0 0 -1
351.975006103515625 101 0 0 0 -1
382 101 150 0 0 1
382 111 150 0 0 1
357 111 150 0 0 1
351.975006103515625 101 150 0 0 1
347 111.050247192382812 0 0 0 -1
357 111 0 0 0 -1
357 240 0 0 0 -1
347 240 0 0 0 -1
347 111.050247192382812 150 0 0 1
357 111 150 0 0 1
357 240 150 0 0 1
347 240 150 0 0 1
351.975006103515625 101 0 0 0 -1
347 111.050247192382812 0 0 0 -1
302.04998779296875 111.499748229980469 0 0 0 -1
301.95001220703125 101.500251770019531 0 0 0 -1
351.975006103515625 101 150 0 0 1
347 111.050247192382812 150 0 0 1
302.04998779296875 111.499748229980469 150 0 0 1
301.95001220703125 101.500251770019531 150 0 0 1
466.48187255859375 383.411590576171875 0 0 0 -1
459.51812744140625 390.588409423828125 0 0 0 -1
439.216766357421875 370.8897705078125 0 0 0 -1
446.18048095703125 363.712982177734375 0 0 0 -1
466.48187255859375 383.411590576171875 150 0 0 1
459.51812744140625 390.588409423828125 150 0 0 1
439.216766357421875 370.8897705078125 150 0 0 1
446.18048095703125 363.712982177734375 150 0 0 1
244 101.50909423828125 0 0 0 -1
244 111.50909423828125 0 0 0 -1
214 111.50909423828125 0 0 0 -1
214 101.50909423828125 0 0 0 -1
244 101.50909423828125 150 0 0 1
244 111.50909423828125 150 0 0 1
214 111.50909423828125 150 0 0 1
214 101.50909423828125 150 0 0 1
320 490 0 0 0 -1
330 500 0 0 0 -1
330 506 0 0 0 -1
320 506 0 0 0 -1
320 490 150 0 0 1
330 500 150 0 0 1
330 506 150 0 0 1
320 506 150 0 0 1
466 461 0 0 0 -1
456 461 0 0 0 -1
456 437 0 0 0 -1
466 447 0 0 0 -1
466 461 150 0 0 1
456 461 150 0 0 1
456 437 150 0 0 1
466 447 150 0 0 1
466 447 0 0 0 -1
456 437 0 0 0 -1
491.0023193359375 437 0 0 0 -1
500.9976806640625 447 0 0 0 -1
466 447 150 0 0 1
456 437 150 0 0 1
491.0023193359375 437 150 0 0 1
500.9976806640625 447 150 0 0 1
227 500 0 0 0 -1
237 490 0 0 0 -1
237 506 0 0 0 -1
227 506 0 0 0 -1
227 500 150 0 0 1
237 490 150 0 0 1
237 506 150 0 0 1
227 506 150 0 0 1
357.952392578125 366 0 0 0 -1
347.952392578125 366 0 0 0 -1
347.952392578125 349 0 0 0 -1
357.952392578125 349 0 0 0 -1
357.952392578125 366 150 0 0 1
347.952392578125 366 150 0 0 1
347.952392578125 349 150 0 0 1
357.952392578125 349 150 0 0 1
484.29742431640625 409.29742431640625 0 0 0 -1
477.22637939453125 402.22637939453125 0 0 0 -1
488.72637939453125 390.72637939453125 0 0 0 -1
495.79742431640625 397.79742431640625 0 0 0 -1
484.29742431640625 409.29742431640625 150 0 0 1
477.22637939453125 402.22637939453125 150 0 0 1
488.72637939453125 390.72637939453125 150 0 0 1
495.79742431640625 397.79742431640625 150 0 0 1
491.066497802734375 297.9976806640625 0 0 0 -1
501.066497802734375 298.0023193359375 0 0 0 -1
500.9976806640625 447 0 0 0 -1
491.0023193359375 437 0 0 0 -1
491.066497802734375 297.9976806640625 150 0 0 1
501.066497802734375 298.0023193359375 150 0 0 1
500.9976806640625 447 150 0 0 1
491.0023193359375 437 150 0 0 1
457 361 0 0 0 -1
467 366 0 0 0 -1
457 371 0 0 0 -1
457 361 150 0 0 1
467 366 150 0 0 1
457 371 150 0 0 1
357 111 0 0 0 -1
347 111.050247192382812 0 0 0 -1
351.975006103515625 101 0 0 0 -1
357 111 150 0 0 1
347 111.050247192382812 150 0 0 1
351.975006103515625 101 150 0 0 1
4 0 1 2 3
4 4 5 6 7
4 8 9 10 11
4 12 13 14 15
4 16 17 18 19
4 20 21 22 23
4 24 25 26 27
4 28 29 30 31
4 32 33 34 35
4 36 37 38 39
4 40 41 42 43
4 44 45 46 47
4 48 49 50 51
4 52 53 54 55
4 56 57 58 59
4 60 61 62 63
4 64 65 66 67
4 68 69 70 71
4 72 73 74 75
4 76 77 78 79
4 80 81 82 83
4 84 85 86 87
4 88 89 90 91
4 92 93 94 95
4 96 97 98 99
4 100 101 102 103
4 104 105 106 107
4 108 109 110 111
4 112 113 114 115
4 116 117 118 119
4 120 121 122 123
4 124 125 126 127
4 128 129 130 131
4 132 133 134 135
4 136 137 138 139
4 140 141 142 143
4 144 145 146 147
4 148 149 150 151
4 152 153 154 155
4 156 157 158 159
4 160 161 162 163
4 164 165 166 167
4 168 169 170 171
4 172 173 174 175
4 176 177 178 179
4 180 181 182 183
4 184 185 186 187
4 188 189 190 191
4 192 193 194 195
4 196 197 198 199
4 200 201 202 203
4 204 205 206 207
4 208 209 210 211
4 212 213 214 215
4 216 217 218 219
4 220 221 222 223
4 224 225 226 227
4 228 229 230 231
4 232 233 234 235
4 236 237 238 239
4 240 241 242 243
4 244 245 246 247
4 248 249 250 251
4 252 253 254 255
4 256 257 258 259
4 260 261 262 263
4 264 265 266 267
4 268 269 270 271
4 272 273 274 275
4 276 277 278 279
4 280 281 282 283
4 284 285 286 287
4 288 289 290 291
4 292 293 294 295
4 296 297 298 299
4 300 301 302 303
4 304 305 306 307
4 308 309 310 311
4 312 313 314 315
4 316 317 318 319
4 320 321 322 323
4 324 325 326 327
4 328 329 330 331
4 332 333 334 335
4 336 337 338 339
4 340 341 342 343
4 344 345 346 347
4 348 349 350 351
4 352 353 354 355
4 356 357 358 359
4 360 361 362 363
4 364 365 366 367
4 368 369 370 371
4 372 373 374 375
4 376 377 378 379
4 380 381 382 383
4 384 385 386 387
4 388 389 390 391
4 392 393 394 395
4 396 397 398 399
4 400 401 402 403
4 404 405 406 407
4 408 409 410 411
4 412 413 414 415
4 416 417 418 419
4 420 421 422 423
4 424 425 426 427
4 428 429 430 431
4 432 433 434 435
4 436 437 438 439
4 440 441 442 443
4 444 445 446 447
4 448 449 450 451
4 452 453 454 455
4 456 457 458 459
4 460 461 462 463
4 464 465 466 467
4 468 469 470 471
4 472 473 474 475
4 476 477 478 479
4 480 481 482 483
4 484 485 486 487
4 488 489 490 491
4 492 493 494 495
4 496 497 498 499
4 500 501 502 503
4 504 505 506 507
4 508 509 510 511
4 512 513 514 515
4 516 517 518 519
4 520 521 522 523
4 524 525 526 527
4 528 529 530 531
4 532 533 534 535
4 536 537 538 539
4 540 541 542 543
4 544 545 546 547
4 548 549 550 551
4 552 553 554 555
4 556 557 558 559
4 560 561 562 563
4 564 565 566 567
4 568 569 570 571
4 572 573 574 575
4 576 577 578 579
4 580 581 582 583
4 584 585 586 587
4 588 589 590 591
4 592 593 594 595
4 596 597 598 599
4 600 601 602 603
4 604 605 606 607
4 608 609 610 611
4 612 613 614 615
4 616 617 618 619
4 620 621 622 623
4 624 625 626 627
4 628 629 630 631
4 632 633 634 635
4 636 637 638 639
4 640 641 642 643
4 644 645 646 647
4 648 649 650 651
4 652 653 654 655
4 656 657 658 659
4 660 661 662 663
4 664 665 666 667
4 668 669 670 671
4 672 673 674 675
4 676 677 678 679
4 680 681 682 683
4 684 685 686 687
4 688 689 690 691
4 692 693 694 695
4 696 697 698 699
4 700 701 702 703
4 704 705 706 707
4 708 709 710 711
4 712 713 714 715
4 716 717 718 719
4 720 721 722 723
4 724 725 726 727
4 728 729 730 731
4 732 733 734 735
4 736 737 738 739
4 740 741 742 743
4 744 745 746 747
4 748 749 750 751
4 752 753 754 755
4 756 757 758 759
4 760 761 762 763
4 764 765 766 767
4 768 769 770 771
4 772 773 774 775
4 776 777 778 779
4 780 781 782 783
4 784 785 786 787
4 788 789 790 791
4 792 793 794 795
4 796 797 798 799
4 800 801 802 803
4 804 805 806 807
4 808 809 810 811
3 812 813 814
3 815 816 817
3 818 819 820
3 821 822 823
