ply
format ascii 1.0
element vertex 1194
property float x
property float y
property float z
property float nx
property float ny
property float nz
element quads 297
property list uchar int vertex_indices
element triads 2
property list uchar int vertex_indices
end_header
641 204 0 1 0 0
641 90 0 1 0 0
641 90 150 1 0 0
641 204 150 1 0 0
631 214 0 -1 -0 0
631 100 0 -1 -0 0
631 100 150 -1 -0 0
631 214 150 -1 -0 0
631 214 0 -0 1 0
662 214 0 -0 1 0
662 214 150 -0 1 0
631 214 150 -0 1 0
641 204 0 0 -1 0
672 204 0 0 -1 0
672 204 150 0 -1 0
641 204 150 0 -1 0
641 90 0 -0 -1 0
624 90 0 -0 -1 0
624 90 150 -0 -1 0
641 90 150 -0 -1 0
631 100 0 0 1 0
624 100 0 0 1 0
624 100 150 0 1 0
631 100 150 0 1 0
181.5 234 0 1 0 0
181.5 96 0 1 0 0
181.5 96 150 1 0 0
181.5 234 150 1 0 0
171.5 234 0 -1 -0 0
171.5 96 0 -1 -0 0
171.5 96 150 -1 -0 0
171.5 234 150 -1 -0 0
631 521 0 -0 -1 0
475 521 0 -0 -1 0
475 521 150 -0 -1 0
631 521 150 -0 -1 0
641 531 0 0 1 0
465 531 0 0 1 0
465 531 150 0 1 0
641 531 150 0 1 0
641 531 0 1 0 0
641 309 0 1 0 0
641 309 150 1 0 0
641 531 150 1 0 0
631 521 0 -1 -0 0
631 309.1488037109375 0 -1 -0 0
631 309.1488037109375 150 -1 -0 0
631 521 150 -1 -0 0
475 521 0 1 0 0
475 514 0 1 0 0
475 514 150 1 0 0
475 521 150 1 0 0
465 531 0 -1 -0 0
465 514 0 -1 -0 0
465 514 150 -1 -0 0
465 531 150 -1 -0 0
599 90.4893646240234375 0 -0 -1 0
551 90.4893646240234375 0 -0 -1 0
551 90.4893646240234375 150 -0 -1 0
599 90.4893646240234375 150 -0 -1 0
599 100.489364624023438 0 0 1 0
551 100.489364624023438 0 0 1 0
551 100.489364624023438 150 0 1 0
599 100.489364624023438 150 0 1 0
519 90 0 1 0 0
519 28 0 1 0 0
519 28 150 1 0 0
519 90 150 1 0 0
509 100 0 -1 -0 0
509 38 0 -1 -0 0
509 38 150 -1 -0 0
509 100 150 -1 -0 0
509 100 0 -0 1 0
526 100 0 -0 1 0
526 100 150 -0 1 0
509 100 150 -0 1 0
519 90 0 0 -1 0
526 90 0 0 -1 0
526 90 150 0 -1 0
519 90 150 0 -1 0
519 28 0 -0 -1 0
502 28 0 -0 -1 0
502 28 150 -0 -1 0
519 28 150 -0 -1 0
509 38 0 0 1 0
502 38 0 0 1 0
502 38 150 0 1 0
509 38 150 0 1 0
462 236.141021728515625 0 -0 -1 0
413 236.141021728515625 0 -0 -1 0
413 236.141021728515625 150 -0 -1 0
462 236.141021728515625 150 -0 -1 0
462 246.141021728515625 0 0 1 0
413 246.141021728515625 0 0 1 0
413 246.141021728515625 150 0 1 0
462 246.141021728515625 150 0 1 0
478 235 0 -0 -1 0
466 235 0 -0 -1 0
466 235 150 -0 -1 0
478 235 150 -0 -1 0
478 245 0 0 1 0
466 245 0 0 1 0
466 245 150 0 1 0
478 245 150 0 1 0
310 291 0 1 0 0
310 272 0 1 0 0
310 272 150 1 0 0
310 291 150 1 0 0
300 291 0 -1 -0 0
300 272 0 -1 -0 0
300 272 150 -1 -0 0
300 291 150 -1 -0 0
426 90.3571395874023438 0 -0 -1 0
408 90.3571395874023438 0 -0 -1 0
408 90.3571395874023438 150 -0 -1 0
426 90.3571395874023438 150 -0 -1 0
426 100.357139587402344 0 0 1 0
408 100.357139587402344 0 0 1 0
408 100.357139587402344 150 0 1 0
426 100.357139587402344 150 0 1 0
597 204 0 -0 -1 0
561 204 0 -0 -1 0
561 204 150 -0 -1 0
597 204 150 -0 -1 0
597 214 0 0 1 0
561 214 0 0 1 0
561 214 150 0 1 0
597 214 150 0 1 0
667 299 0 -0 -1 0
635.92669677734375 299 0 -0 -1 0
635.92669677734375 299 150 -0 -1 0
667 299 150 -0 -1 0
667 309 0 0 1 0
641 309 0 0 1 0
641 309 150 0 1 0
667 309 150 0 1 0
635.92669677734375 299 0 -0.0293207224458456039 -0.999570071697235107 0
620.8533935546875 299.442138671875 0 -0.0293207224458456039 -0.999570071697235107 0
620.8533935546875 299.442138671875 150 -0.0293207224458456039 -0.999570071697235107 0
635.92669677734375 299 150 -0.0293207224458456039 -0.999570071697235107 0
631 309.1488037109375 0 0.0293207224458456039 0.999570071697235107 0
621.1466064453125 309.437835693359375 0 0.0293207224458456039 0.999570071697235107 0
621.1466064453125 309.437835693359375 150 0.0293207224458456039 0.999570071697235107 0
631 309.1488037109375 150 0.0293207224458456039 0.999570071697235107 0
550.797607421875 243 0 1 0 0
550.797607421875 209 0 1 0 0
550.797607421875 209 150 1 0 0
550.797607421875 243 150 1 0 0
540.797607421875 243 0 -1 -0 0
540.797607421875 209 0 -1 -0 0
540.797607421875 209 150 -1 -0 0
540.797607421875 243 150 -1 -0 0
181.56805419921875 349 0 1 0 0
181.56805419921875 254 0 1 0 0
181.56805419921875 254 150 1 0 0
181.56805419921875 349 150 1 0 0
171.56805419921875 349 0 -1 -0 0
171.56805419921875 254 0 -1 -0 0
171.56805419921875 254 150 -1 -0 0
171.56805419921875 349 150 -1 -0 0
223 231 0 1 0 0
223 209 0 1 0 0
223 209 150 1 0 0
223 231 150 1 0 0
213 231 0 -1 -0 0
213 209 0 -1 -0 0
213 209 150 -1 -0 0
213 231 150 -1 -0 0
260 185 0 -0 -1 0
216 185 0 -0 -1 0
216 185 150 -0 -1 0
260 185 150 -0 -1 0
260 195 0 0 1 0
216 195 0 0 1 0
216 195 150 0 1 0
260 195 150 0 1 0
236 90.638885498046875 0 -0 -1 0
213 90.638885498046875 0 -0 -1 0
213 90.638885498046875 150 -0 -1 0
236 90.638885498046875 150 -0 -1 0
236 100.638885498046875 0 0 1 0
213 100.638885498046875 0 0 1 0
213 100.638885498046875 150 0 1 0
236 100.638885498046875 150 0 1 0
365 253 0 1 0 0
365 246 0 1 0 0
365 246 150 1 0 0
365 253 150 1 0 0
355 253 0 -1 -0 0
355 236 0 -1 -0 0
355 236 150 -1 -0 0
355 253 150 -1 -0 0
365 246 0 -0 1 0
372 246 0 -0 1 0
372 246 150 -0 1 0
365 246 150 -0 1 0
355 236 0 0 -1 0
372 236 0 0 -1 0
372 236 150 0 -1 0
355 236 150 0 -1 0
424 339 0 -0 -1 0
393 339 0 -0 -1 0
393 339 150 -0 -1 0
424 339 150 -0 -1 0
424 349 0 0 1 0
393 349 0 0 1 0
393 349 150 0 1 0
424 349 150 0 1 0
475 339 0 -0 -1 0
444 339 0 -0 -1 0
444 339 150 -0 -1 0
475 339 150 -0 -1 0
465 349 0 0 1 0
444 349 0 0 1 0
444 349 150 0 1 0
465 349 150 0 1 0
465 349 0 -1 0 0
465 370 0 -1 0 0
465 370 150 -1 0 0
465 349 150 -1 0 0
475 339 0 1 -0 0
475 370 0 1 -0 0
475 370 150 1 -0 0
475 339 150 1 -0 0
672 268 0 1 0 0
672 256 0 1 0 0
672 256 150 1 0 0
672 268 150 1 0 0
662 268 0 -1 -0 0
662 256 0 -1 -0 0
662 256 150 -1 -0 0
662 268 150 -1 -0 0
301 90.619049072265625 0 -0 -1 0
262 90.619049072265625 0 -0 -1 0
262 90.619049072265625 150 -0 -1 0
301 90.619049072265625 150 -0 -1 0
301 100.619049072265625 0 0 1 0
262 100.619049072265625 0 0 1 0
262 100.619049072265625 150 0 1 0
301 100.619049072265625 150 0 1 0
208 344 0 -0 -1 0
177 344 0 -0 -1 0
177 344 150 -0 -1 0
208 344 150 -0 -1 0
208 354 0 0 1 0
177 354 0 0 1 0
177 354 150 0 1 0
208 354 150 0 1 0
519 292 0 1 0 0
519 279 0 1 0 0
519 279 150 1 0 0
519 292 150 1 0 0
509 292 0 -1 -0 0
509 279 0 -1 -0 0
509 279 150 -1 -0 0
509 292 150 -1 -0 0
362.948272705078125 344 0 1 0 0
362.948272705078125 293 0 1 0 0
362.948272705078125 293 150 1 0 0
362.948272705078125 344 150 1 0 0
352.948272705078125 344 0 -1 -0 0
352.948272705078125 293 0 -1 -0 0
352.948272705078125 293 150 -1 -0 0
352.948272705078125 344 150 -1 -0 0
309 301 0 -0 -1 0
283 301 0 -0 -1 0
283 301 150 -0 -1 0
309 301 150 -0 -1 0
309 311 0 0 1 0
293 311 0 0 1 0
293 311 150 0 1 0
309 311 150 0 1 0
283 301 0 -1 0 0
283 344.049346923828125 0 -1 0 0
283 344.049346923828125 150 -1 0 0
283 301 150 -1 0 0
293 311 0 1 -0 0
293 353.950653076171875 0 1 -0 0
293 353.950653076171875 150 1 -0 0
293 311 150 1 -0 0
672 234 0 1 0 0
672 204 0 1 0 0
672 204 150 1 0 0
672 234 150 1 0 0
662 234 0 -1 -0 0
662 214 0 -1 -0 0
662 214 150 -1 -0 0
662 234 150 -1 -0 0
264 242 0 1 0 0
264 230 0 1 0 0
264 230 150 1 0 0
264 242 150 1 0 0
254 242 0 -1 -0 0
254 230 0 -1 -0 0
254 230 150 -1 -0 0
254 242 150 -1 -0 0
599 295 0 1 0 0
599 274 0 1 0 0
599 274 150 1 0 0
599 295 150 1 0 0
589 295 0 -1 -0 0
589 274 0 -1 -0 0
589 274 150 -1 -0 0
589 295 150 -1 -0 0
277.3389892578125 161 0 1 0 0
277.3389892578125 122 0 1 0 0
277.3389892578125 122 150 1 0 0
277.3389892578125 161 150 1 0 0
267.3389892578125 161 0 -1 -0 0
267.3389892578125 122 0 -1 -0 0
267.3389892578125 122 150 -1 -0 0
267.3389892578125 161 150 -1 -0 0
484 260 0 -0 -1 0
459 260 0 -0 -1 0
459 260 150 -0 -1 0
484 260 150 -0 -1 0
484 270 0 0 1 0
459 270 0 0 1 0
459 270 150 0 1 0
484 270 150 0 1 0
292 170 0 1 0 0
292 160 0 1 0 0
292 160 150 1 0 0
292 170 150 1 0 0
282 170 0 -1 -0 0
282 160 0 -1 -0 0
282 160 150 -1 -0 0
282 170 150 -1 -0 0
261 253 0 -0 -1 0
237 253 0 -0 -1 0
237 253 150 -0 -1 0
261 253 150 -0 -1 0
261 263 0 0 1 0
237 263 0 0 1 0
237 263 150 0 1 0
261 263 150 0 1 0
373 339 0 -0 -1 0
358 339 0 -0 -1 0
358 339 150 -0 -1 0
373 339 150 -0 -1 0
373 349 0 0 1 0
358 349 0 0 1 0
358 349 150 0 1 0
373 349 150 0 1 0
218 203.538467407226562 0 -0 -1 0
189 203.538467407226562 0 -0 -1 0
189 203.538467407226562 150 -0 -1 0
218 203.538467407226562 150 -0 -1 0
218 213.538467407226562 0 0 1 0
189 213.538467407226562 0 0 1 0
189 213.538467407226562 150 0 1 0
218 213.538467407226562 150 0 1 0
599 254 0 1 0 0
599 238 0 1 0 0
599 238 150 1 0 0
599 254 150 1 0 0
589 254 0 -1 -0 0
589 238 0 -1 -0 0
589 238 150 -1 -0 0
589 254 150 -1 -0 0
364 90.3448257446289062 0 -0 -1 0
345 90.3448257446289062 0 -0 -1 0
345 90.3448257446289062 150 -0 -1 0
364 90.3448257446289062 150 -0 -1 0
364 100.344825744628906 0 0 1 0
345 100.344825744628906 0 0 1 0
345 100.344825744628906 150 0 1 0
364 100.344825744628906 150 0 1 0
356 301 0 -0 -1 0
336 301 0 -0 -1 0
336 301 150 -0 -1 0
356 301 150 -0 -1 0
356 311 0 0 1 0
336 311 0 0 1 0
336 311 150 0 1 0
356 311 150 0 1 0
438 29 0 -0 -1 0
427 29 0 -0 -1 0
427 29 150 -0 -1 0
438 29 150 -0 -1 0
438 39 0 0 1 0
427 39 0 0 1 0
427 39 150 0 1 0
438 39 150 0 1 0
464 317 0 1 0 0
464 305 0 1 0 0
464 305 150 1 0 0
464 317 150 1 0 0
454 317 0 -1 -0 0
454 305 0 -1 -0 0
454 305 150 -1 -0 0
454 317 150 -1 -0 0
672 253 0 1 0 0
672 239 0 1 0 0
672 239 150 1 0 0
672 253 150 1 0 0
662 253 0 -1 -0 0
662 239 0 -1 -0 0
662 239 150 -1 -0 0
662 253 150 -1 -0 0
299 224 0 -0 -1 0
289 224 0 -0 -1 0
289 224 150 -0 -1 0
299 224 150 -0 -1 0
299 234 0 0 1 0
289 234 0 0 1 0
289 234 150 0 1 0
299 234 150 0 1 0
283 344.049346923828125 0 -0.00992014631628990173 -0.999950766563415527 0
247.950393676757812 344.397064208984375 0 -0.00992014631628990173 -0.999950766563415527 0
247.950393676757812 344.397064208984375 150 -0.00992014631628990173 -0.999950766563415527 0
283 344.049346923828125 150 -0.00992014631628990173 -0.999950766563415527 0
293 353.950653076171875 0 0.00992014631628990173 0.999950766563415527 0
248.049606323242188 354.396575927734375 0 0.00992014631628990173 0.999950766563415527 0
248.049606323242188 354.396575927734375 150 0.00992014631628990173 0.999950766563415527 0
293 353.950653076171875 150 0.00992014631628990173 0.999950766563415527 0
286.12628173828125 262.4783935546875 0 0.0252551008015871048 0.999681055545806885 0
310 261.875274658203125 0 0.0252551008015871048 0.999681055545806885 0
310 261.875274658203125 150 0.0252551008015871048 0.999681055545806885 0
286.12628173828125 262.4783935546875 150 0.0252551008015871048 0.999681055545806885 0
285.87371826171875 252.481597900390625 0 -0.0252551008015871048 -0.999681055545806885 0
300 252.124725341796875 0 -0.0252551008015871048 -0.999681055545806885 0
300 252.124725341796875 150 -0.0252551008015871048 -0.999681055545806885 0
285.87371826171875 252.481597900390625 150 -0.0252551008015871048 -0.999681055545806885 0
310 261.875274658203125 0 1 0 0
310 245 0 1 0 0
310 245 150 1 0 0
310 261.875274658203125 150 1 0 0
300 252.124725341796875 0 -1 -0 0
300 245 0 -1 -0 0
300 245 150 -1 -0 0
300 252.124725341796875 150 -1 -0 0
181.5 234 0 180.184783935546875 233.304351806640625 0
171.5 234 0 180.184783935546875 233.304351806640625 0
171.5 234 150 180.184783935546875 233.304351806640625 0
181.5 234 150 180.184783935546875 233.304351806640625 0
181.5 96 0 180.184783935546875 94.3043441772460938 0
171.5 96 0 180.184783935546875 94.3043441772460938 0
171.5 96 150 180.184783935546875 94.3043441772460938 0
181.5 96 150 180.184783935546875 94.3043441772460938 0
599 90.4893646240234375 0 587.52081298828125 88.6041641235351562 0
599 100.489364624023438 0 587.52081298828125 88.6041641235351562 0
599 100.489364624023438 150 587.52081298828125 88.6041641235351562 0
599 90.4893646240234375 150 587.52081298828125 88.6041641235351562 0
551 90.4893646240234375 0 538.52081298828125 88.6041641235351562 0
551 100.489364624023438 0 538.52081298828125 88.6041641235351562 0
551 100.489364624023438 150 538.52081298828125 88.6041641235351562 0
551 90.4893646240234375 150 538.52081298828125 88.6041641235351562 0
462 236.141021728515625 0 453.571441650390625 231.321823120117188 0
462 246.141021728515625 0 453.571441650390625 231.321823120117188 0
462 246.141021728515625 150 453.571441650390625 231.321823120117188 0
462 236.141021728515625 150 453.571441650390625 231.321823120117188 0
413 236.141021728515625 0 403.571441650390625 231.321823120117188 0
413 246.141021728515625 0 403.571441650390625 231.321823120117188 0
413 246.141021728515625 150 403.571441650390625 231.321823120117188 0
413 236.141021728515625 150 403.571441650390625 231.321823120117188 0
478 235 0 439.166656494140625 215.416671752929688 0
478 245 0 439.166656494140625 215.416671752929688 0
478 245 150 439.166656494140625 215.416671752929688 0
478 235 150 439.166656494140625 215.416671752929688 0
466 235 0 426.166656494140625 215.416671752929688 0
466 245 0 426.166656494140625 215.416671752929688 0
466 245 150 426.166656494140625 215.416671752929688 0
466 235 150 426.166656494140625 215.416671752929688 0
310 291 0 293.6842041015625 276.6842041015625 0
300 291 0 293.6842041015625 276.6842041015625 0
300 291 150 293.6842041015625 276.6842041015625 0
310 291 150 293.6842041015625 276.6842041015625 0
310 272 0 293.6842041015625 256.6842041015625 0
300 272 0 293.6842041015625 256.6842041015625 0
300 272 150 293.6842041015625 256.6842041015625 0
310 272 150 293.6842041015625 256.6842041015625 0
426 90.3571395874023438 0 403.333343505859375 85.3373031616210938 0
426 100.357139587402344 0 403.333343505859375 85.3373031616210938 0
426 100.357139587402344 150 403.333343505859375 85.3373031616210938 0
426 90.3571395874023438 150 403.333343505859375 85.3373031616210938 0
408 90.3571395874023438 0 384.333343505859375 85.3373031616210938 0
408 100.357139587402344 0 384.333343505859375 85.3373031616210938 0
408 100.357139587402344 150 384.333343505859375 85.3373031616210938 0
408 90.3571395874023438 150 384.333343505859375 85.3373031616210938 0
597 204 0 581.41668701171875 198.333328247070312 0
597 214 0 581.41668701171875 198.333328247070312 0
597 214 150 581.41668701171875 198.333328247070312 0
597 204 150 581.41668701171875 198.333328247070312 0
561 204 0 544.41668701171875 198.333328247070312 0
561 214 0 544.41668701171875 198.333328247070312 0
561 214 150 544.41668701171875 198.333328247070312 0
561 204 150 544.41668701171875 198.333328247070312 0
667 299 0 646.53466796875 289.377593994140625 0
667 309 0 646.53466796875 289.377593994140625 0
667 309 150 646.53466796875 289.377593994140625 0
667 299 150 646.53466796875 289.377593994140625 0
550.797607421875 243 0 534.59771728515625 236.852935791015625 0
540.797607421875 243 0 534.59771728515625 236.852935791015625 0
540.797607421875 243 150 534.59771728515625 236.852935791015625 0
550.797607421875 243 150 534.59771728515625 236.852935791015625 0
550.797607421875 209 0 534.59771728515625 201.852935791015625 0
540.797607421875 209 0 534.59771728515625 201.852935791015625 0
540.797607421875 209 150 534.59771728515625 201.852935791015625 0
550.797607421875 209 150 534.59771728515625 201.852935791015625 0
181.56805419921875 349 0 179.65679931640625 346.326324462890625 0
171.56805419921875 349 0 179.65679931640625 346.326324462890625 0
171.56805419921875 349 150 179.65679931640625 346.326324462890625 0
181.56805419921875 349 150 179.65679931640625 346.326324462890625 0
181.56805419921875 254 0 179.65679931640625 250.326309204101562 0
171.56805419921875 254 0 179.65679931640625 250.326309204101562 0
171.56805419921875 254 150 179.65679931640625 250.326309204101562 0
181.56805419921875 254 150 179.65679931640625 250.326309204101562 0
223 231 0 212.863632202148438 221.5 0
213 231 0 212.863632202148438 221.5 0
213 231 150 212.863632202148438 221.5 0
223 231 150 212.863632202148438 221.5 0
223 209 0 212.863632202148438 198.5 0
213 209 0 212.863632202148438 198.5 0
213 209 150 212.863632202148438 198.5 0
223 209 150 212.863632202148438 198.5 0
260 185 0 255.090911865234375 180.795455932617188 0
260 195 0 255.090911865234375 180.795455932617188 0
260 195 150 255.090911865234375 180.795455932617188 0
260 185 150 255.090911865234375 180.795455932617188 0
216 185 0 210.090911865234375 180.795455932617188 0
216 195 0 210.090911865234375 180.795455932617188 0
216 195 150 210.090911865234375 180.795455932617188 0
216 185 150 210.090911865234375 180.795455932617188 0
236 90.638885498046875 0 226.7391357421875 86.6980667114257812 0
236 100.638885498046875 0 226.7391357421875 86.6980667114257812 0
236 100.638885498046875 150 226.7391357421875 86.6980667114257812 0
236 90.638885498046875 150 226.7391357421875 86.6980667114257812 0
213 90.638885498046875 0 202.7391357421875 86.6980667114257812 0
213 100.638885498046875 0 202.7391357421875 86.6980667114257812 0
213 100.638885498046875 150 202.7391357421875 86.6980667114257812 0
213 90.638885498046875 150 202.7391357421875 86.6980667114257812 0
365 253 0 312.857147216796875 217.857147216796875 0
355 253 0 312.857147216796875 217.857147216796875 0
355 253 150 312.857147216796875 217.857147216796875 0
365 253 150 312.857147216796875 217.857147216796875 0
424 339 0 411.32257080078125 328.06451416015625 0
424 349 0 411.32257080078125 328.06451416015625 0
424 349 150 411.32257080078125 328.06451416015625 0
424 339 150 411.32257080078125 328.06451416015625 0
393 339 0 379.32257080078125 328.06451416015625 0
393 349 0 379.32257080078125 328.06451416015625 0
393 349 150 379.32257080078125 328.06451416015625 0
393 339 150 379.32257080078125 328.06451416015625 0
444 339 0 428.67742919921875 328.06451416015625 0
444 349 0 428.67742919921875 328.06451416015625 0
444 349 150 428.67742919921875 328.06451416015625 0
444 339 150 428.67742919921875 328.06451416015625 0
672 268 0 616 246.666671752929688 0
662 268 0 616 246.666671752929688 0
662 268 150 616 246.666671752929688 0
672 268 150 616 246.666671752929688 0
672 256 0 616 233.666671752929688 0
662 256 0 616 233.666671752929688 0
662 256 150 616 233.666671752929688 0
672 256 150 616 233.666671752929688 0
475 514 0 407.142852783203125 439.571441650390625 0
465 514 0 407.142852783203125 439.571441650390625 0
465 514 150 407.142852783203125 439.571441650390625 0
475 514 150 407.142852783203125 439.571441650390625 0
301 90.619049072265625 0 294.28204345703125 88.2954788208007812 0
301 100.619049072265625 0 294.28204345703125 88.2954788208007812 0
301 100.619049072265625 150 294.28204345703125 88.2954788208007812 0
301 90.619049072265625 150 294.28204345703125 88.2954788208007812 0
262 90.619049072265625 0 254.282058715820312 88.2954788208007812 0
262 100.619049072265625 0 254.282058715820312 88.2954788208007812 0
262 100.619049072265625 150 254.282058715820312 88.2954788208007812 0
262 90.619049072265625 150 254.282058715820312 88.2954788208007812 0
208 344 0 202.290328979492188 332.903228759765625 0
208 354 0 202.290328979492188 332.903228759765625 0
208 354 150 202.290328979492188 332.903228759765625 0
208 344 150 202.290328979492188 332.903228759765625 0
177 344 0 170.290328979492188 332.903228759765625 0
177 354 0 170.290328979492188 332.903228759765625 0
177 354 150 170.290328979492188 332.903228759765625 0
177 344 150 170.290328979492188 332.903228759765625 0
519 292 0 479.076934814453125 270.5384521484375 0
509 292 0 479.076934814453125 270.5384521484375 0
509 292 150 479.076934814453125 270.5384521484375 0
519 292 150 479.076934814453125 270.5384521484375 0
519 279 0 479.076934814453125 256.5384521484375 0
509 279 0 479.076934814453125 256.5384521484375 0
509 279 150 479.076934814453125 256.5384521484375 0
519 279 150 479.076934814453125 256.5384521484375 0
362.948272705078125 344 0 355.831634521484375 338.254913330078125 0
352.948272705078125 344 0 355.831634521484375 338.254913330078125 0
352.948272705078125 344 150 355.831634521484375 338.254913330078125 0
362.948272705078125 344 150 355.831634521484375 338.254913330078125 0
362.948272705078125 293 0 355.831634521484375 286.254913330078125 0
352.948272705078125 293 0 355.831634521484375 286.254913330078125 0
352.948272705078125 293 150 355.831634521484375 286.254913330078125 0
362.948272705078125 293 150 355.831634521484375 286.254913330078125 0
309 301 0 298.115386962890625 289.423065185546875 0
309 311 0 298.115386962890625 289.423065185546875 0
309 311 150 298.115386962890625 289.423065185546875 0
309 301 150 298.115386962890625 289.423065185546875 0
672 234 0 649.5999755859375 227.199996948242188 0
662 234 0 649.5999755859375 227.199996948242188 0
662 234 150 649.5999755859375 227.199996948242188 0
672 234 150 649.5999755859375 227.199996948242188 0
264 242 0 242 222.833328247070312 0
254 242 0 242 222.833328247070312 0
254 242 150 242 222.833328247070312 0
264 242 150 242 222.833328247070312 0
264 230 0 242 209.833328247070312 0
254 230 0 242 209.833328247070312 0
254 230 150 242 209.833328247070312 0
264 230 150 242 209.833328247070312 0
599 295 0 570.4761962890625 281.952392578125 0
589 295 0 570.4761962890625 281.952392578125 0
589 295 150 570.4761962890625 281.952392578125 0
599 295 150 570.4761962890625 281.952392578125 0
599 274 0 570.4761962890625 259.952392578125 0
589 274 0 570.4761962890625 259.952392578125 0
589 274 150 570.4761962890625 259.952392578125 0
599 274 150 570.4761962890625 259.952392578125 0
502 28 0 471.4705810546875 26.3529415130615234 0
502 38 0 471.4705810546875 26.3529415130615234 0
502 38 150 471.4705810546875 26.3529415130615234 0
502 28 150 471.4705810546875 26.3529415130615234 0
277.3389892578125 161 0 270.22772216796875 157.871795654296875 0
267.3389892578125 161 0 270.22772216796875 157.871795654296875 0
267.3389892578125 161 150 270.22772216796875 157.871795654296875 0
277.3389892578125 161 150 270.22772216796875 157.871795654296875 0
277.3389892578125 122 0 270.22772216796875 117.871795654296875 0
267.3389892578125 122 0 270.22772216796875 117.871795654296875 0
267.3389892578125 122 150 270.22772216796875 117.871795654296875 0
277.3389892578125 122 150 270.22772216796875 117.871795654296875 0
465 370 0 442.857147216796875 353.380950927734375 0
475 370 0 442.857147216796875 353.380950927734375 0
475 370 150 442.857147216796875 353.380950927734375 0
465 370 150 442.857147216796875 353.380950927734375 0
484 260 0 465.6400146484375 249.600006103515625 0
484 270 0 465.6400146484375 249.600006103515625 0
484 270 150 465.6400146484375 249.600006103515625 0
484 260 150 465.6400146484375 249.600006103515625 0
459 260 0 439.6400146484375 249.600006103515625 0
459 270 0 439.6400146484375 249.600006103515625 0
459 270 150 439.6400146484375 249.600006103515625 0
459 260 150 439.6400146484375 249.600006103515625 0
292 170 0 262.79998779296875 154 0
282 170 0 262.79998779296875 154 0
282 170 150 262.79998779296875 154 0
292 170 150 262.79998779296875 154 0
292 160 0 262.79998779296875 143 0
282 160 0 262.79998779296875 143 0
282 160 150 262.79998779296875 143 0
292 160 150 262.79998779296875 143 0
261 253 0 251.125 242.458328247070312 0
261 263 0 251.125 242.458328247070312 0
261 263 150 251.125 242.458328247070312 0
261 253 150 251.125 242.458328247070312 0
237 253 0 226.125 242.458328247070312 0
237 263 0 226.125 242.458328247070312 0
237 263 150 226.125 242.458328247070312 0
237 253 150 226.125 242.458328247070312 0
373 339 0 349.133331298828125 316.399993896484375 0
373 349 0 349.133331298828125 316.399993896484375 0
373 349 150 349.133331298828125 316.399993896484375 0
373 339 150 349.133331298828125 316.399993896484375 0
358 339 0 333.133331298828125 316.399993896484375 0
358 349 0 333.133331298828125 316.399993896484375 0
358 349 150 333.133331298828125 316.399993896484375 0
358 339 150 333.133331298828125 316.399993896484375 0
218 203.538467407226562 0 211.482757568359375 196.5198974609375 0
218 213.538467407226562 0 211.482757568359375 196.5198974609375 0
218 213.538467407226562 150 211.482757568359375 196.5198974609375 0
218 203.538467407226562 150 211.482757568359375 196.5198974609375 0
189 203.538467407226562 0 181.482757568359375 196.5198974609375 0
189 213.538467407226562 0 181.482757568359375 196.5198974609375 0
189 213.538467407226562 150 181.482757568359375 196.5198974609375 0
189 203.538467407226562 150 181.482757568359375 196.5198974609375 0
599 254 0 561.5625 239.125 0
589 254 0 561.5625 239.125 0
589 254 150 561.5625 239.125 0
599 254 150 561.5625 239.125 0
599 238 0 561.5625 222.125 0
589 238 0 561.5625 222.125 0
589 238 150 561.5625 222.125 0
599 238 150 561.5625 222.125 0
364 90.3448257446289062 0 345.84210205078125 85.5898361206054688 0
364 100.344825744628906 0 345.84210205078125 85.5898361206054688 0
364 100.344825744628906 150 345.84210205078125 85.5898361206054688 0
364 90.3448257446289062 150 345.84210205078125 85.5898361206054688 0
345 90.3448257446289062 0 325.84210205078125 85.5898361206054688 0
345 100.344825744628906 0 325.84210205078125 85.5898361206054688 0
345 100.344825744628906 150 325.84210205078125 85.5898361206054688 0
345 90.3448257446289062 150 325.84210205078125 85.5898361206054688 0
356 301 0 339.20001220703125 285.95001220703125 0
356 311 0 339.20001220703125 285.95001220703125 0
356 311 150 339.20001220703125 285.95001220703125 0
356 301 150 339.20001220703125 285.95001220703125 0
336 301 0 318.20001220703125 285.95001220703125 0
336 311 0 318.20001220703125 285.95001220703125 0
336 311 150 318.20001220703125 285.95001220703125 0
336 301 150 318.20001220703125 285.95001220703125 0
438 29 0 399.18182373046875 26.3636360168457031 0
438 39 0 399.18182373046875 26.3636360168457031 0
438 39 150 399.18182373046875 26.3636360168457031 0
438 29 150 399.18182373046875 26.3636360168457031 0
427 29 0 387.18182373046875 26.3636360168457031 0
427 39 0 387.18182373046875 26.3636360168457031 0
427 39 150 387.18182373046875 26.3636360168457031 0
427 29 150 387.18182373046875 26.3636360168457031 0
464 317 0 425.333343505859375 291.583343505859375 0
454 317 0 425.333343505859375 291.583343505859375 0
454 317 150 425.333343505859375 291.583343505859375 0
464 317 150 425.333343505859375 291.583343505859375 0
464 305 0 425.333343505859375 278.583343505859375 0
454 305 0 425.333343505859375 278.583343505859375 0
454 305 150 425.333343505859375 278.583343505859375 0
464 305 150 425.333343505859375 278.583343505859375 0
624 90 0 586.29412841796875 84.7058792114257812 0
624 100 0 586.29412841796875 84.7058792114257812 0
624 100 150 586.29412841796875 84.7058792114257812 0
624 90 150 586.29412841796875 84.7058792114257812 0
672 253 0 624 235.928573608398438 0
662 253 0 624 235.928573608398438 0
662 253 150 624 235.928573608398438 0
672 253 150 624 235.928573608398438 0
672 239 0 624 220.928573608398438 0
662 239 0 624 220.928573608398438 0
662 239 150 624 220.928573608398438 0
672 239 150 624 220.928573608398438 0
526 100 0 496.058837890625 94.117645263671875 0
526 90 0 496.058837890625 94.117645263671875 0
526 90 150 496.058837890625 94.117645263671875 0
526 100 150 496.058837890625 94.117645263671875 0
372 246 0 319.857147216796875 210.857147216796875 0
372 236 0 319.857147216796875 210.857147216796875 0
372 236 150 319.857147216796875 210.857147216796875 0
372 246 150 319.857147216796875 210.857147216796875 0
299 224 0 270.100006103515625 201.600006103515625 0
299 234 0 270.100006103515625 201.600006103515625 0
299 234 150 270.100006103515625 201.600006103515625 0
299 224 150 270.100006103515625 201.600006103515625 0
289 224 0 259.100006103515625 201.600006103515625 0
289 234 0 259.100006103515625 201.600006103515625 0
289 234 150 259.100006103515625 201.600006103515625 0
289 224 150 259.100006103515625 201.600006103515625 0
620.8533935546875 299.442138671875 0 578.68255615234375 279.6142578125 0
621.1466064453125 309.437835693359375 0 578.68255615234375 279.6142578125 0
621.1466064453125 309.437835693359375 150 578.68255615234375 279.6142578125 0
620.8533935546875 299.442138671875 150 578.68255615234375 279.6142578125 0
247.950393676757812 344.397064208984375 0 239.87652587890625 334.58148193359375 0
248.049606323242188 354.396575927734375 0 239.87652587890625 334.58148193359375 0
248.049606323242188 354.396575927734375 150 239.87652587890625 334.58148193359375 0
247.950393676757812 344.397064208984375 150 239.87652587890625 334.58148193359375 0
286.12628173828125 262.4783935546875 0 273.145416259765625 251.512725830078125 0
285.87371826171875 252.481597900390625 0 273.145416259765625 251.512725830078125 0
285.87371826171875 252.481597900390625 150 273.145416259765625 251.512725830078125 0
286.12628173828125 262.4783935546875 150 273.145416259765625 251.512725830078125 0
310 245 0 291.62994384765625 229.481719970703125 0
300 245 0 291.62994384765625 229.481719970703125 0
300 245 150 291.62994384765625 229.481719970703125 0
310 245 150 291.62994384765625 229.481719970703125 0
641 204 0 0 0 -1
631 214 0 0 0 -1
631 100 0 0 0 -1
641 90 0 0 0 -1
641 204 150 0 0 1
631 214 150 0 0 1
631 100 150 0 0 1
641 90 150 0 0 1
631 214 0 0 0 -1
641 204 0 0 0 -1
672 204 0 0 0 -1
662 214 0 0 0 -1
631 214 150 0 0 1
641 204 150 0 0 1
672 204 150 0 0 1
662 214 150 0 0 1
641 90 0 0 0 -1
631 100 0 0 0 -1
624 100 0 0 0 -1
624 90 0 0 0 -1
641 90 150 0 0 1
631 100 150 0 0 1
624 100 150 0 0 1
624 90 150 0 0 1
181.5 234 0 0 0 -1
171.5 234 0 0 0 -1
171.5 96 0 0 0 -1
181.5 96 0 0 0 -1
181.5 234 150 0 0 1
171.5 234 150 0 0 1
171.5 96 150 0 0 1
181.5 96 150 0 0 1
631 521 0 0 0 -1
641 531 0 0 0 -1
465 531 0 0 0 -1
475 521 0 0 0 -1
631 521 150 0 0 1
641 531 150 0 0 1
465 531 150 0 0 1
475 521 150 0 0 1
641 531 0 0 0 -1
631 521 0 0 0 -1
631 309.1488037109375 0 0 0 -1
641 309 0 0 0 -1
641 531 150 0 0 1
631 521 150 0 0 1
631 309.1488037109375 150 0 0 1
641 309 150 0 0 1
475 521 0 0 0 -1
465 531 0 0 0 -1
465 514 0 0 0 -1
475 514 0 0 0 -1
475 521 150 0 0 1
465 531 150 0 0 1
465 514 150 0 0 1
475 514 150 0 0 1
599 90.4893646240234375 0 0 0 -1
599 100.489364624023438 0 0 0 -1
551 100.489364624023438 0 0 0 -1
551 90.4893646240234375 0 0 0 -1
599 90.4893646240234375 150 0 0 1
599 100.489364624023438 150 0 0 1
551 100.489364624023438 150 0 0 1
551 90.4893646240234375 150 0 0 1
519 90 0 0 0 -1
509 100 0 0 0 -1
509 38 0 0 0 -1
519 28 0 0 0 -1
519 90 150 0 0 1
509 100 150 0 0 1
509 38 150 0 0 1
519 28 150 0 0 1
509 100 0 0 0 -1
519 90 0 0 0 -1
526 90 0 0 0 -1
526 100 0 0 0 -1
509 100 150 0 0 1
519 90 150 0 0 1
526 90 150 0 0 1
526 100 150 0 0 1
519 28 0 0 0 -1
509 38 0 0 0 -1
502 38 0 0 0 -1
502 28 0 0 0 -1
519 28 150 0 0 1
509 38 150 0 0 1
502 38 150 0 0 1
502 28 150 0 0 1
462 236.141021728515625 0 0 0 -1
462 246.141021728515625 0 0 0 -1
413 246.141021728515625 0 0 0 -1
413 236.141021728515625 0 0 0 -1
462 236.141021728515625 150 0 0 1
462 246.141021728515625 150 0 0 1
413 246.141021728515625 150 0 0 1
413 236.141021728515625 150 0 0 1
478 235 0 0 0 -1
478 245 0 0 0 -1
466 245 0 0 0 -1
466 235 0 0 0 -1
478 235 150 0 0 1
478 245 150 0 0 1
466 245 150 0 0 1
466 235 150 0 0 1
310 291 0 0 0 -1
300 291 0 0 0 -1
300 272 0 0 0 -1
310 272 0 0 0 -1
310 291 150 0 0 1
300 291 150 0 0 1
300 272 150 0 0 1
310 272 150 0 0 1
426 90.3571395874023438 0 0 0 -1
426 100.357139587402344 0 0 0 -1
408 100.357139587402344 0 0 0 -1
408 90.3571395874023438 0 0 0 -1
426 90.3571395874023438 150 0 0 1
426 100.357139587402344 150 0 0 1
408 100.357139587402344 150 0 0 1
408 90.3571395874023438 150 0 0 1
597 204 0 0 0 -1
597 214 0 0 0 -1
561 214 0 0 0 -1
561 204 0 0 0 -1
597 204 150 0 0 1
597 214 150 0 0 1
561 214 150 0 0 1
561 204 150 0 0 1
667 299 0 0 0 -1
667 309 0 0 0 -1
641 309 0 0 0 -1
635.92669677734375 299 0 0 0 -1
667 299 150 0 0 1
667 309 150 0 0 1
641 309 150 0 0 1
635.92669677734375 299 150 0 0 1
635.92669677734375 299 0 0 0 -1
631 309.1488037109375 0 0 0 -1
621.1466064453125 309.437835693359375 0 0 0 -1
620.8533935546875 299.442138671875 0 0 0 -1
635.92669677734375 299 150 0 0 1
631 309.1488037109375 150 0 0 1
621.1466064453125 309.437835693359375 150 0 0 1
620.8533935546875 299.442138671875 150 0 0 1
550.797607421875 243 0 0 0 -1
540.797607421875 243 0 0 0 -1
540.797607421875 209 0 0 0 -1
550.797607421875 209 0 0 0 -1
550.797607421875 243 150 0 0 1
540.797607421875 243 150 0 0 1
540.797607421875 209 150 0 0 1
550.797607421875 209 150 0 0 1
181.56805419921875 349 0 0 0 -1
171.56805419921875 349 0 0 0 -1
171.56805419921875 254 0 0 0 -1
181.56805419921875 254 0 0 0 -1
181.56805419921875 349 150 0 0 1
171.56805419921875 349 150 0 0 1
171.56805419921875 254 150 0 0 1
181.56805419921875 254 150 0 0 1
223 231 0 0 0 -1
213 231 0 0 0 -1
213 209 0 0 0 -1
223 209 0 0 0 -1
223 231 150 0 0 1
213 231 150 0 0 1
213 209 150 0 0 1
223 209 150 0 0 1
260 185 0 0 0 -1
260 195 0 0 0 -1
216 195 0 0 0 -1
216 185 0 0 0 -1
260 185 150 0 0 1
260 195 150 0 0 1
216 195 150 0 0 1
216 185 150 0 0 1
236 90.638885498046875 0 0 0 -1
236 100.638885498046875 0 0 0 -1
213 100.638885498046875 0 0 0 -1
213 90.638885498046875 0 0 0 -1
236 90.638885498046875 150 0 0 1
236 100.638885498046875 150 0 0 1
213 100.638885498046875 150 0 0 1
213 90.638885498046875 150 0 0 1
365 253 0 0 0 -1
355 253 0 0 0 -1
355 236 0 0 0 -1
365 246 0 0 0 -1
365 253 150 0 0 1
355 253 150 0 0 1
355 236 150 0 0 1
365 246 150 0 0 1
365 246 0 0 0 -1
355 236 0 0 0 -1
372 236 0 0 0 -1
372 246 0 0 0 -1
365 246 150 0 0 1
355 236 150 0 0 1
372 236 150 0 0 1
372 246 150 0 0 1
424 339 0 0 0 -1
424 349 0 0 0 -1
393 349 0 0 0 -1
393 339 0 0 0 -1
424 339 150 0 0 1
424 349 150 0 0 1
393 349 150 0 0 1
393 339 150 0 0 1
475 339 0 0 0 -1
465 349 0 0 0 -1
444 349 0 0 0 -1
444 339 0 0 0 -1
475 339 150 0 0 1
465 349 150 0 0 1
444 349 150 0 0 1
444 339 150 0 0 1
465 349 0 0 0 -1
475 339 0 0 0 -1
475 370 0 0 0 -1
465 370 0 0 0 -1
465 349 150 0 0 1
475 339 150 0 0 1
475 370 150 0 0 1
465 370 150 0 0 1
672 268 0 0 0 -1
662 268 0 0 0 -1
662 256 0 0 0 -1
672 256 0 0 0 -1
672 268 150 0 0 1
662 268 150 0 0 1
662 256 150 0 0 1
672 256 150 0 0 1
301 90.619049072265625 0 0 0 -1
301 100.619049072265625 0 0 0 -1
262 100.619049072265625 0 0 0 -1
262 90.619049072265625 0 0 0 -1
301 90.619049072265625 150 0 0 1
301 100.619049072265625 150 0 0 1
262 100.619049072265625 150 0 0 1
262 90.619049072265625 150 0 0 1
208 344 0 0 0 -1
208 354 0 0 0 -1
177 354 0 0 0 -1
177 344 0 0 0 -1
208 344 150 0 0 1
208 354 150 0 0 1
177 354 150 0 0 1
177 344 150 0 0 1
519 292 0 0 0 -1
509 292 0 0 0 -1
509 279 0 0 0 -1
519 279 0 0 0 -1
519 292 150 0 0 1
509 292 150 0 0 1
509 279 150 0 0 1
519 279 150 0 0 1
362.948272705078125 344 0 0 0 -1
352.948272705078125 344 0 0 0 -1
352.948272705078125 293 0 0 0 -1
362.948272705078125 293 0 0 0 -1
362.948272705078125 344 150 0 0 1
352.948272705078125 344 150 0 0 1
352.948272705078125 293 150 0 0 1
362.948272705078125 293 150 0 0 1
309 301 0 0 0 -1
309 311 0 0 0 -1
293 311 0 0 0 -1
283 301 0 0 0 -1
309 301 150 0 0 1
309 311 150 0 0 1
293 311 150 0 0 1
283 301 150 0 0 1
283 301 0 0 0 -1
293 311 0 0 0 -1
293 353.950653076171875 0 0 0 -1
283 344.049346923828125 0 0 0 -1
283 301 150 0 0 1
293 311 150 0 0 1
293 353.950653076171875 150 0 0 1
283 344.049346923828125 150 0 0 1
672 234 0 0 0 -1
662 234 0 0 0 -1
662 214 0 0 0 -1
672 204 0 0 0 -1
672 234 150 0 0 1
662 234 150 0 0 1
662 214 150 0 0 1
672 204 150 0 0 1
264 242 0 0 0 -1
254 242 0 0 0 -1
254 230 0 0 0 -1
264 230 0 0 0 -1
264 242 150 0 0 1
254 242 150 0 0 1
254 230 150 0 0 1
264 230 150 0 0 1
599 295 0 0 0 -1
589 295 0 0 0 -1
589 274 0 0 0 -1
599 274 0 0 0 -1
599 295 150 0 0 1
589 295 150 0 0 1
589 274 150 0 0 1
599 274 150 0 0 1
277.3389892578125 161 0 0 0 -1
267.3389892578125 161 0 0 0 -1
267.3389892578125 122 0 0 0 -1
277.3389892578125 122 0 0 0 -1
277.3389892578125 161 150 0 0 1
267.3389892578125 161 150 0 0 1
267.3389892578125 122 150 0 0 1
277.3389892578125 122 150 0 0 1
484 260 0 0 0 -1
484 270 0 0 0 -1
459 270 0 0 0 -1
459 260 0 0 0 -1
484 260 150 0 0 1
484 270 150 0 0 1
459 270 150 0 0 1
459 260 150 0 0 1
292 170 0 0 0 -1
282 170 0 0 0 -1
282 160 0 0 0 -1
292 160 0 0 0 -1
292 170 150 0 0 1
282 170 150 0 0 1
282 160 150 0 0 1
292 160 150 0 0 1
261 253 0 0 0 -1
261 263 0 0 0 -1
237 263 0 0 0 -1
237 253 0 0 0 -1
261 253 150 0 0 1
261 263 150 0 0 1
237 263 150 0 0 1
237 253 150 0 0 1
373 339 0 0 0 -1
373 349 0 0 0 -1
358 349 0 0 0 -1
358 339 0 0 0 -1
373 339 150 0 0 1
373 349 150 0 0 1
358 349 150 0 0 1
358 339 150 0 0 1
218 203.538467407226562 0 0 0 -1
218 213.538467407226562 0 0 0 -1
189 213.538467407226562 0 0 0 -1
189 203.538467407226562 0 0 0 -1
218 203.538467407226562 150 0 0 1
218 213.538467407226562 150 0 0 1
189 213.538467407226562 150 0 0 1
189 203.538467407226562 150 0 0 1
599 254 0 0 0 -1
589 254 0 0 0 -1
589 238 0 0 0 -1
599 238 0 0 0 -1
599 254 150 0 0 1
589 254 150 0 0 1
589 238 150 0 0 1
599 238 150 0 0 1
364 90.3448257446289062 0 0 0 -1
364 100.344825744628906 0 0 0 -1
345 100.344825744628906 0 0 0 -1
345 90.3448257446289062 0 0 0 -1
364 90.3448257446289062 150 0 0 1
364 100.344825744628906 150 0 0 1
345 100.344825744628906 150 0 0 1
345 90.3448257446289062 150 0 0 1
356 301 0 0 0 -1
356 311 0 0 0 -1
336 311 0 0 0 -1
336 301 0 0 0 -1
356 301 150 0 0 1
356 311 150 0 0 1
336 311 150 0 0 1
336 301 150 0 0 1
438 29 0 0 0 -1
438 39 0 0 0 -1
427 39 0 0 0 -1
427 29 0 0 0 -1
438 29 150 0 0 1
438 39 150 0 0 1
427 39 150 0 0 1
427 29 150 0 0 1
464 317 0 0 0 -1
454 317 0 0 0 -1
454 305 0 0 0 -1
464 305 0 0 0 -1
464 317 150 0 0 1
454 317 150 0 0 1
454 305 150 0 0 1
464 305 150 0 0 1
672 253 0 0 0 -1
662 253 0 0 0 -1
662 239 0 0 0 -1
672 239 0 0 0 -1
672 253 150 0 0 1
662 253 150 0 0 1
662 239 150 0 0 1
672 239 150 0 0 1
299 224 0 0 0 -1
299 234 0 0 0 -1
289 234 0 0 0 -1
289 224 0 0 0 -1
299 224 150 0 0 1
299 234 150 0 0 1
289 234 150 0 0 1
289 224 150 0 0 1
283 344.049346923828125 0 0 0 -1
293 353.950653076171875 0 0 0 -1
248.049606323242188 354.396575927734375 0 0 0 -1
247.950393676757812 344.397064208984375 0 0 0 -1
283 344.049346923828125 150 0 0 1
293 353.950653076171875 150 0 0 1
248.049606323242188 354.396575927734375 150 0 0 1
247.950393676757812 344.397064208984375 150 0 0 1
286.12628173828125 262.4783935546875 0 0 0 -1
285.87371826171875 252.481597900390625 0 0 0 -1
300 252.124725341796875 0 0 0 -1
310 261.875274658203125 0 0 0 -1
286.12628173828125 262.4783935546875 150 0 0 1
285.87371826171875 252.481597900390625 150 0 0 1
300 252.124725341796875 150 0 0 1
310 261.875274658203125 150 0 0 1
310 261.875274658203125 0 0 0 -1
300 252.124725341796875 0 0 0 -1
300 245 0 0 0 -1
310 245 0 0 0 -1
310 261.875274658203125 150 0 0 1
300 252.124725341796875 150 0 0 1
300 245 150 0 0 1
310 245 150 0 0 1
641 309 0 0 0 -1
631 309.1488037109375 0 0 0 -1
635.92669677734375 299 0 0 0 -1
641 309 150 0 0 1
631 309.1488037109375 150 0 0 1
635.92669677734375 299 150 0 0 1
4 0 1 2 3
4 4 5 6 7
4 8 9 10 11
4 12 13 14 15
4 16 17 18 19
4 20 21 22 23
4 24 25 26 27
4 28 29 30 31
4 32 33 34 35
4 36 37 38 39
4 40 41 42 43
4 44 45 46 47
4 48 49 50 51
4 52 53 54 55
4 56 57 58 59
4 60 61 62 63
4 64 65 66 67
4 68 69 70 71
4 72 73 74 75
4 76 77 78 79
4 80 81 82 83
4 84 85 86 87
4 88 89 90 91
4 92 93 94 95
4 96 97 98 99
4 100 101 102 103
4 104 105 106 107
4 108 109 110 111
4 112 113 114 115
4 116 117 118 119
4 120 121 122 123
4 124 125 126 127
4 128 129 130 131
4 132 133 134 135
4 136 137 138 139
4 140 141 142 143
4 144 145 146 147
4 148 149 150 151
4 152 153 154 155
4 156 157 158 159
4 160 161 162 163
4 164 165 166 167
4 168 169 170 171
4 172 173 174 175
4 176 177 178 179
4 180 181 182 183
4 184 185 186 187
4 188 189 190 191
4 192 193 194 195
4 196 197 198 199
4 200 201 202 203
4 204 205 206 207
4 208 209 210 211
4 212 213 214 215
4 216 217 218 219
4 220 221 222 223
4 224 225 226 227
4 228 229 230 231
4 232 233 234 235
4 236 237 238 239
4 240 241 242 243
4 244 245 246 247
4 248 249 250 251
4 252 253 254 255
4 256 257 258 259
4 260 261 262 263
4 264 265 266 267
4 268 269 270 271
4 272 273 274 275
4 276 277 278 279
4 280 281 282 283
4 284 285 286 287
4 288 289 290 291
4 292 293 294 295
4 296 297 298 299
4 300 301 302 303
4 304 305 306 307
4 308 309 310 311
4 312 313 314 315
4 316 317 318 319
4 320 321 322 323
4 324 325 326 327
4 328 329 330 331
4 332 333 334 335
4 336 337 338 339
4 340 341 342 343
4 344 345 346 347
4 348 349 350 351
4 352 353 354 355
4 356 357 358 359
4 360 361 362 363
4 364 365 366 367
4 368 369 370 371
4 372 373 374 375
4 376 377 378 379
4 380 381 382 383
4 384 385 386 387
4 388 389 390 391
4 392 393 394 395
4 396 397 398 399
4 400 401 402 403
4 404 405 406 407
4 408 409 410 411
4 412 413 414 415
4 416 417 418 419
4 420 421 422 423
4 424 425 426 427
4 428 429 430 431
4 432 433 434 435
4 436 437 438 439
4 440 441 442 443
4 444 445 446 447
4 448 449 450 451
4 452 453 454 455
4 456 457 458 459
4 460 461 462 463
4 464 465 466 467
4 468 469 470 471
4 472 473 474 475
4 476 477 478 479
4 480 481 482 483
4 484 485 486 487
4 488 489 490 491
4 492 493 494 495
4 496 497 498 499
4 500 501 502 503
4 504 505 506 507
4 508 509 510 511
4 512 513 514 515
4 516 517 518 519
4 520 521 522 523
4 524 525 526 527
4 528 529 530 531
4 532 533 534 535
4 536 537 538 539
4 540 541 542 543
4 544 545 546 547
4 548 549 550 551
4 552 553 554 555
4 556 557 558 559
4 560 561 562 563
4 564 565 566 567
4 568 569 570 571
4 572 573 574 575
4 576 577 578 579
4 580 581 582 583
4 584 585 586 587
4 588 589 590 591
4 592 593 594 595
4 596 597 598 599
4 600 601 602 603
4 604 605 606 607
4 608 609 610 611
4 612 613 614 615
4 616 617 618 619
4 620 621 622 623
4 624 625 626 627
4 628 629 630 631
4 632 633 634 635
4 636 637 638 639
4 640 641 642 643
4 644 645 646 647
4 648 649 650 651
4 652 653 654 655
4 656 657 658 659
4 660 661 662 663
4 664 665 666 667
4 668 669 670 671
4 672 673 674 675
4 676 677 678 679
4 680 681 682 683
4 684 685 686 687
4 688 689 690 691
4 692 693 694 695
4 696 697 698 699
4 700 701 702 703
4 704 705 706 707
4 708 709 710 711
4 712 713 714 715
4 716 717 718 719
4 720 721 722 723
4 724 725 726 727
4 728 729 730 731
4 732 733 734 735
4 736 737 738 739
4 740 741 742 743
4 744 745 746 747
4 748 749 750 751
4 752 753 754 755
4 756 757 758 759
4 760 761 762 763
4 764 765 766 767
4 768 769 770 771
4 772 773 774 775
4 776 777 778 779
4 780 781 782 783
4 784 785 786 787
4 788 789 790 791
4 792 793 794 795
4 796 797 798 799
4 800 801 802 803
4 804 805 806 807
4 808 809 810 811
4 812 813 814 815
4 816 817 818 819
4 820 821 822 823
4 824 825 826 827
4 828 829 830 831
4 832 833 834 835
4 836 837 838 839
4 840 841 842 843
4 844 845 846 847
4 848 849 850 851
4 852 853 854 855
4 856 857 858 859
4 860 861 862 863
4 864 865 866 867
4 868 869 870 871
4 872 873 874 875
4 876 877 878 879
4 880 881 882 883
4 884 885 886 887
4 888 889 890 891
4 892 893 894 895
4 896 897 898 899
4 900 901 902 903
4 904 905 906 907
4 908 909 910 911
4 912 913 914 915
4 916 917 918 919
4 920 921 922 923
4 924 925 926 927
4 928 929 930 931
4 932 933 934 935
4 936 937 938 939
4 940 941 942 943
4 944 945 946 947
4 948 949 950 951
4 952 953 954 955
4 956 957 958 959
4 960 961 962 963
4 964 965 966 967
4 968 969 970 971
4 972 973 974 975
4 976 977 978 979
4 980 981 982 983
4 984 985 986 987
4 988 989 990 991
4 992 993 994 995
4 996 997 998 999
4 1000 1001 1002 1003
4 1004 1005 1006 1007
4 1008 1009 1010 1011
4 1012 1013 1014 1015
4 1016 1017 1018 1019
4 1020 1021 1022 1023
4 1024 1025 1026 1027
4 1028 1029 1030 1031
4 1032 1033 1034 1035
4 1036 1037 1038 1039
4 1040 1041 1042 1043
4 1044 1045 1046 1047
4 1048 1049 1050 1051
4 1052 1053 1054 1055
4 1056 1057 1058 1059
4 1060 1061 1062 1063
4 1064 1065 1066 1067
4 1068 1069 1070 1071
4 1072 1073 1074 1075
4 1076 1077 1078 1079
4 1080 1081 1082 1083
4 1084 1085 1086 1087
4 1088 1089 1090 1091
4 1092 1093 1094 1095
4 1096 1097 1098 1099
4 1100 1101 1102 1103
4 1104 1105 1106 1107
4 1108 1109 1110 1111
4 1112 1113 1114 1115
4 1116 1117 1118 1119
4 1120 1121 1122 1123
4 1124 1125 1126 1127
4 1128 1129 1130 1131
4 1132 1133 1134 1135
4 1136 1137 1138 1139
4 1140 1141 1142 1143
4 1144 1145 1146 1147
4 1148 1149 1150 1151
4 1152 1153 1154 1155
4 1156 1157 1158 1159
4 1160 1161 1162 1163
4 1164 1165 1166 1167
4 1168 1169 1170 1171
4 1172 1173 1174 1175
4 1176 1177 1178 1179
4 1180 1181 1182 1183
4 1184 1185 1186 1187
3 1188 1189 1190
3 1191 1192 1193
