ply
format ascii 1.0
element vertex 808
property float x
property float y
property float z
property float nx
property float ny
property float nz
element quads 202
property list uchar int vertex_indices
end_header
604 15 0 -0 -1 0
69 15 0 -0 -1 0
69 15 150 -0 -1 0
604 15 150 -0 -1 0
604 25 0 0 1 0
79 25 0 0 1 0
79 25 150 0 1 0
604 25 150 0 1 0
69 15 0 -1 0 0
69 543 0 -1 0 0
69 543 150 -1 0 0
69 15 150 -1 0 0
79 25 0 1 -0 0
79 533 0 1 -0 0
79 533 150 1 -0 0
79 25 150 1 -0 0
769 328 0 1 0 0
769 20 0 1 0 0
769 20 150 1 0 0
769 328 150 1 0 0
759 328 0 -1 -0 0
759 20 0 -1 -0 0
759 20 150 -1 -0 0
759 328 150 -1 -0 0
69 543 0 -0 1 0
393 543 0 -0 1 0
393 543 150 -0 1 0
69 543 150 -0 1 0
79 533 0 0 -1 0
393 533 0 0 -1 0
393 533 150 0 -1 0
79 533 150 0 -1 0
769.75714111328125 475 0 1 0 0
769.75714111328125 321 0 1 0 0
769.75714111328125 321 150 1 0 0
769.75714111328125 475 150 1 0 0
759.75714111328125 475 0 -1 -0 0
759.75714111328125 321 0 -1 -0 0
759.75714111328125 321 150 -1 -0 0
759.75714111328125 475 150 -1 -0 0
317.224029541015625 262 0 1 0 0
317.224029541015625 22 0 1 0 0
317.224029541015625 22 150 1 0 0
317.224029541015625 262 150 1 0 0
307.224029541015625 262 0 -1 -0 0
307.224029541015625 22 0 -1 -0 0
307.224029541015625 22 150 -1 -0 0
307.224029541015625 262 150 -1 -0 0
361 535 0 1 0 0
361 361 0 1 0 0
361 361 150 1 0 0
361 535 150 1 0 0
351 535 0 -1 -0 0
351 361 0 -1 -0 0
351 361 150 -1 -0 0
351 535 150 -1 -0 0
247 152.693328857421875 0 -0 -1 0
76 152.693328857421875 0 -0 -1 0
76 152.693328857421875 150 -0 -1 0
247 152.693328857421875 150 -0 -1 0
247 162.693328857421875 0 0 1 0
76 162.693328857421875 0 0 1 0
76 162.693328857421875 150 0 1 0
247 162.693328857421875 150 0 1 0
764 14.9876327514648438 0 -0 -1 0
646 14.9876327514648438 0 -0 -1 0
646 14.9876327514648438 150 -0 -1 0
764 14.9876327514648438 150 -0 -1 0
764 24.9876327514648438 0 0 1 0
646 24.9876327514648438 0 0 1 0
646 24.9876327514648438 150 0 1 0
764 24.9876327514648438 150 0 1 0
184 262.52099609375 0 -0 -1 0
77 262.52099609375 0 -0 -1 0
77 262.52099609375 150 -0 -1 0
184 262.52099609375 150 -0 -1 0
184 272.52099609375 0 0 1 0
77 272.52099609375 0 0 1 0
77 272.52099609375 150 0 1 0
184 272.52099609375 150 0 1 0
761 245 0 -0 -1 0
722 245 0 -0 -1 0
722 245 150 -0 -1 0
761 245 150 -0 -1 0
761 255 0 0 1 0
722 255 0 0 1 0
722 255 150 0 1 0
761 255 150 0 1 0
351 244.626815795898438 0 -0 -1 0
315 244.626815795898438 0 -0 -1 0
315 244.626815795898438 150 -0 -1 0
351 244.626815795898438 150 -0 -1 0
351 254.626815795898438 0 0 1 0
315 254.626815795898438 0 0 1 0
315 254.626815795898438 150 0 1 0
351 254.626815795898438 150 0 1 0
647 51 0 -0 -1 0
603 51 0 -0 -1 0
603 51 150 -0 -1 0
647 51 150 -0 -1 0
647 61 0 0 1 0
593 61 0 0 1 0
593 61 150 0 1 0
647 61 150 0 1 0
603 51 0 1 0 0
603 35 0 1 0 0
603 35 150 1 0 0
603 51 150 1 0 0
593 61 0 -1 -0 0
593 35 0 -1 -0 0
593 35 150 -1 -0 0
593 61 150 -1 -0 0
550.62713623046875 177 0 1 0 0
550.62713623046875 154 0 1 0 0
550.62713623046875 154 150 1 0 0
550.62713623046875 177 150 1 0 0
540.62713623046875 177 0 -1 -0 0
540.62713623046875 154 0 -1 -0 0
540.62713623046875 154 150 -1 -0 0
540.62713623046875 177 150 -1 -0 0
356 355.503875732421875 0 -0 -1 0
274 355.503875732421875 0 -0 -1 0
274 355.503875732421875 150 -0 -1 0
356 355.503875732421875 150 -0 -1 0
356 365.503875732421875 0 0 1 0
274 365.503875732421875 0 0 1 0
274 365.503875732421875 150 0 1 0
356 365.503875732421875 150 0 1 0
170.173416137695312 61 0 1 0 0
170.173416137695312 23 0 1 0 0
170.173416137695312 23 150 1 0 0
170.173416137695312 61 150 1 0 0
160.173416137695312 61 0 -1 -0 0
160.173416137695312 23 0 -1 -0 0
160.173416137695312 23 150 -1 -0 0
160.173416137695312 61 150 -1 -0 0
252 206.0745849609375 0 1 0 0
252 158 0 1 0 0
252 158 150 1 0 0
252 206.0745849609375 150 1 0 0
242 201.9254150390625 0 -1 -0 0
242 158 0 -1 -0 0
242 158 150 -1 -0 0
242 201.9254150390625 150 -1 -0 0
242 201.9254150390625 0 -0.706256389617919922 -0.707956135272979736 0
230.453094482421875 213.444595336914062 0 -0.706256389617919922 -0.707956135272979736 0
230.453094482421875 213.444595336914062 150 -0.706256389617919922 -0.707956135272979736 0
242 201.9254150390625 150 -0.706256389617919922 -0.707956135272979736 0
252 206.0745849609375 0 0.706256389617919922 0.707956135272979736 0
237.515655517578125 220.524154663085938 0 0.706256389617919922 0.707956135272979736 0
237.515655517578125 220.524154663085938 150 0.706256389617919922 0.707956135272979736 0
252 206.0745849609375 150 0.706256389617919922 0.707956135272979736 0
522.5 65 0 1 0 0
522.5 23 0 1 0 0
522.5 23 150 1 0 0
522.5 65 150 1 0 0
512.5 65 0 -1 -0 0
512.5 23 0 -1 -0 0
512.5 23 150 -1 -0 0
512.5 65 150 -1 -0 0
538.2750244140625 194 0 1 0 0
538.2750244140625 170 0 1 0 0
538.2750244140625 170 150 1 0 0
538.2750244140625 194 150 1 0 0
528.2750244140625 194 0 -1 -0 0
528.2750244140625 170 0 -1 -0 0
528.2750244140625 170 150 -1 -0 0
528.2750244140625 194 150 -1 -0 0
729 203 0 1 0 0
729 197 0 1 0 0
729 197 150 1 0 0
729 203 150 1 0 0
719 203 0 -1 -0 0
719 187 0 -1 -0 0
719 187 150 -1 -0 0
719 203 150 -1 -0 0
729 197 0 -0 1 0
761 197 0 -0 1 0
761 197 150 -0 1 0
729 197 150 -0 1 0
719 187 0 0 -1 0
761 187 0 0 -1 0
761 187 150 0 -1 0
719 187 150 0 -1 0
223.99310302734375 155 0 1 0 0
223.99310302734375 124 0 1 0 0
223.99310302734375 124 150 1 0 0
223.99310302734375 155 150 1 0 0
213.99310302734375 155 0 -1 -0 0
213.99310302734375 124 0 -1 -0 0
213.99310302734375 124 150 -1 -0 0
213.99310302734375 155 150 -1 -0 0
259.49005126953125 61 0 1 0 0
259.49005126953125 23 0 1 0 0
259.49005126953125 23 150 1 0 0
259.49005126953125 61 150 1 0 0
249.490066528320312 61 0 -1 -0 0
249.490066528320312 23 0 -1 -0 0
249.490066528320312 23 150 -1 -0 0
249.490066528320312 61 150 -1 -0 0
179.512191772460938 155 0 1 0 0
179.512191772460938 124 0 1 0 0
179.512191772460938 124 150 1 0 0
179.512191772460938 155 150 1 0 0
169.512191772460938 155 0 -1 -0 0
169.512191772460938 124 0 -1 -0 0
169.512191772460938 124 150 -1 -0 0
169.512191772460938 155 150 -1 -0 0
561.4857177734375 192 0 1 0 0
561.4857177734375 156 0 1 0 0
561.4857177734375 156 150 1 0 0
561.4857177734375 192 150 1 0 0
551.4857177734375 192 0 -1 -0 0
551.4857177734375 156 0 -1 -0 0
551.4857177734375 156 150 -1 -0 0
551.4857177734375 192 150 -1 -0 0
729.45452880859375 177 0 1 0 0
729.45452880859375 165 0 1 0 0
729.45452880859375 165 150 1 0 0
729.45452880859375 177 150 1 0 0
719.45452880859375 177 0 -1 -0 0
719.45452880859375 165 0 -1 -0 0
719.45452880859375 165 150 -1 -0 0
719.45452880859375 177 150 -1 -0 0
631 21.9369373321533203 0 -0 -1 0
612 21.9369373321533203 0 -0 -1 0
612 21.9369373321533203 150 -0 -1 0
631 21.9369373321533203 150 -0 -1 0
631 31.9369373321533203 0 0 1 0
612 31.9369373321533203 0 0 1 0
612 31.9369373321533203 150 0 1 0
631 31.9369373321533203 150 0 1 0
164 264 0 1 0 0
164 252 0 1 0 0
164 252 150 1 0 0
164 264 150 1 0 0
154 264 0 -1 -0 0
154 252 0 -1 -0 0
154 252 150 -1 -0 0
154 264 150 -1 -0 0
304 360 0 -0 -1 0
283 360 0 -0 -1 0
283 360 150 -0 -1 0
304 360 150 -0 -1 0
304 370 0 0 1 0
283 370 0 0 1 0
283 370 150 0 1 0
304 370 150 0 1 0
187.59735107421875 271.472625732421875 0 0.719469845294952393 0.69452369213104248 0
201.841537475585938 256.716796875 0 0.719469845294952393 0.69452369213104248 0
201.841537475585938 256.716796875 150 0.719469845294952393 0.69452369213104248 0
187.59735107421875 271.472625732421875 150 0.719469845294952393 0.69452369213104248 0
180.40264892578125 264.527374267578125 0 -0.719469845294952393 -0.69452369213104248 0
194.646835327148438 249.771560668945312 0 -0.719469845294952393 -0.69452369213104248 0
194.646835327148438 249.771560668945312 150 -0.719469845294952393 -0.69452369213104248 0
180.40264892578125 264.527374267578125 150 -0.719469845294952393 -0.69452369213104248 0
446.00213623046875 543.13604736328125 0 0.000426416692789644003 0.999999880790710449 0
769.95794677734375 542.99786376953125 0 0.000426416692789644003 0.999999880790710449 0
769.95794677734375 542.99786376953125 150 0.000426416692789644003 0.999999880790710449 0
446.00213623046875 543.13604736328125 150 0.000426416692789644003 0.999999880790710449 0
445.99786376953125 533.13604736328125 0 -0.000426416692789644003 -0.999999880790710449 0
760.04205322265625 533.00213623046875 0 -0.000426416692789644003 -0.999999880790710449 0
760.04205322265625 533.00213623046875 150 -0.000426416692789644003 -0.999999880790710449 0
445.99786376953125 533.13604736328125 150 -0.000426416692789644003 -0.999999880790710449 0
769.95794677734375 542.99786376953125 0 0.999964356422424316 0.00844615418463945389 0
770.43060302734375 487.042236328125 0 0.999964356422424316 0.00844615418463945389 0
770.43060302734375 487.042236328125 150 0.999964356422424316 0.00844615418463945389 0
769.95794677734375 542.99786376953125 150 0.999964356422424316 0.00844615418463945389 0
760.04205322265625 533.00213623046875 0 -0.999964356422424316 -0.00844615418463945389 0
760.43096923828125 486.957763671875 0 -0.999964356422424316 -0.00844615418463945389 0
760.43096923828125 486.957763671875 150 -0.999964356422424316 -0.00844615418463945389 0
760.04205322265625 533.00213623046875 150 -0.999964356422424316 -0.00844615418463945389 0
512.50006103515625 118.980766296386719 0 -0.999992609024047852 -0.00384612544439733028 0
512.01885986328125 244.079132080078125 0 -0.999992609024047852 -0.00384612544439733028 0
512.01885986328125 244.079132080078125 150 -0.999992609024047852 -0.00384612544439733028 0
512.50006103515625 118.980766296386719 150 -0.999992609024047852 -0.00384612544439733028 0
522.49993896484375 119.019233703613281 0 0.999992609024047852 0.00384612544439733028 0
521.98114013671875 253.920867919921875 0 0.999992609024047852 0.00384612544439733028 0
521.98114013671875 253.920867919921875 150 0.999992609024047852 0.00384612544439733028 0
522.49993896484375 119.019233703613281 150 0.999992609024047852 0.00384612544439733028 0
512.01885986328125 244.079132080078125 0 -0.0160117428749799728 -0.999871790409088135 0
483.919952392578125 244.529098510742188 0 -0.0160117428749799728 -0.999871790409088135 0
483.919952392578125 244.529098510742188 150 -0.0160117428749799728 -0.999871790409088135 0
512.01885986328125 244.079132080078125 150 -0.0160117428749799728 -0.999871790409088135 0
521.98114013671875 253.920867919921875 0 0.0160117428749799728 0.999871790409088135 0
484.080047607421875 254.527816772460938 0 0.0160117428749799728 0.999871790409088135 0
484.080047607421875 254.527816772460938 150 0.0160117428749799728 0.999871790409088135 0
521.98114013671875 253.920867919921875 150 0.0160117428749799728 0.999871790409088135 0
604 15 0 603.87103271484375 14.9719629287719727 0
604 25 0 603.87103271484375 14.9719629287719727 0
604 25 150 603.87103271484375 14.9719629287719727 0
604 15 150 603.87103271484375 14.9719629287719727 0
769 328 0 766.50323486328125 327.93505859375 0
759 328 0 766.50323486328125 327.93505859375 0
759 328 150 766.50323486328125 327.93505859375 0
769 328 150 766.50323486328125 327.93505859375 0
769 20 0 766.50323486328125 18.9350643157958984 0
759 20 0 766.50323486328125 18.9350643157958984 0
759 20 150 766.50323486328125 18.9350643157958984 0
769 20 150 766.50323486328125 18.9350643157958984 0
769.75714111328125 475 0 764.75872802734375 472.91558837890625 0
759.75714111328125 475 0 764.75872802734375 472.91558837890625 0
759.75714111328125 475 150 764.75872802734375 472.91558837890625 0
769.75714111328125 475 150 764.75872802734375 472.91558837890625 0
769.75714111328125 321 0 764.75872802734375 317.91558837890625 0
759.75714111328125 321 0 764.75872802734375 317.91558837890625 0
759.75714111328125 321 150 764.75872802734375 317.91558837890625 0
769.75714111328125 321 150 764.75872802734375 317.91558837890625 0
393 543 0 392.78704833984375 541.3240966796875 0
393 533 0 392.78704833984375 541.3240966796875 0
393 533 150 392.78704833984375 541.3240966796875 0
393 543 150 392.78704833984375 541.3240966796875 0
317.224029541015625 262 0 315.902252197265625 261.9083251953125 0
307.224029541015625 262 0 315.902252197265625 261.9083251953125 0
307.224029541015625 262 150 315.902252197265625 261.9083251953125 0
317.224029541015625 262 150 315.902252197265625 261.9083251953125 0
317.224029541015625 22 0 315.902252197265625 20.9083328247070312 0
307.224029541015625 22 0 315.902252197265625 20.9083328247070312 0
307.224029541015625 22 150 315.902252197265625 20.9083328247070312 0
317.224029541015625 22 150 315.902252197265625 20.9083328247070312 0
361 535 0 358.92529296875 532.92529296875 0
351 535 0 358.92529296875 532.92529296875 0
351 535 150 358.92529296875 532.92529296875 0
361 535 150 358.92529296875 532.92529296875 0
361 361 0 358.92529296875 357.92529296875 0
351 361 0 358.92529296875 357.92529296875 0
351 361 150 358.92529296875 357.92529296875 0
361 361 150 358.92529296875 357.92529296875 0
247 152.693328857421875 0 246.555557250976562 151.800384521484375 0
247 162.693328857421875 0 246.555557250976562 151.800384521484375 0
247 162.693328857421875 150 246.555557250976562 151.800384521484375 0
247 152.693328857421875 150 246.555557250976562 151.800384521484375 0
76 152.693328857421875 0 74.5555572509765625 151.800384521484375 0
76 162.693328857421875 0 74.5555572509765625 151.800384521484375 0
76 162.693328857421875 150 74.5555572509765625 151.800384521484375 0
76 152.693328857421875 150 74.5555572509765625 151.800384521484375 0
764 14.9876327514648438 0 758.52545166015625 14.8606185913085938 0
764 24.9876327514648438 0 758.52545166015625 14.8606185913085938 0
764 24.9876327514648438 150 758.52545166015625 14.8606185913085938 0
764 14.9876327514648438 150 758.52545166015625 14.8606185913085938 0
646 14.9876327514648438 0 639.52545166015625 14.8606185913085938 0
646 24.9876327514648438 0 639.52545166015625 14.8606185913085938 0
646 24.9876327514648438 150 639.52545166015625 14.8606185913085938 0
646 14.9876327514648438 150 639.52545166015625 14.8606185913085938 0
184 262.52099609375 0 183.280380249023438 260.067535400390625 0
184 272.52099609375 0 183.280380249023438 260.067535400390625 0
184 272.52099609375 150 183.280380249023438 260.067535400390625 0
184 262.52099609375 150 183.280380249023438 260.067535400390625 0
77 262.52099609375 0 75.2803726196289062 260.067535400390625 0
77 272.52099609375 0 75.2803726196289062 260.067535400390625 0
77 272.52099609375 150 75.2803726196289062 260.067535400390625 0
77 262.52099609375 150 75.2803726196289062 260.067535400390625 0
761 245 0 742.4871826171875 238.717941284179688 0
761 255 0 742.4871826171875 238.717941284179688 0
761 255 150 742.4871826171875 238.717941284179688 0
761 245 150 742.4871826171875 238.717941284179688 0
722 245 0 702.4871826171875 238.717941284179688 0
722 255 0 702.4871826171875 238.717941284179688 0
722 255 150 702.4871826171875 238.717941284179688 0
722 245 150 702.4871826171875 238.717941284179688 0
351 244.626815795898438 0 342.25 237.831619262695312 0
351 254.626815795898438 0 342.25 237.831619262695312 0
351 254.626815795898438 150 342.25 237.831619262695312 0
351 244.626815795898438 150 342.25 237.831619262695312 0
315 244.626815795898438 0 305.25 237.831619262695312 0
315 254.626815795898438 0 305.25 237.831619262695312 0
315 254.626815795898438 150 305.25 237.831619262695312 0
315 244.626815795898438 150 305.25 237.831619262695312 0
647 51 0 633.29547119140625 49.8409080505371094 0
647 61 0 633.29547119140625 49.8409080505371094 0
647 61 150 633.29547119140625 49.8409080505371094 0
647 51 150 633.29547119140625 49.8409080505371094 0
550.62713623046875 177 0 526.68682861328125 170.304351806640625 0
540.62713623046875 177 0 526.68682861328125 170.304351806640625 0
540.62713623046875 177 150 526.68682861328125 170.304351806640625 0
550.62713623046875 177 150 526.68682861328125 170.304351806640625 0
550.62713623046875 154 0 526.68682861328125 146.304351806640625 0
540.62713623046875 154 0 526.68682861328125 146.304351806640625 0
540.62713623046875 154 150 526.68682861328125 146.304351806640625 0
550.62713623046875 154 150 526.68682861328125 146.304351806640625 0
356 355.503875732421875 0 352.658538818359375 351.16845703125 0
356 365.503875732421875 0 352.658538818359375 351.16845703125 0
356 365.503875732421875 150 352.658538818359375 351.16845703125 0
356 355.503875732421875 150 352.658538818359375 351.16845703125 0
274 355.503875732421875 0 269.658538818359375 351.16845703125 0
274 365.503875732421875 0 269.658538818359375 351.16845703125 0
274 365.503875732421875 150 269.658538818359375 351.16845703125 0
274 355.503875732421875 150 269.658538818359375 351.16845703125 0
170.173416137695312 61 0 165.695159912109375 60.3947372436523438 0
160.173416137695312 61 0 165.695159912109375 60.3947372436523438 0
160.173416137695312 61 150 165.695159912109375 60.3947372436523438 0
170.173416137695312 61 150 165.695159912109375 60.3947372436523438 0
170.173416137695312 23 0 165.695159912109375 21.3947372436523438 0
160.173416137695312 23 0 165.695159912109375 21.3947372436523438 0
160.173416137695312 23 150 165.695159912109375 21.3947372436523438 0
170.173416137695312 23 150 165.695159912109375 21.3947372436523438 0
252 158 0 246.758148193359375 153.71343994140625 0
242 158 0 246.758148193359375 153.71343994140625 0
242 158 150 246.758148193359375 153.71343994140625 0
252 158 150 246.758148193359375 153.71343994140625 0
522.5 65 0 510.05950927734375 64.4523773193359375 0
512.5 65 0 510.05950927734375 64.4523773193359375 0
512.5 65 150 510.05950927734375 64.4523773193359375 0
522.5 65 150 510.05950927734375 64.4523773193359375 0
522.5 23 0 510.05950927734375 21.4523811340332031 0
512.5 23 0 510.05950927734375 21.4523811340332031 0
512.5 23 150 510.05950927734375 21.4523811340332031 0
522.5 23 150 510.05950927734375 21.4523811340332031 0
538.2750244140625 194 0 515.84686279296875 186.916671752929688 0
528.2750244140625 194 0 515.84686279296875 186.916671752929688 0
528.2750244140625 194 150 515.84686279296875 186.916671752929688 0
538.2750244140625 194 150 515.84686279296875 186.916671752929688 0
538.2750244140625 170 0 515.84686279296875 161.916671752929688 0
528.2750244140625 170 0 515.84686279296875 161.916671752929688 0
528.2750244140625 170 150 515.84686279296875 161.916671752929688 0
538.2750244140625 170 150 515.84686279296875 161.916671752929688 0
729 203 0 607.5 170.166671752929688 0
719 203 0 607.5 170.166671752929688 0
719 203 150 607.5 170.166671752929688 0
729 203 150 607.5 170.166671752929688 0
223.99310302734375 155 0 216.76751708984375 151 0
213.99310302734375 155 0 216.76751708984375 151 0
213.99310302734375 155 150 216.76751708984375 151 0
223.99310302734375 155 150 216.76751708984375 151 0
223.99310302734375 124 0 216.76751708984375 119 0
213.99310302734375 124 0 216.76751708984375 119 0
213.99310302734375 124 150 216.76751708984375 119 0
223.99310302734375 124 150 216.76751708984375 119 0
259.49005126953125 61 0 252.661376953125 60.3947372436523438 0
249.490066528320312 61 0 252.661376953125 60.3947372436523438 0
249.490066528320312 61 150 252.661376953125 60.3947372436523438 0
259.49005126953125 61 150 252.661376953125 60.3947372436523438 0
259.49005126953125 23 0 252.661376953125 21.3947372436523438 0
249.490066528320312 23 0 252.661376953125 21.3947372436523438 0
249.490066528320312 23 150 252.661376953125 21.3947372436523438 0
259.49005126953125 23 150 252.661376953125 21.3947372436523438 0
179.512191772460938 155 0 173.721481323242188 151 0
169.512191772460938 155 0 173.721481323242188 151 0
169.512191772460938 155 150 173.721481323242188 151 0
179.512191772460938 155 150 173.721481323242188 151 0
179.512191772460938 124 0 173.721481323242188 119 0
169.512191772460938 124 0 173.721481323242188 119 0
169.512191772460938 124 150 173.721481323242188 119 0
179.512191772460938 124 150 173.721481323242188 119 0
761 197 0 738.21875 190.84375 0
761 187 0 738.21875 190.84375 0
761 187 150 738.21875 190.84375 0
761 197 150 738.21875 190.84375 0
561.4857177734375 192 0 545.888916015625 187.666671752929688 0
551.4857177734375 192 0 545.888916015625 187.666671752929688 0
551.4857177734375 192 150 545.888916015625 187.666671752929688 0
561.4857177734375 192 150 545.888916015625 187.666671752929688 0
561.4857177734375 156 0 545.888916015625 150.666671752929688 0
551.4857177734375 156 0 545.888916015625 150.666671752929688 0
551.4857177734375 156 150 545.888916015625 150.666671752929688 0
561.4857177734375 156 150 545.888916015625 150.666671752929688 0
729.45452880859375 177 0 668.66668701171875 163.25 0
719.45452880859375 177 0 668.66668701171875 163.25 0
719.45452880859375 177 150 668.66668701171875 163.25 0
729.45452880859375 177 150 668.66668701171875 163.25 0
729.45452880859375 165 0 668.66668701171875 150.25 0
719.45452880859375 165 0 668.66668701171875 150.25 0
719.45452880859375 165 150 668.66668701171875 150.25 0
729.45452880859375 165 150 668.66668701171875 150.25 0
631 21.9369373321533203 0 598.78948974609375 20.7823619842529297 0
631 31.9369373321533203 0 598.78948974609375 20.7823619842529297 0
631 31.9369373321533203 150 598.78948974609375 20.7823619842529297 0
631 21.9369373321533203 150 598.78948974609375 20.7823619842529297 0
612 21.9369373321533203 0 578.78948974609375 20.7823619842529297 0
612 31.9369373321533203 0 578.78948974609375 20.7823619842529297 0
612 31.9369373321533203 150 578.78948974609375 20.7823619842529297 0
612 21.9369373321533203 150 578.78948974609375 20.7823619842529297 0
164 264 0 150.333328247070312 243 0
154 264 0 150.333328247070312 243 0
154 264 150 150.333328247070312 243 0
164 264 150 150.333328247070312 243 0
164 252 0 150.333328247070312 230 0
154 252 0 150.333328247070312 230 0
154 252 150 150.333328247070312 230 0
164 252 150 150.333328247070312 230 0
304 360 0 290.5238037109375 342.857147216796875 0
304 370 0 290.5238037109375 342.857147216796875 0
304 370 150 290.5238037109375 342.857147216796875 0
304 360 150 290.5238037109375 342.857147216796875 0
283 360 0 268.5238037109375 342.857147216796875 0
283 370 0 268.5238037109375 342.857147216796875 0
283 370 150 268.5238037109375 342.857147216796875 0
283 360 150 268.5238037109375 342.857147216796875 0
230.453094482421875 213.444595336914062 0 215.615753173828125 201.064285278320312 0
237.515655517578125 220.524154663085938 0 215.615753173828125 201.064285278320312 0
237.515655517578125 220.524154663085938 150 215.615753173828125 201.064285278320312 0
230.453094482421875 213.444595336914062 150 215.615753173828125 201.064285278320312 0
187.59735107421875 271.472625732421875 0 177.755874633789062 258.95550537109375 0
180.40264892578125 264.527374267578125 0 177.755874633789062 258.95550537109375 0
180.40264892578125 264.527374267578125 150 177.755874633789062 258.95550537109375 0
187.59735107421875 271.472625732421875 150 177.755874633789062 258.95550537109375 0
201.841537475585938 256.716796875 0 192.694595336914062 243.480239868164062 0
194.646835327148438 249.771560668945312 0 192.694595336914062 243.480239868164062 0
194.646835327148438 249.771560668945312 150 192.694595336914062 243.480239868164062 0
201.841537475585938 256.716796875 150 192.694595336914062 243.480239868164062 0
603 35 0 565.3125 31.8125 0
593 35 0 565.3125 31.8125 0
593 35 150 565.3125 31.8125 0
603 35 150 565.3125 31.8125 0
446.00213623046875 543.13604736328125 0 443.625396728515625 541.45989990234375 0
445.99786376953125 533.13604736328125 0 443.625396728515625 541.45989990234375 0
445.99786376953125 533.13604736328125 150 443.625396728515625 541.45989990234375 0
446.00213623046875 543.13604736328125 150 443.625396728515625 541.45989990234375 0
770.43060302734375 487.042236328125 0 756.67095947265625 477.3385009765625 0
760.43096923828125 486.957763671875 0 756.67095947265625 477.3385009765625 0
760.43096923828125 486.957763671875 150 756.67095947265625 477.3385009765625 0
770.43060302734375 487.042236328125 150 756.67095947265625 477.3385009765625 0
512.50006103515625 118.980766296386719 0 508.407135009765625 117.029685974121094 0
522.49993896484375 119.019233703613281 0 508.407135009765625 117.029685974121094 0
522.49993896484375 119.019233703613281 150 508.407135009765625 117.029685974121094 0
512.50006103515625 118.980766296386719 150 508.407135009765625 117.029685974121094 0
483.919952392578125 244.529098510742188 0 465.700286865234375 235.843795776367188 0
484.080047607421875 254.527816772460938 0 465.700286865234375 235.843795776367188 0
484.080047607421875 254.527816772460938 150 465.700286865234375 235.843795776367188 0
483.919952392578125 244.529098510742188 150 465.700286865234375 235.843795776367188 0
604 15 0 0 0 -1
604 25 0 0 0 -1
79 25 0 0 0 -1
69 15 0 0 0 -1
604 15 150 0 0 1
604 25 150 0 0 1
79 25 150 0 0 1
69 15 150 0 0 1
69 15 0 0 0 -1
79 25 0 0 0 -1
79 533 0 0 0 -1
69 543 0 0 0 -1
69 15 150 0 0 1
79 25 150 0 0 1
79 533 150 0 0 1
69 543 150 0 0 1
769 328 0 0 0 -1
759 328 0 0 0 -1
759 20 0 0 0 -1
769 20 0 0 0 -1
769 328 150 0 0 1
759 328 150 0 0 1
759 20 150 0 0 1
769 20 150 0 0 1
69 543 0 0 0 -1
79 533 0 0 0 -1
393 533 0 0 0 -1
393 543 0 0 0 -1
69 543 150 0 0 1
79 533 150 0 0 1
393 533 150 0 0 1
393 543 150 0 0 1
769.75714111328125 475 0 0 0 -1
759.75714111328125 475 0 0 0 -1
759.75714111328125 321 0 0 0 -1
769.75714111328125 321 0 0 0 -1
769.75714111328125 475 150 0 0 1
759.75714111328125 475 150 0 0 1
759.75714111328125 321 150 0 0 1
769.75714111328125 321 150 0 0 1
317.224029541015625 262 0 0 0 -1
307.224029541015625 262 0 0 0 -1
307.224029541015625 22 0 0 0 -1
317.224029541015625 22 0 0 0 -1
317.224029541015625 262 150 0 0 1
307.224029541015625 262 150 0 0 1
307.224029541015625 22 150 0 0 1
317.224029541015625 22 150 0 0 1
361 535 0 0 0 -1
351 535 0 0 0 -1
351 361 0 0 0 -1
361 361 0 0 0 -1
361 535 150 0 0 1
351 535 150 0 0 1
351 361 150 0 0 1
361 361 150 0 0 1
247 152.693328857421875 0 0 0 -1
247 162.693328857421875 0 0 0 -1
76 162.693328857421875 0 0 0 -1
76 152.693328857421875 0 0 0 -1
247 152.693328857421875 150 0 0 1
247 162.693328857421875 150 0 0 1
76 162.693328857421875 150 0 0 1
76 152.693328857421875 150 0 0 1
764 14.9876327514648438 0 0 0 -1
764 24.9876327514648438 0 0 0 -1
646 24.9876327514648438 0 0 0 -1
646 14.9876327514648438 0 0 0 -1
764 14.9876327514648438 150 0 0 1
764 24.9876327514648438 150 0 0 1
646 24.9876327514648438 150 0 0 1
646 14.9876327514648438 150 0 0 1
184 262.52099609375 0 0 0 -1
184 272.52099609375 0 0 0 -1
77 272.52099609375 0 0 0 -1
77 262.52099609375 0 0 0 -1
184 262.52099609375 150 0 0 1
184 272.52099609375 150 0 0 1
77 272.52099609375 150 0 0 1
77 262.52099609375 150 0 0 1
761 245 0 0 0 -1
761 255 0 0 0 -1
722 255 0 0 0 -1
722 245 0 0 0 -1
761 245 150 0 0 1
761 255 150 0 0 1
722 255 150 0 0 1
722 245 150 0 0 1
351 244.626815795898438 0 0 0 -1
351 254.626815795898438 0 0 0 -1
315 254.626815795898438 0 0 0 -1
315 244.626815795898438 0 0 0 -1
351 244.626815795898438 150 0 0 1
351 254.626815795898438 150 0 0 1
315 254.626815795898438 150 0 0 1
315 244.626815795898438 150 0 0 1
647 51 0 0 0 -1
647 61 0 0 0 -1
593 61 0 0 0 -1
603 51 0 0 0 -1
647 51 150 0 0 1
647 61 150 0 0 1
593 61 150 0 0 1
603 51 150 0 0 1
603 51 0 0 0 -1
593 61 0 0 0 -1
593 35 0 0 0 -1
603 35 0 0 0 -1
603 51 150 0 0 1
593 61 150 0 0 1
593 35 150 0 0 1
603 35 150 0 0 1
550.62713623046875 177 0 0 0 -1
540.62713623046875 177 0 0 0 -1
540.62713623046875 154 0 0 0 -1
550.62713623046875 154 0 0 0 -1
550.62713623046875 177 150 0 0 1
540.62713623046875 177 150 0 0 1
540.62713623046875 154 150 0 0 1
550.62713623046875 154 150 0 0 1
356 355.503875732421875 0 0 0 -1
356 365.503875732421875 0 0 0 -1
274 365.503875732421875 0 0 0 -1
274 355.503875732421875 0 0 0 -1
356 355.503875732421875 150 0 0 1
356 365.503875732421875 150 0 0 1
274 365.503875732421875 150 0 0 1
274 355.503875732421875 150 0 0 1
170.173416137695312 61 0 0 0 -1
160.173416137695312 61 0 0 0 -1
160.173416137695312 23 0 0 0 -1
170.173416137695312 23 0 0 0 -1
170.173416137695312 61 150 0 0 1
160.173416137695312 61 150 0 0 1
160.173416137695312 23 150 0 0 1
170.173416137695312 23 150 0 0 1
252 206.0745849609375 0 0 0 -1
242 201.9254150390625 0 0 0 -1
242 158 0 0 0 -1
252 158 0 0 0 -1
252 206.0745849609375 150 0 0 1
242 201.9254150390625 150 0 0 1
242 158 150 0 0 1
252 158 150 0 0 1
242 201.9254150390625 0 0 0 -1
252 206.0745849609375 0 0 0 -1
237.515655517578125 220.524154663085938 0 0 0 -1
230.453094482421875 213.444595336914062 0 0 0 -1
242 201.9254150390625 150 0 0 1
252 206.0745849609375 150 0 0 1
237.515655517578125 220.524154663085938 150 0 0 1
230.453094482421875 213.444595336914062 150 0 0 1
522.5 65 0 0 0 -1
512.5 65 0 0 0 -1
512.5 23 0 0 0 -1
522.5 23 0 0 0 -1
522.5 65 150 0 0 1
512.5 65 150 0 0 1
512.5 23 150 0 0 1
522.5 23 150 0 0 1
538.2750244140625 194 0 0 0 -1
528.2750244140625 194 0 0 0 -1
528.2750244140625 170 0 0 0 -1
538.2750244140625 170 0 0 0 -1
538.2750244140625 194 150 0 0 1
528.2750244140625 194 150 0 0 1
528.2750244140625 170 150 0 0 1
538.2750244140625 170 150 0 0 1
729 203 0 0 0 -1
719 203 0 0 0 -1
719 187 0 0 0 -1
729 197 0 0 0 -1
729 203 150 0 0 1
719 203 150 0 0 1
719 187 150 0 0 1
729 197 150 0 0 1
729 197 0 0 0 -1
719 187 0 0 0 -1
761 187 0 0 0 -1
761 197 0 0 0 -1
729 197 150 0 0 1
719 187 150 0 0 1
761 187 150 0 0 1
761 197 150 0 0 1
223.99310302734375 155 0 0 0 -1
213.99310302734375 155 0 0 0 -1
213.99310302734375 124 0 0 0 -1
223.99310302734375 124 0 0 0 -1
223.99310302734375 155 150 0 0 1
213.99310302734375 155 150 0 0 1
213.99310302734375 124 150 0 0 1
223.99310302734375 124 150 0 0 1
259.49005126953125 61 0 0 0 -1
249.490066528320312 61 0 0 0 -1
249.490066528320312 23 0 0 0 -1
259.49005126953125 23 0 0 0 -1
259.49005126953125 61 150 0 0 1
249.490066528320312 61 150 0 0 1
249.490066528320312 23 150 0 0 1
259.49005126953125 23 150 0 0 1
179.512191772460938 155 0 0 0 -1
169.512191772460938 155 0 0 0 -1
169.512191772460938 124 0 0 0 -1
179.512191772460938 124 0 0 0 -1
179.512191772460938 155 150 0 0 1
169.512191772460938 155 150 0 0 1
169.512191772460938 124 150 0 0 1
179.512191772460938 124 150 0 0 1
561.4857177734375 192 0 0 0 -1
551.4857177734375 192 0 0 0 -1
551.4857177734375 156 0 0 0 -1
561.4857177734375 156 0 0 0 -1
561.4857177734375 192 150 0 0 1
551.4857177734375 192 150 0 0 1
551.4857177734375 156 150 0 0 1
561.4857177734375 156 150 0 0 1
729.45452880859375 177 0 0 0 -1
719.45452880859375 177 0 0 0 -1
719.45452880859375 165 0 0 0 -1
729.45452880859375 165 0 0 0 -1
729.45452880859375 177 150 0 0 1
719.45452880859375 177 150 0 0 1
719.45452880859375 165 150 0 0 1
729.45452880859375 165 150 0 0 1
631 21.9369373321533203 0 0 0 -1
631 31.9369373321533203 0 0 0 -1
612 31.9369373321533203 0 0 0 -1
612 21.9369373321533203 0 0 0 -1
631 21.9369373321533203 150 0 0 1
631 31.9369373321533203 150 0 0 1
612 31.9369373321533203 150 0 0 1
612 21.9369373321533203 150 0 0 1
164 264 0 0 0 -1
154 264 0 0 0 -1
154 252 0 0 0 -1
164 252 0 0 0 -1
164 264 150 0 0 1
154 264 150 0 0 1
154 252 150 0 0 1
164 252 150 0 0 1
304 360 0 0 0 -1
304 370 0 0 0 -1
283 370 0 0 0 -1
283 360 0 0 0 -1
304 360 150 0 0 1
304 370 150 0 0 1
283 370 150 0 0 1
283 360 150 0 0 1
187.59735107421875 271.472625732421875 0 0 0 -1
180.40264892578125 264.527374267578125 0 0 0 -1
194.646835327148438 249.771560668945312 0 0 0 -1
201.841537475585938 256.716796875 0 0 0 -1
187.59735107421875 271.472625732421875 150 0 0 1
180.40264892578125 264.527374267578125 150 0 0 1
194.646835327148438 249.771560668945312 150 0 0 1
201.841537475585938 256.716796875 150 0 0 1
446.00213623046875 543.13604736328125 0 0 0 -1
445.99786376953125 533.13604736328125 0 0 0 -1
760.04205322265625 533.00213623046875 0 0 0 -1
769.95794677734375 542.99786376953125 0 0 0 -1
446.00213623046875 543.13604736328125 150 0 0 1
445.99786376953125 533.13604736328125 150 0 0 1
760.04205322265625 533.00213623046875 150 0 0 1
769.95794677734375 542.99786376953125 150 0 0 1
769.95794677734375 542.99786376953125 0 0 0 -1
760.04205322265625 533.00213623046875 0 0 0 -1
760.43096923828125 486.957763671875 0 0 0 -1
770.43060302734375 487.042236328125 0 0 0 -1
769.95794677734375 542.99786376953125 150 0 0 1
760.04205322265625 533.00213623046875 150 0 0 1
760.43096923828125 486.957763671875 150 0 0 1
770.43060302734375 487.042236328125 150 0 0 1
512.50006103515625 118.980766296386719 0 0 0 -1
522.49993896484375 119.019233703613281 0 0 0 -1
521.98114013671875 253.920867919921875 0 0 0 -1
512.01885986328125 244.079132080078125 0 0 0 -1
512.50006103515625 118.980766296386719 150 0 0 1
522.49993896484375 119.019233703613281 150 0 0 1
521.98114013671875 253.920867919921875 150 0 0 1
512.01885986328125 244.079132080078125 150 0 0 1
512.01885986328125 244.079132080078125 0 0 0 -1
521.98114013671875 253.920867919921875 0 0 0 -1
484.080047607421875 254.527816772460938 0 0 0 -1
483.919952392578125 244.529098510742188 0 0 0 -1
512.01885986328125 244.079132080078125 150 0 0 1
521.98114013671875 253.920867919921875 150 0 0 1
484.080047607421875 254.527816772460938 150 0 0 1
483.919952392578125 244.529098510742188 150 0 0 1
4 0 1 2 3
4 4 5 6 7
4 8 9 10 11
4 12 13 14 15
4 16 17 18 19
4 20 21 22 23
4 24 25 26 27
4 28 29 30 31
4 32 33 34 35
4 36 37 38 39
4 40 41 42 43
4 44 45 46 47
4 48 49 50 51
4 52 53 54 55
4 56 57 58 59
4 60 61 62 63
4 64 65 66 67
4 68 69 70 71
4 72 73 74 75
4 76 77 78 79
4 80 81 82 83
4 84 85 86 87
4 88 89 90 91
4 92 93 94 95
4 96 97 98 99
4 100 101 102 103
4 104 105 106 107
4 108 109 110 111
4 112 113 114 115
4 116 117 118 119
4 120 121 122 123
4 124 125 126 127
4 128 129 130 131
4 132 133 134 135
4 136 137 138 139
4 140 141 142 143
4 144 145 146 147
4 148 149 150 151
4 152 153 154 155
4 156 157 158 159
4 160 161 162 163
4 164 165 166 167
4 168 169 170 171
4 172 173 174 175
4 176 177 178 179
4 180 181 182 183
4 184 185 186 187
4 188 189 190 191
4 192 193 194 195
4 196 197 198 199
4 200 201 202 203
4 204 205 206 207
4 208 209 210 211
4 212 213 214 215
4 216 217 218 219
4 220 221 222 223
4 224 225 226 227
4 228 229 230 231
4 232 233 234 235
4 236 237 238 239
4 240 241 242 243
4 244 245 246 247
4 248 249 250 251
4 252 253 254 255
4 256 257 258 259
4 260 261 262 263
4 264 265 266 267
4 268 269 270 271
4 272 273 274 275
4 276 277 278 279
4 280 281 282 283
4 284 285 286 287
4 288 289 290 291
4 292 293 294 295
4 296 297 298 299
4 300 301 302 303
4 304 305 306 307
4 308 309 310 311
4 312 313 314 315
4 316 317 318 319
4 320 321 322 323
4 324 325 326 327
4 328 329 330 331
4 332 333 334 335
4 336 337 338 339
4 340 341 342 343
4 344 345 346 347
4 348 349 350 351
4 352 353 354 355
4 356 357 358 359
4 360 361 362 363
4 364 365 366 367
4 368 369 370 371
4 372 373 374 375
4 376 377 378 379
4 380 381 382 383
4 384 385 386 387
4 388 389 390 391
4 392 393 394 395
4 396 397 398 399
4 400 401 402 403
4 404 405 406 407
4 408 409 410 411
4 412 413 414 415
4 416 417 418 419
4 420 421 422 423
4 424 425 426 427
4 428 429 430 431
4 432 433 434 435
4 436 437 438 439
4 440 441 442 443
4 444 445 446 447
4 448 449 450 451
4 452 453 454 455
4 456 457 458 459
4 460 461 462 463
4 464 465 466 467
4 468 469 470 471
4 472 473 474 475
4 476 477 478 479
4 480 481 482 483
4 484 485 486 487
4 488 489 490 491
4 492 493 494 495
4 496 497 498 499
4 500 501 502 503
4 504 505 506 507
4 508 509 510 511
4 512 513 514 515
4 516 517 518 519
4 520 521 522 523
4 524 525 526 527
4 528 529 530 531
4 532 533 534 535
4 536 537 538 539
4 540 541 542 543
4 544 545 546 547
4 548 549 550 551
4 552 553 554 555
4 556 557 558 559
4 560 561 562 563
4 564 565 566 567
4 568 569 570 571
4 572 573 574 575
4 576 577 578 579
4 580 581 582 583
4 584 585 586 587
4 588 589 590 591
4 592 593 594 595
4 596 597 598 599
4 600 601 602 603
4 604 605 606 607
4 608 609 610 611
4 612 613 614 615
4 616 617 618 619
4 620 621 622 623
4 624 625 626 627
4 628 629 630 631
4 632 633 634 635
4 636 637 638 639
4 640 641 642 643
4 644 645 646 647
4 648 649 650 651
4 652 653 654 655
4 656 657 658 659
4 660 661 662 663
4 664 665 666 667
4 668 669 670 671
4 672 673 674 675
4 676 677 678 679
4 680 681 682 683
4 684 685 686 687
4 688 689 690 691
4 692 693 694 695
4 696 697 698 699
4 700 701 702 703
4 704 705 706 707
4 708 709 710 711
4 712 713 714 715
4 716 717 718 719
4 720 721 722 723
4 724 725 726 727
4 728 729 730 731
4 732 733 734 735
4 736 737 738 739
4 740 741 742 743
4 744 745 746 747
4 748 749 750 751
4 752 753 754 755
4 756 757 758 759
4 760 761 762 763
4 764 765 766 767
4 768 769 770 771
4 772 773 774 775
4 776 777 778 779
4 780 781 782 783
4 784 785 786 787
4 788 789 790 791
4 792 793 794 795
4 796 797 798 799
4 800 801 802 803
4 804 805 806 807
