ply
format ascii 1.0
element vertex 400
property float x
property float y
property float z
property float nx
property float ny
property float nz
element quads 100
property list uchar int vertex_indices
end_header
147 310 0 1 0 0
147 171 0 1 0 0
147 171 150 1 0 0
147 310 150 1 0 0
137 310 0 -1 -0 0
137 161 0 -1 -0 0
137 161 150 -1 -0 0
137 310 150 -1 -0 0
147 171 0 -0 1 0
178 171 0 -0 1 0
178 171 150 -0 1 0
147 171 150 -0 1 0
137 161 0 0 -1 0
178 161 0 0 -1 0
178 161 150 0 -1 0
137 161 150 0 -1 0
147 503 0 1 0 0
147 461 0 1 0 0
147 461 150 1 0 0
147 503 150 1 0 0
137 503 0 -1 -0 0
137 461 0 -1 -0 0
137 461 150 -1 -0 0
137 503 150 -1 -0 0
319.382965087890625 464 0 1 0 0
319.382965087890625 377 0 1 0 0
319.382965087890625 377 150 1 0 0
319.382965087890625 464 150 1 0 0
309.382965087890625 464 0 -1 -0 0
309.382965087890625 377 0 -1 -0 0
309.382965087890625 377 150 -1 -0 0
309.382965087890625 464 150 -1 -0 0
382.853179931640625 292 0 1 0 0
382.853179931640625 231 0 1 0 0
382.853179931640625 231 150 1 0 0
382.853179931640625 292 150 1 0 0
372.853179931640625 292 0 -1 -0 0
372.853179931640625 231 0 -1 -0 0
372.853179931640625 231 150 -1 -0 0
372.853179931640625 292 150 -1 -0 0
346 132 0 1 0 0
346 109 0 1 0 0
346 109 150 1 0 0
346 132 150 1 0 0
336 132 0 -1 -0 0
336 109 0 -1 -0 0
336 109 150 -1 -0 0
336 132 150 -1 -0 0
253 404 0 1 0 0
253 377 0 1 0 0
253 377 150 1 0 0
253 404 150 1 0 0
243 404 0 -1 -0 0
243 377 0 -1 -0 0
243 377 150 -1 -0 0
243 404 150 -1 -0 0
146 418 0 1 0 0
146 408 0 1 0 0
146 408 150 1 0 0
146 418 150 1 0 0
136 418 0 -1 -0 0
136 408 0 -1 -0 0
136 408 150 -1 -0 0
136 418 150 -1 -0 0
224 161.483871459960938 0 -0 -1 0
208 161.483871459960938 0 -0 -1 0
208 161.483871459960938 150 -0 -1 0
224 161.483871459960938 150 -0 -1 0
224 171.483871459960938 0 0 1 0
208 171.483871459960938 0 0 1 0
208 171.483871459960938 150 0 1 0
224 171.483871459960938 150 0 1 0
297 161 0 -0 -1 0
281 161 0 -0 -1 0
281 161 150 -0 -1 0
297 161 150 -0 -1 0
297 171 0 0 1 0
281 171 0 0 1 0
281 171 150 0 1 0
297 171 150 0 1 0
341 161 0 -0 -1 0
326 161 0 -0 -1 0
326 161 150 -0 -1 0
341 161 150 -0 -1 0
341 171 0 0 1 0
326 171 0 0 1 0
326 171 150 0 1 0
341 171 150 0 1 0
381.5 344 0 1 0 0
381.5 320 0 1 0 0
381.5 320 150 1 0 0
381.5 344 150 1 0 0
371.5 344 0 -1 -0 0
371.5 320 0 -1 -0 0
371.5 320 150 -1 -0 0
371.5 344 150 -1 -0 0
434.384613037109375 258 0 1 0 0
434.384613037109375 234 0 1 0 0
434.384613037109375 234 150 1 0 0
434.384613037109375 258 150 1 0 0
424.384613037109375 258 0 -1 -0 0
424.384613037109375 234 0 -1 -0 0
424.384613037109375 234 150 -1 -0 0
424.384613037109375 258 150 -1 -0 0
217 398 0 1 0 0
217 377 0 1 0 0
217 377 150 1 0 0
217 398 150 1 0 0
207 398 0 -1 -0 0
207 377 0 -1 -0 0
207 377 150 -1 -0 0
207 398 150 -1 -0 0
456 207 0 -0 -1 0
435 207 0 -0 -1 0
435 207 150 -0 -1 0
456 207 150 -0 -1 0
456 217 0 0 1 0
435 217 0 0 1 0
435 217 150 0 1 0
456 217 150 0 1 0
253 443 0 1 0 0
253 432 0 1 0 0
253 432 150 1 0 0
253 443 150 1 0 0
243 443 0 -1 -0 0
243 432 0 -1 -0 0
243 432 150 -1 -0 0
243 443 150 -1 -0 0
345.545440673828125 308 0 1 0 0
345.545440673828125 296 0 1 0 0
345.545440673828125 296 150 1 0 0
345.545440673828125 308 150 1 0 0
335.545440673828125 308 0 -1 -0 0
335.545440673828125 296 0 -1 -0 0
335.545440673828125 296 150 -1 -0 0
335.545440673828125 308 150 -1 -0 0
147 310 0 145.94244384765625 308.769775390625 0
137 310 0 145.94244384765625 308.769775390625 0
137 310 150 145.94244384765625 308.769775390625 0
147 310 150 145.94244384765625 308.769775390625 0
147 503 0 143.5 492.0238037109375 0
137 503 0 143.5 492.0238037109375 0
137 503 150 143.5 492.0238037109375 0
147 503 150 143.5 492.0238037109375 0
147 461 0 143.5 449.0238037109375 0
137 461 0 143.5 449.0238037109375 0
137 461 150 143.5 449.0238037109375 0
147 461 150 143.5 449.0238037109375 0
319.382965087890625 464 0 315.7119140625 459.666656494140625 0
309.382965087890625 464 0 315.7119140625 459.666656494140625 0
309.382965087890625 464 150 315.7119140625 459.666656494140625 0
319.382965087890625 464 150 315.7119140625 459.666656494140625 0
319.382965087890625 377 0 315.7119140625 371.666656494140625 0
309.382965087890625 377 0 315.7119140625 371.666656494140625 0
309.382965087890625 377 150 315.7119140625 371.666656494140625 0
319.382965087890625 377 150 315.7119140625 371.666656494140625 0
382.853179931640625 292 0 376.576904296875 288.213104248046875 0
372.853179931640625 292 0 376.576904296875 288.213104248046875 0
372.853179931640625 292 150 376.576904296875 288.213104248046875 0
382.853179931640625 292 150 376.576904296875 288.213104248046875 0
382.853179931640625 231 0 376.576904296875 226.213119506835938 0
372.853179931640625 231 0 376.576904296875 226.213119506835938 0
372.853179931640625 231 150 376.576904296875 226.213119506835938 0
382.853179931640625 231 150 376.576904296875 226.213119506835938 0
346 132 0 330.956512451171875 127.260871887207031 0
336 132 0 330.956512451171875 127.260871887207031 0
336 132 150 330.956512451171875 127.260871887207031 0
346 132 150 330.956512451171875 127.260871887207031 0
346 109 0 330.956512451171875 103.260871887207031 0
336 109 0 330.956512451171875 103.260871887207031 0
336 109 150 330.956512451171875 103.260871887207031 0
346 109 150 330.956512451171875 103.260871887207031 0
178 171 0 173.258071899414062 165.483871459960938 0
178 161 0 173.258071899414062 165.483871459960938 0
178 161 150 173.258071899414062 165.483871459960938 0
178 171 150 173.258071899414062 165.483871459960938 0
253 404 0 243.629623413085938 390.03704833984375 0
243 404 0 243.629623413085938 390.03704833984375 0
243 404 150 243.629623413085938 390.03704833984375 0
253 404 150 243.629623413085938 390.03704833984375 0
253 377 0 243.629623413085938 362.03704833984375 0
243 377 0 243.629623413085938 362.03704833984375 0
243 377 150 243.629623413085938 362.03704833984375 0
253 377 150 243.629623413085938 362.03704833984375 0
146 418 0 131.399993896484375 377.20001220703125 0
136 418 0 131.399993896484375 377.20001220703125 0
136 418 150 131.399993896484375 377.20001220703125 0
146 418 150 131.399993896484375 377.20001220703125 0
146 408 0 131.399993896484375 366.20001220703125 0
136 408 0 131.399993896484375 366.20001220703125 0
136 408 150 131.399993896484375 366.20001220703125 0
146 408 150 131.399993896484375 366.20001220703125 0
224 161.483871459960938 0 211 151.391128540039062 0
224 171.483871459960938 0 211 151.391128540039062 0
224 171.483871459960938 150 211 151.391128540039062 0
224 161.483871459960938 150 211 151.391128540039062 0
208 161.483871459960938 0 194 151.391128540039062 0
208 171.483871459960938 0 194 151.391128540039062 0
208 171.483871459960938 150 194 151.391128540039062 0
208 161.483871459960938 150 194 151.391128540039062 0
297 161 0 279.4375 150.9375 0
297 171 0 279.4375 150.9375 0
297 171 150 279.4375 150.9375 0
297 161 150 279.4375 150.9375 0
281 161 0 262.4375 150.9375 0
281 171 0 262.4375 150.9375 0
281 171 150 262.4375 150.9375 0
281 161 150 262.4375 150.9375 0
341 161 0 319.26666259765625 150.26666259765625 0
341 171 0 319.26666259765625 150.26666259765625 0
341 171 150 319.26666259765625 150.26666259765625 0
341 161 150 319.26666259765625 150.26666259765625 0
326 161 0 303.26666259765625 150.26666259765625 0
326 171 0 303.26666259765625 150.26666259765625 0
326 171 150 303.26666259765625 150.26666259765625 0
326 161 150 303.26666259765625 150.26666259765625 0
381.5 344 0 365.604156494140625 330.666656494140625 0
371.5 344 0 365.604156494140625 330.666656494140625 0
371.5 344 150 365.604156494140625 330.666656494140625 0
381.5 344 150 365.604156494140625 330.666656494140625 0
381.5 320 0 365.604156494140625 305.666656494140625 0
371.5 320 0 365.604156494140625 305.666656494140625 0
371.5 320 150 365.604156494140625 305.666656494140625 0
381.5 320 150 365.604156494140625 305.666656494140625 0
434.384613037109375 258 0 416.285247802734375 248.25 0
424.384613037109375 258 0 416.285247802734375 248.25 0
424.384613037109375 258 150 416.285247802734375 248.25 0
434.384613037109375 258 150 416.285247802734375 248.25 0
434.384613037109375 234 0 416.285247802734375 223.25 0
424.384613037109375 234 0 416.285247802734375 223.25 0
424.384613037109375 234 150 416.285247802734375 223.25 0
434.384613037109375 234 150 416.285247802734375 223.25 0
217 398 0 206.666671752929688 380.047607421875 0
207 398 0 206.666671752929688 380.047607421875 0
207 398 150 206.666671752929688 380.047607421875 0
217 398 150 206.666671752929688 380.047607421875 0
217 377 0 206.666671752929688 358.047607421875 0
207 377 0 206.666671752929688 358.047607421875 0
207 377 150 206.666671752929688 358.047607421875 0
217 377 150 206.666671752929688 358.047607421875 0
456 207 0 435.28570556640625 197.142852783203125 0
456 217 0 435.28570556640625 197.142852783203125 0
456 217 150 435.28570556640625 197.142852783203125 0
456 207 150 435.28570556640625 197.142852783203125 0
435 207 0 413.28570556640625 197.142852783203125 0
435 217 0 413.28570556640625 197.142852783203125 0
435 217 150 413.28570556640625 197.142852783203125 0
435 207 150 413.28570556640625 197.142852783203125 0
253 443 0 230 403.727264404296875 0
243 443 0 230 403.727264404296875 0
243 443 150 230 403.727264404296875 0
253 443 150 230 403.727264404296875 0
253 432 0 230 391.727264404296875 0
243 432 0 230 391.727264404296875 0
243 432 150 230 391.727264404296875 0
253 432 150 230 391.727264404296875 0
345.545440673828125 308 0 316.75 283.333343505859375 0
335.545440673828125 308 0 316.75 283.333343505859375 0
335.545440673828125 308 150 316.75 283.333343505859375 0
345.545440673828125 308 150 316.75 283.333343505859375 0
345.545440673828125 296 0 316.75 270.333343505859375 0
335.545440673828125 296 0 316.75 270.333343505859375 0
335.545440673828125 296 150 316.75 270.333343505859375 0
345.545440673828125 296 150 316.75 270.333343505859375 0
147 310 0 0 0 -1
137 310 0 0 0 -1
137 161 0 0 0 -1
147 171 0 0 0 -1
147 310 150 0 0 1
137 310 150 0 0 1
137 161 150 0 0 1
147 171 150 0 0 1
147 171 0 0 0 -1
137 161 0 0 0 -1
178 161 0 0 0 -1
178 171 0 0 0 -1
147 171 150 0 0 1
137 161 150 0 0 1
178 161 150 0 0 1
178 171 150 0 0 1
147 503 0 0 0 -1
137 503 0 0 0 -1
137 461 0 0 0 -1
147 461 0 0 0 -1
147 503 150 0 0 1
137 503 150 0 0 1
137 461 150 0 0 1
147 461 150 0 0 1
319.382965087890625 464 0 0 0 -1
309.382965087890625 464 0 0 0 -1
309.382965087890625 377 0 0 0 -1
319.382965087890625 377 0 0 0 -1
319.382965087890625 464 150 0 0 1
309.382965087890625 464 150 0 0 1
309.382965087890625 377 150 0 0 1
319.382965087890625 377 150 0 0 1
382.853179931640625 292 0 0 0 -1
372.853179931640625 292 0 0 0 -1
372.853179931640625 231 0 0 0 -1
382.853179931640625 231 0 0 0 -1
382.853179931640625 292 150 0 0 1
372.853179931640625 292 150 0 0 1
372.853179931640625 231 150 0 0 1
382.853179931640625 231 150 0 0 1
346 132 0 0 0 -1
336 132 0 0 0 -1
336 109 0 0 0 -1
346 109 0 0 0 -1
346 132 150 0 0 1
336 132 150 0 0 1
336 109 150 0 0 1
346 109 150 0 0 1
253 404 0 0 0 -1
243 404 0 0 0 -1
243 377 0 0 0 -1
253 377 0 0 0 -1
253 404 150 0 0 1
243 404 150 0 0 1
243 377 150 0 0 1
253 377 150 0 0 1
146 418 0 0 0 -1
136 418 0 0 0 -1
136 408 0 0 0 -1
146 408 0 0 0 -1
146 418 150 0 0 1
136 418 150 0 0 1
136 408 150 0 0 1
146 408 150 0 0 1
224 161.483871459960938 0 0 0 -1
224 171.483871459960938 0 0 0 -1
208 171.483871459960938 0 0 0 -1
208 161.483871459960938 0 0 0 -1
224 161.483871459960938 150 0 0 1
224 171.483871459960938 150 0 0 1
208 171.483871459960938 150 0 0 1
208 161.483871459960938 150 0 0 1
297 161 0 0 0 -1
297 171 0 0 0 -1
281 171 0 0 0 -1
281 161 0 0 0 -1
297 161 150 0 0 1
297 171 150 0 0 1
281 171 150 0 0 1
281 161 150 0 0 1
341 161 0 0 0 -1
341 171 0 0 0 -1
326 171 0 0 0 -1
326 161 0 0 0 -1
341 161 150 0 0 1
341 171 150 0 0 1
326 171 150 0 0 1
326 161 150 0 0 1
381.5 344 0 0 0 -1
371.5 344 0 0 0 -1
371.5 320 0 0 0 -1
381.5 320 0 0 0 -1
381.5 344 150 0 0 1
371.5 344 150 0 0 1
371.5 320 150 0 0 1
381.5 320 150 0 0 1
434.384613037109375 258 0 0 0 -1
424.384613037109375 258 0 0 0 -1
424.384613037109375 234 0 0 0 -1
434.384613037109375 234 0 0 0 -1
434.384613037109375 258 150 0 0 1
424.384613037109375 258 150 0 0 1
424.384613037109375 234 150 0 0 1
434.384613037109375 234 150 0 0 1
217 398 0 0 0 -1
207 398 0 0 0 -1
207 377 0 0 0 -1
217 377 0 0 0 -1
217 398 150 0 0 1
207 398 150 0 0 1
207 377 150 0 0 1
217 377 150 0 0 1
456 207 0 0 0 -1
456 217 0 0 0 -1
435 217 0 0 0 -1
435 207 0 0 0 -1
456 207 150 0 0 1
456 217 150 0 0 1
435 217 150 0 0 1
435 207 150 0 0 1
253 443 0 0 0 -1
243 443 0 0 0 -1
243 432 0 0 0 -1
253 432 0 0 0 -1
253 443 150 0 0 1
243 443 150 0 0 1
243 432 150 0 0 1
253 432 150 0 0 1
345.545440673828125 308 0 0 0 -1
335.545440673828125 308 0 0 0 -1
335.545440673828125 296 0 0 0 -1
345.545440673828125 296 0 0 0 -1
345.545440673828125 308 150 0 0 1
335.545440673828125 308 150 0 0 1
335.545440673828125 296 150 0 0 1
345.545440673828125 296 150 0 0 1
4 0 1 2 3
4 4 5 6 7
4 8 9 10 11
4 12 13 14 15
4 16 17 18 19
4 20 21 22 23
4 24 25 26 27
4 28 29 30 31
4 32 33 34 35
4 36 37 38 39
4 40 41 42 43
4 44 45 46 47
4 48 49 50 51
4 52 53 54 55
4 56 57 58 59
4 60 61 62 63
4 64 65 66 67
4 68 69 70 71
4 72 73 74 75
4 76 77 78 79
4 80 81 82 83
4 84 85 86 87
4 88 89 90 91
4 92 93 94 95
4 96 97 98 99
4 100 101 102 103
4 104 105 106 107
4 108 109 110 111
4 112 113 114 115
4 116 117 118 119
4 120 121 122 123
4 124 125 126 127
4 128 129 130 131
4 132 133 134 135
4 136 137 138 139
4 140 141 142 143
4 144 145 146 147
4 148 149 150 151
4 152 153 154 155
4 156 157 158 159
4 160 161 162 163
4 164 165 166 167
4 168 169 170 171
4 172 173 174 175
4 176 177 178 179
4 180 181 182 183
4 184 185 186 187
4 188 189 190 191
4 192 193 194 195
4 196 197 198 199
4 200 201 202 203
4 204 205 206 207
4 208 209 210 211
4 212 213 214 215
4 216 217 218 219
4 220 221 222 223
4 224 225 226 227
4 228 229 230 231
4 232 233 234 235
4 236 237 238 239
4 240 241 242 243
4 244 245 246 247
4 248 249 250 251
4 252 253 254 255
4 256 257 258 259
4 260 261 262 263
4 264 265 266 267
4 268 269 270 271
4 272 273 274 275
4 276 277 278 279
4 280 281 282 283
4 284 285 286 287
4 288 289 290 291
4 292 293 294 295
4 296 297 298 299
4 300 301 302 303
4 304 305 306 307
4 308 309 310 311
4 312 313 314 315
4 316 317 318 319
4 320 321 322 323
4 324 325 326 327
4 328 329 330 331
4 332 333 334 335
4 336 337 338 339
4 340 341 342 343
4 344 345 346 347
4 348 349 350 351
4 352 353 354 355
4 356 357 358 359
4 360 361 362 363
4 364 365 366 367
4 368 369 370 371
4 372 373 374 375
4 376 377 378 379
4 380 381 382 383
4 384 385 386 387
4 388 389 390 391
4 392 393 394 395
4 396 397 398 399
