ply
format ascii 1.0
element vertex 1088
property float x
property float y
property float z
property float nx
property float ny
property float nz
element quads 272
property list uchar int vertex_indices
end_header
120 393 0 1 0 0
120 71 0 1 0 0
120 71 150 1 0 0
120 393 150 1 0 0
110 403 0 -1 -0 0
110 61 0 -1 -0 0
110 61 150 -1 -0 0
110 403 150 -1 -0 0
110 403 0 -0 1 0
150 403 0 -0 1 0
150 403 150 -0 1 0
110 403 150 -0 1 0
120 393 0 0 -1 0
150 393 0 0 -1 0
150 393 150 0 -1 0
120 393 150 0 -1 0
120 71 0 -0 1 0
145 71 0 -0 1 0
145 71 150 -0 1 0
120 71 150 -0 1 0
110 61 0 0 -1 0
145 61 0 0 -1 0
145 61 150 0 -1 0
110 61 150 0 -1 0
457 316 0 1 0 0
457 313 0 1 0 0
457 313 150 1 0 0
457 316 150 1 0 0
447 316 0 -1 -0 0
447 303 0 -1 -0 0
447 303 150 -1 -0 0
447 316 150 -1 -0 0
457 313 0 -0 1 0
589 313 0 -0 1 0
589 313 150 -0 1 0
457 313 150 -0 1 0
447 303 0 0 -1 0
589 303 0 0 -1 0
589 303 150 0 -1 0
447 303 150 0 -1 0
457.964599609375 532 0 1 0 0
457.964599609375 349 0 1 0 0
457.964599609375 349 150 1 0 0
457.964599609375 532 150 1 0 0
447.964599609375 532 0 -1 -0 0
447.964599609375 349 0 -1 -0 0
447.964599609375 349 150 -1 -0 0
447.964599609375 532 150 -1 -0 0
677 317 0 1 0 0
677 156 0 1 0 0
677 156 150 1 0 0
677 317 150 1 0 0
667 317 0 -1 -0 0
667 156 0 -1 -0 0
667 156 150 -1 -0 0
667 317 150 -1 -0 0
250.5 286 0 1 0 0
250.5 263 0 1 0 0
250.5 263 150 1 0 0
250.5 286 150 1 0 0
240.5 286 0 -1 -0 0
240.5 263 0 -1 -0 0
240.5 263 150 -1 -0 0
240.5 286 150 -1 -0 0
252.866241455078125 155 0 1 0 0
252.866241455078125 100 0 1 0 0
252.866241455078125 100 150 1 0 0
252.866241455078125 155 150 1 0 0
242.866241455078125 155 0 -1 -0 0
242.866241455078125 100 0 -1 -0 0
242.866241455078125 100 150 -1 -0 0
242.866241455078125 155 150 -1 -0 0
384.489532470703125 429 0 1 0 0
384.489532470703125 308 0 1 0 0
384.489532470703125 308 150 1 0 0
384.489532470703125 429 150 1 0 0
374.489532470703125 429 0 -1 -0 0
374.489532470703125 308 0 -1 -0 0
374.489532470703125 308 150 -1 -0 0
374.489532470703125 429 150 -1 -0 0
250.5076904296875 223 0 1 0 0
250.5076904296875 190 0 1 0 0
250.5076904296875 190 150 1 0 0
250.5076904296875 223 150 1 0 0
240.5076904296875 223 0 -1 -0 0
240.5076904296875 190 0 -1 -0 0
240.5076904296875 190 150 -1 -0 0
240.5076904296875 223 150 -1 -0 0
310 150 0 -0 -1 0
248 150 0 -0 -1 0
248 150 150 -0 -1 0
310 150 150 -0 -1 0
310 160 0 0 1 0
248 160 0 0 1 0
248 160 150 0 1 0
310 160 150 0 1 0
413 16 0 -0 -1 0
353 16 0 -0 -1 0
353 16 150 -0 -1 0
413 16 150 -0 -1 0
403 26 0 0 1 0
363 26 0 0 1 0
363 26 150 0 1 0
403 26 150 0 1 0
403 26 0 -1 0 0
403 38 0 -1 0 0
403 38 150 -1 0 0
403 26 150 -1 0 0
413 16 0 1 -0 0
413 48 0 1 -0 0
413 48 150 1 -0 0
413 16 150 1 -0 0
353 16 0 -1 0 0
353 43 0 -1 0 0
353 43 150 -1 0 0
353 16 150 -1 0 0
363 26 0 1 -0 0
363 43 0 1 -0 0
363 43 150 1 -0 0
363 26 150 1 -0 0
670 280 0 -0 -1 0
585 280 0 -0 -1 0
585 280 150 -0 -1 0
670 280 150 -0 -1 0
670 290 0 0 1 0
595 290 0 0 1 0
595 290 150 0 1 0
670 290 150 0 1 0
585 280 0 -1 0 0
585 308 0 -1 0 0
585 308 150 -1 0 0
585 280 150 -1 0 0
595 290 0 1 -0 0
595 308 0 1 -0 0
595 308 150 1 -0 0
595 290 150 1 -0 0
286 415 0 -0 -1 0
253 415 0 -0 -1 0
253 415 150 -0 -1 0
286 415 150 -0 -1 0
286 425 0 0 1 0
243 425 0 0 1 0
243 425 150 0 1 0
286 425 150 0 1 0
253 415 0 1 0 0
253 358 0 1 0 0
253 358 150 1 0 0
253 415 150 1 0 0
243 425 0 -1 -0 0
243 348 0 -1 -0 0
243 348 150 -1 -0 0
243 425 150 -1 -0 0
672 150.5 0 -0 -1 0
643 150.5 0 -0 -1 0
643 150.5 150 -0 -1 0
672 150.5 150 -0 -1 0
672 160.5 0 0 1 0
643 160.5 0 0 1 0
643 160.5 150 0 1 0
672 160.5 150 0 1 0
253 358 0 -0 1 0
275.961700439453125 358 0 -0 1 0
275.961700439453125 358 150 -0 1 0
253 358 150 -0 1 0
243 348 0 0 -1 0
266.038299560546875 348 0 0 -1 0
266.038299560546875 348 150 0 -1 0
243 348 150 0 -1 0
257 60.5089836120605469 0 -0 -1 0
215 60.5089836120605469 0 -0 -1 0
215 60.5089836120605469 150 -0 -1 0
257 60.5089836120605469 150 -0 -1 0
257 70.5089797973632812 0 0 1 0
215 70.5089797973632812 0 0 1 0
215 70.5089797973632812 150 0 1 0
257 70.5089797973632812 150 0 1 0
595 150.507110595703125 0 -0 -1 0
542 150.507110595703125 0 -0 -1 0
542 150.507110595703125 150 -0 -1 0
595 150.507110595703125 150 -0 -1 0
595 160.507110595703125 0 0 1 0
542 160.507110595703125 0 0 1 0
542 160.507110595703125 150 0 1 0
595 160.507110595703125 150 0 1 0
210 218.652175903320312 0 -0 -1 0
118 218.652175903320312 0 -0 -1 0
118 218.652175903320312 150 -0 -1 0
210 218.652175903320312 150 -0 -1 0
210 228.652175903320312 0 0 1 0
118 228.652175903320312 0 0 1 0
118 228.652175903320312 150 0 1 0
210 228.652175903320312 150 0 1 0
312 218 0 -0 -1 0
246 218 0 -0 -1 0
246 218 150 -0 -1 0
312 218 150 -0 -1 0
312 228 0 0 1 0
246 228 0 0 1 0
246 228 150 0 1 0
312 228 150 0 1 0
561 259 0 -0 -1 0
531 259 0 -0 -1 0
531 259 150 -0 -1 0
561 259 150 -0 -1 0
561 269 0 0 1 0
541 269 0 0 1 0
541 269 150 0 1 0
561 269 150 0 1 0
531 259 0 -1 0 0
531 305 0 -1 0 0
531 305 150 -1 0 0
531 259 150 -1 0 0
541 269 0 1 -0 0
541 305 0 1 -0 0
541 305 150 1 -0 0
541 269 150 1 -0 0
471 150.5 0 -0 -1 0
452 150.5 0 -0 -1 0
452 150.5 150 -0 -1 0
471 150.5 150 -0 -1 0
471 160.5 0 0 1 0
452 160.5 0 0 1 0
452 160.5 150 0 1 0
471 160.5 150 0 1 0
457.9891357421875 73 0 1 0 0
457.9891357421875 42 0 1 0 0
457.9891357421875 42 150 1 0 0
457.9891357421875 73 150 1 0 0
447.9891357421875 73 0 -1 -0 0
447.9891357421875 42 0 -1 -0 0
447.9891357421875 42 150 -1 -0 0
447.9891357421875 73 150 -1 -0 0
482 305 0 1 0 0
482 264 0 1 0 0
482 264 150 1 0 0
482 305 150 1 0 0
472 305 0 -1 -0 0
472 264 0 -1 -0 0
472 264 150 -1 -0 0
472 305 150 -1 -0 0
377 415.496124267578125 0 -0 -1 0
344 415.496124267578125 0 -0 -1 0
344 415.496124267578125 150 -0 -1 0
377 415.496124267578125 150 -0 -1 0
377 425.496124267578125 0 0 1 0
344 425.496124267578125 0 0 1 0
344 425.496124267578125 150 0 1 0
377 425.496124267578125 150 0 1 0
349.85400390625 259 0 -0 -1 0
307 259 0 -0 -1 0
307 259 150 -0 -1 0
349.85400390625 259 150 -0 -1 0
324.14599609375 269 0 0 1 0
317 269 0 0 1 0
317 269 150 0 1 0
324.14599609375 269 150 0 1 0
324.14599609375 269 0 -0.675724625587463379 -0.737154126167297363 0
309.621368408203125 282.314239501953125 0 -0.675724625587463379 -0.737154126167297363 0
309.621368408203125 282.314239501953125 150 -0.675724625587463379 -0.737154126167297363 0
324.14599609375 269 150 -0.675724625587463379 -0.737154126167297363 0
349.85400390625 259 0 0.675724625587463379 0.737154126167297363 0
316.378631591796875 289.685760498046875 0 0.675724625587463379 0.737154126167297363 0
316.378631591796875 289.685760498046875 150 0.675724625587463379 0.737154126167297363 0
349.85400390625 259 150 0.675724625587463379 0.737154126167297363 0
307 259 0 -1 0 0
307 281 0 -1 0 0
307 281 150 -1 0 0
307 259 150 -1 0 0
317 269 0 1 -0 0
317 291 0 1 -0 0
317 291 150 1 -0 0
317 269 150 1 -0 0
477 258.5 0 -0 -1 0
452 258.5 0 -0 -1 0
452 258.5 150 -0 -1 0
477 258.5 150 -0 -1 0
477 268.5 0 0 1 0
452 268.5 0 0 1 0
452 268.5 150 0 1 0
477 268.5 150 0 1 0
594.5 285 0 1 0 0
594.5 263 0 1 0 0
594.5 263 150 1 0 0
594.5 285 150 1 0 0
584.5 285 0 -1 -0 0
584.5 263 0 -1 -0 0
584.5 263 150 -1 -0 0
584.5 285 150 -1 -0 0
244 392.51470947265625 0 -0 -1 0
209 392.51470947265625 0 -0 -1 0
209 392.51470947265625 150 -0 -1 0
244 392.51470947265625 150 -0 -1 0
244 402.51470947265625 0 0 1 0
209 402.51470947265625 0 0 1 0
209 402.51470947265625 150 0 1 0
244 402.51470947265625 150 0 1 0
471 527 0 -0 -1 0
453 527 0 -0 -1 0
453 527 150 -0 -1 0
471 527 150 -0 -1 0
471 537 0 0 1 0
453 537 0 0 1 0
453 537 150 0 1 0
471 537 150 0 1 0
310 60.5 0 -0 -1 0
283 60.5 0 -0 -1 0
283 60.5 150 -0 -1 0
310 60.5 150 -0 -1 0
310 70.5 0 0 1 0
283 70.5 0 0 1 0
283 70.5 150 0 1 0
310 70.5 150 0 1 0
307.500030517578125 41.9860343933105469 0 -0.9999961256980896 -0.00279328529722988605 0
306.98602294921875 226 0 -0.9999961256980896 -0.00279328529722988605 0
306.98602294921875 226 150 -0.9999961256980896 -0.00279328529722988605 0
307.500030517578125 41.9860343933105469 150 -0.9999961256980896 -0.00279328529722988605 0
317.499969482421875 42.0139656066894531 0 0.9999961256980896 0.00279328529722988605 0
317.01397705078125 216 0 0.9999961256980896 0.00279328529722988605 0
317.01397705078125 216 150 0.9999961256980896 0.00279328529722988605 0
317.499969482421875 42.0139656066894531 150 0.9999961256980896 0.00279328529722988605 0
306.98602294921875 226 0 -0 1 0
340 226 0 -0 1 0
340 226 150 -0 1 0
306.98602294921875 226 150 -0 1 0
317.01397705078125 216 0 0 -1 0
340 216 0 0 -1 0
340 216 150 0 -1 0
317.01397705078125 216 150 0 -1 0
117.013221740722656 291.23004150390625 0 0.00264420849271118641 0.999996483325958252 0
208.90850830078125 290.987030029296875 0 0.00264420849271118641 0.999996483325958252 0
208.90850830078125 290.987030029296875 150 0.00264420849271118641 0.999996483325958252 0
117.013221740722656 291.23004150390625 150 0.00264420849271118641 0.999996483325958252 0
116.986778259277344 281.230072021484375 0 -0.00264420849271118641 -0.999996483325958252 0
199.09149169921875 281.012969970703125 0 -0.00264420849271118641 -0.999996483325958252 0
199.09149169921875 281.012969970703125 150 -0.00264420849271118641 -0.999996483325958252 0
116.986778259277344 281.230072021484375 150 -0.00264420849271118641 -0.999996483325958252 0
208.90850830078125 290.987030029296875 0 0.999828577041625977 0.0185153447091579437 0
209.4991455078125 259.09259033203125 0 0.999828577041625977 0.0185153447091579437 0
209.4991455078125 259.09259033203125 150 0.999828577041625977 0.0185153447091579437 0
208.90850830078125 290.987030029296875 150 0.999828577041625977 0.0185153447091579437 0
199.09149169921875 281.012969970703125 0 -0.999828577041625977 -0.0185153447091579437 0
199.5008544921875 258.90740966796875 0 -0.999828577041625977 -0.0185153447091579437 0
199.5008544921875 258.90740966796875 150 -0.999828577041625977 -0.0185153447091579437 0
199.09149169921875 281.012969970703125 150 -0.999828577041625977 -0.0185153447091579437 0
700 394 0 1 0 0
700 352.898406982421875 0 1 0 0
700 352.898406982421875 150 1 0 0
700 394 150 1 0 0
690 394 0 -1 -0 0
690 363.101593017578125 0 -1 -0 0
690 363.101593017578125 150 -1 -0 0
690 394 150 -1 -0 0
700 352.898406982421875 0 -0.0201108735054731369 -0.9997977614402771 0
670.89947509765625 353.4837646484375 0 -0.0201108735054731369 -0.9997977614402771 0
670.89947509765625 353.4837646484375 150 -0.0201108735054731369 -0.9997977614402771 0
700 352.898406982421875 150 -0.0201108735054731369 -0.9997977614402771 0
690 363.101593017578125 0 0.0201108735054731369 0.9997977614402771 0
671.10052490234375 363.48175048828125 0 0.0201108735054731369 0.9997977614402771 0
671.10052490234375 363.48175048828125 150 0.0201108735054731369 0.9997977614402771 0
690 363.101593017578125 150 0.0201108735054731369 0.9997977614402771 0
246 291 0 -0 1 0
317 291 0 -0 1 0
317 291 150 -0 1 0
246 291 150 -0 1 0
246 281 0 0 -1 0
307 281 0 0 -1 0
307 281 150 0 -1 0
246 281 150 0 -1 0
690.50054931640625 452.926483154296875 0 -0.999891877174377441 -0.0147042926400899887 0
690.072998046875 482 0 -0.999891877174377441 -0.0147042926400899887 0
690.072998046875 482 150 -0.999891877174377441 -0.0147042926400899887 0
690.50054931640625 452.926483154296875 150 -0.999891877174377441 -0.0147042926400899887 0
700.49945068359375 453.073516845703125 0 0.999891877174377441 0.0147042926400899887 0
699.927001953125 492 0 0.999891877174377441 0.0147042926400899887 0
699.927001953125 492 150 0.999891877174377441 0.0147042926400899887 0
700.49945068359375 453.073516845703125 150 0.999891877174377441 0.0147042926400899887 0
690.072998046875 482 0 -0 -1 0
668 482 0 -0 -1 0
668 482 150 -0 -1 0
690.072998046875 482 150 -0 -1 0
699.927001953125 492 0 0 1 0
678 492 0 0 1 0
678 492 150 0 1 0
699.927001953125 492 150 0 1 0
668 482 0 -1 0 0
668 527.12982177734375 0 -1 0 0
668 527.12982177734375 150 -1 0 0
668 482 150 -1 0 0
678 492 0 1 -0 0
678 536.87017822265625 0 1 -0 0
678 536.87017822265625 150 1 -0 0
678 492 150 1 -0 0
668 527.12982177734375 0 -0.0263066813349723816 -0.999653935432434082 0
653.86846923828125 527.501708984375 0 -0.0263066813349723816 -0.999653935432434082 0
653.86846923828125 527.501708984375 150 -0.0263066813349723816 -0.999653935432434082 0
668 527.12982177734375 150 -0.0263066813349723816 -0.999653935432434082 0
678 536.87017822265625 0 0.0263066813349723816 0.999653935432434082 0
654.13153076171875 537.498291015625 0 0.0263066813349723816 0.999653935432434082 0
654.13153076171875 537.498291015625 150 0.0263066813349723816 0.999653935432434082 0
678 536.87017822265625 150 0.0263066813349723816 0.999653935432434082 0
266.500152587890625 287.9615478515625 0 -0.999970436096191406 -0.00769207999110221863 0
266.038299560546875 348 0 -0.999970436096191406 -0.00769207999110221863 0
266.038299560546875 348 150 -0.999970436096191406 -0.00769207999110221863 0
266.500152587890625 287.9615478515625 150 -0.999970436096191406 -0.00769207999110221863 0
276.499847412109375 288.0384521484375 0 0.999970436096191406 0.00769207999110221863 0
275.961700439453125 358 0 0.999970436096191406 0.00769207999110221863 0
275.961700439453125 358 150 0.999970436096191406 0.00769207999110221863 0
276.499847412109375 288.0384521484375 150 0.999970436096191406 0.00769207999110221863 0
401 48 0 -0 1 0
413 48 0 -0 1 0
413 48 150 -0 1 0
401 48 150 -0 1 0
401 38 0 0 -1 0
403 38 0 0 -1 0
403 38 150 0 -1 0
401 38 150 0 -1 0
457 316 0 304.666656494140625 211.666671752929688 0
447 316 0 304.666656494140625 211.666671752929688 0
447 316 150 304.666656494140625 211.666671752929688 0
457 316 150 304.666656494140625 211.666671752929688 0
457.964599609375 532 0 455.462066650390625 530.0928955078125 0
447.964599609375 532 0 455.462066650390625 530.0928955078125 0
447.964599609375 532 150 455.462066650390625 530.0928955078125 0
457.964599609375 532 150 455.462066650390625 530.0928955078125 0
457.964599609375 349 0 455.462066650390625 346.0928955078125 0
447.964599609375 349 0 455.462066650390625 346.0928955078125 0
447.964599609375 349 150 455.462066650390625 346.0928955078125 0
457.964599609375 349 150 455.462066650390625 346.0928955078125 0
677 317 0 672.7950439453125 316.03106689453125 0
667 317 0 672.7950439453125 316.03106689453125 0
667 317 150 672.7950439453125 316.03106689453125 0
677 317 150 672.7950439453125 316.03106689453125 0
677 156 0 672.7950439453125 154.031051635742188 0
667 156 0 672.7950439453125 154.031051635742188 0
667 156 150 672.7950439453125 154.031051635742188 0
677 156 150 672.7950439453125 154.031051635742188 0
250.5 286 0 239.608688354492188 274.565216064453125 0
240.5 286 0 239.608688354492188 274.565216064453125 0
240.5 286 150 239.608688354492188 274.565216064453125 0
250.5 286 150 239.608688354492188 274.565216064453125 0
250.5 263 0 239.608688354492188 250.565216064453125 0
240.5 263 0 239.608688354492188 250.565216064453125 0
240.5 263 150 239.608688354492188 250.565216064453125 0
250.5 263 150 239.608688354492188 250.565216064453125 0
252.866241455078125 155 0 248.2686767578125 153.18182373046875 0
242.866241455078125 155 0 248.2686767578125 153.18182373046875 0
242.866241455078125 155 150 248.2686767578125 153.18182373046875 0
252.866241455078125 155 150 248.2686767578125 153.18182373046875 0
252.866241455078125 100 0 248.2686767578125 97.1818161010742188 0
242.866241455078125 100 0 248.2686767578125 97.1818161010742188 0
242.866241455078125 100 150 248.2686767578125 97.1818161010742188 0
252.866241455078125 100 150 248.2686767578125 97.1818161010742188 0
384.489532470703125 429 0 381.31195068359375 426.454559326171875 0
374.489532470703125 429 0 381.31195068359375 426.454559326171875 0
374.489532470703125 429 150 381.31195068359375 426.454559326171875 0
384.489532470703125 429 150 381.31195068359375 426.454559326171875 0
384.489532470703125 308 0 381.31195068359375 304.454559326171875 0
374.489532470703125 308 0 381.31195068359375 304.454559326171875 0
374.489532470703125 308 150 381.31195068359375 304.454559326171875 0
384.489532470703125 308 150 381.31195068359375 304.454559326171875 0
250.5076904296875 223 0 242.916549682617188 217.242431640625 0
240.5076904296875 223 0 242.916549682617188 217.242431640625 0
240.5076904296875 223 150 242.916549682617188 217.242431640625 0
250.5076904296875 223 150 242.916549682617188 217.242431640625 0
250.5076904296875 190 0 242.916549682617188 183.242431640625 0
240.5076904296875 190 0 242.916549682617188 183.242431640625 0
240.5076904296875 190 150 242.916549682617188 183.242431640625 0
250.5076904296875 190 150 242.916549682617188 183.242431640625 0
310 150 0 306 147.580642700195312 0
310 160 0 306 147.580642700195312 0
310 160 150 306 147.580642700195312 0
310 150 150 306 147.580642700195312 0
248 150 0 243 147.580642700195312 0
248 160 0 243 147.580642700195312 0
248 160 150 243 147.580642700195312 0
248 150 150 243 147.580642700195312 0
670 280 0 663.11767578125 276.70587158203125 0
670 290 0 663.11767578125 276.70587158203125 0
670 290 150 663.11767578125 276.70587158203125 0
670 280 150 663.11767578125 276.70587158203125 0
589 313 0 585.53790283203125 310.6287841796875 0
589 303 0 585.53790283203125 310.6287841796875 0
589 303 150 585.53790283203125 310.6287841796875 0
589 313 150 585.53790283203125 310.6287841796875 0
286 415 0 278.333343505859375 402.42425537109375 0
286 425 0 278.333343505859375 402.42425537109375 0
286 425 150 278.333343505859375 402.42425537109375 0
286 415 150 278.333343505859375 402.42425537109375 0
672 150.5 0 649.82757568359375 145.310348510742188 0
672 160.5 0 649.82757568359375 145.310348510742188 0
672 160.5 150 649.82757568359375 145.310348510742188 0
672 150.5 150 649.82757568359375 145.310348510742188 0
643 150.5 0 619.82757568359375 145.310348510742188 0
643 160.5 0 619.82757568359375 145.310348510742188 0
643 160.5 150 619.82757568359375 145.310348510742188 0
643 150.5 150 619.82757568359375 145.310348510742188 0
257 60.5089836120605469 0 251.880950927734375 59.0682907104492188 0
257 70.5089797973632812 0 251.880950927734375 59.0682907104492188 0
257 70.5089797973632812 150 251.880950927734375 59.0682907104492188 0
257 60.5089836120605469 150 251.880950927734375 59.0682907104492188 0
215 60.5089836120605469 0 208.880950927734375 59.0682907104492188 0
215 70.5089797973632812 0 208.880950927734375 59.0682907104492188 0
215 70.5089797973632812 150 208.880950927734375 59.0682907104492188 0
215 60.5089836120605469 150 208.880950927734375 59.0682907104492188 0
595 150.507110595703125 0 584.7735595703125 147.6673583984375 0
595 160.507110595703125 0 584.7735595703125 147.6673583984375 0
595 160.507110595703125 150 584.7735595703125 147.6673583984375 0
595 150.507110595703125 150 584.7735595703125 147.6673583984375 0
542 150.507110595703125 0 530.7735595703125 147.6673583984375 0
542 160.507110595703125 0 530.7735595703125 147.6673583984375 0
542 160.507110595703125 150 530.7735595703125 147.6673583984375 0
542 150.507110595703125 150 530.7735595703125 147.6673583984375 0
210 218.652175903320312 0 208.717391967773438 216.2755126953125 0
210 228.652175903320312 0 208.717391967773438 216.2755126953125 0
210 228.652175903320312 150 208.717391967773438 216.2755126953125 0
210 218.652175903320312 150 208.717391967773438 216.2755126953125 0
118 218.652175903320312 0 115.717391967773438 216.2755126953125 0
118 228.652175903320312 0 115.717391967773438 216.2755126953125 0
118 228.652175903320312 150 115.717391967773438 216.2755126953125 0
118 218.652175903320312 150 115.717391967773438 216.2755126953125 0
312 218 0 308.272735595703125 214.696975708007812 0
312 228 0 308.272735595703125 214.696975708007812 0
312 228 150 308.272735595703125 214.696975708007812 0
312 218 150 308.272735595703125 214.696975708007812 0
246 218 0 241.272720336914062 214.696975708007812 0
246 228 0 241.272720336914062 214.696975708007812 0
246 228 150 241.272720336914062 214.696975708007812 0
246 218 150 241.272720336914062 214.696975708007812 0
561 259 0 543.29998779296875 250.366668701171875 0
561 269 0 543.29998779296875 250.366668701171875 0
561 269 150 543.29998779296875 250.366668701171875 0
561 259 150 543.29998779296875 250.366668701171875 0
471 150.5 0 447.210540771484375 142.578948974609375 0
471 160.5 0 447.210540771484375 142.578948974609375 0
471 160.5 150 447.210540771484375 142.578948974609375 0
471 150.5 150 447.210540771484375 142.578948974609375 0
452 150.5 0 427.210540771484375 142.578948974609375 0
452 160.5 0 427.210540771484375 142.578948974609375 0
452 160.5 150 427.210540771484375 142.578948974609375 0
452 150.5 150 427.210540771484375 142.578948974609375 0
145 71 0 140.199996948242188 68.160003662109375 0
145 61 0 140.199996948242188 68.160003662109375 0
145 61 150 140.199996948242188 68.160003662109375 0
145 71 150 140.199996948242188 68.160003662109375 0
457.9891357421875 73 0 443.215301513671875 71.6451644897460938 0
447.9891357421875 73 0 443.215301513671875 71.6451644897460938 0
447.9891357421875 73 150 443.215301513671875 71.6451644897460938 0
457.9891357421875 73 150 443.215301513671875 71.6451644897460938 0
457.9891357421875 42 0 443.215301513671875 39.6451606750488281 0
447.9891357421875 42 0 443.215301513671875 39.6451606750488281 0
447.9891357421875 42 150 443.215301513671875 39.6451606750488281 0
457.9891357421875 42 150 443.215301513671875 39.6451606750488281 0
482 305 0 470.243896484375 298.56097412109375 0
472 305 0 470.243896484375 298.56097412109375 0
472 305 150 470.243896484375 298.56097412109375 0
482 305 150 470.243896484375 298.56097412109375 0
482 264 0 470.243896484375 256.56097412109375 0
472 264 0 470.243896484375 256.56097412109375 0
472 264 150 470.243896484375 256.56097412109375 0
482 264 150 470.243896484375 256.56097412109375 0
150 403 0 147.25 392.92498779296875 0
150 393 0 147.25 392.92498779296875 0
150 393 150 147.25 392.92498779296875 0
150 403 150 147.25 392.92498779296875 0
377 415.496124267578125 0 366.57574462890625 402.90533447265625 0
377 425.496124267578125 0 366.57574462890625 402.90533447265625 0
377 425.496124267578125 150 366.57574462890625 402.90533447265625 0
377 415.496124267578125 150 366.57574462890625 402.90533447265625 0
344 415.496124267578125 0 332.57574462890625 402.90533447265625 0
344 425.496124267578125 0 332.57574462890625 402.90533447265625 0
344 425.496124267578125 150 332.57574462890625 402.90533447265625 0
344 415.496124267578125 150 332.57574462890625 402.90533447265625 0
477 258.5 0 458.920013427734375 248.160003662109375 0
477 268.5 0 458.920013427734375 248.160003662109375 0
477 268.5 150 458.920013427734375 248.160003662109375 0
477 258.5 150 458.920013427734375 248.160003662109375 0
452 258.5 0 432.920013427734375 248.160003662109375 0
452 268.5 0 432.920013427734375 248.160003662109375 0
452 268.5 150 432.920013427734375 248.160003662109375 0
452 258.5 150 432.920013427734375 248.160003662109375 0
594.5 285 0 567.477294921875 273.045440673828125 0
584.5 285 0 567.477294921875 273.045440673828125 0
584.5 285 150 567.477294921875 273.045440673828125 0
594.5 285 150 567.477294921875 273.045440673828125 0
594.5 263 0 567.477294921875 250.045455932617188 0
584.5 263 0 567.477294921875 250.045455932617188 0
584.5 263 150 567.477294921875 250.045455932617188 0
594.5 263 150 567.477294921875 250.045455932617188 0
531 305 0 519.45654296875 299.36956787109375 0
541 305 0 519.45654296875 299.36956787109375 0
541 305 150 519.45654296875 299.36956787109375 0
531 305 150 519.45654296875 299.36956787109375 0
244 392.51470947265625 0 238.028564453125 381.29998779296875 0
244 402.51470947265625 0 238.028564453125 381.29998779296875 0
244 402.51470947265625 150 238.028564453125 381.29998779296875 0
244 392.51470947265625 150 238.028564453125 381.29998779296875 0
209 392.51470947265625 0 202.028564453125 381.29998779296875 0
209 402.51470947265625 0 202.028564453125 381.29998779296875 0
209 402.51470947265625 150 202.028564453125 381.29998779296875 0
209 392.51470947265625 150 202.028564453125 381.29998779296875 0
471 527 0 445.833343505859375 497.72222900390625 0
471 537 0 445.833343505859375 497.72222900390625 0
471 537 150 445.833343505859375 497.72222900390625 0
471 527 150 445.833343505859375 497.72222900390625 0
453 527 0 426.833343505859375 497.72222900390625 0
453 537 0 426.833343505859375 497.72222900390625 0
453 537 150 426.833343505859375 497.72222900390625 0
453 527 150 426.833343505859375 497.72222900390625 0
310 60.5 0 299.518524169921875 58.2592582702636719 0
310 70.5 0 299.518524169921875 58.2592582702636719 0
310 70.5 150 299.518524169921875 58.2592582702636719 0
310 60.5 150 299.518524169921875 58.2592582702636719 0
283 60.5 0 271.518524169921875 58.2592582702636719 0
283 70.5 0 271.518524169921875 58.2592582702636719 0
283 70.5 150 271.518524169921875 58.2592582702636719 0
283 60.5 150 271.518524169921875 58.2592582702636719 0
309.621368408203125 282.314239501953125 0 293.1702880859375 268.66192626953125 0
316.378631591796875 289.685760498046875 0 293.1702880859375 268.66192626953125 0
316.378631591796875 289.685760498046875 150 293.1702880859375 268.66192626953125 0
309.621368408203125 282.314239501953125 150 293.1702880859375 268.66192626953125 0
353 43 0 339.925933837890625 42.4074058532714844 0
363 43 0 339.925933837890625 42.4074058532714844 0
363 43 150 339.925933837890625 42.4074058532714844 0
353 43 150 339.925933837890625 42.4074058532714844 0
585 308 0 564.10711669921875 298 0
595 308 0 564.10711669921875 298 0
595 308 150 564.10711669921875 298 0
585 308 150 564.10711669921875 298 0
307.500030517578125 41.9860343933105469 0 305.831756591796875 40.7578697204589844 0
317.499969482421875 42.0139656066894531 0 305.831756591796875 40.7578697204589844 0
317.499969482421875 42.0139656066894531 150 305.831756591796875 40.7578697204589844 0
307.500030517578125 41.9860343933105469 150 305.831756591796875 40.7578697204589844 0
340 226 0 330.701324462890625 219.1544189453125 0
340 216 0 330.701324462890625 219.1544189453125 0
340 216 150 330.701324462890625 219.1544189453125 0
340 226 150 330.701324462890625 219.1544189453125 0
117.013221740722656 291.23004150390625 0 114.739898681640625 288.06353759765625 0
116.986778259277344 281.230072021484375 0 114.739898681640625 288.06353759765625 0
116.986778259277344 281.230072021484375 150 114.739898681640625 288.06353759765625 0
117.013221740722656 291.23004150390625 150 114.739898681640625 288.06353759765625 0
209.4991455078125 259.09259033203125 0 202.950271606445312 249.970703125 0
199.5008544921875 258.90740966796875 0 202.950271606445312 249.970703125 0
199.5008544921875 258.90740966796875 150 202.950271606445312 249.970703125 0
209.4991455078125 259.09259033203125 150 202.950271606445312 249.970703125 0
700 394 0 682.96905517578125 385.41400146484375 0
690 394 0 682.96905517578125 385.41400146484375 0
690 394 150 682.96905517578125 385.41400146484375 0
700 394 150 682.96905517578125 385.41400146484375 0
670.89947509765625 353.4837646484375 0 646.84979248046875 341.359375 0
671.10052490234375 363.48175048828125 0 646.84979248046875 341.359375 0
671.10052490234375 363.48175048828125 150 646.84979248046875 341.359375 0
670.89947509765625 353.4837646484375 150 646.84979248046875 341.359375 0
246 291 0 241.53521728515625 286.901397705078125 0
246 281 0 241.53521728515625 286.901397705078125 0
246 281 150 241.53521728515625 286.901397705078125 0
246 291 150 241.53521728515625 286.901397705078125 0
690.50054931640625 452.926483154296875 0 666.76763916015625 436.349609375 0
700.49945068359375 453.073516845703125 0 666.76763916015625 436.349609375 0
700.49945068359375 453.073516845703125 150 666.76763916015625 436.349609375 0
690.50054931640625 452.926483154296875 150 666.76763916015625 436.349609375 0
653.86846923828125 527.501708984375 0 606.61468505859375 490.21295166015625 0
654.13153076171875 537.498291015625 0 606.61468505859375 490.21295166015625 0
654.13153076171875 537.498291015625 150 606.61468505859375 490.21295166015625 0
653.86846923828125 527.501708984375 150 606.61468505859375 490.21295166015625 0
266.500152587890625 287.9615478515625 0 262.06915283203125 282.165435791015625 0
276.499847412109375 288.0384521484375 0 262.06915283203125 282.165435791015625 0
276.499847412109375 288.0384521484375 150 262.06915283203125 282.165435791015625 0
266.500152587890625 287.9615478515625 150 262.06915283203125 282.165435791015625 0
401 48 0 366.583343505859375 44 0
401 38 0 366.583343505859375 44 0
401 38 150 366.583343505859375 44 0
401 48 150 366.583343505859375 44 0
120 393 0 0 0 -1
110 403 0 0 0 -1
110 61 0 0 0 -1
120 71 0 0 0 -1
120 393 150 0 0 1
110 403 150 0 0 1
110 61 150 0 0 1
120 71 150 0 0 1
110 403 0 0 0 -1
120 393 0 0 0 -1
150 393 0 0 0 -1
150 403 0 0 0 -1
110 403 150 0 0 1
120 393 150 0 0 1
150 393 150 0 0 1
150 403 150 0 0 1
120 71 0 0 0 -1
110 61 0 0 0 -1
145 61 0 0 0 -1
145 71 0 0 0 -1
120 71 150 0 0 1
110 61 150 0 0 1
145 61 150 0 0 1
145 71 150 0 0 1
457 316 0 0 0 -1
447 316 0 0 0 -1
447 303 0 0 0 -1
457 313 0 0 0 -1
457 316 150 0 0 1
447 316 150 0 0 1
447 303 150 0 0 1
457 313 150 0 0 1
457 313 0 0 0 -1
447 303 0 0 0 -1
589 303 0 0 0 -1
589 313 0 0 0 -1
457 313 150 0 0 1
447 303 150 0 0 1
589 303 150 0 0 1
589 313 150 0 0 1
457.964599609375 532 0 0 0 -1
447.964599609375 532 0 0 0 -1
447.964599609375 349 0 0 0 -1
457.964599609375 349 0 0 0 -1
457.964599609375 532 150 0 0 1
447.964599609375 532 150 0 0 1
447.964599609375 349 150 0 0 1
457.964599609375 349 150 0 0 1
677 317 0 0 0 -1
667 317 0 0 0 -1
667 156 0 0 0 -1
677 156 0 0 0 -1
677 317 150 0 0 1
667 317 150 0 0 1
667 156 150 0 0 1
677 156 150 0 0 1
250.5 286 0 0 0 -1
240.5 286 0 0 0 -1
240.5 263 0 0 0 -1
250.5 263 0 0 0 -1
250.5 286 150 0 0 1
240.5 286 150 0 0 1
240.5 263 150 0 0 1
250.5 263 150 0 0 1
252.866241455078125 155 0 0 0 -1
242.866241455078125 155 0 0 0 -1
242.866241455078125 100 0 0 0 -1
252.866241455078125 100 0 0 0 -1
252.866241455078125 155 150 0 0 1
242.866241455078125 155 150 0 0 1
242.866241455078125 100 150 0 0 1
252.866241455078125 100 150 0 0 1
384.489532470703125 429 0 0 0 -1
374.489532470703125 429 0 0 0 -1
374.489532470703125 308 0 0 0 -1
384.489532470703125 308 0 0 0 -1
384.489532470703125 429 150 0 0 1
374.489532470703125 429 150 0 0 1
374.489532470703125 308 150 0 0 1
384.489532470703125 308 150 0 0 1
250.5076904296875 223 0 0 0 -1
240.5076904296875 223 0 0 0 -1
240.5076904296875 190 0 0 0 -1
250.5076904296875 190 0 0 0 -1
250.5076904296875 223 150 0 0 1
240.5076904296875 223 150 0 0 1
240.5076904296875 190 150 0 0 1
250.5076904296875 190 150 0 0 1
310 150 0 0 0 -1
310 160 0 0 0 -1
248 160 0 0 0 -1
248 150 0 0 0 -1
310 150 150 0 0 1
310 160 150 0 0 1
248 160 150 0 0 1
248 150 150 0 0 1
413 16 0 0 0 -1
403 26 0 0 0 -1
363 26 0 0 0 -1
353 16 0 0 0 -1
413 16 150 0 0 1
403 26 150 0 0 1
363 26 150 0 0 1
353 16 150 0 0 1
403 26 0 0 0 -1
413 16 0 0 0 -1
413 48 0 0 0 -1
403 38 0 0 0 -1
403 26 150 0 0 1
413 16 150 0 0 1
413 48 150 0 0 1
403 38 150 0 0 1
353 16 0 0 0 -1
363 26 0 0 0 -1
363 43 0 0 0 -1
353 43 0 0 0 -1
353 16 150 0 0 1
363 26 150 0 0 1
363 43 150 0 0 1
353 43 150 0 0 1
670 280 0 0 0 -1
670 290 0 0 0 -1
595 290 0 0 0 -1
585 280 0 0 0 -1
670 280 150 0 0 1
670 290 150 0 0 1
595 290 150 0 0 1
585 280 150 0 0 1
585 280 0 0 0 -1
595 290 0 0 0 -1
595 308 0 0 0 -1
585 308 0 0 0 -1
585 280 150 0 0 1
595 290 150 0 0 1
595 308 150 0 0 1
585 308 150 0 0 1
286 415 0 0 0 -1
286 425 0 0 0 -1
243 425 0 0 0 -1
253 415 0 0 0 -1
286 415 150 0 0 1
286 425 150 0 0 1
243 425 150 0 0 1
253 415 150 0 0 1
253 415 0 0 0 -1
243 425 0 0 0 -1
243 348 0 0 0 -1
253 358 0 0 0 -1
253 415 150 0 0 1
243 425 150 0 0 1
243 348 150 0 0 1
253 358 150 0 0 1
672 150.5 0 0 0 -1
672 160.5 0 0 0 -1
643 160.5 0 0 0 -1
643 150.5 0 0 0 -1
672 150.5 150 0 0 1
672 160.5 150 0 0 1
643 160.5 150 0 0 1
643 150.5 150 0 0 1
253 358 0 0 0 -1
243 348 0 0 0 -1
266.038299560546875 348 0 0 0 -1
275.961700439453125 358 0 0 0 -1
253 358 150 0 0 1
243 348 150 0 0 1
266.038299560546875 348 150 0 0 1
275.961700439453125 358 150 0 0 1
257 60.5089836120605469 0 0 0 -1
257 70.5089797973632812 0 0 0 -1
215 70.5089797973632812 0 0 0 -1
215 60.5089836120605469 0 0 0 -1
257 60.5089836120605469 150 0 0 1
257 70.5089797973632812 150 0 0 1
215 70.5089797973632812 150 0 0 1
215 60.5089836120605469 150 0 0 1
595 150.507110595703125 0 0 0 -1
595 160.507110595703125 0 0 0 -1
542 160.507110595703125 0 0 0 -1
542 150.507110595703125 0 0 0 -1
595 150.507110595703125 150 0 0 1
595 160.507110595703125 150 0 0 1
542 160.507110595703125 150 0 0 1
542 150.507110595703125 150 0 0 1
210 218.652175903320312 0 0 0 -1
210 228.652175903320312 0 0 0 -1
118 228.652175903320312 0 0 0 -1
118 218.652175903320312 0 0 0 -1
210 218.652175903320312 150 0 0 1
210 228.652175903320312 150 0 0 1
118 228.652175903320312 150 0 0 1
118 218.652175903320312 150 0 0 1
312 218 0 0 0 -1
312 228 0 0 0 -1
246 228 0 0 0 -1
246 218 0 0 0 -1
312 218 150 0 0 1
312 228 150 0 0 1
246 228 150 0 0 1
246 218 150 0 0 1
561 259 0 0 0 -1
561 269 0 0 0 -1
541 269 0 0 0 -1
531 259 0 0 0 -1
561 259 150 0 0 1
561 269 150 0 0 1
541 269 150 0 0 1
531 259 150 0 0 1
531 259 0 0 0 -1
541 269 0 0 0 -1
541 305 0 0 0 -1
531 305 0 0 0 -1
531 259 150 0 0 1
541 269 150 0 0 1
541 305 150 0 0 1
531 305 150 0 0 1
471 150.5 0 0 0 -1
471 160.5 0 0 0 -1
452 160.5 0 0 0 -1
452 150.5 0 0 0 -1
471 150.5 150 0 0 1
471 160.5 150 0 0 1
452 160.5 150 0 0 1
452 150.5 150 0 0 1
457.9891357421875 73 0 0 0 -1
447.9891357421875 73 0 0 0 -1
447.9891357421875 42 0 0 0 -1
457.9891357421875 42 0 0 0 -1
457.9891357421875 73 150 0 0 1
447.9891357421875 73 150 0 0 1
447.9891357421875 42 150 0 0 1
457.9891357421875 42 150 0 0 1
482 305 0 0 0 -1
472 305 0 0 0 -1
472 264 0 0 0 -1
482 264 0 0 0 -1
482 305 150 0 0 1
472 305 150 0 0 1
472 264 150 0 0 1
482 264 150 0 0 1
377 415.496124267578125 0 0 0 -1
377 425.496124267578125 0 0 0 -1
344 425.496124267578125 0 0 0 -1
344 415.496124267578125 0 0 0 -1
377 415.496124267578125 150 0 0 1
377 425.496124267578125 150 0 0 1
344 425.496124267578125 150 0 0 1
344 415.496124267578125 150 0 0 1
349.85400390625 259 0 0 0 -1
324.14599609375 269 0 0 0 -1
317 269 0 0 0 -1
307 259 0 0 0 -1
349.85400390625 259 150 0 0 1
324.14599609375 269 150 0 0 1
317 269 150 0 0 1
307 259 150 0 0 1
324.14599609375 269 0 0 0 -1
349.85400390625 259 0 0 0 -1
316.378631591796875 289.685760498046875 0 0 0 -1
309.621368408203125 282.314239501953125 0 0 0 -1
324.14599609375 269 150 0 0 1
349.85400390625 259 150 0 0 1
316.378631591796875 289.685760498046875 150 0 0 1
309.621368408203125 282.314239501953125 150 0 0 1
307 259 0 0 0 -1
317 269 0 0 0 -1
317 291 0 0 0 -1
307 281 0 0 0 -1
307 259 150 0 0 1
317 269 150 0 0 1
317 291 150 0 0 1
307 281 150 0 0 1
477 258.5 0 0 0 -1
477 268.5 0 0 0 -1
452 268.5 0 0 0 -1
452 258.5 0 0 0 -1
477 258.5 150 0 0 1
477 268.5 150 0 0 1
452 268.5 150 0 0 1
452 258.5 150 0 0 1
594.5 285 0 0 0 -1
584.5 285 0 0 0 -1
584.5 263 0 0 0 -1
594.5 263 0 0 0 -1
594.5 285 150 0 0 1
584.5 285 150 0 0 1
584.5 263 150 0 0 1
594.5 263 150 0 0 1
244 392.51470947265625 0 0 0 -1
244 402.51470947265625 0 0 0 -1
209 402.51470947265625 0 0 0 -1
209 392.51470947265625 0 0 0 -1
244 392.51470947265625 150 0 0 1
244 402.51470947265625 150 0 0 1
209 402.51470947265625 150 0 0 1
209 392.51470947265625 150 0 0 1
471 527 0 0 0 -1
471 537 0 0 0 -1
453 537 0 0 0 -1
453 527 0 0 0 -1
471 527 150 0 0 1
471 537 150 0 0 1
453 537 150 0 0 1
453 527 150 0 0 1
310 60.5 0 0 0 -1
310 70.5 0 0 0 -1
283 70.5 0 0 0 -1
283 60.5 0 0 0 -1
310 60.5 150 0 0 1
310 70.5 150 0 0 1
283 70.5 150 0 0 1
283 60.5 150 0 0 1
307.500030517578125 41.9860343933105469 0 0 0 -1
317.499969482421875 42.0139656066894531 0 0 0 -1
317.01397705078125 216 0 0 0 -1
306.98602294921875 226 0 0 0 -1
307.500030517578125 41.9860343933105469 150 0 0 1
317.499969482421875 42.0139656066894531 150 0 0 1
317.01397705078125 216 150 0 0 1
306.98602294921875 226 150 0 0 1
306.98602294921875 226 0 0 0 -1
317.01397705078125 216 0 0 0 -1
340 216 0 0 0 -1
340 226 0 0 0 -1
306.98602294921875 226 150 0 0 1
317.01397705078125 216 150 0 0 1
340 216 150 0 0 1
340 226 150 0 0 1
117.013221740722656 291.23004150390625 0 0 0 -1
116.986778259277344 281.230072021484375 0 0 0 -1
199.09149169921875 281.012969970703125 0 0 0 -1
208.90850830078125 290.987030029296875 0 0 0 -1
117.013221740722656 291.23004150390625 150 0 0 1
116.986778259277344 281.230072021484375 150 0 0 1
199.09149169921875 281.012969970703125 150 0 0 1
208.90850830078125 290.987030029296875 150 0 0 1
208.90850830078125 290.987030029296875 0 0 0 -1
199.09149169921875 281.012969970703125 0 0 0 -1
199.5008544921875 258.90740966796875 0 0 0 -1
209.4991455078125 259.09259033203125 0 0 0 -1
208.90850830078125 290.987030029296875 150 0 0 1
199.09149169921875 281.012969970703125 150 0 0 1
199.5008544921875 258.90740966796875 150 0 0 1
209.4991455078125 259.09259033203125 150 0 0 1
700 394 0 0 0 -1
690 394 0 0 0 -1
690 363.101593017578125 0 0 0 -1
700 352.898406982421875 0 0 0 -1
700 394 150 0 0 1
690 394 150 0 0 1
690 363.101593017578125 150 0 0 1
700 352.898406982421875 150 0 0 1
700 352.898406982421875 0 0 0 -1
690 363.101593017578125 0 0 0 -1
671.10052490234375 363.48175048828125 0 0 0 -1
670.89947509765625 353.4837646484375 0 0 0 -1
700 352.898406982421875 150 0 0 1
690 363.101593017578125 150 0 0 1
671.10052490234375 363.48175048828125 150 0 0 1
670.89947509765625 353.4837646484375 150 0 0 1
246 291 0 0 0 -1
246 281 0 0 0 -1
307 281 0 0 0 -1
317 291 0 0 0 -1
246 291 150 0 0 1
246 281 150 0 0 1
307 281 150 0 0 1
317 291 150 0 0 1
690.50054931640625 452.926483154296875 0 0 0 -1
700.49945068359375 453.073516845703125 0 0 0 -1
699.927001953125 492 0 0 0 -1
690.072998046875 482 0 0 0 -1
690.50054931640625 452.926483154296875 150 0 0 1
700.49945068359375 453.073516845703125 150 0 0 1
699.927001953125 492 150 0 0 1
690.072998046875 482 150 0 0 1
690.072998046875 482 0 0 0 -1
699.927001953125 492 0 0 0 -1
678 492 0 0 0 -1
668 482 0 0 0 -1
690.072998046875 482 150 0 0 1
699.927001953125 492 150 0 0 1
678 492 150 0 0 1
668 482 150 0 0 1
668 482 0 0 0 -1
678 492 0 0 0 -1
678 536.87017822265625 0 0 0 -1
668 527.12982177734375 0 0 0 -1
668 482 150 0 0 1
678 492 150 0 0 1
678 536.87017822265625 150 0 0 1
668 527.12982177734375 150 0 0 1
668 527.12982177734375 0 0 0 -1
678 536.87017822265625 0 0 0 -1
654.13153076171875 537.498291015625 0 0 0 -1
653.86846923828125 527.501708984375 0 0 0 -1
668 527.12982177734375 150 0 0 1
678 536.87017822265625 150 0 0 1
654.13153076171875 537.498291015625 150 0 0 1
653.86846923828125 527.501708984375 150 0 0 1
266.500152587890625 287.9615478515625 0 0 0 -1
276.499847412109375 288.0384521484375 0 0 0 -1
275.961700439453125 358 0 0 0 -1
266.038299560546875 348 0 0 0 -1
266.500152587890625 287.9615478515625 150 0 0 1
276.499847412109375 288.0384521484375 150 0 0 1
275.961700439453125 358 150 0 0 1
266.038299560546875 348 150 0 0 1
401 48 0 0 0 -1
401 38 0 0 0 -1
403 38 0 0 0 -1
413 48 0 0 0 -1
401 48 150 0 0 1
401 38 150 0 0 1
403 38 150 0 0 1
413 48 150 0 0 1
4 0 1 2 3
4 4 5 6 7
4 8 9 10 11
4 12 13 14 15
4 16 17 18 19
4 20 21 22 23
4 24 25 26 27
4 28 29 30 31
4 32 33 34 35
4 36 37 38 39
4 40 41 42 43
4 44 45 46 47
4 48 49 50 51
4 52 53 54 55
4 56 57 58 59
4 60 61 62 63
4 64 65 66 67
4 68 69 70 71
4 72 73 74 75
4 76 77 78 79
4 80 81 82 83
4 84 85 86 87
4 88 89 90 91
4 92 93 94 95
4 96 97 98 99
4 100 101 102 103
4 104 105 106 107
4 108 109 110 111
4 112 113 114 115
4 116 117 118 119
4 120 121 122 123
4 124 125 126 127
4 128 129 130 131
4 132 133 134 135
4 136 137 138 139
4 140 141 142 143
4 144 145 146 147
4 148 149 150 151
4 152 153 154 155
4 156 157 158 159
4 160 161 162 163
4 164 165 166 167
4 168 169 170 171
4 172 173 174 175
4 176 177 178 179
4 180 181 182 183
4 184 185 186 187
4 188 189 190 191
4 192 193 194 195
4 196 197 198 199
4 200 201 202 203
4 204 205 206 207
4 208 209 210 211
4 212 213 214 215
4 216 217 218 219
4 220 221 222 223
4 224 225 226 227
4 228 229 230 231
4 232 233 234 235
4 236 237 238 239
4 240 241 242 243
4 244 245 246 247
4 248 249 250 251
4 252 253 254 255
4 256 257 258 259
4 260 261 262 263
4 264 265 266 267
4 268 269 270 271
4 272 273 274 275
4 276 277 278 279
4 280 281 282 283
4 284 285 286 287
4 288 289 290 291
4 292 293 294 295
4 296 297 298 299
4 300 301 302 303
4 304 305 306 307
4 308 309 310 311
4 312 313 314 315
4 316 317 318 319
4 320 321 322 323
4 324 325 326 327
4 328 329 330 331
4 332 333 334 335
4 336 337 338 339
4 340 341 342 343
4 344 345 346 347
4 348 349 350 351
4 352 353 354 355
4 356 357 358 359
4 360 361 362 363
4 364 365 366 367
4 368 369 370 371
4 372 373 374 375
4 376 377 378 379
4 380 381 382 383
4 384 385 386 387
4 388 389 390 391
4 392 393 394 395
4 396 397 398 399
4 400 401 402 403
4 404 405 406 407
4 408 409 410 411
4 412 413 414 415
4 416 417 418 419
4 420 421 422 423
4 424 425 426 427
4 428 429 430 431
4 432 433 434 435
4 436 437 438 439
4 440 441 442 443
4 444 445 446 447
4 448 449 450 451
4 452 453 454 455
4 456 457 458 459
4 460 461 462 463
4 464 465 466 467
4 468 469 470 471
4 472 473 474 475
4 476 477 478 479
4 480 481 482 483
4 484 485 486 487
4 488 489 490 491
4 492 493 494 495
4 496 497 498 499
4 500 501 502 503
4 504 505 506 507
4 508 509 510 511
4 512 513 514 515
4 516 517 518 519
4 520 521 522 523
4 524 525 526 527
4 528 529 530 531
4 532 533 534 535
4 536 537 538 539
4 540 541 542 543
4 544 545 546 547
4 548 549 550 551
4 552 553 554 555
4 556 557 558 559
4 560 561 562 563
4 564 565 566 567
4 568 569 570 571
4 572 573 574 575
4 576 577 578 579
4 580 581 582 583
4 584 585 586 587
4 588 589 590 591
4 592 593 594 595
4 596 597 598 599
4 600 601 602 603
4 604 605 606 607
4 608 609 610 611
4 612 613 614 615
4 616 617 618 619
4 620 621 622 623
4 624 625 626 627
4 628 629 630 631
4 632 633 634 635
4 636 637 638 639
4 640 641 642 643
4 644 645 646 647
4 648 649 650 651
4 652 653 654 655
4 656 657 658 659
4 660 661 662 663
4 664 665 666 667
4 668 669 670 671
4 672 673 674 675
4 676 677 678 679
4 680 681 682 683
4 684 685 686 687
4 688 689 690 691
4 692 693 694 695
4 696 697 698 699
4 700 701 702 703
4 704 705 706 707
4 708 709 710 711
4 712 713 714 715
4 716 717 718 719
4 720 721 722 723
4 724 725 726 727
4 728 729 730 731
4 732 733 734 735
4 736 737 738 739
4 740 741 742 743
4 744 745 746 747
4 748 749 750 751
4 752 753 754 755
4 756 757 758 759
4 760 761 762 763
4 764 765 766 767
4 768 769 770 771
4 772 773 774 775
4 776 777 778 779
4 780 781 782 783
4 784 785 786 787
4 788 789 790 791
4 792 793 794 795
4 796 797 798 799
4 800 801 802 803
4 804 805 806 807
4 808 809 810 811
4 812 813 814 815
4 816 817 818 819
4 820 821 822 823
4 824 825 826 827
4 828 829 830 831
4 832 833 834 835
4 836 837 838 839
4 840 841 842 843
4 844 845 846 847
4 848 849 850 851
4 852 853 854 855
4 856 857 858 859
4 860 861 862 863
4 864 865 866 867
4 868 869 870 871
4 872 873 874 875
4 876 877 878 879
4 880 881 882 883
4 884 885 886 887
4 888 889 890 891
4 892 893 894 895
4 896 897 898 899
4 900 901 902 903
4 904 905 906 907
4 908 909 910 911
4 912 913 914 915
4 916 917 918 919
4 920 921 922 923
4 924 925 926 927
4 928 929 930 931
4 932 933 934 935
4 936 937 938 939
4 940 941 942 943
4 944 945 946 947
4 948 949 950 951
4 952 953 954 955
4 956 957 958 959
4 960 961 962 963
4 964 965 966 967
4 968 969 970 971
4 972 973 974 975
4 976 977 978 979
4 980 981 982 983
4 984 985 986 987
4 988 989 990 991
4 992 993 994 995
4 996 997 998 999
4 1000 1001 1002 1003
4 1004 1005 1006 1007
4 1008 1009 1010 1011
4 1012 1013 1014 1015
4 1016 1017 1018 1019
4 1020 1021 1022 1023
4 1024 1025 1026 1027
4 1028 1029 1030 1031
4 1032 1033 1034 1035
4 1036 1037 1038 1039
4 1040 1041 1042 1043
4 1044 1045 1046 1047
4 1048 1049 1050 1051
4 1052 1053 1054 1055
4 1056 1057 1058 1059
4 1060 1061 1062 1063
4 1064 1065 1066 1067
4 1068 1069 1070 1071
4 1072 1073 1074 1075
4 1076 1077 1078 1079
4 1080 1081 1082 1083
4 1084 1085 1086 1087
