ply
format ascii 1.0
element vertex 1058
property float x
property float y
property float z
property float nx
property float ny
property float nz
element quads 263
property list uchar int vertex_indices
element triads 2
property list uchar int vertex_indices
end_header
144.448348999023438 477 0 1 0 0
144.448348999023438 192 0 1 0 0
144.448348999023438 192 150 1 0 0
144.448348999023438 477 150 1 0 0
134.448348999023438 477 0 -1 -0 0
134.448348999023438 192 0 -1 -0 0
134.448348999023438 192 150 -1 -0 0
134.448348999023438 477 150 -1 -0 0
662 252 0 1 0 0
662 42 0 1 0 0
662 42 150 1 0 0
662 252 150 1 0 0
652 262 0 -1 -0 0
652 42 0 -1 -0 0
652 42 150 -1 -0 0
652 262 150 -1 -0 0
652 262 0 -0 1 0
687 262 0 -0 1 0
687 262 150 -0 1 0
652 262 150 -0 1 0
662 252 0 0 -1 0
697 252 0 0 -1 0
697 252 150 0 -1 0
662 252 150 0 -1 0
355 148.912017822265625 0 -0 -1 0
175 148.912017822265625 0 -0 -1 0
175 148.912017822265625 150 -0 -1 0
355 148.912017822265625 150 -0 -1 0
355 158.912017822265625 0 0 1 0
175 158.912017822265625 0 0 1 0
175 158.912017822265625 150 0 1 0
355 158.912017822265625 150 0 1 0
602 38.5314292907714844 0 -0 -1 0
509 38.5314292907714844 0 -0 -1 0
509 38.5314292907714844 150 -0 -1 0
602 38.5314292907714844 150 -0 -1 0
602 48.5314292907714844 0 0 1 0
509 48.5314292907714844 0 0 1 0
509 48.5314292907714844 150 0 1 0
602 48.5314292907714844 150 0 1 0
285.5787353515625 265 0 1 0 0
285.5787353515625 156 0 1 0 0
285.5787353515625 156 150 1 0 0
285.5787353515625 265 150 1 0 0
275.5787353515625 265 0 -1 -0 0
275.5787353515625 156 0 -1 -0 0
275.5787353515625 156 150 -1 -0 0
275.5787353515625 265 150 -1 -0 0
317.6934814453125 279 0 1 0 0
317.6934814453125 231 0 1 0 0
317.6934814453125 231 150 1 0 0
317.6934814453125 279 150 1 0 0
307.6934814453125 279 0 -1 -0 0
307.6934814453125 231 0 -1 -0 0
307.6934814453125 231 150 -1 -0 0
307.6934814453125 279 150 -1 -0 0
587 12.604456901550293 0 -0 -1 0
524 12.604456901550293 0 -0 -1 0
524 12.604456901550293 150 -0 -1 0
587 12.604456901550293 150 -0 -1 0
587 22.6044559478759766 0 0 1 0
524 22.6044559478759766 0 0 1 0
524 22.6044559478759766 150 0 1 0
587 22.6044559478759766 150 0 1 0
485 518.45452880859375 0 -0 -1 0
473 518.45452880859375 0 -0 -1 0
473 518.45452880859375 150 -0 -1 0
485 518.45452880859375 150 -0 -1 0
485 528.45452880859375 0 0 1 0
473 528.45452880859375 0 0 1 0
473 528.45452880859375 150 0 1 0
485 528.45452880859375 150 0 1 0
374 486.970245361328125 0 -0 -1 0
319 486.970245361328125 0 -0 -1 0
319 486.970245361328125 150 -0 -1 0
374 486.970245361328125 150 -0 -1 0
374 496.970245361328125 0 0 1 0
319 496.970245361328125 0 0 1 0
319 496.970245361328125 150 0 1 0
374 496.970245361328125 150 0 1 0
313.901641845703125 417 0 1 0 0
313.901641845703125 358 0 1 0 0
313.901641845703125 358 150 1 0 0
313.901641845703125 417 150 1 0 0
303.901641845703125 417 0 -1 -0 0
303.901641845703125 358 0 -1 -0 0
303.901641845703125 358 150 -1 -0 0
303.901641845703125 417 150 -1 -0 0
250.20391845703125 346.286041259765625 0 0.698848068714141846 0.715270102024078369 0
284.272125244140625 313 0 0.698848068714141846 0.715270102024078369 0
284.272125244140625 313 150 0.698848068714141846 0.715270102024078369 0
250.20391845703125 346.286041259765625 150 0.698848068714141846 0.715270102024078369 0
243.215438842773438 339.133331298828125 0 -0.698848068714141846 -0.715270102024078369 0
259.727874755859375 323 0 -0.698848068714141846 -0.715270102024078369 0
259.727874755859375 323 150 -0.698848068714141846 -0.715270102024078369 0
243.215438842773438 339.133331298828125 150 -0.698848068714141846 -0.715270102024078369 0
284.272125244140625 313 0 -0 -1 0
246 313 0 -0 -1 0
246 313 150 -0 -1 0
284.272125244140625 313 150 -0 -1 0
259.727874755859375 323 0 0 1 0
256 323 0 0 1 0
256 323 150 0 1 0
259.727874755859375 323 150 0 1 0
452 147.931930541992188 0 -0 -1 0
412 147.931930541992188 0 -0 -1 0
412 147.931930541992188 150 -0 -1 0
452 147.931930541992188 150 -0 -1 0
452 157.931930541992188 0 0 1 0
412 157.931930541992188 0 0 1 0
412 157.931930541992188 150 0 1 0
452 157.931930541992188 150 0 1 0
447 518.984375 0 -0 -1 0
406 518.984375 0 -0 -1 0
406 518.984375 150 -0 -1 0
447 518.984375 150 -0 -1 0
447 528.984375 0 0 1 0
406 528.984375 0 0 1 0
406 528.984375 150 0 1 0
447 528.984375 150 0 1 0
259 304 0 -0 -1 0
214 304 0 -0 -1 0
214 304 150 -0 -1 0
259 304 150 -0 -1 0
259 314 0 0 1 0
224 314 0 0 1 0
224 314 150 0 1 0
259 314 150 0 1 0
214 304 0 -1 0 0
214 338 0 -1 0 0
214 338 150 -1 0 0
214 304 150 -1 0 0
224 314 0 1 -0 0
224 338 0 1 -0 0
224 338 150 1 -0 0
224 314 150 1 -0 0
411 505 0 -0 -1 0
381 505 0 -0 -1 0
381 505 150 -0 -1 0
411 505 150 -0 -1 0
411 515 0 0 1 0
371 515 0 0 1 0
371 515 150 0 1 0
411 515 150 0 1 0
381 505 0 1 0 0
381 414 0 1 0 0
381 414 150 1 0 0
381 505 150 1 0 0
371 515 0 -1 -0 0
371 424 0 -1 -0 0
371 424 150 -1 -0 0
371 515 150 -1 -0 0
687 262 0 -1 0 0
687 347.046661376953125 0 -1 0 0
687 347.046661376953125 150 -1 0 0
687 262 150 -1 0 0
697 252 0 1 -0 0
697 356.953338623046875 0 1 -0 0
697 356.953338623046875 150 1 -0 0
697 252 150 1 -0 0
246 313 0 -1 0 0
246 336 0 -1 0 0
246 336 150 -1 0 0
246 313 150 -1 0 0
256 323 0 1 -0 0
256 336 0 1 -0 0
256 336 150 1 -0 0
256 323 150 1 -0 0
617.586181640625 289 0 1 0 0
617.586181640625 272 0 1 0 0
617.586181640625 272 150 1 0 0
617.586181640625 289 150 1 0 0
607.586181640625 289 0 -1 -0 0
607.586181640625 272 0 -1 -0 0
607.586181640625 272 150 -1 -0 0
607.586181640625 289 150 -1 -0 0
152 149.3265380859375 0 -0 -1 0
137 149.3265380859375 0 -0 -1 0
137 149.3265380859375 150 -0 -1 0
152 149.3265380859375 150 -0 -1 0
152 159.3265380859375 0 0 1 0
137 159.3265380859375 0 0 1 0
137 159.3265380859375 150 0 1 0
152 159.3265380859375 150 0 1 0
657 36.9142875671386719 0 -0 -1 0
641 36.9142875671386719 0 -0 -1 0
641 36.9142875671386719 150 -0 -1 0
657 36.9142875671386719 150 -0 -1 0
657 46.9142875671386719 0 0 1 0
641 46.9142875671386719 0 0 1 0
641 46.9142875671386719 150 0 1 0
657 46.9142875671386719 150 0 1 0
310 239.5 0 -0 -1 0
284 239.5 0 -0 -1 0
284 239.5 150 -0 -1 0
310 239.5 150 -0 -1 0
310 249.5 0 0 1 0
284 249.5 0 0 1 0
284 249.5 150 0 1 0
310 249.5 150 0 1 0
394 210 0 1 0 0
394 197 0 1 0 0
394 197 150 1 0 0
394 210 150 1 0 0
384 210 0 -1 -0 0
384 197 0 -1 -0 0
384 197 150 -1 -0 0
384 210 150 -1 -0 0
294 297 0 1 0 0
294 278 0 1 0 0
294 278 150 1 0 0
294 297 150 1 0 0
284 297 0 -1 -0 0
284 278 0 -1 -0 0
284 278 150 -1 -0 0
284 297 150 -1 -0 0
418 426 0 1 0 0
418 410 0 1 0 0
418 410 150 1 0 0
418 426 150 1 0 0
408 426 0 -1 -0 0
408 410 0 -1 -0 0
408 410 150 -1 -0 0
408 426 150 -1 -0 0
182 206 0 1 0 0
182 191 0 1 0 0
182 191 150 1 0 0
182 206 150 1 0 0
172 206 0 -1 -0 0
172 191 0 -1 -0 0
172 191 150 -1 -0 0
172 206 150 -1 -0 0
215.520004272460938 212 0 1 0 0
215.520004272460938 199 0 1 0 0
215.520004272460938 199 150 1 0 0
215.520004272460938 212 150 1 0 0
205.520004272460938 212 0 -1 -0 0
205.520004272460938 199 0 -1 -0 0
205.520004272460938 199 150 -1 -0 0
205.520004272460938 212 150 -1 -0 0
371 147 0 -0 -1 0
357 147 0 -0 -1 0
357 147 150 -0 -1 0
371 147 150 -0 -1 0
371 157 0 0 1 0
357 157 0 0 1 0
357 157 150 0 1 0
371 157 150 0 1 0
278 265 0 -1 0 0
278 270 0 -1 0 0
278 270 150 -1 0 0
278 265 150 -1 0 0
288 265 0 1 -0 0
288 270 0 1 -0 0
288 270 150 1 -0 0
288 265 150 1 -0 0
451.5 431 0 1 0 0
451.5 418 0 1 0 0
451.5 418 150 1 0 0
451.5 431 150 1 0 0
441.5 431 0 -1 -0 0
441.5 418 0 -1 -0 0
441.5 418 150 -1 -0 0
441.5 431 150 -1 -0 0
360 205 0 1 0 0
360 189 0 1 0 0
360 189 150 1 0 0
360 205 150 1 0 0
350 205 0 -1 -0 0
350 189 0 -1 -0 0
350 189 150 -1 -0 0
350 205 150 -1 -0 0
381 414 0 -0 -1 0
218.998016357421875 414 0 -0 -1 0
218.998016357421875 414 150 -0 -1 0
381 414 150 -0 -1 0
371 424 0 0 1 0
213.947052001953125 424 0 0 1 0
213.947052001953125 424 150 0 1 0
371 424 150 0 1 0
416.009033203125 359.178558349609375 0 0.0018037488916888833 0.999998390674591064 0
510 359.009033203125 0 0.0018037488916888833 0.999998390674591064 0
510 359.009033203125 150 0.0018037488916888833 0.999998390674591064 0
416.009033203125 359.178558349609375 150 0.0018037488916888833 0.999998390674591064 0
415.990966796875 349.1785888671875 0 -0.0018037488916888833 -0.999998390674591064 0
520 348.990966796875 0 -0.0018037488916888833 -0.999998390674591064 0
520 348.990966796875 150 -0.0018037488916888833 -0.999998390674591064 0
415.990966796875 349.1785888671875 150 -0.0018037488916888833 -0.999998390674591064 0
510 359.009033203125 0 -1 0 0
510 504.002044677734375 0 -1 0 0
510 504.002044677734375 150 -1 0 0
510 359.009033203125 150 -1 0 0
520 348.990966796875 0 1 -0 0
520 513.99798583984375 0 1 -0 0
520 513.99798583984375 150 1 -0 0
520 348.990966796875 150 1 -0 0
592.046875 357.937530517578125 0 0.00937718059867620468 0.999956011772155762 0
697 356.953338623046875 0 0.00937718059867620468 0.999956011772155762 0
697 356.953338623046875 150 0.00937718059867620468 0.999956011772155762 0
592.046875 357.937530517578125 150 0.00937718059867620468 0.999956011772155762 0
591.953125 347.93798828125 0 -0.00937718059867620468 -0.999956011772155762 0
687 347.046661376953125 0 -0.00937718059867620468 -0.999956011772155762 0
687 347.046661376953125 150 -0.00937718059867620468 -0.999956011772155762 0
591.953125 347.93798828125 150 -0.00937718059867620468 -0.999956011772155762 0
449.880889892578125 42.9832534790039062 0 -0.999994397163391113 -0.00334925646893680096 0
449.016571044921875 301.04449462890625 0 -0.999994397163391113 -0.00334925646893680096 0
449.016571044921875 301.04449462890625 150 -0.999994397163391113 -0.00334925646893680096 0
449.880889892578125 42.9832534790039062 150 -0.999994397163391113 -0.00334925646893680096 0
459.880828857421875 43.0167465209960938 0 0.999994397163391113 0.00334925646893680096 0
458.983428955078125 310.95550537109375 0 0.999994397163391113 0.00334925646893680096 0
458.983428955078125 310.95550537109375 150 0.999994397163391113 0.00334925646893680096 0
459.880828857421875 43.0167465209960938 150 0.999994397163391113 0.00334925646893680096 0
449.016571044921875 301.04449462890625 0 -0.00896887294948101044 -0.999959766864776611 0
342.955169677734375 301.99578857421875 0 -0.00896887294948101044 -0.999959766864776611 0
342.955169677734375 301.99578857421875 150 -0.00896887294948101044 -0.999959766864776611 0
449.016571044921875 301.04449462890625 150 -0.00896887294948101044 -0.999959766864776611 0
458.983428955078125 310.95550537109375 0 0.00896887294948101044 0.999959766864776611 0
343.044830322265625 311.995391845703125 0 0.00896887294948101044 0.999959766864776611 0
343.044830322265625 311.995391845703125 150 0.00896887294948101044 0.999959766864776611 0
458.983428955078125 310.95550537109375 150 0.00896887294948101044 0.999959766864776611 0
595.98175048828125 354.949920654296875 0 -0.999949872493743896 -0.0100150024518370628 0
595.0496826171875 448.012847900390625 0 -0.999949872493743896 -0.0100150024518370628 0
595.0496826171875 448.012847900390625 150 -0.999949872493743896 -0.0100150024518370628 0
595.98175048828125 354.949920654296875 150 -0.999949872493743896 -0.0100150024518370628 0
605.98126220703125 355.050079345703125 0 0.999949872493743896 0.0100150024518370628 0
604.9503173828125 457.987152099609375 0 0.999949872493743896 0.0100150024518370628 0
604.9503173828125 457.987152099609375 150 0.999949872493743896 0.0100150024518370628 0
605.98126220703125 355.050079345703125 150 0.999949872493743896 0.0100150024518370628 0
595.0496826171875 448.012847900390625 0 -0.00259895157068967819 -0.999996602535247803 0
517.98699951171875 448.213134765625 0 -0.00259895157068967819 -0.999996602535247803 0
517.98699951171875 448.213134765625 150 -0.00259895157068967819 -0.999996602535247803 0
595.0496826171875 448.012847900390625 150 -0.00259895157068967819 -0.999996602535247803 0
604.9503173828125 457.987152099609375 0 0.00259895157068967819 0.999996602535247803 0
518.01300048828125 458.213104248046875 0 0.00259895157068967819 0.999996602535247803 0
518.01300048828125 458.213104248046875 150 0.00259895157068967819 0.999996602535247803 0
604.9503173828125 457.987152099609375 150 0.00259895157068967819 0.999996602535247803 0
290.026885986328125 360.46221923828125 0 0.00537529913708567619 0.999985575675964355 0
371 360.026947021484375 0 0.00537529913708567619 0.999985575675964355 0
371 360.026947021484375 150 0.00537529913708567619 0.999985575675964355 0
290.026885986328125 360.46221923828125 150 0.00537529913708567619 0.999985575675964355 0
289.973114013671875 350.46234130859375 0 -0.00537529913708567619 -0.999985575675964355 0
381 349.973052978515625 0 -0.00537529913708567619 -0.999985575675964355 0
381 349.973052978515625 150 -0.00537529913708567619 -0.999985575675964355 0
289.973114013671875 350.46234130859375 150 -0.00537529913708567619 -0.999985575675964355 0
371 360.026947021484375 0 -1 0 0
371 388 0 -1 0 0
371 388 150 -1 0 0
371 360.026947021484375 150 -1 0 0
381 349.973052978515625 0 1 -0 0
381 388 0 1 -0 0
381 388 150 1 -0 0
381 349.973052978515625 150 1 -0 0
214.474258422851562 373.94732666015625 0 -0.999944508075714111 -0.0105324918404221535 0
213.947052001953125 424 0 -0.999944508075714111 -0.0105324918404221535 0
213.947052001953125 424 150 -0.999944508075714111 -0.0105324918404221535 0
214.474258422851562 373.94732666015625 150 -0.999944508075714111 -0.0105324918404221535 0
224.473709106445312 374.05267333984375 0 0.999944508075714111 0.0105324918404221535 0
223.947647094726562 423.996063232421875 0 0.999944508075714111 0.0105324918404221535 0
223.947647094726562 423.996063232421875 150 0.999944508075714111 0.0105324918404221535 0
224.473709106445312 374.05267333984375 150 0.999944508075714111 0.0105324918404221535 0
218.998016357421875 414 0 -0.000795724452473223209 -0.999999701976776123 0
141.996017456054688 414.061279296875 0 -0.000795724452473223209 -0.999999701976776123 0
141.996017456054688 414.061279296875 150 -0.000795724452473223209 -0.999999701976776123 0
218.998016357421875 414 150 -0.000795724452473223209 -0.999999701976776123 0
223.947647094726562 423.996063232421875 0 0.000795724452473223209 0.999999701976776123 0
142.003982543945312 424.061279296875 0 0.000795724452473223209 0.999999701976776123 0
142.003982543945312 424.061279296875 150 0.000795724452473223209 0.999999701976776123 0
223.947647094726562 423.996063232421875 150 0.000795724452473223209 0.999999701976776123 0
142.011550903320312 346.196258544921875 0 0.00230924645438790321 0.999997317790985107 0
222 346.011566162109375 0 0.00230924645438790321 0.999997317790985107 0
222 346.011566162109375 150 0.00230924645438790321 0.999997317790985107 0
142.011550903320312 346.196258544921875 150 0.00230924645438790321 0.999997317790985107 0
141.988449096679688 336.1962890625 0 -0.00230924645438790321 -0.999997317790985107 0
232 335.988433837890625 0 -0.00230924645438790321 -0.999997317790985107 0
232 335.988433837890625 150 -0.00230924645438790321 -0.999997317790985107 0
141.988449096679688 336.1962890625 150 -0.00230924645438790321 -0.999997317790985107 0
222 346.011566162109375 0 -1 0 0
222 361 0 -1 0 0
222 361 150 -1 0 0
222 346.011566162109375 150 -1 0 0
232 335.988433837890625 0 1 -0 0
232 361 0 1 -0 0
232 361 150 1 -0 0
232 335.988433837890625 150 1 -0 0
482.002044677734375 514.013427734375 0 0.000406752049457281828 0.999999940395355225 0
520 513.99798583984375 0 0.000406752049457281828 0.999999940395355225 0
520 513.99798583984375 150 0.000406752049457281828 0.999999940395355225 0
482.002044677734375 514.013427734375 150 0.000406752049457281828 0.999999940395355225 0
481.997955322265625 504.013427734375 0 -0.000406752049457281828 -0.999999940395355225 0
510 504.002044677734375 0 -0.000406752049457281828 -0.999999940395355225 0
510 504.002044677734375 150 -0.000406752049457281828 -0.999999940395355225 0
481.997955322265625 504.013427734375 150 -0.000406752049457281828 -0.999999940395355225 0
144.448348999023438 477 0 143.941513061523438 476.326324462890625 0
134.448348999023438 477 0 143.941513061523438 476.326324462890625 0
134.448348999023438 477 150 143.941513061523438 476.326324462890625 0
144.448348999023438 477 150 143.941513061523438 476.326324462890625 0
144.448348999023438 192 0 143.941513061523438 190.326309204101562 0
134.448348999023438 192 0 143.941513061523438 190.326309204101562 0
134.448348999023438 192 150 143.941513061523438 190.326309204101562 0
144.448348999023438 192 150 143.941513061523438 190.326309204101562 0
662 42 0 658.84759521484375 40.7999992370605469 0
652 42 0 658.84759521484375 40.7999992370605469 0
652 42 150 658.84759521484375 40.7999992370605469 0
662 42 150 658.84759521484375 40.7999992370605469 0
355 148.912017822265625 0 354.02777099609375 148.084732055664062 0
355 158.912017822265625 0 354.02777099609375 148.084732055664062 0
355 158.912017822265625 150 354.02777099609375 148.084732055664062 0
355 148.912017822265625 150 354.02777099609375 148.084732055664062 0
175 148.912017822265625 0 173.02777099609375 148.084732055664062 0
175 158.912017822265625 0 173.02777099609375 148.084732055664062 0
175 158.912017822265625 150 173.02777099609375 148.084732055664062 0
175 148.912017822265625 150 173.02777099609375 148.084732055664062 0
602 38.5314292907714844 0 596.52685546875 38.1171112060546875 0
602 48.5314292907714844 0 596.52685546875 38.1171112060546875 0
602 48.5314292907714844 150 596.52685546875 38.1171112060546875 0
602 38.5314292907714844 150 596.52685546875 38.1171112060546875 0
509 38.5314292907714844 0 502.526885986328125 38.1171112060546875 0
509 48.5314292907714844 0 502.526885986328125 38.1171112060546875 0
509 48.5314292907714844 150 502.526885986328125 38.1171112060546875 0
509 38.5314292907714844 150 502.526885986328125 38.1171112060546875 0
285.5787353515625 265 0 282.958740234375 263.568817138671875 0
275.5787353515625 265 0 282.958740234375 263.568817138671875 0
275.5787353515625 265 150 282.958740234375 263.568817138671875 0
285.5787353515625 265 150 282.958740234375 263.568817138671875 0
285.5787353515625 156 0 282.958740234375 153.568801879882812 0
275.5787353515625 156 0 282.958740234375 153.568801879882812 0
275.5787353515625 156 150 282.958740234375 153.568801879882812 0
285.5787353515625 156 150 282.958740234375 153.568801879882812 0
317.6934814453125 279 0 311.074859619140625 274.1875 0
307.6934814453125 279 0 311.074859619140625 274.1875 0
307.6934814453125 279 150 311.074859619140625 274.1875 0
317.6934814453125 279 150 311.074859619140625 274.1875 0
317.6934814453125 231 0 311.074859619140625 225.1875 0
307.6934814453125 231 0 311.074859619140625 225.1875 0
307.6934814453125 231 150 311.074859619140625 225.1875 0
317.6934814453125 231 150 311.074859619140625 225.1875 0
587 12.604456901550293 0 578.68255615234375 12.4043865203857422 0
587 22.6044559478759766 0 578.68255615234375 12.4043865203857422 0
587 22.6044559478759766 150 578.68255615234375 12.4043865203857422 0
587 12.604456901550293 150 578.68255615234375 12.4043865203857422 0
524 12.604456901550293 0 514.68255615234375 12.4043865203857422 0
524 22.6044559478759766 0 514.68255615234375 12.4043865203857422 0
524 22.6044559478759766 150 514.68255615234375 12.4043865203857422 0
524 12.604456901550293 150 514.68255615234375 12.4043865203857422 0
485 518.45452880859375 0 445.583343505859375 475.25 0
485 528.45452880859375 0 445.583343505859375 475.25 0
485 528.45452880859375 150 445.583343505859375 475.25 0
485 518.45452880859375 150 445.583343505859375 475.25 0
473 518.45452880859375 0 432.583343505859375 475.25 0
473 528.45452880859375 0 432.583343505859375 475.25 0
473 528.45452880859375 150 432.583343505859375 475.25 0
473 518.45452880859375 150 432.583343505859375 475.25 0
374 486.970245361328125 0 368.20001220703125 478.116241455078125 0
374 496.970245361328125 0 368.20001220703125 478.116241455078125 0
374 496.970245361328125 150 368.20001220703125 478.116241455078125 0
374 486.970245361328125 150 368.20001220703125 478.116241455078125 0
319 486.970245361328125 0 312.20001220703125 478.116241455078125 0
319 496.970245361328125 0 312.20001220703125 478.116241455078125 0
319 496.970245361328125 150 312.20001220703125 478.116241455078125 0
319 486.970245361328125 150 312.20001220703125 478.116241455078125 0
313.901641845703125 417 0 308.581268310546875 410.93218994140625 0
303.901641845703125 417 0 308.581268310546875 410.93218994140625 0
303.901641845703125 417 150 308.581268310546875 410.93218994140625 0
313.901641845703125 417 150 308.581268310546875 410.93218994140625 0
313.901641845703125 358 0 308.581268310546875 350.93218994140625 0
303.901641845703125 358 0 308.581268310546875 350.93218994140625 0
303.901641845703125 358 150 308.581268310546875 350.93218994140625 0
313.901641845703125 358 150 308.581268310546875 350.93218994140625 0
250.20391845703125 346.286041259765625 0 244.235549926757812 339.714508056640625 0
243.215438842773438 339.133331298828125 0 244.235549926757812 339.714508056640625 0
243.215438842773438 339.133331298828125 150 244.235549926757812 339.714508056640625 0
250.20391845703125 346.286041259765625 150 244.235549926757812 339.714508056640625 0
452 147.931930541992188 0 441.70001220703125 144.233642578125 0
452 157.931930541992188 0 441.70001220703125 144.233642578125 0
452 157.931930541992188 150 441.70001220703125 144.233642578125 0
452 147.931930541992188 150 441.70001220703125 144.233642578125 0
412 147.931930541992188 0 400.70001220703125 144.233642578125 0
412 157.931930541992188 0 400.70001220703125 144.233642578125 0
412 157.931930541992188 150 400.70001220703125 144.233642578125 0
412 147.931930541992188 150 400.70001220703125 144.233642578125 0
447 518.984375 0 437.097564697265625 506.32623291015625 0
447 528.984375 0 437.097564697265625 506.32623291015625 0
447 528.984375 150 437.097564697265625 506.32623291015625 0
447 518.984375 150 437.097564697265625 506.32623291015625 0
406 518.984375 0 395.097564697265625 506.32623291015625 0
406 528.984375 0 395.097564697265625 506.32623291015625 0
406 528.984375 150 395.097564697265625 506.32623291015625 0
406 518.984375 150 395.097564697265625 506.32623291015625 0
259 304 0 254.24444580078125 297.24444580078125 0
259 314 0 254.24444580078125 297.24444580078125 0
259 314 150 254.24444580078125 297.24444580078125 0
259 304 150 254.24444580078125 297.24444580078125 0
411 505 0 398.29998779296875 488.166656494140625 0
411 515 0 398.29998779296875 488.166656494140625 0
411 515 150 398.29998779296875 488.166656494140625 0
411 505 150 398.29998779296875 488.166656494140625 0
214 338 0 207.705886840820312 329.058837890625 0
224 338 0 207.705886840820312 329.058837890625 0
224 338 150 207.705886840820312 329.058837890625 0
214 338 150 207.705886840820312 329.058837890625 0
617.586181640625 289 0 581.25762939453125 273 0
607.586181640625 289 0 581.25762939453125 273 0
607.586181640625 289 150 581.25762939453125 273 0
617.586181640625 289 150 581.25762939453125 273 0
617.586181640625 272 0 581.25762939453125 255 0
607.586181640625 272 0 581.25762939453125 255 0
607.586181640625 272 150 581.25762939453125 255 0
617.586181640625 272 150 581.25762939453125 255 0
152 149.3265380859375 0 142.866668701171875 139.371429443359375 0
152 159.3265380859375 0 142.866668701171875 139.371429443359375 0
152 159.3265380859375 150 142.866668701171875 139.371429443359375 0
152 149.3265380859375 150 142.866668701171875 139.371429443359375 0
137 149.3265380859375 0 126.866668701171875 139.371429443359375 0
137 159.3265380859375 0 126.866668701171875 139.371429443359375 0
137 159.3265380859375 150 126.866668701171875 139.371429443359375 0
137 149.3265380859375 150 126.866668701171875 139.371429443359375 0
246 336 0 235.304351806640625 322.39129638671875 0
256 336 0 235.304351806640625 322.39129638671875 0
256 336 150 235.304351806640625 322.39129638671875 0
246 336 150 235.304351806640625 322.39129638671875 0
657 36.9142875671386719 0 616.9375 34.6071434020996094 0
657 46.9142875671386719 0 616.9375 34.6071434020996094 0
657 46.9142875671386719 150 616.9375 34.6071434020996094 0
657 36.9142875671386719 150 616.9375 34.6071434020996094 0
641 36.9142875671386719 0 599.9375 34.6071434020996094 0
641 46.9142875671386719 0 599.9375 34.6071434020996094 0
641 46.9142875671386719 150 599.9375 34.6071434020996094 0
641 36.9142875671386719 150 599.9375 34.6071434020996094 0
310 239.5 0 299.076934814453125 230.288467407226562 0
310 249.5 0 299.076934814453125 230.288467407226562 0
310 249.5 150 299.076934814453125 230.288467407226562 0
310 239.5 150 299.076934814453125 230.288467407226562 0
284 239.5 0 272.076934814453125 230.288467407226562 0
284 249.5 0 272.076934814453125 230.288467407226562 0
284 249.5 150 272.076934814453125 230.288467407226562 0
284 239.5 150 272.076934814453125 230.288467407226562 0
394 210 0 363.69232177734375 194.846160888671875 0
384 210 0 363.69232177734375 194.846160888671875 0
384 210 150 363.69232177734375 194.846160888671875 0
394 210 150 363.69232177734375 194.846160888671875 0
394 197 0 363.69232177734375 180.846160888671875 0
384 197 0 363.69232177734375 180.846160888671875 0
384 197 150 363.69232177734375 180.846160888671875 0
394 197 150 363.69232177734375 180.846160888671875 0
294 297 0 278.52630615234375 282.368408203125 0
284 297 0 278.52630615234375 282.368408203125 0
284 297 150 278.52630615234375 282.368408203125 0
294 297 150 278.52630615234375 282.368408203125 0
294 278 0 278.52630615234375 262.368408203125 0
284 278 0 278.52630615234375 262.368408203125 0
284 278 150 278.52630615234375 262.368408203125 0
294 278 150 278.52630615234375 262.368408203125 0
418 426 0 391.875 400.375 0
408 426 0 391.875 400.375 0
408 426 150 391.875 400.375 0
418 426 150 391.875 400.375 0
418 410 0 391.875 383.375 0
408 410 0 391.875 383.375 0
408 410 150 391.875 383.375 0
418 410 150 391.875 383.375 0
182 206 0 169.866668701171875 193.26666259765625 0
172 206 0 169.866668701171875 193.26666259765625 0
172 206 150 169.866668701171875 193.26666259765625 0
182 206 150 169.866668701171875 193.26666259765625 0
182 191 0 169.866668701171875 177.26666259765625 0
172 191 0 169.866668701171875 177.26666259765625 0
172 191 150 169.866668701171875 177.26666259765625 0
182 191 150 169.866668701171875 177.26666259765625 0
215.520004272460938 212 0 198.941543579101562 196.692306518554688 0
205.520004272460938 212 0 198.941543579101562 196.692306518554688 0
205.520004272460938 212 150 198.941543579101562 196.692306518554688 0
215.520004272460938 212 150 198.941543579101562 196.692306518554688 0
215.520004272460938 199 0 198.941543579101562 182.692306518554688 0
205.520004272460938 199 0 198.941543579101562 182.692306518554688 0
205.520004272460938 199 150 198.941543579101562 182.692306518554688 0
215.520004272460938 199 150 198.941543579101562 182.692306518554688 0
371 147 0 345.5 136.5 0
371 157 0 345.5 136.5 0
371 157 150 345.5 136.5 0
371 147 150 345.5 136.5 0
357 147 0 330.5 136.5 0
357 157 0 330.5 136.5 0
357 157 150 330.5 136.5 0
357 147 150 330.5 136.5 0
278 265 0 222.399993896484375 211 0
288 265 0 222.399993896484375 211 0
288 265 150 222.399993896484375 211 0
278 265 150 222.399993896484375 211 0
278 270 0 222.399993896484375 217 0
288 270 0 222.399993896484375 217 0
288 270 150 222.399993896484375 217 0
278 270 150 222.399993896484375 217 0
451.5 431 0 416.76922607421875 398.846160888671875 0
441.5 431 0 416.76922607421875 398.846160888671875 0
441.5 431 150 416.76922607421875 398.846160888671875 0
451.5 431 150 416.76922607421875 398.846160888671875 0
451.5 418 0 416.76922607421875 384.846160888671875 0
441.5 418 0 416.76922607421875 384.846160888671875 0
441.5 418 150 416.76922607421875 384.846160888671875 0
451.5 418 150 416.76922607421875 384.846160888671875 0
360 205 0 337.5 193.1875 0
350 205 0 337.5 193.1875 0
350 205 150 337.5 193.1875 0
360 205 150 337.5 193.1875 0
360 189 0 337.5 176.1875 0
350 189 0 337.5 176.1875 0
350 189 150 337.5 176.1875 0
360 189 150 337.5 176.1875 0
416.009033203125 359.178558349609375 0 410.582977294921875 355.35894775390625 0
415.990966796875 349.1785888671875 0 410.582977294921875 355.35894775390625 0
415.990966796875 349.1785888671875 150 410.582977294921875 355.35894775390625 0
416.009033203125 359.178558349609375 150 410.582977294921875 355.35894775390625 0
592.046875 357.937530517578125 0 585.4061279296875 354.53662109375 0
591.953125 347.93798828125 0 585.4061279296875 354.53662109375 0
591.953125 347.93798828125 150 585.4061279296875 354.53662109375 0
592.046875 357.937530517578125 150 585.4061279296875 354.53662109375 0
449.880889892578125 42.9832534790039062 0 448.14093017578125 41.8166961669921875 0
459.880828857421875 43.0167465209960938 0 448.14093017578125 41.8166961669921875 0
459.880828857421875 43.0167465209960938 150 448.14093017578125 41.8166961669921875 0
449.880889892578125 42.9832534790039062 150 448.14093017578125 41.8166961669921875 0
342.955169677734375 301.99578857421875 0 338.721771240234375 299.157501220703125 0
343.044830322265625 311.995391845703125 0 338.721771240234375 299.157501220703125 0
343.044830322265625 311.995391845703125 150 338.721771240234375 299.157501220703125 0
342.955169677734375 301.99578857421875 150 338.721771240234375 299.157501220703125 0
595.98175048828125 354.949920654296875 0 589.5880126953125 350.136077880859375 0
605.98126220703125 355.050079345703125 0 589.5880126953125 350.136077880859375 0
605.98126220703125 355.050079345703125 150 589.5880126953125 350.136077880859375 0
595.98175048828125 354.949920654296875 150 589.5880126953125 350.136077880859375 0
517.98699951171875 448.213134765625 0 510.265411376953125 442.3995361328125 0
518.01300048828125 458.213104248046875 0 510.265411376953125 442.3995361328125 0
518.01300048828125 458.213104248046875 150 510.265411376953125 442.3995361328125 0
517.98699951171875 448.213134765625 150 510.265411376953125 442.3995361328125 0
290.026885986328125 360.46221923828125 0 285.4451904296875 356.016021728515625 0
289.973114013671875 350.46234130859375 0 285.4451904296875 356.016021728515625 0
289.973114013671875 350.46234130859375 150 285.4451904296875 356.016021728515625 0
290.026885986328125 360.46221923828125 150 285.4451904296875 356.016021728515625 0
371 388 0 357.73724365234375 375.1295166015625 0
381 388 0 357.73724365234375 375.1295166015625 0
381 388 150 357.73724365234375 375.1295166015625 0
371 388 150 357.73724365234375 375.1295166015625 0
214.474258422851562 373.94732666015625 0 210.200057983398438 365.476715087890625 0
224.473709106445312 374.05267333984375 0 210.200057983398438 365.476715087890625 0
224.473709106445312 374.05267333984375 150 210.200057983398438 365.476715087890625 0
214.474258422851562 373.94732666015625 150 210.200057983398438 365.476715087890625 0
141.996017456054688 414.061279296875 0 139.151962280273438 408.684783935546875 0
142.003982543945312 424.061279296875 0 139.151962280273438 408.684783935546875 0
142.003982543945312 424.061279296875 150 139.151962280273438 408.684783935546875 0
141.996017456054688 414.061279296875 150 139.151962280273438 408.684783935546875 0
142.011550903320312 346.196258544921875 0 139.236160278320312 341.870513916015625 0
141.988449096679688 336.1962890625 0 139.236160278320312 341.870513916015625 0
141.988449096679688 336.1962890625 150 139.236160278320312 341.870513916015625 0
142.011550903320312 346.196258544921875 150 139.236160278320312 341.870513916015625 0
222 361 0 207.188583374023438 337.914764404296875 0
232 361 0 207.188583374023438 337.914764404296875 0
232 361 150 207.188583374023438 337.914764404296875 0
222 361 150 207.188583374023438 337.914764404296875 0
482.002044677734375 514.013427734375 0 468.31707763671875 500.4864501953125 0
481.997955322265625 504.013427734375 0 468.31707763671875 500.4864501953125 0
481.997955322265625 504.013427734375 150 468.31707763671875 500.4864501953125 0
482.002044677734375 514.013427734375 150 468.31707763671875 500.4864501953125 0
144.448348999023438 477 0 0 0 -1
134.448348999023438 477 0 0 0 -1
134.448348999023438 192 0 0 0 -1
144.448348999023438 192 0 0 0 -1
144.448348999023438 477 150 0 0 1
134.448348999023438 477 150 0 0 1
134.448348999023438 192 150 0 0 1
144.448348999023438 192 150 0 0 1
662 252 0 0 0 -1
652 262 0 0 0 -1
652 42 0 0 0 -1
662 42 0 0 0 -1
662 252 150 0 0 1
652 262 150 0 0 1
652 42 150 0 0 1
662 42 150 0 0 1
652 262 0 0 0 -1
662 252 0 0 0 -1
697 252 0 0 0 -1
687 262 0 0 0 -1
652 262 150 0 0 1
662 252 150 0 0 1
697 252 150 0 0 1
687 262 150 0 0 1
355 148.912017822265625 0 0 0 -1
355 158.912017822265625 0 0 0 -1
175 158.912017822265625 0 0 0 -1
175 148.912017822265625 0 0 0 -1
355 148.912017822265625 150 0 0 1
355 158.912017822265625 150 0 0 1
175 158.912017822265625 150 0 0 1
175 148.912017822265625 150 0 0 1
602 38.5314292907714844 0 0 0 -1
602 48.5314292907714844 0 0 0 -1
509 48.5314292907714844 0 0 0 -1
509 38.5314292907714844 0 0 0 -1
602 38.5314292907714844 150 0 0 1
602 48.5314292907714844 150 0 0 1
509 48.5314292907714844 150 0 0 1
509 38.5314292907714844 150 0 0 1
285.5787353515625 265 0 0 0 -1
275.5787353515625 265 0 0 0 -1
275.5787353515625 156 0 0 0 -1
285.5787353515625 156 0 0 0 -1
285.5787353515625 265 150 0 0 1
275.5787353515625 265 150 0 0 1
275.5787353515625 156 150 0 0 1
285.5787353515625 156 150 0 0 1
317.6934814453125 279 0 0 0 -1
307.6934814453125 279 0 0 0 -1
307.6934814453125 231 0 0 0 -1
317.6934814453125 231 0 0 0 -1
317.6934814453125 279 150 0 0 1
307.6934814453125 279 150 0 0 1
307.6934814453125 231 150 0 0 1
317.6934814453125 231 150 0 0 1
587 12.604456901550293 0 0 0 -1
587 22.6044559478759766 0 0 0 -1
524 22.6044559478759766 0 0 0 -1
524 12.604456901550293 0 0 0 -1
587 12.604456901550293 150 0 0 1
587 22.6044559478759766 150 0 0 1
524 22.6044559478759766 150 0 0 1
524 12.604456901550293 150 0 0 1
485 518.45452880859375 0 0 0 -1
485 528.45452880859375 0 0 0 -1
473 528.45452880859375 0 0 0 -1
473 518.45452880859375 0 0 0 -1
485 518.45452880859375 150 0 0 1
485 528.45452880859375 150 0 0 1
473 528.45452880859375 150 0 0 1
473 518.45452880859375 150 0 0 1
374 486.970245361328125 0 0 0 -1
374 496.970245361328125 0 0 0 -1
319 496.970245361328125 0 0 0 -1
319 486.970245361328125 0 0 0 -1
374 486.970245361328125 150 0 0 1
374 496.970245361328125 150 0 0 1
319 496.970245361328125 150 0 0 1
319 486.970245361328125 150 0 0 1
313.901641845703125 417 0 0 0 -1
303.901641845703125 417 0 0 0 -1
303.901641845703125 358 0 0 0 -1
313.901641845703125 358 0 0 0 -1
313.901641845703125 417 150 0 0 1
303.901641845703125 417 150 0 0 1
303.901641845703125 358 150 0 0 1
313.901641845703125 358 150 0 0 1
250.20391845703125 346.286041259765625 0 0 0 -1
243.215438842773438 339.133331298828125 0 0 0 -1
259.727874755859375 323 0 0 0 -1
284.272125244140625 313 0 0 0 -1
250.20391845703125 346.286041259765625 150 0 0 1
243.215438842773438 339.133331298828125 150 0 0 1
259.727874755859375 323 150 0 0 1
284.272125244140625 313 150 0 0 1
284.272125244140625 313 0 0 0 -1
259.727874755859375 323 0 0 0 -1
256 323 0 0 0 -1
246 313 0 0 0 -1
284.272125244140625 313 150 0 0 1
259.727874755859375 323 150 0 0 1
256 323 150 0 0 1
246 313 150 0 0 1
452 147.931930541992188 0 0 0 -1
452 157.931930541992188 0 0 0 -1
412 157.931930541992188 0 0 0 -1
412 147.931930541992188 0 0 0 -1
452 147.931930541992188 150 0 0 1
452 157.931930541992188 150 0 0 1
412 157.931930541992188 150 0 0 1
412 147.931930541992188 150 0 0 1
447 518.984375 0 0 0 -1
447 528.984375 0 0 0 -1
406 528.984375 0 0 0 -1
406 518.984375 0 0 0 -1
447 518.984375 150 0 0 1
447 528.984375 150 0 0 1
406 528.984375 150 0 0 1
406 518.984375 150 0 0 1
259 304 0 0 0 -1
259 314 0 0 0 -1
224 314 0 0 0 -1
214 304 0 0 0 -1
259 304 150 0 0 1
259 314 150 0 0 1
224 314 150 0 0 1
214 304 150 0 0 1
214 304 0 0 0 -1
224 314 0 0 0 -1
224 338 0 0 0 -1
214 338 0 0 0 -1
214 304 150 0 0 1
224 314 150 0 0 1
224 338 150 0 0 1
214 338 150 0 0 1
411 505 0 0 0 -1
411 515 0 0 0 -1
371 515 0 0 0 -1
381 505 0 0 0 -1
411 505 150 0 0 1
411 515 150 0 0 1
371 515 150 0 0 1
381 505 150 0 0 1
381 505 0 0 0 -1
371 515 0 0 0 -1
371 424 0 0 0 -1
381 414 0 0 0 -1
381 505 150 0 0 1
371 515 150 0 0 1
371 424 150 0 0 1
381 414 150 0 0 1
687 262 0 0 0 -1
697 252 0 0 0 -1
697 356.953338623046875 0 0 0 -1
687 347.046661376953125 0 0 0 -1
687 262 150 0 0 1
697 252 150 0 0 1
697 356.953338623046875 150 0 0 1
687 347.046661376953125 150 0 0 1
246 313 0 0 0 -1
256 323 0 0 0 -1
256 336 0 0 0 -1
246 336 0 0 0 -1
246 313 150 0 0 1
256 323 150 0 0 1
256 336 150 0 0 1
246 336 150 0 0 1
617.586181640625 289 0 0 0 -1
607.586181640625 289 0 0 0 -1
607.586181640625 272 0 0 0 -1
617.586181640625 272 0 0 0 -1
617.586181640625 289 150 0 0 1
607.586181640625 289 150 0 0 1
607.586181640625 272 150 0 0 1
617.586181640625 272 150 0 0 1
152 149.3265380859375 0 0 0 -1
152 159.3265380859375 0 0 0 -1
137 159.3265380859375 0 0 0 -1
137 149.3265380859375 0 0 0 -1
152 149.3265380859375 150 0 0 1
152 159.3265380859375 150 0 0 1
137 159.3265380859375 150 0 0 1
137 149.3265380859375 150 0 0 1
657 36.9142875671386719 0 0 0 -1
657 46.9142875671386719 0 0 0 -1
641 46.9142875671386719 0 0 0 -1
641 36.9142875671386719 0 0 0 -1
657 36.9142875671386719 150 0 0 1
657 46.9142875671386719 150 0 0 1
641 46.9142875671386719 150 0 0 1
641 36.9142875671386719 150 0 0 1
310 239.5 0 0 0 -1
310 249.5 0 0 0 -1
284 249.5 0 0 0 -1
284 239.5 0 0 0 -1
310 239.5 150 0 0 1
310 249.5 150 0 0 1
284 249.5 150 0 0 1
284 239.5 150 0 0 1
394 210 0 0 0 -1
384 210 0 0 0 -1
384 197 0 0 0 -1
394 197 0 0 0 -1
394 210 150 0 0 1
384 210 150 0 0 1
384 197 150 0 0 1
394 197 150 0 0 1
294 297 0 0 0 -1
284 297 0 0 0 -1
284 278 0 0 0 -1
294 278 0 0 0 -1
294 297 150 0 0 1
284 297 150 0 0 1
284 278 150 0 0 1
294 278 150 0 0 1
418 426 0 0 0 -1
408 426 0 0 0 -1
408 410 0 0 0 -1
418 410 0 0 0 -1
418 426 150 0 0 1
408 426 150 0 0 1
408 410 150 0 0 1
418 410 150 0 0 1
182 206 0 0 0 -1
172 206 0 0 0 -1
172 191 0 0 0 -1
182 191 0 0 0 -1
182 206 150 0 0 1
172 206 150 0 0 1
172 191 150 0 0 1
182 191 150 0 0 1
215.520004272460938 212 0 0 0 -1
205.520004272460938 212 0 0 0 -1
205.520004272460938 199 0 0 0 -1
215.520004272460938 199 0 0 0 -1
215.520004272460938 212 150 0 0 1
205.520004272460938 212 150 0 0 1
205.520004272460938 199 150 0 0 1
215.520004272460938 199 150 0 0 1
371 147 0 0 0 -1
371 157 0 0 0 -1
357 157 0 0 0 -1
357 147 0 0 0 -1
371 147 150 0 0 1
371 157 150 0 0 1
357 157 150 0 0 1
357 147 150 0 0 1
278 265 0 0 0 -1
288 265 0 0 0 -1
288 270 0 0 0 -1
278 270 0 0 0 -1
278 265 150 0 0 1
288 265 150 0 0 1
288 270 150 0 0 1
278 270 150 0 0 1
451.5 431 0 0 0 -1
441.5 431 0 0 0 -1
441.5 418 0 0 0 -1
451.5 418 0 0 0 -1
451.5 431 150 0 0 1
441.5 431 150 0 0 1
441.5 418 150 0 0 1
451.5 418 150 0 0 1
360 205 0 0 0 -1
350 205 0 0 0 -1
350 189 0 0 0 -1
360 189 0 0 0 -1
360 205 150 0 0 1
350 205 150 0 0 1
350 189 150 0 0 1
360 189 150 0 0 1
381 414 0 0 0 -1
371 424 0 0 0 -1
213.947052001953125 424 0 0 0 -1
218.998016357421875 414 0 0 0 -1
381 414 150 0 0 1
371 424 150 0 0 1
213.947052001953125 424 150 0 0 1
218.998016357421875 414 150 0 0 1
416.009033203125 359.178558349609375 0 0 0 -1
415.990966796875 349.1785888671875 0 0 0 -1
520 348.990966796875 0 0 0 -1
510 359.009033203125 0 0 0 -1
416.009033203125 359.178558349609375 150 0 0 1
415.990966796875 349.1785888671875 150 0 0 1
520 348.990966796875 150 0 0 1
510 359.009033203125 150 0 0 1
510 359.009033203125 0 0 0 -1
520 348.990966796875 0 0 0 -1
520 513.99798583984375 0 0 0 -1
510 504.002044677734375 0 0 0 -1
510 359.009033203125 150 0 0 1
520 348.990966796875 150 0 0 1
520 513.99798583984375 150 0 0 1
510 504.002044677734375 150 0 0 1
592.046875 357.937530517578125 0 0 0 -1
591.953125 347.93798828125 0 0 0 -1
687 347.046661376953125 0 0 0 -1
697 356.953338623046875 0 0 0 -1
592.046875 357.937530517578125 150 0 0 1
591.953125 347.93798828125 150 0 0 1
687 347.046661376953125 150 0 0 1
697 356.953338623046875 150 0 0 1
449.880889892578125 42.9832534790039062 0 0 0 -1
459.880828857421875 43.0167465209960938 0 0 0 -1
458.983428955078125 310.95550537109375 0 0 0 -1
449.016571044921875 301.04449462890625 0 0 0 -1
449.880889892578125 42.9832534790039062 150 0 0 1
459.880828857421875 43.0167465209960938 150 0 0 1
458.983428955078125 310.95550537109375 150 0 0 1
449.016571044921875 301.04449462890625 150 0 0 1
449.016571044921875 301.04449462890625 0 0 0 -1
458.983428955078125 310.95550537109375 0 0 0 -1
343.044830322265625 311.995391845703125 0 0 0 -1
342.955169677734375 301.99578857421875 0 0 0 -1
449.016571044921875 301.04449462890625 150 0 0 1
458.983428955078125 310.95550537109375 150 0 0 1
343.044830322265625 311.995391845703125 150 0 0 1
342.955169677734375 301.99578857421875 150 0 0 1
595.98175048828125 354.949920654296875 0 0 0 -1
605.98126220703125 355.050079345703125 0 0 0 -1
604.9503173828125 457.987152099609375 0 0 0 -1
595.0496826171875 448.012847900390625 0 0 0 -1
595.98175048828125 354.949920654296875 150 0 0 1
605.98126220703125 355.050079345703125 150 0 0 1
604.9503173828125 457.987152099609375 150 0 0 1
595.0496826171875 448.012847900390625 150 0 0 1
595.0496826171875 448.012847900390625 0 0 0 -1
604.9503173828125 457.987152099609375 0 0 0 -1
518.01300048828125 458.213104248046875 0 0 0 -1
517.98699951171875 448.213134765625 0 0 0 -1
595.0496826171875 448.012847900390625 150 0 0 1
604.9503173828125 457.987152099609375 150 0 0 1
518.01300048828125 458.213104248046875 150 0 0 1
517.98699951171875 448.213134765625 150 0 0 1
290.026885986328125 360.46221923828125 0 0 0 -1
289.973114013671875 350.46234130859375 0 0 0 -1
381 349.973052978515625 0 0 0 -1
371 360.026947021484375 0 0 0 -1
290.026885986328125 360.46221923828125 150 0 0 1
289.973114013671875 350.46234130859375 150 0 0 1
381 349.973052978515625 150 0 0 1
371 360.026947021484375 150 0 0 1
371 360.026947021484375 0 0 0 -1
381 349.973052978515625 0 0 0 -1
381 388 0 0 0 -1
371 388 0 0 0 -1
371 360.026947021484375 150 0 0 1
381 349.973052978515625 150 0 0 1
381 388 150 0 0 1
371 388 150 0 0 1
214.474258422851562 373.94732666015625 0 0 0 -1
224.473709106445312 374.05267333984375 0 0 0 -1
223.947647094726562 423.996063232421875 0 0 0 -1
213.947052001953125 424 0 0 0 -1
214.474258422851562 373.94732666015625 150 0 0 1
224.473709106445312 374.05267333984375 150 0 0 1
223.947647094726562 423.996063232421875 150 0 0 1
213.947052001953125 424 150 0 0 1
218.998016357421875 414 0 0 0 -1
223.947647094726562 423.996063232421875 0 0 0 -1
142.003982543945312 424.061279296875 0 0 0 -1
141.996017456054688 414.061279296875 0 0 0 -1
218.998016357421875 414 150 0 0 1
223.947647094726562 423.996063232421875 150 0 0 1
142.003982543945312 424.061279296875 150 0 0 1
141.996017456054688 414.061279296875 150 0 0 1
142.011550903320312 346.196258544921875 0 0 0 -1
141.988449096679688 336.1962890625 0 0 0 -1
232 335.988433837890625 0 0 0 -1
222 346.011566162109375 0 0 0 -1
142.011550903320312 346.196258544921875 150 0 0 1
141.988449096679688 336.1962890625 150 0 0 1
232 335.988433837890625 150 0 0 1
222 346.011566162109375 150 0 0 1
222 346.011566162109375 0 0 0 -1
232 335.988433837890625 0 0 0 -1
232 361 0 0 0 -1
222 361 0 0 0 -1
222 346.011566162109375 150 0 0 1
232 335.988433837890625 150 0 0 1
232 361 150 0 0 1
222 361 150 0 0 1
482.002044677734375 514.013427734375 0 0 0 -1
481.997955322265625 504.013427734375 0 0 0 -1
510 504.002044677734375 0 0 0 -1
520 513.99798583984375 0 0 0 -1
482.002044677734375 514.013427734375 150 0 0 1
481.997955322265625 504.013427734375 150 0 0 1
510 504.002044677734375 150 0 0 1
520 513.99798583984375 150 0 0 1
223.947647094726562 423.996063232421875 0 0 0 -1
218.998016357421875 414 0 0 0 -1
213.947052001953125 424 0 0 0 -1
223.947647094726562 423.996063232421875 150 0 0 1
218.998016357421875 414 150 0 0 1
213.947052001953125 424 150 0 0 1
4 0 1 2 3
4 4 5 6 7
4 8 9 10 11
4 12 13 14 15
4 16 17 18 19
4 20 21 22 23
4 24 25 26 27
4 28 29 30 31
4 32 33 34 35
4 36 37 38 39
4 40 41 42 43
4 44 45 46 47
4 48 49 50 51
4 52 53 54 55
4 56 57 58 59
4 60 61 62 63
4 64 65 66 67
4 68 69 70 71
4 72 73 74 75
4 76 77 78 79
4 80 81 82 83
4 84 85 86 87
4 88 89 90 91
4 92 93 94 95
4 96 97 98 99
4 100 101 102 103
4 104 105 106 107
4 108 109 110 111
4 112 113 114 115
4 116 117 118 119
4 120 121 122 123
4 124 125 126 127
4 128 129 130 131
4 132 133 134 135
4 136 137 138 139
4 140 141 142 143
4 144 145 146 147
4 148 149 150 151
4 152 153 154 155
4 156 157 158 159
4 160 161 162 163
4 164 165 166 167
4 168 169 170 171
4 172 173 174 175
4 176 177 178 179
4 180 181 182 183
4 184 185 186 187
4 188 189 190 191
4 192 193 194 195
4 196 197 198 199
4 200 201 202 203
4 204 205 206 207
4 208 209 210 211
4 212 213 214 215
4 216 217 218 219
4 220 221 222 223
4 224 225 226 227
4 228 229 230 231
4 232 233 234 235
4 236 237 238 239
4 240 241 242 243
4 244 245 246 247
4 248 249 250 251
4 252 253 254 255
4 256 257 258 259
4 260 261 262 263
4 264 265 266 267
4 268 269 270 271
4 272 273 274 275
4 276 277 278 279
4 280 281 282 283
4 284 285 286 287
4 288 289 290 291
4 292 293 294 295
4 296 297 298 299
4 300 301 302 303
4 304 305 306 307
4 308 309 310 311
4 312 313 314 315
4 316 317 318 319
4 320 321 322 323
4 324 325 326 327
4 328 329 330 331
4 332 333 334 335
4 336 337 338 339
4 340 341 342 343
4 344 345 346 347
4 348 349 350 351
4 352 353 354 355
4 356 357 358 359
4 360 361 362 363
4 364 365 366 367
4 368 369 370 371
4 372 373 374 375
4 376 377 378 379
4 380 381 382 383
4 384 385 386 387
4 388 389 390 391
4 392 393 394 395
4 396 397 398 399
4 400 401 402 403
4 404 405 406 407
4 408 409 410 411
4 412 413 414 415
4 416 417 418 419
4 420 421 422 423
4 424 425 426 427
4 428 429 430 431
4 432 433 434 435
4 436 437 438 439
4 440 441 442 443
4 444 445 446 447
4 448 449 450 451
4 452 453 454 455
4 456 457 458 459
4 460 461 462 463
4 464 465 466 467
4 468 469 470 471
4 472 473 474 475
4 476 477 478 479
4 480 481 482 483
4 484 485 486 487
4 488 489 490 491
4 492 493 494 495
4 496 497 498 499
4 500 501 502 503
4 504 505 506 507
4 508 509 510 511
4 512 513 514 515
4 516 517 518 519
4 520 521 522 523
4 524 525 526 527
4 528 529 530 531
4 532 533 534 535
4 536 537 538 539
4 540 541 542 543
4 544 545 546 547
4 548 549 550 551
4 552 553 554 555
4 556 557 558 559
4 560 561 562 563
4 564 565 566 567
4 568 569 570 571
4 572 573 574 575
4 576 577 578 579
4 580 581 582 583
4 584 585 586 587
4 588 589 590 591
4 592 593 594 595
4 596 597 598 599
4 600 601 602 603
4 604 605 606 607
4 608 609 610 611
4 612 613 614 615
4 616 617 618 619
4 620 621 622 623
4 624 625 626 627
4 628 629 630 631
4 632 633 634 635
4 636 637 638 639
4 640 641 642 643
4 644 645 646 647
4 648 649 650 651
4 652 653 654 655
4 656 657 658 659
4 660 661 662 663
4 664 665 666 667
4 668 669 670 671
4 672 673 674 675
4 676 677 678 679
4 680 681 682 683
4 684 685 686 687
4 688 689 690 691
4 692 693 694 695
4 696 697 698 699
4 700 701 702 703
4 704 705 706 707
4 708 709 710 711
4 712 713 714 715
4 716 717 718 719
4 720 721 722 723
4 724 725 726 727
4 728 729 730 731
4 732 733 734 735
4 736 737 738 739
4 740 741 742 743
4 744 745 746 747
4 748 749 750 751
4 752 753 754 755
4 756 757 758 759
4 760 761 762 763
4 764 765 766 767
4 768 769 770 771
4 772 773 774 775
4 776 777 778 779
4 780 781 782 783
4 784 785 786 787
4 788 789 790 791
4 792 793 794 795
4 796 797 798 799
4 800 801 802 803
4 804 805 806 807
4 808 809 810 811
4 812 813 814 815
4 816 817 818 819
4 820 821 822 823
4 824 825 826 827
4 828 829 830 831
4 832 833 834 835
4 836 837 838 839
4 840 841 842 843
4 844 845 846 847
4 848 849 850 851
4 852 853 854 855
4 856 857 858 859
4 860 861 862 863
4 864 865 866 867
4 868 869 870 871
4 872 873 874 875
4 876 877 878 879
4 880 881 882 883
4 884 885 886 887
4 888 889 890 891
4 892 893 894 895
4 896 897 898 899
4 900 901 902 903
4 904 905 906 907
4 908 909 910 911
4 912 913 914 915
4 916 917 918 919
4 920 921 922 923
4 924 925 926 927
4 928 929 930 931
4 932 933 934 935
4 936 937 938 939
4 940 941 942 943
4 944 945 946 947
4 948 949 950 951
4 952 953 954 955
4 956 957 958 959
4 960 961 962 963
4 964 965 966 967
4 968 969 970 971
4 972 973 974 975
4 976 977 978 979
4 980 981 982 983
4 984 985 986 987
4 988 989 990 991
4 992 993 994 995
4 996 997 998 999
4 1000 1001 1002 1003
4 1004 1005 1006 1007
4 1008 1009 1010 1011
4 1012 1013 1014 1015
4 1016 1017 1018 1019
4 1020 1021 1022 1023
4 1024 1025 1026 1027
4 1028 1029 1030 1031
4 1032 1033 1034 1035
4 1036 1037 1038 1039
4 1040 1041 1042 1043
4 1044 1045 1046 1047
4 1048 1049 1050 1051
3 1052 1053 1054
3 1055 1056 1057
