ply
format ascii 1.0
element vertex 416
property float x
property float y
property float z
property float nx
property float ny
property float nz
element quads 104
property list uchar int vertex_indices
end_header
769.25 452 0 1 0 0
769.25 189.75 0 1 0 0
769.25 189.75 100 1 0 0
769.25 452 100 1 0 0
768.75 452 0 -1 -0 0
768.75 190.25 0 -1 -0 0
768.75 190.25 100 -1 -0 0
768.75 452 100 -1 -0 0
769.25 189.75 0 -0 -1 0
370 189.75 0 -0 -1 0
370 189.75 100 -0 -1 0
769.25 189.75 100 -0 -1 0
768.75 190.25 0 0 1 0
370 190.25 0 0 1 0
370 190.25 100 0 1 0
768.75 190.25 100 0 1 0
409 83.25 0 -0 1 0
554.75 83.25 0 -0 1 0
554.75 83.25 100 -0 1 0
409 83.25 100 -0 1 0
409 82.75 0 0 -1 0
555.25 82.75 0 0 -1 0
555.25 82.75 100 0 -1 0
409 82.75 100 0 -1 0
554.75 83.25 0 -1 0 0
554.75 189 0 -1 0 0
554.75 189 100 -1 0 0
554.75 83.25 100 -1 0 0
555.25 82.75 0 1 -0 0
555.25 189 0 1 -0 0
555.25 189 100 1 -0 0
555.25 82.75 100 1 -0 0
616.25 259.25 0 1 0 0
616.25 192 0 1 0 0
616.25 192 100 1 0 0
616.25 259.25 100 1 0 0
615.75 258.75 0 -1 -0 0
615.75 192 0 -1 -0 0
615.75 192 100 -1 -0 0
615.75 258.75 100 -1 -0 0
615.75 258.75 0 -0 -1 0
407.75 258.75 0 -0 -1 0
407.75 258.75 100 -0 -1 0
615.75 258.75 100 -0 -1 0
616.25 259.25 0 0 1 0
408.25 259.25 0 0 1 0
408.25 259.25 100 0 1 0
616.25 259.25 100 0 1 0
127.25 286 0 1 0 0
127.25 233 0 1 0 0
127.25 233 100 1 0 0
127.25 286 100 1 0 0
126.75 286 0 -1 -0 0
126.75 233 0 -1 -0 0
126.75 233 100 -1 -0 0
126.75 286 100 -1 -0 0
383.25 352 0 1 0 0
383.25 275 0 1 0 0
383.25 275 100 1 0 0
383.25 352 100 1 0 0
382.75 352 0 -1 -0 0
382.75 275 0 -1 -0 0
382.75 275 100 -1 -0 0
382.75 352 100 -1 -0 0
197.25 255 0 1 0 0
197.25 219 0 1 0 0
197.25 219 100 1 0 0
197.25 255 100 1 0 0
196.75 255 0 -1 -0 0
196.75 219 0 -1 -0 0
196.75 219 100 -1 -0 0
196.75 255 100 -1 -0 0
197.25 128 0 1 0 0
197.25 102 0 1 0 0
197.25 102 100 1 0 0
197.25 128 100 1 0 0
196.75 128 0 -1 -0 0
196.75 102 0 -1 -0 0
196.75 102 100 -1 -0 0
196.75 128 100 -1 -0 0
470.25 257 0 1 0 0
470.25 192 0 1 0 0
470.25 192 100 1 0 0
470.25 257 100 1 0 0
469.75 257 0 -1 -0 0
469.75 192 0 -1 -0 0
469.75 192 100 -1 -0 0
469.75 257 100 -1 -0 0
291.25 168.25 0 1 0 0
291.25 148 0 1 0 0
291.25 148 100 1 0 0
291.25 168.25 100 1 0 0
290.75 167.75 0 -1 -0 0
290.75 148 0 -1 -0 0
290.75 148 100 -1 -0 0
290.75 167.75 100 -1 -0 0
290.75 167.75 0 -0 -1 0
254 167.75 0 -0 -1 0
254 167.75 100 -0 -1 0
290.75 167.75 100 -0 -1 0
291.25 168.25 0 0 1 0
254 168.25 0 0 1 0
254 168.25 100 0 1 0
291.25 168.25 100 0 1 0
147.75 286 0 -1 0 0
147.75 352 0 -1 0 0
147.75 352 100 -1 0 0
147.75 286 100 -1 0 0
148.25 286 0 1 -0 0
148.25 352 0 1 -0 0
148.25 352 100 1 -0 0
148.25 286 100 1 -0 0
147.75 68 0 -1 0 0
147.75 234 0 -1 0 0
147.75 234 100 -1 0 0
147.75 68 100 -1 0 0
148.25 68 0 1 -0 0
148.25 234 0 1 -0 0
148.25 234 100 1 -0 0
148.25 68 100 1 -0 0
407.75 258.75 0 -1 0 0
407.75 473 0 -1 0 0
407.75 473 100 -1 0 0
407.75 258.75 100 -1 0 0
408.25 259.25 0 1 -0 0
408.25 473 0 1 -0 0
408.25 473 100 1 -0 0
408.25 259.25 100 1 -0 0
290.75 32 0 -1 0 0
290.75 90 0 -1 0 0
290.75 90 100 -1 0 0
290.75 32 100 -1 0 0
291.25 32 0 1 -0 0
291.25 90 0 1 -0 0
291.25 90 100 1 -0 0
291.25 32 100 1 -0 0
250 352.25 0 -0 1 0
315 352.25 0 -0 1 0
315 352.25 100 -0 1 0
250 352.25 100 -0 1 0
250 351.75 0 0 -1 0
315 351.75 0 0 -1 0
315 351.75 100 0 -1 0
250 351.75 100 0 -1 0
148 168.25 0 -0 1 0
187 168.25 0 -0 1 0
187 168.25 100 -0 1 0
148 168.25 100 -0 1 0
148 167.75 0 0 -1 0
187 167.75 0 0 -1 0
187 167.75 100 0 -1 0
148 167.75 100 0 -1 0
769.25 452 0 766.31671142578125 451.276458740234375 0
768.75 452 0 766.31671142578125 451.276458740234375 0
768.75 452 100 766.31671142578125 451.276458740234375 0
769.25 452 100 766.31671142578125 451.276458740234375 0
370 189.75 0 368.073272705078125 189.274734497070312 0
370 190.25 0 368.073272705078125 189.274734497070312 0
370 190.25 100 368.073272705078125 189.274734497070312 0
370 189.75 100 368.073272705078125 189.274734497070312 0
409 83.25 0 405.193817138671875 82.6788177490234375 0
409 82.75 0 405.193817138671875 82.6788177490234375 0
409 82.75 100 405.193817138671875 82.6788177490234375 0
409 83.25 100 405.193817138671875 82.6788177490234375 0
616.25 192 0 607.08642578125 188.144989013671875 0
615.75 192 0 607.08642578125 188.144989013671875 0
615.75 192 100 607.08642578125 188.144989013671875 0
616.25 192 100 607.08642578125 188.144989013671875 0
127.25 286 0 124.84906005859375 281.603759765625 0
126.75 286 0 124.84906005859375 281.603759765625 0
126.75 286 100 124.84906005859375 281.603759765625 0
127.25 286 100 124.84906005859375 281.603759765625 0
127.25 233 0 124.84906005859375 227.603775024414062 0
126.75 233 0 124.84906005859375 227.603775024414062 0
126.75 233 100 124.84906005859375 227.603775024414062 0
127.25 233 100 124.84906005859375 227.603775024414062 0
383.25 352 0 378.272735595703125 348.428558349609375 0
382.75 352 0 378.272735595703125 348.428558349609375 0
382.75 352 100 378.272735595703125 348.428558349609375 0
383.25 352 100 378.272735595703125 348.428558349609375 0
383.25 275 0 378.272735595703125 270.428558349609375 0
382.75 275 0 378.272735595703125 270.428558349609375 0
382.75 275 100 378.272735595703125 270.428558349609375 0
383.25 275 100 378.272735595703125 270.428558349609375 0
554.75 189 0 549.504150390625 188.2127685546875 0
555.25 189 0 549.504150390625 188.2127685546875 0
555.25 189 100 549.504150390625 188.2127685546875 0
554.75 189 100 549.504150390625 188.2127685546875 0
197.25 255 0 191.770828247070312 248.916671752929688 0
196.75 255 0 191.770828247070312 248.916671752929688 0
196.75 255 100 191.770828247070312 248.916671752929688 0
197.25 255 100 191.770828247070312 248.916671752929688 0
197.25 219 0 191.770828247070312 211.916671752929688 0
196.75 219 0 191.770828247070312 211.916671752929688 0
196.75 219 100 191.770828247070312 211.916671752929688 0
197.25 219 100 191.770828247070312 211.916671752929688 0
197.25 128 0 189.663467407226562 124.076919555664062 0
196.75 128 0 189.663467407226562 124.076919555664062 0
196.75 128 100 189.663467407226562 124.076919555664062 0
197.25 128 100 189.663467407226562 124.076919555664062 0
197.25 102 0 189.663467407226562 97.0769195556640625 0
196.75 102 0 189.663467407226562 97.0769195556640625 0
196.75 102 100 189.663467407226562 97.0769195556640625 0
197.25 102 100 189.663467407226562 97.0769195556640625 0
470.25 257 0 463.015380859375 254.046157836914062 0
469.75 257 0 463.015380859375 254.046157836914062 0
469.75 257 100 463.015380859375 254.046157836914062 0
470.25 257 100 463.015380859375 254.046157836914062 0
470.25 192 0 463.015380859375 188.046157836914062 0
469.75 192 0 463.015380859375 188.046157836914062 0
469.75 192 100 463.015380859375 188.046157836914062 0
470.25 192 100 463.015380859375 188.046157836914062 0
291.25 148 0 276.867279052734375 139.691360473632812 0
290.75 148 0 276.867279052734375 139.691360473632812 0
290.75 148 100 276.867279052734375 139.691360473632812 0
291.25 148 100 276.867279052734375 139.691360473632812 0
147.75 286 0 145.511367797851562 280.666656494140625 0
148.25 286 0 145.511367797851562 280.666656494140625 0
148.25 286 100 145.511367797851562 280.666656494140625 0
147.75 286 100 145.511367797851562 280.666656494140625 0
147.75 352 0 145.511367797851562 347.666656494140625 0
148.25 352 0 145.511367797851562 347.666656494140625 0
148.25 352 100 145.511367797851562 347.666656494140625 0
147.75 352 100 145.511367797851562 347.666656494140625 0
147.75 68 0 146.859939575195312 66.590362548828125 0
148.25 68 0 146.859939575195312 66.590362548828125 0
148.25 68 100 146.859939575195312 66.590362548828125 0
147.75 68 100 146.859939575195312 66.590362548828125 0
147.75 234 0 146.859939575195312 233.590362548828125 0
148.25 234 0 146.859939575195312 233.590362548828125 0
148.25 234 100 146.859939575195312 233.590362548828125 0
147.75 234 100 146.859939575195312 233.590362548828125 0
407.75 473 0 405.84686279296875 471.79229736328125 0
408.25 473 0 405.84686279296875 471.79229736328125 0
408.25 473 100 405.84686279296875 471.79229736328125 0
407.75 473 100 405.84686279296875 471.79229736328125 0
290.75 32 0 285.737060546875 30.4482765197753906 0
291.25 32 0 285.737060546875 30.4482765197753906 0
291.25 32 100 285.737060546875 30.4482765197753906 0
290.75 32 100 285.737060546875 30.4482765197753906 0
290.75 90 0 285.737060546875 89.448272705078125 0
291.25 90 0 285.737060546875 89.448272705078125 0
291.25 90 100 285.737060546875 89.448272705078125 0
290.75 90 100 285.737060546875 89.448272705078125 0
250 352.25 0 245.153839111328125 346.830780029296875 0
250 351.75 0 245.153839111328125 346.830780029296875 0
250 351.75 100 245.153839111328125 346.830780029296875 0
250 352.25 100 245.153839111328125 346.830780029296875 0
315 352.25 0 311.153839111328125 346.830780029296875 0
315 351.75 0 311.153839111328125 346.830780029296875 0
315 351.75 100 311.153839111328125 346.830780029296875 0
315 352.25 100 311.153839111328125 346.830780029296875 0
254 167.75 0 246.08843994140625 163.185379028320312 0
254 168.25 0 246.08843994140625 163.185379028320312 0
254 168.25 100 246.08843994140625 163.185379028320312 0
254 167.75 100 246.08843994140625 163.185379028320312 0
148 168.25 0 143.205123901367188 163.935897827148438 0
148 167.75 0 143.205123901367188 163.935897827148438 0
148 167.75 100 143.205123901367188 163.935897827148438 0
148 168.25 100 143.205123901367188 163.935897827148438 0
187 168.25 0 183.205123901367188 163.935897827148438 0
187 167.75 0 183.205123901367188 163.935897827148438 0
187 167.75 100 183.205123901367188 163.935897827148438 0
187 168.25 100 183.205123901367188 163.935897827148438 0
769.25 452 0 0 0 -1
768.75 452 0 0 0 -1
768.75 190.25 0 0 0 -1
769.25 189.75 0 0 0 -1
769.25 452 100 0 0 1
768.75 452 100 0 0 1
768.75 190.25 100 0 0 1
769.25 189.75 100 0 0 1
769.25 189.75 0 0 0 -1
768.75 190.25 0 0 0 -1
370 190.25 0 0 0 -1
370 189.75 0 0 0 -1
769.25 189.75 100 0 0 1
768.75 190.25 100 0 0 1
370 190.25 100 0 0 1
370 189.75 100 0 0 1
409 83.25 0 0 0 -1
409 82.75 0 0 0 -1
555.25 82.75 0 0 0 -1
554.75 83.25 0 0 0 -1
409 83.25 100 0 0 1
409 82.75 100 0 0 1
555.25 82.75 100 0 0 1
554.75 83.25 100 0 0 1
554.75 83.25 0 0 0 -1
555.25 82.75 0 0 0 -1
555.25 189 0 0 0 -1
554.75 189 0 0 0 -1
554.75 83.25 100 0 0 1
555.25 82.75 100 0 0 1
555.25 189 100 0 0 1
554.75 189 100 0 0 1
616.25 259.25 0 0 0 -1
615.75 258.75 0 0 0 -1
615.75 192 0 0 0 -1
616.25 192 0 0 0 -1
616.25 259.25 100 0 0 1
615.75 258.75 100 0 0 1
615.75 192 100 0 0 1
616.25 192 100 0 0 1
615.75 258.75 0 0 0 -1
616.25 259.25 0 0 0 -1
408.25 259.25 0 0 0 -1
407.75 258.75 0 0 0 -1
615.75 258.75 100 0 0 1
616.25 259.25 100 0 0 1
408.25 259.25 100 0 0 1
407.75 258.75 100 0 0 1
127.25 286 0 0 0 -1
126.75 286 0 0 0 -1
126.75 233 0 0 0 -1
127.25 233 0 0 0 -1
127.25 286 100 0 0 1
126.75 286 100 0 0 1
126.75 233 100 0 0 1
127.25 233 100 0 0 1
383.25 352 0 0 0 -1
382.75 352 0 0 0 -1
382.75 275 0 0 0 -1
383.25 275 0 0 0 -1
383.25 352 100 0 0 1
382.75 352 100 0 0 1
382.75 275 100 0 0 1
383.25 275 100 0 0 1
197.25 255 0 0 0 -1
196.75 255 0 0 0 -1
196.75 219 0 0 0 -1
197.25 219 0 0 0 -1
197.25 255 100 0 0 1
196.75 255 100 0 0 1
196.75 219 100 0 0 1
197.25 219 100 0 0 1
197.25 128 0 0 0 -1
196.75 128 0 0 0 -1
196.75 102 0 0 0 -1
197.25 102 0 0 0 -1
197.25 128 100 0 0 1
196.75 128 100 0 0 1
196.75 102 100 0 0 1
197.25 102 100 0 0 1
470.25 257 0 0 0 -1
469.75 257 0 0 0 -1
469.75 192 0 0 0 -1
470.25 192 0 0 0 -1
470.25 257 100 0 0 1
469.75 257 100 0 0 1
469.75 192 100 0 0 1
470.25 192 100 0 0 1
291.25 168.25 0 0 0 -1
290.75 167.75 0 0 0 -1
290.75 148 0 0 0 -1
291.25 148 0 0 0 -1
291.25 168.25 100 0 0 1
290.75 167.75 100 0 0 1
290.75 148 100 0 0 1
291.25 148 100 0 0 1
290.75 167.75 0 0 0 -1
291.25 168.25 0 0 0 -1
254 168.25 0 0 0 -1
254 167.75 0 0 0 -1
290.75 167.75 100 0 0 1
291.25 168.25 100 0 0 1
254 168.25 100 0 0 1
254 167.75 100 0 0 1
147.75 286 0 0 0 -1
148.25 286 0 0 0 -1
148.25 352 0 0 0 -1
147.75 352 0 0 0 -1
147.75 286 100 0 0 1
148.25 286 100 0 0 1
148.25 352 100 0 0 1
147.75 352 100 0 0 1
147.75 68 0 0 0 -1
148.25 68 0 0 0 -1
148.25 234 0 0 0 -1
147.75 234 0 0 0 -1
147.75 68 100 0 0 1
148.25 68 100 0 0 1
148.25 234 100 0 0 1
147.75 234 100 0 0 1
407.75 258.75 0 0 0 -1
408.25 259.25 0 0 0 -1
408.25 473 0 0 0 -1
407.75 473 0 0 0 -1
407.75 258.75 100 0 0 1
408.25 259.25 100 0 0 1
408.25 473 100 0 0 1
407.75 473 100 0 0 1
290.75 32 0 0 0 -1
291.25 32 0 0 0 -1
291.25 90 0 0 0 -1
290.75 90 0 0 0 -1
290.75 32 100 0 0 1
291.25 32 100 0 0 1
291.25 90 100 0 0 1
290.75 90 100 0 0 1
250 352.25 0 0 0 -1
250 351.75 0 0 0 -1
315 351.75 0 0 0 -1
315 352.25 0 0 0 -1
250 352.25 100 0 0 1
250 351.75 100 0 0 1
315 351.75 100 0 0 1
315 352.25 100 0 0 1
148 168.25 0 0 0 -1
148 167.75 0 0 0 -1
187 167.75 0 0 0 -1
187 168.25 0 0 0 -1
148 168.25 100 0 0 1
148 167.75 100 0 0 1
187 167.75 100 0 0 1
187 168.25 100 0 0 1
4 0 1 2 3
4 4 5 6 7
4 8 9 10 11
4 12 13 14 15
4 16 17 18 19
4 20 21 22 23
4 24 25 26 27
4 28 29 30 31
4 32 33 34 35
4 36 37 38 39
4 40 41 42 43
4 44 45 46 47
4 48 49 50 51
4 52 53 54 55
4 56 57 58 59
4 60 61 62 63
4 64 65 66 67
4 68 69 70 71
4 72 73 74 75
4 76 77 78 79
4 80 81 82 83
4 84 85 86 87
4 88 89 90 91
4 92 93 94 95
4 96 97 98 99
4 100 101 102 103
4 104 105 106 107
4 108 109 110 111
4 112 113 114 115
4 116 117 118 119
4 120 121 122 123
4 124 125 126 127
4 128 129 130 131
4 132 133 134 135
4 136 137 138 139
4 140 141 142 143
4 144 145 146 147
4 148 149 150 151
4 152 153 154 155
4 156 157 158 159
4 160 161 162 163
4 164 165 166 167
4 168 169 170 171
4 172 173 174 175
4 176 177 178 179
4 180 181 182 183
4 184 185 186 187
4 188 189 190 191
4 192 193 194 195
4 196 197 198 199
4 200 201 202 203
4 204 205 206 207
4 208 209 210 211
4 212 213 214 215
4 216 217 218 219
4 220 221 222 223
4 224 225 226 227
4 228 229 230 231
4 232 233 234 235
4 236 237 238 239
4 240 241 242 243
4 244 245 246 247
4 248 249 250 251
4 252 253 254 255
4 256 257 258 259
4 260 261 262 263
4 264 265 266 267
4 268 269 270 271
4 272 273 274 275
4 276 277 278 279
4 280 281 282 283
4 284 285 286 287
4 288 289 290 291
4 292 293 294 295
4 296 297 298 299
4 300 301 302 303
4 304 305 306 307
4 308 309 310 311
4 312 313 314 315
4 316 317 318 319
4 320 321 322 323
4 324 325 326 327
4 328 329 330 331
4 332 333 334 335
4 336 337 338 339
4 340 341 342 343
4 344 345 346 347
4 348 349 350 351
4 352 353 354 355
4 356 357 358 359
4 360 361 362 363
4 364 365 366 367
4 368 369 370 371
4 372 373 374 375
4 376 377 378 379
4 380 381 382 383
4 384 385 386 387
4 388 389 390 391
4 392 393 394 395
4 396 397 398 399
4 400 401 402 403
4 404 405 406 407
4 408 409 410 411
4 412 413 414 415
