ply
format ascii 1.0
element vertex 384
property float x
property float y
property float z
property float nx
property float ny
property float nz
element quads 96
property list uchar int vertex_indices
end_header
494.25 498 0 1 0 0
494.25 351 0 1 0 0
494.25 351 100 1 0 0
494.25 498 100 1 0 0
493.75 498 0 -1 -0 0
493.75 351 0 -1 -0 0
493.75 351 100 -1 -0 0
493.75 498 100 -1 -0 0
178.75 413.25 0 -0 1 0
295.75 413.25 0 -0 1 0
295.75 413.25 100 -0 1 0
178.75 413.25 100 -0 1 0
179.25 412.75 0 0 -1 0
296.25 412.75 0 0 -1 0
296.25 412.75 100 0 -1 0
179.25 412.75 100 0 -1 0
179.25 412.75 0 1 0 0
179.25 139.25 0 1 0 0
179.25 139.25 100 1 0 0
179.25 412.75 100 1 0 0
178.75 413.25 0 -1 -0 0
178.75 138.75 0 -1 -0 0
178.75 138.75 100 -1 -0 0
178.75 413.25 100 -1 -0 0
295.75 413.25 0 -1 0 0
295.75 497 0 -1 0 0
295.75 497 100 -1 0 0
295.75 413.25 100 -1 0 0
296.25 412.75 0 1 -0 0
296.25 497 0 1 -0 0
296.25 497 100 1 -0 0
296.25 412.75 100 1 -0 0
548 212.25 0 -0 1 0
676 212.25 0 -0 1 0
676 212.25 100 -0 1 0
548 212.25 100 -0 1 0
548 211.75 0 0 -1 0
676 211.75 0 0 -1 0
676 211.75 100 0 -1 0
548 211.75 100 0 -1 0
319 139.25 0 -0 1 0
385.25 139.25 0 -0 1 0
385.25 139.25 100 -0 1 0
319 139.25 100 -0 1 0
319 138.75 0 0 -1 0
384.75 138.75 0 0 -1 0
384.75 138.75 100 0 -1 0
319 138.75 100 0 -1 0
385.25 139.25 0 1 0 0
385.25 54 0 1 0 0
385.25 54 100 1 0 0
385.25 139.25 100 1 0 0
384.75 138.75 0 -1 -0 0
384.75 54 0 -1 -0 0
384.75 54 100 -1 -0 0
384.75 138.75 100 -1 -0 0
584.25 412 0 1 0 0
584.25 350.75 0 1 0 0
584.25 350.75 100 1 0 0
584.25 412 100 1 0 0
583.75 412 0 -1 -0 0
583.75 351.25 0 -1 -0 0
583.75 351.25 100 -1 -0 0
583.75 412 100 -1 -0 0
584.25 350.75 0 -0 -1 0
479 350.75 0 -0 -1 0
479 350.75 100 -0 -1 0
584.25 350.75 100 -0 -1 0
583.75 351.25 0 0 1 0
479 351.25 0 0 1 0
479 351.25 100 0 1 0
583.75 351.25 100 0 1 0
227.25 150 0 1 0 0
227.25 105.25 0 1 0 0
227.25 105.25 100 1 0 0
227.25 150 100 1 0 0
226.75 150 0 -1 -0 0
226.75 104.75 0 -1 -0 0
226.75 104.75 100 -1 -0 0
226.75 150 100 -1 -0 0
227.25 105.25 0 -0 1 0
317.75 105.25 0 -0 1 0
317.75 105.25 100 -0 1 0
227.25 105.25 100 -0 1 0
226.75 104.75 0 0 -1 0
318.25 104.75 0 0 -1 0
318.25 104.75 100 0 -1 0
226.75 104.75 100 0 -1 0
317.75 105.25 0 -1 0 0
317.75 271.75 0 -1 0 0
317.75 271.75 100 -1 0 0
317.75 105.25 100 -1 0 0
318.25 104.75 0 1 -0 0
318.25 272.25 0 1 -0 0
318.25 272.25 100 1 -0 0
318.25 104.75 100 1 -0 0
317.75 271.75 0 -0 -1 0
180 271.75 0 -0 -1 0
180 271.75 100 -0 -1 0
317.75 271.75 100 -0 -1 0
318.25 272.25 0 0 1 0
180 272.25 0 0 1 0
180 272.25 100 0 1 0
318.25 272.25 100 0 1 0
179.25 139.25 0 -0 1 0
229 139.25 0 -0 1 0
229 139.25 100 -0 1 0
179.25 139.25 100 -0 1 0
178.75 138.75 0 0 -1 0
229 138.75 0 0 -1 0
229 138.75 100 0 -1 0
178.75 138.75 100 0 -1 0
676.75 139.25 0 -1 0 0
676.75 412.75 0 -1 0 0
676.75 412.75 100 -1 0 0
676.75 139.25 100 -1 0 0
677.25 138.75 0 1 -0 0
677.25 413.25 0 1 -0 0
677.25 413.25 100 1 -0 0
677.25 138.75 100 1 -0 0
677.25 138.75 0 -0 -1 0
480.25 138.75 0 -0 -1 0
480.25 138.75 100 -0 -1 0
677.25 138.75 100 -0 -1 0
676.75 139.25 0 0 1 0
479.75 139.25 0 0 1 0
479.75 139.25 100 0 1 0
676.75 139.25 100 0 1 0
676.75 412.75 0 -0 -1 0
359.75 412.75 0 -0 -1 0
359.75 412.75 100 -0 -1 0
676.75 412.75 100 -0 -1 0
677.25 413.25 0 0 1 0
360.25 413.25 0 0 1 0
360.25 413.25 100 0 1 0
677.25 413.25 100 0 1 0
545.75 139 0 -1 0 0
545.75 498 0 -1 0 0
545.75 498 100 -1 0 0
545.75 139 100 -1 0 0
546.25 139 0 1 -0 0
546.25 498 0 1 -0 0
546.25 498 100 1 -0 0
546.25 139 100 1 -0 0
480.25 138.75 0 1 0 0
480.25 54 0 1 0 0
480.25 54 100 1 0 0
480.25 138.75 100 1 0 0
479.75 139.25 0 -1 -0 0
479.75 54 0 -1 -0 0
479.75 54 100 -1 -0 0
479.75 139.25 100 -1 -0 0
359.75 412.75 0 -1 0 0
359.75 497 0 -1 0 0
359.75 497 100 -1 0 0
359.75 412.75 100 -1 0 0
360.25 413.25 0 1 -0 0
360.25 497 0 1 -0 0
360.25 497 100 1 -0 0
360.25 413.25 100 1 -0 0
494.25 498 0 490.88775634765625 495.61224365234375 0
493.75 498 0 490.88775634765625 495.61224365234375 0
493.75 498 100 490.88775634765625 495.61224365234375 0
494.25 498 100 490.88775634765625 495.61224365234375 0
494.25 351 0 490.88775634765625 347.61224365234375 0
493.75 351 0 490.88775634765625 347.61224365234375 0
493.75 351 100 490.88775634765625 347.61224365234375 0
494.25 351 100 490.88775634765625 347.61224365234375 0
548 212.25 0 542.71875 210.591796875 0
548 211.75 0 542.71875 210.591796875 0
548 211.75 100 542.71875 210.591796875 0
548 212.25 100 542.71875 210.591796875 0
676 212.25 0 671.71875 210.591796875 0
676 211.75 0 671.71875 210.591796875 0
676 211.75 100 671.71875 210.591796875 0
676 212.25 100 671.71875 210.591796875 0
319 139.25 0 313.184906005859375 137.148117065429688 0
319 138.75 0 313.184906005859375 137.148117065429688 0
319 138.75 100 313.184906005859375 137.148117065429688 0
319 139.25 100 313.184906005859375 137.148117065429688 0
584.25 412 0 574.71124267578125 406.273468017578125 0
583.75 412 0 574.71124267578125 406.273468017578125 0
583.75 412 100 574.71124267578125 406.273468017578125 0
584.25 412 100 574.71124267578125 406.273468017578125 0
479 350.75 0 473.448944091796875 347.417449951171875 0
479 351.25 0 473.448944091796875 347.417449951171875 0
479 351.25 100 473.448944091796875 347.417449951171875 0
479 350.75 100 473.448944091796875 347.417449951171875 0
227.25 150 0 222.171783447265625 147.648040771484375 0
226.75 150 0 222.171783447265625 147.648040771484375 0
226.75 150 100 222.171783447265625 147.648040771484375 0
227.25 150 100 222.171783447265625 147.648040771484375 0
545.75 139 0 544.22979736328125 137.612808227539062 0
546.25 139 0 544.22979736328125 137.612808227539062 0
546.25 139 100 544.22979736328125 137.612808227539062 0
545.75 139 100 544.22979736328125 137.612808227539062 0
545.75 498 0 544.22979736328125 497.612823486328125 0
546.25 498 0 544.22979736328125 497.612823486328125 0
546.25 498 100 544.22979736328125 497.612823486328125 0
545.75 498 100 544.22979736328125 497.612823486328125 0
180 271.75 0 177.693283081054688 269.7772216796875 0
180 272.25 0 177.693283081054688 269.7772216796875 0
180 272.25 100 177.693283081054688 269.7772216796875 0
180 271.75 100 177.693283081054688 269.7772216796875 0
295.75 497 0 292.218658447265625 492.065673828125 0
296.25 497 0 292.218658447265625 492.065673828125 0
296.25 497 100 292.218658447265625 492.065673828125 0
295.75 497 100 292.218658447265625 492.065673828125 0
385.25 54 0 380.730926513671875 52.3665695190429688 0
384.75 54 0 380.730926513671875 52.3665695190429688 0
384.75 54 100 380.730926513671875 52.3665695190429688 0
385.25 54 100 380.730926513671875 52.3665695190429688 0
359.75 497 0 355.47998046875 492.10089111328125 0
360.25 497 0 355.47998046875 492.10089111328125 0
360.25 497 100 355.47998046875 492.10089111328125 0
359.75 497 100 355.47998046875 492.10089111328125 0
480.25 54 0 474.583343505859375 52.3628311157226562 0
479.75 54 0 474.583343505859375 52.3628311157226562 0
479.75 54 100 474.583343505859375 52.3628311157226562 0
480.25 54 100 474.583343505859375 52.3628311157226562 0
229 139.25 0 225.396987915039062 136.451004028320312 0
229 138.75 0 225.396987915039062 136.451004028320312 0
229 138.75 100 225.396987915039062 136.451004028320312 0
229 139.25 100 225.396987915039062 136.451004028320312 0
494.25 498 0 0 0 -1
493.75 498 0 0 0 -1
493.75 351 0 0 0 -1
494.25 351 0 0 0 -1
494.25 498 100 0 0 1
493.75 498 100 0 0 1
493.75 351 100 0 0 1
494.25 351 100 0 0 1
178.75 413.25 0 0 0 -1
179.25 412.75 0 0 0 -1
296.25 412.75 0 0 0 -1
295.75 413.25 0 0 0 -1
178.75 413.25 100 0 0 1
179.25 412.75 100 0 0 1
296.25 412.75 100 0 0 1
295.75 413.25 100 0 0 1
179.25 412.75 0 0 0 -1
178.75 413.25 0 0 0 -1
178.75 138.75 0 0 0 -1
179.25 139.25 0 0 0 -1
179.25 412.75 100 0 0 1
178.75 413.25 100 0 0 1
178.75 138.75 100 0 0 1
179.25 139.25 100 0 0 1
295.75 413.25 0 0 0 -1
296.25 412.75 0 0 0 -1
296.25 497 0 0 0 -1
295.75 497 0 0 0 -1
295.75 413.25 100 0 0 1
296.25 412.75 100 0 0 1
296.25 497 100 0 0 1
295.75 497 100 0 0 1
548 212.25 0 0 0 -1
548 211.75 0 0 0 -1
676 211.75 0 0 0 -1
676 212.25 0 0 0 -1
548 212.25 100 0 0 1
548 211.75 100 0 0 1
676 211.75 100 0 0 1
676 212.25 100 0 0 1
319 139.25 0 0 0 -1
319 138.75 0 0 0 -1
384.75 138.75 0 0 0 -1
385.25 139.25 0 0 0 -1
319 139.25 100 0 0 1
319 138.75 100 0 0 1
384.75 138.75 100 0 0 1
385.25 139.25 100 0 0 1
385.25 139.25 0 0 0 -1
384.75 138.75 0 0 0 -1
384.75 54 0 0 0 -1
385.25 54 0 0 0 -1
385.25 139.25 100 0 0 1
384.75 138.75 100 0 0 1
384.75 54 100 0 0 1
385.25 54 100 0 0 1
584.25 412 0 0 0 -1
583.75 412 0 0 0 -1
583.75 351.25 0 0 0 -1
584.25 350.75 0 0 0 -1
584.25 412 100 0 0 1
583.75 412 100 0 0 1
583.75 351.25 100 0 0 1
584.25 350.75 100 0 0 1
584.25 350.75 0 0 0 -1
583.75 351.25 0 0 0 -1
479 351.25 0 0 0 -1
479 350.75 0 0 0 -1
584.25 350.75 100 0 0 1
583.75 351.25 100 0 0 1
479 351.25 100 0 0 1
479 350.75 100 0 0 1
227.25 150 0 0 0 -1
226.75 150 0 0 0 -1
226.75 104.75 0 0 0 -1
227.25 105.25 0 0 0 -1
227.25 150 100 0 0 1
226.75 150 100 0 0 1
226.75 104.75 100 0 0 1
227.25 105.25 100 0 0 1
227.25 105.25 0 0 0 -1
226.75 104.75 0 0 0 -1
318.25 104.75 0 0 0 -1
317.75 105.25 0 0 0 -1
227.25 105.25 100 0 0 1
226.75 104.75 100 0 0 1
318.25 104.75 100 0 0 1
317.75 105.25 100 0 0 1
317.75 105.25 0 0 0 -1
318.25 104.75 0 0 0 -1
318.25 272.25 0 0 0 -1
317.75 271.75 0 0 0 -1
317.75 105.25 100 0 0 1
318.25 104.75 100 0 0 1
318.25 272.25 100 0 0 1
317.75 271.75 100 0 0 1
317.75 271.75 0 0 0 -1
318.25 272.25 0 0 0 -1
180 272.25 0 0 0 -1
180 271.75 0 0 0 -1
317.75 271.75 100 0 0 1
318.25 272.25 100 0 0 1
180 272.25 100 0 0 1
180 271.75 100 0 0 1
179.25 139.25 0 0 0 -1
178.75 138.75 0 0 0 -1
229 138.75 0 0 0 -1
229 139.25 0 0 0 -1
179.25 139.25 100 0 0 1
178.75 138.75 100 0 0 1
229 138.75 100 0 0 1
229 139.25 100 0 0 1
676.75 139.25 0 0 0 -1
677.25 138.75 0 0 0 -1
677.25 413.25 0 0 0 -1
676.75 412.75 0 0 0 -1
676.75 139.25 100 0 0 1
677.25 138.75 100 0 0 1
677.25 413.25 100 0 0 1
676.75 412.75 100 0 0 1
677.25 138.75 0 0 0 -1
676.75 139.25 0 0 0 -1
479.75 139.25 0 0 0 -1
480.25 138.75 0 0 0 -1
677.25 138.75 100 0 0 1
676.75 139.25 100 0 0 1
479.75 139.25 100 0 0 1
480.25 138.75 100 0 0 1
676.75 412.75 0 0 0 -1
677.25 413.25 0 0 0 -1
360.25 413.25 0 0 0 -1
359.75 412.75 0 0 0 -1
676.75 412.75 100 0 0 1
677.25 413.25 100 0 0 1
360.25 413.25 100 0 0 1
359.75 412.75 100 0 0 1
545.75 139 0 0 0 -1
546.25 139 0 0 0 -1
546.25 498 0 0 0 -1
545.75 498 0 0 0 -1
545.75 139 100 0 0 1
546.25 139 100 0 0 1
546.25 498 100 0 0 1
545.75 498 100 0 0 1
480.25 138.75 0 0 0 -1
479.75 139.25 0 0 0 -1
479.75 54 0 0 0 -1
480.25 54 0 0 0 -1
480.25 138.75 100 0 0 1
479.75 139.25 100 0 0 1
479.75 54 100 0 0 1
480.25 54 100 0 0 1
359.75 412.75 0 0 0 -1
360.25 413.25 0 0 0 -1
360.25 497 0 0 0 -1
359.75 497 0 0 0 -1
359.75 412.75 100 0 0 1
360.25 413.25 100 0 0 1
360.25 497 100 0 0 1
359.75 497 100 0 0 1
4 0 1 2 3
4 4 5 6 7
4 8 9 10 11
4 12 13 14 15
4 16 17 18 19
4 20 21 22 23
4 24 25 26 27
4 28 29 30 31
4 32 33 34 35
4 36 37 38 39
4 40 41 42 43
4 44 45 46 47
4 48 49 50 51
4 52 53 54 55
4 56 57 58 59
4 60 61 62 63
4 64 65 66 67
4 68 69 70 71
4 72 73 74 75
4 76 77 78 79
4 80 81 82 83
4 84 85 86 87
4 88 89 90 91
4 92 93 94 95
4 96 97 98 99
4 100 101 102 103
4 104 105 106 107
4 108 109 110 111
4 112 113 114 115
4 116 117 118 119
4 120 121 122 123
4 124 125 126 127
4 128 129 130 131
4 132 133 134 135
4 136 137 138 139
4 140 141 142 143
4 144 145 146 147
4 148 149 150 151
4 152 153 154 155
4 156 157 158 159
4 160 161 162 163
4 164 165 166 167
4 168 169 170 171
4 172 173 174 175
4 176 177 178 179
4 180 181 182 183
4 184 185 186 187
4 188 189 190 191
4 192 193 194 195
4 196 197 198 199
4 200 201 202 203
4 204 205 206 207
4 208 209 210 211
4 212 213 214 215
4 216 217 218 219
4 220 221 222 223
4 224 225 226 227
4 228 229 230 231
4 232 233 234 235
4 236 237 238 239
4 240 241 242 243
4 244 245 246 247
4 248 249 250 251
4 252 253 254 255
4 256 257 258 259
4 260 261 262 263
4 264 265 266 267
4 268 269 270 271
4 272 273 274 275
4 276 277 278 279
4 280 281 282 283
4 284 285 286 287
4 288 289 290 291
4 292 293 294 295
4 296 297 298 299
4 300 301 302 303
4 304 305 306 307
4 308 309 310 311
4 312 313 314 315
4 316 317 318 319
4 320 321 322 323
4 324 325 326 327
4 328 329 330 331
4 332 333 334 335
4 336 337 338 339
4 340 341 342 343
4 344 345 346 347
4 348 349 350 351
4 352 353 354 355
4 356 357 358 359
4 360 361 362 363
4 364 365 366 367
4 368 369 370 371
4 372 373 374 375
4 376 377 378 379
4 380 381 382 383
