ply
format ascii 1.0
element vertex 690
property float x
property float y
property float z
property float nx
property float ny
property float nz
element quads 168
property list uchar int vertex_indices
element triads 6
property list uchar int vertex_indices
end_header
477 239 0 1 0 0
477 136 0 1 0 0
477 136 100 1 0 0
477 239 100 1 0 0
471 239 0 -1 -0 0
471 136 0 -1 -0 0
471 136 100 -1 -0 0
471 239 100 -1 -0 0
474 132.700225830078125 0 -0 -1 0
409 132.700225830078125 0 -0 -1 0
409 132.700225830078125 100 -0 -1 0
474 132.700225830078125 100 -0 -1 0
474 138.700225830078125 0 0 1 0
409 138.700225830078125 0 0 1 0
409 138.700225830078125 100 0 1 0
474 138.700225830078125 100 0 1 0
597 132.700225830078125 0 -0 -1 0
536 132.700225830078125 0 -0 -1 0
536 132.700225830078125 100 -0 -1 0
597 132.700225830078125 100 -0 -1 0
597 138.700225830078125 0 0 1 0
536 138.700225830078125 0 0 1 0
536 138.700225830078125 100 0 1 0
597 138.700225830078125 100 0 1 0
260 328 0 1 0 0
260 272 0 1 0 0
260 272 100 1 0 0
260 328 100 1 0 0
254 328 0 -1 -0 0
254 275 0 -1 -0 0
254 275 100 -1 -0 0
254 328 100 -1 -0 0
254 275 0 -1 0 0
254 421 0 -1 0 0
254 421 100 -1 0 0
254 275 100 -1 0 0
260 275 0 1 -0 0
260 415 0 1 -0 0
260 415 100 1 -0 0
260 275 100 1 -0 0
260 278 0 1 0 0
260 135.996994018554688 0 1 0 0
260 135.996994018554688 100 1 0 0
260 278 100 1 0 0
254 275 0 -1 -0 0
254 136 0 -1 -0 0
254 136 100 -1 -0 0
254 275 100 -1 -0 0
260 272 0 -0 -1 0
249 272 0 -0 -1 0
249 272 100 -0 -1 0
260 272 100 -0 -1 0
260 278 0 0 1 0
252 278 0 0 1 0
252 278 100 0 1 0
260 278 100 0 1 0
260 166 0 1 0 0
260 136 0 1 0 0
260 136 100 1 0 0
260 166 100 1 0 0
254 166 0 -1 -0 0
254 133 0 -1 -0 0
254 133 100 -1 -0 0
254 166 100 -1 -0 0
254.006011962890625 139 0 -0 1 0
334 139 0 -0 1 0
334 139 100 -0 1 0
254.006011962890625 139 100 -0 1 0
254 133 0 0 -1 0
334 133 0 0 -1 0
334 133 100 0 -1 0
254 133 100 0 -1 0
260 135.996994018554688 0 0.999997973442077637 -0.00200601411052048206 0
246 -6843.0029296875 0 0.999997973442077637 -0.00200601411052048206 0
246 -6843.0029296875 100 0.999997973442077637 -0.00200601411052048206 0
260 135.996994018554688 100 0.999997973442077637 -0.00200601411052048206 0
254.006011962890625 139 0 -0.999997973442077637 0.00200601411052048206 0
252 -860.99700927734375 0 -0.999997973442077637 0.00200601411052048206 0
252 -860.99700927734375 100 -0.999997973442077637 0.00200601411052048206 0
254.006011962890625 139 100 -0.999997973442077637 0.00200601411052048206 0
245.52783203125 198 0 1 0 0
245.52783203125 165 0 1 0 0
245.52783203125 165 100 1 0 0
245.52783203125 198 100 1 0 0
239.52783203125 198 0 -1 -0 0
239.52783203125 165 0 -1 -0 0
239.52783203125 165 100 -1 -0 0
239.52783203125 198 100 -1 -0 0
245.52783203125 365 0 1 0 0
245.52783203125 314 0 1 0 0
245.52783203125 314 100 1 0 0
245.52783203125 365 100 1 0 0
239.52783203125 365 0 -1 -0 0
239.52783203125 314 0 -1 -0 0
239.52783203125 314 100 -1 -0 0
239.52783203125 365 100 -1 -0 0
412 414.605255126953125 0 -0 -1 0
375 414.605255126953125 0 -0 -1 0
375 414.605255126953125 100 -0 -1 0
412 414.605255126953125 100 -0 -1 0
412 420.605255126953125 0 0 1 0
375 420.605255126953125 0 0 1 0
375 420.605255126953125 100 0 1 0
412 420.605255126953125 100 0 1 0
275 415 0 -0 -1 0
260 415 0 -0 -1 0
260 415 100 -0 -1 0
275 415 100 -0 -1 0
275 421 0 0 1 0
254 421 0 0 1 0
254 421 100 0 1 0
275 421 100 0 1 0
596 263 0 -0 -1 0
541 263 0 -0 -1 0
541 263 100 -0 -1 0
596 263 100 -0 -1 0
596 269 0 0 1 0
541 269 0 0 1 0
541 269 100 0 1 0
596 269 100 0 1 0
547 266 0 1 0 0
547 239 0 1 0 0
547 239 100 1 0 0
547 266 100 1 0 0
541 269 0 -1 -0 0
541 239 0 -1 -0 0
541 239 100 -1 -0 0
541 269 100 -1 -0 0
541 263 0 -1 0 0
541 287.07342529296875 0 -1 0 0
541 287.07342529296875 100 -1 0 0
541 263 100 -1 0 0
547 266 0 1 -0 0
547 292.92657470703125 0 1 -0 0
547 292.92657470703125 100 1 -0 0
547 266 100 1 -0 0
252 328 0 1 0 0
252 314 0 1 0 0
252 314 100 1 0 0
252 328 100 1 0 0
246 328 0 -1 -0 0
246 314 0 -1 -0 0
246 314 100 -1 -0 0
246 328 100 -1 -0 0
544 235.748092651367188 0 -0 -1 0
507 235.748092651367188 0 -0 -1 0
507 235.748092651367188 100 -0 -1 0
544 235.748092651367188 100 -0 -1 0
544 241.748092651367188 0 0 1 0
507 241.748092651367188 0 0 1 0
507 241.748092651367188 100 0 1 0
544 241.748092651367188 100 0 1 0
437.505035400390625 324 0 1 0 0
437.505035400390625 274 0 1 0 0
437.505035400390625 274 100 1 0 0
437.505035400390625 324 100 1 0 0
431.505035400390625 324 0 -1 -0 0
431.505035400390625 274 0 -1 -0 0
431.505035400390625 274 100 -1 -0 0
431.505035400390625 324 100 -1 -0 0
594 136 0 -1 0 0
594 414.048675537109375 0 -1 0 0
594 414.048675537109375 100 -1 0 0
594 136 100 -1 0 0
600 136 0 1 -0 0
600 419.951324462890625 0 1 -0 0
600 419.951324462890625 100 1 -0 0
600 136 100 1 -0 0
594 414.048675537109375 0 -0.0163562744855880737 -0.999866247177124023 0
559.950927734375 414.60565185546875 0 -0.0163562744855880737 -0.999866247177124023 0
559.950927734375 414.60565185546875 100 -0.0163562744855880737 -0.999866247177124023 0
594 414.048675537109375 100 -0.0163562744855880737 -0.999866247177124023 0
600 419.951324462890625 0 0.0163562744855880737 0.999866247177124023 0
560.049072265625 420.6048583984375 0 0.0163562744855880737 0.999866247177124023 0
560.049072265625 420.6048583984375 100 0.0163562744855880737 0.999866247177124023 0
600 419.951324462890625 100 0.0163562744855880737 0.999866247177124023 0
471.366546630859375 274.99224853515625 0 -0.999996662139892578 -0.0025812685489654541 0
471.007568359375 414.05975341796875 0 -0.999996662139892578 -0.0025812685489654541 0
471.007568359375 414.05975341796875 100 -0.999996662139892578 -0.0025812685489654541 0
471.366546630859375 274.99224853515625 100 -0.999996662139892578 -0.0025812685489654541 0
477.36651611328125 275.00775146484375 0 0.999996662139892578 0.0025812685489654541 0
476.992431640625 419.94024658203125 0 0.999996662139892578 0.0025812685489654541 0
476.992431640625 419.94024658203125 100 0.999996662139892578 0.0025812685489654541 0
477.36651611328125 275.00775146484375 100 0.999996662139892578 0.0025812685489654541 0
471.007568359375 414.05975341796875 0 -0.0201713331043720245 -0.999796509742736816 0
443.939483642578125 414.605865478515625 0 -0.0201713331043720245 -0.999796509742736816 0
443.939483642578125 414.605865478515625 100 -0.0201713331043720245 -0.999796509742736816 0
471.007568359375 414.05975341796875 100 -0.0201713331043720245 -0.999796509742736816 0
476.992431640625 419.94024658203125 0 0.0201713331043720245 0.999796509742736816 0
444.060516357421875 420.604644775390625 0 0.0201713331043720245 0.999796509742736816 0
444.060516357421875 420.604644775390625 100 0.0201713331043720245 0.999796509742736816 0
476.992431640625 419.94024658203125 100 0.0201713331043720245 0.999796509742736816 0
246 -6843.0029296875 0 -1 0 0
246 275 0 -1 0 0
246 275 100 -1 0 0
246 -6843.0029296875 100 -1 0 0
252 -860.99700927734375 0 1 -0 0
252 278 0 1 -0 0
252 278 100 1 -0 0
252 -860.99700927734375 100 1 -0 0
245.523651123046875 274.84185791015625 0 0.99860990047454834 -0.0527093894779682159 0
245.17181396484375 268.175872802734375 0 0.99860990047454834 -0.0527093894779682159 0
245.17181396484375 268.175872802734375 100 0.99860990047454834 -0.0527093894779682159 0
245.523651123046875 274.84185791015625 100 0.99860990047454834 -0.0527093894779682159 0
239.531997680664062 275.15814208984375 0 -0.99860990047454834 0.0527093894779682159 0
238.998260498046875 265.046142578125 0 -0.99860990047454834 0.0527093894779682159 0
238.998260498046875 265.046142578125 100 -0.99860990047454834 0.0527093894779682159 0
239.531997680664062 275.15814208984375 100 -0.99860990047454834 0.0527093894779682159 0
245.063156127929688 262.161224365234375 0 0.999758243560791016 0.0219875015318393707 0
245.527099609375 241.065963745117188 0 0.999758243560791016 0.0219875015318393707 0
245.527099609375 241.065963745117188 100 0.999758243560791016 0.0219875015318393707 0
245.063156127929688 262.161224365234375 100 0.999758243560791016 0.0219875015318393707 0
238.998260498046875 265.046142578125 0 -0.999758243560791016 -0.0219875015318393707 0
239.528549194335938 240.934036254882812 0 -0.999758243560791016 -0.0219875015318393707 0
239.528549194335938 240.934036254882812 100 -0.999758243560791016 -0.0219875015318393707 0
238.998260498046875 265.046142578125 100 -0.999758243560791016 -0.0219875015318393707 0
245.17181396484375 268.175872802734375 0 -0.0539886057376861572 0.998541533946990967 0
257.838043212890625 268.8607177734375 0 -0.0539886057376861572 0.998541533946990967 0
257.838043212890625 268.8607177734375 100 -0.0539886057376861572 0.998541533946990967 0
245.17181396484375 268.175872802734375 100 -0.0539886057376861572 0.998541533946990967 0
245.063156127929688 262.161224365234375 0 0.0539886057376861572 -0.998541533946990967 0
258.161956787109375 262.86944580078125 0 0.0539886057376861572 -0.998541533946990967 0
258.161956787109375 262.86944580078125 100 0.0539886057376861572 -0.998541533946990967 0
245.063156127929688 262.161224365234375 100 0.0539886057376861572 -0.998541533946990967 0
541 287.07342529296875 0 -0.0247745290398597717 -0.999693036079406738 0
507.925689697265625 287.89306640625 0 -0.0247745290398597717 -0.999693036079406738 0
507.925689697265625 287.89306640625 100 -0.0247745290398597717 -0.999693036079406738 0
541 287.07342529296875 100 -0.0247745290398597717 -0.999693036079406738 0
547 292.92657470703125 0 0.0247745290398597717 0.999693036079406738 0
508.074310302734375 293.8912353515625 0 0.0247745290398597717 0.999693036079406738 0
508.074310302734375 293.8912353515625 100 0.0247745290398597717 0.999693036079406738 0
547 292.92657470703125 100 0.0247745290398597717 0.999693036079406738 0
252 364 0 1 0 0
252 278 0 1 0 0
252 278 100 1 0 0
252 364 100 1 0 0
246 364 0 -1 -0 0
246 275 0 -1 -0 0
246 275 100 -1 -0 0
246 364 100 -1 -0 0
249 272 0 -0 -1 0
243 272 0 -0 -1 0
243 272 100 -0 -1 0
249 272 100 -0 -1 0
252 278 0 0 1 0
243 278 0 0 1 0
243 278 100 0 1 0
252 278 100 0 1 0
418.26727294921875 137.02154541015625 0 -0.999974191188812256 0.00718406494706869125 0
419.021484375 242 0 -0.999974191188812256 0.00718406494706869125 0
419.021484375 242 100 -0.999974191188812256 0.00718406494706869125 0
418.26727294921875 137.02154541015625 100 -0.999974191188812256 0.00718406494706869125 0
424.267120361328125 136.97845458984375 0 0.999974191188812256 -0.00718406494706869125 0
424.978515625 236 0 0.999974191188812256 -0.00718406494706869125 0
424.978515625 236 100 0.999974191188812256 -0.00718406494706869125 0
424.267120361328125 136.97845458984375 100 0.999974191188812256 -0.00718406494706869125 0
419.021484375 242 0 -0 1 0
444 242 0 -0 1 0
444 242 100 -0 1 0
419.021484375 242 100 -0 1 0
424.978515625 236 0 0 -1 0
444 236 0 0 -1 0
444 236 100 0 -1 0
424.978515625 236 100 0 -1 0
477 239 0 472.368927001953125 237.679611206054688 0
471 239 0 472.368927001953125 237.679611206054688 0
471 239 100 472.368927001953125 237.679611206054688 0
477 239 100 472.368927001953125 237.679611206054688 0
477 136 0 472.368927001953125 133.679611206054688 0
471 136 0 472.368927001953125 133.679611206054688 0
471 136 100 472.368927001953125 133.679611206054688 0
477 136 100 472.368927001953125 133.679611206054688 0
474 132.700225830078125 0 467.70770263671875 130.658676147460938 0
474 138.700225830078125 0 467.70770263671875 130.658676147460938 0
474 138.700225830078125 100 467.70770263671875 130.658676147460938 0
474 132.700225830078125 100 467.70770263671875 130.658676147460938 0
409 132.700225830078125 0 401.70770263671875 130.658676147460938 0
409 138.700225830078125 0 401.70770263671875 130.658676147460938 0
409 138.700225830078125 100 401.70770263671875 130.658676147460938 0
409 132.700225830078125 100 401.70770263671875 130.658676147460938 0
597 132.700225830078125 0 588.213134765625 130.524810791015625 0
597 138.700225830078125 0 588.213134765625 130.524810791015625 0
597 138.700225830078125 100 588.213134765625 130.524810791015625 0
597 132.700225830078125 100 588.213134765625 130.524810791015625 0
536 132.700225830078125 0 526.213134765625 130.524810791015625 0
536 138.700225830078125 0 526.213134765625 130.524810791015625 0
536 138.700225830078125 100 526.213134765625 130.524810791015625 0
536 132.700225830078125 100 526.213134765625 130.524810791015625 0
260 328 0 255.357147216796875 323.142852783203125 0
254 328 0 255.357147216796875 323.142852783203125 0
254 328 100 255.357147216796875 323.142852783203125 0
260 328 100 255.357147216796875 323.142852783203125 0
260 166 0 251.333328247070312 161.466659545898438 0
254 166 0 251.333328247070312 161.466659545898438 0
254 166 100 251.333328247070312 161.466659545898438 0
260 166 100 251.333328247070312 161.466659545898438 0
245.52783203125 198 0 238.08758544921875 193 0
239.52783203125 198 0 238.08758544921875 193 0
239.52783203125 198 100 238.08758544921875 193 0
245.52783203125 198 100 238.08758544921875 193 0
245.52783203125 165 0 238.08758544921875 159 0
239.52783203125 165 0 238.08758544921875 159 0
239.52783203125 165 100 238.08758544921875 159 0
245.52783203125 165 100 238.08758544921875 159 0
245.52783203125 365 0 240.71356201171875 358.8431396484375 0
239.52783203125 365 0 240.71356201171875 358.8431396484375 0
239.52783203125 365 100 240.71356201171875 358.8431396484375 0
245.52783203125 365 100 240.71356201171875 358.8431396484375 0
245.52783203125 314 0 240.71356201171875 306.8431396484375 0
239.52783203125 314 0 240.71356201171875 306.8431396484375 0
239.52783203125 314 100 240.71356201171875 306.8431396484375 0
245.52783203125 314 100 240.71356201171875 306.8431396484375 0
412 414.605255126953125 0 401.8648681640625 403.39971923828125 0
412 420.605255126953125 0 401.8648681640625 403.39971923828125 0
412 420.605255126953125 100 401.8648681640625 403.39971923828125 0
412 414.605255126953125 100 401.8648681640625 403.39971923828125 0
375 414.605255126953125 0 363.8648681640625 403.39971923828125 0
375 420.605255126953125 0 363.8648681640625 403.39971923828125 0
375 420.605255126953125 100 363.8648681640625 403.39971923828125 0
375 414.605255126953125 100 363.8648681640625 403.39971923828125 0
275 415 0 257.666656494140625 387.333343505859375 0
275 421 0 257.666656494140625 387.333343505859375 0
275 421 100 257.666656494140625 387.333343505859375 0
275 415 100 257.666656494140625 387.333343505859375 0
596 263 0 586.16363525390625 258.218170166015625 0
596 269 0 586.16363525390625 258.218170166015625 0
596 269 100 586.16363525390625 258.218170166015625 0
596 263 100 586.16363525390625 258.218170166015625 0
547 239 0 526.74072265625 229.148147583007812 0
541 239 0 526.74072265625 229.148147583007812 0
541 239 100 526.74072265625 229.148147583007812 0
547 239 100 526.74072265625 229.148147583007812 0
252 328 0 234 305.571441650390625 0
246 328 0 234 305.571441650390625 0
246 328 100 234 305.571441650390625 0
252 328 100 234 305.571441650390625 0
252 314 0 234 290.571441650390625 0
246 314 0 234 290.571441650390625 0
246 314 100 234 290.571441650390625 0
252 314 100 234 290.571441650390625 0
544 235.748092651367188 0 530.29730224609375 229.37652587890625 0
544 241.748092651367188 0 530.29730224609375 229.37652587890625 0
544 241.748092651367188 100 530.29730224609375 229.37652587890625 0
544 235.748092651367188 100 530.29730224609375 229.37652587890625 0
507 235.748092651367188 0 492.29730224609375 229.37652587890625 0
507 241.748092651367188 0 492.29730224609375 229.37652587890625 0
507 241.748092651367188 100 492.29730224609375 229.37652587890625 0
507 235.748092651367188 100 492.29730224609375 229.37652587890625 0
437.505035400390625 324 0 428.75494384765625 318.519989013671875 0
431.505035400390625 324 0 428.75494384765625 318.519989013671875 0
431.505035400390625 324 100 428.75494384765625 318.519989013671875 0
437.505035400390625 324 100 428.75494384765625 318.519989013671875 0
437.505035400390625 274 0 428.75494384765625 267.519989013671875 0
431.505035400390625 274 0 428.75494384765625 267.519989013671875 0
431.505035400390625 274 100 428.75494384765625 267.519989013671875 0
437.505035400390625 274 100 428.75494384765625 267.519989013671875 0
594 136 0 591.86370849609375 134.510879516601562 0
600 136 0 591.86370849609375 134.510879516601562 0
600 136 100 591.86370849609375 134.510879516601562 0
594 136 100 591.86370849609375 134.510879516601562 0
559.950927734375 414.60565185546875 0 542.50787353515625 402.446929931640625 0
560.049072265625 420.6048583984375 0 542.50787353515625 402.446929931640625 0
560.049072265625 420.6048583984375 100 542.50787353515625 402.446929931640625 0
559.950927734375 414.60565185546875 100 542.50787353515625 402.446929931640625 0
471.366546630859375 274.99224853515625 0 467.97967529296875 272.014862060546875 0
477.36651611328125 275.00775146484375 0 467.97967529296875 272.014862060546875 0
477.36651611328125 275.00775146484375 100 467.97967529296875 272.014862060546875 0
471.366546630859375 274.99224853515625 100 467.97967529296875 272.014862060546875 0
443.939483642578125 414.605865478515625 0 426.54217529296875 399.31201171875 0
444.060516357421875 420.604644775390625 0 426.54217529296875 399.31201171875 0
444.060516357421875 420.604644775390625 100 426.54217529296875 399.31201171875 0
443.939483642578125 414.605865478515625 100 426.54217529296875 399.31201171875 0
334 139 0 330.824676513671875 137.262374877929688 0
334 133 0 330.824676513671875 137.262374877929688 0
334 133 100 330.824676513671875 137.262374877929688 0
334 139 100 330.824676513671875 137.262374877929688 0
245.523651123046875 274.84185791015625 0 208.795333862304688 234.667388916015625 0
239.531997680664062 275.15814208984375 0 208.795333862304688 234.667388916015625 0
239.531997680664062 275.15814208984375 100 208.795333862304688 234.667388916015625 0
245.523651123046875 274.84185791015625 100 208.795333862304688 234.667388916015625 0
245.527099609375 241.065963745117188 0 233.912933349609375 228.6414794921875 0
239.528549194335938 240.934036254882812 0 233.912933349609375 228.6414794921875 0
239.528549194335938 240.934036254882812 100 233.912933349609375 228.6414794921875 0
245.527099609375 241.065963745117188 100 233.912933349609375 228.6414794921875 0
257.838043212890625 268.8607177734375 0 238.509918212890625 247.719070434570312 0
258.161956787109375 262.86944580078125 0 238.509918212890625 247.719070434570312 0
258.161956787109375 262.86944580078125 100 238.509918212890625 247.719070434570312 0
257.838043212890625 268.8607177734375 100 238.509918212890625 247.719070434570312 0
507.925689697265625 287.89306640625 0 491.5736083984375 279.216094970703125 0
508.074310302734375 293.8912353515625 0 491.5736083984375 279.216094970703125 0
508.074310302734375 293.8912353515625 100 491.5736083984375 279.216094970703125 0
507.925689697265625 287.89306640625 100 491.5736083984375 279.216094970703125 0
252 364 0 249.06976318359375 360.7674560546875 0
246 364 0 249.06976318359375 360.7674560546875 0
246 364 100 249.06976318359375 360.7674560546875 0
252 364 100 249.06976318359375 360.7674560546875 0
243 272 0 201.5 226.666671752929688 0
243 278 0 201.5 226.666671752929688 0
243 278 100 201.5 226.666671752929688 0
243 272 100 201.5 226.666671752929688 0
418.26727294921875 137.02154541015625 0 414.27587890625 134.71636962890625 0
424.267120361328125 136.97845458984375 0 414.27587890625 134.71636962890625 0
424.267120361328125 136.97845458984375 100 414.27587890625 134.71636962890625 0
418.26727294921875 137.02154541015625 100 414.27587890625 134.71636962890625 0
444 242 0 427.2247314453125 232.311676025390625 0
444 236 0 427.2247314453125 232.311676025390625 0
444 236 100 427.2247314453125 232.311676025390625 0
444 242 100 427.2247314453125 232.311676025390625 0
477 239 0 0 0 -1
471 239 0 0 0 -1
471 136 0 0 0 -1
477 136 0 0 0 -1
477 239 100 0 0 1
471 239 100 0 0 1
471 136 100 0 0 1
477 136 100 0 0 1
474 132.700225830078125 0 0 0 -1
474 138.700225830078125 0 0 0 -1
409 138.700225830078125 0 0 0 -1
409 132.700225830078125 0 0 0 -1
474 132.700225830078125 100 0 0 1
474 138.700225830078125 100 0 0 1
409 138.700225830078125 100 0 0 1
409 132.700225830078125 100 0 0 1
597 132.700225830078125 0 0 0 -1
597 138.700225830078125 0 0 0 -1
536 138.700225830078125 0 0 0 -1
536 132.700225830078125 0 0 0 -1
597 132.700225830078125 100 0 0 1
597 138.700225830078125 100 0 0 1
536 138.700225830078125 100 0 0 1
536 132.700225830078125 100 0 0 1
260 328 0 0 0 -1
254 328 0 0 0 -1
254 275 0 0 0 -1
260 272 0 0 0 -1
260 328 100 0 0 1
254 328 100 0 0 1
254 275 100 0 0 1
260 272 100 0 0 1
254 275 0 0 0 -1
260 275 0 0 0 -1
260 415 0 0 0 -1
254 421 0 0 0 -1
254 275 100 0 0 1
260 275 100 0 0 1
260 415 100 0 0 1
254 421 100 0 0 1
260 278 0 0 0 -1
254 275 0 0 0 -1
254 136 0 0 0 -1
260 135.996994018554688 0 0 0 -1
260 278 100 0 0 1
254 275 100 0 0 1
254 136 100 0 0 1
260 135.996994018554688 100 0 0 1
260 272 0 0 0 -1
260 278 0 0 0 -1
252 278 0 0 0 -1
249 272 0 0 0 -1
260 272 100 0 0 1
260 278 100 0 0 1
252 278 100 0 0 1
249 272 100 0 0 1
260 166 0 0 0 -1
254 166 0 0 0 -1
254 133 0 0 0 -1
260 136 0 0 0 -1
260 166 100 0 0 1
254 166 100 0 0 1
254 133 100 0 0 1
260 136 100 0 0 1
254.006011962890625 139 0 0 0 -1
254 133 0 0 0 -1
334 133 0 0 0 -1
334 139 0 0 0 -1
254.006011962890625 139 100 0 0 1
254 133 100 0 0 1
334 133 100 0 0 1
334 139 100 0 0 1
260 135.996994018554688 0 0 0 -1
254.006011962890625 139 0 0 0 -1
252 -860.99700927734375 0 0 0 -1
246 -6843.0029296875 0 0 0 -1
260 135.996994018554688 100 0 0 1
254.006011962890625 139 100 0 0 1
252 -860.99700927734375 100 0 0 1
246 -6843.0029296875 100 0 0 1
245.52783203125 198 0 0 0 -1
239.52783203125 198 0 0 0 -1
239.52783203125 165 0 0 0 -1
245.52783203125 165 0 0 0 -1
245.52783203125 198 100 0 0 1
239.52783203125 198 100 0 0 1
239.52783203125 165 100 0 0 1
245.52783203125 165 100 0 0 1
245.52783203125 365 0 0 0 -1
239.52783203125 365 0 0 0 -1
239.52783203125 314 0 0 0 -1
245.52783203125 314 0 0 0 -1
245.52783203125 365 100 0 0 1
239.52783203125 365 100 0 0 1
239.52783203125 314 100 0 0 1
245.52783203125 314 100 0 0 1
412 414.605255126953125 0 0 0 -1
412 420.605255126953125 0 0 0 -1
375 420.605255126953125 0 0 0 -1
375 414.605255126953125 0 0 0 -1
412 414.605255126953125 100 0 0 1
412 420.605255126953125 100 0 0 1
375 420.605255126953125 100 0 0 1
375 414.605255126953125 100 0 0 1
275 415 0 0 0 -1
275 421 0 0 0 -1
254 421 0 0 0 -1
260 415 0 0 0 -1
275 415 100 0 0 1
275 421 100 0 0 1
254 421 100 0 0 1
260 415 100 0 0 1
596 263 0 0 0 -1
596 269 0 0 0 -1
541 269 0 0 0 -1
541 263 0 0 0 -1
596 263 100 0 0 1
596 269 100 0 0 1
541 269 100 0 0 1
541 263 100 0 0 1
547 266 0 0 0 -1
541 269 0 0 0 -1
541 239 0 0 0 -1
547 239 0 0 0 -1
547 266 100 0 0 1
541 269 100 0 0 1
541 239 100 0 0 1
547 239 100 0 0 1
541 263 0 0 0 -1
547 266 0 0 0 -1
547 292.92657470703125 0 0 0 -1
541 287.07342529296875 0 0 0 -1
541 263 100 0 0 1
547 266 100 0 0 1
547 292.92657470703125 100 0 0 1
541 287.07342529296875 100 0 0 1
252 328 0 0 0 -1
246 328 0 0 0 -1
246 314 0 0 0 -1
252 314 0 0 0 -1
252 328 100 0 0 1
246 328 100 0 0 1
246 314 100 0 0 1
252 314 100 0 0 1
544 235.748092651367188 0 0 0 -1
544 241.748092651367188 0 0 0 -1
507 241.748092651367188 0 0 0 -1
507 235.748092651367188 0 0 0 -1
544 235.748092651367188 100 0 0 1
544 241.748092651367188 100 0 0 1
507 241.748092651367188 100 0 0 1
507 235.748092651367188 100 0 0 1
437.505035400390625 324 0 0 0 -1
431.505035400390625 324 0 0 0 -1
431.505035400390625 274 0 0 0 -1
437.505035400390625 274 0 0 0 -1
437.505035400390625 324 100 0 0 1
431.505035400390625 324 100 0 0 1
431.505035400390625 274 100 0 0 1
437.505035400390625 274 100 0 0 1
594 136 0 0 0 -1
600 136 0 0 0 -1
600 419.951324462890625 0 0 0 -1
594 414.048675537109375 0 0 0 -1
594 136 100 0 0 1
600 136 100 0 0 1
600 419.951324462890625 100 0 0 1
594 414.048675537109375 100 0 0 1
594 414.048675537109375 0 0 0 -1
600 419.951324462890625 0 0 0 -1
560.049072265625 420.6048583984375 0 0 0 -1
559.950927734375 414.60565185546875 0 0 0 -1
594 414.048675537109375 100 0 0 1
600 419.951324462890625 100 0 0 1
560.049072265625 420.6048583984375 100 0 0 1
559.950927734375 414.60565185546875 100 0 0 1
471.366546630859375 274.99224853515625 0 0 0 -1
477.36651611328125 275.00775146484375 0 0 0 -1
476.992431640625 419.94024658203125 0 0 0 -1
471.007568359375 414.05975341796875 0 0 0 -1
471.366546630859375 274.99224853515625 100 0 0 1
477.36651611328125 275.00775146484375 100 0 0 1
476.992431640625 419.94024658203125 100 0 0 1
471.007568359375 414.05975341796875 100 0 0 1
471.007568359375 414.05975341796875 0 0 0 -1
476.992431640625 419.94024658203125 0 0 0 -1
444.060516357421875 420.604644775390625 0 0 0 -1
443.939483642578125 414.605865478515625 0 0 0 -1
471.007568359375 414.05975341796875 100 0 0 1
476.992431640625 419.94024658203125 100 0 0 1
444.060516357421875 420.604644775390625 100 0 0 1
443.939483642578125 414.605865478515625 100 0 0 1
246 -6843.0029296875 0 0 0 -1
252 -860.99700927734375 0 0 0 -1
252 278 0 0 0 -1
246 275 0 0 0 -1
246 -6843.0029296875 100 0 0 1
252 -860.99700927734375 100 0 0 1
252 278 100 0 0 1
246 275 100 0 0 1
245.523651123046875 274.84185791015625 0 0 0 -1
239.531997680664062 275.15814208984375 0 0 0 -1
238.998260498046875 265.046142578125 0 0 0 -1
245.17181396484375 268.175872802734375 0 0 0 -1
245.523651123046875 274.84185791015625 100 0 0 1
239.531997680664062 275.15814208984375 100 0 0 1
238.998260498046875 265.046142578125 100 0 0 1
245.17181396484375 268.175872802734375 100 0 0 1
245.063156127929688 262.161224365234375 0 0 0 -1
238.998260498046875 265.046142578125 0 0 0 -1
239.528549194335938 240.934036254882812 0 0 0 -1
245.527099609375 241.065963745117188 0 0 0 -1
245.063156127929688 262.161224365234375 100 0 0 1
238.998260498046875 265.046142578125 100 0 0 1
239.528549194335938 240.934036254882812 100 0 0 1
245.527099609375 241.065963745117188 100 0 0 1
245.17181396484375 268.175872802734375 0 0 0 -1
245.063156127929688 262.161224365234375 0 0 0 -1
258.161956787109375 262.86944580078125 0 0 0 -1
257.838043212890625 268.8607177734375 0 0 0 -1
245.17181396484375 268.175872802734375 100 0 0 1
245.063156127929688 262.161224365234375 100 0 0 1
258.161956787109375 262.86944580078125 100 0 0 1
257.838043212890625 268.8607177734375 100 0 0 1
541 287.07342529296875 0 0 0 -1
547 292.92657470703125 0 0 0 -1
508.074310302734375 293.8912353515625 0 0 0 -1
507.925689697265625 287.89306640625 0 0 0 -1
541 287.07342529296875 100 0 0 1
547 292.92657470703125 100 0 0 1
508.074310302734375 293.8912353515625 100 0 0 1
507.925689697265625 287.89306640625 100 0 0 1
252 364 0 0 0 -1
246 364 0 0 0 -1
246 275 0 0 0 -1
252 278 0 0 0 -1
252 364 100 0 0 1
246 364 100 0 0 1
246 275 100 0 0 1
252 278 100 0 0 1
249 272 0 0 0 -1
252 278 0 0 0 -1
243 278 0 0 0 -1
243 272 0 0 0 -1
249 272 100 0 0 1
252 278 100 0 0 1
243 278 100 0 0 1
243 272 100 0 0 1
418.26727294921875 137.02154541015625 0 0 0 -1
424.267120361328125 136.97845458984375 0 0 0 -1
424.978515625 236 0 0 0 -1
419.021484375 242 0 0 0 -1
418.26727294921875 137.02154541015625 100 0 0 1
424.267120361328125 136.97845458984375 100 0 0 1
424.978515625 236 100 0 0 1
419.021484375 242 100 0 0 1
419.021484375 242 0 0 0 -1
424.978515625 236 0 0 0 -1
444 236 0 0 0 -1
444 242 0 0 0 -1
419.021484375 242 100 0 0 1
424.978515625 236 100 0 0 1
444 236 100 0 0 1
444 242 100 0 0 1
254 133 0 0 0 -1
254.006011962890625 139 0 0 0 -1
260 135.996994018554688 0 0 0 -1
254 133 100 0 0 1
254.006011962890625 139 100 0 0 1
260 135.996994018554688 100 0 0 1
238.998260498046875 265.046142578125 0 0 0 -1
245.063156127929688 262.161224365234375 0 0 0 -1
245.17181396484375 268.175872802734375 0 0 0 -1
238.998260498046875 265.046142578125 100 0 0 1
245.063156127929688 262.161224365234375 100 0 0 1
245.17181396484375 268.175872802734375 100 0 0 1
246 275 0 0 0 -1
252 278 0 0 0 -1
252 278 0 0 0 -1
246 275 100 0 0 1
252 278 100 0 0 1
252 278 100 0 0 1
4 0 1 2 3
4 4 5 6 7
4 8 9 10 11
4 12 13 14 15
4 16 17 18 19
4 20 21 22 23
4 24 25 26 27
4 28 29 30 31
4 32 33 34 35
4 36 37 38 39
4 40 41 42 43
4 44 45 46 47
4 48 49 50 51
4 52 53 54 55
4 56 57 58 59
4 60 61 62 63
4 64 65 66 67
4 68 69 70 71
4 72 73 74 75
4 76 77 78 79
4 80 81 82 83
4 84 85 86 87
4 88 89 90 91
4 92 93 94 95
4 96 97 98 99
4 100 101 102 103
4 104 105 106 107
4 108 109 110 111
4 112 113 114 115
4 116 117 118 119
4 120 121 122 123
4 124 125 126 127
4 128 129 130 131
4 132 133 134 135
4 136 137 138 139
4 140 141 142 143
4 144 145 146 147
4 148 149 150 151
4 152 153 154 155
4 156 157 158 159
4 160 161 162 163
4 164 165 166 167
4 168 169 170 171
4 172 173 174 175
4 176 177 178 179
4 180 181 182 183
4 184 185 186 187
4 188 189 190 191
4 192 193 194 195
4 196 197 198 199
4 200 201 202 203
4 204 205 206 207
4 208 209 210 211
4 212 213 214 215
4 216 217 218 219
4 220 221 222 223
4 224 225 226 227
4 228 229 230 231
4 232 233 234 235
4 236 237 238 239
4 240 241 242 243
4 244 245 246 247
4 248 249 250 251
4 252 253 254 255
4 256 257 258 259
4 260 261 262 263
4 264 265 266 267
4 268 269 270 271
4 272 273 274 275
4 276 277 278 279
4 280 281 282 283
4 284 285 286 287
4 288 289 290 291
4 292 293 294 295
4 296 297 298 299
4 300 301 302 303
4 304 305 306 307
4 308 309 310 311
4 312 313 314 315
4 316 317 318 319
4 320 321 322 323
4 324 325 326 327
4 328 329 330 331
4 332 333 334 335
4 336 337 338 339
4 340 341 342 343
4 344 345 346 347
4 348 349 350 351
4 352 353 354 355
4 356 357 358 359
4 360 361 362 363
4 364 365 366 367
4 368 369 370 371
4 372 373 374 375
4 376 377 378 379
4 380 381 382 383
4 384 385 386 387
4 388 389 390 391
4 392 393 394 395
4 396 397 398 399
4 400 401 402 403
4 404 405 406 407
4 408 409 410 411
4 412 413 414 415
4 416 417 418 419
4 420 421 422 423
4 424 425 426 427
4 428 429 430 431
4 432 433 434 435
4 436 437 438 439
4 440 441 442 443
4 444 445 446 447
4 448 449 450 451
4 452 453 454 455
4 456 457 458 459
4 460 461 462 463
4 464 465 466 467
4 468 469 470 471
4 472 473 474 475
4 476 477 478 479
4 480 481 482 483
4 484 485 486 487
4 488 489 490 491
4 492 493 494 495
4 496 497 498 499
4 500 501 502 503
4 504 505 506 507
4 508 509 510 511
4 512 513 514 515
4 516 517 518 519
4 520 521 522 523
4 524 525 526 527
4 528 529 530 531
4 532 533 534 535
4 536 537 538 539
4 540 541 542 543
4 544 545 546 547
4 548 549 550 551
4 552 553 554 555
4 556 557 558 559
4 560 561 562 563
4 564 565 566 567
4 568 569 570 571
4 572 573 574 575
4 576 577 578 579
4 580 581 582 583
4 584 585 586 587
4 588 589 590 591
4 592 593 594 595
4 596 597 598 599
4 600 601 602 603
4 604 605 606 607
4 608 609 610 611
4 612 613 614 615
4 616 617 618 619
4 620 621 622 623
4 624 625 626 627
4 628 629 630 631
4 632 633 634 635
4 636 637 638 639
4 640 641 642 643
4 644 645 646 647
4 648 649 650 651
4 652 653 654 655
4 656 657 658 659
4 660 661 662 663
4 664 665 666 667
4 668 669 670 671
3 672 673 674
3 675 676 677
3 678 679 680
3 681 682 683
3 684 685 686
3 687 688 689
