ply
format ascii 1.0
element vertex 424
property float x
property float y
property float z
property float nx
property float ny
property float nz
element quads 106
property list uchar int vertex_indices
end_header
610.25 483 0 1 0 0
610.25 348.25 0 1 0 0
610.25 348.25 100 1 0 0
610.25 483 100 1 0 0
609.75 483 0 -1 -0 0
609.75 347.75 0 -1 -0 0
609.75 347.75 100 -1 -0 0
609.75 483 100 -1 -0 0
610.25 348.25 0 -0 1 0
665.25 348.25 0 -0 1 0
665.25 348.25 100 -0 1 0
610.25 348.25 100 -0 1 0
609.75 347.75 0 0 -1 0
664.75 347.75 0 0 -1 0
664.75 347.75 100 0 -1 0
609.75 347.75 100 0 -1 0
363 259.25 0 -0 1 0
465 259.25 0 -0 1 0
465 259.25 100 -0 1 0
363 259.25 100 -0 1 0
363 258.75 0 0 -1 0
465 258.75 0 0 -1 0
465 258.75 100 0 -1 0
363 258.75 100 0 -1 0
471 385.25 0 -0 1 0
553 385.25 0 -0 1 0
553 385.25 100 -0 1 0
471 385.25 100 -0 1 0
471 384.75 0 0 -1 0
553 384.75 0 0 -1 0
553 384.75 100 0 -1 0
471 384.75 100 0 -1 0
277 385.25 0 -0 1 0
359 385.25 0 -0 1 0
359 385.25 100 -0 1 0
277 385.25 100 -0 1 0
277 384.75 0 0 -1 0
359 384.75 0 0 -1 0
359 384.75 100 0 -1 0
277 384.75 100 0 -1 0
166 348.25 0 -0 1 0
220.75 348.25 0 -0 1 0
220.75 348.25 100 -0 1 0
166 348.25 100 -0 1 0
166 347.75 0 0 -1 0
221.25 347.75 0 0 -1 0
221.25 347.75 100 0 -1 0
166 347.75 100 0 -1 0
220.75 348.25 0 -1 0 0
220.75 485 0 -1 0 0
220.75 485 100 -1 0 0
220.75 348.25 100 -1 0 0
221.25 347.75 0 1 -0 0
221.25 485 0 1 -0 0
221.25 485 100 1 -0 0
221.25 347.75 100 1 -0 0
272.75 347 0 -1 0 0
272.75 485 0 -1 0 0
272.75 485 100 -1 0 0
272.75 347 100 -1 0 0
273.25 347 0 1 -0 0
273.25 485 0 1 -0 0
273.25 485 100 1 -0 0
273.25 347 100 1 -0 0
664.75 164.25 0 -1 0 0
664.75 347.75 0 -1 0 0
664.75 347.75 100 -1 0 0
664.75 164.25 100 -1 0 0
665.25 163.75 0 1 -0 0
665.25 348.25 0 1 -0 0
665.25 348.25 100 1 -0 0
665.25 163.75 100 1 -0 0
665.25 163.75 0 -0 -1 0
466.75 163.75 0 -0 -1 0
466.75 163.75 100 -0 -1 0
665.25 163.75 100 -0 -1 0
664.75 164.25 0 0 1 0
467.25 164.25 0 0 1 0
467.25 164.25 100 0 1 0
664.75 164.25 100 0 1 0
162.75 163.75 0 -1 0 0
162.75 193 0 -1 0 0
162.75 193 100 -1 0 0
162.75 163.75 100 -1 0 0
163.25 164.25 0 1 -0 0
163.25 193 0 1 -0 0
163.25 193 100 1 -0 0
163.25 164.25 100 1 -0 0
163.25 164.25 0 -0 1 0
358 164.25 0 -0 1 0
358 164.25 100 -0 1 0
163.25 164.25 100 -0 1 0
162.75 163.75 0 0 -1 0
358 163.75 0 0 -1 0
358 163.75 100 0 -1 0
162.75 163.75 100 0 -1 0
555.75 347 0 -1 0 0
555.75 485 0 -1 0 0
555.75 485 100 -1 0 0
555.75 347 100 -1 0 0
556.25 347 0 1 -0 0
556.25 485 0 1 -0 0
556.25 485 100 1 -0 0
556.25 347 100 1 -0 0
466.75 163.75 0 -1 0 0
466.75 508 0 -1 0 0
466.75 508 100 -1 0 0
466.75 163.75 100 -1 0 0
467.25 164.25 0 1 -0 0
467.25 508 0 1 -0 0
467.25 508 100 1 -0 0
467.25 164.25 100 1 -0 0
132.75 322 0 -1 0 0
132.75 382 0 -1 0 0
132.75 382 100 -1 0 0
132.75 322 100 -1 0 0
133.25 322 0 1 -0 0
133.25 382 0 1 -0 0
133.25 382 100 1 -0 0
133.25 322 100 1 -0 0
348 348.25 0 -0 1 0
481 348.25 0 -0 1 0
481 348.25 100 -0 1 0
348 348.25 100 -0 1 0
348 347.75 0 0 -1 0
481 347.75 0 0 -1 0
481 347.75 100 0 -1 0
348 347.75 100 0 -1 0
489.75 106.25 0 -0 1 0
546 106.25 0 -0 1 0
546 106.25 100 -0 1 0
489.75 106.25 100 -0 1 0
490.25 105.75 0 0 -1 0
546 105.75 0 0 -1 0
546 105.75 100 0 -1 0
490.25 105.75 100 0 -1 0
490.25 105.75 0 1 0 0
490.25 29 0 1 0 0
490.25 29 100 1 0 0
490.25 105.75 100 1 0 0
489.75 106.25 0 -1 -0 0
489.75 29 0 -1 -0 0
489.75 29 100 -1 -0 0
489.75 106.25 100 -1 -0 0
162.75 277 0 -1 0 0
162.75 382 0 -1 0 0
162.75 382 100 -1 0 0
162.75 277 100 -1 0 0
163.25 277 0 1 -0 0
163.25 382 0 1 -0 0
163.25 382 100 1 -0 0
163.25 277 100 1 -0 0
359.75 30 0 -1 0 0
359.75 484 0 -1 0 0
359.75 484 100 -1 0 0
359.75 30 100 -1 0 0
360.25 30 0 1 -0 0
360.25 484 0 1 -0 0
360.25 484 100 1 -0 0
360.25 30 100 1 -0 0
610.25 483 0 605.72125244140625 480.41558837890625 0
609.75 483 0 605.72125244140625 480.41558837890625 0
609.75 483 100 605.72125244140625 480.41558837890625 0
610.25 483 100 605.72125244140625 480.41558837890625 0
363 259.25 0 358.441162109375 256.708343505859375 0
363 258.75 0 358.441162109375 256.708343505859375 0
363 258.75 100 358.441162109375 256.708343505859375 0
363 259.25 100 358.441162109375 256.708343505859375 0
465 259.25 0 461.441162109375 256.708343505859375 0
465 258.75 0 461.441162109375 256.708343505859375 0
465 258.75 100 461.441162109375 256.708343505859375 0
465 259.25 100 461.441162109375 256.708343505859375 0
471 385.25 0 464.256103515625 380.55181884765625 0
471 384.75 0 464.256103515625 380.55181884765625 0
471 384.75 100 464.256103515625 380.55181884765625 0
471 385.25 100 464.256103515625 380.55181884765625 0
553 385.25 0 547.256103515625 380.55181884765625 0
553 384.75 0 547.256103515625 380.55181884765625 0
553 384.75 100 547.256103515625 380.55181884765625 0
553 385.25 100 547.256103515625 380.55181884765625 0
277 385.25 0 272.6219482421875 380.55181884765625 0
277 384.75 0 272.6219482421875 380.55181884765625 0
277 384.75 100 272.6219482421875 380.55181884765625 0
277 385.25 100 272.6219482421875 380.55181884765625 0
359 385.25 0 355.6219482421875 380.55181884765625 0
359 384.75 0 355.6219482421875 380.55181884765625 0
359 384.75 100 355.6219482421875 380.55181884765625 0
359 385.25 100 355.6219482421875 380.55181884765625 0
166 348.25 0 161.968032836914062 341.8892822265625 0
166 347.75 0 161.968032836914062 341.8892822265625 0
166 347.75 100 161.968032836914062 341.8892822265625 0
166 348.25 100 161.968032836914062 341.8892822265625 0
272.75 347 0 270.7735595703125 343.485504150390625 0
273.25 347 0 270.7735595703125 343.485504150390625 0
273.25 347 100 270.7735595703125 343.485504150390625 0
272.75 347 100 270.7735595703125 343.485504150390625 0
272.75 485 0 270.7735595703125 482.485504150390625 0
273.25 485 0 270.7735595703125 482.485504150390625 0
273.25 485 100 270.7735595703125 482.485504150390625 0
272.75 485 100 270.7735595703125 482.485504150390625 0
162.75 193 0 157.185897827148438 187.401702880859375 0
163.25 193 0 157.185897827148438 187.401702880859375 0
163.25 193 100 157.185897827148438 187.401702880859375 0
162.75 193 100 157.185897827148438 187.401702880859375 0
220.75 485 0 219.1357421875 482.453369140625 0
221.25 485 0 219.1357421875 482.453369140625 0
221.25 485 100 219.1357421875 482.453369140625 0
220.75 485 100 219.1357421875 482.453369140625 0
555.75 347 0 551.72283935546875 343.485504150390625 0
556.25 347 0 551.72283935546875 343.485504150390625 0
556.25 347 100 551.72283935546875 343.485504150390625 0
555.75 347 100 551.72283935546875 343.485504150390625 0
555.75 485 0 551.72283935546875 482.485504150390625 0
556.25 485 0 551.72283935546875 482.485504150390625 0
556.25 485 100 551.72283935546875 482.485504150390625 0
555.75 485 100 551.72283935546875 482.485504150390625 0
358 164.25 0 357.1617431640625 163.4066162109375 0
358 163.75 0 357.1617431640625 163.4066162109375 0
358 163.75 100 357.1617431640625 163.4066162109375 0
358 164.25 100 357.1617431640625 163.4066162109375 0
132.75 322 0 130.537506103515625 315.633331298828125 0
133.25 322 0 130.537506103515625 315.633331298828125 0
133.25 322 100 130.537506103515625 315.633331298828125 0
132.75 322 100 130.537506103515625 315.633331298828125 0
132.75 382 0 130.537506103515625 376.633331298828125 0
133.25 382 0 130.537506103515625 376.633331298828125 0
133.25 382 100 130.537506103515625 376.633331298828125 0
132.75 382 100 130.537506103515625 376.633331298828125 0
348 348.25 0 344.383453369140625 345.631591796875 0
348 347.75 0 344.383453369140625 345.631591796875 0
348 347.75 100 344.383453369140625 345.631591796875 0
348 348.25 100 344.383453369140625 345.631591796875 0
481 348.25 0 478.383453369140625 345.631591796875 0
481 347.75 0 478.383453369140625 345.631591796875 0
481 347.75 100 478.383453369140625 345.631591796875 0
481 348.25 100 478.383453369140625 345.631591796875 0
546 106.25 0 537.2933349609375 104.361114501953125 0
546 105.75 0 537.2933349609375 104.361114501953125 0
546 105.75 100 537.2933349609375 104.361114501953125 0
546 106.25 100 537.2933349609375 104.361114501953125 0
490.25 29 0 483.86236572265625 27.6221504211425781 0
489.75 29 0 483.86236572265625 27.6221504211425781 0
489.75 29 100 483.86236572265625 27.6221504211425781 0
490.25 29 100 483.86236572265625 27.6221504211425781 0
162.75 277 0 161.199996948242188 273.361907958984375 0
163.25 277 0 161.199996948242188 273.361907958984375 0
163.25 277 100 161.199996948242188 273.361907958984375 0
162.75 277 100 161.199996948242188 273.361907958984375 0
162.75 382 0 161.199996948242188 379.361907958984375 0
163.25 382 0 161.199996948242188 379.361907958984375 0
163.25 382 100 161.199996948242188 379.361907958984375 0
162.75 382 100 161.199996948242188 379.361907958984375 0
359.75 30 0 358.957611083984375 28.9339199066162109 0
360.25 30 0 358.957611083984375 28.9339199066162109 0
360.25 30 100 358.957611083984375 28.9339199066162109 0
359.75 30 100 358.957611083984375 28.9339199066162109 0
359.75 484 0 358.957611083984375 483.933929443359375 0
360.25 484 0 358.957611083984375 483.933929443359375 0
360.25 484 100 358.957611083984375 483.933929443359375 0
359.75 484 100 358.957611083984375 483.933929443359375 0
466.75 508 0 465.3941650390625 507.524322509765625 0
467.25 508 0 465.3941650390625 507.524322509765625 0
467.25 508 100 465.3941650390625 507.524322509765625 0
466.75 508 100 465.3941650390625 507.524322509765625 0
610.25 483 0 0 0 -1
609.75 483 0 0 0 -1
609.75 347.75 0 0 0 -1
610.25 348.25 0 0 0 -1
610.25 483 100 0 0 1
609.75 483 100 0 0 1
609.75 347.75 100 0 0 1
610.25 348.25 100 0 0 1
610.25 348.25 0 0 0 -1
609.75 347.75 0 0 0 -1
664.75 347.75 0 0 0 -1
665.25 348.25 0 0 0 -1
610.25 348.25 100 0 0 1
609.75 347.75 100 0 0 1
664.75 347.75 100 0 0 1
665.25 348.25 100 0 0 1
363 259.25 0 0 0 -1
363 258.75 0 0 0 -1
465 258.75 0 0 0 -1
465 259.25 0 0 0 -1
363 259.25 100 0 0 1
363 258.75 100 0 0 1
465 258.75 100 0 0 1
465 259.25 100 0 0 1
471 385.25 0 0 0 -1
471 384.75 0 0 0 -1
553 384.75 0 0 0 -1
553 385.25 0 0 0 -1
471 385.25 100 0 0 1
471 384.75 100 0 0 1
553 384.75 100 0 0 1
553 385.25 100 0 0 1
277 385.25 0 0 0 -1
277 384.75 0 0 0 -1
359 384.75 0 0 0 -1
359 385.25 0 0 0 -1
277 385.25 100 0 0 1
277 384.75 100 0 0 1
359 384.75 100 0 0 1
359 385.25 100 0 0 1
166 348.25 0 0 0 -1
166 347.75 0 0 0 -1
221.25 347.75 0 0 0 -1
220.75 348.25 0 0 0 -1
166 348.25 100 0 0 1
166 347.75 100 0 0 1
221.25 347.75 100 0 0 1
220.75 348.25 100 0 0 1
220.75 348.25 0 0 0 -1
221.25 347.75 0 0 0 -1
221.25 485 0 0 0 -1
220.75 485 0 0 0 -1
220.75 348.25 100 0 0 1
221.25 347.75 100 0 0 1
221.25 485 100 0 0 1
220.75 485 100 0 0 1
272.75 347 0 0 0 -1
273.25 347 0 0 0 -1
273.25 485 0 0 0 -1
272.75 485 0 0 0 -1
272.75 347 100 0 0 1
273.25 347 100 0 0 1
273.25 485 100 0 0 1
272.75 485 100 0 0 1
664.75 164.25 0 0 0 -1
665.25 163.75 0 0 0 -1
665.25 348.25 0 0 0 -1
664.75 347.75 0 0 0 -1
664.75 164.25 100 0 0 1
665.25 163.75 100 0 0 1
665.25 348.25 100 0 0 1
664.75 347.75 100 0 0 1
665.25 163.75 0 0 0 -1
664.75 164.25 0 0 0 -1
467.25 164.25 0 0 0 -1
466.75 163.75 0 0 0 -1
665.25 163.75 100 0 0 1
664.75 164.25 100 0 0 1
467.25 164.25 100 0 0 1
466.75 163.75 100 0 0 1
162.75 163.75 0 0 0 -1
163.25 164.25 0 0 0 -1
163.25 193 0 0 0 -1
162.75 193 0 0 0 -1
162.75 163.75 100 0 0 1
163.25 164.25 100 0 0 1
163.25 193 100 0 0 1
162.75 193 100 0 0 1
163.25 164.25 0 0 0 -1
162.75 163.75 0 0 0 -1
358 163.75 0 0 0 -1
358 164.25 0 0 0 -1
163.25 164.25 100 0 0 1
162.75 163.75 100 0 0 1
358 163.75 100 0 0 1
358 164.25 100 0 0 1
555.75 347 0 0 0 -1
556.25 347 0 0 0 -1
556.25 485 0 0 0 -1
555.75 485 0 0 0 -1
555.75 347 100 0 0 1
556.25 347 100 0 0 1
556.25 485 100 0 0 1
555.75 485 100 0 0 1
466.75 163.75 0 0 0 -1
467.25 164.25 0 0 0 -1
467.25 508 0 0 0 -1
466.75 508 0 0 0 -1
466.75 163.75 100 0 0 1
467.25 164.25 100 0 0 1
467.25 508 100 0 0 1
466.75 508 100 0 0 1
132.75 322 0 0 0 -1
133.25 322 0 0 0 -1
133.25 382 0 0 0 -1
132.75 382 0 0 0 -1
132.75 322 100 0 0 1
133.25 322 100 0 0 1
133.25 382 100 0 0 1
132.75 382 100 0 0 1
348 348.25 0 0 0 -1
348 347.75 0 0 0 -1
481 347.75 0 0 0 -1
481 348.25 0 0 0 -1
348 348.25 100 0 0 1
348 347.75 100 0 0 1
481 347.75 100 0 0 1
481 348.25 100 0 0 1
489.75 106.25 0 0 0 -1
490.25 105.75 0 0 0 -1
546 105.75 0 0 0 -1
546 106.25 0 0 0 -1
489.75 106.25 100 0 0 1
490.25 105.75 100 0 0 1
546 105.75 100 0 0 1
546 106.25 100 0 0 1
490.25 105.75 0 0 0 -1
489.75 106.25 0 0 0 -1
489.75 29 0 0 0 -1
490.25 29 0 0 0 -1
490.25 105.75 100 0 0 1
489.75 106.25 100 0 0 1
489.75 29 100 0 0 1
490.25 29 100 0 0 1
162.75 277 0 0 0 -1
163.25 277 0 0 0 -1
163.25 382 0 0 0 -1
162.75 382 0 0 0 -1
162.75 277 100 0 0 1
163.25 277 100 0 0 1
163.25 382 100 0 0 1
162.75 382 100 0 0 1
359.75 30 0 0 0 -1
360.25 30 0 0 0 -1
360.25 484 0 0 0 -1
359.75 484 0 0 0 -1
359.75 30 100 0 0 1
360.25 30 100 0 0 1
360.25 484 100 0 0 1
359.75 484 100 0 0 1
4 0 1 2 3
4 4 5 6 7
4 8 9 10 11
4 12 13 14 15
4 16 17 18 19
4 20 21 22 23
4 24 25 26 27
4 28 29 30 31
4 32 33 34 35
4 36 37 38 39
4 40 41 42 43
4 44 45 46 47
4 48 49 50 51
4 52 53 54 55
4 56 57 58 59
4 60 61 62 63
4 64 65 66 67
4 68 69 70 71
4 72 73 74 75
4 76 77 78 79
4 80 81 82 83
4 84 85 86 87
4 88 89 90 91
4 92 93 94 95
4 96 97 98 99
4 100 101 102 103
4 104 105 106 107
4 108 109 110 111
4 112 113 114 115
4 116 117 118 119
4 120 121 122 123
4 124 125 126 127
4 128 129 130 131
4 132 133 134 135
4 136 137 138 139
4 140 141 142 143
4 144 145 146 147
4 148 149 150 151
4 152 153 154 155
4 156 157 158 159
4 160 161 162 163
4 164 165 166 167
4 168 169 170 171
4 172 173 174 175
4 176 177 178 179
4 180 181 182 183
4 184 185 186 187
4 188 189 190 191
4 192 193 194 195
4 196 197 198 199
4 200 201 202 203
4 204 205 206 207
4 208 209 210 211
4 212 213 214 215
4 216 217 218 219
4 220 221 222 223
4 224 225 226 227
4 228 229 230 231
4 232 233 234 235
4 236 237 238 239
4 240 241 242 243
4 244 245 246 247
4 248 249 250 251
4 252 253 254 255
4 256 257 258 259
4 260 261 262 263
4 264 265 266 267
4 268 269 270 271
4 272 273 274 275
4 276 277 278 279
4 280 281 282 283
4 284 285 286 287
4 288 289 290 291
4 292 293 294 295
4 296 297 298 299
4 300 301 302 303
4 304 305 306 307
4 308 309 310 311
4 312 313 314 315
4 316 317 318 319
4 320 321 322 323
4 324 325 326 327
4 328 329 330 331
4 332 333 334 335
4 336 337 338 339
4 340 341 342 343
4 344 345 346 347
4 348 349 350 351
4 352 353 354 355
4 356 357 358 359
4 360 361 362 363
4 364 365 366 367
4 368 369 370 371
4 372 373 374 375
4 376 377 378 379
4 380 381 382 383
4 384 385 386 387
4 388 389 390 391
4 392 393 394 395
4 396 397 398 399
4 400 401 402 403
4 404 405 406 407
4 408 409 410 411
4 412 413 414 415
4 416 417 418 419
4 420 421 422 423
