ply
format ascii 1.0
element vertex 480
property float x
property float y
property float z
property float nx
property float ny
property float nz
element quads 120
property list uchar int vertex_indices
end_header
527.25 540.75 0 1 0 0
527.25 303 0 1 0 0
527.25 303 100 1 0 0
527.25 540.75 100 1 0 0
526.75 541.25 0 -1 -0 0
526.75 303 0 -1 -0 0
526.75 303 100 -1 -0 0
526.75 541.25 100 -1 -0 0
526.75 541.25 0 -0 1 0
671 541.25 0 -0 1 0
671 541.25 100 -0 1 0
526.75 541.25 100 -0 1 0
527.25 540.75 0 0 -1 0
671 540.75 0 0 -1 0
671 540.75 100 0 -1 0
527.25 540.75 100 0 -1 0
105.75 192.25 0 -0 1 0
270 192.25 0 -0 1 0
270 192.25 100 -0 1 0
105.75 192.25 100 -0 1 0
106.25 191.75 0 0 -1 0
270 191.75 0 0 -1 0
270 191.75 100 0 -1 0
106.25 191.75 100 0 -1 0
106.25 191.75 0 1 0 0
106.25 111 0 1 0 0
106.25 111 100 1 0 0
106.25 191.75 100 1 0 0
105.75 192.25 0 -1 -0 0
105.75 111 0 -1 -0 0
105.75 111 100 -1 -0 0
105.75 192.25 100 -1 -0 0
229.25 106 0 1 0 0
229.25 46 0 1 0 0
229.25 46 100 1 0 0
229.25 106 100 1 0 0
228.75 106 0 -1 -0 0
228.75 46 0 -1 -0 0
228.75 46 100 -1 -0 0
228.75 106 100 -1 -0 0
527.25 302 0 1 0 0
527.25 248 0 1 0 0
527.25 248 100 1 0 0
527.25 302 100 1 0 0
526.75 302 0 -1 -0 0
526.75 248 0 -1 -0 0
526.75 248 100 -1 -0 0
526.75 302 100 -1 -0 0
680 450.25 0 -0 1 0
735 450.25 0 -0 1 0
735 450.25 100 -0 1 0
680 450.25 100 -0 1 0
680 449.75 0 0 -1 0
735 449.75 0 0 -1 0
735 449.75 100 0 -1 0
680 449.75 100 0 -1 0
394.25 54 0 1 0 0
394.25 23 0 1 0 0
394.25 23 100 1 0 0
394.25 54 100 1 0 0
393.75 54 0 -1 -0 0
393.75 23 0 -1 -0 0
393.75 23 100 -1 -0 0
393.75 54 100 -1 -0 0
680 493.25 0 -0 1 0
735 493.25 0 -0 1 0
735 493.25 100 -0 1 0
680 493.25 100 -0 1 0
680 492.75 0 0 -1 0
735 492.75 0 0 -1 0
735 492.75 100 0 -1 0
680 492.75 100 0 -1 0
680 355.25 0 -0 1 0
735 355.25 0 -0 1 0
735 355.25 100 -0 1 0
680 355.25 100 -0 1 0
680 354.75 0 0 -1 0
735 354.75 0 0 -1 0
735 354.75 100 0 -1 0
680 354.75 100 0 -1 0
671.25 354 0 1 0 0
671.25 238 0 1 0 0
671.25 238 100 1 0 0
671.25 354 100 1 0 0
670.75 354 0 -1 -0 0
670.75 238 0 -1 -0 0
670.75 238 100 -1 -0 0
670.75 354 100 -1 -0 0
339.75 191.75 0 -1 0 0
339.75 335 0 -1 0 0
339.75 335 100 -1 0 0
339.75 191.75 100 -1 0 0
340.25 192.25 0 1 -0 0
340.25 335 0 1 -0 0
340.25 335 100 1 -0 0
340.25 192.25 100 1 -0 0
340.25 192.25 0 -0 1 0
616 192.25 0 -0 1 0
616 192.25 100 -0 1 0
340.25 192.25 100 -0 1 0
339.75 191.75 0 0 -1 0
616 191.75 0 0 -1 0
616 191.75 100 0 -1 0
339.75 191.75 100 0 -1 0
271.75 68 0 -1 0 0
271.75 314 0 -1 0 0
271.75 314 100 -1 0 0
271.75 68 100 -1 0 0
272.25 68 0 1 -0 0
272.25 314 0 1 -0 0
272.25 314 100 1 -0 0
272.25 68 100 1 -0 0
616.75 104 0 -1 0 0
616.75 304 0 -1 0 0
616.75 304 100 -1 0 0
616.75 104 100 -1 0 0
617.25 104 0 1 -0 0
617.25 304 0 1 -0 0
617.25 304 100 1 -0 0
617.25 104 100 1 -0 0
573.75 41 0 -1 0 0
573.75 105 0 -1 0 0
573.75 105 100 -1 0 0
573.75 41 100 -1 0 0
574.25 41 0 1 -0 0
574.25 105 0 1 -0 0
574.25 105 100 1 -0 0
574.25 41 100 1 -0 0
735.75 105.25 0 -1 0 0
735.75 304.75 0 -1 0 0
735.75 304.75 100 -1 0 0
735.75 105.25 100 -1 0 0
736.25 104.75 0 1 -0 0
736.25 305.25 0 1 -0 0
736.25 305.25 100 1 -0 0
736.25 104.75 100 1 -0 0
736.25 104.75 0 -0 -1 0
435.25 104.75 0 -0 -1 0
435.25 104.75 100 -0 -1 0
736.25 104.75 100 -0 -1 0
735.75 105.25 0 0 1 0
434.75 105.25 0 0 1 0
434.75 105.25 100 0 1 0
735.75 105.25 100 0 1 0
735.75 304.75 0 -0 -1 0
471 304.75 0 -0 -1 0
471 304.75 100 -0 -1 0
735.75 304.75 100 -0 -1 0
736.25 305.25 0 0 1 0
471 305.25 0 0 1 0
471 305.25 100 0 1 0
736.25 305.25 100 0 1 0
470.75 194 0 -1 0 0
470.75 334 0 -1 0 0
470.75 334 100 -1 0 0
470.75 194 100 -1 0 0
471.25 194 0 1 -0 0
471.25 334 0 1 -0 0
471.25 334 100 1 -0 0
471.25 194 100 1 -0 0
434.75 46 0 -1 0 0
434.75 105.25 0 -1 0 0
434.75 105.25 100 -1 0 0
434.75 46 100 -1 0 0
435.25 46 0 1 -0 0
435.25 104.75 0 1 -0 0
435.25 104.75 100 1 -0 0
435.25 46 100 1 -0 0
473 236.25 0 -0 1 0
737 236.25 0 -0 1 0
737 236.25 100 -0 1 0
473 236.25 100 -0 1 0
473 235.75 0 0 -1 0
737 235.75 0 0 -1 0
737 235.75 100 0 -1 0
473 235.75 100 0 -1 0
527.25 303 0 525.0323486328125 300.725555419921875 0
526.75 303 0 525.0323486328125 300.725555419921875 0
526.75 303 100 525.0323486328125 300.725555419921875 0
527.25 303 100 525.0323486328125 300.725555419921875 0
270 192.25 0 269.356170654296875 191.07952880859375 0
270 191.75 0 269.356170654296875 191.07952880859375 0
270 191.75 100 269.356170654296875 191.07952880859375 0
270 192.25 100 269.356170654296875 191.07952880859375 0
229.25 106 0 225.429168701171875 105.233329772949219 0
228.75 106 0 225.429168701171875 105.233329772949219 0
228.75 106 100 225.429168701171875 105.233329772949219 0
229.25 106 100 225.429168701171875 105.233329772949219 0
229.25 46 0 225.429168701171875 44.2333335876464844 0
228.75 46 0 225.429168701171875 44.2333335876464844 0
228.75 46 100 225.429168701171875 44.2333335876464844 0
229.25 46 100 225.429168701171875 44.2333335876464844 0
527.25 302 0 517.486083984375 297.40740966796875 0
526.75 302 0 517.486083984375 297.40740966796875 0
526.75 302 100 517.486083984375 297.40740966796875 0
527.25 302 100 517.486083984375 297.40740966796875 0
527.25 248 0 517.486083984375 242.40740966796875 0
526.75 248 0 517.486083984375 242.40740966796875 0
526.75 248 100 517.486083984375 242.40740966796875 0
527.25 248 100 517.486083984375 242.40740966796875 0
680 450.25 0 666.6363525390625 442.063629150390625 0
680 449.75 0 666.6363525390625 442.063629150390625 0
680 449.75 100 666.6363525390625 442.063629150390625 0
680 450.25 100 666.6363525390625 442.063629150390625 0
735 450.25 0 722.6363525390625 442.063629150390625 0
735 449.75 0 722.6363525390625 442.063629150390625 0
735 449.75 100 722.6363525390625 442.063629150390625 0
735 450.25 100 722.6363525390625 442.063629150390625 0
394.25 54 0 381.532257080078125 53.2580642700195312 0
393.75 54 0 381.532257080078125 53.2580642700195312 0
393.75 54 100 381.532257080078125 53.2580642700195312 0
394.25 54 100 381.532257080078125 53.2580642700195312 0
394.25 23 0 381.532257080078125 21.2580642700195312 0
393.75 23 0 381.532257080078125 21.2580642700195312 0
393.75 23 100 381.532257080078125 21.2580642700195312 0
394.25 23 100 381.532257080078125 21.2580642700195312 0
680 493.25 0 666.6363525390625 484.281829833984375 0
680 492.75 0 666.6363525390625 484.281829833984375 0
680 492.75 100 666.6363525390625 484.281829833984375 0
680 493.25 100 666.6363525390625 484.281829833984375 0
735 493.25 0 722.6363525390625 484.281829833984375 0
735 492.75 0 722.6363525390625 484.281829833984375 0
735 492.75 100 722.6363525390625 484.281829833984375 0
735 493.25 100 722.6363525390625 484.281829833984375 0
680 355.25 0 666.6363525390625 348.790924072265625 0
680 354.75 0 666.6363525390625 348.790924072265625 0
680 354.75 100 666.6363525390625 348.790924072265625 0
680 355.25 100 666.6363525390625 348.790924072265625 0
735 355.25 0 722.6363525390625 348.790924072265625 0
735 354.75 0 722.6363525390625 348.790924072265625 0
735 354.75 100 722.6363525390625 348.790924072265625 0
735 355.25 100 722.6363525390625 348.790924072265625 0
671.25 354 0 665.46337890625 351.948272705078125 0
670.75 354 0 665.46337890625 351.948272705078125 0
670.75 354 100 665.46337890625 351.948272705078125 0
671.25 354 100 665.46337890625 351.948272705078125 0
671.25 238 0 665.46337890625 234.948272705078125 0
670.75 238 0 665.46337890625 234.948272705078125 0
670.75 238 100 665.46337890625 234.948272705078125 0
671.25 238 100 665.46337890625 234.948272705078125 0
339.75 335 0 337.378265380859375 333.66143798828125 0
340.25 335 0 337.378265380859375 333.66143798828125 0
340.25 335 100 337.378265380859375 333.66143798828125 0
339.75 335 100 337.378265380859375 333.66143798828125 0
271.75 68 0 270.64532470703125 66.7235794067382812 0
272.25 68 0 270.64532470703125 66.7235794067382812 0
272.25 68 100 270.64532470703125 66.7235794067382812 0
271.75 68 100 270.64532470703125 66.7235794067382812 0
271.75 314 0 270.64532470703125 313.72357177734375 0
272.25 314 0 270.64532470703125 313.72357177734375 0
272.25 314 100 270.64532470703125 313.72357177734375 0
271.75 314 100 270.64532470703125 313.72357177734375 0
616.75 104 0 613.666259765625 102.480003356933594 0
617.25 104 0 613.666259765625 102.480003356933594 0
617.25 104 100 613.666259765625 102.480003356933594 0
616.75 104 100 613.666259765625 102.480003356933594 0
616.75 304 0 613.666259765625 303.480010986328125 0
617.25 304 0 613.666259765625 303.480010986328125 0
617.25 304 100 613.666259765625 303.480010986328125 0
616.75 304 100 613.666259765625 303.480010986328125 0
573.75 41 0 564.78515625 39.359375 0
574.25 41 0 564.78515625 39.359375 0
574.25 41 100 564.78515625 39.359375 0
573.75 41 100 564.78515625 39.359375 0
573.75 105 0 564.78515625 104.359375 0
574.25 105 0 564.78515625 104.359375 0
574.25 105 100 564.78515625 104.359375 0
573.75 105 100 564.78515625 104.359375 0
671 541.25 0 667.34832763671875 537.49786376953125 0
671 540.75 0 667.34832763671875 537.49786376953125 0
671 540.75 100 667.34832763671875 537.49786376953125 0
671 541.25 100 667.34832763671875 537.49786376953125 0
470.75 194 0 467.38751220703125 191.614288330078125 0
471.25 194 0 467.38751220703125 191.614288330078125 0
471.25 194 100 467.38751220703125 191.614288330078125 0
470.75 194 100 467.38751220703125 191.614288330078125 0
470.75 334 0 467.38751220703125 332.614288330078125 0
471.25 334 0 467.38751220703125 332.614288330078125 0
471.25 334 100 467.38751220703125 332.614288330078125 0
470.75 334 100 467.38751220703125 332.614288330078125 0
434.75 46 0 427.412445068359375 44.2236289978027344 0
435.25 46 0 427.412445068359375 44.2236289978027344 0
435.25 46 100 427.412445068359375 44.2236289978027344 0
434.75 46 100 427.412445068359375 44.2236289978027344 0
471 304.75 0 468.220977783203125 303.598907470703125 0
471 305.25 0 468.220977783203125 303.598907470703125 0
471 305.25 100 468.220977783203125 303.598907470703125 0
471 304.75 100 468.220977783203125 303.598907470703125 0
106.25 111 0 104.934211730957031 108.625389099121094 0
105.75 111 0 104.934211730957031 108.625389099121094 0
105.75 111 100 104.934211730957031 108.625389099121094 0
106.25 111 100 104.934211730957031 108.625389099121094 0
473 236.25 0 470.208343505859375 235.355117797851562 0
473 235.75 0 470.208343505859375 235.355117797851562 0
473 235.75 100 470.208343505859375 235.355117797851562 0
473 236.25 100 470.208343505859375 235.355117797851562 0
737 236.25 0 735.20831298828125 235.355117797851562 0
737 235.75 0 735.20831298828125 235.355117797851562 0
737 235.75 100 735.20831298828125 235.355117797851562 0
737 236.25 100 735.20831298828125 235.355117797851562 0
616 192.25 0 614.76611328125 191.552810668945312 0
616 191.75 0 614.76611328125 191.552810668945312 0
616 191.75 100 614.76611328125 191.552810668945312 0
616 192.25 100 614.76611328125 191.552810668945312 0
527.25 540.75 0 0 0 -1
526.75 541.25 0 0 0 -1
526.75 303 0 0 0 -1
527.25 303 0 0 0 -1
527.25 540.75 100 0 0 1
526.75 541.25 100 0 0 1
526.75 303 100 0 0 1
527.25 303 100 0 0 1
526.75 541.25 0 0 0 -1
527.25 540.75 0 0 0 -1
671 540.75 0 0 0 -1
671 541.25 0 0 0 -1
526.75 541.25 100 0 0 1
527.25 540.75 100 0 0 1
671 540.75 100 0 0 1
671 541.25 100 0 0 1
105.75 192.25 0 0 0 -1
106.25 191.75 0 0 0 -1
270 191.75 0 0 0 -1
270 192.25 0 0 0 -1
105.75 192.25 100 0 0 1
106.25 191.75 100 0 0 1
270 191.75 100 0 0 1
270 192.25 100 0 0 1
106.25 191.75 0 0 0 -1
105.75 192.25 0 0 0 -1
105.75 111 0 0 0 -1
106.25 111 0 0 0 -1
106.25 191.75 100 0 0 1
105.75 192.25 100 0 0 1
105.75 111 100 0 0 1
106.25 111 100 0 0 1
229.25 106 0 0 0 -1
228.75 106 0 0 0 -1
228.75 46 0 0 0 -1
229.25 46 0 0 0 -1
229.25 106 100 0 0 1
228.75 106 100 0 0 1
228.75 46 100 0 0 1
229.25 46 100 0 0 1
527.25 302 0 0 0 -1
526.75 302 0 0 0 -1
526.75 248 0 0 0 -1
527.25 248 0 0 0 -1
527.25 302 100 0 0 1
526.75 302 100 0 0 1
526.75 248 100 0 0 1
527.25 248 100 0 0 1
680 450.25 0 0 0 -1
680 449.75 0 0 0 -1
735 449.75 0 0 0 -1
735 450.25 0 0 0 -1
680 450.25 100 0 0 1
680 449.75 100 0 0 1
735 449.75 100 0 0 1
735 450.25 100 0 0 1
394.25 54 0 0 0 -1
393.75 54 0 0 0 -1
393.75 23 0 0 0 -1
394.25 23 0 0 0 -1
394.25 54 100 0 0 1
393.75 54 100 0 0 1
393.75 23 100 0 0 1
394.25 23 100 0 0 1
680 493.25 0 0 0 -1
680 492.75 0 0 0 -1
735 492.75 0 0 0 -1
735 493.25 0 0 0 -1
680 493.25 100 0 0 1
680 492.75 100 0 0 1
735 492.75 100 0 0 1
735 493.25 100 0 0 1
680 355.25 0 0 0 -1
680 354.75 0 0 0 -1
735 354.75 0 0 0 -1
735 355.25 0 0 0 -1
680 355.25 100 0 0 1
680 354.75 100 0 0 1
735 354.75 100 0 0 1
735 355.25 100 0 0 1
671.25 354 0 0 0 -1
670.75 354 0 0 0 -1
670.75 238 0 0 0 -1
671.25 238 0 0 0 -1
671.25 354 100 0 0 1
670.75 354 100 0 0 1
670.75 238 100 0 0 1
671.25 238 100 0 0 1
339.75 191.75 0 0 0 -1
340.25 192.25 0 0 0 -1
340.25 335 0 0 0 -1
339.75 335 0 0 0 -1
339.75 191.75 100 0 0 1
340.25 192.25 100 0 0 1
340.25 335 100 0 0 1
339.75 335 100 0 0 1
340.25 192.25 0 0 0 -1
339.75 191.75 0 0 0 -1
616 191.75 0 0 0 -1
616 192.25 0 0 0 -1
340.25 192.25 100 0 0 1
339.75 191.75 100 0 0 1
616 191.75 100 0 0 1
616 192.25 100 0 0 1
271.75 68 0 0 0 -1
272.25 68 0 0 0 -1
272.25 314 0 0 0 -1
271.75 314 0 0 0 -1
271.75 68 100 0 0 1
272.25 68 100 0 0 1
272.25 314 100 0 0 1
271.75 314 100 0 0 1
616.75 104 0 0 0 -1
617.25 104 0 0 0 -1
617.25 304 0 0 0 -1
616.75 304 0 0 0 -1
616.75 104 100 0 0 1
617.25 104 100 0 0 1
617.25 304 100 0 0 1
616.75 304 100 0 0 1
573.75 41 0 0 0 -1
574.25 41 0 0 0 -1
574.25 105 0 0 0 -1
573.75 105 0 0 0 -1
573.75 41 100 0 0 1
574.25 41 100 0 0 1
574.25 105 100 0 0 1
573.75 105 100 0 0 1
735.75 105.25 0 0 0 -1
736.25 104.75 0 0 0 -1
736.25 305.25 0 0 0 -1
735.75 304.75 0 0 0 -1
735.75 105.25 100 0 0 1
736.25 104.75 100 0 0 1
736.25 305.25 100 0 0 1
735.75 304.75 100 0 0 1
736.25 104.75 0 0 0 -1
735.75 105.25 0 0 0 -1
434.75 105.25 0 0 0 -1
435.25 104.75 0 0 0 -1
736.25 104.75 100 0 0 1
735.75 105.25 100 0 0 1
434.75 105.25 100 0 0 1
435.25 104.75 100 0 0 1
735.75 304.75 0 0 0 -1
736.25 305.25 0 0 0 -1
471 305.25 0 0 0 -1
471 304.75 0 0 0 -1
735.75 304.75 100 0 0 1
736.25 305.25 100 0 0 1
471 305.25 100 0 0 1
471 304.75 100 0 0 1
470.75 194 0 0 0 -1
471.25 194 0 0 0 -1
471.25 334 0 0 0 -1
470.75 334 0 0 0 -1
470.75 194 100 0 0 1
471.25 194 100 0 0 1
471.25 334 100 0 0 1
470.75 334 100 0 0 1
434.75 46 0 0 0 -1
435.25 46 0 0 0 -1
435.25 104.75 0 0 0 -1
434.75 105.25 0 0 0 -1
434.75 46 100 0 0 1
435.25 46 100 0 0 1
435.25 104.75 100 0 0 1
434.75 105.25 100 0 0 1
473 236.25 0 0 0 -1
473 235.75 0 0 0 -1
737 235.75 0 0 0 -1
737 236.25 0 0 0 -1
473 236.25 100 0 0 1
473 235.75 100 0 0 1
737 235.75 100 0 0 1
737 236.25 100 0 0 1
4 0 1 2 3
4 4 5 6 7
4 8 9 10 11
4 12 13 14 15
4 16 17 18 19
4 20 21 22 23
4 24 25 26 27
4 28 29 30 31
4 32 33 34 35
4 36 37 38 39
4 40 41 42 43
4 44 45 46 47
4 48 49 50 51
4 52 53 54 55
4 56 57 58 59
4 60 61 62 63
4 64 65 66 67
4 68 69 70 71
4 72 73 74 75
4 76 77 78 79
4 80 81 82 83
4 84 85 86 87
4 88 89 90 91
4 92 93 94 95
4 96 97 98 99
4 100 101 102 103
4 104 105 106 107
4 108 109 110 111
4 112 113 114 115
4 116 117 118 119
4 120 121 122 123
4 124 125 126 127
4 128 129 130 131
4 132 133 134 135
4 136 137 138 139
4 140 141 142 143
4 144 145 146 147
4 148 149 150 151
4 152 153 154 155
4 156 157 158 159
4 160 161 162 163
4 164 165 166 167
4 168 169 170 171
4 172 173 174 175
4 176 177 178 179
4 180 181 182 183
4 184 185 186 187
4 188 189 190 191
4 192 193 194 195
4 196 197 198 199
4 200 201 202 203
4 204 205 206 207
4 208 209 210 211
4 212 213 214 215
4 216 217 218 219
4 220 221 222 223
4 224 225 226 227
4 228 229 230 231
4 232 233 234 235
4 236 237 238 239
4 240 241 242 243
4 244 245 246 247
4 248 249 250 251
4 252 253 254 255
4 256 257 258 259
4 260 261 262 263
4 264 265 266 267
4 268 269 270 271
4 272 273 274 275
4 276 277 278 279
4 280 281 282 283
4 284 285 286 287
4 288 289 290 291
4 292 293 294 295
4 296 297 298 299
4 300 301 302 303
4 304 305 306 307
4 308 309 310 311
4 312 313 314 315
4 316 317 318 319
4 320 321 322 323
4 324 325 326 327
4 328 329 330 331
4 332 333 334 335
4 336 337 338 339
4 340 341 342 343
4 344 345 346 347
4 348 349 350 351
4 352 353 354 355
4 356 357 358 359
4 360 361 362 363
4 364 365 366 367
4 368 369 370 371
4 372 373 374 375
4 376 377 378 379
4 380 381 382 383
4 384 385 386 387
4 388 389 390 391
4 392 393 394 395
4 396 397 398 399
4 400 401 402 403
4 404 405 406 407
4 408 409 410 411
4 412 413 414 415
4 416 417 418 419
4 420 421 422 423
4 424 425 426 427
4 428 429 430 431
4 432 433 434 435
4 436 437 438 439
4 440 441 442 443
4 444 445 446 447
4 448 449 450 451
4 452 453 454 455
4 456 457 458 459
4 460 461 462 463
4 464 465 466 467
4 468 469 470 471
4 472 473 474 475
4 476 477 478 479
