ply
format ascii 1.0
element vertex 820
property float x
property float y
property float z
property float nx
property float ny
property float nz
element quads 202
property list uchar int vertex_indices
element triads 4
property list uchar int vertex_indices
end_header
154 235 0 1 0 0
154 38 0 1 0 0
154 38 100 1 0 0
154 235 100 1 0 0
148 235 0 -1 -0 0
148 32 0 -1 -0 0
148 32 100 -1 -0 0
148 235 100 -1 -0 0
154 38 0 -0 1 0
221 38 0 -0 1 0
221 38 100 -0 1 0
154 38 100 -0 1 0
148 32 0 0 -1 0
221 32 0 0 -1 0
221 32 100 0 -1 0
148 32 100 0 -1 0
376 208 0 1 0 0
376 32 0 1 0 0
376 32 100 1 0 0
376 208 100 1 0 0
370 214 0 -1 -0 0
370 38 0 -1 -0 0
370 38 100 -1 -0 0
370 214 100 -1 -0 0
370 214 0 -0 1 0
400.372467041015625 214 0 -0 1 0
400.372467041015625 214 100 -0 1 0
370 214 100 -0 1 0
376 208 0 0 -1 0
401.70819091796875 208 0 0 -1 0
401.70819091796875 208 100 0 -1 0
376 208 100 0 -1 0
376 32 0 -0 -1 0
336.979766845703125 32 0 -0 -1 0
336.979766845703125 32 100 -0 -1 0
376 32 100 -0 -1 0
370 38 0 0 1 0
340 38 0 0 1 0
340 38 100 0 1 0
370 38 100 0 1 0
537 59.2035789489746094 0 -0 -1 0
465 59.2035789489746094 0 -0 -1 0
465 59.2035789489746094 100 -0 -1 0
537 59.2035789489746094 100 -0 -1 0
537 65.2035751342773438 0 0 1 0
465 65.2035751342773438 0 0 1 0
465 65.2035751342773438 100 0 1 0
537 65.2035751342773438 100 0 1 0
424 59.2035789489746094 0 -0 -1 0
378 59.2035789489746094 0 -0 -1 0
378 59.2035789489746094 100 -0 -1 0
424 59.2035789489746094 100 -0 -1 0
424 65.2035751342773438 0 0 1 0
378 65.2035751342773438 0 0 1 0
378 65.2035751342773438 100 0 1 0
424 65.2035751342773438 100 0 1 0
662 59.2035789489746094 0 -0 -1 0
624 59.2035789489746094 0 -0 -1 0
624 59.2035789489746094 100 -0 -1 0
662 59.2035789489746094 100 -0 -1 0
662 65.2035751342773438 0 0 1 0
624 65.2035751342773438 0 0 1 0
624 65.2035751342773438 100 0 1 0
662 65.2035751342773438 100 0 1 0
293 254 0 1 0 0
293 211 0 1 0 0
293 211 100 1 0 0
293 254 100 1 0 0
287 254 0 -1 -0 0
287 211 0 -1 -0 0
287 211 100 -1 -0 0
287 254 100 -1 -0 0
340.267791748046875 212 0 1 0 0
340.267791748046875 170 0 1 0 0
340.267791748046875 170 100 1 0 0
340.267791748046875 212 100 1 0 0
334.267791748046875 212 0 -1 -0 0
334.267791748046875 170 0 -1 -0 0
334.267791748046875 170 100 -1 -0 0
334.267791748046875 212 100 -1 -0 0
340 388 0 1 0 0
340 335.691009521484375 0 1 0 0
340 335.691009521484375 100 1 0 0
340 388 100 1 0 0
334 388 0 -1 -0 0
334 334.308990478515625 0 -1 -0 0
334 334.308990478515625 100 -1 -0 0
334 388 100 -1 -0 0
340 335.691009521484375 0 0.899235069751739502 0.43746572732925415 0
356.317901611328125 302.148651123046875 0 0.899235069751739502 0.43746572732925415 0
356.317901611328125 302.148651123046875 100 0.899235069751739502 0.43746572732925415 0
340 335.691009521484375 100 0.899235069751739502 0.43746572732925415 0
334 334.308990478515625 0 -0.899235069751739502 -0.43746572732925415 0
353.682098388671875 293.851348876953125 0 -0.899235069751739502 -0.43746572732925415 0
353.682098388671875 293.851348876953125 100 -0.899235069751739502 -0.43746572732925415 0
334 334.308990478515625 100 -0.899235069751739502 -0.43746572732925415 0
340.267791748046875 473 0 1 0 0
340.267791748046875 461 0 1 0 0
340.267791748046875 461 100 1 0 0
340.267791748046875 473 100 1 0 0
334.267791748046875 473 0 -1 -0 0
334.267791748046875 461 0 -1 -0 0
334.267791748046875 461 100 -1 -0 0
334.267791748046875 473 100 -1 -0 0
290 207.93414306640625 0 -0 -1 0
156 207.93414306640625 0 -0 -1 0
156 207.93414306640625 100 -0 -1 0
290 207.93414306640625 100 -0 -1 0
290 213.93414306640625 0 0 1 0
156 213.93414306640625 0 0 1 0
156 213.93414306640625 100 0 1 0
290 213.93414306640625 100 0 1 0
294.941619873046875 161.324905395507812 0 -0.447213590145111084 0.894427180290222168 0
456.098236083984375 241.903213500976562 0 -0.447213590145111084 0.894427180290222168 0
456.098236083984375 241.903213500976562 100 -0.447213590145111084 0.894427180290222168 0
294.941619873046875 161.324905395507812 100 -0.447213590145111084 0.894427180290222168 0
401.70819091796875 208 0 0.447213590145111084 -0.894427180290222168 0
453.901763916015625 234.096786499023438 0 0.447213590145111084 -0.894427180290222168 0
453.901763916015625 234.096786499023438 100 0.447213590145111084 -0.894427180290222168 0
401.70819091796875 208 100 0.447213590145111084 -0.894427180290222168 0
400.372467041015625 214 0 -0.400818824768066406 0.916157305240631104 0
431.79754638671875 227.74847412109375 0 -0.400818824768066406 0.916157305240631104 0
431.79754638671875 227.74847412109375 100 -0.400818824768066406 0.916157305240631104 0
400.372467041015625 214 100 -0.400818824768066406 0.916157305240631104 0
294.941619873046875 161.324905395507812 0 0.400818824768066406 -0.916157305240631104 0
434.20245361328125 222.25152587890625 0 0.400818824768066406 -0.916157305240631104 0
434.20245361328125 222.25152587890625 100 0.400818824768066406 -0.916157305240631104 0
294.941619873046875 161.324905395507812 100 0.400818824768066406 -0.916157305240631104 0
685.08868408203125 325 0 1 0 0
685.08868408203125 257 0 1 0 0
685.08868408203125 257 100 1 0 0
685.08868408203125 325 100 1 0 0
679.08868408203125 325 0 -1 -0 0
679.08868408203125 257 0 -1 -0 0
679.08868408203125 257 100 -1 -0 0
679.08868408203125 325 100 -1 -0 0
532 444.038238525390625 0 -0 -1 0
466 444.038238525390625 0 -0 -1 0
466 444.038238525390625 100 -0 -1 0
532 444.038238525390625 100 -0 -1 0
532 450.038238525390625 0 0 1 0
466 450.038238525390625 0 0 1 0
466 450.038238525390625 100 0 1 0
532 450.038238525390625 100 0 1 0
389 444.038238525390625 0 -0 -1 0
379 444.038238525390625 0 -0 -1 0
379 444.038238525390625 100 -0 -1 0
389 444.038238525390625 100 -0 -1 0
389 450.038238525390625 0 0 1 0
379 450.038238525390625 0 0 1 0
379 450.038238525390625 100 0 1 0
389 450.038238525390625 100 0 1 0
305 490.01104736328125 0 -0 -1 0
269 490.01104736328125 0 -0 -1 0
269 490.01104736328125 100 -0 -1 0
305 490.01104736328125 100 -0 -1 0
305 496.01104736328125 0 0 1 0
269 496.01104736328125 0 0 1 0
269 496.01104736328125 100 0 1 0
305 496.01104736328125 100 0 1 0
334 38.0407257080078125 0 -1 0 0
334 52 0 -1 0 0
334 52 100 -1 0 0
334 38.0407257080078125 100 -1 0 0
340 38 0 1 -0 0
340 52 0 1 -0 0
340 52 100 1 -0 0
340 38 100 1 -0 0
336.979766845703125 32 0 -0.0134832374751567841 -0.999909102916717529 0
302.959564208984375 32.4587440490722656 0 -0.0134832374751567841 -0.999909102916717529 0
302.959564208984375 32.4587440490722656 100 -0.0134832374751567841 -0.999909102916717529 0
336.979766845703125 32 100 -0.0134832374751567841 -0.999909102916717529 0
334 38.0407257080078125 0 0.0134832374751567841 0.999909102916717529 0
303.040435791015625 38.4581985473632812 0 0.0134832374751567841 0.999909102916717529 0
303.040435791015625 38.4581985473632812 100 0.0134832374751567841 0.999909102916717529 0
334 38.0407257080078125 100 0.0134832374751567841 0.999909102916717529 0
674.5283203125 302 0 1 0 0
674.5283203125 279 0 1 0 0
674.5283203125 279 100 1 0 0
674.5283203125 302 100 1 0 0
668.5283203125 302 0 -1 -0 0
668.5283203125 279 0 -1 -0 0
668.5283203125 279 100 -1 -0 0
668.5283203125 302 100 -1 -0 0
674.5283203125 325 0 1 0 0
674.5283203125 313 0 1 0 0
674.5283203125 313 100 1 0 0
674.5283203125 325 100 1 0 0
668.5283203125 325 0 -1 -0 0
668.5283203125 313 0 -1 -0 0
668.5283203125 313 100 -1 -0 0
668.5283203125 325 100 -1 -0 0
674.5283203125 268 0 1 0 0
674.5283203125 257 0 1 0 0
674.5283203125 257 100 1 0 0
674.5283203125 268 100 1 0 0
668.5283203125 268 0 -1 -0 0
668.5283203125 257 0 -1 -0 0
668.5283203125 257 100 -1 -0 0
668.5283203125 268 100 -1 -0 0
456.098236083984375 241.903213500976562 0 0.847998321056365967 0.529998958110809326 0
467.54400634765625 223.589996337890625 0 0.847998321056365967 0.529998958110809326 0
467.54400634765625 223.589996337890625 100 0.847998321056365967 0.529998958110809326 0
456.098236083984375 241.903213500976562 100 0.847998321056365967 0.529998958110809326 0
453.901763916015625 234.096786499023438 0 -0.847998321056365967 -0.529998958110809326 0
462.45599365234375 220.410003662109375 0 -0.847998321056365967 -0.529998958110809326 0
462.45599365234375 220.410003662109375 100 -0.847998321056365967 -0.529998958110809326 0
453.901763916015625 234.096786499023438 100 -0.847998321056365967 -0.529998958110809326 0
360 368.4615478515625 0 -0 -1 0
340 368.4615478515625 0 -0 -1 0
340 368.4615478515625 100 -0 -1 0
360 368.4615478515625 100 -0 -1 0
360 374.4615478515625 0 0 1 0
340 374.4615478515625 0 0 1 0
340 374.4615478515625 100 0 1 0
360 374.4615478515625 100 0 1 0
369 175.5 0 -0 -1 0
338 175.5 0 -0 -1 0
338 175.5 100 -0 -1 0
369 175.5 100 -0 -1 0
369 181.5 0 0 1 0
338 181.5 0 0 1 0
338 181.5 100 0 1 0
369 181.5 100 0 1 0
356.317901611328125 302.148651123046875 0 -0.481918752193450928 0.876215934753417969 0
393.554229736328125 322.628662109375 0 -0.481918752193450928 0.876215934753417969 0
393.554229736328125 322.628662109375 100 -0.481918752193450928 0.876215934753417969 0
356.317901611328125 302.148651123046875 100 -0.481918752193450928 0.876215934753417969 0
353.682098388671875 293.851348876953125 0 0.481918752193450928 -0.876215934753417969 0
396.445770263671875 317.371337890625 0 0.481918752193450928 -0.876215934753417969 0
396.445770263671875 317.371337890625 100 0.481918752193450928 -0.876215934753417969 0
353.682098388671875 293.851348876953125 100 0.481918752193450928 -0.876215934753417969 0
381.24139404296875 308.268890380859375 0 0.413802951574325562 -0.910366475582122803 0
370.24139404296875 303.268890380859375 0 0.413802951574325562 -0.910366475582122803 0
370.24139404296875 303.268890380859375 100 0.413802951574325562 -0.910366475582122803 0
381.24139404296875 308.268890380859375 100 0.413802951574325562 -0.910366475582122803 0
378.75860595703125 313.731109619140625 0 -0.413802951574325562 0.910366475582122803 0
367.75860595703125 308.731109619140625 0 -0.413802951574325562 0.910366475582122803 0
367.75860595703125 308.731109619140625 100 -0.413802951574325562 0.910366475582122803 0
378.75860595703125 313.731109619140625 100 -0.413802951574325562 0.910366475582122803 0
148.427719116210938 273.994140625 0 -0.999998092651367188 -0.0019530225545167923 0
147.994140625 496 0 -0.999998092651367188 -0.0019530225545167923 0
147.994140625 496 100 -0.999998092651367188 -0.0019530225545167923 0
148.427719116210938 273.994140625 100 -0.999998092651367188 -0.0019530225545167923 0
154.427703857421875 274.005859375 0 0.999998092651367188 0.0019530225545167923 0
154.005859375 490 0 0.999998092651367188 0.0019530225545167923 0
154.005859375 490 100 0.999998092651367188 0.0019530225545167923 0
154.427703857421875 274.005859375 100 0.999998092651367188 0.0019530225545167923 0
147.994140625 496 0 -0 1 0
185 496 0 -0 1 0
185 496 100 -0 1 0
147.994140625 496 100 -0 1 0
154.005859375 490 0 0 -1 0
185 490 0 0 -1 0
185 490 100 0 -1 0
154.005859375 490 100 0 -1 0
655.715576171875 130.993209838867188 0 -0.999997437000274658 -0.00226449570618569851 0
655.00677490234375 444.003570556640625 0 -0.999997437000274658 -0.00226449570618569851 0
655.00677490234375 444.003570556640625 100 -0.999997437000274658 -0.00226449570618569851 0
655.715576171875 130.993209838867188 100 -0.999997437000274658 -0.00226449570618569851 0
661.715576171875 131.006790161132812 0 0.999997437000274658 0.00226449570618569851 0
660.99322509765625 449.996429443359375 0 0.999997437000274658 0.00226449570618569851 0
660.99322509765625 449.996429443359375 100 0.999997437000274658 0.00226449570618569851 0
661.715576171875 131.006790161132812 100 0.999997437000274658 0.00226449570618569851 0
655.00677490234375 444.003570556640625 0 -0.00119511247612535954 -0.999999284744262695 0
625.99639892578125 444.038238525390625 0 -0.00119511247612535954 -0.999999284744262695 0
625.99639892578125 444.038238525390625 100 -0.00119511247612535954 -0.999999284744262695 0
655.00677490234375 444.003570556640625 100 -0.00119511247612535954 -0.999999284744262695 0
660.99322509765625 449.996429443359375 0 0.00119511247612535954 0.999999284744262695 0
626.00360107421875 450.038238525390625 0 0.00119511247612535954 0.999999284744262695 0
626.00360107421875 450.038238525390625 100 0.00119511247612535954 0.999999284744262695 0
660.99322509765625 449.996429443359375 100 0.00119511247612535954 0.999999284744262695 0
370.05426025390625 378.99835205078125 0 -0.999999821186065674 -0.000553746474906802177 0
370.00164794921875 474.004180908203125 0 -0.999999821186065674 -0.000553746474906802177 0
370.00164794921875 474.004180908203125 100 -0.999999821186065674 -0.000553746474906802177 0
370.05426025390625 378.99835205078125 100 -0.999999821186065674 -0.000553746474906802177 0
376.05426025390625 379.00164794921875 0 0.999999821186065674 0.000553746474906802177 0
375.99835205078125 479.995819091796875 0 0.999999821186065674 0.000553746474906802177 0
375.99835205078125 479.995819091796875 100 0.999999821186065674 0.000553746474906802177 0
376.05426025390625 379.00164794921875 100 0.999999821186065674 0.000553746474906802177 0
370.00164794921875 474.004180908203125 0 -0.00139980483800172806 -0.999999046325683594 0
298.99578857421875 474.10357666015625 0 -0.00139980483800172806 -0.999999046325683594 0
298.99578857421875 474.10357666015625 100 -0.00139980483800172806 -0.999999046325683594 0
370.00164794921875 474.004180908203125 100 -0.00139980483800172806 -0.999999046325683594 0
375.99835205078125 479.995819091796875 0 0.00139980483800172806 0.999999046325683594 0
299.00421142578125 480.10357666015625 0 0.00139980483800172806 0.999999046325683594 0
299.00421142578125 480.10357666015625 100 0.00139980483800172806 0.999999046325683594 0
375.99835205078125 479.995819091796875 100 0.00139980483800172806 0.999999046325683594 0
287.100006103515625 290.994110107421875 0 -0.999998092651367188 -0.00196078047156333923 0
287.005828857421875 339.018280029296875 0 -0.999998092651367188 -0.00196078047156333923 0
287.005828857421875 339.018280029296875 100 -0.999998092651367188 -0.00196078047156333923 0
287.100006103515625 290.994110107421875 100 -0.999998092651367188 -0.00196078047156333923 0
293.100006103515625 291.005889892578125 0 0.999998092651367188 0.00196078047156333923 0
292.994171142578125 344.981719970703125 0 0.999998092651367188 0.00196078047156333923 0
292.994171142578125 344.981719970703125 100 0.999998092651367188 0.00196078047156333923 0
293.100006103515625 291.005889892578125 100 0.999998092651367188 0.00196078047156333923 0
287.005828857421875 339.018280029296875 0 -0.0061255614273250103 -0.999981224536895752 0
154.98162841796875 339.8270263671875 0 -0.0061255614273250103 -0.999981224536895752 0
154.98162841796875 339.8270263671875 100 -0.0061255614273250103 -0.999981224536895752 0
287.005828857421875 339.018280029296875 100 -0.0061255614273250103 -0.999981224536895752 0
292.994171142578125 344.981719970703125 0 0.0061255614273250103 0.999981224536895752 0
155.01837158203125 345.826904296875 0 0.0061255614273250103 0.999981224536895752 0
155.01837158203125 345.826904296875 100 0.0061255614273250103 0.999981224536895752 0
292.994171142578125 344.981719970703125 100 0.0061255614273250103 0.999981224536895752 0
154 235 0 153.218276977539062 234.807113647460938 0
148 235 0 153.218276977539062 234.807113647460938 0
148 235 100 153.218276977539062 234.807113647460938 0
154 235 100 153.218276977539062 234.807113647460938 0
537 59.2035789489746094 0 530.54168701171875 58.3813056945800781 0
537 65.2035751342773438 0 530.54168701171875 58.3813056945800781 0
537 65.2035751342773438 100 530.54168701171875 58.3813056945800781 0
537 59.2035789489746094 100 530.54168701171875 58.3813056945800781 0
465 59.2035789489746094 0 457.541656494140625 58.3813056945800781 0
465 65.2035751342773438 0 457.541656494140625 58.3813056945800781 0
465 65.2035751342773438 100 457.541656494140625 58.3813056945800781 0
465 59.2035789489746094 100 457.541656494140625 58.3813056945800781 0
424 59.2035789489746094 0 415.782623291015625 57.9165420532226562 0
424 65.2035751342773438 0 415.782623291015625 57.9165420532226562 0
424 65.2035751342773438 100 415.782623291015625 57.9165420532226562 0
424 59.2035789489746094 100 415.782623291015625 57.9165420532226562 0
378 59.2035789489746094 0 368.782623291015625 57.9165420532226562 0
378 65.2035751342773438 0 368.782623291015625 57.9165420532226562 0
378 65.2035751342773438 100 368.782623291015625 57.9165420532226562 0
378 59.2035789489746094 100 368.782623291015625 57.9165420532226562 0
662 59.2035789489746094 0 645.57891845703125 57.6455879211425781 0
662 65.2035751342773438 0 645.57891845703125 57.6455879211425781 0
662 65.2035751342773438 100 645.57891845703125 57.6455879211425781 0
662 59.2035789489746094 100 645.57891845703125 57.6455879211425781 0
624 59.2035789489746094 0 606.57891845703125 57.6455879211425781 0
624 65.2035751342773438 0 606.57891845703125 57.6455879211425781 0
624 65.2035751342773438 100 606.57891845703125 57.6455879211425781 0
624 59.2035789489746094 100 606.57891845703125 57.6455879211425781 0
293 254 0 286.18603515625 249.093017578125 0
287 254 0 286.18603515625 249.093017578125 0
287 254 100 286.18603515625 249.093017578125 0
293 254 100 286.18603515625 249.093017578125 0
293 211 0 286.18603515625 205.093017578125 0
287 211 0 286.18603515625 205.093017578125 0
287 211 100 286.18603515625 205.093017578125 0
293 211 100 286.18603515625 205.093017578125 0
340.267791748046875 212 0 332.166168212890625 207.952377319335938 0
334.267791748046875 212 0 332.166168212890625 207.952377319335938 0
334.267791748046875 212 100 332.166168212890625 207.952377319335938 0
340.267791748046875 212 100 332.166168212890625 207.952377319335938 0
340.267791748046875 170 0 332.166168212890625 164.952377319335938 0
334.267791748046875 170 0 332.166168212890625 164.952377319335938 0
334.267791748046875 170 100 332.166168212890625 164.952377319335938 0
340.267791748046875 170 100 332.166168212890625 164.952377319335938 0
340 388 0 333.500152587890625 381.582550048828125 0
334 388 0 333.500152587890625 381.582550048828125 0
334 388 100 333.500152587890625 381.582550048828125 0
340 388 100 333.500152587890625 381.582550048828125 0
340.267791748046875 473 0 311.912139892578125 434.583343505859375 0
334.267791748046875 473 0 311.912139892578125 434.583343505859375 0
334.267791748046875 473 100 311.912139892578125 434.583343505859375 0
340.267791748046875 473 100 311.912139892578125 434.583343505859375 0
340.267791748046875 461 0 311.912139892578125 421.583343505859375 0
334.267791748046875 461 0 311.912139892578125 421.583343505859375 0
334.267791748046875 461 100 311.912139892578125 421.583343505859375 0
340.267791748046875 461 100 311.912139892578125 421.583343505859375 0
290 207.93414306640625 0 288.8358154296875 206.382400512695312 0
290 213.93414306640625 0 288.8358154296875 206.382400512695312 0
290 213.93414306640625 100 288.8358154296875 206.382400512695312 0
290 207.93414306640625 100 288.8358154296875 206.382400512695312 0
156 207.93414306640625 0 153.8358154296875 206.382400512695312 0
156 213.93414306640625 0 153.8358154296875 206.382400512695312 0
156 213.93414306640625 100 153.8358154296875 206.382400512695312 0
156 207.93414306640625 100 153.8358154296875 206.382400512695312 0
685.08868408203125 325 0 675.01385498046875 321.2205810546875 0
679.08868408203125 325 0 675.01385498046875 321.2205810546875 0
679.08868408203125 325 100 675.01385498046875 321.2205810546875 0
685.08868408203125 325 100 675.01385498046875 321.2205810546875 0
685.08868408203125 257 0 675.01385498046875 252.2205810546875 0
679.08868408203125 257 0 675.01385498046875 252.2205810546875 0
679.08868408203125 257 100 675.01385498046875 252.2205810546875 0
685.08868408203125 257 100 675.01385498046875 252.2205810546875 0
532 444.038238525390625 0 524.93939208984375 437.310394287109375 0
532 450.038238525390625 0 524.93939208984375 437.310394287109375 0
532 450.038238525390625 100 524.93939208984375 437.310394287109375 0
532 444.038238525390625 100 524.93939208984375 437.310394287109375 0
466 444.038238525390625 0 457.93939208984375 437.310394287109375 0
466 450.038238525390625 0 457.93939208984375 437.310394287109375 0
466 450.038238525390625 100 457.93939208984375 437.310394287109375 0
466 444.038238525390625 100 457.93939208984375 437.310394287109375 0
389 444.038238525390625 0 351.100006103515625 399.634429931640625 0
389 450.038238525390625 0 351.100006103515625 399.634429931640625 0
389 450.038238525390625 100 351.100006103515625 399.634429931640625 0
389 444.038238525390625 100 351.100006103515625 399.634429931640625 0
379 444.038238525390625 0 340.100006103515625 399.634429931640625 0
379 450.038238525390625 0 340.100006103515625 399.634429931640625 0
379 450.038238525390625 100 340.100006103515625 399.634429931640625 0
379 444.038238525390625 100 340.100006103515625 399.634429931640625 0
305 490.01104736328125 0 297.52777099609375 476.399658203125 0
305 496.01104736328125 0 297.52777099609375 476.399658203125 0
305 496.01104736328125 100 297.52777099609375 476.399658203125 0
305 490.01104736328125 100 297.52777099609375 476.399658203125 0
269 490.01104736328125 0 260.52777099609375 476.399658203125 0
269 496.01104736328125 0 260.52777099609375 476.399658203125 0
269 496.01104736328125 100 260.52777099609375 476.399658203125 0
269 490.01104736328125 100 260.52777099609375 476.399658203125 0
221 38 0 218.701492309570312 37.4328346252441406 0
221 32 0 218.701492309570312 37.4328346252441406 0
221 32 100 218.701492309570312 37.4328346252441406 0
221 38 100 218.701492309570312 37.4328346252441406 0
674.5283203125 302 0 645.20098876953125 289.86956787109375 0
668.5283203125 302 0 645.20098876953125 289.86956787109375 0
668.5283203125 302 100 645.20098876953125 289.86956787109375 0
674.5283203125 302 100 645.20098876953125 289.86956787109375 0
674.5283203125 279 0 645.20098876953125 265.86956787109375 0
668.5283203125 279 0 645.20098876953125 265.86956787109375 0
668.5283203125 279 100 645.20098876953125 265.86956787109375 0
674.5283203125 279 100 645.20098876953125 265.86956787109375 0
674.5283203125 325 0 618.317626953125 298.916656494140625 0
668.5283203125 325 0 618.317626953125 298.916656494140625 0
668.5283203125 325 100 618.317626953125 298.916656494140625 0
674.5283203125 325 100 618.317626953125 298.916656494140625 0
674.5283203125 313 0 618.317626953125 285.916656494140625 0
668.5283203125 313 0 618.317626953125 285.916656494140625 0
668.5283203125 313 100 618.317626953125 285.916656494140625 0
674.5283203125 313 100 618.317626953125 285.916656494140625 0
674.5283203125 268 0 613.20751953125 244.636367797851562 0
668.5283203125 268 0 613.20751953125 244.636367797851562 0
668.5283203125 268 100 613.20751953125 244.636367797851562 0
674.5283203125 268 100 613.20751953125 244.636367797851562 0
674.5283203125 257 0 613.20751953125 232.636367797851562 0
668.5283203125 257 0 613.20751953125 232.636367797851562 0
668.5283203125 257 100 613.20751953125 232.636367797851562 0
674.5283203125 257 100 613.20751953125 232.636367797851562 0
360 368.4615478515625 0 343 350.0384521484375 0
360 374.4615478515625 0 343 350.0384521484375 0
360 374.4615478515625 100 343 350.0384521484375 0
360 368.4615478515625 100 343 350.0384521484375 0
340 368.4615478515625 0 322 350.0384521484375 0
340 374.4615478515625 0 322 350.0384521484375 0
340 374.4615478515625 100 322 350.0384521484375 0
340 368.4615478515625 100 322 350.0384521484375 0
369 175.5 0 358.096771240234375 169.838714599609375 0
369 181.5 0 358.096771240234375 169.838714599609375 0
369 181.5 100 358.096771240234375 169.838714599609375 0
369 175.5 100 358.096771240234375 169.838714599609375 0
338 175.5 0 326.096771240234375 169.838714599609375 0
338 181.5 0 326.096771240234375 169.838714599609375 0
338 181.5 100 326.096771240234375 169.838714599609375 0
338 175.5 100 326.096771240234375 169.838714599609375 0
431.79754638671875 227.74847412109375 0 420.125213623046875 221.50958251953125 0
434.20245361328125 222.25152587890625 0 420.125213623046875 221.50958251953125 0
434.20245361328125 222.25152587890625 100 420.125213623046875 221.50958251953125 0
431.79754638671875 227.74847412109375 100 420.125213623046875 221.50958251953125 0
393.554229736328125 322.628662109375 0 385.169647216796875 315.51873779296875 0
396.445770263671875 317.371337890625 0 385.169647216796875 315.51873779296875 0
396.445770263671875 317.371337890625 100 385.169647216796875 315.51873779296875 0
393.554229736328125 322.628662109375 100 385.169647216796875 315.51873779296875 0
381.24139404296875 308.268890380859375 0 350.600006103515625 283.170196533203125 0
378.75860595703125 313.731109619140625 0 350.600006103515625 283.170196533203125 0
378.75860595703125 313.731109619140625 100 350.600006103515625 283.170196533203125 0
381.24139404296875 308.268890380859375 100 350.600006103515625 283.170196533203125 0
370.24139404296875 303.268890380859375 0 338.68963623046875 277.756378173828125 0
367.75860595703125 308.731109619140625 0 338.68963623046875 277.756378173828125 0
367.75860595703125 308.731109619140625 100 338.68963623046875 277.756378173828125 0
370.24139404296875 303.268890380859375 100 338.68963623046875 277.756378173828125 0
467.54400634765625 223.589996337890625 0 446.42425537109375 212.38861083984375 0
462.45599365234375 220.410003662109375 0 446.42425537109375 212.38861083984375 0
462.45599365234375 220.410003662109375 100 446.42425537109375 212.38861083984375 0
467.54400634765625 223.589996337890625 100 446.42425537109375 212.38861083984375 0
148.427719116210938 273.994140625 0 147.761093139648438 271.759979248046875 0
154.427703857421875 274.005859375 0 147.761093139648438 271.759979248046875 0
154.427703857421875 274.005859375 100 147.761093139648438 271.759979248046875 0
148.427719116210938 273.994140625 100 147.761093139648438 271.759979248046875 0
185 496 0 181.00079345703125 482.596710205078125 0
185 490 0 181.00079345703125 482.596710205078125 0
185 490 100 181.00079345703125 482.596710205078125 0
185 496 100 181.00079345703125 482.596710205078125 0
655.715576171875 130.993209838867188 0 653.62298583984375 129.574722290039062 0
661.715576171875 131.006790161132812 0 653.62298583984375 129.574722290039062 0
661.715576171875 131.006790161132812 100 653.62298583984375 129.574722290039062 0
655.715576171875 130.993209838867188 100 653.62298583984375 129.574722290039062 0
625.99639892578125 444.038238525390625 0 603.41802978515625 428.733245849609375 0
626.00360107421875 450.038238525390625 0 603.41802978515625 428.733245849609375 0
626.00360107421875 450.038238525390625 100 603.41802978515625 428.733245849609375 0
625.99639892578125 444.038238525390625 100 603.41802978515625 428.733245849609375 0
370.05426025390625 378.99835205078125 0 366.159759521484375 374.009124755859375 0
376.05426025390625 379.00164794921875 0 366.159759521484375 374.009124755859375 0
376.05426025390625 379.00164794921875 100 366.159759521484375 374.009124755859375 0
370.05426025390625 378.99835205078125 100 366.159759521484375 374.009124755859375 0
298.99578857421875 474.10357666015625 0 293.784942626953125 467.42803955078125 0
299.00421142578125 480.10357666015625 0 293.784942626953125 467.42803955078125 0
299.00421142578125 480.10357666015625 100 293.784942626953125 467.42803955078125 0
298.99578857421875 474.10357666015625 100 293.784942626953125 467.42803955078125 0
287.100006103515625 290.994110107421875 0 281.123748779296875 283.934814453125 0
293.100006103515625 291.005889892578125 0 281.123748779296875 283.934814453125 0
293.100006103515625 291.005889892578125 100 281.123748779296875 283.934814453125 0
287.100006103515625 290.994110107421875 100 281.123748779296875 283.934814453125 0
154.98162841796875 339.8270263671875 0 152.807769775390625 337.25921630859375 0
155.01837158203125 345.826904296875 0 152.807769775390625 337.25921630859375 0
155.01837158203125 345.826904296875 100 152.807769775390625 337.25921630859375 0
154.98162841796875 339.8270263671875 100 152.807769775390625 337.25921630859375 0
334 52 0 310.0732421875 49.2748794555664062 0
340 52 0 310.0732421875 49.2748794555664062 0
340 52 100 310.0732421875 49.2748794555664062 0
334 52 100 310.0732421875 49.2748794555664062 0
302.959564208984375 32.4587440490722656 0 293.05517578125 31.5182132720947266 0
303.040435791015625 38.4581985473632812 0 293.05517578125 31.5182132720947266 0
303.040435791015625 38.4581985473632812 100 293.05517578125 31.5182132720947266 0
302.959564208984375 32.4587440490722656 100 293.05517578125 31.5182132720947266 0
154 235 0 0 0 -1
148 235 0 0 0 -1
148 32 0 0 0 -1
154 38 0 0 0 -1
154 235 100 0 0 1
148 235 100 0 0 1
148 32 100 0 0 1
154 38 100 0 0 1
154 38 0 0 0 -1
148 32 0 0 0 -1
221 32 0 0 0 -1
221 38 0 0 0 -1
154 38 100 0 0 1
148 32 100 0 0 1
221 32 100 0 0 1
221 38 100 0 0 1
376 208 0 0 0 -1
370 214 0 0 0 -1
370 38 0 0 0 -1
376 32 0 0 0 -1
376 208 100 0 0 1
370 214 100 0 0 1
370 38 100 0 0 1
376 32 100 0 0 1
370 214 0 0 0 -1
376 208 0 0 0 -1
401.70819091796875 208 0 0 0 -1
400.372467041015625 214 0 0 0 -1
370 214 100 0 0 1
376 208 100 0 0 1
401.70819091796875 208 100 0 0 1
400.372467041015625 214 100 0 0 1
376 32 0 0 0 -1
370 38 0 0 0 -1
340 38 0 0 0 -1
336.979766845703125 32 0 0 0 -1
376 32 100 0 0 1
370 38 100 0 0 1
340 38 100 0 0 1
336.979766845703125 32 100 0 0 1
537 59.2035789489746094 0 0 0 -1
537 65.2035751342773438 0 0 0 -1
465 65.2035751342773438 0 0 0 -1
465 59.2035789489746094 0 0 0 -1
537 59.2035789489746094 100 0 0 1
537 65.2035751342773438 100 0 0 1
465 65.2035751342773438 100 0 0 1
465 59.2035789489746094 100 0 0 1
424 59.2035789489746094 0 0 0 -1
424 65.2035751342773438 0 0 0 -1
378 65.2035751342773438 0 0 0 -1
378 59.2035789489746094 0 0 0 -1
424 59.2035789489746094 100 0 0 1
424 65.2035751342773438 100 0 0 1
378 65.2035751342773438 100 0 0 1
378 59.2035789489746094 100 0 0 1
662 59.2035789489746094 0 0 0 -1
662 65.2035751342773438 0 0 0 -1
624 65.2035751342773438 0 0 0 -1
624 59.2035789489746094 0 0 0 -1
662 59.2035789489746094 100 0 0 1
662 65.2035751342773438 100 0 0 1
624 65.2035751342773438 100 0 0 1
624 59.2035789489746094 100 0 0 1
293 254 0 0 0 -1
287 254 0 0 0 -1
287 211 0 0 0 -1
293 211 0 0 0 -1
293 254 100 0 0 1
287 254 100 0 0 1
287 211 100 0 0 1
293 211 100 0 0 1
340.267791748046875 212 0 0 0 -1
334.267791748046875 212 0 0 0 -1
334.267791748046875 170 0 0 0 -1
340.267791748046875 170 0 0 0 -1
340.267791748046875 212 100 0 0 1
334.267791748046875 212 100 0 0 1
334.267791748046875 170 100 0 0 1
340.267791748046875 170 100 0 0 1
340 388 0 0 0 -1
334 388 0 0 0 -1
334 334.308990478515625 0 0 0 -1
340 335.691009521484375 0 0 0 -1
340 388 100 0 0 1
334 388 100 0 0 1
334 334.308990478515625 100 0 0 1
340 335.691009521484375 100 0 0 1
340 335.691009521484375 0 0 0 -1
334 334.308990478515625 0 0 0 -1
353.682098388671875 293.851348876953125 0 0 0 -1
356.317901611328125 302.148651123046875 0 0 0 -1
340 335.691009521484375 100 0 0 1
334 334.308990478515625 100 0 0 1
353.682098388671875 293.851348876953125 100 0 0 1
356.317901611328125 302.148651123046875 100 0 0 1
340.267791748046875 473 0 0 0 -1
334.267791748046875 473 0 0 0 -1
334.267791748046875 461 0 0 0 -1
340.267791748046875 461 0 0 0 -1
340.267791748046875 473 100 0 0 1
334.267791748046875 473 100 0 0 1
334.267791748046875 461 100 0 0 1
340.267791748046875 461 100 0 0 1
290 207.93414306640625 0 0 0 -1
290 213.93414306640625 0 0 0 -1
156 213.93414306640625 0 0 0 -1
156 207.93414306640625 0 0 0 -1
290 207.93414306640625 100 0 0 1
290 213.93414306640625 100 0 0 1
156 213.93414306640625 100 0 0 1
156 207.93414306640625 100 0 0 1
294.941619873046875 161.324905395507812 0 0 0 -1
401.70819091796875 208 0 0 0 -1
453.901763916015625 234.096786499023438 0 0 0 -1
456.098236083984375 241.903213500976562 0 0 0 -1
294.941619873046875 161.324905395507812 100 0 0 1
401.70819091796875 208 100 0 0 1
453.901763916015625 234.096786499023438 100 0 0 1
456.098236083984375 241.903213500976562 100 0 0 1
400.372467041015625 214 0 0 0 -1
294.941619873046875 161.324905395507812 0 0 0 -1
434.20245361328125 222.25152587890625 0 0 0 -1
431.79754638671875 227.74847412109375 0 0 0 -1
400.372467041015625 214 100 0 0 1
294.941619873046875 161.324905395507812 100 0 0 1
434.20245361328125 222.25152587890625 100 0 0 1
431.79754638671875 227.74847412109375 100 0 0 1
685.08868408203125 325 0 0 0 -1
679.08868408203125 325 0 0 0 -1
679.08868408203125 257 0 0 0 -1
685.08868408203125 257 0 0 0 -1
685.08868408203125 325 100 0 0 1
679.08868408203125 325 100 0 0 1
679.08868408203125 257 100 0 0 1
685.08868408203125 257 100 0 0 1
532 444.038238525390625 0 0 0 -1
532 450.038238525390625 0 0 0 -1
466 450.038238525390625 0 0 0 -1
466 444.038238525390625 0 0 0 -1
532 444.038238525390625 100 0 0 1
532 450.038238525390625 100 0 0 1
466 450.038238525390625 100 0 0 1
466 444.038238525390625 100 0 0 1
389 444.038238525390625 0 0 0 -1
389 450.038238525390625 0 0 0 -1
379 450.038238525390625 0 0 0 -1
379 444.038238525390625 0 0 0 -1
389 444.038238525390625 100 0 0 1
389 450.038238525390625 100 0 0 1
379 450.038238525390625 100 0 0 1
379 444.038238525390625 100 0 0 1
305 490.01104736328125 0 0 0 -1
305 496.01104736328125 0 0 0 -1
269 496.01104736328125 0 0 0 -1
269 490.01104736328125 0 0 0 -1
305 490.01104736328125 100 0 0 1
305 496.01104736328125 100 0 0 1
269 496.01104736328125 100 0 0 1
269 490.01104736328125 100 0 0 1
334 38.0407257080078125 0 0 0 -1
340 38 0 0 0 -1
340 52 0 0 0 -1
334 52 0 0 0 -1
334 38.0407257080078125 100 0 0 1
340 38 100 0 0 1
340 52 100 0 0 1
334 52 100 0 0 1
336.979766845703125 32 0 0 0 -1
334 38.0407257080078125 0 0 0 -1
303.040435791015625 38.4581985473632812 0 0 0 -1
302.959564208984375 32.4587440490722656 0 0 0 -1
336.979766845703125 32 100 0 0 1
334 38.0407257080078125 100 0 0 1
303.040435791015625 38.4581985473632812 100 0 0 1
302.959564208984375 32.4587440490722656 100 0 0 1
674.5283203125 302 0 0 0 -1
668.5283203125 302 0 0 0 -1
668.5283203125 279 0 0 0 -1
674.5283203125 279 0 0 0 -1
674.5283203125 302 100 0 0 1
668.5283203125 302 100 0 0 1
668.5283203125 279 100 0 0 1
674.5283203125 279 100 0 0 1
674.5283203125 325 0 0 0 -1
668.5283203125 325 0 0 0 -1
668.5283203125 313 0 0 0 -1
674.5283203125 313 0 0 0 -1
674.5283203125 325 100 0 0 1
668.5283203125 325 100 0 0 1
668.5283203125 313 100 0 0 1
674.5283203125 313 100 0 0 1
674.5283203125 268 0 0 0 -1
668.5283203125 268 0 0 0 -1
668.5283203125 257 0 0 0 -1
674.5283203125 257 0 0 0 -1
674.5283203125 268 100 0 0 1
668.5283203125 268 100 0 0 1
668.5283203125 257 100 0 0 1
674.5283203125 257 100 0 0 1
456.098236083984375 241.903213500976562 0 0 0 -1
453.901763916015625 234.096786499023438 0 0 0 -1
462.45599365234375 220.410003662109375 0 0 0 -1
467.54400634765625 223.589996337890625 0 0 0 -1
456.098236083984375 241.903213500976562 100 0 0 1
453.901763916015625 234.096786499023438 100 0 0 1
462.45599365234375 220.410003662109375 100 0 0 1
467.54400634765625 223.589996337890625 100 0 0 1
360 368.4615478515625 0 0 0 -1
360 374.4615478515625 0 0 0 -1
340 374.4615478515625 0 0 0 -1
340 368.4615478515625 0 0 0 -1
360 368.4615478515625 100 0 0 1
360 374.4615478515625 100 0 0 1
340 374.4615478515625 100 0 0 1
340 368.4615478515625 100 0 0 1
369 175.5 0 0 0 -1
369 181.5 0 0 0 -1
338 181.5 0 0 0 -1
338 175.5 0 0 0 -1
369 175.5 100 0 0 1
369 181.5 100 0 0 1
338 181.5 100 0 0 1
338 175.5 100 0 0 1
356.317901611328125 302.148651123046875 0 0 0 -1
353.682098388671875 293.851348876953125 0 0 0 -1
396.445770263671875 317.371337890625 0 0 0 -1
393.554229736328125 322.628662109375 0 0 0 -1
356.317901611328125 302.148651123046875 100 0 0 1
353.682098388671875 293.851348876953125 100 0 0 1
396.445770263671875 317.371337890625 100 0 0 1
393.554229736328125 322.628662109375 100 0 0 1
381.24139404296875 308.268890380859375 0 0 0 -1
378.75860595703125 313.731109619140625 0 0 0 -1
367.75860595703125 308.731109619140625 0 0 0 -1
370.24139404296875 303.268890380859375 0 0 0 -1
381.24139404296875 308.268890380859375 100 0 0 1
378.75860595703125 313.731109619140625 100 0 0 1
367.75860595703125 308.731109619140625 100 0 0 1
370.24139404296875 303.268890380859375 100 0 0 1
148.427719116210938 273.994140625 0 0 0 -1
154.427703857421875 274.005859375 0 0 0 -1
154.005859375 490 0 0 0 -1
147.994140625 496 0 0 0 -1
148.427719116210938 273.994140625 100 0 0 1
154.427703857421875 274.005859375 100 0 0 1
154.005859375 490 100 0 0 1
147.994140625 496 100 0 0 1
147.994140625 496 0 0 0 -1
154.005859375 490 0 0 0 -1
185 490 0 0 0 -1
185 496 0 0 0 -1
147.994140625 496 100 0 0 1
154.005859375 490 100 0 0 1
185 490 100 0 0 1
185 496 100 0 0 1
655.715576171875 130.993209838867188 0 0 0 -1
661.715576171875 131.006790161132812 0 0 0 -1
660.99322509765625 449.996429443359375 0 0 0 -1
655.00677490234375 444.003570556640625 0 0 0 -1
655.715576171875 130.993209838867188 100 0 0 1
661.715576171875 131.006790161132812 100 0 0 1
660.99322509765625 449.996429443359375 100 0 0 1
655.00677490234375 444.003570556640625 100 0 0 1
655.00677490234375 444.003570556640625 0 0 0 -1
660.99322509765625 449.996429443359375 0 0 0 -1
626.00360107421875 450.038238525390625 0 0 0 -1
625.99639892578125 444.038238525390625 0 0 0 -1
655.00677490234375 444.003570556640625 100 0 0 1
660.99322509765625 449.996429443359375 100 0 0 1
626.00360107421875 450.038238525390625 100 0 0 1
625.99639892578125 444.038238525390625 100 0 0 1
370.05426025390625 378.99835205078125 0 0 0 -1
376.05426025390625 379.00164794921875 0 0 0 -1
375.99835205078125 479.995819091796875 0 0 0 -1
370.00164794921875 474.004180908203125 0 0 0 -1
370.05426025390625 378.99835205078125 100 0 0 1
376.05426025390625 379.00164794921875 100 0 0 1
375.99835205078125 479.995819091796875 100 0 0 1
370.00164794921875 474.004180908203125 100 0 0 1
370.00164794921875 474.004180908203125 0 0 0 -1
375.99835205078125 479.995819091796875 0 0 0 -1
299.00421142578125 480.10357666015625 0 0 0 -1
298.99578857421875 474.10357666015625 0 0 0 -1
370.00164794921875 474.004180908203125 100 0 0 1
375.99835205078125 479.995819091796875 100 0 0 1
299.00421142578125 480.10357666015625 100 0 0 1
298.99578857421875 474.10357666015625 100 0 0 1
287.100006103515625 290.994110107421875 0 0 0 -1
293.100006103515625 291.005889892578125 0 0 0 -1
292.994171142578125 344.981719970703125 0 0 0 -1
287.005828857421875 339.018280029296875 0 0 0 -1
287.100006103515625 290.994110107421875 100 0 0 1
293.100006103515625 291.005889892578125 100 0 0 1
292.994171142578125 344.981719970703125 100 0 0 1
287.005828857421875 339.018280029296875 100 0 0 1
287.005828857421875 339.018280029296875 0 0 0 -1
292.994171142578125 344.981719970703125 0 0 0 -1
155.01837158203125 345.826904296875 0 0 0 -1
154.98162841796875 339.8270263671875 0 0 0 -1
287.005828857421875 339.018280029296875 100 0 0 1
292.994171142578125 344.981719970703125 100 0 0 1
155.01837158203125 345.826904296875 100 0 0 1
154.98162841796875 339.8270263671875 100 0 0 1
401.70819091796875 208 0 0 0 -1
294.941619873046875 161.324905395507812 0 0 0 -1
400.372467041015625 214 0 0 0 -1
401.70819091796875 208 100 0 0 1
294.941619873046875 161.324905395507812 100 0 0 1
400.372467041015625 214 100 0 0 1
340 38 0 0 0 -1
334 38.0407257080078125 0 0 0 -1
336.979766845703125 32 0 0 0 -1
340 38 100 0 0 1
334 38.0407257080078125 100 0 0 1
336.979766845703125 32 100 0 0 1
4 0 1 2 3
4 4 5 6 7
4 8 9 10 11
4 12 13 14 15
4 16 17 18 19
4 20 21 22 23
4 24 25 26 27
4 28 29 30 31
4 32 33 34 35
4 36 37 38 39
4 40 41 42 43
4 44 45 46 47
4 48 49 50 51
4 52 53 54 55
4 56 57 58 59
4 60 61 62 63
4 64 65 66 67
4 68 69 70 71
4 72 73 74 75
4 76 77 78 79
4 80 81 82 83
4 84 85 86 87
4 88 89 90 91
4 92 93 94 95
4 96 97 98 99
4 100 101 102 103
4 104 105 106 107
4 108 109 110 111
4 112 113 114 115
4 116 117 118 119
4 120 121 122 123
4 124 125 126 127
4 128 129 130 131
4 132 133 134 135
4 136 137 138 139
4 140 141 142 143
4 144 145 146 147
4 148 149 150 151
4 152 153 154 155
4 156 157 158 159
4 160 161 162 163
4 164 165 166 167
4 168 169 170 171
4 172 173 174 175
4 176 177 178 179
4 180 181 182 183
4 184 185 186 187
4 188 189 190 191
4 192 193 194 195
4 196 197 198 199
4 200 201 202 203
4 204 205 206 207
4 208 209 210 211
4 212 213 214 215
4 216 217 218 219
4 220 221 222 223
4 224 225 226 227
4 228 229 230 231
4 232 233 234 235
4 236 237 238 239
4 240 241 242 243
4 244 245 246 247
4 248 249 250 251
4 252 253 254 255
4 256 257 258 259
4 260 261 262 263
4 264 265 266 267
4 268 269 270 271
4 272 273 274 275
4 276 277 278 279
4 280 281 282 283
4 284 285 286 287
4 288 289 290 291
4 292 293 294 295
4 296 297 298 299
4 300 301 302 303
4 304 305 306 307
4 308 309 310 311
4 312 313 314 315
4 316 317 318 319
4 320 321 322 323
4 324 325 326 327
4 328 329 330 331
4 332 333 334 335
4 336 337 338 339
4 340 341 342 343
4 344 345 346 347
4 348 349 350 351
4 352 353 354 355
4 356 357 358 359
4 360 361 362 363
4 364 365 366 367
4 368 369 370 371
4 372 373 374 375
4 376 377 378 379
4 380 381 382 383
4 384 385 386 387
4 388 389 390 391
4 392 393 394 395
4 396 397 398 399
4 400 401 402 403
4 404 405 406 407
4 408 409 410 411
4 412 413 414 415
4 416 417 418 419
4 420 421 422 423
4 424 425 426 427
4 428 429 430 431
4 432 433 434 435
4 436 437 438 439
4 440 441 442 443
4 444 445 446 447
4 448 449 450 451
4 452 453 454 455
4 456 457 458 459
4 460 461 462 463
4 464 465 466 467
4 468 469 470 471
4 472 473 474 475
4 476 477 478 479
4 480 481 482 483
4 484 485 486 487
4 488 489 490 491
4 492 493 494 495
4 496 497 498 499
4 500 501 502 503
4 504 505 506 507
4 508 509 510 511
4 512 513 514 515
4 516 517 518 519
4 520 521 522 523
4 524 525 526 527
4 528 529 530 531
4 532 533 534 535
4 536 537 538 539
4 540 541 542 543
4 544 545 546 547
4 548 549 550 551
4 552 553 554 555
4 556 557 558 559
4 560 561 562 563
4 564 565 566 567
4 568 569 570 571
4 572 573 574 575
4 576 577 578 579
4 580 581 582 583
4 584 585 586 587
4 588 589 590 591
4 592 593 594 595
4 596 597 598 599
4 600 601 602 603
4 604 605 606 607
4 608 609 610 611
4 612 613 614 615
4 616 617 618 619
4 620 621 622 623
4 624 625 626 627
4 628 629 630 631
4 632 633 634 635
4 636 637 638 639
4 640 641 642 643
4 644 645 646 647
4 648 649 650 651
4 652 653 654 655
4 656 657 658 659
4 660 661 662 663
4 664 665 666 667
4 668 669 670 671
4 672 673 674 675
4 676 677 678 679
4 680 681 682 683
4 684 685 686 687
4 688 689 690 691
4 692 693 694 695
4 696 697 698 699
4 700 701 702 703
4 704 705 706 707
4 708 709 710 711
4 712 713 714 715
4 716 717 718 719
4 720 721 722 723
4 724 725 726 727
4 728 729 730 731
4 732 733 734 735
4 736 737 738 739
4 740 741 742 743
4 744 745 746 747
4 748 749 750 751
4 752 753 754 755
4 756 757 758 759
4 760 761 762 763
4 764 765 766 767
4 768 769 770 771
4 772 773 774 775
4 776 777 778 779
4 780 781 782 783
4 784 785 786 787
4 788 789 790 791
4 792 793 794 795
4 796 797 798 799
4 800 801 802 803
4 804 805 806 807
3 808 809 810
3 811 812 813
3 814 815 816
3 817 818 819
