ply
format ascii 1.0
element vertex 604
property float x
property float y
property float z
property float nx
property float ny
property float nz
element quads 151
property list uchar int vertex_indices
end_header
209 462 0 1 0 0
209 69 0 1 0 0
209 69 150 1 0 0
209 462 150 1 0 0
199 472 0 -1 -0 0
199 59 0 -1 -0 0
199 59 150 -1 -0 0
199 472 150 -1 -0 0
199 472 0 -0 1 0
253 472 0 -0 1 0
253 472 150 -0 1 0
199 472 150 -0 1 0
209 462 0 0 -1 0
253 462 0 0 -1 0
253 462 150 0 -1 0
209 462 150 0 -1 0
209 69 0 -0 1 0
219 69 0 -0 1 0
219 69 150 -0 1 0
209 69 150 -0 1 0
199 59 0 0 -1 0
219 59 0 0 -1 0
219 59 150 0 -1 0
199 59 150 0 -1 0
700.5 202 0 1 0 0
700.5 61 0 1 0 0
700.5 61 150 1 0 0
700.5 202 150 1 0 0
690.5 202 0 -1 -0 0
690.5 61 0 -1 -0 0
690.5 61 150 -1 -0 0
690.5 202 150 -1 -0 0
524 334 0 1 0 0
524 4 0 1 0 0
524 4 150 1 0 0
524 334 150 1 0 0
514 334 0 -1 -0 0
514 4 0 -1 -0 0
514 4 150 -1 -0 0
514 334 150 -1 -0 0
640 58.5732231140136719 0 -0 -1 0
523 58.5732231140136719 0 -0 -1 0
523 58.5732231140136719 150 -0 -1 0
640 58.5732231140136719 150 -0 -1 0
640 68.5732192993164062 0 0 1 0
523 68.5732192993164062 0 0 1 0
523 68.5732192993164062 150 0 1 0
640 68.5732192993164062 150 0 1 0
439 221 0 1 0 0
439 183 0 1 0 0
439 183 150 1 0 0
439 221 150 1 0 0
429 221 0 -1 -0 0
429 173 0 -1 -0 0
429 173 150 -1 -0 0
429 221 150 -1 -0 0
439 183 0 -0 1 0
516 183 0 -0 1 0
516 183 150 -0 1 0
439 183 150 -0 1 0
429 173 0 0 -1 0
516 173 0 0 -1 0
516 173 150 0 -1 0
429 173 150 0 -1 0
550 402.619873046875 0 -0 -1 0
503 402.619873046875 0 -0 -1 0
503 402.619873046875 150 -0 -1 0
550 402.619873046875 150 -0 -1 0
550 412.619873046875 0 0 1 0
503 412.619873046875 0 0 1 0
503 412.619873046875 150 0 1 0
550 412.619873046875 150 0 1 0
516 290 0 -0 -1 0
429 290 0 -0 -1 0
429 290 150 -0 -1 0
516 290 150 -0 -1 0
516 300 0 0 1 0
429 300 0 0 1 0
429 300 150 0 1 0
516 300 150 0 1 0
439 295 0 1 0 0
439 260 0 1 0 0
439 260 150 1 0 0
439 295 150 1 0 0
429 300 0 -1 -0 0
429 260 0 -1 -0 0
429 260 150 -1 -0 0
429 300 150 -1 -0 0
429 290 0 -1 0 0
429 329 0 -1 0 0
429 329 150 -1 0 0
429 290 150 -1 0 0
439 295 0 1 -0 0
439 329 0 1 -0 0
439 329 150 1 -0 0
439 295 150 1 -0 0
468 402.5 0 -0 -1 0
451 402.5 0 -0 -1 0
451 402.5 150 -0 -1 0
468 402.5 150 -0 -1 0
468 412.5 0 0 1 0
451 412.5 0 0 1 0
451 412.5 150 0 1 0
468 412.5 150 0 1 0
308 59 0 -0 -1 0
286 59 0 -0 -1 0
286 59 150 -0 -1 0
308 59 150 -0 -1 0
308 69 0 0 1 0
286 69 0 0 1 0
286 69 150 0 1 0
308 69 150 0 1 0
400 402.5 0 -0 -1 0
380 402.5 0 -0 -1 0
380 402.5 150 -0 -1 0
400 402.5 150 -0 -1 0
400 412.5 0 0 1 0
380 412.5 0 0 1 0
380 412.5 150 0 1 0
400 412.5 150 0 1 0
415 -1 0 -0 -1 0
373 -1 0 -0 -1 0
373 -1 150 -0 -1 0
415 -1 150 -0 -1 0
415 9 0 0 1 0
383 9 0 0 1 0
383 9 150 0 1 0
415 9 150 0 1 0
373 -1 0 -1 0 0
373 58.2490386962890625 0 -1 0 0
373 58.2490386962890625 150 -1 0 0
373 -1 150 -1 0 0
383 9 0 1 -0 0
383 67.7509613037109375 0 1 -0 0
383 67.7509613037109375 150 1 -0 0
383 9 150 1 -0 0
519 -1.5 0 -0 -1 0
483 -1.5 0 -0 -1 0
483 -1.5 150 -0 -1 0
519 -1.5 150 -0 -1 0
519 8.5 0 0 1 0
483 8.5 0 0 1 0
483 8.5 150 0 1 0
519 8.5 150 0 1 0
158 286 0 1 0 0
158 270 0 1 0 0
158 270 150 1 0 0
158 286 150 1 0 0
148 286 0 -1 -0 0
148 270 0 -1 -0 0
148 270 150 -1 -0 0
148 286 150 -1 -0 0
498 529 0 -0 -1 0
482 529 0 -0 -1 0
482 529 150 -0 -1 0
498 529 150 -0 -1 0
498 539 0 0 1 0
482 539 0 0 1 0
482 539 150 0 1 0
498 539 150 0 1 0
413 528.90911865234375 0 -0 -1 0
397 528.90911865234375 0 -0 -1 0
397 528.90911865234375 150 -0 -1 0
413 528.90911865234375 150 -0 -1 0
413 538.90911865234375 0 0 1 0
397 538.90911865234375 0 0 1 0
397 538.90911865234375 150 0 1 0
413 538.90911865234375 150 0 1 0
524.5 404 0 1 0 0
524.5 385 0 1 0 0
524.5 385 150 1 0 0
524.5 404 150 1 0 0
514.5 404 0 -1 -0 0
514.5 385 0 -1 -0 0
514.5 385 150 -1 -0 0
514.5 404 150 -1 -0 0
158.03125 201 0 1 0 0
158.03125 186 0 1 0 0
158.03125 186 150 1 0 0
158.03125 201 150 1 0 0
148.03125 201 0 -1 -0 0
148.03125 186 0 -1 -0 0
148.03125 186 150 -1 -0 0
148.03125 201 150 -1 -0 0
690.50006103515625 269.98175048828125 0 -0.999993324279785156 -0.00364961079321801662 0
690.017822265625 402.10711669921875 0 -0.999993324279785156 -0.00364961079321801662 0
690.017822265625 402.10711669921875 150 -0.999993324279785156 -0.00364961079321801662 0
690.50006103515625 269.98175048828125 150 -0.999993324279785156 -0.00364961079321801662 0
700.49993896484375 270.01824951171875 0 0.999993324279785156 0.00364961079321801662 0
699.982177734375 411.89288330078125 0 0.999993324279785156 0.00364961079321801662 0
699.982177734375 411.89288330078125 150 0.999993324279785156 0.00364961079321801662 0
700.49993896484375 270.01824951171875 150 0.999993324279785156 0.00364961079321801662 0
690.017822265625 402.10711669921875 0 -0.0217339955270290375 -0.999763786792755127 0
671.891357421875 402.501190185546875 0 -0.0217339955270290375 -0.999763786792755127 0
671.891357421875 402.501190185546875 150 -0.0217339955270290375 -0.999763786792755127 0
690.017822265625 402.10711669921875 150 -0.0217339955270290375 -0.999763786792755127 0
699.982177734375 411.89288330078125 0 0.0217339955270290375 0.999763786792755127 0
672.108642578125 412.498809814453125 0 0.0217339955270290375 0.999763786792755127 0
672.108642578125 412.498809814453125 150 0.0217339955270290375 0.999763786792755127 0
699.982177734375 411.89288330078125 150 0.0217339955270290375 0.999763786792755127 0
371.9073486328125 328.967132568359375 0 -0.999978363513946533 -0.0065740291029214859 0
371.032440185546875 462.0501708984375 0 -0.999978363513946533 -0.0065740291029214859 0
371.032440185546875 462.0501708984375 150 -0.999978363513946533 -0.0065740291029214859 0
371.9073486328125 328.967132568359375 150 -0.999978363513946533 -0.0065740291029214859 0
381.907135009765625 329.032867431640625 0 0.999978363513946533 0.0065740291029214859 0
380.967559814453125 471.9498291015625 0 0.999978363513946533 0.0065740291029214859 0
380.967559814453125 471.9498291015625 150 0.999978363513946533 0.0065740291029214859 0
381.907135009765625 329.032867431640625 150 0.999978363513946533 0.0065740291029214859 0
371.032440185546875 462.0501708984375 0 -0.010149260051548481 -0.999948501586914062 0
332.949249267578125 462.43670654296875 0 -0.010149260051548481 -0.999948501586914062 0
332.949249267578125 462.43670654296875 150 -0.010149260051548481 -0.999948501586914062 0
371.032440185546875 462.0501708984375 150 -0.010149260051548481 -0.999948501586914062 0
380.967559814453125 471.9498291015625 0 0.010149260051548481 0.999948501586914062 0
333.050750732421875 472.436187744140625 0 0.010149260051548481 0.999948501586914062 0
333.050750732421875 472.436187744140625 150 0.010149260051548481 0.999948501586914062 0
380.967559814453125 471.9498291015625 150 0.010149260051548481 0.999948501586914062 0
373 58.2490386962890625 0 -0.0510467216372489929 -0.998696267604827881 0
358.744781494140625 58.9776725769042969 0 -0.0510467216372489929 -0.998696267604827881 0
358.744781494140625 58.9776725769042969 150 -0.0510467216372489929 -0.998696267604827881 0
373 58.2490386962890625 150 -0.0510467216372489929 -0.998696267604827881 0
383 67.7509613037109375 0 0.0510467216372489929 0.998696267604827881 0
359.255218505859375 68.9646377563476562 0 0.0510467216372489929 0.998696267604827881 0
359.255218505859375 68.9646377563476562 150 0.0510467216372489929 0.998696267604827881 0
383 67.7509613037109375 150 0.0510467216372489929 0.998696267604827881 0
700.5 202 0 695.53192138671875 201.5673828125 0
690.5 202 0 695.53192138671875 201.5673828125 0
690.5 202 150 695.53192138671875 201.5673828125 0
700.5 202 150 695.53192138671875 201.5673828125 0
700.5 61 0 695.53192138671875 59.5673751831054688 0
690.5 61 0 695.53192138671875 59.5673751831054688 0
690.5 61 150 695.53192138671875 59.5673751831054688 0
700.5 61 150 695.53192138671875 59.5673751831054688 0
524 334 0 522.412109375 333.987884521484375 0
514 334 0 522.412109375 333.987884521484375 0
514 334 150 522.412109375 333.987884521484375 0
524 334 150 522.412109375 333.987884521484375 0
524 4 0 522.412109375 2.98787879943847656 0
514 4 0 522.412109375 2.98787879943847656 0
514 4 150 522.412109375 2.98787879943847656 0
524 4 150 522.412109375 2.98787879943847656 0
640 58.5732231140136719 0 635.5299072265625 58.0725975036621094 0
640 68.5732192993164062 0 635.5299072265625 58.0725975036621094 0
640 68.5732192993164062 150 635.5299072265625 58.0725975036621094 0
640 58.5732231140136719 150 635.5299072265625 58.0725975036621094 0
523 58.5732231140136719 0 517.5299072265625 58.0725975036621094 0
523 68.5732192993164062 0 517.5299072265625 58.0725975036621094 0
523 68.5732192993164062 150 517.5299072265625 58.0725975036621094 0
523 58.5732231140136719 150 517.5299072265625 58.0725975036621094 0
439 221 0 427.447357177734375 216.1842041015625 0
429 221 0 427.447357177734375 216.1842041015625 0
429 221 150 427.447357177734375 216.1842041015625 0
439 221 150 427.447357177734375 216.1842041015625 0
253 472 0 249.3148193359375 463.259246826171875 0
253 462 0 249.3148193359375 463.259246826171875 0
253 462 150 249.3148193359375 463.259246826171875 0
253 472 150 249.3148193359375 463.259246826171875 0
550 402.619873046875 0 539.2978515625 394.053497314453125 0
550 412.619873046875 0 539.2978515625 394.053497314453125 0
550 412.619873046875 150 539.2978515625 394.053497314453125 0
550 402.619873046875 150 539.2978515625 394.053497314453125 0
503 402.619873046875 0 491.297882080078125 394.053497314453125 0
503 412.619873046875 0 491.297882080078125 394.053497314453125 0
503 412.619873046875 150 491.297882080078125 394.053497314453125 0
503 402.619873046875 150 491.297882080078125 394.053497314453125 0
516 290 0 511.0689697265625 286.666656494140625 0
516 300 0 511.0689697265625 286.666656494140625 0
516 300 150 511.0689697265625 286.666656494140625 0
516 290 150 511.0689697265625 286.666656494140625 0
468 402.5 0 441.4705810546875 378.823516845703125 0
468 412.5 0 441.4705810546875 378.823516845703125 0
468 412.5 150 441.4705810546875 378.823516845703125 0
468 402.5 150 441.4705810546875 378.823516845703125 0
451 402.5 0 423.4705810546875 378.823516845703125 0
451 412.5 0 423.4705810546875 378.823516845703125 0
451 412.5 150 423.4705810546875 378.823516845703125 0
451 402.5 150 423.4705810546875 378.823516845703125 0
308 59 0 295 56.3181800842285156 0
308 69 0 295 56.3181800842285156 0
308 69 150 295 56.3181800842285156 0
308 59 150 295 56.3181800842285156 0
286 59 0 272 56.3181800842285156 0
286 69 0 272 56.3181800842285156 0
286 69 150 272 56.3181800842285156 0
286 59 150 272 56.3181800842285156 0
516 183 0 510.2987060546875 180.623382568359375 0
516 173 0 510.2987060546875 180.623382568359375 0
516 173 150 510.2987060546875 180.623382568359375 0
516 183 150 510.2987060546875 180.623382568359375 0
439 260 0 426.4571533203125 251.571426391601562 0
429 260 0 426.4571533203125 251.571426391601562 0
429 260 150 426.4571533203125 251.571426391601562 0
439 260 150 426.4571533203125 251.571426391601562 0
400 402.5 0 381 382.375 0
400 412.5 0 381 382.375 0
400 412.5 150 381 382.375 0
400 402.5 150 381 382.375 0
380 402.5 0 360 382.375 0
380 412.5 0 360 382.375 0
380 412.5 150 360 382.375 0
380 402.5 150 360 382.375 0
415 -1 0 406.119049072265625 -0.976190447807312012 0
415 9 0 406.119049072265625 -0.976190447807312012 0
415 9 150 406.119049072265625 -0.976190447807312012 0
415 -1 150 406.119049072265625 -0.976190447807312012 0
519 -1.5 0 505.583343505859375 -1.45833337306976318 0
519 8.5 0 505.583343505859375 -1.45833337306976318 0
519 8.5 150 505.583343505859375 -1.45833337306976318 0
519 -1.5 150 505.583343505859375 -1.45833337306976318 0
483 -1.5 0 468.583343505859375 -1.45833337306976318 0
483 8.5 0 468.583343505859375 -1.45833337306976318 0
483 8.5 150 468.583343505859375 -1.45833337306976318 0
483 -1.5 150 468.583343505859375 -1.45833337306976318 0
429 329 0 418 321.564117431640625 0
439 329 0 418 321.564117431640625 0
439 329 150 418 321.564117431640625 0
429 329 150 418 321.564117431640625 0
158 286 0 148.125 269.125 0
148 286 0 148.125 269.125 0
148 286 150 148.125 269.125 0
158 286 150 148.125 269.125 0
158 270 0 148.125 252.125 0
148 270 0 148.125 252.125 0
148 270 150 148.125 252.125 0
158 270 150 148.125 252.125 0
498 529 0 467.875 495.9375 0
498 539 0 467.875 495.9375 0
498 539 150 467.875 495.9375 0
498 529 150 467.875 495.9375 0
482 529 0 450.875 495.9375 0
482 539 0 450.875 495.9375 0
482 539 150 450.875 495.9375 0
482 529 150 450.875 495.9375 0
413 528.90911865234375 0 388.1875 495.852264404296875 0
413 538.90911865234375 0 388.1875 495.852264404296875 0
413 538.90911865234375 150 388.1875 495.852264404296875 0
413 528.90911865234375 150 388.1875 495.852264404296875 0
397 528.90911865234375 0 371.1875 495.852264404296875 0
397 538.90911865234375 0 371.1875 495.852264404296875 0
397 538.90911865234375 150 371.1875 495.852264404296875 0
397 528.90911865234375 150 371.1875 495.852264404296875 0
524.5 404 0 496.894744873046875 383.736846923828125 0
514.5 404 0 496.894744873046875 383.736846923828125 0
514.5 404 150 496.894744873046875 383.736846923828125 0
524.5 404 150 496.894744873046875 383.736846923828125 0
524.5 385 0 496.894744873046875 363.736846923828125 0
514.5 385 0 496.894744873046875 363.736846923828125 0
514.5 385 150 496.894744873046875 363.736846923828125 0
524.5 385 150 496.894744873046875 363.736846923828125 0
219 69 0 198.100006103515625 62.0999984741210938 0
219 59 0 198.100006103515625 62.0999984741210938 0
219 59 150 198.100006103515625 62.0999984741210938 0
219 69 150 198.100006103515625 62.0999984741210938 0
158.03125 201 0 147.495834350585938 188.600006103515625 0
148.03125 201 0 147.495834350585938 188.600006103515625 0
148.03125 201 150 147.495834350585938 188.600006103515625 0
158.03125 201 150 147.495834350585938 188.600006103515625 0
158.03125 186 0 147.495834350585938 172.600006103515625 0
148.03125 186 0 147.495834350585938 172.600006103515625 0
148.03125 186 150 147.495834350585938 172.600006103515625 0
158.03125 186 150 147.495834350585938 172.600006103515625 0
690.50006103515625 269.98175048828125 0 685.27764892578125 266.938385009765625 0
700.49993896484375 270.01824951171875 0 685.27764892578125 266.938385009765625 0
700.49993896484375 270.01824951171875 150 685.27764892578125 266.938385009765625 0
690.50006103515625 269.98175048828125 150 685.27764892578125 266.938385009765625 0
671.891357421875 402.501190185546875 0 633.83349609375 380.323028564453125 0
672.108642578125 412.498809814453125 0 633.83349609375 380.323028564453125 0
672.108642578125 412.498809814453125 150 633.83349609375 380.323028564453125 0
671.891357421875 402.501190185546875 150 633.83349609375 380.323028564453125 0
371.9073486328125 328.967132568359375 0 369.119415283203125 325.49530029296875 0
381.907135009765625 329.032867431640625 0 369.119415283203125 325.49530029296875 0
381.907135009765625 329.032867431640625 150 369.119415283203125 325.49530029296875 0
371.9073486328125 328.967132568359375 150 369.119415283203125 325.49530029296875 0
332.949249267578125 462.43670654296875 0 323.207061767578125 450.304656982421875 0
333.050750732421875 472.436187744140625 0 323.207061767578125 450.304656982421875 0
333.050750732421875 472.436187744140625 150 323.207061767578125 450.304656982421875 0
332.949249267578125 462.43670654296875 150 323.207061767578125 450.304656982421875 0
358.744781494140625 58.9776725769042969 0 332.613037109375 54.8968467712402344 0
359.255218505859375 68.9646377563476562 0 332.613037109375 54.8968467712402344 0
359.255218505859375 68.9646377563476562 150 332.613037109375 54.8968467712402344 0
358.744781494140625 58.9776725769042969 150 332.613037109375 54.8968467712402344 0
209 462 0 0 0 -1
199 472 0 0 0 -1
199 59 0 0 0 -1
209 69 0 0 0 -1
209 462 150 0 0 1
199 472 150 0 0 1
199 59 150 0 0 1
209 69 150 0 0 1
199 472 0 0 0 -1
209 462 0 0 0 -1
253 462 0 0 0 -1
253 472 0 0 0 -1
199 472 150 0 0 1
209 462 150 0 0 1
253 462 150 0 0 1
253 472 150 0 0 1
209 69 0 0 0 -1
199 59 0 0 0 -1
219 59 0 0 0 -1
219 69 0 0 0 -1
209 69 150 0 0 1
199 59 150 0 0 1
219 59 150 0 0 1
219 69 150 0 0 1
700.5 202 0 0 0 -1
690.5 202 0 0 0 -1
690.5 61 0 0 0 -1
700.5 61 0 0 0 -1
700.5 202 150 0 0 1
690.5 202 150 0 0 1
690.5 61 150 0 0 1
700.5 61 150 0 0 1
524 334 0 0 0 -1
514 334 0 0 0 -1
514 4 0 0 0 -1
524 4 0 0 0 -1
524 334 150 0 0 1
514 334 150 0 0 1
514 4 150 0 0 1
524 4 150 0 0 1
640 58.5732231140136719 0 0 0 -1
640 68.5732192993164062 0 0 0 -1
523 68.5732192993164062 0 0 0 -1
523 58.5732231140136719 0 0 0 -1
640 58.5732231140136719 150 0 0 1
640 68.5732192993164062 150 0 0 1
523 68.5732192993164062 150 0 0 1
523 58.5732231140136719 150 0 0 1
439 221 0 0 0 -1
429 221 0 0 0 -1
429 173 0 0 0 -1
439 183 0 0 0 -1
439 221 150 0 0 1
429 221 150 0 0 1
429 173 150 0 0 1
439 183 150 0 0 1
439 183 0 0 0 -1
429 173 0 0 0 -1
516 173 0 0 0 -1
516 183 0 0 0 -1
439 183 150 0 0 1
429 173 150 0 0 1
516 173 150 0 0 1
516 183 150 0 0 1
550 402.619873046875 0 0 0 -1
550 412.619873046875 0 0 0 -1
503 412.619873046875 0 0 0 -1
503 402.619873046875 0 0 0 -1
550 402.619873046875 150 0 0 1
550 412.619873046875 150 0 0 1
503 412.619873046875 150 0 0 1
503 402.619873046875 150 0 0 1
516 290 0 0 0 -1
516 300 0 0 0 -1
429 300 0 0 0 -1
429 290 0 0 0 -1
516 290 150 0 0 1
516 300 150 0 0 1
429 300 150 0 0 1
429 290 150 0 0 1
439 295 0 0 0 -1
429 300 0 0 0 -1
429 260 0 0 0 -1
439 260 0 0 0 -1
439 295 150 0 0 1
429 300 150 0 0 1
429 260 150 0 0 1
439 260 150 0 0 1
429 290 0 0 0 -1
439 295 0 0 0 -1
439 329 0 0 0 -1
429 329 0 0 0 -1
429 290 150 0 0 1
439 295 150 0 0 1
439 329 150 0 0 1
429 329 150 0 0 1
468 402.5 0 0 0 -1
468 412.5 0 0 0 -1
451 412.5 0 0 0 -1
451 402.5 0 0 0 -1
468 402.5 150 0 0 1
468 412.5 150 0 0 1
451 412.5 150 0 0 1
451 402.5 150 0 0 1
308 59 0 0 0 -1
308 69 0 0 0 -1
286 69 0 0 0 -1
286 59 0 0 0 -1
308 59 150 0 0 1
308 69 150 0 0 1
286 69 150 0 0 1
286 59 150 0 0 1
400 402.5 0 0 0 -1
400 412.5 0 0 0 -1
380 412.5 0 0 0 -1
380 402.5 0 0 0 -1
400 402.5 150 0 0 1
400 412.5 150 0 0 1
380 412.5 150 0 0 1
380 402.5 150 0 0 1
415 -1 0 0 0 -1
415 9 0 0 0 -1
383 9 0 0 0 -1
373 -1 0 0 0 -1
415 -1 150 0 0 1
415 9 150 0 0 1
383 9 150 0 0 1
373 -1 150 0 0 1
373 -1 0 0 0 -1
383 9 0 0 0 -1
383 67.7509613037109375 0 0 0 -1
373 58.2490386962890625 0 0 0 -1
373 -1 150 0 0 1
383 9 150 0 0 1
383 67.7509613037109375 150 0 0 1
373 58.2490386962890625 150 0 0 1
519 -1.5 0 0 0 -1
519 8.5 0 0 0 -1
483 8.5 0 0 0 -1
483 -1.5 0 0 0 -1
519 -1.5 150 0 0 1
519 8.5 150 0 0 1
483 8.5 150 0 0 1
483 -1.5 150 0 0 1
158 286 0 0 0 -1
148 286 0 0 0 -1
148 270 0 0 0 -1
158 270 0 0 0 -1
158 286 150 0 0 1
148 286 150 0 0 1
148 270 150 0 0 1
158 270 150 0 0 1
498 529 0 0 0 -1
498 539 0 0 0 -1
482 539 0 0 0 -1
482 529 0 0 0 -1
498 529 150 0 0 1
498 539 150 0 0 1
482 539 150 0 0 1
482 529 150 0 0 1
413 528.90911865234375 0 0 0 -1
413 538.90911865234375 0 0 0 -1
397 538.90911865234375 0 0 0 -1
397 528.90911865234375 0 0 0 -1
413 528.90911865234375 150 0 0 1
413 538.90911865234375 150 0 0 1
397 538.90911865234375 150 0 0 1
397 528.90911865234375 150 0 0 1
524.5 404 0 0 0 -1
514.5 404 0 0 0 -1
514.5 385 0 0 0 -1
524.5 385 0 0 0 -1
524.5 404 150 0 0 1
514.5 404 150 0 0 1
514.5 385 150 0 0 1
524.5 385 150 0 0 1
158.03125 201 0 0 0 -1
148.03125 201 0 0 0 -1
148.03125 186 0 0 0 -1
158.03125 186 0 0 0 -1
158.03125 201 150 0 0 1
148.03125 201 150 0 0 1
148.03125 186 150 0 0 1
158.03125 186 150 0 0 1
690.50006103515625 269.98175048828125 0 0 0 -1
700.49993896484375 270.01824951171875 0 0 0 -1
699.982177734375 411.89288330078125 0 0 0 -1
690.017822265625 402.10711669921875 0 0 0 -1
690.50006103515625 269.98175048828125 150 0 0 1
700.49993896484375 270.01824951171875 150 0 0 1
699.982177734375 411.89288330078125 150 0 0 1
690.017822265625 402.10711669921875 150 0 0 1
690.017822265625 402.10711669921875 0 0 0 -1
699.982177734375 411.89288330078125 0 0 0 -1
672.108642578125 412.498809814453125 0 0 0 -1
671.891357421875 402.501190185546875 0 0 0 -1
690.017822265625 402.10711669921875 150 0 0 1
699.982177734375 411.89288330078125 150 0 0 1
672.108642578125 412.498809814453125 150 0 0 1
671.891357421875 402.501190185546875 150 0 0 1
371.9073486328125 328.967132568359375 0 0 0 -1
381.907135009765625 329.032867431640625 0 0 0 -1
380.967559814453125 471.9498291015625 0 0 0 -1
371.032440185546875 462.0501708984375 0 0 0 -1
371.9073486328125 328.967132568359375 150 0 0 1
381.907135009765625 329.032867431640625 150 0 0 1
380.967559814453125 471.9498291015625 150 0 0 1
371.032440185546875 462.0501708984375 150 0 0 1
371.032440185546875 462.0501708984375 0 0 0 -1
380.967559814453125 471.9498291015625 0 0 0 -1
333.050750732421875 472.436187744140625 0 0 0 -1
332.949249267578125 462.43670654296875 0 0 0 -1
371.032440185546875 462.0501708984375 150 0 0 1
380.967559814453125 471.9498291015625 150 0 0 1
333.050750732421875 472.436187744140625 150 0 0 1
332.949249267578125 462.43670654296875 150 0 0 1
373 58.2490386962890625 0 0 0 -1
383 67.7509613037109375 0 0 0 -1
359.255218505859375 68.9646377563476562 0 0 0 -1
358.744781494140625 58.9776725769042969 0 0 0 -1
373 58.2490386962890625 150 0 0 1
383 67.7509613037109375 150 0 0 1
359.255218505859375 68.9646377563476562 150 0 0 1
358.744781494140625 58.9776725769042969 150 0 0 1
4 0 1 2 3
4 4 5 6 7
4 8 9 10 11
4 12 13 14 15
4 16 17 18 19
4 20 21 22 23
4 24 25 26 27
4 28 29 30 31
4 32 33 34 35
4 36 37 38 39
4 40 41 42 43
4 44 45 46 47
4 48 49 50 51
4 52 53 54 55
4 56 57 58 59
4 60 61 62 63
4 64 65 66 67
4 68 69 70 71
4 72 73 74 75
4 76 77 78 79
4 80 81 82 83
4 84 85 86 87
4 88 89 90 91
4 92 93 94 95
4 96 97 98 99
4 100 101 102 103
4 104 105 106 107
4 108 109 110 111
4 112 113 114 115
4 116 117 118 119
4 120 121 122 123
4 124 125 126 127
4 128 129 130 131
4 132 133 134 135
4 136 137 138 139
4 140 141 142 143
4 144 145 146 147
4 148 149 150 151
4 152 153 154 155
4 156 157 158 159
4 160 161 162 163
4 164 165 166 167
4 168 169 170 171
4 172 173 174 175
4 176 177 178 179
4 180 181 182 183
4 184 185 186 187
4 188 189 190 191
4 192 193 194 195
4 196 197 198 199
4 200 201 202 203
4 204 205 206 207
4 208 209 210 211
4 212 213 214 215
4 216 217 218 219
4 220 221 222 223
4 224 225 226 227
4 228 229 230 231
4 232 233 234 235
4 236 237 238 239
4 240 241 242 243
4 244 245 246 247
4 248 249 250 251
4 252 253 254 255
4 256 257 258 259
4 260 261 262 263
4 264 265 266 267
4 268 269 270 271
4 272 273 274 275
4 276 277 278 279
4 280 281 282 283
4 284 285 286 287
4 288 289 290 291
4 292 293 294 295
4 296 297 298 299
4 300 301 302 303
4 304 305 306 307
4 308 309 310 311
4 312 313 314 315
4 316 317 318 319
4 320 321 322 323
4 324 325 326 327
4 328 329 330 331
4 332 333 334 335
4 336 337 338 339
4 340 341 342 343
4 344 345 346 347
4 348 349 350 351
4 352 353 354 355
4 356 357 358 359
4 360 361 362 363
4 364 365 366 367
4 368 369 370 371
4 372 373 374 375
4 376 377 378 379
4 380 381 382 383
4 384 385 386 387
4 388 389 390 391
4 392 393 394 395
4 396 397 398 399
4 400 401 402 403
4 404 405 406 407
4 408 409 410 411
4 412 413 414 415
4 416 417 418 419
4 420 421 422 423
4 424 425 426 427
4 428 429 430 431
4 432 433 434 435
4 436 437 438 439
4 440 441 442 443
4 444 445 446 447
4 448 449 450 451
4 452 453 454 455
4 456 457 458 459
4 460 461 462 463
4 464 465 466 467
4 468 469 470 471
4 472 473 474 475
4 476 477 478 479
4 480 481 482 483
4 484 485 486 487
4 488 489 490 491
4 492 493 494 495
4 496 497 498 499
4 500 501 502 503
4 504 505 506 507
4 508 509 510 511
4 512 513 514 515
4 516 517 518 519
4 520 521 522 523
4 524 525 526 527
4 528 529 530 531
4 532 533 534 535
4 536 537 538 539
4 540 541 542 543
4 544 545 546 547
4 548 549 550 551
4 552 553 554 555
4 556 557 558 559
4 560 561 562 563
4 564 565 566 567
4 568 569 570 571
4 572 573 574 575
4 576 577 578 579
4 580 581 582 583
4 584 585 586 587
4 588 589 590 591
4 592 593 594 595
4 596 597 598 599
4 600 601 602 603
