ply
format ascii 1.0
element vertex 872
property float x
property float y
property float z
property float nx
property float ny
property float nz
element quads 215
property list uchar int vertex_indices
element triads 4
property list uchar int vertex_indices
end_header
664 230 0 1 0 0
664 4 0 1 0 0
664 4 100 1 0 0
664 230 100 1 0 0
658 230 0 -1 -0 0
658 4 0 -1 -0 0
658 4 100 -1 -0 0
658 230 100 -1 -0 0
357 189 0 -0 -1 0
299 189 0 -0 -1 0
299 189 100 -0 -1 0
357 189 100 -0 -1 0
357 195 0 0 1 0
305 195 0 0 1 0
305 195 100 0 1 0
357 195 100 0 1 0
299 189 0 -1 0 0
299 281 0 -1 0 0
299 281 100 -1 0 0
299 189 100 -1 0 0
305 195 0 1 -0 0
305 281 0 1 -0 0
305 281 100 1 -0 0
305 195 100 1 -0 0
657 189 0 -0 -1 0
531 189 0 -0 -1 0
531 189 100 -0 -1 0
657 189 100 -0 -1 0
657 195 0 0 1 0
537 195 0 0 1 0
537 195 100 0 1 0
657 195 100 0 1 0
531 189 0 -1 0 0
531 222 0 -1 0 0
531 222 100 -1 0 0
531 189 100 -1 0 0
537 195 0 1 -0 0
537 222 0 1 -0 0
537 222 100 1 -0 0
537 195 100 1 -0 0
194.968521118164062 457 0 1 0 0
194.968521118164062 388 0 1 0 0
194.968521118164062 388 100 1 0 0
194.968521118164062 457 100 1 0 0
188.968521118164062 457 0 -1 -0 0
188.968521118164062 388 0 -1 -0 0
188.968521118164062 388 100 -1 -0 0
188.968521118164062 457 100 -1 -0 0
194.968521118164062 358 0 1 0 0
194.968521118164062 222 0 1 0 0
194.968521118164062 222 100 1 0 0
194.968521118164062 358 100 1 0 0
188.968521118164062 358 0 -1 -0 0
188.968521118164062 222 0 -1 -0 0
188.968521118164062 222 100 -1 -0 0
188.968521118164062 358 100 -1 -0 0
195 192 0 1 0 0
195 172 0 1 0 0
195 172 100 1 0 0
195 192 100 1 0 0
189 192 0 -1 -0 0
189 166 0 -1 -0 0
189 166 100 -1 -0 0
189 192 100 -1 -0 0
195 172 0 -0 1 0
303.919525146484375 172 0 -0 1 0
303.919525146484375 172 100 -0 1 0
195 172 100 -0 1 0
189 166 0 0 -1 0
303.933349609375 166 0 0 -1 0
303.933349609375 166 100 0 -1 0
189 166 100 0 -1 0
488.73443603515625 293 0 1 0 0
488.73443603515625 241 0 1 0 0
488.73443603515625 241 100 1 0 0
488.73443603515625 293 100 1 0 0
482.73443603515625 293 0 -1 -0 0
482.73443603515625 241 0 -1 -0 0
482.73443603515625 241 100 -1 -0 0
482.73443603515625 293 100 -1 -0 0
488.73443603515625 486 0 1 0 0
488.73443603515625 341 0 1 0 0
488.73443603515625 341 100 1 0 0
488.73443603515625 486 100 1 0 0
482.73443603515625 486 0 -1 -0 0
482.73443603515625 341 0 -1 -0 0
482.73443603515625 341 100 -1 -0 0
482.73443603515625 486 100 -1 -0 0
489 48 0 1 0 0
489 22 0 1 0 0
489 22 100 1 0 0
489 48 100 1 0 0
483 48 0 -1 -0 0
483 25 0 -1 -0 0
483 25 100 -1 -0 0
483 48 100 -1 -0 0
489 28 0 1 0 0
489 7 0 1 0 0
489 7 100 1 0 0
489 28 100 1 0 0
483 25 0 -1 -0 0
483 1 0 -1 -0 0
483 1 100 -1 -0 0
483 25 100 -1 -0 0
489 22 0 -0 -1 0
449 22 0 -0 -1 0
449 22 100 -0 -1 0
489 22 100 -0 -1 0
489 28 0 0 1 0
449 28 0 0 1 0
449 28 100 0 1 0
489 28 100 0 1 0
489 7 0 -0 1 0
543 7 0 -0 1 0
543 7 100 -0 1 0
489 7 100 -0 1 0
483 1 0 0 -1 0
543 1 0 0 -1 0
543 1 100 0 -1 0
483 1 100 0 -1 0
305 497 0 1 0 0
305 426 0 1 0 0
305 426 100 1 0 0
305 497 100 1 0 0
299 497 0 -1 -0 0
299 426 0 -1 -0 0
299 426 100 -1 -0 0
299 497 100 -1 -0 0
305 61 0 1 0 0
305 28 0 1 0 0
305 28 100 1 0 0
305 61 100 1 0 0
299 61 0 -1 -0 0
299 22 0 -1 -0 0
299 22 100 -1 -0 0
299 61 100 -1 -0 0
305 28 0 -0 1 0
361 28 0 -0 1 0
361 28 100 -0 1 0
305 28 100 -0 1 0
299 22 0 0 -1 0
361 22 0 0 -1 0
361 22 100 0 -1 0
299 22 100 0 -1 0
552 483 0 -0 -1 0
486 483 0 -0 -1 0
486 483 100 -0 -1 0
552 483 100 -0 -1 0
552 489 0 0 1 0
486 489 0 0 1 0
486 489 100 0 1 0
552 489 100 0 1 0
302 422.983856201171875 0 -0 -1 0
192 422.983856201171875 0 -0 -1 0
192 422.983856201171875 100 -0 -1 0
302 422.983856201171875 100 -0 -1 0
302 428.983856201171875 0 0 1 0
192 428.983856201171875 0 0 1 0
192 428.983856201171875 100 0 1 0
302 428.983856201171875 100 0 1 0
661 0.977880179882049561 0 -0 -1 0
598 0.977880179882049561 0 -0 -1 0
598 0.977880179882049561 100 -0 -1 0
661 0.977880179882049561 100 -0 -1 0
661 6.97788000106811523 0 0 1 0
598 6.97788000106811523 0 0 1 0
598 6.97788000106811523 100 0 1 0
661 6.97788000106811523 100 0 1 0
656 307 0 -0 -1 0
580 307 0 -0 -1 0
580 307 100 -0 -1 0
656 307 100 -0 -1 0
656 313 0 0 1 0
580 313 0 0 1 0
580 313 100 0 1 0
656 313 100 0 1 0
597 339 0 -0 -1 0
578 339 0 -0 -1 0
578 339 100 -0 -1 0
597 339 100 -0 -1 0
597 345 0 0 1 0
578 345 0 0 1 0
578 345 100 0 1 0
597 345 100 0 1 0
657 338.857666015625 0 -0 -1 0
635 338.857666015625 0 -0 -1 0
635 338.857666015625 100 -0 -1 0
657 338.857666015625 100 -0 -1 0
657 344.857666015625 0 0 1 0
635 344.857666015625 0 0 1 0
635 344.857666015625 100 0 1 0
657 344.857666015625 100 0 1 0
581 263 0 -0 -1 0
533 263 0 -0 -1 0
533 263 100 -0 -1 0
581 263 100 -0 -1 0
575 269 0 0 1 0
533 269 0 0 1 0
533 269 100 0 1 0
575 269 100 0 1 0
575 269 0 -1 0 0
575 338.053131103515625 0 -1 0 0
575 338.053131103515625 100 -1 0 0
575 269 100 -1 0 0
581 263 0 1 -0 0
581 343.946868896484375 0 1 -0 0
581 343.946868896484375 100 1 -0 0
581 263 100 1 -0 0
369 540.29779052734375 0 -0 -1 0
346 540.29779052734375 0 -0 -1 0
346 540.29779052734375 100 -0 -1 0
369 540.29779052734375 100 -0 -1 0
369 546.29779052734375 0 0 1 0
346 546.29779052734375 0 0 1 0
346 546.29779052734375 100 0 1 0
369 546.29779052734375 100 0 1 0
446 540.29779052734375 0 -0 -1 0
425 540.29779052734375 0 -0 -1 0
425 540.29779052734375 100 -0 -1 0
446 540.29779052734375 100 -0 -1 0
446 546.29779052734375 0 0 1 0
425 546.29779052734375 0 0 1 0
425 546.29779052734375 100 0 1 0
446 546.29779052734375 100 0 1 0
657.91656494140625 258.987884521484375 0 -0.999991834163665771 -0.00403769733384251595 0
657.01202392578125 483.01800537109375 0 -0.999991834163665771 -0.00403769733384251595 0
657.01202392578125 483.01800537109375 100 -0.999991834163665771 -0.00403769733384251595 0
657.91656494140625 258.987884521484375 100 -0.999991834163665771 -0.00403769733384251595 0
663.91656494140625 259.012115478515625 0 0.999991834163665771 0.00403769733384251595 0
662.98797607421875 488.98199462890625 0 0.999991834163665771 0.00403769733384251595 0
662.98797607421875 488.98199462890625 100 0.999991834163665771 0.00403769733384251595 0
663.91656494140625 259.012115478515625 100 0.999991834163665771 0.00403769733384251595 0
657.01202392578125 483.01800537109375 0 -0.00604772847145795822 -0.999981701374053955 0
607.98187255859375 483.314544677734375 0 -0.00604772847145795822 -0.999981701374053955 0
607.98187255859375 483.314544677734375 100 -0.00604772847145795822 -0.999981701374053955 0
657.01202392578125 483.01800537109375 100 -0.00604772847145795822 -0.999981701374053955 0
662.98797607421875 488.98199462890625 0 0.00604772847145795822 0.999981701374053955 0
608.01812744140625 489.314422607421875 0 0.00604772847145795822 0.999981701374053955 0
608.01812744140625 489.314422607421875 100 0.00604772847145795822 0.999981701374053955 0
662.98797607421875 488.98199462890625 100 0.00604772847145795822 0.999981701374053955 0
415.0877685546875 194.9940185546875 0 0.029260929673910141 0.999571800231933594 0
452 193.913467407226562 0 0.029260929673910141 0.999571800231933594 0
452 193.913467407226562 100 0.029260929673910141 0.999571800231933594 0
415.0877685546875 194.9940185546875 100 0.029260929673910141 0.999571800231933594 0
414.9122314453125 188.99658203125 0 -0.029260929673910141 -0.999571800231933594 0
446 188.086532592773438 0 -0.029260929673910141 -0.999571800231933594 0
446 188.086532592773438 100 -0.029260929673910141 -0.999571800231933594 0
414.9122314453125 188.99658203125 100 -0.029260929673910141 -0.999571800231933594 0
452 193.913467407226562 0 1 0 0
452 23.0736751556396484 0 1 0 0
452 23.0736751556396484 100 1 0 0
452 193.913467407226562 100 1 0 0
446 188.086532592773438 0 -1 -0 0
446 28.9263248443603516 0 -1 -0 0
446 28.9263248443603516 100 -1 -0 0
446 188.086532592773438 100 -1 -0 0
488.73370361328125 192.933242797851562 0 0.999752402305603027 -0.0222503822296857834 0
487.933013916015625 156.95654296875 0 0.999752402305603027 -0.0222503822296857834 0
487.933013916015625 156.95654296875 100 0.999752402305603027 -0.0222503822296857834 0
488.73370361328125 192.933242797851562 100 0.999752402305603027 -0.0222503822296857834 0
482.735198974609375 193.066757202148438 0 -0.999752402305603027 0.0222503822296857834 0
481.998992919921875 159.98748779296875 0 -0.999752402305603027 0.0222503822296857834 0
481.998992919921875 159.98748779296875 100 -0.999752402305603027 0.0222503822296857834 0
482.735198974609375 193.066757202148438 100 -0.999752402305603027 0.0222503822296857834 0
487.910888671875 162.95751953125 0 0.999532103538513184 0.0305875334888696671 0
488.7330322265625 136.091766357421875 0 0.999532103538513184 0.0305875334888696671 0
488.7330322265625 136.091766357421875 100 0.999532103538513184 0.0305875334888696671 0
487.910888671875 162.95751953125 100 0.999532103538513184 0.0305875334888696671 0
481.998992919921875 159.98748779296875 0 -0.999532103538513184 -0.0305875334888696671 0
482.73583984375 135.908233642578125 0 -0.999532103538513184 -0.0305875334888696671 0
482.73583984375 135.908233642578125 100 -0.999532103538513184 -0.0305875334888696671 0
481.998992919921875 159.98748779296875 100 -0.999532103538513184 -0.0305875334888696671 0
487.933013916015625 156.95654296875 0 -0.0147042926400899887 -0.999891877174377441 0
450.955902099609375 157.500320434570312 0 -0.0147042926400899887 -0.999891877174377441 0
450.955902099609375 157.500320434570312 100 -0.0147042926400899887 -0.999891877174377441 0
487.933013916015625 156.95654296875 100 -0.0147042926400899887 -0.999891877174377441 0
487.910888671875 162.95751953125 0 0.0147042926400899887 0.999891877174377441 0
451.044097900390625 163.499679565429688 0 0.0147042926400899887 0.999891877174377441 0
451.044097900390625 163.499679565429688 100 0.0147042926400899887 0.999891877174377441 0
487.910888671875 162.95751953125 100 0.0147042926400899887 0.999891877174377441 0
304.5159912109375 191.9326171875 0 0.999747693538665771 -0.0224610585719347 0
303.933349609375 166 0 0.999747693538665771 -0.0224610585719347 0
303.933349609375 166 100 0.999747693538665771 -0.0224610585719347 0
304.5159912109375 191.9326171875 100 0.999747693538665771 -0.0224610585719347 0
298.517486572265625 192.0673828125 0 -0.999747693538665771 0.0224610585719347 0
297.99908447265625 168.992904663085938 0 -0.999747693538665771 0.0224610585719347 0
297.99908447265625 168.992904663085938 100 -0.999747693538665771 0.0224610585719347 0
298.517486572265625 192.0673828125 100 -0.999747693538665771 0.0224610585719347 0
303.919525146484375 172 0 0.999630391597747803 0.0271865110844373703 0
304.515625 150.081558227539062 0 0.999630391597747803 0.0271865110844373703 0
304.515625 150.081558227539062 100 0.999630391597747803 0.0271865110844373703 0
303.919525146484375 172 100 0.999630391597747803 0.0271865110844373703 0
297.99908447265625 168.992904663085938 0 -0.999630391597747803 -0.0271865110844373703 0
298.517852783203125 149.918441772460938 0 -0.999630391597747803 -0.0271865110844373703 0
298.517852783203125 149.918441772460938 100 -0.999630391597747803 -0.0271865110844373703 0
297.99908447265625 168.992904663085938 100 -0.999630391597747803 -0.0271865110844373703 0
253 375 0 1 0 0
253 276.97235107421875 0 1 0 0
253 276.97235107421875 100 1 0 0
253 375 100 1 0 0
247 375 0 -1 -0 0
247 283.02764892578125 0 -1 -0 0
247 283.02764892578125 100 -1 -0 0
247 375 100 -1 -0 0
253 276.97235107421875 0 -0.00916897784918546677 -0.99995797872543335 0
195.972488403320312 277.495269775390625 0 -0.00916897784918546677 -0.99995797872543335 0
195.972488403320312 277.495269775390625 100 -0.00916897784918546677 -0.99995797872543335 0
253 276.97235107421875 100 -0.00916897784918546677 -0.99995797872543335 0
247 283.02764892578125 0 0.00916897784918546677 0.99995797872543335 0
196.027511596679688 283.495025634765625 0 0.00916897784918546677 0.99995797872543335 0
196.027511596679688 283.495025634765625 100 0.00916897784918546677 0.99995797872543335 0
247 283.02764892578125 100 0.00916897784918546677 0.99995797872543335 0
575 338.053131103515625 0 -0.0178654380142688751 -0.999840378761291504 0
529.9464111328125 338.858154296875 0 -0.0178654380142688751 -0.999840378761291504 0
529.9464111328125 338.858154296875 100 -0.0178654380142688751 -0.999840378761291504 0
575 338.053131103515625 100 -0.0178654380142688751 -0.999840378761291504 0
581 343.946868896484375 0 0.0178654380142688751 0.999840378761291504 0
530.0535888671875 344.857208251953125 0 0.0178654380142688751 0.999840378761291504 0
530.0535888671875 344.857208251953125 100 0.0178654380142688751 0.999840378761291504 0
581 343.946868896484375 100 0.0178654380142688751 0.999840378761291504 0
412.9254150390625 28.1038341522216797 0 -0.0248600393533706665 0.9996909499168396 0
446 28.9263248443603516 0 -0.0248600393533706665 0.9996909499168396 0
446 28.9263248443603516 100 -0.0248600393533706665 0.9996909499168396 0
412.9254150390625 28.1038341522216797 100 -0.0248600393533706665 0.9996909499168396 0
413.0745849609375 22.1056900024414062 0 0.0248600393533706665 -0.9996909499168396 0
452 23.0736751556396484 0 0.0248600393533706665 -0.9996909499168396 0
452 23.0736751556396484 100 0.0248600393533706665 -0.9996909499168396 0
413.0745849609375 22.1056900024414062 100 0.0248600393533706665 -0.9996909499168396 0
664 230 0 661.06195068359375 229.9822998046875 0
658 230 0 661.06195068359375 229.9822998046875 0
658 230 100 661.06195068359375 229.9822998046875 0
664 230 100 661.06195068359375 229.9822998046875 0
664 4 0 661.06195068359375 2.98230099678039551 0
658 4 0 661.06195068359375 2.98230099678039551 0
658 4 100 661.06195068359375 2.98230099678039551 0
664 4 100 661.06195068359375 2.98230099678039551 0
357 189 0 351.844818115234375 185.741378784179688 0
357 195 0 351.844818115234375 185.741378784179688 0
357 195 100 351.844818115234375 185.741378784179688 0
357 189 100 351.844818115234375 185.741378784179688 0
657 189 0 652.78570556640625 187.5 0
657 195 0 652.78570556640625 187.5 0
657 195 100 652.78570556640625 187.5 0
657 189 100 652.78570556640625 187.5 0
194.968521118164062 457 0 192.142898559570312 451.376800537109375 0
188.968521118164062 457 0 192.142898559570312 451.376800537109375 0
188.968521118164062 457 100 192.142898559570312 451.376800537109375 0
194.968521118164062 457 100 192.142898559570312 451.376800537109375 0
194.968521118164062 388 0 192.142898559570312 381.376800537109375 0
188.968521118164062 388 0 192.142898559570312 381.376800537109375 0
188.968521118164062 388 100 192.142898559570312 381.376800537109375 0
194.968521118164062 388 100 192.142898559570312 381.376800537109375 0
194.968521118164062 358 0 193.534927368164062 356.367645263671875 0
188.968521118164062 358 0 193.534927368164062 356.367645263671875 0
188.968521118164062 358 100 193.534927368164062 356.367645263671875 0
194.968521118164062 358 100 193.534927368164062 356.367645263671875 0
194.968521118164062 222 0 193.534927368164062 219.367645263671875 0
188.968521118164062 222 0 193.534927368164062 219.367645263671875 0
188.968521118164062 222 100 193.534927368164062 219.367645263671875 0
194.968521118164062 222 100 193.534927368164062 219.367645263671875 0
195 192 0 185.25 183.399993896484375 0
189 192 0 185.25 183.399993896484375 0
189 192 100 185.25 183.399993896484375 0
195 192 100 185.25 183.399993896484375 0
488.73443603515625 293 0 479.335693359375 288.365386962890625 0
482.73443603515625 293 0 479.335693359375 288.365386962890625 0
482.73443603515625 293 100 479.335693359375 288.365386962890625 0
488.73443603515625 293 100 479.335693359375 288.365386962890625 0
488.73443603515625 241 0 479.335693359375 235.365386962890625 0
482.73443603515625 241 0 479.335693359375 235.365386962890625 0
482.73443603515625 241 100 479.335693359375 235.365386962890625 0
488.73443603515625 241 100 479.335693359375 235.365386962890625 0
488.73443603515625 486 0 485.363861083984375 483.648284912109375 0
482.73443603515625 486 0 485.363861083984375 483.648284912109375 0
482.73443603515625 486 100 485.363861083984375 483.648284912109375 0
488.73443603515625 486 100 485.363861083984375 483.648284912109375 0
488.73443603515625 341 0 485.363861083984375 337.648284912109375 0
482.73443603515625 341 0 485.363861083984375 337.648284912109375 0
482.73443603515625 341 100 485.363861083984375 337.648284912109375 0
488.73443603515625 341 100 485.363861083984375 337.648284912109375 0
489 48 0 470.19232177734375 47.1538467407226562 0
483 48 0 470.19232177734375 47.1538467407226562 0
483 48 100 470.19232177734375 47.1538467407226562 0
489 48 100 470.19232177734375 47.1538467407226562 0
299 281 0 295.75 278.945648193359375 0
305 281 0 295.75 278.945648193359375 0
305 281 100 295.75 278.945648193359375 0
299 281 100 295.75 278.945648193359375 0
305 497 0 300.7042236328125 491 0
299 497 0 300.7042236328125 491 0
299 497 100 300.7042236328125 491 0
305 497 100 300.7042236328125 491 0
305 426 0 300.7042236328125 419 0
299 426 0 300.7042236328125 419 0
299 426 100 300.7042236328125 419 0
305 426 100 300.7042236328125 419 0
305 61 0 295.757568359375 60.1515159606933594 0
299 61 0 295.757568359375 60.1515159606933594 0
299 61 100 295.757568359375 60.1515159606933594 0
305 61 100 295.757568359375 60.1515159606933594 0
552 483 0 544.6363525390625 475.68182373046875 0
552 489 0 544.6363525390625 475.68182373046875 0
552 489 100 544.6363525390625 475.68182373046875 0
552 483 100 544.6363525390625 475.68182373046875 0
486 483 0 477.6363525390625 475.68182373046875 0
486 489 0 477.6363525390625 475.68182373046875 0
486 489 100 477.6363525390625 475.68182373046875 0
486 483 100 477.6363525390625 475.68182373046875 0
361 28 0 355.553558349609375 27.5 0
361 22 0 355.553558349609375 27.5 0
361 22 100 355.553558349609375 27.5 0
361 28 100 355.553558349609375 27.5 0
449 22 0 436.774993896484375 21.4500007629394531 0
449 28 0 436.774993896484375 21.4500007629394531 0
449 28 100 436.774993896484375 21.4500007629394531 0
449 22 100 436.774993896484375 21.4500007629394531 0
302 422.983856201171875 0 300.254547119140625 419.1385498046875 0
302 428.983856201171875 0 300.254547119140625 419.1385498046875 0
302 428.983856201171875 100 300.254547119140625 419.1385498046875 0
302 422.983856201171875 100 300.254547119140625 419.1385498046875 0
192 422.983856201171875 0 189.254547119140625 419.1385498046875 0
192 428.983856201171875 0 189.254547119140625 419.1385498046875 0
192 428.983856201171875 100 189.254547119140625 419.1385498046875 0
192 422.983856201171875 100 189.254547119140625 419.1385498046875 0
543 7 0 533.9444580078125 6.87037038803100586 0
543 1 0 533.9444580078125 6.87037038803100586 0
543 1 100 533.9444580078125 6.87037038803100586 0
543 7 100 533.9444580078125 6.87037038803100586 0
661 0.977880179882049561 0 651.5079345703125 0.962358295917510986 0
661 6.97788000106811523 0 651.5079345703125 0.962358295917510986 0
661 6.97788000106811523 100 651.5079345703125 0.962358295917510986 0
661 0.977880179882049561 100 651.5079345703125 0.962358295917510986 0
598 0.977880179882049561 0 587.5079345703125 0.962358295917510986 0
598 6.97788000106811523 0 587.5079345703125 0.962358295917510986 0
598 6.97788000106811523 100 587.5079345703125 0.962358295917510986 0
598 0.977880179882049561 100 587.5079345703125 0.962358295917510986 0
656 307 0 648.368408203125 302.960540771484375 0
656 313 0 648.368408203125 302.960540771484375 0
656 313 100 648.368408203125 302.960540771484375 0
656 307 100 648.368408203125 302.960540771484375 0
580 307 0 571.368408203125 302.960540771484375 0
580 313 0 571.368408203125 302.960540771484375 0
580 313 100 571.368408203125 302.960540771484375 0
580 307 100 571.368408203125 302.960540771484375 0
597 339 0 566.57891845703125 321.15789794921875 0
597 345 0 566.57891845703125 321.15789794921875 0
597 345 100 566.57891845703125 321.15789794921875 0
597 339 100 566.57891845703125 321.15789794921875 0
578 339 0 546.57891845703125 321.15789794921875 0
578 345 0 546.57891845703125 321.15789794921875 0
578 345 100 546.57891845703125 321.15789794921875 0
578 339 100 546.57891845703125 321.15789794921875 0
657 338.857666015625 0 628.1363525390625 323.455047607421875 0
657 344.857666015625 0 628.1363525390625 323.455047607421875 0
657 344.857666015625 100 628.1363525390625 323.455047607421875 0
657 338.857666015625 100 628.1363525390625 323.455047607421875 0
635 338.857666015625 0 605.1363525390625 323.455047607421875 0
635 344.857666015625 0 605.1363525390625 323.455047607421875 0
635 344.857666015625 100 605.1363525390625 323.455047607421875 0
635 338.857666015625 100 605.1363525390625 323.455047607421875 0
533 263 0 520.89581298828125 257.520843505859375 0
533 269 0 520.89581298828125 257.520843505859375 0
533 269 100 520.89581298828125 257.520843505859375 0
533 263 100 520.89581298828125 257.520843505859375 0
369 540.29779052734375 0 353.956512451171875 516.80657958984375 0
369 546.29779052734375 0 353.956512451171875 516.80657958984375 0
369 546.29779052734375 100 353.956512451171875 516.80657958984375 0
369 540.29779052734375 100 353.956512451171875 516.80657958984375 0
346 540.29779052734375 0 329.956512451171875 516.80657958984375 0
346 546.29779052734375 0 329.956512451171875 516.80657958984375 0
346 546.29779052734375 100 329.956512451171875 516.80657958984375 0
346 540.29779052734375 100 329.956512451171875 516.80657958984375 0
446 540.29779052734375 0 425.76190185546875 514.5693359375 0
446 546.29779052734375 0 425.76190185546875 514.5693359375 0
446 546.29779052734375 100 425.76190185546875 514.5693359375 0
446 540.29779052734375 100 425.76190185546875 514.5693359375 0
425 540.29779052734375 0 403.76190185546875 514.5693359375 0
425 546.29779052734375 0 403.76190185546875 514.5693359375 0
425 546.29779052734375 100 403.76190185546875 514.5693359375 0
425 540.29779052734375 100 403.76190185546875 514.5693359375 0
531 222 0 514.90911865234375 216.272720336914062 0
537 222 0 514.90911865234375 216.272720336914062 0
537 222 100 514.90911865234375 216.272720336914062 0
531 222 100 514.90911865234375 216.272720336914062 0
657.91656494140625 258.987884521484375 0 654.98394775390625 256.831878662109375 0
663.91656494140625 259.012115478515625 0 654.98394775390625 256.831878662109375 0
663.91656494140625 259.012115478515625 100 654.98394775390625 256.831878662109375 0
657.91656494140625 258.987884521484375 100 654.98394775390625 256.831878662109375 0
607.98187255859375 483.314544677734375 0 594.58197021484375 473.463287353515625 0
608.01812744140625 489.314422607421875 0 594.58197021484375 473.463287353515625 0
608.01812744140625 489.314422607421875 100 594.58197021484375 473.463287353515625 0
607.98187255859375 483.314544677734375 100 594.58197021484375 473.463287353515625 0
415.0877685546875 194.9940185546875 0 402.847747802734375 189.742889404296875 0
414.9122314453125 188.99658203125 0 402.847747802734375 189.742889404296875 0
414.9122314453125 188.99658203125 100 402.847747802734375 189.742889404296875 0
415.0877685546875 194.9940185546875 100 402.847747802734375 189.742889404296875 0
488.73370361328125 192.933242797851562 0 475.174591064453125 188.571609497070312 0
482.735198974609375 193.066757202148438 0 475.174591064453125 188.571609497070312 0
482.735198974609375 193.066757202148438 100 475.174591064453125 188.571609497070312 0
488.73370361328125 192.933242797851562 100 475.174591064453125 188.571609497070312 0
488.7330322265625 136.091766357421875 0 470.580474853515625 130.028976440429688 0
482.73583984375 135.908233642578125 0 470.580474853515625 130.028976440429688 0
482.73583984375 135.908233642578125 100 470.580474853515625 130.028976440429688 0
488.7330322265625 136.091766357421875 100 470.580474853515625 130.028976440429688 0
450.955902099609375 157.500320434570312 0 437.76177978515625 153.256088256835938 0
451.044097900390625 163.499679565429688 0 437.76177978515625 153.256088256835938 0
451.044097900390625 163.499679565429688 100 437.76177978515625 153.256088256835938 0
450.955902099609375 157.500320434570312 100 437.76177978515625 153.256088256835938 0
304.5159912109375 191.9326171875 0 292.798828125 185.53302001953125 0
298.517486572265625 192.0673828125 0 292.798828125 185.53302001953125 0
298.517486572265625 192.0673828125 100 292.798828125 185.53302001953125 0
304.5159912109375 191.9326171875 100 292.798828125 185.53302001953125 0
304.515625 150.081558227539062 0 290.654815673828125 142.2371826171875 0
298.517852783203125 149.918441772460938 0 290.654815673828125 142.2371826171875 0
298.517852783203125 149.918441772460938 100 290.654815673828125 142.2371826171875 0
304.515625 150.081558227539062 100 290.654815673828125 142.2371826171875 0
253 375 0 250.419097900390625 372.174560546875 0
247 375 0 250.419097900390625 372.174560546875 0
247 375 100 250.419097900390625 372.174560546875 0
253 375 100 250.419097900390625 372.174560546875 0
195.972488403320312 277.495269775390625 0 191.536224365234375 272.638641357421875 0
196.027511596679688 283.495025634765625 0 191.536224365234375 272.638641357421875 0
196.027511596679688 283.495025634765625 100 191.536224365234375 272.638641357421875 0
195.972488403320312 277.495269775390625 100 191.536224365234375 272.638641357421875 0
529.9464111328125 338.858154296875 0 517.18585205078125 331.355987548828125 0
530.0535888671875 344.857208251953125 0 517.18585205078125 331.355987548828125 0
530.0535888671875 344.857208251953125 100 517.18585205078125 331.355987548828125 0
529.9464111328125 338.858154296875 100 517.18585205078125 331.355987548828125 0
412.9254150390625 28.1038341522216797 0 399.444915771484375 27.2295265197753906 0
413.0745849609375 22.1056900024414062 0 399.444915771484375 27.2295265197753906 0
413.0745849609375 22.1056900024414062 100 399.444915771484375 27.2295265197753906 0
412.9254150390625 28.1038341522216797 100 399.444915771484375 27.2295265197753906 0
664 230 0 0 0 -1
658 230 0 0 0 -1
658 4 0 0 0 -1
664 4 0 0 0 -1
664 230 100 0 0 1
658 230 100 0 0 1
658 4 100 0 0 1
664 4 100 0 0 1
357 189 0 0 0 -1
357 195 0 0 0 -1
305 195 0 0 0 -1
299 189 0 0 0 -1
357 189 100 0 0 1
357 195 100 0 0 1
305 195 100 0 0 1
299 189 100 0 0 1
299 189 0 0 0 -1
305 195 0 0 0 -1
305 281 0 0 0 -1
299 281 0 0 0 -1
299 189 100 0 0 1
305 195 100 0 0 1
305 281 100 0 0 1
299 281 100 0 0 1
657 189 0 0 0 -1
657 195 0 0 0 -1
537 195 0 0 0 -1
531 189 0 0 0 -1
657 189 100 0 0 1
657 195 100 0 0 1
537 195 100 0 0 1
531 189 100 0 0 1
531 189 0 0 0 -1
537 195 0 0 0 -1
537 222 0 0 0 -1
531 222 0 0 0 -1
531 189 100 0 0 1
537 195 100 0 0 1
537 222 100 0 0 1
531 222 100 0 0 1
194.968521118164062 457 0 0 0 -1
188.968521118164062 457 0 0 0 -1
188.968521118164062 388 0 0 0 -1
194.968521118164062 388 0 0 0 -1
194.968521118164062 457 100 0 0 1
188.968521118164062 457 100 0 0 1
188.968521118164062 388 100 0 0 1
194.968521118164062 388 100 0 0 1
194.968521118164062 358 0 0 0 -1
188.968521118164062 358 0 0 0 -1
188.968521118164062 222 0 0 0 -1
194.968521118164062 222 0 0 0 -1
194.968521118164062 358 100 0 0 1
188.968521118164062 358 100 0 0 1
188.968521118164062 222 100 0 0 1
194.968521118164062 222 100 0 0 1
195 192 0 0 0 -1
189 192 0 0 0 -1
189 166 0 0 0 -1
195 172 0 0 0 -1
195 192 100 0 0 1
189 192 100 0 0 1
189 166 100 0 0 1
195 172 100 0 0 1
195 172 0 0 0 -1
189 166 0 0 0 -1
303.933349609375 166 0 0 0 -1
303.919525146484375 172 0 0 0 -1
195 172 100 0 0 1
189 166 100 0 0 1
303.933349609375 166 100 0 0 1
303.919525146484375 172 100 0 0 1
488.73443603515625 293 0 0 0 -1
482.73443603515625 293 0 0 0 -1
482.73443603515625 241 0 0 0 -1
488.73443603515625 241 0 0 0 -1
488.73443603515625 293 100 0 0 1
482.73443603515625 293 100 0 0 1
482.73443603515625 241 100 0 0 1
488.73443603515625 241 100 0 0 1
488.73443603515625 486 0 0 0 -1
482.73443603515625 486 0 0 0 -1
482.73443603515625 341 0 0 0 -1
488.73443603515625 341 0 0 0 -1
488.73443603515625 486 100 0 0 1
482.73443603515625 486 100 0 0 1
482.73443603515625 341 100 0 0 1
488.73443603515625 341 100 0 0 1
489 48 0 0 0 -1
483 48 0 0 0 -1
483 25 0 0 0 -1
489 22 0 0 0 -1
489 48 100 0 0 1
483 48 100 0 0 1
483 25 100 0 0 1
489 22 100 0 0 1
489 28 0 0 0 -1
483 25 0 0 0 -1
483 1 0 0 0 -1
489 7 0 0 0 -1
489 28 100 0 0 1
483 25 100 0 0 1
483 1 100 0 0 1
489 7 100 0 0 1
489 22 0 0 0 -1
489 28 0 0 0 -1
449 28 0 0 0 -1
449 22 0 0 0 -1
489 22 100 0 0 1
489 28 100 0 0 1
449 28 100 0 0 1
449 22 100 0 0 1
489 7 0 0 0 -1
483 1 0 0 0 -1
543 1 0 0 0 -1
543 7 0 0 0 -1
489 7 100 0 0 1
483 1 100 0 0 1
543 1 100 0 0 1
543 7 100 0 0 1
305 497 0 0 0 -1
299 497 0 0 0 -1
299 426 0 0 0 -1
305 426 0 0 0 -1
305 497 100 0 0 1
299 497 100 0 0 1
299 426 100 0 0 1
305 426 100 0 0 1
305 61 0 0 0 -1
299 61 0 0 0 -1
299 22 0 0 0 -1
305 28 0 0 0 -1
305 61 100 0 0 1
299 61 100 0 0 1
299 22 100 0 0 1
305 28 100 0 0 1
305 28 0 0 0 -1
299 22 0 0 0 -1
361 22 0 0 0 -1
361 28 0 0 0 -1
305 28 100 0 0 1
299 22 100 0 0 1
361 22 100 0 0 1
361 28 100 0 0 1
552 483 0 0 0 -1
552 489 0 0 0 -1
486 489 0 0 0 -1
486 483 0 0 0 -1
552 483 100 0 0 1
552 489 100 0 0 1
486 489 100 0 0 1
486 483 100 0 0 1
302 422.983856201171875 0 0 0 -1
302 428.983856201171875 0 0 0 -1
192 428.983856201171875 0 0 0 -1
192 422.983856201171875 0 0 0 -1
302 422.983856201171875 100 0 0 1
302 428.983856201171875 100 0 0 1
192 428.983856201171875 100 0 0 1
192 422.983856201171875 100 0 0 1
661 0.977880179882049561 0 0 0 -1
661 6.97788000106811523 0 0 0 -1
598 6.97788000106811523 0 0 0 -1
598 0.977880179882049561 0 0 0 -1
661 0.977880179882049561 100 0 0 1
661 6.97788000106811523 100 0 0 1
598 6.97788000106811523 100 0 0 1
598 0.977880179882049561 100 0 0 1
656 307 0 0 0 -1
656 313 0 0 0 -1
580 313 0 0 0 -1
580 307 0 0 0 -1
656 307 100 0 0 1
656 313 100 0 0 1
580 313 100 0 0 1
580 307 100 0 0 1
597 339 0 0 0 -1
597 345 0 0 0 -1
578 345 0 0 0 -1
578 339 0 0 0 -1
597 339 100 0 0 1
597 345 100 0 0 1
578 345 100 0 0 1
578 339 100 0 0 1
657 338.857666015625 0 0 0 -1
657 344.857666015625 0 0 0 -1
635 344.857666015625 0 0 0 -1
635 338.857666015625 0 0 0 -1
657 338.857666015625 100 0 0 1
657 344.857666015625 100 0 0 1
635 344.857666015625 100 0 0 1
635 338.857666015625 100 0 0 1
581 263 0 0 0 -1
575 269 0 0 0 -1
533 269 0 0 0 -1
533 263 0 0 0 -1
581 263 100 0 0 1
575 269 100 0 0 1
533 269 100 0 0 1
533 263 100 0 0 1
575 269 0 0 0 -1
581 263 0 0 0 -1
581 343.946868896484375 0 0 0 -1
575 338.053131103515625 0 0 0 -1
575 269 100 0 0 1
581 263 100 0 0 1
581 343.946868896484375 100 0 0 1
575 338.053131103515625 100 0 0 1
369 540.29779052734375 0 0 0 -1
369 546.29779052734375 0 0 0 -1
346 546.29779052734375 0 0 0 -1
346 540.29779052734375 0 0 0 -1
369 540.29779052734375 100 0 0 1
369 546.29779052734375 100 0 0 1
346 546.29779052734375 100 0 0 1
346 540.29779052734375 100 0 0 1
446 540.29779052734375 0 0 0 -1
446 546.29779052734375 0 0 0 -1
425 546.29779052734375 0 0 0 -1
425 540.29779052734375 0 0 0 -1
446 540.29779052734375 100 0 0 1
446 546.29779052734375 100 0 0 1
425 546.29779052734375 100 0 0 1
425 540.29779052734375 100 0 0 1
657.91656494140625 258.987884521484375 0 0 0 -1
663.91656494140625 259.012115478515625 0 0 0 -1
662.98797607421875 488.98199462890625 0 0 0 -1
657.01202392578125 483.01800537109375 0 0 0 -1
657.91656494140625 258.987884521484375 100 0 0 1
663.91656494140625 259.012115478515625 100 0 0 1
662.98797607421875 488.98199462890625 100 0 0 1
657.01202392578125 483.01800537109375 100 0 0 1
657.01202392578125 483.01800537109375 0 0 0 -1
662.98797607421875 488.98199462890625 0 0 0 -1
608.01812744140625 489.314422607421875 0 0 0 -1
607.98187255859375 483.314544677734375 0 0 0 -1
657.01202392578125 483.01800537109375 100 0 0 1
662.98797607421875 488.98199462890625 100 0 0 1
608.01812744140625 489.314422607421875 100 0 0 1
607.98187255859375 483.314544677734375 100 0 0 1
415.0877685546875 194.9940185546875 0 0 0 -1
414.9122314453125 188.99658203125 0 0 0 -1
446 188.086532592773438 0 0 0 -1
452 193.913467407226562 0 0 0 -1
415.0877685546875 194.9940185546875 100 0 0 1
414.9122314453125 188.99658203125 100 0 0 1
446 188.086532592773438 100 0 0 1
452 193.913467407226562 100 0 0 1
452 193.913467407226562 0 0 0 -1
446 188.086532592773438 0 0 0 -1
446 28.9263248443603516 0 0 0 -1
452 23.0736751556396484 0 0 0 -1
452 193.913467407226562 100 0 0 1
446 188.086532592773438 100 0 0 1
446 28.9263248443603516 100 0 0 1
452 23.0736751556396484 100 0 0 1
488.73370361328125 192.933242797851562 0 0 0 -1
482.735198974609375 193.066757202148438 0 0 0 -1
481.998992919921875 159.98748779296875 0 0 0 -1
487.933013916015625 156.95654296875 0 0 0 -1
488.73370361328125 192.933242797851562 100 0 0 1
482.735198974609375 193.066757202148438 100 0 0 1
481.998992919921875 159.98748779296875 100 0 0 1
487.933013916015625 156.95654296875 100 0 0 1
487.910888671875 162.95751953125 0 0 0 -1
481.998992919921875 159.98748779296875 0 0 0 -1
482.73583984375 135.908233642578125 0 0 0 -1
488.7330322265625 136.091766357421875 0 0 0 -1
487.910888671875 162.95751953125 100 0 0 1
481.998992919921875 159.98748779296875 100 0 0 1
482.73583984375 135.908233642578125 100 0 0 1
488.7330322265625 136.091766357421875 100 0 0 1
487.933013916015625 156.95654296875 0 0 0 -1
487.910888671875 162.95751953125 0 0 0 -1
451.044097900390625 163.499679565429688 0 0 0 -1
450.955902099609375 157.500320434570312 0 0 0 -1
487.933013916015625 156.95654296875 100 0 0 1
487.910888671875 162.95751953125 100 0 0 1
451.044097900390625 163.499679565429688 100 0 0 1
450.955902099609375 157.500320434570312 100 0 0 1
304.5159912109375 191.9326171875 0 0 0 -1
298.517486572265625 192.0673828125 0 0 0 -1
297.99908447265625 168.992904663085938 0 0 0 -1
303.933349609375 166 0 0 0 -1
304.5159912109375 191.9326171875 100 0 0 1
298.517486572265625 192.0673828125 100 0 0 1
297.99908447265625 168.992904663085938 100 0 0 1
303.933349609375 166 100 0 0 1
303.919525146484375 172 0 0 0 -1
297.99908447265625 168.992904663085938 0 0 0 -1
298.517852783203125 149.918441772460938 0 0 0 -1
304.515625 150.081558227539062 0 0 0 -1
303.919525146484375 172 100 0 0 1
297.99908447265625 168.992904663085938 100 0 0 1
298.517852783203125 149.918441772460938 100 0 0 1
304.515625 150.081558227539062 100 0 0 1
253 375 0 0 0 -1
247 375 0 0 0 -1
247 283.02764892578125 0 0 0 -1
253 276.97235107421875 0 0 0 -1
253 375 100 0 0 1
247 375 100 0 0 1
247 283.02764892578125 100 0 0 1
253 276.97235107421875 100 0 0 1
253 276.97235107421875 0 0 0 -1
247 283.02764892578125 0 0 0 -1
196.027511596679688 283.495025634765625 0 0 0 -1
195.972488403320312 277.495269775390625 0 0 0 -1
253 276.97235107421875 100 0 0 1
247 283.02764892578125 100 0 0 1
196.027511596679688 283.495025634765625 100 0 0 1
195.972488403320312 277.495269775390625 100 0 0 1
575 338.053131103515625 0 0 0 -1
581 343.946868896484375 0 0 0 -1
530.0535888671875 344.857208251953125 0 0 0 -1
529.9464111328125 338.858154296875 0 0 0 -1
575 338.053131103515625 100 0 0 1
581 343.946868896484375 100 0 0 1
530.0535888671875 344.857208251953125 100 0 0 1
529.9464111328125 338.858154296875 100 0 0 1
412.9254150390625 28.1038341522216797 0 0 0 -1
413.0745849609375 22.1056900024414062 0 0 0 -1
452 23.0736751556396484 0 0 0 -1
446 28.9263248443603516 0 0 0 -1
412.9254150390625 28.1038341522216797 100 0 0 1
413.0745849609375 22.1056900024414062 100 0 0 1
452 23.0736751556396484 100 0 0 1
446 28.9263248443603516 100 0 0 1
481.998992919921875 159.98748779296875 0 0 0 -1
487.910888671875 162.95751953125 0 0 0 -1
487.933013916015625 156.95654296875 0 0 0 -1
481.998992919921875 159.98748779296875 100 0 0 1
487.910888671875 162.95751953125 100 0 0 1
487.933013916015625 156.95654296875 100 0 0 1
297.99908447265625 168.992904663085938 0 0 0 -1
303.919525146484375 172 0 0 0 -1
303.933349609375 166 0 0 0 -1
297.99908447265625 168.992904663085938 100 0 0 1
303.919525146484375 172 100 0 0 1
303.933349609375 166 100 0 0 1
4 0 1 2 3
4 4 5 6 7
4 8 9 10 11
4 12 13 14 15
4 16 17 18 19
4 20 21 22 23
4 24 25 26 27
4 28 29 30 31
4 32 33 34 35
4 36 37 38 39
4 40 41 42 43
4 44 45 46 47
4 48 49 50 51
4 52 53 54 55
4 56 57 58 59
4 60 61 62 63
4 64 65 66 67
4 68 69 70 71
4 72 73 74 75
4 76 77 78 79
4 80 81 82 83
4 84 85 86 87
4 88 89 90 91
4 92 93 94 95
4 96 97 98 99
4 100 101 102 103
4 104 105 106 107
4 108 109 110 111
4 112 113 114 115
4 116 117 118 119
4 120 121 122 123
4 124 125 126 127
4 128 129 130 131
4 132 133 134 135
4 136 137 138 139
4 140 141 142 143
4 144 145 146 147
4 148 149 150 151
4 152 153 154 155
4 156 157 158 159
4 160 161 162 163
4 164 165 166 167
4 168 169 170 171
4 172 173 174 175
4 176 177 178 179
4 180 181 182 183
4 184 185 186 187
4 188 189 190 191
4 192 193 194 195
4 196 197 198 199
4 200 201 202 203
4 204 205 206 207
4 208 209 210 211
4 212 213 214 215
4 216 217 218 219
4 220 221 222 223
4 224 225 226 227
4 228 229 230 231
4 232 233 234 235
4 236 237 238 239
4 240 241 242 243
4 244 245 246 247
4 248 249 250 251
4 252 253 254 255
4 256 257 258 259
4 260 261 262 263
4 264 265 266 267
4 268 269 270 271
4 272 273 274 275
4 276 277 278 279
4 280 281 282 283
4 284 285 286 287
4 288 289 290 291
4 292 293 294 295
4 296 297 298 299
4 300 301 302 303
4 304 305 306 307
4 308 309 310 311
4 312 313 314 315
4 316 317 318 319
4 320 321 322 323
4 324 325 326 327
4 328 329 330 331
4 332 333 334 335
4 336 337 338 339
4 340 341 342 343
4 344 345 346 347
4 348 349 350 351
4 352 353 354 355
4 356 357 358 359
4 360 361 362 363
4 364 365 366 367
4 368 369 370 371
4 372 373 374 375
4 376 377 378 379
4 380 381 382 383
4 384 385 386 387
4 388 389 390 391
4 392 393 394 395
4 396 397 398 399
4 400 401 402 403
4 404 405 406 407
4 408 409 410 411
4 412 413 414 415
4 416 417 418 419
4 420 421 422 423
4 424 425 426 427
4 428 429 430 431
4 432 433 434 435
4 436 437 438 439
4 440 441 442 443
4 444 445 446 447
4 448 449 450 451
4 452 453 454 455
4 456 457 458 459
4 460 461 462 463
4 464 465 466 467
4 468 469 470 471
4 472 473 474 475
4 476 477 478 479
4 480 481 482 483
4 484 485 486 487
4 488 489 490 491
4 492 493 494 495
4 496 497 498 499
4 500 501 502 503
4 504 505 506 507
4 508 509 510 511
4 512 513 514 515
4 516 517 518 519
4 520 521 522 523
4 524 525 526 527
4 528 529 530 531
4 532 533 534 535
4 536 537 538 539
4 540 541 542 543
4 544 545 546 547
4 548 549 550 551
4 552 553 554 555
4 556 557 558 559
4 560 561 562 563
4 564 565 566 567
4 568 569 570 571
4 572 573 574 575
4 576 577 578 579
4 580 581 582 583
4 584 585 586 587
4 588 589 590 591
4 592 593 594 595
4 596 597 598 599
4 600 601 602 603
4 604 605 606 607
4 608 609 610 611
4 612 613 614 615
4 616 617 618 619
4 620 621 622 623
4 624 625 626 627
4 628 629 630 631
4 632 633 634 635
4 636 637 638 639
4 640 641 642 643
4 644 645 646 647
4 648 649 650 651
4 652 653 654 655
4 656 657 658 659
4 660 661 662 663
4 664 665 666 667
4 668 669 670 671
4 672 673 674 675
4 676 677 678 679
4 680 681 682 683
4 684 685 686 687
4 688 689 690 691
4 692 693 694 695
4 696 697 698 699
4 700 701 702 703
4 704 705 706 707
4 708 709 710 711
4 712 713 714 715
4 716 717 718 719
4 720 721 722 723
4 724 725 726 727
4 728 729 730 731
4 732 733 734 735
4 736 737 738 739
4 740 741 742 743
4 744 745 746 747
4 748 749 750 751
4 752 753 754 755
4 756 757 758 759
4 760 761 762 763
4 764 765 766 767
4 768 769 770 771
4 772 773 774 775
4 776 777 778 779
4 780 781 782 783
4 784 785 786 787
4 788 789 790 791
4 792 793 794 795
4 796 797 798 799
4 800 801 802 803
4 804 805 806 807
4 808 809 810 811
4 812 813 814 815
4 816 817 818 819
4 820 821 822 823
4 824 825 826 827
4 828 829 830 831
4 832 833 834 835
4 836 837 838 839
4 840 841 842 843
4 844 845 846 847
4 848 849 850 851
4 852 853 854 855
4 856 857 858 859
3 860 861 862
3 863 864 865
3 866 867 868
3 869 870 871
