ply
format ascii 1.0
element vertex 328
property float x
property float y
property float z
property float nx
property float ny
property float nz
element quads 82
property list uchar int vertex_indices
end_header
203.25 469.75 0 1 0 0
203.25 61 0 1 0 0
203.25 61 100 1 0 0
203.25 469.75 100 1 0 0
202.75 470.25 0 -1 -0 0
202.75 61 0 -1 -0 0
202.75 61 100 -1 -0 0
202.75 470.25 100 -1 -0 0
202.75 470.25 0 -0 1 0
253 470.25 0 -0 1 0
253 470.25 100 -0 1 0
202.75 470.25 100 -0 1 0
203.25 469.75 0 0 -1 0
253 469.75 0 0 -1 0
253 469.75 100 0 -1 0
203.25 469.75 100 0 -1 0
697.25 410 0 1 0 0
697.25 270 0 1 0 0
697.25 270 100 1 0 0
697.25 410 100 1 0 0
696.75 410 0 -1 -0 0
696.75 270 0 -1 -0 0
696.75 270 100 -1 -0 0
696.75 410 100 -1 -0 0
697.25 202 0 1 0 0
697.25 61 0 1 0 0
697.25 61 100 1 0 0
697.25 202 100 1 0 0
696.75 202 0 -1 -0 0
696.75 61 0 -1 -0 0
696.75 61 100 -1 -0 0
696.75 202 100 -1 -0 0
434.25 178.25 0 -0 1 0
516 178.25 0 -0 1 0
516 178.25 100 -0 1 0
434.25 178.25 100 -0 1 0
433.75 177.75 0 0 -1 0
516 177.75 0 0 -1 0
516 177.75 100 0 -1 0
433.75 177.75 100 0 -1 0
433.75 177.75 0 -1 0 0
433.75 329 0 -1 0 0
433.75 329 100 -1 0 0
433.75 177.75 100 -1 0 0
434.25 178.25 0 1 -0 0
434.25 329 0 1 -0 0
434.25 329 100 1 -0 0
434.25 178.25 100 1 -0 0
435 295.25 0 -0 1 0
516 295.25 0 -0 1 0
516 295.25 100 -0 1 0
435 295.25 100 -0 1 0
435 294.75 0 0 -1 0
516 294.75 0 0 -1 0
516 294.75 100 0 -1 0
435 294.75 100 0 -1 0
451 410.25 0 -0 1 0
550 410.25 0 -0 1 0
550 410.25 100 -0 1 0
451 410.25 100 -0 1 0
451 409.75 0 0 -1 0
550 409.75 0 0 -1 0
550 409.75 100 0 -1 0
451 409.75 100 0 -1 0
376.25 1.25 0 -0 1 0
415 1.25 0 -0 1 0
415 1.25 100 -0 1 0
376.25 1.25 100 -0 1 0
375.75 0.75 0 0 -1 0
415 0.75 0 0 -1 0
415 0.75 100 0 -1 0
375.75 0.75 100 0 -1 0
375.75 0.75 0 -1 0 0
375.75 67 0 -1 0 0
375.75 67 100 -1 0 0
375.75 0.75 100 -1 0 0
376.25 1.25 0 1 -0 0
376.25 67 0 1 -0 0
376.25 67 100 1 -0 0
376.25 1.25 100 1 -0 0
286 66.25 0 -0 1 0
308 66.25 0 -0 1 0
308 66.25 100 -0 1 0
286 66.25 100 -0 1 0
286 65.75 0 0 -1 0
308 65.75 0 0 -1 0
308 65.75 100 0 -1 0
286 65.75 100 0 -1 0
517.75 0 0 -1 0 0
517.75 334 0 -1 0 0
517.75 334 100 -1 0 0
517.75 0 100 -1 0 0
518.25 0 0 1 -0 0
518.25 334 0 1 -0 0
518.25 334 100 1 -0 0
518.25 0 100 1 -0 0
375.75 329 0 -1 0 0
375.75 469.75 0 -1 0 0
375.75 469.75 100 -1 0 0
375.75 329 100 -1 0 0
376.25 329 0 1 -0 0
376.25 470.25 0 1 -0 0
376.25 470.25 100 1 -0 0
376.25 329 100 1 -0 0
375.75 469.75 0 -0 -1 0
333 469.75 0 -0 -1 0
333 469.75 100 -0 -1 0
375.75 469.75 100 -0 -1 0
376.25 470.25 0 0 1 0
333 470.25 0 0 1 0
333 470.25 100 0 1 0
376.25 470.25 100 0 1 0
523 66.25 0 -0 1 0
640 66.25 0 -0 1 0
640 66.25 100 -0 1 0
523 66.25 100 -0 1 0
523 65.75 0 0 -1 0
640 65.75 0 0 -1 0
640 65.75 100 0 -1 0
523 65.75 100 0 -1 0
203.25 61 0 202.75274658203125 59.8507652282714844 0
202.75 61 0 202.75274658203125 59.8507652282714844 0
202.75 61 100 202.75274658203125 59.8507652282714844 0
203.25 61 100 202.75274658203125 59.8507652282714844 0
697.25 410 0 692.2696533203125 408.071441650390625 0
696.75 410 0 692.2696533203125 408.071441650390625 0
696.75 410 100 692.2696533203125 408.071441650390625 0
697.25 410 100 692.2696533203125 408.071441650390625 0
697.25 270 0 692.2696533203125 267.071441650390625 0
696.75 270 0 692.2696533203125 267.071441650390625 0
696.75 270 100 692.2696533203125 267.071441650390625 0
697.25 270 100 692.2696533203125 267.071441650390625 0
697.25 202 0 692.30499267578125 201.5673828125 0
696.75 202 0 692.30499267578125 201.5673828125 0
696.75 202 100 692.30499267578125 201.5673828125 0
697.25 202 100 692.30499267578125 201.5673828125 0
697.25 61 0 692.30499267578125 59.5673751831054688 0
696.75 61 0 692.30499267578125 59.5673751831054688 0
696.75 61 100 692.30499267578125 59.5673751831054688 0
697.25 61 100 692.30499267578125 59.5673751831054688 0
516 178.25 0 510.688079833984375 176.069564819335938 0
516 177.75 0 510.688079833984375 176.069564819335938 0
516 177.75 100 510.688079833984375 176.069564819335938 0
516 178.25 100 510.688079833984375 176.069564819335938 0
435 295.25 0 428.629638671875 291.604949951171875 0
435 294.75 0 428.629638671875 291.604949951171875 0
435 294.75 100 428.629638671875 291.604949951171875 0
435 295.25 100 428.629638671875 291.604949951171875 0
516 295.25 0 510.629638671875 291.604949951171875 0
516 294.75 0 510.629638671875 291.604949951171875 0
516 294.75 100 510.629638671875 291.604949951171875 0
516 295.25 100 510.629638671875 291.604949951171875 0
451 410.25 0 445.4444580078125 406.106048583984375 0
451 409.75 0 445.4444580078125 406.106048583984375 0
451 409.75 100 445.4444580078125 406.106048583984375 0
451 410.25 100 445.4444580078125 406.106048583984375 0
550 410.25 0 545.4444580078125 406.106048583984375 0
550 409.75 0 545.4444580078125 406.106048583984375 0
550 409.75 100 545.4444580078125 406.106048583984375 0
550 410.25 100 545.4444580078125 406.106048583984375 0
415 1.25 0 405.290313720703125 1.21774196624755859 0
415 0.75 0 405.290313720703125 1.21774196624755859 0
415 0.75 100 405.290313720703125 1.21774196624755859 0
415 1.25 100 405.290313720703125 1.21774196624755859 0
286 66.25 0 272 63.2386360168457031 0
286 65.75 0 272 63.2386360168457031 0
286 65.75 100 272 63.2386360168457031 0
286 66.25 100 272 63.2386360168457031 0
308 66.25 0 295 63.2386360168457031 0
308 65.75 0 295 63.2386360168457031 0
308 65.75 100 295 63.2386360168457031 0
308 66.25 100 295 63.2386360168457031 0
517.75 0 0 516.1998291015625 -1 0
518.25 0 0 516.1998291015625 -1 0
518.25 0 100 516.1998291015625 -1 0
517.75 0 100 516.1998291015625 -1 0
517.75 334 0 516.1998291015625 334 0
518.25 334 0 516.1998291015625 334 0
518.25 334 100 516.1998291015625 334 0
517.75 334 100 516.1998291015625 334 0
375.75 67 0 370.07830810546875 66.988677978515625 0
376.25 67 0 370.07830810546875 66.988677978515625 0
376.25 67 100 370.07830810546875 66.988677978515625 0
375.75 67 100 370.07830810546875 66.988677978515625 0
375.75 329 0 373.08038330078125 325.66253662109375 0
376.25 329 0 373.08038330078125 325.66253662109375 0
376.25 329 100 373.08038330078125 325.66253662109375 0
375.75 329 100 373.08038330078125 325.66253662109375 0
433.75 329 0 430.882232666015625 327.824798583984375 0
434.25 329 0 430.882232666015625 327.824798583984375 0
434.25 329 100 430.882232666015625 327.824798583984375 0
433.75 329 100 430.882232666015625 327.824798583984375 0
523 66.25 0 517.5299072265625 65.6837615966796875 0
523 65.75 0 517.5299072265625 65.6837615966796875 0
523 65.75 100 517.5299072265625 65.6837615966796875 0
523 66.25 100 517.5299072265625 65.6837615966796875 0
640 66.25 0 635.5299072265625 65.6837615966796875 0
640 65.75 0 635.5299072265625 65.6837615966796875 0
640 65.75 100 635.5299072265625 65.6837615966796875 0
640 66.25 100 635.5299072265625 65.6837615966796875 0
253 470.25 0 248.965179443359375 460.89178466796875 0
253 469.75 0 248.965179443359375 460.89178466796875 0
253 469.75 100 248.965179443359375 460.89178466796875 0
253 470.25 100 248.965179443359375 460.89178466796875 0
333 469.75 0 324.210540771484375 458.761688232421875 0
333 470.25 0 324.210540771484375 458.761688232421875 0
333 470.25 100 324.210540771484375 458.761688232421875 0
333 469.75 100 324.210540771484375 458.761688232421875 0
203.25 469.75 0 0 0 -1
202.75 470.25 0 0 0 -1
202.75 61 0 0 0 -1
203.25 61 0 0 0 -1
203.25 469.75 100 0 0 1
202.75 470.25 100 0 0 1
202.75 61 100 0 0 1
203.25 61 100 0 0 1
202.75 470.25 0 0 0 -1
203.25 469.75 0 0 0 -1
253 469.75 0 0 0 -1
253 470.25 0 0 0 -1
202.75 470.25 100 0 0 1
203.25 469.75 100 0 0 1
253 469.75 100 0 0 1
253 470.25 100 0 0 1
697.25 410 0 0 0 -1
696.75 410 0 0 0 -1
696.75 270 0 0 0 -1
697.25 270 0 0 0 -1
697.25 410 100 0 0 1
696.75 410 100 0 0 1
696.75 270 100 0 0 1
697.25 270 100 0 0 1
697.25 202 0 0 0 -1
696.75 202 0 0 0 -1
696.75 61 0 0 0 -1
697.25 61 0 0 0 -1
697.25 202 100 0 0 1
696.75 202 100 0 0 1
696.75 61 100 0 0 1
697.25 61 100 0 0 1
434.25 178.25 0 0 0 -1
433.75 177.75 0 0 0 -1
516 177.75 0 0 0 -1
516 178.25 0 0 0 -1
434.25 178.25 100 0 0 1
433.75 177.75 100 0 0 1
516 177.75 100 0 0 1
516 178.25 100 0 0 1
433.75 177.75 0 0 0 -1
434.25 178.25 0 0 0 -1
434.25 329 0 0 0 -1
433.75 329 0 0 0 -1
433.75 177.75 100 0 0 1
434.25 178.25 100 0 0 1
434.25 329 100 0 0 1
433.75 329 100 0 0 1
435 295.25 0 0 0 -1
435 294.75 0 0 0 -1
516 294.75 0 0 0 -1
516 295.25 0 0 0 -1
435 295.25 100 0 0 1
435 294.75 100 0 0 1
516 294.75 100 0 0 1
516 295.25 100 0 0 1
451 410.25 0 0 0 -1
451 409.75 0 0 0 -1
550 409.75 0 0 0 -1
550 410.25 0 0 0 -1
451 410.25 100 0 0 1
451 409.75 100 0 0 1
550 409.75 100 0 0 1
550 410.25 100 0 0 1
376.25 1.25 0 0 0 -1
375.75 0.75 0 0 0 -1
415 0.75 0 0 0 -1
415 1.25 0 0 0 -1
376.25 1.25 100 0 0 1
375.75 0.75 100 0 0 1
415 0.75 100 0 0 1
415 1.25 100 0 0 1
375.75 0.75 0 0 0 -1
376.25 1.25 0 0 0 -1
376.25 67 0 0 0 -1
375.75 67 0 0 0 -1
375.75 0.75 100 0 0 1
376.25 1.25 100 0 0 1
376.25 67 100 0 0 1
375.75 67 100 0 0 1
286 66.25 0 0 0 -1
286 65.75 0 0 0 -1
308 65.75 0 0 0 -1
308 66.25 0 0 0 -1
286 66.25 100 0 0 1
286 65.75 100 0 0 1
308 65.75 100 0 0 1
308 66.25 100 0 0 1
517.75 0 0 0 0 -1
518.25 0 0 0 0 -1
518.25 334 0 0 0 -1
517.75 334 0 0 0 -1
517.75 0 100 0 0 1
518.25 0 100 0 0 1
518.25 334 100 0 0 1
517.75 334 100 0 0 1
375.75 329 0 0 0 -1
376.25 329 0 0 0 -1
376.25 470.25 0 0 0 -1
375.75 469.75 0 0 0 -1
375.75 329 100 0 0 1
376.25 329 100 0 0 1
376.25 470.25 100 0 0 1
375.75 469.75 100 0 0 1
375.75 469.75 0 0 0 -1
376.25 470.25 0 0 0 -1
333 470.25 0 0 0 -1
333 469.75 0 0 0 -1
375.75 469.75 100 0 0 1
376.25 470.25 100 0 0 1
333 470.25 100 0 0 1
333 469.75 100 0 0 1
523 66.25 0 0 0 -1
523 65.75 0 0 0 -1
640 65.75 0 0 0 -1
640 66.25 0 0 0 -1
523 66.25 100 0 0 1
523 65.75 100 0 0 1
640 65.75 100 0 0 1
640 66.25 100 0 0 1
4 0 1 2 3
4 4 5 6 7
4 8 9 10 11
4 12 13 14 15
4 16 17 18 19
4 20 21 22 23
4 24 25 26 27
4 28 29 30 31
4 32 33 34 35
4 36 37 38 39
4 40 41 42 43
4 44 45 46 47
4 48 49 50 51
4 52 53 54 55
4 56 57 58 59
4 60 61 62 63
4 64 65 66 67
4 68 69 70 71
4 72 73 74 75
4 76 77 78 79
4 80 81 82 83
4 84 85 86 87
4 88 89 90 91
4 92 93 94 95
4 96 97 98 99
4 100 101 102 103
4 104 105 106 107
4 108 109 110 111
4 112 113 114 115
4 116 117 118 119
4 120 121 122 123
4 124 125 126 127
4 128 129 130 131
4 132 133 134 135
4 136 137 138 139
4 140 141 142 143
4 144 145 146 147
4 148 149 150 151
4 152 153 154 155
4 156 157 158 159
4 160 161 162 163
4 164 165 166 167
4 168 169 170 171
4 172 173 174 175
4 176 177 178 179
4 180 181 182 183
4 184 185 186 187
4 188 189 190 191
4 192 193 194 195
4 196 197 198 199
4 200 201 202 203
4 204 205 206 207
4 208 209 210 211
4 212 213 214 215
4 216 217 218 219
4 220 221 222 223
4 224 225 226 227
4 228 229 230 231
4 232 233 234 235
4 236 237 238 239
4 240 241 242 243
4 244 245 246 247
4 248 249 250 251
4 252 253 254 255
4 256 257 258 259
4 260 261 262 263
4 264 265 266 267
4 268 269 270 271
4 272 273 274 275
4 276 277 278 279
4 280 281 282 283
4 284 285 286 287
4 288 289 290 291
4 292 293 294 295
4 296 297 298 299
4 300 301 302 303
4 304 305 306 307
4 308 309 310 311
4 312 313 314 315
4 316 317 318 319
4 320 321 322 323
4 324 325 326 327
