ply
format ascii 1.0
element vertex 616
property float x
property float y
property float z
property float nx
property float ny
property float nz
element quads 154
property list uchar int vertex_indices
end_header
213 460 0 1 0 0
213 27 0 1 0 0
213 27 100 1 0 0
213 460 100 1 0 0
207 460 0 -1 -0 0
207 21 0 -1 -0 0
207 21 100 -1 -0 0
207 460 100 -1 -0 0
213 27 0 -0 1 0
231 27 0 -0 1 0
231 27 100 -0 1 0
213 27 100 -0 1 0
207 21 0 0 -1 0
231 21 0 0 -1 0
231 21 100 0 -1 0
207 21 100 0 -1 0
503 21.0556697845458984 0 -0 -1 0
366 21.0556697845458984 0 -0 -1 0
366 21.0556697845458984 100 -0 -1 0
503 21.0556697845458984 100 -0 -1 0
503 27.0556697845458984 0 0 1 0
366 27.0556697845458984 0 0 1 0
366 27.0556697845458984 100 0 1 0
503 27.0556697845458984 100 0 1 0
231 27 0 -0 1 0
251 27 0 -0 1 0
251 27 100 -0 1 0
231 27 100 -0 1 0
231 21 0 0 -1 0
251 21 0 0 -1 0
251 21 100 0 -1 0
231 21 100 0 -1 0
393 509 0 1 0 0
393 375.757354736328125 0 1 0 0
393 375.757354736328125 100 1 0 0
393 509 100 1 0 0
387 515 0 -1 -0 0
387 378.242645263671875 0 -1 -0 0
387 378.242645263671875 100 -1 -0 0
387 515 100 -1 -0 0
387 515 0 -0 1 0
419 515 0 -0 1 0
419 515 100 -0 1 0
387 515 100 -0 1 0
393 509 0 0 -1 0
419 509 0 0 -1 0
419 509 100 0 -1 0
393 509 100 0 -1 0
393 375.757354736328125 0 0.70710676908493042 -0.70710676908493042 0
374.242645263671875 357 0 0.70710676908493042 -0.70710676908493042 0
374.242645263671875 357 100 0.70710676908493042 -0.70710676908493042 0
393 375.757354736328125 100 0.70710676908493042 -0.70710676908493042 0
387 378.242645263671875 0 -0.70710676908493042 0.70710676908493042 0
371.757354736328125 363 0 -0.70710676908493042 0.70710676908493042 0
371.757354736328125 363 100 -0.70710676908493042 0.70710676908493042 0
387 378.242645263671875 100 -0.70710676908493042 0.70710676908493042 0
427.07208251953125 231 0 1 0 0
427.07208251953125 184 0 1 0 0
427.07208251953125 184 100 1 0 0
427.07208251953125 231 100 1 0 0
421.07208251953125 231 0 -1 -0 0
421.07208251953125 184 0 -1 -0 0
421.07208251953125 184 100 -1 -0 0
421.07208251953125 231 100 -1 -0 0
427.07208251953125 292 0 1 0 0
427.07208251953125 264 0 1 0 0
427.07208251953125 264 100 1 0 0
427.07208251953125 292 100 1 0 0
421.07208251953125 292 0 -1 -0 0
421.07208251953125 264 0 -1 -0 0
421.07208251953125 264 100 -1 -0 0
421.07208251953125 292 100 -1 -0 0
229.849456787109375 459 0 1 0 0
229.849456787109375 440 0 1 0 0
229.849456787109375 440 100 1 0 0
229.849456787109375 459 100 1 0 0
223.849456787109375 459 0 -1 -0 0
223.849456787109375 440 0 -1 -0 0
223.849456787109375 440 100 -1 -0 0
223.849456787109375 459 100 -1 -0 0
248 440.9505615234375 0 -0 -1 0
234 440.9505615234375 0 -0 -1 0
234 440.9505615234375 100 -0 -1 0
248 440.9505615234375 100 -0 -1 0
248 446.9505615234375 0 0 1 0
234 446.9505615234375 0 0 1 0
234 446.9505615234375 100 0 1 0
248 446.9505615234375 100 0 1 0
523 272 0 -0 -1 0
462 272 0 -0 -1 0
462 272 100 -0 -1 0
523 272 100 -0 -1 0
523 278 0 0 1 0
462 278 0 0 1 0
462 278 100 0 1 0
523 278 100 0 1 0
385 491.99200439453125 0 -0 -1 0
356 491.99200439453125 0 -0 -1 0
356 491.99200439453125 100 -0 -1 0
385 491.99200439453125 100 -0 -1 0
385 497.99200439453125 0 0 1 0
356 497.99200439453125 0 0 1 0
356 497.99200439453125 100 0 1 0
385 497.99200439453125 100 0 1 0
234 491.99200439453125 0 -0 -1 0
206 491.99200439453125 0 -0 -1 0
206 491.99200439453125 100 -0 -1 0
234 491.99200439453125 100 -0 -1 0
234 497.99200439453125 0 0 1 0
206 497.99200439453125 0 0 1 0
206 497.99200439453125 100 0 1 0
234 497.99200439453125 100 0 1 0
374.242645263671875 357 0 -0 -1 0
348 357 0 -0 -1 0
348 357 100 -0 -1 0
374.242645263671875 357 100 -0 -1 0
371.757354736328125 363 0 0 1 0
354 363 0 0 1 0
354 363 100 0 1 0
371.757354736328125 363 100 0 1 0
348 357 0 -1 0 0
348 375 0 -1 0 0
348 375 100 -1 0 0
348 357 100 -1 0 0
354 363 0 1 -0 0
354 375 0 1 -0 0
354 375 100 1 -0 0
354 363 100 1 -0 0
613 150 0 -0 -1 0
565 150 0 -0 -1 0
565 150 100 -0 -1 0
613 150 100 -0 -1 0
613 156 0 0 1 0
571 156 0 0 1 0
571 156 100 0 1 0
613 156 100 0 1 0
565 150 0 -1 0 0
565 182.00146484375 0 -1 0 0
565 182.00146484375 100 -1 0 0
565 150 100 -1 0 0
571 156 0 1 -0 0
571 187.99853515625 0 1 -0 0
571 187.99853515625 100 1 -0 0
571 156 100 1 -0 0
459 218 0 -0 -1 0
427 218 0 -0 -1 0
427 218 100 -0 -1 0
459 218 100 -0 -1 0
459 224 0 0 1 0
427 224 0 0 1 0
427 224 100 0 1 0
459 224 100 0 1 0
615.3226318359375 228.99658203125 0 -0.999999344348907471 -0.0011400978546589613 0
615.00341796875 509.002227783203125 0 -0.999999344348907471 -0.0011400978546589613 0
615.00341796875 509.002227783203125 100 -0.999999344348907471 -0.0011400978546589613 0
615.3226318359375 228.99658203125 100 -0.999999344348907471 -0.0011400978546589613 0
621.3226318359375 229.00341796875 0 0.999999344348907471 0.0011400978546589613 0
620.99658203125 514.99774169921875 0 0.999999344348907471 0.0011400978546589613 0
620.99658203125 514.99774169921875 100 0.999999344348907471 0.0011400978546589613 0
621.3226318359375 229.00341796875 100 0.999999344348907471 0.0011400978546589613 0
615.00341796875 509.002227783203125 0 -0.000745773722883313894 -0.999999701976776123 0
589.99774169921875 509.0208740234375 0 -0.000745773722883313894 -0.999999701976776123 0
589.99774169921875 509.0208740234375 100 -0.000745773722883313894 -0.999999701976776123 0
615.00341796875 509.002227783203125 100 -0.000745773722883313894 -0.999999701976776123 0
620.99658203125 514.99774169921875 0 0.000745773722883313894 0.999999701976776123 0
590.00225830078125 515.0208740234375 0 0.000745773722883313894 0.999999701976776123 0
590.00225830078125 515.0208740234375 100 0.000745773722883313894 0.999999701976776123 0
620.99658203125 514.99774169921875 100 0.000745773722883313894 0.999999701976776123 0
621 194 0 1 0 0
621 20.9973049163818359 0 1 0 0
621 20.9973049163818359 100 1 0 0
621 194 100 1 0 0
615 194 0 -1 -0 0
615 27.0026950836181641 0 -1 -0 0
615 27.0026950836181641 100 -1 -0 0
615 194 100 -1 -0 0
621 20.9973049163818359 0 -0.000897887570317834616 -0.999999582767486572 0
555.997314453125 21.0556697845458984 0 -0.000897887570317834616 -0.999999582767486572 0
555.997314453125 21.0556697845458984 100 -0.000897887570317834616 -0.999999582767486572 0
621 20.9973049163818359 100 -0.000897887570317834616 -0.999999582767486572 0
615 27.0026950836181641 0 0.000897887570317834616 0.999999582767486572 0
556.002685546875 27.0556678771972656 0 0.000897887570317834616 0.999999582767486572 0
556.002685546875 27.0556678771972656 100 0.000897887570317834616 0.999999582767486572 0
615 27.0026950836181641 100 0.000897887570317834616 0.999999582767486572 0
458.500030517578125 183.9835205078125 0 -0.999984920024871826 -0.00549442274495959282 0
458.016204833984375 272.04083251953125 0 -0.999984920024871826 -0.00549442274495959282 0
458.016204833984375 272.04083251953125 100 -0.999984920024871826 -0.00549442274495959282 0
458.500030517578125 183.9835205078125 100 -0.999984920024871826 -0.00549442274495959282 0
464.499969482421875 184.0164794921875 0 0.999984920024871826 0.00549442274495959282 0
463.983795166015625 277.95916748046875 0 0.999984920024871826 0.00549442274495959282 0
463.983795166015625 277.95916748046875 100 0.999984920024871826 0.00549442274495959282 0
464.499969482421875 184.0164794921875 100 0.999984920024871826 0.00549442274495959282 0
458.016204833984375 272.04083251953125 0 -0.0137752722948789597 -0.999905109405517578 0
424.95867919921875 272.496246337890625 0 -0.0137752722948789597 -0.999905109405517578 0
424.95867919921875 272.496246337890625 100 -0.0137752722948789597 -0.999905109405517578 0
458.016204833984375 272.04083251953125 100 -0.0137752722948789597 -0.999905109405517578 0
463.983795166015625 277.95916748046875 0 0.0137752722948789597 0.999905109405517578 0
425.04132080078125 278.49566650390625 0 0.0137752722948789597 0.999905109405517578 0
425.04132080078125 278.49566650390625 100 0.0137752722948789597 0.999905109405517578 0
463.983795166015625 277.95916748046875 100 0.0137752722948789597 0.999905109405517578 0
522.2603759765625 239.984375 0 -0.999986469745635986 -0.00520703010261058807 0
521.98431396484375 293 0 -0.999986469745635986 -0.00520703010261058807 0
521.98431396484375 293 100 -0.999986469745635986 -0.00520703010261058807 0
522.2603759765625 239.984375 100 -0.999986469745635986 -0.00520703010261058807 0
528.26031494140625 240.015625 0 0.999986469745635986 0.00520703010261058807 0
528.01568603515625 287 0 0.999986469745635986 0.00520703010261058807 0
528.01568603515625 287 100 0.999986469745635986 0.00520703010261058807 0
528.26031494140625 240.015625 100 0.999986469745635986 0.00520703010261058807 0
521.98431396484375 293 0 -0 1 0
614 293 0 -0 1 0
614 293 100 -0 1 0
521.98431396484375 293 100 -0 1 0
528.01568603515625 287 0 0 -1 0
614 287 0 0 -1 0
614 287 100 0 -1 0
528.01568603515625 287 100 0 -1 0
515.00146484375 188.025802612304688 0 0.000486914126668125391 0.999999880790710449 0
571 187.99853515625 0 0.000486914126668125391 0.999999880790710449 0
571 187.99853515625 100 0.000486914126668125391 0.999999880790710449 0
515.00146484375 188.025802612304688 100 0.000486914126668125391 0.999999880790710449 0
514.99853515625 182.025802612304688 0 -0.000486914126668125391 -0.999999880790710449 0
565 182.00146484375 0 -0.000486914126668125391 -0.999999880790710449 0
565 182.00146484375 100 -0.000486914126668125391 -0.999999880790710449 0
514.99853515625 182.025802612304688 100 -0.000486914126668125391 -0.999999880790710449 0
385 441 0 -0 -1 0
354.059844970703125 441 0 -0 -1 0
354.059844970703125 441 100 -0 -1 0
385 441 100 -0 -1 0
385 447 0 0 1 0
347.940155029296875 447 0 0 1 0
347.940155029296875 447 100 0 1 0
385 447 100 0 1 0
354.059844970703125 441 0 0.999804973602294922 0.0197492334991693497 0
354.29571533203125 429.059234619140625 0 0.999804973602294922 0.0197492334991693497 0
354.29571533203125 429.059234619140625 100 0.999804973602294922 0.0197492334991693497 0
354.059844970703125 441 100 0.999804973602294922 0.0197492334991693497 0
347.940155029296875 447 0 -0.999804973602294922 -0.0197492334991693497 0
348.296875 428.940765380859375 0 -0.999804973602294922 -0.0197492334991693497 0
348.296875 428.940765380859375 100 -0.999804973602294922 -0.0197492334991693497 0
347.940155029296875 447 100 -0.999804973602294922 -0.0197492334991693497 0
213 460 0 212.508087158203125 459.937652587890625 0
207 460 0 212.508087158203125 459.937652587890625 0
207 460 100 212.508087158203125 459.937652587890625 0
213 460 100 212.508087158203125 459.937652587890625 0
503 21.0556697845458984 0 500.328460693359375 20.9019775390625 0
503 27.0556697845458984 0 500.328460693359375 20.9019775390625 0
503 27.0556697845458984 100 500.328460693359375 20.9019775390625 0
503 21.0556697845458984 100 500.328460693359375 20.9019775390625 0
366 21.0556697845458984 0 362.328460693359375 20.9019775390625 0
366 27.0556697845458984 0 362.328460693359375 20.9019775390625 0
366 27.0556697845458984 100 362.328460693359375 20.9019775390625 0
366 21.0556697845458984 100 362.328460693359375 20.9019775390625 0
251 27 0 239.449996948242188 25.6499996185302734 0
251 21 0 239.449996948242188 25.6499996185302734 0
251 21 100 239.449996948242188 25.6499996185302734 0
251 27 100 239.449996948242188 25.6499996185302734 0
427.07208251953125 231 0 417.985443115234375 227.085113525390625 0
421.07208251953125 231 0 417.985443115234375 227.085113525390625 0
421.07208251953125 231 100 417.985443115234375 227.085113525390625 0
427.07208251953125 231 100 417.985443115234375 227.085113525390625 0
427.07208251953125 184 0 417.985443115234375 179.085113525390625 0
421.07208251953125 184 0 417.985443115234375 179.085113525390625 0
421.07208251953125 184 100 417.985443115234375 179.085113525390625 0
427.07208251953125 184 100 417.985443115234375 179.085113525390625 0
427.07208251953125 292 0 411.819488525390625 282.571441650390625 0
421.07208251953125 292 0 411.819488525390625 282.571441650390625 0
421.07208251953125 292 100 411.819488525390625 282.571441650390625 0
427.07208251953125 292 100 411.819488525390625 282.571441650390625 0
427.07208251953125 264 0 411.819488525390625 253.571426391601562 0
421.07208251953125 264 0 411.819488525390625 253.571426391601562 0
421.07208251953125 264 100 411.819488525390625 253.571426391601562 0
427.07208251953125 264 100 411.819488525390625 253.571426391601562 0
229.849456787109375 459 0 217.752120971679688 435.84210205078125 0
223.849456787109375 459 0 217.752120971679688 435.84210205078125 0
223.849456787109375 459 100 217.752120971679688 435.84210205078125 0
229.849456787109375 459 100 217.752120971679688 435.84210205078125 0
229.849456787109375 440 0 217.752120971679688 415.84210205078125 0
223.849456787109375 440 0 217.752120971679688 415.84210205078125 0
223.849456787109375 440 100 217.752120971679688 415.84210205078125 0
229.849456787109375 440 100 217.752120971679688 415.84210205078125 0
248 440.9505615234375 0 231.285720825195312 409.4541015625 0
248 446.9505615234375 0 231.285720825195312 409.4541015625 0
248 446.9505615234375 100 231.285720825195312 409.4541015625 0
248 440.9505615234375 100 231.285720825195312 409.4541015625 0
234 440.9505615234375 0 216.285720825195312 409.4541015625 0
234 446.9505615234375 0 216.285720825195312 409.4541015625 0
234 446.9505615234375 100 216.285720825195312 409.4541015625 0
234 440.9505615234375 100 216.285720825195312 409.4541015625 0
523 272 0 515.42620849609375 267.540985107421875 0
523 278 0 515.42620849609375 267.540985107421875 0
523 278 100 515.42620849609375 267.540985107421875 0
523 272 100 515.42620849609375 267.540985107421875 0
462 272 0 453.426239013671875 267.540985107421875 0
462 278 0 453.426239013671875 267.540985107421875 0
462 278 100 453.426239013671875 267.540985107421875 0
462 272 100 453.426239013671875 267.540985107421875 0
419 515 0 406.90625 498.90625 0
419 509 0 406.90625 498.90625 0
419 509 100 406.90625 498.90625 0
419 515 100 406.90625 498.90625 0
385 491.99200439453125 0 372.724151611328125 475.026763916015625 0
385 497.99200439453125 0 372.724151611328125 475.026763916015625 0
385 497.99200439453125 100 372.724151611328125 475.026763916015625 0
385 491.99200439453125 100 372.724151611328125 475.026763916015625 0
356 491.99200439453125 0 342.724151611328125 475.026763916015625 0
356 497.99200439453125 0 342.724151611328125 475.026763916015625 0
356 497.99200439453125 100 342.724151611328125 475.026763916015625 0
356 491.99200439453125 100 342.724151611328125 475.026763916015625 0
234 491.99200439453125 0 226.642852783203125 474.420867919921875 0
234 497.99200439453125 0 226.642852783203125 474.420867919921875 0
234 497.99200439453125 100 226.642852783203125 474.420867919921875 0
234 491.99200439453125 100 226.642852783203125 474.420867919921875 0
206 491.99200439453125 0 197.642852783203125 474.420867919921875 0
206 497.99200439453125 0 197.642852783203125 474.420867919921875 0
206 497.99200439453125 100 197.642852783203125 474.420867919921875 0
206 491.99200439453125 100 197.642852783203125 474.420867919921875 0
613 150 0 601.22918701171875 146.875 0
613 156 0 601.22918701171875 146.875 0
613 156 100 601.22918701171875 146.875 0
613 150 100 601.22918701171875 146.875 0
459 218 0 445.65625 211.1875 0
459 224 0 445.65625 211.1875 0
459 224 100 445.65625 211.1875 0
459 218 100 445.65625 211.1875 0
427 218 0 412.65625 211.1875 0
427 224 0 412.65625 211.1875 0
427 224 100 412.65625 211.1875 0
427 218 100 412.65625 211.1875 0
348 375 0 328.666656494140625 355.166656494140625 0
354 375 0 328.666656494140625 355.166656494140625 0
354 375 100 328.666656494140625 355.166656494140625 0
348 375 100 328.666656494140625 355.166656494140625 0
615.3226318359375 228.99658203125 0 613.12628173828125 227.178756713867188 0
621.3226318359375 229.00341796875 0 613.12628173828125 227.178756713867188 0
621.3226318359375 229.00341796875 100 613.12628173828125 227.178756713867188 0
615.3226318359375 228.99658203125 100 613.12628173828125 227.178756713867188 0
589.99774169921875 509.0208740234375 0 565.4031982421875 488.6654052734375 0
590.00225830078125 515.0208740234375 0 565.4031982421875 488.6654052734375 0
590.00225830078125 515.0208740234375 100 565.4031982421875 488.6654052734375 0
589.99774169921875 509.0208740234375 100 565.4031982421875 488.6654052734375 0
621 194 0 617.41046142578125 193.878631591796875 0
615 194 0 617.41046142578125 193.878631591796875 0
615 194 100 617.41046142578125 193.878631591796875 0
621 194 100 617.41046142578125 193.878631591796875 0
555.997314453125 21.0556697845458984 0 546.44384765625 20.7326488494873047 0
556.002685546875 27.0556678771972656 0 546.44384765625 20.7326488494873047 0
556.002685546875 27.0556678771972656 100 546.44384765625 20.7326488494873047 0
555.997314453125 21.0556697845458984 100 546.44384765625 20.7326488494873047 0
458.500030517578125 183.9835205078125 0 453.29876708984375 180.894195556640625 0
464.499969482421875 184.0164794921875 0 453.29876708984375 180.894195556640625 0
464.499969482421875 184.0164794921875 100 453.29876708984375 180.894195556640625 0
458.500030517578125 183.9835205078125 100 453.29876708984375 180.894195556640625 0
424.95867919921875 272.496246337890625 0 411.1048583984375 264.2677001953125 0
425.04132080078125 278.49566650390625 0 411.1048583984375 264.2677001953125 0
425.04132080078125 278.49566650390625 100 411.1048583984375 264.2677001953125 0
424.95867919921875 272.496246337890625 100 411.1048583984375 264.2677001953125 0
522.2603759765625 239.984375 0 512.4146728515625 234.457778930664062 0
528.26031494140625 240.015625 0 512.4146728515625 234.457778930664062 0
528.26031494140625 240.015625 100 512.4146728515625 234.457778930664062 0
522.2603759765625 239.984375 100 512.4146728515625 234.457778930664062 0
614 293 0 608.32720947265625 289.815765380859375 0
614 287 0 608.32720947265625 289.815765380859375 0
614 287 100 608.32720947265625 289.815765380859375 0
614 293 100 608.32720947265625 289.815765380859375 0
515.00146484375 188.025802612304688 0 504.804779052734375 184.668609619140625 0
514.99853515625 182.025802612304688 0 504.804779052734375 184.668609619140625 0
514.99853515625 182.025802612304688 100 504.804779052734375 184.668609619140625 0
515.00146484375 188.025802612304688 100 504.804779052734375 184.668609619140625 0
385 441 0 373.556610107421875 426.746673583984375 0
385 447 0 373.556610107421875 426.746673583984375 0
385 447 100 373.556610107421875 426.746673583984375 0
385 441 100 373.556610107421875 426.746673583984375 0
354.29571533203125 429.059234619140625 0 324.650115966796875 392.13409423828125 0
348.296875 428.940765380859375 0 324.650115966796875 392.13409423828125 0
348.296875 428.940765380859375 100 324.650115966796875 392.13409423828125 0
354.29571533203125 429.059234619140625 100 324.650115966796875 392.13409423828125 0
213 460 0 0 0 -1
207 460 0 0 0 -1
207 21 0 0 0 -1
213 27 0 0 0 -1
213 460 100 0 0 1
207 460 100 0 0 1
207 21 100 0 0 1
213 27 100 0 0 1
213 27 0 0 0 -1
207 21 0 0 0 -1
231 21 0 0 0 -1
231 27 0 0 0 -1
213 27 100 0 0 1
207 21 100 0 0 1
231 21 100 0 0 1
231 27 100 0 0 1
503 21.0556697845458984 0 0 0 -1
503 27.0556697845458984 0 0 0 -1
366 27.0556697845458984 0 0 0 -1
366 21.0556697845458984 0 0 0 -1
503 21.0556697845458984 100 0 0 1
503 27.0556697845458984 100 0 0 1
366 27.0556697845458984 100 0 0 1
366 21.0556697845458984 100 0 0 1
231 27 0 0 0 -1
231 21 0 0 0 -1
251 21 0 0 0 -1
251 27 0 0 0 -1
231 27 100 0 0 1
231 21 100 0 0 1
251 21 100 0 0 1
251 27 100 0 0 1
393 509 0 0 0 -1
387 515 0 0 0 -1
387 378.242645263671875 0 0 0 -1
393 375.757354736328125 0 0 0 -1
393 509 100 0 0 1
387 515 100 0 0 1
387 378.242645263671875 100 0 0 1
393 375.757354736328125 100 0 0 1
387 515 0 0 0 -1
393 509 0 0 0 -1
419 509 0 0 0 -1
419 515 0 0 0 -1
387 515 100 0 0 1
393 509 100 0 0 1
419 509 100 0 0 1
419 515 100 0 0 1
393 375.757354736328125 0 0 0 -1
387 378.242645263671875 0 0 0 -1
371.757354736328125 363 0 0 0 -1
374.242645263671875 357 0 0 0 -1
393 375.757354736328125 100 0 0 1
387 378.242645263671875 100 0 0 1
371.757354736328125 363 100 0 0 1
374.242645263671875 357 100 0 0 1
427.07208251953125 231 0 0 0 -1
421.07208251953125 231 0 0 0 -1
421.07208251953125 184 0 0 0 -1
427.07208251953125 184 0 0 0 -1
427.07208251953125 231 100 0 0 1
421.07208251953125 231 100 0 0 1
421.07208251953125 184 100 0 0 1
427.07208251953125 184 100 0 0 1
427.07208251953125 292 0 0 0 -1
421.07208251953125 292 0 0 0 -1
421.07208251953125 264 0 0 0 -1
427.07208251953125 264 0 0 0 -1
427.07208251953125 292 100 0 0 1
421.07208251953125 292 100 0 0 1
421.07208251953125 264 100 0 0 1
427.07208251953125 264 100 0 0 1
229.849456787109375 459 0 0 0 -1
223.849456787109375 459 0 0 0 -1
223.849456787109375 440 0 0 0 -1
229.849456787109375 440 0 0 0 -1
229.849456787109375 459 100 0 0 1
223.849456787109375 459 100 0 0 1
223.849456787109375 440 100 0 0 1
229.849456787109375 440 100 0 0 1
248 440.9505615234375 0 0 0 -1
248 446.9505615234375 0 0 0 -1
234 446.9505615234375 0 0 0 -1
234 440.9505615234375 0 0 0 -1
248 440.9505615234375 100 0 0 1
248 446.9505615234375 100 0 0 1
234 446.9505615234375 100 0 0 1
234 440.9505615234375 100 0 0 1
523 272 0 0 0 -1
523 278 0 0 0 -1
462 278 0 0 0 -1
462 272 0 0 0 -1
523 272 100 0 0 1
523 278 100 0 0 1
462 278 100 0 0 1
462 272 100 0 0 1
385 491.99200439453125 0 0 0 -1
385 497.99200439453125 0 0 0 -1
356 497.99200439453125 0 0 0 -1
356 491.99200439453125 0 0 0 -1
385 491.99200439453125 100 0 0 1
385 497.99200439453125 100 0 0 1
356 497.99200439453125 100 0 0 1
356 491.99200439453125 100 0 0 1
234 491.99200439453125 0 0 0 -1
234 497.99200439453125 0 0 0 -1
206 497.99200439453125 0 0 0 -1
206 491.99200439453125 0 0 0 -1
234 491.99200439453125 100 0 0 1
234 497.99200439453125 100 0 0 1
206 497.99200439453125 100 0 0 1
206 491.99200439453125 100 0 0 1
374.242645263671875 357 0 0 0 -1
371.757354736328125 363 0 0 0 -1
354 363 0 0 0 -1
348 357 0 0 0 -1
374.242645263671875 357 100 0 0 1
371.757354736328125 363 100 0 0 1
354 363 100 0 0 1
348 357 100 0 0 1
348 357 0 0 0 -1
354 363 0 0 0 -1
354 375 0 0 0 -1
348 375 0 0 0 -1
348 357 100 0 0 1
354 363 100 0 0 1
354 375 100 0 0 1
348 375 100 0 0 1
613 150 0 0 0 -1
613 156 0 0 0 -1
571 156 0 0 0 -1
565 150 0 0 0 -1
613 150 100 0 0 1
613 156 100 0 0 1
571 156 100 0 0 1
565 150 100 0 0 1
565 150 0 0 0 -1
571 156 0 0 0 -1
571 187.99853515625 0 0 0 -1
565 182.00146484375 0 0 0 -1
565 150 100 0 0 1
571 156 100 0 0 1
571 187.99853515625 100 0 0 1
565 182.00146484375 100 0 0 1
459 218 0 0 0 -1
459 224 0 0 0 -1
427 224 0 0 0 -1
427 218 0 0 0 -1
459 218 100 0 0 1
459 224 100 0 0 1
427 224 100 0 0 1
427 218 100 0 0 1
615.3226318359375 228.99658203125 0 0 0 -1
621.3226318359375 229.00341796875 0 0 0 -1
620.99658203125 514.99774169921875 0 0 0 -1
615.00341796875 509.002227783203125 0 0 0 -1
615.3226318359375 228.99658203125 100 0 0 1
621.3226318359375 229.00341796875 100 0 0 1
620.99658203125 514.99774169921875 100 0 0 1
615.00341796875 509.002227783203125 100 0 0 1
615.00341796875 509.002227783203125 0 0 0 -1
620.99658203125 514.99774169921875 0 0 0 -1
590.00225830078125 515.0208740234375 0 0 0 -1
589.99774169921875 509.0208740234375 0 0 0 -1
615.00341796875 509.002227783203125 100 0 0 1
620.99658203125 514.99774169921875 100 0 0 1
590.00225830078125 515.0208740234375 100 0 0 1
589.99774169921875 509.0208740234375 100 0 0 1
621 194 0 0 0 -1
615 194 0 0 0 -1
615 27.0026950836181641 0 0 0 -1
621 20.9973049163818359 0 0 0 -1
621 194 100 0 0 1
615 194 100 0 0 1
615 27.0026950836181641 100 0 0 1
621 20.9973049163818359 100 0 0 1
621 20.9973049163818359 0 0 0 -1
615 27.0026950836181641 0 0 0 -1
556.002685546875 27.0556678771972656 0 0 0 -1
555.997314453125 21.0556697845458984 0 0 0 -1
621 20.9973049163818359 100 0 0 1
615 27.0026950836181641 100 0 0 1
556.002685546875 27.0556678771972656 100 0 0 1
555.997314453125 21.0556697845458984 100 0 0 1
458.500030517578125 183.9835205078125 0 0 0 -1
464.499969482421875 184.0164794921875 0 0 0 -1
463.983795166015625 277.95916748046875 0 0 0 -1
458.016204833984375 272.04083251953125 0 0 0 -1
458.500030517578125 183.9835205078125 100 0 0 1
464.499969482421875 184.0164794921875 100 0 0 1
463.983795166015625 277.95916748046875 100 0 0 1
458.016204833984375 272.04083251953125 100 0 0 1
458.016204833984375 272.04083251953125 0 0 0 -1
463.983795166015625 277.95916748046875 0 0 0 -1
425.04132080078125 278.49566650390625 0 0 0 -1
424.95867919921875 272.496246337890625 0 0 0 -1
458.016204833984375 272.04083251953125 100 0 0 1
463.983795166015625 277.95916748046875 100 0 0 1
425.04132080078125 278.49566650390625 100 0 0 1
424.95867919921875 272.496246337890625 100 0 0 1
522.2603759765625 239.984375 0 0 0 -1
528.26031494140625 240.015625 0 0 0 -1
528.01568603515625 287 0 0 0 -1
521.98431396484375 293 0 0 0 -1
522.2603759765625 239.984375 100 0 0 1
528.26031494140625 240.015625 100 0 0 1
528.01568603515625 287 100 0 0 1
521.98431396484375 293 100 0 0 1
521.98431396484375 293 0 0 0 -1
528.01568603515625 287 0 0 0 -1
614 287 0 0 0 -1
614 293 0 0 0 -1
521.98431396484375 293 100 0 0 1
528.01568603515625 287 100 0 0 1
614 287 100 0 0 1
614 293 100 0 0 1
515.00146484375 188.025802612304688 0 0 0 -1
514.99853515625 182.025802612304688 0 0 0 -1
565 182.00146484375 0 0 0 -1
571 187.99853515625 0 0 0 -1
515.00146484375 188.025802612304688 100 0 0 1
514.99853515625 182.025802612304688 100 0 0 1
565 182.00146484375 100 0 0 1
571 187.99853515625 100 0 0 1
385 441 0 0 0 -1
385 447 0 0 0 -1
347.940155029296875 447 0 0 0 -1
354.059844970703125 441 0 0 0 -1
385 441 100 0 0 1
385 447 100 0 0 1
347.940155029296875 447 100 0 0 1
354.059844970703125 441 100 0 0 1
354.059844970703125 441 0 0 0 -1
347.940155029296875 447 0 0 0 -1
348.296875 428.940765380859375 0 0 0 -1
354.29571533203125 429.059234619140625 0 0 0 -1
354.059844970703125 441 100 0 0 1
347.940155029296875 447 100 0 0 1
348.296875 428.940765380859375 100 0 0 1
354.29571533203125 429.059234619140625 100 0 0 1
4 0 1 2 3
4 4 5 6 7
4 8 9 10 11
4 12 13 14 15
4 16 17 18 19
4 20 21 22 23
4 24 25 26 27
4 28 29 30 31
4 32 33 34 35
4 36 37 38 39
4 40 41 42 43
4 44 45 46 47
4 48 49 50 51
4 52 53 54 55
4 56 57 58 59
4 60 61 62 63
4 64 65 66 67
4 68 69 70 71
4 72 73 74 75
4 76 77 78 79
4 80 81 82 83
4 84 85 86 87
4 88 89 90 91
4 92 93 94 95
4 96 97 98 99
4 100 101 102 103
4 104 105 106 107
4 108 109 110 111
4 112 113 114 115
4 116 117 118 119
4 120 121 122 123
4 124 125 126 127
4 128 129 130 131
4 132 133 134 135
4 136 137 138 139
4 140 141 142 143
4 144 145 146 147
4 148 149 150 151
4 152 153 154 155
4 156 157 158 159
4 160 161 162 163
4 164 165 166 167
4 168 169 170 171
4 172 173 174 175
4 176 177 178 179
4 180 181 182 183
4 184 185 186 187
4 188 189 190 191
4 192 193 194 195
4 196 197 198 199
4 200 201 202 203
4 204 205 206 207
4 208 209 210 211
4 212 213 214 215
4 216 217 218 219
4 220 221 222 223
4 224 225 226 227
4 228 229 230 231
4 232 233 234 235
4 236 237 238 239
4 240 241 242 243
4 244 245 246 247
4 248 249 250 251
4 252 253 254 255
4 256 257 258 259
4 260 261 262 263
4 264 265 266 267
4 268 269 270 271
4 272 273 274 275
4 276 277 278 279
4 280 281 282 283
4 284 285 286 287
4 288 289 290 291
4 292 293 294 295
4 296 297 298 299
4 300 301 302 303
4 304 305 306 307
4 308 309 310 311
4 312 313 314 315
4 316 317 318 319
4 320 321 322 323
4 324 325 326 327
4 328 329 330 331
4 332 333 334 335
4 336 337 338 339
4 340 341 342 343
4 344 345 346 347
4 348 349 350 351
4 352 353 354 355
4 356 357 358 359
4 360 361 362 363
4 364 365 366 367
4 368 369 370 371
4 372 373 374 375
4 376 377 378 379
4 380 381 382 383
4 384 385 386 387
4 388 389 390 391
4 392 393 394 395
4 396 397 398 399
4 400 401 402 403
4 404 405 406 407
4 408 409 410 411
4 412 413 414 415
4 416 417 418 419
4 420 421 422 423
4 424 425 426 427
4 428 429 430 431
4 432 433 434 435
4 436 437 438 439
4 440 441 442 443
4 444 445 446 447
4 448 449 450 451
4 452 453 454 455
4 456 457 458 459
4 460 461 462 463
4 464 465 466 467
4 468 469 470 471
4 472 473 474 475
4 476 477 478 479
4 480 481 482 483
4 484 485 486 487
4 488 489 490 491
4 492 493 494 495
4 496 497 498 499
4 500 501 502 503
4 504 505 506 507
4 508 509 510 511
4 512 513 514 515
4 516 517 518 519
4 520 521 522 523
4 524 525 526 527
4 528 529 530 531
4 532 533 534 535
4 536 537 538 539
4 540 541 542 543
4 544 545 546 547
4 548 549 550 551
4 552 553 554 555
4 556 557 558 559
4 560 561 562 563
4 564 565 566 567
4 568 569 570 571
4 572 573 574 575
4 576 577 578 579
4 580 581 582 583
4 584 585 586 587
4 588 589 590 591
4 592 593 594 595
4 596 597 598 599
4 600 601 602 603
4 604 605 606 607
4 608 609 610 611
4 612 613 614 615
