ply
format ascii 1.0
element vertex 152
property float x
property float y
property float z
property float nx
property float ny
property float nz
element quads 38
property list uchar int vertex_indices
end_header
326.25 137 0 1 0 0
326.25 20.25 0 1 0 0
326.25 20.25 100 1 0 0
326.25 137 100 1 0 0
325.75 137 0 -1 -0 0
325.75 19.75 0 -1 -0 0
325.75 19.75 100 -1 -0 0
325.75 137 100 -1 -0 0
326.25 20.25 0 -0 1 0
514.75 20.25 0 -0 1 0
514.75 20.25 100 -0 1 0
326.25 20.25 100 -0 1 0
325.75 19.75 0 0 -1 0
515.25 19.75 0 0 -1 0
515.25 19.75 100 0 -1 0
325.75 19.75 100 0 -1 0
285.25 137 0 1 0 0
285.25 94 0 1 0 0
285.25 94 100 1 0 0
285.25 137 100 1 0 0
284.75 137 0 -1 -0 0
284.75 94 0 -1 -0 0
284.75 94 100 -1 -0 0
284.75 137 100 -1 -0 0
514.75 20.25 0 -1 0 0
514.75 165 0 -1 0 0
514.75 165 100 -1 0 0
514.75 20.25 100 -1 0 0
515.25 19.75 0 1 -0 0
515.25 165 0 1 -0 0
515.25 165 100 1 -0 0
515.25 19.75 100 1 -0 0
404.75 338 0 -1 0 0
404.75 381 0 -1 0 0
404.75 381 100 -1 0 0
404.75 338 100 -1 0 0
405.25 338 0 1 -0 0
405.25 381 0 1 -0 0
405.25 381 100 1 -0 0
405.25 338 100 1 -0 0
343.75 337 0 -1 0 0
343.75 381 0 -1 0 0
343.75 381 100 -1 0 0
343.75 337 100 -1 0 0
344.25 337 0 1 -0 0
344.25 381 0 1 -0 0
344.25 381 100 1 -0 0
344.25 337 100 1 -0 0
224.75 94 0 -1 0 0
224.75 138 0 -1 0 0
224.75 138 100 -1 0 0
224.75 94 100 -1 0 0
225.25 94 0 1 -0 0
225.25 138 0 1 -0 0
225.25 138 100 1 -0 0
225.25 94 100 1 -0 0
326.25 137 0 323.45556640625 136.826553344726562 0
325.75 137 0 323.45556640625 136.826553344726562 0
325.75 137 100 323.45556640625 136.826553344726562 0
326.25 137 100 323.45556640625 136.826553344726562 0
285.25 137 0 278.61627197265625 134.813949584960938 0
284.75 137 0 278.61627197265625 134.813949584960938 0
284.75 137 100 278.61627197265625 134.813949584960938 0
285.25 137 100 278.61627197265625 134.813949584960938 0
285.25 94 0 278.61627197265625 90.8139572143554688 0
284.75 94 0 278.61627197265625 90.8139572143554688 0
284.75 94 100 278.61627197265625 90.8139572143554688 0
285.25 94 100 278.61627197265625 90.8139572143554688 0
514.75 165 0 511.193878173828125 164.860107421875 0
515.25 165 0 511.193878173828125 164.860107421875 0
515.25 165 100 511.193878173828125 164.860107421875 0
514.75 165 100 511.193878173828125 164.860107421875 0
404.75 338 0 395.33721923828125 329.1395263671875 0
405.25 338 0 395.33721923828125 329.1395263671875 0
405.25 338 100 395.33721923828125 329.1395263671875 0
404.75 338 100 395.33721923828125 329.1395263671875 0
404.75 381 0 395.33721923828125 373.1395263671875 0
405.25 381 0 395.33721923828125 373.1395263671875 0
405.25 381 100 395.33721923828125 373.1395263671875 0
404.75 381 100 395.33721923828125 373.1395263671875 0
343.75 337 0 335.9375 328.340911865234375 0
344.25 337 0 335.9375 328.340911865234375 0
344.25 337 100 335.9375 328.340911865234375 0
343.75 337 100 335.9375 328.340911865234375 0
343.75 381 0 335.9375 373.340911865234375 0
344.25 381 0 335.9375 373.340911865234375 0
344.25 381 100 335.9375 373.340911865234375 0
343.75 381 100 335.9375 373.340911865234375 0
224.75 94 0 219.642044067382812 90.8636398315429688 0
225.25 94 0 219.642044067382812 90.8636398315429688 0
225.25 94 100 219.642044067382812 90.8636398315429688 0
224.75 94 100 219.642044067382812 90.8636398315429688 0
224.75 138 0 219.642044067382812 135.863632202148438 0
225.25 138 0 219.642044067382812 135.863632202148438 0
225.25 138 100 219.642044067382812 135.863632202148438 0
224.75 138 100 219.642044067382812 135.863632202148438 0
326.25 137 0 0 0 -1
325.75 137 0 0 0 -1
325.75 19.75 0 0 0 -1
326.25 20.25 0 0 0 -1
326.25 137 100 0 0 1
325.75 137 100 0 0 1
325.75 19.75 100 0 0 1
326.25 20.25 100 0 0 1
326.25 20.25 0 0 0 -1
325.75 19.75 0 0 0 -1
515.25 19.75 0 0 0 -1
514.75 20.25 0 0 0 -1
326.25 20.25 100 0 0 1
325.75 19.75 100 0 0 1
515.25 19.75 100 0 0 1
514.75 20.25 100 0 0 1
285.25 137 0 0 0 -1
284.75 137 0 0 0 -1
284.75 94 0 0 0 -1
285.25 94 0 0 0 -1
285.25 137 100 0 0 1
284.75 137 100 0 0 1
284.75 94 100 0 0 1
285.25 94 100 0 0 1
514.75 20.25 0 0 0 -1
515.25 19.75 0 0 0 -1
515.25 165 0 0 0 -1
514.75 165 0 0 0 -1
514.75 20.25 100 0 0 1
515.25 19.75 100 0 0 1
515.25 165 100 0 0 1
514.75 165 100 0 0 1
404.75 338 0 0 0 -1
405.25 338 0 0 0 -1
405.25 381 0 0 0 -1
404.75 381 0 0 0 -1
404.75 338 100 0 0 1
405.25 338 100 0 0 1
405.25 381 100 0 0 1
404.75 381 100 0 0 1
343.75 337 0 0 0 -1
344.25 337 0 0 0 -1
344.25 381 0 0 0 -1
343.75 381 0 0 0 -1
343.75 337 100 0 0 1
344.25 337 100 0 0 1
344.25 381 100 0 0 1
343.75 381 100 0 0 1
224.75 94 0 0 0 -1
225.25 94 0 0 0 -1
225.25 138 0 0 0 -1
224.75 138 0 0 0 -1
224.75 94 100 0 0 1
225.25 94 100 0 0 1
225.25 138 100 0 0 1
224.75 138 100 0 0 1
4 0 1 2 3
4 4 5 6 7
4 8 9 10 11
4 12 13 14 15
4 16 17 18 19
4 20 21 22 23
4 24 25 26 27
4 28 29 30 31
4 32 33 34 35
4 36 37 38 39
4 40 41 42 43
4 44 45 46 47
4 48 49 50 51
4 52 53 54 55
4 56 57 58 59
4 60 61 62 63
4 64 65 66 67
4 68 69 70 71
4 72 73 74 75
4 76 77 78 79
4 80 81 82 83
4 84 85 86 87
4 88 89 90 91
4 92 93 94 95
4 96 97 98 99
4 100 101 102 103
4 104 105 106 107
4 108 109 110 111
4 112 113 114 115
4 116 117 118 119
4 120 121 122 123
4 124 125 126 127
4 128 129 130 131
4 132 133 134 135
4 136 137 138 139
4 140 141 142 143
4 144 145 146 147
4 148 149 150 151
