ply
format ascii 1.0
element vertex 432
property float x
property float y
property float z
property float nx
property float ny
property float nz
element quads 108
property list uchar int vertex_indices
end_header
639.25 485 0 1 0 0
639.25 0 0 1 0 0
639.25 0 100 1 0 0
639.25 485 100 1 0 0
638.75 485 0 -1 -0 0
638.75 0 0 -1 -0 0
638.75 0 100 -1 -0 0
638.75 485 100 -1 -0 0
343 8.25 0 -0 1 0
530 8.25 0 -0 1 0
530 8.25 100 -0 1 0
343 8.25 100 -0 1 0
343 7.75 0 0 -1 0
530 7.75 0 0 -1 0
530 7.75 100 0 -1 0
343 7.75 100 0 -1 0
436.25 107 0 1 0 0
436.25 2 0 1 0 0
436.25 2 100 1 0 0
436.25 107 100 1 0 0
435.75 107 0 -1 -0 0
435.75 2 0 -1 -0 0
435.75 2 100 -1 -0 0
435.75 107 100 -1 -0 0
415 439.25 0 -0 1 0
451 439.25 0 -0 1 0
451 439.25 100 -0 1 0
415 439.25 100 -0 1 0
415 438.75 0 0 -1 0
451 438.75 0 0 -1 0
451 438.75 100 0 -1 0
415 438.75 100 0 -1 0
203 8.25 0 -0 1 0
274 8.25 0 -0 1 0
274 8.25 100 -0 1 0
203 8.25 100 -0 1 0
203 7.75 0 0 -1 0
274 7.75 0 0 -1 0
274 7.75 100 0 -1 0
203 7.75 100 0 -1 0
532.25 485 0 1 0 0
532.25 438.75 0 1 0 0
532.25 438.75 100 1 0 0
532.25 485 100 1 0 0
531.75 485 0 -1 -0 0
531.75 439.25 0 -1 -0 0
531.75 439.25 100 -1 -0 0
531.75 485 100 -1 -0 0
532.25 438.75 0 -0 -1 0
497 438.75 0 -0 -1 0
497 438.75 100 -0 -1 0
532.25 438.75 100 -0 -1 0
531.75 439.25 0 0 1 0
497 439.25 0 0 1 0
497 439.25 100 0 1 0
531.75 439.25 100 0 1 0
576 8.25 0 -0 1 0
633 8.25 0 -0 1 0
633 8.25 100 -0 1 0
576 8.25 100 -0 1 0
576 7.75 0 0 -1 0
633 7.75 0 0 -1 0
633 7.75 100 0 -1 0
576 7.75 100 0 -1 0
475.25 136 0 1 0 0
475.25 9 0 1 0 0
475.25 9 100 1 0 0
475.25 136 100 1 0 0
474.75 136 0 -1 -0 0
474.75 9 0 -1 -0 0
474.75 9 100 -1 -0 0
474.75 136 100 -1 -0 0
397.25 107.25 0 -0 1 0
476 107.25 0 -0 1 0
476 107.25 100 -0 1 0
397.25 107.25 100 -0 1 0
396.75 106.75 0 0 -1 0
476 106.75 0 0 -1 0
476 106.75 100 0 -1 0
396.75 106.75 100 0 -1 0
396.75 106.75 0 -1 0 0
396.75 136 0 -1 0 0
396.75 136 100 -1 0 0
396.75 106.75 100 -1 0 0
397.25 107.25 0 1 -0 0
397.25 136 0 1 -0 0
397.25 136 100 1 -0 0
397.25 107.25 100 1 -0 0
194.75 0 0 -1 0 0
194.75 471 0 -1 0 0
194.75 471 100 -1 0 0
194.75 0 100 -1 0 0
195.25 0 0 1 -0 0
195.25 471 0 1 -0 0
195.25 471 100 1 -0 0
195.25 0 100 1 -0 0
512.75 277.75 0 -1 0 0
512.75 439 0 -1 0 0
512.75 439 100 -1 0 0
512.75 277.75 100 -1 0 0
513.25 278.25 0 1 -0 0
513.25 439 0 1 -0 0
513.25 439 100 1 -0 0
513.25 278.25 100 1 -0 0
513.25 278.25 0 -0 1 0
633 278.25 0 -0 1 0
633 278.25 100 -0 1 0
513.25 278.25 100 -0 1 0
512.75 277.75 0 0 -1 0
633 277.75 0 0 -1 0
633 277.75 100 0 -1 0
512.75 277.75 100 0 -1 0
413.75 286 0 -1 0 0
413.75 465.75 0 -1 0 0
413.75 465.75 100 -1 0 0
413.75 286 100 -1 0 0
414.25 286 0 1 -0 0
414.25 466.25 0 1 -0 0
414.25 466.25 100 1 -0 0
414.25 286 100 1 -0 0
413.75 465.75 0 -0 -1 0
203 465.75 0 -0 -1 0
203 465.75 100 -0 -1 0
413.75 465.75 100 -0 -1 0
414.25 466.25 0 0 1 0
203 466.25 0 0 1 0
203 466.25 100 0 1 0
414.25 466.25 100 0 1 0
203 171.25 0 -0 1 0
358.75 171.25 0 -0 1 0
358.75 171.25 100 -0 1 0
203 171.25 100 -0 1 0
203 170.75 0 0 -1 0
359.25 170.75 0 0 -1 0
359.25 170.75 100 0 -1 0
203 170.75 100 0 -1 0
358.75 171.25 0 -1 0 0
358.75 233.75 0 -1 0 0
358.75 233.75 100 -1 0 0
358.75 171.25 100 -1 0 0
359.25 170.75 0 1 -0 0
359.25 234.25 0 1 -0 0
359.25 234.25 100 1 -0 0
359.25 170.75 100 1 -0 0
510 171.25 0 -0 1 0
633 171.25 0 -0 1 0
633 171.25 100 -0 1 0
510 171.25 100 -0 1 0
510 170.75 0 0 -1 0
633 170.75 0 0 -1 0
633 170.75 100 0 -1 0
510 170.75 100 0 -1 0
358.75 233.75 0 -0 -1 0
203 233.75 0 -0 -1 0
203 233.75 100 -0 -1 0
358.75 233.75 100 -0 -1 0
359.25 234.25 0 0 1 0
203 234.25 0 0 1 0
203 234.25 100 0 1 0
359.25 234.25 100 0 1 0
639.25 485 0 637.93194580078125 485 0
638.75 485 0 637.93194580078125 485 0
638.75 485 100 637.93194580078125 485 0
639.25 485 100 637.93194580078125 485 0
639.25 0 0 637.93194580078125 -1 0
638.75 0 0 637.93194580078125 -1 0
638.75 0 100 637.93194580078125 -1 0
639.25 0 100 637.93194580078125 -1 0
343 8.25 0 340.165771484375 8.20588207244873047 0
343 7.75 0 340.165771484375 8.20588207244873047 0
343 7.75 100 340.165771484375 8.20588207244873047 0
343 8.25 100 340.165771484375 8.20588207244873047 0
530 8.25 0 528.165771484375 8.20588207244873047 0
530 7.75 0 528.165771484375 8.20588207244873047 0
530 7.75 100 528.165771484375 8.20588207244873047 0
530 8.25 100 528.165771484375 8.20588207244873047 0
436.25 107 0 432.095245361328125 106.980949401855469 0
435.75 107 0 432.095245361328125 106.980949401855469 0
435.75 107 100 432.095245361328125 106.980949401855469 0
436.25 107 100 432.095245361328125 106.980949401855469 0
436.25 2 0 432.095245361328125 0.98095238208770752 0
435.75 2 0 432.095245361328125 0.98095238208770752 0
435.75 2 100 432.095245361328125 0.98095238208770752 0
436.25 2 100 432.095245361328125 0.98095238208770752 0
415 439.25 0 402.47222900390625 427.048614501953125 0
415 438.75 0 402.47222900390625 427.048614501953125 0
415 438.75 100 402.47222900390625 427.048614501953125 0
415 439.25 100 402.47222900390625 427.048614501953125 0
451 439.25 0 439.47222900390625 427.048614501953125 0
451 438.75 0 439.47222900390625 427.048614501953125 0
451 438.75 100 439.47222900390625 427.048614501953125 0
451 439.25 100 439.47222900390625 427.048614501953125 0
203 8.25 0 199.140838623046875 8.13380241394042969 0
203 7.75 0 199.140838623046875 8.13380241394042969 0
203 7.75 100 199.140838623046875 8.13380241394042969 0
203 8.25 100 199.140838623046875 8.13380241394042969 0
274 8.25 0 271.140838623046875 8.13380241394042969 0
274 7.75 0 271.140838623046875 8.13380241394042969 0
274 7.75 100 271.140838623046875 8.13380241394042969 0
274 8.25 100 271.140838623046875 8.13380241394042969 0
532.25 485 0 520.74188232421875 475.513519287109375 0
531.75 485 0 520.74188232421875 475.513519287109375 0
531.75 485 100 520.74188232421875 475.513519287109375 0
532.25 485 100 520.74188232421875 475.513519287109375 0
576 8.25 0 564.89471435546875 8.10526275634765625 0
576 7.75 0 564.89471435546875 8.10526275634765625 0
576 7.75 100 564.89471435546875 8.10526275634765625 0
576 8.25 100 564.89471435546875 8.10526275634765625 0
633 8.25 0 622.89471435546875 8.10526275634765625 0
633 7.75 0 622.89471435546875 8.10526275634765625 0
633 7.75 100 622.89471435546875 8.10526275634765625 0
633 8.25 100 622.89471435546875 8.10526275634765625 0
475.25 136 0 471.50787353515625 135.92913818359375 0
474.75 136 0 471.50787353515625 135.92913818359375 0
474.75 136 100 471.50787353515625 135.92913818359375 0
475.25 136 100 471.50787353515625 135.92913818359375 0
475.25 9 0 471.50787353515625 7.92913389205932617 0
474.75 9 0 471.50787353515625 7.92913389205932617 0
474.75 9 100 471.50787353515625 7.92913389205932617 0
475.25 9 100 471.50787353515625 7.92913389205932617 0
497 438.75 0 481.90069580078125 426.303192138671875 0
497 439.25 0 481.90069580078125 426.303192138671875 0
497 439.25 100 481.90069580078125 426.303192138671875 0
497 438.75 100 481.90069580078125 426.303192138671875 0
476 107.25 0 470.95556640625 105.888092041015625 0
476 106.75 0 470.95556640625 105.888092041015625 0
476 106.75 100 470.95556640625 105.888092041015625 0
476 107.25 100 470.95556640625 105.888092041015625 0
194.75 0 0 194.336517333984375 -1 0
195.25 0 0 194.336517333984375 -1 0
195.25 0 100 194.336517333984375 -1 0
194.75 0 100 194.336517333984375 -1 0
194.75 471 0 194.336517333984375 471 0
195.25 471 0 194.336517333984375 471 0
195.25 471 100 194.336517333984375 471 0
194.75 471 100 194.336517333984375 471 0
512.75 439 0 509.570159912109375 437.27752685546875 0
513.25 439 0 509.570159912109375 437.27752685546875 0
513.25 439 100 509.570159912109375 437.27752685546875 0
512.75 439 100 509.570159912109375 437.27752685546875 0
413.75 286 0 411.44818115234375 283.408905029296875 0
414.25 286 0 411.44818115234375 283.408905029296875 0
414.25 286 100 411.44818115234375 283.408905029296875 0
413.75 286 100 411.44818115234375 283.408905029296875 0
203 171.25 0 200.696624755859375 170.150482177734375 0
203 170.75 0 200.696624755859375 170.150482177734375 0
203 170.75 100 200.696624755859375 170.150482177734375 0
203 171.25 100 200.696624755859375 170.150482177734375 0
510 171.25 0 504.853668212890625 169.85772705078125 0
510 170.75 0 504.853668212890625 169.85772705078125 0
510 170.75 100 504.853668212890625 169.85772705078125 0
510 171.25 100 504.853668212890625 169.85772705078125 0
633 171.25 0 628.8536376953125 169.85772705078125 0
633 170.75 0 628.8536376953125 169.85772705078125 0
633 170.75 100 628.8536376953125 169.85772705078125 0
633 171.25 100 628.8536376953125 169.85772705078125 0
633 278.25 0 628.7139892578125 275.926422119140625 0
633 277.75 0 628.7139892578125 275.926422119140625 0
633 277.75 100 628.7139892578125 275.926422119140625 0
633 278.25 100 628.7139892578125 275.926422119140625 0
203 233.75 0 200.696624755859375 232.249191284179688 0
203 234.25 0 200.696624755859375 232.249191284179688 0
203 234.25 100 200.696624755859375 232.249191284179688 0
203 233.75 100 200.696624755859375 232.249191284179688 0
396.75 136 0 383.185882568359375 132.350433349609375 0
397.25 136 0 383.185882568359375 132.350433349609375 0
397.25 136 100 383.185882568359375 132.350433349609375 0
396.75 136 100 383.185882568359375 132.350433349609375 0
203 465.75 0 201.036773681640625 463.5400390625 0
203 466.25 0 201.036773681640625 463.5400390625 0
203 466.25 100 201.036773681640625 463.5400390625 0
203 465.75 100 201.036773681640625 463.5400390625 0
639.25 485 0 0 0 -1
638.75 485 0 0 0 -1
638.75 0 0 0 0 -1
639.25 0 0 0 0 -1
639.25 485 100 0 0 1
638.75 485 100 0 0 1
638.75 0 100 0 0 1
639.25 0 100 0 0 1
343 8.25 0 0 0 -1
343 7.75 0 0 0 -1
530 7.75 0 0 0 -1
530 8.25 0 0 0 -1
343 8.25 100 0 0 1
343 7.75 100 0 0 1
530 7.75 100 0 0 1
530 8.25 100 0 0 1
436.25 107 0 0 0 -1
435.75 107 0 0 0 -1
435.75 2 0 0 0 -1
436.25 2 0 0 0 -1
436.25 107 100 0 0 1
435.75 107 100 0 0 1
435.75 2 100 0 0 1
436.25 2 100 0 0 1
415 439.25 0 0 0 -1
415 438.75 0 0 0 -1
451 438.75 0 0 0 -1
451 439.25 0 0 0 -1
415 439.25 100 0 0 1
415 438.75 100 0 0 1
451 438.75 100 0 0 1
451 439.25 100 0 0 1
203 8.25 0 0 0 -1
203 7.75 0 0 0 -1
274 7.75 0 0 0 -1
274 8.25 0 0 0 -1
203 8.25 100 0 0 1
203 7.75 100 0 0 1
274 7.75 100 0 0 1
274 8.25 100 0 0 1
532.25 485 0 0 0 -1
531.75 485 0 0 0 -1
531.75 439.25 0 0 0 -1
532.25 438.75 0 0 0 -1
532.25 485 100 0 0 1
531.75 485 100 0 0 1
531.75 439.25 100 0 0 1
532.25 438.75 100 0 0 1
532.25 438.75 0 0 0 -1
531.75 439.25 0 0 0 -1
497 439.25 0 0 0 -1
497 438.75 0 0 0 -1
532.25 438.75 100 0 0 1
531.75 439.25 100 0 0 1
497 439.25 100 0 0 1
497 438.75 100 0 0 1
576 8.25 0 0 0 -1
576 7.75 0 0 0 -1
633 7.75 0 0 0 -1
633 8.25 0 0 0 -1
576 8.25 100 0 0 1
576 7.75 100 0 0 1
633 7.75 100 0 0 1
633 8.25 100 0 0 1
475.25 136 0 0 0 -1
474.75 136 0 0 0 -1
474.75 9 0 0 0 -1
475.25 9 0 0 0 -1
475.25 136 100 0 0 1
474.75 136 100 0 0 1
474.75 9 100 0 0 1
475.25 9 100 0 0 1
397.25 107.25 0 0 0 -1
396.75 106.75 0 0 0 -1
476 106.75 0 0 0 -1
476 107.25 0 0 0 -1
397.25 107.25 100 0 0 1
396.75 106.75 100 0 0 1
476 106.75 100 0 0 1
476 107.25 100 0 0 1
396.75 106.75 0 0 0 -1
397.25 107.25 0 0 0 -1
397.25 136 0 0 0 -1
396.75 136 0 0 0 -1
396.75 106.75 100 0 0 1
397.25 107.25 100 0 0 1
397.25 136 100 0 0 1
396.75 136 100 0 0 1
194.75 0 0 0 0 -1
195.25 0 0 0 0 -1
195.25 471 0 0 0 -1
194.75 471 0 0 0 -1
194.75 0 100 0 0 1
195.25 0 100 0 0 1
195.25 471 100 0 0 1
194.75 471 100 0 0 1
512.75 277.75 0 0 0 -1
513.25 278.25 0 0 0 -1
513.25 439 0 0 0 -1
512.75 439 0 0 0 -1
512.75 277.75 100 0 0 1
513.25 278.25 100 0 0 1
513.25 439 100 0 0 1
512.75 439 100 0 0 1
513.25 278.25 0 0 0 -1
512.75 277.75 0 0 0 -1
633 277.75 0 0 0 -1
633 278.25 0 0 0 -1
513.25 278.25 100 0 0 1
512.75 277.75 100 0 0 1
633 277.75 100 0 0 1
633 278.25 100 0 0 1
413.75 286 0 0 0 -1
414.25 286 0 0 0 -1
414.25 466.25 0 0 0 -1
413.75 465.75 0 0 0 -1
413.75 286 100 0 0 1
414.25 286 100 0 0 1
414.25 466.25 100 0 0 1
413.75 465.75 100 0 0 1
413.75 465.75 0 0 0 -1
414.25 466.25 0 0 0 -1
203 466.25 0 0 0 -1
203 465.75 0 0 0 -1
413.75 465.75 100 0 0 1
414.25 466.25 100 0 0 1
203 466.25 100 0 0 1
203 465.75 100 0 0 1
203 171.25 0 0 0 -1
203 170.75 0 0 0 -1
359.25 170.75 0 0 0 -1
358.75 171.25 0 0 0 -1
203 171.25 100 0 0 1
203 170.75 100 0 0 1
359.25 170.75 100 0 0 1
358.75 171.25 100 0 0 1
358.75 171.25 0 0 0 -1
359.25 170.75 0 0 0 -1
359.25 234.25 0 0 0 -1
358.75 233.75 0 0 0 -1
358.75 171.25 100 0 0 1
359.25 170.75 100 0 0 1
359.25 234.25 100 0 0 1
358.75 233.75 100 0 0 1
510 171.25 0 0 0 -1
510 170.75 0 0 0 -1
633 170.75 0 0 0 -1
633 171.25 0 0 0 -1
510 171.25 100 0 0 1
510 170.75 100 0 0 1
633 170.75 100 0 0 1
633 171.25 100 0 0 1
358.75 233.75 0 0 0 -1
359.25 234.25 0 0 0 -1
203 234.25 0 0 0 -1
203 233.75 0 0 0 -1
358.75 233.75 100 0 0 1
359.25 234.25 100 0 0 1
203 234.25 100 0 0 1
203 233.75 100 0 0 1
4 0 1 2 3
4 4 5 6 7
4 8 9 10 11
4 12 13 14 15
4 16 17 18 19
4 20 21 22 23
4 24 25 26 27
4 28 29 30 31
4 32 33 34 35
4 36 37 38 39
4 40 41 42 43
4 44 45 46 47
4 48 49 50 51
4 52 53 54 55
4 56 57 58 59
4 60 61 62 63
4 64 65 66 67
4 68 69 70 71
4 72 73 74 75
4 76 77 78 79
4 80 81 82 83
4 84 85 86 87
4 88 89 90 91
4 92 93 94 95
4 96 97 98 99
4 100 101 102 103
4 104 105 106 107
4 108 109 110 111
4 112 113 114 115
4 116 117 118 119
4 120 121 122 123
4 124 125 126 127
4 128 129 130 131
4 132 133 134 135
4 136 137 138 139
4 140 141 142 143
4 144 145 146 147
4 148 149 150 151
4 152 153 154 155
4 156 157 158 159
4 160 161 162 163
4 164 165 166 167
4 168 169 170 171
4 172 173 174 175
4 176 177 178 179
4 180 181 182 183
4 184 185 186 187
4 188 189 190 191
4 192 193 194 195
4 196 197 198 199
4 200 201 202 203
4 204 205 206 207
4 208 209 210 211
4 212 213 214 215
4 216 217 218 219
4 220 221 222 223
4 224 225 226 227
4 228 229 230 231
4 232 233 234 235
4 236 237 238 239
4 240 241 242 243
4 244 245 246 247
4 248 249 250 251
4 252 253 254 255
4 256 257 258 259
4 260 261 262 263
4 264 265 266 267
4 268 269 270 271
4 272 273 274 275
4 276 277 278 279
4 280 281 282 283
4 284 285 286 287
4 288 289 290 291
4 292 293 294 295
4 296 297 298 299
4 300 301 302 303
4 304 305 306 307
4 308 309 310 311
4 312 313 314 315
4 316 317 318 319
4 320 321 322 323
4 324 325 326 327
4 328 329 330 331
4 332 333 334 335
4 336 337 338 339
4 340 341 342 343
4 344 345 346 347
4 348 349 350 351
4 352 353 354 355
4 356 357 358 359
4 360 361 362 363
4 364 365 366 367
4 368 369 370 371
4 372 373 374 375
4 376 377 378 379
4 380 381 382 383
4 384 385 386 387
4 388 389 390 391
4 392 393 394 395
4 396 397 398 399
4 400 401 402 403
4 404 405 406 407
4 408 409 410 411
4 412 413 414 415
4 416 417 418 419
4 420 421 422 423
4 424 425 426 427
4 428 429 430 431
