ply
format ascii 1.0
element vertex 208
property float x
property float y
property float z
property float nx
property float ny
property float nz
element quads 52
property list uchar int vertex_indices
end_header
330 139 0 1 0 0
330 20 0 1 0 0
330 20 100 1 0 0
330 139 100 1 0 0
324 133 0 -1 -0 0
324 14 0 -1 -0 0
324 14 100 -1 -0 0
324 133 100 -1 -0 0
324 133 0 -0 -1 0
289 133 0 -0 -1 0
289 133 100 -0 -1 0
324 133 100 -0 -1 0
330 139 0 0 1 0
283 139 0 0 1 0
283 139 100 0 1 0
330 139 100 0 1 0
330 20 0 -0 1 0
364 20 0 -0 1 0
364 20 100 -0 1 0
330 20 100 -0 1 0
324 14 0 0 -1 0
364 14 0 0 -1 0
364 14 100 0 -1 0
324 14 100 0 -1 0
451 14.1041669845581055 0 -0 -1 0
390 14.1041669845581055 0 -0 -1 0
390 14.1041669845581055 100 -0 -1 0
451 14.1041669845581055 100 -0 -1 0
451 20.1041660308837891 0 0 1 0
390 20.1041660308837891 0 0 1 0
390 20.1041660308837891 100 0 1 0
451 20.1041660308837891 100 0 1 0
347.99237060546875 381 0 1 0 0
347.99237060546875 337 0 1 0 0
347.99237060546875 337 100 1 0 0
347.99237060546875 381 100 1 0 0
341.99237060546875 381 0 -1 -0 0
341.99237060546875 337 0 -1 -0 0
341.99237060546875 337 100 -1 -0 0
341.99237060546875 381 100 -1 -0 0
289 133 0 1 0 0
289 94 0 1 0 0
289 94 100 1 0 0
289 133 100 1 0 0
283 139 0 -1 -0 0
283 94 0 -1 -0 0
283 94 100 -1 -0 0
283 139 100 -1 -0 0
408.0078125 381 0 1 0 0
408.0078125 338 0 1 0 0
408.0078125 338 100 1 0 0
408.0078125 381 100 1 0 0
402.0078125 381 0 -1 -0 0
402.0078125 338 0 -1 -0 0
402.0078125 338 100 -1 -0 0
402.0078125 381 100 -1 -0 0
228.015380859375 138 0 1 0 0
228.015380859375 94 0 1 0 0
228.015380859375 94 100 1 0 0
228.015380859375 138 100 1 0 0
222.015380859375 138 0 -1 -0 0
222.015380859375 94 0 -1 -0 0
222.015380859375 94 100 -1 -0 0
222.015380859375 138 100 -1 -0 0
519 165 0 1 0 0
519 15.069890022277832 0 1 0 0
519 15.069890022277832 100 1 0 0
519 165 100 1 0 0
513 165 0 -1 -0 0
513 20.9301090240478516 0 -1 -0 0
513 20.9301090240478516 100 -1 -0 0
513 165 100 -1 -0 0
519 15.069890022277832 0 0.0235680136829614639 -0.99972224235534668 0
478.070709228515625 14.1049995422363281 0 0.0235680136829614639 -0.99972224235534668 0
478.070709228515625 14.1049995422363281 100 0.0235680136829614639 -0.99972224235534668 0
519 15.069890022277832 100 0.0235680136829614639 -0.99972224235534668 0
513 20.9301090240478516 0 -0.0235680136829614639 0.99972224235534668 0
477.929290771484375 20.10333251953125 0 -0.0235680136829614639 0.99972224235534668 0
477.929290771484375 20.10333251953125 100 -0.0235680136829614639 0.99972224235534668 0
513 20.9301090240478516 100 -0.0235680136829614639 0.99972224235534668 0
451 14.1041669845581055 0 444.6065673828125 13.872950553894043 0
451 20.1041660308837891 0 444.6065673828125 13.872950553894043 0
451 20.1041660308837891 100 444.6065673828125 13.872950553894043 0
451 14.1041669845581055 100 444.6065673828125 13.872950553894043 0
390 14.1041669845581055 0 382.6065673828125 13.872950553894043 0
390 20.1041660308837891 0 382.6065673828125 13.872950553894043 0
390 20.1041660308837891 100 382.6065673828125 13.872950553894043 0
390 14.1041669845581055 100 382.6065673828125 13.872950553894043 0
364 20 0 354.29412841796875 19.4117641448974609 0
364 14 0 354.29412841796875 19.4117641448974609 0
364 14 100 354.29412841796875 19.4117641448974609 0
364 20 100 354.29412841796875 19.4117641448974609 0
347.99237060546875 381 0 340.08343505859375 373.340911865234375 0
341.99237060546875 381 0 340.08343505859375 373.340911865234375 0
341.99237060546875 381 100 340.08343505859375 373.340911865234375 0
347.99237060546875 381 100 340.08343505859375 373.340911865234375 0
347.99237060546875 337 0 340.08343505859375 328.340911865234375 0
341.99237060546875 337 0 340.08343505859375 328.340911865234375 0
341.99237060546875 337 100 340.08343505859375 328.340911865234375 0
347.99237060546875 337 100 340.08343505859375 328.340911865234375 0
289 94 0 281.589752197265625 90.5897445678710938 0
283 94 0 281.589752197265625 90.5897445678710938 0
283 94 100 281.589752197265625 90.5897445678710938 0
289 94 100 281.589752197265625 90.5897445678710938 0
408.0078125 381 0 398.519256591796875 373.1395263671875 0
402.0078125 381 0 398.519256591796875 373.1395263671875 0
402.0078125 381 100 398.519256591796875 373.1395263671875 0
408.0078125 381 100 398.519256591796875 373.1395263671875 0
408.0078125 338 0 398.519256591796875 329.1395263671875 0
402.0078125 338 0 398.519256591796875 329.1395263671875 0
402.0078125 338 100 398.519256591796875 329.1395263671875 0
408.0078125 338 100 398.519256591796875 329.1395263671875 0
228.015380859375 138 0 222.833221435546875 135.863632202148438 0
222.015380859375 138 0 222.833221435546875 135.863632202148438 0
222.015380859375 138 100 222.833221435546875 135.863632202148438 0
228.015380859375 138 100 222.833221435546875 135.863632202148438 0
228.015380859375 94 0 222.833221435546875 90.8636398315429688 0
222.015380859375 94 0 222.833221435546875 90.8636398315429688 0
222.015380859375 94 100 222.833221435546875 90.8636398315429688 0
228.015380859375 94 100 222.833221435546875 90.8636398315429688 0
519 165 0 515.53839111328125 164.899490356445312 0
513 165 0 515.53839111328125 164.899490356445312 0
513 165 100 515.53839111328125 164.899490356445312 0
519 165 100 515.53839111328125 164.899490356445312 0
478.070709228515625 14.1049995422363281 0 465.393829345703125 13.7369089126586914 0
477.929290771484375 20.10333251953125 0 465.393829345703125 13.7369089126586914 0
477.929290771484375 20.10333251953125 100 465.393829345703125 13.7369089126586914 0
478.070709228515625 14.1049995422363281 100 465.393829345703125 13.7369089126586914 0
330 139 0 0 0 -1
324 133 0 0 0 -1
324 14 0 0 0 -1
330 20 0 0 0 -1
330 139 100 0 0 1
324 133 100 0 0 1
324 14 100 0 0 1
330 20 100 0 0 1
324 133 0 0 0 -1
330 139 0 0 0 -1
283 139 0 0 0 -1
289 133 0 0 0 -1
324 133 100 0 0 1
330 139 100 0 0 1
283 139 100 0 0 1
289 133 100 0 0 1
330 20 0 0 0 -1
324 14 0 0 0 -1
364 14 0 0 0 -1
364 20 0 0 0 -1
330 20 100 0 0 1
324 14 100 0 0 1
364 14 100 0 0 1
364 20 100 0 0 1
451 14.1041669845581055 0 0 0 -1
451 20.1041660308837891 0 0 0 -1
390 20.1041660308837891 0 0 0 -1
390 14.1041669845581055 0 0 0 -1
451 14.1041669845581055 100 0 0 1
451 20.1041660308837891 100 0 0 1
390 20.1041660308837891 100 0 0 1
390 14.1041669845581055 100 0 0 1
347.99237060546875 381 0 0 0 -1
341.99237060546875 381 0 0 0 -1
341.99237060546875 337 0 0 0 -1
347.99237060546875 337 0 0 0 -1
347.99237060546875 381 100 0 0 1
341.99237060546875 381 100 0 0 1
341.99237060546875 337 100 0 0 1
347.99237060546875 337 100 0 0 1
289 133 0 0 0 -1
283 139 0 0 0 -1
283 94 0 0 0 -1
289 94 0 0 0 -1
289 133 100 0 0 1
283 139 100 0 0 1
283 94 100 0 0 1
289 94 100 0 0 1
408.0078125 381 0 0 0 -1
402.0078125 381 0 0 0 -1
402.0078125 338 0 0 0 -1
408.0078125 338 0 0 0 -1
408.0078125 381 100 0 0 1
402.0078125 381 100 0 0 1
402.0078125 338 100 0 0 1
408.0078125 338 100 0 0 1
228.015380859375 138 0 0 0 -1
222.015380859375 138 0 0 0 -1
222.015380859375 94 0 0 0 -1
228.015380859375 94 0 0 0 -1
228.015380859375 138 100 0 0 1
222.015380859375 138 100 0 0 1
222.015380859375 94 100 0 0 1
228.015380859375 94 100 0 0 1
519 165 0 0 0 -1
513 165 0 0 0 -1
513 20.9301090240478516 0 0 0 -1
519 15.069890022277832 0 0 0 -1
519 165 100 0 0 1
513 165 100 0 0 1
513 20.9301090240478516 100 0 0 1
519 15.069890022277832 100 0 0 1
519 15.069890022277832 0 0 0 -1
513 20.9301090240478516 0 0 0 -1
477.929290771484375 20.10333251953125 0 0 0 -1
478.070709228515625 14.1049995422363281 0 0 0 -1
519 15.069890022277832 100 0 0 1
513 20.9301090240478516 100 0 0 1
477.929290771484375 20.10333251953125 100 0 0 1
478.070709228515625 14.1049995422363281 100 0 0 1
4 0 1 2 3
4 4 5 6 7
4 8 9 10 11
4 12 13 14 15
4 16 17 18 19
4 20 21 22 23
4 24 25 26 27
4 28 29 30 31
4 32 33 34 35
4 36 37 38 39
4 40 41 42 43
4 44 45 46 47
4 48 49 50 51
4 52 53 54 55
4 56 57 58 59
4 60 61 62 63
4 64 65 66 67
4 68 69 70 71
4 72 73 74 75
4 76 77 78 79
4 80 81 82 83
4 84 85 86 87
4 88 89 90 91
4 92 93 94 95
4 96 97 98 99
4 100 101 102 103
4 104 105 106 107
4 108 109 110 111
4 112 113 114 115
4 116 117 118 119
4 120 121 122 123
4 124 125 126 127
4 128 129 130 131
4 132 133 134 135
4 136 137 138 139
4 140 141 142 143
4 144 145 146 147
4 148 149 150 151
4 152 153 154 155
4 156 157 158 159
4 160 161 162 163
4 164 165 166 167
4 168 169 170 171
4 172 173 174 175
4 176 177 178 179
4 180 181 182 183
4 184 185 186 187
4 188 189 190 191
4 192 193 194 195
4 196 197 198 199
4 200 201 202 203
4 204 205 206 207
