ply
format ascii 1.0
element vertex 528
property float x
property float y
property float z
property float nx
property float ny
property float nz
element quads 132
property list uchar int vertex_indices
end_header
426.25 212.25 0 1 0 0
426.25 20 0 1 0 0
426.25 20 100 1 0 0
426.25 212.25 100 1 0 0
425.75 211.75 0 -1 -0 0
425.75 20 0 -1 -0 0
425.75 20 100 -1 -0 0
425.75 211.75 100 -1 -0 0
425.75 211.75 0 -0 -1 0
85 211.75 0 -0 -1 0
85 211.75 100 -0 -1 0
425.75 211.75 100 -0 -1 0
426.25 212.25 0 0 1 0
85 212.25 0 0 1 0
85 212.25 100 0 1 0
426.25 212.25 100 0 1 0
267.25 214 0 1 0 0
267.25 104 0 1 0 0
267.25 104 100 1 0 0
267.25 214 100 1 0 0
266.75 214 0 -1 -0 0
266.75 104 0 -1 -0 0
266.75 104 100 -1 -0 0
266.75 214 100 -1 -0 0
219 22.25 0 -0 1 0
341 22.25 0 -0 1 0
341 22.25 100 -0 1 0
219 22.25 100 -0 1 0
219 21.75 0 0 -1 0
341 21.75 0 0 -1 0
341 21.75 100 0 -1 0
219 21.75 100 0 -1 0
607 212.25 0 -0 1 0
754 212.25 0 -0 1 0
754 212.25 100 -0 1 0
607 212.25 100 -0 1 0
607 211.75 0 0 -1 0
754 211.75 0 0 -1 0
754 211.75 100 0 -1 0
607 211.75 100 0 -1 0
190.25 264 0 1 0 0
190.25 215 0 1 0 0
190.25 215 100 1 0 0
190.25 264 100 1 0 0
189.75 264 0 -1 -0 0
189.75 215 0 -1 -0 0
189.75 215 100 -1 -0 0
189.75 264 100 -1 -0 0
399 22.25 0 -0 1 0
515 22.25 0 -0 1 0
515 22.25 100 -0 1 0
399 22.25 100 -0 1 0
399 21.75 0 0 -1 0
515 21.75 0 0 -1 0
515 21.75 100 0 -1 0
399 21.75 100 0 -1 0
205 506.25 0 -0 1 0
304 506.25 0 -0 1 0
304 506.25 100 -0 1 0
205 506.25 100 -0 1 0
205 505.75 0 0 -1 0
304 505.75 0 0 -1 0
304 505.75 100 0 -1 0
205 505.75 100 0 -1 0
466.75 319.25 0 -1 0 0
466.75 443.75 0 -1 0 0
466.75 443.75 100 -1 0 0
466.75 319.25 100 -1 0 0
467.25 318.75 0 1 -0 0
467.25 444.25 0 1 -0 0
467.25 444.25 100 1 -0 0
467.25 318.75 100 1 -0 0
467.25 318.75 0 -0 -1 0
266.75 318.75 0 -0 -1 0
266.75 318.75 100 -0 -1 0
467.25 318.75 100 -0 -1 0
466.75 319.25 0 0 1 0
267.25 319.25 0 0 1 0
267.25 319.25 100 0 1 0
466.75 319.25 100 0 1 0
466.75 443.75 0 -0 -1 0
425 443.75 0 -0 -1 0
425 443.75 100 -0 -1 0
466.75 443.75 100 -0 -1 0
467.25 444.25 0 0 1 0
425 444.25 0 0 1 0
425 444.25 100 0 1 0
467.25 444.25 100 0 1 0
82.75 21.75 0 -1 0 0
82.75 511 0 -1 0 0
82.75 511 100 -1 0 0
82.75 21.75 100 -1 0 0
83.25 22.25 0 1 -0 0
83.25 511 0 1 -0 0
83.25 511 100 1 -0 0
83.25 22.25 100 1 -0 0
83.25 22.25 0 -0 1 0
141 22.25 0 -0 1 0
141 22.25 100 -0 1 0
83.25 22.25 100 -0 1 0
82.75 21.75 0 0 -1 0
141 21.75 0 0 -1 0
141 21.75 100 0 -1 0
82.75 21.75 100 0 -1 0
550 444.25 0 -0 1 0
588 444.25 0 -0 1 0
588 444.25 100 -0 1 0
550 444.25 100 -0 1 0
550 443.75 0 0 -1 0
588 443.75 0 0 -1 0
588 443.75 100 0 -1 0
550 443.75 100 0 -1 0
701 22.25 0 -0 1 0
759.75 22.25 0 -0 1 0
759.75 22.25 100 -0 1 0
701 22.25 100 -0 1 0
701 21.75 0 0 -1 0
760.25 21.75 0 0 -1 0
760.25 21.75 100 0 -1 0
701 21.75 100 0 -1 0
759.75 22.25 0 -1 0 0
759.75 446 0 -1 0 0
759.75 446 100 -1 0 0
759.75 22.25 100 -1 0 0
760.25 21.75 0 1 -0 0
760.25 446 0 1 -0 0
760.25 446 100 1 -0 0
760.25 21.75 100 1 -0 0
75 506.25 0 -0 1 0
127 506.25 0 -0 1 0
127 506.25 100 -0 1 0
75 506.25 100 -0 1 0
75 505.75 0 0 -1 0
127 505.75 0 0 -1 0
127 505.75 100 0 -1 0
75 505.75 100 0 -1 0
315.75 20 0 -1 0 0
315.75 93 0 -1 0 0
315.75 93 100 -1 0 0
315.75 20 100 -1 0 0
316.25 20 0 1 -0 0
316.25 93 0 1 -0 0
316.25 93 100 1 -0 0
316.25 20 100 1 -0 0
382 506.25 0 -0 1 0
443 506.25 0 -0 1 0
443 506.25 100 -0 1 0
382 506.25 100 -0 1 0
382 505.75 0 0 -1 0
443 505.75 0 0 -1 0
443 505.75 100 0 -1 0
382 505.75 100 0 -1 0
266.75 318.75 0 -1 0 0
266.75 511 0 -1 0 0
266.75 511 100 -1 0 0
266.75 318.75 100 -1 0 0
267.25 319.25 0 1 -0 0
267.25 511 0 1 -0 0
267.25 511 100 1 -0 0
267.25 319.25 100 1 -0 0
559 22.25 0 -0 1 0
644 22.25 0 -0 1 0
644 22.25 100 -0 1 0
559 22.25 100 -0 1 0
559 21.75 0 0 -1 0
644 21.75 0 0 -1 0
644 21.75 100 0 -1 0
559 21.75 100 0 -1 0
179 263.25 0 -0 1 0
222 263.25 0 -0 1 0
222 263.25 100 -0 1 0
179 263.25 100 -0 1 0
179 262.75 0 0 -1 0
222 262.75 0 0 -1 0
222 262.75 100 0 -1 0
179 262.75 100 0 -1 0
279.75 105 0 -1 0 0
279.75 214 0 -1 0 0
279.75 214 100 -1 0 0
279.75 105 100 -1 0 0
280.25 105 0 1 -0 0
280.25 214 0 1 -0 0
280.25 214 100 1 -0 0
280.25 105 100 1 -0 0
425.75 317 0 -1 0 0
425.75 511 0 -1 0 0
425.75 511 100 -1 0 0
425.75 317 100 -1 0 0
426.25 317 0 1 -0 0
426.25 511 0 1 -0 0
426.25 511 100 1 -0 0
426.25 317 100 1 -0 0
426.25 20 0 424.0328369140625 18.8959693908691406 0
425.75 20 0 424.0328369140625 18.8959693908691406 0
425.75 20 100 424.0328369140625 18.8959693908691406 0
426.25 20 100 424.0328369140625 18.8959693908691406 0
267.25 214 0 264.820465087890625 213.054550170898438 0
266.75 214 0 264.820465087890625 213.054550170898438 0
266.75 214 100 264.820465087890625 213.054550170898438 0
267.25 214 100 264.820465087890625 213.054550170898438 0
267.25 104 0 264.820465087890625 102.054542541503906 0
266.75 104 0 264.820465087890625 102.054542541503906 0
266.75 104 100 264.820465087890625 102.054542541503906 0
267.25 104 100 264.820465087890625 102.054542541503906 0
219 22.25 0 216.204925537109375 22.0676231384277344 0
219 21.75 0 216.204925537109375 22.0676231384277344 0
219 21.75 100 216.204925537109375 22.0676231384277344 0
219 22.25 100 216.204925537109375 22.0676231384277344 0
341 22.25 0 339.204925537109375 22.0676231384277344 0
341 21.75 0 339.204925537109375 22.0676231384277344 0
341 21.75 100 339.204925537109375 22.0676231384277344 0
341 22.25 100 339.204925537109375 22.0676231384277344 0
607 212.25 0 601.8707275390625 210.806121826171875 0
607 211.75 0 601.8707275390625 210.806121826171875 0
607 211.75 100 601.8707275390625 210.806121826171875 0
607 212.25 100 601.8707275390625 210.806121826171875 0
754 212.25 0 749.8707275390625 210.806121826171875 0
754 211.75 0 749.8707275390625 210.806121826171875 0
754 211.75 100 749.8707275390625 210.806121826171875 0
754 212.25 100 749.8707275390625 210.806121826171875 0
190.25 264 0 186.367340087890625 259.61224365234375 0
189.75 264 0 186.367340087890625 259.61224365234375 0
189.75 264 100 186.367340087890625 259.61224365234375 0
190.25 264 100 186.367340087890625 259.61224365234375 0
190.25 215 0 186.367340087890625 209.61224365234375 0
189.75 215 0 186.367340087890625 209.61224365234375 0
189.75 215 100 186.367340087890625 209.61224365234375 0
190.25 215 100 186.367340087890625 209.61224365234375 0
399 22.25 0 394.560333251953125 22.0581893920898438 0
399 21.75 0 394.560333251953125 22.0581893920898438 0
399 21.75 100 394.560333251953125 22.0581893920898438 0
399 22.25 100 394.560333251953125 22.0581893920898438 0
515 22.25 0 511.560333251953125 22.0581893920898438 0
515 21.75 0 511.560333251953125 22.0581893920898438 0
515 21.75 100 511.560333251953125 22.0581893920898438 0
515 22.25 100 511.560333251953125 22.0581893920898438 0
205 506.25 0 201.929290771484375 501.1363525390625 0
205 505.75 0 201.929290771484375 501.1363525390625 0
205 505.75 100 201.929290771484375 501.1363525390625 0
205 506.25 100 201.929290771484375 501.1363525390625 0
304 506.25 0 301.929290771484375 501.1363525390625 0
304 505.75 0 301.929290771484375 501.1363525390625 0
304 505.75 100 301.929290771484375 501.1363525390625 0
304 506.25 100 301.929290771484375 501.1363525390625 0
82.75 511 0 82.5808639526367188 510.955535888671875 0
83.25 511 0 82.5808639526367188 510.955535888671875 0
83.25 511 100 82.5808639526367188 510.955535888671875 0
82.75 511 100 82.5808639526367188 510.955535888671875 0
141 22.25 0 139.558441162109375 21.8647193908691406 0
141 21.75 0 139.558441162109375 21.8647193908691406 0
141 21.75 100 139.558441162109375 21.8647193908691406 0
141 22.25 100 139.558441162109375 21.8647193908691406 0
550 444.25 0 534.52630615234375 432.5592041015625 0
550 443.75 0 534.52630615234375 432.5592041015625 0
550 443.75 100 534.52630615234375 432.5592041015625 0
550 444.25 100 534.52630615234375 432.5592041015625 0
588 444.25 0 573.52630615234375 432.5592041015625 0
588 443.75 0 573.52630615234375 432.5592041015625 0
588 443.75 100 573.52630615234375 432.5592041015625 0
588 444.25 100 573.52630615234375 432.5592041015625 0
701 22.25 0 688.068115234375 21.87127685546875 0
701 21.75 0 688.068115234375 21.87127685546875 0
701 21.75 100 688.068115234375 21.87127685546875 0
701 22.25 100 688.068115234375 21.87127685546875 0
75 506.25 0 72.5576934814453125 496.514434814453125 0
75 505.75 0 72.5576934814453125 496.514434814453125 0
75 505.75 100 72.5576934814453125 496.514434814453125 0
75 506.25 100 72.5576934814453125 496.514434814453125 0
127 506.25 0 125.557693481445312 496.514434814453125 0
127 505.75 0 125.557693481445312 496.514434814453125 0
127 505.75 100 125.557693481445312 496.514434814453125 0
127 506.25 100 125.557693481445312 496.514434814453125 0
425 443.75 0 413.82037353515625 433.121246337890625 0
425 444.25 0 413.82037353515625 433.121246337890625 0
425 444.25 100 413.82037353515625 433.121246337890625 0
425 443.75 100 413.82037353515625 433.121246337890625 0
315.75 20 0 311.424652099609375 18.7260265350341797 0
316.25 20 0 311.424652099609375 18.7260265350341797 0
316.25 20 100 311.424652099609375 18.7260265350341797 0
315.75 20 100 311.424652099609375 18.7260265350341797 0
315.75 93 0 311.424652099609375 92.7260284423828125 0
316.25 93 0 311.424652099609375 92.7260284423828125 0
316.25 93 100 311.424652099609375 92.7260284423828125 0
315.75 93 100 311.424652099609375 92.7260284423828125 0
382 506.25 0 374.737701416015625 497.9508056640625 0
382 505.75 0 374.737701416015625 497.9508056640625 0
382 505.75 100 374.737701416015625 497.9508056640625 0
382 506.25 100 374.737701416015625 497.9508056640625 0
443 506.25 0 436.737701416015625 497.9508056640625 0
443 505.75 0 436.737701416015625 497.9508056640625 0
443 505.75 100 436.737701416015625 497.9508056640625 0
443 506.25 100 436.737701416015625 497.9508056640625 0
266.75 511 0 265.36248779296875 509.342010498046875 0
267.25 511 0 265.36248779296875 509.342010498046875 0
267.25 511 100 265.36248779296875 509.342010498046875 0
266.75 511 100 265.36248779296875 509.342010498046875 0
559 22.25 0 551.42352294921875 21.9882354736328125 0
559 21.75 0 551.42352294921875 21.9882354736328125 0
559 21.75 100 551.42352294921875 21.9882354736328125 0
559 22.25 100 551.42352294921875 21.9882354736328125 0
644 22.25 0 637.42352294921875 21.9882354736328125 0
644 21.75 0 637.42352294921875 21.9882354736328125 0
644 21.75 100 637.42352294921875 21.9882354736328125 0
644 22.25 100 637.42352294921875 21.9882354736328125 0
759.75 446 0 757.95709228515625 445.947479248046875 0
760.25 446 0 757.95709228515625 445.947479248046875 0
760.25 446 100 757.95709228515625 445.947479248046875 0
759.75 446 100 757.95709228515625 445.947479248046875 0
85 211.75 0 83.75054931640625 211.128570556640625 0
85 212.25 0 83.75054931640625 211.128570556640625 0
85 212.25 100 83.75054931640625 211.128570556640625 0
85 211.75 100 83.75054931640625 211.128570556640625 0
179 263.25 0 173.837203979492188 257.127899169921875 0
179 262.75 0 173.837203979492188 257.127899169921875 0
179 262.75 100 173.837203979492188 257.127899169921875 0
179 263.25 100 173.837203979492188 257.127899169921875 0
222 263.25 0 217.837203979492188 257.127899169921875 0
222 262.75 0 217.837203979492188 257.127899169921875 0
222 262.75 100 217.837203979492188 257.127899169921875 0
222 263.25 100 217.837203979492188 257.127899169921875 0
279.75 105 0 277.1834716796875 103.036697387695312 0
280.25 105 0 277.1834716796875 103.036697387695312 0
280.25 105 100 277.1834716796875 103.036697387695312 0
279.75 105 100 277.1834716796875 103.036697387695312 0
279.75 214 0 277.1834716796875 213.036697387695312 0
280.25 214 0 277.1834716796875 213.036697387695312 0
280.25 214 100 277.1834716796875 213.036697387695312 0
279.75 214 100 277.1834716796875 213.036697387695312 0
425.75 317 0 423.555419921875 314.365966796875 0
426.25 317 0 423.555419921875 314.365966796875 0
426.25 317 100 423.555419921875 314.365966796875 0
425.75 317 100 423.555419921875 314.365966796875 0
425.75 511 0 423.555419921875 509.365966796875 0
426.25 511 0 423.555419921875 509.365966796875 0
426.25 511 100 423.555419921875 509.365966796875 0
425.75 511 100 423.555419921875 509.365966796875 0
426.25 212.25 0 0 0 -1
425.75 211.75 0 0 0 -1
425.75 20 0 0 0 -1
426.25 20 0 0 0 -1
426.25 212.25 100 0 0 1
425.75 211.75 100 0 0 1
425.75 20 100 0 0 1
426.25 20 100 0 0 1
425.75 211.75 0 0 0 -1
426.25 212.25 0 0 0 -1
85 212.25 0 0 0 -1
85 211.75 0 0 0 -1
425.75 211.75 100 0 0 1
426.25 212.25 100 0 0 1
85 212.25 100 0 0 1
85 211.75 100 0 0 1
267.25 214 0 0 0 -1
266.75 214 0 0 0 -1
266.75 104 0 0 0 -1
267.25 104 0 0 0 -1
267.25 214 100 0 0 1
266.75 214 100 0 0 1
266.75 104 100 0 0 1
267.25 104 100 0 0 1
219 22.25 0 0 0 -1
219 21.75 0 0 0 -1
341 21.75 0 0 0 -1
341 22.25 0 0 0 -1
219 22.25 100 0 0 1
219 21.75 100 0 0 1
341 21.75 100 0 0 1
341 22.25 100 0 0 1
607 212.25 0 0 0 -1
607 211.75 0 0 0 -1
754 211.75 0 0 0 -1
754 212.25 0 0 0 -1
607 212.25 100 0 0 1
607 211.75 100 0 0 1
754 211.75 100 0 0 1
754 212.25 100 0 0 1
190.25 264 0 0 0 -1
189.75 264 0 0 0 -1
189.75 215 0 0 0 -1
190.25 215 0 0 0 -1
190.25 264 100 0 0 1
189.75 264 100 0 0 1
189.75 215 100 0 0 1
190.25 215 100 0 0 1
399 22.25 0 0 0 -1
399 21.75 0 0 0 -1
515 21.75 0 0 0 -1
515 22.25 0 0 0 -1
399 22.25 100 0 0 1
399 21.75 100 0 0 1
515 21.75 100 0 0 1
515 22.25 100 0 0 1
205 506.25 0 0 0 -1
205 505.75 0 0 0 -1
304 505.75 0 0 0 -1
304 506.25 0 0 0 -1
205 506.25 100 0 0 1
205 505.75 100 0 0 1
304 505.75 100 0 0 1
304 506.25 100 0 0 1
466.75 319.25 0 0 0 -1
467.25 318.75 0 0 0 -1
467.25 444.25 0 0 0 -1
466.75 443.75 0 0 0 -1
466.75 319.25 100 0 0 1
467.25 318.75 100 0 0 1
467.25 444.25 100 0 0 1
466.75 443.75 100 0 0 1
467.25 318.75 0 0 0 -1
466.75 319.25 0 0 0 -1
267.25 319.25 0 0 0 -1
266.75 318.75 0 0 0 -1
467.25 318.75 100 0 0 1
466.75 319.25 100 0 0 1
267.25 319.25 100 0 0 1
266.75 318.75 100 0 0 1
466.75 443.75 0 0 0 -1
467.25 444.25 0 0 0 -1
425 444.25 0 0 0 -1
425 443.75 0 0 0 -1
466.75 443.75 100 0 0 1
467.25 444.25 100 0 0 1
425 444.25 100 0 0 1
425 443.75 100 0 0 1
82.75 21.75 0 0 0 -1
83.25 22.25 0 0 0 -1
83.25 511 0 0 0 -1
82.75 511 0 0 0 -1
82.75 21.75 100 0 0 1
83.25 22.25 100 0 0 1
83.25 511 100 0 0 1
82.75 511 100 0 0 1
83.25 22.25 0 0 0 -1
82.75 21.75 0 0 0 -1
141 21.75 0 0 0 -1
141 22.25 0 0 0 -1
83.25 22.25 100 0 0 1
82.75 21.75 100 0 0 1
141 21.75 100 0 0 1
141 22.25 100 0 0 1
550 444.25 0 0 0 -1
550 443.75 0 0 0 -1
588 443.75 0 0 0 -1
588 444.25 0 0 0 -1
550 444.25 100 0 0 1
550 443.75 100 0 0 1
588 443.75 100 0 0 1
588 444.25 100 0 0 1
701 22.25 0 0 0 -1
701 21.75 0 0 0 -1
760.25 21.75 0 0 0 -1
759.75 22.25 0 0 0 -1
701 22.25 100 0 0 1
701 21.75 100 0 0 1
760.25 21.75 100 0 0 1
759.75 22.25 100 0 0 1
759.75 22.25 0 0 0 -1
760.25 21.75 0 0 0 -1
760.25 446 0 0 0 -1
759.75 446 0 0 0 -1
759.75 22.25 100 0 0 1
760.25 21.75 100 0 0 1
760.25 446 100 0 0 1
759.75 446 100 0 0 1
75 506.25 0 0 0 -1
75 505.75 0 0 0 -1
127 505.75 0 0 0 -1
127 506.25 0 0 0 -1
75 506.25 100 0 0 1
75 505.75 100 0 0 1
127 505.75 100 0 0 1
127 506.25 100 0 0 1
315.75 20 0 0 0 -1
316.25 20 0 0 0 -1
316.25 93 0 0 0 -1
315.75 93 0 0 0 -1
315.75 20 100 0 0 1
316.25 20 100 0 0 1
316.25 93 100 0 0 1
315.75 93 100 0 0 1
382 506.25 0 0 0 -1
382 505.75 0 0 0 -1
443 505.75 0 0 0 -1
443 506.25 0 0 0 -1
382 506.25 100 0 0 1
382 505.75 100 0 0 1
443 505.75 100 0 0 1
443 506.25 100 0 0 1
266.75 318.75 0 0 0 -1
267.25 319.25 0 0 0 -1
267.25 511 0 0 0 -1
266.75 511 0 0 0 -1
266.75 318.75 100 0 0 1
267.25 319.25 100 0 0 1
267.25 511 100 0 0 1
266.75 511 100 0 0 1
559 22.25 0 0 0 -1
559 21.75 0 0 0 -1
644 21.75 0 0 0 -1
644 22.25 0 0 0 -1
559 22.25 100 0 0 1
559 21.75 100 0 0 1
644 21.75 100 0 0 1
644 22.25 100 0 0 1
179 263.25 0 0 0 -1
179 262.75 0 0 0 -1
222 262.75 0 0 0 -1
222 263.25 0 0 0 -1
179 263.25 100 0 0 1
179 262.75 100 0 0 1
222 262.75 100 0 0 1
222 263.25 100 0 0 1
279.75 105 0 0 0 -1
280.25 105 0 0 0 -1
280.25 214 0 0 0 -1
279.75 214 0 0 0 -1
279.75 105 100 0 0 1
280.25 105 100 0 0 1
280.25 214 100 0 0 1
279.75 214 100 0 0 1
425.75 317 0 0 0 -1
426.25 317 0 0 0 -1
426.25 511 0 0 0 -1
425.75 511 0 0 0 -1
425.75 317 100 0 0 1
426.25 317 100 0 0 1
426.25 511 100 0 0 1
425.75 511 100 0 0 1
4 0 1 2 3
4 4 5 6 7
4 8 9 10 11
4 12 13 14 15
4 16 17 18 19
4 20 21 22 23
4 24 25 26 27
4 28 29 30 31
4 32 33 34 35
4 36 37 38 39
4 40 41 42 43
4 44 45 46 47
4 48 49 50 51
4 52 53 54 55
4 56 57 58 59
4 60 61 62 63
4 64 65 66 67
4 68 69 70 71
4 72 73 74 75
4 76 77 78 79
4 80 81 82 83
4 84 85 86 87
4 88 89 90 91
4 92 93 94 95
4 96 97 98 99
4 100 101 102 103
4 104 105 106 107
4 108 109 110 111
4 112 113 114 115
4 116 117 118 119
4 120 121 122 123
4 124 125 126 127
4 128 129 130 131
4 132 133 134 135
4 136 137 138 139
4 140 141 142 143
4 144 145 146 147
4 148 149 150 151
4 152 153 154 155
4 156 157 158 159
4 160 161 162 163
4 164 165 166 167
4 168 169 170 171
4 172 173 174 175
4 176 177 178 179
4 180 181 182 183
4 184 185 186 187
4 188 189 190 191
4 192 193 194 195
4 196 197 198 199
4 200 201 202 203
4 204 205 206 207
4 208 209 210 211
4 212 213 214 215
4 216 217 218 219
4 220 221 222 223
4 224 225 226 227
4 228 229 230 231
4 232 233 234 235
4 236 237 238 239
4 240 241 242 243
4 244 245 246 247
4 248 249 250 251
4 252 253 254 255
4 256 257 258 259
4 260 261 262 263
4 264 265 266 267
4 268 269 270 271
4 272 273 274 275
4 276 277 278 279
4 280 281 282 283
4 284 285 286 287
4 288 289 290 291
4 292 293 294 295
4 296 297 298 299
4 300 301 302 303
4 304 305 306 307
4 308 309 310 311
4 312 313 314 315
4 316 317 318 319
4 320 321 322 323
4 324 325 326 327
4 328 329 330 331
4 332 333 334 335
4 336 337 338 339
4 340 341 342 343
4 344 345 346 347
4 348 349 350 351
4 352 353 354 355
4 356 357 358 359
4 360 361 362 363
4 364 365 366 367
4 368 369 370 371
4 372 373 374 375
4 376 377 378 379
4 380 381 382 383
4 384 385 386 387
4 388 389 390 391
4 392 393 394 395
4 396 397 398 399
4 400 401 402 403
4 404 405 406 407
4 408 409 410 411
4 412 413 414 415
4 416 417 418 419
4 420 421 422 423
4 424 425 426 427
4 428 429 430 431
4 432 433 434 435
4 436 437 438 439
4 440 441 442 443
4 444 445 446 447
4 448 449 450 451
4 452 453 454 455
4 456 457 458 459
4 460 461 462 463
4 464 465 466 467
4 468 469 470 471
4 472 473 474 475
4 476 477 478 479
4 480 481 482 483
4 484 485 486 487
4 488 489 490 491
4 492 493 494 495
4 496 497 498 499
4 500 501 502 503
4 504 505 506 507
4 508 509 510 511
4 512 513 514 515
4 516 517 518 519
4 520 521 522 523
4 524 525 526 527
