ply
format ascii 1.0
element vertex 758
property float x
property float y
property float z
property float nx
property float ny
property float nz
element quads 185
property list uchar int vertex_indices
element triads 6
property list uchar int vertex_indices
end_header
83 504 0 1 0 0
83 27 0 1 0 0
83 27 100 1 0 0
83 504 100 1 0 0
77 510 0 -1 -0 0
77 21 0 -1 -0 0
77 21 100 -1 -0 0
77 510 100 -1 -0 0
77 510 0 -0 1 0
127 510 0 -0 1 0
127 510 100 -0 1 0
77 510 100 -0 1 0
83 504 0 0 -1 0
127 504 0 0 -1 0
127 504 100 0 -1 0
83 504 100 0 -1 0
83 27 0 -0 1 0
141 27 0 -0 1 0
141 27 100 -0 1 0
83 27 100 -0 1 0
77 21 0 0 -1 0
141 21 0 0 -1 0
141 21 100 0 -1 0
77 21 100 0 -1 0
341 21.1823959350585938 0 -0 -1 0
219 21.1823959350585938 0 -0 -1 0
219 21.1823959350585938 100 -0 -1 0
341 21.1823959350585938 100 -0 -1 0
341 27.1823959350585938 0 0 1 0
219 27.1823959350585938 0 0 1 0
219 27.1823959350585938 100 0 1 0
341 27.1823959350585938 100 0 1 0
644 21.1823959350585938 0 -0 -1 0
567 21.1823959350585938 0 -0 -1 0
567 21.1823959350585938 100 -0 -1 0
644 21.1823959350585938 100 -0 -1 0
644 27.1823959350585938 0 0 1 0
567 27.1823959350585938 0 0 1 0
567 27.1823959350585938 100 0 1 0
644 27.1823959350585938 100 0 1 0
429.89111328125 385 0 1 0 0
429.89111328125 321 0 1 0 0
429.89111328125 321 100 1 0 0
429.89111328125 385 100 1 0 0
423.89111328125 385 0 -1 -0 0
423.89111328125 321 0 -1 -0 0
423.89111328125 321 100 -1 -0 0
423.89111328125 385 100 -1 -0 0
468 316.5955810546875 0 -0 -1 0
318 316.5955810546875 0 -0 -1 0
318 316.5955810546875 100 -0 -1 0
468 316.5955810546875 100 -0 -1 0
468 322.5955810546875 0 0 1 0
318 322.5955810546875 0 0 1 0
318 322.5955810546875 100 0 1 0
468 322.5955810546875 100 0 1 0
268 316.5955810546875 0 -0 -1 0
262 316.5955810546875 0 -0 -1 0
262 316.5955810546875 100 -0 -1 0
268 316.5955810546875 100 -0 -1 0
268 322.5955810546875 0 0 1 0
262 322.5955810546875 0 0 1 0
262 322.5955810546875 100 0 1 0
268 322.5955810546875 100 0 1 0
754 209.93524169921875 0 -0 -1 0
607 209.93524169921875 0 -0 -1 0
607 209.93524169921875 100 -0 -1 0
754 209.93524169921875 100 -0 -1 0
754 215.93524169921875 0 0 1 0
607 215.93524169921875 0 0 1 0
607 215.93524169921875 100 0 1 0
754 215.93524169921875 100 0 1 0
229 209.93524169921875 0 -0 -1 0
85 209.93524169921875 0 -0 -1 0
85 209.93524169921875 100 -0 -1 0
229 209.93524169921875 100 -0 -1 0
229 215.93524169921875 0 0 1 0
85 215.93524169921875 0 0 1 0
85 215.93524169921875 100 0 1 0
229 215.93524169921875 100 0 1 0
320.465301513671875 93 0 1 0 0
320.465301513671875 29 0 1 0 0
320.465301513671875 29 100 1 0 0
320.465301513671875 93 100 1 0 0
314.465301513671875 93 0 -1 -0 0
314.465301513671875 29 0 -1 -0 0
314.465301513671875 29 100 -1 -0 0
314.465301513671875 93 100 -1 -0 0
588 438.513671875 0 -0 -1 0
550 438.513671875 0 -0 -1 0
550 438.513671875 100 -0 -1 0
588 438.513671875 100 -0 -1 0
588 444.513671875 0 0 1 0
550 444.513671875 0 0 1 0
550 444.513671875 100 0 1 0
588 444.513671875 100 0 1 0
224 259 0 -0 -1 0
190.937530517578125 259 0 -0 -1 0
190.937530517578125 259 100 -0 -1 0
224 259 100 -0 -1 0
218 265 0 0 1 0
188 265 0 0 1 0
188 265 100 0 1 0
218 265 100 0 1 0
218 265 0 -1 0 0
218 278 0 -1 0 0
218 278 100 -1 0 0
218 265 100 -1 0 0
224 259 0 1 -0 0
224 278 0 1 -0 0
224 278 100 1 -0 0
224 259 100 1 -0 0
194 264.877593994140625 0 1 0 0
194 215 0 1 0 0
194 215 100 1 0 0
194 264.877593994140625 100 1 0 0
188 265 0 -1 -0 0
188 215 0 -1 -0 0
188 215 100 -1 -0 0
188 265 100 -1 -0 0
190.937530517578125 259 0 -0.0416305437684059143 -0.999133050441741943 0
178.875106811523438 259.502593994140625 0 -0.0416305437684059143 -0.999133050441741943 0
178.875106811523438 259.502593994140625 100 -0.0416305437684059143 -0.999133050441741943 0
190.937530517578125 259 100 -0.0416305437684059143 -0.999133050441741943 0
194 264.877593994140625 0 0.0416305437684059143 0.999133050441741943 0
179.124893188476562 265.497406005859375 0 0.0416305437684059143 0.999133050441741943 0
179.124893188476562 265.497406005859375 100 0.0416305437684059143 0.999133050441741943 0
194 264.877593994140625 100 0.0416305437684059143 0.999133050441741943 0
305.75311279296875 109.520858764648438 0 0.732793509960174561 0.680451095104217529 0
319.198394775390625 95.041351318359375 0 0.732793509960174561 0.680451095104217529 0
319.198394775390625 95.041351318359375 100 0.732793509960174561 0.680451095104217529 0
305.75311279296875 109.520858764648438 100 0.732793509960174561 0.680451095104217529 0
302.24688720703125 104.479141235351562 0 -0.732793509960174561 -0.680451095104217529 0
314.801605224609375 90.958648681640625 0 -0.732793509960174561 -0.680451095104217529 0
314.801605224609375 90.958648681640625 100 -0.732793509960174561 -0.680451095104217529 0
302.24688720703125 104.479141235351562 100 -0.732793509960174561 -0.680451095104217529 0
302.24688720703125 104.479141235351562 0 -0.382879376411437988 -0.923798322677612305 0
284.851348876953125 111.688919067382812 0 -0.382879376411437988 -0.923798322677612305 0
284.851348876953125 111.688919067382812 100 -0.382879376411437988 -0.923798322677612305 0
302.24688720703125 104.479141235351562 100 -0.382879376411437988 -0.923798322677612305 0
305.75311279296875 109.520858764648438 0 0.382879376411437988 0.923798322677612305 0
287.148651123046875 117.231712341308594 0 0.382879376411437988 0.923798322677612305 0
287.148651123046875 117.231712341308594 100 0.382879376411437988 0.923798322677612305 0
305.75311279296875 109.520858764648438 100 0.382879376411437988 0.923798322677612305 0
438 510 0 1 0 0
438 499 0 1 0 0
438 499 100 1 0 0
438 510 100 1 0 0
432 510 0 -1 -0 0
432 499 0 -1 -0 0
432 499 100 -1 -0 0
432 510 100 -1 -0 0
701.00946044921875 27.1823806762695312 0 0.00314473244361579418 0.999995052814483643 0
756 27.0094490051269531 0 0.00314473244361579418 0.999995052814483643 0
756 27.0094490051269531 100 0.00314473244361579418 0.999995052814483643 0
701.00946044921875 27.1823806762695312 100 0.00314473244361579418 0.999995052814483643 0
700.99053955078125 21.1824092864990234 0 -0.00314473244361579418 -0.999995052814483643 0
762 20.9905509948730469 0 -0.00314473244361579418 -0.999995052814483643 0
762 20.9905509948730469 100 -0.00314473244361579418 -0.999995052814483643 0
700.99053955078125 21.1824092864990234 100 -0.00314473244361579418 -0.999995052814483643 0
756 27.0094490051269531 0 -1 0 0
756 438.042510986328125 0 -1 0 0
756 438.042510986328125 100 -1 0 0
756 27.0094490051269531 100 -1 0 0
762 20.9905509948730469 0 1 -0 0
762 443.957489013671875 0 1 -0 0
762 443.957489013671875 100 1 -0 0
762 20.9905509948730469 100 1 -0 0
464.014404296875 21.1824302673339844 0 0.00479982327669858932 -0.99998849630355835 0
422.983917236328125 20.9854888916015625 0 0.00479982327669858932 -0.99998849630355835 0
422.983917236328125 20.9854888916015625 100 0.00479982327669858932 -0.99998849630355835 0
464.014404296875 21.1824302673339844 100 0.00479982327669858932 -0.99998849630355835 0
463.985595703125 27.1823616027832031 0 -0.00479982327669858932 0.99998849630355835 0
426.0025634765625 27.0000476837158203 0 -0.00479982327669858932 0.99998849630355835 0
426.0025634765625 27.0000476837158203 100 -0.00479982327669858932 0.99998849630355835 0
463.985595703125 27.1823616027832031 100 -0.00479982327669858932 0.99998849630355835 0
428.983978271484375 20.980499267578125 0 -0.00651398254558444023 -0.999978780746459961 0
397.98046875 21.1824588775634766 0 -0.00651398254558444023 -0.999978780746459961 0
397.98046875 21.1824588775634766 100 -0.00651398254558444023 -0.999978780746459961 0
428.983978271484375 20.980499267578125 100 -0.00651398254558444023 -0.999978780746459961 0
426.0025634765625 27.0000476837158203 0 0.00651398254558444023 0.999978780746459961 0
398.01953125 27.1823310852050781 0 0.00651398254558444023 0.999978780746459961 0
398.01953125 27.1823310852050781 100 0.00651398254558444023 0.999978780746459961 0
426.0025634765625 27.0000476837158203 100 0.00651398254558444023 0.999978780746459961 0
422.983917236328125 20.9854888916015625 0 -0.999985873699188232 0.00531907379627227783 0
423.984344482421875 209.06640625 0 -0.999985873699188232 0.00531907379627227783 0
423.984344482421875 209.06640625 100 -0.999985873699188232 0.00531907379627227783 0
422.983917236328125 20.9854888916015625 100 -0.999985873699188232 0.00531907379627227783 0
428.983978271484375 20.980499267578125 0 0.999985873699188232 -0.00531907379627227783 0
430.015655517578125 214.93359375 0 0.999985873699188232 -0.00531907379627227783 0
430.015655517578125 214.93359375 100 0.999985873699188232 -0.00531907379627227783 0
428.983978271484375 20.980499267578125 100 0.999985873699188232 -0.00531907379627227783 0
423.89129638671875 428.96527099609375 0 -0.999933063983917236 -0.0115720313042402267 0
423.03411865234375 503.035430908203125 0 -0.999933063983917236 -0.0115720313042402267 0
423.03411865234375 503.035430908203125 100 -0.999933063983917236 -0.0115720313042402267 0
423.89129638671875 428.96527099609375 100 -0.999933063983917236 -0.0115720313042402267 0
429.890899658203125 429.03472900390625 0 0.999933063983917236 0.0115720313042402267 0
428.96588134765625 508.964569091796875 0 0.999933063983917236 0.0115720313042402267 0
428.96588134765625 508.964569091796875 100 0.999933063983917236 0.0115720313042402267 0
429.890899658203125 429.03472900390625 100 0.999933063983917236 0.0115720313042402267 0
423.03411865234375 503.035430908203125 0 -0.0120230009779334068 -0.999927699565887451 0
381.96392822265625 503.529266357421875 0 -0.0120230009779334068 -0.999927699565887451 0
381.96392822265625 503.529266357421875 100 -0.0120230009779334068 -0.999927699565887451 0
423.03411865234375 503.035430908203125 100 -0.0120230009779334068 -0.999927699565887451 0
428.96588134765625 508.964569091796875 0 0.0120230009779334068 0.999927699565887451 0
382.03607177734375 509.528839111328125 0 0.0120230009779334068 0.999927699565887451 0
382.03607177734375 509.528839111328125 100 0.0120230009779334068 0.999927699565887451 0
428.96588134765625 508.964569091796875 100 0.0120230009779334068 0.999927699565887451 0
304.044097900390625 503.529388427734375 0 0.0146942548453807831 -0.999892055988311768 0
271 503.04376220703125 0 0.0146942548453807831 -0.999892055988311768 0
271 503.04376220703125 100 0.0146942548453807831 -0.999892055988311768 0
304.044097900390625 503.529388427734375 100 0.0146942548453807831 -0.999892055988311768 0
303.955902099609375 509.528717041015625 0 -0.0146942548453807831 0.999892055988311768 0
267.99053955078125 509.00018310546875 0 -0.0146942548453807831 0.999892055988311768 0
267.99053955078125 509.00018310546875 100 -0.0146942548453807831 0.999892055988311768 0
303.955902099609375 509.528717041015625 100 -0.0146942548453807831 0.999892055988311768 0
265 503.02508544921875 0 -0.0083973277360200882 -0.999964714050292969 0
204.974807739257812 503.529144287109375 0 -0.0083973277360200882 -0.999964714050292969 0
204.974807739257812 503.529144287109375 100 -0.0083973277360200882 -0.999964714050292969 0
265 503.02508544921875 100 -0.0083973277360200882 -0.999964714050292969 0
267.99053955078125 509.00018310546875 0 0.0083973277360200882 0.999964714050292969 0
205.025192260742188 509.5289306640625 0 0.0083973277360200882 0.999964714050292969 0
205.025192260742188 509.5289306640625 100 0.0083973277360200882 0.999964714050292969 0
267.99053955078125 509.00018310546875 100 0.0083973277360200882 0.999964714050292969 0
271 503.04376220703125 0 1 0 0
271 320 0 1 0 0
271 320 100 1 0 0
271 503.04376220703125 100 1 0 0
265 503.02508544921875 0 -1 -0 0
265 320 0 -1 -0 0
265 320 100 -1 -0 0
265 503.02508544921875 100 -1 -0 0
385.0667724609375 215.93450927734375 0 0.0222622416913509369 0.999752163887023926 0
430.015655517578125 214.93359375 0 0.0222622416913509369 0.999752163887023926 0
430.015655517578125 214.93359375 100 0.0222622416913509369 0.999752163887023926 0
385.0667724609375 215.93450927734375 100 0.0222622416913509369 0.999752163887023926 0
384.9332275390625 209.935989379882812 0 -0.0222622416913509369 -0.999752163887023926 0
423.984344482421875 209.06640625 0 -0.0222622416913509369 -0.999752163887023926 0
423.984344482421875 209.06640625 100 -0.0222622416913509369 -0.999752163887023926 0
384.9332275390625 209.935989379882812 100 -0.0222622416913509369 -0.999752163887023926 0
341 210 0 -0 -1 0
284.0042724609375 210 0 -0 -1 0
284.0042724609375 210 100 -0 -1 0
341 210 100 -0 -1 0
341 216 0 0 1 0
277.9957275390625 216 0 0 1 0
277.9957275390625 216 100 0 1 0
341 216 100 0 1 0
284.0042724609375 210 0 0.999998986721038818 0.00142400118056684732 0
284.15521240234375 104.0042724609375 0 0.999998986721038818 0.00142400118056684732 0
284.15521240234375 104.0042724609375 100 0.999998986721038818 0.00142400118056684732 0
284.0042724609375 210 100 0.999998986721038818 0.00142400118056684732 0
277.9957275390625 216 0 -0.999998986721038818 -0.00142400118056684732 0
278.15521240234375 103.9957275390625 0 -0.999998986721038818 -0.00142400118056684732 0
278.15521240234375 103.9957275390625 100 -0.999998986721038818 -0.00142400118056684732 0
277.9957275390625 216 100 -0.999998986721038818 -0.00142400118056684732 0
433.045318603515625 444.513336181640625 0 0.0151064470410346985 0.999885916709899902 0
470 443.95501708984375 0 0.0151064470410346985 0.999885916709899902 0
470 443.95501708984375 100 0.0151064470410346985 0.999885916709899902 0
433.045318603515625 444.513336181640625 100 0.0151064470410346985 0.999885916709899902 0
432.954681396484375 438.514007568359375 0 -0.0151064470410346985 -0.999885916709899902 0
464 438.04498291015625 0 -0.0151064470410346985 -0.999885916709899902 0
464 438.04498291015625 100 -0.0151064470410346985 -0.999885916709899902 0
432.954681396484375 438.514007568359375 100 -0.0151064470410346985 -0.999885916709899902 0
470 443.95501708984375 0 1 0 0
470 372.96026611328125 0 1 0 0
470 372.96026611328125 100 1 0 0
470 443.95501708984375 100 1 0 0
464 438.04498291015625 0 -1 -0 0
464 379.03973388671875 0 -1 -0 0
464 379.03973388671875 100 -1 -0 0
464 438.04498291015625 100 -1 -0 0
723.04278564453125 444.51336669921875 0 0.0142673756927251816 0.999898195266723633 0
762 443.957489013671875 0 0.0142673756927251816 0.999898195266723633 0
762 443.957489013671875 100 0.0142673756927251816 0.999898195266723633 0
723.04278564453125 444.51336669921875 100 0.0142673756927251816 0.999898195266723633 0
722.95721435546875 438.51397705078125 0 -0.0142673756927251816 -0.999898195266723633 0
756 438.042510986328125 0 -0.0142673756927251816 -0.999898195266723633 0
756 438.042510986328125 100 -0.0142673756927251816 -0.999898195266723633 0
722.95721435546875 438.51397705078125 100 -0.0142673756927251816 -0.999898195266723633 0
429.039459228515625 379.499725341796875 0 0.0131567558273673058 0.999913454055786133 0
464 379.03973388671875 0 0.0131567558273673058 0.999913454055786133 0
464 379.03973388671875 100 0.0131567558273673058 0.999913454055786133 0
429.039459228515625 379.499725341796875 100 0.0131567558273673058 0.999913454055786133 0
428.960540771484375 373.500274658203125 0 -0.0131567558273673058 -0.999913454055786133 0
470 372.96026611328125 0 -0.0131567558273673058 -0.999913454055786133 0
470 372.96026611328125 100 -0.0131567558273673058 -0.999913454055786133 0
428.960540771484375 373.500274658203125 100 -0.0131567558273673058 -0.999913454055786133 0
341 21.1823959350585938 0 339.204925537109375 21.0087699890136719 0
341 27.1823959350585938 0 339.204925537109375 21.0087699890136719 0
341 27.1823959350585938 100 339.204925537109375 21.0087699890136719 0
341 21.1823959350585938 100 339.204925537109375 21.0087699890136719 0
219 21.1823959350585938 0 216.204925537109375 21.0087699890136719 0
219 27.1823959350585938 0 216.204925537109375 21.0087699890136719 0
219 27.1823959350585938 100 216.204925537109375 21.0087699890136719 0
219 21.1823959350585938 100 216.204925537109375 21.0087699890136719 0
644 21.1823959350585938 0 636.6363525390625 20.9072990417480469 0
644 27.1823959350585938 0 636.6363525390625 20.9072990417480469 0
644 27.1823959350585938 100 636.6363525390625 20.9072990417480469 0
644 21.1823959350585938 100 636.6363525390625 20.9072990417480469 0
567 21.1823959350585938 0 558.6363525390625 20.9072990417480469 0
567 27.1823959350585938 0 558.6363525390625 20.9072990417480469 0
567 27.1823959350585938 100 558.6363525390625 20.9072990417480469 0
567 21.1823959350585938 100 558.6363525390625 20.9072990417480469 0
141 27 0 139.5689697265625 26.5344829559326172 0
141 21 0 139.5689697265625 26.5344829559326172 0
141 21 100 139.5689697265625 26.5344829559326172 0
141 27 100 139.5689697265625 26.5344829559326172 0
429.89111328125 385 0 423.174072265625 379.984375 0
423.89111328125 385 0 423.174072265625 379.984375 0
423.89111328125 385 100 423.174072265625 379.984375 0
429.89111328125 385 100 423.174072265625 379.984375 0
429.89111328125 321 0 423.174072265625 314.984375 0
423.89111328125 321 0 423.174072265625 314.984375 0
423.89111328125 321 100 423.174072265625 314.984375 0
429.89111328125 321 100 423.174072265625 314.984375 0
468 316.5955810546875 0 465.8800048828125 314.484954833984375 0
468 322.5955810546875 0 465.8800048828125 314.484954833984375 0
468 322.5955810546875 100 465.8800048828125 314.484954833984375 0
468 316.5955810546875 100 465.8800048828125 314.484954833984375 0
318 316.5955810546875 0 314.8800048828125 314.484954833984375 0
318 322.5955810546875 0 314.8800048828125 314.484954833984375 0
318 322.5955810546875 100 314.8800048828125 314.484954833984375 0
318 316.5955810546875 100 314.8800048828125 314.484954833984375 0
268 316.5955810546875 0 224.333328247070312 263.82965087890625 0
268 322.5955810546875 0 224.333328247070312 263.82965087890625 0
268 322.5955810546875 100 224.333328247070312 263.82965087890625 0
268 316.5955810546875 100 224.333328247070312 263.82965087890625 0
262 316.5955810546875 0 217.333328247070312 263.82965087890625 0
262 322.5955810546875 0 217.333328247070312 263.82965087890625 0
262 322.5955810546875 100 217.333328247070312 263.82965087890625 0
262 316.5955810546875 100 217.333328247070312 263.82965087890625 0
127 510 0 125.459999084472656 499.79998779296875 0
127 504 0 125.459999084472656 499.79998779296875 0
127 504 100 125.459999084472656 499.79998779296875 0
127 510 100 125.459999084472656 499.79998779296875 0
754 209.93524169921875 0 749.8707275390625 208.507110595703125 0
754 215.93524169921875 0 749.8707275390625 208.507110595703125 0
754 215.93524169921875 100 749.8707275390625 208.507110595703125 0
754 209.93524169921875 100 749.8707275390625 208.507110595703125 0
607 209.93524169921875 0 601.8707275390625 208.507110595703125 0
607 215.93524169921875 0 601.8707275390625 208.507110595703125 0
607 215.93524169921875 100 601.8707275390625 208.507110595703125 0
607 209.93524169921875 100 601.8707275390625 208.507110595703125 0
229 209.93524169921875 0 228.40972900390625 208.47735595703125 0
229 215.93524169921875 0 228.40972900390625 208.47735595703125 0
229 215.93524169921875 100 228.40972900390625 208.47735595703125 0
229 209.93524169921875 100 228.40972900390625 208.47735595703125 0
85 209.93524169921875 0 83.4097213745117188 208.47735595703125 0
85 215.93524169921875 0 83.4097213745117188 208.47735595703125 0
85 215.93524169921875 100 83.4097213745117188 208.47735595703125 0
85 209.93524169921875 100 83.4097213745117188 208.47735595703125 0
320.465301513671875 93 0 315.458038330078125 92.546875 0
314.465301513671875 93 0 315.458038330078125 92.546875 0
314.465301513671875 93 100 315.458038330078125 92.546875 0
320.465301513671875 93 100 315.458038330078125 92.546875 0
320.465301513671875 29 0 315.458038330078125 27.546875 0
314.465301513671875 29 0 315.458038330078125 27.546875 0
314.465301513671875 29 100 315.458038330078125 27.546875 0
320.465301513671875 29 100 315.458038330078125 27.546875 0
588 438.513671875 0 573.52630615234375 426.973846435546875 0
588 444.513671875 0 573.52630615234375 426.973846435546875 0
588 444.513671875 100 573.52630615234375 426.973846435546875 0
588 438.513671875 100 573.52630615234375 426.973846435546875 0
550 438.513671875 0 534.52630615234375 426.973846435546875 0
550 444.513671875 0 534.52630615234375 426.973846435546875 0
550 444.513671875 100 534.52630615234375 426.973846435546875 0
550 438.513671875 100 534.52630615234375 426.973846435546875 0
319.198394775390625 95.041351318359375 0 303.724517822265625 89.4986114501953125 0
314.801605224609375 90.958648681640625 0 303.724517822265625 89.4986114501953125 0
314.801605224609375 90.958648681640625 100 303.724517822265625 89.4986114501953125 0
319.198394775390625 95.041351318359375 100 303.724517822265625 89.4986114501953125 0
284.851348876953125 111.688919067382812 0 268.800384521484375 106.1405029296875 0
287.148651123046875 117.231712341308594 0 268.800384521484375 106.1405029296875 0
287.148651123046875 117.231712341308594 100 268.800384521484375 106.1405029296875 0
284.851348876953125 111.688919067382812 100 268.800384521484375 106.1405029296875 0
218 278 0 201.23077392578125 257.615386962890625 0
224 278 0 201.23077392578125 257.615386962890625 0
224 278 100 201.23077392578125 257.615386962890625 0
218 278 100 201.23077392578125 257.615386962890625 0
438 510 0 398.18182373046875 464.6363525390625 0
432 510 0 398.18182373046875 464.6363525390625 0
432 510 100 398.18182373046875 464.6363525390625 0
438 510 100 398.18182373046875 464.6363525390625 0
438 499 0 398.18182373046875 452.6363525390625 0
432 499 0 398.18182373046875 452.6363525390625 0
432 499 100 398.18182373046875 452.6363525390625 0
438 499 100 398.18182373046875 452.6363525390625 0
701.00946044921875 27.1823806762695312 0 687.26171875 26.6912174224853516 0
700.99053955078125 21.1824092864990234 0 687.26171875 26.6912174224853516 0
700.99053955078125 21.1824092864990234 100 687.26171875 26.6912174224853516 0
701.00946044921875 27.1823806762695312 100 687.26171875 26.6912174224853516 0
464.014404296875 21.1824302673339844 0 453.70550537109375 20.6709747314453125 0
463.985595703125 27.1823616027832031 0 453.70550537109375 20.6709747314453125 0
463.985595703125 27.1823616027832031 100 453.70550537109375 20.6709747314453125 0
464.014404296875 21.1824302673339844 100 453.70550537109375 20.6709747314453125 0
397.98046875 21.1824588775634766 0 384.144134521484375 20.5057601928710938 0
398.01953125 27.1823310852050781 0 384.144134521484375 20.5057601928710938 0
398.01953125 27.1823310852050781 100 384.144134521484375 20.5057601928710938 0
397.98046875 21.1824588775634766 100 384.144134521484375 20.5057601928710938 0
423.89129638671875 428.96527099609375 0 418.180419921875 422.174407958984375 0
429.890899658203125 429.03472900390625 0 418.180419921875 422.174407958984375 0
429.890899658203125 429.03472900390625 100 418.180419921875 422.174407958984375 0
423.89129638671875 428.96527099609375 100 418.180419921875 422.174407958984375 0
381.96392822265625 503.529266357421875 0 371.664398193359375 491.281951904296875 0
382.03607177734375 509.528839111328125 0 371.664398193359375 491.281951904296875 0
382.03607177734375 509.528839111328125 100 371.664398193359375 491.281951904296875 0
381.96392822265625 503.529266357421875 100 371.664398193359375 491.281951904296875 0
304.044097900390625 503.529388427734375 0 295.84381103515625 488.3076171875 0
303.955902099609375 509.528717041015625 0 295.84381103515625 488.3076171875 0
303.955902099609375 509.528717041015625 100 295.84381103515625 488.3076171875 0
304.044097900390625 503.529388427734375 100 295.84381103515625 488.3076171875 0
204.974807739257812 503.529144287109375 0 200.560150146484375 495.14923095703125 0
205.025192260742188 509.5289306640625 0 200.560150146484375 495.14923095703125 0
205.025192260742188 509.5289306640625 100 200.560150146484375 495.14923095703125 0
204.974807739257812 503.529144287109375 100 200.560150146484375 495.14923095703125 0
271 320 0 269.51947021484375 317.25177001953125 0
265 320 0 269.51947021484375 317.25177001953125 0
265 320 100 269.51947021484375 317.25177001953125 0
271 320 100 269.51947021484375 317.25177001953125 0
385.0667724609375 215.93450927734375 0 375.50238037109375 211.153945922851562 0
384.9332275390625 209.935989379882812 0 375.50238037109375 211.153945922851562 0
384.9332275390625 209.935989379882812 100 375.50238037109375 211.153945922851562 0
385.0667724609375 215.93450927734375 100 375.50238037109375 211.153945922851562 0
341 210 0 336.01708984375 206.315505981445312 0
341 216 0 336.01708984375 206.315505981445312 0
341 216 100 336.01708984375 206.315505981445312 0
341 210 100 336.01708984375 206.315505981445312 0
284.15521240234375 104.0042724609375 0 281.475830078125 102.023063659667969 0
278.15521240234375 103.9957275390625 0 281.475830078125 102.023063659667969 0
278.15521240234375 103.9957275390625 100 281.475830078125 102.023063659667969 0
284.15521240234375 104.0042724609375 100 281.475830078125 102.023063659667969 0
433.045318603515625 444.513336181640625 0 420.3284912109375 432.501220703125 0
432.954681396484375 438.514007568359375 0 420.3284912109375 432.501220703125 0
432.954681396484375 438.514007568359375 100 420.3284912109375 432.501220703125 0
433.045318603515625 444.513336181640625 100 420.3284912109375 432.501220703125 0
723.04278564453125 444.51336669921875 0 703.48486328125 433.118499755859375 0
722.95721435546875 438.51397705078125 0 703.48486328125 433.118499755859375 0
722.95721435546875 438.51397705078125 100 703.48486328125 433.118499755859375 0
723.04278564453125 444.51336669921875 100 703.48486328125 433.118499755859375 0
194 215 0 190.1104736328125 209.689453125 0
188 215 0 190.1104736328125 209.689453125 0
188 215 100 190.1104736328125 209.689453125 0
194 215 100 190.1104736328125 209.689453125 0
178.875106811523438 259.502593994140625 0 163.059707641601562 238.049560546875 0
179.124893188476562 265.497406005859375 0 163.059707641601562 238.049560546875 0
179.124893188476562 265.497406005859375 100 163.059707641601562 238.049560546875 0
178.875106811523438 259.502593994140625 100 163.059707641601562 238.049560546875 0
429.039459228515625 379.499725341796875 0 415.768524169921875 368.65875244140625 0
428.960540771484375 373.500274658203125 0 415.768524169921875 368.65875244140625 0
428.960540771484375 373.500274658203125 100 415.768524169921875 368.65875244140625 0
429.039459228515625 379.499725341796875 100 415.768524169921875 368.65875244140625 0
83 504 0 0 0 -1
77 510 0 0 0 -1
77 21 0 0 0 -1
83 27 0 0 0 -1
83 504 100 0 0 1
77 510 100 0 0 1
77 21 100 0 0 1
83 27 100 0 0 1
77 510 0 0 0 -1
83 504 0 0 0 -1
127 504 0 0 0 -1
127 510 0 0 0 -1
77 510 100 0 0 1
83 504 100 0 0 1
127 504 100 0 0 1
127 510 100 0 0 1
83 27 0 0 0 -1
77 21 0 0 0 -1
141 21 0 0 0 -1
141 27 0 0 0 -1
83 27 100 0 0 1
77 21 100 0 0 1
141 21 100 0 0 1
141 27 100 0 0 1
341 21.1823959350585938 0 0 0 -1
341 27.1823959350585938 0 0 0 -1
219 27.1823959350585938 0 0 0 -1
219 21.1823959350585938 0 0 0 -1
341 21.1823959350585938 100 0 0 1
341 27.1823959350585938 100 0 0 1
219 27.1823959350585938 100 0 0 1
219 21.1823959350585938 100 0 0 1
644 21.1823959350585938 0 0 0 -1
644 27.1823959350585938 0 0 0 -1
567 27.1823959350585938 0 0 0 -1
567 21.1823959350585938 0 0 0 -1
644 21.1823959350585938 100 0 0 1
644 27.1823959350585938 100 0 0 1
567 27.1823959350585938 100 0 0 1
567 21.1823959350585938 100 0 0 1
429.89111328125 385 0 0 0 -1
423.89111328125 385 0 0 0 -1
423.89111328125 321 0 0 0 -1
429.89111328125 321 0 0 0 -1
429.89111328125 385 100 0 0 1
423.89111328125 385 100 0 0 1
423.89111328125 321 100 0 0 1
429.89111328125 321 100 0 0 1
468 316.5955810546875 0 0 0 -1
468 322.5955810546875 0 0 0 -1
318 322.5955810546875 0 0 0 -1
318 316.5955810546875 0 0 0 -1
468 316.5955810546875 100 0 0 1
468 322.5955810546875 100 0 0 1
318 322.5955810546875 100 0 0 1
318 316.5955810546875 100 0 0 1
268 316.5955810546875 0 0 0 -1
268 322.5955810546875 0 0 0 -1
262 322.5955810546875 0 0 0 -1
262 316.5955810546875 0 0 0 -1
268 316.5955810546875 100 0 0 1
268 322.5955810546875 100 0 0 1
262 322.5955810546875 100 0 0 1
262 316.5955810546875 100 0 0 1
754 209.93524169921875 0 0 0 -1
754 215.93524169921875 0 0 0 -1
607 215.93524169921875 0 0 0 -1
607 209.93524169921875 0 0 0 -1
754 209.93524169921875 100 0 0 1
754 215.93524169921875 100 0 0 1
607 215.93524169921875 100 0 0 1
607 209.93524169921875 100 0 0 1
229 209.93524169921875 0 0 0 -1
229 215.93524169921875 0 0 0 -1
85 215.93524169921875 0 0 0 -1
85 209.93524169921875 0 0 0 -1
229 209.93524169921875 100 0 0 1
229 215.93524169921875 100 0 0 1
85 215.93524169921875 100 0 0 1
85 209.93524169921875 100 0 0 1
320.465301513671875 93 0 0 0 -1
314.465301513671875 93 0 0 0 -1
314.465301513671875 29 0 0 0 -1
320.465301513671875 29 0 0 0 -1
320.465301513671875 93 100 0 0 1
314.465301513671875 93 100 0 0 1
314.465301513671875 29 100 0 0 1
320.465301513671875 29 100 0 0 1
588 438.513671875 0 0 0 -1
588 444.513671875 0 0 0 -1
550 444.513671875 0 0 0 -1
550 438.513671875 0 0 0 -1
588 438.513671875 100 0 0 1
588 444.513671875 100 0 0 1
550 444.513671875 100 0 0 1
550 438.513671875 100 0 0 1
224 259 0 0 0 -1
218 265 0 0 0 -1
188 265 0 0 0 -1
190.937530517578125 259 0 0 0 -1
224 259 100 0 0 1
218 265 100 0 0 1
188 265 100 0 0 1
190.937530517578125 259 100 0 0 1
218 265 0 0 0 -1
224 259 0 0 0 -1
224 278 0 0 0 -1
218 278 0 0 0 -1
218 265 100 0 0 1
224 259 100 0 0 1
224 278 100 0 0 1
218 278 100 0 0 1
194 264.877593994140625 0 0 0 -1
188 265 0 0 0 -1
188 215 0 0 0 -1
194 215 0 0 0 -1
194 264.877593994140625 100 0 0 1
188 265 100 0 0 1
188 215 100 0 0 1
194 215 100 0 0 1
190.937530517578125 259 0 0 0 -1
194 264.877593994140625 0 0 0 -1
179.124893188476562 265.497406005859375 0 0 0 -1
178.875106811523438 259.502593994140625 0 0 0 -1
190.937530517578125 259 100 0 0 1
194 264.877593994140625 100 0 0 1
179.124893188476562 265.497406005859375 100 0 0 1
178.875106811523438 259.502593994140625 100 0 0 1
305.75311279296875 109.520858764648438 0 0 0 -1
302.24688720703125 104.479141235351562 0 0 0 -1
314.801605224609375 90.958648681640625 0 0 0 -1
319.198394775390625 95.041351318359375 0 0 0 -1
305.75311279296875 109.520858764648438 100 0 0 1
302.24688720703125 104.479141235351562 100 0 0 1
314.801605224609375 90.958648681640625 100 0 0 1
319.198394775390625 95.041351318359375 100 0 0 1
302.24688720703125 104.479141235351562 0 0 0 -1
305.75311279296875 109.520858764648438 0 0 0 -1
287.148651123046875 117.231712341308594 0 0 0 -1
284.851348876953125 111.688919067382812 0 0 0 -1
302.24688720703125 104.479141235351562 100 0 0 1
305.75311279296875 109.520858764648438 100 0 0 1
287.148651123046875 117.231712341308594 100 0 0 1
284.851348876953125 111.688919067382812 100 0 0 1
438 510 0 0 0 -1
432 510 0 0 0 -1
432 499 0 0 0 -1
438 499 0 0 0 -1
438 510 100 0 0 1
432 510 100 0 0 1
432 499 100 0 0 1
438 499 100 0 0 1
701.00946044921875 27.1823806762695312 0 0 0 -1
700.99053955078125 21.1824092864990234 0 0 0 -1
762 20.9905509948730469 0 0 0 -1
756 27.0094490051269531 0 0 0 -1
701.00946044921875 27.1823806762695312 100 0 0 1
700.99053955078125 21.1824092864990234 100 0 0 1
762 20.9905509948730469 100 0 0 1
756 27.0094490051269531 100 0 0 1
756 27.0094490051269531 0 0 0 -1
762 20.9905509948730469 0 0 0 -1
762 443.957489013671875 0 0 0 -1
756 438.042510986328125 0 0 0 -1
756 27.0094490051269531 100 0 0 1
762 20.9905509948730469 100 0 0 1
762 443.957489013671875 100 0 0 1
756 438.042510986328125 100 0 0 1
464.014404296875 21.1824302673339844 0 0 0 -1
463.985595703125 27.1823616027832031 0 0 0 -1
426.0025634765625 27.0000476837158203 0 0 0 -1
422.983917236328125 20.9854888916015625 0 0 0 -1
464.014404296875 21.1824302673339844 100 0 0 1
463.985595703125 27.1823616027832031 100 0 0 1
426.0025634765625 27.0000476837158203 100 0 0 1
422.983917236328125 20.9854888916015625 100 0 0 1
428.983978271484375 20.980499267578125 0 0 0 -1
426.0025634765625 27.0000476837158203 0 0 0 -1
398.01953125 27.1823310852050781 0 0 0 -1
397.98046875 21.1824588775634766 0 0 0 -1
428.983978271484375 20.980499267578125 100 0 0 1
426.0025634765625 27.0000476837158203 100 0 0 1
398.01953125 27.1823310852050781 100 0 0 1
397.98046875 21.1824588775634766 100 0 0 1
422.983917236328125 20.9854888916015625 0 0 0 -1
428.983978271484375 20.980499267578125 0 0 0 -1
430.015655517578125 214.93359375 0 0 0 -1
423.984344482421875 209.06640625 0 0 0 -1
422.983917236328125 20.9854888916015625 100 0 0 1
428.983978271484375 20.980499267578125 100 0 0 1
430.015655517578125 214.93359375 100 0 0 1
423.984344482421875 209.06640625 100 0 0 1
423.89129638671875 428.96527099609375 0 0 0 -1
429.890899658203125 429.03472900390625 0 0 0 -1
428.96588134765625 508.964569091796875 0 0 0 -1
423.03411865234375 503.035430908203125 0 0 0 -1
423.89129638671875 428.96527099609375 100 0 0 1
429.890899658203125 429.03472900390625 100 0 0 1
428.96588134765625 508.964569091796875 100 0 0 1
423.03411865234375 503.035430908203125 100 0 0 1
423.03411865234375 503.035430908203125 0 0 0 -1
428.96588134765625 508.964569091796875 0 0 0 -1
382.03607177734375 509.528839111328125 0 0 0 -1
381.96392822265625 503.529266357421875 0 0 0 -1
423.03411865234375 503.035430908203125 100 0 0 1
428.96588134765625 508.964569091796875 100 0 0 1
382.03607177734375 509.528839111328125 100 0 0 1
381.96392822265625 503.529266357421875 100 0 0 1
304.044097900390625 503.529388427734375 0 0 0 -1
303.955902099609375 509.528717041015625 0 0 0 -1
267.99053955078125 509.00018310546875 0 0 0 -1
271 503.04376220703125 0 0 0 -1
304.044097900390625 503.529388427734375 100 0 0 1
303.955902099609375 509.528717041015625 100 0 0 1
267.99053955078125 509.00018310546875 100 0 0 1
271 503.04376220703125 100 0 0 1
265 503.02508544921875 0 0 0 -1
267.99053955078125 509.00018310546875 0 0 0 -1
205.025192260742188 509.5289306640625 0 0 0 -1
204.974807739257812 503.529144287109375 0 0 0 -1
265 503.02508544921875 100 0 0 1
267.99053955078125 509.00018310546875 100 0 0 1
205.025192260742188 509.5289306640625 100 0 0 1
204.974807739257812 503.529144287109375 100 0 0 1
271 503.04376220703125 0 0 0 -1
265 503.02508544921875 0 0 0 -1
265 320 0 0 0 -1
271 320 0 0 0 -1
271 503.04376220703125 100 0 0 1
265 503.02508544921875 100 0 0 1
265 320 100 0 0 1
271 320 100 0 0 1
385.0667724609375 215.93450927734375 0 0 0 -1
384.9332275390625 209.935989379882812 0 0 0 -1
423.984344482421875 209.06640625 0 0 0 -1
430.015655517578125 214.93359375 0 0 0 -1
385.0667724609375 215.93450927734375 100 0 0 1
384.9332275390625 209.935989379882812 100 0 0 1
423.984344482421875 209.06640625 100 0 0 1
430.015655517578125 214.93359375 100 0 0 1
341 210 0 0 0 -1
341 216 0 0 0 -1
277.9957275390625 216 0 0 0 -1
284.0042724609375 210 0 0 0 -1
341 210 100 0 0 1
341 216 100 0 0 1
277.9957275390625 216 100 0 0 1
284.0042724609375 210 100 0 0 1
284.0042724609375 210 0 0 0 -1
277.9957275390625 216 0 0 0 -1
278.15521240234375 103.9957275390625 0 0 0 -1
284.15521240234375 104.0042724609375 0 0 0 -1
284.0042724609375 210 100 0 0 1
277.9957275390625 216 100 0 0 1
278.15521240234375 103.9957275390625 100 0 0 1
284.15521240234375 104.0042724609375 100 0 0 1
433.045318603515625 444.513336181640625 0 0 0 -1
432.954681396484375 438.514007568359375 0 0 0 -1
464 438.04498291015625 0 0 0 -1
470 443.95501708984375 0 0 0 -1
433.045318603515625 444.513336181640625 100 0 0 1
432.954681396484375 438.514007568359375 100 0 0 1
464 438.04498291015625 100 0 0 1
470 443.95501708984375 100 0 0 1
470 443.95501708984375 0 0 0 -1
464 438.04498291015625 0 0 0 -1
464 379.03973388671875 0 0 0 -1
470 372.96026611328125 0 0 0 -1
470 443.95501708984375 100 0 0 1
464 438.04498291015625 100 0 0 1
464 379.03973388671875 100 0 0 1
470 372.96026611328125 100 0 0 1
723.04278564453125 444.51336669921875 0 0 0 -1
722.95721435546875 438.51397705078125 0 0 0 -1
756 438.042510986328125 0 0 0 -1
762 443.957489013671875 0 0 0 -1
723.04278564453125 444.51336669921875 100 0 0 1
722.95721435546875 438.51397705078125 100 0 0 1
756 438.042510986328125 100 0 0 1
762 443.957489013671875 100 0 0 1
429.039459228515625 379.499725341796875 0 0 0 -1
428.960540771484375 373.500274658203125 0 0 0 -1
470 372.96026611328125 0 0 0 -1
464 379.03973388671875 0 0 0 -1
429.039459228515625 379.499725341796875 100 0 0 1
428.960540771484375 373.500274658203125 100 0 0 1
470 372.96026611328125 100 0 0 1
464 379.03973388671875 100 0 0 1
188 265 0 0 0 -1
194 264.877593994140625 0 0 0 -1
190.937530517578125 259 0 0 0 -1
188 265 100 0 0 1
194 264.877593994140625 100 0 0 1
190.937530517578125 259 100 0 0 1
426.0025634765625 27.0000476837158203 0 0 0 -1
428.983978271484375 20.980499267578125 0 0 0 -1
422.983917236328125 20.9854888916015625 0 0 0 -1
426.0025634765625 27.0000476837158203 100 0 0 1
428.983978271484375 20.980499267578125 100 0 0 1
422.983917236328125 20.9854888916015625 100 0 0 1
267.99053955078125 509.00018310546875 0 0 0 -1
265 503.02508544921875 0 0 0 -1
271 503.04376220703125 0 0 0 -1
267.99053955078125 509.00018310546875 100 0 0 1
265 503.02508544921875 100 0 0 1
271 503.04376220703125 100 0 0 1
4 0 1 2 3
4 4 5 6 7
4 8 9 10 11
4 12 13 14 15
4 16 17 18 19
4 20 21 22 23
4 24 25 26 27
4 28 29 30 31
4 32 33 34 35
4 36 37 38 39
4 40 41 42 43
4 44 45 46 47
4 48 49 50 51
4 52 53 54 55
4 56 57 58 59
4 60 61 62 63
4 64 65 66 67
4 68 69 70 71
4 72 73 74 75
4 76 77 78 79
4 80 81 82 83
4 84 85 86 87
4 88 89 90 91
4 92 93 94 95
4 96 97 98 99
4 100 101 102 103
4 104 105 106 107
4 108 109 110 111
4 112 113 114 115
4 116 117 118 119
4 120 121 122 123
4 124 125 126 127
4 128 129 130 131
4 132 133 134 135
4 136 137 138 139
4 140 141 142 143
4 144 145 146 147
4 148 149 150 151
4 152 153 154 155
4 156 157 158 159
4 160 161 162 163
4 164 165 166 167
4 168 169 170 171
4 172 173 174 175
4 176 177 178 179
4 180 181 182 183
4 184 185 186 187
4 188 189 190 191
4 192 193 194 195
4 196 197 198 199
4 200 201 202 203
4 204 205 206 207
4 208 209 210 211
4 212 213 214 215
4 216 217 218 219
4 220 221 222 223
4 224 225 226 227
4 228 229 230 231
4 232 233 234 235
4 236 237 238 239
4 240 241 242 243
4 244 245 246 247
4 248 249 250 251
4 252 253 254 255
4 256 257 258 259
4 260 261 262 263
4 264 265 266 267
4 268 269 270 271
4 272 273 274 275
4 276 277 278 279
4 280 281 282 283
4 284 285 286 287
4 288 289 290 291
4 292 293 294 295
4 296 297 298 299
4 300 301 302 303
4 304 305 306 307
4 308 309 310 311
4 312 313 314 315
4 316 317 318 319
4 320 321 322 323
4 324 325 326 327
4 328 329 330 331
4 332 333 334 335
4 336 337 338 339
4 340 341 342 343
4 344 345 346 347
4 348 349 350 351
4 352 353 354 355
4 356 357 358 359
4 360 361 362 363
4 364 365 366 367
4 368 369 370 371
4 372 373 374 375
4 376 377 378 379
4 380 381 382 383
4 384 385 386 387
4 388 389 390 391
4 392 393 394 395
4 396 397 398 399
4 400 401 402 403
4 404 405 406 407
4 408 409 410 411
4 412 413 414 415
4 416 417 418 419
4 420 421 422 423
4 424 425 426 427
4 428 429 430 431
4 432 433 434 435
4 436 437 438 439
4 440 441 442 443
4 444 445 446 447
4 448 449 450 451
4 452 453 454 455
4 456 457 458 459
4 460 461 462 463
4 464 465 466 467
4 468 469 470 471
4 472 473 474 475
4 476 477 478 479
4 480 481 482 483
4 484 485 486 487
4 488 489 490 491
4 492 493 494 495
4 496 497 498 499
4 500 501 502 503
4 504 505 506 507
4 508 509 510 511
4 512 513 514 515
4 516 517 518 519
4 520 521 522 523
4 524 525 526 527
4 528 529 530 531
4 532 533 534 535
4 536 537 538 539
4 540 541 542 543
4 544 545 546 547
4 548 549 550 551
4 552 553 554 555
4 556 557 558 559
4 560 561 562 563
4 564 565 566 567
4 568 569 570 571
4 572 573 574 575
4 576 577 578 579
4 580 581 582 583
4 584 585 586 587
4 588 589 590 591
4 592 593 594 595
4 596 597 598 599
4 600 601 602 603
4 604 605 606 607
4 608 609 610 611
4 612 613 614 615
4 616 617 618 619
4 620 621 622 623
4 624 625 626 627
4 628 629 630 631
4 632 633 634 635
4 636 637 638 639
4 640 641 642 643
4 644 645 646 647
4 648 649 650 651
4 652 653 654 655
4 656 657 658 659
4 660 661 662 663
4 664 665 666 667
4 668 669 670 671
4 672 673 674 675
4 676 677 678 679
4 680 681 682 683
4 684 685 686 687
4 688 689 690 691
4 692 693 694 695
4 696 697 698 699
4 700 701 702 703
4 704 705 706 707
4 708 709 710 711
4 712 713 714 715
4 716 717 718 719
4 720 721 722 723
4 724 725 726 727
4 728 729 730 731
4 732 733 734 735
4 736 737 738 739
3 740 741 742
3 743 744 745
3 746 747 748
3 749 750 751
3 752 753 754
3 755 756 757
