ply
format ascii 1.0
element vertex 488
property float x
property float y
property float z
property float nx
property float ny
property float nz
element quads 122
property list uchar int vertex_indices
end_header
245.448944091796875 170 0 1 0 0
245.448944091796875 13 0 1 0 0
245.448944091796875 13 150 1 0 0
245.448944091796875 170 150 1 0 0
235.448944091796875 170 0 -1 -0 0
235.448944091796875 13 0 -1 -0 0
235.448944091796875 13 150 -1 -0 0
235.448944091796875 170 150 -1 -0 0
599.53839111328125 247 0 1 0 0
599.53839111328125 142 0 1 0 0
599.53839111328125 142 150 1 0 0
599.53839111328125 247 150 1 0 0
589.53839111328125 247 0 -1 -0 0
589.53839111328125 142 0 -1 -0 0
589.53839111328125 142 150 -1 -0 0
589.53839111328125 247 150 -1 -0 0
242.981536865234375 371 0 1 0 0
242.981536865234375 218 0 1 0 0
242.981536865234375 218 150 1 0 0
242.981536865234375 371 150 1 0 0
232.981536865234375 371 0 -1 -0 0
232.981536865234375 218 0 -1 -0 0
232.981536865234375 218 150 -1 -0 0
232.981536865234375 371 150 -1 -0 0
398 11.0032787322998047 0 -0 -1 0
310 11.0032787322998047 0 -0 -1 0
310 11.0032787322998047 150 -0 -1 0
398 11.0032787322998047 150 -0 -1 0
398 21.0032787322998047 0 0 1 0
310 21.0032787322998047 0 0 1 0
310 21.0032787322998047 150 0 1 0
398 21.0032787322998047 150 0 1 0
523 10.9905509948730469 0 -0 -1 0
432 10.9905509948730469 0 -0 -1 0
432 10.9905509948730469 150 -0 -1 0
523 10.9905509948730469 150 -0 -1 0
523 20.9905509948730469 0 0 1 0
432 20.9905509948730469 0 0 1 0
432 20.9905509948730469 150 0 1 0
523 20.9905509948730469 150 0 1 0
595 10.8416986465454102 0 -0 -1 0
556 10.8416986465454102 0 -0 -1 0
556 10.8416986465454102 150 -0 -1 0
595 10.8416986465454102 150 -0 -1 0
595 20.8416996002197266 0 0 1 0
556 20.8416996002197266 0 0 1 0
556 20.8416996002197266 150 0 1 0
595 20.8416996002197266 150 0 1 0
351 119.897789001464844 0 -0 -1 0
242 119.897789001464844 0 -0 -1 0
242 119.897789001464844 150 -0 -1 0
351 119.897789001464844 150 -0 -1 0
351 129.897796630859375 0 0 1 0
242 129.897796630859375 0 0 1 0
242 129.897796630859375 150 0 1 0
351 129.897796630859375 150 0 1 0
269 366 0 -0 -1 0
238 366 0 -0 -1 0
238 366 150 -0 -1 0
269 366 150 -0 -1 0
269 376 0 0 1 0
238 376 0 0 1 0
238 376 150 0 1 0
269 376 150 0 1 0
600 91 0 1 0 0
600 16 0 1 0 0
600 16 150 1 0 0
600 91 150 1 0 0
590 91 0 -1 -0 0
590 16 0 -1 -0 0
590 16 150 -1 -0 0
590 91 150 -1 -0 0
591 145.997390747070312 0 -0 -1 0
463 145.997390747070312 0 -0 -1 0
463 145.997390747070312 150 -0 -1 0
591 145.997390747070312 150 -0 -1 0
591 155.997390747070312 0 0 1 0
463 155.997390747070312 0 0 1 0
463 155.997390747070312 150 0 1 0
591 155.997390747070312 150 0 1 0
390.990875244140625 94 0 1 0 0
390.990875244140625 20 0 1 0 0
390.990875244140625 20 150 1 0 0
390.990875244140625 94 150 1 0 0
380.990875244140625 94 0 -1 -0 0
380.990875244140625 20 0 -1 -0 0
380.990875244140625 20 150 -1 -0 0
380.990875244140625 94 150 -1 -0 0
492 366 0 -0 -1 0
463 366 0 -0 -1 0
463 366 150 -0 -1 0
492 366 150 -0 -1 0
492 376 0 0 1 0
463 376 0 0 1 0
463 376 150 0 1 0
492 376 150 0 1 0
371 366 0 -0 -1 0
340 366 0 -0 -1 0
340 366 150 -0 -1 0
371 366 150 -0 -1 0
371 376 0 0 1 0
340 376 0 0 1 0
340 376 150 0 1 0
371 376 150 0 1 0
520 74 0 -0 -1 0
459 74 0 -0 -1 0
459 74 150 -0 -1 0
520 74 150 -0 -1 0
520 84 0 0 1 0
469 84 0 0 1 0
469 84 150 0 1 0
520 84 150 0 1 0
459 74 0 -1 0 0
459 100 0 -1 0 0
459 100 150 -1 0 0
459 74 150 -1 0 0
469 84 0 1 -0 0
469 100 0 1 -0 0
469 100 150 1 -0 0
469 84 150 1 -0 0
395.70892333984375 162.258346557617188 0 0.703826010227203369 -0.710372388362884521 0
354.519134521484375 121.448135375976562 0 0.703826010227203369 -0.710372388362884521 0
354.519134521484375 121.448135375976562 150 0.703826010227203369 -0.710372388362884521 0
395.70892333984375 162.258346557617188 150 0.703826010227203369 -0.710372388362884521 0
388.670654296875 169.362075805664062 0 -0.703826010227203369 0.710372388362884521 0
347.480865478515625 128.551864624023438 0 -0.703826010227203369 0.710372388362884521 0
347.480865478515625 128.551864624023438 150 -0.703826010227203369 0.710372388362884521 0
388.670654296875 169.362075805664062 150 -0.703826010227203369 0.710372388362884521 0
276 11.3703699111938477 0 -0 -1 0
248 11.3703699111938477 0 -0 -1 0
248 11.3703699111938477 150 -0 -1 0
276 11.3703699111938477 150 -0 -1 0
276 21.3703708648681641 0 0 1 0
248 21.3703708648681641 0 0 1 0
248 21.3703708648681641 150 0 1 0
276 21.3703708648681641 150 0 1 0
590 74.0112380981445312 0 -0 -1 0
560 74.0112380981445312 0 -0 -1 0
560 74.0112380981445312 150 -0 -1 0
590 74.0112380981445312 150 -0 -1 0
590 84.0112380981445312 0 0 1 0
560 84.0112380981445312 0 0 1 0
560 84.0112380981445312 150 0 1 0
590 84.0112380981445312 150 0 1 0
388.25201416015625 41.7479705810546875 0 0.70710676908493042 -0.70710676908493042 0
362.25201416015625 15.7479715347290039 0 0.70710676908493042 -0.70710676908493042 0
362.25201416015625 15.7479715347290039 150 0.70710676908493042 -0.70710676908493042 0
388.25201416015625 41.7479705810546875 150 0.70710676908493042 -0.70710676908493042 0
381.18096923828125 48.8190383911132812 0 -0.70710676908493042 0.70710676908493042 0
355.18096923828125 22.8190383911132812 0 -0.70710676908493042 0.70710676908493042 0
355.18096923828125 22.8190383911132812 150 -0.70710676908493042 0.70710676908493042 0
381.18096923828125 48.8190383911132812 150 -0.70710676908493042 0.70710676908493042 0
589.050537109375 317.995147705078125 0 -0.999999523162841797 -0.000971250527072697878 0
589.0047607421875 365.0919189453125 0 -0.999999523162841797 -0.000971250527072697878 0
589.0047607421875 365.0919189453125 150 -0.999999523162841797 -0.000971250527072697878 0
589.050537109375 317.995147705078125 150 -0.999999523162841797 -0.000971250527072697878 0
599.05047607421875 318.004852294921875 0 0.999999523162841797 0.000971250527072697878 0
598.9952392578125 374.9080810546875 0 0.999999523162841797 0.000971250527072697878 0
598.9952392578125 374.9080810546875 150 0.999999523162841797 0.000971250527072697878 0
599.05047607421875 318.004852294921875 150 0.999999523162841797 0.000971250527072697878 0
589.0047607421875 365.0919189453125 0 -0.0185705944895744324 -0.999827563762664795 0
563.90716552734375 365.558074951171875 0 -0.0185705944895744324 -0.999827563762664795 0
563.90716552734375 365.558074951171875 150 -0.0185705944895744324 -0.999827563762664795 0
589.0047607421875 365.0919189453125 150 -0.0185705944895744324 -0.999827563762664795 0
598.9952392578125 374.9080810546875 0 0.0185705944895744324 0.999827563762664795 0
564.09283447265625 375.556365966796875 0 0.0185705944895744324 0.999827563762664795 0
564.09283447265625 375.556365966796875 150 0.0185705944895744324 0.999827563762664795 0
598.9952392578125 374.9080810546875 150 0.0185705944895744324 0.999827563762664795 0
245.448944091796875 170 0 243.885574340820312 169.917190551757812 0
235.448944091796875 170 0 243.885574340820312 169.917190551757812 0
235.448944091796875 170 150 243.885574340820312 169.917190551757812 0
245.448944091796875 170 150 243.885574340820312 169.917190551757812 0
245.448944091796875 13 0 243.885574340820312 11.9171972274780273 0
235.448944091796875 13 0 243.885574340820312 11.9171972274780273 0
235.448944091796875 13 150 243.885574340820312 11.9171972274780273 0
245.448944091796875 13 150 243.885574340820312 11.9171972274780273 0
599.53839111328125 247 0 593.8284912109375 245.647613525390625 0
589.53839111328125 247 0 593.8284912109375 245.647613525390625 0
589.53839111328125 247 150 593.8284912109375 245.647613525390625 0
599.53839111328125 247 150 593.8284912109375 245.647613525390625 0
599.53839111328125 142 0 593.8284912109375 139.647613525390625 0
589.53839111328125 142 0 593.8284912109375 139.647613525390625 0
589.53839111328125 142 150 593.8284912109375 139.647613525390625 0
599.53839111328125 142 150 593.8284912109375 139.647613525390625 0
242.981536865234375 371 0 241.393417358398438 369.575164794921875 0
232.981536865234375 371 0 241.393417358398438 369.575164794921875 0
232.981536865234375 371 150 241.393417358398438 369.575164794921875 0
242.981536865234375 371 150 241.393417358398438 369.575164794921875 0
242.981536865234375 218 0 241.393417358398438 215.575164794921875 0
232.981536865234375 218 0 241.393417358398438 215.575164794921875 0
232.981536865234375 218 150 241.393417358398438 215.575164794921875 0
242.981536865234375 218 150 241.393417358398438 215.575164794921875 0
398 11.0032787322998047 0 394.477264404296875 10.8782415390014648 0
398 21.0032787322998047 0 394.477264404296875 10.8782415390014648 0
398 21.0032787322998047 150 394.477264404296875 10.8782415390014648 0
398 11.0032787322998047 150 394.477264404296875 10.8782415390014648 0
310 11.0032787322998047 0 305.477264404296875 10.8782415390014648 0
310 21.0032787322998047 0 305.477264404296875 10.8782415390014648 0
310 21.0032787322998047 150 305.477264404296875 10.8782415390014648 0
310 11.0032787322998047 150 305.477264404296875 10.8782415390014648 0
523 10.9905509948730469 0 518.25274658203125 10.8697757720947266 0
523 20.9905509948730469 0 518.25274658203125 10.8697757720947266 0
523 20.9905509948730469 150 518.25274658203125 10.8697757720947266 0
523 10.9905509948730469 150 518.25274658203125 10.8697757720947266 0
432 10.9905509948730469 0 426.25274658203125 10.8697757720947266 0
432 20.9905509948730469 0 426.25274658203125 10.8697757720947266 0
432 20.9905509948730469 150 426.25274658203125 10.8697757720947266 0
432 10.9905509948730469 150 426.25274658203125 10.8697757720947266 0
595 10.8416986465454102 0 580.74359130859375 10.5637063980102539 0
595 20.8416996002197266 0 580.74359130859375 10.5637063980102539 0
595 20.8416996002197266 150 580.74359130859375 10.5637063980102539 0
595 10.8416986465454102 150 580.74359130859375 10.5637063980102539 0
556 10.8416986465454102 0 540.74359130859375 10.5637063980102539 0
556 20.8416996002197266 0 540.74359130859375 10.5637063980102539 0
556 20.8416996002197266 150 540.74359130859375 10.5637063980102539 0
556 10.8416986465454102 150 540.74359130859375 10.5637063980102539 0
351 119.897789001464844 0 348.779815673828125 118.797813415527344 0
351 129.897796630859375 0 348.779815673828125 118.797813415527344 0
351 129.897796630859375 150 348.779815673828125 118.797813415527344 0
351 119.897789001464844 150 348.779815673828125 118.797813415527344 0
242 119.897789001464844 0 238.779815673828125 118.797813415527344 0
242 129.897796630859375 0 238.779815673828125 118.797813415527344 0
242 129.897796630859375 150 238.779815673828125 118.797813415527344 0
242 119.897789001464844 150 238.779815673828125 118.797813415527344 0
269 366 0 261.32257080078125 354.19354248046875 0
269 376 0 261.32257080078125 354.19354248046875 0
269 376 150 261.32257080078125 354.19354248046875 0
269 366 150 261.32257080078125 354.19354248046875 0
238 366 0 229.322586059570312 354.19354248046875 0
238 376 0 229.322586059570312 354.19354248046875 0
238 376 150 229.322586059570312 354.19354248046875 0
238 366 150 229.322586059570312 354.19354248046875 0
600 91 0 592 90.7866668701171875 0
590 91 0 592 90.7866668701171875 0
590 91 150 592 90.7866668701171875 0
600 91 150 592 90.7866668701171875 0
600 16 0 592 14.7866668701171875 0
590 16 0 592 14.7866668701171875 0
590 16 150 592 14.7866668701171875 0
600 16 150 592 14.7866668701171875 0
591 145.997390747070312 0 587.3828125 144.856781005859375 0
591 155.997390747070312 0 587.3828125 144.856781005859375 0
591 155.997390747070312 150 587.3828125 144.856781005859375 0
591 145.997390747070312 150 587.3828125 144.856781005859375 0
463 145.997390747070312 0 458.3828125 144.856781005859375 0
463 155.997390747070312 0 458.3828125 144.856781005859375 0
463 155.997390747070312 150 458.3828125 144.856781005859375 0
463 145.997390747070312 150 458.3828125 144.856781005859375 0
390.990875244140625 94 0 385.70721435546875 93.7297286987304688 0
380.990875244140625 94 0 385.70721435546875 93.7297286987304688 0
380.990875244140625 94 150 385.70721435546875 93.7297286987304688 0
390.990875244140625 94 150 385.70721435546875 93.7297286987304688 0
390.990875244140625 20 0 385.70721435546875 18.7297306060791016 0
380.990875244140625 20 0 385.70721435546875 18.7297306060791016 0
380.990875244140625 20 150 385.70721435546875 18.7297306060791016 0
390.990875244140625 20 150 385.70721435546875 18.7297306060791016 0
492 366 0 476.03448486328125 353.379302978515625 0
492 376 0 476.03448486328125 353.379302978515625 0
492 376 150 476.03448486328125 353.379302978515625 0
492 366 150 476.03448486328125 353.379302978515625 0
463 366 0 446.03448486328125 353.379302978515625 0
463 376 0 446.03448486328125 353.379302978515625 0
463 376 150 446.03448486328125 353.379302978515625 0
463 366 150 446.03448486328125 353.379302978515625 0
371 366 0 360.032257080078125 354.19354248046875 0
371 376 0 360.032257080078125 354.19354248046875 0
371 376 150 360.032257080078125 354.19354248046875 0
371 366 150 360.032257080078125 354.19354248046875 0
340 366 0 328.032257080078125 354.19354248046875 0
340 376 0 328.032257080078125 354.19354248046875 0
340 376 150 328.032257080078125 354.19354248046875 0
340 366 150 328.032257080078125 354.19354248046875 0
520 74 0 512.47540283203125 72.7868881225585938 0
520 84 0 512.47540283203125 72.7868881225585938 0
520 84 150 512.47540283203125 72.7868881225585938 0
520 74 150 512.47540283203125 72.7868881225585938 0
395.70892333984375 162.258346557617188 0 389.594757080078125 160.163818359375 0
388.670654296875 169.362075805664062 0 389.594757080078125 160.163818359375 0
388.670654296875 169.362075805664062 150 389.594757080078125 160.163818359375 0
395.70892333984375 162.258346557617188 150 389.594757080078125 160.163818359375 0
354.519134521484375 121.448135375976562 0 347.694610595703125 118.6497802734375 0
347.480865478515625 128.551864624023438 0 347.694610595703125 118.6497802734375 0
347.480865478515625 128.551864624023438 150 347.694610595703125 118.6497802734375 0
354.519134521484375 121.448135375976562 150 347.694610595703125 118.6497802734375 0
276 11.3703699111938477 0 267.142852783203125 10.9642858505249023 0
276 21.3703708648681641 0 267.142852783203125 10.9642858505249023 0
276 21.3703708648681641 150 267.142852783203125 10.9642858505249023 0
276 11.3703699111938477 150 267.142852783203125 10.9642858505249023 0
248 11.3703699111938477 0 238.142852783203125 10.9642858505249023 0
248 21.3703708648681641 0 238.142852783203125 10.9642858505249023 0
248 21.3703708648681641 150 238.142852783203125 10.9642858505249023 0
248 11.3703699111938477 150 238.142852783203125 10.9642858505249023 0
590 74.0112380981445312 0 571.33331298828125 71.5441970825195312 0
590 84.0112380981445312 0 571.33331298828125 71.5441970825195312 0
590 84.0112380981445312 150 571.33331298828125 71.5441970825195312 0
590 74.0112380981445312 150 571.33331298828125 71.5441970825195312 0
560 74.0112380981445312 0 540.33331298828125 71.5441970825195312 0
560 84.0112380981445312 0 540.33331298828125 71.5441970825195312 0
560 84.0112380981445312 150 540.33331298828125 71.5441970825195312 0
560 74.0112380981445312 150 540.33331298828125 71.5441970825195312 0
459 100 0 441.346160888671875 97.1538467407226562 0
469 100 0 441.346160888671875 97.1538467407226562 0
469 100 150 441.346160888671875 97.1538467407226562 0
459 100 150 441.346160888671875 97.1538467407226562 0
388.25201416015625 41.7479705810546875 0 378.40008544921875 41.3196830749511719 0
381.18096923828125 48.8190383911132812 0 378.40008544921875 41.3196830749511719 0
381.18096923828125 48.8190383911132812 150 378.40008544921875 41.3196830749511719 0
388.25201416015625 41.7479705810546875 150 378.40008544921875 41.3196830749511719 0
362.25201416015625 15.7479715347290039 0 351.692962646484375 14.6125764846801758 0
355.18096923828125 22.8190383911132812 0 351.692962646484375 14.6125764846801758 0
355.18096923828125 22.8190383911132812 150 351.692962646484375 14.6125764846801758 0
362.25201416015625 15.7479715347290039 150 351.692962646484375 14.6125764846801758 0
589.050537109375 317.995147705078125 0 576.54425048828125 310.243194580078125 0
599.05047607421875 318.004852294921875 0 576.54425048828125 310.243194580078125 0
599.05047607421875 318.004852294921875 150 576.54425048828125 310.243194580078125 0
589.050537109375 317.995147705078125 150 576.54425048828125 310.243194580078125 0
563.90716552734375 365.558074951171875 0 540.442626953125 351.013702392578125 0
564.09283447265625 375.556365966796875 0 540.442626953125 351.013702392578125 0
564.09283447265625 375.556365966796875 150 540.442626953125 351.013702392578125 0
563.90716552734375 365.558074951171875 150 540.442626953125 351.013702392578125 0
245.448944091796875 170 0 0 0 -1
235.448944091796875 170 0 0 0 -1
235.448944091796875 13 0 0 0 -1
245.448944091796875 13 0 0 0 -1
245.448944091796875 170 150 0 0 1
235.448944091796875 170 150 0 0 1
235.448944091796875 13 150 0 0 1
245.448944091796875 13 150 0 0 1
599.53839111328125 247 0 0 0 -1
589.53839111328125 247 0 0 0 -1
589.53839111328125 142 0 0 0 -1
599.53839111328125 142 0 0 0 -1
599.53839111328125 247 150 0 0 1
589.53839111328125 247 150 0 0 1
589.53839111328125 142 150 0 0 1
599.53839111328125 142 150 0 0 1
242.981536865234375 371 0 0 0 -1
232.981536865234375 371 0 0 0 -1
232.981536865234375 218 0 0 0 -1
242.981536865234375 218 0 0 0 -1
242.981536865234375 371 150 0 0 1
232.981536865234375 371 150 0 0 1
232.981536865234375 218 150 0 0 1
242.981536865234375 218 150 0 0 1
398 11.0032787322998047 0 0 0 -1
398 21.0032787322998047 0 0 0 -1
310 21.0032787322998047 0 0 0 -1
310 11.0032787322998047 0 0 0 -1
398 11.0032787322998047 150 0 0 1
398 21.0032787322998047 150 0 0 1
310 21.0032787322998047 150 0 0 1
310 11.0032787322998047 150 0 0 1
523 10.9905509948730469 0 0 0 -1
523 20.9905509948730469 0 0 0 -1
432 20.9905509948730469 0 0 0 -1
432 10.9905509948730469 0 0 0 -1
523 10.9905509948730469 150 0 0 1
523 20.9905509948730469 150 0 0 1
432 20.9905509948730469 150 0 0 1
432 10.9905509948730469 150 0 0 1
595 10.8416986465454102 0 0 0 -1
595 20.8416996002197266 0 0 0 -1
556 20.8416996002197266 0 0 0 -1
556 10.8416986465454102 0 0 0 -1
595 10.8416986465454102 150 0 0 1
595 20.8416996002197266 150 0 0 1
556 20.8416996002197266 150 0 0 1
556 10.8416986465454102 150 0 0 1
351 119.897789001464844 0 0 0 -1
351 129.897796630859375 0 0 0 -1
242 129.897796630859375 0 0 0 -1
242 119.897789001464844 0 0 0 -1
351 119.897789001464844 150 0 0 1
351 129.897796630859375 150 0 0 1
242 129.897796630859375 150 0 0 1
242 119.897789001464844 150 0 0 1
269 366 0 0 0 -1
269 376 0 0 0 -1
238 376 0 0 0 -1
238 366 0 0 0 -1
269 366 150 0 0 1
269 376 150 0 0 1
238 376 150 0 0 1
238 366 150 0 0 1
600 91 0 0 0 -1
590 91 0 0 0 -1
590 16 0 0 0 -1
600 16 0 0 0 -1
600 91 150 0 0 1
590 91 150 0 0 1
590 16 150 0 0 1
600 16 150 0 0 1
591 145.997390747070312 0 0 0 -1
591 155.997390747070312 0 0 0 -1
463 155.997390747070312 0 0 0 -1
463 145.997390747070312 0 0 0 -1
591 145.997390747070312 150 0 0 1
591 155.997390747070312 150 0 0 1
463 155.997390747070312 150 0 0 1
463 145.997390747070312 150 0 0 1
390.990875244140625 94 0 0 0 -1
380.990875244140625 94 0 0 0 -1
380.990875244140625 20 0 0 0 -1
390.990875244140625 20 0 0 0 -1
390.990875244140625 94 150 0 0 1
380.990875244140625 94 150 0 0 1
380.990875244140625 20 150 0 0 1
390.990875244140625 20 150 0 0 1
492 366 0 0 0 -1
492 376 0 0 0 -1
463 376 0 0 0 -1
463 366 0 0 0 -1
492 366 150 0 0 1
492 376 150 0 0 1
463 376 150 0 0 1
463 366 150 0 0 1
371 366 0 0 0 -1
371 376 0 0 0 -1
340 376 0 0 0 -1
340 366 0 0 0 -1
371 366 150 0 0 1
371 376 150 0 0 1
340 376 150 0 0 1
340 366 150 0 0 1
520 74 0 0 0 -1
520 84 0 0 0 -1
469 84 0 0 0 -1
459 74 0 0 0 -1
520 74 150 0 0 1
520 84 150 0 0 1
469 84 150 0 0 1
459 74 150 0 0 1
459 74 0 0 0 -1
469 84 0 0 0 -1
469 100 0 0 0 -1
459 100 0 0 0 -1
459 74 150 0 0 1
469 84 150 0 0 1
469 100 150 0 0 1
459 100 150 0 0 1
395.70892333984375 162.258346557617188 0 0 0 -1
388.670654296875 169.362075805664062 0 0 0 -1
347.480865478515625 128.551864624023438 0 0 0 -1
354.519134521484375 121.448135375976562 0 0 0 -1
395.70892333984375 162.258346557617188 150 0 0 1
388.670654296875 169.362075805664062 150 0 0 1
347.480865478515625 128.551864624023438 150 0 0 1
354.519134521484375 121.448135375976562 150 0 0 1
276 11.3703699111938477 0 0 0 -1
276 21.3703708648681641 0 0 0 -1
248 21.3703708648681641 0 0 0 -1
248 11.3703699111938477 0 0 0 -1
276 11.3703699111938477 150 0 0 1
276 21.3703708648681641 150 0 0 1
248 21.3703708648681641 150 0 0 1
248 11.3703699111938477 150 0 0 1
590 74.0112380981445312 0 0 0 -1
590 84.0112380981445312 0 0 0 -1
560 84.0112380981445312 0 0 0 -1
560 74.0112380981445312 0 0 0 -1
590 74.0112380981445312 150 0 0 1
590 84.0112380981445312 150 0 0 1
560 84.0112380981445312 150 0 0 1
560 74.0112380981445312 150 0 0 1
388.25201416015625 41.7479705810546875 0 0 0 -1
381.18096923828125 48.8190383911132812 0 0 0 -1
355.18096923828125 22.8190383911132812 0 0 0 -1
362.25201416015625 15.7479715347290039 0 0 0 -1
388.25201416015625 41.7479705810546875 150 0 0 1
381.18096923828125 48.8190383911132812 150 0 0 1
355.18096923828125 22.8190383911132812 150 0 0 1
362.25201416015625 15.7479715347290039 150 0 0 1
589.050537109375 317.995147705078125 0 0 0 -1
599.05047607421875 318.004852294921875 0 0 0 -1
598.9952392578125 374.9080810546875 0 0 0 -1
589.0047607421875 365.0919189453125 0 0 0 -1
589.050537109375 317.995147705078125 150 0 0 1
599.05047607421875 318.004852294921875 150 0 0 1
598.9952392578125 374.9080810546875 150 0 0 1
589.0047607421875 365.0919189453125 150 0 0 1
589.0047607421875 365.0919189453125 0 0 0 -1
598.9952392578125 374.9080810546875 0 0 0 -1
564.09283447265625 375.556365966796875 0 0 0 -1
563.90716552734375 365.558074951171875 0 0 0 -1
589.0047607421875 365.0919189453125 150 0 0 1
598.9952392578125 374.9080810546875 150 0 0 1
564.09283447265625 375.556365966796875 150 0 0 1
563.90716552734375 365.558074951171875 150 0 0 1
4 0 1 2 3
4 4 5 6 7
4 8 9 10 11
4 12 13 14 15
4 16 17 18 19
4 20 21 22 23
4 24 25 26 27
4 28 29 30 31
4 32 33 34 35
4 36 37 38 39
4 40 41 42 43
4 44 45 46 47
4 48 49 50 51
4 52 53 54 55
4 56 57 58 59
4 60 61 62 63
4 64 65 66 67
4 68 69 70 71
4 72 73 74 75
4 76 77 78 79
4 80 81 82 83
4 84 85 86 87
4 88 89 90 91
4 92 93 94 95
4 96 97 98 99
4 100 101 102 103
4 104 105 106 107
4 108 109 110 111
4 112 113 114 115
4 116 117 118 119
4 120 121 122 123
4 124 125 126 127
4 128 129 130 131
4 132 133 134 135
4 136 137 138 139
4 140 141 142 143
4 144 145 146 147
4 148 149 150 151
4 152 153 154 155
4 156 157 158 159
4 160 161 162 163
4 164 165 166 167
4 168 169 170 171
4 172 173 174 175
4 176 177 178 179
4 180 181 182 183
4 184 185 186 187
4 188 189 190 191
4 192 193 194 195
4 196 197 198 199
4 200 201 202 203
4 204 205 206 207
4 208 209 210 211
4 212 213 214 215
4 216 217 218 219
4 220 221 222 223
4 224 225 226 227
4 228 229 230 231
4 232 233 234 235
4 236 237 238 239
4 240 241 242 243
4 244 245 246 247
4 248 249 250 251
4 252 253 254 255
4 256 257 258 259
4 260 261 262 263
4 264 265 266 267
4 268 269 270 271
4 272 273 274 275
4 276 277 278 279
4 280 281 282 283
4 284 285 286 287
4 288 289 290 291
4 292 293 294 295
4 296 297 298 299
4 300 301 302 303
4 304 305 306 307
4 308 309 310 311
4 312 313 314 315
4 316 317 318 319
4 320 321 322 323
4 324 325 326 327
4 328 329 330 331
4 332 333 334 335
4 336 337 338 339
4 340 341 342 343
4 344 345 346 347
4 348 349 350 351
4 352 353 354 355
4 356 357 358 359
4 360 361 362 363
4 364 365 366 367
4 368 369 370 371
4 372 373 374 375
4 376 377 378 379
4 380 381 382 383
4 384 385 386 387
4 388 389 390 391
4 392 393 394 395
4 396 397 398 399
4 400 401 402 403
4 404 405 406 407
4 408 409 410 411
4 412 413 414 415
4 416 417 418 419
4 420 421 422 423
4 424 425 426 427
4 428 429 430 431
4 432 433 434 435
4 436 437 438 439
4 440 441 442 443
4 444 445 446 447
4 448 449 450 451
4 452 453 454 455
4 456 457 458 459
4 460 461 462 463
4 464 465 466 467
4 468 469 470 471
4 472 473 474 475
4 476 477 478 479
4 480 481 482 483
4 484 485 486 487
