ply
format ascii 1.0
element vertex 660
property float x
property float y
property float z
property float nx
property float ny
property float nz
element quads 165
property list uchar int vertex_indices
end_header
365 87.0268173217773438 0 -0 -1 0
275 87.0268173217773438 0 -0 -1 0
275 87.0268173217773438 100 -0 -1 0
365 87.0268173217773438 100 -0 -1 0
365 93.0268173217773438 0 0 1 0
275 93.0268173217773438 0 0 1 0
275 93.0268173217773438 100 0 1 0
365 93.0268173217773438 100 0 1 0
550 87.0268173217773438 0 -0 -1 0
537 87.0268173217773438 0 -0 -1 0
537 87.0268173217773438 100 -0 -1 0
550 87.0268173217773438 100 -0 -1 0
550 93.0268173217773438 0 0 1 0
537 93.0268173217773438 0 0 1 0
537 93.0268173217773438 100 0 1 0
550 93.0268173217773438 100 0 1 0
384 436.50048828125 0 -0 -1 0
275 436.50048828125 0 -0 -1 0
275 436.50048828125 100 -0 -1 0
384 436.50048828125 100 -0 -1 0
384 442.50048828125 0 0 1 0
275 442.50048828125 0 0 1 0
275 442.50048828125 100 0 1 0
384 442.50048828125 100 0 1 0
468 436.50048828125 0 -0 -1 0
442 436.50048828125 0 -0 -1 0
442 436.50048828125 100 -0 -1 0
468 436.50048828125 100 -0 -1 0
468 442.50048828125 0 0 1 0
442 442.50048828125 0 0 1 0
442 442.50048828125 100 0 1 0
468 442.50048828125 100 0 1 0
550 437 0 -0 -1 0
536 437 0 -0 -1 0
536 437 100 -0 -1 0
550 437 100 -0 -1 0
550 443 0 0 1 0
536 443 0 0 1 0
536 443 100 0 1 0
550 443 100 0 1 0
416.130950927734375 443 0 1 0 0
416.130950927734375 330 0 1 0 0
416.130950927734375 330 100 1 0 0
416.130950927734375 443 100 1 0 0
410.130950927734375 443 0 -1 -0 0
410.130950927734375 330 0 -1 -0 0
410.130950927734375 330 100 -1 -0 0
410.130950927734375 443 100 -1 -0 0
416 300 0 1 0 0
416 287 0 1 0 0
416 287 100 1 0 0
416 300 100 1 0 0
410 300 0 -1 -0 0
410 281 0 -1 -0 0
410 281 100 -1 -0 0
410 300 100 -1 -0 0
416 287 0 -0 1 0
467 287 0 -0 1 0
467 287 100 -0 1 0
416 287 100 -0 1 0
410 281 0 0 -1 0
467 281 0 0 -1 0
467 281 100 0 -1 0
410 281 100 0 -1 0
416 246 0 1 0 0
416 236 0 1 0 0
416 236 100 1 0 0
416 246 100 1 0 0
410 246 0 -1 -0 0
410 230 0 -1 -0 0
410 230 100 -1 -0 0
410 246 100 -1 -0 0
416 236 0 -0 1 0
461 236 0 -0 1 0
461 236 100 -0 1 0
416 236 100 -0 1 0
410 230 0 0 -1 0
467 230 0 0 -1 0
467 230 100 0 -1 0
410 230 100 0 -1 0
535 262 0 -0 -1 0
461 262 0 -0 -1 0
461 262 100 -0 -1 0
535 262 100 -0 -1 0
535 268 0 0 1 0
461 268 0 0 1 0
461 268 100 0 1 0
535 268 100 0 1 0
467 265 0 1 0 0
467 230 0 1 0 0
467 230 100 1 0 0
467 265 100 1 0 0
461 268 0 -1 -0 0
461 236 0 -1 -0 0
461 236 100 -1 -0 0
461 268 100 -1 -0 0
461 262 0 -1 0 0
461 284 0 -1 0 0
461 284 100 -1 0 0
461 262 100 -1 0 0
467 265 0 1 -0 0
467 287 0 1 -0 0
467 287 100 1 -0 0
467 265 100 1 -0 0
461 284 0 -1 0 0
461 296 0 -1 0 0
461 296 100 -1 0 0
461 284 100 -1 0 0
467 281 0 1 -0 0
467 296 0 1 -0 0
467 296 100 1 -0 0
467 281 100 1 -0 0
272 315 0 -0 -1 0
231 315 0 -0 -1 0
231 315 100 -0 -1 0
272 315 100 -0 -1 0
272 321 0 0 1 0
231 321 0 0 1 0
231 321 100 0 1 0
272 321 100 0 1 0
311.003631591796875 230 0 -0 -1 0
228 230 0 -0 -1 0
228 230 100 -0 -1 0
311.003631591796875 230 100 -0 -1 0
314 236 0 0 1 0
234 236 0 0 1 0
234 236 100 0 1 0
314 236 100 0 1 0
317.003631591796875 230 0 0.999999284744262695 0.00120975577738136053 0
317.170562744140625 92.003631591796875 0 0.999999284744262695 0.00120975577738136053 0
317.170562744140625 92.003631591796875 100 0.999999284744262695 0.00120975577738136053 0
317.003631591796875 230 100 0.999999284744262695 0.00120975577738136053 0
311.003631591796875 230 0 -0.999999284744262695 -0.00120975577738136053 0
311.170562744140625 91.996368408203125 0 -0.999999284744262695 -0.00120975577738136053 0
311.170562744140625 91.996368408203125 100 -0.999999284744262695 -0.00120975577738136053 0
311.003631591796875 230 100 -0.999999284744262695 -0.00120975577738136053 0
314 236 0 -0 1 0
339 236 0 -0 1 0
339 236 100 -0 1 0
314 236 100 -0 1 0
317.003631591796875 230 0 0 -1 0
339 230 0 0 -1 0
339 230 100 0 -1 0
317.003631591796875 230 100 0 -1 0
228 230 0 -1 0 0
228 252 0 -1 0 0
228 252 100 -1 0 0
228 230 100 -1 0 0
234 236 0 1 -0 0
234 252 0 1 -0 0
234 252 100 1 -0 0
234 236 100 1 -0 0
534 230.161911010742188 0 -0 -1 0
509 230.161911010742188 0 -0 -1 0
509 230.161911010742188 100 -0 -1 0
534 230.161911010742188 100 -0 -1 0
534 236.161911010742188 0 0 1 0
509 236.161911010742188 0 0 1 0
509 236.161911010742188 100 0 1 0
534 236.161911010742188 100 0 1 0
356 451 0 -0 -1 0
315 451 0 -0 -1 0
315 451 100 -0 -1 0
356 451 100 -0 -1 0
356 457 0 0 1 0
315 457 0 0 1 0
315 457 100 0 1 0
356 457 100 0 1 0
233.511444091796875 318 0 1 0 0
233.511444091796875 299 0 1 0 0
233.511444091796875 299 100 1 0 0
233.511444091796875 318 100 1 0 0
227.511444091796875 318 0 -1 -0 0
227.511444091796875 299 0 -1 -0 0
227.511444091796875 299 100 -1 -0 0
227.511444091796875 318 100 -1 -0 0
358 121.763633728027344 0 -0 -1 0
316 121.763633728027344 0 -0 -1 0
316 121.763633728027344 100 -0 -1 0
358 121.763633728027344 100 -0 -1 0
358 127.763633728027344 0 0 1 0
316 127.763633728027344 0 0 1 0
316 127.763633728027344 100 0 1 0
358 127.763633728027344 100 0 1 0
533 293.510650634765625 0 -0 -1 0
509 293.510650634765625 0 -0 -1 0
509 293.510650634765625 100 -0 -1 0
533 293.510650634765625 100 -0 -1 0
533 299.510650634765625 0 0 1 0
509 299.510650634765625 0 0 1 0
509 299.510650634765625 100 0 1 0
533 299.510650634765625 100 0 1 0
474.001312255859375 93.0268173217773438 0 0.000432510307291522622 0.999999880790710449 0
533 93.0012969970703125 0 0.000432510307291522622 0.999999880790710449 0
533 93.0012969970703125 100 0.000432510307291522622 0.999999880790710449 0
474.001312255859375 93.0268173217773438 100 0.000432510307291522622 0.999999880790710449 0
473.998687744140625 87.0268173217773438 0 -0.000432510307291522622 -0.999999880790710449 0
539 86.9987030029296875 0 -0.000432510307291522622 -0.999999880790710449 0
539 86.9987030029296875 100 -0.000432510307291522622 -0.999999880790710449 0
473.998687744140625 87.0268173217773438 100 -0.000432510307291522622 -0.999999880790710449 0
533 93.0012969970703125 0 -1 0 0
533 436.033935546875 0 -1 0 0
533 436.033935546875 100 -1 0 0
533 93.0012969970703125 100 -1 0 0
539 86.9987030029296875 0 1 -0 0
539 441.966064453125 0 1 -0 0
539 441.966064453125 100 1 -0 0
539 86.9987030029296875 100 1 -0 0
388.003204345703125 93.0268173217773438 0 0.00107262504752725363 0.999999403953552246 0
410 93.0032196044921875 0 0.00107262504752725363 0.999999403953552246 0
410 93.0032196044921875 100 0.00107262504752725363 0.999999403953552246 0
388.003204345703125 93.0268173217773438 100 0.00107262504752725363 0.999999403953552246 0
387.996795654296875 87.0268173217773438 0 -0.00107262504752725363 -0.999999403953552246 0
416 86.9967803955078125 0 -0.00107262504752725363 -0.999999403953552246 0
416 86.9967803955078125 100 -0.00107262504752725363 -0.999999403953552246 0
387.996795654296875 87.0268173217773438 100 -0.00107262504752725363 -0.999999403953552246 0
410 93.0032196044921875 0 -1 0 0
410 194.04461669921875 0 -1 0 0
410 194.04461669921875 100 -1 0 0
410 93.0032196044921875 100 -1 0 0
416 86.9967803955078125 0 1 -0 0
416 199.95538330078125 0 1 -0 0
416 199.95538330078125 100 1 -0 0
416 86.9967803955078125 100 1 -0 0
492.03411865234375 442.50030517578125 0 0.0113742528483271599 0.999935328960418701 0
539 441.966064453125 0 0.0113742528483271599 0.999935328960418701 0
539 441.966064453125 100 0.0113742528483271599 0.999935328960418701 0
492.03411865234375 442.50030517578125 100 0.0113742528483271599 0.999935328960418701 0
491.96588134765625 436.500701904296875 0 -0.0113742528483271599 -0.999935328960418701 0
533 436.033935546875 0 -0.0113742528483271599 -0.999935328960418701 0
533 436.033935546875 100 -0.0113742528483271599 -0.999935328960418701 0
491.96588134765625 436.500701904296875 100 -0.0113742528483271599 -0.999935328960418701 0
354.5118408203125 153.964309692382812 0 -0.999929249286651611 -0.0118974810466170311 0
354.035186767578125 194.02374267578125 0 -0.999929249286651611 -0.0118974810466170311 0
354.035186767578125 194.02374267578125 100 -0.999929249286651611 -0.0118974810466170311 0
354.5118408203125 153.964309692382812 100 -0.999929249286651611 -0.0118974810466170311 0
360.51141357421875 154.035690307617188 0 0.999929249286651611 0.0118974810466170311 0
359.964813232421875 199.97625732421875 0 0.999929249286651611 0.0118974810466170311 0
359.964813232421875 199.97625732421875 100 0.999929249286651611 0.0118974810466170311 0
360.51141357421875 154.035690307617188 100 0.999929249286651611 0.0118974810466170311 0
354.035186767578125 194.02374267578125 0 -0.0080404793843626976 -0.999967694282531738 0
315.97589111328125 194.32977294921875 0 -0.0080404793843626976 -0.999967694282531738 0
315.97589111328125 194.32977294921875 100 -0.0080404793843626976 -0.999967694282531738 0
354.035186767578125 194.02374267578125 100 -0.0080404793843626976 -0.999967694282531738 0
359.964813232421875 199.97625732421875 0 0.0080404793843626976 0.999967694282531738 0
316.02410888671875 200.329574584960938 0 0.0080404793843626976 0.999967694282531738 0
316.02410888671875 200.329574584960938 100 0.0080404793843626976 0.999967694282531738 0
359.964813232421875 199.97625732421875 100 0.0080404793843626976 0.999967694282531738 0
391.044952392578125 200.329330444335938 0 0.0149833327159285545 0.999887764453887939 0
416 199.95538330078125 0 0.0149833327159285545 0.999887764453887939 0
416 199.95538330078125 100 0.0149833327159285545 0.999887764453887939 0
391.044952392578125 200.329330444335938 100 0.0149833327159285545 0.999887764453887939 0
390.955047607421875 194.330001831054688 0 -0.0149833327159285545 -0.999887764453887939 0
410 194.04461669921875 0 -0.0149833327159285545 -0.999887764453887939 0
410 194.04461669921875 100 -0.0149833327159285545 -0.999887764453887939 0
390.955047607421875 194.330001831054688 100 -0.0149833327159285545 -0.999887764453887939 0
365 87.0268173217773438 0 361.9444580078125 86.0598526000976562 0
365 93.0268173217773438 0 361.9444580078125 86.0598526000976562 0
365 93.0268173217773438 100 361.9444580078125 86.0598526000976562 0
365 87.0268173217773438 100 361.9444580078125 86.0598526000976562 0
275 87.0268173217773438 0 270.9444580078125 86.0598526000976562 0
275 93.0268173217773438 0 270.9444580078125 86.0598526000976562 0
275 93.0268173217773438 100 270.9444580078125 86.0598526000976562 0
275 87.0268173217773438 100 270.9444580078125 86.0598526000976562 0
550 87.0268173217773438 0 508.69232177734375 80.3324432373046875 0
550 93.0268173217773438 0 508.69232177734375 80.3324432373046875 0
550 93.0268173217773438 100 508.69232177734375 80.3324432373046875 0
550 87.0268173217773438 100 508.69232177734375 80.3324432373046875 0
537 87.0268173217773438 0 494.69232177734375 80.3324432373046875 0
537 93.0268173217773438 0 494.69232177734375 80.3324432373046875 0
537 93.0268173217773438 100 494.69232177734375 80.3324432373046875 0
537 87.0268173217773438 100 494.69232177734375 80.3324432373046875 0
384 436.50048828125 0 381.47705078125 432.49591064453125 0
384 442.50048828125 0 381.47705078125 432.49591064453125 0
384 442.50048828125 100 381.47705078125 432.49591064453125 0
384 436.50048828125 100 381.47705078125 432.49591064453125 0
275 436.50048828125 0 271.47705078125 432.49591064453125 0
275 442.50048828125 0 271.47705078125 432.49591064453125 0
275 442.50048828125 100 271.47705078125 432.49591064453125 0
275 436.50048828125 100 271.47705078125 432.49591064453125 0
468 436.50048828125 0 451 419.712005615234375 0
468 442.50048828125 0 451 419.712005615234375 0
468 442.50048828125 100 451 419.712005615234375 0
468 436.50048828125 100 451 419.712005615234375 0
442 436.50048828125 0 424 419.712005615234375 0
442 442.50048828125 0 424 419.712005615234375 0
442 442.50048828125 100 424 419.712005615234375 0
442 436.50048828125 100 424 419.712005615234375 0
550 437 0 511.71429443359375 405.78570556640625 0
550 443 0 511.71429443359375 405.78570556640625 0
550 443 100 511.71429443359375 405.78570556640625 0
550 437 100 511.71429443359375 405.78570556640625 0
536 437 0 496.71429443359375 405.78570556640625 0
536 443 0 496.71429443359375 405.78570556640625 0
536 443 100 496.71429443359375 405.78570556640625 0
536 437 100 496.71429443359375 405.78570556640625 0
416.130950927734375 443 0 412.4483642578125 440.07965087890625 0
410.130950927734375 443 0 412.4483642578125 440.07965087890625 0
410.130950927734375 443 100 412.4483642578125 440.07965087890625 0
416.130950927734375 443 100 412.4483642578125 440.07965087890625 0
416.130950927734375 330 0 412.4483642578125 326.07965087890625 0
410.130950927734375 330 0 412.4483642578125 326.07965087890625 0
410.130950927734375 330 100 412.4483642578125 326.07965087890625 0
416.130950927734375 330 100 412.4483642578125 326.07965087890625 0
416 300 0 384 277.923065185546875 0
410 300 0 384 277.923065185546875 0
410 300 100 384 277.923065185546875 0
416 300 100 384 277.923065185546875 0
416 246 0 374.399993896484375 222.399993896484375 0
410 246 0 374.399993896484375 222.399993896484375 0
410 246 100 374.399993896484375 222.399993896484375 0
416 246 100 374.399993896484375 222.399993896484375 0
535 262 0 528.770263671875 258.45947265625 0
535 268 0 528.770263671875 258.45947265625 0
535 268 100 528.770263671875 258.45947265625 0
535 262 100 528.770263671875 258.45947265625 0
272 315 0 266.3658447265625 307.31707763671875 0
272 321 0 266.3658447265625 307.31707763671875 0
272 321 100 266.3658447265625 307.31707763671875 0
272 315 100 266.3658447265625 307.31707763671875 0
231 315 0 224.365859985351562 307.31707763671875 0
231 321 0 224.365859985351562 307.31707763671875 0
231 321 100 224.365859985351562 307.31707763671875 0
231 315 100 224.365859985351562 307.31707763671875 0
534 230.161911010742188 0 513.6400146484375 220.955429077148438 0
534 236.161911010742188 0 513.6400146484375 220.955429077148438 0
534 236.161911010742188 100 513.6400146484375 220.955429077148438 0
534 230.161911010742188 100 513.6400146484375 220.955429077148438 0
509 230.161911010742188 0 487.6400146484375 220.955429077148438 0
509 236.161911010742188 0 487.6400146484375 220.955429077148438 0
509 236.161911010742188 100 487.6400146484375 220.955429077148438 0
509 230.161911010742188 100 487.6400146484375 220.955429077148438 0
356 451 0 348.31707763671875 440 0
356 457 0 348.31707763671875 440 0
356 457 100 348.31707763671875 440 0
356 451 100 348.31707763671875 440 0
315 451 0 306.31707763671875 440 0
315 457 0 306.31707763671875 440 0
315 457 100 306.31707763671875 440 0
315 451 100 306.31707763671875 440 0
461 296 0 422.583343505859375 272.333343505859375 0
467 296 0 422.583343505859375 272.333343505859375 0
467 296 100 422.583343505859375 272.333343505859375 0
461 296 100 422.583343505859375 272.333343505859375 0
233.511444091796875 318 0 221.22137451171875 302.263153076171875 0
227.511444091796875 318 0 221.22137451171875 302.263153076171875 0
227.511444091796875 318 100 221.22137451171875 302.263153076171875 0
233.511444091796875 318 100 221.22137451171875 302.263153076171875 0
233.511444091796875 299 0 221.22137451171875 282.263153076171875 0
227.511444091796875 299 0 221.22137451171875 282.263153076171875 0
227.511444091796875 299 100 221.22137451171875 282.263153076171875 0
233.511444091796875 299 100 221.22137451171875 282.263153076171875 0
228 252 0 217.636367797851562 241.545455932617188 0
234 252 0 217.636367797851562 241.545455932617188 0
234 252 100 217.636367797851562 241.545455932617188 0
228 252 100 217.636367797851562 241.545455932617188 0
358 121.763633728027344 0 350.4761962890625 118.864501953125 0
358 127.763633728027344 0 350.4761962890625 118.864501953125 0
358 127.763633728027344 100 350.4761962890625 118.864501953125 0
358 121.763633728027344 100 350.4761962890625 118.864501953125 0
316 121.763633728027344 0 307.4761962890625 118.864501953125 0
316 127.763633728027344 0 307.4761962890625 118.864501953125 0
316 127.763633728027344 100 307.4761962890625 118.864501953125 0
316 121.763633728027344 100 307.4761962890625 118.864501953125 0
533 293.510650634765625 0 511.791656494140625 281.281036376953125 0
533 299.510650634765625 0 511.791656494140625 281.281036376953125 0
533 299.510650634765625 100 511.791656494140625 281.281036376953125 0
533 293.510650634765625 100 511.791656494140625 281.281036376953125 0
509 293.510650634765625 0 486.791656494140625 281.281036376953125 0
509 299.510650634765625 0 486.791656494140625 281.281036376953125 0
509 299.510650634765625 100 486.791656494140625 281.281036376953125 0
509 293.510650634765625 100 486.791656494140625 281.281036376953125 0
474.001312255859375 93.0268173217773438 0 464.967193603515625 91.4504852294921875 0
473.998687744140625 87.0268173217773438 0 464.967193603515625 91.4504852294921875 0
473.998687744140625 87.0268173217773438 100 464.967193603515625 91.4504852294921875 0
474.001312255859375 93.0268173217773438 100 464.967193603515625 91.4504852294921875 0
388.003204345703125 93.0268173217773438 0 369.3641357421875 88.7987823486328125 0
387.996795654296875 87.0268173217773438 0 369.3641357421875 88.7987823486328125 0
387.996795654296875 87.0268173217773438 100 369.3641357421875 88.7987823486328125 0
388.003204345703125 93.0268173217773438 100 369.3641357421875 88.7987823486328125 0
492.03411865234375 442.50030517578125 0 480.558441162109375 433.090545654296875 0
491.96588134765625 436.500701904296875 0 480.558441162109375 433.090545654296875 0
491.96588134765625 436.500701904296875 100 480.558441162109375 433.090545654296875 0
492.03411865234375 442.50030517578125 100 480.558441162109375 433.090545654296875 0
317.170562744140625 92.003631591796875 0 314.873382568359375 90.3369216918945312 0
311.170562744140625 91.996368408203125 0 314.873382568359375 90.3369216918945312 0
311.170562744140625 91.996368408203125 100 314.873382568359375 90.3369216918945312 0
317.170562744140625 92.003631591796875 100 314.873382568359375 90.3369216918945312 0
339 236 0 326.44000244140625 226.55999755859375 0
339 230 0 326.44000244140625 226.55999755859375 0
339 230 100 326.44000244140625 226.55999755859375 0
339 236 100 326.44000244140625 226.55999755859375 0
354.5118408203125 153.964309692382812 0 345.674713134765625 149.121246337890625 0
360.51141357421875 154.035690307617188 0 345.674713134765625 149.121246337890625 0
360.51141357421875 154.035690307617188 100 345.674713134765625 149.121246337890625 0
354.5118408203125 153.964309692382812 100 345.674713134765625 149.121246337890625 0
315.97589111328125 194.32977294921875 0 306.673980712890625 189.232009887695312 0
316.02410888671875 200.329574584960938 0 306.673980712890625 189.232009887695312 0
316.02410888671875 200.329574584960938 100 306.673980712890625 189.232009887695312 0
315.97589111328125 194.32977294921875 100 306.673980712890625 189.232009887695312 0
391.044952392578125 200.329330444335938 0 374.376861572265625 192.317611694335938 0
390.955047607421875 194.330001831054688 0 374.376861572265625 192.317611694335938 0
390.955047607421875 194.330001831054688 100 374.376861572265625 192.317611694335938 0
391.044952392578125 200.329330444335938 100 374.376861572265625 192.317611694335938 0
365 87.0268173217773438 0 0 0 -1
365 93.0268173217773438 0 0 0 -1
275 93.0268173217773438 0 0 0 -1
275 87.0268173217773438 0 0 0 -1
365 87.0268173217773438 100 0 0 1
365 93.0268173217773438 100 0 0 1
275 93.0268173217773438 100 0 0 1
275 87.0268173217773438 100 0 0 1
550 87.0268173217773438 0 0 0 -1
550 93.0268173217773438 0 0 0 -1
537 93.0268173217773438 0 0 0 -1
537 87.0268173217773438 0 0 0 -1
550 87.0268173217773438 100 0 0 1
550 93.0268173217773438 100 0 0 1
537 93.0268173217773438 100 0 0 1
537 87.0268173217773438 100 0 0 1
384 436.50048828125 0 0 0 -1
384 442.50048828125 0 0 0 -1
275 442.50048828125 0 0 0 -1
275 436.50048828125 0 0 0 -1
384 436.50048828125 100 0 0 1
384 442.50048828125 100 0 0 1
275 442.50048828125 100 0 0 1
275 436.50048828125 100 0 0 1
468 436.50048828125 0 0 0 -1
468 442.50048828125 0 0 0 -1
442 442.50048828125 0 0 0 -1
442 436.50048828125 0 0 0 -1
468 436.50048828125 100 0 0 1
468 442.50048828125 100 0 0 1
442 442.50048828125 100 0 0 1
442 436.50048828125 100 0 0 1
550 437 0 0 0 -1
550 443 0 0 0 -1
536 443 0 0 0 -1
536 437 0 0 0 -1
550 437 100 0 0 1
550 443 100 0 0 1
536 443 100 0 0 1
536 437 100 0 0 1
416.130950927734375 443 0 0 0 -1
410.130950927734375 443 0 0 0 -1
410.130950927734375 330 0 0 0 -1
416.130950927734375 330 0 0 0 -1
416.130950927734375 443 100 0 0 1
410.130950927734375 443 100 0 0 1
410.130950927734375 330 100 0 0 1
416.130950927734375 330 100 0 0 1
416 300 0 0 0 -1
410 300 0 0 0 -1
410 281 0 0 0 -1
416 287 0 0 0 -1
416 300 100 0 0 1
410 300 100 0 0 1
410 281 100 0 0 1
416 287 100 0 0 1
416 287 0 0 0 -1
410 281 0 0 0 -1
467 281 0 0 0 -1
467 287 0 0 0 -1
416 287 100 0 0 1
410 281 100 0 0 1
467 281 100 0 0 1
467 287 100 0 0 1
416 246 0 0 0 -1
410 246 0 0 0 -1
410 230 0 0 0 -1
416 236 0 0 0 -1
416 246 100 0 0 1
410 246 100 0 0 1
410 230 100 0 0 1
416 236 100 0 0 1
416 236 0 0 0 -1
410 230 0 0 0 -1
467 230 0 0 0 -1
461 236 0 0 0 -1
416 236 100 0 0 1
410 230 100 0 0 1
467 230 100 0 0 1
461 236 100 0 0 1
535 262 0 0 0 -1
535 268 0 0 0 -1
461 268 0 0 0 -1
461 262 0 0 0 -1
535 262 100 0 0 1
535 268 100 0 0 1
461 268 100 0 0 1
461 262 100 0 0 1
467 265 0 0 0 -1
461 268 0 0 0 -1
461 236 0 0 0 -1
467 230 0 0 0 -1
467 265 100 0 0 1
461 268 100 0 0 1
461 236 100 0 0 1
467 230 100 0 0 1
461 262 0 0 0 -1
467 265 0 0 0 -1
467 287 0 0 0 -1
461 284 0 0 0 -1
461 262 100 0 0 1
467 265 100 0 0 1
467 287 100 0 0 1
461 284 100 0 0 1
461 284 0 0 0 -1
467 281 0 0 0 -1
467 296 0 0 0 -1
461 296 0 0 0 -1
461 284 100 0 0 1
467 281 100 0 0 1
467 296 100 0 0 1
461 296 100 0 0 1
272 315 0 0 0 -1
272 321 0 0 0 -1
231 321 0 0 0 -1
231 315 0 0 0 -1
272 315 100 0 0 1
272 321 100 0 0 1
231 321 100 0 0 1
231 315 100 0 0 1
311.003631591796875 230 0 0 0 -1
314 236 0 0 0 -1
234 236 0 0 0 -1
228 230 0 0 0 -1
311.003631591796875 230 100 0 0 1
314 236 100 0 0 1
234 236 100 0 0 1
228 230 100 0 0 1
317.003631591796875 230 0 0 0 -1
311.003631591796875 230 0 0 0 -1
311.170562744140625 91.996368408203125 0 0 0 -1
317.170562744140625 92.003631591796875 0 0 0 -1
317.003631591796875 230 100 0 0 1
311.003631591796875 230 100 0 0 1
311.170562744140625 91.996368408203125 100 0 0 1
317.170562744140625 92.003631591796875 100 0 0 1
314 236 0 0 0 -1
317.003631591796875 230 0 0 0 -1
339 230 0 0 0 -1
339 236 0 0 0 -1
314 236 100 0 0 1
317.003631591796875 230 100 0 0 1
339 230 100 0 0 1
339 236 100 0 0 1
228 230 0 0 0 -1
234 236 0 0 0 -1
234 252 0 0 0 -1
228 252 0 0 0 -1
228 230 100 0 0 1
234 236 100 0 0 1
234 252 100 0 0 1
228 252 100 0 0 1
534 230.161911010742188 0 0 0 -1
534 236.161911010742188 0 0 0 -1
509 236.161911010742188 0 0 0 -1
509 230.161911010742188 0 0 0 -1
534 230.161911010742188 100 0 0 1
534 236.161911010742188 100 0 0 1
509 236.161911010742188 100 0 0 1
509 230.161911010742188 100 0 0 1
356 451 0 0 0 -1
356 457 0 0 0 -1
315 457 0 0 0 -1
315 451 0 0 0 -1
356 451 100 0 0 1
356 457 100 0 0 1
315 457 100 0 0 1
315 451 100 0 0 1
233.511444091796875 318 0 0 0 -1
227.511444091796875 318 0 0 0 -1
227.511444091796875 299 0 0 0 -1
233.511444091796875 299 0 0 0 -1
233.511444091796875 318 100 0 0 1
227.511444091796875 318 100 0 0 1
227.511444091796875 299 100 0 0 1
233.511444091796875 299 100 0 0 1
358 121.763633728027344 0 0 0 -1
358 127.763633728027344 0 0 0 -1
316 127.763633728027344 0 0 0 -1
316 121.763633728027344 0 0 0 -1
358 121.763633728027344 100 0 0 1
358 127.763633728027344 100 0 0 1
316 127.763633728027344 100 0 0 1
316 121.763633728027344 100 0 0 1
533 293.510650634765625 0 0 0 -1
533 299.510650634765625 0 0 0 -1
509 299.510650634765625 0 0 0 -1
509 293.510650634765625 0 0 0 -1
533 293.510650634765625 100 0 0 1
533 299.510650634765625 100 0 0 1
509 299.510650634765625 100 0 0 1
509 293.510650634765625 100 0 0 1
474.001312255859375 93.0268173217773438 0 0 0 -1
473.998687744140625 87.0268173217773438 0 0 0 -1
539 86.9987030029296875 0 0 0 -1
533 93.0012969970703125 0 0 0 -1
474.001312255859375 93.0268173217773438 100 0 0 1
473.998687744140625 87.0268173217773438 100 0 0 1
539 86.9987030029296875 100 0 0 1
533 93.0012969970703125 100 0 0 1
533 93.0012969970703125 0 0 0 -1
539 86.9987030029296875 0 0 0 -1
539 441.966064453125 0 0 0 -1
533 436.033935546875 0 0 0 -1
533 93.0012969970703125 100 0 0 1
539 86.9987030029296875 100 0 0 1
539 441.966064453125 100 0 0 1
533 436.033935546875 100 0 0 1
388.003204345703125 93.0268173217773438 0 0 0 -1
387.996795654296875 87.0268173217773438 0 0 0 -1
416 86.9967803955078125 0 0 0 -1
410 93.0032196044921875 0 0 0 -1
388.003204345703125 93.0268173217773438 100 0 0 1
387.996795654296875 87.0268173217773438 100 0 0 1
416 86.9967803955078125 100 0 0 1
410 93.0032196044921875 100 0 0 1
410 93.0032196044921875 0 0 0 -1
416 86.9967803955078125 0 0 0 -1
416 199.95538330078125 0 0 0 -1
410 194.04461669921875 0 0 0 -1
410 93.0032196044921875 100 0 0 1
416 86.9967803955078125 100 0 0 1
416 199.95538330078125 100 0 0 1
410 194.04461669921875 100 0 0 1
492.03411865234375 442.50030517578125 0 0 0 -1
491.96588134765625 436.500701904296875 0 0 0 -1
533 436.033935546875 0 0 0 -1
539 441.966064453125 0 0 0 -1
492.03411865234375 442.50030517578125 100 0 0 1
491.96588134765625 436.500701904296875 100 0 0 1
533 436.033935546875 100 0 0 1
539 441.966064453125 100 0 0 1
354.5118408203125 153.964309692382812 0 0 0 -1
360.51141357421875 154.035690307617188 0 0 0 -1
359.964813232421875 199.97625732421875 0 0 0 -1
354.035186767578125 194.02374267578125 0 0 0 -1
354.5118408203125 153.964309692382812 100 0 0 1
360.51141357421875 154.035690307617188 100 0 0 1
359.964813232421875 199.97625732421875 100 0 0 1
354.035186767578125 194.02374267578125 100 0 0 1
354.035186767578125 194.02374267578125 0 0 0 -1
359.964813232421875 199.97625732421875 0 0 0 -1
316.02410888671875 200.329574584960938 0 0 0 -1
315.97589111328125 194.32977294921875 0 0 0 -1
354.035186767578125 194.02374267578125 100 0 0 1
359.964813232421875 199.97625732421875 100 0 0 1
316.02410888671875 200.329574584960938 100 0 0 1
315.97589111328125 194.32977294921875 100 0 0 1
391.044952392578125 200.329330444335938 0 0 0 -1
390.955047607421875 194.330001831054688 0 0 0 -1
410 194.04461669921875 0 0 0 -1
416 199.95538330078125 0 0 0 -1
391.044952392578125 200.329330444335938 100 0 0 1
390.955047607421875 194.330001831054688 100 0 0 1
410 194.04461669921875 100 0 0 1
416 199.95538330078125 100 0 0 1
4 0 1 2 3
4 4 5 6 7
4 8 9 10 11
4 12 13 14 15
4 16 17 18 19
4 20 21 22 23
4 24 25 26 27
4 28 29 30 31
4 32 33 34 35
4 36 37 38 39
4 40 41 42 43
4 44 45 46 47
4 48 49 50 51
4 52 53 54 55
4 56 57 58 59
4 60 61 62 63
4 64 65 66 67
4 68 69 70 71
4 72 73 74 75
4 76 77 78 79
4 80 81 82 83
4 84 85 86 87
4 88 89 90 91
4 92 93 94 95
4 96 97 98 99
4 100 101 102 103
4 104 105 106 107
4 108 109 110 111
4 112 113 114 115
4 116 117 118 119
4 120 121 122 123
4 124 125 126 127
4 128 129 130 131
4 132 133 134 135
4 136 137 138 139
4 140 141 142 143
4 144 145 146 147
4 148 149 150 151
4 152 153 154 155
4 156 157 158 159
4 160 161 162 163
4 164 165 166 167
4 168 169 170 171
4 172 173 174 175
4 176 177 178 179
4 180 181 182 183
4 184 185 186 187
4 188 189 190 191
4 192 193 194 195
4 196 197 198 199
4 200 201 202 203
4 204 205 206 207
4 208 209 210 211
4 212 213 214 215
4 216 217 218 219
4 220 221 222 223
4 224 225 226 227
4 228 229 230 231
4 232 233 234 235
4 236 237 238 239
4 240 241 242 243
4 244 245 246 247
4 248 249 250 251
4 252 253 254 255
4 256 257 258 259
4 260 261 262 263
4 264 265 266 267
4 268 269 270 271
4 272 273 274 275
4 276 277 278 279
4 280 281 282 283
4 284 285 286 287
4 288 289 290 291
4 292 293 294 295
4 296 297 298 299
4 300 301 302 303
4 304 305 306 307
4 308 309 310 311
4 312 313 314 315
4 316 317 318 319
4 320 321 322 323
4 324 325 326 327
4 328 329 330 331
4 332 333 334 335
4 336 337 338 339
4 340 341 342 343
4 344 345 346 347
4 348 349 350 351
4 352 353 354 355
4 356 357 358 359
4 360 361 362 363
4 364 365 366 367
4 368 369 370 371
4 372 373 374 375
4 376 377 378 379
4 380 381 382 383
4 384 385 386 387
4 388 389 390 391
4 392 393 394 395
4 396 397 398 399
4 400 401 402 403
4 404 405 406 407
4 408 409 410 411
4 412 413 414 415
4 416 417 418 419
4 420 421 422 423
4 424 425 426 427
4 428 429 430 431
4 432 433 434 435
4 436 437 438 439
4 440 441 442 443
4 444 445 446 447
4 448 449 450 451
4 452 453 454 455
4 456 457 458 459
4 460 461 462 463
4 464 465 466 467
4 468 469 470 471
4 472 473 474 475
4 476 477 478 479
4 480 481 482 483
4 484 485 486 487
4 488 489 490 491
4 492 493 494 495
4 496 497 498 499
4 500 501 502 503
4 504 505 506 507
4 508 509 510 511
4 512 513 514 515
4 516 517 518 519
4 520 521 522 523
4 524 525 526 527
4 528 529 530 531
4 532 533 534 535
4 536 537 538 539
4 540 541 542 543
4 544 545 546 547
4 548 549 550 551
4 552 553 554 555
4 556 557 558 559
4 560 561 562 563
4 564 565 566 567
4 568 569 570 571
4 572 573 574 575
4 576 577 578 579
4 580 581 582 583
4 584 585 586 587
4 588 589 590 591
4 592 593 594 595
4 596 597 598 599
4 600 601 602 603
4 604 605 606 607
4 608 609 610 611
4 612 613 614 615
4 616 617 618 619
4 620 621 622 623
4 624 625 626 627
4 628 629 630 631
4 632 633 634 635
4 636 637 638 639
4 640 641 642 643
4 644 645 646 647
4 648 649 650 651
4 652 653 654 655
4 656 657 658 659
