ply
format ascii 1.0
element vertex 360
property float x
property float y
property float z
property float nx
property float ny
property float nz
element quads 90
property list uchar int vertex_indices
end_header
536.25 443 0 1 0 0
536.25 88 0 1 0 0
536.25 88 100 1 0 0
536.25 443 100 1 0 0
535.75 443 0 -1 -0 0
535.75 88 0 -1 -0 0
535.75 88 100 -1 -0 0
535.75 443 100 -1 -0 0
413.25 233.75 0 1 0 0
413.25 88 0 1 0 0
413.25 88 100 1 0 0
413.25 233.75 100 1 0 0
412.75 234.25 0 -1 -0 0
412.75 88 0 -1 -0 0
412.75 88 100 -1 -0 0
412.75 234.25 100 -1 -0 0
412.75 234.25 0 -0 1 0
534 234.25 0 -0 1 0
534 234.25 100 -0 1 0
412.75 234.25 100 -0 1 0
413.25 233.75 0 0 -1 0
534 233.75 0 0 -1 0
534 233.75 100 0 -1 0
413.25 233.75 100 0 -1 0
464 265.25 0 -0 1 0
534 265.25 0 -0 1 0
534 265.25 100 -0 1 0
464 265.25 100 -0 1 0
464 264.75 0 0 -1 0
534 264.75 0 0 -1 0
534 264.75 100 0 -1 0
464 264.75 100 0 -1 0
357.25 453.25 0 1 0 0
357.25 433 0 1 0 0
357.25 433 100 1 0 0
357.25 453.25 100 1 0 0
356.75 452.75 0 -1 -0 0
356.75 433 0 -1 -0 0
356.75 433 100 -1 -0 0
356.75 452.75 100 -1 -0 0
356.75 452.75 0 -0 -1 0
315 452.75 0 -0 -1 0
315 452.75 100 -0 -1 0
356.75 452.75 100 -0 -1 0
357.25 453.25 0 0 1 0
315 453.25 0 0 1 0
315 453.25 100 0 1 0
357.25 453.25 100 0 1 0
232.25 252 0 1 0 0
232.25 234.25 0 1 0 0
232.25 234.25 100 1 0 0
232.25 252 100 1 0 0
231.75 252 0 -1 -0 0
231.75 233.75 0 -1 -0 0
231.75 233.75 100 -1 -0 0
231.75 252 100 -1 -0 0
232.25 234.25 0 -0 1 0
339 234.25 0 -0 1 0
339 234.25 100 -0 1 0
232.25 234.25 100 -0 1 0
231.75 233.75 0 0 -1 0
339 233.75 0 0 -1 0
339 233.75 100 0 -1 0
231.75 233.75 100 0 -1 0
464.25 296 0 1 0 0
464.25 234 0 1 0 0
464.25 234 100 1 0 0
464.25 296 100 1 0 0
463.75 296 0 -1 -0 0
463.75 234 0 -1 -0 0
463.75 234 100 -1 -0 0
463.75 296 100 -1 -0 0
317 125.25 0 -0 1 0
358 125.25 0 -0 1 0
358 125.25 100 -0 1 0
317 125.25 100 -0 1 0
317 124.75 0 0 -1 0
358 124.75 0 0 -1 0
358 124.75 100 0 -1 0
317 124.75 100 0 -1 0
312.75 88 0 -1 0 0
312.75 235 0 -1 0 0
312.75 235 100 -1 0 0
312.75 88 100 -1 0 0
313.25 88 0 1 -0 0
313.25 235 0 1 -0 0
313.25 235 100 1 -0 0
313.25 88 100 1 -0 0
316 197.25 0 -0 1 0
412 197.25 0 -0 1 0
412 197.25 100 -0 1 0
316 197.25 100 -0 1 0
316 196.75 0 0 -1 0
412 196.75 0 0 -1 0
412 196.75 100 0 -1 0
316 196.75 100 0 -1 0
275 92.25 0 -0 1 0
550 92.25 0 -0 1 0
550 92.25 100 -0 1 0
275 92.25 100 -0 1 0
275 91.75 0 0 -1 0
550 91.75 0 0 -1 0
550 91.75 100 0 -1 0
275 91.75 100 0 -1 0
356.75 93 0 -1 0 0
356.75 198 0 -1 0 0
356.75 198 100 -1 0 0
356.75 93 100 -1 0 0
357.25 93 0 1 -0 0
357.25 198 0 1 -0 0
357.25 198 100 1 -0 0
357.25 93 100 1 -0 0
229 320.25 0 -0 1 0
272 320.25 0 -0 1 0
272 320.25 100 -0 1 0
229 320.25 100 -0 1 0
229 319.75 0 0 -1 0
272 319.75 0 0 -1 0
272 319.75 100 0 -1 0
229 319.75 100 0 -1 0
275 440.25 0 -0 1 0
550 440.25 0 -0 1 0
550 440.25 100 -0 1 0
275 440.25 100 -0 1 0
275 439.75 0 0 -1 0
550 439.75 0 0 -1 0
550 439.75 100 0 -1 0
275 439.75 100 0 -1 0
536.25 443 0 534.73944091796875 442.752105712890625 0
535.75 443 0 534.73944091796875 442.752105712890625 0
535.75 443 100 534.73944091796875 442.752105712890625 0
536.25 443 100 534.73944091796875 442.752105712890625 0
536.25 88 0 534.73944091796875 86.7521133422851562 0
535.75 88 0 534.73944091796875 86.7521133422851562 0
535.75 88 100 534.73944091796875 86.7521133422851562 0
536.25 88 100 534.73944091796875 86.7521133422851562 0
413.25 88 0 410.4146728515625 86.3962249755859375 0
412.75 88 0 410.4146728515625 86.3962249755859375 0
412.75 88 100 410.4146728515625 86.3962249755859375 0
413.25 88 100 410.4146728515625 86.3962249755859375 0
464 265.25 0 456.371429443359375 261.460723876953125 0
464 264.75 0 456.371429443359375 261.460723876953125 0
464 264.75 100 456.371429443359375 261.460723876953125 0
464 265.25 100 456.371429443359375 261.460723876953125 0
534 265.25 0 527.37139892578125 261.460723876953125 0
534 264.75 0 527.37139892578125 261.460723876953125 0
534 264.75 100 527.37139892578125 261.460723876953125 0
534 265.25 100 527.37139892578125 261.460723876953125 0
357.25 433 0 339.6080322265625 410.617279052734375 0
356.75 433 0 339.6080322265625 410.617279052734375 0
356.75 433 100 339.6080322265625 410.617279052734375 0
357.25 433 100 339.6080322265625 410.617279052734375 0
232.25 252 0 219.165496826171875 238.802810668945312 0
231.75 252 0 219.165496826171875 238.802810668945312 0
231.75 252 100 219.165496826171875 238.802810668945312 0
232.25 252 100 219.165496826171875 238.802810668945312 0
464.25 296 0 456.7620849609375 292.225799560546875 0
463.75 296 0 456.7620849609375 292.225799560546875 0
463.75 296 100 456.7620849609375 292.225799560546875 0
464.25 296 100 456.7620849609375 292.225799560546875 0
464.25 234 0 456.7620849609375 229.225799560546875 0
463.75 234 0 456.7620849609375 229.225799560546875 0
463.75 234 100 456.7620849609375 229.225799560546875 0
464.25 234 100 456.7620849609375 229.225799560546875 0
534 234.25 0 530.59588623046875 232.318038940429688 0
534 233.75 0 530.59588623046875 232.318038940429688 0
534 233.75 100 530.59588623046875 232.318038940429688 0
534 234.25 100 530.59588623046875 232.318038940429688 0
317 125.25 0 308.268280029296875 122.195121765136719 0
317 124.75 0 308.268280029296875 122.195121765136719 0
317 124.75 100 308.268280029296875 122.195121765136719 0
317 125.25 100 308.268280029296875 122.195121765136719 0
358 125.25 0 350.268280029296875 122.195121765136719 0
358 124.75 0 350.268280029296875 122.195121765136719 0
358 124.75 100 350.268280029296875 122.195121765136719 0
358 125.25 100 350.268280029296875 122.195121765136719 0
312.75 88 0 310.6224365234375 86.4013595581054688 0
313.25 88 0 310.6224365234375 86.4013595581054688 0
313.25 88 100 310.6224365234375 86.4013595581054688 0
312.75 88 100 310.6224365234375 86.4013595581054688 0
312.75 235 0 310.6224365234375 234.4013671875 0
313.25 235 0 310.6224365234375 234.4013671875 0
313.25 235 100 310.6224365234375 234.4013671875 0
312.75 235 100 310.6224365234375 234.4013671875 0
316 197.25 0 311.708343505859375 195.1953125 0
316 196.75 0 311.708343505859375 195.1953125 0
316 196.75 100 311.708343505859375 195.1953125 0
316 197.25 100 311.708343505859375 195.1953125 0
412 197.25 0 408.708343505859375 195.1953125 0
412 196.75 0 408.708343505859375 195.1953125 0
412 196.75 100 408.708343505859375 195.1953125 0
412 197.25 100 408.708343505859375 195.1953125 0
275 92.25 0 273 91.9145431518554688 0
275 91.75 0 273 91.9145431518554688 0
275 91.75 100 273 91.9145431518554688 0
275 92.25 100 273 91.9145431518554688 0
550 92.25 0 549 91.9145431518554688 0
550 91.75 0 549 91.9145431518554688 0
550 91.75 100 549 91.9145431518554688 0
550 92.25 100 549 91.9145431518554688 0
356.75 93 0 353.352386474609375 91.114288330078125 0
357.25 93 0 353.352386474609375 91.114288330078125 0
357.25 93 100 353.352386474609375 91.114288330078125 0
356.75 93 100 353.352386474609375 91.114288330078125 0
356.75 198 0 353.352386474609375 197.114288330078125 0
357.25 198 0 353.352386474609375 197.114288330078125 0
357.25 198 100 353.352386474609375 197.114288330078125 0
356.75 198 100 353.352386474609375 197.114288330078125 0
229 320.25 0 222.674423217773438 312.802337646484375 0
229 319.75 0 222.674423217773438 312.802337646484375 0
229 319.75 100 222.674423217773438 312.802337646484375 0
229 320.25 100 222.674423217773438 312.802337646484375 0
272 320.25 0 266.674407958984375 312.802337646484375 0
272 319.75 0 266.674407958984375 312.802337646484375 0
272 319.75 100 266.674407958984375 312.802337646484375 0
272 320.25 100 266.674407958984375 312.802337646484375 0
315 452.75 0 306.455078125 441.90570068359375 0
315 453.25 0 306.455078125 441.90570068359375 0
315 453.25 100 306.455078125 441.90570068359375 0
315 452.75 100 306.455078125 441.90570068359375 0
339 234.25 0 336.8243408203125 232.055618286132812 0
339 233.75 0 336.8243408203125 232.055618286132812 0
339 233.75 100 336.8243408203125 232.055618286132812 0
339 234.25 100 336.8243408203125 232.055618286132812 0
275 440.25 0 273 438.649078369140625 0
275 439.75 0 273 438.649078369140625 0
275 439.75 100 273 438.649078369140625 0
275 440.25 100 273 438.649078369140625 0
550 440.25 0 549 438.649078369140625 0
550 439.75 0 549 438.649078369140625 0
550 439.75 100 549 438.649078369140625 0
550 440.25 100 549 438.649078369140625 0
536.25 443 0 0 0 -1
535.75 443 0 0 0 -1
535.75 88 0 0 0 -1
536.25 88 0 0 0 -1
536.25 443 100 0 0 1
535.75 443 100 0 0 1
535.75 88 100 0 0 1
536.25 88 100 0 0 1
413.25 233.75 0 0 0 -1
412.75 234.25 0 0 0 -1
412.75 88 0 0 0 -1
413.25 88 0 0 0 -1
413.25 233.75 100 0 0 1
412.75 234.25 100 0 0 1
412.75 88 100 0 0 1
413.25 88 100 0 0 1
412.75 234.25 0 0 0 -1
413.25 233.75 0 0 0 -1
534 233.75 0 0 0 -1
534 234.25 0 0 0 -1
412.75 234.25 100 0 0 1
413.25 233.75 100 0 0 1
534 233.75 100 0 0 1
534 234.25 100 0 0 1
464 265.25 0 0 0 -1
464 264.75 0 0 0 -1
534 264.75 0 0 0 -1
534 265.25 0 0 0 -1
464 265.25 100 0 0 1
464 264.75 100 0 0 1
534 264.75 100 0 0 1
534 265.25 100 0 0 1
357.25 453.25 0 0 0 -1
356.75 452.75 0 0 0 -1
356.75 433 0 0 0 -1
357.25 433 0 0 0 -1
357.25 453.25 100 0 0 1
356.75 452.75 100 0 0 1
356.75 433 100 0 0 1
357.25 433 100 0 0 1
356.75 452.75 0 0 0 -1
357.25 453.25 0 0 0 -1
315 453.25 0 0 0 -1
315 452.75 0 0 0 -1
356.75 452.75 100 0 0 1
357.25 453.25 100 0 0 1
315 453.25 100 0 0 1
315 452.75 100 0 0 1
232.25 252 0 0 0 -1
231.75 252 0 0 0 -1
231.75 233.75 0 0 0 -1
232.25 234.25 0 0 0 -1
232.25 252 100 0 0 1
231.75 252 100 0 0 1
231.75 233.75 100 0 0 1
232.25 234.25 100 0 0 1
232.25 234.25 0 0 0 -1
231.75 233.75 0 0 0 -1
339 233.75 0 0 0 -1
339 234.25 0 0 0 -1
232.25 234.25 100 0 0 1
231.75 233.75 100 0 0 1
339 233.75 100 0 0 1
339 234.25 100 0 0 1
464.25 296 0 0 0 -1
463.75 296 0 0 0 -1
463.75 234 0 0 0 -1
464.25 234 0 0 0 -1
464.25 296 100 0 0 1
463.75 296 100 0 0 1
463.75 234 100 0 0 1
464.25 234 100 0 0 1
317 125.25 0 0 0 -1
317 124.75 0 0 0 -1
358 124.75 0 0 0 -1
358 125.25 0 0 0 -1
317 125.25 100 0 0 1
317 124.75 100 0 0 1
358 124.75 100 0 0 1
358 125.25 100 0 0 1
312.75 88 0 0 0 -1
313.25 88 0 0 0 -1
313.25 235 0 0 0 -1
312.75 235 0 0 0 -1
312.75 88 100 0 0 1
313.25 88 100 0 0 1
313.25 235 100 0 0 1
312.75 235 100 0 0 1
316 197.25 0 0 0 -1
316 196.75 0 0 0 -1
412 196.75 0 0 0 -1
412 197.25 0 0 0 -1
316 197.25 100 0 0 1
316 196.75 100 0 0 1
412 196.75 100 0 0 1
412 197.25 100 0 0 1
275 92.25 0 0 0 -1
275 91.75 0 0 0 -1
550 91.75 0 0 0 -1
550 92.25 0 0 0 -1
275 92.25 100 0 0 1
275 91.75 100 0 0 1
550 91.75 100 0 0 1
550 92.25 100 0 0 1
356.75 93 0 0 0 -1
357.25 93 0 0 0 -1
357.25 198 0 0 0 -1
356.75 198 0 0 0 -1
356.75 93 100 0 0 1
357.25 93 100 0 0 1
357.25 198 100 0 0 1
356.75 198 100 0 0 1
229 320.25 0 0 0 -1
229 319.75 0 0 0 -1
272 319.75 0 0 0 -1
272 320.25 0 0 0 -1
229 320.25 100 0 0 1
229 319.75 100 0 0 1
272 319.75 100 0 0 1
272 320.25 100 0 0 1
275 440.25 0 0 0 -1
275 439.75 0 0 0 -1
550 439.75 0 0 0 -1
550 440.25 0 0 0 -1
275 440.25 100 0 0 1
275 439.75 100 0 0 1
550 439.75 100 0 0 1
550 440.25 100 0 0 1
4 0 1 2 3
4 4 5 6 7
4 8 9 10 11
4 12 13 14 15
4 16 17 18 19
4 20 21 22 23
4 24 25 26 27
4 28 29 30 31
4 32 33 34 35
4 36 37 38 39
4 40 41 42 43
4 44 45 46 47
4 48 49 50 51
4 52 53 54 55
4 56 57 58 59
4 60 61 62 63
4 64 65 66 67
4 68 69 70 71
4 72 73 74 75
4 76 77 78 79
4 80 81 82 83
4 84 85 86 87
4 88 89 90 91
4 92 93 94 95
4 96 97 98 99
4 100 101 102 103
4 104 105 106 107
4 108 109 110 111
4 112 113 114 115
4 116 117 118 119
4 120 121 122 123
4 124 125 126 127
4 128 129 130 131
4 132 133 134 135
4 136 137 138 139
4 140 141 142 143
4 144 145 146 147
4 148 149 150 151
4 152 153 154 155
4 156 157 158 159
4 160 161 162 163
4 164 165 166 167
4 168 169 170 171
4 172 173 174 175
4 176 177 178 179
4 180 181 182 183
4 184 185 186 187
4 188 189 190 191
4 192 193 194 195
4 196 197 198 199
4 200 201 202 203
4 204 205 206 207
4 208 209 210 211
4 212 213 214 215
4 216 217 218 219
4 220 221 222 223
4 224 225 226 227
4 228 229 230 231
4 232 233 234 235
4 236 237 238 239
4 240 241 242 243
4 244 245 246 247
4 248 249 250 251
4 252 253 254 255
4 256 257 258 259
4 260 261 262 263
4 264 265 266 267
4 268 269 270 271
4 272 273 274 275
4 276 277 278 279
4 280 281 282 283
4 284 285 286 287
4 288 289 290 291
4 292 293 294 295
4 296 297 298 299
4 300 301 302 303
4 304 305 306 307
4 308 309 310 311
4 312 313 314 315
4 316 317 318 319
4 320 321 322 323
4 324 325 326 327
4 328 329 330 331
4 332 333 334 335
4 336 337 338 339
4 340 341 342 343
4 344 345 346 347
4 348 349 350 351
4 352 353 354 355
4 356 357 358 359
