ply
format ascii 1.0
element vertex 352
property float x
property float y
property float z
property float nx
property float ny
property float nz
element quads 88
property list uchar int vertex_indices
end_header
675.25 460.25 0 1 0 0
675.25 378 0 1 0 0
675.25 378 100 1 0 0
675.25 460.25 100 1 0 0
674.75 459.75 0 -1 -0 0
674.75 378 0 -1 -0 0
674.75 378 100 -1 -0 0
674.75 459.75 100 -1 -0 0
674.75 459.75 0 -0 -1 0
418 459.75 0 -0 -1 0
418 459.75 100 -0 -1 0
674.75 459.75 100 -0 -1 0
675.25 460.25 0 0 1 0
418 460.25 0 0 1 0
418 460.25 100 0 1 0
675.25 460.25 100 0 1 0
331.25 420.75 0 1 0 0
331.25 350 0 1 0 0
331.25 350 100 1 0 0
331.25 420.75 100 1 0 0
330.75 421.25 0 -1 -0 0
330.75 350 0 -1 -0 0
330.75 350 100 -1 -0 0
330.75 421.25 100 -1 -0 0
330.75 421.25 0 -0 1 0
428 421.25 0 -0 1 0
428 421.25 100 -0 1 0
330.75 421.25 100 -0 1 0
331.25 420.75 0 0 -1 0
428 420.75 0 0 -1 0
428 420.75 100 0 -1 0
331.25 420.75 100 0 -1 0
450.25 129 0 1 0 0
450.25 39 0 1 0 0
450.25 39 100 1 0 0
450.25 129 100 1 0 0
449.75 129 0 -1 -0 0
449.75 39 0 -1 -0 0
449.75 39 100 -1 -0 0
449.75 129 100 -1 -0 0
566 129.25 0 -0 1 0
671 129.25 0 -0 1 0
671 129.25 100 -0 1 0
566 129.25 100 -0 1 0
566 128.75 0 0 -1 0
671 128.75 0 0 -1 0
671 128.75 100 0 -1 0
566 128.75 100 0 -1 0
428.75 187.75 0 -1 0 0
428.75 462 0 -1 0 0
428.75 462 100 -1 0 0
428.75 187.75 100 -1 0 0
429.25 188.25 0 1 -0 0
429.25 462 0 1 -0 0
429.25 462 100 1 -0 0
429.25 188.25 100 1 -0 0
429.25 188.25 0 -0 1 0
674 188.25 0 -0 1 0
674 188.25 100 -0 1 0
429.25 188.25 100 -0 1 0
428.75 187.75 0 0 -1 0
674 187.75 0 0 -1 0
674 187.75 100 0 -1 0
428.75 187.75 100 0 -1 0
566.75 45 0 -1 0 0
566.75 143 0 -1 0 0
566.75 143 100 -1 0 0
566.75 45 100 -1 0 0
567.25 45 0 1 -0 0
567.25 143 0 1 -0 0
567.25 143 100 1 -0 0
567.25 45 100 1 -0 0
197.75 365.25 0 -0 1 0
331 365.25 0 -0 1 0
331 365.25 100 -0 1 0
197.75 365.25 100 -0 1 0
198.25 364.75 0 0 -1 0
331 364.75 0 0 -1 0
331 364.75 100 0 -1 0
198.25 364.75 100 0 -1 0
198.25 364.75 0 1 0 0
198.25 41.25 0 1 0 0
198.25 41.25 100 1 0 0
198.25 364.75 100 1 0 0
197.75 365.25 0 -1 -0 0
197.75 40.75 0 -1 -0 0
197.75 40.75 100 -1 -0 0
197.75 365.25 100 -1 -0 0
674.75 41.25 0 -1 0 0
674.75 206 0 -1 0 0
674.75 206 100 -1 0 0
674.75 41.25 100 -1 0 0
675.25 40.75 0 1 -0 0
675.25 206 0 1 -0 0
675.25 206 100 1 -0 0
675.25 40.75 100 1 -0 0
675.25 40.75 0 -0 -1 0
442 40.75 0 -0 -1 0
442 40.75 100 -0 -1 0
675.25 40.75 100 -0 -1 0
674.75 41.25 0 0 1 0
442 41.25 0 0 1 0
442 41.25 100 0 1 0
674.75 41.25 100 0 1 0
201 351.25 0 -0 1 0
428 351.25 0 -0 1 0
428 351.25 100 -0 1 0
201 351.25 100 -0 1 0
201 350.75 0 0 -1 0
428 350.75 0 0 -1 0
428 350.75 100 0 -1 0
201 350.75 100 0 -1 0
176.75 187.75 0 -1 0 0
176.75 226 0 -1 0 0
176.75 226 100 -1 0 0
176.75 187.75 100 -1 0 0
177.25 188.25 0 1 -0 0
177.25 226 0 1 -0 0
177.25 226 100 1 -0 0
177.25 188.25 100 1 -0 0
177.25 188.25 0 -0 1 0
317 188.25 0 -0 1 0
317 188.25 100 -0 1 0
177.25 188.25 100 -0 1 0
176.75 187.75 0 0 -1 0
317 187.75 0 0 -1 0
317 187.75 100 0 -1 0
176.75 187.75 100 0 -1 0
198.25 41.25 0 -0 1 0
334 41.25 0 -0 1 0
334 41.25 100 -0 1 0
198.25 41.25 100 -0 1 0
197.75 40.75 0 0 -1 0
334 40.75 0 0 -1 0
334 40.75 100 0 -1 0
197.75 40.75 100 0 -1 0
675.25 378 0 667.040283203125 372.404266357421875 0
674.75 378 0 667.040283203125 372.404266357421875 0
674.75 378 100 667.040283203125 372.404266357421875 0
675.25 378 100 667.040283203125 372.404266357421875 0
331.25 350 0 326.568023681640625 344.053009033203125 0
330.75 350 0 326.568023681640625 344.053009033203125 0
330.75 350 100 326.568023681640625 344.053009033203125 0
331.25 350 100 326.568023681640625 344.053009033203125 0
450.25 129 0 445.247222900390625 128.566665649414062 0
449.75 129 0 445.247222900390625 128.566665649414062 0
449.75 129 100 445.247222900390625 128.566665649414062 0
450.25 129 100 445.247222900390625 128.566665649414062 0
450.25 39 0 445.247222900390625 37.5666656494140625 0
449.75 39 0 445.247222900390625 37.5666656494140625 0
449.75 39 100 445.247222900390625 37.5666656494140625 0
450.25 39 100 445.247222900390625 37.5666656494140625 0
428 421.25 0 424.598968505859375 416.918365478515625 0
428 420.75 0 424.598968505859375 416.918365478515625 0
428 420.75 100 424.598968505859375 416.918365478515625 0
428 421.25 100 424.598968505859375 416.918365478515625 0
566 129.25 0 559.6094970703125 128.01904296875 0
566 128.75 0 559.6094970703125 128.01904296875 0
566 128.75 100 559.6094970703125 128.01904296875 0
566 129.25 100 559.6094970703125 128.01904296875 0
671 129.25 0 665.6094970703125 128.01904296875 0
671 128.75 0 665.6094970703125 128.01904296875 0
671 128.75 100 665.6094970703125 128.01904296875 0
671 129.25 100 665.6094970703125 128.01904296875 0
428.75 462 0 427.1866455078125 461.315399169921875 0
429.25 462 0 427.1866455078125 461.315399169921875 0
429.25 462 100 427.1866455078125 461.315399169921875 0
428.75 462 100 427.1866455078125 461.315399169921875 0
674 188.25 0 672.24615478515625 187.480850219726562 0
674 187.75 0 672.24615478515625 187.480850219726562 0
674 187.75 100 672.24615478515625 187.480850219726562 0
674 188.25 100 672.24615478515625 187.480850219726562 0
418 459.75 0 415.3719482421875 457.9593505859375 0
418 460.25 0 415.3719482421875 457.9593505859375 0
418 460.25 100 415.3719482421875 457.9593505859375 0
418 459.75 100 415.3719482421875 457.9593505859375 0
566.75 45 0 560.96685791015625 43.5408172607421875 0
567.25 45 0 560.96685791015625 43.5408172607421875 0
567.25 45 100 560.96685791015625 43.5408172607421875 0
566.75 45 100 560.96685791015625 43.5408172607421875 0
566.75 143 0 560.96685791015625 142.540817260742188 0
567.25 143 0 560.96685791015625 142.540817260742188 0
567.25 143 100 560.96685791015625 142.540817260742188 0
566.75 143 100 560.96685791015625 142.540817260742188 0
331 365.25 0 329.515960693359375 362.5089111328125 0
331 364.75 0 329.515960693359375 362.5089111328125 0
331 364.75 100 329.515960693359375 362.5089111328125 0
331 365.25 100 329.515960693359375 362.5089111328125 0
674.75 206 0 670.6544189453125 205.749618530273438 0
675.25 206 0 670.6544189453125 205.749618530273438 0
675.25 206 100 670.6544189453125 205.749618530273438 0
674.75 206 100 670.6544189453125 205.749618530273438 0
201 351.25 0 199.114532470703125 349.70263671875 0
201 350.75 0 199.114532470703125 349.70263671875 0
201 350.75 100 199.114532470703125 349.70263671875 0
201 351.25 100 199.114532470703125 349.70263671875 0
428 351.25 0 427.114532470703125 349.70263671875 0
428 350.75 0 427.114532470703125 349.70263671875 0
428 350.75 100 427.114532470703125 349.70263671875 0
428 351.25 100 427.114532470703125 349.70263671875 0
176.75 226 0 172.12908935546875 221.091506958007812 0
177.25 226 0 172.12908935546875 221.091506958007812 0
177.25 226 100 172.12908935546875 221.091506958007812 0
176.75 226 100 172.12908935546875 221.091506958007812 0
442 40.75 0 439.10504150390625 40.5752944946289062 0
442 41.25 0 439.10504150390625 40.5752944946289062 0
442 41.25 100 439.10504150390625 40.5752944946289062 0
442 40.75 100 439.10504150390625 40.5752944946289062 0
334 41.25 0 332.539581298828125 40.9461326599121094 0
334 40.75 0 332.539581298828125 40.9461326599121094 0
334 40.75 100 332.539581298828125 40.9461326599121094 0
334 41.25 100 332.539581298828125 40.9461326599121094 0
317 188.25 0 315.731658935546875 186.9029541015625 0
317 187.75 0 315.731658935546875 186.9029541015625 0
317 187.75 100 315.731658935546875 186.9029541015625 0
317 188.25 100 315.731658935546875 186.9029541015625 0
675.25 460.25 0 0 0 -1
674.75 459.75 0 0 0 -1
674.75 378 0 0 0 -1
675.25 378 0 0 0 -1
675.25 460.25 100 0 0 1
674.75 459.75 100 0 0 1
674.75 378 100 0 0 1
675.25 378 100 0 0 1
674.75 459.75 0 0 0 -1
675.25 460.25 0 0 0 -1
418 460.25 0 0 0 -1
418 459.75 0 0 0 -1
674.75 459.75 100 0 0 1
675.25 460.25 100 0 0 1
418 460.25 100 0 0 1
418 459.75 100 0 0 1
331.25 420.75 0 0 0 -1
330.75 421.25 0 0 0 -1
330.75 350 0 0 0 -1
331.25 350 0 0 0 -1
331.25 420.75 100 0 0 1
330.75 421.25 100 0 0 1
330.75 350 100 0 0 1
331.25 350 100 0 0 1
330.75 421.25 0 0 0 -1
331.25 420.75 0 0 0 -1
428 420.75 0 0 0 -1
428 421.25 0 0 0 -1
330.75 421.25 100 0 0 1
331.25 420.75 100 0 0 1
428 420.75 100 0 0 1
428 421.25 100 0 0 1
450.25 129 0 0 0 -1
449.75 129 0 0 0 -1
449.75 39 0 0 0 -1
450.25 39 0 0 0 -1
450.25 129 100 0 0 1
449.75 129 100 0 0 1
449.75 39 100 0 0 1
450.25 39 100 0 0 1
566 129.25 0 0 0 -1
566 128.75 0 0 0 -1
671 128.75 0 0 0 -1
671 129.25 0 0 0 -1
566 129.25 100 0 0 1
566 128.75 100 0 0 1
671 128.75 100 0 0 1
671 129.25 100 0 0 1
428.75 187.75 0 0 0 -1
429.25 188.25 0 0 0 -1
429.25 462 0 0 0 -1
428.75 462 0 0 0 -1
428.75 187.75 100 0 0 1
429.25 188.25 100 0 0 1
429.25 462 100 0 0 1
428.75 462 100 0 0 1
429.25 188.25 0 0 0 -1
428.75 187.75 0 0 0 -1
674 187.75 0 0 0 -1
674 188.25 0 0 0 -1
429.25 188.25 100 0 0 1
428.75 187.75 100 0 0 1
674 187.75 100 0 0 1
674 188.25 100 0 0 1
566.75 45 0 0 0 -1
567.25 45 0 0 0 -1
567.25 143 0 0 0 -1
566.75 143 0 0 0 -1
566.75 45 100 0 0 1
567.25 45 100 0 0 1
567.25 143 100 0 0 1
566.75 143 100 0 0 1
197.75 365.25 0 0 0 -1
198.25 364.75 0 0 0 -1
331 364.75 0 0 0 -1
331 365.25 0 0 0 -1
197.75 365.25 100 0 0 1
198.25 364.75 100 0 0 1
331 364.75 100 0 0 1
331 365.25 100 0 0 1
198.25 364.75 0 0 0 -1
197.75 365.25 0 0 0 -1
197.75 40.75 0 0 0 -1
198.25 41.25 0 0 0 -1
198.25 364.75 100 0 0 1
197.75 365.25 100 0 0 1
197.75 40.75 100 0 0 1
198.25 41.25 100 0 0 1
674.75 41.25 0 0 0 -1
675.25 40.75 0 0 0 -1
675.25 206 0 0 0 -1
674.75 206 0 0 0 -1
674.75 41.25 100 0 0 1
675.25 40.75 100 0 0 1
675.25 206 100 0 0 1
674.75 206 100 0 0 1
675.25 40.75 0 0 0 -1
674.75 41.25 0 0 0 -1
442 41.25 0 0 0 -1
442 40.75 0 0 0 -1
675.25 40.75 100 0 0 1
674.75 41.25 100 0 0 1
442 41.25 100 0 0 1
442 40.75 100 0 0 1
201 351.25 0 0 0 -1
201 350.75 0 0 0 -1
428 350.75 0 0 0 -1
428 351.25 0 0 0 -1
201 351.25 100 0 0 1
201 350.75 100 0 0 1
428 350.75 100 0 0 1
428 351.25 100 0 0 1
176.75 187.75 0 0 0 -1
177.25 188.25 0 0 0 -1
177.25 226 0 0 0 -1
176.75 226 0 0 0 -1
176.75 187.75 100 0 0 1
177.25 188.25 100 0 0 1
177.25 226 100 0 0 1
176.75 226 100 0 0 1
177.25 188.25 0 0 0 -1
176.75 187.75 0 0 0 -1
317 187.75 0 0 0 -1
317 188.25 0 0 0 -1
177.25 188.25 100 0 0 1
176.75 187.75 100 0 0 1
317 187.75 100 0 0 1
317 188.25 100 0 0 1
198.25 41.25 0 0 0 -1
197.75 40.75 0 0 0 -1
334 40.75 0 0 0 -1
334 41.25 0 0 0 -1
198.25 41.25 100 0 0 1
197.75 40.75 100 0 0 1
334 40.75 100 0 0 1
334 41.25 100 0 0 1
4 0 1 2 3
4 4 5 6 7
4 8 9 10 11
4 12 13 14 15
4 16 17 18 19
4 20 21 22 23
4 24 25 26 27
4 28 29 30 31
4 32 33 34 35
4 36 37 38 39
4 40 41 42 43
4 44 45 46 47
4 48 49 50 51
4 52 53 54 55
4 56 57 58 59
4 60 61 62 63
4 64 65 66 67
4 68 69 70 71
4 72 73 74 75
4 76 77 78 79
4 80 81 82 83
4 84 85 86 87
4 88 89 90 91
4 92 93 94 95
4 96 97 98 99
4 100 101 102 103
4 104 105 106 107
4 108 109 110 111
4 112 113 114 115
4 116 117 118 119
4 120 121 122 123
4 124 125 126 127
4 128 129 130 131
4 132 133 134 135
4 136 137 138 139
4 140 141 142 143
4 144 145 146 147
4 148 149 150 151
4 152 153 154 155
4 156 157 158 159
4 160 161 162 163
4 164 165 166 167
4 168 169 170 171
4 172 173 174 175
4 176 177 178 179
4 180 181 182 183
4 184 185 186 187
4 188 189 190 191
4 192 193 194 195
4 196 197 198 199
4 200 201 202 203
4 204 205 206 207
4 208 209 210 211
4 212 213 214 215
4 216 217 218 219
4 220 221 222 223
4 224 225 226 227
4 228 229 230 231
4 232 233 234 235
4 236 237 238 239
4 240 241 242 243
4 244 245 246 247
4 248 249 250 251
4 252 253 254 255
4 256 257 258 259
4 260 261 262 263
4 264 265 266 267
4 268 269 270 271
4 272 273 274 275
4 276 277 278 279
4 280 281 282 283
4 284 285 286 287
4 288 289 290 291
4 292 293 294 295
4 296 297 298 299
4 300 301 302 303
4 304 305 306 307
4 308 309 310 311
4 312 313 314 315
4 316 317 318 319
4 320 321 322 323
4 324 325 326 327
4 328 329 330 331
4 332 333 334 335
4 336 337 338 339
4 340 341 342 343
4 344 345 346 347
4 348 349 350 351
