ply
format ascii 1.0
element vertex 512
property float x
property float y
property float z
property float nx
property float ny
property float nz
element quads 128
property list uchar int vertex_indices
end_header
333.809173583984375 484 0 1 0 0
333.809173583984375 379 0 1 0 0
333.809173583984375 379 100 1 0 0
333.809173583984375 484 100 1 0 0
327.809173583984375 484 0 -1 -0 0
327.809173583984375 379 0 -1 -0 0
327.809173583984375 379 100 -1 -0 0
327.809173583984375 484 100 -1 -0 0
334 310 0 1 0 0
334 257 0 1 0 0
334 257 100 1 0 0
334 310 100 1 0 0
328 310 0 -1 -0 0
328 251 0 -1 -0 0
328 251 100 -1 -0 0
328 310 100 -1 -0 0
334 257 0 -0 1 0
353 257 0 -0 1 0
353 257 100 -0 1 0
334 257 100 -0 1 0
328 251 0 0 -1 0
353 251 0 0 -1 0
353 251 100 0 -1 0
328 251 100 0 -1 0
334 52 0 1 0 0
334 12 0 1 0 0
334 12 100 1 0 0
334 52 100 1 0 0
328 52 0 -1 -0 0
328 18 0 -1 -0 0
328 18 100 -1 -0 0
328 52 100 -1 -0 0
334 12 0 -0 -1 0
317 12 0 -0 -1 0
317 12 100 -0 -1 0
334 12 100 -0 -1 0
328 18 0 0 1 0
317 18 0 0 1 0
317 18 100 0 1 0
328 18 100 0 1 0
333.809173583984375 359 0 1 0 0
333.809173583984375 330 0 1 0 0
333.809173583984375 330 100 1 0 0
333.809173583984375 359 100 1 0 0
327.809173583984375 359 0 -1 -0 0
327.809173583984375 330 0 -1 -0 0
327.809173583984375 330 100 -1 -0 0
327.809173583984375 359 100 -1 -0 0
353 481 0 -0 -1 0
331 481 0 -0 -1 0
331 481 100 -0 -1 0
353 481 100 -0 -1 0
353 487 0 0 1 0
331 487 0 0 1 0
331 487 100 0 1 0
353 487 100 0 1 0
427 481 0 -0 -1 0
393 481 0 -0 -1 0
393 481 100 -0 -1 0
427 481 100 -0 -1 0
421 487 0 0 1 0
393 487 0 0 1 0
393 487 100 0 1 0
421 487 100 0 1 0
421 487 0 -1 0 0
421 498 0 -1 0 0
421 498 100 -1 0 0
421 487 100 -1 0 0
427 481 0 1 -0 0
427 498 0 1 -0 0
427 498 100 1 -0 0
427 481 100 1 -0 0
518 481 0 -0 -1 0
484 481 0 -0 -1 0
484 481 100 -0 -1 0
518 481 100 -0 -1 0
518 487 0 0 1 0
490 487 0 0 1 0
490 487 100 0 1 0
518 487 100 0 1 0
484 481 0 -1 0 0
484 498 0 -1 0 0
484 498 100 -1 0 0
484 481 100 -1 0 0
490 487 0 1 -0 0
490 498 0 1 -0 0
490 498 100 1 -0 0
490 487 100 1 -0 0
489.801361083984375 267 0 1 0 0
489.801361083984375 253 0 1 0 0
489.801361083984375 253 100 1 0 0
489.801361083984375 267 100 1 0 0
483.801361083984375 267 0 -1 -0 0
483.801361083984375 253 0 -1 -0 0
483.801361083984375 253 100 -1 -0 0
483.801361083984375 267 100 -1 -0 0
489.801361083984375 330 0 1 0 0
489.801361083984375 303 0 1 0 0
489.801361083984375 303 100 1 0 0
489.801361083984375 330 100 1 0 0
483.801361083984375 330 0 -1 -0 0
483.801361083984375 303 0 -1 -0 0
483.801361083984375 303 100 -1 -0 0
483.801361083984375 330 100 -1 -0 0
598.6363525390625 449 0 1 0 0
598.6363525390625 411 0 1 0 0
598.6363525390625 411 100 1 0 0
598.6363525390625 449 100 1 0 0
592.6363525390625 449 0 -1 -0 0
592.6363525390625 411 0 -1 -0 0
592.6363525390625 411 100 -1 -0 0
592.6363525390625 449 100 -1 -0 0
297 12 0 -0 -1 0
275 12 0 -0 -1 0
275 12 100 -0 -1 0
297 12 100 -0 -1 0
297 18 0 0 1 0
281 18 0 0 1 0
281 18 100 0 1 0
297 18 100 0 1 0
275 12 0 -1 0 0
275 52 0 -1 0 0
275 52 100 -1 0 0
275 12 100 -1 0 0
281 18 0 1 -0 0
281 52 0 1 -0 0
281 52 100 1 -0 0
281 18 100 1 -0 0
353 257 0 -0 1 0
382 257 0 -0 1 0
382 257 100 -0 1 0
353 257 100 -0 1 0
353 251 0 0 -1 0
382 251 0 0 -1 0
382 251 100 0 -1 0
353 251 100 0 -1 0
237.506179809570312 137 0 1 0 0
237.506179809570312 116 0 1 0 0
237.506179809570312 116 100 1 0 0
237.506179809570312 137 100 1 0 0
231.506179809570312 137 0 -1 -0 0
231.506179809570312 116 0 -1 -0 0
231.506179809570312 116 100 -1 -0 0
231.506179809570312 137 100 -1 -0 0
237.506179809570312 73 0 1 0 0
237.506179809570312 52 0 1 0 0
237.506179809570312 52 100 1 0 0
237.506179809570312 73 100 1 0 0
231.506179809570312 73 0 -1 -0 0
231.506179809570312 52 0 -1 -0 0
231.506179809570312 52 100 -1 -0 0
231.506179809570312 73 100 -1 -0 0
354 150 0 -0 -1 0
313 150 0 -0 -1 0
313 150 100 -0 -1 0
354 150 100 -0 -1 0
354 156 0 0 1 0
307 156 0 0 1 0
307 156 100 0 1 0
354 156 100 0 1 0
313 150 0 1 0 0
313 137 0 1 0 0
313 137 100 1 0 0
313 150 100 1 0 0
307 156 0 -1 -0 0
307 137 0 -1 -0 0
307 137 100 -1 -0 0
307 156 100 -1 -0 0
382.416656494140625 203 0 1 0 0
382.416656494140625 189 0 1 0 0
382.416656494140625 189 100 1 0 0
382.416656494140625 203 100 1 0 0
376.416656494140625 203 0 -1 -0 0
376.416656494140625 189 0 -1 -0 0
376.416656494140625 189 100 -1 -0 0
376.416656494140625 203 100 -1 -0 0
581.47259521484375 251.993881225585938 0 -0.999997913837432861 -0.00203707651235163212 0
581.006103515625 481 0 -0.999997913837432861 -0.00203707651235163212 0
581.006103515625 481 100 -0.999997913837432861 -0.00203707651235163212 0
581.47259521484375 251.993881225585938 100 -0.999997913837432861 -0.00203707651235163212 0
587.47259521484375 252.006118774414062 0 0.999997913837432861 0.00203707651235163212 0
586.993896484375 487 0 0.999997913837432861 0.00203707651235163212 0
586.993896484375 487 100 0.999997913837432861 0.00203707651235163212 0
587.47259521484375 252.006118774414062 100 0.999997913837432861 0.00203707651235163212 0
581.006103515625 481 0 -0 -1 0
549 481 0 -0 -1 0
549 481 100 -0 -1 0
581.006103515625 481 100 -0 -1 0
586.993896484375 487 0 0 1 0
549 487 0 0 1 0
549 487 100 0 1 0
586.993896484375 487 100 0 1 0
333.809173583984375 484 0 330.630035400390625 480.390472412109375 0
327.809173583984375 484 0 330.630035400390625 480.390472412109375 0
327.809173583984375 484 100 330.630035400390625 480.390472412109375 0
333.809173583984375 484 100 330.630035400390625 480.390472412109375 0
333.809173583984375 379 0 330.630035400390625 374.390472412109375 0
327.809173583984375 379 0 330.630035400390625 374.390472412109375 0
327.809173583984375 379 100 330.630035400390625 374.390472412109375 0
333.809173583984375 379 100 330.630035400390625 374.390472412109375 0
334 310 0 327.6981201171875 305.15093994140625 0
328 310 0 327.6981201171875 305.15093994140625 0
328 310 100 327.6981201171875 305.15093994140625 0
334 310 100 327.6981201171875 305.15093994140625 0
334 52 0 325.649993896484375 51.7000007629394531 0
328 52 0 325.649993896484375 51.7000007629394531 0
328 52 100 325.649993896484375 51.7000007629394531 0
334 52 100 325.649993896484375 51.7000007629394531 0
333.809173583984375 359 0 322.298492431640625 347.620697021484375 0
327.809173583984375 359 0 322.298492431640625 347.620697021484375 0
327.809173583984375 359 100 322.298492431640625 347.620697021484375 0
333.809173583984375 359 100 322.298492431640625 347.620697021484375 0
333.809173583984375 330 0 322.298492431640625 317.620697021484375 0
327.809173583984375 330 0 322.298492431640625 317.620697021484375 0
327.809173583984375 330 100 322.298492431640625 317.620697021484375 0
333.809173583984375 330 100 322.298492431640625 317.620697021484375 0
353 481 0 337.954559326171875 459.1363525390625 0
353 487 0 337.954559326171875 459.1363525390625 0
353 487 100 337.954559326171875 459.1363525390625 0
353 481 100 337.954559326171875 459.1363525390625 0
331 481 0 314.954559326171875 459.1363525390625 0
331 487 0 314.954559326171875 459.1363525390625 0
331 487 100 314.954559326171875 459.1363525390625 0
331 481 100 314.954559326171875 459.1363525390625 0
393 481 0 380.441162109375 466.852935791015625 0
393 487 0 380.441162109375 466.852935791015625 0
393 487 100 380.441162109375 466.852935791015625 0
393 481 100 380.441162109375 466.852935791015625 0
518 481 0 503.76470947265625 466.852935791015625 0
518 487 0 503.76470947265625 466.852935791015625 0
518 487 100 503.76470947265625 466.852935791015625 0
518 481 100 503.76470947265625 466.852935791015625 0
484 498 0 455.5294189453125 469.70587158203125 0
490 498 0 455.5294189453125 469.70587158203125 0
490 498 100 455.5294189453125 469.70587158203125 0
484 498 100 455.5294189453125 469.70587158203125 0
489.801361083984375 267 0 454.8155517578125 248.928573608398438 0
483.801361083984375 267 0 454.8155517578125 248.928573608398438 0
483.801361083984375 267 100 454.8155517578125 248.928573608398438 0
489.801361083984375 267 100 454.8155517578125 248.928573608398438 0
489.801361083984375 253 0 454.8155517578125 233.928573608398438 0
483.801361083984375 253 0 454.8155517578125 233.928573608398438 0
483.801361083984375 253 100 454.8155517578125 233.928573608398438 0
489.801361083984375 253 100 454.8155517578125 233.928573608398438 0
489.801361083984375 330 0 471.66058349609375 318.77777099609375 0
483.801361083984375 330 0 471.66058349609375 318.77777099609375 0
483.801361083984375 330 100 471.66058349609375 318.77777099609375 0
489.801361083984375 330 100 471.66058349609375 318.77777099609375 0
489.801361083984375 303 0 471.66058349609375 290.77777099609375 0
483.801361083984375 303 0 471.66058349609375 290.77777099609375 0
483.801361083984375 303 100 471.66058349609375 290.77777099609375 0
489.801361083984375 303 100 471.66058349609375 290.77777099609375 0
598.6363525390625 449 0 582.88275146484375 438.1842041015625 0
592.6363525390625 449 0 582.88275146484375 438.1842041015625 0
592.6363525390625 449 100 582.88275146484375 438.1842041015625 0
598.6363525390625 449 100 582.88275146484375 438.1842041015625 0
598.6363525390625 411 0 582.88275146484375 399.1842041015625 0
592.6363525390625 411 0 582.88275146484375 399.1842041015625 0
592.6363525390625 411 100 582.88275146484375 399.1842041015625 0
598.6363525390625 411 100 582.88275146484375 399.1842041015625 0
297 12 0 284.5 11.4545450210571289 0
297 18 0 284.5 11.4545450210571289 0
297 18 100 284.5 11.4545450210571289 0
297 12 100 284.5 11.4545450210571289 0
317 12 0 297.352935791015625 11.2941179275512695 0
317 18 0 297.352935791015625 11.2941179275512695 0
317 18 100 297.352935791015625 11.2941179275512695 0
317 12 100 297.352935791015625 11.2941179275512695 0
382 257 0 369.82757568359375 248.137924194335938 0
382 251 0 369.82757568359375 248.137924194335938 0
382 251 100 369.82757568359375 248.137924194335938 0
382 257 100 369.82757568359375 248.137924194335938 0
237.506179809570312 137 0 226.19635009765625 131.4761962890625 0
231.506179809570312 137 0 226.19635009765625 131.4761962890625 0
231.506179809570312 137 100 226.19635009765625 131.4761962890625 0
237.506179809570312 137 100 226.19635009765625 131.4761962890625 0
237.506179809570312 116 0 226.19635009765625 109.476188659667969 0
231.506179809570312 116 0 226.19635009765625 109.476188659667969 0
231.506179809570312 116 100 226.19635009765625 109.476188659667969 0
237.506179809570312 116 100 226.19635009765625 109.476188659667969 0
237.506179809570312 73 0 226.19635009765625 70.5238113403320312 0
231.506179809570312 73 0 226.19635009765625 70.5238113403320312 0
231.506179809570312 73 100 226.19635009765625 70.5238113403320312 0
237.506179809570312 73 100 226.19635009765625 70.5238113403320312 0
237.506179809570312 52 0 226.19635009765625 48.5238113403320312 0
231.506179809570312 52 0 226.19635009765625 48.5238113403320312 0
231.506179809570312 52 100 226.19635009765625 48.5238113403320312 0
237.506179809570312 52 100 226.19635009765625 48.5238113403320312 0
354 150 0 346.3658447265625 146.341461181640625 0
354 156 0 346.3658447265625 146.341461181640625 0
354 156 100 346.3658447265625 146.341461181640625 0
354 150 100 346.3658447265625 146.341461181640625 0
382.416656494140625 203 0 355.1011962890625 189.5 0
376.416656494140625 203 0 355.1011962890625 189.5 0
376.416656494140625 203 100 355.1011962890625 189.5 0
382.416656494140625 203 100 355.1011962890625 189.5 0
382.416656494140625 189 0 355.1011962890625 174.5 0
376.416656494140625 189 0 355.1011962890625 174.5 0
376.416656494140625 189 100 355.1011962890625 174.5 0
382.416656494140625 189 100 355.1011962890625 174.5 0
275 52 0 268.125 51.7000007629394531 0
281 52 0 268.125 51.7000007629394531 0
281 52 100 268.125 51.7000007629394531 0
275 52 100 268.125 51.7000007629394531 0
421 498 0 382.727264404296875 453.727264404296875 0
427 498 0 382.727264404296875 453.727264404296875 0
427 498 100 382.727264404296875 453.727264404296875 0
421 498 100 382.727264404296875 453.727264404296875 0
313 137 0 288.923065185546875 125.461540222167969 0
307 137 0 288.923065185546875 125.461540222167969 0
307 137 100 288.923065185546875 125.461540222167969 0
313 137 100 288.923065185546875 125.461540222167969 0
581.47259521484375 251.993881225585938 0 578.935546875 249.893508911132812 0
587.47259521484375 252.006118774414062 0 578.935546875 249.893508911132812 0
587.47259521484375 252.006118774414062 100 578.935546875 249.893508911132812 0
581.47259521484375 251.993881225585938 100 578.935546875 249.893508911132812 0
549 481 0 530.8470458984375 465.97161865234375 0
549 487 0 530.8470458984375 465.97161865234375 0
549 487 100 530.8470458984375 465.97161865234375 0
549 481 100 530.8470458984375 465.97161865234375 0
333.809173583984375 484 0 0 0 -1
327.809173583984375 484 0 0 0 -1
327.809173583984375 379 0 0 0 -1
333.809173583984375 379 0 0 0 -1
333.809173583984375 484 100 0 0 1
327.809173583984375 484 100 0 0 1
327.809173583984375 379 100 0 0 1
333.809173583984375 379 100 0 0 1
334 310 0 0 0 -1
328 310 0 0 0 -1
328 251 0 0 0 -1
334 257 0 0 0 -1
334 310 100 0 0 1
328 310 100 0 0 1
328 251 100 0 0 1
334 257 100 0 0 1
334 257 0 0 0 -1
328 251 0 0 0 -1
353 251 0 0 0 -1
353 257 0 0 0 -1
334 257 100 0 0 1
328 251 100 0 0 1
353 251 100 0 0 1
353 257 100 0 0 1
334 52 0 0 0 -1
328 52 0 0 0 -1
328 18 0 0 0 -1
334 12 0 0 0 -1
334 52 100 0 0 1
328 52 100 0 0 1
328 18 100 0 0 1
334 12 100 0 0 1
334 12 0 0 0 -1
328 18 0 0 0 -1
317 18 0 0 0 -1
317 12 0 0 0 -1
334 12 100 0 0 1
328 18 100 0 0 1
317 18 100 0 0 1
317 12 100 0 0 1
333.809173583984375 359 0 0 0 -1
327.809173583984375 359 0 0 0 -1
327.809173583984375 330 0 0 0 -1
333.809173583984375 330 0 0 0 -1
333.809173583984375 359 100 0 0 1
327.809173583984375 359 100 0 0 1
327.809173583984375 330 100 0 0 1
333.809173583984375 330 100 0 0 1
353 481 0 0 0 -1
353 487 0 0 0 -1
331 487 0 0 0 -1
331 481 0 0 0 -1
353 481 100 0 0 1
353 487 100 0 0 1
331 487 100 0 0 1
331 481 100 0 0 1
427 481 0 0 0 -1
421 487 0 0 0 -1
393 487 0 0 0 -1
393 481 0 0 0 -1
427 481 100 0 0 1
421 487 100 0 0 1
393 487 100 0 0 1
393 481 100 0 0 1
421 487 0 0 0 -1
427 481 0 0 0 -1
427 498 0 0 0 -1
421 498 0 0 0 -1
421 487 100 0 0 1
427 481 100 0 0 1
427 498 100 0 0 1
421 498 100 0 0 1
518 481 0 0 0 -1
518 487 0 0 0 -1
490 487 0 0 0 -1
484 481 0 0 0 -1
518 481 100 0 0 1
518 487 100 0 0 1
490 487 100 0 0 1
484 481 100 0 0 1
484 481 0 0 0 -1
490 487 0 0 0 -1
490 498 0 0 0 -1
484 498 0 0 0 -1
484 481 100 0 0 1
490 487 100 0 0 1
490 498 100 0 0 1
484 498 100 0 0 1
489.801361083984375 267 0 0 0 -1
483.801361083984375 267 0 0 0 -1
483.801361083984375 253 0 0 0 -1
489.801361083984375 253 0 0 0 -1
489.801361083984375 267 100 0 0 1
483.801361083984375 267 100 0 0 1
483.801361083984375 253 100 0 0 1
489.801361083984375 253 100 0 0 1
489.801361083984375 330 0 0 0 -1
483.801361083984375 330 0 0 0 -1
483.801361083984375 303 0 0 0 -1
489.801361083984375 303 0 0 0 -1
489.801361083984375 330 100 0 0 1
483.801361083984375 330 100 0 0 1
483.801361083984375 303 100 0 0 1
489.801361083984375 303 100 0 0 1
598.6363525390625 449 0 0 0 -1
592.6363525390625 449 0 0 0 -1
592.6363525390625 411 0 0 0 -1
598.6363525390625 411 0 0 0 -1
598.6363525390625 449 100 0 0 1
592.6363525390625 449 100 0 0 1
592.6363525390625 411 100 0 0 1
598.6363525390625 411 100 0 0 1
297 12 0 0 0 -1
297 18 0 0 0 -1
281 18 0 0 0 -1
275 12 0 0 0 -1
297 12 100 0 0 1
297 18 100 0 0 1
281 18 100 0 0 1
275 12 100 0 0 1
275 12 0 0 0 -1
281 18 0 0 0 -1
281 52 0 0 0 -1
275 52 0 0 0 -1
275 12 100 0 0 1
281 18 100 0 0 1
281 52 100 0 0 1
275 52 100 0 0 1
353 257 0 0 0 -1
353 251 0 0 0 -1
382 251 0 0 0 -1
382 257 0 0 0 -1
353 257 100 0 0 1
353 251 100 0 0 1
382 251 100 0 0 1
382 257 100 0 0 1
237.506179809570312 137 0 0 0 -1
231.506179809570312 137 0 0 0 -1
231.506179809570312 116 0 0 0 -1
237.506179809570312 116 0 0 0 -1
237.506179809570312 137 100 0 0 1
231.506179809570312 137 100 0 0 1
231.506179809570312 116 100 0 0 1
237.506179809570312 116 100 0 0 1
237.506179809570312 73 0 0 0 -1
231.506179809570312 73 0 0 0 -1
231.506179809570312 52 0 0 0 -1
237.506179809570312 52 0 0 0 -1
237.506179809570312 73 100 0 0 1
231.506179809570312 73 100 0 0 1
231.506179809570312 52 100 0 0 1
237.506179809570312 52 100 0 0 1
354 150 0 0 0 -1
354 156 0 0 0 -1
307 156 0 0 0 -1
313 150 0 0 0 -1
354 150 100 0 0 1
354 156 100 0 0 1
307 156 100 0 0 1
313 150 100 0 0 1
313 150 0 0 0 -1
307 156 0 0 0 -1
307 137 0 0 0 -1
313 137 0 0 0 -1
313 150 100 0 0 1
307 156 100 0 0 1
307 137 100 0 0 1
313 137 100 0 0 1
382.416656494140625 203 0 0 0 -1
376.416656494140625 203 0 0 0 -1
376.416656494140625 189 0 0 0 -1
382.416656494140625 189 0 0 0 -1
382.416656494140625 203 100 0 0 1
376.416656494140625 203 100 0 0 1
376.416656494140625 189 100 0 0 1
382.416656494140625 189 100 0 0 1
581.47259521484375 251.993881225585938 0 0 0 -1
587.47259521484375 252.006118774414062 0 0 0 -1
586.993896484375 487 0 0 0 -1
581.006103515625 481 0 0 0 -1
581.47259521484375 251.993881225585938 100 0 0 1
587.47259521484375 252.006118774414062 100 0 0 1
586.993896484375 487 100 0 0 1
581.006103515625 481 100 0 0 1
581.006103515625 481 0 0 0 -1
586.993896484375 487 0 0 0 -1
549 487 0 0 0 -1
549 481 0 0 0 -1
581.006103515625 481 100 0 0 1
586.993896484375 487 100 0 0 1
549 487 100 0 0 1
549 481 100 0 0 1
4 0 1 2 3
4 4 5 6 7
4 8 9 10 11
4 12 13 14 15
4 16 17 18 19
4 20 21 22 23
4 24 25 26 27
4 28 29 30 31
4 32 33 34 35
4 36 37 38 39
4 40 41 42 43
4 44 45 46 47
4 48 49 50 51
4 52 53 54 55
4 56 57 58 59
4 60 61 62 63
4 64 65 66 67
4 68 69 70 71
4 72 73 74 75
4 76 77 78 79
4 80 81 82 83
4 84 85 86 87
4 88 89 90 91
4 92 93 94 95
4 96 97 98 99
4 100 101 102 103
4 104 105 106 107
4 108 109 110 111
4 112 113 114 115
4 116 117 118 119
4 120 121 122 123
4 124 125 126 127
4 128 129 130 131
4 132 133 134 135
4 136 137 138 139
4 140 141 142 143
4 144 145 146 147
4 148 149 150 151
4 152 153 154 155
4 156 157 158 159
4 160 161 162 163
4 164 165 166 167
4 168 169 170 171
4 172 173 174 175
4 176 177 178 179
4 180 181 182 183
4 184 185 186 187
4 188 189 190 191
4 192 193 194 195
4 196 197 198 199
4 200 201 202 203
4 204 205 206 207
4 208 209 210 211
4 212 213 214 215
4 216 217 218 219
4 220 221 222 223
4 224 225 226 227
4 228 229 230 231
4 232 233 234 235
4 236 237 238 239
4 240 241 242 243
4 244 245 246 247
4 248 249 250 251
4 252 253 254 255
4 256 257 258 259
4 260 261 262 263
4 264 265 266 267
4 268 269 270 271
4 272 273 274 275
4 276 277 278 279
4 280 281 282 283
4 284 285 286 287
4 288 289 290 291
4 292 293 294 295
4 296 297 298 299
4 300 301 302 303
4 304 305 306 307
4 308 309 310 311
4 312 313 314 315
4 316 317 318 319
4 320 321 322 323
4 324 325 326 327
4 328 329 330 331
4 332 333 334 335
4 336 337 338 339
4 340 341 342 343
4 344 345 346 347
4 348 349 350 351
4 352 353 354 355
4 356 357 358 359
4 360 361 362 363
4 364 365 366 367
4 368 369 370 371
4 372 373 374 375
4 376 377 378 379
4 380 381 382 383
4 384 385 386 387
4 388 389 390 391
4 392 393 394 395
4 396 397 398 399
4 400 401 402 403
4 404 405 406 407
4 408 409 410 411
4 412 413 414 415
4 416 417 418 419
4 420 421 422 423
4 424 425 426 427
4 428 429 430 431
4 432 433 434 435
4 436 437 438 439
4 440 441 442 443
4 444 445 446 447
4 448 449 450 451
4 452 453 454 455
4 456 457 458 459
4 460 461 462 463
4 464 465 466 467
4 468 469 470 471
4 472 473 474 475
4 476 477 478 479
4 480 481 482 483
4 484 485 486 487
4 488 489 490 491
4 492 493 494 495
4 496 497 498 499
4 500 501 502 503
4 504 505 506 507
4 508 509 510 511
