ply
format ascii 1.0
element vertex 854
property float x
property float y
property float z
property float nx
property float ny
property float nz
element quads 212
property list uchar int vertex_indices
element triads 2
property list uchar int vertex_indices
end_header
212.996047973632812 277 0 1 0 0
212.996047973632812 191 0 1 0 0
212.996047973632812 191 150 1 0 0
212.996047973632812 277 150 1 0 0
202.996047973632812 277 0 -1 -0 0
202.996047973632812 191 0 -1 -0 0
202.996047973632812 191 150 -1 -0 0
202.996047973632812 277 150 -1 -0 0
212.9967041015625 518 0 1 0 0
212.9967041015625 417 0 1 0 0
212.9967041015625 417 150 1 0 0
212.9967041015625 518 150 1 0 0
202.9967041015625 518 0 -1 -0 0
202.9967041015625 417 0 -1 -0 0
202.9967041015625 417 150 -1 -0 0
202.9967041015625 518 150 -1 -0 0
490.9974365234375 452 0 1 0 0
490.9974365234375 319 0 1 0 0
490.9974365234375 319 150 1 0 0
490.9974365234375 452 150 1 0 0
480.9974365234375 452 0 -1 -0 0
480.9974365234375 319 0 -1 -0 0
480.9974365234375 319 150 -1 -0 0
480.9974365234375 452 150 -1 -0 0
454 26.6450614929199219 0 -0 -1 0
305 26.6450614929199219 0 -0 -1 0
305 26.6450614929199219 150 -0 -1 0
454 26.6450614929199219 150 -0 -1 0
454 36.6450614929199219 0 0 1 0
305 36.6450614929199219 0 0 1 0
305 36.6450614929199219 150 0 1 0
454 36.6450614929199219 150 0 1 0
213 163 0 1 0 0
213 37 0 1 0 0
213 37 150 1 0 0
213 163 150 1 0 0
203 163 0 -1 -0 0
203 27 0 -1 -0 0
203 27 150 -1 -0 0
203 163 150 -1 -0 0
213 37 0 -0 1 0
282 37 0 -0 1 0
282 37 150 -0 1 0
213 37 150 -0 1 0
203 27 0 0 -1 0
282 27 0 0 -1 0
282 27 150 0 -1 0
203 27 150 0 -1 0
317 523 0 1 0 0
317 418 0 1 0 0
317 418 150 1 0 0
317 523 150 1 0 0
307 513 0 -1 -0 0
307 418 0 -1 -0 0
307 418 150 -1 -0 0
307 513 150 -1 -0 0
307 513 0 -0 -1 0
286 513 0 -0 -1 0
286 513 150 -0 -1 0
307 513 150 -0 -1 0
317 523 0 0 1 0
286 523 0 0 1 0
286 523 150 0 1 0
317 523 150 0 1 0
312 310 0 -0 -1 0
203 310 0 -0 -1 0
203 310 150 -0 -1 0
312 310 150 -0 -1 0
312 320 0 0 1 0
213 320 0 0 1 0
213 320 150 0 1 0
312 320 150 0 1 0
203 310 0 -1 0 0
203 332 0 -1 0 0
203 332 150 -1 0 0
203 310 150 -1 0 0
213 320 0 1 -0 0
213 332 0 1 -0 0
213 332 150 1 -0 0
213 320 150 1 -0 0
262 362 0 -0 -1 0
213 362 0 -0 -1 0
213 362 150 -0 -1 0
262 362 150 -0 -1 0
262 372 0 0 1 0
213 372 0 0 1 0
213 372 150 0 1 0
262 372 150 0 1 0
203 367 0 -1 0 0
203 396 0 -1 0 0
203 396 150 -1 0 0
203 367 150 -1 0 0
213 372 0 1 -0 0
213 396 0 1 -0 0
213 396 150 1 -0 0
213 372 150 1 -0 0
213 362 0 1 0 0
213 354 0 1 0 0
213 354 150 1 0 0
213 362 150 1 0 0
203 367 0 -1 -0 0
203 354 0 -1 -0 0
203 354 150 -1 -0 0
203 367 150 -1 -0 0
611 369 0 1 0 0
611 282 0 1 0 0
611 282 150 1 0 0
611 369 150 1 0 0
601 369 0 -1 -0 0
601 292 0 -1 -0 0
601 292 150 -1 -0 0
601 369 150 -1 -0 0
611 282 0 -0 -1 0
570 282 0 -0 -1 0
570 282 150 -0 -1 0
611 282 150 -0 -1 0
601 292 0 0 1 0
570 292 0 0 1 0
570 292 150 0 1 0
601 292 150 0 1 0
428 398 0 1 0 0
428 343 0 1 0 0
428 343 150 1 0 0
428 398 150 1 0 0
418 398 0 -1 -0 0
418 343 0 -1 -0 0
418 343 150 -1 -0 0
418 398 150 -1 -0 0
541 393 0 -0 -1 0
488 393 0 -0 -1 0
488 393 150 -0 -1 0
541 393 150 -0 -1 0
541 403 0 0 1 0
488 403 0 0 1 0
488 403 150 0 1 0
541 403 150 0 1 0
425 418 0 -0 -1 0
414 418 0 -0 -1 0
414 418 150 -0 -1 0
425 418 150 -0 -1 0
425 428 0 0 1 0
414 428 0 0 1 0
414 428 150 0 1 0
425 428 150 0 1 0
605.66741943359375 445.011077880859375 0 -0.0665190070867538452 -0.99778515100479126 0
365.833526611328125 461 0 -0.0665190070867538452 -0.99778515100479126 0
365.833526611328125 461 150 -0.0665190070867538452 -0.99778515100479126 0
605.66741943359375 445.011077880859375 150 -0.0665190070867538452 -0.99778515100479126 0
606.33258056640625 454.988922119140625 0 0.0665190070867538452 0.99778515100479126 0
666.16650390625 451 0 0.0665190070867538452 0.99778515100479126 0
666.16650390625 451 150 0.0665190070867538452 0.99778515100479126 0
606.33258056640625 454.988922119140625 150 0.0665190070867538452 0.99778515100479126 0
365.833526611328125 461 0 -0 1 0
573 461 0 -0 1 0
573 461 150 -0 1 0
365.833526611328125 461 150 -0 1 0
666.16650390625 451 0 0 -1 0
573 451 0 0 -1 0
573 451 150 0 -1 0
666.16650390625 451 150 0 -1 0
495 281.967742919921875 0 -0 -1 0
462 281.967742919921875 0 -0 -1 0
462 281.967742919921875 150 -0 -1 0
495 281.967742919921875 150 -0 -1 0
495 291.967742919921875 0 0 1 0
462 291.967742919921875 0 0 1 0
462 291.967742919921875 150 0 1 0
495 291.967742919921875 150 0 1 0
233 513 0 -0 -1 0
208 513 0 -0 -1 0
208 513 150 -0 -1 0
233 513 150 -0 -1 0
233 523 0 0 1 0
208 523 0 0 1 0
208 523 150 0 1 0
233 523 150 0 1 0
423.8602294921875 246 0 1 0 0
423.8602294921875 220 0 1 0 0
423.8602294921875 220 150 1 0 0
423.8602294921875 246 150 1 0 0
413.8602294921875 246 0 -1 -0 0
413.8602294921875 220 0 -1 -0 0
413.8602294921875 220 150 -1 -0 0
413.8602294921875 246 150 -1 -0 0
459 70 0 1 0 0
459 32 0 1 0 0
459 32 150 1 0 0
459 70 150 1 0 0
449 70 0 -1 -0 0
449 32 0 -1 -0 0
449 32 150 -1 -0 0
449 70 150 -1 -0 0
535 447 0 -0 -1 0
486 447 0 -0 -1 0
486 447 150 -0 -1 0
535 447 150 -0 -1 0
535 457 0 0 1 0
486 457 0 0 1 0
486 457 150 0 1 0
535 457 150 0 1 0
319.90960693359375 55 0 1 0 0
319.90960693359375 33 0 1 0 0
319.90960693359375 33 150 1 0 0
319.90960693359375 55 150 1 0 0
309.90960693359375 55 0 -1 -0 0
309.90960693359375 33 0 -1 -0 0
309.90960693359375 33 150 -1 -0 0
309.90960693359375 55 150 -1 -0 0
304 384 0 -0 -1 0
291 384 0 -0 -1 0
291 384 150 -0 -1 0
304 384 150 -0 -1 0
304 394 0 0 1 0
291 394 0 0 1 0
291 394 150 0 1 0
304 394 150 0 1 0
228 198.485153198242188 0 -0 -1 0
210 198.485153198242188 0 -0 -1 0
210 198.485153198242188 150 -0 -1 0
228 198.485153198242188 150 -0 -1 0
228 208.485153198242188 0 0 1 0
210 208.485153198242188 0 0 1 0
210 208.485153198242188 150 0 1 0
228 208.485153198242188 150 0 1 0
228 259.475250244140625 0 -0 -1 0
210 259.475250244140625 0 -0 -1 0
210 259.475250244140625 150 -0 -1 0
228 259.475250244140625 150 -0 -1 0
228 269.475250244140625 0 0 1 0
210 269.475250244140625 0 0 1 0
210 269.475250244140625 150 0 1 0
228 269.475250244140625 150 0 1 0
423 166 0 1 0 0
423 155 0 1 0 0
423 155 150 1 0 0
423 166 150 1 0 0
413 166 0 -1 -0 0
413 155 0 -1 -0 0
413 155 150 -1 -0 0
413 166 150 -1 -0 0
265 513 0 -0 -1 0
255 513 0 -0 -1 0
255 513 150 -0 -1 0
265 513 150 -0 -1 0
265 523 0 0 1 0
255 523 0 0 1 0
255 523 150 0 1 0
265 523 150 0 1 0
611.6016845703125 413.811004638671875 0 0.999285280704498291 -0.0378019101917743683 0
610.814453125 393 0 0.999285280704498291 -0.0378019101917743683 0
610.814453125 393 150 0.999285280704498291 -0.0378019101917743683 0
611.6016845703125 413.811004638671875 150 0.999285280704498291 -0.0378019101917743683 0
601.60882568359375 414.188995361328125 0 -0.999285280704498291 0.0378019101917743683 0
600.99285888671875 397.905609130859375 0 -0.999285280704498291 0.0378019101917743683 0
600.99285888671875 397.905609130859375 150 -0.999285280704498291 0.0378019101917743683 0
601.60882568359375 414.188995361328125 150 -0.999285280704498291 0.0378019101917743683 0
610.635986328125 403 0 0.997150182723999023 0.0754422843456268311 0
611.59100341796875 390.377197265625 0 0.997150182723999023 0.0754422843456268311 0
611.59100341796875 390.377197265625 150 0.997150182723999023 0.0754422843456268311 0
610.635986328125 403 150 0.997150182723999023 0.0754422843456268311 0
600.99285888671875 397.905609130859375 0 -0.997150182723999023 -0.0754422843456268311 0
601.6195068359375 389.622802734375 0 -0.997150182723999023 -0.0754422843456268311 0
601.6195068359375 389.622802734375 150 -0.997150182723999023 -0.0754422843456268311 0
600.99285888671875 397.905609130859375 150 -0.997150182723999023 -0.0754422843456268311 0
610.814453125 393 0 -0 -1 0
568 393 0 -0 -1 0
568 393 150 -0 -1 0
610.814453125 393 150 -0 -1 0
610.635986328125 403 0 0 1 0
568 403 0 0 1 0
568 403 150 0 1 0
610.635986328125 403 150 0 1 0
601.50274658203125 431.83343505859375 0 -0.999444901943206787 -0.033314831554889679 0
601.16387939453125 442 0 -0.999444901943206787 -0.033314831554889679 0
601.16387939453125 442 150 -0.999444901943206787 -0.033314831554889679 0
601.50274658203125 431.83343505859375 150 -0.999444901943206787 -0.033314831554889679 0
611.49725341796875 432.16656494140625 0 0.999444901943206787 0.033314831554889679 0
610.83612060546875 452 0 0.999444901943206787 0.033314831554889679 0
610.83612060546875 452 150 0.999444901943206787 0.033314831554889679 0
611.49725341796875 432.16656494140625 150 0.999444901943206787 0.033314831554889679 0
601.16387939453125 442 0 -0 -1 0
579.19598388671875 442 0 -0 -1 0
579.19598388671875 442 150 -0 -1 0
601.16387939453125 442 150 -0 -1 0
610.83612060546875 452 0 0 1 0
568.80401611328125 452 0 0 1 0
568.80401611328125 452 150 0 1 0
610.83612060546875 452 150 0 1 0
359.015472412109375 157.294097900390625 0 0.0030959604773670435 0.999995231628417969 0
459 156.984542846679688 0 0.0030959604773670435 0.999995231628417969 0
459 156.984542846679688 150 0.0030959604773670435 0.999995231628417969 0
359.015472412109375 157.294097900390625 150 0.0030959604773670435 0.999995231628417969 0
358.984527587890625 147.294143676757812 0 -0.0030959604773670435 -0.999995231628417969 0
449 147.015457153320312 0 -0.0030959604773670435 -0.999995231628417969 0
449 147.015457153320312 150 -0.0030959604773670435 -0.999995231628417969 0
358.984527587890625 147.294143676757812 150 -0.0030959604773670435 -0.999995231628417969 0
459 156.984542846679688 0 1 0 0
459 133 0 1 0 0
459 133 150 1 0 0
459 156.984542846679688 150 1 0 0
449 147.015457153320312 0 -1 -0 0
449 133 0 -1 -0 0
449 133 150 -1 -0 0
449 147.015457153320312 150 -1 -0 0
569.50372314453125 433.807830810546875 0 -0.999261200428009033 -0.038433123379945755 0
568.80401611328125 452 0 -0.999261200428009033 -0.038433123379945755 0
568.80401611328125 452 150 -0.999261200428009033 -0.038433123379945755 0
569.50372314453125 433.807830810546875 150 -0.999261200428009033 -0.038433123379945755 0
579.49627685546875 434.192169189453125 0 0.999261200428009033 0.038433123379945755 0
579.19598388671875 442 0 0.999261200428009033 0.038433123379945755 0
579.19598388671875 442 150 0.999261200428009033 0.038433123379945755 0
579.49627685546875 434.192169189453125 150 0.999261200428009033 0.038433123379945755 0
212.996047973632812 277 0 210.51934814453125 274.779083251953125 0
202.996047973632812 277 0 210.51934814453125 274.779083251953125 0
202.996047973632812 277 150 210.51934814453125 274.779083251953125 0
212.996047973632812 277 150 210.51934814453125 274.779083251953125 0
212.996047973632812 191 0 210.51934814453125 187.779067993164062 0
202.996047973632812 191 0 210.51934814453125 187.779067993164062 0
202.996047973632812 191 150 210.51934814453125 187.779067993164062 0
212.996047973632812 191 150 210.51934814453125 187.779067993164062 0
212.9967041015625 518 0 210.8878173828125 513.87127685546875 0
202.9967041015625 518 0 210.8878173828125 513.87127685546875 0
202.9967041015625 518 150 210.8878173828125 513.87127685546875 0
212.9967041015625 518 150 210.8878173828125 513.87127685546875 0
212.9967041015625 417 0 210.8878173828125 411.87127685546875 0
202.9967041015625 417 0 210.8878173828125 411.87127685546875 0
202.9967041015625 417 150 210.8878173828125 411.87127685546875 0
212.9967041015625 417 150 210.8878173828125 411.87127685546875 0
490.9974365234375 452 0 487.30572509765625 449.60150146484375 0
480.9974365234375 452 0 487.30572509765625 449.60150146484375 0
480.9974365234375 452 150 487.30572509765625 449.60150146484375 0
490.9974365234375 452 150 487.30572509765625 449.60150146484375 0
490.9974365234375 319 0 487.30572509765625 315.60150146484375 0
480.9974365234375 319 0 487.30572509765625 315.60150146484375 0
480.9974365234375 319 150 487.30572509765625 315.60150146484375 0
490.9974365234375 319 150 487.30572509765625 315.60150146484375 0
454 26.6450614929199219 0 451.953033447265625 26.4662361145019531 0
454 36.6450614929199219 0 451.953033447265625 26.4662361145019531 0
454 36.6450614929199219 150 451.953033447265625 26.4662361145019531 0
454 26.6450614929199219 150 451.953033447265625 26.4662361145019531 0
305 26.6450614929199219 0 301.953033447265625 26.4662361145019531 0
305 36.6450614929199219 0 301.953033447265625 26.4662361145019531 0
305 36.6450614929199219 150 301.953033447265625 26.4662361145019531 0
305 26.6450614929199219 150 301.953033447265625 26.4662361145019531 0
213 163 0 211.309524536132812 162.706344604492188 0
203 163 0 211.309524536132812 162.706344604492188 0
203 163 150 211.309524536132812 162.706344604492188 0
213 163 150 211.309524536132812 162.706344604492188 0
317 418 0 313.98095703125 413.01904296875 0
307 418 0 313.98095703125 413.01904296875 0
307 418 150 313.98095703125 413.01904296875 0
317 418 150 313.98095703125 413.01904296875 0
312 310 0 310.137603759765625 307.155975341796875 0
312 320 0 310.137603759765625 307.155975341796875 0
312 320 150 310.137603759765625 307.155975341796875 0
312 310 150 310.137603759765625 307.155975341796875 0
262 362 0 257.653076171875 354.61224365234375 0
262 372 0 257.653076171875 354.61224365234375 0
262 372 150 257.653076171875 354.61224365234375 0
262 362 150 257.653076171875 354.61224365234375 0
611 369 0 603.97698974609375 365.75860595703125 0
601 369 0 603.97698974609375 365.75860595703125 0
601 369 150 603.97698974609375 365.75860595703125 0
611 369 150 603.97698974609375 365.75860595703125 0
428 398 0 420.218170166015625 391.763641357421875 0
418 398 0 420.218170166015625 391.763641357421875 0
418 398 150 420.218170166015625 391.763641357421875 0
428 398 150 420.218170166015625 391.763641357421875 0
428 343 0 420.218170166015625 335.763641357421875 0
418 343 0 420.218170166015625 335.763641357421875 0
418 343 150 420.218170166015625 335.763641357421875 0
428 343 150 420.218170166015625 335.763641357421875 0
282 37 0 278.913055419921875 36.4637680053710938 0
282 27 0 278.913055419921875 36.4637680053710938 0
282 27 150 278.913055419921875 36.4637680053710938 0
282 37 150 278.913055419921875 36.4637680053710938 0
570 282 0 555.0975341796875 275.1219482421875 0
570 292 0 555.0975341796875 275.1219482421875 0
570 292 150 555.0975341796875 275.1219482421875 0
570 282 150 555.0975341796875 275.1219482421875 0
286 513 0 271.380950927734375 488.571441650390625 0
286 523 0 271.380950927734375 488.571441650390625 0
286 523 150 271.380950927734375 488.571441650390625 0
286 513 150 271.380950927734375 488.571441650390625 0
541 393 0 531.79248046875 385.58489990234375 0
541 403 0 531.79248046875 385.58489990234375 0
541 403 150 531.79248046875 385.58489990234375 0
541 393 150 531.79248046875 385.58489990234375 0
488 393 0 477.792449951171875 385.58489990234375 0
488 403 0 477.792449951171875 385.58489990234375 0
488 403 150 477.792449951171875 385.58489990234375 0
488 393 150 477.792449951171875 385.58489990234375 0
425 418 0 387.3636474609375 380 0
425 428 0 387.3636474609375 380 0
425 428 150 387.3636474609375 380 0
425 418 150 387.3636474609375 380 0
414 418 0 375.3636474609375 380 0
414 428 0 375.3636474609375 380 0
414 428 150 375.3636474609375 380 0
414 418 150 375.3636474609375 380 0
605.66741943359375 445.011077880859375 0 604.14544677734375 443.093170166015625 0
606.33258056640625 454.988922119140625 0 604.14544677734375 443.093170166015625 0
606.33258056640625 454.988922119140625 150 604.14544677734375 443.093170166015625 0
605.66741943359375 445.011077880859375 150 604.14544677734375 443.093170166015625 0
495 281.967742919921875 0 481 273.42327880859375 0
495 291.967742919921875 0 481 273.42327880859375 0
495 291.967742919921875 150 481 273.42327880859375 0
495 281.967742919921875 150 481 273.42327880859375 0
462 281.967742919921875 0 447 273.42327880859375 0
462 291.967742919921875 0 447 273.42327880859375 0
462 291.967742919921875 150 447 273.42327880859375 0
462 281.967742919921875 150 447 273.42327880859375 0
233 513 0 224.67999267578125 492.480010986328125 0
233 523 0 224.67999267578125 492.480010986328125 0
233 523 150 224.67999267578125 492.480010986328125 0
233 513 150 224.67999267578125 492.480010986328125 0
208 513 0 198.67999267578125 492.480010986328125 0
208 523 0 198.67999267578125 492.480010986328125 0
208 523 150 198.67999267578125 492.480010986328125 0
208 513 150 198.67999267578125 492.480010986328125 0
203 396 0 196 383.344818115234375 0
213 396 0 196 383.344818115234375 0
213 396 150 196 383.344818115234375 0
203 396 150 196 383.344818115234375 0
423.8602294921875 246 0 407.557891845703125 237.538467407226562 0
413.8602294921875 246 0 407.557891845703125 237.538467407226562 0
413.8602294921875 246 150 407.557891845703125 237.538467407226562 0
423.8602294921875 246 150 407.557891845703125 237.538467407226562 0
423.8602294921875 220 0 407.557891845703125 210.538467407226562 0
413.8602294921875 220 0 407.557891845703125 210.538467407226562 0
413.8602294921875 220 150 407.557891845703125 210.538467407226562 0
423.8602294921875 220 150 407.557891845703125 210.538467407226562 0
459 70 0 446.921051025390625 69.15789794921875 0
449 70 0 446.921051025390625 69.15789794921875 0
449 70 150 446.921051025390625 69.15789794921875 0
459 70 150 446.921051025390625 69.15789794921875 0
459 32 0 446.921051025390625 30.1578941345214844 0
449 32 0 446.921051025390625 30.1578941345214844 0
449 32 150 446.921051025390625 30.1578941345214844 0
459 32 150 446.921051025390625 30.1578941345214844 0
203 332 0 193.772720336914062 317.909088134765625 0
213 332 0 193.772720336914062 317.909088134765625 0
213 332 150 193.772720336914062 317.909088134765625 0
203 332 150 193.772720336914062 317.909088134765625 0
535 447 0 525.08160400390625 437.8775634765625 0
535 457 0 525.08160400390625 437.8775634765625 0
535 457 150 525.08160400390625 437.8775634765625 0
535 447 150 525.08160400390625 437.8775634765625 0
486 447 0 475.081634521484375 437.8775634765625 0
486 457 0 475.081634521484375 437.8775634765625 0
486 457 150 475.081634521484375 437.8775634765625 0
486 447 150 475.081634521484375 437.8775634765625 0
319.90960693359375 55 0 305.368255615234375 53.5 0
309.90960693359375 55 0 305.368255615234375 53.5 0
309.90960693359375 55 150 305.368255615234375 53.5 0
319.90960693359375 55 150 305.368255615234375 53.5 0
319.90960693359375 33 0 305.368255615234375 30.5 0
309.90960693359375 33 0 305.368255615234375 30.5 0
309.90960693359375 33 150 305.368255615234375 30.5 0
319.90960693359375 33 150 305.368255615234375 30.5 0
304 384 0 281.615386962890625 354.4615478515625 0
304 394 0 281.615386962890625 354.4615478515625 0
304 394 150 281.615386962890625 354.4615478515625 0
304 384 150 281.615386962890625 354.4615478515625 0
291 384 0 267.615386962890625 354.4615478515625 0
291 394 0 267.615386962890625 354.4615478515625 0
291 394 150 267.615386962890625 354.4615478515625 0
291 384 150 267.615386962890625 354.4615478515625 0
228 198.485153198242188 0 216.333328247070312 187.45819091796875 0
228 208.485153198242188 0 216.333328247070312 187.45819091796875 0
228 208.485153198242188 150 216.333328247070312 187.45819091796875 0
228 198.485153198242188 150 216.333328247070312 187.45819091796875 0
210 198.485153198242188 0 197.333328247070312 187.45819091796875 0
210 208.485153198242188 0 197.333328247070312 187.45819091796875 0
210 208.485153198242188 150 197.333328247070312 187.45819091796875 0
210 198.485153198242188 150 197.333328247070312 187.45819091796875 0
228 259.475250244140625 0 216.333328247070312 245.059951782226562 0
228 269.475250244140625 0 216.333328247070312 245.059951782226562 0
228 269.475250244140625 150 216.333328247070312 245.059951782226562 0
228 259.475250244140625 150 216.333328247070312 245.059951782226562 0
210 259.475250244140625 0 197.333328247070312 245.059951782226562 0
210 269.475250244140625 0 197.333328247070312 245.059951782226562 0
210 269.475250244140625 150 197.333328247070312 245.059951782226562 0
210 259.475250244140625 150 197.333328247070312 245.059951782226562 0
213 354 0 186.375 308.75 0
203 354 0 186.375 308.75 0
203 354 150 186.375 308.75 0
213 354 150 186.375 308.75 0
573 461 0 571.234130859375 458.774749755859375 0
573 451 0 571.234130859375 458.774749755859375 0
573 451 150 571.234130859375 458.774749755859375 0
573 461 150 571.234130859375 458.774749755859375 0
423 166 0 384.545440673828125 151.909088134765625 0
413 166 0 384.545440673828125 151.909088134765625 0
413 166 150 384.545440673828125 151.909088134765625 0
423 166 150 384.545440673828125 151.909088134765625 0
423 155 0 384.545440673828125 139.909088134765625 0
413 155 0 384.545440673828125 139.909088134765625 0
413 155 150 384.545440673828125 139.909088134765625 0
423 155 150 384.545440673828125 139.909088134765625 0
265 513 0 239.5 461.70001220703125 0
265 523 0 239.5 461.70001220703125 0
265 523 150 239.5 461.70001220703125 0
265 513 150 239.5 461.70001220703125 0
255 513 0 228.5 461.70001220703125 0
255 523 0 228.5 461.70001220703125 0
255 523 150 228.5 461.70001220703125 0
255 513 150 228.5 461.70001220703125 0
611.6016845703125 413.811004638671875 0 582.2720947265625 394.94024658203125 0
601.60882568359375 414.188995361328125 0 582.2720947265625 394.94024658203125 0
601.60882568359375 414.188995361328125 150 582.2720947265625 394.94024658203125 0
611.6016845703125 413.811004638671875 150 582.2720947265625 394.94024658203125 0
611.59100341796875 390.377197265625 0 563.35321044921875 358.54180908203125 0
601.6195068359375 389.622802734375 0 563.35321044921875 358.54180908203125 0
601.6195068359375 389.622802734375 150 563.35321044921875 358.54180908203125 0
611.59100341796875 390.377197265625 150 563.35321044921875 358.54180908203125 0
568 393 0 553.73345947265625 383.82086181640625 0
568 403 0 553.73345947265625 383.82086181640625 0
568 403 150 553.73345947265625 383.82086181640625 0
568 393 150 553.73345947265625 383.82086181640625 0
601.50274658203125 431.83343505859375 0 542.4041748046875 388.381744384765625 0
611.49725341796875 432.16656494140625 0 542.4041748046875 388.381744384765625 0
611.49725341796875 432.16656494140625 150 542.4041748046875 388.381744384765625 0
601.50274658203125 431.83343505859375 150 542.4041748046875 388.381744384765625 0
359.015472412109375 157.294097900390625 0 354.4248046875 155.724014282226562 0
358.984527587890625 147.294143676757812 0 354.4248046875 155.724014282226562 0
358.984527587890625 147.294143676757812 150 354.4248046875 155.724014282226562 0
359.015472412109375 157.294097900390625 150 354.4248046875 155.724014282226562 0
459 133 0 439.8626708984375 126.454765319824219 0
449 133 0 439.8626708984375 126.454765319824219 0
449 133 150 439.8626708984375 126.454765319824219 0
459 133 150 439.8626708984375 126.454765319824219 0
569.50372314453125 433.807830810546875 0 538.2603759765625 408.980316162109375 0
579.49627685546875 434.192169189453125 0 538.2603759765625 408.980316162109375 0
579.49627685546875 434.192169189453125 150 538.2603759765625 408.980316162109375 0
569.50372314453125 433.807830810546875 150 538.2603759765625 408.980316162109375 0
212.996047973632812 277 0 0 0 -1
202.996047973632812 277 0 0 0 -1
202.996047973632812 191 0 0 0 -1
212.996047973632812 191 0 0 0 -1
212.996047973632812 277 150 0 0 1
202.996047973632812 277 150 0 0 1
202.996047973632812 191 150 0 0 1
212.996047973632812 191 150 0 0 1
212.9967041015625 518 0 0 0 -1
202.9967041015625 518 0 0 0 -1
202.9967041015625 417 0 0 0 -1
212.9967041015625 417 0 0 0 -1
212.9967041015625 518 150 0 0 1
202.9967041015625 518 150 0 0 1
202.9967041015625 417 150 0 0 1
212.9967041015625 417 150 0 0 1
490.9974365234375 452 0 0 0 -1
480.9974365234375 452 0 0 0 -1
480.9974365234375 319 0 0 0 -1
490.9974365234375 319 0 0 0 -1
490.9974365234375 452 150 0 0 1
480.9974365234375 452 150 0 0 1
480.9974365234375 319 150 0 0 1
490.9974365234375 319 150 0 0 1
454 26.6450614929199219 0 0 0 -1
454 36.6450614929199219 0 0 0 -1
305 36.6450614929199219 0 0 0 -1
305 26.6450614929199219 0 0 0 -1
454 26.6450614929199219 150 0 0 1
454 36.6450614929199219 150 0 0 1
305 36.6450614929199219 150 0 0 1
305 26.6450614929199219 150 0 0 1
213 163 0 0 0 -1
203 163 0 0 0 -1
203 27 0 0 0 -1
213 37 0 0 0 -1
213 163 150 0 0 1
203 163 150 0 0 1
203 27 150 0 0 1
213 37 150 0 0 1
213 37 0 0 0 -1
203 27 0 0 0 -1
282 27 0 0 0 -1
282 37 0 0 0 -1
213 37 150 0 0 1
203 27 150 0 0 1
282 27 150 0 0 1
282 37 150 0 0 1
317 523 0 0 0 -1
307 513 0 0 0 -1
307 418 0 0 0 -1
317 418 0 0 0 -1
317 523 150 0 0 1
307 513 150 0 0 1
307 418 150 0 0 1
317 418 150 0 0 1
307 513 0 0 0 -1
317 523 0 0 0 -1
286 523 0 0 0 -1
286 513 0 0 0 -1
307 513 150 0 0 1
317 523 150 0 0 1
286 523 150 0 0 1
286 513 150 0 0 1
312 310 0 0 0 -1
312 320 0 0 0 -1
213 320 0 0 0 -1
203 310 0 0 0 -1
312 310 150 0 0 1
312 320 150 0 0 1
213 320 150 0 0 1
203 310 150 0 0 1
203 310 0 0 0 -1
213 320 0 0 0 -1
213 332 0 0 0 -1
203 332 0 0 0 -1
203 310 150 0 0 1
213 320 150 0 0 1
213 332 150 0 0 1
203 332 150 0 0 1
262 362 0 0 0 -1
262 372 0 0 0 -1
213 372 0 0 0 -1
213 362 0 0 0 -1
262 362 150 0 0 1
262 372 150 0 0 1
213 372 150 0 0 1
213 362 150 0 0 1
203 367 0 0 0 -1
213 372 0 0 0 -1
213 396 0 0 0 -1
203 396 0 0 0 -1
203 367 150 0 0 1
213 372 150 0 0 1
213 396 150 0 0 1
203 396 150 0 0 1
213 362 0 0 0 -1
203 367 0 0 0 -1
203 354 0 0 0 -1
213 354 0 0 0 -1
213 362 150 0 0 1
203 367 150 0 0 1
203 354 150 0 0 1
213 354 150 0 0 1
611 369 0 0 0 -1
601 369 0 0 0 -1
601 292 0 0 0 -1
611 282 0 0 0 -1
611 369 150 0 0 1
601 369 150 0 0 1
601 292 150 0 0 1
611 282 150 0 0 1
611 282 0 0 0 -1
601 292 0 0 0 -1
570 292 0 0 0 -1
570 282 0 0 0 -1
611 282 150 0 0 1
601 292 150 0 0 1
570 292 150 0 0 1
570 282 150 0 0 1
428 398 0 0 0 -1
418 398 0 0 0 -1
418 343 0 0 0 -1
428 343 0 0 0 -1
428 398 150 0 0 1
418 398 150 0 0 1
418 343 150 0 0 1
428 343 150 0 0 1
541 393 0 0 0 -1
541 403 0 0 0 -1
488 403 0 0 0 -1
488 393 0 0 0 -1
541 393 150 0 0 1
541 403 150 0 0 1
488 403 150 0 0 1
488 393 150 0 0 1
425 418 0 0 0 -1
425 428 0 0 0 -1
414 428 0 0 0 -1
414 418 0 0 0 -1
425 418 150 0 0 1
425 428 150 0 0 1
414 428 150 0 0 1
414 418 150 0 0 1
605.66741943359375 445.011077880859375 0 0 0 -1
606.33258056640625 454.988922119140625 0 0 0 -1
666.16650390625 451 0 0 0 -1
365.833526611328125 461 0 0 0 -1
605.66741943359375 445.011077880859375 150 0 0 1
606.33258056640625 454.988922119140625 150 0 0 1
666.16650390625 451 150 0 0 1
365.833526611328125 461 150 0 0 1
365.833526611328125 461 0 0 0 -1
666.16650390625 451 0 0 0 -1
573 451 0 0 0 -1
573 461 0 0 0 -1
365.833526611328125 461 150 0 0 1
666.16650390625 451 150 0 0 1
573 451 150 0 0 1
573 461 150 0 0 1
495 281.967742919921875 0 0 0 -1
495 291.967742919921875 0 0 0 -1
462 291.967742919921875 0 0 0 -1
462 281.967742919921875 0 0 0 -1
495 281.967742919921875 150 0 0 1
495 291.967742919921875 150 0 0 1
462 291.967742919921875 150 0 0 1
462 281.967742919921875 150 0 0 1
233 513 0 0 0 -1
233 523 0 0 0 -1
208 523 0 0 0 -1
208 513 0 0 0 -1
233 513 150 0 0 1
233 523 150 0 0 1
208 523 150 0 0 1
208 513 150 0 0 1
423.8602294921875 246 0 0 0 -1
413.8602294921875 246 0 0 0 -1
413.8602294921875 220 0 0 0 -1
423.8602294921875 220 0 0 0 -1
423.8602294921875 246 150 0 0 1
413.8602294921875 246 150 0 0 1
413.8602294921875 220 150 0 0 1
423.8602294921875 220 150 0 0 1
459 70 0 0 0 -1
449 70 0 0 0 -1
449 32 0 0 0 -1
459 32 0 0 0 -1
459 70 150 0 0 1
449 70 150 0 0 1
449 32 150 0 0 1
459 32 150 0 0 1
535 447 0 0 0 -1
535 457 0 0 0 -1
486 457 0 0 0 -1
486 447 0 0 0 -1
535 447 150 0 0 1
535 457 150 0 0 1
486 457 150 0 0 1
486 447 150 0 0 1
319.90960693359375 55 0 0 0 -1
309.90960693359375 55 0 0 0 -1
309.90960693359375 33 0 0 0 -1
319.90960693359375 33 0 0 0 -1
319.90960693359375 55 150 0 0 1
309.90960693359375 55 150 0 0 1
309.90960693359375 33 150 0 0 1
319.90960693359375 33 150 0 0 1
304 384 0 0 0 -1
304 394 0 0 0 -1
291 394 0 0 0 -1
291 384 0 0 0 -1
304 384 150 0 0 1
304 394 150 0 0 1
291 394 150 0 0 1
291 384 150 0 0 1
228 198.485153198242188 0 0 0 -1
228 208.485153198242188 0 0 0 -1
210 208.485153198242188 0 0 0 -1
210 198.485153198242188 0 0 0 -1
228 198.485153198242188 150 0 0 1
228 208.485153198242188 150 0 0 1
210 208.485153198242188 150 0 0 1
210 198.485153198242188 150 0 0 1
228 259.475250244140625 0 0 0 -1
228 269.475250244140625 0 0 0 -1
210 269.475250244140625 0 0 0 -1
210 259.475250244140625 0 0 0 -1
228 259.475250244140625 150 0 0 1
228 269.475250244140625 150 0 0 1
210 269.475250244140625 150 0 0 1
210 259.475250244140625 150 0 0 1
423 166 0 0 0 -1
413 166 0 0 0 -1
413 155 0 0 0 -1
423 155 0 0 0 -1
423 166 150 0 0 1
413 166 150 0 0 1
413 155 150 0 0 1
423 155 150 0 0 1
265 513 0 0 0 -1
265 523 0 0 0 -1
255 523 0 0 0 -1
255 513 0 0 0 -1
265 513 150 0 0 1
265 523 150 0 0 1
255 523 150 0 0 1
255 513 150 0 0 1
611.6016845703125 413.811004638671875 0 0 0 -1
601.60882568359375 414.188995361328125 0 0 0 -1
600.99285888671875 397.905609130859375 0 0 0 -1
610.814453125 393 0 0 0 -1
611.6016845703125 413.811004638671875 150 0 0 1
601.60882568359375 414.188995361328125 150 0 0 1
600.99285888671875 397.905609130859375 150 0 0 1
610.814453125 393 150 0 0 1
610.635986328125 403 0 0 0 -1
600.99285888671875 397.905609130859375 0 0 0 -1
601.6195068359375 389.622802734375 0 0 0 -1
611.59100341796875 390.377197265625 0 0 0 -1
610.635986328125 403 150 0 0 1
600.99285888671875 397.905609130859375 150 0 0 1
601.6195068359375 389.622802734375 150 0 0 1
611.59100341796875 390.377197265625 150 0 0 1
610.814453125 393 0 0 0 -1
610.635986328125 403 0 0 0 -1
568 403 0 0 0 -1
568 393 0 0 0 -1
610.814453125 393 150 0 0 1
610.635986328125 403 150 0 0 1
568 403 150 0 0 1
568 393 150 0 0 1
601.50274658203125 431.83343505859375 0 0 0 -1
611.49725341796875 432.16656494140625 0 0 0 -1
610.83612060546875 452 0 0 0 -1
601.16387939453125 442 0 0 0 -1
601.50274658203125 431.83343505859375 150 0 0 1
611.49725341796875 432.16656494140625 150 0 0 1
610.83612060546875 452 150 0 0 1
601.16387939453125 442 150 0 0 1
601.16387939453125 442 0 0 0 -1
610.83612060546875 452 0 0 0 -1
568.80401611328125 452 0 0 0 -1
579.19598388671875 442 0 0 0 -1
601.16387939453125 442 150 0 0 1
610.83612060546875 452 150 0 0 1
568.80401611328125 452 150 0 0 1
579.19598388671875 442 150 0 0 1
359.015472412109375 157.294097900390625 0 0 0 -1
358.984527587890625 147.294143676757812 0 0 0 -1
449 147.015457153320312 0 0 0 -1
459 156.984542846679688 0 0 0 -1
359.015472412109375 157.294097900390625 150 0 0 1
358.984527587890625 147.294143676757812 150 0 0 1
449 147.015457153320312 150 0 0 1
459 156.984542846679688 150 0 0 1
459 156.984542846679688 0 0 0 -1
449 147.015457153320312 0 0 0 -1
449 133 0 0 0 -1
459 133 0 0 0 -1
459 156.984542846679688 150 0 0 1
449 147.015457153320312 150 0 0 1
449 133 150 0 0 1
459 133 150 0 0 1
569.50372314453125 433.807830810546875 0 0 0 -1
579.49627685546875 434.192169189453125 0 0 0 -1
579.19598388671875 442 0 0 0 -1
568.80401611328125 452 0 0 0 -1
569.50372314453125 433.807830810546875 150 0 0 1
579.49627685546875 434.192169189453125 150 0 0 1
579.19598388671875 442 150 0 0 1
568.80401611328125 452 150 0 0 1
600.99285888671875 397.905609130859375 0 0 0 -1
610.635986328125 403 0 0 0 -1
610.814453125 393 0 0 0 -1
600.99285888671875 397.905609130859375 150 0 0 1
610.635986328125 403 150 0 0 1
610.814453125 393 150 0 0 1
4 0 1 2 3
4 4 5 6 7
4 8 9 10 11
4 12 13 14 15
4 16 17 18 19
4 20 21 22 23
4 24 25 26 27
4 28 29 30 31
4 32 33 34 35
4 36 37 38 39
4 40 41 42 43
4 44 45 46 47
4 48 49 50 51
4 52 53 54 55
4 56 57 58 59
4 60 61 62 63
4 64 65 66 67
4 68 69 70 71
4 72 73 74 75
4 76 77 78 79
4 80 81 82 83
4 84 85 86 87
4 88 89 90 91
4 92 93 94 95
4 96 97 98 99
4 100 101 102 103
4 104 105 106 107
4 108 109 110 111
4 112 113 114 115
4 116 117 118 119
4 120 121 122 123
4 124 125 126 127
4 128 129 130 131
4 132 133 134 135
4 136 137 138 139
4 140 141 142 143
4 144 145 146 147
4 148 149 150 151
4 152 153 154 155
4 156 157 158 159
4 160 161 162 163
4 164 165 166 167
4 168 169 170 171
4 172 173 174 175
4 176 177 178 179
4 180 181 182 183
4 184 185 186 187
4 188 189 190 191
4 192 193 194 195
4 196 197 198 199
4 200 201 202 203
4 204 205 206 207
4 208 209 210 211
4 212 213 214 215
4 216 217 218 219
4 220 221 222 223
4 224 225 226 227
4 228 229 230 231
4 232 233 234 235
4 236 237 238 239
4 240 241 242 243
4 244 245 246 247
4 248 249 250 251
4 252 253 254 255
4 256 257 258 259
4 260 261 262 263
4 264 265 266 267
4 268 269 270 271
4 272 273 274 275
4 276 277 278 279
4 280 281 282 283
4 284 285 286 287
4 288 289 290 291
4 292 293 294 295
4 296 297 298 299
4 300 301 302 303
4 304 305 306 307
4 308 309 310 311
4 312 313 314 315
4 316 317 318 319
4 320 321 322 323
4 324 325 326 327
4 328 329 330 331
4 332 333 334 335
4 336 337 338 339
4 340 341 342 343
4 344 345 346 347
4 348 349 350 351
4 352 353 354 355
4 356 357 358 359
4 360 361 362 363
4 364 365 366 367
4 368 369 370 371
4 372 373 374 375
4 376 377 378 379
4 380 381 382 383
4 384 385 386 387
4 388 389 390 391
4 392 393 394 395
4 396 397 398 399
4 400 401 402 403
4 404 405 406 407
4 408 409 410 411
4 412 413 414 415
4 416 417 418 419
4 420 421 422 423
4 424 425 426 427
4 428 429 430 431
4 432 433 434 435
4 436 437 438 439
4 440 441 442 443
4 444 445 446 447
4 448 449 450 451
4 452 453 454 455
4 456 457 458 459
4 460 461 462 463
4 464 465 466 467
4 468 469 470 471
4 472 473 474 475
4 476 477 478 479
4 480 481 482 483
4 484 485 486 487
4 488 489 490 491
4 492 493 494 495
4 496 497 498 499
4 500 501 502 503
4 504 505 506 507
4 508 509 510 511
4 512 513 514 515
4 516 517 518 519
4 520 521 522 523
4 524 525 526 527
4 528 529 530 531
4 532 533 534 535
4 536 537 538 539
4 540 541 542 543
4 544 545 546 547
4 548 549 550 551
4 552 553 554 555
4 556 557 558 559
4 560 561 562 563
4 564 565 566 567
4 568 569 570 571
4 572 573 574 575
4 576 577 578 579
4 580 581 582 583
4 584 585 586 587
4 588 589 590 591
4 592 593 594 595
4 596 597 598 599
4 600 601 602 603
4 604 605 606 607
4 608 609 610 611
4 612 613 614 615
4 616 617 618 619
4 620 621 622 623
4 624 625 626 627
4 628 629 630 631
4 632 633 634 635
4 636 637 638 639
4 640 641 642 643
4 644 645 646 647
4 648 649 650 651
4 652 653 654 655
4 656 657 658 659
4 660 661 662 663
4 664 665 666 667
4 668 669 670 671
4 672 673 674 675
4 676 677 678 679
4 680 681 682 683
4 684 685 686 687
4 688 689 690 691
4 692 693 694 695
4 696 697 698 699
4 700 701 702 703
4 704 705 706 707
4 708 709 710 711
4 712 713 714 715
4 716 717 718 719
4 720 721 722 723
4 724 725 726 727
4 728 729 730 731
4 732 733 734 735
4 736 737 738 739
4 740 741 742 743
4 744 745 746 747
4 748 749 750 751
4 752 753 754 755
4 756 757 758 759
4 760 761 762 763
4 764 765 766 767
4 768 769 770 771
4 772 773 774 775
4 776 777 778 779
4 780 781 782 783
4 784 785 786 787
4 788 789 790 791
4 792 793 794 795
4 796 797 798 799
4 800 801 802 803
4 804 805 806 807
4 808 809 810 811
4 812 813 814 815
4 816 817 818 819
4 820 821 822 823
4 824 825 826 827
4 828 829 830 831
4 832 833 834 835
4 836 837 838 839
4 840 841 842 843
4 844 845 846 847
3 848 849 850
3 851 852 853
