ply
format ascii 1.0
element vertex 440
property float x
property float y
property float z
property float nx
property float ny
property float nz
element quads 110
property list uchar int vertex_indices
end_header
104.25 526 0 1 0 0
104.25 34.25 0 1 0 0
104.25 34.25 100 1 0 0
104.25 526 100 1 0 0
103.75 526 0 -1 -0 0
103.75 33.75 0 -1 -0 0
103.75 33.75 100 -1 -0 0
103.75 526 100 -1 -0 0
104.25 34.25 0 -0 1 0
343 34.25 0 -0 1 0
343 34.25 100 -0 1 0
104.25 34.25 100 -0 1 0
103.75 33.75 0 0 -1 0
343 33.75 0 0 -1 0
343 33.75 100 0 -1 0
103.75 33.75 100 0 -1 0
410.25 529 0 1 0 0
410.25 206 0 1 0 0
410.25 206 100 1 0 0
410.25 529 100 1 0 0
409.75 529 0 -1 -0 0
409.75 206 0 -1 -0 0
409.75 206 100 -1 -0 0
409.75 529 100 -1 -0 0
194.75 89.25 0 -0 1 0
309 89.25 0 -0 1 0
309 89.25 100 -0 1 0
194.75 89.25 100 -0 1 0
195.25 88.75 0 0 -1 0
309 88.75 0 0 -1 0
309 88.75 100 0 -1 0
195.25 88.75 100 0 -1 0
195.25 88.75 0 1 0 0
195.25 44 0 1 0 0
195.25 44 100 1 0 0
195.25 88.75 100 1 0 0
194.75 89.25 0 -1 -0 0
194.75 44 0 -1 -0 0
194.75 44 100 -1 -0 0
194.75 89.25 100 -1 -0 0
105 148.25 0 -0 1 0
310 148.25 0 -0 1 0
310 148.25 100 -0 1 0
105 148.25 100 -0 1 0
105 147.75 0 0 -1 0
310 147.75 0 0 -1 0
310 147.75 100 0 -1 0
105 147.75 100 0 -1 0
656 34.25 0 -0 1 0
717 34.25 0 -0 1 0
717 34.25 100 -0 1 0
656 34.25 100 -0 1 0
656 33.75 0 0 -1 0
717 33.75 0 0 -1 0
717 33.75 100 0 -1 0
656 33.75 100 0 -1 0
271 517.25 0 -0 1 0
338 517.25 0 -0 1 0
338 517.25 100 -0 1 0
271 517.25 100 -0 1 0
271 516.75 0 0 -1 0
338 516.75 0 0 -1 0
338 516.75 100 0 -1 0
271 516.75 100 0 -1 0
570.25 205 0 1 0 0
570.25 171 0 1 0 0
570.25 171 100 1 0 0
570.25 205 100 1 0 0
569.75 205 0 -1 -0 0
569.75 171 0 -1 -0 0
569.75 171 100 -1 -0 0
569.75 205 100 -1 -0 0
402 206.25 0 -0 1 0
464 206.25 0 -0 1 0
464 206.25 100 -0 1 0
402 206.25 100 -0 1 0
402 205.75 0 0 -1 0
464 205.75 0 0 -1 0
464 205.75 100 0 -1 0
402 205.75 100 0 -1 0
724.75 33 0 -1 0 0
724.75 526 0 -1 0 0
724.75 526 100 -1 0 0
724.75 33 100 -1 0 0
725.25 33 0 1 -0 0
725.25 526 0 1 -0 0
725.25 526 100 1 -0 0
725.25 33 100 1 -0 0
309.75 33 0 -1 0 0
309.75 209 0 -1 0 0
309.75 209 100 -1 0 0
309.75 33 100 -1 0 0
310.25 33 0 1 -0 0
310.25 209 0 1 -0 0
310.25 209 100 1 -0 0
310.25 33 100 1 -0 0
510 206.25 0 -0 1 0
717 206.25 0 -0 1 0
717 206.25 100 -0 1 0
510 206.25 100 -0 1 0
510 205.75 0 0 -1 0
717 205.75 0 0 -1 0
717 205.75 100 0 -1 0
510 205.75 100 0 -1 0
341.75 452 0 -1 0 0
341.75 529 0 -1 0 0
341.75 529 100 -1 0 0
341.75 452 100 -1 0 0
342.25 452 0 1 -0 0
342.25 529 0 1 -0 0
342.25 529 100 1 -0 0
342.25 452 100 1 -0 0
225 206.25 0 -0 1 0
319 206.25 0 -0 1 0
319 206.25 100 -0 1 0
225 206.25 100 -0 1 0
225 205.75 0 0 -1 0
319 205.75 0 0 -1 0
319 205.75 100 0 -1 0
225 205.75 100 0 -1 0
105 517.25 0 -0 1 0
173 517.25 0 -0 1 0
173 517.25 100 -0 1 0
105 517.25 100 -0 1 0
105 516.75 0 0 -1 0
173 516.75 0 0 -1 0
173 516.75 100 0 -1 0
105 516.75 100 0 -1 0
105 265.25 0 -0 1 0
180 265.25 0 -0 1 0
180 265.25 100 -0 1 0
105 265.25 100 -0 1 0
105 264.75 0 0 -1 0
180 264.75 0 0 -1 0
180 264.75 100 0 -1 0
105 264.75 100 0 -1 0
408 517.25 0 -0 1 0
435 517.25 0 -0 1 0
435 517.25 100 -0 1 0
408 517.25 100 -0 1 0
408 516.75 0 0 -1 0
435 516.75 0 0 -1 0
435 516.75 100 0 -1 0
408 516.75 100 0 -1 0
440 34.25 0 -0 1 0
607 34.25 0 -0 1 0
607 34.25 100 -0 1 0
440 34.25 100 -0 1 0
440 33.75 0 0 -1 0
607 33.75 0 0 -1 0
607 33.75 100 0 -1 0
440 33.75 100 0 -1 0
104.25 526 0 104.038002014160156 525.93035888671875 0
103.75 526 0 104.038002014160156 525.93035888671875 0
103.75 526 100 104.038002014160156 525.93035888671875 0
104.25 526 100 104.038002014160156 525.93035888671875 0
410.25 529 0 408.979888916015625 528.36224365234375 0
409.75 529 0 408.979888916015625 528.36224365234375 0
409.75 529 100 408.979888916015625 528.36224365234375 0
410.25 529 100 408.979888916015625 528.36224365234375 0
410.25 206 0 408.979888916015625 204.362228393554688 0
409.75 206 0 408.979888916015625 204.362228393554688 0
409.75 206 100 408.979888916015625 204.362228393554688 0
410.25 206 100 408.979888916015625 204.362228393554688 0
309 89.25 0 307.29541015625 88.4688186645507812 0
309 88.75 0 307.29541015625 88.4688186645507812 0
309 88.75 100 307.29541015625 88.4688186645507812 0
309 89.25 100 307.29541015625 88.4688186645507812 0
105 148.25 0 103.487808227539062 147.526824951171875 0
105 147.75 0 103.487808227539062 147.526824951171875 0
105 147.75 100 103.487808227539062 147.526824951171875 0
105 148.25 100 103.487808227539062 147.526824951171875 0
310 148.25 0 309.48779296875 147.526824951171875 0
310 147.75 0 309.48779296875 147.526824951171875 0
310 147.75 100 309.48779296875 147.526824951171875 0
310 148.25 100 309.48779296875 147.526824951171875 0
656 34.25 0 644.24591064453125 33.6885261535644531 0
656 33.75 0 644.24591064453125 33.6885261535644531 0
656 33.75 100 644.24591064453125 33.6885261535644531 0
656 34.25 100 644.24591064453125 33.6885261535644531 0
717 34.25 0 706.24591064453125 33.6885261535644531 0
717 33.75 0 706.24591064453125 33.6885261535644531 0
717 33.75 100 706.24591064453125 33.6885261535644531 0
717 34.25 100 706.24591064453125 33.6885261535644531 0
271 517.25 0 265.955230712890625 509.52984619140625 0
271 516.75 0 265.955230712890625 509.52984619140625 0
271 516.75 100 265.955230712890625 509.52984619140625 0
271 517.25 100 265.955230712890625 509.52984619140625 0
338 517.25 0 333.955230712890625 509.52984619140625 0
338 516.75 0 333.955230712890625 509.52984619140625 0
338 516.75 100 333.955230712890625 509.52984619140625 0
338 517.25 100 333.955230712890625 509.52984619140625 0
570.25 205 0 553.47796630859375 199.9705810546875 0
569.75 205 0 553.47796630859375 199.9705810546875 0
569.75 205 100 553.47796630859375 199.9705810546875 0
570.25 205 100 553.47796630859375 199.9705810546875 0
570.25 171 0 553.47796630859375 164.9705810546875 0
569.75 171 0 553.47796630859375 164.9705810546875 0
569.75 171 100 553.47796630859375 164.9705810546875 0
570.25 171 100 553.47796630859375 164.9705810546875 0
402 206.25 0 394.516143798828125 202.923385620117188 0
402 205.75 0 394.516143798828125 202.923385620117188 0
402 205.75 100 394.516143798828125 202.923385620117188 0
402 206.25 100 394.516143798828125 202.923385620117188 0
464 206.25 0 457.516143798828125 202.923385620117188 0
464 205.75 0 457.516143798828125 202.923385620117188 0
464 205.75 100 457.516143798828125 202.923385620117188 0
464 206.25 100 457.516143798828125 202.923385620117188 0
724.75 33 0 723.2799072265625 31.9330635070800781 0
725.25 33 0 723.2799072265625 31.9330635070800781 0
725.25 33 100 723.2799072265625 31.9330635070800781 0
724.75 33 100 723.2799072265625 31.9330635070800781 0
724.75 526 0 723.2799072265625 525.93304443359375 0
725.25 526 0 723.2799072265625 525.93304443359375 0
725.25 526 100 723.2799072265625 525.93304443359375 0
724.75 526 100 723.2799072265625 525.93304443359375 0
309.75 33 0 307.99005126953125 31.8125 0
310.25 33 0 307.99005126953125 31.8125 0
310.25 33 100 307.99005126953125 31.8125 0
309.75 33 100 307.99005126953125 31.8125 0
309.75 209 0 307.99005126953125 208.8125 0
310.25 209 0 307.99005126953125 208.8125 0
310.25 209 100 307.99005126953125 208.8125 0
309.75 209 100 307.99005126953125 208.8125 0
510 206.25 0 506.536224365234375 205.253616333007812 0
510 205.75 0 506.536224365234375 205.253616333007812 0
510 205.75 100 506.536224365234375 205.253616333007812 0
510 206.25 100 506.536224365234375 205.253616333007812 0
717 206.25 0 714.5362548828125 205.253616333007812 0
717 205.75 0 714.5362548828125 205.253616333007812 0
717 205.75 100 714.5362548828125 205.253616333007812 0
717 206.25 100 714.5362548828125 205.253616333007812 0
341.75 452 0 337.311676025390625 445.1298828125 0
342.25 452 0 337.311676025390625 445.1298828125 0
342.25 452 100 337.311676025390625 445.1298828125 0
341.75 452 100 337.311676025390625 445.1298828125 0
341.75 529 0 337.311676025390625 523.1298828125 0
342.25 529 0 337.311676025390625 523.1298828125 0
342.25 529 100 337.311676025390625 523.1298828125 0
341.75 529 100 337.311676025390625 523.1298828125 0
343 34.25 0 342.5633544921875 34.1065444946289062 0
343 33.75 0 342.5633544921875 34.1065444946289062 0
343 33.75 100 342.5633544921875 34.1065444946289062 0
343 34.25 100 342.5633544921875 34.1065444946289062 0
225 206.25 0 221.60638427734375 204.05584716796875 0
225 205.75 0 221.60638427734375 204.05584716796875 0
225 205.75 100 221.60638427734375 204.05584716796875 0
225 206.25 100 221.60638427734375 204.05584716796875 0
319 206.25 0 316.60638427734375 204.05584716796875 0
319 205.75 0 316.60638427734375 204.05584716796875 0
319 205.75 100 316.60638427734375 204.05584716796875 0
319 206.25 100 316.60638427734375 204.05584716796875 0
105 517.25 0 102.455879211425781 509.64337158203125 0
105 516.75 0 102.455879211425781 509.64337158203125 0
105 516.75 100 102.455879211425781 509.64337158203125 0
105 517.25 100 102.455879211425781 509.64337158203125 0
173 517.25 0 171.455886840820312 509.64337158203125 0
173 516.75 0 171.455886840820312 509.64337158203125 0
173 516.75 100 171.455886840820312 509.64337158203125 0
173 517.25 100 171.455886840820312 509.64337158203125 0
105 265.25 0 102.599998474121094 261.713348388671875 0
105 264.75 0 102.599998474121094 261.713348388671875 0
105 264.75 100 102.599998474121094 261.713348388671875 0
105 265.25 100 102.599998474121094 261.713348388671875 0
180 265.25 0 178.600006103515625 261.713348388671875 0
180 264.75 0 178.600006103515625 261.713348388671875 0
180 264.75 100 178.600006103515625 261.713348388671875 0
180 265.25 100 178.600006103515625 261.713348388671875 0
408 517.25 0 391.888885498046875 498.09259033203125 0
408 516.75 0 391.888885498046875 498.09259033203125 0
408 516.75 100 391.888885498046875 498.09259033203125 0
408 517.25 100 391.888885498046875 498.09259033203125 0
435 517.25 0 419.888885498046875 498.09259033203125 0
435 516.75 0 419.888885498046875 498.09259033203125 0
435 516.75 100 419.888885498046875 498.09259033203125 0
435 517.25 100 419.888885498046875 498.09259033203125 0
195.25 44 0 190.886871337890625 42.0167579650878906 0
194.75 44 0 190.886871337890625 42.0167579650878906 0
194.75 44 100 190.886871337890625 42.0167579650878906 0
195.25 44 100 190.886871337890625 42.0167579650878906 0
440 34.25 0 436.365264892578125 34.0449104309082031 0
440 33.75 0 436.365264892578125 34.0449104309082031 0
440 33.75 100 436.365264892578125 34.0449104309082031 0
440 34.25 100 436.365264892578125 34.0449104309082031 0
607 34.25 0 604.36529541015625 34.0449104309082031 0
607 33.75 0 604.36529541015625 34.0449104309082031 0
607 33.75 100 604.36529541015625 34.0449104309082031 0
607 34.25 100 604.36529541015625 34.0449104309082031 0
104.25 526 0 0 0 -1
103.75 526 0 0 0 -1
103.75 33.75 0 0 0 -1
104.25 34.25 0 0 0 -1
104.25 526 100 0 0 1
103.75 526 100 0 0 1
103.75 33.75 100 0 0 1
104.25 34.25 100 0 0 1
104.25 34.25 0 0 0 -1
103.75 33.75 0 0 0 -1
343 33.75 0 0 0 -1
343 34.25 0 0 0 -1
104.25 34.25 100 0 0 1
103.75 33.75 100 0 0 1
343 33.75 100 0 0 1
343 34.25 100 0 0 1
410.25 529 0 0 0 -1
409.75 529 0 0 0 -1
409.75 206 0 0 0 -1
410.25 206 0 0 0 -1
410.25 529 100 0 0 1
409.75 529 100 0 0 1
409.75 206 100 0 0 1
410.25 206 100 0 0 1
194.75 89.25 0 0 0 -1
195.25 88.75 0 0 0 -1
309 88.75 0 0 0 -1
309 89.25 0 0 0 -1
194.75 89.25 100 0 0 1
195.25 88.75 100 0 0 1
309 88.75 100 0 0 1
309 89.25 100 0 0 1
195.25 88.75 0 0 0 -1
194.75 89.25 0 0 0 -1
194.75 44 0 0 0 -1
195.25 44 0 0 0 -1
195.25 88.75 100 0 0 1
194.75 89.25 100 0 0 1
194.75 44 100 0 0 1
195.25 44 100 0 0 1
105 148.25 0 0 0 -1
105 147.75 0 0 0 -1
310 147.75 0 0 0 -1
310 148.25 0 0 0 -1
105 148.25 100 0 0 1
105 147.75 100 0 0 1
310 147.75 100 0 0 1
310 148.25 100 0 0 1
656 34.25 0 0 0 -1
656 33.75 0 0 0 -1
717 33.75 0 0 0 -1
717 34.25 0 0 0 -1
656 34.25 100 0 0 1
656 33.75 100 0 0 1
717 33.75 100 0 0 1
717 34.25 100 0 0 1
271 517.25 0 0 0 -1
271 516.75 0 0 0 -1
338 516.75 0 0 0 -1
338 517.25 0 0 0 -1
271 517.25 100 0 0 1
271 516.75 100 0 0 1
338 516.75 100 0 0 1
338 517.25 100 0 0 1
570.25 205 0 0 0 -1
569.75 205 0 0 0 -1
569.75 171 0 0 0 -1
570.25 171 0 0 0 -1
570.25 205 100 0 0 1
569.75 205 100 0 0 1
569.75 171 100 0 0 1
570.25 171 100 0 0 1
402 206.25 0 0 0 -1
402 205.75 0 0 0 -1
464 205.75 0 0 0 -1
464 206.25 0 0 0 -1
402 206.25 100 0 0 1
402 205.75 100 0 0 1
464 205.75 100 0 0 1
464 206.25 100 0 0 1
724.75 33 0 0 0 -1
725.25 33 0 0 0 -1
725.25 526 0 0 0 -1
724.75 526 0 0 0 -1
724.75 33 100 0 0 1
725.25 33 100 0 0 1
725.25 526 100 0 0 1
724.75 526 100 0 0 1
309.75 33 0 0 0 -1
310.25 33 0 0 0 -1
310.25 209 0 0 0 -1
309.75 209 0 0 0 -1
309.75 33 100 0 0 1
310.25 33 100 0 0 1
310.25 209 100 0 0 1
309.75 209 100 0 0 1
510 206.25 0 0 0 -1
510 205.75 0 0 0 -1
717 205.75 0 0 0 -1
717 206.25 0 0 0 -1
510 206.25 100 0 0 1
510 205.75 100 0 0 1
717 205.75 100 0 0 1
717 206.25 100 0 0 1
341.75 452 0 0 0 -1
342.25 452 0 0 0 -1
342.25 529 0 0 0 -1
341.75 529 0 0 0 -1
341.75 452 100 0 0 1
342.25 452 100 0 0 1
342.25 529 100 0 0 1
341.75 529 100 0 0 1
225 206.25 0 0 0 -1
225 205.75 0 0 0 -1
319 205.75 0 0 0 -1
319 206.25 0 0 0 -1
225 206.25 100 0 0 1
225 205.75 100 0 0 1
319 205.75 100 0 0 1
319 206.25 100 0 0 1
105 517.25 0 0 0 -1
105 516.75 0 0 0 -1
173 516.75 0 0 0 -1
173 517.25 0 0 0 -1
105 517.25 100 0 0 1
105 516.75 100 0 0 1
173 516.75 100 0 0 1
173 517.25 100 0 0 1
105 265.25 0 0 0 -1
105 264.75 0 0 0 -1
180 264.75 0 0 0 -1
180 265.25 0 0 0 -1
105 265.25 100 0 0 1
105 264.75 100 0 0 1
180 264.75 100 0 0 1
180 265.25 100 0 0 1
408 517.25 0 0 0 -1
408 516.75 0 0 0 -1
435 516.75 0 0 0 -1
435 517.25 0 0 0 -1
408 517.25 100 0 0 1
408 516.75 100 0 0 1
435 516.75 100 0 0 1
435 517.25 100 0 0 1
440 34.25 0 0 0 -1
440 33.75 0 0 0 -1
607 33.75 0 0 0 -1
607 34.25 0 0 0 -1
440 34.25 100 0 0 1
440 33.75 100 0 0 1
607 33.75 100 0 0 1
607 34.25 100 0 0 1
4 0 1 2 3
4 4 5 6 7
4 8 9 10 11
4 12 13 14 15
4 16 17 18 19
4 20 21 22 23
4 24 25 26 27
4 28 29 30 31
4 32 33 34 35
4 36 37 38 39
4 40 41 42 43
4 44 45 46 47
4 48 49 50 51
4 52 53 54 55
4 56 57 58 59
4 60 61 62 63
4 64 65 66 67
4 68 69 70 71
4 72 73 74 75
4 76 77 78 79
4 80 81 82 83
4 84 85 86 87
4 88 89 90 91
4 92 93 94 95
4 96 97 98 99
4 100 101 102 103
4 104 105 106 107
4 108 109 110 111
4 112 113 114 115
4 116 117 118 119
4 120 121 122 123
4 124 125 126 127
4 128 129 130 131
4 132 133 134 135
4 136 137 138 139
4 140 141 142 143
4 144 145 146 147
4 148 149 150 151
4 152 153 154 155
4 156 157 158 159
4 160 161 162 163
4 164 165 166 167
4 168 169 170 171
4 172 173 174 175
4 176 177 178 179
4 180 181 182 183
4 184 185 186 187
4 188 189 190 191
4 192 193 194 195
4 196 197 198 199
4 200 201 202 203
4 204 205 206 207
4 208 209 210 211
4 212 213 214 215
4 216 217 218 219
4 220 221 222 223
4 224 225 226 227
4 228 229 230 231
4 232 233 234 235
4 236 237 238 239
4 240 241 242 243
4 244 245 246 247
4 248 249 250 251
4 252 253 254 255
4 256 257 258 259
4 260 261 262 263
4 264 265 266 267
4 268 269 270 271
4 272 273 274 275
4 276 277 278 279
4 280 281 282 283
4 284 285 286 287
4 288 289 290 291
4 292 293 294 295
4 296 297 298 299
4 300 301 302 303
4 304 305 306 307
4 308 309 310 311
4 312 313 314 315
4 316 317 318 319
4 320 321 322 323
4 324 325 326 327
4 328 329 330 331
4 332 333 334 335
4 336 337 338 339
4 340 341 342 343
4 344 345 346 347
4 348 349 350 351
4 352 353 354 355
4 356 357 358 359
4 360 361 362 363
4 364 365 366 367
4 368 369 370 371
4 372 373 374 375
4 376 377 378 379
4 380 381 382 383
4 384 385 386 387
4 388 389 390 391
4 392 393 394 395
4 396 397 398 399
4 400 401 402 403
4 404 405 406 407
4 408 409 410 411
4 412 413 414 415
4 416 417 418 419
4 420 421 422 423
4 424 425 426 427
4 428 429 430 431
4 432 433 434 435
4 436 437 438 439
