ply
format ascii 1.0
element vertex 432
property float x
property float y
property float z
property float nx
property float ny
property float nz
element quads 108
property list uchar int vertex_indices
end_header
619.4964599609375 326 0 1 0 0
619.4964599609375 79 0 1 0 0
619.4964599609375 79 150 1 0 0
619.4964599609375 326 150 1 0 0
609.4964599609375 326 0 -1 -0 0
609.4964599609375 79 0 -1 -0 0
609.4964599609375 79 150 -1 -0 0
609.4964599609375 326 150 -1 -0 0
215.502182006835938 393 0 1 0 0
215.502182006835938 222 0 1 0 0
215.502182006835938 222 150 1 0 0
215.502182006835938 393 150 1 0 0
205.502182006835938 393 0 -1 -0 0
205.502182006835938 222 0 -1 -0 0
205.502182006835938 222 150 -1 -0 0
205.502182006835938 393 150 -1 -0 0
215.497451782226562 157 0 1 0 0
215.497451782226562 10 0 1 0 0
215.497451782226562 10 150 1 0 0
215.497451782226562 157 150 1 0 0
205.497451782226562 157 0 -1 -0 0
205.497451782226562 10 0 -1 -0 0
205.497451782226562 10 150 -1 -0 0
205.497451782226562 157 150 -1 -0 0
476 534.53125 0 -0 -1 0
451 534.53125 0 -0 -1 0
451 534.53125 150 -0 -1 0
476 534.53125 150 -0 -1 0
476 544.53125 0 0 1 0
451 544.53125 0 0 1 0
451 544.53125 150 0 1 0
476 544.53125 150 0 1 0
331 6.5 0 -0 -1 0
240 6.5 0 -0 -1 0
240 6.5 150 -0 -1 0
331 6.5 150 -0 -1 0
331 16.5 0 0 1 0
240 16.5 0 0 1 0
240 16.5 150 0 1 0
331 16.5 150 0 1 0
342 391.996856689453125 0 -0 -1 0
268 391.996856689453125 0 -0 -1 0
268 391.996856689453125 150 -0 -1 0
342 391.996856689453125 150 -0 -1 0
342 401.996856689453125 0 0 1 0
268 401.996856689453125 0 0 1 0
268 401.996856689453125 150 0 1 0
342 401.996856689453125 150 0 1 0
242 388 0 -0 -1 0
211 388 0 -0 -1 0
211 388 150 -0 -1 0
242 388 150 -0 -1 0
242 398 0 0 1 0
211 398 0 0 1 0
211 398 150 0 1 0
242 398 150 0 1 0
401.5 126 0 1 0 0
401.5 115 0 1 0 0
401.5 115 150 1 0 0
401.5 126 150 1 0 0
391.5 126 0 -1 -0 0
391.5 115 0 -1 -0 0
391.5 115 150 -1 -0 0
391.5 126 150 -1 -0 0
514.5625 92 0 1 0 0
514.5625 79 0 1 0 0
514.5625 79 150 1 0 0
514.5625 92 150 1 0 0
504.5625 92 0 -1 -0 0
504.5625 79 0 -1 -0 0
504.5625 79 150 -1 -0 0
504.5625 92 150 -1 -0 0
457.475006103515625 408 0 1 0 0
457.475006103515625 387 0 1 0 0
457.475006103515625 387 150 1 0 0
457.475006103515625 408 150 1 0 0
447.475006103515625 408 0 -1 -0 0
447.475006103515625 387 0 -1 -0 0
447.475006103515625 387 150 -1 -0 0
447.475006103515625 408 150 -1 -0 0
541 55.5882339477539062 0 -0 -1 0
527 55.5882339477539062 0 -0 -1 0
527 55.5882339477539062 150 -0 -1 0
541 55.5882339477539062 150 -0 -1 0
541 65.5882339477539062 0 0 1 0
527 65.5882339477539062 0 0 1 0
527 65.5882339477539062 150 0 1 0
541 65.5882339477539062 150 0 1 0
384.64813232421875 271.35186767578125 0 0.70710676908493042 -0.70710676908493042 0
366.14813232421875 252.851852416992188 0 0.70710676908493042 -0.70710676908493042 0
366.14813232421875 252.851852416992188 150 0.70710676908493042 -0.70710676908493042 0
384.64813232421875 271.35186767578125 150 0.70710676908493042 -0.70710676908493042 0
377.57708740234375 278.42291259765625 0 -0.70710676908493042 0.70710676908493042 0
359.07708740234375 259.92291259765625 0 -0.70710676908493042 0.70710676908493042 0
359.07708740234375 259.92291259765625 150 -0.70710676908493042 0.70710676908493042 0
377.57708740234375 278.42291259765625 150 -0.70710676908493042 0.70710676908493042 0
597 56.0270271301269531 0 -0 -1 0
584 56.0270271301269531 0 -0 -1 0
584 56.0270271301269531 150 -0 -1 0
597 56.0270271301269531 150 -0 -1 0
597 66.0270233154296875 0 0 1 0
584 66.0270233154296875 0 0 1 0
584 66.0270233154296875 150 0 1 0
597 66.0270233154296875 150 0 1 0
609.5 343.9871826171875 0 -0.999996721744537354 -0.00256409402936697006 0
609.0126953125 534.03350830078125 0 -0.999996721744537354 -0.00256409402936697006 0
609.0126953125 534.03350830078125 150 -0.999996721744537354 -0.00256409402936697006 0
609.5 343.9871826171875 150 -0.999996721744537354 -0.00256409402936697006 0
619.5 344.0128173828125 0 0.999996721744537354 0.00256409402936697006 0
618.9873046875 543.96649169921875 0 0.999996721744537354 0.00256409402936697006 0
618.9873046875 543.96649169921875 150 0.999996721744537354 0.00256409402936697006 0
619.5 344.0128173828125 150 0.999996721744537354 0.00256409402936697006 0
609.0126953125 534.03350830078125 0 -0.00674219289794564247 -0.999977290630340576 0
528.96630859375 534.5732421875 0 -0.00674219289794564247 -0.999977290630340576 0
528.96630859375 534.5732421875 150 -0.00674219289794564247 -0.999977290630340576 0
609.0126953125 534.03350830078125 150 -0.00674219289794564247 -0.999977290630340576 0
618.9873046875 543.96649169921875 0 0.00674219289794564247 0.999977290630340576 0
529.03369140625 544.572998046875 0 0.00674219289794564247 0.999977290630340576 0
529.03369140625 544.572998046875 150 0.00674219289794564247 0.999977290630340576 0
618.9873046875 543.96649169921875 150 0.00674219289794564247 0.999977290630340576 0
356.49755859375 41.9421844482421875 0 -0.999933123588562012 -0.0115628913044929504 0
355.94183349609375 90 0 -0.999933123588562012 -0.0115628913044929504 0
355.94183349609375 90 150 -0.999933123588562012 -0.0115628913044929504 0
356.49755859375 41.9421844482421875 150 -0.999933123588562012 -0.0115628913044929504 0
366.496917724609375 42.0578155517578125 0 0.999933123588562012 0.0115628913044929504 0
366.05816650390625 80 0 0.999933123588562012 0.0115628913044929504 0
366.05816650390625 80 150 0.999933123588562012 0.0115628913044929504 0
366.496917724609375 42.0578155517578125 150 0.999933123588562012 0.0115628913044929504 0
355.94183349609375 90 0 -0 1 0
398 90 0 -0 1 0
398 90 150 -0 1 0
355.94183349609375 90 150 -0 1 0
366.05816650390625 80 0 0 -1 0
398 80 0 0 -1 0
398 80 150 0 -1 0
366.05816650390625 80 150 0 -1 0
402.490264892578125 352.9478759765625 0 -0.999945640563964844 -0.0104249650612473488 0
402.05108642578125 395.073944091796875 0 -0.999945640563964844 -0.0104249650612473488 0
402.05108642578125 395.073944091796875 150 -0.999945640563964844 -0.0104249650612473488 0
402.490264892578125 352.9478759765625 150 -0.999945640563964844 -0.0104249650612473488 0
412.489715576171875 353.0521240234375 0 0.999945640563964844 0.0104249650612473488 0
411.94891357421875 404.926055908203125 0 0.999945640563964844 0.0104249650612473488 0
411.94891357421875 404.926055908203125 150 0.999945640563964844 0.0104249650612473488 0
412.489715576171875 353.0521240234375 150 0.999945640563964844 0.0104249650612473488 0
402.05108642578125 395.073944091796875 0 -0.0150515604764223099 -0.999886691570281982 0
372.92474365234375 395.51239013671875 0 -0.0150515604764223099 -0.999886691570281982 0
372.92474365234375 395.51239013671875 150 -0.0150515604764223099 -0.999886691570281982 0
402.05108642578125 395.073944091796875 150 -0.0150515604764223099 -0.999886691570281982 0
411.94891357421875 404.926055908203125 0 0.0150515604764223099 0.999886691570281982 0
373.07525634765625 405.51123046875 0 0.0150515604764223099 0.999886691570281982 0
373.07525634765625 405.51123046875 150 0.0150515604764223099 0.999886691570281982 0
411.94891357421875 404.926055908203125 150 0.0150515604764223099 0.999886691570281982 0
619.4964599609375 326 0 616.98834228515625 325.68017578125 0
609.4964599609375 326 0 616.98834228515625 325.68017578125 0
609.4964599609375 326 150 616.98834228515625 325.68017578125 0
619.4964599609375 326 150 616.98834228515625 325.68017578125 0
619.4964599609375 79 0 616.98834228515625 77.6801605224609375 0
609.4964599609375 79 0 616.98834228515625 77.6801605224609375 0
609.4964599609375 79 150 616.98834228515625 77.6801605224609375 0
619.4964599609375 79 150 616.98834228515625 77.6801605224609375 0
215.502182006835938 393 0 214.241928100585938 391.701751708984375 0
205.502182006835938 393 0 214.241928100585938 391.701751708984375 0
205.502182006835938 393 150 214.241928100585938 391.701751708984375 0
215.502182006835938 393 150 214.241928100585938 391.701751708984375 0
215.502182006835938 222 0 214.241928100585938 219.701751708984375 0
205.502182006835938 222 0 214.241928100585938 219.701751708984375 0
205.502182006835938 222 150 214.241928100585938 219.701751708984375 0
215.502182006835938 222 150 214.241928100585938 219.701751708984375 0
215.497451782226562 157 0 214.031478881835938 156.931976318359375 0
205.497451782226562 157 0 214.031478881835938 156.931976318359375 0
205.497451782226562 157 150 214.031478881835938 156.931976318359375 0
215.497451782226562 157 150 214.031478881835938 156.931976318359375 0
215.497451782226562 10 0 214.031478881835938 8.93197250366210938 0
205.497451782226562 10 0 214.031478881835938 8.93197250366210938 0
205.497451782226562 10 150 214.031478881835938 8.93197250366210938 0
215.497451782226562 10 150 214.031478881835938 8.93197250366210938 0
476 534.53125 0 457.959991455078125 513.1500244140625 0
476 544.53125 0 457.959991455078125 513.1500244140625 0
476 544.53125 150 457.959991455078125 513.1500244140625 0
476 534.53125 150 457.959991455078125 513.1500244140625 0
451 534.53125 0 431.959991455078125 513.1500244140625 0
451 544.53125 0 431.959991455078125 513.1500244140625 0
451 544.53125 150 431.959991455078125 513.1500244140625 0
451 534.53125 150 431.959991455078125 513.1500244140625 0
331 6.5 0 328.362640380859375 6.42857122421264648 0
331 16.5 0 328.362640380859375 6.42857122421264648 0
331 16.5 150 328.362640380859375 6.42857122421264648 0
331 6.5 150 328.362640380859375 6.42857122421264648 0
240 6.5 0 236.362640380859375 6.42857122421264648 0
240 16.5 0 236.362640380859375 6.42857122421264648 0
240 16.5 150 236.362640380859375 6.42857122421264648 0
240 6.5 150 236.362640380859375 6.42857122421264648 0
342 391.996856689453125 0 338.378387451171875 386.699615478515625 0
342 401.996856689453125 0 338.378387451171875 386.699615478515625 0
342 401.996856689453125 150 338.378387451171875 386.699615478515625 0
342 391.996856689453125 150 338.378387451171875 386.699615478515625 0
268 391.996856689453125 0 263.378387451171875 386.699615478515625 0
268 401.996856689453125 0 263.378387451171875 386.699615478515625 0
268 401.996856689453125 150 263.378387451171875 386.699615478515625 0
268 391.996856689453125 150 263.378387451171875 386.699615478515625 0
242 388 0 235.19354248046875 375.483856201171875 0
242 398 0 235.19354248046875 375.483856201171875 0
242 398 150 235.19354248046875 375.483856201171875 0
242 388 150 235.19354248046875 375.483856201171875 0
211 388 0 203.19354248046875 375.483856201171875 0
211 398 0 203.19354248046875 375.483856201171875 0
211 398 150 203.19354248046875 375.483856201171875 0
211 388 150 203.19354248046875 375.483856201171875 0
401.5 126 0 365 115.545455932617188 0
391.5 126 0 365 115.545455932617188 0
391.5 126 150 365 115.545455932617188 0
401.5 126 150 365 115.545455932617188 0
401.5 115 0 365 103.545455932617188 0
391.5 115 0 365 103.545455932617188 0
391.5 115 150 365 103.545455932617188 0
401.5 115 150 365 103.545455932617188 0
514.5625 92 0 474.98077392578125 85.9230804443359375 0
504.5625 92 0 474.98077392578125 85.9230804443359375 0
504.5625 92 150 474.98077392578125 85.9230804443359375 0
514.5625 92 150 474.98077392578125 85.9230804443359375 0
514.5625 79 0 474.98077392578125 71.9230804443359375 0
504.5625 79 0 474.98077392578125 71.9230804443359375 0
504.5625 79 150 474.98077392578125 71.9230804443359375 0
514.5625 79 150 474.98077392578125 71.9230804443359375 0
457.475006103515625 408 0 435.69049072265625 389.571441650390625 0
447.475006103515625 408 0 435.69049072265625 389.571441650390625 0
447.475006103515625 408 150 435.69049072265625 389.571441650390625 0
457.475006103515625 408 150 435.69049072265625 389.571441650390625 0
457.475006103515625 387 0 435.69049072265625 367.571441650390625 0
447.475006103515625 387 0 435.69049072265625 367.571441650390625 0
447.475006103515625 387 150 435.69049072265625 367.571441650390625 0
457.475006103515625 387 150 435.69049072265625 367.571441650390625 0
541 55.5882339477539062 0 503.357147216796875 51.617645263671875 0
541 65.5882339477539062 0 503.357147216796875 51.617645263671875 0
541 65.5882339477539062 150 503.357147216796875 51.617645263671875 0
541 55.5882339477539062 150 503.357147216796875 51.617645263671875 0
527 55.5882339477539062 0 488.357147216796875 51.617645263671875 0
527 65.5882339477539062 0 488.357147216796875 51.617645263671875 0
527 65.5882339477539062 150 488.357147216796875 51.617645263671875 0
527 55.5882339477539062 150 488.357147216796875 51.617645263671875 0
384.64813232421875 271.35186767578125 0 370.653228759765625 261.687347412109375 0
377.57708740234375 278.42291259765625 0 370.653228759765625 261.687347412109375 0
377.57708740234375 278.42291259765625 150 370.653228759765625 261.687347412109375 0
384.64813232421875 271.35186767578125 150 370.653228759765625 261.687347412109375 0
366.14813232421875 252.851852416992188 0 351.446136474609375 242.480239868164062 0
359.07708740234375 259.92291259765625 0 351.446136474609375 242.480239868164062 0
359.07708740234375 259.92291259765625 150 351.446136474609375 242.480239868164062 0
366.14813232421875 252.851852416992188 150 351.446136474609375 242.480239868164062 0
597 56.0270271301269531 0 552.076904296875 51.717254638671875 0
597 66.0270233154296875 0 552.076904296875 51.717254638671875 0
597 66.0270233154296875 150 552.076904296875 51.717254638671875 0
597 56.0270271301269531 150 552.076904296875 51.717254638671875 0
584 56.0270271301269531 0 538.076904296875 51.717254638671875 0
584 66.0270233154296875 0 538.076904296875 51.717254638671875 0
584 66.0270233154296875 150 538.076904296875 51.717254638671875 0
584 56.0270271301269531 150 538.076904296875 51.717254638671875 0
609.5 343.9871826171875 0 606.29547119140625 341.17718505859375 0
619.5 344.0128173828125 0 606.29547119140625 341.17718505859375 0
619.5 344.0128173828125 150 606.29547119140625 341.17718505859375 0
609.5 343.9871826171875 150 606.29547119140625 341.17718505859375 0
528.96630859375 534.5732421875 0 521.35821533203125 527.90179443359375 0
529.03369140625 544.572998046875 0 521.35821533203125 527.90179443359375 0
529.03369140625 544.572998046875 150 521.35821533203125 527.90179443359375 0
528.96630859375 534.5732421875 150 521.35821533203125 527.90179443359375 0
356.49755859375 41.9421844482421875 0 349.091522216796875 40.0695648193359375 0
366.496917724609375 42.0578155517578125 0 349.091522216796875 40.0695648193359375 0
366.496917724609375 42.0578155517578125 150 349.091522216796875 40.0695648193359375 0
356.49755859375 41.9421844482421875 150 349.091522216796875 40.0695648193359375 0
398 90 0 389.53692626953125 87.860107421875 0
398 80 0 389.53692626953125 87.860107421875 0
398 80 150 389.53692626953125 87.860107421875 0
398 90 150 389.53692626953125 87.860107421875 0
402.490264892578125 352.9478759765625 0 392.94677734375 343.57000732421875 0
412.489715576171875 353.0521240234375 0 392.94677734375 343.57000732421875 0
412.489715576171875 353.0521240234375 150 392.94677734375 343.57000732421875 0
402.490264892578125 352.9478759765625 150 392.94677734375 343.57000732421875 0
372.92474365234375 395.51239013671875 0 359.12261962890625 381.94976806640625 0
373.07525634765625 405.51123046875 0 359.12261962890625 381.94976806640625 0
373.07525634765625 405.51123046875 150 359.12261962890625 381.94976806640625 0
372.92474365234375 395.51239013671875 150 359.12261962890625 381.94976806640625 0
619.4964599609375 326 0 0 0 -1
609.4964599609375 326 0 0 0 -1
609.4964599609375 79 0 0 0 -1
619.4964599609375 79 0 0 0 -1
619.4964599609375 326 150 0 0 1
609.4964599609375 326 150 0 0 1
609.4964599609375 79 150 0 0 1
619.4964599609375 79 150 0 0 1
215.502182006835938 393 0 0 0 -1
205.502182006835938 393 0 0 0 -1
205.502182006835938 222 0 0 0 -1
215.502182006835938 222 0 0 0 -1
215.502182006835938 393 150 0 0 1
205.502182006835938 393 150 0 0 1
205.502182006835938 222 150 0 0 1
215.502182006835938 222 150 0 0 1
215.497451782226562 157 0 0 0 -1
205.497451782226562 157 0 0 0 -1
205.497451782226562 10 0 0 0 -1
215.497451782226562 10 0 0 0 -1
215.497451782226562 157 150 0 0 1
205.497451782226562 157 150 0 0 1
205.497451782226562 10 150 0 0 1
215.497451782226562 10 150 0 0 1
476 534.53125 0 0 0 -1
476 544.53125 0 0 0 -1
451 544.53125 0 0 0 -1
451 534.53125 0 0 0 -1
476 534.53125 150 0 0 1
476 544.53125 150 0 0 1
451 544.53125 150 0 0 1
451 534.53125 150 0 0 1
331 6.5 0 0 0 -1
331 16.5 0 0 0 -1
240 16.5 0 0 0 -1
240 6.5 0 0 0 -1
331 6.5 150 0 0 1
331 16.5 150 0 0 1
240 16.5 150 0 0 1
240 6.5 150 0 0 1
342 391.996856689453125 0 0 0 -1
342 401.996856689453125 0 0 0 -1
268 401.996856689453125 0 0 0 -1
268 391.996856689453125 0 0 0 -1
342 391.996856689453125 150 0 0 1
342 401.996856689453125 150 0 0 1
268 401.996856689453125 150 0 0 1
268 391.996856689453125 150 0 0 1
242 388 0 0 0 -1
242 398 0 0 0 -1
211 398 0 0 0 -1
211 388 0 0 0 -1
242 388 150 0 0 1
242 398 150 0 0 1
211 398 150 0 0 1
211 388 150 0 0 1
401.5 126 0 0 0 -1
391.5 126 0 0 0 -1
391.5 115 0 0 0 -1
401.5 115 0 0 0 -1
401.5 126 150 0 0 1
391.5 126 150 0 0 1
391.5 115 150 0 0 1
401.5 115 150 0 0 1
514.5625 92 0 0 0 -1
504.5625 92 0 0 0 -1
504.5625 79 0 0 0 -1
514.5625 79 0 0 0 -1
514.5625 92 150 0 0 1
504.5625 92 150 0 0 1
504.5625 79 150 0 0 1
514.5625 79 150 0 0 1
457.475006103515625 408 0 0 0 -1
447.475006103515625 408 0 0 0 -1
447.475006103515625 387 0 0 0 -1
457.475006103515625 387 0 0 0 -1
457.475006103515625 408 150 0 0 1
447.475006103515625 408 150 0 0 1
447.475006103515625 387 150 0 0 1
457.475006103515625 387 150 0 0 1
541 55.5882339477539062 0 0 0 -1
541 65.5882339477539062 0 0 0 -1
527 65.5882339477539062 0 0 0 -1
527 55.5882339477539062 0 0 0 -1
541 55.5882339477539062 150 0 0 1
541 65.5882339477539062 150 0 0 1
527 65.5882339477539062 150 0 0 1
527 55.5882339477539062 150 0 0 1
384.64813232421875 271.35186767578125 0 0 0 -1
377.57708740234375 278.42291259765625 0 0 0 -1
359.07708740234375 259.92291259765625 0 0 0 -1
366.14813232421875 252.851852416992188 0 0 0 -1
384.64813232421875 271.35186767578125 150 0 0 1
377.57708740234375 278.42291259765625 150 0 0 1
359.07708740234375 259.92291259765625 150 0 0 1
366.14813232421875 252.851852416992188 150 0 0 1
597 56.0270271301269531 0 0 0 -1
597 66.0270233154296875 0 0 0 -1
584 66.0270233154296875 0 0 0 -1
584 56.0270271301269531 0 0 0 -1
597 56.0270271301269531 150 0 0 1
597 66.0270233154296875 150 0 0 1
584 66.0270233154296875 150 0 0 1
584 56.0270271301269531 150 0 0 1
609.5 343.9871826171875 0 0 0 -1
619.5 344.0128173828125 0 0 0 -1
618.9873046875 543.96649169921875 0 0 0 -1
609.0126953125 534.03350830078125 0 0 0 -1
609.5 343.9871826171875 150 0 0 1
619.5 344.0128173828125 150 0 0 1
618.9873046875 543.96649169921875 150 0 0 1
609.0126953125 534.03350830078125 150 0 0 1
609.0126953125 534.03350830078125 0 0 0 -1
618.9873046875 543.96649169921875 0 0 0 -1
529.03369140625 544.572998046875 0 0 0 -1
528.96630859375 534.5732421875 0 0 0 -1
609.0126953125 534.03350830078125 150 0 0 1
618.9873046875 543.96649169921875 150 0 0 1
529.03369140625 544.572998046875 150 0 0 1
528.96630859375 534.5732421875 150 0 0 1
356.49755859375 41.9421844482421875 0 0 0 -1
366.496917724609375 42.0578155517578125 0 0 0 -1
366.05816650390625 80 0 0 0 -1
355.94183349609375 90 0 0 0 -1
356.49755859375 41.9421844482421875 150 0 0 1
366.496917724609375 42.0578155517578125 150 0 0 1
366.05816650390625 80 150 0 0 1
355.94183349609375 90 150 0 0 1
355.94183349609375 90 0 0 0 -1
366.05816650390625 80 0 0 0 -1
398 80 0 0 0 -1
398 90 0 0 0 -1
355.94183349609375 90 150 0 0 1
366.05816650390625 80 150 0 0 1
398 80 150 0 0 1
398 90 150 0 0 1
402.490264892578125 352.9478759765625 0 0 0 -1
412.489715576171875 353.0521240234375 0 0 0 -1
411.94891357421875 404.926055908203125 0 0 0 -1
402.05108642578125 395.073944091796875 0 0 0 -1
402.490264892578125 352.9478759765625 150 0 0 1
412.489715576171875 353.0521240234375 150 0 0 1
411.94891357421875 404.926055908203125 150 0 0 1
402.05108642578125 395.073944091796875 150 0 0 1
402.05108642578125 395.073944091796875 0 0 0 -1
411.94891357421875 404.926055908203125 0 0 0 -1
373.07525634765625 405.51123046875 0 0 0 -1
372.92474365234375 395.51239013671875 0 0 0 -1
402.05108642578125 395.073944091796875 150 0 0 1
411.94891357421875 404.926055908203125 150 0 0 1
373.07525634765625 405.51123046875 150 0 0 1
372.92474365234375 395.51239013671875 150 0 0 1
4 0 1 2 3
4 4 5 6 7
4 8 9 10 11
4 12 13 14 15
4 16 17 18 19
4 20 21 22 23
4 24 25 26 27
4 28 29 30 31
4 32 33 34 35
4 36 37 38 39
4 40 41 42 43
4 44 45 46 47
4 48 49 50 51
4 52 53 54 55
4 56 57 58 59
4 60 61 62 63
4 64 65 66 67
4 68 69 70 71
4 72 73 74 75
4 76 77 78 79
4 80 81 82 83
4 84 85 86 87
4 88 89 90 91
4 92 93 94 95
4 96 97 98 99
4 100 101 102 103
4 104 105 106 107
4 108 109 110 111
4 112 113 114 115
4 116 117 118 119
4 120 121 122 123
4 124 125 126 127
4 128 129 130 131
4 132 133 134 135
4 136 137 138 139
4 140 141 142 143
4 144 145 146 147
4 148 149 150 151
4 152 153 154 155
4 156 157 158 159
4 160 161 162 163
4 164 165 166 167
4 168 169 170 171
4 172 173 174 175
4 176 177 178 179
4 180 181 182 183
4 184 185 186 187
4 188 189 190 191
4 192 193 194 195
4 196 197 198 199
4 200 201 202 203
4 204 205 206 207
4 208 209 210 211
4 212 213 214 215
4 216 217 218 219
4 220 221 222 223
4 224 225 226 227
4 228 229 230 231
4 232 233 234 235
4 236 237 238 239
4 240 241 242 243
4 244 245 246 247
4 248 249 250 251
4 252 253 254 255
4 256 257 258 259
4 260 261 262 263
4 264 265 266 267
4 268 269 270 271
4 272 273 274 275
4 276 277 278 279
4 280 281 282 283
4 284 285 286 287
4 288 289 290 291
4 292 293 294 295
4 296 297 298 299
4 300 301 302 303
4 304 305 306 307
4 308 309 310 311
4 312 313 314 315
4 316 317 318 319
4 320 321 322 323
4 324 325 326 327
4 328 329 330 331
4 332 333 334 335
4 336 337 338 339
4 340 341 342 343
4 344 345 346 347
4 348 349 350 351
4 352 353 354 355
4 356 357 358 359
4 360 361 362 363
4 364 365 366 367
4 368 369 370 371
4 372 373 374 375
4 376 377 378 379
4 380 381 382 383
4 384 385 386 387
4 388 389 390 391
4 392 393 394 395
4 396 397 398 399
4 400 401 402 403
4 404 405 406 407
4 408 409 410 411
4 412 413 414 415
4 416 417 418 419
4 420 421 422 423
4 424 425 426 427
4 428 429 430 431
