ply
format ascii 1.0
element vertex 448
property float x
property float y
property float z
property float nx
property float ny
property float nz
element quads 112
property list uchar int vertex_indices
end_header
617.498046875 326 0 1 0 0
617.498046875 79 0 1 0 0
617.498046875 79 100 1 0 0
617.498046875 326 100 1 0 0
611.498046875 326 0 -1 -0 0
611.498046875 79 0 -1 -0 0
611.498046875 79 100 -1 -0 0
611.498046875 326 100 -1 -0 0
213.5 157 0 1 0 0
213.5 10 0 1 0 0
213.5 10 100 1 0 0
213.5 157 100 1 0 0
207.5 157 0 -1 -0 0
207.5 10 0 -1 -0 0
207.5 10 100 -1 -0 0
207.5 157 100 -1 -0 0
476 536.56390380859375 0 -0 -1 0
451 536.56390380859375 0 -0 -1 0
451 536.56390380859375 100 -0 -1 0
476 536.56390380859375 100 -0 -1 0
476 542.56390380859375 0 0 1 0
451 542.56390380859375 0 0 1 0
451 542.56390380859375 100 0 1 0
476 542.56390380859375 100 0 1 0
331 8.5 0 -0 -1 0
240 8.5 0 -0 -1 0
240 8.5 100 -0 -1 0
331 8.5 100 -0 -1 0
331 14.5 0 0 1 0
240 14.5 0 0 1 0
240 14.5 100 0 1 0
331 14.5 100 0 1 0
342 394.073089599609375 0 -0 -1 0
268 394.073089599609375 0 -0 -1 0
268 394.073089599609375 100 -0 -1 0
342 394.073089599609375 100 -0 -1 0
342 400.073089599609375 0 0 1 0
268 400.073089599609375 0 0 1 0
268 400.073089599609375 100 0 1 0
342 400.073089599609375 100 0 1 0
409.943115234375 126 0 1 0 0
409.943115234375 115 0 1 0 0
409.943115234375 115 100 1 0 0
409.943115234375 126 100 1 0 0
403.943115234375 126 0 -1 -0 0
403.943115234375 115 0 -1 -0 0
403.943115234375 115 100 -1 -0 0
403.943115234375 126 100 -1 -0 0
399 126 0 1 0 0
399 115 0 1 0 0
399 115 100 1 0 0
399 126 100 1 0 0
393 126 0 -1 -0 0
393 115 0 -1 -0 0
393 115 100 -1 -0 0
393 126 100 -1 -0 0
512.5625 92 0 1 0 0
512.5625 79 0 1 0 0
512.5625 79 100 1 0 0
512.5625 92 100 1 0 0
506.5625 92 0 -1 -0 0
506.5625 79 0 -1 -0 0
506.5625 79 100 -1 -0 0
506.5625 92 100 -1 -0 0
455.475006103515625 408 0 1 0 0
455.475006103515625 387 0 1 0 0
455.475006103515625 387 100 1 0 0
455.475006103515625 408 100 1 0 0
449.475006103515625 408 0 -1 -0 0
449.475006103515625 387 0 -1 -0 0
449.475006103515625 387 100 -1 -0 0
449.475006103515625 408 100 -1 -0 0
541 57.7727279663085938 0 -0 -1 0
527 57.7727279663085938 0 -0 -1 0
527 57.7727279663085938 100 -0 -1 0
541 57.7727279663085938 100 -0 -1 0
541 63.7727279663085938 0 0 1 0
527 63.7727279663085938 0 0 1 0
527 63.7727279663085938 100 0 1 0
541 63.7727279663085938 100 0 1 0
597 57.7727279663085938 0 -0 -1 0
584 57.7727279663085938 0 -0 -1 0
584 57.7727279663085938 100 -0 -1 0
597 57.7727279663085938 100 -0 -1 0
597 63.7727279663085938 0 0 1 0
584 63.7727279663085938 0 0 1 0
584 63.7727279663085938 100 0 1 0
597 63.7727279663085938 100 0 1 0
383.23394775390625 272.76605224609375 0 0.70710676908493042 -0.70710676908493042 0
364.73394775390625 254.266067504882812 0 0.70710676908493042 -0.70710676908493042 0
364.73394775390625 254.266067504882812 100 0.70710676908493042 -0.70710676908493042 0
383.23394775390625 272.76605224609375 100 0.70710676908493042 -0.70710676908493042 0
378.991302490234375 277.008697509765625 0 -0.70710676908493042 0.70710676908493042 0
360.491302490234375 258.508697509765625 0 -0.70710676908493042 0.70710676908493042 0
360.491302490234375 258.508697509765625 100 -0.70710676908493042 0.70710676908493042 0
378.991302490234375 277.008697509765625 100 -0.70710676908493042 0.70710676908493042 0
611.498046875 343.992340087890625 0 -0.999996721744537354 -0.00255394796840846539 0
611.00762939453125 536.019775390625 0 -0.999996721744537354 -0.00255394796840846539 0
611.00762939453125 536.019775390625 100 -0.999996721744537354 -0.00255394796840846539 0
611.498046875 343.992340087890625 100 -0.999996721744537354 -0.00255394796840846539 0
617.49798583984375 344.007659912109375 0 0.999996721744537354 0.00255394796840846539 0
616.99237060546875 541.980224609375 0 0.999996721744537354 0.00255394796840846539 0
616.99237060546875 541.980224609375 100 0.999996721744537354 0.00255394796840846539 0
617.49798583984375 344.007659912109375 100 0.999996721744537354 0.00255394796840846539 0
611.00762939453125 536.019775390625 0 -0.00663428846746683121 -0.999978005886077881 0
528.9801025390625 536.56396484375 0 -0.00663428846746683121 -0.999978005886077881 0
528.9801025390625 536.56396484375 100 -0.00663428846746683121 -0.999978005886077881 0
611.00762939453125 536.019775390625 100 -0.00663428846746683121 -0.999978005886077881 0
616.99237060546875 541.980224609375 0 0.00663428846746683121 0.999978005886077881 0
529.0198974609375 542.5638427734375 0 0.00663428846746683121 0.999978005886077881 0
529.0198974609375 542.5638427734375 100 0.00663428846746683121 0.999978005886077881 0
616.99237060546875 541.980224609375 100 0.00663428846746683121 0.999978005886077881 0
207.500015258789062 221.991424560546875 0 -0.999995946884155273 -0.00285713118501007557 0
206.991409301757812 400 0 -0.999995946884155273 -0.00285713118501007557 0
206.991409301757812 400 100 -0.999995946884155273 -0.00285713118501007557 0
207.500015258789062 221.991424560546875 100 -0.999995946884155273 -0.00285713118501007557 0
213.499984741210938 222.008575439453125 0 0.999995946884155273 0.00285713118501007557 0
213.008590698242188 394 0 0.999995946884155273 0.00285713118501007557 0
213.008590698242188 394 100 0.999995946884155273 0.00285713118501007557 0
213.499984741210938 222.008575439453125 100 0.999995946884155273 0.00285713118501007557 0
206.991409301757812 400 0 -0 1 0
242 400 0 -0 1 0
242 400 100 -0 1 0
206.991409301757812 400 100 -0 1 0
213.008590698242188 394 0 0 -1 0
242 394 0 0 -1 0
242 394 100 0 -1 0
213.008590698242188 394 100 0 -1 0
373.00665283203125 400.073089599609375 0 0.00221465458162128925 0.999997556209564209 0
408.9365234375 399.993499755859375 0 0.00221465458162128925 0.999997556209564209 0
408.9365234375 399.993499755859375 100 0.00221465458162128925 0.999997556209564209 0
373.00665283203125 400.073089599609375 100 0.00221465458162128925 0.999997556209564209 0
372.99334716796875 394.073089599609375 0 -0.00221465458162128925 -0.999997556209564209 0
403.0634765625 394.006500244140625 0 -0.00221465458162128925 -0.999997556209564209 0
403.0634765625 394.006500244140625 100 -0.00221465458162128925 -0.999997556209564209 0
372.99334716796875 394.073089599609375 100 -0.00221465458162128925 -0.999997556209564209 0
408.9365234375 399.993499755859375 0 0.99977034330368042 0.0214298032224178314 0
409.94244384765625 353.064300537109375 0 0.99977034330368042 0.0214298032224178314 0
409.94244384765625 353.064300537109375 100 0.99977034330368042 0.0214298032224178314 0
408.9365234375 399.993499755859375 100 0.99977034330368042 0.0214298032224178314 0
403.0634765625 394.006500244140625 0 -0.99977034330368042 -0.0214298032224178314 0
403.943817138671875 352.935699462890625 0 -0.99977034330368042 -0.0214298032224178314 0
403.943817138671875 352.935699462890625 100 -0.99977034330368042 -0.0214298032224178314 0
403.0634765625 394.006500244140625 100 -0.99977034330368042 -0.0214298032224178314 0
358.4974365234375 41.9653129577636719 0 -0.999933123588562012 -0.0115628913044929504 0
357.965118408203125 88 0 -0.999933123588562012 -0.0115628913044929504 0
357.965118408203125 88 100 -0.999933123588562012 -0.0115628913044929504 0
358.4974365234375 41.9653129577636719 100 -0.999933123588562012 -0.0115628913044929504 0
364.497039794921875 42.0346870422363281 0 0.999933123588562012 0.0115628913044929504 0
364.034881591796875 82 0 0.999933123588562012 0.0115628913044929504 0
364.034881591796875 82 100 0.999933123588562012 0.0115628913044929504 0
364.497039794921875 42.0346870422363281 100 0.999933123588562012 0.0115628913044929504 0
357.965118408203125 88 0 -0 1 0
398 88 0 -0 1 0
398 88 100 -0 1 0
357.965118408203125 88 100 -0 1 0
364.034881591796875 82 0 0 -1 0
398 82 0 0 -1 0
398 82 100 0 -1 0
364.034881591796875 82 100 0 -1 0
617.498046875 326 0 614.998046875 325.68017578125 0
611.498046875 326 0 614.998046875 325.68017578125 0
611.498046875 326 100 614.998046875 325.68017578125 0
617.498046875 326 100 614.998046875 325.68017578125 0
617.498046875 79 0 614.998046875 77.6801605224609375 0
611.498046875 79 0 614.998046875 77.6801605224609375 0
611.498046875 79 100 614.998046875 77.6801605224609375 0
617.498046875 79 100 614.998046875 77.6801605224609375 0
213.5 157 0 212.047622680664062 156.931976318359375 0
207.5 157 0 212.047622680664062 156.931976318359375 0
207.5 157 100 212.047622680664062 156.931976318359375 0
213.5 157 100 212.047622680664062 156.931976318359375 0
213.5 10 0 212.047622680664062 8.93197250366210938 0
207.5 10 0 212.047622680664062 8.93197250366210938 0
207.5 10 100 212.047622680664062 8.93197250366210938 0
213.5 10 100 212.047622680664062 8.93197250366210938 0
476 536.56390380859375 0 457.959991455078125 515.10137939453125 0
476 542.56390380859375 0 457.959991455078125 515.10137939453125 0
476 542.56390380859375 100 457.959991455078125 515.10137939453125 0
476 536.56390380859375 100 457.959991455078125 515.10137939453125 0
451 536.56390380859375 0 431.959991455078125 515.10137939453125 0
451 542.56390380859375 0 431.959991455078125 515.10137939453125 0
451 542.56390380859375 100 431.959991455078125 515.10137939453125 0
451 536.56390380859375 100 431.959991455078125 515.10137939453125 0
331 8.5 0 328.362640380859375 8.40659332275390625 0
331 14.5 0 328.362640380859375 8.40659332275390625 0
331 14.5 100 328.362640380859375 8.40659332275390625 0
331 8.5 100 328.362640380859375 8.40659332275390625 0
240 8.5 0 236.362640380859375 8.40659332275390625 0
240 14.5 0 236.362640380859375 8.40659332275390625 0
240 14.5 100 236.362640380859375 8.40659332275390625 0
240 8.5 100 236.362640380859375 8.40659332275390625 0
342 394.073089599609375 0 338.378387451171875 388.747772216796875 0
342 400.073089599609375 0 338.378387451171875 388.747772216796875 0
342 400.073089599609375 100 338.378387451171875 388.747772216796875 0
342 394.073089599609375 100 338.378387451171875 388.747772216796875 0
268 394.073089599609375 0 263.378387451171875 388.747772216796875 0
268 400.073089599609375 0 263.378387451171875 388.747772216796875 0
268 400.073089599609375 100 263.378387451171875 388.747772216796875 0
268 394.073089599609375 100 263.378387451171875 388.747772216796875 0
409.943115234375 126 0 372.675567626953125 115.545455932617188 0
403.943115234375 126 0 372.675567626953125 115.545455932617188 0
403.943115234375 126 100 372.675567626953125 115.545455932617188 0
409.943115234375 126 100 372.675567626953125 115.545455932617188 0
409.943115234375 115 0 372.675567626953125 103.545455932617188 0
403.943115234375 115 0 372.675567626953125 103.545455932617188 0
403.943115234375 115 100 372.675567626953125 103.545455932617188 0
409.943115234375 115 100 372.675567626953125 103.545455932617188 0
399 126 0 362.727264404296875 115.545455932617188 0
393 126 0 362.727264404296875 115.545455932617188 0
393 126 100 362.727264404296875 115.545455932617188 0
399 126 100 362.727264404296875 115.545455932617188 0
399 115 0 362.727264404296875 103.545455932617188 0
393 115 0 362.727264404296875 103.545455932617188 0
393 115 100 362.727264404296875 103.545455932617188 0
399 115 100 362.727264404296875 103.545455932617188 0
512.5625 92 0 473.134613037109375 85.9230804443359375 0
506.5625 92 0 473.134613037109375 85.9230804443359375 0
506.5625 92 100 473.134613037109375 85.9230804443359375 0
512.5625 92 100 473.134613037109375 85.9230804443359375 0
512.5625 79 0 473.134613037109375 71.9230804443359375 0
506.5625 79 0 473.134613037109375 71.9230804443359375 0
506.5625 79 100 473.134613037109375 71.9230804443359375 0
512.5625 79 100 473.134613037109375 71.9230804443359375 0
455.475006103515625 408 0 433.78570556640625 389.571441650390625 0
449.475006103515625 408 0 433.78570556640625 389.571441650390625 0
449.475006103515625 408 100 433.78570556640625 389.571441650390625 0
455.475006103515625 408 100 433.78570556640625 389.571441650390625 0
455.475006103515625 387 0 433.78570556640625 367.571441650390625 0
449.475006103515625 387 0 433.78570556640625 367.571441650390625 0
449.475006103515625 387 100 433.78570556640625 367.571441650390625 0
455.475006103515625 387 100 433.78570556640625 367.571441650390625 0
541 57.7727279663085938 0 503.357147216796875 53.6461029052734375 0
541 63.7727279663085938 0 503.357147216796875 53.6461029052734375 0
541 63.7727279663085938 100 503.357147216796875 53.6461029052734375 0
541 57.7727279663085938 100 503.357147216796875 53.6461029052734375 0
527 57.7727279663085938 0 488.357147216796875 53.6461029052734375 0
527 63.7727279663085938 0 488.357147216796875 53.6461029052734375 0
527 63.7727279663085938 100 488.357147216796875 53.6461029052734375 0
527 57.7727279663085938 100 488.357147216796875 53.6461029052734375 0
597 57.7727279663085938 0 552.076904296875 53.3286705017089844 0
597 63.7727279663085938 0 552.076904296875 53.3286705017089844 0
597 63.7727279663085938 100 552.076904296875 53.3286705017089844 0
597 57.7727279663085938 100 552.076904296875 53.3286705017089844 0
584 57.7727279663085938 0 538.076904296875 53.3286705017089844 0
584 63.7727279663085938 0 538.076904296875 53.3286705017089844 0
584 63.7727279663085938 100 538.076904296875 53.3286705017089844 0
584 57.7727279663085938 100 538.076904296875 53.3286705017089844 0
383.23394775390625 272.76605224609375 0 369.2930908203125 263.047515869140625 0
378.991302490234375 277.008697509765625 0 369.2930908203125 263.047515869140625 0
378.991302490234375 277.008697509765625 100 369.2930908203125 263.047515869140625 0
383.23394775390625 272.76605224609375 100 369.2930908203125 263.047515869140625 0
364.73394775390625 254.266067504882812 0 350.085968017578125 243.840408325195312 0
360.491302490234375 258.508697509765625 0 350.085968017578125 243.840408325195312 0
360.491302490234375 258.508697509765625 100 350.085968017578125 243.840408325195312 0
364.73394775390625 254.266067504882812 100 350.085968017578125 243.840408325195312 0
611.498046875 343.992340087890625 0 608.316162109375 341.20098876953125 0
617.49798583984375 344.007659912109375 0 608.316162109375 341.20098876953125 0
617.49798583984375 344.007659912109375 100 608.316162109375 341.20098876953125 0
611.498046875 343.992340087890625 100 608.316162109375 341.20098876953125 0
528.9801025390625 536.56396484375 0 521.53143310546875 530.02947998046875 0
529.0198974609375 542.5638427734375 0 521.53143310546875 530.02947998046875 0
529.0198974609375 542.5638427734375 100 521.53143310546875 530.02947998046875 0
528.9801025390625 536.56396484375 100 521.53143310546875 530.02947998046875 0
207.500015258789062 221.991424560546875 0 206.337203979492188 219.744354248046875 0
213.499984741210938 222.008575439453125 0 206.337203979492188 219.744354248046875 0
213.499984741210938 222.008575439453125 100 206.337203979492188 219.744354248046875 0
207.500015258789062 221.991424560546875 100 206.337203979492188 219.744354248046875 0
242 400 0 236.08740234375 388.57421875 0
242 394 0 236.08740234375 388.57421875 0
242 394 100 236.08740234375 388.57421875 0
242 400 100 236.08740234375 388.57421875 0
373.00665283203125 400.073089599609375 0 361.625152587890625 388.94049072265625 0
372.99334716796875 394.073089599609375 0 361.625152587890625 388.94049072265625 0
372.99334716796875 394.073089599609375 100 361.625152587890625 388.94049072265625 0
373.00665283203125 400.073089599609375 100 361.625152587890625 388.94049072265625 0
409.94244384765625 353.064300537109375 0 401.23052978515625 344.54290771484375 0
403.943817138671875 352.935699462890625 0 401.23052978515625 344.54290771484375 0
403.943817138671875 352.935699462890625 100 401.23052978515625 344.54290771484375 0
409.94244384765625 353.064300537109375 100 401.23052978515625 344.54290771484375 0
358.4974365234375 41.9653129577636719 0 350.72198486328125 40.0538368225097656 0
364.497039794921875 42.0346870422363281 0 350.72198486328125 40.0538368225097656 0
364.497039794921875 42.0346870422363281 100 350.72198486328125 40.0538368225097656 0
358.4974365234375 41.9653129577636719 100 350.72198486328125 40.0538368225097656 0
398 88 0 389.058685302734375 85.8019180297851562 0
398 82 0 389.058685302734375 85.8019180297851562 0
398 82 100 389.058685302734375 85.8019180297851562 0
398 88 100 389.058685302734375 85.8019180297851562 0
617.498046875 326 0 0 0 -1
611.498046875 326 0 0 0 -1
611.498046875 79 0 0 0 -1
617.498046875 79 0 0 0 -1
617.498046875 326 100 0 0 1
611.498046875 326 100 0 0 1
611.498046875 79 100 0 0 1
617.498046875 79 100 0 0 1
213.5 157 0 0 0 -1
207.5 157 0 0 0 -1
207.5 10 0 0 0 -1
213.5 10 0 0 0 -1
213.5 157 100 0 0 1
207.5 157 100 0 0 1
207.5 10 100 0 0 1
213.5 10 100 0 0 1
476 536.56390380859375 0 0 0 -1
476 542.56390380859375 0 0 0 -1
451 542.56390380859375 0 0 0 -1
451 536.56390380859375 0 0 0 -1
476 536.56390380859375 100 0 0 1
476 542.56390380859375 100 0 0 1
451 542.56390380859375 100 0 0 1
451 536.56390380859375 100 0 0 1
331 8.5 0 0 0 -1
331 14.5 0 0 0 -1
240 14.5 0 0 0 -1
240 8.5 0 0 0 -1
331 8.5 100 0 0 1
331 14.5 100 0 0 1
240 14.5 100 0 0 1
240 8.5 100 0 0 1
342 394.073089599609375 0 0 0 -1
342 400.073089599609375 0 0 0 -1
268 400.073089599609375 0 0 0 -1
268 394.073089599609375 0 0 0 -1
342 394.073089599609375 100 0 0 1
342 400.073089599609375 100 0 0 1
268 400.073089599609375 100 0 0 1
268 394.073089599609375 100 0 0 1
409.943115234375 126 0 0 0 -1
403.943115234375 126 0 0 0 -1
403.943115234375 115 0 0 0 -1
409.943115234375 115 0 0 0 -1
409.943115234375 126 100 0 0 1
403.943115234375 126 100 0 0 1
403.943115234375 115 100 0 0 1
409.943115234375 115 100 0 0 1
399 126 0 0 0 -1
393 126 0 0 0 -1
393 115 0 0 0 -1
399 115 0 0 0 -1
399 126 100 0 0 1
393 126 100 0 0 1
393 115 100 0 0 1
399 115 100 0 0 1
512.5625 92 0 0 0 -1
506.5625 92 0 0 0 -1
506.5625 79 0 0 0 -1
512.5625 79 0 0 0 -1
512.5625 92 100 0 0 1
506.5625 92 100 0 0 1
506.5625 79 100 0 0 1
512.5625 79 100 0 0 1
455.475006103515625 408 0 0 0 -1
449.475006103515625 408 0 0 0 -1
449.475006103515625 387 0 0 0 -1
455.475006103515625 387 0 0 0 -1
455.475006103515625 408 100 0 0 1
449.475006103515625 408 100 0 0 1
449.475006103515625 387 100 0 0 1
455.475006103515625 387 100 0 0 1
541 57.7727279663085938 0 0 0 -1
541 63.7727279663085938 0 0 0 -1
527 63.7727279663085938 0 0 0 -1
527 57.7727279663085938 0 0 0 -1
541 57.7727279663085938 100 0 0 1
541 63.7727279663085938 100 0 0 1
527 63.7727279663085938 100 0 0 1
527 57.7727279663085938 100 0 0 1
597 57.7727279663085938 0 0 0 -1
597 63.7727279663085938 0 0 0 -1
584 63.7727279663085938 0 0 0 -1
584 57.7727279663085938 0 0 0 -1
597 57.7727279663085938 100 0 0 1
597 63.7727279663085938 100 0 0 1
584 63.7727279663085938 100 0 0 1
584 57.7727279663085938 100 0 0 1
383.23394775390625 272.76605224609375 0 0 0 -1
378.991302490234375 277.008697509765625 0 0 0 -1
360.491302490234375 258.508697509765625 0 0 0 -1
364.73394775390625 254.266067504882812 0 0 0 -1
383.23394775390625 272.76605224609375 100 0 0 1
378.991302490234375 277.008697509765625 100 0 0 1
360.491302490234375 258.508697509765625 100 0 0 1
364.73394775390625 254.266067504882812 100 0 0 1
611.498046875 343.992340087890625 0 0 0 -1
617.49798583984375 344.007659912109375 0 0 0 -1
616.99237060546875 541.980224609375 0 0 0 -1
611.00762939453125 536.019775390625 0 0 0 -1
611.498046875 343.992340087890625 100 0 0 1
617.49798583984375 344.007659912109375 100 0 0 1
616.99237060546875 541.980224609375 100 0 0 1
611.00762939453125 536.019775390625 100 0 0 1
611.00762939453125 536.019775390625 0 0 0 -1
616.99237060546875 541.980224609375 0 0 0 -1
529.0198974609375 542.5638427734375 0 0 0 -1
528.9801025390625 536.56396484375 0 0 0 -1
611.00762939453125 536.019775390625 100 0 0 1
616.99237060546875 541.980224609375 100 0 0 1
529.0198974609375 542.5638427734375 100 0 0 1
528.9801025390625 536.56396484375 100 0 0 1
207.500015258789062 221.991424560546875 0 0 0 -1
213.499984741210938 222.008575439453125 0 0 0 -1
213.008590698242188 394 0 0 0 -1
206.991409301757812 400 0 0 0 -1
207.500015258789062 221.991424560546875 100 0 0 1
213.499984741210938 222.008575439453125 100 0 0 1
213.008590698242188 394 100 0 0 1
206.991409301757812 400 100 0 0 1
206.991409301757812 400 0 0 0 -1
213.008590698242188 394 0 0 0 -1
242 394 0 0 0 -1
242 400 0 0 0 -1
206.991409301757812 400 100 0 0 1
213.008590698242188 394 100 0 0 1
242 394 100 0 0 1
242 400 100 0 0 1
373.00665283203125 400.073089599609375 0 0 0 -1
372.99334716796875 394.073089599609375 0 0 0 -1
403.0634765625 394.006500244140625 0 0 0 -1
408.9365234375 399.993499755859375 0 0 0 -1
373.00665283203125 400.073089599609375 100 0 0 1
372.99334716796875 394.073089599609375 100 0 0 1
403.0634765625 394.006500244140625 100 0 0 1
408.9365234375 399.993499755859375 100 0 0 1
408.9365234375 399.993499755859375 0 0 0 -1
403.0634765625 394.006500244140625 0 0 0 -1
403.943817138671875 352.935699462890625 0 0 0 -1
409.94244384765625 353.064300537109375 0 0 0 -1
408.9365234375 399.993499755859375 100 0 0 1
403.0634765625 394.006500244140625 100 0 0 1
403.943817138671875 352.935699462890625 100 0 0 1
409.94244384765625 353.064300537109375 100 0 0 1
358.4974365234375 41.9653129577636719 0 0 0 -1
364.497039794921875 42.0346870422363281 0 0 0 -1
364.034881591796875 82 0 0 0 -1
357.965118408203125 88 0 0 0 -1
358.4974365234375 41.9653129577636719 100 0 0 1
364.497039794921875 42.0346870422363281 100 0 0 1
364.034881591796875 82 100 0 0 1
357.965118408203125 88 100 0 0 1
357.965118408203125 88 0 0 0 -1
364.034881591796875 82 0 0 0 -1
398 82 0 0 0 -1
398 88 0 0 0 -1
357.965118408203125 88 100 0 0 1
364.034881591796875 82 100 0 0 1
398 82 100 0 0 1
398 88 100 0 0 1
4 0 1 2 3
4 4 5 6 7
4 8 9 10 11
4 12 13 14 15
4 16 17 18 19
4 20 21 22 23
4 24 25 26 27
4 28 29 30 31
4 32 33 34 35
4 36 37 38 39
4 40 41 42 43
4 44 45 46 47
4 48 49 50 51
4 52 53 54 55
4 56 57 58 59
4 60 61 62 63
4 64 65 66 67
4 68 69 70 71
4 72 73 74 75
4 76 77 78 79
4 80 81 82 83
4 84 85 86 87
4 88 89 90 91
4 92 93 94 95
4 96 97 98 99
4 100 101 102 103
4 104 105 106 107
4 108 109 110 111
4 112 113 114 115
4 116 117 118 119
4 120 121 122 123
4 124 125 126 127
4 128 129 130 131
4 132 133 134 135
4 136 137 138 139
4 140 141 142 143
4 144 145 146 147
4 148 149 150 151
4 152 153 154 155
4 156 157 158 159
4 160 161 162 163
4 164 165 166 167
4 168 169 170 171
4 172 173 174 175
4 176 177 178 179
4 180 181 182 183
4 184 185 186 187
4 188 189 190 191
4 192 193 194 195
4 196 197 198 199
4 200 201 202 203
4 204 205 206 207
4 208 209 210 211
4 212 213 214 215
4 216 217 218 219
4 220 221 222 223
4 224 225 226 227
4 228 229 230 231
4 232 233 234 235
4 236 237 238 239
4 240 241 242 243
4 244 245 246 247
4 248 249 250 251
4 252 253 254 255
4 256 257 258 259
4 260 261 262 263
4 264 265 266 267
4 268 269 270 271
4 272 273 274 275
4 276 277 278 279
4 280 281 282 283
4 284 285 286 287
4 288 289 290 291
4 292 293 294 295
4 296 297 298 299
4 300 301 302 303
4 304 305 306 307
4 308 309 310 311
4 312 313 314 315
4 316 317 318 319
4 320 321 322 323
4 324 325 326 327
4 328 329 330 331
4 332 333 334 335
4 336 337 338 339
4 340 341 342 343
4 344 345 346 347
4 348 349 350 351
4 352 353 354 355
4 356 357 358 359
4 360 361 362 363
4 364 365 366 367
4 368 369 370 371
4 372 373 374 375
4 376 377 378 379
4 380 381 382 383
4 384 385 386 387
4 388 389 390 391
4 392 393 394 395
4 396 397 398 399
4 400 401 402 403
4 404 405 406 407
4 408 409 410 411
4 412 413 414 415
4 416 417 418 419
4 420 421 422 423
4 424 425 426 427
4 428 429 430 431
4 432 433 434 435
4 436 437 438 439
4 440 441 442 443
4 444 445 446 447
