ply
format ascii 1.0
element vertex 184
property float x
property float y
property float z
property float nx
property float ny
property float nz
element quads 46
property list uchar int vertex_indices
end_header
210.25 11.25 0 -0 1 0
359.75 11.25 0 -0 1 0
359.75 11.25 100 -0 1 0
210.25 11.25 100 -0 1 0
209.75 10.75 0 0 -1 0
360.25 10.75 0 0 -1 0
360.25 10.75 100 0 -1 0
209.75 10.75 100 0 -1 0
209.75 10.75 0 -1 0 0
209.75 395.25 0 -1 0 0
209.75 395.25 100 -1 0 0
209.75 10.75 100 -1 0 0
210.25 11.25 0 1 -0 0
210.25 394.75 0 1 -0 0
210.25 394.75 100 1 -0 0
210.25 11.25 100 1 -0 0
359.75 11.25 0 -1 0 0
359.75 128 0 -1 0 0
359.75 128 100 -1 0 0
359.75 11.25 100 -1 0 0
360.25 10.75 0 1 -0 0
360.25 128 0 1 -0 0
360.25 128 100 1 -0 0
360.25 10.75 100 1 -0 0
615.75 79 0 -1 0 0
615.75 538.75 0 -1 0 0
615.75 538.75 100 -1 0 0
615.75 79 100 -1 0 0
616.25 79 0 1 -0 0
616.25 539.25 0 1 -0 0
616.25 539.25 100 1 -0 0
616.25 79 100 1 -0 0
615.75 538.75 0 -0 -1 0
451 538.75 0 -0 -1 0
451 538.75 100 -0 -1 0
615.75 538.75 100 -0 -1 0
616.25 539.25 0 0 1 0
451 539.25 0 0 1 0
451 539.25 100 0 1 0
616.25 539.25 100 0 1 0
209.75 395.25 0 -0 1 0
454 395.25 0 -0 1 0
454 395.25 100 -0 1 0
209.75 395.25 100 -0 1 0
210.25 394.75 0 0 -1 0
454 394.75 0 0 -1 0
454 394.75 100 0 -1 0
210.25 394.75 100 0 -1 0
406.75 353 0 -1 0 0
406.75 404 0 -1 0 0
406.75 404 100 -1 0 0
406.75 353 100 -1 0 0
407.25 353 0 1 -0 0
407.25 404 0 1 -0 0
407.25 404 100 1 -0 0
407.25 353 100 1 -0 0
450.75 354 0 -1 0 0
450.75 408 0 -1 0 0
450.75 408 100 -1 0 0
450.75 354 100 -1 0 0
451.25 354 0 1 -0 0
451.25 408 0 1 -0 0
451.25 408 100 1 -0 0
451.25 354 100 1 -0 0
364 85.25 0 -0 1 0
398 85.25 0 -0 1 0
398 85.25 100 -0 1 0
364 85.25 100 -0 1 0
364 84.75 0 0 -1 0
398 84.75 0 0 -1 0
398 84.75 100 0 -1 0
364 84.75 100 0 -1 0
615.75 79 0 614.41070556640625 77.8281707763671875 0
616.25 79 0 614.41070556640625 77.8281707763671875 0
616.25 79 100 614.41070556640625 77.8281707763671875 0
615.75 79 100 614.41070556640625 77.8281707763671875 0
451 538.75 0 447.26251220703125 535.47991943359375 0
451 539.25 0 447.26251220703125 535.47991943359375 0
451 539.25 100 447.26251220703125 535.47991943359375 0
451 538.75 100 447.26251220703125 535.47991943359375 0
359.75 128 0 356.66864013671875 127.903640747070312 0
360.25 128 0 356.66864013671875 127.903640747070312 0
360.25 128 100 356.66864013671875 127.903640747070312 0
359.75 128 100 356.66864013671875 127.903640747070312 0
406.75 353 0 398.774505615234375 345.07843017578125 0
407.25 353 0 398.774505615234375 345.07843017578125 0
407.25 353 100 398.774505615234375 345.07843017578125 0
406.75 353 100 398.774505615234375 345.07843017578125 0
406.75 404 0 398.774505615234375 397.07843017578125 0
407.25 404 0 398.774505615234375 397.07843017578125 0
407.25 404 100 398.774505615234375 397.07843017578125 0
406.75 404 100 398.774505615234375 397.07843017578125 0
454 395.25 0 453.1412353515625 393.63177490234375 0
454 394.75 0 453.1412353515625 393.63177490234375 0
454 394.75 100 453.1412353515625 393.63177490234375 0
454 395.25 100 453.1412353515625 393.63177490234375 0
450.75 354 0 442.40277099609375 346.4444580078125 0
451.25 354 0 442.40277099609375 346.4444580078125 0
451.25 354 100 442.40277099609375 346.4444580078125 0
450.75 354 100 442.40277099609375 346.4444580078125 0
450.75 408 0 442.40277099609375 401.4444580078125 0
451.25 408 0 442.40277099609375 401.4444580078125 0
451.25 408 100 442.40277099609375 401.4444580078125 0
450.75 408 100 442.40277099609375 401.4444580078125 0
364 85.25 0 352.29412841796875 82.742645263671875 0
364 84.75 0 352.29412841796875 82.742645263671875 0
364 84.75 100 352.29412841796875 82.742645263671875 0
364 85.25 100 352.29412841796875 82.742645263671875 0
398 85.25 0 387.29412841796875 82.742645263671875 0
398 84.75 0 387.29412841796875 82.742645263671875 0
398 84.75 100 387.29412841796875 82.742645263671875 0
398 85.25 100 387.29412841796875 82.742645263671875 0
210.25 11.25 0 0 0 -1
209.75 10.75 0 0 0 -1
360.25 10.75 0 0 0 -1
359.75 11.25 0 0 0 -1
210.25 11.25 100 0 0 1
209.75 10.75 100 0 0 1
360.25 10.75 100 0 0 1
359.75 11.25 100 0 0 1
209.75 10.75 0 0 0 -1
210.25 11.25 0 0 0 -1
210.25 394.75 0 0 0 -1
209.75 395.25 0 0 0 -1
209.75 10.75 100 0 0 1
210.25 11.25 100 0 0 1
210.25 394.75 100 0 0 1
209.75 395.25 100 0 0 1
359.75 11.25 0 0 0 -1
360.25 10.75 0 0 0 -1
360.25 128 0 0 0 -1
359.75 128 0 0 0 -1
359.75 11.25 100 0 0 1
360.25 10.75 100 0 0 1
360.25 128 100 0 0 1
359.75 128 100 0 0 1
615.75 79 0 0 0 -1
616.25 79 0 0 0 -1
616.25 539.25 0 0 0 -1
615.75 538.75 0 0 0 -1
615.75 79 100 0 0 1
616.25 79 100 0 0 1
616.25 539.25 100 0 0 1
615.75 538.75 100 0 0 1
615.75 538.75 0 0 0 -1
616.25 539.25 0 0 0 -1
451 539.25 0 0 0 -1
451 538.75 0 0 0 -1
615.75 538.75 100 0 0 1
616.25 539.25 100 0 0 1
451 539.25 100 0 0 1
451 538.75 100 0 0 1
209.75 395.25 0 0 0 -1
210.25 394.75 0 0 0 -1
454 394.75 0 0 0 -1
454 395.25 0 0 0 -1
209.75 395.25 100 0 0 1
210.25 394.75 100 0 0 1
454 394.75 100 0 0 1
454 395.25 100 0 0 1
406.75 353 0 0 0 -1
407.25 353 0 0 0 -1
407.25 404 0 0 0 -1
406.75 404 0 0 0 -1
406.75 353 100 0 0 1
407.25 353 100 0 0 1
407.25 404 100 0 0 1
406.75 404 100 0 0 1
450.75 354 0 0 0 -1
451.25 354 0 0 0 -1
451.25 408 0 0 0 -1
450.75 408 0 0 0 -1
450.75 354 100 0 0 1
451.25 354 100 0 0 1
451.25 408 100 0 0 1
450.75 408 100 0 0 1
364 85.25 0 0 0 -1
364 84.75 0 0 0 -1
398 84.75 0 0 0 -1
398 85.25 0 0 0 -1
364 85.25 100 0 0 1
364 84.75 100 0 0 1
398 84.75 100 0 0 1
398 85.25 100 0 0 1
4 0 1 2 3
4 4 5 6 7
4 8 9 10 11
4 12 13 14 15
4 16 17 18 19
4 20 21 22 23
4 24 25 26 27
4 28 29 30 31
4 32 33 34 35
4 36 37 38 39
4 40 41 42 43
4 44 45 46 47
4 48 49 50 51
4 52 53 54 55
4 56 57 58 59
4 60 61 62 63
4 64 65 66 67
4 68 69 70 71
4 72 73 74 75
4 76 77 78 79
4 80 81 82 83
4 84 85 86 87
4 88 89 90 91
4 92 93 94 95
4 96 97 98 99
4 100 101 102 103
4 104 105 106 107
4 108 109 110 111
4 112 113 114 115
4 116 117 118 119
4 120 121 122 123
4 124 125 126 127
4 128 129 130 131
4 132 133 134 135
4 136 137 138 139
4 140 141 142 143
4 144 145 146 147
4 148 149 150 151
4 152 153 154 155
4 156 157 158 159
4 160 161 162 163
4 164 165 166 167
4 168 169 170 171
4 172 173 174 175
4 176 177 178 179
4 180 181 182 183
