ply
format ascii 1.0
element vertex 618
property float x
property float y
property float z
property float nx
property float ny
property float nz
element quads 153
property list uchar int vertex_indices
element triads 2
property list uchar int vertex_indices
end_header
226 235 0 1 0 0
226 43 0 1 0 0
226 43 150 1 0 0
226 235 150 1 0 0
216 235 0 -1 -0 0
216 33 0 -1 -0 0
216 33 150 -1 -0 0
216 235 150 -1 -0 0
226 43 0 -0 1 0
266 43 0 -0 1 0
266 43 150 -0 1 0
226 43 150 -0 1 0
216 33 0 0 -1 0
266 33 0 0 -1 0
266 33 150 0 -1 0
216 33 150 0 -1 0
398 286 0 1 0 0
398 33 0 1 0 0
398 33 150 1 0 0
398 286 150 1 0 0
388 286 0 -1 -0 0
388 43 0 -1 -0 0
388 43 150 -1 -0 0
388 286 150 -1 -0 0
398 33 0 -0 -1 0
347 33 0 -0 -1 0
347 33 150 -0 -1 0
398 33 150 -0 -1 0
388 43 0 0 1 0
347 43 0 0 1 0
347 43 150 0 1 0
388 43 150 0 1 0
533 32.9923362731933594 0 -0 -1 0
444 32.9923362731933594 0 -0 -1 0
444 32.9923362731933594 150 -0 -1 0
533 32.9923362731933594 150 -0 -1 0
533 42.9923362731933594 0 0 1 0
444 42.9923362731933594 0 0 1 0
444 42.9923362731933594 150 0 1 0
533 42.9923362731933594 150 0 1 0
348.990386962890625 301 0 1 0 0
348.990386962890625 263 0 1 0 0
348.990386962890625 263 150 1 0 0
348.990386962890625 301 150 1 0 0
338.990386962890625 301 0 -1 -0 0
338.990386962890625 263 0 -1 -0 0
338.990386962890625 263 150 -1 -0 0
338.990386962890625 301 150 -1 -0 0
290 492 0 -0 -1 0
225 492 0 -0 -1 0
225 492 150 -0 -1 0
290 492 150 -0 -1 0
290 502 0 0 1 0
225 502 0 0 1 0
225 502 150 0 1 0
290 502 150 0 1 0
518 454 0 -0 -1 0
488 454 0 -0 -1 0
488 454 150 -0 -1 0
518 454 150 -0 -1 0
518 464 0 0 1 0
478 464 0 0 1 0
478 464 150 0 1 0
518 464 150 0 1 0
488 454 0 1 0 0
488 430 0 1 0 0
488 430 150 1 0 0
488 454 150 1 0 0
478 464 0 -1 -0 0
478 430 0 -1 -0 0
478 430 150 -1 -0 0
478 464 150 -1 -0 0
483 424.985443115234375 0 -0 -1 0
455 424.985443115234375 0 -0 -1 0
455 424.985443115234375 150 -0 -1 0
483 424.985443115234375 150 -0 -1 0
483 434.985443115234375 0 0 1 0
455 434.985443115234375 0 0 1 0
455 434.985443115234375 150 0 1 0
483 434.985443115234375 150 0 1 0
423 424.957000732421875 0 -0 -1 0
401 424.957000732421875 0 -0 -1 0
401 424.957000732421875 150 -0 -1 0
423 424.957000732421875 150 -0 -1 0
423 434.957000732421875 0 0 1 0
401 434.957000732421875 0 0 1 0
401 434.957000732421875 150 0 1 0
423 434.957000732421875 150 0 1 0
251 328.5 0 -0 -1 0
230 328.5 0 -0 -1 0
230 328.5 150 -0 -1 0
251 328.5 150 -0 -1 0
251 338.5 0 0 1 0
230 338.5 0 0 1 0
230 338.5 150 0 1 0
251 338.5 150 0 1 0
507 7 0 -0 -1 0
469 7 0 -0 -1 0
469 7 150 -0 -1 0
507 7 150 -0 -1 0
497 17 0 0 1 0
479 17 0 0 1 0
479 17 150 0 1 0
497 17 150 0 1 0
497 17 0 -1 0 0
497 36 0 -1 0 0
497 36 150 -1 0 0
497 17 150 -1 0 0
507 7 0 1 -0 0
507 36 0 1 -0 0
507 36 150 1 -0 0
507 7 150 1 -0 0
469 7 0 -1 0 0
469 36 0 -1 0 0
469 36 150 -1 0 0
469 7 150 -1 0 0
479 17 0 1 -0 0
479 36 0 1 -0 0
479 36 150 1 -0 0
479 17 150 1 -0 0
248 193 0 -0 -1 0
225 193 0 -0 -1 0
225 193 150 -0 -1 0
248 193 150 -0 -1 0
248 203 0 0 1 0
225 203 0 0 1 0
225 203 150 0 1 0
248 203 150 0 1 0
344 192.986480712890625 0 -0 -1 0
317 192.986480712890625 0 -0 -1 0
317 192.986480712890625 150 -0 -1 0
344 192.986480712890625 150 -0 -1 0
344 202.986480712890625 0 0 1 0
317 202.986480712890625 0 0 1 0
317 202.986480712890625 150 0 1 0
344 202.986480712890625 150 0 1 0
448 110 0 1 0 0
448 100 0 1 0 0
448 100 150 1 0 0
448 110 150 1 0 0
438 110 0 -1 -0 0
438 100 0 -1 -0 0
438 100 150 -1 -0 0
438 110 150 -1 -0 0
578.99896240234375 36.9881362915039062 0 -0.999997198581695557 -0.00237281853333115578 0
578.011474609375 453.15478515625 0 -0.999997198581695557 -0.00237281853333115578 0
578.011474609375 453.15478515625 150 -0.999997198581695557 -0.00237281853333115578 0
578.99896240234375 36.9881362915039062 150 -0.999997198581695557 -0.00237281853333115578 0
588.99896240234375 37.0118637084960938 0 0.999997198581695557 0.00237281853333115578 0
587.988525390625 462.84521484375 0 0.999997198581695557 0.00237281853333115578 0
587.988525390625 462.84521484375 150 0.999997198581695557 0.00237281853333115578 0
588.99896240234375 37.0118637084960938 150 0.999997198581695557 0.00237281853333115578 0
578.011474609375 453.15478515625 0 -0.031512036919593811 -0.999503374099731445 0
551.84246826171875 453.979827880859375 0 -0.031512036919593811 -0.999503374099731445 0
551.84246826171875 453.979827880859375 150 -0.031512036919593811 -0.999503374099731445 0
578.011474609375 453.15478515625 150 -0.031512036919593811 -0.999503374099731445 0
587.988525390625 462.84521484375 0 0.031512036919593811 0.999503374099731445 0
552.15753173828125 463.974884033203125 0 0.031512036919593811 0.999503374099731445 0
552.15753173828125 463.974884033203125 150 0.031512036919593811 0.999503374099731445 0
587.988525390625 462.84521484375 150 0.031512036919593811 0.999503374099731445 0
390.197509765625 327.994110107421875 0 -0.999999284744262695 -0.0011756952153518796 0
390.00579833984375 491.076568603515625 0 -0.999999284744262695 -0.0011756952153518796 0
390.00579833984375 491.076568603515625 150 -0.999999284744262695 -0.0011756952153518796 0
390.197509765625 327.994110107421875 150 -0.999999284744262695 -0.0011756952153518796 0
400.197509765625 328.005889892578125 0 0.999999284744262695 0.0011756952153518796 0
399.99420166015625 500.923431396484375 0 0.999999284744262695 0.0011756952153518796 0
399.99420166015625 500.923431396484375 150 0.999999284744262695 0.0011756952153518796 0
400.197509765625 328.005889892578125 150 0.999999284744262695 0.0011756952153518796 0
390.00579833984375 491.076568603515625 0 -0.0154475951567292213 -0.999880671501159668 0
330.922760009765625 491.989349365234375 0 -0.0154475951567292213 -0.999880671501159668 0
330.922760009765625 491.989349365234375 150 -0.0154475951567292213 -0.999880671501159668 0
390.00579833984375 491.076568603515625 150 -0.0154475951567292213 -0.999880671501159668 0
399.99420166015625 500.923431396484375 0 0.0154475951567292213 0.999880671501159668 0
331.077239990234375 501.9881591796875 0 0.0154475951567292213 0.999880671501159668 0
331.077239990234375 501.9881591796875 150 0.0154475951567292213 0.999880671501159668 0
399.99420166015625 500.923431396484375 150 0.0154475951567292213 0.999880671501159668 0
229.810699462890625 496.97943115234375 0 0.999991536140441895 -0.00411541340872645378 0
229.020767211914062 305.0347900390625 0 0.999991536140441895 -0.00411541340872645378 0
229.020767211914062 305.0347900390625 150 0.999991536140441895 -0.00411541340872645378 0
229.810699462890625 496.97943115234375 150 0.999991536140441895 -0.00411541340872645378 0
219.810791015625 497.02056884765625 0 -0.999991536140441895 0.00411541340872645378 0
218.999160766601562 299.80792236328125 0 -0.999991536140441895 0.00411541340872645378 0
218.999160766601562 299.80792236328125 150 -0.999991536140441895 0.00411541340872645378 0
219.810791015625 497.02056884765625 150 -0.999991536140441895 0.00411541340872645378 0
229.418746948242188 295.03729248046875 0 0.996729612350463867 0.0808091834187507629 0
229.794387817382812 290.404052734375 0 0.996729612350463867 0.0808091834187507629 0
229.794387817382812 290.404052734375 150 0.996729612350463867 0.0808091834187507629 0
229.418746948242188 295.03729248046875 150 0.996729612350463867 0.0808091834187507629 0
218.999160766601562 299.80792236328125 0 -0.996729612350463867 -0.0808091834187507629 0
219.827102661132812 289.595947265625 0 -0.996729612350463867 -0.0808091834187507629 0
219.827102661132812 289.595947265625 150 -0.996729612350463867 -0.0808091834187507629 0
218.999160766601562 299.80792236328125 150 -0.996729612350463867 -0.0808091834187507629 0
229.020767211914062 305.0347900390625 0 -0.00690349331125617027 0.999976158142089844 0
343.965484619140625 305.82830810546875 0 -0.00690349331125617027 0.999976158142089844 0
343.965484619140625 305.82830810546875 150 -0.00690349331125617027 0.999976158142089844 0
229.020767211914062 305.0347900390625 150 -0.00690349331125617027 0.999976158142089844 0
229.418746948242188 295.03729248046875 0 0.00690349331125617027 -0.999976158142089844 0
344.034515380859375 295.82855224609375 0 0.00690349331125617027 -0.999976158142089844 0
344.034515380859375 295.82855224609375 150 0.00690349331125617027 -0.999976158142089844 0
229.418746948242188 295.03729248046875 150 0.00690349331125617027 -0.999976158142089844 0
230.000259399414062 234.005859375 0 5.14482671860605478e-05 1 0
349 233.999740600585938 0 5.14482671860605478e-05 1 0
349 233.999740600585938 150 5.14482671860605478e-05 1 0
230.000259399414062 234.005859375 150 5.14482671860605478e-05 1 0
229.999740600585938 224.005859375 0 -5.14482671860605478e-05 -1 0
339 224.000259399414062 0 -5.14482671860605478e-05 -1 0
339 224.000259399414062 150 -5.14482671860605478e-05 -1 0
229.999740600585938 224.005859375 150 -5.14482671860605478e-05 -1 0
349 233.999740600585938 0 1 0 0
349 198 0 1 0 0
349 198 150 1 0 0
349 233.999740600585938 150 1 0 0
339 224.000259399414062 0 -1 -0 0
339 198 0 -1 -0 0
339 198 150 -1 -0 0
339 224.000259399414062 150 -1 -0 0
320.10784912109375 338.516693115234375 0 0.0215723589062690735 0.999767303466796875 0
349 337.893280029296875 0 0.0215723589062690735 0.999767303466796875 0
349 337.893280029296875 150 0.0215723589062690735 0.999767303466796875 0
320.10784912109375 338.516693115234375 150 0.0215723589062690735 0.999767303466796875 0
319.89215087890625 328.519012451171875 0 -0.0215723589062690735 -0.999767303466796875 0
339 328.106719970703125 0 -0.0215723589062690735 -0.999767303466796875 0
339 328.106719970703125 150 -0.0215723589062690735 -0.999767303466796875 0
319.89215087890625 328.519012451171875 150 -0.0215723589062690735 -0.999767303466796875 0
349 337.893280029296875 0 1 0 0
349 301 0 1 0 0
349 301 150 1 0 0
349 337.893280029296875 150 1 0 0
339 328.106719970703125 0 -1 -0 0
339 301 0 -1 -0 0
339 301 150 -1 -0 0
339 328.106719970703125 150 -1 -0 0
226 235 0 224.822921752929688 234.776046752929688 0
216 235 0 224.822921752929688 234.776046752929688 0
216 235 150 224.822921752929688 234.776046752929688 0
226 235 150 224.822921752929688 234.776046752929688 0
398 286 0 396.4268798828125 285.86956787109375 0
388 286 0 396.4268798828125 285.86956787109375 0
388 286 150 396.4268798828125 285.86956787109375 0
398 286 150 396.4268798828125 285.86956787109375 0
533 32.9923362731933594 0 528.01123046875 32.6216354370117188 0
533 42.9923362731933594 0 528.01123046875 32.6216354370117188 0
533 42.9923362731933594 150 528.01123046875 32.6216354370117188 0
533 32.9923362731933594 150 528.01123046875 32.6216354370117188 0
444 32.9923362731933594 0 438.01123046875 32.6216354370117188 0
444 42.9923362731933594 0 438.01123046875 32.6216354370117188 0
444 42.9923362731933594 150 438.01123046875 32.6216354370117188 0
444 32.9923362731933594 150 438.01123046875 32.6216354370117188 0
266 43 0 260.350006103515625 41.9249992370605469 0
266 33 0 260.350006103515625 41.9249992370605469 0
266 33 150 260.350006103515625 41.9249992370605469 0
266 43 150 260.350006103515625 41.9249992370605469 0
348.990386962890625 301 0 339.806427001953125 294.078948974609375 0
338.990386962890625 301 0 339.806427001953125 294.078948974609375 0
338.990386962890625 301 150 339.806427001953125 294.078948974609375 0
348.990386962890625 301 150 339.806427001953125 294.078948974609375 0
348.990386962890625 263 0 339.806427001953125 255.078948974609375 0
338.990386962890625 263 0 339.806427001953125 255.078948974609375 0
338.990386962890625 263 150 339.806427001953125 255.078948974609375 0
348.990386962890625 263 150 339.806427001953125 255.078948974609375 0
290 492 0 286.5384521484375 484.430755615234375 0
290 502 0 286.5384521484375 484.430755615234375 0
290 502 150 286.5384521484375 484.430755615234375 0
290 492 150 286.5384521484375 484.430755615234375 0
225 492 0 220.538467407226562 484.430755615234375 0
225 502 0 220.538467407226562 484.430755615234375 0
225 502 150 220.538467407226562 484.430755615234375 0
225 492 150 220.538467407226562 484.430755615234375 0
518 454 0 501.73333740234375 438.866668701171875 0
518 464 0 501.73333740234375 438.866668701171875 0
518 464 150 501.73333740234375 438.866668701171875 0
518 454 150 501.73333740234375 438.866668701171875 0
483 424.985443115234375 0 466.75 409.807403564453125 0
483 434.985443115234375 0 466.75 409.807403564453125 0
483 434.985443115234375 150 466.75 409.807403564453125 0
483 424.985443115234375 150 466.75 409.807403564453125 0
455 424.985443115234375 0 437.75 409.807403564453125 0
455 434.985443115234375 0 437.75 409.807403564453125 0
455 434.985443115234375 150 437.75 409.807403564453125 0
455 424.985443115234375 150 437.75 409.807403564453125 0
423 424.957000732421875 0 404.772735595703125 405.640777587890625 0
423 434.957000732421875 0 404.772735595703125 405.640777587890625 0
423 434.957000732421875 150 404.772735595703125 405.640777587890625 0
423 424.957000732421875 150 404.772735595703125 405.640777587890625 0
401 424.957000732421875 0 381.772735595703125 405.640777587890625 0
401 434.957000732421875 0 381.772735595703125 405.640777587890625 0
401 434.957000732421875 150 381.772735595703125 405.640777587890625 0
401 424.957000732421875 150 381.772735595703125 405.640777587890625 0
347 33 0 339.196075439453125 32.3529396057128906 0
347 43 0 339.196075439453125 32.3529396057128906 0
347 43 150 339.196075439453125 32.3529396057128906 0
347 33 150 339.196075439453125 32.3529396057128906 0
251 328.5 0 240.047622680664062 312.857147216796875 0
251 338.5 0 240.047622680664062 312.857147216796875 0
251 338.5 150 240.047622680664062 312.857147216796875 0
251 328.5 150 240.047622680664062 312.857147216796875 0
230 328.5 0 218.047622680664062 312.857147216796875 0
230 338.5 0 218.047622680664062 312.857147216796875 0
230 338.5 150 218.047622680664062 312.857147216796875 0
230 328.5 150 218.047622680664062 312.857147216796875 0
488 430 0 467.666656494140625 411.083343505859375 0
478 430 0 467.666656494140625 411.083343505859375 0
478 430 150 467.666656494140625 411.083343505859375 0
488 430 150 467.666656494140625 411.083343505859375 0
248 193 0 238.217391967773438 184.608688354492188 0
248 203 0 238.217391967773438 184.608688354492188 0
248 203 150 238.217391967773438 184.608688354492188 0
248 193 150 238.217391967773438 184.608688354492188 0
225 193 0 214.217391967773438 184.608688354492188 0
225 203 0 214.217391967773438 184.608688354492188 0
225 203 150 214.217391967773438 184.608688354492188 0
225 193 150 214.217391967773438 184.608688354492188 0
344 192.986480712890625 0 332.259246826171875 185.838836669921875 0
344 202.986480712890625 0 332.259246826171875 185.838836669921875 0
344 202.986480712890625 150 332.259246826171875 185.838836669921875 0
344 192.986480712890625 150 332.259246826171875 185.838836669921875 0
317 192.986480712890625 0 304.259246826171875 185.838836669921875 0
317 202.986480712890625 0 304.259246826171875 185.838836669921875 0
317 202.986480712890625 150 304.259246826171875 185.838836669921875 0
317 192.986480712890625 150 304.259246826171875 185.838836669921875 0
469 36 0 452.82757568359375 35.7586212158203125 0
479 36 0 452.82757568359375 35.7586212158203125 0
479 36 150 452.82757568359375 35.7586212158203125 0
469 36 150 452.82757568359375 35.7586212158203125 0
497 36 0 470.84210205078125 35.1052627563476562 0
507 36 0 470.84210205078125 35.1052627563476562 0
507 36 150 470.84210205078125 35.1052627563476562 0
497 36 150 470.84210205078125 35.1052627563476562 0
448 110 0 403.20001220703125 100 0
438 110 0 403.20001220703125 100 0
438 110 150 403.20001220703125 100 0
448 110 150 403.20001220703125 100 0
448 100 0 403.20001220703125 89 0
438 100 0 403.20001220703125 89 0
438 100 150 403.20001220703125 89 0
448 100 150 403.20001220703125 89 0
578.99896240234375 36.9881362915039062 0 577.610107421875 35.899261474609375 0
588.99896240234375 37.0118637084960938 0 577.610107421875 35.899261474609375 0
588.99896240234375 37.0118637084960938 150 577.610107421875 35.899261474609375 0
578.99896240234375 36.9881362915039062 150 577.610107421875 35.899261474609375 0
551.84246826171875 453.979827880859375 0 529.76580810546875 436.6719970703125 0
552.15753173828125 463.974884033203125 0 529.76580810546875 436.6719970703125 0
552.15753173828125 463.974884033203125 150 529.76580810546875 436.6719970703125 0
551.84246826171875 453.979827880859375 150 529.76580810546875 436.6719970703125 0
390.197509765625 327.994110107421875 0 387.806060791015625 324.98291015625 0
400.197509765625 328.005889892578125 0 387.806060791015625 324.98291015625 0
400.197509765625 328.005889892578125 150 387.806060791015625 324.98291015625 0
390.197509765625 327.994110107421875 150 387.806060791015625 324.98291015625 0
330.922760009765625 491.989349365234375 0 324.32257080078125 483.6787109375 0
331.077239990234375 501.9881591796875 0 324.32257080078125 483.6787109375 0
331.077239990234375 501.9881591796875 150 324.32257080078125 483.6787109375 0
330.922760009765625 491.989349365234375 150 324.32257080078125 483.6787109375 0
229.810699462890625 496.97943115234375 0 228.6175537109375 495.3902587890625 0
219.810791015625 497.02056884765625 0 228.6175537109375 495.3902587890625 0
219.810791015625 497.02056884765625 150 228.6175537109375 495.3902587890625 0
229.810699462890625 496.97943115234375 150 228.6175537109375 495.3902587890625 0
229.794387817382812 290.404052734375 0 180.440536499023438 226.9339599609375 0
219.827102661132812 289.595947265625 0 180.440536499023438 226.9339599609375 0
219.827102661132812 289.595947265625 150 180.440536499023438 226.9339599609375 0
229.794387817382812 290.404052734375 150 180.440536499023438 226.9339599609375 0
343.965484619140625 305.82830810546875 0 341.97308349609375 303.17462158203125 0
344.034515380859375 295.82855224609375 0 341.97308349609375 303.17462158203125 0
344.034515380859375 295.82855224609375 150 341.97308349609375 303.17462158203125 0
343.965484619140625 305.82830810546875 150 341.97308349609375 303.17462158203125 0
230.000259399414062 234.005859375 0 227.067474365234375 232.039474487304688 0
229.999740600585938 224.005859375 0 227.067474365234375 232.039474487304688 0
229.999740600585938 224.005859375 150 227.067474365234375 232.039474487304688 0
230.000259399414062 234.005859375 150 227.067474365234375 232.039474487304688 0
349 198 0 339.30548095703125 191.499954223632812 0
339 198 0 339.30548095703125 191.499954223632812 0
339 198 150 339.30548095703125 191.499954223632812 0
349 198 150 339.30548095703125 191.499954223632812 0
320.10784912109375 338.516693115234375 0 308.03125 326.824432373046875 0
319.89215087890625 328.519012451171875 0 308.03125 326.824432373046875 0
319.89215087890625 328.519012451171875 150 308.03125 326.824432373046875 0
320.10784912109375 338.516693115234375 150 308.03125 326.824432373046875 0
349 301 0 339.540283203125 291.841339111328125 0
339 301 0 339.540283203125 291.841339111328125 0
339 301 150 339.540283203125 291.841339111328125 0
349 301 150 339.540283203125 291.841339111328125 0
226 235 0 0 0 -1
216 235 0 0 0 -1
216 33 0 0 0 -1
226 43 0 0 0 -1
226 235 150 0 0 1
216 235 150 0 0 1
216 33 150 0 0 1
226 43 150 0 0 1
226 43 0 0 0 -1
216 33 0 0 0 -1
266 33 0 0 0 -1
266 43 0 0 0 -1
226 43 150 0 0 1
216 33 150 0 0 1
266 33 150 0 0 1
266 43 150 0 0 1
398 286 0 0 0 -1
388 286 0 0 0 -1
388 43 0 0 0 -1
398 33 0 0 0 -1
398 286 150 0 0 1
388 286 150 0 0 1
388 43 150 0 0 1
398 33 150 0 0 1
398 33 0 0 0 -1
388 43 0 0 0 -1
347 43 0 0 0 -1
347 33 0 0 0 -1
398 33 150 0 0 1
388 43 150 0 0 1
347 43 150 0 0 1
347 33 150 0 0 1
533 32.9923362731933594 0 0 0 -1
533 42.9923362731933594 0 0 0 -1
444 42.9923362731933594 0 0 0 -1
444 32.9923362731933594 0 0 0 -1
533 32.9923362731933594 150 0 0 1
533 42.9923362731933594 150 0 0 1
444 42.9923362731933594 150 0 0 1
444 32.9923362731933594 150 0 0 1
348.990386962890625 301 0 0 0 -1
338.990386962890625 301 0 0 0 -1
338.990386962890625 263 0 0 0 -1
348.990386962890625 263 0 0 0 -1
348.990386962890625 301 150 0 0 1
338.990386962890625 301 150 0 0 1
338.990386962890625 263 150 0 0 1
348.990386962890625 263 150 0 0 1
290 492 0 0 0 -1
290 502 0 0 0 -1
225 502 0 0 0 -1
225 492 0 0 0 -1
290 492 150 0 0 1
290 502 150 0 0 1
225 502 150 0 0 1
225 492 150 0 0 1
518 454 0 0 0 -1
518 464 0 0 0 -1
478 464 0 0 0 -1
488 454 0 0 0 -1
518 454 150 0 0 1
518 464 150 0 0 1
478 464 150 0 0 1
488 454 150 0 0 1
488 454 0 0 0 -1
478 464 0 0 0 -1
478 430 0 0 0 -1
488 430 0 0 0 -1
488 454 150 0 0 1
478 464 150 0 0 1
478 430 150 0 0 1
488 430 150 0 0 1
483 424.985443115234375 0 0 0 -1
483 434.985443115234375 0 0 0 -1
455 434.985443115234375 0 0 0 -1
455 424.985443115234375 0 0 0 -1
483 424.985443115234375 150 0 0 1
483 434.985443115234375 150 0 0 1
455 434.985443115234375 150 0 0 1
455 424.985443115234375 150 0 0 1
423 424.957000732421875 0 0 0 -1
423 434.957000732421875 0 0 0 -1
401 434.957000732421875 0 0 0 -1
401 424.957000732421875 0 0 0 -1
423 424.957000732421875 150 0 0 1
423 434.957000732421875 150 0 0 1
401 434.957000732421875 150 0 0 1
401 424.957000732421875 150 0 0 1
251 328.5 0 0 0 -1
251 338.5 0 0 0 -1
230 338.5 0 0 0 -1
230 328.5 0 0 0 -1
251 328.5 150 0 0 1
251 338.5 150 0 0 1
230 338.5 150 0 0 1
230 328.5 150 0 0 1
507 7 0 0 0 -1
497 17 0 0 0 -1
479 17 0 0 0 -1
469 7 0 0 0 -1
507 7 150 0 0 1
497 17 150 0 0 1
479 17 150 0 0 1
469 7 150 0 0 1
497 17 0 0 0 -1
507 7 0 0 0 -1
507 36 0 0 0 -1
497 36 0 0 0 -1
497 17 150 0 0 1
507 7 150 0 0 1
507 36 150 0 0 1
497 36 150 0 0 1
469 7 0 0 0 -1
479 17 0 0 0 -1
479 36 0 0 0 -1
469 36 0 0 0 -1
469 7 150 0 0 1
479 17 150 0 0 1
479 36 150 0 0 1
469 36 150 0 0 1
248 193 0 0 0 -1
248 203 0 0 0 -1
225 203 0 0 0 -1
225 193 0 0 0 -1
248 193 150 0 0 1
248 203 150 0 0 1
225 203 150 0 0 1
225 193 150 0 0 1
344 192.986480712890625 0 0 0 -1
344 202.986480712890625 0 0 0 -1
317 202.986480712890625 0 0 0 -1
317 192.986480712890625 0 0 0 -1
344 192.986480712890625 150 0 0 1
344 202.986480712890625 150 0 0 1
317 202.986480712890625 150 0 0 1
317 192.986480712890625 150 0 0 1
448 110 0 0 0 -1
438 110 0 0 0 -1
438 100 0 0 0 -1
448 100 0 0 0 -1
448 110 150 0 0 1
438 110 150 0 0 1
438 100 150 0 0 1
448 100 150 0 0 1
578.99896240234375 36.9881362915039062 0 0 0 -1
588.99896240234375 37.0118637084960938 0 0 0 -1
587.988525390625 462.84521484375 0 0 0 -1
578.011474609375 453.15478515625 0 0 0 -1
578.99896240234375 36.9881362915039062 150 0 0 1
588.99896240234375 37.0118637084960938 150 0 0 1
587.988525390625 462.84521484375 150 0 0 1
578.011474609375 453.15478515625 150 0 0 1
578.011474609375 453.15478515625 0 0 0 -1
587.988525390625 462.84521484375 0 0 0 -1
552.15753173828125 463.974884033203125 0 0 0 -1
551.84246826171875 453.979827880859375 0 0 0 -1
578.011474609375 453.15478515625 150 0 0 1
587.988525390625 462.84521484375 150 0 0 1
552.15753173828125 463.974884033203125 150 0 0 1
551.84246826171875 453.979827880859375 150 0 0 1
390.197509765625 327.994110107421875 0 0 0 -1
400.197509765625 328.005889892578125 0 0 0 -1
399.99420166015625 500.923431396484375 0 0 0 -1
390.00579833984375 491.076568603515625 0 0 0 -1
390.197509765625 327.994110107421875 150 0 0 1
400.197509765625 328.005889892578125 150 0 0 1
399.99420166015625 500.923431396484375 150 0 0 1
390.00579833984375 491.076568603515625 150 0 0 1
390.00579833984375 491.076568603515625 0 0 0 -1
399.99420166015625 500.923431396484375 0 0 0 -1
331.077239990234375 501.9881591796875 0 0 0 -1
330.922760009765625 491.989349365234375 0 0 0 -1
390.00579833984375 491.076568603515625 150 0 0 1
399.99420166015625 500.923431396484375 150 0 0 1
331.077239990234375 501.9881591796875 150 0 0 1
330.922760009765625 491.989349365234375 150 0 0 1
229.810699462890625 496.97943115234375 0 0 0 -1
219.810791015625 497.02056884765625 0 0 0 -1
218.999160766601562 299.80792236328125 0 0 0 -1
229.020767211914062 305.0347900390625 0 0 0 -1
229.810699462890625 496.97943115234375 150 0 0 1
219.810791015625 497.02056884765625 150 0 0 1
218.999160766601562 299.80792236328125 150 0 0 1
229.020767211914062 305.0347900390625 150 0 0 1
229.418746948242188 295.03729248046875 0 0 0 -1
218.999160766601562 299.80792236328125 0 0 0 -1
219.827102661132812 289.595947265625 0 0 0 -1
229.794387817382812 290.404052734375 0 0 0 -1
229.418746948242188 295.03729248046875 150 0 0 1
218.999160766601562 299.80792236328125 150 0 0 1
219.827102661132812 289.595947265625 150 0 0 1
229.794387817382812 290.404052734375 150 0 0 1
229.020767211914062 305.0347900390625 0 0 0 -1
229.418746948242188 295.03729248046875 0 0 0 -1
344.034515380859375 295.82855224609375 0 0 0 -1
343.965484619140625 305.82830810546875 0 0 0 -1
229.020767211914062 305.0347900390625 150 0 0 1
229.418746948242188 295.03729248046875 150 0 0 1
344.034515380859375 295.82855224609375 150 0 0 1
343.965484619140625 305.82830810546875 150 0 0 1
230.000259399414062 234.005859375 0 0 0 -1
229.999740600585938 224.005859375 0 0 0 -1
339 224.000259399414062 0 0 0 -1
349 233.999740600585938 0 0 0 -1
230.000259399414062 234.005859375 150 0 0 1
229.999740600585938 224.005859375 150 0 0 1
339 224.000259399414062 150 0 0 1
349 233.999740600585938 150 0 0 1
349 233.999740600585938 0 0 0 -1
339 224.000259399414062 0 0 0 -1
339 198 0 0 0 -1
349 198 0 0 0 -1
349 233.999740600585938 150 0 0 1
339 224.000259399414062 150 0 0 1
339 198 150 0 0 1
349 198 150 0 0 1
320.10784912109375 338.516693115234375 0 0 0 -1
319.89215087890625 328.519012451171875 0 0 0 -1
339 328.106719970703125 0 0 0 -1
349 337.893280029296875 0 0 0 -1
320.10784912109375 338.516693115234375 150 0 0 1
319.89215087890625 328.519012451171875 150 0 0 1
339 328.106719970703125 150 0 0 1
349 337.893280029296875 150 0 0 1
349 337.893280029296875 0 0 0 -1
339 328.106719970703125 0 0 0 -1
339 301 0 0 0 -1
349 301 0 0 0 -1
349 337.893280029296875 150 0 0 1
339 328.106719970703125 150 0 0 1
339 301 150 0 0 1
349 301 150 0 0 1
218.999160766601562 299.80792236328125 0 0 0 -1
229.418746948242188 295.03729248046875 0 0 0 -1
229.020767211914062 305.0347900390625 0 0 0 -1
218.999160766601562 299.80792236328125 150 0 0 1
229.418746948242188 295.03729248046875 150 0 0 1
229.020767211914062 305.0347900390625 150 0 0 1
4 0 1 2 3
4 4 5 6 7
4 8 9 10 11
4 12 13 14 15
4 16 17 18 19
4 20 21 22 23
4 24 25 26 27
4 28 29 30 31
4 32 33 34 35
4 36 37 38 39
4 40 41 42 43
4 44 45 46 47
4 48 49 50 51
4 52 53 54 55
4 56 57 58 59
4 60 61 62 63
4 64 65 66 67
4 68 69 70 71
4 72 73 74 75
4 76 77 78 79
4 80 81 82 83
4 84 85 86 87
4 88 89 90 91
4 92 93 94 95
4 96 97 98 99
4 100 101 102 103
4 104 105 106 107
4 108 109 110 111
4 112 113 114 115
4 116 117 118 119
4 120 121 122 123
4 124 125 126 127
4 128 129 130 131
4 132 133 134 135
4 136 137 138 139
4 140 141 142 143
4 144 145 146 147
4 148 149 150 151
4 152 153 154 155
4 156 157 158 159
4 160 161 162 163
4 164 165 166 167
4 168 169 170 171
4 172 173 174 175
4 176 177 178 179
4 180 181 182 183
4 184 185 186 187
4 188 189 190 191
4 192 193 194 195
4 196 197 198 199
4 200 201 202 203
4 204 205 206 207
4 208 209 210 211
4 212 213 214 215
4 216 217 218 219
4 220 221 222 223
4 224 225 226 227
4 228 229 230 231
4 232 233 234 235
4 236 237 238 239
4 240 241 242 243
4 244 245 246 247
4 248 249 250 251
4 252 253 254 255
4 256 257 258 259
4 260 261 262 263
4 264 265 266 267
4 268 269 270 271
4 272 273 274 275
4 276 277 278 279
4 280 281 282 283
4 284 285 286 287
4 288 289 290 291
4 292 293 294 295
4 296 297 298 299
4 300 301 302 303
4 304 305 306 307
4 308 309 310 311
4 312 313 314 315
4 316 317 318 319
4 320 321 322 323
4 324 325 326 327
4 328 329 330 331
4 332 333 334 335
4 336 337 338 339
4 340 341 342 343
4 344 345 346 347
4 348 349 350 351
4 352 353 354 355
4 356 357 358 359
4 360 361 362 363
4 364 365 366 367
4 368 369 370 371
4 372 373 374 375
4 376 377 378 379
4 380 381 382 383
4 384 385 386 387
4 388 389 390 391
4 392 393 394 395
4 396 397 398 399
4 400 401 402 403
4 404 405 406 407
4 408 409 410 411
4 412 413 414 415
4 416 417 418 419
4 420 421 422 423
4 424 425 426 427
4 428 429 430 431
4 432 433 434 435
4 436 437 438 439
4 440 441 442 443
4 444 445 446 447
4 448 449 450 451
4 452 453 454 455
4 456 457 458 459
4 460 461 462 463
4 464 465 466 467
4 468 469 470 471
4 472 473 474 475
4 476 477 478 479
4 480 481 482 483
4 484 485 486 487
4 488 489 490 491
4 492 493 494 495
4 496 497 498 499
4 500 501 502 503
4 504 505 506 507
4 508 509 510 511
4 512 513 514 515
4 516 517 518 519
4 520 521 522 523
4 524 525 526 527
4 528 529 530 531
4 532 533 534 535
4 536 537 538 539
4 540 541 542 543
4 544 545 546 547
4 548 549 550 551
4 552 553 554 555
4 556 557 558 559
4 560 561 562 563
4 564 565 566 567
4 568 569 570 571
4 572 573 574 575
4 576 577 578 579
4 580 581 582 583
4 584 585 586 587
4 588 589 590 591
4 592 593 594 595
4 596 597 598 599
4 600 601 602 603
4 604 605 606 607
4 608 609 610 611
3 612 613 614
3 615 616 617
