ply
format ascii 1.0
element vertex 744
property float x
property float y
property float z
property float nx
property float ny
property float nz
element quads 186
property list uchar int vertex_indices
end_header
219.17999267578125 203 0 1 0 0
219.17999267578125 114 0 1 0 0
219.17999267578125 114 100 1 0 0
219.17999267578125 203 100 1 0 0
213.17999267578125 203 0 -1 -0 0
213.17999267578125 114 0 -1 -0 0
213.17999267578125 114 100 -1 -0 0
213.17999267578125 203 100 -1 -0 0
219.17999267578125 324 0 1 0 0
219.17999267578125 221 0 1 0 0
219.17999267578125 221 100 1 0 0
219.17999267578125 324 100 1 0 0
213.17999267578125 324 0 -1 -0 0
213.17999267578125 221 0 -1 -0 0
213.17999267578125 221 100 -1 -0 0
213.17999267578125 324 100 -1 -0 0
219.17999267578125 96 0 1 0 0
219.17999267578125 42 0 1 0 0
219.17999267578125 42 100 1 0 0
219.17999267578125 96 100 1 0 0
213.17999267578125 96 0 -1 -0 0
213.17999267578125 42 0 -1 -0 0
213.17999267578125 42 100 -1 -0 0
213.17999267578125 96 100 -1 -0 0
594 543 0 1 0 0
594 425 0 1 0 0
594 425 100 1 0 0
594 543 100 1 0 0
588 537 0 -1 -0 0
588 425 0 -1 -0 0
588 425 100 -1 -0 0
588 537 100 -1 -0 0
588 537 0 -0 -1 0
573 537 0 -0 -1 0
573 537 100 -0 -1 0
588 537 100 -0 -1 0
594 543 0 0 1 0
573 543 0 0 1 0
573 543 100 0 1 0
594 543 100 0 1 0
594 298 0 1 0 0
594 243 0 1 0 0
594 243 100 1 0 0
594 298 100 1 0 0
588 298 0 -1 -0 0
588 249 0 -1 -0 0
588 249 100 -1 -0 0
588 298 100 -1 -0 0
594 243 0 -0 -1 0
567 243 0 -0 -1 0
567 243 100 -0 -1 0
594 243 100 -0 -1 0
588 249 0 0 1 0
567 249 0 0 1 0
567 249 100 0 1 0
588 249 100 0 1 0
594 354 0 1 0 0
594 323 0 1 0 0
594 323 100 1 0 0
594 354 100 1 0 0
588 354 0 -1 -0 0
588 323 0 -1 -0 0
588 323 100 -1 -0 0
588 354 100 -1 -0 0
594 400 0 1 0 0
594 389 0 1 0 0
594 389 100 1 0 0
594 400 100 1 0 0
588 400 0 -1 -0 0
588 389 0 -1 -0 0
588 389 100 -1 -0 0
588 400 100 -1 -0 0
529.83331298828125 90 0 1 0 0
529.83331298828125 14 0 1 0 0
529.83331298828125 14 100 1 0 0
529.83331298828125 90 100 1 0 0
523.83331298828125 90 0 -1 -0 0
523.83331298828125 14 0 -1 -0 0
523.83331298828125 14 100 -1 -0 0
523.83331298828125 90 100 -1 -0 0
529.83331298828125 224 0 1 0 0
529.83331298828125 188 0 1 0 0
529.83331298828125 188 100 1 0 0
529.83331298828125 224 100 1 0 0
523.83331298828125 224 0 -1 -0 0
523.83331298828125 188 0 -1 -0 0
523.83331298828125 188 100 -1 -0 0
523.83331298828125 224 100 -1 -0 0
529.83331298828125 121 0 1 0 0
529.83331298828125 108 0 1 0 0
529.83331298828125 108 100 1 0 0
529.83331298828125 121 100 1 0 0
523.83331298828125 121 0 -1 -0 0
523.83331298828125 108 0 -1 -0 0
523.83331298828125 108 100 -1 -0 0
523.83331298828125 121 100 -1 -0 0
345 196.344451904296875 0 -0 -1 0
274 196.344451904296875 0 -0 -1 0
274 196.344451904296875 100 -0 -1 0
345 196.344451904296875 100 -0 -1 0
345 202.344451904296875 0 0 1 0
274 202.344451904296875 0 0 1 0
274 202.344451904296875 100 0 1 0
345 202.344451904296875 100 0 1 0
441 537 0 1 0 0
441 375 0 1 0 0
441 375 100 1 0 0
441 537 100 1 0 0
435 543 0 -1 -0 0
435 375 0 -1 -0 0
435 375 100 -1 -0 0
435 543 100 -1 -0 0
435 543 0 -0 1 0
456 543 0 -0 1 0
456 543 100 -0 1 0
435 543 100 -0 1 0
441 537 0 0 -1 0
456 537 0 0 -1 0
456 537 100 0 -1 0
441 537 100 0 -1 0
446 80.5 0 -0 -1 0
418 80.5 0 -0 -1 0
418 80.5 100 -0 -1 0
446 80.5 100 -0 -1 0
446 86.5 0 0 1 0
418 86.5 0 0 1 0
418 86.5 100 0 1 0
446 86.5 100 0 1 0
482 262.504058837890625 0 -0 -1 0
420 262.504058837890625 0 -0 -1 0
420 262.504058837890625 100 -0 -1 0
482 262.504058837890625 100 -0 -1 0
482 268.504058837890625 0 0 1 0
420 268.504058837890625 0 0 1 0
420 268.504058837890625 100 0 1 0
482 268.504058837890625 100 0 1 0
591 385.67596435546875 0 -0 -1 0
511 385.67596435546875 0 -0 -1 0
511 385.67596435546875 100 -0 -1 0
591 385.67596435546875 100 -0 -1 0
591 391.67596435546875 0 0 1 0
511 391.67596435546875 0 0 1 0
511 391.67596435546875 100 0 1 0
591 391.67596435546875 100 0 1 0
484 385.67596435546875 0 -0 -1 0
439 385.67596435546875 0 -0 -1 0
439 385.67596435546875 100 -0 -1 0
484 385.67596435546875 100 -0 -1 0
484 391.67596435546875 0 0 1 0
439 391.67596435546875 0 0 1 0
439 391.67596435546875 100 0 1 0
484 391.67596435546875 100 0 1 0
232 10.5280895233154297 0 -0 -1 0
216 10.5280895233154297 0 -0 -1 0
216 10.5280895233154297 100 -0 -1 0
232 10.5280895233154297 100 -0 -1 0
232 16.5280895233154297 0 0 1 0
216 16.5280895233154297 0 0 1 0
216 16.5280895233154297 100 0 1 0
232 16.5280895233154297 100 0 1 0
484 10.5280895233154297 0 -0 -1 0
471 10.5280895233154297 0 -0 -1 0
471 10.5280895233154297 100 -0 -1 0
484 10.5280895233154297 100 -0 -1 0
484 16.5280895233154297 0 0 1 0
471 16.5280895233154297 0 0 1 0
471 16.5280895233154297 100 0 1 0
484 16.5280895233154297 100 0 1 0
297 10.5280895233154297 0 -0 -1 0
279 10.5280895233154297 0 -0 -1 0
279 10.5280895233154297 100 -0 -1 0
297 10.5280895233154297 100 -0 -1 0
297 16.5280895233154297 0 0 1 0
279 16.5280895233154297 0 0 1 0
279 16.5280895233154297 100 0 1 0
297 16.5280895233154297 100 0 1 0
406 375 0 1 0 0
406 305 0 1 0 0
406 305 100 1 0 0
406 375 100 1 0 0
400 375 0 -1 -0 0
400 305 0 -1 -0 0
400 305 100 -1 -0 0
400 375 100 -1 -0 0
367 369.960540771484375 0 -0 -1 0
356 369.960540771484375 0 -0 -1 0
356 369.960540771484375 100 -0 -1 0
367 369.960540771484375 100 -0 -1 0
367 375.960540771484375 0 0 1 0
356 375.960540771484375 0 0 1 0
356 375.960540771484375 100 0 1 0
367 375.960540771484375 100 0 1 0
247 179.5 0 -0 -1 0
218 179.5 0 -0 -1 0
218 179.5 100 -0 -1 0
247 179.5 100 -0 -1 0
247 185.5 0 0 1 0
218 185.5 0 0 1 0
218 185.5 100 0 1 0
247 185.5 100 0 1 0
542 243 0 -0 -1 0
512 243 0 -0 -1 0
512 243 100 -0 -1 0
542 243 100 -0 -1 0
542 249 0 0 1 0
512 249 0 0 1 0
512 249 100 0 1 0
542 249 100 0 1 0
406.321319580078125 227.321319580078125 0 0.70710676908493042 0.70710676908493042 0
421.821319580078125 211.821319580078125 0 0.70710676908493042 0.70710676908493042 0
421.821319580078125 211.821319580078125 100 0.70710676908493042 0.70710676908493042 0
406.321319580078125 227.321319580078125 100 0.70710676908493042 0.70710676908493042 0
402.07867431640625 223.07867431640625 0 -0.70710676908493042 -0.70710676908493042 0
417.57867431640625 207.57867431640625 0 -0.70710676908493042 -0.70710676908493042 0
417.57867431640625 207.57867431640625 100 -0.70710676908493042 -0.70710676908493042 0
402.07867431640625 223.07867431640625 100 -0.70710676908493042 -0.70710676908493042 0
350 81 0 -0 -1 0
325.03314208984375 81 0 -0 -1 0
325.03314208984375 81 100 -0 -1 0
350 81 100 -0 -1 0
350 87 0 0 1 0
318.96685791015625 87 0 0 1 0
318.96685791015625 87 100 0 1 0
350 87 100 0 1 0
325.03314208984375 81 0 0.999939680099487305 0.0109856044873595238 0
325.49420166015625 39.0329551696777344 0 0.999939680099487305 0.0109856044873595238 0
325.49420166015625 39.0329551696777344 100 0.999939680099487305 0.0109856044873595238 0
325.03314208984375 81 100 0.999939680099487305 0.0109856044873595238 0
318.96685791015625 87 0 -0.999939680099487305 -0.0109856044873595238 0
319.49456787109375 38.9670448303222656 0 -0.999939680099487305 -0.0109856044873595238 0
319.49456787109375 38.9670448303222656 100 -0.999939680099487305 -0.0109856044873595238 0
318.96685791015625 87 100 -0.999939680099487305 -0.0109856044873595238 0
364 305 0 -1 0 0
364 321.02557373046875 0 -1 0 0
364 321.02557373046875 100 -1 0 0
364 305 100 -1 0 0
370 305 0 1 -0 0
370 326.97442626953125 0 1 -0 0
370 326.97442626953125 100 1 -0 0
370 305 100 1 -0 0
364 321.02557373046875 0 -0.00856358557939529419 -0.999963343143463135 0
343.97430419921875 321.19708251953125 0 -0.00856358557939529419 -0.999963343143463135 0
343.97430419921875 321.19708251953125 100 -0.00856358557939529419 -0.999963343143463135 0
364 321.02557373046875 100 -0.00856358557939529419 -0.999963343143463135 0
370 326.97442626953125 0 0.00856358557939529419 0.999963343143463135 0
344.02569580078125 327.196868896484375 0 0.00856358557939529419 0.999963343143463135 0
344.02569580078125 327.196868896484375 100 0.00856358557939529419 0.999963343143463135 0
370 326.97442626953125 100 0.00856358557939529419 0.999963343143463135 0
267.02569580078125 327.196868896484375 0 0.00856358557939529419 0.999963343143463135 0
292.95404052734375 326.974822998046875 0 0.00856358557939529419 0.999963343143463135 0
292.95404052734375 326.974822998046875 100 0.00856358557939529419 0.999963343143463135 0
267.02569580078125 327.196868896484375 100 0.00856358557939529419 0.999963343143463135 0
266.97430419921875 321.19708251953125 0 -0.00856358557939529419 -0.999963343143463135 0
287.04595947265625 321.025177001953125 0 -0.00856358557939529419 -0.999963343143463135 0
287.04595947265625 321.025177001953125 100 -0.00856358557939529419 -0.999963343143463135 0
266.97430419921875 321.19708251953125 100 -0.00856358557939529419 -0.999963343143463135 0
292.95404052734375 326.974822998046875 0 0.999878764152526855 0.0155716370791196823 0
293.825042724609375 271.046722412109375 0 0.999878764152526855 0.0155716370791196823 0
293.825042724609375 271.046722412109375 100 0.999878764152526855 0.0155716370791196823 0
292.95404052734375 326.974822998046875 100 0.999878764152526855 0.0155716370791196823 0
287.04595947265625 321.025177001953125 0 -0.999878764152526855 -0.0155716370791196823 0
287.825775146484375 270.953277587890625 0 -0.999878764152526855 -0.0155716370791196823 0
287.825775146484375 270.953277587890625 100 -0.999878764152526855 -0.0155716370791196823 0
287.04595947265625 321.025177001953125 100 -0.999878764152526855 -0.0155716370791196823 0
219.17999267578125 203 0 216.717300415039062 201.719100952148438 0
213.17999267578125 203 0 216.717300415039062 201.719100952148438 0
213.17999267578125 203 100 216.717300415039062 201.719100952148438 0
219.17999267578125 203 100 216.717300415039062 201.719100952148438 0
219.17999267578125 114 0 216.717300415039062 111.719100952148438 0
213.17999267578125 114 0 216.717300415039062 111.719100952148438 0
213.17999267578125 114 100 216.717300415039062 111.719100952148438 0
219.17999267578125 114 100 216.717300415039062 111.719100952148438 0
219.17999267578125 324 0 217.052032470703125 321.8543701171875 0
213.17999267578125 324 0 217.052032470703125 321.8543701171875 0
213.17999267578125 324 100 217.052032470703125 321.8543701171875 0
219.17999267578125 324 100 217.052032470703125 321.8543701171875 0
219.17999267578125 221 0 217.052032470703125 217.8543701171875 0
213.17999267578125 221 0 217.052032470703125 217.8543701171875 0
213.17999267578125 221 100 217.052032470703125 217.8543701171875 0
219.17999267578125 221 100 217.052032470703125 217.8543701171875 0
219.17999267578125 96 0 215.121109008789062 95.2222213745117188 0
213.17999267578125 96 0 215.121109008789062 95.2222213745117188 0
213.17999267578125 96 100 215.121109008789062 95.2222213745117188 0
219.17999267578125 96 100 215.121109008789062 95.2222213745117188 0
219.17999267578125 42 0 215.121109008789062 40.2222213745117188 0
213.17999267578125 42 0 215.121109008789062 40.2222213745117188 0
213.17999267578125 42 100 215.121109008789062 40.2222213745117188 0
219.17999267578125 42 100 215.121109008789062 40.2222213745117188 0
594 425 0 588.96612548828125 420.3983154296875 0
588 425 0 588.96612548828125 420.3983154296875 0
588 425 100 588.96612548828125 420.3983154296875 0
594 425 100 588.96612548828125 420.3983154296875 0
594 298 0 583.20001220703125 293.581817626953125 0
588 298 0 583.20001220703125 293.581817626953125 0
588 298 100 583.20001220703125 293.581817626953125 0
594 298 100 583.20001220703125 293.581817626953125 0
594 354 0 574.83868408203125 343.580657958984375 0
588 354 0 574.83868408203125 343.580657958984375 0
588 354 100 574.83868408203125 343.580657958984375 0
594 354 100 574.83868408203125 343.580657958984375 0
594 323 0 574.83868408203125 311.580657958984375 0
588 323 0 574.83868408203125 311.580657958984375 0
588 323 100 574.83868408203125 311.580657958984375 0
594 323 100 574.83868408203125 311.580657958984375 0
594 400 0 540 364.6363525390625 0
588 400 0 540 364.6363525390625 0
588 400 100 540 364.6363525390625 0
594 400 100 540 364.6363525390625 0
594 389 0 540 352.6363525390625 0
588 389 0 540 352.6363525390625 0
588 389 100 540 352.6363525390625 0
594 389 100 540 352.6363525390625 0
529.83331298828125 90 0 522.86181640625 89.8157882690429688 0
523.83331298828125 90 0 522.86181640625 89.8157882690429688 0
523.83331298828125 90 100 522.86181640625 89.8157882690429688 0
529.83331298828125 90 100 522.86181640625 89.8157882690429688 0
529.83331298828125 14 0 522.86181640625 12.8157892227172852 0
523.83331298828125 14 0 522.86181640625 12.8157892227172852 0
523.83331298828125 14 100 522.86181640625 12.8157892227172852 0
529.83331298828125 14 100 522.86181640625 12.8157892227172852 0
529.83331298828125 224 0 515.11572265625 218.77777099609375 0
523.83331298828125 224 0 515.11572265625 218.77777099609375 0
523.83331298828125 224 100 515.11572265625 218.77777099609375 0
529.83331298828125 224 100 515.11572265625 218.77777099609375 0
529.83331298828125 188 0 515.11572265625 181.77777099609375 0
523.83331298828125 188 0 515.11572265625 181.77777099609375 0
523.83331298828125 188 100 515.11572265625 181.77777099609375 0
529.83331298828125 188 100 515.11572265625 181.77777099609375 0
529.83331298828125 121 0 489.076934814453125 112.692306518554688 0
523.83331298828125 121 0 489.076934814453125 112.692306518554688 0
523.83331298828125 121 100 489.076934814453125 112.692306518554688 0
529.83331298828125 121 100 489.076934814453125 112.692306518554688 0
529.83331298828125 108 0 489.076934814453125 98.6923065185546875 0
523.83331298828125 108 0 489.076934814453125 98.6923065185546875 0
523.83331298828125 108 100 489.076934814453125 98.6923065185546875 0
529.83331298828125 108 100 489.076934814453125 98.6923065185546875 0
345 196.344451904296875 0 341.140838623046875 193.579025268554688 0
345 202.344451904296875 0 341.140838623046875 193.579025268554688 0
345 202.344451904296875 100 341.140838623046875 193.579025268554688 0
345 196.344451904296875 100 341.140838623046875 193.579025268554688 0
274 196.344451904296875 0 269.140838623046875 193.579025268554688 0
274 202.344451904296875 0 269.140838623046875 193.579025268554688 0
274 202.344451904296875 100 269.140838623046875 193.579025268554688 0
274 196.344451904296875 100 269.140838623046875 193.579025268554688 0
441 375 0 438.27777099609375 371.6851806640625 0
435 375 0 438.27777099609375 371.6851806640625 0
435 375 100 438.27777099609375 371.6851806640625 0
441 375 100 438.27777099609375 371.6851806640625 0
446 80.5 0 431.071441650390625 77.625 0
446 86.5 0 431.071441650390625 77.625 0
446 86.5 100 431.071441650390625 77.625 0
446 80.5 100 431.071441650390625 77.625 0
418 80.5 0 402.071441650390625 77.625 0
418 86.5 0 402.071441650390625 77.625 0
418 86.5 100 402.071441650390625 77.625 0
418 80.5 100 402.071441650390625 77.625 0
482 262.504058837890625 0 475.225799560546875 258.2701416015625 0
482 268.504058837890625 0 475.225799560546875 258.2701416015625 0
482 268.504058837890625 100 475.225799560546875 258.2701416015625 0
482 262.504058837890625 100 475.225799560546875 258.2701416015625 0
420 262.504058837890625 0 412.225799560546875 258.2701416015625 0
420 268.504058837890625 0 412.225799560546875 258.2701416015625 0
420 268.504058837890625 100 412.225799560546875 258.2701416015625 0
420 262.504058837890625 100 412.225799560546875 258.2701416015625 0
591 385.67596435546875 0 584.61248779296875 380.85504150390625 0
591 391.67596435546875 0 584.61248779296875 380.85504150390625 0
591 391.67596435546875 100 584.61248779296875 380.85504150390625 0
591 385.67596435546875 100 584.61248779296875 380.85504150390625 0
511 385.67596435546875 0 503.61248779296875 380.85504150390625 0
511 391.67596435546875 0 503.61248779296875 380.85504150390625 0
511 391.67596435546875 100 503.61248779296875 380.85504150390625 0
511 385.67596435546875 100 503.61248779296875 380.85504150390625 0
484 385.67596435546875 0 474.24444580078125 377.10540771484375 0
484 391.67596435546875 0 474.24444580078125 377.10540771484375 0
484 391.67596435546875 100 474.24444580078125 377.10540771484375 0
484 385.67596435546875 100 474.24444580078125 377.10540771484375 0
439 385.67596435546875 0 428.24444580078125 377.10540771484375 0
439 391.67596435546875 0 428.24444580078125 377.10540771484375 0
439 391.67596435546875 100 428.24444580078125 377.10540771484375 0
439 385.67596435546875 100 428.24444580078125 377.10540771484375 0
232 10.5280895233154297 0 218.5 9.87008380889892578 0
232 16.5280895233154297 0 218.5 9.87008380889892578 0
232 16.5280895233154297 100 218.5 9.87008380889892578 0
232 10.5280895233154297 100 218.5 9.87008380889892578 0
216 10.5280895233154297 0 201.5 9.87008380889892578 0
216 16.5280895233154297 0 201.5 9.87008380889892578 0
216 16.5280895233154297 100 201.5 9.87008380889892578 0
216 10.5280895233154297 100 201.5 9.87008380889892578 0
484 10.5280895233154297 0 447.76922607421875 9.71823692321777344 0
484 16.5280895233154297 0 447.76922607421875 9.71823692321777344 0
484 16.5280895233154297 100 447.76922607421875 9.71823692321777344 0
484 10.5280895233154297 100 447.76922607421875 9.71823692321777344 0
471 10.5280895233154297 0 433.76922607421875 9.71823692321777344 0
471 16.5280895233154297 0 433.76922607421875 9.71823692321777344 0
471 16.5280895233154297 100 433.76922607421875 9.71823692321777344 0
471 10.5280895233154297 100 433.76922607421875 9.71823692321777344 0
297 10.5280895233154297 0 281.5 9.94319629669189453 0
297 16.5280895233154297 0 281.5 9.94319629669189453 0
297 16.5280895233154297 100 281.5 9.94319629669189453 0
297 10.5280895233154297 100 281.5 9.94319629669189453 0
279 10.5280895233154297 0 262.5 9.94319629669189453 0
279 16.5280895233154297 0 262.5 9.94319629669189453 0
279 16.5280895233154297 100 262.5 9.94319629669189453 0
279 10.5280895233154297 100 262.5 9.94319629669189453 0
406 375 0 400.20001220703125 370.642852783203125 0
400 375 0 400.20001220703125 370.642852783203125 0
400 375 100 400.20001220703125 370.642852783203125 0
406 375 100 400.20001220703125 370.642852783203125 0
406 305 0 400.20001220703125 299.642852783203125 0
400 305 0 400.20001220703125 299.642852783203125 0
400 305 100 400.20001220703125 299.642852783203125 0
406 305 100 400.20001220703125 299.642852783203125 0
367 369.960540771484375 0 334.6363525390625 336.3277587890625 0
367 375.960540771484375 0 334.6363525390625 336.3277587890625 0
367 375.960540771484375 100 334.6363525390625 336.3277587890625 0
367 369.960540771484375 100 334.6363525390625 336.3277587890625 0
356 369.960540771484375 0 322.6363525390625 336.3277587890625 0
356 375.960540771484375 0 322.6363525390625 336.3277587890625 0
356 375.960540771484375 100 322.6363525390625 336.3277587890625 0
356 369.960540771484375 100 322.6363525390625 336.3277587890625 0
456 543 0 435.28570556640625 517.14288330078125 0
456 537 0 435.28570556640625 517.14288330078125 0
456 537 100 435.28570556640625 517.14288330078125 0
456 543 100 435.28570556640625 517.14288330078125 0
573 537 0 533.79998779296875 501.20001220703125 0
573 543 0 533.79998779296875 501.20001220703125 0
573 543 100 533.79998779296875 501.20001220703125 0
573 537 100 533.79998779296875 501.20001220703125 0
247 179.5 0 239.482757568359375 173.310348510742188 0
247 185.5 0 239.482757568359375 173.310348510742188 0
247 185.5 100 239.482757568359375 173.310348510742188 0
247 179.5 100 239.482757568359375 173.310348510742188 0
218 179.5 0 209.482757568359375 173.310348510742188 0
218 185.5 0 209.482757568359375 173.310348510742188 0
218 185.5 100 209.482757568359375 173.310348510742188 0
218 179.5 100 209.482757568359375 173.310348510742188 0
542 243 0 524.933349609375 234.899993896484375 0
542 249 0 524.933349609375 234.899993896484375 0
542 249 100 524.933349609375 234.899993896484375 0
542 243 100 524.933349609375 234.899993896484375 0
512 243 0 493.933319091796875 234.899993896484375 0
512 249 0 493.933319091796875 234.899993896484375 0
512 249 100 493.933319091796875 234.899993896484375 0
512 243 100 493.933319091796875 234.899993896484375 0
567 243 0 545 234 0
567 249 0 545 234 0
567 249 100 545 234 0
567 243 100 545 234 0
406.321319580078125 227.321319580078125 0 387.077911376953125 217.6580810546875 0
402.07867431640625 223.07867431640625 0 387.077911376953125 217.6580810546875 0
402.07867431640625 223.07867431640625 100 387.077911376953125 217.6580810546875 0
406.321319580078125 227.321319580078125 100 387.077911376953125 217.6580810546875 0
421.821319580078125 211.821319580078125 0 403.2850341796875 201.450973510742188 0
417.57867431640625 207.57867431640625 0 403.2850341796875 201.450973510742188 0
417.57867431640625 207.57867431640625 100 403.2850341796875 201.450973510742188 0
421.821319580078125 211.821319580078125 100 403.2850341796875 201.450973510742188 0
350 81 0 336.981414794921875 77.7556991577148438 0
350 87 0 336.981414794921875 77.7556991577148438 0
350 87 100 336.981414794921875 77.7556991577148438 0
350 81 100 336.981414794921875 77.7556991577148438 0
325.49420166015625 39.0329551696777344 0 317.74969482421875 37.1029891967773438 0
319.49456787109375 38.9670448303222656 0 317.74969482421875 37.1029891967773438 0
319.49456787109375 38.9670448303222656 100 317.74969482421875 37.1029891967773438 0
325.49420166015625 39.0329551696777344 100 317.74969482421875 37.1029891967773438 0
364 305 0 341.28631591796875 284.967926025390625 0
370 305 0 341.28631591796875 284.967926025390625 0
370 305 100 341.28631591796875 284.967926025390625 0
364 305 100 341.28631591796875 284.967926025390625 0
343.97430419921875 321.19708251953125 0 325.798309326171875 305.1669921875 0
344.02569580078125 327.196868896484375 0 325.798309326171875 305.1669921875 0
344.02569580078125 327.196868896484375 100 325.798309326171875 305.1669921875 0
343.97430419921875 321.19708251953125 100 325.798309326171875 305.1669921875 0
267.02569580078125 327.196868896484375 0 255.727508544921875 314.58660888671875 0
266.97430419921875 321.19708251953125 0 255.727508544921875 314.58660888671875 0
266.97430419921875 321.19708251953125 100 255.727508544921875 314.58660888671875 0
267.02569580078125 327.196868896484375 100 255.727508544921875 314.58660888671875 0
293.825042724609375 271.046722412109375 0 288.587615966796875 265.201080322265625 0
287.825775146484375 270.953277587890625 0 288.587615966796875 265.201080322265625 0
287.825775146484375 270.953277587890625 100 288.587615966796875 265.201080322265625 0
293.825042724609375 271.046722412109375 100 288.587615966796875 265.201080322265625 0
219.17999267578125 203 0 0 0 -1
213.17999267578125 203 0 0 0 -1
213.17999267578125 114 0 0 0 -1
219.17999267578125 114 0 0 0 -1
219.17999267578125 203 100 0 0 1
213.17999267578125 203 100 0 0 1
213.17999267578125 114 100 0 0 1
219.17999267578125 114 100 0 0 1
219.17999267578125 324 0 0 0 -1
213.17999267578125 324 0 0 0 -1
213.17999267578125 221 0 0 0 -1
219.17999267578125 221 0 0 0 -1
219.17999267578125 324 100 0 0 1
213.17999267578125 324 100 0 0 1
213.17999267578125 221 100 0 0 1
219.17999267578125 221 100 0 0 1
219.17999267578125 96 0 0 0 -1
213.17999267578125 96 0 0 0 -1
213.17999267578125 42 0 0 0 -1
219.17999267578125 42 0 0 0 -1
219.17999267578125 96 100 0 0 1
213.17999267578125 96 100 0 0 1
213.17999267578125 42 100 0 0 1
219.17999267578125 42 100 0 0 1
594 543 0 0 0 -1
588 537 0 0 0 -1
588 425 0 0 0 -1
594 425 0 0 0 -1
594 543 100 0 0 1
588 537 100 0 0 1
588 425 100 0 0 1
594 425 100 0 0 1
588 537 0 0 0 -1
594 543 0 0 0 -1
573 543 0 0 0 -1
573 537 0 0 0 -1
588 537 100 0 0 1
594 543 100 0 0 1
573 543 100 0 0 1
573 537 100 0 0 1
594 298 0 0 0 -1
588 298 0 0 0 -1
588 249 0 0 0 -1
594 243 0 0 0 -1
594 298 100 0 0 1
588 298 100 0 0 1
588 249 100 0 0 1
594 243 100 0 0 1
594 243 0 0 0 -1
588 249 0 0 0 -1
567 249 0 0 0 -1
567 243 0 0 0 -1
594 243 100 0 0 1
588 249 100 0 0 1
567 249 100 0 0 1
567 243 100 0 0 1
594 354 0 0 0 -1
588 354 0 0 0 -1
588 323 0 0 0 -1
594 323 0 0 0 -1
594 354 100 0 0 1
588 354 100 0 0 1
588 323 100 0 0 1
594 323 100 0 0 1
594 400 0 0 0 -1
588 400 0 0 0 -1
588 389 0 0 0 -1
594 389 0 0 0 -1
594 400 100 0 0 1
588 400 100 0 0 1
588 389 100 0 0 1
594 389 100 0 0 1
529.83331298828125 90 0 0 0 -1
523.83331298828125 90 0 0 0 -1
523.83331298828125 14 0 0 0 -1
529.83331298828125 14 0 0 0 -1
529.83331298828125 90 100 0 0 1
523.83331298828125 90 100 0 0 1
523.83331298828125 14 100 0 0 1
529.83331298828125 14 100 0 0 1
529.83331298828125 224 0 0 0 -1
523.83331298828125 224 0 0 0 -1
523.83331298828125 188 0 0 0 -1
529.83331298828125 188 0 0 0 -1
529.83331298828125 224 100 0 0 1
523.83331298828125 224 100 0 0 1
523.83331298828125 188 100 0 0 1
529.83331298828125 188 100 0 0 1
529.83331298828125 121 0 0 0 -1
523.83331298828125 121 0 0 0 -1
523.83331298828125 108 0 0 0 -1
529.83331298828125 108 0 0 0 -1
529.83331298828125 121 100 0 0 1
523.83331298828125 121 100 0 0 1
523.83331298828125 108 100 0 0 1
529.83331298828125 108 100 0 0 1
345 196.344451904296875 0 0 0 -1
345 202.344451904296875 0 0 0 -1
274 202.344451904296875 0 0 0 -1
274 196.344451904296875 0 0 0 -1
345 196.344451904296875 100 0 0 1
345 202.344451904296875 100 0 0 1
274 202.344451904296875 100 0 0 1
274 196.344451904296875 100 0 0 1
441 537 0 0 0 -1
435 543 0 0 0 -1
435 375 0 0 0 -1
441 375 0 0 0 -1
441 537 100 0 0 1
435 543 100 0 0 1
435 375 100 0 0 1
441 375 100 0 0 1
435 543 0 0 0 -1
441 537 0 0 0 -1
456 537 0 0 0 -1
456 543 0 0 0 -1
435 543 100 0 0 1
441 537 100 0 0 1
456 537 100 0 0 1
456 543 100 0 0 1
446 80.5 0 0 0 -1
446 86.5 0 0 0 -1
418 86.5 0 0 0 -1
418 80.5 0 0 0 -1
446 80.5 100 0 0 1
446 86.5 100 0 0 1
418 86.5 100 0 0 1
418 80.5 100 0 0 1
482 262.504058837890625 0 0 0 -1
482 268.504058837890625 0 0 0 -1
420 268.504058837890625 0 0 0 -1
420 262.504058837890625 0 0 0 -1
482 262.504058837890625 100 0 0 1
482 268.504058837890625 100 0 0 1
420 268.504058837890625 100 0 0 1
420 262.504058837890625 100 0 0 1
591 385.67596435546875 0 0 0 -1
591 391.67596435546875 0 0 0 -1
511 391.67596435546875 0 0 0 -1
511 385.67596435546875 0 0 0 -1
591 385.67596435546875 100 0 0 1
591 391.67596435546875 100 0 0 1
511 391.67596435546875 100 0 0 1
511 385.67596435546875 100 0 0 1
484 385.67596435546875 0 0 0 -1
484 391.67596435546875 0 0 0 -1
439 391.67596435546875 0 0 0 -1
439 385.67596435546875 0 0 0 -1
484 385.67596435546875 100 0 0 1
484 391.67596435546875 100 0 0 1
439 391.67596435546875 100 0 0 1
439 385.67596435546875 100 0 0 1
232 10.5280895233154297 0 0 0 -1
232 16.5280895233154297 0 0 0 -1
216 16.5280895233154297 0 0 0 -1
216 10.5280895233154297 0 0 0 -1
232 10.5280895233154297 100 0 0 1
232 16.5280895233154297 100 0 0 1
216 16.5280895233154297 100 0 0 1
216 10.5280895233154297 100 0 0 1
484 10.5280895233154297 0 0 0 -1
484 16.5280895233154297 0 0 0 -1
471 16.5280895233154297 0 0 0 -1
471 10.5280895233154297 0 0 0 -1
484 10.5280895233154297 100 0 0 1
484 16.5280895233154297 100 0 0 1
471 16.5280895233154297 100 0 0 1
471 10.5280895233154297 100 0 0 1
297 10.5280895233154297 0 0 0 -1
297 16.5280895233154297 0 0 0 -1
279 16.5280895233154297 0 0 0 -1
279 10.5280895233154297 0 0 0 -1
297 10.5280895233154297 100 0 0 1
297 16.5280895233154297 100 0 0 1
279 16.5280895233154297 100 0 0 1
279 10.5280895233154297 100 0 0 1
406 375 0 0 0 -1
400 375 0 0 0 -1
400 305 0 0 0 -1
406 305 0 0 0 -1
406 375 100 0 0 1
400 375 100 0 0 1
400 305 100 0 0 1
406 305 100 0 0 1
367 369.960540771484375 0 0 0 -1
367 375.960540771484375 0 0 0 -1
356 375.960540771484375 0 0 0 -1
356 369.960540771484375 0 0 0 -1
367 369.960540771484375 100 0 0 1
367 375.960540771484375 100 0 0 1
356 375.960540771484375 100 0 0 1
356 369.960540771484375 100 0 0 1
247 179.5 0 0 0 -1
247 185.5 0 0 0 -1
218 185.5 0 0 0 -1
218 179.5 0 0 0 -1
247 179.5 100 0 0 1
247 185.5 100 0 0 1
218 185.5 100 0 0 1
218 179.5 100 0 0 1
542 243 0 0 0 -1
542 249 0 0 0 -1
512 249 0 0 0 -1
512 243 0 0 0 -1
542 243 100 0 0 1
542 249 100 0 0 1
512 249 100 0 0 1
512 243 100 0 0 1
406.321319580078125 227.321319580078125 0 0 0 -1
402.07867431640625 223.07867431640625 0 0 0 -1
417.57867431640625 207.57867431640625 0 0 0 -1
421.821319580078125 211.821319580078125 0 0 0 -1
406.321319580078125 227.321319580078125 100 0 0 1
402.07867431640625 223.07867431640625 100 0 0 1
417.57867431640625 207.57867431640625 100 0 0 1
421.821319580078125 211.821319580078125 100 0 0 1
350 81 0 0 0 -1
350 87 0 0 0 -1
318.96685791015625 87 0 0 0 -1
325.03314208984375 81 0 0 0 -1
350 81 100 0 0 1
350 87 100 0 0 1
318.96685791015625 87 100 0 0 1
325.03314208984375 81 100 0 0 1
325.03314208984375 81 0 0 0 -1
318.96685791015625 87 0 0 0 -1
319.49456787109375 38.9670448303222656 0 0 0 -1
325.49420166015625 39.0329551696777344 0 0 0 -1
325.03314208984375 81 100 0 0 1
318.96685791015625 87 100 0 0 1
319.49456787109375 38.9670448303222656 100 0 0 1
325.49420166015625 39.0329551696777344 100 0 0 1
364 305 0 0 0 -1
370 305 0 0 0 -1
370 326.97442626953125 0 0 0 -1
364 321.02557373046875 0 0 0 -1
364 305 100 0 0 1
370 305 100 0 0 1
370 326.97442626953125 100 0 0 1
364 321.02557373046875 100 0 0 1
364 321.02557373046875 0 0 0 -1
370 326.97442626953125 0 0 0 -1
344.02569580078125 327.196868896484375 0 0 0 -1
343.97430419921875 321.19708251953125 0 0 0 -1
364 321.02557373046875 100 0 0 1
370 326.97442626953125 100 0 0 1
344.02569580078125 327.196868896484375 100 0 0 1
343.97430419921875 321.19708251953125 100 0 0 1
267.02569580078125 327.196868896484375 0 0 0 -1
266.97430419921875 321.19708251953125 0 0 0 -1
287.04595947265625 321.025177001953125 0 0 0 -1
292.95404052734375 326.974822998046875 0 0 0 -1
267.02569580078125 327.196868896484375 100 0 0 1
266.97430419921875 321.19708251953125 100 0 0 1
287.04595947265625 321.025177001953125 100 0 0 1
292.95404052734375 326.974822998046875 100 0 0 1
292.95404052734375 326.974822998046875 0 0 0 -1
287.04595947265625 321.025177001953125 0 0 0 -1
287.825775146484375 270.953277587890625 0 0 0 -1
293.825042724609375 271.046722412109375 0 0 0 -1
292.95404052734375 326.974822998046875 100 0 0 1
287.04595947265625 321.025177001953125 100 0 0 1
287.825775146484375 270.953277587890625 100 0 0 1
293.825042724609375 271.046722412109375 100 0 0 1
4 0 1 2 3
4 4 5 6 7
4 8 9 10 11
4 12 13 14 15
4 16 17 18 19
4 20 21 22 23
4 24 25 26 27
4 28 29 30 31
4 32 33 34 35
4 36 37 38 39
4 40 41 42 43
4 44 45 46 47
4 48 49 50 51
4 52 53 54 55
4 56 57 58 59
4 60 61 62 63
4 64 65 66 67
4 68 69 70 71
4 72 73 74 75
4 76 77 78 79
4 80 81 82 83
4 84 85 86 87
4 88 89 90 91
4 92 93 94 95
4 96 97 98 99
4 100 101 102 103
4 104 105 106 107
4 108 109 110 111
4 112 113 114 115
4 116 117 118 119
4 120 121 122 123
4 124 125 126 127
4 128 129 130 131
4 132 133 134 135
4 136 137 138 139
4 140 141 142 143
4 144 145 146 147
4 148 149 150 151
4 152 153 154 155
4 156 157 158 159
4 160 161 162 163
4 164 165 166 167
4 168 169 170 171
4 172 173 174 175
4 176 177 178 179
4 180 181 182 183
4 184 185 186 187
4 188 189 190 191
4 192 193 194 195
4 196 197 198 199
4 200 201 202 203
4 204 205 206 207
4 208 209 210 211
4 212 213 214 215
4 216 217 218 219
4 220 221 222 223
4 224 225 226 227
4 228 229 230 231
4 232 233 234 235
4 236 237 238 239
4 240 241 242 243
4 244 245 246 247
4 248 249 250 251
4 252 253 254 255
4 256 257 258 259
4 260 261 262 263
4 264 265 266 267
4 268 269 270 271
4 272 273 274 275
4 276 277 278 279
4 280 281 282 283
4 284 285 286 287
4 288 289 290 291
4 292 293 294 295
4 296 297 298 299
4 300 301 302 303
4 304 305 306 307
4 308 309 310 311
4 312 313 314 315
4 316 317 318 319
4 320 321 322 323
4 324 325 326 327
4 328 329 330 331
4 332 333 334 335
4 336 337 338 339
4 340 341 342 343
4 344 345 346 347
4 348 349 350 351
4 352 353 354 355
4 356 357 358 359
4 360 361 362 363
4 364 365 366 367
4 368 369 370 371
4 372 373 374 375
4 376 377 378 379
4 380 381 382 383
4 384 385 386 387
4 388 389 390 391
4 392 393 394 395
4 396 397 398 399
4 400 401 402 403
4 404 405 406 407
4 408 409 410 411
4 412 413 414 415
4 416 417 418 419
4 420 421 422 423
4 424 425 426 427
4 428 429 430 431
4 432 433 434 435
4 436 437 438 439
4 440 441 442 443
4 444 445 446 447
4 448 449 450 451
4 452 453 454 455
4 456 457 458 459
4 460 461 462 463
4 464 465 466 467
4 468 469 470 471
4 472 473 474 475
4 476 477 478 479
4 480 481 482 483
4 484 485 486 487
4 488 489 490 491
4 492 493 494 495
4 496 497 498 499
4 500 501 502 503
4 504 505 506 507
4 508 509 510 511
4 512 513 514 515
4 516 517 518 519
4 520 521 522 523
4 524 525 526 527
4 528 529 530 531
4 532 533 534 535
4 536 537 538 539
4 540 541 542 543
4 544 545 546 547
4 548 549 550 551
4 552 553 554 555
4 556 557 558 559
4 560 561 562 563
4 564 565 566 567
4 568 569 570 571
4 572 573 574 575
4 576 577 578 579
4 580 581 582 583
4 584 585 586 587
4 588 589 590 591
4 592 593 594 595
4 596 597 598 599
4 600 601 602 603
4 604 605 606 607
4 608 609 610 611
4 612 613 614 615
4 616 617 618 619
4 620 621 622 623
4 624 625 626 627
4 628 629 630 631
4 632 633 634 635
4 636 637 638 639
4 640 641 642 643
4 644 645 646 647
4 648 649 650 651
4 652 653 654 655
4 656 657 658 659
4 660 661 662 663
4 664 665 666 667
4 668 669 670 671
4 672 673 674 675
4 676 677 678 679
4 680 681 682 683
4 684 685 686 687
4 688 689 690 691
4 692 693 694 695
4 696 697 698 699
4 700 701 702 703
4 704 705 706 707
4 708 709 710 711
4 712 713 714 715
4 716 717 718 719
4 720 721 722 723
4 724 725 726 727
4 728 729 730 731
4 732 733 734 735
4 736 737 738 739
4 740 741 742 743
