ply
format ascii 1.0
element vertex 112
property float x
property float y
property float z
property float nx
property float ny
property float nz
element quads 28
property list uchar int vertex_indices
end_header
420.75 49 0 -1 0 0
420.75 183 0 -1 0 0
420.75 183 100 -1 0 0
420.75 49 100 -1 0 0
421.25 49 0 1 -0 0
421.25 183 0 1 -0 0
421.25 183 100 1 -0 0
421.25 49 100 1 -0 0
319.25 183.25 0 -0 1 0
499.75 183.25 0 -0 1 0
499.75 183.25 100 -0 1 0
319.25 183.25 100 -0 1 0
318.75 182.75 0 0 -1 0
500.25 182.75 0 0 -1 0
500.25 182.75 100 0 -1 0
318.75 182.75 100 0 -1 0
318.75 182.75 0 -1 0 0
318.75 524.25 0 -1 0 0
318.75 524.25 100 -1 0 0
318.75 182.75 100 -1 0 0
319.25 183.25 0 1 -0 0
319.25 523.75 0 1 -0 0
319.25 523.75 100 1 -0 0
319.25 183.25 100 1 -0 0
499.75 183.25 0 -1 0 0
499.75 523.75 0 -1 0 0
499.75 523.75 100 -1 0 0
499.75 183.25 100 -1 0 0
500.25 182.75 0 1 -0 0
500.25 524.25 0 1 -0 0
500.25 524.25 100 1 -0 0
500.25 182.75 100 1 -0 0
477.75 26 0 -1 0 0
477.75 183 0 -1 0 0
477.75 183 100 -1 0 0
477.75 26 100 -1 0 0
478.25 26 0 1 -0 0
478.25 183 0 1 -0 0
478.25 183 100 1 -0 0
478.25 26 100 1 -0 0
318.75 524.25 0 -0 1 0
500.25 524.25 0 -0 1 0
500.25 524.25 100 -0 1 0
318.75 524.25 100 -0 1 0
319.25 523.75 0 0 -1 0
499.75 523.75 0 0 -1 0
499.75 523.75 100 0 -1 0
319.25 523.75 100 0 -1 0
420.75 49 0 417.610076904296875 47.6343269348144531 0
421.25 49 0 417.610076904296875 47.6343269348144531 0
421.25 49 100 417.610076904296875 47.6343269348144531 0
420.75 49 100 417.610076904296875 47.6343269348144531 0
420.75 183 0 417.610076904296875 182.634323120117188 0
421.25 183 0 417.610076904296875 182.634323120117188 0
421.25 183 100 417.610076904296875 182.634323120117188 0
420.75 183 100 417.610076904296875 182.634323120117188 0
477.75 26 0 474.707000732421875 24.8343944549560547 0
478.25 26 0 474.707000732421875 24.8343944549560547 0
478.25 26 100 474.707000732421875 24.8343944549560547 0
477.75 26 100 474.707000732421875 24.8343944549560547 0
477.75 183 0 474.707000732421875 182.834396362304688 0
478.25 183 0 474.707000732421875 182.834396362304688 0
478.25 183 100 474.707000732421875 182.834396362304688 0
477.75 183 100 474.707000732421875 182.834396362304688 0
420.75 49 0 0 0 -1
421.25 49 0 0 0 -1
421.25 183 0 0 0 -1
420.75 183 0 0 0 -1
420.75 49 100 0 0 1
421.25 49 100 0 0 1
421.25 183 100 0 0 1
420.75 183 100 0 0 1
319.25 183.25 0 0 0 -1
318.75 182.75 0 0 0 -1
500.25 182.75 0 0 0 -1
499.75 183.25 0 0 0 -1
319.25 183.25 100 0 0 1
318.75 182.75 100 0 0 1
500.25 182.75 100 0 0 1
499.75 183.25 100 0 0 1
318.75 182.75 0 0 0 -1
319.25 183.25 0 0 0 -1
319.25 523.75 0 0 0 -1
318.75 524.25 0 0 0 -1
318.75 182.75 100 0 0 1
319.25 183.25 100 0 0 1
319.25 523.75 100 0 0 1
318.75 524.25 100 0 0 1
499.75 183.25 0 0 0 -1
500.25 182.75 0 0 0 -1
500.25 524.25 0 0 0 -1
499.75 523.75 0 0 0 -1
499.75 183.25 100 0 0 1
500.25 182.75 100 0 0 1
500.25 524.25 100 0 0 1
499.75 523.75 100 0 0 1
477.75 26 0 0 0 -1
478.25 26 0 0 0 -1
478.25 183 0 0 0 -1
477.75 183 0 0 0 -1
477.75 26 100 0 0 1
478.25 26 100 0 0 1
478.25 183 100 0 0 1
477.75 183 100 0 0 1
318.75 524.25 0 0 0 -1
319.25 523.75 0 0 0 -1
499.75 523.75 0 0 0 -1
500.25 524.25 0 0 0 -1
318.75 524.25 100 0 0 1
319.25 523.75 100 0 0 1
499.75 523.75 100 0 0 1
500.25 524.25 100 0 0 1
4 0 1 2 3
4 4 5 6 7
4 8 9 10 11
4 12 13 14 15
4 16 17 18 19
4 20 21 22 23
4 24 25 26 27
4 28 29 30 31
4 32 33 34 35
4 36 37 38 39
4 40 41 42 43
4 44 45 46 47
4 48 49 50 51
4 52 53 54 55
4 56 57 58 59
4 60 61 62 63
4 64 65 66 67
4 68 69 70 71
4 72 73 74 75
4 76 77 78 79
4 80 81 82 83
4 84 85 86 87
4 88 89 90 91
4 92 93 94 95
4 96 97 98 99
4 100 101 102 103
4 104 105 106 107
4 108 109 110 111
