ply
format ascii 1.0
element vertex 896
property float x
property float y
property float z
property float nx
property float ny
property float nz
element quads 224
property list uchar int vertex_indices
end_header
146 244 0 1 0 0
146 154 0 1 0 0
146 154 100 1 0 0
146 244 100 1 0 0
140 244 0 -1 -0 0
140 160 0 -1 -0 0
140 160 100 -1 -0 0
140 244 100 -1 -0 0
146 154 0 -0 -1 0
119 154 0 -0 -1 0
119 154 100 -0 -1 0
146 154 100 -0 -1 0
140 160 0 0 1 0
119 160 0 0 1 0
119 160 100 0 1 0
140 160 100 0 1 0
145.51202392578125 529 0 1 0 0
145.51202392578125 489 0 1 0 0
145.51202392578125 489 100 1 0 0
145.51202392578125 529 100 1 0 0
139.51202392578125 529 0 -1 -0 0
139.51202392578125 489 0 -1 -0 0
139.51202392578125 489 100 -1 -0 0
139.51202392578125 529 100 -1 -0 0
146 317 0 1 0 0
146 281 0 1 0 0
146 281 100 1 0 0
146 317 100 1 0 0
140 317 0 -1 -0 0
140 275 0 -1 -0 0
140 275 100 -1 -0 0
140 317 100 -1 -0 0
146 281 0 -0 1 0
223 281 0 -0 1 0
223 281 100 -0 1 0
146 281 100 -0 1 0
140 275 0 0 -1 0
223 275 0 0 -1 0
223 275 100 0 -1 0
140 275 100 0 -1 0
146 108 0 1 0 0
146 65 0 1 0 0
146 65 100 1 0 0
146 108 100 1 0 0
140 102 0 -1 -0 0
140 59 0 -1 -0 0
140 59 100 -1 -0 0
140 102 100 -1 -0 0
140 102 0 -0 -1 0
118 102 0 -0 -1 0
118 102 100 -0 -1 0
140 102 100 -0 -1 0
146 108 0 0 1 0
118 108 0 0 1 0
118 108 100 0 1 0
146 108 100 0 1 0
146 65 0 -0 1 0
161 65 0 -0 1 0
161 65 100 -0 1 0
146 65 100 -0 1 0
140 59 0 0 -1 0
161 59 0 0 -1 0
161 59 100 0 -1 0
140 59 100 0 -1 0
649 209 0 1 0 0
649 190 0 1 0 0
649 190 100 1 0 0
649 209 100 1 0 0
643 215 0 -1 -0 0
643 184 0 -1 -0 0
643 184 100 -1 -0 0
643 215 100 -1 -0 0
643 215 0 -0 1 0
700 215 0 -0 1 0
700 215 100 -0 1 0
643 215 100 -0 1 0
649 209 0 0 -1 0
706 209 0 0 -1 0
706 209 100 0 -1 0
649 209 100 0 -1 0
649 190 0 -0 1 0
660 190 0 -0 1 0
660 190 100 -0 1 0
649 190 100 -0 1 0
643 184 0 0 -1 0
660 184 0 0 -1 0
660 184 100 0 -1 0
643 184 100 0 -1 0
704 58.74359130859375 0 -0 -1 0
676 58.74359130859375 0 -0 -1 0
676 58.74359130859375 100 -0 -1 0
704 58.74359130859375 100 -0 -1 0
704 64.74359130859375 0 0 1 0
676 64.74359130859375 0 0 1 0
676 64.74359130859375 100 0 1 0
704 64.74359130859375 100 0 1 0
615 58.74359130859375 0 -0 -1 0
532 58.74359130859375 0 -0 -1 0
532 58.74359130859375 100 -0 -1 0
615 58.74359130859375 100 -0 -1 0
615 64.74359130859375 0 0 1 0
532 64.74359130859375 0 0 1 0
532 64.74359130859375 100 0 1 0
615 64.74359130859375 100 0 1 0
427 58.74359130859375 0 -0 -1 0
395 58.74359130859375 0 -0 -1 0
395 58.74359130859375 100 -0 -1 0
427 58.74359130859375 100 -0 -1 0
427 64.74359130859375 0 0 1 0
395 64.74359130859375 0 0 1 0
395 64.74359130859375 100 0 1 0
427 64.74359130859375 100 0 1 0
258 58.74359130859375 0 -0 -1 0
241 58.74359130859375 0 -0 -1 0
241 58.74359130859375 100 -0 -1 0
258 58.74359130859375 100 -0 -1 0
258 64.74359130859375 0 0 1 0
241 64.74359130859375 0 0 1 0
241 64.74359130859375 100 0 1 0
258 64.74359130859375 100 0 1 0
399 217 0 1 0 0
399 136 0 1 0 0
399 136 100 1 0 0
399 217 100 1 0 0
393 217 0 -1 -0 0
393 136 0 -1 -0 0
393 136 100 -1 -0 0
393 217 100 -1 -0 0
431 389.7872314453125 0 -0 -1 0
421 389.7872314453125 0 -0 -1 0
421 389.7872314453125 100 -0 -1 0
431 389.7872314453125 100 -0 -1 0
431 395.7872314453125 0 0 1 0
421 395.7872314453125 0 0 1 0
421 395.7872314453125 100 0 1 0
431 395.7872314453125 100 0 1 0
497 389.7872314453125 0 -0 -1 0
483 389.7872314453125 0 -0 -1 0
483 389.7872314453125 100 -0 -1 0
497 389.7872314453125 100 -0 -1 0
497 395.7872314453125 0 0 1 0
483 395.7872314453125 0 0 1 0
483 395.7872314453125 100 0 1 0
497 395.7872314453125 100 0 1 0
450 389.7872314453125 0 -0 -1 0
437 389.7872314453125 0 -0 -1 0
437 389.7872314453125 100 -0 -1 0
450 389.7872314453125 100 -0 -1 0
450 395.7872314453125 0 0 1 0
437 395.7872314453125 0 0 1 0
437 395.7872314453125 100 0 1 0
450 395.7872314453125 100 0 1 0
363 274.503997802734375 0 -0 -1 0
255 274.503997802734375 0 -0 -1 0
255 274.503997802734375 100 -0 -1 0
363 274.503997802734375 100 -0 -1 0
363 280.503997802734375 0 0 1 0
255 280.503997802734375 0 0 1 0
255 280.503997802734375 100 0 1 0
363 280.503997802734375 100 0 1 0
274 505 0 -0 -1 0
231 505 0 -0 -1 0
231 505 100 -0 -1 0
274 505 100 -0 -1 0
274 511 0 0 1 0
237 511 0 0 1 0
237 511 100 0 1 0
274 511 100 0 1 0
231 505 0 -1 0 0
231 526 0 -1 0 0
231 526 100 -1 0 0
231 505 100 -1 0 0
237 511 0 1 -0 0
237 532 0 1 -0 0
237 532 100 1 -0 0
237 511 100 1 -0 0
609 208.793746948242188 0 -0 -1 0
563 208.793746948242188 0 -0 -1 0
563 208.793746948242188 100 -0 -1 0
609 208.793746948242188 100 -0 -1 0
609 214.793746948242188 0 0 1 0
563 214.793746948242188 0 0 1 0
563 214.793746948242188 100 0 1 0
609 214.793746948242188 100 0 1 0
700 215 0 -1 0 0
700 242 0 -1 0 0
700 242 100 -1 0 0
700 215 100 -1 0 0
706 209 0 1 -0 0
706 242 0 1 -0 0
706 242 100 1 -0 0
706 209 100 1 -0 0
231 526 0 -0 -1 0
203 526 0 -0 -1 0
203 526 100 -0 -1 0
231 526 100 -0 -1 0
237 532 0 0 1 0
203 532 0 0 1 0
203 532 100 0 1 0
237 532 100 0 1 0
174 526 0 -0 -1 0
143 526 0 -0 -1 0
143 526 100 -0 -1 0
174 526 100 -0 -1 0
174 532 0 0 1 0
143 532 0 0 1 0
143 532 100 0 1 0
174 532 100 0 1 0
221 197.503265380859375 0 -0 -1 0
144 197.503265380859375 0 -0 -1 0
144 197.503265380859375 100 -0 -1 0
221 197.503265380859375 100 -0 -1 0
221 203.503265380859375 0 0 1 0
144 203.503265380859375 0 0 1 0
144 203.503265380859375 100 0 1 0
221 203.503265380859375 100 0 1 0
609.50634765625 294 0 1 0 0
609.50634765625 254 0 1 0 0
609.50634765625 254 100 1 0 0
609.50634765625 294 100 1 0 0
603.50634765625 294 0 -1 -0 0
603.50634765625 254 0 -1 -0 0
603.50634765625 254 100 -1 -0 0
603.50634765625 294 100 -1 -0 0
586 102 0 -0 -1 0
562 102 0 -0 -1 0
562 102 100 -0 -1 0
586 102 100 -0 -1 0
586 108 0 0 1 0
568 108 0 0 1 0
568 108 100 0 1 0
586 108 100 0 1 0
562 102 0 -1 0 0
562 118 0 -1 0 0
562 118 100 -1 0 0
562 102 100 -1 0 0
568 108 0 1 -0 0
568 118 0 1 -0 0
568 118 100 1 -0 0
568 108 100 1 -0 0
614 184 0 -0 -1 0
586 184 0 -0 -1 0
586 184 100 -0 -1 0
614 184 100 -0 -1 0
614 190 0 0 1 0
586 190 0 0 1 0
586 190 100 0 1 0
614 190 100 0 1 0
701 184 0 -0 -1 0
691 184 0 -0 -1 0
691 184 100 -0 -1 0
701 184 100 -0 -1 0
701 190 0 0 1 0
691 190 0 0 1 0
691 190 100 0 1 0
701 190 100 0 1 0
207.506179809570312 243 0 1 0 0
207.506179809570312 202 0 1 0 0
207.506179809570312 202 100 1 0 0
207.506179809570312 243 100 1 0 0
201.506179809570312 243 0 -1 -0 0
201.506179809570312 202 0 -1 -0 0
201.506179809570312 202 100 -1 -0 0
201.506179809570312 243 100 -1 -0 0
586 169 0 -0 -1 0
565 169 0 -0 -1 0
565 169 100 -0 -1 0
586 169 100 -0 -1 0
586 175 0 0 1 0
565 175 0 0 1 0
565 175 100 0 1 0
586 175 100 0 1 0
567.780517578125 172 0 1 0 0
567.780517578125 160 0 1 0 0
567.780517578125 160 100 1 0 0
567.780517578125 172 100 1 0 0
561.780517578125 172 0 -1 -0 0
561.780517578125 160 0 -1 -0 0
561.780517578125 160 100 -1 -0 0
561.780517578125 172 100 -1 -0 0
568 392 0 1 0 0
568 374 0 1 0 0
568 374 100 1 0 0
568 392 100 1 0 0
562 392 0 -1 -0 0
562 368 0 -1 -0 0
562 368 100 -1 -0 0
562 392 100 -1 -0 0
568 374 0 -0 1 0
648.998046875 374 0 -0 1 0
648.998046875 374 100 -0 1 0
568 374 100 -0 1 0
562 368 0 0 -1 0
643.001953125 368 0 0 -1 0
643.001953125 368 100 0 -1 0
562 368 100 0 -1 0
361.06640625 254.99920654296875 0 -0.999999940395355225 -0.000262532266788184643 0
361.00079345703125 505 0 -0.999999940395355225 -0.000262532266788184643 0
361.00079345703125 505 100 -0.999999940395355225 -0.000262532266788184643 0
361.06640625 254.99920654296875 100 -0.999999940395355225 -0.000262532266788184643 0
367.06640625 255.00079345703125 0 0.999999940395355225 0.000262532266788184643 0
366.99920654296875 511 0 0.999999940395355225 0.000262532266788184643 0
366.99920654296875 511 100 0.999999940395355225 0.000262532266788184643 0
367.06640625 255.00079345703125 100 0.999999940395355225 0.000262532266788184643 0
361.00079345703125 505 0 -0 -1 0
328 505 0 -0 -1 0
328 505 100 -0 -1 0
361.00079345703125 505 100 -0 -1 0
366.99920654296875 511 0 0 1 0
328 511 0 0 1 0
328 511 100 0 1 0
366.99920654296875 511 100 0 1 0
648.998046875 374 0 0.999999761581420898 0.000652741349767893553 0
649.08355712890625 243.001953125 0 0.999999761581420898 0.000652741349767893553 0
649.08355712890625 243.001953125 100 0.999999761581420898 0.000652741349767893553 0
648.998046875 374 100 0.999999761581420898 0.000652741349767893553 0
643.001953125 368 0 -0.999999761581420898 -0.000652741349767893553 0
643.08355712890625 242.998046875 0 -0.999999761581420898 -0.000652741349767893553 0
643.08355712890625 242.998046875 100 -0.999999761581420898 -0.000652741349767893553 0
643.001953125 368 100 -0.999999761581420898 -0.000652741349767893553 0
648.02337646484375 301.428466796875 0 0.00779197132214903831 0.999969661235809326 0
705.9810791015625 300.97686767578125 0 0.00779197132214903831 0.999969661235809326 0
705.9810791015625 300.97686767578125 100 0.00779197132214903831 0.999969661235809326 0
648.02337646484375 301.428466796875 100 0.00779197132214903831 0.999969661235809326 0
647.97662353515625 295.42864990234375 0 -0.00779197132214903831 -0.999969661235809326 0
700.0189208984375 295.02313232421875 0 -0.00779197132214903831 -0.999969661235809326 0
700.0189208984375 295.02313232421875 100 -0.00779197132214903831 -0.999969661235809326 0
647.97662353515625 295.42864990234375 100 -0.00779197132214903831 -0.999969661235809326 0
705.9810791015625 300.97686767578125 0 0.999979734420776367 0.00636929739266633987 0
706.2037353515625 266.01910400390625 0 0.999979734420776367 0.00636929739266633987 0
706.2037353515625 266.01910400390625 100 0.999979734420776367 0.00636929739266633987 0
705.9810791015625 300.97686767578125 100 0.999979734420776367 0.00636929739266633987 0
700.0189208984375 295.02313232421875 0 -0.999979734420776367 -0.00636929739266633987 0
700.203857421875 265.98089599609375 0 -0.999979734420776367 -0.00636929739266633987 0
700.203857421875 265.98089599609375 100 -0.999979734420776367 -0.00636929739266633987 0
700.0189208984375 295.02313232421875 100 -0.999979734420776367 -0.00636929739266633987 0
146 244 0 144.377777099609375 242.288894653320312 0
140 244 0 144.377777099609375 242.288894653320312 0
140 244 100 144.377777099609375 242.288894653320312 0
146 244 100 144.377777099609375 242.288894653320312 0
145.51202392578125 529 0 141.874221801757812 516.7750244140625 0
139.51202392578125 529 0 141.874221801757812 516.7750244140625 0
139.51202392578125 529 100 141.874221801757812 516.7750244140625 0
145.51202392578125 529 100 141.874221801757812 516.7750244140625 0
145.51202392578125 489 0 141.874221801757812 475.774993896484375 0
139.51202392578125 489 0 141.874221801757812 475.774993896484375 0
139.51202392578125 489 100 141.874221801757812 475.774993896484375 0
145.51202392578125 489 100 141.874221801757812 475.774993896484375 0
146 317 0 141.944442749023438 309.1944580078125 0
140 317 0 141.944442749023438 309.1944580078125 0
140 317 100 141.944442749023438 309.1944580078125 0
146 317 100 141.944442749023438 309.1944580078125 0
704 58.74359130859375 0 679.85711669921875 56.6456031799316406 0
704 64.74359130859375 0 679.85711669921875 56.6456031799316406 0
704 64.74359130859375 100 679.85711669921875 56.6456031799316406 0
704 58.74359130859375 100 679.85711669921875 56.6456031799316406 0
676 58.74359130859375 0 650.85711669921875 56.6456031799316406 0
676 64.74359130859375 0 650.85711669921875 56.6456031799316406 0
676 64.74359130859375 100 650.85711669921875 56.6456031799316406 0
676 58.74359130859375 100 650.85711669921875 56.6456031799316406 0
615 58.74359130859375 0 608.59033203125 58.0358352661132812 0
615 64.74359130859375 0 608.59033203125 58.0358352661132812 0
615 64.74359130859375 100 608.59033203125 58.0358352661132812 0
615 58.74359130859375 100 608.59033203125 58.0358352661132812 0
532 58.74359130859375 0 524.59033203125 58.0358352661132812 0
532 64.74359130859375 0 524.59033203125 58.0358352661132812 0
532 64.74359130859375 100 524.59033203125 58.0358352661132812 0
532 58.74359130859375 100 524.59033203125 58.0358352661132812 0
427 58.74359130859375 0 414.65625 56.9078521728515625 0
427 64.74359130859375 0 414.65625 56.9078521728515625 0
427 64.74359130859375 100 414.65625 56.9078521728515625 0
427 58.74359130859375 100 414.65625 56.9078521728515625 0
395 58.74359130859375 0 381.65625 56.9078521728515625 0
395 64.74359130859375 0 381.65625 56.9078521728515625 0
395 64.74359130859375 100 381.65625 56.9078521728515625 0
395 58.74359130859375 100 381.65625 56.9078521728515625 0
258 58.74359130859375 0 243.823532104492188 55.2880859375 0
258 64.74359130859375 0 243.823532104492188 55.2880859375 0
258 64.74359130859375 100 243.823532104492188 55.2880859375 0
258 58.74359130859375 100 243.823532104492188 55.2880859375 0
241 58.74359130859375 0 225.823532104492188 55.2880859375 0
241 64.74359130859375 0 225.823532104492188 55.2880859375 0
241 64.74359130859375 100 225.823532104492188 55.2880859375 0
241 58.74359130859375 100 225.823532104492188 55.2880859375 0
161 65 0 151.26666259765625 60.6666679382324219 0
161 59 0 151.26666259765625 60.6666679382324219 0
161 59 100 151.26666259765625 60.6666679382324219 0
161 65 100 151.26666259765625 60.6666679382324219 0
399 217 0 394.074066162109375 215.32098388671875 0
393 217 0 394.074066162109375 215.32098388671875 0
393 217 100 394.074066162109375 215.32098388671875 0
399 217 100 394.074066162109375 215.32098388671875 0
399 136 0 394.074066162109375 133.32098388671875 0
393 136 0 394.074066162109375 133.32098388671875 0
393 136 100 394.074066162109375 133.32098388671875 0
399 136 100 394.074066162109375 133.32098388671875 0
431 389.7872314453125 0 388.899993896484375 350.808502197265625 0
431 395.7872314453125 0 388.899993896484375 350.808502197265625 0
431 395.7872314453125 100 388.899993896484375 350.808502197265625 0
431 389.7872314453125 100 388.899993896484375 350.808502197265625 0
421 389.7872314453125 0 377.899993896484375 350.808502197265625 0
421 395.7872314453125 0 377.899993896484375 350.808502197265625 0
421 395.7872314453125 100 377.899993896484375 350.808502197265625 0
421 389.7872314453125 100 377.899993896484375 350.808502197265625 0
497 389.7872314453125 0 462.5 361.945281982421875 0
497 395.7872314453125 0 462.5 361.945281982421875 0
497 395.7872314453125 100 462.5 361.945281982421875 0
497 389.7872314453125 100 462.5 361.945281982421875 0
483 389.7872314453125 0 447.5 361.945281982421875 0
483 395.7872314453125 0 447.5 361.945281982421875 0
483 395.7872314453125 100 447.5 361.945281982421875 0
483 389.7872314453125 100 447.5 361.945281982421875 0
450 389.7872314453125 0 416.384613037109375 359.8035888671875 0
450 395.7872314453125 0 416.384613037109375 359.8035888671875 0
450 395.7872314453125 100 416.384613037109375 359.8035888671875 0
450 389.7872314453125 100 416.384613037109375 359.8035888671875 0
437 389.7872314453125 0 402.384613037109375 359.8035888671875 0
437 395.7872314453125 0 402.384613037109375 359.8035888671875 0
437 395.7872314453125 100 402.384613037109375 359.8035888671875 0
437 389.7872314453125 100 402.384613037109375 359.8035888671875 0
363 274.503997802734375 0 360.638885498046875 271.962310791015625 0
363 280.503997802734375 0 360.638885498046875 271.962310791015625 0
363 280.503997802734375 100 360.638885498046875 271.962310791015625 0
363 274.503997802734375 100 360.638885498046875 271.962310791015625 0
255 274.503997802734375 0 251.638885498046875 271.962310791015625 0
255 280.503997802734375 0 251.638885498046875 271.962310791015625 0
255 280.503997802734375 100 251.638885498046875 271.962310791015625 0
255 274.503997802734375 100 251.638885498046875 271.962310791015625 0
223 281 0 221.103897094726562 277.35064697265625 0
223 275 0 221.103897094726562 277.35064697265625 0
223 275 100 221.103897094726562 277.35064697265625 0
223 281 100 221.103897094726562 277.35064697265625 0
274 505 0 268.627899169921875 493.255828857421875 0
274 511 0 268.627899169921875 493.255828857421875 0
274 511 100 268.627899169921875 493.255828857421875 0
274 505 100 268.627899169921875 493.255828857421875 0
609 208.793746948242188 0 596.7608642578125 204.2547607421875 0
609 214.793746948242188 0 596.7608642578125 204.2547607421875 0
609 214.793746948242188 100 596.7608642578125 204.2547607421875 0
609 208.793746948242188 100 596.7608642578125 204.2547607421875 0
563 208.793746948242188 0 549.7608642578125 204.2547607421875 0
563 214.793746948242188 0 549.7608642578125 204.2547607421875 0
563 214.793746948242188 100 549.7608642578125 204.2547607421875 0
563 208.793746948242188 100 549.7608642578125 204.2547607421875 0
203 526 0 194.75 507.21429443359375 0
203 532 0 194.75 507.21429443359375 0
203 532 100 194.75 507.21429443359375 0
203 526 100 194.75 507.21429443359375 0
174 526 0 169.387100219726562 509.032257080078125 0
174 532 0 169.387100219726562 509.032257080078125 0
174 532 100 169.387100219726562 509.032257080078125 0
174 526 100 169.387100219726562 509.032257080078125 0
143 526 0 137.387100219726562 509.032257080078125 0
143 532 0 137.387100219726562 509.032257080078125 0
143 532 100 137.387100219726562 509.032257080078125 0
143 526 100 137.387100219726562 509.032257080078125 0
700 242 0 674.0740966796875 234.037033081054688 0
706 242 0 674.0740966796875 234.037033081054688 0
706 242 100 674.0740966796875 234.037033081054688 0
700 242 100 674.0740966796875 234.037033081054688 0
221 197.503265380859375 0 219.129867553710938 194.93829345703125 0
221 203.503265380859375 0 219.129867553710938 194.93829345703125 0
221 203.503265380859375 100 219.129867553710938 194.93829345703125 0
221 197.503265380859375 100 219.129867553710938 194.93829345703125 0
144 197.503265380859375 0 141.129867553710938 194.93829345703125 0
144 203.503265380859375 0 141.129867553710938 194.93829345703125 0
144 203.503265380859375 100 141.129867553710938 194.93829345703125 0
144 197.503265380859375 100 141.129867553710938 194.93829345703125 0
609.50634765625 294 0 594.2686767578125 287.649993896484375 0
603.50634765625 294 0 594.2686767578125 287.649993896484375 0
603.50634765625 294 100 594.2686767578125 287.649993896484375 0
609.50634765625 294 100 594.2686767578125 287.649993896484375 0
609.50634765625 254 0 594.2686767578125 246.649993896484375 0
603.50634765625 254 0 594.2686767578125 246.649993896484375 0
603.50634765625 254 100 594.2686767578125 246.649993896484375 0
609.50634765625 254 100 594.2686767578125 246.649993896484375 0
118 102 0 111.636360168457031 97.3636398315429688 0
118 108 0 111.636360168457031 97.3636398315429688 0
118 108 100 111.636360168457031 97.3636398315429688 0
118 102 100 111.636360168457031 97.3636398315429688 0
586 102 0 562.58331298828125 97.75 0
586 108 0 562.58331298828125 97.75 0
586 108 100 562.58331298828125 97.75 0
586 102 100 562.58331298828125 97.75 0
660 190 0 601 172.727279663085938 0
660 184 0 601 172.727279663085938 0
660 184 100 601 172.727279663085938 0
660 190 100 601 172.727279663085938 0
614 184 0 593.0714111328125 177.428573608398438 0
614 190 0 593.0714111328125 177.428573608398438 0
614 190 100 593.0714111328125 177.428573608398438 0
614 184 100 593.0714111328125 177.428573608398438 0
586 184 0 564.0714111328125 177.428573608398438 0
586 190 0 564.0714111328125 177.428573608398438 0
586 190 100 564.0714111328125 177.428573608398438 0
586 184 100 564.0714111328125 177.428573608398438 0
701 184 0 631.9000244140625 165.600006103515625 0
701 190 0 631.9000244140625 165.600006103515625 0
701 190 100 631.9000244140625 165.600006103515625 0
701 184 100 631.9000244140625 165.600006103515625 0
691 184 0 620.9000244140625 165.600006103515625 0
691 190 0 620.9000244140625 165.600006103515625 0
691 190 100 620.9000244140625 165.600006103515625 0
691 184 100 620.9000244140625 165.600006103515625 0
207.506179809570312 243 0 202.445053100585938 238.073165893554688 0
201.506179809570312 243 0 202.445053100585938 238.073165893554688 0
201.506179809570312 243 100 202.445053100585938 238.073165893554688 0
207.506179809570312 243 100 202.445053100585938 238.073165893554688 0
207.506179809570312 202 0 202.445053100585938 196.073165893554688 0
201.506179809570312 202 0 202.445053100585938 196.073165893554688 0
201.506179809570312 202 100 202.445053100585938 196.073165893554688 0
207.506179809570312 202 100 202.445053100585938 196.073165893554688 0
586 169 0 559.09521484375 160.952377319335938 0
586 175 0 559.09521484375 160.952377319335938 0
586 175 100 559.09521484375 160.952377319335938 0
586 169 100 559.09521484375 160.952377319335938 0
565 169 0 537.09521484375 160.952377319335938 0
565 175 0 537.09521484375 160.952377319335938 0
565 175 100 537.09521484375 160.952377319335938 0
565 169 100 537.09521484375 160.952377319335938 0
119 154 0 113.59259033203125 148.296295166015625 0
119 160 0 113.59259033203125 148.296295166015625 0
119 160 100 113.59259033203125 148.296295166015625 0
119 154 100 113.59259033203125 148.296295166015625 0
562 118 0 526.875 111.625 0
568 118 0 526.875 111.625 0
568 118 100 526.875 111.625 0
562 118 100 526.875 111.625 0
567.780517578125 172 0 520.4654541015625 158.666671752929688 0
561.780517578125 172 0 520.4654541015625 158.666671752929688 0
561.780517578125 172 100 520.4654541015625 158.666671752929688 0
567.780517578125 172 100 520.4654541015625 158.666671752929688 0
567.780517578125 160 0 520.4654541015625 145.666671752929688 0
561.780517578125 160 0 520.4654541015625 145.666671752929688 0
561.780517578125 160 100 520.4654541015625 145.666671752929688 0
567.780517578125 160 100 520.4654541015625 145.666671752929688 0
568 392 0 536.4444580078125 371.22222900390625 0
562 392 0 536.4444580078125 371.22222900390625 0
562 392 100 536.4444580078125 371.22222900390625 0
568 392 100 536.4444580078125 371.22222900390625 0
361.06640625 254.99920654296875 0 359.6224365234375 252.979217529296875 0
367.06640625 255.00079345703125 0 359.6224365234375 252.979217529296875 0
367.06640625 255.00079345703125 100 359.6224365234375 252.979217529296875 0
361.06640625 254.99920654296875 100 359.6224365234375 252.979217529296875 0
328 505 0 317.06085205078125 489.69732666015625 0
328 511 0 317.06085205078125 489.69732666015625 0
328 511 100 317.06085205078125 489.69732666015625 0
328 505 100 317.06085205078125 489.69732666015625 0
649.08355712890625 243.001953125 0 644.1292724609375 240.146957397460938 0
643.08355712890625 242.998046875 0 644.1292724609375 240.146957397460938 0
643.08355712890625 242.998046875 100 644.1292724609375 240.146957397460938 0
649.08355712890625 243.001953125 100 644.1292724609375 240.146957397460938 0
648.02337646484375 301.428466796875 0 635.8427734375 296.235595703125 0
647.97662353515625 295.42864990234375 0 635.8427734375 296.235595703125 0
647.97662353515625 295.42864990234375 100 635.8427734375 296.235595703125 0
648.02337646484375 301.428466796875 100 635.8427734375 296.235595703125 0
706.2037353515625 266.01910400390625 0 686.0089111328125 257.4095458984375 0
700.203857421875 265.98089599609375 0 686.0089111328125 257.4095458984375 0
700.203857421875 265.98089599609375 100 686.0089111328125 257.4095458984375 0
706.2037353515625 266.01910400390625 100 686.0089111328125 257.4095458984375 0
146 244 0 0 0 -1
140 244 0 0 0 -1
140 160 0 0 0 -1
146 154 0 0 0 -1
146 244 100 0 0 1
140 244 100 0 0 1
140 160 100 0 0 1
146 154 100 0 0 1
146 154 0 0 0 -1
140 160 0 0 0 -1
119 160 0 0 0 -1
119 154 0 0 0 -1
146 154 100 0 0 1
140 160 100 0 0 1
119 160 100 0 0 1
119 154 100 0 0 1
145.51202392578125 529 0 0 0 -1
139.51202392578125 529 0 0 0 -1
139.51202392578125 489 0 0 0 -1
145.51202392578125 489 0 0 0 -1
145.51202392578125 529 100 0 0 1
139.51202392578125 529 100 0 0 1
139.51202392578125 489 100 0 0 1
145.51202392578125 489 100 0 0 1
146 317 0 0 0 -1
140 317 0 0 0 -1
140 275 0 0 0 -1
146 281 0 0 0 -1
146 317 100 0 0 1
140 317 100 0 0 1
140 275 100 0 0 1
146 281 100 0 0 1
146 281 0 0 0 -1
140 275 0 0 0 -1
223 275 0 0 0 -1
223 281 0 0 0 -1
146 281 100 0 0 1
140 275 100 0 0 1
223 275 100 0 0 1
223 281 100 0 0 1
146 108 0 0 0 -1
140 102 0 0 0 -1
140 59 0 0 0 -1
146 65 0 0 0 -1
146 108 100 0 0 1
140 102 100 0 0 1
140 59 100 0 0 1
146 65 100 0 0 1
140 102 0 0 0 -1
146 108 0 0 0 -1
118 108 0 0 0 -1
118 102 0 0 0 -1
140 102 100 0 0 1
146 108 100 0 0 1
118 108 100 0 0 1
118 102 100 0 0 1
146 65 0 0 0 -1
140 59 0 0 0 -1
161 59 0 0 0 -1
161 65 0 0 0 -1
146 65 100 0 0 1
140 59 100 0 0 1
161 59 100 0 0 1
161 65 100 0 0 1
649 209 0 0 0 -1
643 215 0 0 0 -1
643 184 0 0 0 -1
649 190 0 0 0 -1
649 209 100 0 0 1
643 215 100 0 0 1
643 184 100 0 0 1
649 190 100 0 0 1
643 215 0 0 0 -1
649 209 0 0 0 -1
706 209 0 0 0 -1
700 215 0 0 0 -1
643 215 100 0 0 1
649 209 100 0 0 1
706 209 100 0 0 1
700 215 100 0 0 1
649 190 0 0 0 -1
643 184 0 0 0 -1
660 184 0 0 0 -1
660 190 0 0 0 -1
649 190 100 0 0 1
643 184 100 0 0 1
660 184 100 0 0 1
660 190 100 0 0 1
704 58.74359130859375 0 0 0 -1
704 64.74359130859375 0 0 0 -1
676 64.74359130859375 0 0 0 -1
676 58.74359130859375 0 0 0 -1
704 58.74359130859375 100 0 0 1
704 64.74359130859375 100 0 0 1
676 64.74359130859375 100 0 0 1
676 58.74359130859375 100 0 0 1
615 58.74359130859375 0 0 0 -1
615 64.74359130859375 0 0 0 -1
532 64.74359130859375 0 0 0 -1
532 58.74359130859375 0 0 0 -1
615 58.74359130859375 100 0 0 1
615 64.74359130859375 100 0 0 1
532 64.74359130859375 100 0 0 1
532 58.74359130859375 100 0 0 1
427 58.74359130859375 0 0 0 -1
427 64.74359130859375 0 0 0 -1
395 64.74359130859375 0 0 0 -1
395 58.74359130859375 0 0 0 -1
427 58.74359130859375 100 0 0 1
427 64.74359130859375 100 0 0 1
395 64.74359130859375 100 0 0 1
395 58.74359130859375 100 0 0 1
258 58.74359130859375 0 0 0 -1
258 64.74359130859375 0 0 0 -1
241 64.74359130859375 0 0 0 -1
241 58.74359130859375 0 0 0 -1
258 58.74359130859375 100 0 0 1
258 64.74359130859375 100 0 0 1
241 64.74359130859375 100 0 0 1
241 58.74359130859375 100 0 0 1
399 217 0 0 0 -1
393 217 0 0 0 -1
393 136 0 0 0 -1
399 136 0 0 0 -1
399 217 100 0 0 1
393 217 100 0 0 1
393 136 100 0 0 1
399 136 100 0 0 1
431 389.7872314453125 0 0 0 -1
431 395.7872314453125 0 0 0 -1
421 395.7872314453125 0 0 0 -1
421 389.7872314453125 0 0 0 -1
431 389.7872314453125 100 0 0 1
431 395.7872314453125 100 0 0 1
421 395.7872314453125 100 0 0 1
421 389.7872314453125 100 0 0 1
497 389.7872314453125 0 0 0 -1
497 395.7872314453125 0 0 0 -1
483 395.7872314453125 0 0 0 -1
483 389.7872314453125 0 0 0 -1
497 389.7872314453125 100 0 0 1
497 395.7872314453125 100 0 0 1
483 395.7872314453125 100 0 0 1
483 389.7872314453125 100 0 0 1
450 389.7872314453125 0 0 0 -1
450 395.7872314453125 0 0 0 -1
437 395.7872314453125 0 0 0 -1
437 389.7872314453125 0 0 0 -1
450 389.7872314453125 100 0 0 1
450 395.7872314453125 100 0 0 1
437 395.7872314453125 100 0 0 1
437 389.7872314453125 100 0 0 1
363 274.503997802734375 0 0 0 -1
363 280.503997802734375 0 0 0 -1
255 280.503997802734375 0 0 0 -1
255 274.503997802734375 0 0 0 -1
363 274.503997802734375 100 0 0 1
363 280.503997802734375 100 0 0 1
255 280.503997802734375 100 0 0 1
255 274.503997802734375 100 0 0 1
274 505 0 0 0 -1
274 511 0 0 0 -1
237 511 0 0 0 -1
231 505 0 0 0 -1
274 505 100 0 0 1
274 511 100 0 0 1
237 511 100 0 0 1
231 505 100 0 0 1
231 505 0 0 0 -1
237 511 0 0 0 -1
237 532 0 0 0 -1
231 526 0 0 0 -1
231 505 100 0 0 1
237 511 100 0 0 1
237 532 100 0 0 1
231 526 100 0 0 1
609 208.793746948242188 0 0 0 -1
609 214.793746948242188 0 0 0 -1
563 214.793746948242188 0 0 0 -1
563 208.793746948242188 0 0 0 -1
609 208.793746948242188 100 0 0 1
609 214.793746948242188 100 0 0 1
563 214.793746948242188 100 0 0 1
563 208.793746948242188 100 0 0 1
700 215 0 0 0 -1
706 209 0 0 0 -1
706 242 0 0 0 -1
700 242 0 0 0 -1
700 215 100 0 0 1
706 209 100 0 0 1
706 242 100 0 0 1
700 242 100 0 0 1
231 526 0 0 0 -1
237 532 0 0 0 -1
203 532 0 0 0 -1
203 526 0 0 0 -1
231 526 100 0 0 1
237 532 100 0 0 1
203 532 100 0 0 1
203 526 100 0 0 1
174 526 0 0 0 -1
174 532 0 0 0 -1
143 532 0 0 0 -1
143 526 0 0 0 -1
174 526 100 0 0 1
174 532 100 0 0 1
143 532 100 0 0 1
143 526 100 0 0 1
221 197.503265380859375 0 0 0 -1
221 203.503265380859375 0 0 0 -1
144 203.503265380859375 0 0 0 -1
144 197.503265380859375 0 0 0 -1
221 197.503265380859375 100 0 0 1
221 203.503265380859375 100 0 0 1
144 203.503265380859375 100 0 0 1
144 197.503265380859375 100 0 0 1
609.50634765625 294 0 0 0 -1
603.50634765625 294 0 0 0 -1
603.50634765625 254 0 0 0 -1
609.50634765625 254 0 0 0 -1
609.50634765625 294 100 0 0 1
603.50634765625 294 100 0 0 1
603.50634765625 254 100 0 0 1
609.50634765625 254 100 0 0 1
586 102 0 0 0 -1
586 108 0 0 0 -1
568 108 0 0 0 -1
562 102 0 0 0 -1
586 102 100 0 0 1
586 108 100 0 0 1
568 108 100 0 0 1
562 102 100 0 0 1
562 102 0 0 0 -1
568 108 0 0 0 -1
568 118 0 0 0 -1
562 118 0 0 0 -1
562 102 100 0 0 1
568 108 100 0 0 1
568 118 100 0 0 1
562 118 100 0 0 1
614 184 0 0 0 -1
614 190 0 0 0 -1
586 190 0 0 0 -1
586 184 0 0 0 -1
614 184 100 0 0 1
614 190 100 0 0 1
586 190 100 0 0 1
586 184 100 0 0 1
701 184 0 0 0 -1
701 190 0 0 0 -1
691 190 0 0 0 -1
691 184 0 0 0 -1
701 184 100 0 0 1
701 190 100 0 0 1
691 190 100 0 0 1
691 184 100 0 0 1
207.506179809570312 243 0 0 0 -1
201.506179809570312 243 0 0 0 -1
201.506179809570312 202 0 0 0 -1
207.506179809570312 202 0 0 0 -1
207.506179809570312 243 100 0 0 1
201.506179809570312 243 100 0 0 1
201.506179809570312 202 100 0 0 1
207.506179809570312 202 100 0 0 1
586 169 0 0 0 -1
586 175 0 0 0 -1
565 175 0 0 0 -1
565 169 0 0 0 -1
586 169 100 0 0 1
586 175 100 0 0 1
565 175 100 0 0 1
565 169 100 0 0 1
567.780517578125 172 0 0 0 -1
561.780517578125 172 0 0 0 -1
561.780517578125 160 0 0 0 -1
567.780517578125 160 0 0 0 -1
567.780517578125 172 100 0 0 1
561.780517578125 172 100 0 0 1
561.780517578125 160 100 0 0 1
567.780517578125 160 100 0 0 1
568 392 0 0 0 -1
562 392 0 0 0 -1
562 368 0 0 0 -1
568 374 0 0 0 -1
568 392 100 0 0 1
562 392 100 0 0 1
562 368 100 0 0 1
568 374 100 0 0 1
568 374 0 0 0 -1
562 368 0 0 0 -1
643.001953125 368 0 0 0 -1
648.998046875 374 0 0 0 -1
568 374 100 0 0 1
562 368 100 0 0 1
643.001953125 368 100 0 0 1
648.998046875 374 100 0 0 1
361.06640625 254.99920654296875 0 0 0 -1
367.06640625 255.00079345703125 0 0 0 -1
366.99920654296875 511 0 0 0 -1
361.00079345703125 505 0 0 0 -1
361.06640625 254.99920654296875 100 0 0 1
367.06640625 255.00079345703125 100 0 0 1
366.99920654296875 511 100 0 0 1
361.00079345703125 505 100 0 0 1
361.00079345703125 505 0 0 0 -1
366.99920654296875 511 0 0 0 -1
328 511 0 0 0 -1
328 505 0 0 0 -1
361.00079345703125 505 100 0 0 1
366.99920654296875 511 100 0 0 1
328 511 100 0 0 1
328 505 100 0 0 1
648.998046875 374 0 0 0 -1
643.001953125 368 0 0 0 -1
643.08355712890625 242.998046875 0 0 0 -1
649.08355712890625 243.001953125 0 0 0 -1
648.998046875 374 100 0 0 1
643.001953125 368 100 0 0 1
643.08355712890625 242.998046875 100 0 0 1
649.08355712890625 243.001953125 100 0 0 1
648.02337646484375 301.428466796875 0 0 0 -1
647.97662353515625 295.42864990234375 0 0 0 -1
700.0189208984375 295.02313232421875 0 0 0 -1
705.9810791015625 300.97686767578125 0 0 0 -1
648.02337646484375 301.428466796875 100 0 0 1
647.97662353515625 295.42864990234375 100 0 0 1
700.0189208984375 295.02313232421875 100 0 0 1
705.9810791015625 300.97686767578125 100 0 0 1
705.9810791015625 300.97686767578125 0 0 0 -1
700.0189208984375 295.02313232421875 0 0 0 -1
700.203857421875 265.98089599609375 0 0 0 -1
706.2037353515625 266.01910400390625 0 0 0 -1
705.9810791015625 300.97686767578125 100 0 0 1
700.0189208984375 295.02313232421875 100 0 0 1
700.203857421875 265.98089599609375 100 0 0 1
706.2037353515625 266.01910400390625 100 0 0 1
4 0 1 2 3
4 4 5 6 7
4 8 9 10 11
4 12 13 14 15
4 16 17 18 19
4 20 21 22 23
4 24 25 26 27
4 28 29 30 31
4 32 33 34 35
4 36 37 38 39
4 40 41 42 43
4 44 45 46 47
4 48 49 50 51
4 52 53 54 55
4 56 57 58 59
4 60 61 62 63
4 64 65 66 67
4 68 69 70 71
4 72 73 74 75
4 76 77 78 79
4 80 81 82 83
4 84 85 86 87
4 88 89 90 91
4 92 93 94 95
4 96 97 98 99
4 100 101 102 103
4 104 105 106 107
4 108 109 110 111
4 112 113 114 115
4 116 117 118 119
4 120 121 122 123
4 124 125 126 127
4 128 129 130 131
4 132 133 134 135
4 136 137 138 139
4 140 141 142 143
4 144 145 146 147
4 148 149 150 151
4 152 153 154 155
4 156 157 158 159
4 160 161 162 163
4 164 165 166 167
4 168 169 170 171
4 172 173 174 175
4 176 177 178 179
4 180 181 182 183
4 184 185 186 187
4 188 189 190 191
4 192 193 194 195
4 196 197 198 199
4 200 201 202 203
4 204 205 206 207
4 208 209 210 211
4 212 213 214 215
4 216 217 218 219
4 220 221 222 223
4 224 225 226 227
4 228 229 230 231
4 232 233 234 235
4 236 237 238 239
4 240 241 242 243
4 244 245 246 247
4 248 249 250 251
4 252 253 254 255
4 256 257 258 259
4 260 261 262 263
4 264 265 266 267
4 268 269 270 271
4 272 273 274 275
4 276 277 278 279
4 280 281 282 283
4 284 285 286 287
4 288 289 290 291
4 292 293 294 295
4 296 297 298 299
4 300 301 302 303
4 304 305 306 307
4 308 309 310 311
4 312 313 314 315
4 316 317 318 319
4 320 321 322 323
4 324 325 326 327
4 328 329 330 331
4 332 333 334 335
4 336 337 338 339
4 340 341 342 343
4 344 345 346 347
4 348 349 350 351
4 352 353 354 355
4 356 357 358 359
4 360 361 362 363
4 364 365 366 367
4 368 369 370 371
4 372 373 374 375
4 376 377 378 379
4 380 381 382 383
4 384 385 386 387
4 388 389 390 391
4 392 393 394 395
4 396 397 398 399
4 400 401 402 403
4 404 405 406 407
4 408 409 410 411
4 412 413 414 415
4 416 417 418 419
4 420 421 422 423
4 424 425 426 427
4 428 429 430 431
4 432 433 434 435
4 436 437 438 439
4 440 441 442 443
4 444 445 446 447
4 448 449 450 451
4 452 453 454 455
4 456 457 458 459
4 460 461 462 463
4 464 465 466 467
4 468 469 470 471
4 472 473 474 475
4 476 477 478 479
4 480 481 482 483
4 484 485 486 487
4 488 489 490 491
4 492 493 494 495
4 496 497 498 499
4 500 501 502 503
4 504 505 506 507
4 508 509 510 511
4 512 513 514 515
4 516 517 518 519
4 520 521 522 523
4 524 525 526 527
4 528 529 530 531
4 532 533 534 535
4 536 537 538 539
4 540 541 542 543
4 544 545 546 547
4 548 549 550 551
4 552 553 554 555
4 556 557 558 559
4 560 561 562 563
4 564 565 566 567
4 568 569 570 571
4 572 573 574 575
4 576 577 578 579
4 580 581 582 583
4 584 585 586 587
4 588 589 590 591
4 592 593 594 595
4 596 597 598 599
4 600 601 602 603
4 604 605 606 607
4 608 609 610 611
4 612 613 614 615
4 616 617 618 619
4 620 621 622 623
4 624 625 626 627
4 628 629 630 631
4 632 633 634 635
4 636 637 638 639
4 640 641 642 643
4 644 645 646 647
4 648 649 650 651
4 652 653 654 655
4 656 657 658 659
4 660 661 662 663
4 664 665 666 667
4 668 669 670 671
4 672 673 674 675
4 676 677 678 679
4 680 681 682 683
4 684 685 686 687
4 688 689 690 691
4 692 693 694 695
4 696 697 698 699
4 700 701 702 703
4 704 705 706 707
4 708 709 710 711
4 712 713 714 715
4 716 717 718 719
4 720 721 722 723
4 724 725 726 727
4 728 729 730 731
4 732 733 734 735
4 736 737 738 739
4 740 741 742 743
4 744 745 746 747
4 748 749 750 751
4 752 753 754 755
4 756 757 758 759
4 760 761 762 763
4 764 765 766 767
4 768 769 770 771
4 772 773 774 775
4 776 777 778 779
4 780 781 782 783
4 784 785 786 787
4 788 789 790 791
4 792 793 794 795
4 796 797 798 799
4 800 801 802 803
4 804 805 806 807
4 808 809 810 811
4 812 813 814 815
4 816 817 818 819
4 820 821 822 823
4 824 825 826 827
4 828 829 830 831
4 832 833 834 835
4 836 837 838 839
4 840 841 842 843
4 844 845 846 847
4 848 849 850 851
4 852 853 854 855
4 856 857 858 859
4 860 861 862 863
4 864 865 866 867
4 868 869 870 871
4 872 873 874 875
4 876 877 878 879
4 880 881 882 883
4 884 885 886 887
4 888 889 890 891
4 892 893 894 895
