ply
format ascii 1.0
element vertex 720
property float x
property float y
property float z
property float nx
property float ny
property float nz
element quads 180
property list uchar int vertex_indices
end_header
385 26.5 0 -0 -1 0
268.75 26.5 0 -0 -1 0
268.75 26.5 100 -0 -1 0
385 26.5 100 -0 -1 0
385 29.5 0 0 1 0
269.25 29.5 0 0 1 0
269.25 29.5 100 0 1 0
385 29.5 100 0 1 0
268.75 26.5 0 -1 0 0
268.75 54 0 -1 0 0
268.75 54 100 -1 0 0
268.75 26.5 100 -1 0 0
269.25 29.5 0 1 -0 0
269.25 54 0 1 -0 0
269.25 54 100 1 -0 0
269.25 29.5 100 1 -0 0
247 26.3369560241699219 0 -0 -1 0
211.375 26.3369560241699219 0 -0 -1 0
211.375 26.3369560241699219 100 -0 -1 0
247 26.3369560241699219 100 -0 -1 0
247 29.6630439758300781 0 0 1 0
216.625 29.6630439758300781 0 0 1 0
216.625 29.6630439758300781 100 0 1 0
247 29.6630439758300781 100 0 1 0
211.375 26.3369560241699219 0 -1 0 0
211.375 54.3206520080566406 0 -1 0 0
211.375 54.3206520080566406 100 -1 0 0
211.375 26.3369560241699219 100 -1 0 0
216.625 29.6630439758300781 0 1 -0 0
216.625 59.6793479919433594 0 1 -0 0
216.625 59.6793479919433594 100 1 -0 0
216.625 29.6630439758300781 100 1 -0 0
215.739578247070312 212.970001220703125 0 1 0 0
215.739578247070312 143.942703247070312 0 1 0 0
215.739578247070312 143.942703247070312 100 1 0 0
215.739578247070312 212.970001220703125 100 1 0 0
212.260421752929688 217.029998779296875 0 -1 -0 0
212.260421752929688 148.057296752929688 0 -1 -0 0
212.260421752929688 148.057296752929688 100 -1 -0 0
212.260421752929688 217.029998779296875 100 -1 -0 0
212.260421752929688 217.029998779296875 0 -0 1 0
248 217.029998779296875 0 -0 1 0
248 217.029998779296875 100 -0 1 0
212.260421752929688 217.029998779296875 100 -0 1 0
215.739578247070312 212.970001220703125 0 0 -1 0
248 212.970001220703125 0 0 -1 0
248 212.970001220703125 100 0 -1 0
215.739578247070312 212.970001220703125 100 0 -1 0
215.739578247070312 143.942703247070312 0 -0 -1 0
150 143.942703247070312 0 -0 -1 0
150 143.942703247070312 100 -0 -1 0
215.739578247070312 143.942703247070312 100 -0 -1 0
212.260421752929688 148.057296752929688 0 0 1 0
150 148.057296752929688 0 0 1 0
150 148.057296752929688 100 0 1 0
212.260421752929688 148.057296752929688 100 0 1 0
211.375 54.3206520080566406 0 -0 -1 0
148.509994506835938 54.3206520080566406 0 -0 -1 0
148.509994506835938 54.3206520080566406 100 -0 -1 0
211.375 54.3206520080566406 100 -0 -1 0
216.625 59.6793479919433594 0 0 1 0
151.490005493164062 59.6793479919433594 0 0 1 0
151.490005493164062 59.6793479919433594 100 0 1 0
216.625 59.6793479919433594 100 0 1 0
205.544525146484375 332.54852294921875 0 0.70710676908493042 0.70710676908493042 0
251.429351806640625 286.6636962890625 0 0.70710676908493042 0.70710676908493042 0
251.429351806640625 286.6636962890625 100 0.70710676908493042 0.70710676908493042 0
205.544525146484375 332.54852294921875 100 0.70710676908493042 0.70710676908493042 0
200.455474853515625 333.45147705078125 0 -0.70710676908493042 -0.70710676908493042 0
248.570648193359375 285.3363037109375 0 -0.70710676908493042 -0.70710676908493042 0
248.570648193359375 285.3363037109375 100 -0.70710676908493042 -0.70710676908493042 0
200.455474853515625 333.45147705078125 100 -0.70710676908493042 -0.70710676908493042 0
200.455474853515625 333.45147705078125 0 -0.696032285690307617 0.718010485172271729 0
218.805877685546875 351.24017333984375 0 -0.696032285690307617 0.718010485172271729 0
218.805877685546875 351.24017333984375 100 -0.696032285690307617 0.718010485172271729 0
200.455474853515625 333.45147705078125 100 -0.696032285690307617 0.718010485172271729 0
205.544525146484375 332.54852294921875 0 0.696032285690307617 -0.718010485172271729 0
221.722579956054688 348.23138427734375 0 0.696032285690307617 -0.718010485172271729 0
221.722579956054688 348.23138427734375 100 0.696032285690307617 -0.718010485172271729 0
205.544525146484375 332.54852294921875 100 0.696032285690307617 -0.718010485172271729 0
251.429351806640625 286.6636962890625 0 1 0 0
251.429351806640625 203.2491455078125 0 1 0 0
251.429351806640625 203.2491455078125 100 1 0 0
251.429351806640625 286.6636962890625 100 1 0 0
248.570648193359375 285.3363037109375 0 -1 -0 0
248.570648193359375 210.7508544921875 0 -1 -0 0
248.570648193359375 210.7508544921875 100 -1 -0 0
248.570648193359375 285.3363037109375 100 -1 -0 0
590 203.271011352539062 0 -0 -1 0
524 203.271011352539062 0 -0 -1 0
524 203.271011352539062 100 -0 -1 0
590 203.271011352539062 100 -0 -1 0
590 210.771011352539062 0 0 1 0
524 210.771011352539062 0 0 1 0
524 210.771011352539062 100 0 1 0
590 210.771011352539062 100 0 1 0
148.509994506835938 54.3206520080566406 0 -1 0 0
148.509994506835938 73 0 -1 0 0
148.509994506835938 73 100 -1 0 0
148.509994506835938 54.3206520080566406 100 -1 0 0
151.490005493164062 59.6793479919433594 0 1 -0 0
151.490005493164062 73 0 1 -0 0
151.490005493164062 73 100 1 -0 0
151.490005493164062 59.6793479919433594 100 1 -0 0
410.5 370.375 0 -0 -1 0
336.457763671875 370.375 0 -0 -1 0
336.457763671875 370.375 100 -0 -1 0
410.5 370.375 100 -0 -1 0
407.5 375.625 0 0 1 0
337.542236328125 375.625 0 0 1 0
337.542236328125 375.625 100 0 1 0
407.5 375.625 100 0 1 0
407.5 375.625 0 -1 0 0
407.5 430.434783935546875 0 -1 0 0
407.5 430.434783935546875 100 -1 0 0
407.5 375.625 100 -1 0 0
410.5 370.375 0 1 -0 0
410.5 427.565216064453125 0 1 -0 0
410.5 427.565216064453125 100 1 -0 0
410.5 370.375 100 1 -0 0
336.457763671875 370.375 0 -0.70710676908493042 -0.70710676908493042 0
289.799407958984375 417.0333251953125 0 -0.70710676908493042 -0.70710676908493042 0
289.799407958984375 417.0333251953125 100 -0.70710676908493042 -0.70710676908493042 0
336.457763671875 370.375 100 -0.70710676908493042 -0.70710676908493042 0
337.542236328125 375.625 0 0.70710676908493042 0.70710676908493042 0
290.200592041015625 422.9666748046875 0 0.70710676908493042 0.70710676908493042 0
290.200592041015625 422.9666748046875 100 0.70710676908493042 0.70710676908493042 0
337.542236328125 375.625 100 0.70710676908493042 0.70710676908493042 0
439.153961181640625 142.846038818359375 0 0.70710676908493042 -0.70710676908493042 0
416.653961181640625 120.346046447753906 0 0.70710676908493042 -0.70710676908493042 0
416.653961181640625 120.346046447753906 100 0.70710676908493042 -0.70710676908493042 0
439.153961181640625 142.846038818359375 100 0.70710676908493042 -0.70710676908493042 0
436.357666015625 145.642333984375 0 -0.70710676908493042 0.70710676908493042 0
413.857666015625 123.142326354980469 0 -0.70710676908493042 0.70710676908493042 0
413.857666015625 123.142326354980469 100 -0.70710676908493042 0.70710676908493042 0
436.357666015625 145.642333984375 100 -0.70710676908493042 0.70710676908493042 0
502.557525634765625 206.442474365234375 0 0.70710676908493042 -0.70710676908493042 0
479.557525634765625 183.442474365234375 0 0.70710676908493042 -0.70710676908493042 0
479.557525634765625 183.442474365234375 100 0.70710676908493042 -0.70710676908493042 0
502.557525634765625 206.442474365234375 100 0.70710676908493042 -0.70710676908493042 0
499.9541015625 209.0458984375 0 -0.70710676908493042 0.70710676908493042 0
476.9541015625 186.0458984375 0 -0.70710676908493042 0.70710676908493042 0
476.9541015625 186.0458984375 100 -0.70710676908493042 0.70710676908493042 0
499.9541015625 209.0458984375 100 -0.70710676908493042 0.70710676908493042 0
151.028228759765625 146 0 1 0 0
151.028228759765625 130 0 1 0 0
151.028228759765625 130 100 1 0 0
151.028228759765625 146 100 1 0 0
148.059478759765625 146 0 -1 -0 0
148.059478759765625 130 0 -1 -0 0
148.059478759765625 130 100 -1 -0 0
148.059478759765625 146 100 -1 -0 0
289.799407958984375 417.0333251953125 0 0.717701375484466553 -0.696350991725921631 0
274.1435546875 400.8974609375 0 0.717701375484466553 -0.696350991725921631 0
274.1435546875 400.8974609375 100 0.717701375484466553 -0.696350991725921631 0
289.799407958984375 417.0333251953125 100 0.717701375484466553 -0.696350991725921631 0
290.200592041015625 422.9666748046875 0 -0.717701375484466553 0.696350991725921631 0
271.3848876953125 403.574066162109375 0 -0.717701375484466553 0.696350991725921631 0
271.3848876953125 403.574066162109375 100 -0.717701375484466553 0.696350991725921631 0
290.200592041015625 422.9666748046875 100 -0.717701375484466553 0.696350991725921631 0
486 470.375 0 -0 -1 0
472.375 470.375 0 -0 -1 0
472.375 470.375 100 -0 -1 0
486 470.375 100 -0 -1 0
486 475.625 0 0 1 0
469.625 475.625 0 0 1 0
469.625 475.625 100 0 1 0
486 475.625 100 0 1 0
472.375 470.375 0 1 0 0
472.375 427.565216064453125 0 1 0 0
472.375 427.565216064453125 100 1 0 0
472.375 470.375 100 1 0 0
469.625 475.625 0 -1 -0 0
469.625 430.434783935546875 0 -1 -0 0
469.625 430.434783935546875 100 -1 -0 0
469.625 475.625 100 -1 -0 0
378.732147216796875 7.36931800842285156 0 -0 -1 0
337.418487548828125 7.36931800842285156 0 -0 -1 0
337.418487548828125 7.36931800842285156 100 -0 -1 0
378.732147216796875 7.36931800842285156 100 -0 -1 0
375.267852783203125 12.6306819915771484 0 0 1 0
338.581512451171875 12.6306819915771484 0 0 1 0
338.581512451171875 12.6306819915771484 100 0 1 0
375.267852783203125 12.6306819915771484 100 0 1 0
375.267852783203125 12.6306819915771484 0 -1 0 0
375.267852783203125 26 0 -1 0 0
375.267852783203125 26 100 -1 0 0
375.267852783203125 12.6306819915771484 100 -1 0 0
378.732147216796875 7.36931800842285156 0 1 -0 0
378.732147216796875 26 0 1 -0 0
378.732147216796875 26 100 1 -0 0
378.732147216796875 7.36931800842285156 100 1 -0 0
337.418487548828125 7.36931800842285156 0 -1 0 0
337.418487548828125 25 0 -1 0 0
337.418487548828125 25 100 -1 0 0
337.418487548828125 7.36931800842285156 100 -1 0 0
338.581512451171875 12.6306819915771484 0 1 -0 0
338.581512451171875 25 0 1 -0 0
338.581512451171875 25 100 1 -0 0
338.581512451171875 12.6306819915771484 100 1 -0 0
472.375 427.565216064453125 0 -0 -1 0
410.5 427.565216064453125 0 -0 -1 0
410.5 427.565216064453125 100 -0 -1 0
472.375 427.565216064453125 100 -0 -1 0
469.625 430.434783935546875 0 0 1 0
407.5 430.434783935546875 0 0 1 0
407.5 430.434783935546875 100 0 1 0
469.625 430.434783935546875 100 0 1 0
187.676651000976562 381.3233642578125 0 0.70710676908493042 -0.70710676908493042 0
169.676651000976562 363.3233642578125 0 0.70710676908493042 -0.70710676908493042 0
169.676651000976562 363.3233642578125 100 0.70710676908493042 -0.70710676908493042 0
187.676651000976562 381.3233642578125 100 0.70710676908493042 -0.70710676908493042 0
182.37335205078125 386.62664794921875 0 -0.70710676908493042 0.70710676908493042 0
164.37335205078125 368.62664794921875 0 -0.70710676908493042 0.70710676908493042 0
164.37335205078125 368.62664794921875 100 -0.70710676908493042 0.70710676908493042 0
182.37335205078125 386.62664794921875 100 -0.70710676908493042 0.70710676908493042 0
271.85302734375 441.14697265625 0 0.70710676908493042 -0.70710676908493042 0
253.85302734375 423.14697265625 0 0.70710676908493042 -0.70710676908493042 0
253.85302734375 423.14697265625 100 0.70710676908493042 -0.70710676908493042 0
271.85302734375 441.14697265625 100 0.70710676908493042 -0.70710676908493042 0
242.196975708007812 470.80303955078125 0 -0.70710676908493042 0.70710676908493042 0
224.196975708007812 452.80303955078125 0 -0.70710676908493042 0.70710676908493042 0
224.196975708007812 452.80303955078125 100 -0.70710676908493042 0.70710676908493042 0
242.196975708007812 470.80303955078125 100 -0.70710676908493042 0.70710676908493042 0
551 312.5823974609375 0 -0 -1 0
532 312.5823974609375 0 -0 -1 0
532 312.5823974609375 100 -0 -1 0
551 312.5823974609375 100 -0 -1 0
551 314.2301025390625 0 0 1 0
532 314.2301025390625 0 0 1 0
532 314.2301025390625 100 0 1 0
551 314.2301025390625 100 0 1 0
557 245.75 0 -0 -1 0
547 245.75 0 -0 -1 0
547 245.75 100 -0 -1 0
557 245.75 100 -0 -1 0
557 259.25 0 0 1 0
547 259.25 0 0 1 0
547 259.25 100 0 1 0
557 259.25 100 0 1 0
560.33154296875 430.479156494140625 0 -0 1 0
680.47454833984375 430.479156494140625 0 -0 1 0
680.47454833984375 430.479156494140625 100 -0 1 0
560.33154296875 430.479156494140625 100 -0 1 0
557.66845703125 427.520843505859375 0 0 -1 0
677.52545166015625 427.520843505859375 0 0 -1 0
677.52545166015625 427.520843505859375 100 0 -1 0
557.66845703125 427.520843505859375 100 0 -1 0
557.66845703125 427.520843505859375 0 -1 0 0
557.66845703125 469.390777587890625 0 -1 0 0
557.66845703125 469.390777587890625 100 -1 0 0
557.66845703125 427.520843505859375 100 -1 0 0
560.33154296875 430.479156494140625 0 1 -0 0
560.33154296875 474.609222412109375 0 1 -0 0
560.33154296875 474.609222412109375 100 1 -0 0
560.33154296875 430.479156494140625 100 1 -0 0
680.47454833984375 430.479156494140625 0 0.999907076358795166 0.0136325452476739883 0
680.9989013671875 392.0203857421875 0 0.999907076358795166 0.0136325452476739883 0
680.9989013671875 392.0203857421875 100 0.999907076358795166 0.0136325452476739883 0
680.47454833984375 430.479156494140625 100 0.999907076358795166 0.0136325452476739883 0
677.52545166015625 427.520843505859375 0 -0.999907076358795166 -0.0136325452476739883 0
678.010009765625 391.9796142578125 0 -0.999907076358795166 -0.0136325452476739883 0
678.010009765625 391.9796142578125 100 -0.999907076358795166 -0.0136325452476739883 0
677.52545166015625 427.520843505859375 100 -0.999907076358795166 -0.0136325452476739883 0
681.375 335 0 1 0 0
681.375 203.249130249023438 0 1 0 0
681.375 203.249130249023438 100 1 0 0
681.375 335 100 1 0 0
678.625 335 0 -1 -0 0
678.625 210.750869750976562 0 -1 -0 0
678.625 210.750869750976562 100 -1 -0 0
678.625 335 100 -1 -0 0
681.375 203.249130249023438 0 -0.000636618176940828562 -0.999999821186065674 0
646.99761962890625 203.271011352539062 0 -0.000636618176940828562 -0.999999821186065674 0
646.99761962890625 203.271011352539062 100 -0.000636618176940828562 -0.999999821186065674 0
681.375 203.249130249023438 100 -0.000636618176940828562 -0.999999821186065674 0
678.625 210.750869750976562 0 0.000636618176940828562 0.999999821186065674 0
647.00238037109375 210.771011352539062 0 0.000636618176940828562 0.999999821186065674 0
647.00238037109375 210.771011352539062 100 0.000636618176940828562 0.999999821186065674 0
678.625 210.750869750976562 100 0.000636618176940828562 0.999999821186065674 0
215.00225830078125 210.771011352539062 0 0.000600239960476756096 0.999999821186065674 0
248.570648193359375 210.7508544921875 0 0.000600239960476756096 0.999999821186065674 0
248.570648193359375 210.7508544921875 100 0.000600239960476756096 0.999999821186065674 0
215.00225830078125 210.771011352539062 100 0.000600239960476756096 0.999999821186065674 0
214.99774169921875 203.271011352539062 0 -0.000600239960476756096 -0.999999821186065674 0
251.429351806640625 203.2491455078125 0 -0.000600239960476756096 -0.999999821186065674 0
251.429351806640625 203.2491455078125 100 -0.000600239960476756096 -0.999999821186065674 0
214.99774169921875 203.271011352539062 100 -0.000600239960476756096 -0.999999821186065674 0
544.1748046875 475.661285400390625 0 0.0649786666035652161 0.99788665771484375 0
560.33154296875 474.609222412109375 0 0.0649786666035652161 0.99788665771484375 0
560.33154296875 474.609222412109375 100 0.0649786666035652161 0.99788665771484375 0
544.1748046875 475.661285400390625 100 0.0649786666035652161 0.99788665771484375 0
543.8251953125 470.292205810546875 0 -0.0649786666035652161 -0.99788665771484375 0
557.66845703125 469.390777587890625 0 -0.0649786666035652161 -0.99788665771484375 0
557.66845703125 469.390777587890625 100 -0.0649786666035652161 -0.99788665771484375 0
543.8251953125 470.292205810546875 100 -0.0649786666035652161 -0.99788665771484375 0
385 26.5 0 382.68817138671875 26.2720432281494141 0
385 29.5 0 382.68817138671875 26.2720432281494141 0
385 29.5 100 382.68817138671875 26.2720432281494141 0
385 26.5 100 382.68817138671875 26.2720432281494141 0
247 26.3369560241699219 0 241.066665649414062 25.5976734161376953 0
247 29.6630439758300781 0 241.066665649414062 25.5976734161376953 0
247 29.6630439758300781 100 241.066665649414062 25.5976734161376953 0
247 26.3369560241699219 100 241.066665649414062 25.5976734161376953 0
590 203.271011352539062 0 582.06060791015625 200.191146850585938 0
590 210.771011352539062 0 582.06060791015625 200.191146850585938 0
590 210.771011352539062 100 582.06060791015625 200.191146850585938 0
590 203.271011352539062 100 582.06060791015625 200.191146850585938 0
524 203.271011352539062 0 515.06060791015625 200.191146850585938 0
524 210.771011352539062 0 515.06060791015625 200.191146850585938 0
524 210.771011352539062 100 515.06060791015625 200.191146850585938 0
524 203.271011352539062 100 515.06060791015625 200.191146850585938 0
439.153961181640625 142.846038818359375 0 426.059783935546875 139.063934326171875 0
436.357666015625 145.642333984375 0 426.059783935546875 139.063934326171875 0
436.357666015625 145.642333984375 100 426.059783935546875 139.063934326171875 0
439.153961181640625 142.846038818359375 100 426.059783935546875 139.063934326171875 0
416.653961181640625 120.346046447753906 0 402.852691650390625 115.856826782226562 0
413.857666015625 123.142326354980469 0 402.852691650390625 115.856826782226562 0
413.857666015625 123.142326354980469 100 402.852691650390625 115.856826782226562 0
416.653961181640625 120.346046447753906 100 402.852691650390625 115.856826782226562 0
502.557525634765625 206.442474365234375 0 487.814117431640625 200.802749633789062 0
499.9541015625 209.0458984375 0 487.814117431640625 200.802749633789062 0
499.9541015625 209.0458984375 100 487.814117431640625 200.802749633789062 0
502.557525634765625 206.442474365234375 100 487.814117431640625 200.802749633789062 0
479.557525634765625 183.442474365234375 0 464.107025146484375 177.09564208984375 0
476.9541015625 186.0458984375 0 464.107025146484375 177.09564208984375 0
476.9541015625 186.0458984375 100 464.107025146484375 177.09564208984375 0
479.557525634765625 183.442474365234375 100 464.107025146484375 177.09564208984375 0
150 143.942703247070312 0 146.718276977539062 141.75311279296875 0
150 148.057296752929688 0 146.718276977539062 141.75311279296875 0
150 148.057296752929688 100 146.718276977539062 141.75311279296875 0
150 143.942703247070312 100 146.718276977539062 141.75311279296875 0
151.028228759765625 146 0 141.588973999023438 137.875 0
148.059478759765625 146 0 141.588973999023438 137.875 0
148.059478759765625 146 100 141.588973999023438 137.875 0
151.028228759765625 146 100 141.588973999023438 137.875 0
151.028228759765625 130 0 141.588973999023438 120.875 0
148.059478759765625 130 0 141.588973999023438 120.875 0
148.059478759765625 130 100 141.588973999023438 120.875 0
151.028228759765625 130 100 141.588973999023438 120.875 0
148.509994506835938 73 0 140.55950927734375 70.0919418334960938 0
151.490005493164062 73 0 140.55950927734375 70.0919418334960938 0
151.490005493164062 73 100 140.55950927734375 70.0919418334960938 0
148.509994506835938 73 100 140.55950927734375 70.0919418334960938 0
486 470.375 0 451.33026123046875 435.85205078125 0
486 475.625 0 451.33026123046875 435.85205078125 0
486 475.625 100 451.33026123046875 435.85205078125 0
486 470.375 100 451.33026123046875 435.85205078125 0
218.805877685546875 351.24017333984375 0 210.962493896484375 338.192962646484375 0
221.722579956054688 348.23138427734375 0 210.962493896484375 338.192962646484375 0
221.722579956054688 348.23138427734375 100 210.962493896484375 338.192962646484375 0
218.805877685546875 351.24017333984375 100 210.962493896484375 338.192962646484375 0
274.1435546875 400.8974609375 0 261.253662109375 382.348388671875 0
271.3848876953125 403.574066162109375 0 261.253662109375 382.348388671875 0
271.3848876953125 403.574066162109375 100 261.253662109375 382.348388671875 0
274.1435546875 400.8974609375 100 261.253662109375 382.348388671875 0
187.676651000976562 381.3233642578125 0 181.011123657226562 367.0506591796875 0
182.37335205078125 386.62664794921875 0 181.011123657226562 367.0506591796875 0
182.37335205078125 386.62664794921875 100 181.011123657226562 367.0506591796875 0
187.676651000976562 381.3233642578125 100 181.011123657226562 367.0506591796875 0
169.676651000976562 363.3233642578125 0 162.30401611328125 348.34356689453125 0
164.37335205078125 368.62664794921875 0 162.30401611328125 348.34356689453125 0
164.37335205078125 368.62664794921875 100 162.30401611328125 348.34356689453125 0
169.676651000976562 363.3233642578125 100 162.30401611328125 348.34356689453125 0
271.85302734375 441.14697265625 0 261.8807373046875 424.524200439453125 0
242.196975708007812 470.80303955078125 0 261.8807373046875 424.524200439453125 0
242.196975708007812 470.80303955078125 100 261.8807373046875 424.524200439453125 0
271.85302734375 441.14697265625 100 261.8807373046875 424.524200439453125 0
253.85302734375 423.14697265625 0 243.173629760742188 405.81707763671875 0
224.196975708007812 452.80303955078125 0 243.173629760742188 405.81707763671875 0
224.196975708007812 452.80303955078125 100 243.173629760742188 405.81707763671875 0
253.85302734375 423.14697265625 100 243.173629760742188 405.81707763671875 0
551 312.5823974609375 0 523 296.13067626953125 0
551 314.2301025390625 0 523 296.13067626953125 0
551 314.2301025390625 100 523 296.13067626953125 0
551 312.5823974609375 100 523 296.13067626953125 0
532 312.5823974609375 0 503 296.13067626953125 0
532 314.2301025390625 0 503 296.13067626953125 0
532 314.2301025390625 100 503 296.13067626953125 0
532 312.5823974609375 100 503 296.13067626953125 0
268.75 54 0 258.977264404296875 53.0363655090332031 0
269.25 54 0 258.977264404296875 53.0363655090332031 0
269.25 54 100 258.977264404296875 53.0363655090332031 0
268.75 54 100 258.977264404296875 53.0363655090332031 0
248 217.029998779296875 0 242.0609130859375 210.95745849609375 0
248 212.970001220703125 0 242.0609130859375 210.95745849609375 0
248 212.970001220703125 100 242.0609130859375 210.95745849609375 0
248 217.029998779296875 100 242.0609130859375 210.95745849609375 0
557 245.75 0 502.29998779296875 221.175003051757812 0
557 259.25 0 502.29998779296875 221.175003051757812 0
557 259.25 100 502.29998779296875 221.175003051757812 0
557 245.75 100 502.29998779296875 221.175003051757812 0
547 245.75 0 491.29998779296875 221.175003051757812 0
547 259.25 0 491.29998779296875 221.175003051757812 0
547 259.25 100 491.29998779296875 221.175003051757812 0
547 245.75 100 491.29998779296875 221.175003051757812 0
375.267852783203125 26 0 347.198516845703125 25.0552482604980469 0
378.732147216796875 26 0 347.198516845703125 25.0552482604980469 0
378.732147216796875 26 100 347.198516845703125 25.0552482604980469 0
375.267852783203125 26 100 347.198516845703125 25.0552482604980469 0
337.418487548828125 25 0 318.28033447265625 24.5820178985595703 0
338.581512451171875 25 0 318.28033447265625 24.5820178985595703 0
338.581512451171875 25 100 318.28033447265625 24.5820178985595703 0
337.418487548828125 25 100 318.28033447265625 24.5820178985595703 0
680.9989013671875 392.0203857421875 0 663.30694580078125 380.828155517578125 0
678.010009765625 391.9796142578125 0 663.30694580078125 380.828155517578125 0
678.010009765625 391.9796142578125 100 663.30694580078125 380.828155517578125 0
680.9989013671875 392.0203857421875 100 663.30694580078125 380.828155517578125 0
681.375 335 0 676.20330810546875 333.45733642578125 0
678.625 335 0 676.20330810546875 333.45733642578125 0
678.625 335 100 676.20330810546875 333.45733642578125 0
681.375 335 100 676.20330810546875 333.45733642578125 0
646.99761962890625 203.271011352539062 0 627.17718505859375 197.358718872070312 0
647.00238037109375 210.771011352539062 0 627.17718505859375 197.358718872070312 0
647.00238037109375 210.771011352539062 100 627.17718505859375 197.358718872070312 0
646.99761962890625 203.271011352539062 100 627.17718505859375 197.358718872070312 0
215.00225830078125 210.771011352539062 0 207.59735107421875 204.492752075195312 0
214.99774169921875 203.271011352539062 0 207.59735107421875 204.492752075195312 0
214.99774169921875 203.271011352539062 100 207.59735107421875 204.492752075195312 0
215.00225830078125 210.771011352539062 100 207.59735107421875 204.492752075195312 0
544.1748046875 475.661285400390625 0 509.56707763671875 446.347991943359375 0
543.8251953125 470.292205810546875 0 509.56707763671875 446.347991943359375 0
543.8251953125 470.292205810546875 100 509.56707763671875 446.347991943359375 0
544.1748046875 475.661285400390625 100 509.56707763671875 446.347991943359375 0
385 26.5 0 0 0 -1
385 29.5 0 0 0 -1
269.25 29.5 0 0 0 -1
268.75 26.5 0 0 0 -1
385 26.5 100 0 0 1
385 29.5 100 0 0 1
269.25 29.5 100 0 0 1
268.75 26.5 100 0 0 1
268.75 26.5 0 0 0 -1
269.25 29.5 0 0 0 -1
269.25 54 0 0 0 -1
268.75 54 0 0 0 -1
268.75 26.5 100 0 0 1
269.25 29.5 100 0 0 1
269.25 54 100 0 0 1
268.75 54 100 0 0 1
247 26.3369560241699219 0 0 0 -1
247 29.6630439758300781 0 0 0 -1
216.625 29.6630439758300781 0 0 0 -1
211.375 26.3369560241699219 0 0 0 -1
247 26.3369560241699219 100 0 0 1
247 29.6630439758300781 100 0 0 1
216.625 29.6630439758300781 100 0 0 1
211.375 26.3369560241699219 100 0 0 1
211.375 26.3369560241699219 0 0 0 -1
216.625 29.6630439758300781 0 0 0 -1
216.625 59.6793479919433594 0 0 0 -1
211.375 54.3206520080566406 0 0 0 -1
211.375 26.3369560241699219 100 0 0 1
216.625 29.6630439758300781 100 0 0 1
216.625 59.6793479919433594 100 0 0 1
211.375 54.3206520080566406 100 0 0 1
215.739578247070312 212.970001220703125 0 0 0 -1
212.260421752929688 217.029998779296875 0 0 0 -1
212.260421752929688 148.057296752929688 0 0 0 -1
215.739578247070312 143.942703247070312 0 0 0 -1
215.739578247070312 212.970001220703125 100 0 0 1
212.260421752929688 217.029998779296875 100 0 0 1
212.260421752929688 148.057296752929688 100 0 0 1
215.739578247070312 143.942703247070312 100 0 0 1
212.260421752929688 217.029998779296875 0 0 0 -1
215.739578247070312 212.970001220703125 0 0 0 -1
248 212.970001220703125 0 0 0 -1
248 217.029998779296875 0 0 0 -1
212.260421752929688 217.029998779296875 100 0 0 1
215.739578247070312 212.970001220703125 100 0 0 1
248 212.970001220703125 100 0 0 1
248 217.029998779296875 100 0 0 1
215.739578247070312 143.942703247070312 0 0 0 -1
212.260421752929688 148.057296752929688 0 0 0 -1
150 148.057296752929688 0 0 0 -1
150 143.942703247070312 0 0 0 -1
215.739578247070312 143.942703247070312 100 0 0 1
212.260421752929688 148.057296752929688 100 0 0 1
150 148.057296752929688 100 0 0 1
150 143.942703247070312 100 0 0 1
211.375 54.3206520080566406 0 0 0 -1
216.625 59.6793479919433594 0 0 0 -1
151.490005493164062 59.6793479919433594 0 0 0 -1
148.509994506835938 54.3206520080566406 0 0 0 -1
211.375 54.3206520080566406 100 0 0 1
216.625 59.6793479919433594 100 0 0 1
151.490005493164062 59.6793479919433594 100 0 0 1
148.509994506835938 54.3206520080566406 100 0 0 1
205.544525146484375 332.54852294921875 0 0 0 -1
200.455474853515625 333.45147705078125 0 0 0 -1
248.570648193359375 285.3363037109375 0 0 0 -1
251.429351806640625 286.6636962890625 0 0 0 -1
205.544525146484375 332.54852294921875 100 0 0 1
200.455474853515625 333.45147705078125 100 0 0 1
248.570648193359375 285.3363037109375 100 0 0 1
251.429351806640625 286.6636962890625 100 0 0 1
200.455474853515625 333.45147705078125 0 0 0 -1
205.544525146484375 332.54852294921875 0 0 0 -1
221.722579956054688 348.23138427734375 0 0 0 -1
218.805877685546875 351.24017333984375 0 0 0 -1
200.455474853515625 333.45147705078125 100 0 0 1
205.544525146484375 332.54852294921875 100 0 0 1
221.722579956054688 348.23138427734375 100 0 0 1
218.805877685546875 351.24017333984375 100 0 0 1
251.429351806640625 286.6636962890625 0 0 0 -1
248.570648193359375 285.3363037109375 0 0 0 -1
248.570648193359375 210.7508544921875 0 0 0 -1
251.429351806640625 203.2491455078125 0 0 0 -1
251.429351806640625 286.6636962890625 100 0 0 1
248.570648193359375 285.3363037109375 100 0 0 1
248.570648193359375 210.7508544921875 100 0 0 1
251.429351806640625 203.2491455078125 100 0 0 1
590 203.271011352539062 0 0 0 -1
590 210.771011352539062 0 0 0 -1
524 210.771011352539062 0 0 0 -1
524 203.271011352539062 0 0 0 -1
590 203.271011352539062 100 0 0 1
590 210.771011352539062 100 0 0 1
524 210.771011352539062 100 0 0 1
524 203.271011352539062 100 0 0 1
148.509994506835938 54.3206520080566406 0 0 0 -1
151.490005493164062 59.6793479919433594 0 0 0 -1
151.490005493164062 73 0 0 0 -1
148.509994506835938 73 0 0 0 -1
148.509994506835938 54.3206520080566406 100 0 0 1
151.490005493164062 59.6793479919433594 100 0 0 1
151.490005493164062 73 100 0 0 1
148.509994506835938 73 100 0 0 1
410.5 370.375 0 0 0 -1
407.5 375.625 0 0 0 -1
337.542236328125 375.625 0 0 0 -1
336.457763671875 370.375 0 0 0 -1
410.5 370.375 100 0 0 1
407.5 375.625 100 0 0 1
337.542236328125 375.625 100 0 0 1
336.457763671875 370.375 100 0 0 1
407.5 375.625 0 0 0 -1
410.5 370.375 0 0 0 -1
410.5 427.565216064453125 0 0 0 -1
407.5 430.434783935546875 0 0 0 -1
407.5 375.625 100 0 0 1
410.5 370.375 100 0 0 1
410.5 427.565216064453125 100 0 0 1
407.5 430.434783935546875 100 0 0 1
336.457763671875 370.375 0 0 0 -1
337.542236328125 375.625 0 0 0 -1
290.200592041015625 422.9666748046875 0 0 0 -1
289.799407958984375 417.0333251953125 0 0 0 -1
336.457763671875 370.375 100 0 0 1
337.542236328125 375.625 100 0 0 1
290.200592041015625 422.9666748046875 100 0 0 1
289.799407958984375 417.0333251953125 100 0 0 1
439.153961181640625 142.846038818359375 0 0 0 -1
436.357666015625 145.642333984375 0 0 0 -1
413.857666015625 123.142326354980469 0 0 0 -1
416.653961181640625 120.346046447753906 0 0 0 -1
439.153961181640625 142.846038818359375 100 0 0 1
436.357666015625 145.642333984375 100 0 0 1
413.857666015625 123.142326354980469 100 0 0 1
416.653961181640625 120.346046447753906 100 0 0 1
502.557525634765625 206.442474365234375 0 0 0 -1
499.9541015625 209.0458984375 0 0 0 -1
476.9541015625 186.0458984375 0 0 0 -1
479.557525634765625 183.442474365234375 0 0 0 -1
502.557525634765625 206.442474365234375 100 0 0 1
499.9541015625 209.0458984375 100 0 0 1
476.9541015625 186.0458984375 100 0 0 1
479.557525634765625 183.442474365234375 100 0 0 1
151.028228759765625 146 0 0 0 -1
148.059478759765625 146 0 0 0 -1
148.059478759765625 130 0 0 0 -1
151.028228759765625 130 0 0 0 -1
151.028228759765625 146 100 0 0 1
148.059478759765625 146 100 0 0 1
148.059478759765625 130 100 0 0 1
151.028228759765625 130 100 0 0 1
289.799407958984375 417.0333251953125 0 0 0 -1
290.200592041015625 422.9666748046875 0 0 0 -1
271.3848876953125 403.574066162109375 0 0 0 -1
274.1435546875 400.8974609375 0 0 0 -1
289.799407958984375 417.0333251953125 100 0 0 1
290.200592041015625 422.9666748046875 100 0 0 1
271.3848876953125 403.574066162109375 100 0 0 1
274.1435546875 400.8974609375 100 0 0 1
486 470.375 0 0 0 -1
486 475.625 0 0 0 -1
469.625 475.625 0 0 0 -1
472.375 470.375 0 0 0 -1
486 470.375 100 0 0 1
486 475.625 100 0 0 1
469.625 475.625 100 0 0 1
472.375 470.375 100 0 0 1
472.375 470.375 0 0 0 -1
469.625 475.625 0 0 0 -1
469.625 430.434783935546875 0 0 0 -1
472.375 427.565216064453125 0 0 0 -1
472.375 470.375 100 0 0 1
469.625 475.625 100 0 0 1
469.625 430.434783935546875 100 0 0 1
472.375 427.565216064453125 100 0 0 1
378.732147216796875 7.36931800842285156 0 0 0 -1
375.267852783203125 12.6306819915771484 0 0 0 -1
338.581512451171875 12.6306819915771484 0 0 0 -1
337.418487548828125 7.36931800842285156 0 0 0 -1
378.732147216796875 7.36931800842285156 100 0 0 1
375.267852783203125 12.6306819915771484 100 0 0 1
338.581512451171875 12.6306819915771484 100 0 0 1
337.418487548828125 7.36931800842285156 100 0 0 1
375.267852783203125 12.6306819915771484 0 0 0 -1
378.732147216796875 7.36931800842285156 0 0 0 -1
378.732147216796875 26 0 0 0 -1
375.267852783203125 26 0 0 0 -1
375.267852783203125 12.6306819915771484 100 0 0 1
378.732147216796875 7.36931800842285156 100 0 0 1
378.732147216796875 26 100 0 0 1
375.267852783203125 26 100 0 0 1
337.418487548828125 7.36931800842285156 0 0 0 -1
338.581512451171875 12.6306819915771484 0 0 0 -1
338.581512451171875 25 0 0 0 -1
337.418487548828125 25 0 0 0 -1
337.418487548828125 7.36931800842285156 100 0 0 1
338.581512451171875 12.6306819915771484 100 0 0 1
338.581512451171875 25 100 0 0 1
337.418487548828125 25 100 0 0 1
472.375 427.565216064453125 0 0 0 -1
469.625 430.434783935546875 0 0 0 -1
407.5 430.434783935546875 0 0 0 -1
410.5 427.565216064453125 0 0 0 -1
472.375 427.565216064453125 100 0 0 1
469.625 430.434783935546875 100 0 0 1
407.5 430.434783935546875 100 0 0 1
410.5 427.565216064453125 100 0 0 1
187.676651000976562 381.3233642578125 0 0 0 -1
182.37335205078125 386.62664794921875 0 0 0 -1
164.37335205078125 368.62664794921875 0 0 0 -1
169.676651000976562 363.3233642578125 0 0 0 -1
187.676651000976562 381.3233642578125 100 0 0 1
182.37335205078125 386.62664794921875 100 0 0 1
164.37335205078125 368.62664794921875 100 0 0 1
169.676651000976562 363.3233642578125 100 0 0 1
271.85302734375 441.14697265625 0 0 0 -1
242.196975708007812 470.80303955078125 0 0 0 -1
224.196975708007812 452.80303955078125 0 0 0 -1
253.85302734375 423.14697265625 0 0 0 -1
271.85302734375 441.14697265625 100 0 0 1
242.196975708007812 470.80303955078125 100 0 0 1
224.196975708007812 452.80303955078125 100 0 0 1
253.85302734375 423.14697265625 100 0 0 1
551 312.5823974609375 0 0 0 -1
551 314.2301025390625 0 0 0 -1
532 314.2301025390625 0 0 0 -1
532 312.5823974609375 0 0 0 -1
551 312.5823974609375 100 0 0 1
551 314.2301025390625 100 0 0 1
532 314.2301025390625 100 0 0 1
532 312.5823974609375 100 0 0 1
557 245.75 0 0 0 -1
557 259.25 0 0 0 -1
547 259.25 0 0 0 -1
547 245.75 0 0 0 -1
557 245.75 100 0 0 1
557 259.25 100 0 0 1
547 259.25 100 0 0 1
547 245.75 100 0 0 1
560.33154296875 430.479156494140625 0 0 0 -1
557.66845703125 427.520843505859375 0 0 0 -1
677.52545166015625 427.520843505859375 0 0 0 -1
680.47454833984375 430.479156494140625 0 0 0 -1
560.33154296875 430.479156494140625 100 0 0 1
557.66845703125 427.520843505859375 100 0 0 1
677.52545166015625 427.520843505859375 100 0 0 1
680.47454833984375 430.479156494140625 100 0 0 1
557.66845703125 427.520843505859375 0 0 0 -1
560.33154296875 430.479156494140625 0 0 0 -1
560.33154296875 474.609222412109375 0 0 0 -1
557.66845703125 469.390777587890625 0 0 0 -1
557.66845703125 427.520843505859375 100 0 0 1
560.33154296875 430.479156494140625 100 0 0 1
560.33154296875 474.609222412109375 100 0 0 1
557.66845703125 469.390777587890625 100 0 0 1
680.47454833984375 430.479156494140625 0 0 0 -1
677.52545166015625 427.520843505859375 0 0 0 -1
678.010009765625 391.9796142578125 0 0 0 -1
680.9989013671875 392.0203857421875 0 0 0 -1
680.47454833984375 430.479156494140625 100 0 0 1
677.52545166015625 427.520843505859375 100 0 0 1
678.010009765625 391.9796142578125 100 0 0 1
680.9989013671875 392.0203857421875 100 0 0 1
681.375 335 0 0 0 -1
678.625 335 0 0 0 -1
678.625 210.750869750976562 0 0 0 -1
681.375 203.249130249023438 0 0 0 -1
681.375 335 100 0 0 1
678.625 335 100 0 0 1
678.625 210.750869750976562 100 0 0 1
681.375 203.249130249023438 100 0 0 1
681.375 203.249130249023438 0 0 0 -1
678.625 210.750869750976562 0 0 0 -1
647.00238037109375 210.771011352539062 0 0 0 -1
646.99761962890625 203.271011352539062 0 0 0 -1
681.375 203.249130249023438 100 0 0 1
678.625 210.750869750976562 100 0 0 1
647.00238037109375 210.771011352539062 100 0 0 1
646.99761962890625 203.271011352539062 100 0 0 1
215.00225830078125 210.771011352539062 0 0 0 -1
214.99774169921875 203.271011352539062 0 0 0 -1
251.429351806640625 203.2491455078125 0 0 0 -1
248.570648193359375 210.7508544921875 0 0 0 -1
215.00225830078125 210.771011352539062 100 0 0 1
214.99774169921875 203.271011352539062 100 0 0 1
251.429351806640625 203.2491455078125 100 0 0 1
248.570648193359375 210.7508544921875 100 0 0 1
544.1748046875 475.661285400390625 0 0 0 -1
543.8251953125 470.292205810546875 0 0 0 -1
557.66845703125 469.390777587890625 0 0 0 -1
560.33154296875 474.609222412109375 0 0 0 -1
544.1748046875 475.661285400390625 100 0 0 1
543.8251953125 470.292205810546875 100 0 0 1
557.66845703125 469.390777587890625 100 0 0 1
560.33154296875 474.609222412109375 100 0 0 1
4 0 1 2 3
4 4 5 6 7
4 8 9 10 11
4 12 13 14 15
4 16 17 18 19
4 20 21 22 23
4 24 25 26 27
4 28 29 30 31
4 32 33 34 35
4 36 37 38 39
4 40 41 42 43
4 44 45 46 47
4 48 49 50 51
4 52 53 54 55
4 56 57 58 59
4 60 61 62 63
4 64 65 66 67
4 68 69 70 71
4 72 73 74 75
4 76 77 78 79
4 80 81 82 83
4 84 85 86 87
4 88 89 90 91
4 92 93 94 95
4 96 97 98 99
4 100 101 102 103
4 104 105 106 107
4 108 109 110 111
4 112 113 114 115
4 116 117 118 119
4 120 121 122 123
4 124 125 126 127
4 128 129 130 131
4 132 133 134 135
4 136 137 138 139
4 140 141 142 143
4 144 145 146 147
4 148 149 150 151
4 152 153 154 155
4 156 157 158 159
4 160 161 162 163
4 164 165 166 167
4 168 169 170 171
4 172 173 174 175
4 176 177 178 179
4 180 181 182 183
4 184 185 186 187
4 188 189 190 191
4 192 193 194 195
4 196 197 198 199
4 200 201 202 203
4 204 205 206 207
4 208 209 210 211
4 212 213 214 215
4 216 217 218 219
4 220 221 222 223
4 224 225 226 227
4 228 229 230 231
4 232 233 234 235
4 236 237 238 239
4 240 241 242 243
4 244 245 246 247
4 248 249 250 251
4 252 253 254 255
4 256 257 258 259
4 260 261 262 263
4 264 265 266 267
4 268 269 270 271
4 272 273 274 275
4 276 277 278 279
4 280 281 282 283
4 284 285 286 287
4 288 289 290 291
4 292 293 294 295
4 296 297 298 299
4 300 301 302 303
4 304 305 306 307
4 308 309 310 311
4 312 313 314 315
4 316 317 318 319
4 320 321 322 323
4 324 325 326 327
4 328 329 330 331
4 332 333 334 335
4 336 337 338 339
4 340 341 342 343
4 344 345 346 347
4 348 349 350 351
4 352 353 354 355
4 356 357 358 359
4 360 361 362 363
4 364 365 366 367
4 368 369 370 371
4 372 373 374 375
4 376 377 378 379
4 380 381 382 383
4 384 385 386 387
4 388 389 390 391
4 392 393 394 395
4 396 397 398 399
4 400 401 402 403
4 404 405 406 407
4 408 409 410 411
4 412 413 414 415
4 416 417 418 419
4 420 421 422 423
4 424 425 426 427
4 428 429 430 431
4 432 433 434 435
4 436 437 438 439
4 440 441 442 443
4 444 445 446 447
4 448 449 450 451
4 452 453 454 455
4 456 457 458 459
4 460 461 462 463
4 464 465 466 467
4 468 469 470 471
4 472 473 474 475
4 476 477 478 479
4 480 481 482 483
4 484 485 486 487
4 488 489 490 491
4 492 493 494 495
4 496 497 498 499
4 500 501 502 503
4 504 505 506 507
4 508 509 510 511
4 512 513 514 515
4 516 517 518 519
4 520 521 522 523
4 524 525 526 527
4 528 529 530 531
4 532 533 534 535
4 536 537 538 539
4 540 541 542 543
4 544 545 546 547
4 548 549 550 551
4 552 553 554 555
4 556 557 558 559
4 560 561 562 563
4 564 565 566 567
4 568 569 570 571
4 572 573 574 575
4 576 577 578 579
4 580 581 582 583
4 584 585 586 587
4 588 589 590 591
4 592 593 594 595
4 596 597 598 599
4 600 601 602 603
4 604 605 606 607
4 608 609 610 611
4 612 613 614 615
4 616 617 618 619
4 620 621 622 623
4 624 625 626 627
4 628 629 630 631
4 632 633 634 635
4 636 637 638 639
4 640 641 642 643
4 644 645 646 647
4 648 649 650 651
4 652 653 654 655
4 656 657 658 659
4 660 661 662 663
4 664 665 666 667
4 668 669 670 671
4 672 673 674 675
4 676 677 678 679
4 680 681 682 683
4 684 685 686 687
4 688 689 690 691
4 692 693 694 695
4 696 697 698 699
4 700 701 702 703
4 704 705 706 707
4 708 709 710 711
4 712 713 714 715
4 716 717 718 719
