ply
format ascii 1.0
element vertex 88
property float x
property float y
property float z
property float nx
property float ny
property float nz
element quads 22
property list uchar int vertex_indices
end_header
310 310 0 -0 -1 0
293 310 0 -0 -1 0
293 310 100 -0 -1 0
310 310 100 -0 -1 0
310 316 0 0 1 0
293 316 0 0 1 0
293 316 100 0 1 0
310 316 100 0 1 0
310 331.615386962890625 0 -0 -1 0
295 331.615386962890625 0 -0 -1 0
295 331.615386962890625 100 -0 -1 0
310 331.615386962890625 100 -0 -1 0
310 337.615386962890625 0 0 1 0
295 337.615386962890625 0 0 1 0
295 337.615386962890625 100 0 1 0
310 337.615386962890625 100 0 1 0
415.153656005859375 337.6114501953125 0 0.0512147508561611176 0.998687684535980225 0
430 336.85009765625 0 0.0512147508561611176 0.998687684535980225 0
430 336.85009765625 100 0.0512147508561611176 0.998687684535980225 0
415.153656005859375 337.6114501953125 100 0.0512147508561611176 0.998687684535980225 0
414.846343994140625 331.61932373046875 0 -0.0512147508561611176 -0.998687684535980225 0
424 331.14990234375 0 -0.0512147508561611176 -0.998687684535980225 0
424 331.14990234375 100 -0.0512147508561611176 -0.998687684535980225 0
414.846343994140625 331.61932373046875 100 -0.0512147508561611176 -0.998687684535980225 0
430 336.85009765625 0 1 0 0
430 318 0 1 0 0
430 318 100 1 0 0
430 336.85009765625 100 1 0 0
424 331.14990234375 0 -1 -0 0
424 318 0 -1 -0 0
424 318 100 -1 -0 0
424 331.14990234375 100 -1 -0 0
310 310 0 292.76470947265625 291.76470947265625 0
310 316 0 292.76470947265625 291.76470947265625 0
310 316 100 292.76470947265625 291.76470947265625 0
310 310 100 292.76470947265625 291.76470947265625 0
293 310 0 274.76470947265625 291.76470947265625 0
293 316 0 274.76470947265625 291.76470947265625 0
293 316 100 274.76470947265625 291.76470947265625 0
293 310 100 274.76470947265625 291.76470947265625 0
310 331.615386962890625 0 290.333343505859375 309.5076904296875 0
310 337.615386962890625 0 290.333343505859375 309.5076904296875 0
310 337.615386962890625 100 290.333343505859375 309.5076904296875 0
310 331.615386962890625 100 290.333343505859375 309.5076904296875 0
295 331.615386962890625 0 274.333343505859375 309.5076904296875 0
295 337.615386962890625 0 274.333343505859375 309.5076904296875 0
295 337.615386962890625 100 274.333343505859375 309.5076904296875 0
295 331.615386962890625 100 274.333343505859375 309.5076904296875 0
415.153656005859375 337.6114501953125 0 386.228302001953125 314.9521484375 0
414.846343994140625 331.61932373046875 0 386.228302001953125 314.9521484375 0
414.846343994140625 331.61932373046875 100 386.228302001953125 314.9521484375 0
415.153656005859375 337.6114501953125 100 386.228302001953125 314.9521484375 0
430 318 0 407.188446044921875 300.13006591796875 0
424 318 0 407.188446044921875 300.13006591796875 0
424 318 100 407.188446044921875 300.13006591796875 0
430 318 100 407.188446044921875 300.13006591796875 0
310 310 0 0 0 -1
310 316 0 0 0 -1
293 316 0 0 0 -1
293 310 0 0 0 -1
310 310 100 0 0 1
310 316 100 0 0 1
293 316 100 0 0 1
293 310 100 0 0 1
310 331.615386962890625 0 0 0 -1
310 337.615386962890625 0 0 0 -1
295 337.615386962890625 0 0 0 -1
295 331.615386962890625 0 0 0 -1
310 331.615386962890625 100 0 0 1
310 337.615386962890625 100 0 0 1
295 337.615386962890625 100 0 0 1
295 331.615386962890625 100 0 0 1
415.153656005859375 337.6114501953125 0 0 0 -1
414.846343994140625 331.61932373046875 0 0 0 -1
424 331.14990234375 0 0 0 -1
430 336.85009765625 0 0 0 -1
415.153656005859375 337.6114501953125 100 0 0 1
414.846343994140625 331.61932373046875 100 0 0 1
424 331.14990234375 100 0 0 1
430 336.85009765625 100 0 0 1
430 336.85009765625 0 0 0 -1
424 331.14990234375 0 0 0 -1
424 318 0 0 0 -1
430 318 0 0 0 -1
430 336.85009765625 100 0 0 1
424 331.14990234375 100 0 0 1
424 318 100 0 0 1
430 318 100 0 0 1
4 0 1 2 3
4 4 5 6 7
4 8 9 10 11
4 12 13 14 15
4 16 17 18 19
4 20 21 22 23
4 24 25 26 27
4 28 29 30 31
4 32 33 34 35
4 36 37 38 39
4 40 41 42 43
4 44 45 46 47
4 48 49 50 51
4 52 53 54 55
4 56 57 58 59
4 60 61 62 63
4 64 65 66 67
4 68 69 70 71
4 72 73 74 75
4 76 77 78 79
4 80 81 82 83
4 84 85 86 87
