ply
format ascii 1.0
element vertex 88
property float x
property float y
property float z
property float nx
property float ny
property float nz
element quads 22
property list uchar int vertex_indices
end_header
310 308 0 -0 -1 0
293 308 0 -0 -1 0
293 308 150 -0 -1 0
310 308 150 -0 -1 0
310 318 0 0 1 0
293 318 0 0 1 0
293 318 150 0 1 0
310 318 150 0 1 0
310 329.615386962890625 0 -0 -1 0
295 329.615386962890625 0 -0 -1 0
295 329.615386962890625 150 -0 -1 0
310 329.615386962890625 150 -0 -1 0
310 339.615386962890625 0 0 1 0
295 339.615386962890625 0 0 1 0
295 339.615386962890625 150 0 1 0
310 339.615386962890625 150 0 1 0
415.256072998046875 339.60882568359375 0 0.0512147508561611176 0.998687684535980225 0
432 338.750152587890625 0 0.0512147508561611176 0.998687684535980225 0
432 338.750152587890625 150 0.0512147508561611176 0.998687684535980225 0
415.256072998046875 339.60882568359375 150 0.0512147508561611176 0.998687684535980225 0
414.743927001953125 329.6219482421875 0 -0.0512147508561611176 -0.998687684535980225 0
422 329.249847412109375 0 -0.0512147508561611176 -0.998687684535980225 0
422 329.249847412109375 150 -0.0512147508561611176 -0.998687684535980225 0
414.743927001953125 329.6219482421875 150 -0.0512147508561611176 -0.998687684535980225 0
432 338.750152587890625 0 1 0 0
432 318 0 1 0 0
432 318 150 1 0 0
432 338.750152587890625 150 1 0 0
422 329.249847412109375 0 -1 -0 0
422 318 0 -1 -0 0
422 318 150 -1 -0 0
422 329.249847412109375 150 -1 -0 0
310 308 0 292.76470947265625 289.882354736328125 0
310 318 0 292.76470947265625 289.882354736328125 0
310 318 150 292.76470947265625 289.882354736328125 0
310 308 150 292.76470947265625 289.882354736328125 0
293 308 0 274.76470947265625 289.882354736328125 0
293 318 0 274.76470947265625 289.882354736328125 0
293 318 150 274.76470947265625 289.882354736328125 0
293 308 150 274.76470947265625 289.882354736328125 0
310 329.615386962890625 0 290.333343505859375 307.641021728515625 0
310 339.615386962890625 0 290.333343505859375 307.641021728515625 0
310 339.615386962890625 150 290.333343505859375 307.641021728515625 0
310 329.615386962890625 150 290.333343505859375 307.641021728515625 0
295 329.615386962890625 0 274.333343505859375 307.641021728515625 0
295 339.615386962890625 0 274.333343505859375 307.641021728515625 0
295 339.615386962890625 150 274.333343505859375 307.641021728515625 0
295 329.615386962890625 150 274.333343505859375 307.641021728515625 0
415.256072998046875 339.60882568359375 0 389.489532470703125 319.404144287109375 0
414.743927001953125 329.6219482421875 0 389.489532470703125 319.404144287109375 0
414.743927001953125 329.6219482421875 150 389.489532470703125 319.404144287109375 0
415.256072998046875 339.60882568359375 150 389.489532470703125 319.404144287109375 0
432 318 0 411.180877685546875 301.6748046875 0
422 318 0 411.180877685546875 301.6748046875 0
422 318 150 411.180877685546875 301.6748046875 0
432 318 150 411.180877685546875 301.6748046875 0
310 308 0 0 0 -1
310 318 0 0 0 -1
293 318 0 0 0 -1
293 308 0 0 0 -1
310 308 150 0 0 1
310 318 150 0 0 1
293 318 150 0 0 1
293 308 150 0 0 1
310 329.615386962890625 0 0 0 -1
310 339.615386962890625 0 0 0 -1
295 339.615386962890625 0 0 0 -1
295 329.615386962890625 0 0 0 -1
310 329.615386962890625 150 0 0 1
310 339.615386962890625 150 0 0 1
295 339.615386962890625 150 0 0 1
295 329.615386962890625 150 0 0 1
415.256072998046875 339.60882568359375 0 0 0 -1
414.743927001953125 329.6219482421875 0 0 0 -1
422 329.249847412109375 0 0 0 -1
432 338.750152587890625 0 0 0 -1
415.256072998046875 339.60882568359375 150 0 0 1
414.743927001953125 329.6219482421875 150 0 0 1
422 329.249847412109375 150 0 0 1
432 338.750152587890625 150 0 0 1
432 338.750152587890625 0 0 0 -1
422 329.249847412109375 0 0 0 -1
422 318 0 0 0 -1
432 318 0 0 0 -1
432 338.750152587890625 150 0 0 1
422 329.249847412109375 150 0 0 1
422 318 150 0 0 1
432 318 150 0 0 1
4 0 1 2 3
4 4 5 6 7
4 8 9 10 11
4 12 13 14 15
4 16 17 18 19
4 20 21 22 23
4 24 25 26 27
4 28 29 30 31
4 32 33 34 35
4 36 37 38 39
4 40 41 42 43
4 44 45 46 47
4 48 49 50 51
4 52 53 54 55
4 56 57 58 59
4 60 61 62 63
4 64 65 66 67
4 68 69 70 71
4 72 73 74 75
4 76 77 78 79
4 80 81 82 83
4 84 85 86 87
