ply
format ascii 1.0
element vertex 304
property float x
property float y
property float z
property float nx
property float ny
property float nz
element quads 76
property list uchar int vertex_indices
end_header
174 98.25 0 -0 1 0
279 98.25 0 -0 1 0
279 98.25 100 -0 1 0
174 98.25 100 -0 1 0
174 97.75 0 0 -1 0
279 97.75 0 0 -1 0
279 97.75 100 0 -1 0
174 97.75 100 0 -1 0
251.25 435 0 1 0 0
251.25 389 0 1 0 0
251.25 389 100 1 0 0
251.25 435 100 1 0 0
250.75 435 0 -1 -0 0
250.75 389 0 -1 -0 0
250.75 389 100 -1 -0 0
250.75 435 100 -1 -0 0
528.25 324 0 1 0 0
528.25 259 0 1 0 0
528.25 259 100 1 0 0
528.25 324 100 1 0 0
527.75 324 0 -1 -0 0
527.75 259 0 -1 -0 0
527.75 259 100 -1 -0 0
527.75 324 100 -1 -0 0
486.25 326 0 1 0 0
486.25 230 0 1 0 0
486.25 230 100 1 0 0
486.25 326 100 1 0 0
485.75 326 0 -1 -0 0
485.75 230 0 -1 -0 0
485.75 230 100 -1 -0 0
485.75 326 100 -1 -0 0
485.75 543.25 0 -0 1 0
550 543.25 0 -0 1 0
550 543.25 100 -0 1 0
485.75 543.25 100 -0 1 0
486.25 542.75 0 0 -1 0
550 542.75 0 0 -1 0
550 542.75 100 0 -1 0
486.25 542.75 100 0 -1 0
486.25 542.75 0 1 0 0
486.25 421 0 1 0 0
486.25 421 100 1 0 0
486.25 542.75 100 1 0 0
485.75 543.25 0 -1 -0 0
485.75 421 0 -1 -0 0
485.75 421 100 -1 -0 0
485.75 543.25 100 -1 -0 0
172.75 172 0 -1 0 0
172.75 425 0 -1 0 0
172.75 425 100 -1 0 0
172.75 172 100 -1 0 0
173.25 172 0 1 -0 0
173.25 425 0 1 -0 0
173.25 425 100 1 -0 0
173.25 172 100 1 -0 0
251 422.25 0 -0 1 0
342 422.25 0 -0 1 0
342 422.25 100 -0 1 0
251 422.25 100 -0 1 0
251 421.75 0 0 -1 0
342 421.75 0 0 -1 0
342 421.75 100 0 -1 0
251 421.75 100 0 -1 0
341.75 401 0 -1 0 0
341.75 435 0 -1 0 0
341.75 435 100 -1 0 0
341.75 401 100 -1 0 0
342.25 401 0 1 -0 0
342.25 435 0 1 -0 0
342.25 435 100 1 -0 0
342.25 401 100 1 -0 0
485 530.25 0 -0 1 0
650 530.25 0 -0 1 0
650 530.25 100 -0 1 0
485 530.25 100 -0 1 0
485 529.75 0 0 -1 0
650 529.75 0 0 -1 0
650 529.75 100 0 -1 0
485 529.75 100 0 -1 0
647.75 14 0 -1 0 0
647.75 357 0 -1 0 0
647.75 357 100 -1 0 0
647.75 14 100 -1 0 0
648.25 14 0 1 -0 0
648.25 357 0 1 -0 0
648.25 357 100 1 -0 0
648.25 14 100 1 -0 0
280.75 59 0 -1 0 0
280.75 332 0 -1 0 0
280.75 332 100 -1 0 0
280.75 59 100 -1 0 0
281.25 59 0 1 -0 0
281.25 332 0 1 -0 0
281.25 332 100 1 -0 0
281.25 59 100 1 -0 0
399.75 259 0 -1 0 0
399.75 341 0 -1 0 0
399.75 341 100 -1 0 0
399.75 259 100 -1 0 0
400.25 259 0 1 -0 0
400.25 341 0 1 -0 0
400.25 341 100 1 -0 0
400.25 259 100 1 -0 0
174 98.25 0 171.342849731445312 97.3142852783203125 0
174 97.75 0 171.342849731445312 97.3142852783203125 0
174 97.75 100 171.342849731445312 97.3142852783203125 0
174 98.25 100 171.342849731445312 97.3142852783203125 0
279 98.25 0 277.342864990234375 97.3142852783203125 0
279 97.75 0 277.342864990234375 97.3142852783203125 0
279 97.75 100 277.342864990234375 97.3142852783203125 0
279 98.25 100 277.342864990234375 97.3142852783203125 0
251.25 435 0 245.788040161132812 426.543487548828125 0
250.75 435 0 245.788040161132812 426.543487548828125 0
250.75 435 100 245.788040161132812 426.543487548828125 0
251.25 435 100 245.788040161132812 426.543487548828125 0
251.25 389 0 245.788040161132812 379.543487548828125 0
250.75 389 0 245.788040161132812 379.543487548828125 0
250.75 389 100 245.788040161132812 379.543487548828125 0
251.25 389 100 245.788040161132812 379.543487548828125 0
528.25 324 0 520.123046875 320.015380859375 0
527.75 324 0 520.123046875 320.015380859375 0
527.75 324 100 520.123046875 320.015380859375 0
528.25 324 100 520.123046875 320.015380859375 0
528.25 259 0 520.123046875 254.015380859375 0
527.75 259 0 520.123046875 254.015380859375 0
527.75 259 100 520.123046875 254.015380859375 0
528.25 259 100 520.123046875 254.015380859375 0
486.25 326 0 481.184906005859375 323.604156494140625 0
485.75 326 0 481.184906005859375 323.604156494140625 0
485.75 326 100 481.184906005859375 323.604156494140625 0
486.25 326 100 481.184906005859375 323.604156494140625 0
486.25 230 0 481.184906005859375 226.604171752929688 0
485.75 230 0 481.184906005859375 226.604171752929688 0
485.75 230 100 481.184906005859375 226.604171752929688 0
486.25 230 100 481.184906005859375 226.604171752929688 0
550 543.25 0 542.439697265625 534.79473876953125 0
550 542.75 0 542.439697265625 534.79473876953125 0
550 542.75 100 542.439697265625 534.79473876953125 0
550 543.25 100 542.439697265625 534.79473876953125 0
486.25 421 0 482.25616455078125 416.542083740234375 0
485.75 421 0 482.25616455078125 416.542083740234375 0
485.75 421 100 482.25616455078125 416.542083740234375 0
486.25 421 100 482.25616455078125 416.542083740234375 0
172.75 172 0 172.06719970703125 170.320159912109375 0
173.25 172 0 172.06719970703125 170.320159912109375 0
173.25 172 100 172.06719970703125 170.320159912109375 0
172.75 172 100 172.06719970703125 170.320159912109375 0
172.75 425 0 172.06719970703125 424.320159912109375 0
173.25 425 0 172.06719970703125 424.320159912109375 0
173.25 425 100 172.06719970703125 424.320159912109375 0
172.75 425 100 172.06719970703125 424.320159912109375 0
251 422.25 0 247.24176025390625 417.609893798828125 0
251 421.75 0 247.24176025390625 417.609893798828125 0
251 421.75 100 247.24176025390625 417.609893798828125 0
251 422.25 100 247.24176025390625 417.609893798828125 0
342 422.25 0 339.24176025390625 417.609893798828125 0
342 421.75 0 339.24176025390625 417.609893798828125 0
342 421.75 100 339.24176025390625 417.609893798828125 0
342 422.25 100 339.24176025390625 417.609893798828125 0
341.75 401 0 331.698516845703125 388.20587158203125 0
342.25 401 0 331.698516845703125 388.20587158203125 0
342.25 401 100 331.698516845703125 388.20587158203125 0
341.75 401 100 331.698516845703125 388.20587158203125 0
341.75 435 0 331.698516845703125 423.20587158203125 0
342.25 435 0 331.698516845703125 423.20587158203125 0
342.25 435 100 331.698516845703125 423.20587158203125 0
341.75 435 100 331.698516845703125 423.20587158203125 0
485 530.25 0 481.06060791015625 527.036376953125 0
485 529.75 0 481.06060791015625 527.036376953125 0
485 529.75 100 481.06060791015625 527.036376953125 0
485 530.25 100 481.06060791015625 527.036376953125 0
650 530.25 0 647.06060791015625 527.036376953125 0
650 529.75 0 647.06060791015625 527.036376953125 0
650 529.75 100 647.06060791015625 527.036376953125 0
650 530.25 100 647.06060791015625 527.036376953125 0
647.75 14 0 645.86151123046875 12.9591836929321289 0
648.25 14 0 645.86151123046875 12.9591836929321289 0
648.25 14 100 645.86151123046875 12.9591836929321289 0
647.75 14 100 645.86151123046875 12.9591836929321289 0
647.75 357 0 645.86151123046875 356.959197998046875 0
648.25 357 0 645.86151123046875 356.959197998046875 0
648.25 357 100 645.86151123046875 356.959197998046875 0
647.75 357 100 645.86151123046875 356.959197998046875 0
280.75 59 0 279.72161865234375 57.7838821411132812 0
281.25 59 0 279.72161865234375 57.7838821411132812 0
281.25 59 100 279.72161865234375 57.7838821411132812 0
280.75 59 100 279.72161865234375 57.7838821411132812 0
280.75 332 0 279.72161865234375 331.78387451171875 0
281.25 332 0 279.72161865234375 331.78387451171875 0
281.25 332 100 279.72161865234375 331.78387451171875 0
280.75 332 100 279.72161865234375 331.78387451171875 0
399.75 259 0 394.875 254.841461181640625 0
400.25 259 0 394.875 254.841461181640625 0
400.25 259 100 394.875 254.841461181640625 0
399.75 259 100 394.875 254.841461181640625 0
399.75 341 0 394.875 337.841461181640625 0
400.25 341 0 394.875 337.841461181640625 0
400.25 341 100 394.875 337.841461181640625 0
399.75 341 100 394.875 337.841461181640625 0
174 98.25 0 0 0 -1
174 97.75 0 0 0 -1
279 97.75 0 0 0 -1
279 98.25 0 0 0 -1
174 98.25 100 0 0 1
174 97.75 100 0 0 1
279 97.75 100 0 0 1
279 98.25 100 0 0 1
251.25 435 0 0 0 -1
250.75 435 0 0 0 -1
250.75 389 0 0 0 -1
251.25 389 0 0 0 -1
251.25 435 100 0 0 1
250.75 435 100 0 0 1
250.75 389 100 0 0 1
251.25 389 100 0 0 1
528.25 324 0 0 0 -1
527.75 324 0 0 0 -1
527.75 259 0 0 0 -1
528.25 259 0 0 0 -1
528.25 324 100 0 0 1
527.75 324 100 0 0 1
527.75 259 100 0 0 1
528.25 259 100 0 0 1
486.25 326 0 0 0 -1
485.75 326 0 0 0 -1
485.75 230 0 0 0 -1
486.25 230 0 0 0 -1
486.25 326 100 0 0 1
485.75 326 100 0 0 1
485.75 230 100 0 0 1
486.25 230 100 0 0 1
485.75 543.25 0 0 0 -1
486.25 542.75 0 0 0 -1
550 542.75 0 0 0 -1
550 543.25 0 0 0 -1
485.75 543.25 100 0 0 1
486.25 542.75 100 0 0 1
550 542.75 100 0 0 1
550 543.25 100 0 0 1
486.25 542.75 0 0 0 -1
485.75 543.25 0 0 0 -1
485.75 421 0 0 0 -1
486.25 421 0 0 0 -1
486.25 542.75 100 0 0 1
485.75 543.25 100 0 0 1
485.75 421 100 0 0 1
486.25 421 100 0 0 1
172.75 172 0 0 0 -1
173.25 172 0 0 0 -1
173.25 425 0 0 0 -1
172.75 425 0 0 0 -1
172.75 172 100 0 0 1
173.25 172 100 0 0 1
173.25 425 100 0 0 1
172.75 425 100 0 0 1
251 422.25 0 0 0 -1
251 421.75 0 0 0 -1
342 421.75 0 0 0 -1
342 422.25 0 0 0 -1
251 422.25 100 0 0 1
251 421.75 100 0 0 1
342 421.75 100 0 0 1
342 422.25 100 0 0 1
341.75 401 0 0 0 -1
342.25 401 0 0 0 -1
342.25 435 0 0 0 -1
341.75 435 0 0 0 -1
341.75 401 100 0 0 1
342.25 401 100 0 0 1
342.25 435 100 0 0 1
341.75 435 100 0 0 1
485 530.25 0 0 0 -1
485 529.75 0 0 0 -1
650 529.75 0 0 0 -1
650 530.25 0 0 0 -1
485 530.25 100 0 0 1
485 529.75 100 0 0 1
650 529.75 100 0 0 1
650 530.25 100 0 0 1
647.75 14 0 0 0 -1
648.25 14 0 0 0 -1
648.25 357 0 0 0 -1
647.75 357 0 0 0 -1
647.75 14 100 0 0 1
648.25 14 100 0 0 1
648.25 357 100 0 0 1
647.75 357 100 0 0 1
280.75 59 0 0 0 -1
281.25 59 0 0 0 -1
281.25 332 0 0 0 -1
280.75 332 0 0 0 -1
280.75 59 100 0 0 1
281.25 59 100 0 0 1
281.25 332 100 0 0 1
280.75 332 100 0 0 1
399.75 259 0 0 0 -1
400.25 259 0 0 0 -1
400.25 341 0 0 0 -1
399.75 341 0 0 0 -1
399.75 259 100 0 0 1
400.25 259 100 0 0 1
400.25 341 100 0 0 1
399.75 341 100 0 0 1
4 0 1 2 3
4 4 5 6 7
4 8 9 10 11
4 12 13 14 15
4 16 17 18 19
4 20 21 22 23
4 24 25 26 27
4 28 29 30 31
4 32 33 34 35
4 36 37 38 39
4 40 41 42 43
4 44 45 46 47
4 48 49 50 51
4 52 53 54 55
4 56 57 58 59
4 60 61 62 63
4 64 65 66 67
4 68 69 70 71
4 72 73 74 75
4 76 77 78 79
4 80 81 82 83
4 84 85 86 87
4 88 89 90 91
4 92 93 94 95
4 96 97 98 99
4 100 101 102 103
4 104 105 106 107
4 108 109 110 111
4 112 113 114 115
4 116 117 118 119
4 120 121 122 123
4 124 125 126 127
4 128 129 130 131
4 132 133 134 135
4 136 137 138 139
4 140 141 142 143
4 144 145 146 147
4 148 149 150 151
4 152 153 154 155
4 156 157 158 159
4 160 161 162 163
4 164 165 166 167
4 168 169 170 171
4 172 173 174 175
4 176 177 178 179
4 180 181 182 183
4 184 185 186 187
4 188 189 190 191
4 192 193 194 195
4 196 197 198 199
4 200 201 202 203
4 204 205 206 207
4 208 209 210 211
4 212 213 214 215
4 216 217 218 219
4 220 221 222 223
4 224 225 226 227
4 228 229 230 231
4 232 233 234 235
4 236 237 238 239
4 240 241 242 243
4 244 245 246 247
4 248 249 250 251
4 252 253 254 255
4 256 257 258 259
4 260 261 262 263
4 264 265 266 267
4 268 269 270 271
4 272 273 274 275
4 276 277 278 279
4 280 281 282 283
4 284 285 286 287
4 288 289 290 291
4 292 293 294 295
4 296 297 298 299
4 300 301 302 303
