ply
format ascii 1.0
element vertex 632
property float x
property float y
property float z
property float nx
property float ny
property float nz
element quads 158
property list uchar int vertex_indices
end_header
595 150.35833740234375 0 -0 -1 0
561 150.35833740234375 0 -0 -1 0
561 150.35833740234375 100 -0 -1 0
595 150.35833740234375 100 -0 -1 0
595 156.35833740234375 0 0 1 0
561 156.35833740234375 0 0 1 0
561 156.35833740234375 100 0 1 0
595 156.35833740234375 100 0 1 0
654 150.35833740234375 0 -0 -1 0
637 150.35833740234375 0 -0 -1 0
637 150.35833740234375 100 -0 -1 0
654 150.35833740234375 100 -0 -1 0
654 156.35833740234375 0 0 1 0
637 156.35833740234375 0 0 1 0
637 156.35833740234375 100 0 1 0
654 156.35833740234375 100 0 1 0
541 150.35833740234375 0 -0 -1 0
515 150.35833740234375 0 -0 -1 0
515 150.35833740234375 100 -0 -1 0
541 150.35833740234375 100 -0 -1 0
541 156.35833740234375 0 0 1 0
515 156.35833740234375 0 0 1 0
515 156.35833740234375 100 0 1 0
541 156.35833740234375 100 0 1 0
463 112.5 0 -0 -1 0
444 112.5 0 -0 -1 0
444 112.5 100 -0 -1 0
463 112.5 100 -0 -1 0
463 118.5 0 0 1 0
444 118.5 0 0 1 0
444 118.5 100 0 1 0
463 118.5 100 0 1 0
363 112.5 0 -0 -1 0
347 112.5 0 -0 -1 0
347 112.5 100 -0 -1 0
363 112.5 100 -0 -1 0
363 118.5 0 0 1 0
347 118.5 0 0 1 0
347 118.5 100 0 1 0
363 118.5 100 0 1 0
419 112.5 0 -0 -1 0
401 112.5 0 -0 -1 0
401 112.5 100 -0 -1 0
419 112.5 100 -0 -1 0
419 118.5 0 0 1 0
401 118.5 0 0 1 0
401 118.5 100 0 1 0
419 118.5 100 0 1 0
759 112.5 0 -0 -1 0
739 112.5 0 -0 -1 0
739 112.5 100 -0 -1 0
759 112.5 100 -0 -1 0
759 118.5 0 0 1 0
739 118.5 0 0 1 0
739 118.5 100 0 1 0
759 118.5 100 0 1 0
514 112.5 0 -0 -1 0
500 112.5 0 -0 -1 0
500 112.5 100 -0 -1 0
514 112.5 100 -0 -1 0
514 118.5 0 0 1 0
500 118.5 0 0 1 0
500 118.5 100 0 1 0
514 118.5 100 0 1 0
84.9778594970703125 320.989532470703125 0 0.705157935619354248 0.709050238132476807 0
132.996902465820312 273.234100341796875 0 0.705157935619354248 0.709050238132476807 0
132.996902465820312 273.234100341796875 100 0.705157935619354248 0.709050238132476807 0
84.9778594970703125 320.989532470703125 100 0.705157935619354248 0.709050238132476807 0
80.7469100952148438 316.7352294921875 0 -0.705157935619354248 -0.709050238132476807 0
133.003097534179688 264.765899658203125 0 -0.705157935619354248 -0.709050238132476807 0
133.003097534179688 264.765899658203125 100 -0.705157935619354248 -0.709050238132476807 0
80.7469100952148438 316.7352294921875 100 -0.705157935619354248 -0.709050238132476807 0
132.996902465820312 273.234100341796875 0 -0.706193804740905762 0.708018600940704346 0
143.397552490234375 283.607940673828125 0 -0.706193804740905762 0.708018600940704346 0
143.397552490234375 283.607940673828125 100 -0.706193804740905762 0.708018600940704346 0
132.996902465820312 273.234100341796875 100 -0.706193804740905762 0.708018600940704346 0
133.003097534179688 264.765899658203125 0 0.706193804740905762 -0.708018600940704346 0
147.63470458984375 279.35980224609375 0 0.706193804740905762 -0.708018600940704346 0
147.63470458984375 279.35980224609375 100 0.706193804740905762 -0.708018600940704346 0
133.003097534179688 264.765899658203125 100 0.706193804740905762 -0.708018600940704346 0
76.4043426513671875 306.595672607421875 0 0.70710676908493042 -0.70710676908493042 0
36.9043388366699219 267.095672607421875 0 0.70710676908493042 -0.70710676908493042 0
36.9043388366699219 267.095672607421875 100 0.70710676908493042 -0.70710676908493042 0
76.4043426513671875 306.595672607421875 100 0.70710676908493042 -0.70710676908493042 0
72.1616973876953125 310.838287353515625 0 -0.70710676908493042 0.70710676908493042 0
32.6616973876953125 271.338287353515625 0 -0.70710676908493042 0.70710676908493042 0
32.6616973876953125 271.338287353515625 100 -0.70710676908493042 0.70710676908493042 0
72.1616973876953125 310.838287353515625 100 -0.70710676908493042 0.70710676908493042 0
440 99.46875 0 -0 -1 0
423 99.46875 0 -0 -1 0
423 99.46875 100 -0 -1 0
440 99.46875 100 -0 -1 0
440 105.46875 0 0 1 0
423 105.46875 0 0 1 0
423 105.46875 100 0 1 0
440 105.46875 100 0 1 0
579.5963134765625 198 0 1 0 0
579.5963134765625 154 0 1 0 0
579.5963134765625 154 100 1 0 0
579.5963134765625 198 100 1 0 0
573.5963134765625 198 0 -1 -0 0
573.5963134765625 154 0 -1 -0 0
573.5963134765625 154 100 -1 -0 0
573.5963134765625 198 100 -1 -0 0
579.5963134765625 251 0 1 0 0
579.5963134765625 230 0 1 0 0
579.5963134765625 230 100 1 0 0
579.5963134765625 251 100 1 0 0
573.5963134765625 251 0 -1 -0 0
573.5963134765625 230 0 -1 -0 0
573.5963134765625 230 100 -1 -0 0
573.5963134765625 251 100 -1 -0 0
177.878082275390625 232.121917724609375 0 0.70710676908493042 -0.70710676908493042 0
158.878082275390625 213.121917724609375 0 0.70710676908493042 -0.70710676908493042 0
158.878082275390625 213.121917724609375 100 0.70710676908493042 -0.70710676908493042 0
177.878082275390625 232.121917724609375 100 0.70710676908493042 -0.70710676908493042 0
173.63543701171875 236.36456298828125 0 -0.70710676908493042 0.70710676908493042 0
154.63543701171875 217.36456298828125 0 -0.70710676908493042 0.70710676908493042 0
154.63543701171875 217.36456298828125 100 -0.70710676908493042 0.70710676908493042 0
173.63543701171875 236.36456298828125 100 -0.70710676908493042 0.70710676908493042 0
535 283 0 -0 -1 0
514 283 0 -0 -1 0
514 283 100 -0 -1 0
535 283 100 -0 -1 0
535 289 0 0 1 0
514 289 0 0 1 0
514 289 100 0 1 0
535 289 100 0 1 0
707 203 0 1 0 0
707 187 0 1 0 0
707 187 100 1 0 0
707 203 100 1 0 0
701 203 0 -1 -0 0
701 187 0 -1 -0 0
701 187 100 -1 -0 0
701 203 100 -1 -0 0
173.874069213867188 379.874053955078125 0 0.70710676908493042 0.70710676908493042 0
197.874069213867188 355.874053955078125 0 0.70710676908493042 0.70710676908493042 0
197.874069213867188 355.874053955078125 100 0.70710676908493042 0.70710676908493042 0
173.874069213867188 379.874053955078125 100 0.70710676908493042 0.70710676908493042 0
169.631423950195312 375.631439208984375 0 -0.70710676908493042 -0.70710676908493042 0
193.631423950195312 351.631439208984375 0 -0.70710676908493042 -0.70710676908493042 0
193.631423950195312 351.631439208984375 100 -0.70710676908493042 -0.70710676908493042 0
169.631423950195312 375.631439208984375 100 -0.70710676908493042 -0.70710676908493042 0
355.997711181640625 355.002288818359375 0 0.70710676908493042 -0.70710676908493042 0
329.497711181640625 328.502288818359375 0 0.70710676908493042 -0.70710676908493042 0
329.497711181640625 328.502288818359375 100 0.70710676908493042 -0.70710676908493042 0
355.997711181640625 355.002288818359375 100 0.70710676908493042 -0.70710676908493042 0
351.755096435546875 359.244903564453125 0 -0.70710676908493042 0.70710676908493042 0
325.255096435546875 332.744903564453125 0 -0.70710676908493042 0.70710676908493042 0
325.255096435546875 332.744903564453125 100 -0.70710676908493042 0.70710676908493042 0
351.755096435546875 359.244903564453125 100 -0.70710676908493042 0.70710676908493042 0
116.214653015136719 352.21466064453125 0 0.70710676908493042 0.70710676908493042 0
133.21466064453125 335.21466064453125 0 0.70710676908493042 0.70710676908493042 0
133.21466064453125 335.21466064453125 100 0.70710676908493042 0.70710676908493042 0
116.214653015136719 352.21466064453125 100 0.70710676908493042 0.70710676908493042 0
111.972015380859375 347.972015380859375 0 -0.70710676908493042 -0.70710676908493042 0
128.972015380859375 330.972015380859375 0 -0.70710676908493042 -0.70710676908493042 0
128.972015380859375 330.972015380859375 100 -0.70710676908493042 -0.70710676908493042 0
111.972015380859375 347.972015380859375 100 -0.70710676908493042 -0.70710676908493042 0
350.481475830078125 198 0 1 0 0
350.481475830078125 184 0 1 0 0
350.481475830078125 184 100 1 0 0
350.481475830078125 198 100 1 0 0
344.481475830078125 198 0 -1 -0 0
344.481475830078125 184 0 -1 -0 0
344.481475830078125 184 100 -1 -0 0
344.481475830078125 198 100 -1 -0 0
329.727081298828125 400.727081298828125 0 0.70710676908493042 0.70710676908493042 0
340.227081298828125 390.227081298828125 0 0.70710676908493042 0.70710676908493042 0
340.227081298828125 390.227081298828125 100 0.70710676908493042 0.70710676908493042 0
329.727081298828125 400.727081298828125 100 0.70710676908493042 0.70710676908493042 0
325.48443603515625 396.48443603515625 0 -0.70710676908493042 -0.70710676908493042 0
335.98443603515625 385.98443603515625 0 -0.70710676908493042 -0.70710676908493042 0
335.98443603515625 385.98443603515625 100 -0.70710676908493042 -0.70710676908493042 0
325.48443603515625 396.48443603515625 100 -0.70710676908493042 -0.70710676908493042 0
353.227081298828125 377.227081298828125 0 0.70710676908493042 0.70710676908493042 0
364.727081298828125 365.727081298828125 0 0.70710676908493042 0.70710676908493042 0
364.727081298828125 365.727081298828125 100 0.70710676908493042 0.70710676908493042 0
353.227081298828125 377.227081298828125 100 0.70710676908493042 0.70710676908493042 0
348.98443603515625 372.98443603515625 0 -0.70710676908493042 -0.70710676908493042 0
360.48443603515625 361.48443603515625 0 -0.70710676908493042 -0.70710676908493042 0
360.48443603515625 361.48443603515625 100 -0.70710676908493042 -0.70710676908493042 0
348.98443603515625 372.98443603515625 100 -0.70710676908493042 -0.70710676908493042 0
220.858505249023438 278.858489990234375 0 0.70710676908493042 0.70710676908493042 0
244.858505249023438 254.858505249023438 0 0.70710676908493042 0.70710676908493042 0
244.858505249023438 254.858505249023438 100 0.70710676908493042 0.70710676908493042 0
220.858505249023438 278.858489990234375 100 0.70710676908493042 0.70710676908493042 0
216.615859985351562 274.6158447265625 0 -0.70710676908493042 -0.70710676908493042 0
240.615859985351562 250.615859985351562 0 -0.70710676908493042 -0.70710676908493042 0
240.615859985351562 250.615859985351562 100 -0.70710676908493042 -0.70710676908493042 0
216.615859985351562 274.6158447265625 100 -0.70710676908493042 -0.70710676908493042 0
185.858505249023438 313.858489990234375 0 0.70710676908493042 0.70710676908493042 0
200.358505249023438 299.358489990234375 0 0.70710676908493042 0.70710676908493042 0
200.358505249023438 299.358489990234375 100 0.70710676908493042 0.70710676908493042 0
185.858505249023438 313.858489990234375 100 0.70710676908493042 0.70710676908493042 0
181.615859985351562 309.6158447265625 0 -0.70710676908493042 -0.70710676908493042 0
196.115859985351562 295.1158447265625 0 -0.70710676908493042 -0.70710676908493042 0
196.115859985351562 295.1158447265625 100 -0.70710676908493042 -0.70710676908493042 0
181.615859985351562 309.6158447265625 100 -0.70710676908493042 -0.70710676908493042 0
759 267 0 -0 -1 0
722.06549072265625 267 0 -0 -1 0
722.06549072265625 267 100 -0 -1 0
759 267 100 -0 -1 0
759 273 0 0 1 0
715.93450927734375 273 0 0 1 0
715.93450927734375 273 100 0 1 0
759 273 100 0 1 0
722.06549072265625 267 0 0.999767005443572998 0.0215858779847621918 0
722.47430419921875 248.06475830078125 0 0.999767005443572998 0.0215858779847621918 0
722.47430419921875 248.06475830078125 100 0.999767005443572998 0.0215858779847621918 0
722.06549072265625 267 100 0.999767005443572998 0.0215858779847621918 0
715.93450927734375 273 0 -0.999767005443572998 -0.0215858779847621918 0
716.4757080078125 247.93524169921875 0 -0.999767005443572998 -0.0215858779847621918 0
716.4757080078125 247.93524169921875 100 -0.999767005443572998 -0.0215858779847621918 0
715.93450927734375 273 100 -0.999767005443572998 -0.0215858779847621918 0
595 150.35833740234375 0 578.5 145.93603515625 0
595 156.35833740234375 0 578.5 145.93603515625 0
595 156.35833740234375 100 578.5 145.93603515625 0
595 150.35833740234375 100 578.5 145.93603515625 0
561 150.35833740234375 0 543.5 145.93603515625 0
561 156.35833740234375 0 543.5 145.93603515625 0
561 156.35833740234375 100 543.5 145.93603515625 0
561 150.35833740234375 100 543.5 145.93603515625 0
654 150.35833740234375 0 616.5294189453125 141.51373291015625 0
654 156.35833740234375 0 616.5294189453125 141.51373291015625 0
654 156.35833740234375 100 616.5294189453125 141.51373291015625 0
654 150.35833740234375 100 616.5294189453125 141.51373291015625 0
637 150.35833740234375 0 598.5294189453125 141.51373291015625 0
637 156.35833740234375 0 598.5294189453125 141.51373291015625 0
637 156.35833740234375 100 598.5294189453125 141.51373291015625 0
637 150.35833740234375 100 598.5294189453125 141.51373291015625 0
541 150.35833740234375 0 521.19232177734375 144.5753173828125 0
541 156.35833740234375 0 521.19232177734375 144.5753173828125 0
541 156.35833740234375 100 521.19232177734375 144.5753173828125 0
541 150.35833740234375 100 521.19232177734375 144.5753173828125 0
515 150.35833740234375 0 494.19232177734375 144.5753173828125 0
515 156.35833740234375 0 494.19232177734375 144.5753173828125 0
515 156.35833740234375 100 494.19232177734375 144.5753173828125 0
515 150.35833740234375 100 494.19232177734375 144.5753173828125 0
463 112.5 0 439.631591796875 106.578948974609375 0
463 118.5 0 439.631591796875 106.578948974609375 0
463 118.5 100 439.631591796875 106.578948974609375 0
463 112.5 100 439.631591796875 106.578948974609375 0
444 112.5 0 419.631591796875 106.578948974609375 0
444 118.5 0 419.631591796875 106.578948974609375 0
444 118.5 100 419.631591796875 106.578948974609375 0
444 112.5 100 419.631591796875 106.578948974609375 0
363 112.5 0 341.3125 105.46875 0
363 118.5 0 341.3125 105.46875 0
363 118.5 100 341.3125 105.46875 0
363 112.5 100 341.3125 105.46875 0
347 112.5 0 324.3125 105.46875 0
347 118.5 0 324.3125 105.46875 0
347 118.5 100 324.3125 105.46875 0
347 112.5 100 324.3125 105.46875 0
419 112.5 0 396.72222900390625 106.25 0
419 118.5 0 396.72222900390625 106.25 0
419 118.5 100 396.72222900390625 106.25 0
419 112.5 100 396.72222900390625 106.25 0
401 112.5 0 377.72222900390625 106.25 0
401 118.5 0 377.72222900390625 106.25 0
401 118.5 100 377.72222900390625 106.25 0
401 112.5 100 377.72222900390625 106.25 0
759 112.5 0 722.04998779296875 106.875 0
759 118.5 0 722.04998779296875 106.875 0
759 118.5 100 722.04998779296875 106.875 0
759 112.5 100 722.04998779296875 106.875 0
739 112.5 0 701.04998779296875 106.875 0
739 118.5 0 701.04998779296875 106.875 0
739 118.5 100 701.04998779296875 106.875 0
739 112.5 100 701.04998779296875 106.875 0
514 112.5 0 478.28570556640625 104.464286804199219 0
514 118.5 0 478.28570556640625 104.464286804199219 0
514 118.5 100 478.28570556640625 104.464286804199219 0
514 112.5 100 478.28570556640625 104.464286804199219 0
500 112.5 0 463.28570556640625 104.464286804199219 0
500 118.5 0 463.28570556640625 104.464286804199219 0
500 118.5 100 463.28570556640625 104.464286804199219 0
500 112.5 100 463.28570556640625 104.464286804199219 0
84.9778594970703125 320.989532470703125 0 83.0140228271484375 316.9549560546875 0
80.7469100952148438 316.7352294921875 0 83.0140228271484375 316.9549560546875 0
80.7469100952148438 316.7352294921875 100 83.0140228271484375 316.9549560546875 0
84.9778594970703125 320.989532470703125 100 83.0140228271484375 316.9549560546875 0
76.4043426513671875 306.595672607421875 0 75.7436981201171875 301.81427001953125 0
72.1616973876953125 310.838287353515625 0 75.7436981201171875 301.81427001953125 0
72.1616973876953125 310.838287353515625 100 75.7436981201171875 301.81427001953125 0
76.4043426513671875 306.595672607421875 100 75.7436981201171875 301.81427001953125 0
36.9043388366699219 267.095672607421875 0 35.536590576171875 261.607147216796875 0
32.6616973876953125 271.338287353515625 0 35.536590576171875 261.607147216796875 0
32.6616973876953125 271.338287353515625 100 35.536590576171875 261.607147216796875 0
36.9043388366699219 267.095672607421875 100 35.536590576171875 261.607147216796875 0
440 99.46875 0 415.117645263671875 93.617645263671875 0
440 105.46875 0 415.117645263671875 93.617645263671875 0
440 105.46875 100 415.117645263671875 93.617645263671875 0
440 99.46875 100 415.117645263671875 93.617645263671875 0
423 99.46875 0 397.117645263671875 93.617645263671875 0
423 105.46875 0 397.117645263671875 93.617645263671875 0
423 105.46875 100 397.117645263671875 93.617645263671875 0
423 99.46875 100 397.117645263671875 93.617645263671875 0
579.5963134765625 198 0 566.4237060546875 194.5 0
573.5963134765625 198 0 566.4237060546875 194.5 0
573.5963134765625 198 100 566.4237060546875 194.5 0
579.5963134765625 198 100 566.4237060546875 194.5 0
579.5963134765625 154 0 566.4237060546875 149.5 0
573.5963134765625 154 0 566.4237060546875 149.5 0
573.5963134765625 154 100 566.4237060546875 149.5 0
579.5963134765625 154 100 566.4237060546875 149.5 0
579.5963134765625 251 0 551.99652099609375 240.047622680664062 0
573.5963134765625 251 0 551.99652099609375 240.047622680664062 0
573.5963134765625 251 100 551.99652099609375 240.047622680664062 0
579.5963134765625 251 100 551.99652099609375 240.047622680664062 0
579.5963134765625 230 0 551.99652099609375 218.047622680664062 0
573.5963134765625 230 0 551.99652099609375 218.047622680664062 0
573.5963134765625 230 100 551.99652099609375 218.047622680664062 0
579.5963134765625 230 100 551.99652099609375 218.047622680664062 0
177.878082275390625 232.121917724609375 0 171.965240478515625 224.190353393554688 0
173.63543701171875 236.36456298828125 0 171.965240478515625 224.190353393554688 0
173.63543701171875 236.36456298828125 100 171.965240478515625 224.190353393554688 0
177.878082275390625 232.121917724609375 100 171.965240478515625 224.190353393554688 0
158.878082275390625 213.121917724609375 0 152.258132934570312 204.483245849609375 0
154.63543701171875 217.36456298828125 0 152.258132934570312 204.483245849609375 0
154.63543701171875 217.36456298828125 100 152.258132934570312 204.483245849609375 0
158.878082275390625 213.121917724609375 100 152.258132934570312 204.483245849609375 0
535 283 0 510.5238037109375 269.5238037109375 0
535 289 0 510.5238037109375 269.5238037109375 0
535 289 100 510.5238037109375 269.5238037109375 0
535 283 100 510.5238037109375 269.5238037109375 0
514 283 0 488.5238037109375 269.5238037109375 0
514 289 0 488.5238037109375 269.5238037109375 0
514 289 100 488.5238037109375 269.5238037109375 0
514 283 100 488.5238037109375 269.5238037109375 0
707 203 0 662.8125 191.3125 0
701 203 0 662.8125 191.3125 0
701 203 100 662.8125 191.3125 0
707 203 100 662.8125 191.3125 0
707 187 0 662.8125 174.3125 0
701 187 0 662.8125 174.3125 0
701 187 100 662.8125 174.3125 0
707 187 100 662.8125 174.3125 0
173.874069213867188 379.874053955078125 0 168.044143676757812 369.3890380859375 0
169.631423950195312 375.631439208984375 0 168.044143676757812 369.3890380859375 0
169.631423950195312 375.631439208984375 100 168.044143676757812 369.3890380859375 0
173.874069213867188 379.874053955078125 100 168.044143676757812 369.3890380859375 0
197.874069213867188 355.874053955078125 0 192.751251220703125 344.681915283203125 0
193.631423950195312 351.631439208984375 0 192.751251220703125 344.681915283203125 0
193.631423950195312 351.631439208984375 100 192.751251220703125 344.681915283203125 0
197.874069213867188 355.874053955078125 100 192.751251220703125 344.681915283203125 0
355.997711181640625 355.002288818359375 0 347.205657958984375 346.23675537109375 0
351.755096435546875 359.244903564453125 0 347.205657958984375 346.23675537109375 0
351.755096435546875 359.244903564453125 100 347.205657958984375 346.23675537109375 0
355.997711181640625 355.002288818359375 100 347.205657958984375 346.23675537109375 0
329.497711181640625 328.502288818359375 0 319.99853515625 319.0296630859375 0
325.255096435546875 332.744903564453125 0 319.99853515625 319.0296630859375 0
325.255096435546875 332.744903564453125 100 319.99853515625 319.0296630859375 0
329.497711181640625 328.502288818359375 100 319.99853515625 319.0296630859375 0
116.214653015136719 352.21466064453125 0 110.673652648925781 338.271575927734375 0
111.972015380859375 347.972015380859375 0 110.673652648925781 338.271575927734375 0
111.972015380859375 347.972015380859375 100 110.673652648925781 338.271575927734375 0
116.214653015136719 352.21466064453125 100 110.673652648925781 338.271575927734375 0
133.21466064453125 335.21466064453125 0 128.380767822265625 320.564453125 0
128.972015380859375 330.972015380859375 0 128.380767822265625 320.564453125 0
128.972015380859375 330.972015380859375 100 128.380767822265625 320.564453125 0
133.21466064453125 335.21466064453125 100 128.380767822265625 320.564453125 0
350.481475830078125 198 0 325.44708251953125 184.857147216796875 0
344.481475830078125 198 0 325.44708251953125 184.857147216796875 0
344.481475830078125 198 100 325.44708251953125 184.857147216796875 0
350.481475830078125 198 100 325.44708251953125 184.857147216796875 0
350.481475830078125 184 0 325.44708251953125 169.857147216796875 0
344.481475830078125 184 0 325.44708251953125 169.857147216796875 0
344.481475830078125 184 100 325.44708251953125 169.857147216796875 0
350.481475830078125 184 100 325.44708251953125 169.857147216796875 0
329.727081298828125 400.727081298828125 0 306.81500244140625 374.447845458984375 0
325.48443603515625 396.48443603515625 0 306.81500244140625 374.447845458984375 0
325.48443603515625 396.48443603515625 100 306.81500244140625 374.447845458984375 0
329.727081298828125 400.727081298828125 100 306.81500244140625 374.447845458984375 0
340.227081298828125 390.227081298828125 0 318.022125244140625 363.24072265625 0
335.98443603515625 385.98443603515625 0 318.022125244140625 363.24072265625 0
335.98443603515625 385.98443603515625 100 318.022125244140625 363.24072265625 0
340.227081298828125 390.227081298828125 100 318.022125244140625 363.24072265625 0
353.227081298828125 377.227081298828125 0 330.8009033203125 354.73944091796875 0
348.98443603515625 372.98443603515625 0 330.8009033203125 354.73944091796875 0
348.98443603515625 372.98443603515625 100 330.8009033203125 354.73944091796875 0
353.227081298828125 377.227081298828125 100 330.8009033203125 354.73944091796875 0
364.727081298828125 365.727081298828125 0 343.008026123046875 342.532318115234375 0
360.48443603515625 361.48443603515625 0 343.008026123046875 342.532318115234375 0
360.48443603515625 361.48443603515625 100 343.008026123046875 342.532318115234375 0
364.727081298828125 365.727081298828125 100 343.008026123046875 342.532318115234375 0
220.858505249023438 278.858489990234375 0 213.644287109375 271.34967041015625 0
216.615859985351562 274.6158447265625 0 213.644287109375 271.34967041015625 0
216.615859985351562 274.6158447265625 100 213.644287109375 271.34967041015625 0
220.858505249023438 278.858489990234375 100 213.644287109375 271.34967041015625 0
244.858505249023438 254.858505249023438 0 238.351394653320312 246.642547607421875 0
240.615859985351562 250.615859985351562 0 238.351394653320312 246.642547607421875 0
240.615859985351562 250.615859985351562 100 238.351394653320312 246.642547607421875 0
244.858505249023438 254.858505249023438 100 238.351394653320312 246.642547607421875 0
185.858505249023438 313.858489990234375 0 176.087814331054688 299.259979248046875 0
181.615859985351562 309.6158447265625 0 176.087814331054688 299.259979248046875 0
181.615859985351562 309.6158447265625 100 176.087814331054688 299.259979248046875 0
185.858505249023438 313.858489990234375 100 176.087814331054688 299.259979248046875 0
200.358505249023438 299.358489990234375 0 191.294921875 284.052886962890625 0
196.115859985351562 295.1158447265625 0 191.294921875 284.052886962890625 0
196.115859985351562 295.1158447265625 100 191.294921875 284.052886962890625 0
200.358505249023438 299.358489990234375 100 191.294921875 284.052886962890625 0
143.397552490234375 283.607940673828125 0 134.343856811523438 265.007659912109375 0
147.63470458984375 279.35980224609375 0 134.343856811523438 265.007659912109375 0
147.63470458984375 279.35980224609375 100 134.343856811523438 265.007659912109375 0
143.397552490234375 283.607940673828125 100 134.343856811523438 265.007659912109375 0
759 267 0 739.45013427734375 259.77099609375 0
759 273 0 739.45013427734375 259.77099609375 0
759 273 100 739.45013427734375 259.77099609375 0
759 267 100 739.45013427734375 259.77099609375 0
722.47430419921875 248.06475830078125 0 684.34979248046875 233.96734619140625 0
716.4757080078125 247.93524169921875 0 684.34979248046875 233.96734619140625 0
716.4757080078125 247.93524169921875 100 684.34979248046875 233.96734619140625 0
722.47430419921875 248.06475830078125 100 684.34979248046875 233.96734619140625 0
595 150.35833740234375 0 0 0 -1
595 156.35833740234375 0 0 0 -1
561 156.35833740234375 0 0 0 -1
561 150.35833740234375 0 0 0 -1
595 150.35833740234375 100 0 0 1
595 156.35833740234375 100 0 0 1
561 156.35833740234375 100 0 0 1
561 150.35833740234375 100 0 0 1
654 150.35833740234375 0 0 0 -1
654 156.35833740234375 0 0 0 -1
637 156.35833740234375 0 0 0 -1
637 150.35833740234375 0 0 0 -1
654 150.35833740234375 100 0 0 1
654 156.35833740234375 100 0 0 1
637 156.35833740234375 100 0 0 1
637 150.35833740234375 100 0 0 1
541 150.35833740234375 0 0 0 -1
541 156.35833740234375 0 0 0 -1
515 156.35833740234375 0 0 0 -1
515 150.35833740234375 0 0 0 -1
541 150.35833740234375 100 0 0 1
541 156.35833740234375 100 0 0 1
515 156.35833740234375 100 0 0 1
515 150.35833740234375 100 0 0 1
463 112.5 0 0 0 -1
463 118.5 0 0 0 -1
444 118.5 0 0 0 -1
444 112.5 0 0 0 -1
463 112.5 100 0 0 1
463 118.5 100 0 0 1
444 118.5 100 0 0 1
444 112.5 100 0 0 1
363 112.5 0 0 0 -1
363 118.5 0 0 0 -1
347 118.5 0 0 0 -1
347 112.5 0 0 0 -1
363 112.5 100 0 0 1
363 118.5 100 0 0 1
347 118.5 100 0 0 1
347 112.5 100 0 0 1
419 112.5 0 0 0 -1
419 118.5 0 0 0 -1
401 118.5 0 0 0 -1
401 112.5 0 0 0 -1
419 112.5 100 0 0 1
419 118.5 100 0 0 1
401 118.5 100 0 0 1
401 112.5 100 0 0 1
759 112.5 0 0 0 -1
759 118.5 0 0 0 -1
739 118.5 0 0 0 -1
739 112.5 0 0 0 -1
759 112.5 100 0 0 1
759 118.5 100 0 0 1
739 118.5 100 0 0 1
739 112.5 100 0 0 1
514 112.5 0 0 0 -1
514 118.5 0 0 0 -1
500 118.5 0 0 0 -1
500 112.5 0 0 0 -1
514 112.5 100 0 0 1
514 118.5 100 0 0 1
500 118.5 100 0 0 1
500 112.5 100 0 0 1
84.9778594970703125 320.989532470703125 0 0 0 -1
80.7469100952148438 316.7352294921875 0 0 0 -1
133.003097534179688 264.765899658203125 0 0 0 -1
132.996902465820312 273.234100341796875 0 0 0 -1
84.9778594970703125 320.989532470703125 100 0 0 1
80.7469100952148438 316.7352294921875 100 0 0 1
133.003097534179688 264.765899658203125 100 0 0 1
132.996902465820312 273.234100341796875 100 0 0 1
132.996902465820312 273.234100341796875 0 0 0 -1
133.003097534179688 264.765899658203125 0 0 0 -1
147.63470458984375 279.35980224609375 0 0 0 -1
143.397552490234375 283.607940673828125 0 0 0 -1
132.996902465820312 273.234100341796875 100 0 0 1
133.003097534179688 264.765899658203125 100 0 0 1
147.63470458984375 279.35980224609375 100 0 0 1
143.397552490234375 283.607940673828125 100 0 0 1
76.4043426513671875 306.595672607421875 0 0 0 -1
72.1616973876953125 310.838287353515625 0 0 0 -1
32.6616973876953125 271.338287353515625 0 0 0 -1
36.9043388366699219 267.095672607421875 0 0 0 -1
76.4043426513671875 306.595672607421875 100 0 0 1
72.1616973876953125 310.838287353515625 100 0 0 1
32.6616973876953125 271.338287353515625 100 0 0 1
36.9043388366699219 267.095672607421875 100 0 0 1
440 99.46875 0 0 0 -1
440 105.46875 0 0 0 -1
423 105.46875 0 0 0 -1
423 99.46875 0 0 0 -1
440 99.46875 100 0 0 1
440 105.46875 100 0 0 1
423 105.46875 100 0 0 1
423 99.46875 100 0 0 1
579.5963134765625 198 0 0 0 -1
573.5963134765625 198 0 0 0 -1
573.5963134765625 154 0 0 0 -1
579.5963134765625 154 0 0 0 -1
579.5963134765625 198 100 0 0 1
573.5963134765625 198 100 0 0 1
573.5963134765625 154 100 0 0 1
579.5963134765625 154 100 0 0 1
579.5963134765625 251 0 0 0 -1
573.5963134765625 251 0 0 0 -1
573.5963134765625 230 0 0 0 -1
579.5963134765625 230 0 0 0 -1
579.5963134765625 251 100 0 0 1
573.5963134765625 251 100 0 0 1
573.5963134765625 230 100 0 0 1
579.5963134765625 230 100 0 0 1
177.878082275390625 232.121917724609375 0 0 0 -1
173.63543701171875 236.36456298828125 0 0 0 -1
154.63543701171875 217.36456298828125 0 0 0 -1
158.878082275390625 213.121917724609375 0 0 0 -1
177.878082275390625 232.121917724609375 100 0 0 1
173.63543701171875 236.36456298828125 100 0 0 1
154.63543701171875 217.36456298828125 100 0 0 1
158.878082275390625 213.121917724609375 100 0 0 1
535 283 0 0 0 -1
535 289 0 0 0 -1
514 289 0 0 0 -1
514 283 0 0 0 -1
535 283 100 0 0 1
535 289 100 0 0 1
514 289 100 0 0 1
514 283 100 0 0 1
707 203 0 0 0 -1
701 203 0 0 0 -1
701 187 0 0 0 -1
707 187 0 0 0 -1
707 203 100 0 0 1
701 203 100 0 0 1
701 187 100 0 0 1
707 187 100 0 0 1
173.874069213867188 379.874053955078125 0 0 0 -1
169.631423950195312 375.631439208984375 0 0 0 -1
193.631423950195312 351.631439208984375 0 0 0 -1
197.874069213867188 355.874053955078125 0 0 0 -1
173.874069213867188 379.874053955078125 100 0 0 1
169.631423950195312 375.631439208984375 100 0 0 1
193.631423950195312 351.631439208984375 100 0 0 1
197.874069213867188 355.874053955078125 100 0 0 1
355.997711181640625 355.002288818359375 0 0 0 -1
351.755096435546875 359.244903564453125 0 0 0 -1
325.255096435546875 332.744903564453125 0 0 0 -1
329.497711181640625 328.502288818359375 0 0 0 -1
355.997711181640625 355.002288818359375 100 0 0 1
351.755096435546875 359.244903564453125 100 0 0 1
325.255096435546875 332.744903564453125 100 0 0 1
329.497711181640625 328.502288818359375 100 0 0 1
116.214653015136719 352.21466064453125 0 0 0 -1
111.972015380859375 347.972015380859375 0 0 0 -1
128.972015380859375 330.972015380859375 0 0 0 -1
133.21466064453125 335.21466064453125 0 0 0 -1
116.214653015136719 352.21466064453125 100 0 0 1
111.972015380859375 347.972015380859375 100 0 0 1
128.972015380859375 330.972015380859375 100 0 0 1
133.21466064453125 335.21466064453125 100 0 0 1
350.481475830078125 198 0 0 0 -1
344.481475830078125 198 0 0 0 -1
344.481475830078125 184 0 0 0 -1
350.481475830078125 184 0 0 0 -1
350.481475830078125 198 100 0 0 1
344.481475830078125 198 100 0 0 1
344.481475830078125 184 100 0 0 1
350.481475830078125 184 100 0 0 1
329.727081298828125 400.727081298828125 0 0 0 -1
325.48443603515625 396.48443603515625 0 0 0 -1
335.98443603515625 385.98443603515625 0 0 0 -1
340.227081298828125 390.227081298828125 0 0 0 -1
329.727081298828125 400.727081298828125 100 0 0 1
325.48443603515625 396.48443603515625 100 0 0 1
335.98443603515625 385.98443603515625 100 0 0 1
340.227081298828125 390.227081298828125 100 0 0 1
353.227081298828125 377.227081298828125 0 0 0 -1
348.98443603515625 372.98443603515625 0 0 0 -1
360.48443603515625 361.48443603515625 0 0 0 -1
364.727081298828125 365.727081298828125 0 0 0 -1
353.227081298828125 377.227081298828125 100 0 0 1
348.98443603515625 372.98443603515625 100 0 0 1
360.48443603515625 361.48443603515625 100 0 0 1
364.727081298828125 365.727081298828125 100 0 0 1
220.858505249023438 278.858489990234375 0 0 0 -1
216.615859985351562 274.6158447265625 0 0 0 -1
240.615859985351562 250.615859985351562 0 0 0 -1
244.858505249023438 254.858505249023438 0 0 0 -1
220.858505249023438 278.858489990234375 100 0 0 1
216.615859985351562 274.6158447265625 100 0 0 1
240.615859985351562 250.615859985351562 100 0 0 1
244.858505249023438 254.858505249023438 100 0 0 1
185.858505249023438 313.858489990234375 0 0 0 -1
181.615859985351562 309.6158447265625 0 0 0 -1
196.115859985351562 295.1158447265625 0 0 0 -1
200.358505249023438 299.358489990234375 0 0 0 -1
185.858505249023438 313.858489990234375 100 0 0 1
181.615859985351562 309.6158447265625 100 0 0 1
196.115859985351562 295.1158447265625 100 0 0 1
200.358505249023438 299.358489990234375 100 0 0 1
759 267 0 0 0 -1
759 273 0 0 0 -1
715.93450927734375 273 0 0 0 -1
722.06549072265625 267 0 0 0 -1
759 267 100 0 0 1
759 273 100 0 0 1
715.93450927734375 273 100 0 0 1
722.06549072265625 267 100 0 0 1
722.06549072265625 267 0 0 0 -1
715.93450927734375 273 0 0 0 -1
716.4757080078125 247.93524169921875 0 0 0 -1
722.47430419921875 248.06475830078125 0 0 0 -1
722.06549072265625 267 100 0 0 1
715.93450927734375 273 100 0 0 1
716.4757080078125 247.93524169921875 100 0 0 1
722.47430419921875 248.06475830078125 100 0 0 1
4 0 1 2 3
4 4 5 6 7
4 8 9 10 11
4 12 13 14 15
4 16 17 18 19
4 20 21 22 23
4 24 25 26 27
4 28 29 30 31
4 32 33 34 35
4 36 37 38 39
4 40 41 42 43
4 44 45 46 47
4 48 49 50 51
4 52 53 54 55
4 56 57 58 59
4 60 61 62 63
4 64 65 66 67
4 68 69 70 71
4 72 73 74 75
4 76 77 78 79
4 80 81 82 83
4 84 85 86 87
4 88 89 90 91
4 92 93 94 95
4 96 97 98 99
4 100 101 102 103
4 104 105 106 107
4 108 109 110 111
4 112 113 114 115
4 116 117 118 119
4 120 121 122 123
4 124 125 126 127
4 128 129 130 131
4 132 133 134 135
4 136 137 138 139
4 140 141 142 143
4 144 145 146 147
4 148 149 150 151
4 152 153 154 155
4 156 157 158 159
4 160 161 162 163
4 164 165 166 167
4 168 169 170 171
4 172 173 174 175
4 176 177 178 179
4 180 181 182 183
4 184 185 186 187
4 188 189 190 191
4 192 193 194 195
4 196 197 198 199
4 200 201 202 203
4 204 205 206 207
4 208 209 210 211
4 212 213 214 215
4 216 217 218 219
4 220 221 222 223
4 224 225 226 227
4 228 229 230 231
4 232 233 234 235
4 236 237 238 239
4 240 241 242 243
4 244 245 246 247
4 248 249 250 251
4 252 253 254 255
4 256 257 258 259
4 260 261 262 263
4 264 265 266 267
4 268 269 270 271
4 272 273 274 275
4 276 277 278 279
4 280 281 282 283
4 284 285 286 287
4 288 289 290 291
4 292 293 294 295
4 296 297 298 299
4 300 301 302 303
4 304 305 306 307
4 308 309 310 311
4 312 313 314 315
4 316 317 318 319
4 320 321 322 323
4 324 325 326 327
4 328 329 330 331
4 332 333 334 335
4 336 337 338 339
4 340 341 342 343
4 344 345 346 347
4 348 349 350 351
4 352 353 354 355
4 356 357 358 359
4 360 361 362 363
4 364 365 366 367
4 368 369 370 371
4 372 373 374 375
4 376 377 378 379
4 380 381 382 383
4 384 385 386 387
4 388 389 390 391
4 392 393 394 395
4 396 397 398 399
4 400 401 402 403
4 404 405 406 407
4 408 409 410 411
4 412 413 414 415
4 416 417 418 419
4 420 421 422 423
4 424 425 426 427
4 428 429 430 431
4 432 433 434 435
4 436 437 438 439
4 440 441 442 443
4 444 445 446 447
4 448 449 450 451
4 452 453 454 455
4 456 457 458 459
4 460 461 462 463
4 464 465 466 467
4 468 469 470 471
4 472 473 474 475
4 476 477 478 479
4 480 481 482 483
4 484 485 486 487
4 488 489 490 491
4 492 493 494 495
4 496 497 498 499
4 500 501 502 503
4 504 505 506 507
4 508 509 510 511
4 512 513 514 515
4 516 517 518 519
4 520 521 522 523
4 524 525 526 527
4 528 529 530 531
4 532 533 534 535
4 536 537 538 539
4 540 541 542 543
4 544 545 546 547
4 548 549 550 551
4 552 553 554 555
4 556 557 558 559
4 560 561 562 563
4 564 565 566 567
4 568 569 570 571
4 572 573 574 575
4 576 577 578 579
4 580 581 582 583
4 584 585 586 587
4 588 589 590 591
4 592 593 594 595
4 596 597 598 599
4 600 601 602 603
4 604 605 606 607
4 608 609 610 611
4 612 613 614 615
4 616 617 618 619
4 620 621 622 623
4 624 625 626 627
4 628 629 630 631
