ply
format ascii 1.0
element vertex 168
property float x
property float y
property float z
property float nx
property float ny
property float nz
element quads 42
property list uchar int vertex_indices
end_header
439 320.25 0 -0 1 0
502 320.25 0 -0 1 0
502 320.25 100 -0 1 0
439 320.25 100 -0 1 0
439 319.75 0 0 -1 0
502 319.75 0 0 -1 0
502 319.75 100 0 -1 0
439 319.75 100 0 -1 0
438.75 115 0 -1 0 0
438.75 206 0 -1 0 0
438.75 206 100 -1 0 0
438.75 115 100 -1 0 0
439.25 115 0 1 -0 0
439.25 206 0 1 -0 0
439.25 206 100 1 -0 0
439.25 115 100 1 -0 0
502 169.25 0 -0 1 0
667 169.25 0 -0 1 0
667 169.25 100 -0 1 0
502 169.25 100 -0 1 0
502 168.75 0 0 -1 0
667 168.75 0 0 -1 0
667 168.75 100 0 -1 0
502 168.75 100 0 -1 0
193.75 161 0 -1 0 0
193.75 203 0 -1 0 0
193.75 203 100 -1 0 0
193.75 161 100 -1 0 0
194.25 161 0 1 -0 0
194.25 203 0 1 -0 0
194.25 203 100 1 -0 0
194.25 161 100 1 -0 0
438.75 428 0 -1 0 0
438.75 454 0 -1 0 0
438.75 454 100 -1 0 0
438.75 428 100 -1 0 0
439.25 428 0 1 -0 0
439.25 454 0 1 -0 0
439.25 454 100 1 -0 0
439.25 428 100 1 -0 0
210.75 117 0 -1 0 0
210.75 325 0 -1 0 0
210.75 325 100 -1 0 0
210.75 117 100 -1 0 0
211.25 117 0 1 -0 0
211.25 325 0 1 -0 0
211.25 325 100 1 -0 0
211.25 117 100 1 -0 0
281 320.25 0 -0 1 0
370 320.25 0 -0 1 0
370 320.25 100 -0 1 0
281 320.25 100 -0 1 0
281 319.75 0 0 -1 0
370 319.75 0 0 -1 0
370 319.75 100 0 -1 0
281 319.75 100 0 -1 0
439 320.25 0 431.03173828125 315.166656494140625 0
439 319.75 0 431.03173828125 315.166656494140625 0
439 319.75 100 431.03173828125 315.166656494140625 0
439 320.25 100 431.03173828125 315.166656494140625 0
502 320.25 0 495.03173828125 315.166656494140625 0
502 319.75 0 495.03173828125 315.166656494140625 0
502 319.75 100 495.03173828125 315.166656494140625 0
502 320.25 100 495.03173828125 315.166656494140625 0
438.75 115 0 433.928558349609375 112.73626708984375 0
439.25 115 0 433.928558349609375 112.73626708984375 0
439.25 115 100 433.928558349609375 112.73626708984375 0
438.75 115 100 433.928558349609375 112.73626708984375 0
438.75 206 0 433.928558349609375 204.73626708984375 0
439.25 206 0 433.928558349609375 204.73626708984375 0
439.25 206 100 433.928558349609375 204.73626708984375 0
438.75 206 100 433.928558349609375 204.73626708984375 0
502 169.25 0 497.95758056640625 168.2242431640625 0
502 168.75 0 497.95758056640625 168.2242431640625 0
502 168.75 100 497.95758056640625 168.2242431640625 0
502 169.25 100 497.95758056640625 168.2242431640625 0
667 169.25 0 663.95758056640625 168.2242431640625 0
667 168.75 0 663.95758056640625 168.2242431640625 0
667 168.75 100 663.95758056640625 168.2242431640625 0
667 169.25 100 663.95758056640625 168.2242431640625 0
193.75 161 0 189.13690185546875 156.166671752929688 0
194.25 161 0 189.13690185546875 156.166671752929688 0
194.25 161 100 189.13690185546875 156.166671752929688 0
193.75 161 100 189.13690185546875 156.166671752929688 0
193.75 203 0 189.13690185546875 199.166671752929688 0
194.25 203 0 189.13690185546875 199.166671752929688 0
194.25 203 100 189.13690185546875 199.166671752929688 0
193.75 203 100 189.13690185546875 199.166671752929688 0
438.75 428 0 421.875 410.5384521484375 0
439.25 428 0 421.875 410.5384521484375 0
439.25 428 100 421.875 410.5384521484375 0
438.75 428 100 421.875 410.5384521484375 0
438.75 454 0 421.875 437.5384521484375 0
439.25 454 0 421.875 437.5384521484375 0
439.25 454 100 421.875 437.5384521484375 0
438.75 454 100 421.875 437.5384521484375 0
210.75 117 0 209.736785888671875 115.4375 0
211.25 117 0 209.736785888671875 115.4375 0
211.25 117 100 209.736785888671875 115.4375 0
210.75 117 100 209.736785888671875 115.4375 0
210.75 325 0 209.736785888671875 324.4375 0
211.25 325 0 209.736785888671875 324.4375 0
211.25 325 100 209.736785888671875 324.4375 0
210.75 325 100 209.736785888671875 324.4375 0
281 320.25 0 276.842681884765625 316.65167236328125 0
281 319.75 0 276.842681884765625 316.65167236328125 0
281 319.75 100 276.842681884765625 316.65167236328125 0
281 320.25 100 276.842681884765625 316.65167236328125 0
370 320.25 0 366.842681884765625 316.65167236328125 0
370 319.75 0 366.842681884765625 316.65167236328125 0
370 319.75 100 366.842681884765625 316.65167236328125 0
370 320.25 100 366.842681884765625 316.65167236328125 0
439 320.25 0 0 0 -1
439 319.75 0 0 0 -1
502 319.75 0 0 0 -1
502 320.25 0 0 0 -1
439 320.25 100 0 0 1
439 319.75 100 0 0 1
502 319.75 100 0 0 1
502 320.25 100 0 0 1
438.75 115 0 0 0 -1
439.25 115 0 0 0 -1
439.25 206 0 0 0 -1
438.75 206 0 0 0 -1
438.75 115 100 0 0 1
439.25 115 100 0 0 1
439.25 206 100 0 0 1
438.75 206 100 0 0 1
502 169.25 0 0 0 -1
502 168.75 0 0 0 -1
667 168.75 0 0 0 -1
667 169.25 0 0 0 -1
502 169.25 100 0 0 1
502 168.75 100 0 0 1
667 168.75 100 0 0 1
667 169.25 100 0 0 1
193.75 161 0 0 0 -1
194.25 161 0 0 0 -1
194.25 203 0 0 0 -1
193.75 203 0 0 0 -1
193.75 161 100 0 0 1
194.25 161 100 0 0 1
194.25 203 100 0 0 1
193.75 203 100 0 0 1
438.75 428 0 0 0 -1
439.25 428 0 0 0 -1
439.25 454 0 0 0 -1
438.75 454 0 0 0 -1
438.75 428 100 0 0 1
439.25 428 100 0 0 1
439.25 454 100 0 0 1
438.75 454 100 0 0 1
210.75 117 0 0 0 -1
211.25 117 0 0 0 -1
211.25 325 0 0 0 -1
210.75 325 0 0 0 -1
210.75 117 100 0 0 1
211.25 117 100 0 0 1
211.25 325 100 0 0 1
210.75 325 100 0 0 1
281 320.25 0 0 0 -1
281 319.75 0 0 0 -1
370 319.75 0 0 0 -1
370 320.25 0 0 0 -1
281 320.25 100 0 0 1
281 319.75 100 0 0 1
370 319.75 100 0 0 1
370 320.25 100 0 0 1
4 0 1 2 3
4 4 5 6 7
4 8 9 10 11
4 12 13 14 15
4 16 17 18 19
4 20 21 22 23
4 24 25 26 27
4 28 29 30 31
4 32 33 34 35
4 36 37 38 39
4 40 41 42 43
4 44 45 46 47
4 48 49 50 51
4 52 53 54 55
4 56 57 58 59
4 60 61 62 63
4 64 65 66 67
4 68 69 70 71
4 72 73 74 75
4 76 77 78 79
4 80 81 82 83
4 84 85 86 87
4 88 89 90 91
4 92 93 94 95
4 96 97 98 99
4 100 101 102 103
4 104 105 106 107
4 108 109 110 111
4 112 113 114 115
4 116 117 118 119
4 120 121 122 123
4 124 125 126 127
4 128 129 130 131
4 132 133 134 135
4 136 137 138 139
4 140 141 142 143
4 144 145 146 147
4 148 149 150 151
4 152 153 154 155
4 156 157 158 159
4 160 161 162 163
4 164 165 166 167
