ply
format ascii 1.0
element vertex 480
property float x
property float y
property float z
property float nx
property float ny
property float nz
element quads 120
property list uchar int vertex_indices
end_header
524 97.25 0 -0 1 0
672 97.25 0 -0 1 0
672 97.25 100 -0 1 0
524 97.25 100 -0 1 0
524 96.75 0 0 -1 0
672 96.75 0 0 -1 0
672 96.75 100 0 -1 0
524 96.75 100 0 -1 0
162.75 444.25 0 -0 1 0
341 444.25 0 -0 1 0
341 444.25 100 -0 1 0
162.75 444.25 100 -0 1 0
163.25 443.75 0 0 -1 0
341 443.75 0 0 -1 0
341 443.75 100 0 -1 0
163.25 443.75 100 0 -1 0
163.25 443.75 0 1 0 0
163.25 55.25 0 1 0 0
163.25 55.25 100 1 0 0
163.25 443.75 100 1 0 0
162.75 444.25 0 -1 -0 0
162.75 54.75 0 -1 -0 0
162.75 54.75 100 -1 -0 0
162.75 444.25 100 -1 -0 0
596 309.25 0 -0 1 0
677.25 309.25 0 -0 1 0
677.25 309.25 100 -0 1 0
596 309.25 100 -0 1 0
596 308.75 0 0 -1 0
676.75 308.75 0 0 -1 0
676.75 308.75 100 0 -1 0
596 308.75 100 0 -1 0
677.25 309.25 0 1 0 0
677.25 27.75 0 1 0 0
677.25 27.75 100 1 0 0
677.25 309.25 100 1 0 0
676.75 308.75 0 -1 -0 0
676.75 28.25 0 -1 -0 0
676.75 28.25 100 -1 -0 0
676.75 308.75 100 -1 -0 0
471.25 207 0 1 0 0
471.25 183 0 1 0 0
471.25 183 100 1 0 0
471.25 207 100 1 0 0
470.75 207 0 -1 -0 0
470.75 183 0 -1 -0 0
470.75 183 100 -1 -0 0
470.75 207 100 -1 -0 0
346.75 470.25 0 -0 1 0
445 470.25 0 -0 1 0
445 470.25 100 -0 1 0
346.75 470.25 100 -0 1 0
347.25 469.75 0 0 -1 0
445 469.75 0 0 -1 0
445 469.75 100 0 -1 0
347.25 469.75 100 0 -1 0
347.25 469.75 0 1 0 0
347.25 28.25 0 1 0 0
347.25 28.25 100 1 0 0
347.25 469.75 100 1 0 0
346.75 470.25 0 -1 -0 0
346.75 27.75 0 -1 -0 0
346.75 27.75 100 -1 -0 0
346.75 470.25 100 -1 -0 0
350 309.25 0 -0 1 0
468 309.25 0 -0 1 0
468 309.25 100 -0 1 0
350 309.25 100 -0 1 0
350 308.75 0 0 -1 0
468 308.75 0 0 -1 0
468 308.75 100 0 -1 0
350 308.75 100 0 -1 0
163.25 55.25 0 -0 1 0
341 55.25 0 -0 1 0
341 55.25 100 -0 1 0
163.25 55.25 100 -0 1 0
162.75 54.75 0 0 -1 0
341 54.75 0 0 -1 0
341 54.75 100 0 -1 0
162.75 54.75 100 0 -1 0
648.75 308 0 -1 0 0
648.75 522.75 0 -1 0 0
648.75 522.75 100 -1 0 0
648.75 308 100 -1 0 0
649.25 308 0 1 -0 0
649.25 523.25 0 1 -0 0
649.25 523.25 100 1 -0 0
649.25 308 100 1 -0 0
648.75 522.75 0 -0 -1 0
451.25 522.75 0 -0 -1 0
451.25 522.75 100 -0 -1 0
648.75 522.75 100 -0 -1 0
649.25 523.25 0 0 1 0
450.75 523.25 0 0 1 0
450.75 523.25 100 0 1 0
649.25 523.25 100 0 1 0
518.75 23 0 -1 0 0
518.75 362 0 -1 0 0
518.75 362 100 -1 0 0
518.75 23 100 -1 0 0
519.25 23 0 1 -0 0
519.25 362 0 1 -0 0
519.25 362 100 1 -0 0
519.25 23 100 1 -0 0
450.75 175 0 -1 0 0
450.75 261 0 -1 0 0
450.75 261 100 -1 0 0
450.75 175 100 -1 0 0
451.25 175 0 1 -0 0
451.25 261 0 1 -0 0
451.25 261 100 1 -0 0
451.25 175 100 1 -0 0
450.75 356 0 -1 0 0
450.75 523.25 0 -1 0 0
450.75 523.25 100 -1 0 0
450.75 356 100 -1 0 0
451.25 356 0 1 -0 0
451.25 522.75 0 1 -0 0
451.25 522.75 100 1 -0 0
451.25 356 100 1 -0 0
347.25 28.25 0 -0 1 0
676.75 28.25 0 -0 1 0
676.75 28.25 100 -0 1 0
347.25 28.25 100 -0 1 0
346.75 27.75 0 0 -1 0
677.25 27.75 0 0 -1 0
677.25 27.75 100 0 -1 0
346.75 27.75 100 0 -1 0
166 130.25 0 -0 1 0
272.75 130.25 0 -0 1 0
272.75 130.25 100 -0 1 0
166 130.25 100 -0 1 0
166 129.75 0 0 -1 0
273.25 129.75 0 0 -1 0
273.25 129.75 100 0 -1 0
166 129.75 100 0 -1 0
272.75 130.25 0 -1 0 0
272.75 216 0 -1 0 0
272.75 216 100 -1 0 0
272.75 130.25 100 -1 0 0
273.25 129.75 0 1 -0 0
273.25 216 0 1 -0 0
273.25 216 100 1 -0 0
273.25 129.75 100 1 -0 0
349 360.25 0 -0 1 0
647 360.25 0 -0 1 0
647 360.25 100 -0 1 0
349 360.25 100 -0 1 0
349 359.75 0 0 -1 0
647 359.75 0 0 -1 0
647 359.75 100 0 -1 0
349 359.75 100 0 -1 0
166 210.25 0 -0 1 0
516 210.25 0 -0 1 0
516 210.25 100 -0 1 0
166 210.25 100 -0 1 0
166 209.75 0 0 -1 0
516 209.75 0 0 -1 0
516 209.75 100 0 -1 0
166 209.75 100 0 -1 0
524 279.25 0 -0 1 0
611 279.25 0 -0 1 0
611 279.25 100 -0 1 0
524 279.25 100 -0 1 0
524 278.75 0 0 -1 0
611 278.75 0 0 -1 0
611 278.75 100 0 -1 0
524 278.75 100 0 -1 0
415.75 363 0 -1 0 0
415.75 475 0 -1 0 0
415.75 475 100 -1 0 0
415.75 363 100 -1 0 0
416.25 363 0 1 -0 0
416.25 475 0 1 -0 0
416.25 475 100 1 -0 0
416.25 363 100 1 -0 0
252.75 58 0 -1 0 0
252.75 129 0 -1 0 0
252.75 129 100 -1 0 0
252.75 58 100 -1 0 0
253.25 58 0 1 -0 0
253.25 129 0 1 -0 0
253.25 129 100 1 -0 0
253.25 58 100 1 -0 0
524 97.25 0 519.45947265625 96.5929031372070312 0
524 96.75 0 519.45947265625 96.5929031372070312 0
524 96.75 100 519.45947265625 96.5929031372070312 0
524 97.25 100 519.45947265625 96.5929031372070312 0
672 97.25 0 668.45947265625 96.5929031372070312 0
672 96.75 0 668.45947265625 96.5929031372070312 0
672 96.75 100 668.45947265625 96.5929031372070312 0
672 97.25 100 668.45947265625 96.5929031372070312 0
341 444.25 0 340.086944580078125 441.757720947265625 0
341 443.75 0 340.086944580078125 441.757720947265625 0
341 443.75 100 340.086944580078125 441.757720947265625 0
341 444.25 100 340.086944580078125 441.757720947265625 0
596 309.25 0 587.66461181640625 305.44384765625 0
596 308.75 0 587.66461181640625 305.44384765625 0
596 308.75 100 587.66461181640625 305.44384765625 0
596 309.25 100 587.66461181640625 305.44384765625 0
471.25 207 0 451.614593505859375 199.375 0
470.75 207 0 451.614593505859375 199.375 0
470.75 207 100 451.614593505859375 199.375 0
471.25 207 100 451.614593505859375 199.375 0
471.25 183 0 451.614593505859375 174.375 0
470.75 183 0 451.614593505859375 174.375 0
470.75 183 100 451.614593505859375 174.375 0
471.25 183 100 451.614593505859375 174.375 0
445 470.25 0 441.470733642578125 465.4637451171875 0
445 469.75 0 441.470733642578125 465.4637451171875 0
445 469.75 100 441.470733642578125 465.4637451171875 0
445 470.25 100 441.470733642578125 465.4637451171875 0
350 309.25 0 346.033905029296875 306.629241943359375 0
350 308.75 0 346.033905029296875 306.629241943359375 0
350 308.75 100 346.033905029296875 306.629241943359375 0
350 309.25 100 346.033905029296875 306.629241943359375 0
468 309.25 0 465.033905029296875 306.629241943359375 0
468 308.75 0 465.033905029296875 306.629241943359375 0
468 308.75 100 465.033905029296875 306.629241943359375 0
468 309.25 100 465.033905029296875 306.629241943359375 0
648.75 308 0 645.72906494140625 305.565765380859375 0
649.25 308 0 645.72906494140625 305.565765380859375 0
649.25 308 100 645.72906494140625 305.565765380859375 0
648.75 308 100 645.72906494140625 305.565765380859375 0
518.75 23 0 517.21978759765625 21.9321537017822266 0
519.25 23 0 517.21978759765625 21.9321537017822266 0
519.25 23 100 517.21978759765625 21.9321537017822266 0
518.75 23 100 517.21978759765625 21.9321537017822266 0
518.75 362 0 517.21978759765625 361.932159423828125 0
519.25 362 0 517.21978759765625 361.932159423828125 0
519.25 362 100 517.21978759765625 361.932159423828125 0
518.75 362 100 517.21978759765625 361.932159423828125 0
450.75 175 0 445.50872802734375 171.965118408203125 0
451.25 175 0 445.50872802734375 171.965118408203125 0
451.25 175 100 445.50872802734375 171.965118408203125 0
450.75 175 100 445.50872802734375 171.965118408203125 0
450.75 261 0 445.50872802734375 258.965118408203125 0
451.25 261 0 445.50872802734375 258.965118408203125 0
451.25 261 100 445.50872802734375 258.965118408203125 0
450.75 261 100 445.50872802734375 258.965118408203125 0
450.75 356 0 448.054931640625 352.8714599609375 0
451.25 356 0 448.054931640625 352.8714599609375 0
451.25 356 100 448.054931640625 352.8714599609375 0
450.75 356 100 448.054931640625 352.8714599609375 0
166 130.25 0 163.444961547851562 129.029861450195312 0
166 129.75 0 163.444961547851562 129.029861450195312 0
166 129.75 100 163.444961547851562 129.029861450195312 0
166 130.25 100 163.444961547851562 129.029861450195312 0
349 360.25 0 346.828857421875 359.041107177734375 0
349 359.75 0 346.828857421875 359.041107177734375 0
349 359.75 100 346.828857421875 359.041107177734375 0
349 360.25 100 346.828857421875 359.041107177734375 0
647 360.25 0 645.828857421875 359.041107177734375 0
647 359.75 0 645.828857421875 359.041107177734375 0
647 359.75 100 645.828857421875 359.041107177734375 0
647 360.25 100 645.828857421875 359.041107177734375 0
166 210.25 0 164.525711059570312 209.6492919921875 0
166 209.75 0 164.525711059570312 209.6492919921875 0
166 209.75 100 164.525711059570312 209.6492919921875 0
166 210.25 100 164.525711059570312 209.6492919921875 0
516 210.25 0 515.52569580078125 209.6492919921875 0
516 209.75 0 515.52569580078125 209.6492919921875 0
516 209.75 100 515.52569580078125 209.6492919921875 0
516 210.25 100 515.52569580078125 209.6492919921875 0
272.75 216 0 269.569244384765625 214.481048583984375 0
273.25 216 0 269.569244384765625 214.481048583984375 0
273.25 216 100 269.569244384765625 214.481048583984375 0
272.75 216 100 269.569244384765625 214.481048583984375 0
524 279.25 0 516.97698974609375 276.04022216796875 0
524 278.75 0 516.97698974609375 276.04022216796875 0
524 278.75 100 516.97698974609375 276.04022216796875 0
524 279.25 100 516.97698974609375 276.04022216796875 0
611 279.25 0 604.97698974609375 276.04022216796875 0
611 278.75 0 604.97698974609375 276.04022216796875 0
611 278.75 100 604.97698974609375 276.04022216796875 0
611 279.25 100 604.97698974609375 276.04022216796875 0
415.75 363 0 412.037933349609375 358.758941650390625 0
416.25 363 0 412.037933349609375 358.758941650390625 0
416.25 363 100 412.037933349609375 358.758941650390625 0
415.75 363 100 412.037933349609375 358.758941650390625 0
415.75 475 0 412.037933349609375 471.758941650390625 0
416.25 475 0 412.037933349609375 471.758941650390625 0
416.25 475 100 412.037933349609375 471.758941650390625 0
415.75 475 100 412.037933349609375 471.758941650390625 0
252.75 58 0 249.190139770507812 56.1830978393554688 0
253.25 58 0 249.190139770507812 56.1830978393554688 0
253.25 58 100 249.190139770507812 56.1830978393554688 0
252.75 58 100 249.190139770507812 56.1830978393554688 0
252.75 129 0 249.190139770507812 128.18310546875 0
253.25 129 0 249.190139770507812 128.18310546875 0
253.25 129 100 249.190139770507812 128.18310546875 0
252.75 129 100 249.190139770507812 128.18310546875 0
341 55.25 0 340.081573486328125 54.9391708374023438 0
341 54.75 0 340.081573486328125 54.9391708374023438 0
341 54.75 100 340.081573486328125 54.9391708374023438 0
341 55.25 100 340.081573486328125 54.9391708374023438 0
524 97.25 0 0 0 -1
524 96.75 0 0 0 -1
672 96.75 0 0 0 -1
672 97.25 0 0 0 -1
524 97.25 100 0 0 1
524 96.75 100 0 0 1
672 96.75 100 0 0 1
672 97.25 100 0 0 1
162.75 444.25 0 0 0 -1
163.25 443.75 0 0 0 -1
341 443.75 0 0 0 -1
341 444.25 0 0 0 -1
162.75 444.25 100 0 0 1
163.25 443.75 100 0 0 1
341 443.75 100 0 0 1
341 444.25 100 0 0 1
163.25 443.75 0 0 0 -1
162.75 444.25 0 0 0 -1
162.75 54.75 0 0 0 -1
163.25 55.25 0 0 0 -1
163.25 443.75 100 0 0 1
162.75 444.25 100 0 0 1
162.75 54.75 100 0 0 1
163.25 55.25 100 0 0 1
596 309.25 0 0 0 -1
596 308.75 0 0 0 -1
676.75 308.75 0 0 0 -1
677.25 309.25 0 0 0 -1
596 309.25 100 0 0 1
596 308.75 100 0 0 1
676.75 308.75 100 0 0 1
677.25 309.25 100 0 0 1
677.25 309.25 0 0 0 -1
676.75 308.75 0 0 0 -1
676.75 28.25 0 0 0 -1
677.25 27.75 0 0 0 -1
677.25 309.25 100 0 0 1
676.75 308.75 100 0 0 1
676.75 28.25 100 0 0 1
677.25 27.75 100 0 0 1
471.25 207 0 0 0 -1
470.75 207 0 0 0 -1
470.75 183 0 0 0 -1
471.25 183 0 0 0 -1
471.25 207 100 0 0 1
470.75 207 100 0 0 1
470.75 183 100 0 0 1
471.25 183 100 0 0 1
346.75 470.25 0 0 0 -1
347.25 469.75 0 0 0 -1
445 469.75 0 0 0 -1
445 470.25 0 0 0 -1
346.75 470.25 100 0 0 1
347.25 469.75 100 0 0 1
445 469.75 100 0 0 1
445 470.25 100 0 0 1
347.25 469.75 0 0 0 -1
346.75 470.25 0 0 0 -1
346.75 27.75 0 0 0 -1
347.25 28.25 0 0 0 -1
347.25 469.75 100 0 0 1
346.75 470.25 100 0 0 1
346.75 27.75 100 0 0 1
347.25 28.25 100 0 0 1
350 309.25 0 0 0 -1
350 308.75 0 0 0 -1
468 308.75 0 0 0 -1
468 309.25 0 0 0 -1
350 309.25 100 0 0 1
350 308.75 100 0 0 1
468 308.75 100 0 0 1
468 309.25 100 0 0 1
163.25 55.25 0 0 0 -1
162.75 54.75 0 0 0 -1
341 54.75 0 0 0 -1
341 55.25 0 0 0 -1
163.25 55.25 100 0 0 1
162.75 54.75 100 0 0 1
341 54.75 100 0 0 1
341 55.25 100 0 0 1
648.75 308 0 0 0 -1
649.25 308 0 0 0 -1
649.25 523.25 0 0 0 -1
648.75 522.75 0 0 0 -1
648.75 308 100 0 0 1
649.25 308 100 0 0 1
649.25 523.25 100 0 0 1
648.75 522.75 100 0 0 1
648.75 522.75 0 0 0 -1
649.25 523.25 0 0 0 -1
450.75 523.25 0 0 0 -1
451.25 522.75 0 0 0 -1
648.75 522.75 100 0 0 1
649.25 523.25 100 0 0 1
450.75 523.25 100 0 0 1
451.25 522.75 100 0 0 1
518.75 23 0 0 0 -1
519.25 23 0 0 0 -1
519.25 362 0 0 0 -1
518.75 362 0 0 0 -1
518.75 23 100 0 0 1
519.25 23 100 0 0 1
519.25 362 100 0 0 1
518.75 362 100 0 0 1
450.75 175 0 0 0 -1
451.25 175 0 0 0 -1
451.25 261 0 0 0 -1
450.75 261 0 0 0 -1
450.75 175 100 0 0 1
451.25 175 100 0 0 1
451.25 261 100 0 0 1
450.75 261 100 0 0 1
450.75 356 0 0 0 -1
451.25 356 0 0 0 -1
451.25 522.75 0 0 0 -1
450.75 523.25 0 0 0 -1
450.75 356 100 0 0 1
451.25 356 100 0 0 1
451.25 522.75 100 0 0 1
450.75 523.25 100 0 0 1
347.25 28.25 0 0 0 -1
346.75 27.75 0 0 0 -1
677.25 27.75 0 0 0 -1
676.75 28.25 0 0 0 -1
347.25 28.25 100 0 0 1
346.75 27.75 100 0 0 1
677.25 27.75 100 0 0 1
676.75 28.25 100 0 0 1
166 130.25 0 0 0 -1
166 129.75 0 0 0 -1
273.25 129.75 0 0 0 -1
272.75 130.25 0 0 0 -1
166 130.25 100 0 0 1
166 129.75 100 0 0 1
273.25 129.75 100 0 0 1
272.75 130.25 100 0 0 1
272.75 130.25 0 0 0 -1
273.25 129.75 0 0 0 -1
273.25 216 0 0 0 -1
272.75 216 0 0 0 -1
272.75 130.25 100 0 0 1
273.25 129.75 100 0 0 1
273.25 216 100 0 0 1
272.75 216 100 0 0 1
349 360.25 0 0 0 -1
349 359.75 0 0 0 -1
647 359.75 0 0 0 -1
647 360.25 0 0 0 -1
349 360.25 100 0 0 1
349 359.75 100 0 0 1
647 359.75 100 0 0 1
647 360.25 100 0 0 1
166 210.25 0 0 0 -1
166 209.75 0 0 0 -1
516 209.75 0 0 0 -1
516 210.25 0 0 0 -1
166 210.25 100 0 0 1
166 209.75 100 0 0 1
516 209.75 100 0 0 1
516 210.25 100 0 0 1
524 279.25 0 0 0 -1
524 278.75 0 0 0 -1
611 278.75 0 0 0 -1
611 279.25 0 0 0 -1
524 279.25 100 0 0 1
524 278.75 100 0 0 1
611 278.75 100 0 0 1
611 279.25 100 0 0 1
415.75 363 0 0 0 -1
416.25 363 0 0 0 -1
416.25 475 0 0 0 -1
415.75 475 0 0 0 -1
415.75 363 100 0 0 1
416.25 363 100 0 0 1
416.25 475 100 0 0 1
415.75 475 100 0 0 1
252.75 58 0 0 0 -1
253.25 58 0 0 0 -1
253.25 129 0 0 0 -1
252.75 129 0 0 0 -1
252.75 58 100 0 0 1
253.25 58 100 0 0 1
253.25 129 100 0 0 1
252.75 129 100 0 0 1
4 0 1 2 3
4 4 5 6 7
4 8 9 10 11
4 12 13 14 15
4 16 17 18 19
4 20 21 22 23
4 24 25 26 27
4 28 29 30 31
4 32 33 34 35
4 36 37 38 39
4 40 41 42 43
4 44 45 46 47
4 48 49 50 51
4 52 53 54 55
4 56 57 58 59
4 60 61 62 63
4 64 65 66 67
4 68 69 70 71
4 72 73 74 75
4 76 77 78 79
4 80 81 82 83
4 84 85 86 87
4 88 89 90 91
4 92 93 94 95
4 96 97 98 99
4 100 101 102 103
4 104 105 106 107
4 108 109 110 111
4 112 113 114 115
4 116 117 118 119
4 120 121 122 123
4 124 125 126 127
4 128 129 130 131
4 132 133 134 135
4 136 137 138 139
4 140 141 142 143
4 144 145 146 147
4 148 149 150 151
4 152 153 154 155
4 156 157 158 159
4 160 161 162 163
4 164 165 166 167
4 168 169 170 171
4 172 173 174 175
4 176 177 178 179
4 180 181 182 183
4 184 185 186 187
4 188 189 190 191
4 192 193 194 195
4 196 197 198 199
4 200 201 202 203
4 204 205 206 207
4 208 209 210 211
4 212 213 214 215
4 216 217 218 219
4 220 221 222 223
4 224 225 226 227
4 228 229 230 231
4 232 233 234 235
4 236 237 238 239
4 240 241 242 243
4 244 245 246 247
4 248 249 250 251
4 252 253 254 255
4 256 257 258 259
4 260 261 262 263
4 264 265 266 267
4 268 269 270 271
4 272 273 274 275
4 276 277 278 279
4 280 281 282 283
4 284 285 286 287
4 288 289 290 291
4 292 293 294 295
4 296 297 298 299
4 300 301 302 303
4 304 305 306 307
4 308 309 310 311
4 312 313 314 315
4 316 317 318 319
4 320 321 322 323
4 324 325 326 327
4 328 329 330 331
4 332 333 334 335
4 336 337 338 339
4 340 341 342 343
4 344 345 346 347
4 348 349 350 351
4 352 353 354 355
4 356 357 358 359
4 360 361 362 363
4 364 365 366 367
4 368 369 370 371
4 372 373 374 375
4 376 377 378 379
4 380 381 382 383
4 384 385 386 387
4 388 389 390 391
4 392 393 394 395
4 396 397 398 399
4 400 401 402 403
4 404 405 406 407
4 408 409 410 411
4 412 413 414 415
4 416 417 418 419
4 420 421 422 423
4 424 425 426 427
4 428 429 430 431
4 432 433 434 435
4 436 437 438 439
4 440 441 442 443
4 444 445 446 447
4 448 449 450 451
4 452 453 454 455
4 456 457 458 459
4 460 461 462 463
4 464 465 466 467
4 468 469 470 471
4 472 473 474 475
4 476 477 478 479
