ply
format ascii 1.0
element vertex 496
property float x
property float y
property float z
property float nx
property float ny
property float nz
element quads 124
property list uchar int vertex_indices
end_header
280.25 314 0 1 0 0
280.25 98 0 1 0 0
280.25 98 100 1 0 0
280.25 314 100 1 0 0
279.75 314 0 -1 -0 0
279.75 98 0 -1 -0 0
279.75 98 100 -1 -0 0
279.75 314 100 -1 -0 0
185 259.25 0 -0 1 0
279 259.25 0 -0 1 0
279 259.25 100 -0 1 0
185 259.25 100 -0 1 0
185 258.75 0 0 -1 0
279 258.75 0 0 -1 0
279 258.75 100 0 -1 0
185 258.75 100 0 -1 0
584.25 355 0 1 0 0
584.25 222 0 1 0 0
584.25 222 100 1 0 0
584.25 355 100 1 0 0
583.75 355 0 -1 -0 0
583.75 222 0 -1 -0 0
583.75 222 100 -1 -0 0
583.75 355 100 -1 -0 0
523.25 288 0 1 0 0
523.25 260 0 1 0 0
523.25 260 100 1 0 0
523.25 288 100 1 0 0
522.75 288 0 -1 -0 0
522.75 260 0 -1 -0 0
522.75 260 100 -1 -0 0
522.75 288 100 -1 -0 0
445 394.25 0 -0 1 0
546 394.25 0 -0 1 0
546 394.25 100 -0 1 0
445 394.25 100 -0 1 0
445 393.75 0 0 -1 0
546 393.75 0 0 -1 0
546 393.75 100 0 -1 0
445 393.75 100 0 -1 0
252.25 312.75 0 1 0 0
252.25 267 0 1 0 0
252.25 267 100 1 0 0
252.25 312.75 100 1 0 0
251.75 313.25 0 -1 -0 0
251.75 267 0 -1 -0 0
251.75 267 100 -1 -0 0
251.75 313.25 100 -1 -0 0
251.75 313.25 0 -0 1 0
368 313.25 0 -0 1 0
368 313.25 100 -0 1 0
251.75 313.25 100 -0 1 0
252.25 312.75 0 0 -1 0
368 312.75 0 0 -1 0
368 312.75 100 0 -1 0
252.25 312.75 100 0 -1 0
178.75 99.75 0 -1 0 0
178.75 525 0 -1 0 0
178.75 525 100 -1 0 0
178.75 99.75 100 -1 0 0
179.25 100.25 0 1 -0 0
179.25 525 0 1 -0 0
179.25 525 100 1 -0 0
179.25 100.25 100 1 -0 0
179.25 100.25 0 -0 1 0
588 100.25 0 -0 1 0
588 100.25 100 -0 1 0
179.25 100.25 100 -0 1 0
178.75 99.75 0 0 -1 0
588 99.75 0 0 -1 0
588 99.75 100 0 -1 0
178.75 99.75 100 0 -1 0
547.75 259 0 -1 0 0
547.75 464 0 -1 0 0
547.75 464 100 -1 0 0
547.75 259 100 -1 0 0
548.25 259 0 1 -0 0
548.25 464 0 1 -0 0
548.25 464 100 1 -0 0
548.25 259 100 1 -0 0
403.75 98 0 -1 0 0
403.75 296 0 -1 0 0
403.75 296 100 -1 0 0
403.75 98 100 -1 0 0
404.25 98 0 1 -0 0
404.25 296 0 1 -0 0
404.25 296 100 1 -0 0
404.25 98 100 1 -0 0
443.75 259 0 -1 0 0
443.75 435 0 -1 0 0
443.75 435 100 -1 0 0
443.75 259 100 -1 0 0
444.25 259 0 1 -0 0
444.25 435 0 1 -0 0
444.25 435 100 1 -0 0
444.25 259 100 1 -0 0
281 259.25 0 -0 1 0
584 259.25 0 -0 1 0
584 259.25 100 -0 1 0
281 259.25 100 -0 1 0
281 258.75 0 0 -1 0
584 258.75 0 0 -1 0
584 258.75 100 0 -1 0
281 258.75 100 0 -1 0
585 299.25 0 -0 1 0
671 299.25 0 -0 1 0
671 299.25 100 -0 1 0
585 299.25 100 -0 1 0
585 298.75 0 0 -1 0
671 298.75 0 0 -1 0
671 298.75 100 0 -1 0
585 298.75 100 0 -1 0
549 354.25 0 -0 1 0
671 354.25 0 -0 1 0
671 354.25 100 -0 1 0
549 354.25 100 -0 1 0
549 353.75 0 0 -1 0
671 353.75 0 0 -1 0
671 353.75 100 0 -1 0
549 353.75 100 0 -1 0
522.75 393 0 -1 0 0
522.75 460.25 0 -1 0 0
522.75 460.25 100 -1 0 0
522.75 393 100 -1 0 0
523.25 393 0 1 -0 0
523.25 459.75 0 1 -0 0
523.25 459.75 100 1 -0 0
523.25 393 100 1 -0 0
522.75 460.25 0 -0 1 0
675.25 460.25 0 -0 1 0
675.25 460.25 100 -0 1 0
522.75 460.25 100 -0 1 0
523.25 459.75 0 0 -1 0
674.75 459.75 0 0 -1 0
674.75 459.75 100 0 -1 0
523.25 459.75 100 0 -1 0
445 299.25 0 -0 1 0
546 299.25 0 -0 1 0
546 299.25 100 -0 1 0
445 299.25 100 -0 1 0
445 298.75 0 0 -1 0
546 298.75 0 0 -1 0
546 298.75 100 0 -1 0
445 298.75 100 0 -1 0
456 80.25 0 -0 1 0
501 80.25 0 -0 1 0
501 80.25 100 -0 1 0
456 80.25 100 -0 1 0
456 79.75 0 0 -1 0
501 79.75 0 0 -1 0
501 79.75 100 0 -1 0
456 79.75 100 0 -1 0
231.75 232 0 -1 0 0
231.75 264 0 -1 0 0
231.75 264 100 -1 0 0
231.75 232 100 -1 0 0
232.25 232 0 1 -0 0
232.25 264 0 1 -0 0
232.25 264 100 1 -0 0
232.25 232 100 1 -0 0
675.25 460.25 0 1 0 0
675.25 98 0 1 0 0
675.25 98 100 1 0 0
675.25 460.25 100 1 0 0
674.75 459.75 0 -1 -0 0
674.75 98 0 -1 -0 0
674.75 98 100 -1 -0 0
674.75 459.75 100 -1 -0 0
368.75 258 0 -1 0 0
368.75 526 0 -1 0 0
368.75 526 100 -1 0 0
368.75 258 100 -1 0 0
369.25 258 0 1 -0 0
369.25 526 0 1 -0 0
369.25 526 100 1 -0 0
369.25 258 100 1 -0 0
280.25 314 0 278.952545166015625 313.546295166015625 0
279.75 314 0 278.952545166015625 313.546295166015625 0
279.75 314 100 278.952545166015625 313.546295166015625 0
280.25 314 100 278.952545166015625 313.546295166015625 0
280.25 98 0 278.952545166015625 96.546295166015625 0
279.75 98 0 278.952545166015625 96.546295166015625 0
279.75 98 100 278.952545166015625 96.546295166015625 0
280.25 98 100 278.952545166015625 96.546295166015625 0
185 259.25 0 182.03192138671875 256.492034912109375 0
185 258.75 0 182.03192138671875 256.492034912109375 0
185 258.75 100 182.03192138671875 256.492034912109375 0
185 259.25 100 182.03192138671875 256.492034912109375 0
279 259.25 0 277.03192138671875 256.492034912109375 0
279 258.75 0 277.03192138671875 256.492034912109375 0
279 258.75 100 277.03192138671875 256.492034912109375 0
279 259.25 100 277.03192138671875 256.492034912109375 0
584.25 355 0 579.85711669921875 353.330841064453125 0
583.75 355 0 579.85711669921875 353.330841064453125 0
583.75 355 100 579.85711669921875 353.330841064453125 0
584.25 355 100 579.85711669921875 353.330841064453125 0
584.25 222 0 579.85711669921875 219.330825805664062 0
583.75 222 0 579.85711669921875 219.330825805664062 0
583.75 222 100 579.85711669921875 219.330825805664062 0
584.25 222 100 579.85711669921875 219.330825805664062 0
523.25 288 0 504.5625 278.71429443359375 0
522.75 288 0 504.5625 278.71429443359375 0
522.75 288 100 504.5625 278.71429443359375 0
523.25 288 100 504.5625 278.71429443359375 0
523.25 260 0 504.5625 249.714279174804688 0
522.75 260 0 504.5625 249.714279174804688 0
522.75 260 100 504.5625 249.714279174804688 0
523.25 260 100 504.5625 249.714279174804688 0
445 394.25 0 439.59405517578125 390.346527099609375 0
445 393.75 0 439.59405517578125 390.346527099609375 0
445 393.75 100 439.59405517578125 390.346527099609375 0
445 394.25 100 439.59405517578125 390.346527099609375 0
546 394.25 0 541.59405517578125 390.346527099609375 0
546 393.75 0 541.59405517578125 390.346527099609375 0
546 393.75 100 541.59405517578125 390.346527099609375 0
546 394.25 100 541.59405517578125 390.346527099609375 0
252.25 267 0 246.736343383789062 260.1639404296875 0
251.75 267 0 246.736343383789062 260.1639404296875 0
251.75 267 100 246.736343383789062 260.1639404296875 0
252.25 267 100 246.736343383789062 260.1639404296875 0
368 313.25 0 365.83441162109375 310.555389404296875 0
368 312.75 0 365.83441162109375 310.555389404296875 0
368 312.75 100 365.83441162109375 310.555389404296875 0
368 313.25 100 365.83441162109375 310.555389404296875 0
178.75 525 0 178.329666137695312 524.76544189453125 0
179.25 525 0 178.329666137695312 524.76544189453125 0
179.25 525 100 178.329666137695312 524.76544189453125 0
178.75 525 100 178.329666137695312 524.76544189453125 0
547.75 259 0 545.07806396484375 256.736572265625 0
548.25 259 0 545.07806396484375 256.736572265625 0
548.25 259 100 545.07806396484375 256.736572265625 0
547.75 259 100 545.07806396484375 256.736572265625 0
547.75 464 0 545.07806396484375 462.736572265625 0
548.25 464 0 545.07806396484375 462.736572265625 0
548.25 464 100 545.07806396484375 462.736572265625 0
547.75 464 100 545.07806396484375 462.736572265625 0
403.75 98 0 401.710845947265625 96.5050506591796875 0
404.25 98 0 401.710845947265625 96.5050506591796875 0
404.25 98 100 401.710845947265625 96.5050506591796875 0
403.75 98 100 401.710845947265625 96.5050506591796875 0
403.75 296 0 401.710845947265625 295.505035400390625 0
404.25 296 0 401.710845947265625 295.505035400390625 0
404.25 296 100 401.710845947265625 295.505035400390625 0
403.75 296 100 401.710845947265625 295.505035400390625 0
443.75 259 0 441.22869873046875 256.528411865234375 0
444.25 259 0 441.22869873046875 256.528411865234375 0
444.25 259 100 441.22869873046875 256.528411865234375 0
443.75 259 100 441.22869873046875 256.528411865234375 0
443.75 435 0 441.22869873046875 433.528411865234375 0
444.25 435 0 441.22869873046875 433.528411865234375 0
444.25 435 100 441.22869873046875 433.528411865234375 0
443.75 435 100 441.22869873046875 433.528411865234375 0
281 259.25 0 279.072601318359375 258.394378662109375 0
281 258.75 0 279.072601318359375 258.394378662109375 0
281 258.75 100 279.072601318359375 258.394378662109375 0
281 259.25 100 279.072601318359375 258.394378662109375 0
584 259.25 0 583.0726318359375 258.394378662109375 0
584 258.75 0 583.0726318359375 258.394378662109375 0
584 258.75 100 583.0726318359375 258.394378662109375 0
584 259.25 100 583.0726318359375 258.394378662109375 0
585 299.25 0 577.19769287109375 295.770355224609375 0
585 298.75 0 577.19769287109375 295.770355224609375 0
585 298.75 100 577.19769287109375 295.770355224609375 0
585 299.25 100 577.19769287109375 295.770355224609375 0
671 299.25 0 664.19769287109375 295.770355224609375 0
671 298.75 0 664.19769287109375 295.770355224609375 0
671 298.75 100 664.19769287109375 295.770355224609375 0
671 299.25 100 664.19769287109375 295.770355224609375 0
549 354.25 0 543.5 351.3463134765625 0
549 353.75 0 543.5 351.3463134765625 0
549 353.75 100 543.5 351.3463134765625 0
549 354.25 100 543.5 351.3463134765625 0
671 354.25 0 666.5 351.3463134765625 0
671 353.75 0 666.5 351.3463134765625 0
671 353.75 100 666.5 351.3463134765625 0
671 354.25 100 666.5 351.3463134765625 0
522.75 393 0 514.97674560546875 386.1561279296875 0
523.25 393 0 514.97674560546875 386.1561279296875 0
523.25 393 100 514.97674560546875 386.1561279296875 0
522.75 393 100 514.97674560546875 386.1561279296875 0
445 299.25 0 439.59405517578125 296.287139892578125 0
445 298.75 0 439.59405517578125 296.287139892578125 0
445 298.75 100 439.59405517578125 296.287139892578125 0
445 299.25 100 439.59405517578125 296.287139892578125 0
546 299.25 0 541.59405517578125 296.287139892578125 0
546 298.75 0 541.59405517578125 296.287139892578125 0
546 298.75 100 541.59405517578125 296.287139892578125 0
546 299.25 100 541.59405517578125 296.287139892578125 0
456 80.25 0 444.866668701171875 78.4666671752929688 0
456 79.75 0 444.866668701171875 78.4666671752929688 0
456 79.75 100 444.866668701171875 78.4666671752929688 0
456 80.25 100 444.866668701171875 78.4666671752929688 0
501 80.25 0 490.866668701171875 78.4666671752929688 0
501 79.75 0 490.866668701171875 78.4666671752929688 0
501 79.75 100 490.866668701171875 78.4666671752929688 0
501 80.25 100 490.866668701171875 78.4666671752929688 0
231.75 232 0 224.5078125 223.75 0
232.25 232 0 224.5078125 223.75 0
232.25 232 100 224.5078125 223.75 0
231.75 232 100 224.5078125 223.75 0
231.75 264 0 224.5078125 256.75 0
232.25 264 0 224.5078125 256.75 0
232.25 264 100 224.5078125 256.75 0
231.75 264 100 224.5078125 256.75 0
675.25 98 0 673.385986328125 96.7294692993164062 0
674.75 98 0 673.385986328125 96.7294692993164062 0
674.75 98 100 673.385986328125 96.7294692993164062 0
675.25 98 100 673.385986328125 96.7294692993164062 0
368.75 258 0 367.374053955078125 256.037322998046875 0
369.25 258 0 367.374053955078125 256.037322998046875 0
369.25 258 100 367.374053955078125 256.037322998046875 0
368.75 258 100 367.374053955078125 256.037322998046875 0
368.75 526 0 367.374053955078125 525.03729248046875 0
369.25 526 0 367.374053955078125 525.03729248046875 0
369.25 526 100 367.374053955078125 525.03729248046875 0
368.75 526 100 367.374053955078125 525.03729248046875 0
588 100.25 0 587.56146240234375 100.004737854003906 0
588 99.75 0 587.56146240234375 100.004737854003906 0
588 99.75 100 587.56146240234375 100.004737854003906 0
588 100.25 100 587.56146240234375 100.004737854003906 0
280.25 314 0 0 0 -1
279.75 314 0 0 0 -1
279.75 98 0 0 0 -1
280.25 98 0 0 0 -1
280.25 314 100 0 0 1
279.75 314 100 0 0 1
279.75 98 100 0 0 1
280.25 98 100 0 0 1
185 259.25 0 0 0 -1
185 258.75 0 0 0 -1
279 258.75 0 0 0 -1
279 259.25 0 0 0 -1
185 259.25 100 0 0 1
185 258.75 100 0 0 1
279 258.75 100 0 0 1
279 259.25 100 0 0 1
584.25 355 0 0 0 -1
583.75 355 0 0 0 -1
583.75 222 0 0 0 -1
584.25 222 0 0 0 -1
584.25 355 100 0 0 1
583.75 355 100 0 0 1
583.75 222 100 0 0 1
584.25 222 100 0 0 1
523.25 288 0 0 0 -1
522.75 288 0 0 0 -1
522.75 260 0 0 0 -1
523.25 260 0 0 0 -1
523.25 288 100 0 0 1
522.75 288 100 0 0 1
522.75 260 100 0 0 1
523.25 260 100 0 0 1
445 394.25 0 0 0 -1
445 393.75 0 0 0 -1
546 393.75 0 0 0 -1
546 394.25 0 0 0 -1
445 394.25 100 0 0 1
445 393.75 100 0 0 1
546 393.75 100 0 0 1
546 394.25 100 0 0 1
252.25 312.75 0 0 0 -1
251.75 313.25 0 0 0 -1
251.75 267 0 0 0 -1
252.25 267 0 0 0 -1
252.25 312.75 100 0 0 1
251.75 313.25 100 0 0 1
251.75 267 100 0 0 1
252.25 267 100 0 0 1
251.75 313.25 0 0 0 -1
252.25 312.75 0 0 0 -1
368 312.75 0 0 0 -1
368 313.25 0 0 0 -1
251.75 313.25 100 0 0 1
252.25 312.75 100 0 0 1
368 312.75 100 0 0 1
368 313.25 100 0 0 1
178.75 99.75 0 0 0 -1
179.25 100.25 0 0 0 -1
179.25 525 0 0 0 -1
178.75 525 0 0 0 -1
178.75 99.75 100 0 0 1
179.25 100.25 100 0 0 1
179.25 525 100 0 0 1
178.75 525 100 0 0 1
179.25 100.25 0 0 0 -1
178.75 99.75 0 0 0 -1
588 99.75 0 0 0 -1
588 100.25 0 0 0 -1
179.25 100.25 100 0 0 1
178.75 99.75 100 0 0 1
588 99.75 100 0 0 1
588 100.25 100 0 0 1
547.75 259 0 0 0 -1
548.25 259 0 0 0 -1
548.25 464 0 0 0 -1
547.75 464 0 0 0 -1
547.75 259 100 0 0 1
548.25 259 100 0 0 1
548.25 464 100 0 0 1
547.75 464 100 0 0 1
403.75 98 0 0 0 -1
404.25 98 0 0 0 -1
404.25 296 0 0 0 -1
403.75 296 0 0 0 -1
403.75 98 100 0 0 1
404.25 98 100 0 0 1
404.25 296 100 0 0 1
403.75 296 100 0 0 1
443.75 259 0 0 0 -1
444.25 259 0 0 0 -1
444.25 435 0 0 0 -1
443.75 435 0 0 0 -1
443.75 259 100 0 0 1
444.25 259 100 0 0 1
444.25 435 100 0 0 1
443.75 435 100 0 0 1
281 259.25 0 0 0 -1
281 258.75 0 0 0 -1
584 258.75 0 0 0 -1
584 259.25 0 0 0 -1
281 259.25 100 0 0 1
281 258.75 100 0 0 1
584 258.75 100 0 0 1
584 259.25 100 0 0 1
585 299.25 0 0 0 -1
585 298.75 0 0 0 -1
671 298.75 0 0 0 -1
671 299.25 0 0 0 -1
585 299.25 100 0 0 1
585 298.75 100 0 0 1
671 298.75 100 0 0 1
671 299.25 100 0 0 1
549 354.25 0 0 0 -1
549 353.75 0 0 0 -1
671 353.75 0 0 0 -1
671 354.25 0 0 0 -1
549 354.25 100 0 0 1
549 353.75 100 0 0 1
671 353.75 100 0 0 1
671 354.25 100 0 0 1
522.75 393 0 0 0 -1
523.25 393 0 0 0 -1
523.25 459.75 0 0 0 -1
522.75 460.25 0 0 0 -1
522.75 393 100 0 0 1
523.25 393 100 0 0 1
523.25 459.75 100 0 0 1
522.75 460.25 100 0 0 1
522.75 460.25 0 0 0 -1
523.25 459.75 0 0 0 -1
674.75 459.75 0 0 0 -1
675.25 460.25 0 0 0 -1
522.75 460.25 100 0 0 1
523.25 459.75 100 0 0 1
674.75 459.75 100 0 0 1
675.25 460.25 100 0 0 1
445 299.25 0 0 0 -1
445 298.75 0 0 0 -1
546 298.75 0 0 0 -1
546 299.25 0 0 0 -1
445 299.25 100 0 0 1
445 298.75 100 0 0 1
546 298.75 100 0 0 1
546 299.25 100 0 0 1
456 80.25 0 0 0 -1
456 79.75 0 0 0 -1
501 79.75 0 0 0 -1
501 80.25 0 0 0 -1
456 80.25 100 0 0 1
456 79.75 100 0 0 1
501 79.75 100 0 0 1
501 80.25 100 0 0 1
231.75 232 0 0 0 -1
232.25 232 0 0 0 -1
232.25 264 0 0 0 -1
231.75 264 0 0 0 -1
231.75 232 100 0 0 1
232.25 232 100 0 0 1
232.25 264 100 0 0 1
231.75 264 100 0 0 1
675.25 460.25 0 0 0 -1
674.75 459.75 0 0 0 -1
674.75 98 0 0 0 -1
675.25 98 0 0 0 -1
675.25 460.25 100 0 0 1
674.75 459.75 100 0 0 1
674.75 98 100 0 0 1
675.25 98 100 0 0 1
368.75 258 0 0 0 -1
369.25 258 0 0 0 -1
369.25 526 0 0 0 -1
368.75 526 0 0 0 -1
368.75 258 100 0 0 1
369.25 258 100 0 0 1
369.25 526 100 0 0 1
368.75 526 100 0 0 1
4 0 1 2 3
4 4 5 6 7
4 8 9 10 11
4 12 13 14 15
4 16 17 18 19
4 20 21 22 23
4 24 25 26 27
4 28 29 30 31
4 32 33 34 35
4 36 37 38 39
4 40 41 42 43
4 44 45 46 47
4 48 49 50 51
4 52 53 54 55
4 56 57 58 59
4 60 61 62 63
4 64 65 66 67
4 68 69 70 71
4 72 73 74 75
4 76 77 78 79
4 80 81 82 83
4 84 85 86 87
4 88 89 90 91
4 92 93 94 95
4 96 97 98 99
4 100 101 102 103
4 104 105 106 107
4 108 109 110 111
4 112 113 114 115
4 116 117 118 119
4 120 121 122 123
4 124 125 126 127
4 128 129 130 131
4 132 133 134 135
4 136 137 138 139
4 140 141 142 143
4 144 145 146 147
4 148 149 150 151
4 152 153 154 155
4 156 157 158 159
4 160 161 162 163
4 164 165 166 167
4 168 169 170 171
4 172 173 174 175
4 176 177 178 179
4 180 181 182 183
4 184 185 186 187
4 188 189 190 191
4 192 193 194 195
4 196 197 198 199
4 200 201 202 203
4 204 205 206 207
4 208 209 210 211
4 212 213 214 215
4 216 217 218 219
4 220 221 222 223
4 224 225 226 227
4 228 229 230 231
4 232 233 234 235
4 236 237 238 239
4 240 241 242 243
4 244 245 246 247
4 248 249 250 251
4 252 253 254 255
4 256 257 258 259
4 260 261 262 263
4 264 265 266 267
4 268 269 270 271
4 272 273 274 275
4 276 277 278 279
4 280 281 282 283
4 284 285 286 287
4 288 289 290 291
4 292 293 294 295
4 296 297 298 299
4 300 301 302 303
4 304 305 306 307
4 308 309 310 311
4 312 313 314 315
4 316 317 318 319
4 320 321 322 323
4 324 325 326 327
4 328 329 330 331
4 332 333 334 335
4 336 337 338 339
4 340 341 342 343
4 344 345 346 347
4 348 349 350 351
4 352 353 354 355
4 356 357 358 359
4 360 361 362 363
4 364 365 366 367
4 368 369 370 371
4 372 373 374 375
4 376 377 378 379
4 380 381 382 383
4 384 385 386 387
4 388 389 390 391
4 392 393 394 395
4 396 397 398 399
4 400 401 402 403
4 404 405 406 407
4 408 409 410 411
4 412 413 414 415
4 416 417 418 419
4 420 421 422 423
4 424 425 426 427
4 428 429 430 431
4 432 433 434 435
4 436 437 438 439
4 440 441 442 443
4 444 445 446 447
4 448 449 450 451
4 452 453 454 455
4 456 457 458 459
4 460 461 462 463
4 464 465 466 467
4 468 469 470 471
4 472 473 474 475
4 476 477 478 479
4 480 481 482 483
4 484 485 486 487
4 488 489 490 491
4 492 493 494 495
