ply
format ascii 1.0
element vertex 1058
property float x
property float y
property float z
property float nx
property float ny
property float nz
element quads 263
property list uchar int vertex_indices
element triads 2
property list uchar int vertex_indices
end_header
679.242919921875 225 0 1 0 0
679.242919921875 98 0 1 0 0
679.242919921875 98 150 1 0 0
679.242919921875 225 150 1 0 0
669.242919921875 225 0 -1 -0 0
669.242919921875 98 0 -1 -0 0
669.242919921875 98 150 -1 -0 0
669.242919921875 225 150 -1 -0 0
678.763427734375 308 0 1 0 0
678.763427734375 253 0 1 0 0
678.763427734375 253 150 1 0 0
678.763427734375 308 150 1 0 0
668.763427734375 308 0 -1 -0 0
668.763427734375 253 0 -1 -0 0
668.763427734375 253 150 -1 -0 0
668.763427734375 308 150 -1 -0 0
186 169 0 1 0 0
186 105 0 1 0 0
186 105 150 1 0 0
186 169 150 1 0 0
176 169 0 -1 -0 0
176 95 0 -1 -0 0
176 95 150 -1 -0 0
176 169 150 -1 -0 0
186 105 0 -0 1 0
227 105 0 -0 1 0
227 105 150 -0 1 0
186 105 150 -0 1 0
176 95 0 0 -1 0
237 95 0 0 -1 0
237 95 150 0 -1 0
176 95 150 0 -1 0
552.5029296875 405 0 1 0 0
552.5029296875 319 0 1 0 0
552.5029296875 319 150 1 0 0
552.5029296875 405 150 1 0 0
542.5029296875 405 0 -1 -0 0
542.5029296875 319 0 -1 -0 0
542.5029296875 319 150 -1 -0 0
542.5029296875 405 150 -1 -0 0
312 95.55108642578125 0 -0 -1 0
256 95.55108642578125 0 -0 -1 0
256 95.55108642578125 150 -0 -1 0
312 95.55108642578125 150 -0 -1 0
312 105.55108642578125 0 0 1 0
256 105.55108642578125 0 0 1 0
256 105.55108642578125 150 0 1 0
312 105.55108642578125 150 0 1 0
449 389 0 1 0 0
449 293 0 1 0 0
449 293 150 1 0 0
449 389 150 1 0 0
439 399 0 -1 -0 0
439 283 0 -1 -0 0
439 283 150 -1 -0 0
439 399 150 -1 -0 0
439 399 0 -0 1 0
466 399 0 -0 1 0
466 399 150 -0 1 0
439 399 150 -0 1 0
449 389 0 0 -1 0
466 389 0 0 -1 0
466 389 150 0 -1 0
449 389 150 0 -1 0
449 293 0 -0 1 0
471.9114990234375 293 0 -0 1 0
471.9114990234375 293 150 -0 1 0
449 293 150 -0 1 0
439 283 0 0 -1 0
462.0885009765625 283 0 0 -1 0
462.0885009765625 283 150 0 -1 0
439 283 150 0 -1 0
285 309 0 1 0 0
285 160 0 1 0 0
285 160 150 1 0 0
285 309 150 1 0 0
275 319 0 -1 -0 0
275 160 0 -1 -0 0
275 160 150 -1 -0 0
275 319 150 -1 -0 0
275 319 0 -0 1 0
336 319 0 -0 1 0
336 319 150 -0 1 0
275 319 150 -0 1 0
285 309 0 0 -1 0
336 309 0 0 -1 0
336 309 150 0 -1 0
285 309 150 0 -1 0
527 456 0 1 0 0
527 399 0 1 0 0
527 399 150 1 0 0
527 456 150 1 0 0
517 466 0 -1 -0 0
517 389 0 -1 -0 0
517 389 150 -1 -0 0
517 466 150 -1 -0 0
517 466 0 -0 1 0
567 466 0 -0 1 0
567 466 150 -0 1 0
517 466 150 -0 1 0
527 456 0 0 -1 0
567 456 0 0 -1 0
567 456 150 0 -1 0
527 456 150 0 -1 0
527 399 0 -0 1 0
546 399 0 -0 1 0
546 399 150 -0 1 0
527 399 150 -0 1 0
517 389 0 0 -1 0
546 389 0 0 -1 0
546 389 150 0 -1 0
517 389 150 0 -1 0
267 260.5 0 -0 -1 0
185 260.5 0 -0 -1 0
185 260.5 150 -0 -1 0
267 260.5 150 -0 -1 0
267 270.5 0 0 1 0
185 270.5 0 0 1 0
185 270.5 150 0 1 0
267 270.5 150 0 1 0
227 105 0 -1 0 0
227 135 0 -1 0 0
227 135 150 -1 0 0
227 105 150 -1 0 0
237 95 0 1 -0 0
237 135 0 1 -0 0
237 135 150 1 -0 0
237 95 150 1 -0 0
548 283 0 -0 -1 0
530 283 0 -0 -1 0
530 283 150 -0 -1 0
548 283 150 -0 -1 0
548 293 0 0 1 0
520 293 0 0 1 0
520 293 150 0 1 0
548 293 150 0 1 0
530 283 0 1 0 0
530 260 0 1 0 0
530 260 150 1 0 0
530 283 150 1 0 0
520 293 0 -1 -0 0
520 260 0 -1 -0 0
520 260 150 -1 -0 0
520 293 150 -1 -0 0
551 254 0 -0 -1 0
444 254 0 -0 -1 0
444 254 150 -0 -1 0
551 254 150 -0 -1 0
551 264 0 0 1 0
444 264 0 0 1 0
444 264 150 0 1 0
551 264 150 0 1 0
506 74 0 -0 -1 0
452 74 0 -0 -1 0
452 74 150 -0 -1 0
506 74 150 -0 -1 0
496 84 0 0 1 0
462 84 0 0 1 0
462 84 150 0 1 0
496 84 150 0 1 0
496 84 0 -1 0 0
496 108 0 -1 0 0
496 108 150 -1 0 0
496 84 150 -1 0 0
506 74 0 1 -0 0
506 98 0 1 -0 0
506 98 150 1 -0 0
506 74 150 1 -0 0
452 74 0 -1 0 0
452 97.1766204833984375 0 -1 0 0
452 97.1766204833984375 150 -1 0 0
452 74 150 -1 0 0
462 84 0 1 -0 0
462 106.823379516601562 0 1 -0 0
462 106.823379516601562 150 1 -0 0
462 84 150 1 -0 0
339 253 0 -0 -1 0
281 253 0 -0 -1 0
281 253 150 -0 -1 0
339 253 150 -0 -1 0
339 263 0 0 1 0
281 263 0 0 1 0
281 263 150 0 1 0
339 263 150 0 1 0
656 77.1290359497070312 0 -0 -1 0
642 77.1290359497070312 0 -0 -1 0
642 77.1290359497070312 150 -0 -1 0
656 77.1290359497070312 150 -0 -1 0
656 87.1290359497070312 0 0 1 0
642 87.1290359497070312 0 0 1 0
642 87.1290359497070312 150 0 1 0
656 87.1290359497070312 150 0 1 0
237.483871459960938 264 0 1 0 0
237.483871459960938 232 0 1 0 0
237.483871459960938 232 150 1 0 0
237.483871459960938 264 150 1 0 0
227.483871459960938 264 0 -1 -0 0
227.483871459960938 232 0 -1 -0 0
227.483871459960938 232 150 -1 -0 0
227.483871459960938 264 150 -1 -0 0
257 314 0 1 0 0
257 267 0 1 0 0
257 267 150 1 0 0
257 314 150 1 0 0
247 314 0 -1 -0 0
247 267 0 -1 -0 0
247 267 150 -1 -0 0
247 314 150 -1 -0 0
404 290 0 -0 -1 0
366 290 0 -0 -1 0
366 290 150 -0 -1 0
404 290 150 -0 -1 0
404 300 0 0 1 0
376 300 0 0 1 0
376 300 150 0 1 0
404 300 150 0 1 0
366 290 0 -1 0 0
366 515.17535400390625 0 -1 0 0
366 515.17535400390625 150 -1 0 0
366 290 150 -1 0 0
376 300 0 1 -0 0
376 524.82464599609375 0 1 -0 0
376 524.82464599609375 150 1 -0 0
376 300 150 1 -0 0
216 205.508193969726562 0 -0 -1 0
185 205.508193969726562 0 -0 -1 0
185 205.508193969726562 150 -0 -1 0
216 205.508193969726562 150 -0 -1 0
216 215.508193969726562 0 0 1 0
185 215.508193969726562 0 0 1 0
185 215.508193969726562 150 0 1 0
216 215.508193969726562 150 0 1 0
614 77.051727294921875 0 -0 -1 0
601 77.051727294921875 0 -0 -1 0
601 77.051727294921875 150 -0 -1 0
614 77.051727294921875 150 -0 -1 0
614 87.051727294921875 0 0 1 0
601 87.051727294921875 0 0 1 0
601 87.051727294921875 150 0 1 0
614 87.051727294921875 150 0 1 0
279 230 0 -0 -1 0
254 230 0 -0 -1 0
254 230 150 -0 -1 0
279 230 150 -0 -1 0
279 240 0 0 1 0
254 240 0 0 1 0
254 240 150 0 1 0
279 240 150 0 1 0
522 388.5 0 -0 -1 0
497 388.5 0 -0 -1 0
497 388.5 150 -0 -1 0
522 388.5 150 -0 -1 0
522 398.5 0 0 1 0
497 398.5 0 0 1 0
497 398.5 150 0 1 0
522 398.5 150 0 1 0
217 151.4920654296875 0 -0 -1 0
185 151.4920654296875 0 -0 -1 0
185 151.4920654296875 150 -0 -1 0
217 151.4920654296875 150 -0 -1 0
217 161.4920654296875 0 0 1 0
185 161.4920654296875 0 0 1 0
185 161.4920654296875 150 0 1 0
217 161.4920654296875 150 0 1 0
588 328 0 1 0 0
588 305 0 1 0 0
588 305 150 1 0 0
588 328 150 1 0 0
578 328 0 -1 -0 0
578 299.982086181640625 0 -1 -0 0
578 299.982086181640625 150 -1 -0 0
578 328 150 -1 -0 0
588.03594970703125 295 0 0.999974310398101807 0.00716422032564878464 0
588.5587158203125 222.03582763671875 0 0.999974310398101807 0.00716422032564878464 0
588.5587158203125 222.03582763671875 150 0.999974310398101807 0.00716422032564878464 0
588.03594970703125 295 150 0.999974310398101807 0.00716422032564878464 0
578 299.982086181640625 0 -0.999974310398101807 -0.00716422032564878464 0
578.5589599609375 221.96417236328125 0 -0.999974310398101807 -0.00716422032564878464 0
578.5589599609375 221.96417236328125 150 -0.999974310398101807 -0.00716422032564878464 0
578 299.982086181640625 150 -0.999974310398101807 -0.00716422032564878464 0
588 305 0 -0 1 0
672 305 0 -0 1 0
672 305 150 -0 1 0
588 305 150 -0 1 0
588.03594970703125 295 0 0 -1 0
672 295 0 0 -1 0
672 295 150 0 -1 0
588.03594970703125 295 150 0 -1 0
279 274 0 -0 -1 0
253 274 0 -0 -1 0
253 274 150 -0 -1 0
279 274 150 -0 -1 0
279 284 0 0 1 0
253 284 0 0 1 0
253 284 150 0 1 0
279 284 150 0 1 0
552.5 458 0 1 0 0
552.5 448 0 1 0 0
552.5 448 150 1 0 0
552.5 458 150 1 0 0
542.5 458 0 -1 -0 0
542.5 448 0 -1 -0 0
542.5 448 150 -1 -0 0
542.5 458 150 -1 -0 0
176.177932739257812 196.997238159179688 0 -0.999999821186065674 -0.000550872471649199724 0
175.997238159179688 525 0 -0.999999821186065674 -0.000550872471649199724 0
175.997238159179688 525 150 -0.999999821186065674 -0.000550872471649199724 0
176.177932739257812 196.997238159179688 150 -0.999999821186065674 -0.000550872471649199724 0
186.177932739257812 197.002761840820312 0 0.999999821186065674 0.000550872471649199724 0
186.002761840820312 515 0 0.999999821186065674 0.000550872471649199724 0
186.002761840820312 515 150 0.999999821186065674 0.000550872471649199724 0
186.177932739257812 197.002761840820312 150 0.999999821186065674 0.000550872471649199724 0
175.997238159179688 525 0 -0 1 0
195 525 0 -0 1 0
195 525 150 -0 1 0
175.997238159179688 525 150 -0 1 0
186.002761840820312 515 0 0 -1 0
195 515 0 0 -1 0
195 515 150 0 -1 0
186.002761840820312 515 150 0 -1 0
580.02630615234375 359.4945068359375 0 0.00526125915348529816 0.999986171722412109 0
669 359.0263671875 0 0.00526125915348529816 0.999986171722412109 0
669 359.0263671875 150 0.00526125915348529816 0.999986171722412109 0
580.02630615234375 359.4945068359375 150 0.00526125915348529816 0.999986171722412109 0
579.97369384765625 349.49462890625 0 -0.00526125915348529816 -0.999986171722412109 0
679 348.9736328125 0 -0.00526125915348529816 -0.999986171722412109 0
679 348.9736328125 150 -0.00526125915348529816 -0.999986171722412109 0
579.97369384765625 349.49462890625 150 -0.00526125915348529816 -0.999986171722412109 0
669 359.0263671875 0 -1 0 0
669 457.051422119140625 0 -1 0 0
669 457.051422119140625 150 -1 0 0
669 359.0263671875 150 -1 0 0
679 348.9736328125 0 1 -0 0
679 466.948577880859375 0 1 -0 0
679 466.948577880859375 150 1 -0 0
679 348.9736328125 150 1 -0 0
366 515.17535400390625 0 -0.0356915295124053955 -0.999362826347351074 0
356.821533203125 515.503173828125 0 -0.0356915295124053955 -0.999362826347351074 0
356.821533203125 515.503173828125 150 -0.0356915295124053955 -0.999362826347351074 0
366 515.17535400390625 150 -0.0356915295124053955 -0.999362826347351074 0
376 524.82464599609375 0 0.0356915295124053955 0.999362826347351074 0
357.178466796875 525.496826171875 0 0.0356915295124053955 0.999362826347351074 0
357.178466796875 525.496826171875 150 0.0356915295124053955 0.999362826347351074 0
376 524.82464599609375 150 0.0356915295124053955 0.999362826347351074 0
516 98 0 -0 -1 0
506 98 0 -0 -1 0
506 98 150 -0 -1 0
516 98 150 -0 -1 0
516 108 0 0 1 0
496 108 0 0 1 0
496 108 150 0 1 0
516 108 150 0 1 0
372.0701904296875 105.448707580566406 0 0.0140360500663518906 0.999901473522186279 0
399 105.0706787109375 0 0.0140360500663518906 0.999901473522186279 0
399 105.0706787109375 150 0.0140360500663518906 0.999901473522186279 0
372.0701904296875 105.448707580566406 150 0.0140360500663518906 0.999901473522186279 0
371.9298095703125 95.4496917724609375 0 -0.0140360500663518906 -0.999901473522186279 0
409 94.9293212890625 0 -0.0140360500663518906 -0.999901473522186279 0
409 94.9293212890625 150 -0.0140360500663518906 -0.999901473522186279 0
371.9298095703125 95.4496917724609375 150 -0.0140360500663518906 -0.999901473522186279 0
399 105.0706787109375 0 -1 0 0
399 262 0 -1 0 0
399 262 150 -1 0 0
399 105.0706787109375 150 -1 0 0
409 94.9293212890625 0 1 -0 0
409 262 0 1 -0 0
409 262 150 1 -0 0
409 94.9293212890625 150 1 -0 0
471.9114990234375 293 0 0.999840617179870605 0.0178542956709861755 0
472.49920654296875 260.089263916015625 0 0.999840617179870605 0.0178542956709861755 0
472.49920654296875 260.089263916015625 150 0.999840617179870605 0.0178542956709861755 0
471.9114990234375 293 150 0.999840617179870605 0.0178542956709861755 0
462.0885009765625 283 0 -0.999840617179870605 -0.0178542956709861755 0
462.50079345703125 259.910736083984375 0 -0.999840617179870605 -0.0178542956709861755 0
462.50079345703125 259.910736083984375 150 -0.999840617179870605 -0.0178542956709861755 0
462.0885009765625 283 150 -0.999840617179870605 -0.0178542956709861755 0
629.05169677734375 467.46502685546875 0 0.0103395832702517509 0.999946534633636475 0
679 466.948577880859375 0 0.0103395832702517509 0.999946534633636475 0
679 466.948577880859375 150 0.0103395832702517509 0.999946534633636475 0
629.05169677734375 467.46502685546875 150 0.0103395832702517509 0.999946534633636475 0
628.94830322265625 457.465576171875 0 -0.0103395832702517509 -0.999946534633636475 0
669 457.051422119140625 0 -0.0103395832702517509 -0.999946534633636475 0
669 457.051422119140625 150 -0.0103395832702517509 -0.999946534633636475 0
628.94830322265625 457.465576171875 150 -0.0103395832702517509 -0.999946534633636475 0
442.17974853515625 107.536338806152344 0 0.0359479747712612152 0.999353647232055664 0
462 106.823379516601562 0 0.0359479747712612152 0.999353647232055664 0
462 106.823379516601562 150 0.0359479747712612152 0.999353647232055664 0
442.17974853515625 107.536338806152344 150 0.0359479747712612152 0.999353647232055664 0
441.82025146484375 97.5428009033203125 0 -0.0359479747712612152 -0.999353647232055664 0
452 97.1766204833984375 0 -0.0359479747712612152 -0.999353647232055664 0
452 97.1766204833984375 150 -0.0359479747712612152 -0.999353647232055664 0
441.82025146484375 97.5428009033203125 150 -0.0359479747712612152 -0.999353647232055664 0
258.113616943359375 137.498703002929688 0 0.0227214060723781586 0.999741852283477783 0
285 136.887649536132812 0 0.0227214060723781586 0.999741852283477783 0
285 136.887649536132812 150 0.0227214060723781586 0.999741852283477783 0
258.113616943359375 137.498703002929688 150 0.0227214060723781586 0.999741852283477783 0
257.886383056640625 127.501289367675781 0 -0.0227214060723781586 -0.999741852283477783 0
275 127.112342834472656 0 -0.0227214060723781586 -0.999741852283477783 0
275 127.112342834472656 150 -0.0227214060723781586 -0.999741852283477783 0
257.886383056640625 127.501289367675781 150 -0.0227214060723781586 -0.999741852283477783 0
285 136.887649536132812 0 1 0 0
285 104 0 1 0 0
285 104 150 1 0 0
285 136.887649536132812 150 1 0 0
275 127.112342834472656 0 -1 -0 0
275 104 0 -1 -0 0
275 104 150 -1 -0 0
275 127.112342834472656 150 -1 -0 0
679.242919921875 225 0 673.89453125 224.228347778320312 0
669.242919921875 225 0 673.89453125 224.228347778320312 0
669.242919921875 225 150 673.89453125 224.228347778320312 0
679.242919921875 225 150 673.89453125 224.228347778320312 0
679.242919921875 98 0 673.89453125 96.2283477783203125 0
669.242919921875 98 0 673.89453125 96.2283477783203125 0
669.242919921875 98 150 673.89453125 96.2283477783203125 0
679.242919921875 98 150 673.89453125 96.2283477783203125 0
678.763427734375 308 0 666.42230224609375 303.399993896484375 0
668.763427734375 308 0 666.42230224609375 303.399993896484375 0
668.763427734375 308 150 666.42230224609375 303.399993896484375 0
678.763427734375 308 150 666.42230224609375 303.399993896484375 0
678.763427734375 253 0 666.42230224609375 247.399993896484375 0
668.763427734375 253 0 666.42230224609375 247.399993896484375 0
668.763427734375 253 150 666.42230224609375 247.399993896484375 0
678.763427734375 253 150 666.42230224609375 247.399993896484375 0
186 169 0 183.09375 167.359375 0
176 169 0 183.09375 167.359375 0
176 169 150 183.09375 167.359375 0
186 169 150 183.09375 167.359375 0
552.5029296875 405 0 546.0784912109375 401.29071044921875 0
542.5029296875 405 0 546.0784912109375 401.29071044921875 0
542.5029296875 405 150 546.0784912109375 401.29071044921875 0
552.5029296875 405 150 546.0784912109375 401.29071044921875 0
552.5029296875 319 0 546.0784912109375 314.29071044921875 0
542.5029296875 319 0 546.0784912109375 314.29071044921875 0
542.5029296875 319 150 546.0784912109375 314.29071044921875 0
552.5029296875 319 150 546.0784912109375 314.29071044921875 0
312 95.55108642578125 0 307.428558349609375 93.8448104858398438 0
312 105.55108642578125 0 307.428558349609375 93.8448104858398438 0
312 105.55108642578125 150 307.428558349609375 93.8448104858398438 0
312 95.55108642578125 150 307.428558349609375 93.8448104858398438 0
256 95.55108642578125 0 250.428573608398438 93.8448104858398438 0
256 105.55108642578125 0 250.428573608398438 93.8448104858398438 0
256 105.55108642578125 150 250.428573608398438 93.8448104858398438 0
256 95.55108642578125 150 250.428573608398438 93.8448104858398438 0
285 160 0 283.087249755859375 157.926177978515625 0
275 160 0 283.087249755859375 157.926177978515625 0
275 160 150 283.087249755859375 157.926177978515625 0
285 160 150 283.087249755859375 157.926177978515625 0
267 260.5 0 264.743896484375 257.32318115234375 0
267 270.5 0 264.743896484375 257.32318115234375 0
267 270.5 150 264.743896484375 257.32318115234375 0
267 260.5 150 264.743896484375 257.32318115234375 0
185 260.5 0 181.743896484375 257.32318115234375 0
185 270.5 0 181.743896484375 257.32318115234375 0
185 270.5 150 181.743896484375 257.32318115234375 0
185 260.5 150 181.743896484375 257.32318115234375 0
567 466 0 556.65997314453125 456.67999267578125 0
567 456 0 556.65997314453125 456.67999267578125 0
567 456 150 556.65997314453125 456.67999267578125 0
567 466 150 556.65997314453125 456.67999267578125 0
548 283 0 518.5555419921875 267.27777099609375 0
548 293 0 518.5555419921875 267.27777099609375 0
548 293 150 518.5555419921875 267.27777099609375 0
548 283 150 518.5555419921875 267.27777099609375 0
551 254 0 546.8504638671875 251.626174926757812 0
551 264 0 546.8504638671875 251.626174926757812 0
551 264 150 546.8504638671875 251.626174926757812 0
551 254 150 546.8504638671875 251.626174926757812 0
444 254 0 438.8504638671875 251.626174926757812 0
444 264 0 438.8504638671875 251.626174926757812 0
444 264 150 438.8504638671875 251.626174926757812 0
444 254 150 438.8504638671875 251.626174926757812 0
546 399 0 518.26318359375 378 0
546 389 0 518.26318359375 378 0
546 389 150 518.26318359375 378 0
546 399 150 518.26318359375 378 0
227 135 0 219.433334350585938 131.5 0
237 135 0 219.433334350585938 131.5 0
237 135 150 219.433334350585938 131.5 0
227 135 150 219.433334350585938 131.5 0
339 253 0 334.155181884765625 248.637924194335938 0
339 263 0 334.155181884765625 248.637924194335938 0
339 263 150 334.155181884765625 248.637924194335938 0
339 253 150 334.155181884765625 248.637924194335938 0
281 253 0 275.155181884765625 248.637924194335938 0
281 263 0 275.155181884765625 248.637924194335938 0
281 263 150 275.155181884765625 248.637924194335938 0
281 253 150 275.155181884765625 248.637924194335938 0
656 77.1290359497070312 0 610.14288330078125 71.61981201171875 0
656 87.1290359497070312 0 610.14288330078125 71.61981201171875 0
656 87.1290359497070312 150 610.14288330078125 71.61981201171875 0
656 77.1290359497070312 150 610.14288330078125 71.61981201171875 0
642 77.1290359497070312 0 595.14288330078125 71.61981201171875 0
642 87.1290359497070312 0 595.14288330078125 71.61981201171875 0
642 87.1290359497070312 150 595.14288330078125 71.61981201171875 0
642 77.1290359497070312 150 595.14288330078125 71.61981201171875 0
237.483871459960938 264 0 230.0625 256.75 0
227.483871459960938 264 0 230.0625 256.75 0
227.483871459960938 264 150 230.0625 256.75 0
237.483871459960938 264 150 230.0625 256.75 0
237.483871459960938 232 0 230.0625 223.75 0
227.483871459960938 232 0 230.0625 223.75 0
227.483871459960938 232 150 230.0625 223.75 0
237.483871459960938 232 150 230.0625 223.75 0
257 314 0 251.53192138671875 308.31915283203125 0
247 314 0 251.53192138671875 308.31915283203125 0
247 314 150 251.53192138671875 308.31915283203125 0
257 314 150 251.53192138671875 308.31915283203125 0
257 267 0 251.53192138671875 260.31915283203125 0
247 267 0 251.53192138671875 260.31915283203125 0
247 267 150 251.53192138671875 260.31915283203125 0
257 267 150 251.53192138671875 260.31915283203125 0
336 319 0 331.491790771484375 313.770477294921875 0
336 309 0 331.491790771484375 313.770477294921875 0
336 309 150 331.491790771484375 313.770477294921875 0
336 319 150 331.491790771484375 313.770477294921875 0
404 290 0 394.368408203125 282.368408203125 0
404 300 0 394.368408203125 282.368408203125 0
404 300 150 394.368408203125 282.368408203125 0
404 290 150 394.368408203125 282.368408203125 0
216 205.508193969726562 0 210.032257080078125 198.87890625 0
216 215.508193969726562 0 210.032257080078125 198.87890625 0
216 215.508193969726562 150 210.032257080078125 198.87890625 0
216 205.508193969726562 150 210.032257080078125 198.87890625 0
185 205.508193969726562 0 178.032257080078125 198.87890625 0
185 215.508193969726562 0 178.032257080078125 198.87890625 0
185 215.508193969726562 150 178.032257080078125 198.87890625 0
185 205.508193969726562 150 178.032257080078125 198.87890625 0
614 77.051727294921875 0 567.76922607421875 71.1246719360351562 0
614 87.051727294921875 0 567.76922607421875 71.1246719360351562 0
614 87.051727294921875 150 567.76922607421875 71.1246719360351562 0
614 77.051727294921875 150 567.76922607421875 71.1246719360351562 0
601 77.051727294921875 0 553.76922607421875 71.1246719360351562 0
601 87.051727294921875 0 553.76922607421875 71.1246719360351562 0
601 87.051727294921875 150 553.76922607421875 71.1246719360351562 0
601 77.051727294921875 150 553.76922607421875 71.1246719360351562 0
466 399 0 449.740753173828125 384.22222900390625 0
466 389 0 449.740753173828125 384.22222900390625 0
466 389 150 449.740753173828125 384.22222900390625 0
466 399 150 449.740753173828125 384.22222900390625 0
279 230 0 268.839996337890625 220.800003051757812 0
279 240 0 268.839996337890625 220.800003051757812 0
279 240 150 268.839996337890625 220.800003051757812 0
279 230 150 268.839996337890625 220.800003051757812 0
254 230 0 242.839996337890625 220.800003051757812 0
254 240 0 242.839996337890625 220.800003051757812 0
254 240 150 242.839996337890625 220.800003051757812 0
254 230 150 242.839996337890625 220.800003051757812 0
522 388.5 0 502.1199951171875 372.959991455078125 0
522 398.5 0 502.1199951171875 372.959991455078125 0
522 398.5 150 502.1199951171875 372.959991455078125 0
522 388.5 150 502.1199951171875 372.959991455078125 0
497 388.5 0 476.1199951171875 372.959991455078125 0
497 398.5 0 476.1199951171875 372.959991455078125 0
497 398.5 150 476.1199951171875 372.959991455078125 0
497 388.5 150 476.1199951171875 372.959991455078125 0
217 151.4920654296875 0 211.21875 146.7579345703125 0
217 161.4920654296875 0 211.21875 146.7579345703125 0
217 161.4920654296875 150 211.21875 146.7579345703125 0
217 151.4920654296875 150 211.21875 146.7579345703125 0
185 151.4920654296875 0 178.21875 146.7579345703125 0
185 161.4920654296875 0 178.21875 146.7579345703125 0
185 161.4920654296875 150 178.21875 146.7579345703125 0
185 151.4920654296875 150 178.21875 146.7579345703125 0
588 328 0 562.43475341796875 314.7391357421875 0
578 328 0 562.43475341796875 314.7391357421875 0
578 328 150 562.43475341796875 314.7391357421875 0
588 328 150 562.43475341796875 314.7391357421875 0
279 274 0 269.26922607421875 263.4615478515625 0
279 284 0 269.26922607421875 263.4615478515625 0
279 284 150 269.26922607421875 263.4615478515625 0
279 274 150 269.26922607421875 263.4615478515625 0
253 274 0 242.26922607421875 263.4615478515625 0
253 284 0 242.26922607421875 263.4615478515625 0
253 284 150 242.26922607421875 263.4615478515625 0
253 274 150 242.26922607421875 263.4615478515625 0
530 260 0 506.956512451171875 247.695648193359375 0
520 260 0 506.956512451171875 247.695648193359375 0
520 260 150 506.956512451171875 247.695648193359375 0
530 260 150 506.956512451171875 247.695648193359375 0
552.5 458 0 497.25 413.20001220703125 0
542.5 458 0 497.25 413.20001220703125 0
542.5 458 150 497.25 413.20001220703125 0
552.5 458 150 497.25 413.20001220703125 0
552.5 448 0 497.25 402.20001220703125 0
542.5 448 0 497.25 402.20001220703125 0
542.5 448 150 497.25 402.20001220703125 0
552.5 448 150 497.25 402.20001220703125 0
176.177932739257812 196.997238159179688 0 175.641357421875 195.396652221679688 0
186.177932739257812 197.002761840820312 0 175.641357421875 195.396652221679688 0
186.177932739257812 197.002761840820312 150 175.641357421875 195.396652221679688 0
176.177932739257812 196.997238159179688 150 175.641357421875 195.396652221679688 0
195 525 0 185.738327026367188 497.3724365234375 0
195 515 0 185.738327026367188 497.3724365234375 0
195 515 150 185.738327026367188 497.3724365234375 0
195 525 150 185.738327026367188 497.3724365234375 0
580.02630615234375 359.4945068359375 0 572.50732421875 355.4593505859375 0
579.97369384765625 349.49462890625 0 572.50732421875 355.4593505859375 0
579.97369384765625 349.49462890625 150 572.50732421875 355.4593505859375 0
580.02630615234375 359.4945068359375 150 572.50732421875 355.4593505859375 0
356.821533203125 515.503173828125 0 316.970977783203125 459.410186767578125 0
357.178466796875 525.496826171875 0 316.970977783203125 459.410186767578125 0
357.178466796875 525.496826171875 150 316.970977783203125 459.410186767578125 0
356.821533203125 515.503173828125 150 316.970977783203125 459.410186767578125 0
516 98 0 465.399993896484375 88.1999969482421875 0
516 108 0 465.399993896484375 88.1999969482421875 0
516 108 150 465.399993896484375 88.1999969482421875 0
516 98 150 465.399993896484375 88.1999969482421875 0
372.0701904296875 105.448707580566406 0 357.255340576171875 101.547439575195312 0
371.9298095703125 95.4496917724609375 0 357.255340576171875 101.547439575195312 0
371.9298095703125 95.4496917724609375 150 357.255340576171875 101.547439575195312 0
372.0701904296875 105.448707580566406 150 357.255340576171875 101.547439575195312 0
399 262 0 396.45745849609375 261.3304443359375 0
409 262 0 396.45745849609375 261.3304443359375 0
409 262 150 396.45745849609375 261.3304443359375 0
399 262 150 396.45745849609375 261.3304443359375 0
472.49920654296875 260.089263916015625 0 458.162353515625 251.187820434570312 0
462.50079345703125 259.910736083984375 0 458.162353515625 251.187820434570312 0
462.50079345703125 259.910736083984375 150 458.162353515625 251.187820434570312 0
472.49920654296875 260.089263916015625 150 458.162353515625 251.187820434570312 0
588.5587158203125 222.03582763671875 0 580.4996337890625 217.992843627929688 0
578.5589599609375 221.96417236328125 0 580.4996337890625 217.992843627929688 0
578.5589599609375 221.96417236328125 150 580.4996337890625 217.992843627929688 0
588.5587158203125 222.03582763671875 150 580.4996337890625 217.992843627929688 0
672 305 0 665 301.369049072265625 0
672 295 0 665 301.369049072265625 0
672 295 150 665 301.369049072265625 0
672 305 150 665 301.369049072265625 0
629.05169677734375 467.46502685546875 0 615.4583740234375 458.116912841796875 0
628.94830322265625 457.465576171875 0 615.4583740234375 458.116912841796875 0
628.94830322265625 457.465576171875 150 615.4583740234375 458.116912841796875 0
629.05169677734375 467.46502685546875 150 615.4583740234375 458.116912841796875 0
442.17974853515625 107.536338806152344 0 418.88531494140625 102.150215148925781 0
441.82025146484375 97.5428009033203125 0 418.88531494140625 102.150215148925781 0
441.82025146484375 97.5428009033203125 150 418.88531494140625 102.150215148925781 0
442.17974853515625 107.536338806152344 150 418.88531494140625 102.150215148925781 0
258.113616943359375 137.498703002929688 0 247.516189575195312 132.40869140625 0
257.886383056640625 127.501289367675781 0 247.516189575195312 132.40869140625 0
257.886383056640625 127.501289367675781 150 247.516189575195312 132.40869140625 0
258.113616943359375 137.498703002929688 150 247.516189575195312 132.40869140625 0
285 104 0 276.334136962890625 99.8377227783203125 0
275 104 0 276.334136962890625 99.8377227783203125 0
275 104 150 276.334136962890625 99.8377227783203125 0
285 104 150 276.334136962890625 99.8377227783203125 0
679.242919921875 225 0 0 0 -1
669.242919921875 225 0 0 0 -1
669.242919921875 98 0 0 0 -1
679.242919921875 98 0 0 0 -1
679.242919921875 225 150 0 0 1
669.242919921875 225 150 0 0 1
669.242919921875 98 150 0 0 1
679.242919921875 98 150 0 0 1
678.763427734375 308 0 0 0 -1
668.763427734375 308 0 0 0 -1
668.763427734375 253 0 0 0 -1
678.763427734375 253 0 0 0 -1
678.763427734375 308 150 0 0 1
668.763427734375 308 150 0 0 1
668.763427734375 253 150 0 0 1
678.763427734375 253 150 0 0 1
186 169 0 0 0 -1
176 169 0 0 0 -1
176 95 0 0 0 -1
186 105 0 0 0 -1
186 169 150 0 0 1
176 169 150 0 0 1
176 95 150 0 0 1
186 105 150 0 0 1
186 105 0 0 0 -1
176 95 0 0 0 -1
237 95 0 0 0 -1
227 105 0 0 0 -1
186 105 150 0 0 1
176 95 150 0 0 1
237 95 150 0 0 1
227 105 150 0 0 1
552.5029296875 405 0 0 0 -1
542.5029296875 405 0 0 0 -1
542.5029296875 319 0 0 0 -1
552.5029296875 319 0 0 0 -1
552.5029296875 405 150 0 0 1
542.5029296875 405 150 0 0 1
542.5029296875 319 150 0 0 1
552.5029296875 319 150 0 0 1
312 95.55108642578125 0 0 0 -1
312 105.55108642578125 0 0 0 -1
256 105.55108642578125 0 0 0 -1
256 95.55108642578125 0 0 0 -1
312 95.55108642578125 150 0 0 1
312 105.55108642578125 150 0 0 1
256 105.55108642578125 150 0 0 1
256 95.55108642578125 150 0 0 1
449 389 0 0 0 -1
439 399 0 0 0 -1
439 283 0 0 0 -1
449 293 0 0 0 -1
449 389 150 0 0 1
439 399 150 0 0 1
439 283 150 0 0 1
449 293 150 0 0 1
439 399 0 0 0 -1
449 389 0 0 0 -1
466 389 0 0 0 -1
466 399 0 0 0 -1
439 399 150 0 0 1
449 389 150 0 0 1
466 389 150 0 0 1
466 399 150 0 0 1
449 293 0 0 0 -1
439 283 0 0 0 -1
462.0885009765625 283 0 0 0 -1
471.9114990234375 293 0 0 0 -1
449 293 150 0 0 1
439 283 150 0 0 1
462.0885009765625 283 150 0 0 1
471.9114990234375 293 150 0 0 1
285 309 0 0 0 -1
275 319 0 0 0 -1
275 160 0 0 0 -1
285 160 0 0 0 -1
285 309 150 0 0 1
275 319 150 0 0 1
275 160 150 0 0 1
285 160 150 0 0 1
275 319 0 0 0 -1
285 309 0 0 0 -1
336 309 0 0 0 -1
336 319 0 0 0 -1
275 319 150 0 0 1
285 309 150 0 0 1
336 309 150 0 0 1
336 319 150 0 0 1
527 456 0 0 0 -1
517 466 0 0 0 -1
517 389 0 0 0 -1
527 399 0 0 0 -1
527 456 150 0 0 1
517 466 150 0 0 1
517 389 150 0 0 1
527 399 150 0 0 1
517 466 0 0 0 -1
527 456 0 0 0 -1
567 456 0 0 0 -1
567 466 0 0 0 -1
517 466 150 0 0 1
527 456 150 0 0 1
567 456 150 0 0 1
567 466 150 0 0 1
527 399 0 0 0 -1
517 389 0 0 0 -1
546 389 0 0 0 -1
546 399 0 0 0 -1
527 399 150 0 0 1
517 389 150 0 0 1
546 389 150 0 0 1
546 399 150 0 0 1
267 260.5 0 0 0 -1
267 270.5 0 0 0 -1
185 270.5 0 0 0 -1
185 260.5 0 0 0 -1
267 260.5 150 0 0 1
267 270.5 150 0 0 1
185 270.5 150 0 0 1
185 260.5 150 0 0 1
227 105 0 0 0 -1
237 95 0 0 0 -1
237 135 0 0 0 -1
227 135 0 0 0 -1
227 105 150 0 0 1
237 95 150 0 0 1
237 135 150 0 0 1
227 135 150 0 0 1
548 283 0 0 0 -1
548 293 0 0 0 -1
520 293 0 0 0 -1
530 283 0 0 0 -1
548 283 150 0 0 1
548 293 150 0 0 1
520 293 150 0 0 1
530 283 150 0 0 1
530 283 0 0 0 -1
520 293 0 0 0 -1
520 260 0 0 0 -1
530 260 0 0 0 -1
530 283 150 0 0 1
520 293 150 0 0 1
520 260 150 0 0 1
530 260 150 0 0 1
551 254 0 0 0 -1
551 264 0 0 0 -1
444 264 0 0 0 -1
444 254 0 0 0 -1
551 254 150 0 0 1
551 264 150 0 0 1
444 264 150 0 0 1
444 254 150 0 0 1
506 74 0 0 0 -1
496 84 0 0 0 -1
462 84 0 0 0 -1
452 74 0 0 0 -1
506 74 150 0 0 1
496 84 150 0 0 1
462 84 150 0 0 1
452 74 150 0 0 1
496 84 0 0 0 -1
506 74 0 0 0 -1
506 98 0 0 0 -1
496 108 0 0 0 -1
496 84 150 0 0 1
506 74 150 0 0 1
506 98 150 0 0 1
496 108 150 0 0 1
452 74 0 0 0 -1
462 84 0 0 0 -1
462 106.823379516601562 0 0 0 -1
452 97.1766204833984375 0 0 0 -1
452 74 150 0 0 1
462 84 150 0 0 1
462 106.823379516601562 150 0 0 1
452 97.1766204833984375 150 0 0 1
339 253 0 0 0 -1
339 263 0 0 0 -1
281 263 0 0 0 -1
281 253 0 0 0 -1
339 253 150 0 0 1
339 263 150 0 0 1
281 263 150 0 0 1
281 253 150 0 0 1
656 77.1290359497070312 0 0 0 -1
656 87.1290359497070312 0 0 0 -1
642 87.1290359497070312 0 0 0 -1
642 77.1290359497070312 0 0 0 -1
656 77.1290359497070312 150 0 0 1
656 87.1290359497070312 150 0 0 1
642 87.1290359497070312 150 0 0 1
642 77.1290359497070312 150 0 0 1
237.483871459960938 264 0 0 0 -1
227.483871459960938 264 0 0 0 -1
227.483871459960938 232 0 0 0 -1
237.483871459960938 232 0 0 0 -1
237.483871459960938 264 150 0 0 1
227.483871459960938 264 150 0 0 1
227.483871459960938 232 150 0 0 1
237.483871459960938 232 150 0 0 1
257 314 0 0 0 -1
247 314 0 0 0 -1
247 267 0 0 0 -1
257 267 0 0 0 -1
257 314 150 0 0 1
247 314 150 0 0 1
247 267 150 0 0 1
257 267 150 0 0 1
404 290 0 0 0 -1
404 300 0 0 0 -1
376 300 0 0 0 -1
366 290 0 0 0 -1
404 290 150 0 0 1
404 300 150 0 0 1
376 300 150 0 0 1
366 290 150 0 0 1
366 290 0 0 0 -1
376 300 0 0 0 -1
376 524.82464599609375 0 0 0 -1
366 515.17535400390625 0 0 0 -1
366 290 150 0 0 1
376 300 150 0 0 1
376 524.82464599609375 150 0 0 1
366 515.17535400390625 150 0 0 1
216 205.508193969726562 0 0 0 -1
216 215.508193969726562 0 0 0 -1
185 215.508193969726562 0 0 0 -1
185 205.508193969726562 0 0 0 -1
216 205.508193969726562 150 0 0 1
216 215.508193969726562 150 0 0 1
185 215.508193969726562 150 0 0 1
185 205.508193969726562 150 0 0 1
614 77.051727294921875 0 0 0 -1
614 87.051727294921875 0 0 0 -1
601 87.051727294921875 0 0 0 -1
601 77.051727294921875 0 0 0 -1
614 77.051727294921875 150 0 0 1
614 87.051727294921875 150 0 0 1
601 87.051727294921875 150 0 0 1
601 77.051727294921875 150 0 0 1
279 230 0 0 0 -1
279 240 0 0 0 -1
254 240 0 0 0 -1
254 230 0 0 0 -1
279 230 150 0 0 1
279 240 150 0 0 1
254 240 150 0 0 1
254 230 150 0 0 1
522 388.5 0 0 0 -1
522 398.5 0 0 0 -1
497 398.5 0 0 0 -1
497 388.5 0 0 0 -1
522 388.5 150 0 0 1
522 398.5 150 0 0 1
497 398.5 150 0 0 1
497 388.5 150 0 0 1
217 151.4920654296875 0 0 0 -1
217 161.4920654296875 0 0 0 -1
185 161.4920654296875 0 0 0 -1
185 151.4920654296875 0 0 0 -1
217 151.4920654296875 150 0 0 1
217 161.4920654296875 150 0 0 1
185 161.4920654296875 150 0 0 1
185 151.4920654296875 150 0 0 1
588 328 0 0 0 -1
578 328 0 0 0 -1
578 299.982086181640625 0 0 0 -1
588 305 0 0 0 -1
588 328 150 0 0 1
578 328 150 0 0 1
578 299.982086181640625 150 0 0 1
588 305 150 0 0 1
588.03594970703125 295 0 0 0 -1
578 299.982086181640625 0 0 0 -1
578.5589599609375 221.96417236328125 0 0 0 -1
588.5587158203125 222.03582763671875 0 0 0 -1
588.03594970703125 295 150 0 0 1
578 299.982086181640625 150 0 0 1
578.5589599609375 221.96417236328125 150 0 0 1
588.5587158203125 222.03582763671875 150 0 0 1
588 305 0 0 0 -1
588.03594970703125 295 0 0 0 -1
672 295 0 0 0 -1
672 305 0 0 0 -1
588 305 150 0 0 1
588.03594970703125 295 150 0 0 1
672 295 150 0 0 1
672 305 150 0 0 1
279 274 0 0 0 -1
279 284 0 0 0 -1
253 284 0 0 0 -1
253 274 0 0 0 -1
279 274 150 0 0 1
279 284 150 0 0 1
253 284 150 0 0 1
253 274 150 0 0 1
552.5 458 0 0 0 -1
542.5 458 0 0 0 -1
542.5 448 0 0 0 -1
552.5 448 0 0 0 -1
552.5 458 150 0 0 1
542.5 458 150 0 0 1
542.5 448 150 0 0 1
552.5 448 150 0 0 1
176.177932739257812 196.997238159179688 0 0 0 -1
186.177932739257812 197.002761840820312 0 0 0 -1
186.002761840820312 515 0 0 0 -1
175.997238159179688 525 0 0 0 -1
176.177932739257812 196.997238159179688 150 0 0 1
186.177932739257812 197.002761840820312 150 0 0 1
186.002761840820312 515 150 0 0 1
175.997238159179688 525 150 0 0 1
175.997238159179688 525 0 0 0 -1
186.002761840820312 515 0 0 0 -1
195 515 0 0 0 -1
195 525 0 0 0 -1
175.997238159179688 525 150 0 0 1
186.002761840820312 515 150 0 0 1
195 515 150 0 0 1
195 525 150 0 0 1
580.02630615234375 359.4945068359375 0 0 0 -1
579.97369384765625 349.49462890625 0 0 0 -1
679 348.9736328125 0 0 0 -1
669 359.0263671875 0 0 0 -1
580.02630615234375 359.4945068359375 150 0 0 1
579.97369384765625 349.49462890625 150 0 0 1
679 348.9736328125 150 0 0 1
669 359.0263671875 150 0 0 1
669 359.0263671875 0 0 0 -1
679 348.9736328125 0 0 0 -1
679 466.948577880859375 0 0 0 -1
669 457.051422119140625 0 0 0 -1
669 359.0263671875 150 0 0 1
679 348.9736328125 150 0 0 1
679 466.948577880859375 150 0 0 1
669 457.051422119140625 150 0 0 1
366 515.17535400390625 0 0 0 -1
376 524.82464599609375 0 0 0 -1
357.178466796875 525.496826171875 0 0 0 -1
356.821533203125 515.503173828125 0 0 0 -1
366 515.17535400390625 150 0 0 1
376 524.82464599609375 150 0 0 1
357.178466796875 525.496826171875 150 0 0 1
356.821533203125 515.503173828125 150 0 0 1
516 98 0 0 0 -1
516 108 0 0 0 -1
496 108 0 0 0 -1
506 98 0 0 0 -1
516 98 150 0 0 1
516 108 150 0 0 1
496 108 150 0 0 1
506 98 150 0 0 1
372.0701904296875 105.448707580566406 0 0 0 -1
371.9298095703125 95.4496917724609375 0 0 0 -1
409 94.9293212890625 0 0 0 -1
399 105.0706787109375 0 0 0 -1
372.0701904296875 105.448707580566406 150 0 0 1
371.9298095703125 95.4496917724609375 150 0 0 1
409 94.9293212890625 150 0 0 1
399 105.0706787109375 150 0 0 1
399 105.0706787109375 0 0 0 -1
409 94.9293212890625 0 0 0 -1
409 262 0 0 0 -1
399 262 0 0 0 -1
399 105.0706787109375 150 0 0 1
409 94.9293212890625 150 0 0 1
409 262 150 0 0 1
399 262 150 0 0 1
471.9114990234375 293 0 0 0 -1
462.0885009765625 283 0 0 0 -1
462.50079345703125 259.910736083984375 0 0 0 -1
472.49920654296875 260.089263916015625 0 0 0 -1
471.9114990234375 293 150 0 0 1
462.0885009765625 283 150 0 0 1
462.50079345703125 259.910736083984375 150 0 0 1
472.49920654296875 260.089263916015625 150 0 0 1
629.05169677734375 467.46502685546875 0 0 0 -1
628.94830322265625 457.465576171875 0 0 0 -1
669 457.051422119140625 0 0 0 -1
679 466.948577880859375 0 0 0 -1
629.05169677734375 467.46502685546875 150 0 0 1
628.94830322265625 457.465576171875 150 0 0 1
669 457.051422119140625 150 0 0 1
679 466.948577880859375 150 0 0 1
442.17974853515625 107.536338806152344 0 0 0 -1
441.82025146484375 97.5428009033203125 0 0 0 -1
452 97.1766204833984375 0 0 0 -1
462 106.823379516601562 0 0 0 -1
442.17974853515625 107.536338806152344 150 0 0 1
441.82025146484375 97.5428009033203125 150 0 0 1
452 97.1766204833984375 150 0 0 1
462 106.823379516601562 150 0 0 1
258.113616943359375 137.498703002929688 0 0 0 -1
257.886383056640625 127.501289367675781 0 0 0 -1
275 127.112342834472656 0 0 0 -1
285 136.887649536132812 0 0 0 -1
258.113616943359375 137.498703002929688 150 0 0 1
257.886383056640625 127.501289367675781 150 0 0 1
275 127.112342834472656 150 0 0 1
285 136.887649536132812 150 0 0 1
285 136.887649536132812 0 0 0 -1
275 127.112342834472656 0 0 0 -1
275 104 0 0 0 -1
285 104 0 0 0 -1
285 136.887649536132812 150 0 0 1
275 127.112342834472656 150 0 0 1
275 104 150 0 0 1
285 104 150 0 0 1
578 299.982086181640625 0 0 0 -1
588.03594970703125 295 0 0 0 -1
588 305 0 0 0 -1
578 299.982086181640625 150 0 0 1
588.03594970703125 295 150 0 0 1
588 305 150 0 0 1
4 0 1 2 3
4 4 5 6 7
4 8 9 10 11
4 12 13 14 15
4 16 17 18 19
4 20 21 22 23
4 24 25 26 27
4 28 29 30 31
4 32 33 34 35
4 36 37 38 39
4 40 41 42 43
4 44 45 46 47
4 48 49 50 51
4 52 53 54 55
4 56 57 58 59
4 60 61 62 63
4 64 65 66 67
4 68 69 70 71
4 72 73 74 75
4 76 77 78 79
4 80 81 82 83
4 84 85 86 87
4 88 89 90 91
4 92 93 94 95
4 96 97 98 99
4 100 101 102 103
4 104 105 106 107
4 108 109 110 111
4 112 113 114 115
4 116 117 118 119
4 120 121 122 123
4 124 125 126 127
4 128 129 130 131
4 132 133 134 135
4 136 137 138 139
4 140 141 142 143
4 144 145 146 147
4 148 149 150 151
4 152 153 154 155
4 156 157 158 159
4 160 161 162 163
4 164 165 166 167
4 168 169 170 171
4 172 173 174 175
4 176 177 178 179
4 180 181 182 183
4 184 185 186 187
4 188 189 190 191
4 192 193 194 195
4 196 197 198 199
4 200 201 202 203
4 204 205 206 207
4 208 209 210 211
4 212 213 214 215
4 216 217 218 219
4 220 221 222 223
4 224 225 226 227
4 228 229 230 231
4 232 233 234 235
4 236 237 238 239
4 240 241 242 243
4 244 245 246 247
4 248 249 250 251
4 252 253 254 255
4 256 257 258 259
4 260 261 262 263
4 264 265 266 267
4 268 269 270 271
4 272 273 274 275
4 276 277 278 279
4 280 281 282 283
4 284 285 286 287
4 288 289 290 291
4 292 293 294 295
4 296 297 298 299
4 300 301 302 303
4 304 305 306 307
4 308 309 310 311
4 312 313 314 315
4 316 317 318 319
4 320 321 322 323
4 324 325 326 327
4 328 329 330 331
4 332 333 334 335
4 336 337 338 339
4 340 341 342 343
4 344 345 346 347
4 348 349 350 351
4 352 353 354 355
4 356 357 358 359
4 360 361 362 363
4 364 365 366 367
4 368 369 370 371
4 372 373 374 375
4 376 377 378 379
4 380 381 382 383
4 384 385 386 387
4 388 389 390 391
4 392 393 394 395
4 396 397 398 399
4 400 401 402 403
4 404 405 406 407
4 408 409 410 411
4 412 413 414 415
4 416 417 418 419
4 420 421 422 423
4 424 425 426 427
4 428 429 430 431
4 432 433 434 435
4 436 437 438 439
4 440 441 442 443
4 444 445 446 447
4 448 449 450 451
4 452 453 454 455
4 456 457 458 459
4 460 461 462 463
4 464 465 466 467
4 468 469 470 471
4 472 473 474 475
4 476 477 478 479
4 480 481 482 483
4 484 485 486 487
4 488 489 490 491
4 492 493 494 495
4 496 497 498 499
4 500 501 502 503
4 504 505 506 507
4 508 509 510 511
4 512 513 514 515
4 516 517 518 519
4 520 521 522 523
4 524 525 526 527
4 528 529 530 531
4 532 533 534 535
4 536 537 538 539
4 540 541 542 543
4 544 545 546 547
4 548 549 550 551
4 552 553 554 555
4 556 557 558 559
4 560 561 562 563
4 564 565 566 567
4 568 569 570 571
4 572 573 574 575
4 576 577 578 579
4 580 581 582 583
4 584 585 586 587
4 588 589 590 591
4 592 593 594 595
4 596 597 598 599
4 600 601 602 603
4 604 605 606 607
4 608 609 610 611
4 612 613 614 615
4 616 617 618 619
4 620 621 622 623
4 624 625 626 627
4 628 629 630 631
4 632 633 634 635
4 636 637 638 639
4 640 641 642 643
4 644 645 646 647
4 648 649 650 651
4 652 653 654 655
4 656 657 658 659
4 660 661 662 663
4 664 665 666 667
4 668 669 670 671
4 672 673 674 675
4 676 677 678 679
4 680 681 682 683
4 684 685 686 687
4 688 689 690 691
4 692 693 694 695
4 696 697 698 699
4 700 701 702 703
4 704 705 706 707
4 708 709 710 711
4 712 713 714 715
4 716 717 718 719
4 720 721 722 723
4 724 725 726 727
4 728 729 730 731
4 732 733 734 735
4 736 737 738 739
4 740 741 742 743
4 744 745 746 747
4 748 749 750 751
4 752 753 754 755
4 756 757 758 759
4 760 761 762 763
4 764 765 766 767
4 768 769 770 771
4 772 773 774 775
4 776 777 778 779
4 780 781 782 783
4 784 785 786 787
4 788 789 790 791
4 792 793 794 795
4 796 797 798 799
4 800 801 802 803
4 804 805 806 807
4 808 809 810 811
4 812 813 814 815
4 816 817 818 819
4 820 821 822 823
4 824 825 826 827
4 828 829 830 831
4 832 833 834 835
4 836 837 838 839
4 840 841 842 843
4 844 845 846 847
4 848 849 850 851
4 852 853 854 855
4 856 857 858 859
4 860 861 862 863
4 864 865 866 867
4 868 869 870 871
4 872 873 874 875
4 876 877 878 879
4 880 881 882 883
4 884 885 886 887
4 888 889 890 891
4 892 893 894 895
4 896 897 898 899
4 900 901 902 903
4 904 905 906 907
4 908 909 910 911
4 912 913 914 915
4 916 917 918 919
4 920 921 922 923
4 924 925 926 927
4 928 929 930 931
4 932 933 934 935
4 936 937 938 939
4 940 941 942 943
4 944 945 946 947
4 948 949 950 951
4 952 953 954 955
4 956 957 958 959
4 960 961 962 963
4 964 965 966 967
4 968 969 970 971
4 972 973 974 975
4 976 977 978 979
4 980 981 982 983
4 984 985 986 987
4 988 989 990 991
4 992 993 994 995
4 996 997 998 999
4 1000 1001 1002 1003
4 1004 1005 1006 1007
4 1008 1009 1010 1011
4 1012 1013 1014 1015
4 1016 1017 1018 1019
4 1020 1021 1022 1023
4 1024 1025 1026 1027
4 1028 1029 1030 1031
4 1032 1033 1034 1035
4 1036 1037 1038 1039
4 1040 1041 1042 1043
4 1044 1045 1046 1047
4 1048 1049 1050 1051
3 1052 1053 1054
3 1055 1056 1057
