ply
format ascii 1.0
element vertex 264
property float x
property float y
property float z
property float nx
property float ny
property float nz
element quads 66
property list uchar int vertex_indices
end_header
276 125.25 0 -0 1 0
331 125.25 0 -0 1 0
331 125.25 100 -0 1 0
276 125.25 100 -0 1 0
276 124.75 0 0 -1 0
331 124.75 0 0 -1 0
331 124.75 100 0 -1 0
276 124.75 100 0 -1 0
270.25 315.25 0 -0 1 0
369 315.25 0 -0 1 0
369 315.25 100 -0 1 0
270.25 315.25 100 -0 1 0
269.75 314.75 0 0 -1 0
369 314.75 0 0 -1 0
369 314.75 100 0 -1 0
269.75 314.75 100 0 -1 0
269.75 314.75 0 -1 0 0
269.75 376 0 -1 0 0
269.75 376 100 -1 0 0
269.75 314.75 100 -1 0 0
270.25 315.25 0 1 -0 0
270.25 376 0 1 -0 0
270.25 376 100 1 -0 0
270.25 315.25 100 1 -0 0
632.25 357 0 1 0 0
632.25 302 0 1 0 0
632.25 302 100 1 0 0
632.25 357 100 1 0 0
631.75 357 0 -1 -0 0
631.75 302 0 -1 -0 0
631.75 302 100 -1 -0 0
631.75 357 100 -1 -0 0
88.75 124 0 -1 0 0
88.75 459 0 -1 0 0
88.75 459 100 -1 0 0
88.75 124 100 -1 0 0
89.25 124 0 1 -0 0
89.25 459 0 1 -0 0
89.25 459 100 1 -0 0
89.25 124 100 1 -0 0
741.75 124 0 -1 0 0
741.75 357.75 0 -1 0 0
741.75 357.75 100 -1 0 0
741.75 124 100 -1 0 0
742.25 124 0 1 -0 0
742.25 358.25 0 1 -0 0
742.25 358.25 100 1 -0 0
742.25 124 100 1 -0 0
741.75 357.75 0 -0 -1 0
497 357.75 0 -0 -1 0
497 357.75 100 -0 -1 0
741.75 357.75 100 -0 -1 0
742.25 358.25 0 0 1 0
497 358.25 0 0 1 0
497 358.25 100 0 1 0
742.25 358.25 100 0 1 0
500.75 124 0 -1 0 0
500.75 469.75 0 -1 0 0
500.75 469.75 100 -1 0 0
500.75 124 100 -1 0 0
501.25 124 0 1 -0 0
501.25 470.25 0 1 -0 0
501.25 470.25 100 1 -0 0
501.25 124 100 1 -0 0
500.75 469.75 0 -0 -1 0
91 469.75 0 -0 -1 0
91 469.75 100 -0 -1 0
500.75 469.75 100 -0 -1 0
501.25 470.25 0 0 1 0
91 470.25 0 0 1 0
91 470.25 100 0 1 0
501.25 470.25 100 0 1 0
303.75 358 0 -1 0 0
303.75 468 0 -1 0 0
303.75 468 100 -1 0 0
303.75 358 100 -1 0 0
304.25 358 0 1 -0 0
304.25 468 0 1 -0 0
304.25 468 100 1 -0 0
304.25 358 100 1 -0 0
180 125.25 0 -0 1 0
209 125.25 0 -0 1 0
209 125.25 100 -0 1 0
180 125.25 100 -0 1 0
180 124.75 0 0 -1 0
209 124.75 0 0 -1 0
209 124.75 100 0 -1 0
180 124.75 100 0 -1 0
382 125.25 0 -0 1 0
589 125.25 0 -0 1 0
589 125.25 100 -0 1 0
382 125.25 100 -0 1 0
382 124.75 0 0 -1 0
589 124.75 0 0 -1 0
589 124.75 100 0 -1 0
382 124.75 100 0 -1 0
276 125.25 0 269.9818115234375 122.972724914550781 0
276 124.75 0 269.9818115234375 122.972724914550781 0
276 124.75 100 269.9818115234375 122.972724914550781 0
276 125.25 100 269.9818115234375 122.972724914550781 0
331 125.25 0 325.9818115234375 122.972724914550781 0
331 124.75 0 325.9818115234375 122.972724914550781 0
331 124.75 100 325.9818115234375 122.972724914550781 0
331 125.25 100 325.9818115234375 122.972724914550781 0
369 315.25 0 366.2633056640625 312.057586669921875 0
369 314.75 0 366.2633056640625 312.057586669921875 0
369 314.75 100 366.2633056640625 312.057586669921875 0
369 315.25 100 366.2633056640625 312.057586669921875 0
632.25 357 0 620.7545166015625 351.50909423828125 0
631.75 357 0 620.7545166015625 351.50909423828125 0
631.75 357 100 620.7545166015625 351.50909423828125 0
632.25 357 100 620.7545166015625 351.50909423828125 0
632.25 302 0 620.7545166015625 295.50909423828125 0
631.75 302 0 620.7545166015625 295.50909423828125 0
631.75 302 100 620.7545166015625 295.50909423828125 0
632.25 302 100 620.7545166015625 295.50909423828125 0
88.75 124 0 88.485076904296875 122.629852294921875 0
89.25 124 0 88.485076904296875 122.629852294921875 0
89.25 124 100 88.485076904296875 122.629852294921875 0
88.75 124 100 88.485076904296875 122.629852294921875 0
88.75 459 0 88.485076904296875 458.629852294921875 0
89.25 459 0 88.485076904296875 458.629852294921875 0
89.25 459 100 88.485076904296875 458.629852294921875 0
88.75 459 100 88.485076904296875 458.629852294921875 0
741.75 124 0 738.57672119140625 122.469520568847656 0
742.25 124 0 738.57672119140625 122.469520568847656 0
742.25 124 100 738.57672119140625 122.469520568847656 0
741.75 124 100 738.57672119140625 122.469520568847656 0
497 357.75 0 493.9693603515625 356.288299560546875 0
497 358.25 0 493.9693603515625 356.288299560546875 0
497 358.25 100 493.9693603515625 356.288299560546875 0
497 357.75 100 493.9693603515625 356.288299560546875 0
500.75 124 0 499.30169677734375 122.641357421875 0
501.25 124 0 499.30169677734375 122.641357421875 0
501.25 124 100 499.30169677734375 122.641357421875 0
500.75 124 100 499.30169677734375 122.641357421875 0
91 469.75 0 89.7779159545898438 468.60357666015625 0
91 470.25 0 89.7779159545898438 468.60357666015625 0
91 470.25 100 89.7779159545898438 468.60357666015625 0
91 469.75 100 89.7779159545898438 468.60357666015625 0
303.75 358 0 300.9886474609375 353.745452880859375 0
304.25 358 0 300.9886474609375 353.745452880859375 0
304.25 358 100 300.9886474609375 353.745452880859375 0
303.75 358 100 300.9886474609375 353.745452880859375 0
303.75 468 0 300.9886474609375 464.745452880859375 0
304.25 468 0 300.9886474609375 464.745452880859375 0
304.25 468 100 300.9886474609375 464.745452880859375 0
303.75 468 100 300.9886474609375 464.745452880859375 0
269.75 376 0 265.345916748046875 370.861236572265625 0
270.25 376 0 265.345916748046875 370.861236572265625 0
270.25 376 100 265.345916748046875 370.861236572265625 0
269.75 376 100 265.345916748046875 370.861236572265625 0
180 125.25 0 172.793106079101562 120.931037902832031 0
180 124.75 0 172.793106079101562 120.931037902832031 0
180 124.75 100 172.793106079101562 120.931037902832031 0
180 125.25 100 172.793106079101562 120.931037902832031 0
209 125.25 0 202.793106079101562 120.931037902832031 0
209 124.75 0 202.793106079101562 120.931037902832031 0
209 124.75 100 202.793106079101562 120.931037902832031 0
209 125.25 100 202.793106079101562 120.931037902832031 0
382 125.25 0 379.15460205078125 124.644927978515625 0
382 124.75 0 379.15460205078125 124.644927978515625 0
382 124.75 100 379.15460205078125 124.644927978515625 0
382 125.25 100 379.15460205078125 124.644927978515625 0
589 125.25 0 587.15460205078125 124.644927978515625 0
589 124.75 0 587.15460205078125 124.644927978515625 0
589 124.75 100 587.15460205078125 124.644927978515625 0
589 125.25 100 587.15460205078125 124.644927978515625 0
276 125.25 0 0 0 -1
276 124.75 0 0 0 -1
331 124.75 0 0 0 -1
331 125.25 0 0 0 -1
276 125.25 100 0 0 1
276 124.75 100 0 0 1
331 124.75 100 0 0 1
331 125.25 100 0 0 1
270.25 315.25 0 0 0 -1
269.75 314.75 0 0 0 -1
369 314.75 0 0 0 -1
369 315.25 0 0 0 -1
270.25 315.25 100 0 0 1
269.75 314.75 100 0 0 1
369 314.75 100 0 0 1
369 315.25 100 0 0 1
269.75 314.75 0 0 0 -1
270.25 315.25 0 0 0 -1
270.25 376 0 0 0 -1
269.75 376 0 0 0 -1
269.75 314.75 100 0 0 1
270.25 315.25 100 0 0 1
270.25 376 100 0 0 1
269.75 376 100 0 0 1
632.25 357 0 0 0 -1
631.75 357 0 0 0 -1
631.75 302 0 0 0 -1
632.25 302 0 0 0 -1
632.25 357 100 0 0 1
631.75 357 100 0 0 1
631.75 302 100 0 0 1
632.25 302 100 0 0 1
88.75 124 0 0 0 -1
89.25 124 0 0 0 -1
89.25 459 0 0 0 -1
88.75 459 0 0 0 -1
88.75 124 100 0 0 1
89.25 124 100 0 0 1
89.25 459 100 0 0 1
88.75 459 100 0 0 1
741.75 124 0 0 0 -1
742.25 124 0 0 0 -1
742.25 358.25 0 0 0 -1
741.75 357.75 0 0 0 -1
741.75 124 100 0 0 1
742.25 124 100 0 0 1
742.25 358.25 100 0 0 1
741.75 357.75 100 0 0 1
741.75 357.75 0 0 0 -1
742.25 358.25 0 0 0 -1
497 358.25 0 0 0 -1
497 357.75 0 0 0 -1
741.75 357.75 100 0 0 1
742.25 358.25 100 0 0 1
497 358.25 100 0 0 1
497 357.75 100 0 0 1
500.75 124 0 0 0 -1
501.25 124 0 0 0 -1
501.25 470.25 0 0 0 -1
500.75 469.75 0 0 0 -1
500.75 124 100 0 0 1
501.25 124 100 0 0 1
501.25 470.25 100 0 0 1
500.75 469.75 100 0 0 1
500.75 469.75 0 0 0 -1
501.25 470.25 0 0 0 -1
91 470.25 0 0 0 -1
91 469.75 0 0 0 -1
500.75 469.75 100 0 0 1
501.25 470.25 100 0 0 1
91 470.25 100 0 0 1
91 469.75 100 0 0 1
303.75 358 0 0 0 -1
304.25 358 0 0 0 -1
304.25 468 0 0 0 -1
303.75 468 0 0 0 -1
303.75 358 100 0 0 1
304.25 358 100 0 0 1
304.25 468 100 0 0 1
303.75 468 100 0 0 1
180 125.25 0 0 0 -1
180 124.75 0 0 0 -1
209 124.75 0 0 0 -1
209 125.25 0 0 0 -1
180 125.25 100 0 0 1
180 124.75 100 0 0 1
209 124.75 100 0 0 1
209 125.25 100 0 0 1
382 125.25 0 0 0 -1
382 124.75 0 0 0 -1
589 124.75 0 0 0 -1
589 125.25 0 0 0 -1
382 125.25 100 0 0 1
382 124.75 100 0 0 1
589 124.75 100 0 0 1
589 125.25 100 0 0 1
4 0 1 2 3
4 4 5 6 7
4 8 9 10 11
4 12 13 14 15
4 16 17 18 19
4 20 21 22 23
4 24 25 26 27
4 28 29 30 31
4 32 33 34 35
4 36 37 38 39
4 40 41 42 43
4 44 45 46 47
4 48 49 50 51
4 52 53 54 55
4 56 57 58 59
4 60 61 62 63
4 64 65 66 67
4 68 69 70 71
4 72 73 74 75
4 76 77 78 79
4 80 81 82 83
4 84 85 86 87
4 88 89 90 91
4 92 93 94 95
4 96 97 98 99
4 100 101 102 103
4 104 105 106 107
4 108 109 110 111
4 112 113 114 115
4 116 117 118 119
4 120 121 122 123
4 124 125 126 127
4 128 129 130 131
4 132 133 134 135
4 136 137 138 139
4 140 141 142 143
4 144 145 146 147
4 148 149 150 151
4 152 153 154 155
4 156 157 158 159
4 160 161 162 163
4 164 165 166 167
4 168 169 170 171
4 172 173 174 175
4 176 177 178 179
4 180 181 182 183
4 184 185 186 187
4 188 189 190 191
4 192 193 194 195
4 196 197 198 199
4 200 201 202 203
4 204 205 206 207
4 208 209 210 211
4 212 213 214 215
4 216 217 218 219
4 220 221 222 223
4 224 225 226 227
4 228 229 230 231
4 232 233 234 235
4 236 237 238 239
4 240 241 242 243
4 244 245 246 247
4 248 249 250 251
4 252 253 254 255
4 256 257 258 259
4 260 261 262 263
