ply
format ascii 1.0
element vertex 688
property float x
property float y
property float z
property float nx
property float ny
property float nz
element quads 172
property list uchar int vertex_indices
end_header
476.25 190 0 1 0 0
476.25 34.75 0 1 0 0
476.25 34.75 100 1 0 0
476.25 190 100 1 0 0
475.75 190 0 -1 -0 0
475.75 35.25 0 -1 -0 0
475.75 35.25 100 -1 -0 0
475.75 190 100 -1 -0 0
476.25 34.75 0 -0 -1 0
255 34.75 0 -0 -1 0
255 34.75 100 -0 -1 0
476.25 34.75 100 -0 -1 0
475.75 35.25 0 0 1 0
255 35.25 0 0 1 0
255 35.25 100 0 1 0
475.75 35.25 100 0 1 0
162.25 177 0 1 0 0
162.25 35 0 1 0 0
162.25 35 100 1 0 0
162.25 177 100 1 0 0
161.75 177 0 -1 -0 0
161.75 35 0 -1 -0 0
161.75 35 100 -1 -0 0
161.75 177 100 -1 -0 0
162.25 367 0 1 0 0
162.25 248 0 1 0 0
162.25 248 100 1 0 0
162.25 367 100 1 0 0
161.75 367 0 -1 -0 0
161.75 248 0 -1 -0 0
161.75 248 100 -1 -0 0
161.75 367 100 -1 -0 0
681.25 198 0 1 0 0
681.25 133.75 0 1 0 0
681.25 133.75 100 1 0 0
681.25 198 100 1 0 0
680.75 198 0 -1 -0 0
680.75 134.25 0 -1 -0 0
680.75 134.25 100 -1 -0 0
680.75 198 100 -1 -0 0
681.25 133.75 0 -0 -1 0
477 133.75 0 -0 -1 0
477 133.75 100 -0 -1 0
681.25 133.75 100 -0 -1 0
680.75 134.25 0 0 1 0
477 134.25 0 0 1 0
477 134.25 100 0 1 0
680.75 134.25 100 0 1 0
681.25 379 0 1 0 0
681.25 289 0 1 0 0
681.25 289 100 1 0 0
681.25 379 100 1 0 0
680.75 379 0 -1 -0 0
680.75 289 0 -1 -0 0
680.75 289 100 -1 -0 0
680.75 379 100 -1 -0 0
349.25 428.75 0 1 0 0
349.25 269 0 1 0 0
349.25 269 100 1 0 0
349.25 428.75 100 1 0 0
348.75 429.25 0 -1 -0 0
348.75 269 0 -1 -0 0
348.75 269 100 -1 -0 0
348.75 429.25 100 -1 -0 0
348.75 429.25 0 -0 1 0
476 429.25 0 -0 1 0
476 429.25 100 -0 1 0
348.75 429.25 100 -0 1 0
349.25 428.75 0 0 -1 0
476 428.75 0 0 -1 0
476 428.75 100 0 -1 0
349.25 428.75 100 0 -1 0
251.25 248.25 0 1 0 0
251.25 153 0 1 0 0
251.25 153 100 1 0 0
251.25 248.25 100 1 0 0
250.75 247.75 0 -1 -0 0
250.75 153 0 -1 -0 0
250.75 153 100 -1 -0 0
250.75 247.75 100 -1 -0 0
250.75 247.75 0 -0 -1 0
141.25 247.75 0 -0 -1 0
141.25 247.75 100 -0 -1 0
250.75 247.75 100 -0 -1 0
251.25 248.25 0 0 1 0
140.75 248.25 0 0 1 0
140.75 248.25 100 0 1 0
251.25 248.25 100 0 1 0
597.25 441 0 1 0 0
597.25 365 0 1 0 0
597.25 365 100 1 0 0
597.25 441 100 1 0 0
596.75 441 0 -1 -0 0
596.75 365 0 -1 -0 0
596.75 365 100 -1 -0 0
596.75 441 100 -1 -0 0
523.25 531.75 0 1 0 0
523.25 441 0 1 0 0
523.25 441 100 1 0 0
523.25 531.75 100 1 0 0
522.75 532.25 0 -1 -0 0
522.75 441 0 -1 -0 0
522.75 441 100 -1 -0 0
522.75 532.25 100 -1 -0 0
522.75 532.25 0 -0 1 0
655.25 532.25 0 -0 1 0
655.25 532.25 100 -0 1 0
522.75 532.25 100 -0 1 0
523.25 531.75 0 0 -1 0
654.75 531.75 0 0 -1 0
654.75 531.75 100 0 -1 0
523.25 531.75 100 0 -1 0
255 366.25 0 -0 1 0
348 366.25 0 -0 1 0
348 366.25 100 -0 1 0
255 366.25 100 -0 1 0
255 365.75 0 0 -1 0
348 365.75 0 0 -1 0
348 365.75 100 0 -1 0
255 365.75 100 0 -1 0
655.25 532.25 0 1 0 0
655.25 365 0 1 0 0
655.25 365 100 1 0 0
655.25 532.25 100 1 0 0
654.75 531.75 0 -1 -0 0
654.75 365 0 -1 -0 0
654.75 365 100 -1 -0 0
654.75 531.75 100 -1 -0 0
308.25 366 0 1 0 0
308.25 269 0 1 0 0
308.25 269 100 1 0 0
308.25 366 100 1 0 0
307.75 366 0 -1 -0 0
307.75 269 0 -1 -0 0
307.75 269 100 -1 -0 0
307.75 366 100 -1 -0 0
349 16.25 0 -0 1 0
397 16.25 0 -0 1 0
397 16.25 100 -0 1 0
349 16.25 100 -0 1 0
349 15.75 0 0 -1 0
397 15.75 0 0 -1 0
397 15.75 100 0 -1 0
349 15.75 100 0 -1 0
141.25 247.75 0 1 0 0
141.25 153.25 0 1 0 0
141.25 153.25 100 1 0 0
141.25 247.75 100 1 0 0
140.75 248.25 0 -1 -0 0
140.75 152.75 0 -1 -0 0
140.75 152.75 100 -1 -0 0
140.75 248.25 100 -1 -0 0
141.25 153.25 0 -0 1 0
288 153.25 0 -0 1 0
288 153.25 100 -0 1 0
141.25 153.25 100 -0 1 0
140.75 152.75 0 0 -1 0
288 152.75 0 0 -1 0
288 152.75 100 0 -1 0
140.75 152.75 100 0 -1 0
289.25 414 0 1 0 0
289.25 368 0 1 0 0
289.25 368 100 1 0 0
289.25 414 100 1 0 0
288.75 414 0 -1 -0 0
288.75 368 0 -1 -0 0
288.75 368 100 -1 -0 0
288.75 414 100 -1 -0 0
142 177.25 0 -0 1 0
200 177.25 0 -0 1 0
200 177.25 100 -0 1 0
142 177.25 100 -0 1 0
142 176.75 0 0 -1 0
200 176.75 0 0 -1 0
200 176.75 100 0 -1 0
142 176.75 100 0 -1 0
309 293.25 0 -0 1 0
348 293.25 0 -0 1 0
348 293.25 100 -0 1 0
309 293.25 100 -0 1 0
309 292.75 0 0 -1 0
348 292.75 0 0 -1 0
348 292.75 100 0 -1 0
309 292.75 100 0 -1 0
543.25 347 0 1 0 0
543.25 307.75 0 1 0 0
543.25 307.75 100 1 0 0
543.25 347 100 1 0 0
542.75 347 0 -1 -0 0
542.75 308.25 0 -1 -0 0
542.75 308.25 100 -1 -0 0
542.75 347 100 -1 -0 0
543.25 307.75 0 -0 -1 0
476 307.75 0 -0 -1 0
476 307.75 100 -0 -1 0
543.25 307.75 100 -0 -1 0
542.75 308.25 0 0 1 0
476 308.25 0 0 1 0
476 308.25 100 0 1 0
542.75 308.25 100 0 1 0
288.75 34 0 -1 0 0
288.75 191 0 -1 0 0
288.75 191 100 -1 0 0
288.75 34 100 -1 0 0
289.25 34 0 1 -0 0
289.25 191 0 1 -0 0
289.25 191 100 1 -0 0
289.25 34 100 1 -0 0
542.75 386 0 -1 0 0
542.75 442 0 -1 0 0
542.75 442 100 -1 0 0
542.75 386 100 -1 0 0
543.25 386 0 1 -0 0
543.25 442 0 1 -0 0
543.25 442 100 1 -0 0
543.25 386 100 1 -0 0
289 269.25 0 -0 1 0
504.25 269.25 0 -0 1 0
504.25 269.25 100 -0 1 0
289 269.25 100 -0 1 0
289 268.75 0 0 -1 0
503.75 268.75 0 0 -1 0
503.75 268.75 100 0 -1 0
289 268.75 100 0 -1 0
504.25 269.25 0 1 0 0
504.25 178 0 1 0 0
504.25 178 100 1 0 0
504.25 269.25 100 1 0 0
503.75 268.75 0 -1 -0 0
503.75 178 0 -1 -0 0
503.75 178 100 -1 -0 0
503.75 268.75 100 -1 -0 0
524 429.25 0 -0 1 0
653 429.25 0 -0 1 0
653 429.25 100 -0 1 0
524 429.25 100 -0 1 0
524 428.75 0 0 -1 0
653 428.75 0 0 -1 0
653 428.75 100 0 -1 0
524 428.75 100 0 -1 0
477 366.25 0 -0 1 0
682 366.25 0 -0 1 0
682 366.25 100 -0 1 0
477 366.25 100 -0 1 0
477 365.75 0 0 -1 0
682 365.75 0 0 -1 0
682 365.75 100 0 -1 0
477 365.75 100 0 -1 0
199.75 153 0 -1 0 0
199.75 249 0 -1 0 0
199.75 249 100 -1 0 0
199.75 153 100 -1 0 0
200.25 153 0 1 -0 0
200.25 249 0 1 -0 0
200.25 249 100 1 -0 0
200.25 153 100 1 -0 0
476.25 190 0 473.182373046875 189.776168823242188 0
475.75 190 0 473.182373046875 189.776168823242188 0
475.75 190 100 473.182373046875 189.776168823242188 0
476.25 190 100 473.182373046875 189.776168823242188 0
162.25 177 0 161.107391357421875 176.753524780273438 0
161.75 177 0 161.107391357421875 176.753524780273438 0
161.75 177 100 161.107391357421875 176.753524780273438 0
162.25 177 100 161.107391357421875 176.753524780273438 0
162.25 35 0 161.107391357421875 33.7535209655761719 0
161.75 35 0 161.107391357421875 33.7535209655761719 0
161.75 35 100 161.107391357421875 33.7535209655761719 0
162.25 35 100 161.107391357421875 33.7535209655761719 0
162.25 367 0 160.886550903320312 364.91595458984375 0
161.75 367 0 160.886550903320312 364.91595458984375 0
161.75 367 100 160.886550903320312 364.91595458984375 0
162.25 367 100 160.886550903320312 364.91595458984375 0
162.25 248 0 160.886550903320312 244.915969848632812 0
161.75 248 0 160.886550903320312 244.915969848632812 0
161.75 248 100 160.886550903320312 244.915969848632812 0
162.25 248 100 160.886550903320312 244.915969848632812 0
681.25 198 0 670.64691162109375 195.918289184570312 0
680.75 198 0 670.64691162109375 195.918289184570312 0
680.75 198 100 670.64691162109375 195.918289184570312 0
681.25 198 100 670.64691162109375 195.918289184570312 0
681.25 379 0 673.6805419921875 375.78887939453125 0
680.75 379 0 673.6805419921875 375.78887939453125 0
680.75 379 100 673.6805419921875 375.78887939453125 0
681.25 379 100 673.6805419921875 375.78887939453125 0
681.25 289 0 673.6805419921875 284.78887939453125 0
680.75 289 0 673.6805419921875 284.78887939453125 0
680.75 289 100 673.6805419921875 284.78887939453125 0
681.25 289 100 673.6805419921875 284.78887939453125 0
349.25 269 0 347.06378173828125 266.316131591796875 0
348.75 269 0 347.06378173828125 266.316131591796875 0
348.75 269 100 347.06378173828125 266.316131591796875 0
349.25 269 100 347.06378173828125 266.316131591796875 0
251.25 153 0 248.612197875976562 150.393707275390625 0
250.75 153 0 248.612197875976562 150.393707275390625 0
250.75 153 100 248.612197875976562 150.393707275390625 0
251.25 153 100 248.612197875976562 150.393707275390625 0
477 133.75 0 473.66461181640625 133.095169067382812 0
477 134.25 0 473.66461181640625 133.095169067382812 0
477 134.25 100 473.66461181640625 133.095169067382812 0
477 133.75 100 473.66461181640625 133.095169067382812 0
597.25 441 0 589.39141845703125 436.197357177734375 0
596.75 441 0 589.39141845703125 436.197357177734375 0
596.75 441 100 589.39141845703125 436.197357177734375 0
597.25 441 100 589.39141845703125 436.197357177734375 0
597.25 365 0 589.39141845703125 359.197357177734375 0
596.75 365 0 589.39141845703125 359.197357177734375 0
596.75 365 100 589.39141845703125 359.197357177734375 0
597.25 365 100 589.39141845703125 359.197357177734375 0
523.25 441 0 517.484130859375 435.1405029296875 0
522.75 441 0 517.484130859375 435.1405029296875 0
522.75 441 100 517.484130859375 435.1405029296875 0
523.25 441 100 517.484130859375 435.1405029296875 0
255 366.25 0 251.258071899414062 362.31182861328125 0
255 365.75 0 251.258071899414062 362.31182861328125 0
255 365.75 100 251.258071899414062 362.31182861328125 0
255 366.25 100 251.258071899414062 362.31182861328125 0
348 366.25 0 345.258056640625 362.31182861328125 0
348 365.75 0 345.258056640625 362.31182861328125 0
348 365.75 100 345.258056640625 362.31182861328125 0
348 366.25 100 345.258056640625 362.31182861328125 0
308.25 366 0 305.072174072265625 363.226806640625 0
307.75 366 0 305.072174072265625 363.226806640625 0
307.75 366 100 305.072174072265625 363.226806640625 0
308.25 366 100 305.072174072265625 363.226806640625 0
308.25 269 0 305.072174072265625 265.226806640625 0
307.75 269 0 305.072174072265625 265.226806640625 0
307.75 269 100 305.072174072265625 265.226806640625 0
308.25 269 100 305.072174072265625 265.226806640625 0
349 16.25 0 340.729156494140625 15.9114580154418945 0
349 15.75 0 340.729156494140625 15.9114580154418945 0
349 15.75 100 340.729156494140625 15.9114580154418945 0
349 16.25 100 340.729156494140625 15.9114580154418945 0
397 16.25 0 389.729156494140625 15.9114580154418945 0
397 15.75 0 389.729156494140625 15.9114580154418945 0
397 15.75 100 389.729156494140625 15.9114580154418945 0
397 16.25 100 389.729156494140625 15.9114580154418945 0
289.25 414 0 282.961944580078125 406 0
288.75 414 0 282.961944580078125 406 0
288.75 414 100 282.961944580078125 406 0
289.25 414 100 282.961944580078125 406 0
289.25 368 0 282.961944580078125 359 0
288.75 368 0 282.961944580078125 359 0
288.75 368 100 282.961944580078125 359 0
289.25 368 100 282.961944580078125 359 0
142 177.25 0 138.551727294921875 174.1939697265625 0
142 176.75 0 138.551727294921875 174.1939697265625 0
142 176.75 100 138.551727294921875 174.1939697265625 0
142 177.25 100 138.551727294921875 174.1939697265625 0
200 177.25 0 197.551727294921875 174.1939697265625 0
200 176.75 0 197.551727294921875 174.1939697265625 0
200 176.75 100 197.551727294921875 174.1939697265625 0
200 177.25 100 197.551727294921875 174.1939697265625 0
309 293.25 0 300.076934814453125 285.73077392578125 0
309 292.75 0 300.076934814453125 285.73077392578125 0
309 292.75 100 300.076934814453125 285.73077392578125 0
309 293.25 100 300.076934814453125 285.73077392578125 0
348 293.25 0 340.076934814453125 285.73077392578125 0
348 292.75 0 340.076934814453125 285.73077392578125 0
348 292.75 100 340.076934814453125 285.73077392578125 0
348 293.25 100 340.076934814453125 285.73077392578125 0
543.25 347 0 529.40924072265625 339.15924072265625 0
542.75 347 0 529.40924072265625 339.15924072265625 0
542.75 347 100 529.40924072265625 339.15924072265625 0
543.25 347 100 529.40924072265625 339.15924072265625 0
288 153.25 0 287.0374755859375 152.205703735351562 0
288 152.75 0 287.0374755859375 152.205703735351562 0
288 152.75 100 287.0374755859375 152.205703735351562 0
288 153.25 100 287.0374755859375 152.205703735351562 0
655.25 365 0 651.33221435546875 361.817626953125 0
654.75 365 0 651.33221435546875 361.817626953125 0
654.75 365 100 651.33221435546875 361.817626953125 0
655.25 365 100 651.33221435546875 361.817626953125 0
288.75 34 0 286.91082763671875 32.7834396362304688 0
289.25 34 0 286.91082763671875 32.7834396362304688 0
289.25 34 100 286.91082763671875 32.7834396362304688 0
288.75 34 100 286.91082763671875 32.7834396362304688 0
288.75 191 0 286.91082763671875 190.783432006835938 0
289.25 191 0 286.91082763671875 190.783432006835938 0
289.25 191 100 286.91082763671875 190.783432006835938 0
288.75 191 100 286.91082763671875 190.783432006835938 0
476 307.75 0 467.92193603515625 303.173797607421875 0
476 308.25 0 467.92193603515625 303.173797607421875 0
476 308.25 100 467.92193603515625 303.173797607421875 0
476 307.75 100 467.92193603515625 303.173797607421875 0
542.75 386 0 533.05804443359375 378.107147216796875 0
543.25 386 0 533.05804443359375 378.107147216796875 0
543.25 386 100 533.05804443359375 378.107147216796875 0
542.75 386 100 533.05804443359375 378.107147216796875 0
542.75 442 0 533.05804443359375 435.107147216796875 0
543.25 442 0 533.05804443359375 435.107147216796875 0
543.25 442 100 533.05804443359375 435.107147216796875 0
542.75 442 100 533.05804443359375 435.107147216796875 0
476 429.25 0 473.25933837890625 425.876708984375 0
476 428.75 0 473.25933837890625 425.876708984375 0
476 428.75 100 473.25933837890625 425.876708984375 0
476 429.25 100 473.25933837890625 425.876708984375 0
289 269.25 0 286.657379150390625 267.999114990234375 0
289 268.75 0 286.657379150390625 267.999114990234375 0
289 268.75 100 286.657379150390625 267.999114990234375 0
289 269.25 100 286.657379150390625 267.999114990234375 0
524 429.25 0 518.93798828125 425.9224853515625 0
524 428.75 0 518.93798828125 425.9224853515625 0
524 428.75 100 518.93798828125 425.9224853515625 0
524 429.25 100 518.93798828125 425.9224853515625 0
653 429.25 0 648.93798828125 425.9224853515625 0
653 428.75 0 648.93798828125 425.9224853515625 0
653 428.75 100 648.93798828125 425.9224853515625 0
653 429.25 100 648.93798828125 425.9224853515625 0
504.25 178 0 498.723968505859375 175.04931640625 0
503.75 178 0 498.723968505859375 175.04931640625 0
503.75 178 100 498.723968505859375 175.04931640625 0
504.25 178 100 498.723968505859375 175.04931640625 0
477 366.25 0 473.67315673828125 364.463409423828125 0
477 365.75 0 473.67315673828125 364.463409423828125 0
477 365.75 100 473.67315673828125 364.463409423828125 0
477 366.25 100 473.67315673828125 364.463409423828125 0
682 366.25 0 679.67315673828125 364.463409423828125 0
682 365.75 0 679.67315673828125 364.463409423828125 0
682 365.75 100 679.67315673828125 364.463409423828125 0
682 366.25 100 679.67315673828125 364.463409423828125 0
199.75 153 0 197.669265747070312 150.40625 0
200.25 153 0 197.669265747070312 150.40625 0
200.25 153 100 197.669265747070312 150.40625 0
199.75 153 100 197.669265747070312 150.40625 0
199.75 249 0 197.669265747070312 247.40625 0
200.25 249 0 197.669265747070312 247.40625 0
200.25 249 100 197.669265747070312 247.40625 0
199.75 249 100 197.669265747070312 247.40625 0
255 34.75 0 252.847457885742188 34.5929374694824219 0
255 35.25 0 252.847457885742188 34.5929374694824219 0
255 35.25 100 252.847457885742188 34.5929374694824219 0
255 34.75 100 252.847457885742188 34.5929374694824219 0
476.25 190 0 0 0 -1
475.75 190 0 0 0 -1
475.75 35.25 0 0 0 -1
476.25 34.75 0 0 0 -1
476.25 190 100 0 0 1
475.75 190 100 0 0 1
475.75 35.25 100 0 0 1
476.25 34.75 100 0 0 1
476.25 34.75 0 0 0 -1
475.75 35.25 0 0 0 -1
255 35.25 0 0 0 -1
255 34.75 0 0 0 -1
476.25 34.75 100 0 0 1
475.75 35.25 100 0 0 1
255 35.25 100 0 0 1
255 34.75 100 0 0 1
162.25 177 0 0 0 -1
161.75 177 0 0 0 -1
161.75 35 0 0 0 -1
162.25 35 0 0 0 -1
162.25 177 100 0 0 1
161.75 177 100 0 0 1
161.75 35 100 0 0 1
162.25 35 100 0 0 1
162.25 367 0 0 0 -1
161.75 367 0 0 0 -1
161.75 248 0 0 0 -1
162.25 248 0 0 0 -1
162.25 367 100 0 0 1
161.75 367 100 0 0 1
161.75 248 100 0 0 1
162.25 248 100 0 0 1
681.25 198 0 0 0 -1
680.75 198 0 0 0 -1
680.75 134.25 0 0 0 -1
681.25 133.75 0 0 0 -1
681.25 198 100 0 0 1
680.75 198 100 0 0 1
680.75 134.25 100 0 0 1
681.25 133.75 100 0 0 1
681.25 133.75 0 0 0 -1
680.75 134.25 0 0 0 -1
477 134.25 0 0 0 -1
477 133.75 0 0 0 -1
681.25 133.75 100 0 0 1
680.75 134.25 100 0 0 1
477 134.25 100 0 0 1
477 133.75 100 0 0 1
681.25 379 0 0 0 -1
680.75 379 0 0 0 -1
680.75 289 0 0 0 -1
681.25 289 0 0 0 -1
681.25 379 100 0 0 1
680.75 379 100 0 0 1
680.75 289 100 0 0 1
681.25 289 100 0 0 1
349.25 428.75 0 0 0 -1
348.75 429.25 0 0 0 -1
348.75 269 0 0 0 -1
349.25 269 0 0 0 -1
349.25 428.75 100 0 0 1
348.75 429.25 100 0 0 1
348.75 269 100 0 0 1
349.25 269 100 0 0 1
348.75 429.25 0 0 0 -1
349.25 428.75 0 0 0 -1
476 428.75 0 0 0 -1
476 429.25 0 0 0 -1
348.75 429.25 100 0 0 1
349.25 428.75 100 0 0 1
476 428.75 100 0 0 1
476 429.25 100 0 0 1
251.25 248.25 0 0 0 -1
250.75 247.75 0 0 0 -1
250.75 153 0 0 0 -1
251.25 153 0 0 0 -1
251.25 248.25 100 0 0 1
250.75 247.75 100 0 0 1
250.75 153 100 0 0 1
251.25 153 100 0 0 1
250.75 247.75 0 0 0 -1
251.25 248.25 0 0 0 -1
140.75 248.25 0 0 0 -1
141.25 247.75 0 0 0 -1
250.75 247.75 100 0 0 1
251.25 248.25 100 0 0 1
140.75 248.25 100 0 0 1
141.25 247.75 100 0 0 1
597.25 441 0 0 0 -1
596.75 441 0 0 0 -1
596.75 365 0 0 0 -1
597.25 365 0 0 0 -1
597.25 441 100 0 0 1
596.75 441 100 0 0 1
596.75 365 100 0 0 1
597.25 365 100 0 0 1
523.25 531.75 0 0 0 -1
522.75 532.25 0 0 0 -1
522.75 441 0 0 0 -1
523.25 441 0 0 0 -1
523.25 531.75 100 0 0 1
522.75 532.25 100 0 0 1
522.75 441 100 0 0 1
523.25 441 100 0 0 1
522.75 532.25 0 0 0 -1
523.25 531.75 0 0 0 -1
654.75 531.75 0 0 0 -1
655.25 532.25 0 0 0 -1
522.75 532.25 100 0 0 1
523.25 531.75 100 0 0 1
654.75 531.75 100 0 0 1
655.25 532.25 100 0 0 1
255 366.25 0 0 0 -1
255 365.75 0 0 0 -1
348 365.75 0 0 0 -1
348 366.25 0 0 0 -1
255 366.25 100 0 0 1
255 365.75 100 0 0 1
348 365.75 100 0 0 1
348 366.25 100 0 0 1
655.25 532.25 0 0 0 -1
654.75 531.75 0 0 0 -1
654.75 365 0 0 0 -1
655.25 365 0 0 0 -1
655.25 532.25 100 0 0 1
654.75 531.75 100 0 0 1
654.75 365 100 0 0 1
655.25 365 100 0 0 1
308.25 366 0 0 0 -1
307.75 366 0 0 0 -1
307.75 269 0 0 0 -1
308.25 269 0 0 0 -1
308.25 366 100 0 0 1
307.75 366 100 0 0 1
307.75 269 100 0 0 1
308.25 269 100 0 0 1
349 16.25 0 0 0 -1
349 15.75 0 0 0 -1
397 15.75 0 0 0 -1
397 16.25 0 0 0 -1
349 16.25 100 0 0 1
349 15.75 100 0 0 1
397 15.75 100 0 0 1
397 16.25 100 0 0 1
141.25 247.75 0 0 0 -1
140.75 248.25 0 0 0 -1
140.75 152.75 0 0 0 -1
141.25 153.25 0 0 0 -1
141.25 247.75 100 0 0 1
140.75 248.25 100 0 0 1
140.75 152.75 100 0 0 1
141.25 153.25 100 0 0 1
141.25 153.25 0 0 0 -1
140.75 152.75 0 0 0 -1
288 152.75 0 0 0 -1
288 153.25 0 0 0 -1
141.25 153.25 100 0 0 1
140.75 152.75 100 0 0 1
288 152.75 100 0 0 1
288 153.25 100 0 0 1
289.25 414 0 0 0 -1
288.75 414 0 0 0 -1
288.75 368 0 0 0 -1
289.25 368 0 0 0 -1
289.25 414 100 0 0 1
288.75 414 100 0 0 1
288.75 368 100 0 0 1
289.25 368 100 0 0 1
142 177.25 0 0 0 -1
142 176.75 0 0 0 -1
200 176.75 0 0 0 -1
200 177.25 0 0 0 -1
142 177.25 100 0 0 1
142 176.75 100 0 0 1
200 176.75 100 0 0 1
200 177.25 100 0 0 1
309 293.25 0 0 0 -1
309 292.75 0 0 0 -1
348 292.75 0 0 0 -1
348 293.25 0 0 0 -1
309 293.25 100 0 0 1
309 292.75 100 0 0 1
348 292.75 100 0 0 1
348 293.25 100 0 0 1
543.25 347 0 0 0 -1
542.75 347 0 0 0 -1
542.75 308.25 0 0 0 -1
543.25 307.75 0 0 0 -1
543.25 347 100 0 0 1
542.75 347 100 0 0 1
542.75 308.25 100 0 0 1
543.25 307.75 100 0 0 1
543.25 307.75 0 0 0 -1
542.75 308.25 0 0 0 -1
476 308.25 0 0 0 -1
476 307.75 0 0 0 -1
543.25 307.75 100 0 0 1
542.75 308.25 100 0 0 1
476 308.25 100 0 0 1
476 307.75 100 0 0 1
288.75 34 0 0 0 -1
289.25 34 0 0 0 -1
289.25 191 0 0 0 -1
288.75 191 0 0 0 -1
288.75 34 100 0 0 1
289.25 34 100 0 0 1
289.25 191 100 0 0 1
288.75 191 100 0 0 1
542.75 386 0 0 0 -1
543.25 386 0 0 0 -1
543.25 442 0 0 0 -1
542.75 442 0 0 0 -1
542.75 386 100 0 0 1
543.25 386 100 0 0 1
543.25 442 100 0 0 1
542.75 442 100 0 0 1
289 269.25 0 0 0 -1
289 268.75 0 0 0 -1
503.75 268.75 0 0 0 -1
504.25 269.25 0 0 0 -1
289 269.25 100 0 0 1
289 268.75 100 0 0 1
503.75 268.75 100 0 0 1
504.25 269.25 100 0 0 1
504.25 269.25 0 0 0 -1
503.75 268.75 0 0 0 -1
503.75 178 0 0 0 -1
504.25 178 0 0 0 -1
504.25 269.25 100 0 0 1
503.75 268.75 100 0 0 1
503.75 178 100 0 0 1
504.25 178 100 0 0 1
524 429.25 0 0 0 -1
524 428.75 0 0 0 -1
653 428.75 0 0 0 -1
653 429.25 0 0 0 -1
524 429.25 100 0 0 1
524 428.75 100 0 0 1
653 428.75 100 0 0 1
653 429.25 100 0 0 1
477 366.25 0 0 0 -1
477 365.75 0 0 0 -1
682 365.75 0 0 0 -1
682 366.25 0 0 0 -1
477 366.25 100 0 0 1
477 365.75 100 0 0 1
682 365.75 100 0 0 1
682 366.25 100 0 0 1
199.75 153 0 0 0 -1
200.25 153 0 0 0 -1
200.25 249 0 0 0 -1
199.75 249 0 0 0 -1
199.75 153 100 0 0 1
200.25 153 100 0 0 1
200.25 249 100 0 0 1
199.75 249 100 0 0 1
4 0 1 2 3
4 4 5 6 7
4 8 9 10 11
4 12 13 14 15
4 16 17 18 19
4 20 21 22 23
4 24 25 26 27
4 28 29 30 31
4 32 33 34 35
4 36 37 38 39
4 40 41 42 43
4 44 45 46 47
4 48 49 50 51
4 52 53 54 55
4 56 57 58 59
4 60 61 62 63
4 64 65 66 67
4 68 69 70 71
4 72 73 74 75
4 76 77 78 79
4 80 81 82 83
4 84 85 86 87
4 88 89 90 91
4 92 93 94 95
4 96 97 98 99
4 100 101 102 103
4 104 105 106 107
4 108 109 110 111
4 112 113 114 115
4 116 117 118 119
4 120 121 122 123
4 124 125 126 127
4 128 129 130 131
4 132 133 134 135
4 136 137 138 139
4 140 141 142 143
4 144 145 146 147
4 148 149 150 151
4 152 153 154 155
4 156 157 158 159
4 160 161 162 163
4 164 165 166 167
4 168 169 170 171
4 172 173 174 175
4 176 177 178 179
4 180 181 182 183
4 184 185 186 187
4 188 189 190 191
4 192 193 194 195
4 196 197 198 199
4 200 201 202 203
4 204 205 206 207
4 208 209 210 211
4 212 213 214 215
4 216 217 218 219
4 220 221 222 223
4 224 225 226 227
4 228 229 230 231
4 232 233 234 235
4 236 237 238 239
4 240 241 242 243
4 244 245 246 247
4 248 249 250 251
4 252 253 254 255
4 256 257 258 259
4 260 261 262 263
4 264 265 266 267
4 268 269 270 271
4 272 273 274 275
4 276 277 278 279
4 280 281 282 283
4 284 285 286 287
4 288 289 290 291
4 292 293 294 295
4 296 297 298 299
4 300 301 302 303
4 304 305 306 307
4 308 309 310 311
4 312 313 314 315
4 316 317 318 319
4 320 321 322 323
4 324 325 326 327
4 328 329 330 331
4 332 333 334 335
4 336 337 338 339
4 340 341 342 343
4 344 345 346 347
4 348 349 350 351
4 352 353 354 355
4 356 357 358 359
4 360 361 362 363
4 364 365 366 367
4 368 369 370 371
4 372 373 374 375
4 376 377 378 379
4 380 381 382 383
4 384 385 386 387
4 388 389 390 391
4 392 393 394 395
4 396 397 398 399
4 400 401 402 403
4 404 405 406 407
4 408 409 410 411
4 412 413 414 415
4 416 417 418 419
4 420 421 422 423
4 424 425 426 427
4 428 429 430 431
4 432 433 434 435
4 436 437 438 439
4 440 441 442 443
4 444 445 446 447
4 448 449 450 451
4 452 453 454 455
4 456 457 458 459
4 460 461 462 463
4 464 465 466 467
4 468 469 470 471
4 472 473 474 475
4 476 477 478 479
4 480 481 482 483
4 484 485 486 487
4 488 489 490 491
4 492 493 494 495
4 496 497 498 499
4 500 501 502 503
4 504 505 506 507
4 508 509 510 511
4 512 513 514 515
4 516 517 518 519
4 520 521 522 523
4 524 525 526 527
4 528 529 530 531
4 532 533 534 535
4 536 537 538 539
4 540 541 542 543
4 544 545 546 547
4 548 549 550 551
4 552 553 554 555
4 556 557 558 559
4 560 561 562 563
4 564 565 566 567
4 568 569 570 571
4 572 573 574 575
4 576 577 578 579
4 580 581 582 583
4 584 585 586 587
4 588 589 590 591
4 592 593 594 595
4 596 597 598 599
4 600 601 602 603
4 604 605 606 607
4 608 609 610 611
4 612 613 614 615
4 616 617 618 619
4 620 621 622 623
4 624 625 626 627
4 628 629 630 631
4 632 633 634 635
4 636 637 638 639
4 640 641 642 643
4 644 645 646 647
4 648 649 650 651
4 652 653 654 655
4 656 657 658 659
4 660 661 662 663
4 664 665 666 667
4 668 669 670 671
4 672 673 674 675
4 676 677 678 679
4 680 681 682 683
4 684 685 686 687
