ply
format ascii 1.0
element vertex 1184
property float x
property float y
property float z
property float nx
property float ny
property float nz
element quads 293
property list uchar int vertex_indices
element triads 4
property list uchar int vertex_indices
end_header
167 362 0 1 0 0
167 253 0 1 0 0
167 253 150 1 0 0
167 362 150 1 0 0
157 372 0 -1 -0 0
157 253 0 -1 -0 0
157 253 150 -1 -0 0
157 372 150 -1 -0 0
157 372 0 -0 1 0
195 372 0 -0 1 0
195 372 150 -0 1 0
157 372 150 -0 1 0
167 362 0 0 -1 0
195 362 0 0 -1 0
195 362 150 0 -1 0
167 362 150 0 -1 0
162 243 0 -0 -1 0
146 243 0 -0 -1 0
146 243 150 -0 -1 0
162 243 150 -0 -1 0
157 253 0 0 1 0
136 253 0 0 1 0
136 253 150 0 1 0
157 253 150 0 1 0
167 253 0 -0 1 0
203.87939453125 253 0 -0 1 0
203.87939453125 253 150 -0 1 0
167 253 150 -0 1 0
162 243 0 0 -1 0
194.12060546875 243 0 0 -1 0
194.12060546875 243 150 0 -1 0
162 243 150 0 -1 0
659 537 0 1 0 0
659 371 0 1 0 0
659 371 150 1 0 0
659 537 150 1 0 0
649 527 0 -1 -0 0
649 361 0 -1 -0 0
649 361 150 -1 -0 0
649 527 150 -1 -0 0
649 527 0 -0 -1 0
528 527 0 -0 -1 0
528 527 150 -0 -1 0
649 527 150 -0 -1 0
659 537 0 0 1 0
518 537 0 0 1 0
518 537 150 0 1 0
659 537 150 0 1 0
659 371 0 -0 1 0
685.9647216796875 371 0 -0 1 0
685.9647216796875 371 150 -0 1 0
659 371 150 -0 1 0
649 361 0 0 -1 0
685.79461669921875 361 0 0 -1 0
685.79461669921875 361 150 0 -1 0
649 361 150 0 -1 0
168 158 0 1 0 0
168 40 0 1 0 0
168 40 150 1 0 0
168 158 150 1 0 0
158 148 0 -1 -0 0
158 30 0 -1 -0 0
158 30 150 -1 -0 0
158 148 150 -1 -0 0
158 148 0 -0 -1 0
136 148 0 -0 -1 0
136 148 150 -0 -1 0
158 148 150 -0 -1 0
168 158 0 0 1 0
146 158 0 0 1 0
146 158 150 0 1 0
168 158 150 0 1 0
168 40 0 -0 1 0
196 40 0 -0 1 0
196 40 150 -0 1 0
168 40 150 -0 1 0
158 30 0 0 -1 0
196 30 0 0 -1 0
196 30 150 0 -1 0
158 30 150 0 -1 0
312 29.4954128265380859 0 -0 -1 0
255 29.4954128265380859 0 -0 -1 0
255 29.4954128265380859 150 -0 -1 0
312 29.4954128265380859 150 -0 -1 0
312 39.4954147338867188 0 0 1 0
255 39.4954147338867188 0 0 1 0
255 39.4954147338867188 150 0 1 0
312 39.4954147338867188 150 0 1 0
354 382 0 1 0 0
354 269 0 1 0 0
354 269 150 1 0 0
354 382 150 1 0 0
344 382 0 -1 -0 0
344 269 0 -1 -0 0
344 269 150 -1 -0 0
344 382 150 -1 -0 0
503 264.5 0 -0 -1 0
385 264.5 0 -0 -1 0
385 264.5 150 -0 -1 0
503 264.5 150 -0 -1 0
503 274.5 0 0 1 0
385 274.5 0 0 1 0
385 274.5 150 0 1 0
503 274.5 150 0 1 0
687 199 0 1 0 0
687 129 0 1 0 0
687 129 150 1 0 0
687 199 150 1 0 0
677 199 0 -1 -0 0
677 139 0 -1 -0 0
677 139 150 -1 -0 0
677 199 150 -1 -0 0
687 129 0 -0 -1 0
646 129 0 -0 -1 0
646 129 150 -0 -1 0
687 129 150 -0 -1 0
677 139 0 0 1 0
646 139 0 0 1 0
646 139 150 0 1 0
677 139 150 0 1 0
348 362 0 -0 -1 0
255 362 0 -0 -1 0
255 362 150 -0 -1 0
348 362 150 -0 -1 0
348 372 0 0 1 0
255 372 0 0 1 0
255 372 150 0 1 0
348 372 150 0 1 0
616 129 0 -0 -1 0
477 129 0 -0 -1 0
477 129 150 -0 -1 0
616 129 150 -0 -1 0
616 139 0 0 1 0
477 139 0 0 1 0
477 139 150 0 1 0
616 139 150 0 1 0
481 336 0 1 0 0
481 271 0 1 0 0
481 271 150 1 0 0
481 336 150 1 0 0
471 336 0 -1 -0 0
471 271 0 -1 -0 0
471 271 150 -1 -0 0
471 336 150 -1 -0 0
528 527 0 1 0 0
528 446 0 1 0 0
528 446 150 1 0 0
528 527 150 1 0 0
518 537 0 -1 -0 0
518 436 0 -1 -0 0
518 436 150 -1 -0 0
518 537 150 -1 -0 0
195 172 0 -0 -1 0
146 172 0 -0 -1 0
146 172 150 -0 -1 0
195 172 150 -0 -1 0
205 182 0 0 1 0
136 182 0 0 1 0
136 182 150 0 1 0
205 182 150 0 1 0
205 182 0 1 0 0
205 153 0 1 0 0
205 153 150 1 0 0
205 182 150 1 0 0
195 172 0 -1 -0 0
195 153 0 -1 -0 0
195 153 150 -1 -0 0
195 172 150 -1 -0 0
146 172 0 1 0 0
146 158 0 1 0 0
146 158 150 1 0 0
146 172 150 1 0 0
136 182 0 -1 -0 0
136 148 0 -1 -0 0
136 148 150 -1 -0 0
136 182 150 -1 -0 0
396 424 0 -0 -1 0
354 424 0 -0 -1 0
354 424 150 -0 -1 0
396 424 150 -0 -1 0
396 434 0 0 1 0
344 434 0 0 1 0
344 434 150 0 1 0
396 434 150 0 1 0
354 424 0 1 0 0
354 409 0 1 0 0
354 409 150 1 0 0
354 424 150 1 0 0
344 434 0 -1 -0 0
344 419 0 -1 -0 0
344 419 150 -1 -0 0
344 434 150 -1 -0 0
294.498382568359375 191 0 1 0 0
294.498382568359375 35 0 1 0 0
294.498382568359375 35 150 1 0 0
294.498382568359375 191 150 1 0 0
284.498382568359375 191 0 -1 -0 0
284.498382568359375 35 0 -1 -0 0
284.498382568359375 35 150 -1 -0 0
284.498382568359375 191 150 -1 -0 0
603 446 0 1 0 0
603 366 0 1 0 0
603 366 150 1 0 0
603 446 150 1 0 0
593 436 0 -1 -0 0
593 366 0 -1 -0 0
593 366 150 -1 -0 0
593 436 150 -1 -0 0
593 436 0 -0 -1 0
543 436 0 -0 -1 0
543 436 150 -0 -1 0
593 436 150 -0 -1 0
603 446 0 0 1 0
538 446 0 0 1 0
538 446 150 0 1 0
603 446 150 0 1 0
546 303.70623779296875 0 -0 -1 0
477 303.70623779296875 0 -0 -1 0
477 303.70623779296875 150 -0 -1 0
546 303.70623779296875 150 -0 -1 0
546 313.70623779296875 0 0 1 0
477 313.70623779296875 0 0 1 0
477 313.70623779296875 150 0 1 0
546 313.70623779296875 150 0 1 0
654 360.508758544921875 0 -0 -1 0
624 360.508758544921875 0 -0 -1 0
624 360.508758544921875 150 -0 -1 0
654 360.508758544921875 150 -0 -1 0
654 370.508758544921875 0 0 1 0
624 370.508758544921875 0 0 1 0
624 370.508758544921875 150 0 1 0
654 370.508758544921875 150 0 1 0
528 446 0 -0 1 0
548 446 0 -0 1 0
548 446 150 -0 1 0
528 446 150 -0 1 0
518 436 0 0 -1 0
543 436 0 0 -1 0
543 436 150 0 -1 0
518 436 150 0 -1 0
406 24.3547344207763672 0 -0 -1 0
340 24.3547344207763672 0 -0 -1 0
340 24.3547344207763672 150 -0 -1 0
406 24.3547344207763672 150 -0 -1 0
406 34.354736328125 0 0 1 0
340 34.354736328125 0 0 1 0
340 34.354736328125 150 0 1 0
406 34.354736328125 150 0 1 0
548 446 0 1 0 0
548 387.928924560546875 0 1 0 0
548 387.928924560546875 150 1 0 0
548 446 150 1 0 0
538 446 0 -1 -0 0
538 392.071075439453125 0 -1 -0 0
538 392.071075439453125 150 -1 -0 0
538 446 150 -1 -0 0
548 387.928924560546875 0 0.70710676908493042 -0.70710676908493042 0
522.071044921875 362 0 0.70710676908493042 -0.70710676908493042 0
522.071044921875 362 150 0.70710676908493042 -0.70710676908493042 0
548 387.928924560546875 150 0.70710676908493042 -0.70710676908493042 0
538 392.071075439453125 0 -0.70710676908493042 0.70710676908493042 0
517.928955078125 372 0 -0.70710676908493042 0.70710676908493042 0
517.928955078125 372 150 -0.70710676908493042 0.70710676908493042 0
538 392.071075439453125 150 -0.70710676908493042 0.70710676908493042 0
146 243 0 1 0 0
146 215 0 1 0 0
146 215 150 1 0 0
146 243 150 1 0 0
136 253 0 -1 -0 0
136 215 0 -1 -0 0
136 215 150 -1 -0 0
136 253 150 -1 -0 0
397 12.2339181900024414 0 -0 -1 0
349 12.2339181900024414 0 -0 -1 0
349 12.2339181900024414 150 -0 -1 0
397 12.2339181900024414 150 -0 -1 0
397 22.233917236328125 0 0 1 0
349 22.233917236328125 0 0 1 0
349 22.233917236328125 150 0 1 0
397 22.233917236328125 150 0 1 0
286.5 414 0 1 0 0
286.5 368 0 1 0 0
286.5 368 150 1 0 0
286.5 414 150 1 0 0
276.5 414 0 -1 -0 0
276.5 368 0 -1 -0 0
276.5 368 150 -1 -0 0
276.5 414 150 -1 -0 0
348 288 0 -0 -1 0
309 288 0 -0 -1 0
309 288 150 -0 -1 0
348 288 150 -0 -1 0
348 298 0 0 1 0
309 298 0 0 1 0
309 298 150 0 1 0
348 298 150 0 1 0
598 360.507476806640625 0 -0 -1 0
562 360.507476806640625 0 -0 -1 0
562 360.507476806640625 150 -0 -1 0
598 360.507476806640625 150 -0 -1 0
598 370.507476806640625 0 0 1 0
562 370.507476806640625 0 0 1 0
562 370.507476806640625 150 0 1 0
598 370.507476806640625 150 0 1 0
551 347 0 1 0 0
551 309 0 1 0 0
551 309 150 1 0 0
551 347 150 1 0 0
541 347 0 -1 -0 0
541 309 0 -1 -0 0
541 309 150 -1 -0 0
541 347 150 -1 -0 0
502 185 0 -0 -1 0
481 185 0 -0 -1 0
481 185 150 -0 -1 0
502 185 150 -0 -1 0
502 195 0 0 1 0
471 195 0 0 1 0
471 195 150 0 1 0
502 195 150 0 1 0
481 185 0 1 0 0
481 28.9386520385742188 0 1 0 0
481 28.9386520385742188 150 1 0 0
481 185 150 1 0 0
471 195 0 -1 -0 0
471 39.0613479614257812 0 -1 -0 0
471 39.0613479614257812 150 -1 -0 0
471 195 150 -1 -0 0
313 366 0 1 0 0
313 342 0 1 0 0
313 342 150 1 0 0
313 366 150 1 0 0
303 366 0 -1 -0 0
303 342 0 -1 -0 0
303 342 150 -1 -0 0
303 366 150 -1 -0 0
522.071044921875 362 0 -0 -1 0
471 362 0 -0 -1 0
471 362 150 -0 -1 0
522.071044921875 362 150 -0 -1 0
517.928955078125 372 0 0 1 0
481 372 0 0 1 0
481 372 150 0 1 0
517.928955078125 372 150 0 1 0
471 362 0 -1 0 0
471 423.054046630859375 0 -1 0 0
471 423.054046630859375 150 -1 0 0
471 362 150 -1 0 0
481 372 0 1 -0 0
481 432.945953369140625 0 1 -0 0
481 432.945953369140625 150 1 -0 0
481 372 150 1 -0 0
257 148 0 -0 -1 0
231 148 0 -0 -1 0
231 148 150 -0 -1 0
257 148 150 -0 -1 0
247 158 0 0 1 0
231 158 0 0 1 0
231 158 150 0 1 0
247 158 150 0 1 0
247 158 0 -1 0 0
247 243.117630004882812 0 -1 0 0
247 243.117630004882812 150 -1 0 0
247 158 150 -1 0 0
257 148 0 1 -0 0
257 252.882369995117188 0 1 -0 0
257 252.882369995117188 150 1 -0 0
257 148 150 1 -0 0
653 436 0 -0 -1 0
631 436 0 -0 -1 0
631 436 150 -0 -1 0
653 436 150 -0 -1 0
653 446 0 0 1 0
631 446 0 0 1 0
631 446 150 0 1 0
653 446 150 0 1 0
354 409 0 -0 -1 0
335 409 0 -0 -1 0
335 409 150 -0 -1 0
354 409 150 -0 -1 0
344 419 0 0 1 0
335 419 0 0 1 0
335 419 150 0 1 0
344 419 150 0 1 0
301 409 0 -0 -1 0
282 409 0 -0 -1 0
282 409 150 -0 -1 0
301 409 150 -0 -1 0
301 419 0 0 1 0
282 419 0 0 1 0
282 419 150 0 1 0
301 419 150 0 1 0
481 28.9386520385742188 0 -0.0121942153200507164 -0.999925673007965088 0
434.93902587890625 29.5003719329833984 0 -0.0121942153200507164 -0.999925673007965088 0
434.93902587890625 29.5003719329833984 150 -0.0121942153200507164 -0.999925673007965088 0
481 28.9386520385742188 150 -0.0121942153200507164 -0.999925673007965088 0
471 39.0613479614257812 0 0.0121942153200507164 0.999925673007965088 0
435.06097412109375 39.4996299743652344 0 0.0121942153200507164 0.999925673007965088 0
435.06097412109375 39.4996299743652344 150 0.0121942153200507164 0.999925673007965088 0
471 39.0613479614257812 150 0.0121942153200507164 0.999925673007965088 0
686.54107666015625 378.7904052734375 0 0.999120950698852539 -0.0419211573898792267 0
685.79461669921875 361 0 0.999120950698852539 -0.0419211573898792267 0
685.79461669921875 361 150 0.999120950698852539 -0.0419211573898792267 0
686.54107666015625 378.7904052734375 150 0.999120950698852539 -0.0419211573898792267 0
676.54986572265625 379.2095947265625 0 -0.999120950698852539 0.0419211573898792267 0
675.999267578125 366.087158203125 0 -0.999120950698852539 0.0419211573898792267 0
675.999267578125 366.087158203125 150 -0.999120950698852539 0.0419211573898792267 0
676.54986572265625 379.2095947265625 150 -0.999120950698852539 0.0419211573898792267 0
685.9647216796875 371 0 0.999974906444549561 0.00708364741876721382 0
686.54534912109375 289.035430908203125 0 0.999974906444549561 0.00708364741876721382 0
686.54534912109375 289.035430908203125 150 0.999974906444549561 0.00708364741876721382 0
685.9647216796875 371 150 0.999974906444549561 0.00708364741876721382 0
675.999267578125 366.087158203125 0 -0.999974906444549561 -0.00708364741876721382 0
676.54559326171875 288.964569091796875 0 -0.999974906444549561 -0.00708364741876721382 0
676.54559326171875 288.964569091796875 150 -0.999974906444549561 -0.00708364741876721382 0
675.999267578125 366.087158203125 150 -0.999974906444549561 -0.00708364741876721382 0
430.054351806640625 433.49969482421875 0 0.0108689228072762489 0.999940931797027588 0
481 432.945953369140625 0 0.0108689228072762489 0.999940931797027588 0
481 432.945953369140625 150 0.0108689228072762489 0.999940931797027588 0
430.054351806640625 433.49969482421875 150 0.0108689228072762489 0.999940931797027588 0
429.945648193359375 423.50030517578125 0 -0.0108689228072762489 -0.999940931797027588 0
471 423.054046630859375 0 -0.0108689228072762489 -0.999940931797027588 0
471 423.054046630859375 150 -0.0108689228072762489 -0.999940931797027588 0
429.945648193359375 423.50030517578125 150 -0.0108689228072762489 -0.999940931797027588 0
289.10400390625 274.394256591796875 0 0.0208033304661512375 0.999783575534820557 0
303 274.105133056640625 0 0.0208033304661512375 0.999783575534820557 0
303 274.105133056640625 150 0.0208033304661512375 0.999783575534820557 0
289.10400390625 274.394256591796875 150 0.0208033304661512375 0.999783575534820557 0
288.89599609375 264.39642333984375 0 -0.0208033304661512375 -0.999783575534820557 0
313 263.894866943359375 0 -0.0208033304661512375 -0.999783575534820557 0
313 263.894866943359375 150 -0.0208033304661512375 -0.999783575534820557 0
288.89599609375 264.39642333984375 150 -0.0208033304661512375 -0.999783575534820557 0
303 274.105133056640625 0 -1 0 0
303 315 0 -1 0 0
303 315 150 -1 0 0
303 274.105133056640625 150 -1 0 0
313 263.894866943359375 0 1 -0 0
313 315 0 1 -0 0
313 315 150 1 -0 0
313 263.894866943359375 150 1 -0 0
247 243.117630004882812 0 -0.0238027777522802353 -0.999716699123382568 0
230.8809814453125 243.501419067382812 0 -0.0238027777522802353 -0.999716699123382568 0
230.8809814453125 243.501419067382812 150 -0.0238027777522802353 -0.999716699123382568 0
247 243.117630004882812 150 -0.0238027777522802353 -0.999716699123382568 0
257 252.882369995117188 0 0.0238027777522802353 0.999716699123382568 0
231.1190185546875 253.498580932617188 0 0.0238027777522802353 0.999716699123382568 0
231.1190185546875 253.498580932617188 150 0.0238027777522802353 0.999716699123382568 0
257 252.882369995117188 150 0.0238027777522802353 0.999716699123382568 0
508 221 0 1 0 0
508 172.902923583984375 0 1 0 0
508 172.902923583984375 150 1 0 0
508 221 150 1 0 0
498 221 0 -1 -0 0
498 183.097076416015625 0 -1 -0 0
498 183.097076416015625 150 -1 -0 0
498 221 150 -1 -0 0
508 172.902923583984375 0 -0.0192272141575813293 -0.999815165996551514 0
476.90386962890625 173.500930786132812 0 -0.0192272141575813293 -0.999815165996551514 0
476.90386962890625 173.500930786132812 150 -0.0192272141575813293 -0.999815165996551514 0
508 172.902923583984375 150 -0.0192272141575813293 -0.999815165996551514 0
498 183.097076416015625 0 0.0192272141575813293 0.999815165996551514 0
477.09613037109375 183.499069213867188 0 0.0192272141575813293 0.999815165996551514 0
477.09613037109375 183.499069213867188 150 0.0192272141575813293 0.999815165996551514 0
498 183.097076416015625 150 0.0192272141575813293 0.999815165996551514 0
203.87939453125 253 0 0.999701976776123047 0.0244127456098794937 0
204.511337280273438 227.1220703125 0 0.999701976776123047 0.0244127456098794937 0
204.511337280273438 227.1220703125 150 0.999701976776123047 0.0244127456098794937 0
203.87939453125 253 150 0.999701976776123047 0.0244127456098794937 0
194.12060546875 243 0 -0.999701976776123047 -0.0244127456098794937 0
194.514312744140625 226.8779296875 0 -0.999701976776123047 -0.0244127456098794937 0
194.514312744140625 226.8779296875 150 -0.999701976776123047 -0.0244127456098794937 0
194.12060546875 243 150 -0.999701976776123047 -0.0244127456098794937 0
312 29.4954128265380859 0 307.52630615234375 28.9779491424560547 0
312 39.4954147338867188 0 307.52630615234375 28.9779491424560547 0
312 39.4954147338867188 150 307.52630615234375 28.9779491424560547 0
312 29.4954128265380859 150 307.52630615234375 28.9779491424560547 0
255 29.4954128265380859 0 249.526321411132812 28.9779491424560547 0
255 39.4954147338867188 0 249.526321411132812 28.9779491424560547 0
255 39.4954147338867188 150 249.526321411132812 28.9779491424560547 0
255 29.4954128265380859 150 249.526321411132812 28.9779491424560547 0
354 382 0 350.86724853515625 379.619476318359375 0
344 382 0 350.86724853515625 379.619476318359375 0
344 382 150 350.86724853515625 379.619476318359375 0
354 382 150 350.86724853515625 379.619476318359375 0
354 269 0 350.86724853515625 265.619476318359375 0
344 269 0 350.86724853515625 265.619476318359375 0
344 269 150 350.86724853515625 265.619476318359375 0
354 269 150 350.86724853515625 265.619476318359375 0
503 264.5 0 499.737274169921875 262.25848388671875 0
503 274.5 0 499.737274169921875 262.25848388671875 0
503 274.5 150 499.737274169921875 262.25848388671875 0
503 264.5 150 499.737274169921875 262.25848388671875 0
385 264.5 0 380.737274169921875 262.25848388671875 0
385 274.5 0 380.737274169921875 262.25848388671875 0
385 274.5 150 380.737274169921875 262.25848388671875 0
385 264.5 150 380.737274169921875 262.25848388671875 0
687 199 0 677.18572998046875 197.157150268554688 0
677 199 0 677.18572998046875 197.157150268554688 0
677 199 150 677.18572998046875 197.157150268554688 0
687 199 150 677.18572998046875 197.157150268554688 0
348 362 0 345.258056640625 358.107513427734375 0
348 372 0 345.258056640625 358.107513427734375 0
348 372 150 345.258056640625 358.107513427734375 0
348 362 150 345.258056640625 358.107513427734375 0
255 362 0 251.258071899414062 358.107513427734375 0
255 372 0 251.258071899414062 358.107513427734375 0
255 372 150 251.258071899414062 358.107513427734375 0
255 362 150 251.258071899414062 358.107513427734375 0
616 129 0 612.568359375 128.071945190429688 0
616 139 0 612.568359375 128.071945190429688 0
616 139 150 612.568359375 128.071945190429688 0
616 129 150 612.568359375 128.071945190429688 0
477 129 0 472.568359375 128.071945190429688 0
477 139 0 472.568359375 128.071945190429688 0
477 139 150 472.568359375 128.071945190429688 0
477 129 150 472.568359375 128.071945190429688 0
481 336 0 473.600006103515625 331.830780029296875 0
471 336 0 473.600006103515625 331.830780029296875 0
471 336 150 473.600006103515625 331.830780029296875 0
481 336 150 473.600006103515625 331.830780029296875 0
481 271 0 473.600006103515625 265.830780029296875 0
471 271 0 473.600006103515625 265.830780029296875 0
471 271 150 473.600006103515625 265.830780029296875 0
481 271 150 473.600006103515625 265.830780029296875 0
396 424 0 387.571441650390625 413.904754638671875 0
396 434 0 387.571441650390625 413.904754638671875 0
396 434 150 387.571441650390625 413.904754638671875 0
396 424 150 387.571441650390625 413.904754638671875 0
294.498382568359375 191 0 292.610595703125 190.775634765625 0
284.498382568359375 191 0 292.610595703125 190.775634765625 0
284.498382568359375 191 150 292.610595703125 190.775634765625 0
294.498382568359375 191 150 292.610595703125 190.775634765625 0
294.498382568359375 35 0 292.610595703125 33.7756423950195312 0
284.498382568359375 35 0 292.610595703125 33.7756423950195312 0
284.498382568359375 35 150 292.610595703125 33.7756423950195312 0
294.498382568359375 35 150 292.610595703125 33.7756423950195312 0
603 366 0 595.4625244140625 360.42498779296875 0
593 366 0 595.4625244140625 360.42498779296875 0
593 366 150 595.4625244140625 360.42498779296875 0
603 366 150 595.4625244140625 360.42498779296875 0
546 303.70623779296875 0 539.08697509765625 299.304718017578125 0
546 313.70623779296875 0 539.08697509765625 299.304718017578125 0
546 313.70623779296875 150 539.08697509765625 299.304718017578125 0
546 303.70623779296875 150 539.08697509765625 299.304718017578125 0
477 303.70623779296875 0 469.086944580078125 299.304718017578125 0
477 313.70623779296875 0 469.086944580078125 299.304718017578125 0
477 313.70623779296875 150 469.086944580078125 299.304718017578125 0
477 303.70623779296875 150 469.086944580078125 299.304718017578125 0
654 360.508758544921875 0 633.20001220703125 348.4918212890625 0
654 370.508758544921875 0 633.20001220703125 348.4918212890625 0
654 370.508758544921875 150 633.20001220703125 348.4918212890625 0
654 360.508758544921875 150 633.20001220703125 348.4918212890625 0
624 360.508758544921875 0 602.20001220703125 348.4918212890625 0
624 370.508758544921875 0 602.20001220703125 348.4918212890625 0
624 370.508758544921875 150 602.20001220703125 348.4918212890625 0
624 360.508758544921875 150 602.20001220703125 348.4918212890625 0
406 24.3547344207763672 0 400.848480224609375 23.9857234954833984 0
406 34.354736328125 0 400.848480224609375 23.9857234954833984 0
406 34.354736328125 150 400.848480224609375 23.9857234954833984 0
406 24.3547344207763672 150 400.848480224609375 23.9857234954833984 0
340 24.3547344207763672 0 333.848480224609375 23.9857234954833984 0
340 34.354736328125 0 333.848480224609375 23.9857234954833984 0
340 34.354736328125 150 333.848480224609375 23.9857234954833984 0
340 24.3547344207763672 150 333.848480224609375 23.9857234954833984 0
397 12.2339181900024414 0 389.729156494140625 11.9790449142456055 0
397 22.233917236328125 0 389.729156494140625 11.9790449142456055 0
397 22.233917236328125 150 389.729156494140625 11.9790449142456055 0
397 12.2339181900024414 150 389.729156494140625 11.9790449142456055 0
349 12.2339181900024414 0 340.729156494140625 11.9790449142456055 0
349 22.233917236328125 0 340.729156494140625 11.9790449142456055 0
349 22.233917236328125 150 340.729156494140625 11.9790449142456055 0
349 12.2339181900024414 150 340.729156494140625 11.9790449142456055 0
196 40 0 190 38.5714302062988281 0
196 30 0 190 38.5714302062988281 0
196 30 150 190 38.5714302062988281 0
196 40 150 190 38.5714302062988281 0
205 153 0 197.9310302734375 146.724136352539062 0
195 153 0 197.9310302734375 146.724136352539062 0
195 153 150 197.9310302734375 146.724136352539062 0
205 153 150 197.9310302734375 146.724136352539062 0
286.5 414 0 280.271728515625 406 0
276.5 414 0 280.271728515625 406 0
276.5 414 150 280.271728515625 406 0
286.5 414 150 280.271728515625 406 0
286.5 368 0 280.271728515625 359 0
276.5 368 0 280.271728515625 359 0
276.5 368 150 280.271728515625 359 0
286.5 368 150 280.271728515625 359 0
348 288 0 340.076934814453125 280.615386962890625 0
348 298 0 340.076934814453125 280.615386962890625 0
348 298 150 340.076934814453125 280.615386962890625 0
348 288 150 340.076934814453125 280.615386962890625 0
309 288 0 300.076934814453125 280.615386962890625 0
309 298 0 300.076934814453125 280.615386962890625 0
309 298 150 300.076934814453125 280.615386962890625 0
309 288 150 300.076934814453125 280.615386962890625 0
646 129 0 629.243896484375 125.853660583496094 0
646 139 0 629.243896484375 125.853660583496094 0
646 139 150 629.243896484375 125.853660583496094 0
646 129 150 629.243896484375 125.853660583496094 0
598 360.507476806640625 0 582.388916015625 350.493377685546875 0
598 370.507476806640625 0 582.388916015625 350.493377685546875 0
598 370.507476806640625 150 582.388916015625 350.493377685546875 0
598 360.507476806640625 150 582.388916015625 350.493377685546875 0
562 360.507476806640625 0 545.388916015625 350.493377685546875 0
562 370.507476806640625 0 545.388916015625 350.493377685546875 0
562 370.507476806640625 150 545.388916015625 350.493377685546875 0
562 360.507476806640625 150 545.388916015625 350.493377685546875 0
551 347 0 536.5 338.868408203125 0
541 347 0 536.5 338.868408203125 0
541 347 150 536.5 338.868408203125 0
551 347 150 536.5 338.868408203125 0
551 309 0 536.5 299.868408203125 0
541 309 0 536.5 299.868408203125 0
541 309 150 536.5 299.868408203125 0
551 309 150 536.5 299.868408203125 0
502 185 0 479.095245361328125 176.190475463867188 0
502 195 0 479.095245361328125 176.190475463867188 0
502 195 150 479.095245361328125 176.190475463867188 0
502 185 150 479.095245361328125 176.190475463867188 0
313 366 0 299.958343505859375 351.75 0
303 366 0 299.958343505859375 351.75 0
303 366 150 299.958343505859375 351.75 0
313 366 150 299.958343505859375 351.75 0
313 342 0 299.958343505859375 326.75 0
303 342 0 299.958343505859375 326.75 0
303 342 150 299.958343505859375 326.75 0
313 342 150 299.958343505859375 326.75 0
146 215 0 140.785720825195312 206.321426391601562 0
136 215 0 140.785720825195312 206.321426391601562 0
136 215 150 140.785720825195312 206.321426391601562 0
146 215 150 140.785720825195312 206.321426391601562 0
231 148 0 221.115386962890625 142.307693481445312 0
231 158 0 221.115386962890625 142.307693481445312 0
231 158 150 221.115386962890625 142.307693481445312 0
231 148 150 221.115386962890625 142.307693481445312 0
653 436 0 624.31817626953125 416.18182373046875 0
653 446 0 624.31817626953125 416.18182373046875 0
653 446 150 624.31817626953125 416.18182373046875 0
653 436 150 624.31817626953125 416.18182373046875 0
631 436 0 601.31817626953125 416.18182373046875 0
631 446 0 601.31817626953125 416.18182373046875 0
631 446 150 601.31817626953125 416.18182373046875 0
631 436 150 601.31817626953125 416.18182373046875 0
195 372 0 190.868423461914062 362.210540771484375 0
195 362 0 190.868423461914062 362.210540771484375 0
195 362 150 190.868423461914062 362.210540771484375 0
195 372 150 190.868423461914062 362.210540771484375 0
301 409 0 286.15789794921875 387.47369384765625 0
301 419 0 286.15789794921875 387.47369384765625 0
301 419 150 286.15789794921875 387.47369384765625 0
301 409 150 286.15789794921875 387.47369384765625 0
282 409 0 266.15789794921875 387.47369384765625 0
282 419 0 266.15789794921875 387.47369384765625 0
282 419 150 266.15789794921875 387.47369384765625 0
282 409 150 266.15789794921875 387.47369384765625 0
335 409 0 316.368408203125 387.47369384765625 0
335 419 0 316.368408203125 387.47369384765625 0
335 419 150 316.368408203125 387.47369384765625 0
335 409 150 316.368408203125 387.47369384765625 0
434.93902587890625 29.5003719329833984 0 424.49713134765625 28.8721504211425781 0
435.06097412109375 39.4996299743652344 0 424.49713134765625 28.8721504211425781 0
435.06097412109375 39.4996299743652344 150 424.49713134765625 28.8721504211425781 0
434.93902587890625 29.5003719329833984 150 424.49713134765625 28.8721504211425781 0
686.54107666015625 378.7904052734375 0 648.0263671875 358.516387939453125 0
676.54986572265625 379.2095947265625 0 648.0263671875 358.516387939453125 0
676.54986572265625 379.2095947265625 150 648.0263671875 358.516387939453125 0
686.54107666015625 378.7904052734375 150 648.0263671875 358.516387939453125 0
686.54534912109375 289.035430908203125 0 678.176513671875 284.509185791015625 0
676.54559326171875 288.964569091796875 0 678.176513671875 284.509185791015625 0
676.54559326171875 288.964569091796875 150 678.176513671875 284.509185791015625 0
686.54534912109375 289.035430908203125 150 678.176513671875 284.509185791015625 0
430.054351806640625 433.49969482421875 0 420.61346435546875 425.00201416015625 0
429.945648193359375 423.50030517578125 0 420.61346435546875 425.00201416015625 0
429.945648193359375 423.50030517578125 150 420.61346435546875 425.00201416015625 0
430.054351806640625 433.49969482421875 150 420.61346435546875 425.00201416015625 0
289.10400390625 274.394256591796875 0 267.303863525390625 254.673049926757812 0
288.89599609375 264.39642333984375 0 267.303863525390625 254.673049926757812 0
288.89599609375 264.39642333984375 150 267.303863525390625 254.673049926757812 0
289.10400390625 274.394256591796875 150 267.303863525390625 254.673049926757812 0
303 315 0 295.59075927734375 308.297332763671875 0
313 315 0 295.59075927734375 308.297332763671875 0
313 315 150 295.59075927734375 308.297332763671875 0
303 315 150 295.59075927734375 308.297332763671875 0
230.8809814453125 243.501419067382812 0 215.561813354492188 228.42303466796875 0
231.1190185546875 253.498580932617188 0 215.561813354492188 228.42303466796875 0
231.1190185546875 253.498580932617188 150 215.561813354492188 228.42303466796875 0
230.8809814453125 243.501419067382812 150 215.561813354492188 228.42303466796875 0
508 221 0 497.438018798828125 217.405120849609375 0
498 221 0 497.438018798828125 217.405120849609375 0
498 221 150 497.438018798828125 217.405120849609375 0
508 221 150 497.438018798828125 217.405120849609375 0
476.90386962890625 173.500930786132812 0 460.5704345703125 167.941680908203125 0
477.09613037109375 183.499069213867188 0 460.5704345703125 167.941680908203125 0
477.09613037109375 183.499069213867188 150 460.5704345703125 167.941680908203125 0
476.90386962890625 173.500930786132812 150 460.5704345703125 167.941680908203125 0
204.511337280273438 227.1220703125 0 196.635177612304688 217.348312377929688 0
194.514312744140625 226.8779296875 0 196.635177612304688 217.348312377929688 0
194.514312744140625 226.8779296875 150 196.635177612304688 217.348312377929688 0
204.511337280273438 227.1220703125 150 196.635177612304688 217.348312377929688 0
167 362 0 0 0 -1
157 372 0 0 0 -1
157 253 0 0 0 -1
167 253 0 0 0 -1
167 362 150 0 0 1
157 372 150 0 0 1
157 253 150 0 0 1
167 253 150 0 0 1
157 372 0 0 0 -1
167 362 0 0 0 -1
195 362 0 0 0 -1
195 372 0 0 0 -1
157 372 150 0 0 1
167 362 150 0 0 1
195 362 150 0 0 1
195 372 150 0 0 1
162 243 0 0 0 -1
157 253 0 0 0 -1
136 253 0 0 0 -1
146 243 0 0 0 -1
162 243 150 0 0 1
157 253 150 0 0 1
136 253 150 0 0 1
146 243 150 0 0 1
167 253 0 0 0 -1
162 243 0 0 0 -1
194.12060546875 243 0 0 0 -1
203.87939453125 253 0 0 0 -1
167 253 150 0 0 1
162 243 150 0 0 1
194.12060546875 243 150 0 0 1
203.87939453125 253 150 0 0 1
659 537 0 0 0 -1
649 527 0 0 0 -1
649 361 0 0 0 -1
659 371 0 0 0 -1
659 537 150 0 0 1
649 527 150 0 0 1
649 361 150 0 0 1
659 371 150 0 0 1
649 527 0 0 0 -1
659 537 0 0 0 -1
518 537 0 0 0 -1
528 527 0 0 0 -1
649 527 150 0 0 1
659 537 150 0 0 1
518 537 150 0 0 1
528 527 150 0 0 1
659 371 0 0 0 -1
649 361 0 0 0 -1
685.79461669921875 361 0 0 0 -1
685.9647216796875 371 0 0 0 -1
659 371 150 0 0 1
649 361 150 0 0 1
685.79461669921875 361 150 0 0 1
685.9647216796875 371 150 0 0 1
168 158 0 0 0 -1
158 148 0 0 0 -1
158 30 0 0 0 -1
168 40 0 0 0 -1
168 158 150 0 0 1
158 148 150 0 0 1
158 30 150 0 0 1
168 40 150 0 0 1
158 148 0 0 0 -1
168 158 0 0 0 -1
146 158 0 0 0 -1
136 148 0 0 0 -1
158 148 150 0 0 1
168 158 150 0 0 1
146 158 150 0 0 1
136 148 150 0 0 1
168 40 0 0 0 -1
158 30 0 0 0 -1
196 30 0 0 0 -1
196 40 0 0 0 -1
168 40 150 0 0 1
158 30 150 0 0 1
196 30 150 0 0 1
196 40 150 0 0 1
312 29.4954128265380859 0 0 0 -1
312 39.4954147338867188 0 0 0 -1
255 39.4954147338867188 0 0 0 -1
255 29.4954128265380859 0 0 0 -1
312 29.4954128265380859 150 0 0 1
312 39.4954147338867188 150 0 0 1
255 39.4954147338867188 150 0 0 1
255 29.4954128265380859 150 0 0 1
354 382 0 0 0 -1
344 382 0 0 0 -1
344 269 0 0 0 -1
354 269 0 0 0 -1
354 382 150 0 0 1
344 382 150 0 0 1
344 269 150 0 0 1
354 269 150 0 0 1
503 264.5 0 0 0 -1
503 274.5 0 0 0 -1
385 274.5 0 0 0 -1
385 264.5 0 0 0 -1
503 264.5 150 0 0 1
503 274.5 150 0 0 1
385 274.5 150 0 0 1
385 264.5 150 0 0 1
687 199 0 0 0 -1
677 199 0 0 0 -1
677 139 0 0 0 -1
687 129 0 0 0 -1
687 199 150 0 0 1
677 199 150 0 0 1
677 139 150 0 0 1
687 129 150 0 0 1
687 129 0 0 0 -1
677 139 0 0 0 -1
646 139 0 0 0 -1
646 129 0 0 0 -1
687 129 150 0 0 1
677 139 150 0 0 1
646 139 150 0 0 1
646 129 150 0 0 1
348 362 0 0 0 -1
348 372 0 0 0 -1
255 372 0 0 0 -1
255 362 0 0 0 -1
348 362 150 0 0 1
348 372 150 0 0 1
255 372 150 0 0 1
255 362 150 0 0 1
616 129 0 0 0 -1
616 139 0 0 0 -1
477 139 0 0 0 -1
477 129 0 0 0 -1
616 129 150 0 0 1
616 139 150 0 0 1
477 139 150 0 0 1
477 129 150 0 0 1
481 336 0 0 0 -1
471 336 0 0 0 -1
471 271 0 0 0 -1
481 271 0 0 0 -1
481 336 150 0 0 1
471 336 150 0 0 1
471 271 150 0 0 1
481 271 150 0 0 1
528 527 0 0 0 -1
518 537 0 0 0 -1
518 436 0 0 0 -1
528 446 0 0 0 -1
528 527 150 0 0 1
518 537 150 0 0 1
518 436 150 0 0 1
528 446 150 0 0 1
195 172 0 0 0 -1
205 182 0 0 0 -1
136 182 0 0 0 -1
146 172 0 0 0 -1
195 172 150 0 0 1
205 182 150 0 0 1
136 182 150 0 0 1
146 172 150 0 0 1
205 182 0 0 0 -1
195 172 0 0 0 -1
195 153 0 0 0 -1
205 153 0 0 0 -1
205 182 150 0 0 1
195 172 150 0 0 1
195 153 150 0 0 1
205 153 150 0 0 1
146 172 0 0 0 -1
136 182 0 0 0 -1
136 148 0 0 0 -1
146 158 0 0 0 -1
146 172 150 0 0 1
136 182 150 0 0 1
136 148 150 0 0 1
146 158 150 0 0 1
396 424 0 0 0 -1
396 434 0 0 0 -1
344 434 0 0 0 -1
354 424 0 0 0 -1
396 424 150 0 0 1
396 434 150 0 0 1
344 434 150 0 0 1
354 424 150 0 0 1
354 424 0 0 0 -1
344 434 0 0 0 -1
344 419 0 0 0 -1
354 409 0 0 0 -1
354 424 150 0 0 1
344 434 150 0 0 1
344 419 150 0 0 1
354 409 150 0 0 1
294.498382568359375 191 0 0 0 -1
284.498382568359375 191 0 0 0 -1
284.498382568359375 35 0 0 0 -1
294.498382568359375 35 0 0 0 -1
294.498382568359375 191 150 0 0 1
284.498382568359375 191 150 0 0 1
284.498382568359375 35 150 0 0 1
294.498382568359375 35 150 0 0 1
603 446 0 0 0 -1
593 436 0 0 0 -1
593 366 0 0 0 -1
603 366 0 0 0 -1
603 446 150 0 0 1
593 436 150 0 0 1
593 366 150 0 0 1
603 366 150 0 0 1
593 436 0 0 0 -1
603 446 0 0 0 -1
538 446 0 0 0 -1
543 436 0 0 0 -1
593 436 150 0 0 1
603 446 150 0 0 1
538 446 150 0 0 1
543 436 150 0 0 1
546 303.70623779296875 0 0 0 -1
546 313.70623779296875 0 0 0 -1
477 313.70623779296875 0 0 0 -1
477 303.70623779296875 0 0 0 -1
546 303.70623779296875 150 0 0 1
546 313.70623779296875 150 0 0 1
477 313.70623779296875 150 0 0 1
477 303.70623779296875 150 0 0 1
654 360.508758544921875 0 0 0 -1
654 370.508758544921875 0 0 0 -1
624 370.508758544921875 0 0 0 -1
624 360.508758544921875 0 0 0 -1
654 360.508758544921875 150 0 0 1
654 370.508758544921875 150 0 0 1
624 370.508758544921875 150 0 0 1
624 360.508758544921875 150 0 0 1
528 446 0 0 0 -1
518 436 0 0 0 -1
543 436 0 0 0 -1
548 446 0 0 0 -1
528 446 150 0 0 1
518 436 150 0 0 1
543 436 150 0 0 1
548 446 150 0 0 1
406 24.3547344207763672 0 0 0 -1
406 34.354736328125 0 0 0 -1
340 34.354736328125 0 0 0 -1
340 24.3547344207763672 0 0 0 -1
406 24.3547344207763672 150 0 0 1
406 34.354736328125 150 0 0 1
340 34.354736328125 150 0 0 1
340 24.3547344207763672 150 0 0 1
548 446 0 0 0 -1
538 446 0 0 0 -1
538 392.071075439453125 0 0 0 -1
548 387.928924560546875 0 0 0 -1
548 446 150 0 0 1
538 446 150 0 0 1
538 392.071075439453125 150 0 0 1
548 387.928924560546875 150 0 0 1
548 387.928924560546875 0 0 0 -1
538 392.071075439453125 0 0 0 -1
517.928955078125 372 0 0 0 -1
522.071044921875 362 0 0 0 -1
548 387.928924560546875 150 0 0 1
538 392.071075439453125 150 0 0 1
517.928955078125 372 150 0 0 1
522.071044921875 362 150 0 0 1
146 243 0 0 0 -1
136 253 0 0 0 -1
136 215 0 0 0 -1
146 215 0 0 0 -1
146 243 150 0 0 1
136 253 150 0 0 1
136 215 150 0 0 1
146 215 150 0 0 1
397 12.2339181900024414 0 0 0 -1
397 22.233917236328125 0 0 0 -1
349 22.233917236328125 0 0 0 -1
349 12.2339181900024414 0 0 0 -1
397 12.2339181900024414 150 0 0 1
397 22.233917236328125 150 0 0 1
349 22.233917236328125 150 0 0 1
349 12.2339181900024414 150 0 0 1
286.5 414 0 0 0 -1
276.5 414 0 0 0 -1
276.5 368 0 0 0 -1
286.5 368 0 0 0 -1
286.5 414 150 0 0 1
276.5 414 150 0 0 1
276.5 368 150 0 0 1
286.5 368 150 0 0 1
348 288 0 0 0 -1
348 298 0 0 0 -1
309 298 0 0 0 -1
309 288 0 0 0 -1
348 288 150 0 0 1
348 298 150 0 0 1
309 298 150 0 0 1
309 288 150 0 0 1
598 360.507476806640625 0 0 0 -1
598 370.507476806640625 0 0 0 -1
562 370.507476806640625 0 0 0 -1
562 360.507476806640625 0 0 0 -1
598 360.507476806640625 150 0 0 1
598 370.507476806640625 150 0 0 1
562 370.507476806640625 150 0 0 1
562 360.507476806640625 150 0 0 1
551 347 0 0 0 -1
541 347 0 0 0 -1
541 309 0 0 0 -1
551 309 0 0 0 -1
551 347 150 0 0 1
541 347 150 0 0 1
541 309 150 0 0 1
551 309 150 0 0 1
502 185 0 0 0 -1
502 195 0 0 0 -1
471 195 0 0 0 -1
481 185 0 0 0 -1
502 185 150 0 0 1
502 195 150 0 0 1
471 195 150 0 0 1
481 185 150 0 0 1
481 185 0 0 0 -1
471 195 0 0 0 -1
471 39.0613479614257812 0 0 0 -1
481 28.9386520385742188 0 0 0 -1
481 185 150 0 0 1
471 195 150 0 0 1
471 39.0613479614257812 150 0 0 1
481 28.9386520385742188 150 0 0 1
313 366 0 0 0 -1
303 366 0 0 0 -1
303 342 0 0 0 -1
313 342 0 0 0 -1
313 366 150 0 0 1
303 366 150 0 0 1
303 342 150 0 0 1
313 342 150 0 0 1
522.071044921875 362 0 0 0 -1
517.928955078125 372 0 0 0 -1
481 372 0 0 0 -1
471 362 0 0 0 -1
522.071044921875 362 150 0 0 1
517.928955078125 372 150 0 0 1
481 372 150 0 0 1
471 362 150 0 0 1
471 362 0 0 0 -1
481 372 0 0 0 -1
481 432.945953369140625 0 0 0 -1
471 423.054046630859375 0 0 0 -1
471 362 150 0 0 1
481 372 150 0 0 1
481 432.945953369140625 150 0 0 1
471 423.054046630859375 150 0 0 1
257 148 0 0 0 -1
247 158 0 0 0 -1
231 158 0 0 0 -1
231 148 0 0 0 -1
257 148 150 0 0 1
247 158 150 0 0 1
231 158 150 0 0 1
231 148 150 0 0 1
247 158 0 0 0 -1
257 148 0 0 0 -1
257 252.882369995117188 0 0 0 -1
247 243.117630004882812 0 0 0 -1
247 158 150 0 0 1
257 148 150 0 0 1
257 252.882369995117188 150 0 0 1
247 243.117630004882812 150 0 0 1
653 436 0 0 0 -1
653 446 0 0 0 -1
631 446 0 0 0 -1
631 436 0 0 0 -1
653 436 150 0 0 1
653 446 150 0 0 1
631 446 150 0 0 1
631 436 150 0 0 1
354 409 0 0 0 -1
344 419 0 0 0 -1
335 419 0 0 0 -1
335 409 0 0 0 -1
354 409 150 0 0 1
344 419 150 0 0 1
335 419 150 0 0 1
335 409 150 0 0 1
301 409 0 0 0 -1
301 419 0 0 0 -1
282 419 0 0 0 -1
282 409 0 0 0 -1
301 409 150 0 0 1
301 419 150 0 0 1
282 419 150 0 0 1
282 409 150 0 0 1
481 28.9386520385742188 0 0 0 -1
471 39.0613479614257812 0 0 0 -1
435.06097412109375 39.4996299743652344 0 0 0 -1
434.93902587890625 29.5003719329833984 0 0 0 -1
481 28.9386520385742188 150 0 0 1
471 39.0613479614257812 150 0 0 1
435.06097412109375 39.4996299743652344 150 0 0 1
434.93902587890625 29.5003719329833984 150 0 0 1
686.54107666015625 378.7904052734375 0 0 0 -1
676.54986572265625 379.2095947265625 0 0 0 -1
675.999267578125 366.087158203125 0 0 0 -1
685.79461669921875 361 0 0 0 -1
686.54107666015625 378.7904052734375 150 0 0 1
676.54986572265625 379.2095947265625 150 0 0 1
675.999267578125 366.087158203125 150 0 0 1
685.79461669921875 361 150 0 0 1
685.9647216796875 371 0 0 0 -1
675.999267578125 366.087158203125 0 0 0 -1
676.54559326171875 288.964569091796875 0 0 0 -1
686.54534912109375 289.035430908203125 0 0 0 -1
685.9647216796875 371 150 0 0 1
675.999267578125 366.087158203125 150 0 0 1
676.54559326171875 288.964569091796875 150 0 0 1
686.54534912109375 289.035430908203125 150 0 0 1
430.054351806640625 433.49969482421875 0 0 0 -1
429.945648193359375 423.50030517578125 0 0 0 -1
471 423.054046630859375 0 0 0 -1
481 432.945953369140625 0 0 0 -1
430.054351806640625 433.49969482421875 150 0 0 1
429.945648193359375 423.50030517578125 150 0 0 1
471 423.054046630859375 150 0 0 1
481 432.945953369140625 150 0 0 1
289.10400390625 274.394256591796875 0 0 0 -1
288.89599609375 264.39642333984375 0 0 0 -1
313 263.894866943359375 0 0 0 -1
303 274.105133056640625 0 0 0 -1
289.10400390625 274.394256591796875 150 0 0 1
288.89599609375 264.39642333984375 150 0 0 1
313 263.894866943359375 150 0 0 1
303 274.105133056640625 150 0 0 1
303 274.105133056640625 0 0 0 -1
313 263.894866943359375 0 0 0 -1
313 315 0 0 0 -1
303 315 0 0 0 -1
303 274.105133056640625 150 0 0 1
313 263.894866943359375 150 0 0 1
313 315 150 0 0 1
303 315 150 0 0 1
247 243.117630004882812 0 0 0 -1
257 252.882369995117188 0 0 0 -1
231.1190185546875 253.498580932617188 0 0 0 -1
230.8809814453125 243.501419067382812 0 0 0 -1
247 243.117630004882812 150 0 0 1
257 252.882369995117188 150 0 0 1
231.1190185546875 253.498580932617188 150 0 0 1
230.8809814453125 243.501419067382812 150 0 0 1
508 221 0 0 0 -1
498 221 0 0 0 -1
498 183.097076416015625 0 0 0 -1
508 172.902923583984375 0 0 0 -1
508 221 150 0 0 1
498 221 150 0 0 1
498 183.097076416015625 150 0 0 1
508 172.902923583984375 150 0 0 1
508 172.902923583984375 0 0 0 -1
498 183.097076416015625 0 0 0 -1
477.09613037109375 183.499069213867188 0 0 0 -1
476.90386962890625 173.500930786132812 0 0 0 -1
508 172.902923583984375 150 0 0 1
498 183.097076416015625 150 0 0 1
477.09613037109375 183.499069213867188 150 0 0 1
476.90386962890625 173.500930786132812 150 0 0 1
203.87939453125 253 0 0 0 -1
194.12060546875 243 0 0 0 -1
194.514312744140625 226.8779296875 0 0 0 -1
204.511337280273438 227.1220703125 0 0 0 -1
203.87939453125 253 150 0 0 1
194.12060546875 243 150 0 0 1
194.514312744140625 226.8779296875 150 0 0 1
204.511337280273438 227.1220703125 150 0 0 1
548 446 0 0 0 -1
543 436 0 0 0 -1
538 446 0 0 0 -1
548 446 150 0 0 1
543 436 150 0 0 1
538 446 150 0 0 1
675.999267578125 366.087158203125 0 0 0 -1
685.9647216796875 371 0 0 0 -1
685.79461669921875 361 0 0 0 -1
675.999267578125 366.087158203125 150 0 0 1
685.9647216796875 371 150 0 0 1
685.79461669921875 361 150 0 0 1
4 0 1 2 3
4 4 5 6 7
4 8 9 10 11
4 12 13 14 15
4 16 17 18 19
4 20 21 22 23
4 24 25 26 27
4 28 29 30 31
4 32 33 34 35
4 36 37 38 39
4 40 41 42 43
4 44 45 46 47
4 48 49 50 51
4 52 53 54 55
4 56 57 58 59
4 60 61 62 63
4 64 65 66 67
4 68 69 70 71
4 72 73 74 75
4 76 77 78 79
4 80 81 82 83
4 84 85 86 87
4 88 89 90 91
4 92 93 94 95
4 96 97 98 99
4 100 101 102 103
4 104 105 106 107
4 108 109 110 111
4 112 113 114 115
4 116 117 118 119
4 120 121 122 123
4 124 125 126 127
4 128 129 130 131
4 132 133 134 135
4 136 137 138 139
4 140 141 142 143
4 144 145 146 147
4 148 149 150 151
4 152 153 154 155
4 156 157 158 159
4 160 161 162 163
4 164 165 166 167
4 168 169 170 171
4 172 173 174 175
4 176 177 178 179
4 180 181 182 183
4 184 185 186 187
4 188 189 190 191
4 192 193 194 195
4 196 197 198 199
4 200 201 202 203
4 204 205 206 207
4 208 209 210 211
4 212 213 214 215
4 216 217 218 219
4 220 221 222 223
4 224 225 226 227
4 228 229 230 231
4 232 233 234 235
4 236 237 238 239
4 240 241 242 243
4 244 245 246 247
4 248 249 250 251
4 252 253 254 255
4 256 257 258 259
4 260 261 262 263
4 264 265 266 267
4 268 269 270 271
4 272 273 274 275
4 276 277 278 279
4 280 281 282 283
4 284 285 286 287
4 288 289 290 291
4 292 293 294 295
4 296 297 298 299
4 300 301 302 303
4 304 305 306 307
4 308 309 310 311
4 312 313 314 315
4 316 317 318 319
4 320 321 322 323
4 324 325 326 327
4 328 329 330 331
4 332 333 334 335
4 336 337 338 339
4 340 341 342 343
4 344 345 346 347
4 348 349 350 351
4 352 353 354 355
4 356 357 358 359
4 360 361 362 363
4 364 365 366 367
4 368 369 370 371
4 372 373 374 375
4 376 377 378 379
4 380 381 382 383
4 384 385 386 387
4 388 389 390 391
4 392 393 394 395
4 396 397 398 399
4 400 401 402 403
4 404 405 406 407
4 408 409 410 411
4 412 413 414 415
4 416 417 418 419
4 420 421 422 423
4 424 425 426 427
4 428 429 430 431
4 432 433 434 435
4 436 437 438 439
4 440 441 442 443
4 444 445 446 447
4 448 449 450 451
4 452 453 454 455
4 456 457 458 459
4 460 461 462 463
4 464 465 466 467
4 468 469 470 471
4 472 473 474 475
4 476 477 478 479
4 480 481 482 483
4 484 485 486 487
4 488 489 490 491
4 492 493 494 495
4 496 497 498 499
4 500 501 502 503
4 504 505 506 507
4 508 509 510 511
4 512 513 514 515
4 516 517 518 519
4 520 521 522 523
4 524 525 526 527
4 528 529 530 531
4 532 533 534 535
4 536 537 538 539
4 540 541 542 543
4 544 545 546 547
4 548 549 550 551
4 552 553 554 555
4 556 557 558 559
4 560 561 562 563
4 564 565 566 567
4 568 569 570 571
4 572 573 574 575
4 576 577 578 579
4 580 581 582 583
4 584 585 586 587
4 588 589 590 591
4 592 593 594 595
4 596 597 598 599
4 600 601 602 603
4 604 605 606 607
4 608 609 610 611
4 612 613 614 615
4 616 617 618 619
4 620 621 622 623
4 624 625 626 627
4 628 629 630 631
4 632 633 634 635
4 636 637 638 639
4 640 641 642 643
4 644 645 646 647
4 648 649 650 651
4 652 653 654 655
4 656 657 658 659
4 660 661 662 663
4 664 665 666 667
4 668 669 670 671
4 672 673 674 675
4 676 677 678 679
4 680 681 682 683
4 684 685 686 687
4 688 689 690 691
4 692 693 694 695
4 696 697 698 699
4 700 701 702 703
4 704 705 706 707
4 708 709 710 711
4 712 713 714 715
4 716 717 718 719
4 720 721 722 723
4 724 725 726 727
4 728 729 730 731
4 732 733 734 735
4 736 737 738 739
4 740 741 742 743
4 744 745 746 747
4 748 749 750 751
4 752 753 754 755
4 756 757 758 759
4 760 761 762 763
4 764 765 766 767
4 768 769 770 771
4 772 773 774 775
4 776 777 778 779
4 780 781 782 783
4 784 785 786 787
4 788 789 790 791
4 792 793 794 795
4 796 797 798 799
4 800 801 802 803
4 804 805 806 807
4 808 809 810 811
4 812 813 814 815
4 816 817 818 819
4 820 821 822 823
4 824 825 826 827
4 828 829 830 831
4 832 833 834 835
4 836 837 838 839
4 840 841 842 843
4 844 845 846 847
4 848 849 850 851
4 852 853 854 855
4 856 857 858 859
4 860 861 862 863
4 864 865 866 867
4 868 869 870 871
4 872 873 874 875
4 876 877 878 879
4 880 881 882 883
4 884 885 886 887
4 888 889 890 891
4 892 893 894 895
4 896 897 898 899
4 900 901 902 903
4 904 905 906 907
4 908 909 910 911
4 912 913 914 915
4 916 917 918 919
4 920 921 922 923
4 924 925 926 927
4 928 929 930 931
4 932 933 934 935
4 936 937 938 939
4 940 941 942 943
4 944 945 946 947
4 948 949 950 951
4 952 953 954 955
4 956 957 958 959
4 960 961 962 963
4 964 965 966 967
4 968 969 970 971
4 972 973 974 975
4 976 977 978 979
4 980 981 982 983
4 984 985 986 987
4 988 989 990 991
4 992 993 994 995
4 996 997 998 999
4 1000 1001 1002 1003
4 1004 1005 1006 1007
4 1008 1009 1010 1011
4 1012 1013 1014 1015
4 1016 1017 1018 1019
4 1020 1021 1022 1023
4 1024 1025 1026 1027
4 1028 1029 1030 1031
4 1032 1033 1034 1035
4 1036 1037 1038 1039
4 1040 1041 1042 1043
4 1044 1045 1046 1047
4 1048 1049 1050 1051
4 1052 1053 1054 1055
4 1056 1057 1058 1059
4 1060 1061 1062 1063
4 1064 1065 1066 1067
4 1068 1069 1070 1071
4 1072 1073 1074 1075
4 1076 1077 1078 1079
4 1080 1081 1082 1083
4 1084 1085 1086 1087
4 1088 1089 1090 1091
4 1092 1093 1094 1095
4 1096 1097 1098 1099
4 1100 1101 1102 1103
4 1104 1105 1106 1107
4 1108 1109 1110 1111
4 1112 1113 1114 1115
4 1116 1117 1118 1119
4 1120 1121 1122 1123
4 1124 1125 1126 1127
4 1128 1129 1130 1131
4 1132 1133 1134 1135
4 1136 1137 1138 1139
4 1140 1141 1142 1143
4 1144 1145 1146 1147
4 1148 1149 1150 1151
4 1152 1153 1154 1155
4 1156 1157 1158 1159
4 1160 1161 1162 1163
4 1164 1165 1166 1167
4 1168 1169 1170 1171
3 1172 1173 1174
3 1175 1176 1177
3 1178 1179 1180
3 1181 1182 1183
