ply
format ascii 1.0
element vertex 392
property float x
property float y
property float z
property float nx
property float ny
property float nz
element quads 98
property list uchar int vertex_indices
end_header
402 338 0 -0 -1 0
362 338 0 -0 -1 0
362 338 100 -0 -1 0
402 338 100 -0 -1 0
408 344 0 0 1 0
356 344 0 0 1 0
356 344 100 0 1 0
408 344 100 0 1 0
408 344 0 1 0 0
408 318 0 1 0 0
408 318 100 1 0 0
408 344 100 1 0 0
402 338 0 -1 -0 0
402 318 0 -1 -0 0
402 318 100 -1 -0 0
402 338 100 -1 -0 0
362 338 0 1 0 0
362 324 0 1 0 0
362 324 100 1 0 0
362 338 100 1 0 0
356 344 0 -1 -0 0
356 324 0 -1 -0 0
356 324 100 -1 -0 0
356 344 100 -1 -0 0
491 280 0 1 0 0
491 229.242645263671875 0 1 0 0
491 229.242645263671875 100 1 0 0
491 280 100 1 0 0
485 280 0 -1 -0 0
485 226.757354736328125 0 -1 -0 0
485 226.757354736328125 100 -1 -0 0
485 280 100 -1 -0 0
491 229.242645263671875 0 0.70710676908493042 0.70710676908493042 0
509.242645263671875 211 0 0.70710676908493042 0.70710676908493042 0
509.242645263671875 211 100 0.70710676908493042 0.70710676908493042 0
491 229.242645263671875 100 0.70710676908493042 0.70710676908493042 0
485 226.757354736328125 0 -0.70710676908493042 -0.70710676908493042 0
506.757354736328125 205 0 -0.70710676908493042 -0.70710676908493042 0
506.757354736328125 205 100 -0.70710676908493042 -0.70710676908493042 0
485 226.757354736328125 100 -0.70710676908493042 -0.70710676908493042 0
397 84.1014022827148438 0 -0 -1 0
356 84.1014022827148438 0 -0 -1 0
356 84.1014022827148438 100 -0 -1 0
397 84.1014022827148438 100 -0 -1 0
397 90.1014022827148438 0 0 1 0
356 90.1014022827148438 0 0 1 0
356 90.1014022827148438 100 0 1 0
397 90.1014022827148438 100 0 1 0
433 408 0 -0 -1 0
387 408 0 -0 -1 0
387 408 100 -0 -1 0
433 408 100 -0 -1 0
433 414 0 0 1 0
387 414 0 0 1 0
387 414 100 0 1 0
433 414 100 0 1 0
549 205 0 -0 -1 0
506.757354736328125 205 0 -0 -1 0
506.757354736328125 205 100 -0 -1 0
549 205 100 -0 -1 0
549 211 0 0 1 0
509.242645263671875 211 0 0 1 0
509.242645263671875 211 100 0 1 0
549 211 100 0 1 0
401 99.6666641235351562 0 -0 -1 0
391 99.6666641235351562 0 -0 -1 0
391 99.6666641235351562 100 -0 -1 0
401 99.6666641235351562 100 -0 -1 0
401 105.666664123535156 0 0 1 0
391 105.666664123535156 0 0 1 0
391 105.666664123535156 100 0 1 0
401 105.666664123535156 100 0 1 0
363 99.6666641235351562 0 -0 -1 0
352 99.6666641235351562 0 -0 -1 0
352 99.6666641235351562 100 -0 -1 0
363 99.6666641235351562 100 -0 -1 0
363 105.666664123535156 0 0 1 0
352 105.666664123535156 0 0 1 0
352 105.666664123535156 100 0 1 0
363 105.666664123535156 100 0 1 0
645.44830322265625 142 0 1 0 0
645.44830322265625 126 0 1 0 0
645.44830322265625 126 100 1 0 0
645.44830322265625 142 100 1 0 0
639.44830322265625 142 0 -1 -0 0
639.44830322265625 126 0 -1 -0 0
639.44830322265625 126 100 -1 -0 0
639.44830322265625 142 100 -1 -0 0
392 460.463409423828125 0 -0 -1 0
380 460.463409423828125 0 -0 -1 0
380 460.463409423828125 100 -0 -1 0
392 460.463409423828125 100 -0 -1 0
392 466.463409423828125 0 0 1 0
380 466.463409423828125 0 0 1 0
380 466.463409423828125 100 0 1 0
392 466.463409423828125 100 0 1 0
641 460.463409423828125 0 -0 -1 0
627 460.463409423828125 0 -0 -1 0
627 460.463409423828125 100 -0 -1 0
641 460.463409423828125 100 -0 -1 0
641 466.463409423828125 0 0 1 0
627 466.463409423828125 0 0 1 0
627 466.463409423828125 100 0 1 0
641 466.463409423828125 100 0 1 0
368 373 0 -0 -1 0
352 373 0 -0 -1 0
352 373 100 -0 -1 0
368 373 100 -0 -1 0
368 379 0 0 1 0
352 379 0 0 1 0
352 379 100 0 1 0
368 379 100 0 1 0
436.434783935546875 322 0 1 0 0
436.434783935546875 312 0 1 0 0
436.434783935546875 312 100 1 0 0
436.434783935546875 322 100 1 0 0
430.434783935546875 322 0 -1 -0 0
430.434783935546875 312 0 -1 -0 0
430.434783935546875 312 100 -1 -0 0
430.434783935546875 322 100 -1 -0 0
225 319 0 1 0 0
225 307 0 1 0 0
225 307 100 1 0 0
225 319 100 1 0 0
219 319 0 -1 -0 0
219 307 0 -1 -0 0
219 307 100 -1 -0 0
219 319 100 -1 -0 0
450 460 0 -0 -1 0
436.90191650390625 460 0 -0 -1 0
436.90191650390625 460 100 -0 -1 0
450 460 100 -0 -1 0
450 466 0 0 1 0
431.09808349609375 466 0 0 1 0
431.09808349609375 466 100 0 1 0
450 466 100 0 1 0
436.90191650390625 460 0 0.999447762966156006 -0.0332297198474407196 0
436.433135986328125 445.900299072265625 0 0.999447762966156006 -0.0332297198474407196 0
436.433135986328125 445.900299072265625 100 0.999447762966156006 -0.0332297198474407196 0
436.90191650390625 460 100 0.999447762966156006 -0.0332297198474407196 0
431.09808349609375 466 0 -0.999447762966156006 0.0332297198474407196 0
430.436431884765625 446.099700927734375 0 -0.999447762966156006 0.0332297198474407196 0
430.436431884765625 446.099700927734375 100 -0.999447762966156006 0.0332297198474407196 0
431.09808349609375 466 100 -0.999447762966156006 0.0332297198474407196 0
491 280 0 481.3265380859375 275.483551025390625 0
485 280 0 481.3265380859375 275.483551025390625 0
485 280 100 481.3265380859375 275.483551025390625 0
491 280 100 481.3265380859375 275.483551025390625 0
397 84.1014022827148438 0 388.31707763671875 82.0501480102539062 0
397 90.1014022827148438 0 388.31707763671875 82.0501480102539062 0
397 90.1014022827148438 100 388.31707763671875 82.0501480102539062 0
397 84.1014022827148438 100 388.31707763671875 82.0501480102539062 0
356 84.1014022827148438 0 346.31707763671875 82.0501480102539062 0
356 90.1014022827148438 0 346.31707763671875 82.0501480102539062 0
356 90.1014022827148438 100 346.31707763671875 82.0501480102539062 0
356 84.1014022827148438 100 346.31707763671875 82.0501480102539062 0
362 324 0 336.142852783203125 299.857147216796875 0
356 324 0 336.142852783203125 299.857147216796875 0
356 324 100 336.142852783203125 299.857147216796875 0
362 324 100 336.142852783203125 299.857147216796875 0
433 408 0 424.586944580078125 399.13043212890625 0
433 414 0 424.586944580078125 399.13043212890625 0
433 414 100 424.586944580078125 399.13043212890625 0
433 408 100 424.586944580078125 399.13043212890625 0
387 408 0 377.586944580078125 399.13043212890625 0
387 414 0 377.586944580078125 399.13043212890625 0
387 414 100 377.586944580078125 399.13043212890625 0
387 408 100 377.586944580078125 399.13043212890625 0
549 205 0 537.003662109375 200.147079467773438 0
549 211 0 537.003662109375 200.147079467773438 0
549 211 100 537.003662109375 200.147079467773438 0
549 205 100 537.003662109375 200.147079467773438 0
401 99.6666641235351562 0 361.899993896484375 89.6999969482421875 0
401 105.666664123535156 0 361.899993896484375 89.6999969482421875 0
401 105.666664123535156 100 361.899993896484375 89.6999969482421875 0
401 99.6666641235351562 100 361.899993896484375 89.6999969482421875 0
391 99.6666641235351562 0 350.899993896484375 89.6999969482421875 0
391 105.666664123535156 0 350.899993896484375 89.6999969482421875 0
391 105.666664123535156 100 350.899993896484375 89.6999969482421875 0
391 99.6666641235351562 100 350.899993896484375 89.6999969482421875 0
363 99.6666641235351562 0 331 90.6060638427734375 0
363 105.666664123535156 0 331 90.6060638427734375 0
363 105.666664123535156 100 331 90.6060638427734375 0
363 99.6666641235351562 100 331 90.6060638427734375 0
352 99.6666641235351562 0 319 90.6060638427734375 0
352 105.666664123535156 0 319 90.6060638427734375 0
352 105.666664123535156 100 319 90.6060638427734375 0
352 99.6666641235351562 100 319 90.6060638427734375 0
645.44830322265625 142 0 605.1077880859375 134.125 0
639.44830322265625 142 0 605.1077880859375 134.125 0
639.44830322265625 142 100 605.1077880859375 134.125 0
645.44830322265625 142 100 605.1077880859375 134.125 0
645.44830322265625 126 0 605.1077880859375 117.125 0
639.44830322265625 126 0 605.1077880859375 117.125 0
639.44830322265625 126 100 605.1077880859375 117.125 0
645.44830322265625 126 100 605.1077880859375 117.125 0
392 460.463409423828125 0 360.333343505859375 422.091461181640625 0
392 466.463409423828125 0 360.333343505859375 422.091461181640625 0
392 466.463409423828125 100 360.333343505859375 422.091461181640625 0
392 460.463409423828125 100 360.333343505859375 422.091461181640625 0
380 460.463409423828125 0 347.333343505859375 422.091461181640625 0
380 466.463409423828125 0 347.333343505859375 422.091461181640625 0
380 466.463409423828125 100 347.333343505859375 422.091461181640625 0
380 460.463409423828125 100 347.333343505859375 422.091461181640625 0
641 460.463409423828125 0 596.21429443359375 427.57318115234375 0
641 466.463409423828125 0 596.21429443359375 427.57318115234375 0
641 466.463409423828125 100 596.21429443359375 427.57318115234375 0
641 460.463409423828125 100 596.21429443359375 427.57318115234375 0
627 460.463409423828125 0 581.21429443359375 427.57318115234375 0
627 466.463409423828125 0 581.21429443359375 427.57318115234375 0
627 466.463409423828125 100 581.21429443359375 427.57318115234375 0
627 460.463409423828125 100 581.21429443359375 427.57318115234375 0
368 373 0 346 349.6875 0
368 379 0 346 349.6875 0
368 379 100 346 349.6875 0
368 373 100 346 349.6875 0
352 373 0 329 349.6875 0
352 379 0 329 349.6875 0
352 379 100 329 349.6875 0
352 373 100 329 349.6875 0
408 318 0 392.30767822265625 304.76922607421875 0
402 318 0 392.30767822265625 304.76922607421875 0
402 318 100 392.30767822265625 304.76922607421875 0
408 318 100 392.30767822265625 304.76922607421875 0
436.434783935546875 322 0 392.791290283203125 290.79998779296875 0
430.434783935546875 322 0 392.791290283203125 290.79998779296875 0
430.434783935546875 322 100 392.791290283203125 290.79998779296875 0
436.434783935546875 322 100 392.791290283203125 290.79998779296875 0
436.434783935546875 312 0 392.791290283203125 279.79998779296875 0
430.434783935546875 312 0 392.791290283203125 279.79998779296875 0
430.434783935546875 312 100 392.791290283203125 279.79998779296875 0
436.434783935546875 312 100 392.791290283203125 279.79998779296875 0
225 319 0 206.25 293.416656494140625 0
219 319 0 206.25 293.416656494140625 0
219 319 100 206.25 293.416656494140625 0
225 319 100 206.25 293.416656494140625 0
225 307 0 206.25 280.416656494140625 0
219 307 0 206.25 280.416656494140625 0
219 307 100 206.25 280.416656494140625 0
225 307 100 206.25 280.416656494140625 0
450 460 0 416.643829345703125 424.88037109375 0
450 466 0 416.643829345703125 424.88037109375 0
450 466 100 416.643829345703125 424.88037109375 0
450 460 100 416.643829345703125 424.88037109375 0
436.433135986328125 445.900299072265625 0 405.463592529296875 413.293487548828125 0
430.436431884765625 446.099700927734375 0 405.463592529296875 413.293487548828125 0
430.436431884765625 446.099700927734375 100 405.463592529296875 413.293487548828125 0
436.433135986328125 445.900299072265625 100 405.463592529296875 413.293487548828125 0
402 338 0 0 0 -1
408 344 0 0 0 -1
356 344 0 0 0 -1
362 338 0 0 0 -1
402 338 100 0 0 1
408 344 100 0 0 1
356 344 100 0 0 1
362 338 100 0 0 1
408 344 0 0 0 -1
402 338 0 0 0 -1
402 318 0 0 0 -1
408 318 0 0 0 -1
408 344 100 0 0 1
402 338 100 0 0 1
402 318 100 0 0 1
408 318 100 0 0 1
362 338 0 0 0 -1
356 344 0 0 0 -1
356 324 0 0 0 -1
362 324 0 0 0 -1
362 338 100 0 0 1
356 344 100 0 0 1
356 324 100 0 0 1
362 324 100 0 0 1
491 280 0 0 0 -1
485 280 0 0 0 -1
485 226.757354736328125 0 0 0 -1
491 229.242645263671875 0 0 0 -1
491 280 100 0 0 1
485 280 100 0 0 1
485 226.757354736328125 100 0 0 1
491 229.242645263671875 100 0 0 1
491 229.242645263671875 0 0 0 -1
485 226.757354736328125 0 0 0 -1
506.757354736328125 205 0 0 0 -1
509.242645263671875 211 0 0 0 -1
491 229.242645263671875 100 0 0 1
485 226.757354736328125 100 0 0 1
506.757354736328125 205 100 0 0 1
509.242645263671875 211 100 0 0 1
397 84.1014022827148438 0 0 0 -1
397 90.1014022827148438 0 0 0 -1
356 90.1014022827148438 0 0 0 -1
356 84.1014022827148438 0 0 0 -1
397 84.1014022827148438 100 0 0 1
397 90.1014022827148438 100 0 0 1
356 90.1014022827148438 100 0 0 1
356 84.1014022827148438 100 0 0 1
433 408 0 0 0 -1
433 414 0 0 0 -1
387 414 0 0 0 -1
387 408 0 0 0 -1
433 408 100 0 0 1
433 414 100 0 0 1
387 414 100 0 0 1
387 408 100 0 0 1
549 205 0 0 0 -1
549 211 0 0 0 -1
509.242645263671875 211 0 0 0 -1
506.757354736328125 205 0 0 0 -1
549 205 100 0 0 1
549 211 100 0 0 1
509.242645263671875 211 100 0 0 1
506.757354736328125 205 100 0 0 1
401 99.6666641235351562 0 0 0 -1
401 105.666664123535156 0 0 0 -1
391 105.666664123535156 0 0 0 -1
391 99.6666641235351562 0 0 0 -1
401 99.6666641235351562 100 0 0 1
401 105.666664123535156 100 0 0 1
391 105.666664123535156 100 0 0 1
391 99.6666641235351562 100 0 0 1
363 99.6666641235351562 0 0 0 -1
363 105.666664123535156 0 0 0 -1
352 105.666664123535156 0 0 0 -1
352 99.6666641235351562 0 0 0 -1
363 99.6666641235351562 100 0 0 1
363 105.666664123535156 100 0 0 1
352 105.666664123535156 100 0 0 1
352 99.6666641235351562 100 0 0 1
645.44830322265625 142 0 0 0 -1
639.44830322265625 142 0 0 0 -1
639.44830322265625 126 0 0 0 -1
645.44830322265625 126 0 0 0 -1
645.44830322265625 142 100 0 0 1
639.44830322265625 142 100 0 0 1
639.44830322265625 126 100 0 0 1
645.44830322265625 126 100 0 0 1
392 460.463409423828125 0 0 0 -1
392 466.463409423828125 0 0 0 -1
380 466.463409423828125 0 0 0 -1
380 460.463409423828125 0 0 0 -1
392 460.463409423828125 100 0 0 1
392 466.463409423828125 100 0 0 1
380 466.463409423828125 100 0 0 1
380 460.463409423828125 100 0 0 1
641 460.463409423828125 0 0 0 -1
641 466.463409423828125 0 0 0 -1
627 466.463409423828125 0 0 0 -1
627 460.463409423828125 0 0 0 -1
641 460.463409423828125 100 0 0 1
641 466.463409423828125 100 0 0 1
627 466.463409423828125 100 0 0 1
627 460.463409423828125 100 0 0 1
368 373 0 0 0 -1
368 379 0 0 0 -1
352 379 0 0 0 -1
352 373 0 0 0 -1
368 373 100 0 0 1
368 379 100 0 0 1
352 379 100 0 0 1
352 373 100 0 0 1
436.434783935546875 322 0 0 0 -1
430.434783935546875 322 0 0 0 -1
430.434783935546875 312 0 0 0 -1
436.434783935546875 312 0 0 0 -1
436.434783935546875 322 100 0 0 1
430.434783935546875 322 100 0 0 1
430.434783935546875 312 100 0 0 1
436.434783935546875 312 100 0 0 1
225 319 0 0 0 -1
219 319 0 0 0 -1
219 307 0 0 0 -1
225 307 0 0 0 -1
225 319 100 0 0 1
219 319 100 0 0 1
219 307 100 0 0 1
225 307 100 0 0 1
450 460 0 0 0 -1
450 466 0 0 0 -1
431.09808349609375 466 0 0 0 -1
436.90191650390625 460 0 0 0 -1
450 460 100 0 0 1
450 466 100 0 0 1
431.09808349609375 466 100 0 0 1
436.90191650390625 460 100 0 0 1
436.90191650390625 460 0 0 0 -1
431.09808349609375 466 0 0 0 -1
430.436431884765625 446.099700927734375 0 0 0 -1
436.433135986328125 445.900299072265625 0 0 0 -1
436.90191650390625 460 100 0 0 1
431.09808349609375 466 100 0 0 1
430.436431884765625 446.099700927734375 100 0 0 1
436.433135986328125 445.900299072265625 100 0 0 1
4 0 1 2 3
4 4 5 6 7
4 8 9 10 11
4 12 13 14 15
4 16 17 18 19
4 20 21 22 23
4 24 25 26 27
4 28 29 30 31
4 32 33 34 35
4 36 37 38 39
4 40 41 42 43
4 44 45 46 47
4 48 49 50 51
4 52 53 54 55
4 56 57 58 59
4 60 61 62 63
4 64 65 66 67
4 68 69 70 71
4 72 73 74 75
4 76 77 78 79
4 80 81 82 83
4 84 85 86 87
4 88 89 90 91
4 92 93 94 95
4 96 97 98 99
4 100 101 102 103
4 104 105 106 107
4 108 109 110 111
4 112 113 114 115
4 116 117 118 119
4 120 121 122 123
4 124 125 126 127
4 128 129 130 131
4 132 133 134 135
4 136 137 138 139
4 140 141 142 143
4 144 145 146 147
4 148 149 150 151
4 152 153 154 155
4 156 157 158 159
4 160 161 162 163
4 164 165 166 167
4 168 169 170 171
4 172 173 174 175
4 176 177 178 179
4 180 181 182 183
4 184 185 186 187
4 188 189 190 191
4 192 193 194 195
4 196 197 198 199
4 200 201 202 203
4 204 205 206 207
4 208 209 210 211
4 212 213 214 215
4 216 217 218 219
4 220 221 222 223
4 224 225 226 227
4 228 229 230 231
4 232 233 234 235
4 236 237 238 239
4 240 241 242 243
4 244 245 246 247
4 248 249 250 251
4 252 253 254 255
4 256 257 258 259
4 260 261 262 263
4 264 265 266 267
4 268 269 270 271
4 272 273 274 275
4 276 277 278 279
4 280 281 282 283
4 284 285 286 287
4 288 289 290 291
4 292 293 294 295
4 296 297 298 299
4 300 301 302 303
4 304 305 306 307
4 308 309 310 311
4 312 313 314 315
4 316 317 318 319
4 320 321 322 323
4 324 325 326 327
4 328 329 330 331
4 332 333 334 335
4 336 337 338 339
4 340 341 342 343
4 344 345 346 347
4 348 349 350 351
4 352 353 354 355
4 356 357 358 359
4 360 361 362 363
4 364 365 366 367
4 368 369 370 371
4 372 373 374 375
4 376 377 378 379
4 380 381 382 383
4 384 385 386 387
4 388 389 390 391
