ply
format ascii 1.0
element vertex 808
property float x
property float y
property float z
property float nx
property float ny
property float nz
element quads 202
property list uchar int vertex_indices
end_header
680.251953125 239 0 1 0 0
680.251953125 116 0 1 0 0
680.251953125 116 100 1 0 0
680.251953125 239 100 1 0 0
674.251953125 239 0 -1 -0 0
674.251953125 116 0 -1 -0 0
674.251953125 116 100 -1 -0 0
674.251953125 239 100 -1 -0 0
540.4896240234375 246 0 1 0 0
540.4896240234375 173 0 1 0 0
540.4896240234375 173 100 1 0 0
540.4896240234375 246 100 1 0 0
534.4896240234375 246 0 -1 -0 0
534.4896240234375 173 0 -1 -0 0
534.4896240234375 173 100 -1 -0 0
534.4896240234375 246 100 -1 -0 0
540 546 0 1 0 0
540 454 0 1 0 0
540 454 100 1 0 0
540 546 100 1 0 0
534 552 0 -1 -0 0
534 454 0 -1 -0 0
534 454 100 -1 -0 0
534 552 100 -1 -0 0
534 552 0 -0 1 0
679.99737548828125 552 0 -0 1 0
679.99737548828125 552 100 -0 1 0
534 552 100 -0 1 0
540 546 0 0 -1 0
674.00262451171875 546 0 0 -1 0
674.00262451171875 546 100 0 -1 0
540 546 100 0 -1 0
540.4896240234375 28 0 1 0 0
540.4896240234375 9 0 1 0 0
540.4896240234375 9 100 1 0 0
540.4896240234375 28 100 1 0 0
534.4896240234375 28 0 -1 -0 0
534.4896240234375 9 0 -1 -0 0
534.4896240234375 9 100 -1 -0 0
534.4896240234375 28 100 -1 -0 0
540.4896240234375 84 0 1 0 0
540.4896240234375 64 0 1 0 0
540.4896240234375 64 100 1 0 0
540.4896240234375 84 100 1 0 0
534.4896240234375 84 0 -1 -0 0
534.4896240234375 64 0 -1 -0 0
534.4896240234375 64 100 -1 -0 0
534.4896240234375 84 100 -1 -0 0
541 127 0 1 0 0
541 89 0 1 0 0
541 89 100 1 0 0
541 127 100 1 0 0
535 127 0 -1 -0 0
535 83 0 -1 -0 0
535 83 100 -1 -0 0
535 127 100 -1 -0 0
541 89 0 -0 1 0
575 89 0 -0 1 0
575 89 100 -0 1 0
541 89 100 -0 1 0
535 83 0 0 -1 0
575 83 0 0 -1 0
575 83 100 0 -1 0
535 83 100 0 -1 0
154.685195922851562 431 0 1 0 0
154.685195922851562 232 0 1 0 0
154.685195922851562 232 100 1 0 0
154.685195922851562 431 100 1 0 0
148.685195922851562 431 0 -1 -0 0
148.685195922851562 232 0 -1 -0 0
148.685195922851562 232 100 -1 -0 0
148.685195922851562 431 100 -1 -0 0
154.685195922851562 186 0 1 0 0
154.685195922851562 128 0 1 0 0
154.685195922851562 128 100 1 0 0
154.685195922851562 186 100 1 0 0
148.685195922851562 186 0 -1 -0 0
148.685195922851562 128 0 -1 -0 0
148.685195922851562 128 100 -1 -0 0
148.685195922851562 186 100 -1 -0 0
154.685195922851562 127 0 1 0 0
154.685195922851562 3 0 1 0 0
154.685195922851562 3 100 1 0 0
154.685195922851562 127 100 1 0 0
148.685195922851562 127 0 -1 -0 0
148.685195922851562 3 0 -1 -0 0
148.685195922851562 3 100 -1 -0 0
148.685195922851562 127 100 -1 -0 0
357 519 0 1 0 0
357 428 0 1 0 0
357 428 100 1 0 0
357 519 100 1 0 0
351 525 0 -1 -0 0
351 434 0 -1 -0 0
351 434 100 -1 -0 0
351 525 100 -1 -0 0
351 525 0 -0 1 0
474 525 0 -0 1 0
474 525 100 -0 1 0
351 525 100 -0 1 0
357 519 0 0 -1 0
468 519 0 0 -1 0
468 519 100 0 -1 0
357 519 100 0 -1 0
357 428 0 -0 -1 0
152 428 0 -0 -1 0
152 428 100 -0 -1 0
357 428 100 -0 -1 0
351 434 0 0 1 0
152 434 0 0 1 0
152 434 100 0 1 0
351 434 100 0 1 0
474 525 0 1 0 0
474 456 0 1 0 0
474 456 100 1 0 0
474 525 100 1 0 0
468 519 0 -1 -0 0
468 450 0 -1 -0 0
468 450 100 -1 -0 0
468 519 100 -1 -0 0
474 456 0 -0 1 0
537 456 0 -0 1 0
537 456 100 -0 1 0
474 456 100 -0 1 0
468 450 0 0 -1 0
537 450 0 0 -1 0
537 450 100 0 -1 0
468 450 100 0 -1 0
528.4195556640625 193 0 1 0 0
528.4195556640625 175 0 1 0 0
528.4195556640625 175 100 1 0 0
528.4195556640625 193 100 1 0 0
522.4195556640625 193 0 -1 -0 0
522.4195556640625 175 0 -1 -0 0
522.4195556640625 175 100 -1 -0 0
522.4195556640625 193 100 -1 -0 0
528.4195556640625 244 0 1 0 0
528.4195556640625 225 0 1 0 0
528.4195556640625 225 100 1 0 0
528.4195556640625 244 100 1 0 0
522.4195556640625 244 0 -1 -0 0
522.4195556640625 225 0 -1 -0 0
522.4195556640625 225 100 -1 -0 0
522.4195556640625 244 100 -1 -0 0
528.4195556640625 84 0 1 0 0
528.4195556640625 65 0 1 0 0
528.4195556640625 65 100 1 0 0
528.4195556640625 84 100 1 0 0
522.4195556640625 84 0 -1 -0 0
522.4195556640625 65 0 -1 -0 0
522.4195556640625 65 100 -1 -0 0
522.4195556640625 84 100 -1 -0 0
368 124.490257263183594 0 -0 -1 0
316 124.490257263183594 0 -0 -1 0
316 124.490257263183594 100 -0 -1 0
368 124.490257263183594 100 -0 -1 0
368 130.490264892578125 0 0 1 0
316 130.490264892578125 0 0 1 0
316 130.490264892578125 100 0 1 0
368 130.490264892578125 100 0 1 0
525 124.490257263183594 0 -0 -1 0
505 124.490257263183594 0 -0 -1 0
505 124.490257263183594 100 -0 -1 0
525 124.490257263183594 100 -0 -1 0
525 130.490264892578125 0 0 1 0
505 130.490264892578125 0 0 1 0
505 130.490264892578125 100 0 1 0
525 130.490264892578125 100 0 1 0
447 124.490257263183594 0 -0 -1 0
423 124.490257263183594 0 -0 -1 0
423 124.490257263183594 100 -0 -1 0
447 124.490257263183594 100 -0 -1 0
447 130.490264892578125 0 0 1 0
423 130.490264892578125 0 0 1 0
423 130.490264892578125 100 0 1 0
447 130.490264892578125 100 0 1 0
537 124 0 -0 -1 0
525 124 0 -0 -1 0
525 124 100 -0 -1 0
537 124 100 -0 -1 0
537 130 0 0 1 0
525 130 0 0 1 0
525 130 100 0 1 0
537 130 100 0 1 0
179 124 0 -0 -1 0
152 124 0 -0 -1 0
152 124 100 -0 -1 0
179 124 100 -0 -1 0
179 130 0 0 1 0
152 130 0 0 1 0
152 130 100 0 1 0
179 130 100 0 1 0
258 124.490257263183594 0 -0 -1 0
235 124.490257263183594 0 -0 -1 0
235 124.490257263183594 100 -0 -1 0
258 124.490257263183594 100 -0 -1 0
258 130.490264892578125 0 0 1 0
235 130.490264892578125 0 0 1 0
235 130.490264892578125 100 0 1 0
258 130.490264892578125 100 0 1 0
352 7.59363079071044922 0 -0 -1 0
318 7.59363079071044922 0 -0 -1 0
318 7.59363079071044922 100 -0 -1 0
352 7.59363079071044922 100 -0 -1 0
352 13.5936307907104492 0 0 1 0
318 13.5936307907104492 0 0 1 0
318 13.5936307907104492 100 0 1 0
352 13.5936307907104492 100 0 1 0
257 7.59363079071044922 0 -0 -1 0
237 7.59363079071044922 0 -0 -1 0
237 7.59363079071044922 100 -0 -1 0
257 7.59363079071044922 100 -0 -1 0
257 13.5936307907104492 0 0 1 0
237 13.5936307907104492 0 0 1 0
237 13.5936307907104492 100 0 1 0
257 13.5936307907104492 100 0 1 0
449 7.59363079071044922 0 -0 -1 0
429 7.59363079071044922 0 -0 -1 0
429 7.59363079071044922 100 -0 -1 0
449 7.59363079071044922 100 -0 -1 0
449 13.5936307907104492 0 0 1 0
429 13.5936307907104492 0 0 1 0
429 13.5936307907104492 100 0 1 0
449 13.5936307907104492 100 0 1 0
677 82.5036468505859375 0 -0 -1 0
642 82.5036468505859375 0 -0 -1 0
642 82.5036468505859375 100 -0 -1 0
677 82.5036468505859375 100 -0 -1 0
677 88.5036468505859375 0 0 1 0
642 88.5036468505859375 0 0 1 0
642 88.5036468505859375 100 0 1 0
677 88.5036468505859375 100 0 1 0
439 289.725921630859375 0 -0 -1 0
412 289.725921630859375 0 -0 -1 0
412 289.725921630859375 100 -0 -1 0
439 289.725921630859375 100 -0 -1 0
439 295.725921630859375 0 0 1 0
412 295.725921630859375 0 0 1 0
412 295.725921630859375 100 0 1 0
439 295.725921630859375 100 0 1 0
532 289.725921630859375 0 -0 -1 0
521 289.725921630859375 0 -0 -1 0
521 289.725921630859375 100 -0 -1 0
532 289.725921630859375 100 -0 -1 0
532 295.725921630859375 0 0 1 0
521 295.725921630859375 0 0 1 0
521 295.725921630859375 100 0 1 0
532 295.725921630859375 100 0 1 0
541 324.29058837890625 0 -0 -1 0
519 324.29058837890625 0 -0 -1 0
519 324.29058837890625 100 -0 -1 0
541 324.29058837890625 100 -0 -1 0
541 330.29058837890625 0 0 1 0
519 330.29058837890625 0 0 1 0
519 330.29058837890625 100 0 1 0
541 330.29058837890625 100 0 1 0
620 324.29058837890625 0 -0 -1 0
607 324.29058837890625 0 -0 -1 0
607 324.29058837890625 100 -0 -1 0
620 324.29058837890625 100 -0 -1 0
620 330.29058837890625 0 0 1 0
607 330.29058837890625 0 0 1 0
607 330.29058837890625 100 0 1 0
620 330.29058837890625 100 0 1 0
164.938461303710938 47 0 1 0 0
164.938461303710938 35 0 1 0 0
164.938461303710938 35 100 1 0 0
164.938461303710938 47 100 1 0 0
158.938461303710938 47 0 -1 -0 0
158.938461303710938 35 0 -1 -0 0
158.938461303710938 35 100 -1 -0 0
158.938461303710938 47 100 -1 -0 0
164.938461303710938 89 0 1 0 0
164.938461303710938 77 0 1 0 0
164.938461303710938 77 100 1 0 0
164.938461303710938 89 100 1 0 0
158.938461303710938 89 0 -1 -0 0
158.938461303710938 77 0 -1 -0 0
158.938461303710938 77 100 -1 -0 0
158.938461303710938 89 100 -1 -0 0
674.251953125 259.99737548828125 0 -0.999999642372131348 -0.000871812924742698669 0
674.00262451171875 546 0 -0.999999642372131348 -0.000871812924742698669 0
674.00262451171875 546 100 -0.999999642372131348 -0.000871812924742698669 0
674.251953125 259.99737548828125 100 -0.999999642372131348 -0.000871812924742698669 0
680.251953125 260.00262451171875 0 0.999999642372131348 0.000871812924742698669 0
679.99737548828125 552 0 0.999999642372131348 0.000871812924742698669 0
679.99737548828125 552 100 0.999999642372131348 0.000871812924742698669 0
680.251953125 260.00262451171875 100 0.999999642372131348 0.000871812924742698669 0
680.251953125 239 0 674.721435546875 238.056915283203125 0
674.251953125 239 0 674.721435546875 238.056915283203125 0
674.251953125 239 100 674.721435546875 238.056915283203125 0
680.251953125 239 100 674.721435546875 238.056915283203125 0
680.251953125 116 0 674.721435546875 114.056907653808594 0
674.251953125 116 0 674.721435546875 114.056907653808594 0
674.251953125 116 100 674.721435546875 114.056907653808594 0
680.251953125 116 100 674.721435546875 114.056907653808594 0
540.4896240234375 246 0 533.085693359375 243.630142211914062 0
534.4896240234375 246 0 533.085693359375 243.630142211914062 0
534.4896240234375 246 100 533.085693359375 243.630142211914062 0
540.4896240234375 246 100 533.085693359375 243.630142211914062 0
540.4896240234375 173 0 533.085693359375 169.630142211914062 0
534.4896240234375 173 0 533.085693359375 169.630142211914062 0
534.4896240234375 173 100 533.085693359375 169.630142211914062 0
540.4896240234375 173 100 533.085693359375 169.630142211914062 0
540 454 0 534.13043212890625 448.065216064453125 0
534 454 0 534.13043212890625 448.065216064453125 0
534 454 100 534.13043212890625 448.065216064453125 0
540 454 100 534.13043212890625 448.065216064453125 0
540.4896240234375 28 0 512.0428466796875 27.5263156890869141 0
534.4896240234375 28 0 512.0428466796875 27.5263156890869141 0
534.4896240234375 28 100 512.0428466796875 27.5263156890869141 0
540.4896240234375 28 100 512.0428466796875 27.5263156890869141 0
540.4896240234375 9 0 512.0428466796875 7.52631568908691406 0
534.4896240234375 9 0 512.0428466796875 7.52631568908691406 0
534.4896240234375 9 100 512.0428466796875 7.52631568908691406 0
540.4896240234375 9 100 512.0428466796875 7.52631568908691406 0
540.4896240234375 84 0 513.46514892578125 80.8000030517578125 0
534.4896240234375 84 0 513.46514892578125 80.8000030517578125 0
534.4896240234375 84 100 513.46514892578125 80.8000030517578125 0
540.4896240234375 84 100 513.46514892578125 80.8000030517578125 0
540.4896240234375 64 0 513.46514892578125 59.7999992370605469 0
534.4896240234375 64 0 513.46514892578125 59.7999992370605469 0
534.4896240234375 64 100 513.46514892578125 59.7999992370605469 0
540.4896240234375 64 100 513.46514892578125 59.7999992370605469 0
541 127 0 526.76318359375 124.65789794921875 0
535 127 0 526.76318359375 124.65789794921875 0
535 127 100 526.76318359375 124.65789794921875 0
541 127 100 526.76318359375 124.65789794921875 0
154.685195922851562 431 0 153.907882690429688 429.83416748046875 0
148.685195922851562 431 0 153.907882690429688 429.83416748046875 0
148.685195922851562 431 100 153.907882690429688 429.83416748046875 0
154.685195922851562 431 100 153.907882690429688 429.83416748046875 0
154.685195922851562 232 0 153.907882690429688 229.83416748046875 0
148.685195922851562 232 0 153.907882690429688 229.83416748046875 0
148.685195922851562 232 100 153.907882690429688 229.83416748046875 0
154.685195922851562 232 100 153.907882690429688 229.83416748046875 0
154.685195922851562 186 0 152.018218994140625 183.793106079101562 0
148.685195922851562 186 0 152.018218994140625 183.793106079101562 0
148.685195922851562 186 100 152.018218994140625 183.793106079101562 0
154.685195922851562 186 100 152.018218994140625 183.793106079101562 0
154.685195922851562 128 0 152.018218994140625 124.793106079101562 0
148.685195922851562 128 0 152.018218994140625 124.793106079101562 0
148.685195922851562 128 100 152.018218994140625 124.793106079101562 0
154.685195922851562 128 100 152.018218994140625 124.793106079101562 0
154.685195922851562 127 0 153.437744140625 126.975807189941406 0
148.685195922851562 127 0 153.437744140625 126.975807189941406 0
148.685195922851562 127 100 153.437744140625 126.975807189941406 0
154.685195922851562 127 100 153.437744140625 126.975807189941406 0
154.685195922851562 3 0 153.437744140625 1.97580647468566895 0
148.685195922851562 3 0 153.437744140625 1.97580647468566895 0
148.685195922851562 3 100 153.437744140625 1.97580647468566895 0
154.685195922851562 3 100 153.437744140625 1.97580647468566895 0
152 428 0 150.258529663085938 425.912200927734375 0
152 434 0 150.258529663085938 425.912200927734375 0
152 434 100 150.258529663085938 425.912200927734375 0
152 428 100 150.258529663085938 425.912200927734375 0
528.4195556640625 193 0 499.06292724609375 183.27777099609375 0
522.4195556640625 193 0 499.06292724609375 183.27777099609375 0
522.4195556640625 193 100 499.06292724609375 183.27777099609375 0
528.4195556640625 193 100 499.06292724609375 183.27777099609375 0
528.4195556640625 175 0 499.06292724609375 164.27777099609375 0
522.4195556640625 175 0 499.06292724609375 164.27777099609375 0
522.4195556640625 175 100 499.06292724609375 164.27777099609375 0
528.4195556640625 175 100 499.06292724609375 164.27777099609375 0
528.4195556640625 244 0 500.608001708984375 232.15789794921875 0
522.4195556640625 244 0 500.608001708984375 232.15789794921875 0
522.4195556640625 244 100 500.608001708984375 232.15789794921875 0
528.4195556640625 244 100 500.608001708984375 232.15789794921875 0
528.4195556640625 225 0 500.608001708984375 212.15789794921875 0
522.4195556640625 225 0 500.608001708984375 212.15789794921875 0
522.4195556640625 225 100 500.608001708984375 212.15789794921875 0
528.4195556640625 225 100 500.608001708984375 212.15789794921875 0
528.4195556640625 84 0 500.608001708984375 80.578948974609375 0
522.4195556640625 84 0 500.608001708984375 80.578948974609375 0
522.4195556640625 84 100 500.608001708984375 80.578948974609375 0
528.4195556640625 84 100 500.608001708984375 80.578948974609375 0
528.4195556640625 65 0 500.608001708984375 60.578948974609375 0
522.4195556640625 65 0 500.608001708984375 60.578948974609375 0
522.4195556640625 65 100 500.608001708984375 60.578948974609375 0
528.4195556640625 65 100 500.608001708984375 60.578948974609375 0
368 124.490257263183594 0 361.923065185546875 122.096214294433594 0
368 130.490264892578125 0 361.923065185546875 122.096214294433594 0
368 130.490264892578125 100 361.923065185546875 122.096214294433594 0
368 124.490257263183594 100 361.923065185546875 122.096214294433594 0
316 124.490257263183594 0 308.923065185546875 122.096214294433594 0
316 130.490264892578125 0 308.923065185546875 122.096214294433594 0
316 130.490264892578125 100 308.923065185546875 122.096214294433594 0
316 124.490257263183594 100 308.923065185546875 122.096214294433594 0
525 124.490257263183594 0 499.75 118.2657470703125 0
525 130.490264892578125 0 499.75 118.2657470703125 0
525 130.490264892578125 100 499.75 118.2657470703125 0
525 124.490257263183594 100 499.75 118.2657470703125 0
505 124.490257263183594 0 478.75 118.2657470703125 0
505 130.490264892578125 0 478.75 118.2657470703125 0
505 130.490264892578125 100 478.75 118.2657470703125 0
505 124.490257263183594 100 478.75 118.2657470703125 0
447 124.490257263183594 0 429.375 119.303169250488281 0
447 130.490264892578125 0 429.375 119.303169250488281 0
447 130.490264892578125 100 429.375 119.303169250488281 0
447 124.490257263183594 100 429.375 119.303169250488281 0
423 124.490257263183594 0 404.375 119.303169250488281 0
423 130.490264892578125 0 404.375 119.303169250488281 0
423 130.490264892578125 100 404.375 119.303169250488281 0
423 124.490257263183594 100 404.375 119.303169250488281 0
537 124 0 493.25 113.666664123535156 0
537 130 0 493.25 113.666664123535156 0
537 130 100 493.25 113.666664123535156 0
537 124 100 493.25 113.666664123535156 0
525 124 0 480.25 113.666664123535156 0
525 130 0 480.25 113.666664123535156 0
525 130 100 480.25 113.666664123535156 0
525 124 100 480.25 113.666664123535156 0
179 124 0 173.370376586914062 119.40740966796875 0
179 130 0 173.370376586914062 119.40740966796875 0
179 130 100 173.370376586914062 119.40740966796875 0
179 124 100 173.370376586914062 119.40740966796875 0
152 124 0 145.370376586914062 119.40740966796875 0
152 130 0 145.370376586914062 119.40740966796875 0
152 130 100 145.370376586914062 119.40740966796875 0
152 124 100 145.370376586914062 119.40740966796875 0
258 124.490257263183594 0 247.782608032226562 119.07763671875 0
258 130.490264892578125 0 247.782608032226562 119.07763671875 0
258 130.490264892578125 100 247.782608032226562 119.07763671875 0
258 124.490257263183594 100 247.782608032226562 119.07763671875 0
235 124.490257263183594 0 223.782608032226562 119.07763671875 0
235 130.490264892578125 0 223.782608032226562 119.07763671875 0
235 130.490264892578125 100 223.782608032226562 119.07763671875 0
235 124.490257263183594 100 223.782608032226562 119.07763671875 0
352 7.59363079071044922 0 342.647064208984375 7.37028837203979492 0
352 13.5936307907104492 0 342.647064208984375 7.37028837203979492 0
352 13.5936307907104492 100 342.647064208984375 7.37028837203979492 0
352 7.59363079071044922 100 342.647064208984375 7.37028837203979492 0
318 7.59363079071044922 0 307.647064208984375 7.37028837203979492 0
318 13.5936307907104492 0 307.647064208984375 7.37028837203979492 0
318 13.5936307907104492 100 307.647064208984375 7.37028837203979492 0
318 7.59363079071044922 100 307.647064208984375 7.37028837203979492 0
257 7.59363079071044922 0 245.149993896484375 7.21394920349121094 0
257 13.5936307907104492 0 245.149993896484375 7.21394920349121094 0
257 13.5936307907104492 100 245.149993896484375 7.21394920349121094 0
257 7.59363079071044922 100 245.149993896484375 7.21394920349121094 0
237 7.59363079071044922 0 224.149993896484375 7.21394920349121094 0
237 13.5936307907104492 0 224.149993896484375 7.21394920349121094 0
237 13.5936307907104492 100 224.149993896484375 7.21394920349121094 0
237 7.59363079071044922 100 224.149993896484375 7.21394920349121094 0
449 7.59363079071044922 0 427.54998779296875 7.21394920349121094 0
449 13.5936307907104492 0 427.54998779296875 7.21394920349121094 0
449 13.5936307907104492 100 427.54998779296875 7.21394920349121094 0
449 7.59363079071044922 100 427.54998779296875 7.21394920349121094 0
429 7.59363079071044922 0 406.54998779296875 7.21394920349121094 0
429 13.5936307907104492 0 406.54998779296875 7.21394920349121094 0
429 13.5936307907104492 100 406.54998779296875 7.21394920349121094 0
429 7.59363079071044922 100 406.54998779296875 7.21394920349121094 0
575 89 0 559.0882568359375 86.382354736328125 0
575 83 0 559.0882568359375 86.382354736328125 0
575 83 100 559.0882568359375 86.382354736328125 0
575 89 100 559.0882568359375 86.382354736328125 0
677 82.5036468505859375 0 658.65716552734375 80.1464004516601562 0
677 88.5036468505859375 0 658.65716552734375 80.1464004516601562 0
677 88.5036468505859375 100 658.65716552734375 80.1464004516601562 0
677 82.5036468505859375 100 658.65716552734375 80.1464004516601562 0
642 82.5036468505859375 0 622.65716552734375 80.1464004516601562 0
642 88.5036468505859375 0 622.65716552734375 80.1464004516601562 0
642 88.5036468505859375 100 622.65716552734375 80.1464004516601562 0
642 82.5036468505859375 100 622.65716552734375 80.1464004516601562 0
537 456 0 529.4761962890625 448.76190185546875 0
537 450 0 529.4761962890625 448.76190185546875 0
537 450 100 529.4761962890625 448.76190185546875 0
537 456 100 529.4761962890625 448.76190185546875 0
439 289.725921630859375 0 423.740753173828125 278.995330810546875 0
439 295.725921630859375 0 423.740753173828125 278.995330810546875 0
439 295.725921630859375 100 423.740753173828125 278.995330810546875 0
439 289.725921630859375 100 423.740753173828125 278.995330810546875 0
412 289.725921630859375 0 395.740753173828125 278.995330810546875 0
412 295.725921630859375 0 395.740753173828125 278.995330810546875 0
412 295.725921630859375 100 395.740753173828125 278.995330810546875 0
412 289.725921630859375 100 395.740753173828125 278.995330810546875 0
532 289.725921630859375 0 484.6363525390625 263.38720703125 0
532 295.725921630859375 0 484.6363525390625 263.38720703125 0
532 295.725921630859375 100 484.6363525390625 263.38720703125 0
532 289.725921630859375 100 484.6363525390625 263.38720703125 0
521 289.725921630859375 0 472.6363525390625 263.38720703125 0
521 295.725921630859375 0 472.6363525390625 263.38720703125 0
521 295.725921630859375 100 472.6363525390625 263.38720703125 0
521 289.725921630859375 100 472.6363525390625 263.38720703125 0
541 324.29058837890625 0 517.40911865234375 309.55010986328125 0
541 330.29058837890625 0 517.40911865234375 309.55010986328125 0
541 330.29058837890625 100 517.40911865234375 309.55010986328125 0
541 324.29058837890625 100 517.40911865234375 309.55010986328125 0
519 324.29058837890625 0 494.409088134765625 309.55010986328125 0
519 330.29058837890625 0 494.409088134765625 309.55010986328125 0
519 330.29058837890625 100 494.409088134765625 309.55010986328125 0
519 324.29058837890625 100 494.409088134765625 309.55010986328125 0
620 324.29058837890625 0 573.30767822265625 299.34515380859375 0
620 330.29058837890625 0 573.30767822265625 299.34515380859375 0
620 330.29058837890625 100 573.30767822265625 299.34515380859375 0
620 324.29058837890625 100 573.30767822265625 299.34515380859375 0
607 324.29058837890625 0 559.30767822265625 299.34515380859375 0
607 330.29058837890625 0 559.30767822265625 299.34515380859375 0
607 330.29058837890625 100 559.30767822265625 299.34515380859375 0
607 324.29058837890625 100 559.30767822265625 299.34515380859375 0
164.938461303710938 47 0 151.193588256835938 44.0833320617675781 0
158.938461303710938 47 0 151.193588256835938 44.0833320617675781 0
158.938461303710938 47 100 151.193588256835938 44.0833320617675781 0
164.938461303710938 47 100 151.193588256835938 44.0833320617675781 0
164.938461303710938 35 0 151.193588256835938 31.0833339691162109 0
158.938461303710938 35 0 151.193588256835938 31.0833339691162109 0
158.938461303710938 35 100 151.193588256835938 31.0833339691162109 0
164.938461303710938 35 100 151.193588256835938 31.0833339691162109 0
164.938461303710938 89 0 151.193588256835938 82.5833358764648438 0
158.938461303710938 89 0 151.193588256835938 82.5833358764648438 0
158.938461303710938 89 100 151.193588256835938 82.5833358764648438 0
164.938461303710938 89 100 151.193588256835938 82.5833358764648438 0
164.938461303710938 77 0 151.193588256835938 69.5833358764648438 0
158.938461303710938 77 0 151.193588256835938 69.5833358764648438 0
158.938461303710938 77 100 151.193588256835938 69.5833358764648438 0
164.938461303710938 77 100 151.193588256835938 69.5833358764648438 0
674.251953125 259.99737548828125 0 671.89532470703125 258.08831787109375 0
680.251953125 260.00262451171875 0 671.89532470703125 258.08831787109375 0
680.251953125 260.00262451171875 100 671.89532470703125 258.08831787109375 0
674.251953125 259.99737548828125 100 671.89532470703125 258.08831787109375 0
680.251953125 239 0 0 0 -1
674.251953125 239 0 0 0 -1
674.251953125 116 0 0 0 -1
680.251953125 116 0 0 0 -1
680.251953125 239 100 0 0 1
674.251953125 239 100 0 0 1
674.251953125 116 100 0 0 1
680.251953125 116 100 0 0 1
540.4896240234375 246 0 0 0 -1
534.4896240234375 246 0 0 0 -1
534.4896240234375 173 0 0 0 -1
540.4896240234375 173 0 0 0 -1
540.4896240234375 246 100 0 0 1
534.4896240234375 246 100 0 0 1
534.4896240234375 173 100 0 0 1
540.4896240234375 173 100 0 0 1
540 546 0 0 0 -1
534 552 0 0 0 -1
534 454 0 0 0 -1
540 454 0 0 0 -1
540 546 100 0 0 1
534 552 100 0 0 1
534 454 100 0 0 1
540 454 100 0 0 1
534 552 0 0 0 -1
540 546 0 0 0 -1
674.00262451171875 546 0 0 0 -1
679.99737548828125 552 0 0 0 -1
534 552 100 0 0 1
540 546 100 0 0 1
674.00262451171875 546 100 0 0 1
679.99737548828125 552 100 0 0 1
540.4896240234375 28 0 0 0 -1
534.4896240234375 28 0 0 0 -1
534.4896240234375 9 0 0 0 -1
540.4896240234375 9 0 0 0 -1
540.4896240234375 28 100 0 0 1
534.4896240234375 28 100 0 0 1
534.4896240234375 9 100 0 0 1
540.4896240234375 9 100 0 0 1
540.4896240234375 84 0 0 0 -1
534.4896240234375 84 0 0 0 -1
534.4896240234375 64 0 0 0 -1
540.4896240234375 64 0 0 0 -1
540.4896240234375 84 100 0 0 1
534.4896240234375 84 100 0 0 1
534.4896240234375 64 100 0 0 1
540.4896240234375 64 100 0 0 1
541 127 0 0 0 -1
535 127 0 0 0 -1
535 83 0 0 0 -1
541 89 0 0 0 -1
541 127 100 0 0 1
535 127 100 0 0 1
535 83 100 0 0 1
541 89 100 0 0 1
541 89 0 0 0 -1
535 83 0 0 0 -1
575 83 0 0 0 -1
575 89 0 0 0 -1
541 89 100 0 0 1
535 83 100 0 0 1
575 83 100 0 0 1
575 89 100 0 0 1
154.685195922851562 431 0 0 0 -1
148.685195922851562 431 0 0 0 -1
148.685195922851562 232 0 0 0 -1
154.685195922851562 232 0 0 0 -1
154.685195922851562 431 100 0 0 1
148.685195922851562 431 100 0 0 1
148.685195922851562 232 100 0 0 1
154.685195922851562 232 100 0 0 1
154.685195922851562 186 0 0 0 -1
148.685195922851562 186 0 0 0 -1
148.685195922851562 128 0 0 0 -1
154.685195922851562 128 0 0 0 -1
154.685195922851562 186 100 0 0 1
148.685195922851562 186 100 0 0 1
148.685195922851562 128 100 0 0 1
154.685195922851562 128 100 0 0 1
154.685195922851562 127 0 0 0 -1
148.685195922851562 127 0 0 0 -1
148.685195922851562 3 0 0 0 -1
154.685195922851562 3 0 0 0 -1
154.685195922851562 127 100 0 0 1
148.685195922851562 127 100 0 0 1
148.685195922851562 3 100 0 0 1
154.685195922851562 3 100 0 0 1
357 519 0 0 0 -1
351 525 0 0 0 -1
351 434 0 0 0 -1
357 428 0 0 0 -1
357 519 100 0 0 1
351 525 100 0 0 1
351 434 100 0 0 1
357 428 100 0 0 1
351 525 0 0 0 -1
357 519 0 0 0 -1
468 519 0 0 0 -1
474 525 0 0 0 -1
351 525 100 0 0 1
357 519 100 0 0 1
468 519 100 0 0 1
474 525 100 0 0 1
357 428 0 0 0 -1
351 434 0 0 0 -1
152 434 0 0 0 -1
152 428 0 0 0 -1
357 428 100 0 0 1
351 434 100 0 0 1
152 434 100 0 0 1
152 428 100 0 0 1
474 525 0 0 0 -1
468 519 0 0 0 -1
468 450 0 0 0 -1
474 456 0 0 0 -1
474 525 100 0 0 1
468 519 100 0 0 1
468 450 100 0 0 1
474 456 100 0 0 1
474 456 0 0 0 -1
468 450 0 0 0 -1
537 450 0 0 0 -1
537 456 0 0 0 -1
474 456 100 0 0 1
468 450 100 0 0 1
537 450 100 0 0 1
537 456 100 0 0 1
528.4195556640625 193 0 0 0 -1
522.4195556640625 193 0 0 0 -1
522.4195556640625 175 0 0 0 -1
528.4195556640625 175 0 0 0 -1
528.4195556640625 193 100 0 0 1
522.4195556640625 193 100 0 0 1
522.4195556640625 175 100 0 0 1
528.4195556640625 175 100 0 0 1
528.4195556640625 244 0 0 0 -1
522.4195556640625 244 0 0 0 -1
522.4195556640625 225 0 0 0 -1
528.4195556640625 225 0 0 0 -1
528.4195556640625 244 100 0 0 1
522.4195556640625 244 100 0 0 1
522.4195556640625 225 100 0 0 1
528.4195556640625 225 100 0 0 1
528.4195556640625 84 0 0 0 -1
522.4195556640625 84 0 0 0 -1
522.4195556640625 65 0 0 0 -1
528.4195556640625 65 0 0 0 -1
528.4195556640625 84 100 0 0 1
522.4195556640625 84 100 0 0 1
522.4195556640625 65 100 0 0 1
528.4195556640625 65 100 0 0 1
368 124.490257263183594 0 0 0 -1
368 130.490264892578125 0 0 0 -1
316 130.490264892578125 0 0 0 -1
316 124.490257263183594 0 0 0 -1
368 124.490257263183594 100 0 0 1
368 130.490264892578125 100 0 0 1
316 130.490264892578125 100 0 0 1
316 124.490257263183594 100 0 0 1
525 124.490257263183594 0 0 0 -1
525 130.490264892578125 0 0 0 -1
505 130.490264892578125 0 0 0 -1
505 124.490257263183594 0 0 0 -1
525 124.490257263183594 100 0 0 1
525 130.490264892578125 100 0 0 1
505 130.490264892578125 100 0 0 1
505 124.490257263183594 100 0 0 1
447 124.490257263183594 0 0 0 -1
447 130.490264892578125 0 0 0 -1
423 130.490264892578125 0 0 0 -1
423 124.490257263183594 0 0 0 -1
447 124.490257263183594 100 0 0 1
447 130.490264892578125 100 0 0 1
423 130.490264892578125 100 0 0 1
423 124.490257263183594 100 0 0 1
537 124 0 0 0 -1
537 130 0 0 0 -1
525 130 0 0 0 -1
525 124 0 0 0 -1
537 124 100 0 0 1
537 130 100 0 0 1
525 130 100 0 0 1
525 124 100 0 0 1
179 124 0 0 0 -1
179 130 0 0 0 -1
152 130 0 0 0 -1
152 124 0 0 0 -1
179 124 100 0 0 1
179 130 100 0 0 1
152 130 100 0 0 1
152 124 100 0 0 1
258 124.490257263183594 0 0 0 -1
258 130.490264892578125 0 0 0 -1
235 130.490264892578125 0 0 0 -1
235 124.490257263183594 0 0 0 -1
258 124.490257263183594 100 0 0 1
258 130.490264892578125 100 0 0 1
235 130.490264892578125 100 0 0 1
235 124.490257263183594 100 0 0 1
352 7.59363079071044922 0 0 0 -1
352 13.5936307907104492 0 0 0 -1
318 13.5936307907104492 0 0 0 -1
318 7.59363079071044922 0 0 0 -1
352 7.59363079071044922 100 0 0 1
352 13.5936307907104492 100 0 0 1
318 13.5936307907104492 100 0 0 1
318 7.59363079071044922 100 0 0 1
257 7.59363079071044922 0 0 0 -1
257 13.5936307907104492 0 0 0 -1
237 13.5936307907104492 0 0 0 -1
237 7.59363079071044922 0 0 0 -1
257 7.59363079071044922 100 0 0 1
257 13.5936307907104492 100 0 0 1
237 13.5936307907104492 100 0 0 1
237 7.59363079071044922 100 0 0 1
449 7.59363079071044922 0 0 0 -1
449 13.5936307907104492 0 0 0 -1
429 13.5936307907104492 0 0 0 -1
429 7.59363079071044922 0 0 0 -1
449 7.59363079071044922 100 0 0 1
449 13.5936307907104492 100 0 0 1
429 13.5936307907104492 100 0 0 1
429 7.59363079071044922 100 0 0 1
677 82.5036468505859375 0 0 0 -1
677 88.5036468505859375 0 0 0 -1
642 88.5036468505859375 0 0 0 -1
642 82.5036468505859375 0 0 0 -1
677 82.5036468505859375 100 0 0 1
677 88.5036468505859375 100 0 0 1
642 88.5036468505859375 100 0 0 1
642 82.5036468505859375 100 0 0 1
439 289.725921630859375 0 0 0 -1
439 295.725921630859375 0 0 0 -1
412 295.725921630859375 0 0 0 -1
412 289.725921630859375 0 0 0 -1
439 289.725921630859375 100 0 0 1
439 295.725921630859375 100 0 0 1
412 295.725921630859375 100 0 0 1
412 289.725921630859375 100 0 0 1
532 289.725921630859375 0 0 0 -1
532 295.725921630859375 0 0 0 -1
521 295.725921630859375 0 0 0 -1
521 289.725921630859375 0 0 0 -1
532 289.725921630859375 100 0 0 1
532 295.725921630859375 100 0 0 1
521 295.725921630859375 100 0 0 1
521 289.725921630859375 100 0 0 1
541 324.29058837890625 0 0 0 -1
541 330.29058837890625 0 0 0 -1
519 330.29058837890625 0 0 0 -1
519 324.29058837890625 0 0 0 -1
541 324.29058837890625 100 0 0 1
541 330.29058837890625 100 0 0 1
519 330.29058837890625 100 0 0 1
519 324.29058837890625 100 0 0 1
620 324.29058837890625 0 0 0 -1
620 330.29058837890625 0 0 0 -1
607 330.29058837890625 0 0 0 -1
607 324.29058837890625 0 0 0 -1
620 324.29058837890625 100 0 0 1
620 330.29058837890625 100 0 0 1
607 330.29058837890625 100 0 0 1
607 324.29058837890625 100 0 0 1
164.938461303710938 47 0 0 0 -1
158.938461303710938 47 0 0 0 -1
158.938461303710938 35 0 0 0 -1
164.938461303710938 35 0 0 0 -1
164.938461303710938 47 100 0 0 1
158.938461303710938 47 100 0 0 1
158.938461303710938 35 100 0 0 1
164.938461303710938 35 100 0 0 1
164.938461303710938 89 0 0 0 -1
158.938461303710938 89 0 0 0 -1
158.938461303710938 77 0 0 0 -1
164.938461303710938 77 0 0 0 -1
164.938461303710938 89 100 0 0 1
158.938461303710938 89 100 0 0 1
158.938461303710938 77 100 0 0 1
164.938461303710938 77 100 0 0 1
674.251953125 259.99737548828125 0 0 0 -1
680.251953125 260.00262451171875 0 0 0 -1
679.99737548828125 552 0 0 0 -1
674.00262451171875 546 0 0 0 -1
674.251953125 259.99737548828125 100 0 0 1
680.251953125 260.00262451171875 100 0 0 1
679.99737548828125 552 100 0 0 1
674.00262451171875 546 100 0 0 1
4 0 1 2 3
4 4 5 6 7
4 8 9 10 11
4 12 13 14 15
4 16 17 18 19
4 20 21 22 23
4 24 25 26 27
4 28 29 30 31
4 32 33 34 35
4 36 37 38 39
4 40 41 42 43
4 44 45 46 47
4 48 49 50 51
4 52 53 54 55
4 56 57 58 59
4 60 61 62 63
4 64 65 66 67
4 68 69 70 71
4 72 73 74 75
4 76 77 78 79
4 80 81 82 83
4 84 85 86 87
4 88 89 90 91
4 92 93 94 95
4 96 97 98 99
4 100 101 102 103
4 104 105 106 107
4 108 109 110 111
4 112 113 114 115
4 116 117 118 119
4 120 121 122 123
4 124 125 126 127
4 128 129 130 131
4 132 133 134 135
4 136 137 138 139
4 140 141 142 143
4 144 145 146 147
4 148 149 150 151
4 152 153 154 155
4 156 157 158 159
4 160 161 162 163
4 164 165 166 167
4 168 169 170 171
4 172 173 174 175
4 176 177 178 179
4 180 181 182 183
4 184 185 186 187
4 188 189 190 191
4 192 193 194 195
4 196 197 198 199
4 200 201 202 203
4 204 205 206 207
4 208 209 210 211
4 212 213 214 215
4 216 217 218 219
4 220 221 222 223
4 224 225 226 227
4 228 229 230 231
4 232 233 234 235
4 236 237 238 239
4 240 241 242 243
4 244 245 246 247
4 248 249 250 251
4 252 253 254 255
4 256 257 258 259
4 260 261 262 263
4 264 265 266 267
4 268 269 270 271
4 272 273 274 275
4 276 277 278 279
4 280 281 282 283
4 284 285 286 287
4 288 289 290 291
4 292 293 294 295
4 296 297 298 299
4 300 301 302 303
4 304 305 306 307
4 308 309 310 311
4 312 313 314 315
4 316 317 318 319
4 320 321 322 323
4 324 325 326 327
4 328 329 330 331
4 332 333 334 335
4 336 337 338 339
4 340 341 342 343
4 344 345 346 347
4 348 349 350 351
4 352 353 354 355
4 356 357 358 359
4 360 361 362 363
4 364 365 366 367
4 368 369 370 371
4 372 373 374 375
4 376 377 378 379
4 380 381 382 383
4 384 385 386 387
4 388 389 390 391
4 392 393 394 395
4 396 397 398 399
4 400 401 402 403
4 404 405 406 407
4 408 409 410 411
4 412 413 414 415
4 416 417 418 419
4 420 421 422 423
4 424 425 426 427
4 428 429 430 431
4 432 433 434 435
4 436 437 438 439
4 440 441 442 443
4 444 445 446 447
4 448 449 450 451
4 452 453 454 455
4 456 457 458 459
4 460 461 462 463
4 464 465 466 467
4 468 469 470 471
4 472 473 474 475
4 476 477 478 479
4 480 481 482 483
4 484 485 486 487
4 488 489 490 491
4 492 493 494 495
4 496 497 498 499
4 500 501 502 503
4 504 505 506 507
4 508 509 510 511
4 512 513 514 515
4 516 517 518 519
4 520 521 522 523
4 524 525 526 527
4 528 529 530 531
4 532 533 534 535
4 536 537 538 539
4 540 541 542 543
4 544 545 546 547
4 548 549 550 551
4 552 553 554 555
4 556 557 558 559
4 560 561 562 563
4 564 565 566 567
4 568 569 570 571
4 572 573 574 575
4 576 577 578 579
4 580 581 582 583
4 584 585 586 587
4 588 589 590 591
4 592 593 594 595
4 596 597 598 599
4 600 601 602 603
4 604 605 606 607
4 608 609 610 611
4 612 613 614 615
4 616 617 618 619
4 620 621 622 623
4 624 625 626 627
4 628 629 630 631
4 632 633 634 635
4 636 637 638 639
4 640 641 642 643
4 644 645 646 647
4 648 649 650 651
4 652 653 654 655
4 656 657 658 659
4 660 661 662 663
4 664 665 666 667
4 668 669 670 671
4 672 673 674 675
4 676 677 678 679
4 680 681 682 683
4 684 685 686 687
4 688 689 690 691
4 692 693 694 695
4 696 697 698 699
4 700 701 702 703
4 704 705 706 707
4 708 709 710 711
4 712 713 714 715
4 716 717 718 719
4 720 721 722 723
4 724 725 726 727
4 728 729 730 731
4 732 733 734 735
4 736 737 738 739
4 740 741 742 743
4 744 745 746 747
4 748 749 750 751
4 752 753 754 755
4 756 757 758 759
4 760 761 762 763
4 764 765 766 767
4 768 769 770 771
4 772 773 774 775
4 776 777 778 779
4 780 781 782 783
4 784 785 786 787
4 788 789 790 791
4 792 793 794 795
4 796 797 798 799
4 800 801 802 803
4 804 805 806 807
