ply
format ascii 1.0
element vertex 416
property float x
property float y
property float z
property float nx
property float ny
property float nz
element quads 104
property list uchar int vertex_indices
end_header
539.75 551.25 0 -0 1 0
679.25 551.25 0 -0 1 0
679.25 551.25 100 -0 1 0
539.75 551.25 100 -0 1 0
540.25 550.75 0 0 -1 0
678.75 550.75 0 0 -1 0
678.75 550.75 100 0 -1 0
540.25 550.75 100 0 -1 0
540.25 550.75 0 1 0 0
540.25 449 0 1 0 0
540.25 449 100 1 0 0
540.25 550.75 100 1 0 0
539.75 551.25 0 -1 -0 0
539.75 449 0 -1 -0 0
539.75 449 100 -1 -0 0
539.75 551.25 100 -1 -0 0
679.25 551.25 0 1 0 0
679.25 84.75 0 1 0 0
679.25 84.75 100 1 0 0
679.25 551.25 100 1 0 0
678.75 550.75 0 -1 -0 0
678.75 85.25 0 -1 -0 0
678.75 85.25 100 -1 -0 0
678.75 550.75 100 -1 -0 0
429 12.25 0 -0 1 0
449 12.25 0 -0 1 0
449 12.25 100 -0 1 0
429 12.25 100 -0 1 0
429 11.75 0 0 -1 0
449 11.75 0 0 -1 0
449 11.75 100 0 -1 0
429 11.75 100 0 -1 0
469.25 521.25 0 1 0 0
469.25 458.25 0 1 0 0
469.25 458.25 100 1 0 0
469.25 521.25 100 1 0 0
468.75 520.75 0 -1 -0 0
468.75 457.75 0 -1 -0 0
468.75 457.75 100 -1 -0 0
468.75 520.75 100 -1 -0 0
468.75 520.75 0 -0 -1 0
357.25 520.75 0 -0 -1 0
357.25 520.75 100 -0 -1 0
468.75 520.75 100 -0 -1 0
469.25 521.25 0 0 1 0
356.75 521.25 0 0 1 0
356.75 521.25 100 0 1 0
469.25 521.25 100 0 1 0
469.25 458.25 0 -0 1 0
545 458.25 0 -0 1 0
545 458.25 100 -0 1 0
469.25 458.25 100 -0 1 0
468.75 457.75 0 0 -1 0
545 457.75 0 0 -1 0
545 457.75 100 0 -1 0
468.75 457.75 100 0 -1 0
642 85.25 0 -0 1 0
678.75 85.25 0 -0 1 0
678.75 85.25 100 -0 1 0
642 85.25 100 -0 1 0
642 84.75 0 0 -1 0
679.25 84.75 0 0 -1 0
679.25 84.75 100 0 -1 0
642 84.75 100 0 -1 0
541 85.25 0 -0 1 0
574 85.25 0 -0 1 0
574 85.25 100 -0 1 0
541 85.25 100 -0 1 0
541 84.75 0 0 -1 0
574 84.75 0 0 -1 0
574 84.75 100 0 -1 0
541 84.75 100 0 -1 0
412 292.25 0 -0 1 0
439 292.25 0 -0 1 0
439 292.25 100 -0 1 0
412 292.25 100 -0 1 0
412 291.75 0 0 -1 0
439 291.75 0 0 -1 0
439 291.75 100 0 -1 0
412 291.75 100 0 -1 0
425 127.25 0 -0 1 0
447 127.25 0 -0 1 0
447 127.25 100 -0 1 0
425 127.25 100 -0 1 0
425 126.75 0 0 -1 0
447 126.75 0 0 -1 0
447 126.75 100 0 -1 0
425 126.75 100 0 -1 0
505 127.25 0 -0 1 0
538 127.25 0 -0 1 0
538 127.25 100 -0 1 0
505 127.25 100 -0 1 0
505 126.75 0 0 -1 0
538 126.75 0 0 -1 0
538 126.75 100 0 -1 0
505 126.75 100 0 -1 0
150.75 432.25 0 -0 1 0
356.75 432.25 0 -0 1 0
356.75 432.25 100 -0 1 0
150.75 432.25 100 -0 1 0
151.25 431.75 0 0 -1 0
357.25 431.75 0 0 -1 0
357.25 431.75 100 0 -1 0
151.25 431.75 100 0 -1 0
151.25 431.75 0 1 0 0
151.25 3 0 1 0 0
151.25 3 100 1 0 0
151.25 431.75 100 1 0 0
150.75 432.25 0 -1 -0 0
150.75 3 0 -1 -0 0
150.75 3 100 -1 -0 0
150.75 432.25 100 -1 -0 0
356.75 432.25 0 -1 0 0
356.75 521.25 0 -1 0 0
356.75 521.25 100 -1 0 0
356.75 432.25 100 -1 0 0
357.25 431.75 0 1 -0 0
357.25 520.75 0 1 -0 0
357.25 520.75 100 1 -0 0
357.25 431.75 100 1 -0 0
524.75 291 0 -1 0 0
524.75 329 0 -1 0 0
524.75 329 100 -1 0 0
524.75 291 100 -1 0 0
525.25 291 0 1 -0 0
525.25 329 0 1 -0 0
525.25 329 100 1 -0 0
525.25 291 100 1 -0 0
524.75 175 0 -1 0 0
524.75 244 0 -1 0 0
524.75 244 100 -1 0 0
524.75 175 100 -1 0 0
525.25 175 0 1 -0 0
525.25 244 0 1 -0 0
525.25 244 100 1 -0 0
525.25 175 100 1 -0 0
316 127.25 0 -0 1 0
368 127.25 0 -0 1 0
368 127.25 100 -0 1 0
316 127.25 100 -0 1 0
316 126.75 0 0 -1 0
368 126.75 0 0 -1 0
368 126.75 100 0 -1 0
316 126.75 100 0 -1 0
539.75 9 0 -1 0 0
539.75 329 0 -1 0 0
539.75 329 100 -1 0 0
539.75 9 100 -1 0 0
540.25 9 0 1 -0 0
540.25 329 0 1 -0 0
540.25 329 100 1 -0 0
540.25 9 100 1 -0 0
318 12.25 0 -0 1 0
360 12.25 0 -0 1 0
360 12.25 100 -0 1 0
318 12.25 100 -0 1 0
318 11.75 0 0 -1 0
360 11.75 0 0 -1 0
360 11.75 100 0 -1 0
318 11.75 100 0 -1 0
429 12.25 0 406.54998779296875 11.6374998092651367 0
429 11.75 0 406.54998779296875 11.6374998092651367 0
429 11.75 100 406.54998779296875 11.6374998092651367 0
429 12.25 100 406.54998779296875 11.6374998092651367 0
449 12.25 0 427.54998779296875 11.6374998092651367 0
449 11.75 0 427.54998779296875 11.6374998092651367 0
449 11.75 100 427.54998779296875 11.6374998092651367 0
449 12.25 100 427.54998779296875 11.6374998092651367 0
642 85.25 0 623.5306396484375 82.9302749633789062 0
642 84.75 0 623.5306396484375 82.9302749633789062 0
642 84.75 100 623.5306396484375 82.9302749633789062 0
642 85.25 100 623.5306396484375 82.9302749633789062 0
541 85.25 0 523.6060791015625 82.6666641235351562 0
541 84.75 0 523.6060791015625 82.6666641235351562 0
541 84.75 100 523.6060791015625 82.6666641235351562 0
541 85.25 100 523.6060791015625 82.6666641235351562 0
574 85.25 0 557.6060791015625 82.6666641235351562 0
574 84.75 0 557.6060791015625 82.6666641235351562 0
574 84.75 100 557.6060791015625 82.6666641235351562 0
574 85.25 100 557.6060791015625 82.6666641235351562 0
412 292.25 0 395.740753173828125 281.425933837890625 0
412 291.75 0 395.740753173828125 281.425933837890625 0
412 291.75 100 395.740753173828125 281.425933837890625 0
412 292.25 100 395.740753173828125 281.425933837890625 0
439 292.25 0 423.740753173828125 281.425933837890625 0
439 291.75 0 423.740753173828125 281.425933837890625 0
439 291.75 100 423.740753173828125 281.425933837890625 0
439 292.25 100 423.740753173828125 281.425933837890625 0
425 127.25 0 404.68182373046875 121.465911865234375 0
425 126.75 0 404.68182373046875 121.465911865234375 0
425 126.75 100 404.68182373046875 121.465911865234375 0
425 127.25 100 404.68182373046875 121.465911865234375 0
447 127.25 0 427.68182373046875 121.465911865234375 0
447 126.75 0 427.68182373046875 121.465911865234375 0
447 126.75 100 427.68182373046875 121.465911865234375 0
447 127.25 100 427.68182373046875 121.465911865234375 0
505 127.25 0 488.69696044921875 123.393936157226562 0
505 126.75 0 488.69696044921875 123.393936157226562 0
505 126.75 100 488.69696044921875 123.393936157226562 0
505 127.25 100 488.69696044921875 123.393936157226562 0
538 127.25 0 522.69696044921875 123.393936157226562 0
538 126.75 0 522.69696044921875 123.393936157226562 0
538 126.75 100 522.69696044921875 123.393936157226562 0
538 127.25 100 522.69696044921875 123.393936157226562 0
524.75 291 0 510.9407958984375 282.34210205078125 0
525.25 291 0 510.9407958984375 282.34210205078125 0
525.25 291 100 510.9407958984375 282.34210205078125 0
524.75 291 100 510.9407958984375 282.34210205078125 0
524.75 329 0 510.9407958984375 321.34210205078125 0
525.25 329 0 510.9407958984375 321.34210205078125 0
525.25 329 100 510.9407958984375 321.34210205078125 0
524.75 329 100 510.9407958984375 321.34210205078125 0
545 458.25 0 538.8052978515625 452.20050048828125 0
545 457.75 0 538.8052978515625 452.20050048828125 0
545 457.75 100 538.8052978515625 452.20050048828125 0
545 458.25 100 538.8052978515625 452.20050048828125 0
524.75 175 0 517.1448974609375 171.463775634765625 0
525.25 175 0 517.1448974609375 171.463775634765625 0
525.25 175 100 517.1448974609375 171.463775634765625 0
524.75 175 100 517.1448974609375 171.463775634765625 0
524.75 244 0 517.1448974609375 241.463775634765625 0
525.25 244 0 517.1448974609375 241.463775634765625 0
525.25 244 100 517.1448974609375 241.463775634765625 0
524.75 244 100 517.1448974609375 241.463775634765625 0
316 127.25 0 308.923065185546875 124.802886962890625 0
316 126.75 0 308.923065185546875 124.802886962890625 0
316 126.75 100 308.923065185546875 124.802886962890625 0
316 127.25 100 308.923065185546875 124.802886962890625 0
368 127.25 0 361.923065185546875 124.802886962890625 0
368 126.75 0 361.923065185546875 124.802886962890625 0
368 126.75 100 361.923065185546875 124.802886962890625 0
368 127.25 100 361.923065185546875 124.802886962890625 0
539.75 9 0 538.06329345703125 7.97187519073486328 0
540.25 9 0 538.06329345703125 7.97187519073486328 0
540.25 9 100 538.06329345703125 7.97187519073486328 0
539.75 9 100 538.06329345703125 7.97187519073486328 0
539.75 329 0 538.06329345703125 328.97186279296875 0
540.25 329 0 538.06329345703125 328.97186279296875 0
540.25 329 100 538.06329345703125 328.97186279296875 0
539.75 329 100 538.06329345703125 328.97186279296875 0
540.25 449 0 534.9404296875 443.58721923828125 0
539.75 449 0 534.9404296875 443.58721923828125 0
539.75 449 100 534.9404296875 443.58721923828125 0
540.25 449 100 534.9404296875 443.58721923828125 0
318 12.25 0 309.428558349609375 11.9583330154418945 0
318 11.75 0 309.428558349609375 11.9583330154418945 0
318 11.75 100 309.428558349609375 11.9583330154418945 0
318 12.25 100 309.428558349609375 11.9583330154418945 0
360 12.25 0 352.428558349609375 11.9583330154418945 0
360 11.75 0 352.428558349609375 11.9583330154418945 0
360 11.75 100 352.428558349609375 11.9583330154418945 0
360 12.25 100 352.428558349609375 11.9583330154418945 0
151.25 3 0 150.897232055664062 1.99300289154052734 0
150.75 3 0 150.897232055664062 1.99300289154052734 0
150.75 3 100 150.897232055664062 1.99300289154052734 0
151.25 3 100 150.897232055664062 1.99300289154052734 0
539.75 551.25 0 0 0 -1
540.25 550.75 0 0 0 -1
678.75 550.75 0 0 0 -1
679.25 551.25 0 0 0 -1
539.75 551.25 100 0 0 1
540.25 550.75 100 0 0 1
678.75 550.75 100 0 0 1
679.25 551.25 100 0 0 1
540.25 550.75 0 0 0 -1
539.75 551.25 0 0 0 -1
539.75 449 0 0 0 -1
540.25 449 0 0 0 -1
540.25 550.75 100 0 0 1
539.75 551.25 100 0 0 1
539.75 449 100 0 0 1
540.25 449 100 0 0 1
679.25 551.25 0 0 0 -1
678.75 550.75 0 0 0 -1
678.75 85.25 0 0 0 -1
679.25 84.75 0 0 0 -1
679.25 551.25 100 0 0 1
678.75 550.75 100 0 0 1
678.75 85.25 100 0 0 1
679.25 84.75 100 0 0 1
429 12.25 0 0 0 -1
429 11.75 0 0 0 -1
449 11.75 0 0 0 -1
449 12.25 0 0 0 -1
429 12.25 100 0 0 1
429 11.75 100 0 0 1
449 11.75 100 0 0 1
449 12.25 100 0 0 1
469.25 521.25 0 0 0 -1
468.75 520.75 0 0 0 -1
468.75 457.75 0 0 0 -1
469.25 458.25 0 0 0 -1
469.25 521.25 100 0 0 1
468.75 520.75 100 0 0 1
468.75 457.75 100 0 0 1
469.25 458.25 100 0 0 1
468.75 520.75 0 0 0 -1
469.25 521.25 0 0 0 -1
356.75 521.25 0 0 0 -1
357.25 520.75 0 0 0 -1
468.75 520.75 100 0 0 1
469.25 521.25 100 0 0 1
356.75 521.25 100 0 0 1
357.25 520.75 100 0 0 1
469.25 458.25 0 0 0 -1
468.75 457.75 0 0 0 -1
545 457.75 0 0 0 -1
545 458.25 0 0 0 -1
469.25 458.25 100 0 0 1
468.75 457.75 100 0 0 1
545 457.75 100 0 0 1
545 458.25 100 0 0 1
642 85.25 0 0 0 -1
642 84.75 0 0 0 -1
679.25 84.75 0 0 0 -1
678.75 85.25 0 0 0 -1
642 85.25 100 0 0 1
642 84.75 100 0 0 1
679.25 84.75 100 0 0 1
678.75 85.25 100 0 0 1
541 85.25 0 0 0 -1
541 84.75 0 0 0 -1
574 84.75 0 0 0 -1
574 85.25 0 0 0 -1
541 85.25 100 0 0 1
541 84.75 100 0 0 1
574 84.75 100 0 0 1
574 85.25 100 0 0 1
412 292.25 0 0 0 -1
412 291.75 0 0 0 -1
439 291.75 0 0 0 -1
439 292.25 0 0 0 -1
412 292.25 100 0 0 1
412 291.75 100 0 0 1
439 291.75 100 0 0 1
439 292.25 100 0 0 1
425 127.25 0 0 0 -1
425 126.75 0 0 0 -1
447 126.75 0 0 0 -1
447 127.25 0 0 0 -1
425 127.25 100 0 0 1
425 126.75 100 0 0 1
447 126.75 100 0 0 1
447 127.25 100 0 0 1
505 127.25 0 0 0 -1
505 126.75 0 0 0 -1
538 126.75 0 0 0 -1
538 127.25 0 0 0 -1
505 127.25 100 0 0 1
505 126.75 100 0 0 1
538 126.75 100 0 0 1
538 127.25 100 0 0 1
150.75 432.25 0 0 0 -1
151.25 431.75 0 0 0 -1
357.25 431.75 0 0 0 -1
356.75 432.25 0 0 0 -1
150.75 432.25 100 0 0 1
151.25 431.75 100 0 0 1
357.25 431.75 100 0 0 1
356.75 432.25 100 0 0 1
151.25 431.75 0 0 0 -1
150.75 432.25 0 0 0 -1
150.75 3 0 0 0 -1
151.25 3 0 0 0 -1
151.25 431.75 100 0 0 1
150.75 432.25 100 0 0 1
150.75 3 100 0 0 1
151.25 3 100 0 0 1
356.75 432.25 0 0 0 -1
357.25 431.75 0 0 0 -1
357.25 520.75 0 0 0 -1
356.75 521.25 0 0 0 -1
356.75 432.25 100 0 0 1
357.25 431.75 100 0 0 1
357.25 520.75 100 0 0 1
356.75 521.25 100 0 0 1
524.75 291 0 0 0 -1
525.25 291 0 0 0 -1
525.25 329 0 0 0 -1
524.75 329 0 0 0 -1
524.75 291 100 0 0 1
525.25 291 100 0 0 1
525.25 329 100 0 0 1
524.75 329 100 0 0 1
524.75 175 0 0 0 -1
525.25 175 0 0 0 -1
525.25 244 0 0 0 -1
524.75 244 0 0 0 -1
524.75 175 100 0 0 1
525.25 175 100 0 0 1
525.25 244 100 0 0 1
524.75 244 100 0 0 1
316 127.25 0 0 0 -1
316 126.75 0 0 0 -1
368 126.75 0 0 0 -1
368 127.25 0 0 0 -1
316 127.25 100 0 0 1
316 126.75 100 0 0 1
368 126.75 100 0 0 1
368 127.25 100 0 0 1
539.75 9 0 0 0 -1
540.25 9 0 0 0 -1
540.25 329 0 0 0 -1
539.75 329 0 0 0 -1
539.75 9 100 0 0 1
540.25 9 100 0 0 1
540.25 329 100 0 0 1
539.75 329 100 0 0 1
318 12.25 0 0 0 -1
318 11.75 0 0 0 -1
360 11.75 0 0 0 -1
360 12.25 0 0 0 -1
318 12.25 100 0 0 1
318 11.75 100 0 0 1
360 11.75 100 0 0 1
360 12.25 100 0 0 1
4 0 1 2 3
4 4 5 6 7
4 8 9 10 11
4 12 13 14 15
4 16 17 18 19
4 20 21 22 23
4 24 25 26 27
4 28 29 30 31
4 32 33 34 35
4 36 37 38 39
4 40 41 42 43
4 44 45 46 47
4 48 49 50 51
4 52 53 54 55
4 56 57 58 59
4 60 61 62 63
4 64 65 66 67
4 68 69 70 71
4 72 73 74 75
4 76 77 78 79
4 80 81 82 83
4 84 85 86 87
4 88 89 90 91
4 92 93 94 95
4 96 97 98 99
4 100 101 102 103
4 104 105 106 107
4 108 109 110 111
4 112 113 114 115
4 116 117 118 119
4 120 121 122 123
4 124 125 126 127
4 128 129 130 131
4 132 133 134 135
4 136 137 138 139
4 140 141 142 143
4 144 145 146 147
4 148 149 150 151
4 152 153 154 155
4 156 157 158 159
4 160 161 162 163
4 164 165 166 167
4 168 169 170 171
4 172 173 174 175
4 176 177 178 179
4 180 181 182 183
4 184 185 186 187
4 188 189 190 191
4 192 193 194 195
4 196 197 198 199
4 200 201 202 203
4 204 205 206 207
4 208 209 210 211
4 212 213 214 215
4 216 217 218 219
4 220 221 222 223
4 224 225 226 227
4 228 229 230 231
4 232 233 234 235
4 236 237 238 239
4 240 241 242 243
4 244 245 246 247
4 248 249 250 251
4 252 253 254 255
4 256 257 258 259
4 260 261 262 263
4 264 265 266 267
4 268 269 270 271
4 272 273 274 275
4 276 277 278 279
4 280 281 282 283
4 284 285 286 287
4 288 289 290 291
4 292 293 294 295
4 296 297 298 299
4 300 301 302 303
4 304 305 306 307
4 308 309 310 311
4 312 313 314 315
4 316 317 318 319
4 320 321 322 323
4 324 325 326 327
4 328 329 330 331
4 332 333 334 335
4 336 337 338 339
4 340 341 342 343
4 344 345 346 347
4 348 349 350 351
4 352 353 354 355
4 356 357 358 359
4 360 361 362 363
4 364 365 366 367
4 368 369 370 371
4 372 373 374 375
4 376 377 378 379
4 380 381 382 383
4 384 385 386 387
4 388 389 390 391
4 392 393 394 395
4 396 397 398 399
4 400 401 402 403
4 404 405 406 407
4 408 409 410 411
4 412 413 414 415
