ply
format ascii 1.0
element vertex 538
property float x
property float y
property float z
property float nx
property float ny
property float nz
element quads 133
property list uchar int vertex_indices
element triads 2
property list uchar int vertex_indices
end_header
184 233 0 1 0 0
184 104 0 1 0 0
184 104 100 1 0 0
184 233 100 1 0 0
178 233 0 -1 -0 0
178 98 0 -1 -0 0
178 98 100 -1 -0 0
178 233 100 -1 -0 0
184 104 0 -0 1 0
207 104 0 -0 1 0
207 104 100 -0 1 0
184 104 100 -0 1 0
178 98 0 0 -1 0
207 98 0 0 -1 0
207 98 100 0 -1 0
178 98 100 0 -1 0
184.004257202148438 335 0 1 0 0
184.004257202148438 271 0 1 0 0
184.004257202148438 271 100 1 0 0
184.004257202148438 335 100 1 0 0
178.004257202148438 335 0 -1 -0 0
178.004257202148438 271 0 -1 -0 0
178.004257202148438 271 100 -1 -0 0
178.004257202148438 335 100 -1 -0 0
555 198.565216064453125 0 -0 -1 0
458 198.565216064453125 0 -0 -1 0
458 198.565216064453125 100 -0 -1 0
555 198.565216064453125 100 -0 -1 0
555 204.565216064453125 0 0 1 0
458 204.565216064453125 0 0 1 0
458 204.565216064453125 100 0 1 0
555 204.565216064453125 100 0 1 0
382 199 0 -0 -1 0
343 199 0 -0 -1 0
343 199 100 -0 -1 0
382 199 100 -0 -1 0
382 205 0 0 1 0
349 205 0 0 1 0
349 205 100 0 1 0
382 205 100 0 1 0
343 199 0 -1 0 0
343 355 0 -1 0 0
343 355 100 -1 0 0
343 199 100 -1 0 0
349 205 0 1 -0 0
349 355 0 1 -0 0
349 355 100 1 -0 0
349 205 100 1 -0 0
207 198.565216064453125 0 -0 -1 0
184 198.565216064453125 0 -0 -1 0
184 198.565216064453125 100 -0 -1 0
207 198.565216064453125 100 -0 -1 0
207 204.565216064453125 0 0 1 0
184 204.565216064453125 0 0 1 0
184 204.565216064453125 100 0 1 0
207 204.565216064453125 100 0 1 0
557 406.49176025390625 0 -0 -1 0
500 406.49176025390625 0 -0 -1 0
500 406.49176025390625 100 -0 -1 0
557 406.49176025390625 100 -0 -1 0
557 412.49176025390625 0 0 1 0
500 412.49176025390625 0 0 1 0
500 412.49176025390625 100 0 1 0
557 412.49176025390625 100 0 1 0
462 406.49176025390625 0 -0 -1 0
387 406.49176025390625 0 -0 -1 0
387 406.49176025390625 100 -0 -1 0
462 406.49176025390625 100 -0 -1 0
462 412.49176025390625 0 0 1 0
387 412.49176025390625 0 0 1 0
387 412.49176025390625 100 0 1 0
462 412.49176025390625 100 0 1 0
349 406.49176025390625 0 -0 -1 0
274 406.49176025390625 0 -0 -1 0
274 406.49176025390625 100 -0 -1 0
349 406.49176025390625 100 -0 -1 0
349 412.49176025390625 0 0 1 0
274 412.49176025390625 0 0 1 0
274 412.49176025390625 100 0 1 0
349 412.49176025390625 100 0 1 0
356 97.6257171630859375 0 -0 -1 0
269 97.6257171630859375 0 -0 -1 0
269 97.6257171630859375 100 -0 -1 0
356 97.6257171630859375 100 -0 -1 0
356 103.625717163085938 0 0 1 0
269 103.625717163085938 0 0 1 0
269 103.625717163085938 100 0 1 0
356 103.625717163085938 100 0 1 0
460 97.6257171630859375 0 -0 -1 0
405 97.6257171630859375 0 -0 -1 0
405 97.6257171630859375 100 -0 -1 0
460 97.6257171630859375 100 -0 -1 0
460 103.625717163085938 0 0 1 0
405 103.625717163085938 0 0 1 0
405 103.625717163085938 100 0 1 0
460 103.625717163085938 100 0 1 0
557.71868896484375 343 0 1 0 0
557.71868896484375 274 0 1 0 0
557.71868896484375 274 100 1 0 0
557.71868896484375 343 100 1 0 0
551.71868896484375 343 0 -1 -0 0
551.71868896484375 274 0 -1 -0 0
551.71868896484375 274 100 -1 -0 0
551.71868896484375 343 100 -1 -0 0
558 236 0 1 0 0
558 202 0 1 0 0
558 202 100 1 0 0
558 236 100 1 0 0
552 236 0 -1 -0 0
552 202 0 -1 -0 0
552 202 100 -1 -0 0
552 236 100 -1 -0 0
463 163 0 1 0 0
463 101 0 1 0 0
463 101 100 1 0 0
463 163 100 1 0 0
457 163 0 -1 -0 0
457 101 0 -1 -0 0
457 101 100 -1 -0 0
457 163 100 -1 -0 0
388.508209228515625 354 0 1 0 0
388.508209228515625 308 0 1 0 0
388.508209228515625 308 100 1 0 0
388.508209228515625 354 100 1 0 0
382.508209228515625 354 0 -1 -0 0
382.508209228515625 308 0 -1 -0 0
382.508209228515625 308 100 -1 -0 0
382.508209228515625 354 100 -1 -0 0
302.21234130859375 132 0 1 0 0
302.21234130859375 103 0 1 0 0
302.21234130859375 103 100 1 0 0
302.21234130859375 132 100 1 0 0
296.21234130859375 132 0 -1 -0 0
296.21234130859375 103 0 -1 -0 0
296.21234130859375 103 100 -1 -0 0
296.21234130859375 132 100 -1 -0 0
178.004257202148438 371.999664306640625 0 -1 -0.000115204718895256519 0
177.999649047851562 412 0 -1 -0.000115204718895256519 0
177.999649047851562 412 100 -1 -0.000115204718895256519 0
178.004257202148438 371.999664306640625 100 -1 -0.000115204718895256519 0
184.004257202148438 372.000335693359375 0 1 0.000115204718895256519 0
184.000350952148438 406 0 1 0.000115204718895256519 0
184.000350952148438 406 100 1 0.000115204718895256519 0
184.004257202148438 372.000335693359375 100 1 0.000115204718895256519 0
177.999649047851562 412 0 -0 1 0
237 412 0 -0 1 0
237 412 100 -0 1 0
177.999649047851562 412 100 -0 1 0
184.000350952148438 406 0 0 -1 0
237 406 0 0 -1 0
237 406 100 0 -1 0
184.000350952148438 406 100 0 -1 0
346.03607177734375 198.5654296875 0 0.0120250321924686432 -0.999927699565887451 0
302.02105712890625 198.036117553710938 0 0.0120250321924686432 -0.999927699565887451 0
302.02105712890625 198.036117553710938 100 0.0120250321924686432 -0.999927699565887451 0
346.03607177734375 198.5654296875 100 0.0120250321924686432 -0.999927699565887451 0
345.96392822265625 204.56500244140625 0 -0.0120250321924686432 0.999927699565887451 0
299.00213623046875 204.000244140625 0 -0.0120250321924686432 0.999927699565887451 0
299.00213623046875 204.000244140625 100 -0.0120250321924686432 0.999927699565887451 0
345.96392822265625 204.56500244140625 100 -0.0120250321924686432 0.999927699565887451 0
296.0208740234375 198.039825439453125 0 -0.0134563380852341652 -0.999909460544586182 0
256.959625244140625 198.56549072265625 0 -0.0134563380852341652 -0.999909460544586182 0
256.959625244140625 198.56549072265625 100 -0.0134563380852341652 -0.999909460544586182 0
296.0208740234375 198.039825439453125 100 -0.0134563380852341652 -0.999909460544586182 0
299.00213623046875 204.000244140625 0 0.0134563380852341652 0.999909460544586182 0
257.040374755859375 204.56494140625 0 0.0134563380852341652 0.999909460544586182 0
257.040374755859375 204.56494140625 100 0.0134563380852341652 0.999909460544586182 0
299.00213623046875 204.000244140625 100 0.0134563380852341652 0.999909460544586182 0
302.02105712890625 198.036117553710938 0 0.999974966049194336 0.0070774485357105732 0
302.212249755859375 171.021224975585938 0 0.999974966049194336 0.0070774485357105732 0
302.212249755859375 171.021224975585938 100 0.999974966049194336 0.0070774485357105732 0
302.02105712890625 198.036117553710938 100 0.999974966049194336 0.0070774485357105732 0
296.0208740234375 198.039825439453125 0 -0.999974966049194336 -0.0070774485357105732 0
296.21240234375 170.978775024414062 0 -0.999974966049194336 -0.0070774485357105732 0
296.21240234375 170.978775024414062 100 -0.999974966049194336 -0.0070774485357105732 0
296.0208740234375 198.039825439453125 100 -0.999974966049194336 -0.0070774485357105732 0
348.021514892578125 271.49462890625 0 0.00716937566176056862 0.999974310398101807 0
419.9554443359375 270.9788818359375 0 0.00716937566176056862 0.999974310398101807 0
419.9554443359375 270.9788818359375 100 0.00716937566176056862 0.999974310398101807 0
348.021514892578125 271.49462890625 100 0.00716937566176056862 0.999974310398101807 0
347.978485107421875 265.494781494140625 0 -0.00716937566176056862 -0.999974310398101807 0
414.0445556640625 265.0211181640625 0 -0.00716937566176056862 -0.999974310398101807 0
414.0445556640625 265.0211181640625 100 -0.00716937566176056862 -0.999974310398101807 0
347.978485107421875 265.494781494140625 100 -0.00716937566176056862 -0.999974310398101807 0
419.9554443359375 270.9788818359375 0 0.999886453151702881 0.0150704765692353249 0
420.994415283203125 202.045211791992188 0 0.999886453151702881 0.0150704765692353249 0
420.994415283203125 202.045211791992188 100 0.999886453151702881 0.0150704765692353249 0
419.9554443359375 270.9788818359375 100 0.999886453151702881 0.0150704765692353249 0
414.0445556640625 265.0211181640625 0 -0.999886453151702881 -0.0150704765692353249 0
414.9951171875 201.954788208007812 0 -0.999886453151702881 -0.0150704765692353249 0
414.9951171875 201.954788208007812 100 -0.999886453151702881 -0.0150704765692353249 0
414.0445556640625 265.0211181640625 100 -0.999886453151702881 -0.0150704765692353249 0
184 233 0 182.573638916015625 232.193801879882812 0
178 233 0 182.573638916015625 232.193801879882812 0
178 233 100 182.573638916015625 232.193801879882812 0
184 233 100 182.573638916015625 232.193801879882812 0
184.004257202148438 335 0 181.129196166992188 330.765625 0
178.004257202148438 335 0 181.129196166992188 330.765625 0
178.004257202148438 335 100 181.129196166992188 330.765625 0
184.004257202148438 335 100 181.129196166992188 330.765625 0
184.004257202148438 271 0 181.129196166992188 265.765625 0
178.004257202148438 271 0 181.129196166992188 265.765625 0
178.004257202148438 271 100 181.129196166992188 265.765625 0
184.004257202148438 271 100 181.129196166992188 265.765625 0
555 198.565216064453125 0 550.2783203125 196.518157958984375 0
555 204.565216064453125 0 550.2783203125 196.518157958984375 0
555 204.565216064453125 100 550.2783203125 196.518157958984375 0
555 198.565216064453125 100 550.2783203125 196.518157958984375 0
458 198.565216064453125 0 452.278350830078125 196.518157958984375 0
458 204.565216064453125 0 452.278350830078125 196.518157958984375 0
458 204.565216064453125 100 452.278350830078125 196.518157958984375 0
458 198.565216064453125 100 452.278350830078125 196.518157958984375 0
382 199 0 373.20513916015625 193.897430419921875 0
382 205 0 373.20513916015625 193.897430419921875 0
382 205 100 373.20513916015625 193.897430419921875 0
382 199 100 373.20513916015625 193.897430419921875 0
207 198.565216064453125 0 199 189.93194580078125 0
207 204.565216064453125 0 199 189.93194580078125 0
207 204.565216064453125 100 199 189.93194580078125 0
207 198.565216064453125 100 199 189.93194580078125 0
184 198.565216064453125 0 175 189.93194580078125 0
184 204.565216064453125 0 175 189.93194580078125 0
184 204.565216064453125 100 175 189.93194580078125 0
184 198.565216064453125 100 175 189.93194580078125 0
557 406.49176025390625 0 548.22808837890625 399.3603515625 0
557 412.49176025390625 0 548.22808837890625 399.3603515625 0
557 412.49176025390625 100 548.22808837890625 399.3603515625 0
557 406.49176025390625 100 548.22808837890625 399.3603515625 0
500 406.49176025390625 0 490.228057861328125 399.3603515625 0
500 412.49176025390625 0 490.228057861328125 399.3603515625 0
500 412.49176025390625 100 490.228057861328125 399.3603515625 0
500 406.49176025390625 100 490.228057861328125 399.3603515625 0
462 406.49176025390625 0 456.839996337890625 401.071868896484375 0
462 412.49176025390625 0 456.839996337890625 401.071868896484375 0
462 412.49176025390625 100 456.839996337890625 401.071868896484375 0
462 406.49176025390625 100 456.839996337890625 401.071868896484375 0
387 406.49176025390625 0 380.839996337890625 401.071868896484375 0
387 412.49176025390625 0 380.839996337890625 401.071868896484375 0
387 412.49176025390625 100 380.839996337890625 401.071868896484375 0
387 406.49176025390625 100 380.839996337890625 401.071868896484375 0
349 406.49176025390625 0 345.3466796875 401.071868896484375 0
349 412.49176025390625 0 345.3466796875 401.071868896484375 0
349 412.49176025390625 100 345.3466796875 401.071868896484375 0
349 406.49176025390625 100 345.3466796875 401.071868896484375 0
274 406.49176025390625 0 269.3466796875 401.071868896484375 0
274 412.49176025390625 0 269.3466796875 401.071868896484375 0
274 412.49176025390625 100 269.3466796875 401.071868896484375 0
274 406.49176025390625 100 269.3466796875 401.071868896484375 0
343 355 0 340.80126953125 353.724365234375 0
349 355 0 340.80126953125 353.724365234375 0
349 355 100 340.80126953125 353.724365234375 0
343 355 100 340.80126953125 353.724365234375 0
356 97.6257171630859375 0 352.908050537109375 96.5035781860351562 0
356 103.625717163085938 0 352.908050537109375 96.5035781860351562 0
356 103.625717163085938 100 352.908050537109375 96.5035781860351562 0
356 97.6257171630859375 100 352.908050537109375 96.5035781860351562 0
269 97.6257171630859375 0 264.908050537109375 96.5035781860351562 0
269 103.625717163085938 0 264.908050537109375 96.5035781860351562 0
269 103.625717163085938 100 264.908050537109375 96.5035781860351562 0
269 97.6257171630859375 100 264.908050537109375 96.5035781860351562 0
207 104 0 199 99.4782638549804688 0
207 98 0 199 99.4782638549804688 0
207 98 100 199 99.4782638549804688 0
207 104 100 199 99.4782638549804688 0
460 97.6257171630859375 0 452.6363525390625 95.8507003784179688 0
460 103.625717163085938 0 452.6363525390625 95.8507003784179688 0
460 103.625717163085938 100 452.6363525390625 95.8507003784179688 0
460 97.6257171630859375 100 452.6363525390625 95.8507003784179688 0
405 97.6257171630859375 0 396.6363525390625 95.8507003784179688 0
405 103.625717163085938 0 396.6363525390625 95.8507003784179688 0
405 103.625717163085938 100 396.6363525390625 95.8507003784179688 0
405 97.6257171630859375 100 396.6363525390625 95.8507003784179688 0
557.71868896484375 343 0 549.63580322265625 339.02899169921875 0
551.71868896484375 343 0 549.63580322265625 339.02899169921875 0
551.71868896484375 343 100 549.63580322265625 339.02899169921875 0
557.71868896484375 343 100 549.63580322265625 339.02899169921875 0
557.71868896484375 274 0 549.63580322265625 269.02899169921875 0
551.71868896484375 274 0 549.63580322265625 269.02899169921875 0
551.71868896484375 274 100 549.63580322265625 269.02899169921875 0
557.71868896484375 274 100 549.63580322265625 269.02899169921875 0
558 236 0 541.5882568359375 230.058822631835938 0
552 236 0 541.5882568359375 230.058822631835938 0
552 236 100 541.5882568359375 230.058822631835938 0
558 236 100 541.5882568359375 230.058822631835938 0
558 202 0 541.5882568359375 195.058822631835938 0
552 202 0 541.5882568359375 195.058822631835938 0
552 202 100 541.5882568359375 195.058822631835938 0
558 202 100 541.5882568359375 195.058822631835938 0
463 163 0 455.532257080078125 161.3709716796875 0
457 163 0 455.532257080078125 161.3709716796875 0
457 163 100 455.532257080078125 161.3709716796875 0
463 163 100 455.532257080078125 161.3709716796875 0
463 101 0 455.532257080078125 98.3709640502929688 0
457 101 0 455.532257080078125 98.3709640502929688 0
457 101 100 455.532257080078125 98.3709640502929688 0
463 101 100 455.532257080078125 98.3709640502929688 0
388.508209228515625 354 0 380.0623779296875 347.304351806640625 0
382.508209228515625 354 0 380.0623779296875 347.304351806640625 0
382.508209228515625 354 100 380.0623779296875 347.304351806640625 0
388.508209228515625 354 100 380.0623779296875 347.304351806640625 0
388.508209228515625 308 0 380.0623779296875 300.304351806640625 0
382.508209228515625 308 0 380.0623779296875 300.304351806640625 0
382.508209228515625 308 100 380.0623779296875 300.304351806640625 0
388.508209228515625 308 100 380.0623779296875 300.304351806640625 0
302.21234130859375 132 0 291.79119873046875 128.448272705078125 0
296.21234130859375 132 0 291.79119873046875 128.448272705078125 0
296.21234130859375 132 100 291.79119873046875 128.448272705078125 0
302.21234130859375 132 100 291.79119873046875 128.448272705078125 0
302.21234130859375 103 0 291.79119873046875 98.448272705078125 0
296.21234130859375 103 0 291.79119873046875 98.448272705078125 0
296.21234130859375 103 100 291.79119873046875 98.448272705078125 0
302.21234130859375 103 100 291.79119873046875 98.448272705078125 0
178.004257202148438 371.999664306640625 0 173.554306030273438 361.699737548828125 0
184.004257202148438 372.000335693359375 0 173.554306030273438 361.699737548828125 0
184.004257202148438 372.000335693359375 100 173.554306030273438 361.699737548828125 0
178.004257202148438 371.999664306640625 100 173.554306030273438 361.699737548828125 0
237 412 0 233.983078002929688 405.016998291015625 0
237 406 0 233.983078002929688 405.016998291015625 0
237 406 100 233.983078002929688 405.016998291015625 0
237 412 100 233.983078002929688 405.016998291015625 0
346.03607177734375 198.5654296875 0 339.1748046875 194.066482543945312 0
345.96392822265625 204.56500244140625 0 339.1748046875 194.066482543945312 0
345.96392822265625 204.56500244140625 100 339.1748046875 194.066482543945312 0
346.03607177734375 198.5654296875 100 339.1748046875 194.066482543945312 0
256.959625244140625 198.56549072265625 0 249.381942749023438 193.4959716796875 0
257.040374755859375 204.56494140625 0 249.381942749023438 193.4959716796875 0
257.040374755859375 204.56494140625 100 249.381942749023438 193.4959716796875 0
256.959625244140625 198.56549072265625 100 249.381942749023438 193.4959716796875 0
302.212249755859375 171.021224975585938 0 291.032745361328125 163.690780639648438 0
296.21240234375 170.978775024414062 0 291.032745361328125 163.690780639648438 0
296.21240234375 170.978775024414062 100 291.032745361328125 163.690780639648438 0
302.212249755859375 171.021224975585938 100 291.032745361328125 163.690780639648438 0
348.021514892578125 271.49462890625 0 342.18359375 267.7276611328125 0
347.978485107421875 265.494781494140625 0 342.18359375 267.7276611328125 0
347.978485107421875 265.494781494140625 100 342.18359375 267.7276611328125 0
348.021514892578125 271.49462890625 100 342.18359375 267.7276611328125 0
420.994415283203125 202.045211791992188 0 414.9029541015625 198.114654541015625 0
414.9951171875 201.954788208007812 0 414.9029541015625 198.114654541015625 0
414.9951171875 201.954788208007812 100 414.9029541015625 198.114654541015625 0
420.994415283203125 202.045211791992188 100 414.9029541015625 198.114654541015625 0
184 233 0 0 0 -1
178 233 0 0 0 -1
178 98 0 0 0 -1
184 104 0 0 0 -1
184 233 100 0 0 1
178 233 100 0 0 1
178 98 100 0 0 1
184 104 100 0 0 1
184 104 0 0 0 -1
178 98 0 0 0 -1
207 98 0 0 0 -1
207 104 0 0 0 -1
184 104 100 0 0 1
178 98 100 0 0 1
207 98 100 0 0 1
207 104 100 0 0 1
184.004257202148438 335 0 0 0 -1
178.004257202148438 335 0 0 0 -1
178.004257202148438 271 0 0 0 -1
184.004257202148438 271 0 0 0 -1
184.004257202148438 335 100 0 0 1
178.004257202148438 335 100 0 0 1
178.004257202148438 271 100 0 0 1
184.004257202148438 271 100 0 0 1
555 198.565216064453125 0 0 0 -1
555 204.565216064453125 0 0 0 -1
458 204.565216064453125 0 0 0 -1
458 198.565216064453125 0 0 0 -1
555 198.565216064453125 100 0 0 1
555 204.565216064453125 100 0 0 1
458 204.565216064453125 100 0 0 1
458 198.565216064453125 100 0 0 1
382 199 0 0 0 -1
382 205 0 0 0 -1
349 205 0 0 0 -1
343 199 0 0 0 -1
382 199 100 0 0 1
382 205 100 0 0 1
349 205 100 0 0 1
343 199 100 0 0 1
343 199 0 0 0 -1
349 205 0 0 0 -1
349 355 0 0 0 -1
343 355 0 0 0 -1
343 199 100 0 0 1
349 205 100 0 0 1
349 355 100 0 0 1
343 355 100 0 0 1
207 198.565216064453125 0 0 0 -1
207 204.565216064453125 0 0 0 -1
184 204.565216064453125 0 0 0 -1
184 198.565216064453125 0 0 0 -1
207 198.565216064453125 100 0 0 1
207 204.565216064453125 100 0 0 1
184 204.565216064453125 100 0 0 1
184 198.565216064453125 100 0 0 1
557 406.49176025390625 0 0 0 -1
557 412.49176025390625 0 0 0 -1
500 412.49176025390625 0 0 0 -1
500 406.49176025390625 0 0 0 -1
557 406.49176025390625 100 0 0 1
557 412.49176025390625 100 0 0 1
500 412.49176025390625 100 0 0 1
500 406.49176025390625 100 0 0 1
462 406.49176025390625 0 0 0 -1
462 412.49176025390625 0 0 0 -1
387 412.49176025390625 0 0 0 -1
387 406.49176025390625 0 0 0 -1
462 406.49176025390625 100 0 0 1
462 412.49176025390625 100 0 0 1
387 412.49176025390625 100 0 0 1
387 406.49176025390625 100 0 0 1
349 406.49176025390625 0 0 0 -1
349 412.49176025390625 0 0 0 -1
274 412.49176025390625 0 0 0 -1
274 406.49176025390625 0 0 0 -1
349 406.49176025390625 100 0 0 1
349 412.49176025390625 100 0 0 1
274 412.49176025390625 100 0 0 1
274 406.49176025390625 100 0 0 1
356 97.6257171630859375 0 0 0 -1
356 103.625717163085938 0 0 0 -1
269 103.625717163085938 0 0 0 -1
269 97.6257171630859375 0 0 0 -1
356 97.6257171630859375 100 0 0 1
356 103.625717163085938 100 0 0 1
269 103.625717163085938 100 0 0 1
269 97.6257171630859375 100 0 0 1
460 97.6257171630859375 0 0 0 -1
460 103.625717163085938 0 0 0 -1
405 103.625717163085938 0 0 0 -1
405 97.6257171630859375 0 0 0 -1
460 97.6257171630859375 100 0 0 1
460 103.625717163085938 100 0 0 1
405 103.625717163085938 100 0 0 1
405 97.6257171630859375 100 0 0 1
557.71868896484375 343 0 0 0 -1
551.71868896484375 343 0 0 0 -1
551.71868896484375 274 0 0 0 -1
557.71868896484375 274 0 0 0 -1
557.71868896484375 343 100 0 0 1
551.71868896484375 343 100 0 0 1
551.71868896484375 274 100 0 0 1
557.71868896484375 274 100 0 0 1
558 236 0 0 0 -1
552 236 0 0 0 -1
552 202 0 0 0 -1
558 202 0 0 0 -1
558 236 100 0 0 1
552 236 100 0 0 1
552 202 100 0 0 1
558 202 100 0 0 1
463 163 0 0 0 -1
457 163 0 0 0 -1
457 101 0 0 0 -1
463 101 0 0 0 -1
463 163 100 0 0 1
457 163 100 0 0 1
457 101 100 0 0 1
463 101 100 0 0 1
388.508209228515625 354 0 0 0 -1
382.508209228515625 354 0 0 0 -1
382.508209228515625 308 0 0 0 -1
388.508209228515625 308 0 0 0 -1
388.508209228515625 354 100 0 0 1
382.508209228515625 354 100 0 0 1
382.508209228515625 308 100 0 0 1
388.508209228515625 308 100 0 0 1
302.21234130859375 132 0 0 0 -1
296.21234130859375 132 0 0 0 -1
296.21234130859375 103 0 0 0 -1
302.21234130859375 103 0 0 0 -1
302.21234130859375 132 100 0 0 1
296.21234130859375 132 100 0 0 1
296.21234130859375 103 100 0 0 1
302.21234130859375 103 100 0 0 1
178.004257202148438 371.999664306640625 0 0 0 -1
184.004257202148438 372.000335693359375 0 0 0 -1
184.000350952148438 406 0 0 0 -1
177.999649047851562 412 0 0 0 -1
178.004257202148438 371.999664306640625 100 0 0 1
184.004257202148438 372.000335693359375 100 0 0 1
184.000350952148438 406 100 0 0 1
177.999649047851562 412 100 0 0 1
177.999649047851562 412 0 0 0 -1
184.000350952148438 406 0 0 0 -1
237 406 0 0 0 -1
237 412 0 0 0 -1
177.999649047851562 412 100 0 0 1
184.000350952148438 406 100 0 0 1
237 406 100 0 0 1
237 412 100 0 0 1
346.03607177734375 198.5654296875 0 0 0 -1
345.96392822265625 204.56500244140625 0 0 0 -1
299.00213623046875 204.000244140625 0 0 0 -1
302.02105712890625 198.036117553710938 0 0 0 -1
346.03607177734375 198.5654296875 100 0 0 1
345.96392822265625 204.56500244140625 100 0 0 1
299.00213623046875 204.000244140625 100 0 0 1
302.02105712890625 198.036117553710938 100 0 0 1
296.0208740234375 198.039825439453125 0 0 0 -1
299.00213623046875 204.000244140625 0 0 0 -1
257.040374755859375 204.56494140625 0 0 0 -1
256.959625244140625 198.56549072265625 0 0 0 -1
296.0208740234375 198.039825439453125 100 0 0 1
299.00213623046875 204.000244140625 100 0 0 1
257.040374755859375 204.56494140625 100 0 0 1
256.959625244140625 198.56549072265625 100 0 0 1
302.02105712890625 198.036117553710938 0 0 0 -1
296.0208740234375 198.039825439453125 0 0 0 -1
296.21240234375 170.978775024414062 0 0 0 -1
302.212249755859375 171.021224975585938 0 0 0 -1
302.02105712890625 198.036117553710938 100 0 0 1
296.0208740234375 198.039825439453125 100 0 0 1
296.21240234375 170.978775024414062 100 0 0 1
302.212249755859375 171.021224975585938 100 0 0 1
348.021514892578125 271.49462890625 0 0 0 -1
347.978485107421875 265.494781494140625 0 0 0 -1
414.0445556640625 265.0211181640625 0 0 0 -1
419.9554443359375 270.9788818359375 0 0 0 -1
348.021514892578125 271.49462890625 100 0 0 1
347.978485107421875 265.494781494140625 100 0 0 1
414.0445556640625 265.0211181640625 100 0 0 1
419.9554443359375 270.9788818359375 100 0 0 1
419.9554443359375 270.9788818359375 0 0 0 -1
414.0445556640625 265.0211181640625 0 0 0 -1
414.9951171875 201.954788208007812 0 0 0 -1
420.994415283203125 202.045211791992188 0 0 0 -1
419.9554443359375 270.9788818359375 100 0 0 1
414.0445556640625 265.0211181640625 100 0 0 1
414.9951171875 201.954788208007812 100 0 0 1
420.994415283203125 202.045211791992188 100 0 0 1
299.00213623046875 204.000244140625 0 0 0 -1
296.0208740234375 198.039825439453125 0 0 0 -1
302.02105712890625 198.036117553710938 0 0 0 -1
299.00213623046875 204.000244140625 100 0 0 1
296.0208740234375 198.039825439453125 100 0 0 1
302.02105712890625 198.036117553710938 100 0 0 1
4 0 1 2 3
4 4 5 6 7
4 8 9 10 11
4 12 13 14 15
4 16 17 18 19
4 20 21 22 23
4 24 25 26 27
4 28 29 30 31
4 32 33 34 35
4 36 37 38 39
4 40 41 42 43
4 44 45 46 47
4 48 49 50 51
4 52 53 54 55
4 56 57 58 59
4 60 61 62 63
4 64 65 66 67
4 68 69 70 71
4 72 73 74 75
4 76 77 78 79
4 80 81 82 83
4 84 85 86 87
4 88 89 90 91
4 92 93 94 95
4 96 97 98 99
4 100 101 102 103
4 104 105 106 107
4 108 109 110 111
4 112 113 114 115
4 116 117 118 119
4 120 121 122 123
4 124 125 126 127
4 128 129 130 131
4 132 133 134 135
4 136 137 138 139
4 140 141 142 143
4 144 145 146 147
4 148 149 150 151
4 152 153 154 155
4 156 157 158 159
4 160 161 162 163
4 164 165 166 167
4 168 169 170 171
4 172 173 174 175
4 176 177 178 179
4 180 181 182 183
4 184 185 186 187
4 188 189 190 191
4 192 193 194 195
4 196 197 198 199
4 200 201 202 203
4 204 205 206 207
4 208 209 210 211
4 212 213 214 215
4 216 217 218 219
4 220 221 222 223
4 224 225 226 227
4 228 229 230 231
4 232 233 234 235
4 236 237 238 239
4 240 241 242 243
4 244 245 246 247
4 248 249 250 251
4 252 253 254 255
4 256 257 258 259
4 260 261 262 263
4 264 265 266 267
4 268 269 270 271
4 272 273 274 275
4 276 277 278 279
4 280 281 282 283
4 284 285 286 287
4 288 289 290 291
4 292 293 294 295
4 296 297 298 299
4 300 301 302 303
4 304 305 306 307
4 308 309 310 311
4 312 313 314 315
4 316 317 318 319
4 320 321 322 323
4 324 325 326 327
4 328 329 330 331
4 332 333 334 335
4 336 337 338 339
4 340 341 342 343
4 344 345 346 347
4 348 349 350 351
4 352 353 354 355
4 356 357 358 359
4 360 361 362 363
4 364 365 366 367
4 368 369 370 371
4 372 373 374 375
4 376 377 378 379
4 380 381 382 383
4 384 385 386 387
4 388 389 390 391
4 392 393 394 395
4 396 397 398 399
4 400 401 402 403
4 404 405 406 407
4 408 409 410 411
4 412 413 414 415
4 416 417 418 419
4 420 421 422 423
4 424 425 426 427
4 428 429 430 431
4 432 433 434 435
4 436 437 438 439
4 440 441 442 443
4 444 445 446 447
4 448 449 450 451
4 452 453 454 455
4 456 457 458 459
4 460 461 462 463
4 464 465 466 467
4 468 469 470 471
4 472 473 474 475
4 476 477 478 479
4 480 481 482 483
4 484 485 486 487
4 488 489 490 491
4 492 493 494 495
4 496 497 498 499
4 500 501 502 503
4 504 505 506 507
4 508 509 510 511
4 512 513 514 515
4 516 517 518 519
4 520 521 522 523
4 524 525 526 527
4 528 529 530 531
3 532 533 534
3 535 536 537
