ply
format ascii 1.0
element vertex 256
property float x
property float y
property float z
property float nx
property float ny
property float nz
element quads 64
property list uchar int vertex_indices
end_header
179.75 408.25 0 -0 1 0
557 408.25 0 -0 1 0
557 408.25 100 -0 1 0
179.75 408.25 100 -0 1 0
180.25 407.75 0 0 -1 0
557 407.75 0 0 -1 0
557 407.75 100 0 -1 0
180.25 407.75 100 0 -1 0
180.25 407.75 0 1 0 0
180.25 99 0 1 0 0
180.25 99 100 1 0 0
180.25 407.75 100 1 0 0
179.75 408.25 0 -1 -0 0
179.75 99 0 -1 -0 0
179.75 99 100 -1 -0 0
179.75 408.25 100 -1 -0 0
405 101.25 0 -0 1 0
460.75 101.25 0 -0 1 0
460.75 101.25 100 -0 1 0
405 101.25 100 -0 1 0
405 100.75 0 0 -1 0
461.25 100.75 0 0 -1 0
461.25 100.75 100 0 -1 0
405 100.75 100 0 -1 0
460.75 101.25 0 -1 0 0
460.75 204 0 -1 0 0
460.75 204 100 -1 0 0
460.75 101.25 100 -1 0 0
461.25 100.75 0 1 -0 0
461.25 204 0 1 -0 0
461.25 204 100 1 -0 0
461.25 100.75 100 1 -0 0
299.25 201 0 1 0 0
299.25 103 0 1 0 0
299.25 103 100 1 0 0
299.25 201 100 1 0 0
298.75 201 0 -1 -0 0
298.75 103 0 -1 -0 0
298.75 103 100 -1 -0 0
298.75 201 100 -1 -0 0
269 101.25 0 -0 1 0
356 101.25 0 -0 1 0
356 101.25 100 -0 1 0
269 101.25 100 -0 1 0
269 100.75 0 0 -1 0
356 100.75 0 0 -1 0
356 100.75 100 0 -1 0
269 100.75 100 0 -1 0
348 269.25 0 -0 1 0
419.25 269.25 0 -0 1 0
419.25 269.25 100 -0 1 0
348 269.25 100 -0 1 0
348 268.75 0 0 -1 0
418.75 268.75 0 0 -1 0
418.75 268.75 100 0 -1 0
348 268.75 100 0 -1 0
419.25 269.25 0 1 0 0
419.25 204 0 1 0 0
419.25 204 100 1 0 0
419.25 269.25 100 1 0 0
418.75 268.75 0 -1 -0 0
418.75 204 0 -1 -0 0
418.75 204 100 -1 -0 0
418.75 268.75 100 -1 -0 0
346.75 202 0 -1 0 0
346.75 355 0 -1 0 0
346.75 355 100 -1 0 0
346.75 202 100 -1 0 0
347.25 202 0 1 -0 0
347.25 355 0 1 -0 0
347.25 355 100 1 -0 0
347.25 202 100 1 -0 0
257 199.25 0 -0 1 0
555.75 199.25 0 -0 1 0
555.75 199.25 100 -0 1 0
257 199.25 100 -0 1 0
257 198.75 0 0 -1 0
556.25 198.75 0 0 -1 0
556.25 198.75 100 0 -1 0
257 198.75 100 0 -1 0
555.75 199.25 0 -1 0 0
555.75 343 0 -1 0 0
555.75 343 100 -1 0 0
555.75 199.25 100 -1 0 0
556.25 198.75 0 1 -0 0
556.25 343 0 1 -0 0
556.25 343 100 1 -0 0
556.25 198.75 100 1 -0 0
385.75 271 0 -1 0 0
385.75 354 0 -1 0 0
385.75 354 100 -1 0 0
385.75 271 100 -1 0 0
386.25 271 0 1 -0 0
386.25 354 0 1 -0 0
386.25 354 100 1 -0 0
386.25 271 100 1 -0 0
557 408.25 0 556.52349853515625 407.167816162109375 0
557 407.75 0 556.52349853515625 407.167816162109375 0
557 407.75 100 556.52349853515625 407.167816162109375 0
557 408.25 100 556.52349853515625 407.167816162109375 0
405 101.25 0 396.73541259765625 99.4338531494140625 0
405 100.75 0 396.73541259765625 99.4338531494140625 0
405 100.75 100 396.73541259765625 99.4338531494140625 0
405 101.25 100 396.73541259765625 99.4338531494140625 0
299.25 201 0 296.196441650390625 199.948974609375 0
298.75 201 0 296.196441650390625 199.948974609375 0
298.75 201 100 296.196441650390625 199.948974609375 0
299.25 201 100 296.196441650390625 199.948974609375 0
299.25 103 0 296.196441650390625 100.948982238769531 0
298.75 103 0 296.196441650390625 100.948982238769531 0
298.75 103 100 296.196441650390625 100.948982238769531 0
299.25 103 100 296.196441650390625 100.948982238769531 0
180.25 99 0 179.66619873046875 97.679351806640625 0
179.75 99 0 179.66619873046875 97.679351806640625 0
179.75 99 100 179.66619873046875 97.679351806640625 0
180.25 99 100 179.66619873046875 97.679351806640625 0
269 101.25 0 264.908050537109375 100.086204528808594 0
269 100.75 0 264.908050537109375 100.086204528808594 0
269 100.75 100 264.908050537109375 100.086204528808594 0
269 101.25 100 264.908050537109375 100.086204528808594 0
356 101.25 0 352.908050537109375 100.086204528808594 0
356 100.75 0 352.908050537109375 100.086204528808594 0
356 100.75 100 352.908050537109375 100.086204528808594 0
356 101.25 100 352.908050537109375 100.086204528808594 0
348 269.25 0 342.11578369140625 265.471038818359375 0
348 268.75 0 342.11578369140625 265.471038818359375 0
348 268.75 100 342.11578369140625 265.471038818359375 0
348 269.25 100 342.11578369140625 265.471038818359375 0
460.75 204 0 456.26580810546875 203.014602661132812 0
461.25 204 0 456.26580810546875 203.014602661132812 0
461.25 204 100 456.26580810546875 203.014602661132812 0
460.75 204 100 456.26580810546875 203.014602661132812 0
346.75 202 0 344.483673095703125 199.679733276367188 0
347.25 202 0 344.483673095703125 199.679733276367188 0
347.25 202 100 344.483673095703125 199.679733276367188 0
346.75 202 100 344.483673095703125 199.679733276367188 0
346.75 355 0 344.483673095703125 353.67974853515625 0
347.25 355 0 344.483673095703125 353.67974853515625 0
347.25 355 100 344.483673095703125 353.67974853515625 0
346.75 355 100 344.483673095703125 353.67974853515625 0
257 199.25 0 255.139755249023438 198.583053588867188 0
257 198.75 0 255.139755249023438 198.583053588867188 0
257 198.75 100 255.139755249023438 198.583053588867188 0
257 199.25 100 255.139755249023438 198.583053588867188 0
419.25 204 0 412.82470703125 199.873565673828125 0
418.75 204 0 412.82470703125 199.873565673828125 0
418.75 204 100 412.82470703125 199.873565673828125 0
419.25 204 100 412.82470703125 199.873565673828125 0
385.75 271 0 381.1024169921875 266.734954833984375 0
386.25 271 0 381.1024169921875 266.734954833984375 0
386.25 271 100 381.1024169921875 266.734954833984375 0
385.75 271 100 381.1024169921875 266.734954833984375 0
385.75 354 0 381.1024169921875 350.734954833984375 0
386.25 354 0 381.1024169921875 350.734954833984375 0
386.25 354 100 381.1024169921875 350.734954833984375 0
385.75 354 100 381.1024169921875 350.734954833984375 0
555.75 343 0 551.8839111328125 341.613922119140625 0
556.25 343 0 551.8839111328125 341.613922119140625 0
556.25 343 100 551.8839111328125 341.613922119140625 0
555.75 343 100 551.8839111328125 341.613922119140625 0
179.75 408.25 0 0 0 -1
180.25 407.75 0 0 0 -1
557 407.75 0 0 0 -1
557 408.25 0 0 0 -1
179.75 408.25 100 0 0 1
180.25 407.75 100 0 0 1
557 407.75 100 0 0 1
557 408.25 100 0 0 1
180.25 407.75 0 0 0 -1
179.75 408.25 0 0 0 -1
179.75 99 0 0 0 -1
180.25 99 0 0 0 -1
180.25 407.75 100 0 0 1
179.75 408.25 100 0 0 1
179.75 99 100 0 0 1
180.25 99 100 0 0 1
405 101.25 0 0 0 -1
405 100.75 0 0 0 -1
461.25 100.75 0 0 0 -1
460.75 101.25 0 0 0 -1
405 101.25 100 0 0 1
405 100.75 100 0 0 1
461.25 100.75 100 0 0 1
460.75 101.25 100 0 0 1
460.75 101.25 0 0 0 -1
461.25 100.75 0 0 0 -1
461.25 204 0 0 0 -1
460.75 204 0 0 0 -1
460.75 101.25 100 0 0 1
461.25 100.75 100 0 0 1
461.25 204 100 0 0 1
460.75 204 100 0 0 1
299.25 201 0 0 0 -1
298.75 201 0 0 0 -1
298.75 103 0 0 0 -1
299.25 103 0 0 0 -1
299.25 201 100 0 0 1
298.75 201 100 0 0 1
298.75 103 100 0 0 1
299.25 103 100 0 0 1
269 101.25 0 0 0 -1
269 100.75 0 0 0 -1
356 100.75 0 0 0 -1
356 101.25 0 0 0 -1
269 101.25 100 0 0 1
269 100.75 100 0 0 1
356 100.75 100 0 0 1
356 101.25 100 0 0 1
348 269.25 0 0 0 -1
348 268.75 0 0 0 -1
418.75 268.75 0 0 0 -1
419.25 269.25 0 0 0 -1
348 269.25 100 0 0 1
348 268.75 100 0 0 1
418.75 268.75 100 0 0 1
419.25 269.25 100 0 0 1
419.25 269.25 0 0 0 -1
418.75 268.75 0 0 0 -1
418.75 204 0 0 0 -1
419.25 204 0 0 0 -1
419.25 269.25 100 0 0 1
418.75 268.75 100 0 0 1
418.75 204 100 0 0 1
419.25 204 100 0 0 1
346.75 202 0 0 0 -1
347.25 202 0 0 0 -1
347.25 355 0 0 0 -1
346.75 355 0 0 0 -1
346.75 202 100 0 0 1
347.25 202 100 0 0 1
347.25 355 100 0 0 1
346.75 355 100 0 0 1
257 199.25 0 0 0 -1
257 198.75 0 0 0 -1
556.25 198.75 0 0 0 -1
555.75 199.25 0 0 0 -1
257 199.25 100 0 0 1
257 198.75 100 0 0 1
556.25 198.75 100 0 0 1
555.75 199.25 100 0 0 1
555.75 199.25 0 0 0 -1
556.25 198.75 0 0 0 -1
556.25 343 0 0 0 -1
555.75 343 0 0 0 -1
555.75 199.25 100 0 0 1
556.25 198.75 100 0 0 1
556.25 343 100 0 0 1
555.75 343 100 0 0 1
385.75 271 0 0 0 -1
386.25 271 0 0 0 -1
386.25 354 0 0 0 -1
385.75 354 0 0 0 -1
385.75 271 100 0 0 1
386.25 271 100 0 0 1
386.25 354 100 0 0 1
385.75 354 100 0 0 1
4 0 1 2 3
4 4 5 6 7
4 8 9 10 11
4 12 13 14 15
4 16 17 18 19
4 20 21 22 23
4 24 25 26 27
4 28 29 30 31
4 32 33 34 35
4 36 37 38 39
4 40 41 42 43
4 44 45 46 47
4 48 49 50 51
4 52 53 54 55
4 56 57 58 59
4 60 61 62 63
4 64 65 66 67
4 68 69 70 71
4 72 73 74 75
4 76 77 78 79
4 80 81 82 83
4 84 85 86 87
4 88 89 90 91
4 92 93 94 95
4 96 97 98 99
4 100 101 102 103
4 104 105 106 107
4 108 109 110 111
4 112 113 114 115
4 116 117 118 119
4 120 121 122 123
4 124 125 126 127
4 128 129 130 131
4 132 133 134 135
4 136 137 138 139
4 140 141 142 143
4 144 145 146 147
4 148 149 150 151
4 152 153 154 155
4 156 157 158 159
4 160 161 162 163
4 164 165 166 167
4 168 169 170 171
4 172 173 174 175
4 176 177 178 179
4 180 181 182 183
4 184 185 186 187
4 188 189 190 191
4 192 193 194 195
4 196 197 198 199
4 200 201 202 203
4 204 205 206 207
4 208 209 210 211
4 212 213 214 215
4 216 217 218 219
4 220 221 222 223
4 224 225 226 227
4 228 229 230 231
4 232 233 234 235
4 236 237 238 239
4 240 241 242 243
4 244 245 246 247
4 248 249 250 251
4 252 253 254 255
