ply
format ascii 1.0
element vertex 512
property float x
property float y
property float z
property float nx
property float ny
property float nz
element quads 128
property list uchar int vertex_indices
end_header
185.984130859375 410 0 1 0 0
185.984130859375 372 0 1 0 0
185.984130859375 372 150 1 0 0
185.984130859375 410 150 1 0 0
175.984130859375 410 0 -1 -0 0
175.984130859375 372 0 -1 -0 0
175.984130859375 372 150 -1 -0 0
175.984130859375 410 150 -1 -0 0
557 404.5 0 -0 -1 0
500 404.5 0 -0 -1 0
500 404.5 150 -0 -1 0
557 404.5 150 -0 -1 0
557 414.5 0 0 1 0
500 414.5 0 0 1 0
500 414.5 150 0 1 0
557 414.5 150 0 1 0
462 404.5 0 -0 -1 0
387 404.5 0 -0 -1 0
387 404.5 150 -0 -1 0
462 404.5 150 -0 -1 0
462 414.5 0 0 1 0
387 414.5 0 0 1 0
387 414.5 150 0 1 0
462 414.5 150 0 1 0
349 404.46551513671875 0 -0 -1 0
274 404.46551513671875 0 -0 -1 0
274 404.46551513671875 150 -0 -1 0
349 404.46551513671875 150 -0 -1 0
349 414.46551513671875 0 0 1 0
274 414.46551513671875 0 0 1 0
274 414.46551513671875 150 0 1 0
349 414.46551513671875 150 0 1 0
186 233 0 1 0 0
186 105 0 1 0 0
186 105 150 1 0 0
186 233 150 1 0 0
176 233 0 -1 -0 0
176 95 0 -1 -0 0
176 95 150 -1 -0 0
176 233 150 -1 -0 0
186 105 0 -0 1 0
207 105 0 -0 1 0
207 105 150 -0 1 0
186 105 150 -0 1 0
176 95 0 0 -1 0
207 95 0 0 -1 0
207 95 150 0 -1 0
176 95 150 0 -1 0
356 95.7315826416015625 0 -0 -1 0
269 95.7315826416015625 0 -0 -1 0
269 95.7315826416015625 150 -0 -1 0
356 95.7315826416015625 150 -0 -1 0
356 105.731582641601562 0 0 1 0
269 105.731582641601562 0 0 1 0
269 105.731582641601562 150 0 1 0
356 105.731582641601562 150 0 1 0
186.012664794921875 335 0 1 0 0
186.012664794921875 271 0 1 0 0
186.012664794921875 271 150 1 0 0
186.012664794921875 335 150 1 0 0
176.012664794921875 335 0 -1 -0 0
176.012664794921875 271 0 -1 -0 0
176.012664794921875 271 150 -1 -0 0
176.012664794921875 335 150 -1 -0 0
237 405 0 -0 -1 0
181 405 0 -0 -1 0
181 405 150 -0 -1 0
237 405 150 -0 -1 0
237 415 0 0 1 0
181 415 0 0 1 0
181 415 150 0 1 0
237 415 150 0 1 0
559.6055908203125 343 0 1 0 0
559.6055908203125 274 0 1 0 0
559.6055908203125 274 150 1 0 0
559.6055908203125 343 150 1 0 0
549.6055908203125 343 0 -1 -0 0
549.6055908203125 274 0 -1 -0 0
549.6055908203125 274 150 -1 -0 0
549.6055908203125 343 150 -1 -0 0
390.508209228515625 354 0 1 0 0
390.508209228515625 308 0 1 0 0
390.508209228515625 308 150 1 0 0
390.508209228515625 354 150 1 0 0
380.508209228515625 354 0 -1 -0 0
380.508209228515625 308 0 -1 -0 0
380.508209228515625 308 150 -1 -0 0
380.508209228515625 354 150 -1 -0 0
382 197 0 -0 -1 0
346 197 0 -0 -1 0
346 197 150 -0 -1 0
382 197 150 -0 -1 0
382 207 0 0 1 0
346 207 0 0 1 0
346 207 150 0 1 0
382 207 150 0 1 0
304.011627197265625 132 0 1 0 0
304.011627197265625 103 0 1 0 0
304.011627197265625 103 150 1 0 0
304.011627197265625 132 150 1 0 0
294.011627197265625 132 0 -1 -0 0
294.011627197265625 103 0 -1 -0 0
294.011627197265625 103 150 -1 -0 0
294.011627197265625 132 150 -1 -0 0
207 197.5 0 -0 -1 0
184 197.5 0 -0 -1 0
184 197.5 150 -0 -1 0
207 197.5 150 -0 -1 0
207 207.5 0 0 1 0
184 207.5 0 0 1 0
184 207.5 150 0 1 0
207 207.5 150 0 1 0
304.5 201 0 1 0 0
304.5 171 0 1 0 0
304.5 171 150 1 0 0
304.5 201 150 1 0 0
294.5 201 0 -1 -0 0
294.5 171 0 -1 -0 0
294.5 171 150 -1 -0 0
294.5 201 150 -1 -0 0
458.00689697265625 206.133712768554688 0 0.00137856497894972563 0.999999046325683594 0
550 206.00689697265625 0 0.00137856497894972563 0.999999046325683594 0
550 206.00689697265625 150 0.00137856497894972563 0.999999046325683594 0
458.00689697265625 206.133712768554688 150 0.00137856497894972563 0.999999046325683594 0
457.99310302734375 196.13372802734375 0 -0.00137856497894972563 -0.999999046325683594 0
560 195.99310302734375 0 -0.00137856497894972563 -0.999999046325683594 0
560 195.99310302734375 150 -0.00137856497894972563 -0.999999046325683594 0
457.99310302734375 196.13372802734375 150 -0.00137856497894972563 -0.999999046325683594 0
550 206.00689697265625 0 -1 0 0
550 236 0 -1 0 0
550 236 150 -1 0 0
550 206.00689697265625 150 -1 0 0
560 195.99310302734375 0 1 -0 0
560 236 0 1 -0 0
560 236 150 1 -0 0
560 195.99310302734375 150 1 -0 0
405.045440673828125 105.499794006347656 0 0.00909053348004817963 0.999958693981170654 0
455 105.045661926269531 0 0.00909053348004817963 0.999958693981170654 0
455 105.045661926269531 150 0.00909053348004817963 0.999958693981170654 0
405.045440673828125 105.499794006347656 150 0.00909053348004817963 0.999958693981170654 0
404.954559326171875 95.5002059936523438 0 -0.00909053348004817963 -0.999958693981170654 0
465 94.9543380737304688 0 -0.00909053348004817963 -0.999958693981170654 0
465 94.9543380737304688 150 -0.00909053348004817963 -0.999958693981170654 0
404.954559326171875 95.5002059936523438 150 -0.00909053348004817963 -0.999958693981170654 0
455 105.045661926269531 0 -1 0 0
455 163 0 -1 0 0
455 163 150 -1 0 0
455 105.045661926269531 150 -1 0 0
465 94.9543380737304688 0 1 -0 0
465 163 0 1 -0 0
465 163 150 1 -0 0
465 94.9543380737304688 150 1 -0 0
348.035858154296875 273.49456787109375 0 0.00716937566176056862 0.999974310398101807 0
421.925750732421875 272.964813232421875 0 0.00716937566176056862 0.999974310398101807 0
421.925750732421875 272.964813232421875 150 0.00716937566176056862 0.999974310398101807 0
348.035858154296875 273.49456787109375 150 0.00716937566176056862 0.999974310398101807 0
347.964141845703125 263.494842529296875 0 -0.00716937566176056862 -0.999974310398101807 0
412.074249267578125 263.035186767578125 0 -0.00716937566176056862 -0.999974310398101807 0
412.074249267578125 263.035186767578125 150 -0.00716937566176056862 -0.999974310398101807 0
347.964141845703125 263.494842529296875 150 -0.00716937566176056862 -0.999974310398101807 0
421.925750732421875 272.964813232421875 0 0.999886453151702881 0.0150704765692353249 0
422.99420166015625 202.075347900390625 0 0.999886453151702881 0.0150704765692353249 0
422.99420166015625 202.075347900390625 150 0.999886453151702881 0.0150704765692353249 0
421.925750732421875 272.964813232421875 150 0.999886453151702881 0.0150704765692353249 0
412.074249267578125 263.035186767578125 0 -0.999886453151702881 -0.0150704765692353249 0
412.995330810546875 201.924652099609375 0 -0.999886453151702881 -0.0150704765692353249 0
412.995330810546875 201.924652099609375 150 -0.999886453151702881 -0.0150704765692353249 0
412.074249267578125 263.035186767578125 150 -0.999886453151702881 -0.0150704765692353249 0
351 355 0 1 0 0
351 198.02801513671875 0 1 0 0
351 198.02801513671875 150 1 0 0
351 355 150 1 0 0
341 355 0 -1 -0 0
341 207.97198486328125 0 -1 -0 0
341 207.97198486328125 150 -1 -0 0
341 355 150 -1 -0 0
351 198.02801513671875 0 0.00561788864433765411 -0.999984204769134521 0
257.028076171875 197.500076293945312 0 0.00561788864433765411 -0.999984204769134521 0
257.028076171875 197.500076293945312 150 0.00561788864433765411 -0.999984204769134521 0
351 198.02801513671875 150 0.00561788864433765411 -0.999984204769134521 0
341 207.97198486328125 0 -0.00561788864433765411 0.999984204769134521 0
256.971923828125 207.499923706054688 0 -0.00561788864433765411 0.999984204769134521 0
256.971923828125 207.499923706054688 150 -0.00561788864433765411 0.999984204769134521 0
341 207.97198486328125 150 -0.00561788864433765411 0.999984204769134521 0
185.984130859375 410 0 181.089813232421875 400.210540771484375 0
175.984130859375 410 0 181.089813232421875 400.210540771484375 0
175.984130859375 410 150 181.089813232421875 400.210540771484375 0
185.984130859375 410 150 181.089813232421875 400.210540771484375 0
185.984130859375 372 0 181.089813232421875 361.210540771484375 0
175.984130859375 372 0 181.089813232421875 361.210540771484375 0
175.984130859375 372 150 181.089813232421875 361.210540771484375 0
185.984130859375 372 150 181.089813232421875 361.210540771484375 0
557 404.5 0 548.22808837890625 397.40350341796875 0
557 414.5 0 548.22808837890625 397.40350341796875 0
557 414.5 150 548.22808837890625 397.40350341796875 0
557 404.5 150 548.22808837890625 397.40350341796875 0
500 404.5 0 490.228057861328125 397.40350341796875 0
500 414.5 0 490.228057861328125 397.40350341796875 0
500 414.5 150 490.228057861328125 397.40350341796875 0
500 404.5 150 490.228057861328125 397.40350341796875 0
462 404.5 0 456.839996337890625 399.106658935546875 0
462 414.5 0 456.839996337890625 399.106658935546875 0
462 414.5 150 456.839996337890625 399.106658935546875 0
462 404.5 150 456.839996337890625 399.106658935546875 0
387 404.5 0 380.839996337890625 399.106658935546875 0
387 414.5 0 380.839996337890625 399.106658935546875 0
387 414.5 150 380.839996337890625 399.106658935546875 0
387 404.5 150 380.839996337890625 399.106658935546875 0
349 404.46551513671875 0 345.3466796875 399.0726318359375 0
349 414.46551513671875 0 345.3466796875 399.0726318359375 0
349 414.46551513671875 150 345.3466796875 399.0726318359375 0
349 404.46551513671875 150 345.3466796875 399.0726318359375 0
274 404.46551513671875 0 269.3466796875 399.0726318359375 0
274 414.46551513671875 0 269.3466796875 399.0726318359375 0
274 414.46551513671875 150 269.3466796875 399.0726318359375 0
274 404.46551513671875 150 269.3466796875 399.0726318359375 0
186 233 0 184.546875 232.1796875 0
176 233 0 184.546875 232.1796875 0
176 233 150 184.546875 232.1796875 0
186 233 150 184.546875 232.1796875 0
356 95.7315826416015625 0 352.908050537109375 94.6312179565429688 0
356 105.731582641601562 0 352.908050537109375 94.6312179565429688 0
356 105.731582641601562 150 352.908050537109375 94.6312179565429688 0
356 95.7315826416015625 150 352.908050537109375 94.6312179565429688 0
269 95.7315826416015625 0 264.908050537109375 94.6312179565429688 0
269 105.731582641601562 0 264.908050537109375 94.6312179565429688 0
269 105.731582641601562 150 264.908050537109375 94.6312179565429688 0
269 95.7315826416015625 150 264.908050537109375 94.6312179565429688 0
186.012664794921875 335 0 183.106216430664062 330.765625 0
176.012664794921875 335 0 183.106216430664062 330.765625 0
176.012664794921875 335 150 183.106216430664062 330.765625 0
186.012664794921875 335 150 183.106216430664062 330.765625 0
186.012664794921875 271 0 183.106216430664062 265.765625 0
176.012664794921875 271 0 183.106216430664062 265.765625 0
176.012664794921875 271 150 183.106216430664062 265.765625 0
186.012664794921875 271 150 183.106216430664062 265.765625 0
237 405 0 233.767852783203125 397.767852783203125 0
237 415 0 233.767852783203125 397.767852783203125 0
237 415 150 233.767852783203125 397.767852783203125 0
237 405 150 233.767852783203125 397.767852783203125 0
181 405 0 176.767852783203125 397.767852783203125 0
181 415 0 176.767852783203125 397.767852783203125 0
181 415 150 176.767852783203125 397.767852783203125 0
181 405 150 176.767852783203125 397.767852783203125 0
207 105 0 198.142852783203125 100 0
207 95 0 198.142852783203125 100 0
207 95 150 198.142852783203125 100 0
207 105 150 198.142852783203125 100 0
559.6055908203125 343 0 551.495361328125 339.02899169921875 0
549.6055908203125 343 0 551.495361328125 339.02899169921875 0
549.6055908203125 343 150 551.495361328125 339.02899169921875 0
559.6055908203125 343 150 551.495361328125 339.02899169921875 0
559.6055908203125 274 0 551.495361328125 269.02899169921875 0
549.6055908203125 274 0 551.495361328125 269.02899169921875 0
549.6055908203125 274 150 551.495361328125 269.02899169921875 0
559.6055908203125 274 150 551.495361328125 269.02899169921875 0
390.508209228515625 354 0 382.018890380859375 347.304351806640625 0
380.508209228515625 354 0 382.018890380859375 347.304351806640625 0
380.508209228515625 354 150 382.018890380859375 347.304351806640625 0
390.508209228515625 354 150 382.018890380859375 347.304351806640625 0
390.508209228515625 308 0 382.018890380859375 300.304351806640625 0
380.508209228515625 308 0 382.018890380859375 300.304351806640625 0
380.508209228515625 308 150 382.018890380859375 300.304351806640625 0
390.508209228515625 308 150 382.018890380859375 300.304351806640625 0
382 197 0 372.388885498046875 191.52777099609375 0
382 207 0 372.388885498046875 191.52777099609375 0
382 207 150 372.388885498046875 191.52777099609375 0
382 197 150 372.388885498046875 191.52777099609375 0
346 197 0 335.388885498046875 191.52777099609375 0
346 207 0 335.388885498046875 191.52777099609375 0
346 207 150 335.388885498046875 191.52777099609375 0
346 197 150 335.388885498046875 191.52777099609375 0
304.011627197265625 132 0 293.528472900390625 128.448272705078125 0
294.011627197265625 132 0 293.528472900390625 128.448272705078125 0
294.011627197265625 132 150 293.528472900390625 128.448272705078125 0
304.011627197265625 132 150 293.528472900390625 128.448272705078125 0
304.011627197265625 103 0 293.528472900390625 98.448272705078125 0
294.011627197265625 103 0 293.528472900390625 98.448272705078125 0
294.011627197265625 103 150 293.528472900390625 98.448272705078125 0
304.011627197265625 103 150 293.528472900390625 98.448272705078125 0
207 197.5 0 199 188.913040161132812 0
207 207.5 0 199 188.913040161132812 0
207 207.5 150 199 188.913040161132812 0
207 197.5 150 199 188.913040161132812 0
184 197.5 0 175 188.913040161132812 0
184 207.5 0 175 188.913040161132812 0
184 207.5 150 175 188.913040161132812 0
184 197.5 150 175 188.913040161132812 0
304.5 201 0 294.350006103515625 195.300003051757812 0
294.5 201 0 294.350006103515625 195.300003051757812 0
294.5 201 150 294.350006103515625 195.300003051757812 0
304.5 201 150 294.350006103515625 195.300003051757812 0
304.5 171 0 294.350006103515625 164.300003051757812 0
294.5 171 0 294.350006103515625 164.300003051757812 0
294.5 171 150 294.350006103515625 164.300003051757812 0
304.5 171 150 294.350006103515625 164.300003051757812 0
458.00689697265625 206.133712768554688 0 452.0281982421875 203.89434814453125 0
457.99310302734375 196.13372802734375 0 452.0281982421875 203.89434814453125 0
457.99310302734375 196.13372802734375 150 452.0281982421875 203.89434814453125 0
458.00689697265625 206.133712768554688 150 452.0281982421875 203.89434814453125 0
550 236 0 531.6624755859375 229.13153076171875 0
560 236 0 531.6624755859375 229.13153076171875 0
560 236 150 531.6624755859375 229.13153076171875 0
550 236 150 531.6624755859375 229.13153076171875 0
405.045440673828125 105.499794006347656 0 395.93756103515625 103.397056579589844 0
404.954559326171875 95.5002059936523438 0 395.93756103515625 103.397056579589844 0
404.954559326171875 95.5002059936523438 150 395.93756103515625 103.397056579589844 0
405.045440673828125 105.499794006347656 150 395.93756103515625 103.397056579589844 0
455 163 0 447.14898681640625 161.18743896484375 0
465 163 0 447.14898681640625 161.18743896484375 0
465 163 150 447.14898681640625 161.18743896484375 0
455 163 150 447.14898681640625 161.18743896484375 0
348.035858154296875 273.49456787109375 0 342.3258056640625 269.800445556640625 0
347.964141845703125 263.494842529296875 0 342.3258056640625 269.800445556640625 0
347.964141845703125 263.494842529296875 150 342.3258056640625 269.800445556640625 0
348.035858154296875 273.49456787109375 150 342.3258056640625 269.800445556640625 0
422.99420166015625 202.075347900390625 0 417.042999267578125 198.2252197265625 0
412.995330810546875 201.924652099609375 0 417.042999267578125 198.2252197265625 0
412.995330810546875 201.924652099609375 150 417.042999267578125 198.2252197265625 0
422.99420166015625 202.075347900390625 150 417.042999267578125 198.2252197265625 0
351 355 0 348.763946533203125 353.73846435546875 0
341 355 0 348.763946533203125 353.73846435546875 0
341 355 150 348.763946533203125 353.73846435546875 0
351 355 150 348.763946533203125 353.73846435546875 0
257.028076171875 197.500076293945312 0 253.292984008789062 195.392807006835938 0
256.971923828125 207.499923706054688 0 253.292984008789062 195.392807006835938 0
256.971923828125 207.499923706054688 150 253.292984008789062 195.392807006835938 0
257.028076171875 197.500076293945312 150 253.292984008789062 195.392807006835938 0
185.984130859375 410 0 0 0 -1
175.984130859375 410 0 0 0 -1
175.984130859375 372 0 0 0 -1
185.984130859375 372 0 0 0 -1
185.984130859375 410 150 0 0 1
175.984130859375 410 150 0 0 1
175.984130859375 372 150 0 0 1
185.984130859375 372 150 0 0 1
557 404.5 0 0 0 -1
557 414.5 0 0 0 -1
500 414.5 0 0 0 -1
500 404.5 0 0 0 -1
557 404.5 150 0 0 1
557 414.5 150 0 0 1
500 414.5 150 0 0 1
500 404.5 150 0 0 1
462 404.5 0 0 0 -1
462 414.5 0 0 0 -1
387 414.5 0 0 0 -1
387 404.5 0 0 0 -1
462 404.5 150 0 0 1
462 414.5 150 0 0 1
387 414.5 150 0 0 1
387 404.5 150 0 0 1
349 404.46551513671875 0 0 0 -1
349 414.46551513671875 0 0 0 -1
274 414.46551513671875 0 0 0 -1
274 404.46551513671875 0 0 0 -1
349 404.46551513671875 150 0 0 1
349 414.46551513671875 150 0 0 1
274 414.46551513671875 150 0 0 1
274 404.46551513671875 150 0 0 1
186 233 0 0 0 -1
176 233 0 0 0 -1
176 95 0 0 0 -1
186 105 0 0 0 -1
186 233 150 0 0 1
176 233 150 0 0 1
176 95 150 0 0 1
186 105 150 0 0 1
186 105 0 0 0 -1
176 95 0 0 0 -1
207 95 0 0 0 -1
207 105 0 0 0 -1
186 105 150 0 0 1
176 95 150 0 0 1
207 95 150 0 0 1
207 105 150 0 0 1
356 95.7315826416015625 0 0 0 -1
356 105.731582641601562 0 0 0 -1
269 105.731582641601562 0 0 0 -1
269 95.7315826416015625 0 0 0 -1
356 95.7315826416015625 150 0 0 1
356 105.731582641601562 150 0 0 1
269 105.731582641601562 150 0 0 1
269 95.7315826416015625 150 0 0 1
186.012664794921875 335 0 0 0 -1
176.012664794921875 335 0 0 0 -1
176.012664794921875 271 0 0 0 -1
186.012664794921875 271 0 0 0 -1
186.012664794921875 335 150 0 0 1
176.012664794921875 335 150 0 0 1
176.012664794921875 271 150 0 0 1
186.012664794921875 271 150 0 0 1
237 405 0 0 0 -1
237 415 0 0 0 -1
181 415 0 0 0 -1
181 405 0 0 0 -1
237 405 150 0 0 1
237 415 150 0 0 1
181 415 150 0 0 1
181 405 150 0 0 1
559.6055908203125 343 0 0 0 -1
549.6055908203125 343 0 0 0 -1
549.6055908203125 274 0 0 0 -1
559.6055908203125 274 0 0 0 -1
559.6055908203125 343 150 0 0 1
549.6055908203125 343 150 0 0 1
549.6055908203125 274 150 0 0 1
559.6055908203125 274 150 0 0 1
390.508209228515625 354 0 0 0 -1
380.508209228515625 354 0 0 0 -1
380.508209228515625 308 0 0 0 -1
390.508209228515625 308 0 0 0 -1
390.508209228515625 354 150 0 0 1
380.508209228515625 354 150 0 0 1
380.508209228515625 308 150 0 0 1
390.508209228515625 308 150 0 0 1
382 197 0 0 0 -1
382 207 0 0 0 -1
346 207 0 0 0 -1
346 197 0 0 0 -1
382 197 150 0 0 1
382 207 150 0 0 1
346 207 150 0 0 1
346 197 150 0 0 1
304.011627197265625 132 0 0 0 -1
294.011627197265625 132 0 0 0 -1
294.011627197265625 103 0 0 0 -1
304.011627197265625 103 0 0 0 -1
304.011627197265625 132 150 0 0 1
294.011627197265625 132 150 0 0 1
294.011627197265625 103 150 0 0 1
304.011627197265625 103 150 0 0 1
207 197.5 0 0 0 -1
207 207.5 0 0 0 -1
184 207.5 0 0 0 -1
184 197.5 0 0 0 -1
207 197.5 150 0 0 1
207 207.5 150 0 0 1
184 207.5 150 0 0 1
184 197.5 150 0 0 1
304.5 201 0 0 0 -1
294.5 201 0 0 0 -1
294.5 171 0 0 0 -1
304.5 171 0 0 0 -1
304.5 201 150 0 0 1
294.5 201 150 0 0 1
294.5 171 150 0 0 1
304.5 171 150 0 0 1
458.00689697265625 206.133712768554688 0 0 0 -1
457.99310302734375 196.13372802734375 0 0 0 -1
560 195.99310302734375 0 0 0 -1
550 206.00689697265625 0 0 0 -1
458.00689697265625 206.133712768554688 150 0 0 1
457.99310302734375 196.13372802734375 150 0 0 1
560 195.99310302734375 150 0 0 1
550 206.00689697265625 150 0 0 1
550 206.00689697265625 0 0 0 -1
560 195.99310302734375 0 0 0 -1
560 236 0 0 0 -1
550 236 0 0 0 -1
550 206.00689697265625 150 0 0 1
560 195.99310302734375 150 0 0 1
560 236 150 0 0 1
550 236 150 0 0 1
405.045440673828125 105.499794006347656 0 0 0 -1
404.954559326171875 95.5002059936523438 0 0 0 -1
465 94.9543380737304688 0 0 0 -1
455 105.045661926269531 0 0 0 -1
405.045440673828125 105.499794006347656 150 0 0 1
404.954559326171875 95.5002059936523438 150 0 0 1
465 94.9543380737304688 150 0 0 1
455 105.045661926269531 150 0 0 1
455 105.045661926269531 0 0 0 -1
465 94.9543380737304688 0 0 0 -1
465 163 0 0 0 -1
455 163 0 0 0 -1
455 105.045661926269531 150 0 0 1
465 94.9543380737304688 150 0 0 1
465 163 150 0 0 1
455 163 150 0 0 1
348.035858154296875 273.49456787109375 0 0 0 -1
347.964141845703125 263.494842529296875 0 0 0 -1
412.074249267578125 263.035186767578125 0 0 0 -1
421.925750732421875 272.964813232421875 0 0 0 -1
348.035858154296875 273.49456787109375 150 0 0 1
347.964141845703125 263.494842529296875 150 0 0 1
412.074249267578125 263.035186767578125 150 0 0 1
421.925750732421875 272.964813232421875 150 0 0 1
421.925750732421875 272.964813232421875 0 0 0 -1
412.074249267578125 263.035186767578125 0 0 0 -1
412.995330810546875 201.924652099609375 0 0 0 -1
422.99420166015625 202.075347900390625 0 0 0 -1
421.925750732421875 272.964813232421875 150 0 0 1
412.074249267578125 263.035186767578125 150 0 0 1
412.995330810546875 201.924652099609375 150 0 0 1
422.99420166015625 202.075347900390625 150 0 0 1
351 355 0 0 0 -1
341 355 0 0 0 -1
341 207.97198486328125 0 0 0 -1
351 198.02801513671875 0 0 0 -1
351 355 150 0 0 1
341 355 150 0 0 1
341 207.97198486328125 150 0 0 1
351 198.02801513671875 150 0 0 1
351 198.02801513671875 0 0 0 -1
341 207.97198486328125 0 0 0 -1
256.971923828125 207.499923706054688 0 0 0 -1
257.028076171875 197.500076293945312 0 0 0 -1
351 198.02801513671875 150 0 0 1
341 207.97198486328125 150 0 0 1
256.971923828125 207.499923706054688 150 0 0 1
257.028076171875 197.500076293945312 150 0 0 1
4 0 1 2 3
4 4 5 6 7
4 8 9 10 11
4 12 13 14 15
4 16 17 18 19
4 20 21 22 23
4 24 25 26 27
4 28 29 30 31
4 32 33 34 35
4 36 37 38 39
4 40 41 42 43
4 44 45 46 47
4 48 49 50 51
4 52 53 54 55
4 56 57 58 59
4 60 61 62 63
4 64 65 66 67
4 68 69 70 71
4 72 73 74 75
4 76 77 78 79
4 80 81 82 83
4 84 85 86 87
4 88 89 90 91
4 92 93 94 95
4 96 97 98 99
4 100 101 102 103
4 104 105 106 107
4 108 109 110 111
4 112 113 114 115
4 116 117 118 119
4 120 121 122 123
4 124 125 126 127
4 128 129 130 131
4 132 133 134 135
4 136 137 138 139
4 140 141 142 143
4 144 145 146 147
4 148 149 150 151
4 152 153 154 155
4 156 157 158 159
4 160 161 162 163
4 164 165 166 167
4 168 169 170 171
4 172 173 174 175
4 176 177 178 179
4 180 181 182 183
4 184 185 186 187
4 188 189 190 191
4 192 193 194 195
4 196 197 198 199
4 200 201 202 203
4 204 205 206 207
4 208 209 210 211
4 212 213 214 215
4 216 217 218 219
4 220 221 222 223
4 224 225 226 227
4 228 229 230 231
4 232 233 234 235
4 236 237 238 239
4 240 241 242 243
4 244 245 246 247
4 248 249 250 251
4 252 253 254 255
4 256 257 258 259
4 260 261 262 263
4 264 265 266 267
4 268 269 270 271
4 272 273 274 275
4 276 277 278 279
4 280 281 282 283
4 284 285 286 287
4 288 289 290 291
4 292 293 294 295
4 296 297 298 299
4 300 301 302 303
4 304 305 306 307
4 308 309 310 311
4 312 313 314 315
4 316 317 318 319
4 320 321 322 323
4 324 325 326 327
4 328 329 330 331
4 332 333 334 335
4 336 337 338 339
4 340 341 342 343
4 344 345 346 347
4 348 349 350 351
4 352 353 354 355
4 356 357 358 359
4 360 361 362 363
4 364 365 366 367
4 368 369 370 371
4 372 373 374 375
4 376 377 378 379
4 380 381 382 383
4 384 385 386 387
4 388 389 390 391
4 392 393 394 395
4 396 397 398 399
4 400 401 402 403
4 404 405 406 407
4 408 409 410 411
4 412 413 414 415
4 416 417 418 419
4 420 421 422 423
4 424 425 426 427
4 428 429 430 431
4 432 433 434 435
4 436 437 438 439
4 440 441 442 443
4 444 445 446 447
4 448 449 450 451
4 452 453 454 455
4 456 457 458 459
4 460 461 462 463
4 464 465 466 467
4 468 469 470 471
4 472 473 474 475
4 476 477 478 479
4 480 481 482 483
4 484 485 486 487
4 488 489 490 491
4 492 493 494 495
4 496 497 498 499
4 500 501 502 503
4 504 505 506 507
4 508 509 510 511
