ply
format ascii 1.0
element vertex 424
property float x
property float y
property float z
property float nx
property float ny
property float nz
element quads 106
property list uchar int vertex_indices
end_header
625.25 491 0 1 0 0
625.25 407 0 1 0 0
625.25 407 100 1 0 0
625.25 491 100 1 0 0
624.75 491 0 -1 -0 0
624.75 407 0 -1 -0 0
624.75 407 100 -1 -0 0
624.75 491 100 -1 -0 0
552 70.25 0 -0 1 0
631 70.25 0 -0 1 0
631 70.25 100 -0 1 0
552 70.25 100 -0 1 0
552 69.75 0 0 -1 0
631 69.75 0 0 -1 0
631 69.75 100 0 -1 0
552 69.75 100 0 -1 0
549.75 382 0 -1 0 0
549.75 416 0 -1 0 0
549.75 416 100 -1 0 0
549.75 382 100 -1 0 0
550.25 382 0 1 -0 0
550.25 416 0 1 -0 0
550.25 416 100 1 -0 0
550.25 382 100 1 -0 0
246.75 406 0 -1 0 0
246.75 489 0 -1 0 0
246.75 489 100 -1 0 0
246.75 406 100 -1 0 0
247.25 406 0 1 -0 0
247.25 489 0 1 -0 0
247.25 489 100 1 -0 0
247.25 406 100 1 -0 0
246.75 41 0 -1 0 0
246.75 125 0 -1 0 0
246.75 125 100 -1 0 0
246.75 41 100 -1 0 0
247.25 41 0 1 -0 0
247.25 125 0 1 -0 0
247.25 125 100 1 -0 0
247.25 41 100 1 -0 0
549.75 42 0 -1 0 0
549.75 151 0 -1 0 0
549.75 151 100 -1 0 0
549.75 42 100 -1 0 0
550.25 42 0 1 -0 0
550.25 151 0 1 -0 0
550.25 151 100 1 -0 0
550.25 42 100 1 -0 0
547 408.25 0 -0 1 0
679 408.25 0 -0 1 0
679 408.25 100 -0 1 0
547 408.25 100 -0 1 0
547 407.75 0 0 -1 0
679 407.75 0 0 -1 0
679 407.75 100 0 -1 0
547 407.75 100 0 -1 0
624.75 45.25 0 -1 0 0
624.75 125 0 -1 0 0
624.75 125 100 -1 0 0
624.75 45.25 100 -1 0 0
625.25 44.75 0 1 -0 0
625.25 125 0 1 -0 0
625.25 125 100 1 -0 0
625.25 44.75 100 1 -0 0
625.25 44.75 0 -0 -1 0
510 44.75 0 -0 -1 0
510 44.75 100 -0 -1 0
625.25 44.75 100 -0 -1 0
624.75 45.25 0 0 1 0
510 45.25 0 0 1 0
510 45.25 100 0 1 0
624.75 45.25 100 0 1 0
209 408.25 0 -0 1 0
292 408.25 0 -0 1 0
292 408.25 100 -0 1 0
209 408.25 100 -0 1 0
209 407.75 0 0 -1 0
292 407.75 0 0 -1 0
292 407.75 100 0 -1 0
209 407.75 100 0 -1 0
103 408.25 0 -0 1 0
159 408.25 0 -0 1 0
159 408.25 100 -0 1 0
103 408.25 100 -0 1 0
103 407.75 0 0 -1 0
159 407.75 0 0 -1 0
159 407.75 100 0 -1 0
103 407.75 100 0 -1 0
103 484.25 0 -0 1 0
297 484.25 0 -0 1 0
297 484.25 100 -0 1 0
103 484.25 100 -0 1 0
103 483.75 0 0 -1 0
297 483.75 0 0 -1 0
297 483.75 100 0 -1 0
103 483.75 100 0 -1 0
95.75 41 0 -1 0 0
95.75 489 0 -1 0 0
95.75 489 100 -1 0 0
95.75 41 100 -1 0 0
96.25 41 0 1 -0 0
96.25 489 0 1 -0 0
96.25 489 100 1 -0 0
96.25 41 100 1 -0 0
104 45.25 0 -0 1 0
457 45.25 0 -0 1 0
457 45.25 100 -0 1 0
104 45.25 100 -0 1 0
104 44.75 0 0 -1 0
457 44.75 0 0 -1 0
457 44.75 100 0 -1 0
104 44.75 100 0 -1 0
210 122.25 0 -0 1 0
313 122.25 0 -0 1 0
313 122.25 100 -0 1 0
210 122.25 100 -0 1 0
210 121.75 0 0 -1 0
313 121.75 0 0 -1 0
313 121.75 100 0 -1 0
210 121.75 100 0 -1 0
384 484.25 0 -0 1 0
454 484.25 0 -0 1 0
454 484.25 100 -0 1 0
384 484.25 100 -0 1 0
384 483.75 0 0 -1 0
454 483.75 0 0 -1 0
454 483.75 100 0 -1 0
384 483.75 100 0 -1 0
574 484.25 0 -0 1 0
632 484.25 0 -0 1 0
632 484.25 100 -0 1 0
574 484.25 100 -0 1 0
574 483.75 0 0 -1 0
632 483.75 0 0 -1 0
632 483.75 100 0 -1 0
574 483.75 100 0 -1 0
105 122.25 0 -0 1 0
154 122.25 0 -0 1 0
154 122.25 100 -0 1 0
105 122.25 100 -0 1 0
105 121.75 0 0 -1 0
154 121.75 0 0 -1 0
154 121.75 100 0 -1 0
105 121.75 100 0 -1 0
625.25 491 0 617.8065185546875 486.154754638671875 0
624.75 491 0 617.8065185546875 486.154754638671875 0
624.75 491 100 617.8065185546875 486.154754638671875 0
625.25 491 100 617.8065185546875 486.154754638671875 0
625.25 407 0 617.8065185546875 401.154754638671875 0
624.75 407 0 617.8065185546875 401.154754638671875 0
624.75 407 100 617.8065185546875 401.154754638671875 0
625.25 407 100 617.8065185546875 401.154754638671875 0
552 70.25 0 544.01263427734375 69.3607559204101562 0
552 69.75 0 544.01263427734375 69.3607559204101562 0
552 69.75 100 544.01263427734375 69.3607559204101562 0
552 70.25 100 544.01263427734375 69.3607559204101562 0
631 70.25 0 624.01263427734375 69.3607559204101562 0
631 69.75 0 624.01263427734375 69.3607559204101562 0
631 69.75 100 624.01263427734375 69.3607559204101562 0
631 70.25 100 624.01263427734375 69.3607559204101562 0
549.75 382 0 533.58087158203125 369.76470947265625 0
550.25 382 0 533.58087158203125 369.76470947265625 0
550.25 382 100 533.58087158203125 369.76470947265625 0
549.75 382 100 533.58087158203125 369.76470947265625 0
549.75 416 0 533.58087158203125 404.76470947265625 0
550.25 416 0 533.58087158203125 404.76470947265625 0
550.25 416 100 533.58087158203125 404.76470947265625 0
549.75 416 100 533.58087158203125 404.76470947265625 0
246.75 406 0 243.777114868164062 400.108428955078125 0
247.25 406 0 243.777114868164062 400.108428955078125 0
247.25 406 100 243.777114868164062 400.108428955078125 0
246.75 406 100 243.777114868164062 400.108428955078125 0
246.75 489 0 243.777114868164062 484.108428955078125 0
247.25 489 0 243.777114868164062 484.108428955078125 0
247.25 489 100 243.777114868164062 484.108428955078125 0
246.75 489 100 243.777114868164062 484.108428955078125 0
246.75 41 0 243.8125 39.5119056701660156 0
247.25 41 0 243.8125 39.5119056701660156 0
247.25 41 100 243.8125 39.5119056701660156 0
246.75 41 100 243.8125 39.5119056701660156 0
246.75 125 0 243.8125 124.51190185546875 0
247.25 125 0 243.8125 124.51190185546875 0
247.25 125 100 243.8125 124.51190185546875 0
246.75 125 100 243.8125 124.51190185546875 0
549.75 42 0 544.7064208984375 40.6146774291992188 0
550.25 42 0 544.7064208984375 40.6146774291992188 0
550.25 42 100 544.7064208984375 40.6146774291992188 0
549.75 42 100 544.7064208984375 40.6146774291992188 0
549.75 151 0 544.7064208984375 150.61468505859375 0
550.25 151 0 544.7064208984375 150.61468505859375 0
550.25 151 100 544.7064208984375 150.61468505859375 0
549.75 151 100 544.7064208984375 150.61468505859375 0
547 408.25 0 541.8560791015625 405.157196044921875 0
547 407.75 0 541.8560791015625 405.157196044921875 0
547 407.75 100 541.8560791015625 405.157196044921875 0
547 408.25 100 541.8560791015625 405.157196044921875 0
679 408.25 0 674.8560791015625 405.157196044921875 0
679 407.75 0 674.8560791015625 405.157196044921875 0
679 407.75 100 674.8560791015625 405.157196044921875 0
679 408.25 100 674.8560791015625 405.157196044921875 0
624.75 125 0 616.9161376953125 124.432601928710938 0
625.25 125 0 616.9161376953125 124.432601928710938 0
625.25 125 100 616.9161376953125 124.432601928710938 0
624.75 125 100 616.9161376953125 124.432601928710938 0
209 408.25 0 205.48193359375 403.331329345703125 0
209 407.75 0 205.48193359375 403.331329345703125 0
209 407.75 100 205.48193359375 403.331329345703125 0
209 408.25 100 205.48193359375 403.331329345703125 0
292 408.25 0 289.48193359375 403.331329345703125 0
292 407.75 0 289.48193359375 403.331329345703125 0
292 407.75 100 289.48193359375 403.331329345703125 0
292 408.25 100 289.48193359375 403.331329345703125 0
103 408.25 0 100.160713195800781 400.959808349609375 0
103 407.75 0 100.160713195800781 400.959808349609375 0
103 407.75 100 100.160713195800781 400.959808349609375 0
103 408.25 100 100.160713195800781 400.959808349609375 0
159 408.25 0 157.160720825195312 400.959808349609375 0
159 407.75 0 157.160720825195312 400.959808349609375 0
159 407.75 100 157.160720825195312 400.959808349609375 0
159 408.25 100 157.160720825195312 400.959808349609375 0
103 484.25 0 101.469070434570312 481.753875732421875 0
103 483.75 0 101.469070434570312 481.753875732421875 0
103 483.75 100 101.469070434570312 481.753875732421875 0
103 484.25 100 101.469070434570312 481.753875732421875 0
297 484.25 0 296.469085693359375 481.753875732421875 0
297 483.75 0 296.469085693359375 481.753875732421875 0
297 483.75 100 296.469085693359375 481.753875732421875 0
297 484.25 100 296.469085693359375 481.753875732421875 0
95.75 41 0 95.5362701416015625 39.9084815979003906 0
96.25 41 0 95.5362701416015625 39.9084815979003906 0
96.25 41 100 95.5362701416015625 39.9084815979003906 0
95.75 41 100 95.5362701416015625 39.9084815979003906 0
95.75 489 0 95.5362701416015625 488.908477783203125 0
96.25 489 0 95.5362701416015625 488.908477783203125 0
96.25 489 100 95.5362701416015625 488.908477783203125 0
95.75 489 100 95.5362701416015625 488.908477783203125 0
104 45.25 0 102.70538330078125 45.1218147277832031 0
104 44.75 0 102.70538330078125 45.1218147277832031 0
104 44.75 100 102.70538330078125 45.1218147277832031 0
104 45.25 100 102.70538330078125 45.1218147277832031 0
457 45.25 0 456.70538330078125 45.1218147277832031 0
457 44.75 0 456.70538330078125 45.1218147277832031 0
457 44.75 100 456.70538330078125 45.1218147277832031 0
457 45.25 100 456.70538330078125 45.1218147277832031 0
210 122.25 0 206.961166381835938 121.0631103515625 0
210 121.75 0 206.961166381835938 121.0631103515625 0
210 121.75 100 206.961166381835938 121.0631103515625 0
210 122.25 100 206.961166381835938 121.0631103515625 0
313 122.25 0 310.961151123046875 121.0631103515625 0
313 121.75 0 310.961151123046875 121.0631103515625 0
313 121.75 100 310.961151123046875 121.0631103515625 0
313 122.25 100 310.961151123046875 121.0631103515625 0
384 484.25 0 377.5142822265625 477.3321533203125 0
384 483.75 0 377.5142822265625 477.3321533203125 0
384 483.75 100 377.5142822265625 477.3321533203125 0
384 484.25 100 377.5142822265625 477.3321533203125 0
454 484.25 0 448.5142822265625 477.3321533203125 0
454 483.75 0 448.5142822265625 477.3321533203125 0
454 483.75 100 448.5142822265625 477.3321533203125 0
454 484.25 100 448.5142822265625 477.3321533203125 0
574 484.25 0 563.10345458984375 475.900848388671875 0
574 483.75 0 563.10345458984375 475.900848388671875 0
574 483.75 100 563.10345458984375 475.900848388671875 0
574 484.25 100 563.10345458984375 475.900848388671875 0
632 484.25 0 622.10345458984375 475.900848388671875 0
632 483.75 0 622.10345458984375 475.900848388671875 0
632 483.75 100 622.10345458984375 475.900848388671875 0
632 484.25 100 622.10345458984375 475.900848388671875 0
510 44.75 0 504.5748291015625 44.3617134094238281 0
510 45.25 0 504.5748291015625 44.3617134094238281 0
510 45.25 100 504.5748291015625 44.3617134094238281 0
510 44.75 100 504.5748291015625 44.3617134094238281 0
105 122.25 0 101.857139587402344 119.755104064941406 0
105 121.75 0 101.857139587402344 119.755104064941406 0
105 121.75 100 101.857139587402344 119.755104064941406 0
105 122.25 100 101.857139587402344 119.755104064941406 0
154 122.25 0 151.857147216796875 119.755104064941406 0
154 121.75 0 151.857147216796875 119.755104064941406 0
154 121.75 100 151.857147216796875 119.755104064941406 0
154 122.25 100 151.857147216796875 119.755104064941406 0
625.25 491 0 0 0 -1
624.75 491 0 0 0 -1
624.75 407 0 0 0 -1
625.25 407 0 0 0 -1
625.25 491 100 0 0 1
624.75 491 100 0 0 1
624.75 407 100 0 0 1
625.25 407 100 0 0 1
552 70.25 0 0 0 -1
552 69.75 0 0 0 -1
631 69.75 0 0 0 -1
631 70.25 0 0 0 -1
552 70.25 100 0 0 1
552 69.75 100 0 0 1
631 69.75 100 0 0 1
631 70.25 100 0 0 1
549.75 382 0 0 0 -1
550.25 382 0 0 0 -1
550.25 416 0 0 0 -1
549.75 416 0 0 0 -1
549.75 382 100 0 0 1
550.25 382 100 0 0 1
550.25 416 100 0 0 1
549.75 416 100 0 0 1
246.75 406 0 0 0 -1
247.25 406 0 0 0 -1
247.25 489 0 0 0 -1
246.75 489 0 0 0 -1
246.75 406 100 0 0 1
247.25 406 100 0 0 1
247.25 489 100 0 0 1
246.75 489 100 0 0 1
246.75 41 0 0 0 -1
247.25 41 0 0 0 -1
247.25 125 0 0 0 -1
246.75 125 0 0 0 -1
246.75 41 100 0 0 1
247.25 41 100 0 0 1
247.25 125 100 0 0 1
246.75 125 100 0 0 1
549.75 42 0 0 0 -1
550.25 42 0 0 0 -1
550.25 151 0 0 0 -1
549.75 151 0 0 0 -1
549.75 42 100 0 0 1
550.25 42 100 0 0 1
550.25 151 100 0 0 1
549.75 151 100 0 0 1
547 408.25 0 0 0 -1
547 407.75 0 0 0 -1
679 407.75 0 0 0 -1
679 408.25 0 0 0 -1
547 408.25 100 0 0 1
547 407.75 100 0 0 1
679 407.75 100 0 0 1
679 408.25 100 0 0 1
624.75 45.25 0 0 0 -1
625.25 44.75 0 0 0 -1
625.25 125 0 0 0 -1
624.75 125 0 0 0 -1
624.75 45.25 100 0 0 1
625.25 44.75 100 0 0 1
625.25 125 100 0 0 1
624.75 125 100 0 0 1
625.25 44.75 0 0 0 -1
624.75 45.25 0 0 0 -1
510 45.25 0 0 0 -1
510 44.75 0 0 0 -1
625.25 44.75 100 0 0 1
624.75 45.25 100 0 0 1
510 45.25 100 0 0 1
510 44.75 100 0 0 1
209 408.25 0 0 0 -1
209 407.75 0 0 0 -1
292 407.75 0 0 0 -1
292 408.25 0 0 0 -1
209 408.25 100 0 0 1
209 407.75 100 0 0 1
292 407.75 100 0 0 1
292 408.25 100 0 0 1
103 408.25 0 0 0 -1
103 407.75 0 0 0 -1
159 407.75 0 0 0 -1
159 408.25 0 0 0 -1
103 408.25 100 0 0 1
103 407.75 100 0 0 1
159 407.75 100 0 0 1
159 408.25 100 0 0 1
103 484.25 0 0 0 -1
103 483.75 0 0 0 -1
297 483.75 0 0 0 -1
297 484.25 0 0 0 -1
103 484.25 100 0 0 1
103 483.75 100 0 0 1
297 483.75 100 0 0 1
297 484.25 100 0 0 1
95.75 41 0 0 0 -1
96.25 41 0 0 0 -1
96.25 489 0 0 0 -1
95.75 489 0 0 0 -1
95.75 41 100 0 0 1
96.25 41 100 0 0 1
96.25 489 100 0 0 1
95.75 489 100 0 0 1
104 45.25 0 0 0 -1
104 44.75 0 0 0 -1
457 44.75 0 0 0 -1
457 45.25 0 0 0 -1
104 45.25 100 0 0 1
104 44.75 100 0 0 1
457 44.75 100 0 0 1
457 45.25 100 0 0 1
210 122.25 0 0 0 -1
210 121.75 0 0 0 -1
313 121.75 0 0 0 -1
313 122.25 0 0 0 -1
210 122.25 100 0 0 1
210 121.75 100 0 0 1
313 121.75 100 0 0 1
313 122.25 100 0 0 1
384 484.25 0 0 0 -1
384 483.75 0 0 0 -1
454 483.75 0 0 0 -1
454 484.25 0 0 0 -1
384 484.25 100 0 0 1
384 483.75 100 0 0 1
454 483.75 100 0 0 1
454 484.25 100 0 0 1
574 484.25 0 0 0 -1
574 483.75 0 0 0 -1
632 483.75 0 0 0 -1
632 484.25 0 0 0 -1
574 484.25 100 0 0 1
574 483.75 100 0 0 1
632 483.75 100 0 0 1
632 484.25 100 0 0 1
105 122.25 0 0 0 -1
105 121.75 0 0 0 -1
154 121.75 0 0 0 -1
154 122.25 0 0 0 -1
105 122.25 100 0 0 1
105 121.75 100 0 0 1
154 121.75 100 0 0 1
154 122.25 100 0 0 1
4 0 1 2 3
4 4 5 6 7
4 8 9 10 11
4 12 13 14 15
4 16 17 18 19
4 20 21 22 23
4 24 25 26 27
4 28 29 30 31
4 32 33 34 35
4 36 37 38 39
4 40 41 42 43
4 44 45 46 47
4 48 49 50 51
4 52 53 54 55
4 56 57 58 59
4 60 61 62 63
4 64 65 66 67
4 68 69 70 71
4 72 73 74 75
4 76 77 78 79
4 80 81 82 83
4 84 85 86 87
4 88 89 90 91
4 92 93 94 95
4 96 97 98 99
4 100 101 102 103
4 104 105 106 107
4 108 109 110 111
4 112 113 114 115
4 116 117 118 119
4 120 121 122 123
4 124 125 126 127
4 128 129 130 131
4 132 133 134 135
4 136 137 138 139
4 140 141 142 143
4 144 145 146 147
4 148 149 150 151
4 152 153 154 155
4 156 157 158 159
4 160 161 162 163
4 164 165 166 167
4 168 169 170 171
4 172 173 174 175
4 176 177 178 179
4 180 181 182 183
4 184 185 186 187
4 188 189 190 191
4 192 193 194 195
4 196 197 198 199
4 200 201 202 203
4 204 205 206 207
4 208 209 210 211
4 212 213 214 215
4 216 217 218 219
4 220 221 222 223
4 224 225 226 227
4 228 229 230 231
4 232 233 234 235
4 236 237 238 239
4 240 241 242 243
4 244 245 246 247
4 248 249 250 251
4 252 253 254 255
4 256 257 258 259
4 260 261 262 263
4 264 265 266 267
4 268 269 270 271
4 272 273 274 275
4 276 277 278 279
4 280 281 282 283
4 284 285 286 287
4 288 289 290 291
4 292 293 294 295
4 296 297 298 299
4 300 301 302 303
4 304 305 306 307
4 308 309 310 311
4 312 313 314 315
4 316 317 318 319
4 320 321 322 323
4 324 325 326 327
4 328 329 330 331
4 332 333 334 335
4 336 337 338 339
4 340 341 342 343
4 344 345 346 347
4 348 349 350 351
4 352 353 354 355
4 356 357 358 359
4 360 361 362 363
4 364 365 366 367
4 368 369 370 371
4 372 373 374 375
4 376 377 378 379
4 380 381 382 383
4 384 385 386 387
4 388 389 390 391
4 392 393 394 395
4 396 397 398 399
4 400 401 402 403
4 404 405 406 407
4 408 409 410 411
4 412 413 414 415
4 416 417 418 419
4 420 421 422 423
