ply
format ascii 1.0
element vertex 512
property float x
property float y
property float z
property float nx
property float ny
property float nz
element quads 128
property list uchar int vertex_indices
end_header
203 526 0 1 0 0
203 208 0 1 0 0
203 208 100 1 0 0
203 526 100 1 0 0
197 532 0 -1 -0 0
197 202 0 -1 -0 0
197 202 100 -1 -0 0
197 532 100 -1 -0 0
197 532 0 -0 1 0
225 532 0 -0 1 0
225 532 100 -0 1 0
197 532 100 -0 1 0
203 526 0 0 -1 0
225 526 0 0 -1 0
225 526 100 0 -1 0
203 526 100 0 -1 0
203 208 0 -0 1 0
254 208 0 -0 1 0
254 208 100 -0 1 0
203 208 100 -0 1 0
197 202 0 0 -1 0
254 202 0 0 -1 0
254 202 100 0 -1 0
197 202 100 0 -1 0
475.406524658203125 356 0 1 0 0
475.406524658203125 338 0 1 0 0
475.406524658203125 338 100 1 0 0
475.406524658203125 356 100 1 0 0
469.406524658203125 356 0 -1 -0 0
469.406524658203125 338 0 -1 -0 0
469.406524658203125 338 100 -1 -0 0
469.406524658203125 356 100 -1 -0 0
475.406524658203125 142 0 1 0 0
475.406524658203125 73 0 1 0 0
475.406524658203125 73 100 1 0 0
475.406524658203125 142 100 1 0 0
469.406524658203125 142 0 -1 -0 0
469.406524658203125 73 0 -1 -0 0
469.406524658203125 73 100 -1 -0 0
469.406524658203125 142 100 -1 -0 0
475.406524658203125 204 0 1 0 0
475.406524658203125 169 0 1 0 0
475.406524658203125 169 100 1 0 0
475.406524658203125 204 100 1 0 0
469.406524658203125 204 0 -1 -0 0
469.406524658203125 169 0 -1 -0 0
469.406524658203125 169 100 -1 -0 0
469.406524658203125 204 100 -1 -0 0
331 514 0 1 0 0
331 455 0 1 0 0
331 455 100 1 0 0
331 514 100 1 0 0
325 514 0 -1 -0 0
325 449 0 -1 -0 0
325 449 100 -1 -0 0
325 514 100 -1 -0 0
331 455 0 -0 1 0
344 455 0 -0 1 0
344 455 100 -0 1 0
331 455 100 -0 1 0
325 449 0 0 -1 0
344 449 0 0 -1 0
344 449 100 0 -1 0
325 449 100 0 -1 0
382 202.486160278320312 0 -0 -1 0
326 202.486160278320312 0 -0 -1 0
326 202.486160278320312 100 -0 -1 0
382 202.486160278320312 100 -0 -1 0
382 208.486160278320312 0 0 1 0
326 208.486160278320312 0 0 1 0
326 208.486160278320312 100 0 1 0
382 208.486160278320312 100 0 1 0
297 202.486160278320312 0 -0 -1 0
283 202.486160278320312 0 -0 -1 0
283 202.486160278320312 100 -0 -1 0
297 202.486160278320312 100 -0 -1 0
297 208.486160278320312 0 0 1 0
283 208.486160278320312 0 0 1 0
283 208.486160278320312 100 0 1 0
297 208.486160278320312 100 0 1 0
328 371.5 0 -0 -1 0
202 371.5 0 -0 -1 0
202 371.5 100 -0 -1 0
328 371.5 100 -0 -1 0
328 377.5 0 0 1 0
202 377.5 0 0 1 0
202 377.5 100 0 1 0
328 377.5 100 0 1 0
382.90350341796875 492 0 1 0 0
382.90350341796875 449 0 1 0 0
382.90350341796875 449 100 1 0 0
382.90350341796875 492 100 1 0 0
376.90350341796875 492 0 -1 -0 0
376.90350341796875 449 0 -1 -0 0
376.90350341796875 449 100 -1 -0 0
376.90350341796875 492 100 -1 -0 0
382.90350341796875 336 0 1 0 0
382.90350341796875 320 0 1 0 0
382.90350341796875 320 100 1 0 0
382.90350341796875 336 100 1 0 0
376.90350341796875 336 0 -1 -0 0
376.90350341796875 320 0 -1 -0 0
376.90350341796875 320 100 -1 -0 0
376.90350341796875 336 100 -1 -0 0
277 526.47857666015625 0 -0 -1 0
251 526.47857666015625 0 -0 -1 0
251 526.47857666015625 100 -0 -1 0
277 526.47857666015625 100 -0 -1 0
277 532.47857666015625 0 0 1 0
251 532.47857666015625 0 0 1 0
251 532.47857666015625 100 0 1 0
277 532.47857666015625 100 0 1 0
326 526.47857666015625 0 -0 -1 0
303 526.47857666015625 0 -0 -1 0
303 526.47857666015625 100 -0 -1 0
326 526.47857666015625 100 -0 -1 0
326 532.47857666015625 0 0 1 0
303 532.47857666015625 0 0 1 0
303 532.47857666015625 100 0 1 0
326 532.47857666015625 100 0 1 0
582 29.2857151031494141 0 -0 -1 0
513 29.2857151031494141 0 -0 -1 0
513 29.2857151031494141 100 -0 -1 0
582 29.2857151031494141 100 -0 -1 0
582 35.2857131958007812 0 0 1 0
513 35.2857131958007812 0 0 1 0
513 35.2857131958007812 100 0 1 0
582 35.2857131958007812 100 0 1 0
603 29.2857151031494141 0 -0 -1 0
587 29.2857151031494141 0 -0 -1 0
587 29.2857151031494141 100 -0 -1 0
603 29.2857151031494141 100 -0 -1 0
603 35.2857131958007812 0 0 1 0
587 35.2857131958007812 0 0 1 0
587 35.2857131958007812 100 0 1 0
603 35.2857131958007812 100 0 1 0
575.5875244140625 253 0 1 0 0
575.5875244140625 206 0 1 0 0
575.5875244140625 206 100 1 0 0
575.5875244140625 253 100 1 0 0
569.5875244140625 253 0 -1 -0 0
569.5875244140625 206 0 -1 -0 0
569.5875244140625 206 100 -1 -0 0
569.5875244140625 253 100 -1 -0 0
402 489 0 -0 -1 0
380 489 0 -0 -1 0
380 489 100 -0 -1 0
402 489 100 -0 -1 0
402 495 0 0 1 0
380 495 0 0 1 0
380 495 100 0 1 0
402 495 100 0 1 0
635 421 0 1 0 0
635 201.95098876953125 0 1 0 0
635 201.95098876953125 100 1 0 0
635 421 100 1 0 0
629 421 0 -1 -0 0
629 208.04901123046875 0 -1 -0 0
629 208.04901123046875 100 -1 -0 0
629 421 100 -1 -0 0
635 201.95098876953125 0 -0.0162034053355455399 -0.999868690967559814 0
601.951416015625 202.486557006835938 0 -0.0162034053355455399 -0.999868690967559814 0
601.951416015625 202.486557006835938 100 -0.0162034053355455399 -0.999868690967559814 0
635 201.95098876953125 100 -0.0162034053355455399 -0.999868690967559814 0
629 208.04901123046875 0 0.0162034053355455399 0.999868690967559814 0
602.048583984375 208.48577880859375 0 0.0162034053355455399 0.999868690967559814 0
602.048583984375 208.48577880859375 100 0.0162034053355455399 0.999868690967559814 0
629 208.04901123046875 100 0.0162034053355455399 0.999868690967559814 0
469.406585693359375 419.983062744140625 0 -0.999984085559844971 -0.00564613472670316696 0
469.01666259765625 489.039154052734375 0 -0.999984085559844971 -0.00564613472670316696 0
469.01666259765625 489.039154052734375 100 -0.999984085559844971 -0.00564613472670316696 0
469.406585693359375 419.983062744140625 100 -0.999984085559844971 -0.00564613472670316696 0
475.406494140625 420.016937255859375 0 0.999984085559844971 0.00564613472670316696 0
474.98333740234375 494.960845947265625 0 0.999984085559844971 0.00564613472670316696 0
474.98333740234375 494.960845947265625 100 0.999984085559844971 0.00564613472670316696 0
475.406494140625 420.016937255859375 100 0.999984085559844971 0.00564613472670316696 0
469.01666259765625 489.039154052734375 0 -0.0132063953205943108 -0.999912798404693604 0
451.96038818359375 489.264404296875 0 -0.0132063953205943108 -0.999912798404693604 0
451.96038818359375 489.264404296875 100 -0.0132063953205943108 -0.999912798404693604 0
469.01666259765625 489.039154052734375 100 -0.0132063953205943108 -0.999912798404693604 0
474.98333740234375 494.960845947265625 0 0.0132063953205943108 0.999912798404693604 0
452.03961181640625 495.263885498046875 0 0.0132063953205943108 0.999912798404693604 0
452.03961181640625 495.263885498046875 100 0.0132063953205943108 0.999912798404693604 0
474.98333740234375 494.960845947265625 100 0.0132063953205943108 0.999912798404693604 0
475.406524658203125 356 0 448.99505615234375 337.22222900390625 0
469.406524658203125 356 0 448.99505615234375 337.22222900390625 0
469.406524658203125 356 100 448.99505615234375 337.22222900390625 0
475.406524658203125 356 100 448.99505615234375 337.22222900390625 0
475.406524658203125 338 0 448.99505615234375 318.22222900390625 0
469.406524658203125 338 0 448.99505615234375 318.22222900390625 0
469.406524658203125 338 100 448.99505615234375 318.22222900390625 0
475.406524658203125 338 100 448.99505615234375 318.22222900390625 0
475.406524658203125 142 0 468.516571044921875 140.942031860351562 0
469.406524658203125 142 0 468.516571044921875 140.942031860351562 0
469.406524658203125 142 100 468.516571044921875 140.942031860351562 0
475.406524658203125 142 100 468.516571044921875 140.942031860351562 0
475.406524658203125 73 0 468.516571044921875 70.9420318603515625 0
469.406524658203125 73 0 468.516571044921875 70.9420318603515625 0
469.406524658203125 73 100 468.516571044921875 70.9420318603515625 0
475.406524658203125 73 100 468.516571044921875 70.9420318603515625 0
475.406524658203125 204 0 461.823486328125 199.171432495117188 0
469.406524658203125 204 0 461.823486328125 199.171432495117188 0
469.406524658203125 204 100 461.823486328125 199.171432495117188 0
475.406524658203125 204 100 461.823486328125 199.171432495117188 0
475.406524658203125 169 0 461.823486328125 163.171432495117188 0
469.406524658203125 169 0 461.823486328125 163.171432495117188 0
469.406524658203125 169 100 461.823486328125 163.171432495117188 0
475.406524658203125 169 100 461.823486328125 163.171432495117188 0
331 514 0 325.38983154296875 506.28814697265625 0
325 514 0 325.38983154296875 506.28814697265625 0
325 514 100 325.38983154296875 506.28814697265625 0
331 514 100 325.38983154296875 506.28814697265625 0
382 202.486160278320312 0 376.178558349609375 198.870346069335938 0
382 208.486160278320312 0 376.178558349609375 198.870346069335938 0
382 208.486160278320312 100 376.178558349609375 198.870346069335938 0
382 202.486160278320312 100 376.178558349609375 198.870346069335938 0
326 202.486160278320312 0 319.178558349609375 198.870346069335938 0
326 208.486160278320312 0 319.178558349609375 198.870346069335938 0
326 208.486160278320312 100 319.178558349609375 198.870346069335938 0
326 202.486160278320312 100 319.178558349609375 198.870346069335938 0
254 208 0 250.019607543945312 203.92156982421875 0
254 202 0 250.019607543945312 203.92156982421875 0
254 202 100 250.019607543945312 203.92156982421875 0
254 208 100 250.019607543945312 203.92156982421875 0
297 202.486160278320312 0 276.78570556640625 188.022872924804688 0
297 208.486160278320312 0 276.78570556640625 188.022872924804688 0
297 208.486160278320312 100 276.78570556640625 188.022872924804688 0
297 202.486160278320312 100 276.78570556640625 188.022872924804688 0
283 202.486160278320312 0 261.78570556640625 188.022872924804688 0
283 208.486160278320312 0 261.78570556640625 188.022872924804688 0
283 208.486160278320312 100 261.78570556640625 188.022872924804688 0
283 202.486160278320312 100 261.78570556640625 188.022872924804688 0
328 371.5 0 326.396820068359375 368.55157470703125 0
328 377.5 0 326.396820068359375 368.55157470703125 0
328 377.5 100 326.396820068359375 368.55157470703125 0
328 371.5 100 326.396820068359375 368.55157470703125 0
202 371.5 0 199.396820068359375 368.55157470703125 0
202 377.5 0 199.396820068359375 368.55157470703125 0
202 377.5 100 199.396820068359375 368.55157470703125 0
202 371.5 100 199.396820068359375 368.55157470703125 0
382.90350341796875 492 0 373.998779296875 481.558135986328125 0
376.90350341796875 492 0 373.998779296875 481.558135986328125 0
376.90350341796875 492 100 373.998779296875 481.558135986328125 0
382.90350341796875 492 100 373.998779296875 481.558135986328125 0
382.90350341796875 449 0 373.998779296875 437.558135986328125 0
376.90350341796875 449 0 373.998779296875 437.558135986328125 0
376.90350341796875 449 100 373.998779296875 437.558135986328125 0
382.90350341796875 449 100 373.998779296875 437.558135986328125 0
382.90350341796875 336 0 358.9720458984375 316 0
376.90350341796875 336 0 358.9720458984375 316 0
376.90350341796875 336 100 358.9720458984375 316 0
382.90350341796875 336 100 358.9720458984375 316 0
382.90350341796875 320 0 358.9720458984375 299 0
376.90350341796875 320 0 358.9720458984375 299 0
376.90350341796875 320 100 358.9720458984375 299 0
382.90350341796875 320 100 358.9720458984375 299 0
277 526.47857666015625 0 267.346160888671875 506.229400634765625 0
277 532.47857666015625 0 267.346160888671875 506.229400634765625 0
277 532.47857666015625 100 267.346160888671875 506.229400634765625 0
277 526.47857666015625 100 267.346160888671875 506.229400634765625 0
251 526.47857666015625 0 240.346160888671875 506.229400634765625 0
251 532.47857666015625 0 240.346160888671875 506.229400634765625 0
251 532.47857666015625 100 240.346160888671875 506.229400634765625 0
251 526.47857666015625 100 240.346160888671875 506.229400634765625 0
225 532 0 217.964279174804688 513 0
225 526 0 217.964279174804688 513 0
225 526 100 217.964279174804688 513 0
225 532 100 217.964279174804688 513 0
326 526.47857666015625 0 312.826080322265625 503.58819580078125 0
326 532.47857666015625 0 312.826080322265625 503.58819580078125 0
326 532.47857666015625 100 312.826080322265625 503.58819580078125 0
326 526.47857666015625 100 312.826080322265625 503.58819580078125 0
303 526.47857666015625 0 288.826080322265625 503.58819580078125 0
303 532.47857666015625 0 288.826080322265625 503.58819580078125 0
303 532.47857666015625 100 288.826080322265625 503.58819580078125 0
303 526.47857666015625 100 288.826080322265625 503.58819580078125 0
582 29.2857151031494141 0 574.56524658203125 28.8612842559814453 0
582 35.2857131958007812 0 574.56524658203125 28.8612842559814453 0
582 35.2857131958007812 100 574.56524658203125 28.8612842559814453 0
582 29.2857151031494141 100 574.56524658203125 28.8612842559814453 0
513 29.2857151031494141 0 504.565216064453125 28.8612842559814453 0
513 35.2857131958007812 0 504.565216064453125 28.8612842559814453 0
513 35.2857131958007812 100 504.565216064453125 28.8612842559814453 0
513 29.2857151031494141 100 504.565216064453125 28.8612842559814453 0
603 29.2857151031494141 0 566.3125 27.4553565979003906 0
603 35.2857131958007812 0 566.3125 27.4553565979003906 0
603 35.2857131958007812 100 566.3125 27.4553565979003906 0
603 29.2857151031494141 100 566.3125 27.4553565979003906 0
587 29.2857151031494141 0 549.3125 27.4553565979003906 0
587 35.2857131958007812 0 549.3125 27.4553565979003906 0
587 35.2857131958007812 100 549.3125 27.4553565979003906 0
587 29.2857151031494141 100 549.3125 27.4553565979003906 0
575.5875244140625 253 0 563.3409423828125 248.617019653320312 0
569.5875244140625 253 0 563.3409423828125 248.617019653320312 0
569.5875244140625 253 100 563.3409423828125 248.617019653320312 0
575.5875244140625 253 100 563.3409423828125 248.617019653320312 0
575.5875244140625 206 0 563.3409423828125 200.617019653320312 0
569.5875244140625 206 0 563.3409423828125 200.617019653320312 0
569.5875244140625 206 100 563.3409423828125 200.617019653320312 0
575.5875244140625 206 100 563.3409423828125 200.617019653320312 0
402 489 0 384.727264404296875 466.772735595703125 0
402 495 0 384.727264404296875 466.772735595703125 0
402 495 100 384.727264404296875 466.772735595703125 0
402 489 100 384.727264404296875 466.772735595703125 0
380 489 0 361.727264404296875 466.772735595703125 0
380 495 0 361.727264404296875 466.772735595703125 0
380 495 100 361.727264404296875 466.772735595703125 0
380 489 100 361.727264404296875 466.772735595703125 0
344 455 0 318.5384521484375 420 0
344 449 0 318.5384521484375 420 0
344 449 100 318.5384521484375 420 0
344 455 100 318.5384521484375 420 0
635 421 0 632.10113525390625 420.07806396484375 0
629 421 0 632.10113525390625 420.07806396484375 0
629 421 100 632.10113525390625 420.07806396484375 0
635 421 100 632.10113525390625 420.07806396484375 0
601.951416015625 202.486557006835938 0 582.73980712890625 196.376632690429688 0
602.048583984375 208.48577880859375 0 582.73980712890625 196.376632690429688 0
602.048583984375 208.48577880859375 100 582.73980712890625 196.376632690429688 0
601.951416015625 202.486557006835938 100 582.73980712890625 196.376632690429688 0
469.406585693359375 419.983062744140625 0 462.6148681640625 412.901397705078125 0
475.406494140625 420.016937255859375 0 462.6148681640625 412.901397705078125 0
475.406494140625 420.016937255859375 100 462.6148681640625 412.901397705078125 0
469.406585693359375 419.983062744140625 100 462.6148681640625 412.901397705078125 0
451.96038818359375 489.264404296875 0 424.464599609375 460.5948486328125 0
452.03961181640625 495.263885498046875 0 424.464599609375 460.5948486328125 0
452.03961181640625 495.263885498046875 100 424.464599609375 460.5948486328125 0
451.96038818359375 489.264404296875 100 424.464599609375 460.5948486328125 0
203 526 0 0 0 -1
197 532 0 0 0 -1
197 202 0 0 0 -1
203 208 0 0 0 -1
203 526 100 0 0 1
197 532 100 0 0 1
197 202 100 0 0 1
203 208 100 0 0 1
197 532 0 0 0 -1
203 526 0 0 0 -1
225 526 0 0 0 -1
225 532 0 0 0 -1
197 532 100 0 0 1
203 526 100 0 0 1
225 526 100 0 0 1
225 532 100 0 0 1
203 208 0 0 0 -1
197 202 0 0 0 -1
254 202 0 0 0 -1
254 208 0 0 0 -1
203 208 100 0 0 1
197 202 100 0 0 1
254 202 100 0 0 1
254 208 100 0 0 1
475.406524658203125 356 0 0 0 -1
469.406524658203125 356 0 0 0 -1
469.406524658203125 338 0 0 0 -1
475.406524658203125 338 0 0 0 -1
475.406524658203125 356 100 0 0 1
469.406524658203125 356 100 0 0 1
469.406524658203125 338 100 0 0 1
475.406524658203125 338 100 0 0 1
475.406524658203125 142 0 0 0 -1
469.406524658203125 142 0 0 0 -1
469.406524658203125 73 0 0 0 -1
475.406524658203125 73 0 0 0 -1
475.406524658203125 142 100 0 0 1
469.406524658203125 142 100 0 0 1
469.406524658203125 73 100 0 0 1
475.406524658203125 73 100 0 0 1
475.406524658203125 204 0 0 0 -1
469.406524658203125 204 0 0 0 -1
469.406524658203125 169 0 0 0 -1
475.406524658203125 169 0 0 0 -1
475.406524658203125 204 100 0 0 1
469.406524658203125 204 100 0 0 1
469.406524658203125 169 100 0 0 1
475.406524658203125 169 100 0 0 1
331 514 0 0 0 -1
325 514 0 0 0 -1
325 449 0 0 0 -1
331 455 0 0 0 -1
331 514 100 0 0 1
325 514 100 0 0 1
325 449 100 0 0 1
331 455 100 0 0 1
331 455 0 0 0 -1
325 449 0 0 0 -1
344 449 0 0 0 -1
344 455 0 0 0 -1
331 455 100 0 0 1
325 449 100 0 0 1
344 449 100 0 0 1
344 455 100 0 0 1
382 202.486160278320312 0 0 0 -1
382 208.486160278320312 0 0 0 -1
326 208.486160278320312 0 0 0 -1
326 202.486160278320312 0 0 0 -1
382 202.486160278320312 100 0 0 1
382 208.486160278320312 100 0 0 1
326 208.486160278320312 100 0 0 1
326 202.486160278320312 100 0 0 1
297 202.486160278320312 0 0 0 -1
297 208.486160278320312 0 0 0 -1
283 208.486160278320312 0 0 0 -1
283 202.486160278320312 0 0 0 -1
297 202.486160278320312 100 0 0 1
297 208.486160278320312 100 0 0 1
283 208.486160278320312 100 0 0 1
283 202.486160278320312 100 0 0 1
328 371.5 0 0 0 -1
328 377.5 0 0 0 -1
202 377.5 0 0 0 -1
202 371.5 0 0 0 -1
328 371.5 100 0 0 1
328 377.5 100 0 0 1
202 377.5 100 0 0 1
202 371.5 100 0 0 1
382.90350341796875 492 0 0 0 -1
376.90350341796875 492 0 0 0 -1
376.90350341796875 449 0 0 0 -1
382.90350341796875 449 0 0 0 -1
382.90350341796875 492 100 0 0 1
376.90350341796875 492 100 0 0 1
376.90350341796875 449 100 0 0 1
382.90350341796875 449 100 0 0 1
382.90350341796875 336 0 0 0 -1
376.90350341796875 336 0 0 0 -1
376.90350341796875 320 0 0 0 -1
382.90350341796875 320 0 0 0 -1
382.90350341796875 336 100 0 0 1
376.90350341796875 336 100 0 0 1
376.90350341796875 320 100 0 0 1
382.90350341796875 320 100 0 0 1
277 526.47857666015625 0 0 0 -1
277 532.47857666015625 0 0 0 -1
251 532.47857666015625 0 0 0 -1
251 526.47857666015625 0 0 0 -1
277 526.47857666015625 100 0 0 1
277 532.47857666015625 100 0 0 1
251 532.47857666015625 100 0 0 1
251 526.47857666015625 100 0 0 1
326 526.47857666015625 0 0 0 -1
326 532.47857666015625 0 0 0 -1
303 532.47857666015625 0 0 0 -1
303 526.47857666015625 0 0 0 -1
326 526.47857666015625 100 0 0 1
326 532.47857666015625 100 0 0 1
303 532.47857666015625 100 0 0 1
303 526.47857666015625 100 0 0 1
582 29.2857151031494141 0 0 0 -1
582 35.2857131958007812 0 0 0 -1
513 35.2857131958007812 0 0 0 -1
513 29.2857151031494141 0 0 0 -1
582 29.2857151031494141 100 0 0 1
582 35.2857131958007812 100 0 0 1
513 35.2857131958007812 100 0 0 1
513 29.2857151031494141 100 0 0 1
603 29.2857151031494141 0 0 0 -1
603 35.2857131958007812 0 0 0 -1
587 35.2857131958007812 0 0 0 -1
587 29.2857151031494141 0 0 0 -1
603 29.2857151031494141 100 0 0 1
603 35.2857131958007812 100 0 0 1
587 35.2857131958007812 100 0 0 1
587 29.2857151031494141 100 0 0 1
575.5875244140625 253 0 0 0 -1
569.5875244140625 253 0 0 0 -1
569.5875244140625 206 0 0 0 -1
575.5875244140625 206 0 0 0 -1
575.5875244140625 253 100 0 0 1
569.5875244140625 253 100 0 0 1
569.5875244140625 206 100 0 0 1
575.5875244140625 206 100 0 0 1
402 489 0 0 0 -1
402 495 0 0 0 -1
380 495 0 0 0 -1
380 489 0 0 0 -1
402 489 100 0 0 1
402 495 100 0 0 1
380 495 100 0 0 1
380 489 100 0 0 1
635 421 0 0 0 -1
629 421 0 0 0 -1
629 208.04901123046875 0 0 0 -1
635 201.95098876953125 0 0 0 -1
635 421 100 0 0 1
629 421 100 0 0 1
629 208.04901123046875 100 0 0 1
635 201.95098876953125 100 0 0 1
635 201.95098876953125 0 0 0 -1
629 208.04901123046875 0 0 0 -1
602.048583984375 208.48577880859375 0 0 0 -1
601.951416015625 202.486557006835938 0 0 0 -1
635 201.95098876953125 100 0 0 1
629 208.04901123046875 100 0 0 1
602.048583984375 208.48577880859375 100 0 0 1
601.951416015625 202.486557006835938 100 0 0 1
469.406585693359375 419.983062744140625 0 0 0 -1
475.406494140625 420.016937255859375 0 0 0 -1
474.98333740234375 494.960845947265625 0 0 0 -1
469.01666259765625 489.039154052734375 0 0 0 -1
469.406585693359375 419.983062744140625 100 0 0 1
475.406494140625 420.016937255859375 100 0 0 1
474.98333740234375 494.960845947265625 100 0 0 1
469.01666259765625 489.039154052734375 100 0 0 1
469.01666259765625 489.039154052734375 0 0 0 -1
474.98333740234375 494.960845947265625 0 0 0 -1
452.03961181640625 495.263885498046875 0 0 0 -1
451.96038818359375 489.264404296875 0 0 0 -1
469.01666259765625 489.039154052734375 100 0 0 1
474.98333740234375 494.960845947265625 100 0 0 1
452.03961181640625 495.263885498046875 100 0 0 1
451.96038818359375 489.264404296875 100 0 0 1
4 0 1 2 3
4 4 5 6 7
4 8 9 10 11
4 12 13 14 15
4 16 17 18 19
4 20 21 22 23
4 24 25 26 27
4 28 29 30 31
4 32 33 34 35
4 36 37 38 39
4 40 41 42 43
4 44 45 46 47
4 48 49 50 51
4 52 53 54 55
4 56 57 58 59
4 60 61 62 63
4 64 65 66 67
4 68 69 70 71
4 72 73 74 75
4 76 77 78 79
4 80 81 82 83
4 84 85 86 87
4 88 89 90 91
4 92 93 94 95
4 96 97 98 99
4 100 101 102 103
4 104 105 106 107
4 108 109 110 111
4 112 113 114 115
4 116 117 118 119
4 120 121 122 123
4 124 125 126 127
4 128 129 130 131
4 132 133 134 135
4 136 137 138 139
4 140 141 142 143
4 144 145 146 147
4 148 149 150 151
4 152 153 154 155
4 156 157 158 159
4 160 161 162 163
4 164 165 166 167
4 168 169 170 171
4 172 173 174 175
4 176 177 178 179
4 180 181 182 183
4 184 185 186 187
4 188 189 190 191
4 192 193 194 195
4 196 197 198 199
4 200 201 202 203
4 204 205 206 207
4 208 209 210 211
4 212 213 214 215
4 216 217 218 219
4 220 221 222 223
4 224 225 226 227
4 228 229 230 231
4 232 233 234 235
4 236 237 238 239
4 240 241 242 243
4 244 245 246 247
4 248 249 250 251
4 252 253 254 255
4 256 257 258 259
4 260 261 262 263
4 264 265 266 267
4 268 269 270 271
4 272 273 274 275
4 276 277 278 279
4 280 281 282 283
4 284 285 286 287
4 288 289 290 291
4 292 293 294 295
4 296 297 298 299
4 300 301 302 303
4 304 305 306 307
4 308 309 310 311
4 312 313 314 315
4 316 317 318 319
4 320 321 322 323
4 324 325 326 327
4 328 329 330 331
4 332 333 334 335
4 336 337 338 339
4 340 341 342 343
4 344 345 346 347
4 348 349 350 351
4 352 353 354 355
4 356 357 358 359
4 360 361 362 363
4 364 365 366 367
4 368 369 370 371
4 372 373 374 375
4 376 377 378 379
4 380 381 382 383
4 384 385 386 387
4 388 389 390 391
4 392 393 394 395
4 396 397 398 399
4 400 401 402 403
4 404 405 406 407
4 408 409 410 411
4 412 413 414 415
4 416 417 418 419
4 420 421 422 423
4 424 425 426 427
4 428 429 430 431
4 432 433 434 435
4 436 437 438 439
4 440 441 442 443
4 444 445 446 447
4 448 449 450 451
4 452 453 454 455
4 456 457 458 459
4 460 461 462 463
4 464 465 466 467
4 468 469 470 471
4 472 473 474 475
4 476 477 478 479
4 480 481 482 483
4 484 485 486 487
4 488 489 490 491
4 492 493 494 495
4 496 497 498 499
4 500 501 502 503
4 504 505 506 507
4 508 509 510 511
