ply
format ascii 1.0
element vertex 376
property float x
property float y
property float z
property float nx
property float ny
property float nz
element quads 94
property list uchar int vertex_indices
end_header
272 385 0 1 0 0
272 29 0 1 0 0
272 29 150 1 0 0
272 385 150 1 0 0
262 395 0 -1 -0 0
262 19 0 -1 -0 0
262 19 150 -1 -0 0
262 395 150 -1 -0 0
262 395 0 -0 1 0
295 395 0 -0 1 0
295 395 150 -0 1 0
262 395 150 -0 1 0
272 385 0 0 -1 0
295 385 0 0 -1 0
295 385 150 0 -1 0
272 385 150 0 -1 0
272 29 0 -0 1 0
288 29 0 -0 1 0
288 29 150 -0 1 0
272 29 150 -0 1 0
262 19 0 0 -1 0
288 19 0 0 -1 0
288 19 150 0 -1 0
262 19 150 0 -1 0
393 385.495330810546875 0 -0 -1 0
339 385.495330810546875 0 -0 -1 0
339 385.495330810546875 150 -0 -1 0
393 385.495330810546875 150 -0 -1 0
393 395.495330810546875 0 0 1 0
339 395.495330810546875 0 0 1 0
339 395.495330810546875 150 0 1 0
393 395.495330810546875 150 0 1 0
569 19 0 -0 -1 0
387 19 0 -0 -1 0
387 19 150 -0 -1 0
569 19 150 -0 -1 0
559 29 0 0 1 0
387 29 0 0 1 0
387 29 150 0 1 0
559 29 150 0 1 0
559 29 0 -1 0 0
559 385.08544921875 0 -1 0 0
559 385.08544921875 150 -1 0 0
559 29 150 -1 0 0
569 19 0 1 -0 0
569 394.91455078125 0 1 -0 0
569 394.91455078125 150 1 -0 0
569 19 150 1 -0 0
436 182.5 0 -0 -1 0
386 182.5 0 -0 -1 0
386 182.5 150 -0 -1 0
436 182.5 150 -0 -1 0
436 192.5 0 0 1 0
386 192.5 0 0 1 0
386 192.5 150 0 1 0
436 192.5 150 0 1 0
510.971099853515625 305 0 1 0 0
510.971099853515625 245 0 1 0 0
510.971099853515625 245 150 1 0 0
510.971099853515625 305 150 1 0 0
500.971099853515625 305 0 -1 -0 0
500.971099853515625 245 0 -1 -0 0
500.971099853515625 245 150 -1 -0 0
500.971099853515625 305 150 -1 -0 0
562 181.1656494140625 0 -0 -1 0
485 181.1656494140625 0 -0 -1 0
485 181.1656494140625 150 -0 -1 0
562 181.1656494140625 150 -0 -1 0
562 191.1656494140625 0 0 1 0
485 191.1656494140625 0 0 1 0
485 191.1656494140625 150 0 1 0
562 191.1656494140625 150 0 1 0
561 271.218048095703125 0 -0 -1 0
507 271.218048095703125 0 -0 -1 0
507 271.218048095703125 150 -0 -1 0
561 271.218048095703125 150 -0 -1 0
561 281.218048095703125 0 0 1 0
507 281.218048095703125 0 0 1 0
507 281.218048095703125 150 0 1 0
561 281.218048095703125 150 0 1 0
561 64 0 -0 -1 0
522 64 0 -0 -1 0
522 64 150 -0 -1 0
561 64 150 -0 -1 0
561 74 0 0 1 0
522 74 0 0 1 0
522 74 150 0 1 0
561 74 150 0 1 0
510.983062744140625 207 0 1 0 0
510.983062744140625 187 0 1 0 0
510.983062744140625 187 150 1 0 0
510.983062744140625 207 150 1 0 0
500.983062744140625 207 0 -1 -0 0
500.983062744140625 187 0 -1 -0 0
500.983062744140625 187 150 -1 -0 0
500.983062744140625 207 150 -1 -0 0
403.5057373046875 70 0 1 0 0
403.5057373046875 26 0 1 0 0
403.5057373046875 26 150 1 0 0
403.5057373046875 70 150 1 0 0
393.5057373046875 70 0 -1 -0 0
393.5057373046875 26 0 -1 -0 0
393.5057373046875 26 150 -1 -0 0
393.5057373046875 70 150 -1 -0 0
444 70 0 1 0 0
444 26 0 1 0 0
444 26 150 1 0 0
444 70 150 1 0 0
434 70 0 -1 -0 0
434 26 0 -1 -0 0
434 26 150 -1 -0 0
434 70 150 -1 -0 0
501 385.5 0 -0 -1 0
437 385.5 0 -0 -1 0
437 385.5 150 -0 -1 0
501 385.5 150 -0 -1 0
501 395.5 0 0 1 0
437 395.5 0 0 1 0
437 395.5 150 0 1 0
501 395.5 150 0 1 0
344 19.0263156890869141 0 -0 -1 0
331 19.0263156890869141 0 -0 -1 0
331 19.0263156890869141 150 -0 -1 0
344 19.0263156890869141 150 -0 -1 0
344 29.0263156890869141 0 0 1 0
331 29.0263156890869141 0 0 1 0
331 29.0263156890869141 150 0 1 0
344 29.0263156890869141 150 0 1 0
559 385.08544921875 0 -0.0172388181090354919 -0.999851405620574951 0
534.913818359375 385.500732421875 0 -0.0172388181090354919 -0.999851405620574951 0
534.913818359375 385.500732421875 150 -0.0172388181090354919 -0.999851405620574951 0
559 385.08544921875 150 -0.0172388181090354919 -0.999851405620574951 0
569 394.91455078125 0 0.0172388181090354919 0.999851405620574951 0
535.086181640625 395.499267578125 0 0.0172388181090354919 0.999851405620574951 0
535.086181640625 395.499267578125 150 0.0172388181090354919 0.999851405620574951 0
569 394.91455078125 150 0.0172388181090354919 0.999851405620574951 0
393 385.495330810546875 0 386.72222900390625 378.356536865234375 0
393 395.495330810546875 0 386.72222900390625 378.356536865234375 0
393 395.495330810546875 150 386.72222900390625 378.356536865234375 0
393 385.495330810546875 150 386.72222900390625 378.356536865234375 0
339 385.495330810546875 0 331.72222900390625 378.356536865234375 0
339 395.495330810546875 0 331.72222900390625 378.356536865234375 0
339 395.495330810546875 150 331.72222900390625 378.356536865234375 0
339 385.495330810546875 150 331.72222900390625 378.356536865234375 0
387 19 0 383.873626708984375 18.8956050872802734 0
387 29 0 383.873626708984375 18.8956050872802734 0
387 29 150 383.873626708984375 18.8956050872802734 0
387 19 150 383.873626708984375 18.8956050872802734 0
436 182.5 0 428.279998779296875 178.850006103515625 0
436 192.5 0 428.279998779296875 178.850006103515625 0
436 192.5 150 428.279998779296875 178.850006103515625 0
436 182.5 150 428.279998779296875 178.850006103515625 0
386 182.5 0 377.279998779296875 178.850006103515625 0
386 192.5 0 377.279998779296875 178.850006103515625 0
386 192.5 150 377.279998779296875 178.850006103515625 0
386 182.5 150 377.279998779296875 178.850006103515625 0
295 395 0 287.06060791015625 383.030303955078125 0
295 385 0 287.06060791015625 383.030303955078125 0
295 385 150 287.06060791015625 383.030303955078125 0
295 395 150 287.06060791015625 383.030303955078125 0
288 29 0 271 27.1875 0
288 19 0 271 27.1875 0
288 19 150 271 27.1875 0
288 29 150 271 27.1875 0
510.971099853515625 305 0 502.454925537109375 300.916656494140625 0
500.971099853515625 305 0 502.454925537109375 300.916656494140625 0
500.971099853515625 305 150 502.454925537109375 300.916656494140625 0
510.971099853515625 305 150 502.454925537109375 300.916656494140625 0
510.971099853515625 245 0 502.454925537109375 239.916671752929688 0
500.971099853515625 245 0 502.454925537109375 239.916671752929688 0
500.971099853515625 245 150 502.454925537109375 239.916671752929688 0
510.971099853515625 245 150 502.454925537109375 239.916671752929688 0
562 181.1656494140625 0 555.7012939453125 178.812850952148438 0
562 191.1656494140625 0 555.7012939453125 178.812850952148438 0
562 191.1656494140625 150 555.7012939453125 178.812850952148438 0
562 181.1656494140625 150 555.7012939453125 178.812850952148438 0
485 181.1656494140625 0 477.7012939453125 178.812850952148438 0
485 191.1656494140625 0 477.7012939453125 178.812850952148438 0
485 191.1656494140625 150 477.7012939453125 178.812850952148438 0
485 181.1656494140625 150 477.7012939453125 178.812850952148438 0
561 271.218048095703125 0 551.611083984375 266.19549560546875 0
561 281.218048095703125 0 551.611083984375 266.19549560546875 0
561 281.218048095703125 150 551.611083984375 266.19549560546875 0
561 271.218048095703125 150 551.611083984375 266.19549560546875 0
507 271.218048095703125 0 496.611114501953125 266.19549560546875 0
507 281.218048095703125 0 496.611114501953125 266.19549560546875 0
507 281.218048095703125 150 496.611114501953125 266.19549560546875 0
507 271.218048095703125 150 496.611114501953125 266.19549560546875 0
561 64 0 547.6153564453125 62.3589744567871094 0
561 74 0 547.6153564453125 62.3589744567871094 0
561 74 150 547.6153564453125 62.3589744567871094 0
561 64 150 547.6153564453125 62.3589744567871094 0
522 64 0 507.615386962890625 62.3589744567871094 0
522 74 0 507.615386962890625 62.3589744567871094 0
522 74 150 507.615386962890625 62.3589744567871094 0
522 64 150 507.615386962890625 62.3589744567871094 0
510.983062744140625 207 0 485.43389892578125 197.649993896484375 0
500.983062744140625 207 0 485.43389892578125 197.649993896484375 0
500.983062744140625 207 150 485.43389892578125 197.649993896484375 0
510.983062744140625 207 150 485.43389892578125 197.649993896484375 0
510.983062744140625 187 0 485.43389892578125 176.649993896484375 0
500.983062744140625 187 0 485.43389892578125 176.649993896484375 0
500.983062744140625 187 150 485.43389892578125 176.649993896484375 0
510.983062744140625 187 150 485.43389892578125 176.649993896484375 0
403.5057373046875 70 0 394.335174560546875 69.409088134765625 0
393.5057373046875 70 0 394.335174560546875 69.409088134765625 0
393.5057373046875 70 150 394.335174560546875 69.409088134765625 0
403.5057373046875 70 150 394.335174560546875 69.409088134765625 0
403.5057373046875 26 0 394.335174560546875 24.4090900421142578 0
393.5057373046875 26 0 394.335174560546875 24.4090900421142578 0
393.5057373046875 26 150 394.335174560546875 24.4090900421142578 0
403.5057373046875 26 150 394.335174560546875 24.4090900421142578 0
444 70 0 433.909088134765625 69.409088134765625 0
434 70 0 433.909088134765625 69.409088134765625 0
434 70 150 433.909088134765625 69.409088134765625 0
444 70 150 433.909088134765625 69.409088134765625 0
444 26 0 433.909088134765625 24.4090900421142578 0
434 26 0 433.909088134765625 24.4090900421142578 0
434 26 150 433.909088134765625 24.4090900421142578 0
444 26 150 433.909088134765625 24.4090900421142578 0
501 385.5 0 494.171875 379.4765625 0
501 395.5 0 494.171875 379.4765625 0
501 395.5 150 494.171875 379.4765625 0
501 385.5 150 494.171875 379.4765625 0
437 385.5 0 429.171875 379.4765625 0
437 395.5 0 429.171875 379.4765625 0
437 395.5 150 429.171875 379.4765625 0
437 385.5 150 429.171875 379.4765625 0
344 19.0263156890869141 0 318.5384521484375 17.5627536773681641 0
344 29.0263156890869141 0 318.5384521484375 17.5627536773681641 0
344 29.0263156890869141 150 318.5384521484375 17.5627536773681641 0
344 19.0263156890869141 150 318.5384521484375 17.5627536773681641 0
331 19.0263156890869141 0 304.5384521484375 17.5627536773681641 0
331 29.0263156890869141 0 304.5384521484375 17.5627536773681641 0
331 29.0263156890869141 150 304.5384521484375 17.5627536773681641 0
331 19.0263156890869141 150 304.5384521484375 17.5627536773681641 0
534.913818359375 385.500732421875 0 511.708953857421875 369.51531982421875 0
535.086181640625 395.499267578125 0 511.708953857421875 369.51531982421875 0
535.086181640625 395.499267578125 150 511.708953857421875 369.51531982421875 0
534.913818359375 385.500732421875 150 511.708953857421875 369.51531982421875 0
272 385 0 0 0 -1
262 395 0 0 0 -1
262 19 0 0 0 -1
272 29 0 0 0 -1
272 385 150 0 0 1
262 395 150 0 0 1
262 19 150 0 0 1
272 29 150 0 0 1
262 395 0 0 0 -1
272 385 0 0 0 -1
295 385 0 0 0 -1
295 395 0 0 0 -1
262 395 150 0 0 1
272 385 150 0 0 1
295 385 150 0 0 1
295 395 150 0 0 1
272 29 0 0 0 -1
262 19 0 0 0 -1
288 19 0 0 0 -1
288 29 0 0 0 -1
272 29 150 0 0 1
262 19 150 0 0 1
288 19 150 0 0 1
288 29 150 0 0 1
393 385.495330810546875 0 0 0 -1
393 395.495330810546875 0 0 0 -1
339 395.495330810546875 0 0 0 -1
339 385.495330810546875 0 0 0 -1
393 385.495330810546875 150 0 0 1
393 395.495330810546875 150 0 0 1
339 395.495330810546875 150 0 0 1
339 385.495330810546875 150 0 0 1
569 19 0 0 0 -1
559 29 0 0 0 -1
387 29 0 0 0 -1
387 19 0 0 0 -1
569 19 150 0 0 1
559 29 150 0 0 1
387 29 150 0 0 1
387 19 150 0 0 1
559 29 0 0 0 -1
569 19 0 0 0 -1
569 394.91455078125 0 0 0 -1
559 385.08544921875 0 0 0 -1
559 29 150 0 0 1
569 19 150 0 0 1
569 394.91455078125 150 0 0 1
559 385.08544921875 150 0 0 1
436 182.5 0 0 0 -1
436 192.5 0 0 0 -1
386 192.5 0 0 0 -1
386 182.5 0 0 0 -1
436 182.5 150 0 0 1
436 192.5 150 0 0 1
386 192.5 150 0 0 1
386 182.5 150 0 0 1
510.971099853515625 305 0 0 0 -1
500.971099853515625 305 0 0 0 -1
500.971099853515625 245 0 0 0 -1
510.971099853515625 245 0 0 0 -1
510.971099853515625 305 150 0 0 1
500.971099853515625 305 150 0 0 1
500.971099853515625 245 150 0 0 1
510.971099853515625 245 150 0 0 1
562 181.1656494140625 0 0 0 -1
562 191.1656494140625 0 0 0 -1
485 191.1656494140625 0 0 0 -1
485 181.1656494140625 0 0 0 -1
562 181.1656494140625 150 0 0 1
562 191.1656494140625 150 0 0 1
485 191.1656494140625 150 0 0 1
485 181.1656494140625 150 0 0 1
561 271.218048095703125 0 0 0 -1
561 281.218048095703125 0 0 0 -1
507 281.218048095703125 0 0 0 -1
507 271.218048095703125 0 0 0 -1
561 271.218048095703125 150 0 0 1
561 281.218048095703125 150 0 0 1
507 281.218048095703125 150 0 0 1
507 271.218048095703125 150 0 0 1
561 64 0 0 0 -1
561 74 0 0 0 -1
522 74 0 0 0 -1
522 64 0 0 0 -1
561 64 150 0 0 1
561 74 150 0 0 1
522 74 150 0 0 1
522 64 150 0 0 1
510.983062744140625 207 0 0 0 -1
500.983062744140625 207 0 0 0 -1
500.983062744140625 187 0 0 0 -1
510.983062744140625 187 0 0 0 -1
510.983062744140625 207 150 0 0 1
500.983062744140625 207 150 0 0 1
500.983062744140625 187 150 0 0 1
510.983062744140625 187 150 0 0 1
403.5057373046875 70 0 0 0 -1
393.5057373046875 70 0 0 0 -1
393.5057373046875 26 0 0 0 -1
403.5057373046875 26 0 0 0 -1
403.5057373046875 70 150 0 0 1
393.5057373046875 70 150 0 0 1
393.5057373046875 26 150 0 0 1
403.5057373046875 26 150 0 0 1
444 70 0 0 0 -1
434 70 0 0 0 -1
434 26 0 0 0 -1
444 26 0 0 0 -1
444 70 150 0 0 1
434 70 150 0 0 1
434 26 150 0 0 1
444 26 150 0 0 1
501 385.5 0 0 0 -1
501 395.5 0 0 0 -1
437 395.5 0 0 0 -1
437 385.5 0 0 0 -1
501 385.5 150 0 0 1
501 395.5 150 0 0 1
437 395.5 150 0 0 1
437 385.5 150 0 0 1
344 19.0263156890869141 0 0 0 -1
344 29.0263156890869141 0 0 0 -1
331 29.0263156890869141 0 0 0 -1
331 19.0263156890869141 0 0 0 -1
344 19.0263156890869141 150 0 0 1
344 29.0263156890869141 150 0 0 1
331 29.0263156890869141 150 0 0 1
331 19.0263156890869141 150 0 0 1
559 385.08544921875 0 0 0 -1
569 394.91455078125 0 0 0 -1
535.086181640625 395.499267578125 0 0 0 -1
534.913818359375 385.500732421875 0 0 0 -1
559 385.08544921875 150 0 0 1
569 394.91455078125 150 0 0 1
535.086181640625 395.499267578125 150 0 0 1
534.913818359375 385.500732421875 150 0 0 1
4 0 1 2 3
4 4 5 6 7
4 8 9 10 11
4 12 13 14 15
4 16 17 18 19
4 20 21 22 23
4 24 25 26 27
4 28 29 30 31
4 32 33 34 35
4 36 37 38 39
4 40 41 42 43
4 44 45 46 47
4 48 49 50 51
4 52 53 54 55
4 56 57 58 59
4 60 61 62 63
4 64 65 66 67
4 68 69 70 71
4 72 73 74 75
4 76 77 78 79
4 80 81 82 83
4 84 85 86 87
4 88 89 90 91
4 92 93 94 95
4 96 97 98 99
4 100 101 102 103
4 104 105 106 107
4 108 109 110 111
4 112 113 114 115
4 116 117 118 119
4 120 121 122 123
4 124 125 126 127
4 128 129 130 131
4 132 133 134 135
4 136 137 138 139
4 140 141 142 143
4 144 145 146 147
4 148 149 150 151
4 152 153 154 155
4 156 157 158 159
4 160 161 162 163
4 164 165 166 167
4 168 169 170 171
4 172 173 174 175
4 176 177 178 179
4 180 181 182 183
4 184 185 186 187
4 188 189 190 191
4 192 193 194 195
4 196 197 198 199
4 200 201 202 203
4 204 205 206 207
4 208 209 210 211
4 212 213 214 215
4 216 217 218 219
4 220 221 222 223
4 224 225 226 227
4 228 229 230 231
4 232 233 234 235
4 236 237 238 239
4 240 241 242 243
4 244 245 246 247
4 248 249 250 251
4 252 253 254 255
4 256 257 258 259
4 260 261 262 263
4 264 265 266 267
4 268 269 270 271
4 272 273 274 275
4 276 277 278 279
4 280 281 282 283
4 284 285 286 287
4 288 289 290 291
4 292 293 294 295
4 296 297 298 299
4 300 301 302 303
4 304 305 306 307
4 308 309 310 311
4 312 313 314 315
4 316 317 318 319
4 320 321 322 323
4 324 325 326 327
4 328 329 330 331
4 332 333 334 335
4 336 337 338 339
4 340 341 342 343
4 344 345 346 347
4 348 349 350 351
4 352 353 354 355
4 356 357 358 359
4 360 361 362 363
4 364 365 366 367
4 368 369 370 371
4 372 373 374 375
