ply
format ascii 1.0
element vertex 352
property float x
property float y
property float z
property float nx
property float ny
property float nz
element quads 88
property list uchar int vertex_indices
end_header
154.25 327 0 1 0 0
154.25 20.25 0 1 0 0
154.25 20.25 100 1 0 0
154.25 327 100 1 0 0
153.75 327 0 -1 -0 0
153.75 19.75 0 -1 -0 0
153.75 19.75 100 -1 -0 0
153.75 327 100 -1 -0 0
154.25 20.25 0 -0 1 0
195 20.25 0 -0 1 0
195 20.25 100 -0 1 0
154.25 20.25 100 -0 1 0
153.75 19.75 0 0 -1 0
195 19.75 0 0 -1 0
195 19.75 100 0 -1 0
153.75 19.75 100 0 -1 0
619.25 410.25 0 1 0 0
619.25 136.75 0 1 0 0
619.25 136.75 100 1 0 0
619.25 410.25 100 1 0 0
618.75 409.75 0 -1 -0 0
618.75 137.25 0 -1 -0 0
618.75 137.25 100 -1 -0 0
618.75 409.75 100 -1 -0 0
618.75 409.75 0 -0 -1 0
321 409.75 0 -0 -1 0
321 409.75 100 -0 -1 0
618.75 409.75 100 -0 -1 0
619.25 410.25 0 0 1 0
321 410.25 0 0 1 0
321 410.25 100 0 1 0
619.25 410.25 100 0 1 0
619.25 136.75 0 -0 -1 0
554.25 136.75 0 -0 -1 0
554.25 136.75 100 -0 -1 0
619.25 136.75 100 -0 -1 0
618.75 137.25 0 0 1 0
553.75 137.25 0 0 1 0
553.75 137.25 100 0 1 0
618.75 137.25 100 0 1 0
321.25 327.25 0 1 0 0
321.25 19.75 0 1 0 0
321.25 19.75 100 1 0 0
321.25 327.25 100 1 0 0
320.75 326.75 0 -1 -0 0
320.75 20.25 0 -1 -0 0
320.75 20.25 100 -1 -0 0
320.75 326.75 100 -1 -0 0
320.75 326.75 0 -0 -1 0
95.25 326.75 0 -0 -1 0
95.25 326.75 100 -0 -1 0
320.75 326.75 100 -0 -1 0
321.25 327.25 0 0 1 0
94.75 327.25 0 0 1 0
94.75 327.25 100 0 1 0
321.25 327.25 100 0 1 0
321.25 19.75 0 -0 -1 0
281 19.75 0 -0 -1 0
281 19.75 100 -0 -1 0
321.25 19.75 100 -0 -1 0
320.75 20.25 0 0 1 0
281 20.25 0 0 1 0
281 20.25 100 0 1 0
320.75 20.25 100 0 1 0
220.25 468 0 1 0 0
220.25 325 0 1 0 0
220.25 325 100 1 0 0
220.25 468 100 1 0 0
219.75 468 0 -1 -0 0
219.75 325 0 -1 -0 0
219.75 325 100 -1 -0 0
219.75 468 100 -1 -0 0
95.25 184.25 0 -0 1 0
153 184.25 0 -0 1 0
153 184.25 100 -0 1 0
95.25 184.25 100 -0 1 0
94.75 183.75 0 0 -1 0
153 183.75 0 0 -1 0
153 183.75 100 0 -1 0
94.75 183.75 100 0 -1 0
94.75 183.75 0 -1 0 0
94.75 327.25 0 -1 0 0
94.75 327.25 100 -1 0 0
94.75 183.75 100 -1 0 0
95.25 184.25 0 1 -0 0
95.25 326.75 0 1 -0 0
95.25 326.75 100 1 -0 0
95.25 184.25 100 1 -0 0
554.25 136.75 0 1 0 0
554.25 40.75 0 1 0 0
554.25 40.75 100 1 0 0
554.25 136.75 100 1 0 0
553.75 137.25 0 -1 -0 0
553.75 41.25 0 -1 -0 0
553.75 41.25 100 -1 -0 0
553.75 137.25 100 -1 -0 0
137.75 325 0 -1 0 0
137.75 469.25 0 -1 0 0
137.75 469.25 100 -1 0 0
137.75 325 100 -1 0 0
138.25 325 0 1 -0 0
138.25 468.75 0 1 -0 0
138.25 468.75 100 1 -0 0
138.25 325 100 1 -0 0
137.75 469.25 0 -0 1 0
524.25 469.25 0 -0 1 0
524.25 469.25 100 -0 1 0
137.75 469.25 100 -0 1 0
138.25 468.75 0 0 -1 0
523.75 468.75 0 0 -1 0
523.75 468.75 100 0 -1 0
138.25 468.75 100 0 -1 0
524.25 469.25 0 1 0 0
524.25 411 0 1 0 0
524.25 411 100 1 0 0
524.25 469.25 100 1 0 0
523.75 468.75 0 -1 -0 0
523.75 411 0 -1 -0 0
523.75 411 100 -1 -0 0
523.75 468.75 100 -1 -0 0
554.25 40.75 0 -0 -1 0
513 40.75 0 -0 -1 0
513 40.75 100 -0 -1 0
554.25 40.75 100 -0 -1 0
553.75 41.25 0 0 1 0
513 41.25 0 0 1 0
513 41.25 100 0 1 0
553.75 41.25 100 0 1 0
385.75 40.75 0 -1 0 0
385.75 136.75 0 -1 0 0
385.75 136.75 100 -1 0 0
385.75 40.75 100 -1 0 0
386.25 41.25 0 1 -0 0
386.25 137.25 0 1 -0 0
386.25 137.25 100 1 -0 0
386.25 41.25 100 1 -0 0
386.25 41.25 0 -0 1 0
428 41.25 0 -0 1 0
428 41.25 100 -0 1 0
386.25 41.25 100 -0 1 0
385.75 40.75 0 0 -1 0
428 40.75 0 0 -1 0
428 40.75 100 0 -1 0
385.75 40.75 100 0 -1 0
385.75 136.75 0 -0 -1 0
323 136.75 0 -0 -1 0
323 136.75 100 -0 -1 0
385.75 136.75 100 -0 -1 0
386.25 137.25 0 0 1 0
323 137.25 0 0 1 0
323 137.25 100 0 1 0
386.25 137.25 100 0 1 0
154.25 327 0 153.747146606445312 326.933990478515625 0
153.75 327 0 153.747146606445312 326.933990478515625 0
153.75 327 100 153.747146606445312 326.933990478515625 0
154.25 327 100 153.747146606445312 326.933990478515625 0
220.25 468 0 218.709793090820312 465.727264404296875 0
219.75 468 0 218.709793090820312 465.727264404296875 0
219.75 468 100 218.709793090820312 465.727264404296875 0
220.25 468 100 218.709793090820312 465.727264404296875 0
220.25 325 0 218.709793090820312 321.727264404296875 0
219.75 325 0 218.709793090820312 321.727264404296875 0
219.75 325 100 218.709793090820312 321.727264404296875 0
220.25 325 100 218.709793090820312 321.727264404296875 0
153 184.25 0 151.35064697265625 181.059524536132812 0
153 183.75 0 151.35064697265625 181.059524536132812 0
153 183.75 100 151.35064697265625 181.059524536132812 0
153 184.25 100 151.35064697265625 181.059524536132812 0
137.75 325 0 136.795059204101562 321.746978759765625 0
138.25 325 0 136.795059204101562 321.746978759765625 0
138.25 325 100 136.795059204101562 321.746978759765625 0
137.75 325 100 136.795059204101562 321.746978759765625 0
321 409.75 0 318.921905517578125 408.37384033203125 0
321 410.25 0 318.921905517578125 408.37384033203125 0
321 410.25 100 318.921905517578125 408.37384033203125 0
321 409.75 100 318.921905517578125 408.37384033203125 0
323 136.75 0 316.85260009765625 134.570724487304688 0
323 137.25 0 316.85260009765625 134.570724487304688 0
323 137.25 100 316.85260009765625 134.570724487304688 0
323 136.75 100 316.85260009765625 134.570724487304688 0
524.25 411 0 515.25 402.9442138671875 0
523.75 411 0 515.25 402.9442138671875 0
523.75 411 100 515.25 402.9442138671875 0
524.25 411 100 515.25 402.9442138671875 0
281 19.75 0 273.018646240234375 19.2593173980712891 0
281 20.25 0 273.018646240234375 19.2593173980712891 0
281 20.25 100 273.018646240234375 19.2593173980712891 0
281 19.75 100 273.018646240234375 19.2593173980712891 0
428 41.25 0 418.748504638671875 40.2619743347167969 0
428 40.75 0 418.748504638671875 40.2619743347167969 0
428 40.75 100 418.748504638671875 40.2619743347167969 0
428 41.25 100 418.748504638671875 40.2619743347167969 0
513 40.75 0 499.563629150390625 39.7621231079101562 0
513 41.25 0 499.563629150390625 39.7621231079101562 0
513 41.25 100 499.563629150390625 39.7621231079101562 0
513 40.75 100 499.563629150390625 39.7621231079101562 0
195 20.25 0 191.2147216796875 19.7530670166015625 0
195 19.75 0 191.2147216796875 19.7530670166015625 0
195 19.75 100 191.2147216796875 19.7530670166015625 0
195 20.25 100 191.2147216796875 19.7530670166015625 0
154.25 327 0 0 0 -1
153.75 327 0 0 0 -1
153.75 19.75 0 0 0 -1
154.25 20.25 0 0 0 -1
154.25 327 100 0 0 1
153.75 327 100 0 0 1
153.75 19.75 100 0 0 1
154.25 20.25 100 0 0 1
154.25 20.25 0 0 0 -1
153.75 19.75 0 0 0 -1
195 19.75 0 0 0 -1
195 20.25 0 0 0 -1
154.25 20.25 100 0 0 1
153.75 19.75 100 0 0 1
195 19.75 100 0 0 1
195 20.25 100 0 0 1
619.25 410.25 0 0 0 -1
618.75 409.75 0 0 0 -1
618.75 137.25 0 0 0 -1
619.25 136.75 0 0 0 -1
619.25 410.25 100 0 0 1
618.75 409.75 100 0 0 1
618.75 137.25 100 0 0 1
619.25 136.75 100 0 0 1
618.75 409.75 0 0 0 -1
619.25 410.25 0 0 0 -1
321 410.25 0 0 0 -1
321 409.75 0 0 0 -1
618.75 409.75 100 0 0 1
619.25 410.25 100 0 0 1
321 410.25 100 0 0 1
321 409.75 100 0 0 1
619.25 136.75 0 0 0 -1
618.75 137.25 0 0 0 -1
553.75 137.25 0 0 0 -1
554.25 136.75 0 0 0 -1
619.25 136.75 100 0 0 1
618.75 137.25 100 0 0 1
553.75 137.25 100 0 0 1
554.25 136.75 100 0 0 1
321.25 327.25 0 0 0 -1
320.75 326.75 0 0 0 -1
320.75 20.25 0 0 0 -1
321.25 19.75 0 0 0 -1
321.25 327.25 100 0 0 1
320.75 326.75 100 0 0 1
320.75 20.25 100 0 0 1
321.25 19.75 100 0 0 1
320.75 326.75 0 0 0 -1
321.25 327.25 0 0 0 -1
94.75 327.25 0 0 0 -1
95.25 326.75 0 0 0 -1
320.75 326.75 100 0 0 1
321.25 327.25 100 0 0 1
94.75 327.25 100 0 0 1
95.25 326.75 100 0 0 1
321.25 19.75 0 0 0 -1
320.75 20.25 0 0 0 -1
281 20.25 0 0 0 -1
281 19.75 0 0 0 -1
321.25 19.75 100 0 0 1
320.75 20.25 100 0 0 1
281 20.25 100 0 0 1
281 19.75 100 0 0 1
220.25 468 0 0 0 -1
219.75 468 0 0 0 -1
219.75 325 0 0 0 -1
220.25 325 0 0 0 -1
220.25 468 100 0 0 1
219.75 468 100 0 0 1
219.75 325 100 0 0 1
220.25 325 100 0 0 1
95.25 184.25 0 0 0 -1
94.75 183.75 0 0 0 -1
153 183.75 0 0 0 -1
153 184.25 0 0 0 -1
95.25 184.25 100 0 0 1
94.75 183.75 100 0 0 1
153 183.75 100 0 0 1
153 184.25 100 0 0 1
94.75 183.75 0 0 0 -1
95.25 184.25 0 0 0 -1
95.25 326.75 0 0 0 -1
94.75 327.25 0 0 0 -1
94.75 183.75 100 0 0 1
95.25 184.25 100 0 0 1
95.25 326.75 100 0 0 1
94.75 327.25 100 0 0 1
554.25 136.75 0 0 0 -1
553.75 137.25 0 0 0 -1
553.75 41.25 0 0 0 -1
554.25 40.75 0 0 0 -1
554.25 136.75 100 0 0 1
553.75 137.25 100 0 0 1
553.75 41.25 100 0 0 1
554.25 40.75 100 0 0 1
137.75 325 0 0 0 -1
138.25 325 0 0 0 -1
138.25 468.75 0 0 0 -1
137.75 469.25 0 0 0 -1
137.75 325 100 0 0 1
138.25 325 100 0 0 1
138.25 468.75 100 0 0 1
137.75 469.25 100 0 0 1
137.75 469.25 0 0 0 -1
138.25 468.75 0 0 0 -1
523.75 468.75 0 0 0 -1
524.25 469.25 0 0 0 -1
137.75 469.25 100 0 0 1
138.25 468.75 100 0 0 1
523.75 468.75 100 0 0 1
524.25 469.25 100 0 0 1
524.25 469.25 0 0 0 -1
523.75 468.75 0 0 0 -1
523.75 411 0 0 0 -1
524.25 411 0 0 0 -1
524.25 469.25 100 0 0 1
523.75 468.75 100 0 0 1
523.75 411 100 0 0 1
524.25 411 100 0 0 1
554.25 40.75 0 0 0 -1
553.75 41.25 0 0 0 -1
513 41.25 0 0 0 -1
513 40.75 0 0 0 -1
554.25 40.75 100 0 0 1
553.75 41.25 100 0 0 1
513 41.25 100 0 0 1
513 40.75 100 0 0 1
385.75 40.75 0 0 0 -1
386.25 41.25 0 0 0 -1
386.25 137.25 0 0 0 -1
385.75 136.75 0 0 0 -1
385.75 40.75 100 0 0 1
386.25 41.25 100 0 0 1
386.25 137.25 100 0 0 1
385.75 136.75 100 0 0 1
386.25 41.25 0 0 0 -1
385.75 40.75 0 0 0 -1
428 40.75 0 0 0 -1
428 41.25 0 0 0 -1
386.25 41.25 100 0 0 1
385.75 40.75 100 0 0 1
428 40.75 100 0 0 1
428 41.25 100 0 0 1
385.75 136.75 0 0 0 -1
386.25 137.25 0 0 0 -1
323 137.25 0 0 0 -1
323 136.75 0 0 0 -1
385.75 136.75 100 0 0 1
386.25 137.25 100 0 0 1
323 137.25 100 0 0 1
323 136.75 100 0 0 1
4 0 1 2 3
4 4 5 6 7
4 8 9 10 11
4 12 13 14 15
4 16 17 18 19
4 20 21 22 23
4 24 25 26 27
4 28 29 30 31
4 32 33 34 35
4 36 37 38 39
4 40 41 42 43
4 44 45 46 47
4 48 49 50 51
4 52 53 54 55
4 56 57 58 59
4 60 61 62 63
4 64 65 66 67
4 68 69 70 71
4 72 73 74 75
4 76 77 78 79
4 80 81 82 83
4 84 85 86 87
4 88 89 90 91
4 92 93 94 95
4 96 97 98 99
4 100 101 102 103
4 104 105 106 107
4 108 109 110 111
4 112 113 114 115
4 116 117 118 119
4 120 121 122 123
4 124 125 126 127
4 128 129 130 131
4 132 133 134 135
4 136 137 138 139
4 140 141 142 143
4 144 145 146 147
4 148 149 150 151
4 152 153 154 155
4 156 157 158 159
4 160 161 162 163
4 164 165 166 167
4 168 169 170 171
4 172 173 174 175
4 176 177 178 179
4 180 181 182 183
4 184 185 186 187
4 188 189 190 191
4 192 193 194 195
4 196 197 198 199
4 200 201 202 203
4 204 205 206 207
4 208 209 210 211
4 212 213 214 215
4 216 217 218 219
4 220 221 222 223
4 224 225 226 227
4 228 229 230 231
4 232 233 234 235
4 236 237 238 239
4 240 241 242 243
4 244 245 246 247
4 248 249 250 251
4 252 253 254 255
4 256 257 258 259
4 260 261 262 263
4 264 265 266 267
4 268 269 270 271
4 272 273 274 275
4 276 277 278 279
4 280 281 282 283
4 284 285 286 287
4 288 289 290 291
4 292 293 294 295
4 296 297 298 299
4 300 301 302 303
4 304 305 306 307
4 308 309 310 311
4 312 313 314 315
4 316 317 318 319
4 320 321 322 323
4 324 325 326 327
4 328 329 330 331
4 332 333 334 335
4 336 337 338 339
4 340 341 342 343
4 344 345 346 347
4 348 349 350 351
