ply
format ascii 1.0
element vertex 470
property float x
property float y
property float z
property float nx
property float ny
property float nz
element quads 116
property list uchar int vertex_indices
element triads 2
property list uchar int vertex_indices
end_header
519 465 0 -0 -1 0
144 465 0 -0 -1 0
144 465 150 -0 -1 0
519 465 150 -0 -1 0
529 475 0 0 1 0
134 475 0 0 1 0
134 475 150 0 1 0
529 475 150 0 1 0
529 475 0 1 0 0
529 412 0 1 0 0
529 412 150 1 0 0
529 475 150 1 0 0
519 465 0 -1 -0 0
519 412 0 -1 -0 0
519 412 150 -1 -0 0
519 465 150 -1 -0 0
144 465 0 1 0 0
144 331 0 1 0 0
144 331 150 1 0 0
144 465 150 1 0 0
134 475 0 -1 -0 0
134 331 0 -1 -0 0
134 331 150 -1 -0 0
134 475 150 -1 -0 0
624 410 0 1 0 0
624 133 0 1 0 0
624 133 150 1 0 0
624 410 150 1 0 0
614 410 0 -1 -0 0
614 143 0 -1 -0 0
614 143 150 -1 -0 0
614 410 150 -1 -0 0
624 133 0 -0 -1 0
559 133 0 -0 -1 0
559 133 150 -0 -1 0
624 133 150 -0 -1 0
614 143 0 0 1 0
549 143 0 0 1 0
549 143 150 0 1 0
614 143 150 0 1 0
160 236 0 1 0 0
160 24 0 1 0 0
160 24 150 1 0 0
160 236 150 1 0 0
150 236 0 -1 -0 0
150 14 0 -1 -0 0
150 14 150 -1 -0 0
150 236 150 -1 -0 0
160 24 0 -0 1 0
195 24 0 -0 1 0
195 24 150 -0 1 0
160 24 150 -0 1 0
150 14 0 0 -1 0
195 14 0 0 -1 0
195 14 150 0 -1 0
150 14 150 0 -1 0
572 404.0301513671875 0 -0 -1 0
321 404.0301513671875 0 -0 -1 0
321 404.0301513671875 150 -0 -1 0
572 404.0301513671875 150 -0 -1 0
572 414.0301513671875 0 0 1 0
321 414.0301513671875 0 0 1 0
321 414.0301513671875 150 0 1 0
572 414.0301513671875 150 0 1 0
99 321 0 1 0 0
99 190 0 1 0 0
99 190 150 1 0 0
99 321 150 1 0 0
89 331 0 -1 -0 0
89 180 0 -1 -0 0
89 180 150 -1 -0 0
89 331 150 -1 -0 0
89 331 0 -0 1 0
134 331 0 -0 1 0
134 331 150 -0 1 0
89 331 150 -0 1 0
99 321 0 0 -1 0
139 321 0 0 -1 0
139 321 150 0 -1 0
99 321 150 0 -1 0
99 190 0 -0 1 0
153 190 0 -0 1 0
153 190 150 -0 1 0
99 190 150 -0 1 0
89 180 0 0 -1 0
153 180 0 0 -1 0
153 180 150 0 -1 0
89 180 150 0 -1 0
160 321 0 1 0 0
160 275 0 1 0 0
160 275 150 1 0 0
160 321 150 1 0 0
150 321 0 -1 -0 0
150 275 0 -1 -0 0
150 275 150 -1 -0 0
150 321 150 -1 -0 0
155 331 0 -0 1 0
176 331 0 -0 1 0
176 331 150 -0 1 0
155 331 150 -0 1 0
160 321 0 0 -1 0
176 321 0 0 -1 0
176 321 150 0 -1 0
160 321 150 0 -1 0
150 321 0 -0 -1 0
139 321 0 -0 -1 0
139 321 150 -0 -1 0
150 321 150 -0 -1 0
155 331 0 0 1 0
144 331 0 0 1 0
144 331 150 0 1 0
155 331 150 0 1 0
392 143 0 1 0 0
392 47 0 1 0 0
392 47 150 1 0 0
392 143 150 1 0 0
382 133 0 -1 -0 0
382 37 0 -1 -0 0
382 37 150 -1 -0 0
382 133 150 -1 -0 0
382 133 0 -0 -1 0
323 133 0 -0 -1 0
323 133 150 -0 -1 0
382 133 150 -0 -1 0
392 143 0 0 1 0
323 143 0 0 1 0
323 143 150 0 1 0
392 143 150 0 1 0
392 47 0 -0 1 0
428 47 0 -0 1 0
428 47 150 -0 1 0
392 47 150 -0 1 0
382 37 0 0 -1 0
428 37 0 0 -1 0
428 37 150 0 -1 0
382 37 150 0 -1 0
559 133 0 1 0 0
559 42 0 1 0 0
559 42 150 1 0 0
559 133 150 1 0 0
549 143 0 -1 -0 0
549 42 0 -1 -0 0
549 42 150 -1 -0 0
549 143 150 -1 -0 0
225.006576538085938 376 0 1 0 0
225.006576538085938 325 0 1 0 0
225.006576538085938 325 150 1 0 0
225.006576538085938 376 150 1 0 0
215.006576538085938 376 0 -1 -0 0
215.006576538085938 325 0 -1 -0 0
215.006576538085938 325 150 -1 -0 0
215.006576538085938 376 150 -1 -0 0
225.006332397460938 468 0 1 0 0
225.006332397460938 415 0 1 0 0
225.006332397460938 415 150 1 0 0
225.006332397460938 468 150 1 0 0
215.006332397460938 468 0 -1 -0 0
215.006332397460938 415 0 -1 -0 0
215.006332397460938 415 150 -1 -0 0
215.006332397460938 468 150 -1 -0 0
554 36.9913787841796875 0 -0 -1 0
513 36.9913787841796875 0 -0 -1 0
513 36.9913787841796875 150 -0 -1 0
554 36.9913787841796875 150 -0 -1 0
554 46.9913787841796875 0 0 1 0
513 46.9913787841796875 0 0 1 0
513 46.9913787841796875 150 0 1 0
554 46.9913787841796875 150 0 1 0
270.001922607421875 331.019866943359375 0 0.000382068246835842729 0.999999940395355225 0
327 330.998077392578125 0 0.000382068246835842729 0.999999940395355225 0
327 330.998077392578125 150 0.000382068246835842729 0.999999940395355225 0
270.001922607421875 331.019866943359375 150 0.000382068246835842729 0.999999940395355225 0
269.998077392578125 321.019866943359375 0 -0.000382068246835842729 -0.999999940395355225 0
317 321.001922607421875 0 -0.000382068246835842729 -0.999999940395355225 0
317 321.001922607421875 150 -0.000382068246835842729 -0.999999940395355225 0
269.998077392578125 321.019866943359375 150 -0.000382068246835842729 -0.999999940395355225 0
327 330.998077392578125 0 1 0 0
327 13.9989490509033203 0 1 0 0
327 13.9989490509033203 150 1 0 0
327 330.998077392578125 150 1 0 0
317 321.001922607421875 0 -1 -0 0
317 24.0010509490966797 0 -1 -0 0
317 24.0010509490966797 150 -1 -0 0
317 321.001922607421875 150 -1 -0 0
281.00103759765625 24.0086212158203125 0 0.00021026072499807924 1 0
317 24.0010509490966797 0 0.00021026072499807924 1 0
317 24.0010509490966797 150 0.00021026072499807924 1 0
281.00103759765625 24.0086212158203125 150 0.00021026072499807924 1 0
280.99896240234375 14.0086212158203125 0 -0.00021026072499807924 -1 0
327 13.9989490509033203 0 -0.00021026072499807924 -1 0
327 13.9989490509033203 150 -0.00021026072499807924 -1 0
280.99896240234375 14.0086212158203125 150 -0.00021026072499807924 -1 0
624 410 0 621.747314453125 409.519866943359375 0
614 410 0 621.747314453125 409.519866943359375 0
614 410 150 621.747314453125 409.519866943359375 0
624 410 150 621.747314453125 409.519866943359375 0
160 236 0 159.245285034179688 235.886795043945312 0
150 236 0 159.245285034179688 235.886795043945312 0
150 236 150 159.245285034179688 235.886795043945312 0
160 236 150 159.245285034179688 235.886795043945312 0
572 404.0301513671875 0 570.72113037109375 402.42047119140625 0
572 414.0301513671875 0 570.72113037109375 402.42047119140625 0
572 414.0301513671875 150 570.72113037109375 402.42047119140625 0
572 404.0301513671875 150 570.72113037109375 402.42047119140625 0
321 404.0301513671875 0 318.72113037109375 402.42047119140625 0
321 414.0301513671875 0 318.72113037109375 402.42047119140625 0
321 414.0301513671875 150 318.72113037109375 402.42047119140625 0
321 404.0301513671875 150 318.72113037109375 402.42047119140625 0
160 275 0 156.521743774414062 268.021728515625 0
150 275 0 156.521743774414062 268.021728515625 0
150 275 150 156.521743774414062 268.021728515625 0
160 275 150 156.521743774414062 268.021728515625 0
323 133 0 316.525421142578125 130.745758056640625 0
323 143 0 316.525421142578125 130.745758056640625 0
323 143 150 316.525421142578125 130.745758056640625 0
323 133 150 316.525421142578125 130.745758056640625 0
225.006576538085938 376 0 220.594680786132812 369.62744140625 0
215.006576538085938 376 0 220.594680786132812 369.62744140625 0
215.006576538085938 376 150 220.594680786132812 369.62744140625 0
225.006576538085938 376 150 220.594680786132812 369.62744140625 0
225.006576538085938 325 0 220.594680786132812 317.62744140625 0
215.006576538085938 325 0 220.594680786132812 317.62744140625 0
215.006576538085938 325 150 220.594680786132812 317.62744140625 0
225.006576538085938 325 150 220.594680786132812 317.62744140625 0
559 42 0 552.85711669921875 40.5384597778320312 0
549 42 0 552.85711669921875 40.5384597778320312 0
549 42 150 552.85711669921875 40.5384597778320312 0
559 42 150 552.85711669921875 40.5384597778320312 0
225.006332397460938 468 0 220.76092529296875 460.1697998046875 0
215.006332397460938 468 0 220.76092529296875 460.1697998046875 0
215.006332397460938 468 150 220.76092529296875 460.1697998046875 0
225.006332397460938 468 150 220.76092529296875 460.1697998046875 0
225.006332397460938 415 0 220.76092529296875 406.1697998046875 0
215.006332397460938 415 0 220.76092529296875 406.1697998046875 0
215.006332397460938 415 150 220.76092529296875 406.1697998046875 0
225.006332397460938 415 150 220.76092529296875 406.1697998046875 0
428 47 0 417.111114501953125 45.6944427490234375 0
428 37 0 417.111114501953125 45.6944427490234375 0
428 37 150 417.111114501953125 45.6944427490234375 0
428 47 150 417.111114501953125 45.6944427490234375 0
153 190 0 151.166671752929688 186.481475830078125 0
153 180 0 151.166671752929688 186.481475830078125 0
153 180 150 151.166671752929688 186.481475830078125 0
153 190 150 151.166671752929688 186.481475830078125 0
554 36.9913787841796875 0 541.48779296875 36.0891494750976562 0
554 46.9913787841796875 0 541.48779296875 36.0891494750976562 0
554 46.9913787841796875 150 541.48779296875 36.0891494750976562 0
554 36.9913787841796875 150 541.48779296875 36.0891494750976562 0
513 36.9913787841796875 0 499.48779296875 36.0891494750976562 0
513 46.9913787841796875 0 499.48779296875 36.0891494750976562 0
513 46.9913787841796875 150 499.48779296875 36.0891494750976562 0
513 36.9913787841796875 150 499.48779296875 36.0891494750976562 0
195 24 0 190.428573608398438 23.3142852783203125 0
195 14 0 190.428573608398438 23.3142852783203125 0
195 14 150 190.428573608398438 23.3142852783203125 0
195 24 150 190.428573608398438 23.3142852783203125 0
176 331 0 168.619049072265625 315.23809814453125 0
176 321 0 168.619049072265625 315.23809814453125 0
176 321 150 168.619049072265625 315.23809814453125 0
176 331 150 168.619049072265625 315.23809814453125 0
529 412 0 520.6031494140625 404.4603271484375 0
519 412 0 520.6031494140625 404.4603271484375 0
519 412 150 520.6031494140625 404.4603271484375 0
529 412 150 520.6031494140625 404.4603271484375 0
270.001922607421875 331.019866943359375 0 264.264862060546875 325.212677001953125 0
269.998077392578125 321.019866943359375 0 264.264862060546875 325.212677001953125 0
269.998077392578125 321.019866943359375 150 264.264862060546875 325.212677001953125 0
270.001922607421875 331.019866943359375 150 264.264862060546875 325.212677001953125 0
281.00103759765625 24.0086212158203125 0 272.19525146484375 23.3419055938720703 0
280.99896240234375 14.0086212158203125 0 272.19525146484375 23.3419055938720703 0
280.99896240234375 14.0086212158203125 150 272.19525146484375 23.3419055938720703 0
281.00103759765625 24.0086212158203125 150 272.19525146484375 23.3419055938720703 0
519 465 0 0 0 -1
529 475 0 0 0 -1
134 475 0 0 0 -1
144 465 0 0 0 -1
519 465 150 0 0 1
529 475 150 0 0 1
134 475 150 0 0 1
144 465 150 0 0 1
529 475 0 0 0 -1
519 465 0 0 0 -1
519 412 0 0 0 -1
529 412 0 0 0 -1
529 475 150 0 0 1
519 465 150 0 0 1
519 412 150 0 0 1
529 412 150 0 0 1
144 465 0 0 0 -1
134 475 0 0 0 -1
134 331 0 0 0 -1
144 331 0 0 0 -1
144 465 150 0 0 1
134 475 150 0 0 1
134 331 150 0 0 1
144 331 150 0 0 1
624 410 0 0 0 -1
614 410 0 0 0 -1
614 143 0 0 0 -1
624 133 0 0 0 -1
624 410 150 0 0 1
614 410 150 0 0 1
614 143 150 0 0 1
624 133 150 0 0 1
624 133 0 0 0 -1
614 143 0 0 0 -1
549 143 0 0 0 -1
559 133 0 0 0 -1
624 133 150 0 0 1
614 143 150 0 0 1
549 143 150 0 0 1
559 133 150 0 0 1
160 236 0 0 0 -1
150 236 0 0 0 -1
150 14 0 0 0 -1
160 24 0 0 0 -1
160 236 150 0 0 1
150 236 150 0 0 1
150 14 150 0 0 1
160 24 150 0 0 1
160 24 0 0 0 -1
150 14 0 0 0 -1
195 14 0 0 0 -1
195 24 0 0 0 -1
160 24 150 0 0 1
150 14 150 0 0 1
195 14 150 0 0 1
195 24 150 0 0 1
572 404.0301513671875 0 0 0 -1
572 414.0301513671875 0 0 0 -1
321 414.0301513671875 0 0 0 -1
321 404.0301513671875 0 0 0 -1
572 404.0301513671875 150 0 0 1
572 414.0301513671875 150 0 0 1
321 414.0301513671875 150 0 0 1
321 404.0301513671875 150 0 0 1
99 321 0 0 0 -1
89 331 0 0 0 -1
89 180 0 0 0 -1
99 190 0 0 0 -1
99 321 150 0 0 1
89 331 150 0 0 1
89 180 150 0 0 1
99 190 150 0 0 1
89 331 0 0 0 -1
99 321 0 0 0 -1
139 321 0 0 0 -1
134 331 0 0 0 -1
89 331 150 0 0 1
99 321 150 0 0 1
139 321 150 0 0 1
134 331 150 0 0 1
99 190 0 0 0 -1
89 180 0 0 0 -1
153 180 0 0 0 -1
153 190 0 0 0 -1
99 190 150 0 0 1
89 180 150 0 0 1
153 180 150 0 0 1
153 190 150 0 0 1
160 321 0 0 0 -1
150 321 0 0 0 -1
150 275 0 0 0 -1
160 275 0 0 0 -1
160 321 150 0 0 1
150 321 150 0 0 1
150 275 150 0 0 1
160 275 150 0 0 1
155 331 0 0 0 -1
160 321 0 0 0 -1
176 321 0 0 0 -1
176 331 0 0 0 -1
155 331 150 0 0 1
160 321 150 0 0 1
176 321 150 0 0 1
176 331 150 0 0 1
150 321 0 0 0 -1
155 331 0 0 0 -1
144 331 0 0 0 -1
139 321 0 0 0 -1
150 321 150 0 0 1
155 331 150 0 0 1
144 331 150 0 0 1
139 321 150 0 0 1
392 143 0 0 0 -1
382 133 0 0 0 -1
382 37 0 0 0 -1
392 47 0 0 0 -1
392 143 150 0 0 1
382 133 150 0 0 1
382 37 150 0 0 1
392 47 150 0 0 1
382 133 0 0 0 -1
392 143 0 0 0 -1
323 143 0 0 0 -1
323 133 0 0 0 -1
382 133 150 0 0 1
392 143 150 0 0 1
323 143 150 0 0 1
323 133 150 0 0 1
392 47 0 0 0 -1
382 37 0 0 0 -1
428 37 0 0 0 -1
428 47 0 0 0 -1
392 47 150 0 0 1
382 37 150 0 0 1
428 37 150 0 0 1
428 47 150 0 0 1
559 133 0 0 0 -1
549 143 0 0 0 -1
549 42 0 0 0 -1
559 42 0 0 0 -1
559 133 150 0 0 1
549 143 150 0 0 1
549 42 150 0 0 1
559 42 150 0 0 1
225.006576538085938 376 0 0 0 -1
215.006576538085938 376 0 0 0 -1
215.006576538085938 325 0 0 0 -1
225.006576538085938 325 0 0 0 -1
225.006576538085938 376 150 0 0 1
215.006576538085938 376 150 0 0 1
215.006576538085938 325 150 0 0 1
225.006576538085938 325 150 0 0 1
225.006332397460938 468 0 0 0 -1
215.006332397460938 468 0 0 0 -1
215.006332397460938 415 0 0 0 -1
225.006332397460938 415 0 0 0 -1
225.006332397460938 468 150 0 0 1
215.006332397460938 468 150 0 0 1
215.006332397460938 415 150 0 0 1
225.006332397460938 415 150 0 0 1
554 36.9913787841796875 0 0 0 -1
554 46.9913787841796875 0 0 0 -1
513 46.9913787841796875 0 0 0 -1
513 36.9913787841796875 0 0 0 -1
554 36.9913787841796875 150 0 0 1
554 46.9913787841796875 150 0 0 1
513 46.9913787841796875 150 0 0 1
513 36.9913787841796875 150 0 0 1
270.001922607421875 331.019866943359375 0 0 0 -1
269.998077392578125 321.019866943359375 0 0 0 -1
317 321.001922607421875 0 0 0 -1
327 330.998077392578125 0 0 0 -1
270.001922607421875 331.019866943359375 150 0 0 1
269.998077392578125 321.019866943359375 150 0 0 1
317 321.001922607421875 150 0 0 1
327 330.998077392578125 150 0 0 1
327 330.998077392578125 0 0 0 -1
317 321.001922607421875 0 0 0 -1
317 24.0010509490966797 0 0 0 -1
327 13.9989490509033203 0 0 0 -1
327 330.998077392578125 150 0 0 1
317 321.001922607421875 150 0 0 1
317 24.0010509490966797 150 0 0 1
327 13.9989490509033203 150 0 0 1
281.00103759765625 24.0086212158203125 0 0 0 -1
280.99896240234375 14.0086212158203125 0 0 0 -1
327 13.9989490509033203 0 0 0 -1
317 24.0010509490966797 0 0 0 -1
281.00103759765625 24.0086212158203125 150 0 0 1
280.99896240234375 14.0086212158203125 150 0 0 1
327 13.9989490509033203 150 0 0 1
317 24.0010509490966797 150 0 0 1
134 331 0 0 0 -1
139 321 0 0 0 -1
144 331 0 0 0 -1
134 331 150 0 0 1
139 321 150 0 0 1
144 331 150 0 0 1
4 0 1 2 3
4 4 5 6 7
4 8 9 10 11
4 12 13 14 15
4 16 17 18 19
4 20 21 22 23
4 24 25 26 27
4 28 29 30 31
4 32 33 34 35
4 36 37 38 39
4 40 41 42 43
4 44 45 46 47
4 48 49 50 51
4 52 53 54 55
4 56 57 58 59
4 60 61 62 63
4 64 65 66 67
4 68 69 70 71
4 72 73 74 75
4 76 77 78 79
4 80 81 82 83
4 84 85 86 87
4 88 89 90 91
4 92 93 94 95
4 96 97 98 99
4 100 101 102 103
4 104 105 106 107
4 108 109 110 111
4 112 113 114 115
4 116 117 118 119
4 120 121 122 123
4 124 125 126 127
4 128 129 130 131
4 132 133 134 135
4 136 137 138 139
4 140 141 142 143
4 144 145 146 147
4 148 149 150 151
4 152 153 154 155
4 156 157 158 159
4 160 161 162 163
4 164 165 166 167
4 168 169 170 171
4 172 173 174 175
4 176 177 178 179
4 180 181 182 183
4 184 185 186 187
4 188 189 190 191
4 192 193 194 195
4 196 197 198 199
4 200 201 202 203
4 204 205 206 207
4 208 209 210 211
4 212 213 214 215
4 216 217 218 219
4 220 221 222 223
4 224 225 226 227
4 228 229 230 231
4 232 233 234 235
4 236 237 238 239
4 240 241 242 243
4 244 245 246 247
4 248 249 250 251
4 252 253 254 255
4 256 257 258 259
4 260 261 262 263
4 264 265 266 267
4 268 269 270 271
4 272 273 274 275
4 276 277 278 279
4 280 281 282 283
4 284 285 286 287
4 288 289 290 291
4 292 293 294 295
4 296 297 298 299
4 300 301 302 303
4 304 305 306 307
4 308 309 310 311
4 312 313 314 315
4 316 317 318 319
4 320 321 322 323
4 324 325 326 327
4 328 329 330 331
4 332 333 334 335
4 336 337 338 339
4 340 341 342 343
4 344 345 346 347
4 348 349 350 351
4 352 353 354 355
4 356 357 358 359
4 360 361 362 363
4 364 365 366 367
4 368 369 370 371
4 372 373 374 375
4 376 377 378 379
4 380 381 382 383
4 384 385 386 387
4 388 389 390 391
4 392 393 394 395
4 396 397 398 399
4 400 401 402 403
4 404 405 406 407
4 408 409 410 411
4 412 413 414 415
4 416 417 418 419
4 420 421 422 423
4 424 425 426 427
4 428 429 430 431
4 432 433 434 435
4 436 437 438 439
4 440 441 442 443
4 444 445 446 447
4 448 449 450 451
4 452 453 454 455
4 456 457 458 459
4 460 461 462 463
3 464 465 466
3 467 468 469
