ply
format ascii 1.0
element vertex 368
property float x
property float y
property float z
property float nx
property float ny
property float nz
element quads 92
property list uchar int vertex_indices
end_header
597.25 238 0 1 0 0
597.25 61 0 1 0 0
597.25 61 100 1 0 0
597.25 238 100 1 0 0
596.75 238 0 -1 -0 0
596.75 61 0 -1 -0 0
596.75 61 100 -1 -0 0
596.75 238 100 -1 -0 0
437.25 414 0 1 0 0
437.25 236.75 0 1 0 0
437.25 236.75 100 1 0 0
437.25 414 100 1 0 0
436.75 414 0 -1 -0 0
436.75 237.25 0 -1 -0 0
436.75 237.25 100 -1 -0 0
436.75 414 100 -1 -0 0
437.25 236.75 0 -0 -1 0
102 236.75 0 -0 -1 0
102 236.75 100 -0 -1 0
437.25 236.75 100 -0 -1 0
436.75 237.25 0 0 1 0
102 237.25 0 0 1 0
102 237.25 100 0 1 0
436.75 237.25 100 0 1 0
487 237.25 0 -0 1 0
623 237.25 0 -0 1 0
623 237.25 100 -0 1 0
487 237.25 100 -0 1 0
487 236.75 0 0 -1 0
623 236.75 0 0 -1 0
623 236.75 100 0 -1 0
487 236.75 100 0 -1 0
363 344.25 0 -0 1 0
436 344.25 0 -0 1 0
436 344.25 100 -0 1 0
363 344.25 100 -0 1 0
363 343.75 0 0 -1 0
436 343.75 0 0 -1 0
436 343.75 100 0 -1 0
363 343.75 100 0 -1 0
544 414.25 0 -0 1 0
732.25 414.25 0 -0 1 0
732.25 414.25 100 -0 1 0
544 414.25 100 -0 1 0
544 413.75 0 0 -1 0
731.75 413.75 0 0 -1 0
731.75 413.75 100 0 -1 0
544 413.75 100 0 -1 0
732.25 414.25 0 1 0 0
732.25 61 0 1 0 0
732.25 61 100 1 0 0
732.25 414.25 100 1 0 0
731.75 413.75 0 -1 -0 0
731.75 61 0 -1 -0 0
731.75 61 100 -1 -0 0
731.75 413.75 100 -1 -0 0
364 414.25 0 -0 1 0
472 414.25 0 -0 1 0
472 414.25 100 -0 1 0
364 414.25 100 -0 1 0
364 413.75 0 0 -1 0
472 413.75 0 0 -1 0
472 413.75 100 0 -1 0
364 413.75 100 0 -1 0
100.75 61 0 -1 0 0
100.75 500 0 -1 0 0
100.75 500 100 -1 0 0
100.75 61 100 -1 0 0
101.25 61 0 1 -0 0
101.25 500 0 1 -0 0
101.25 500 100 1 -0 0
101.25 61 100 1 -0 0
361.75 235 0 -1 0 0
361.75 500 0 -1 0 0
361.75 500 100 -1 0 0
361.75 235 100 -1 0 0
362.25 235 0 1 -0 0
362.25 500 0 1 -0 0
362.25 500 100 1 -0 0
362.25 235 100 1 -0 0
528.75 211 0 -1 0 0
528.75 356 0 -1 0 0
528.75 356 100 -1 0 0
528.75 211 100 -1 0 0
529.25 211 0 1 -0 0
529.25 356 0 1 -0 0
529.25 356 100 1 -0 0
529.25 211 100 1 -0 0
485.75 212 0 -1 0 0
485.75 301 0 -1 0 0
485.75 301 100 -1 0 0
485.75 212 100 -1 0 0
486.25 212 0 1 -0 0
486.25 301 0 1 -0 0
486.25 301 100 1 -0 0
486.25 212 100 1 -0 0
224 62.25 0 -0 1 0
382 62.25 0 -0 1 0
382 62.25 100 -0 1 0
224 62.25 100 -0 1 0
224 61.75 0 0 -1 0
382 61.75 0 0 -1 0
382 61.75 100 0 -1 0
224 61.75 100 0 -1 0
75.75 121 0 -1 0 0
75.75 178 0 -1 0 0
75.75 178 100 -1 0 0
75.75 121 100 -1 0 0
76.25 121 0 1 -0 0
76.25 178 0 1 -0 0
76.25 178 100 1 -0 0
76.25 121 100 1 -0 0
461 62.25 0 -0 1 0
622 62.25 0 -0 1 0
622 62.25 100 -0 1 0
461 62.25 100 -0 1 0
461 61.75 0 0 -1 0
622 61.75 0 0 -1 0
622 61.75 100 0 -1 0
461 61.75 100 0 -1 0
361 268.25 0 -0 1 0
436 268.25 0 -0 1 0
436 268.25 100 -0 1 0
361 268.25 100 -0 1 0
361 267.75 0 0 -1 0
436 267.75 0 0 -1 0
436 267.75 100 0 -1 0
361 267.75 100 0 -1 0
597.25 238 0 593.875732421875 237.655364990234375 0
596.75 238 0 593.875732421875 237.655364990234375 0
596.75 238 100 593.875732421875 237.655364990234375 0
597.25 238 100 593.875732421875 237.655364990234375 0
597.25 61 0 593.875732421875 59.6553688049316406 0
596.75 61 0 593.875732421875 59.6553688049316406 0
596.75 61 100 593.875732421875 59.6553688049316406 0
597.25 61 100 593.875732421875 59.6553688049316406 0
437.25 414 0 434.78314208984375 412.664306640625 0
436.75 414 0 434.78314208984375 412.664306640625 0
436.75 414 100 434.78314208984375 412.664306640625 0
437.25 414 100 434.78314208984375 412.664306640625 0
487 237.25 0 482.41912841796875 235.505508422851562 0
487 236.75 0 482.41912841796875 235.505508422851562 0
487 236.75 100 482.41912841796875 235.505508422851562 0
487 237.25 100 482.41912841796875 235.505508422851562 0
623 237.25 0 619.41912841796875 235.505508422851562 0
623 236.75 0 619.41912841796875 235.505508422851562 0
623 236.75 100 619.41912841796875 235.505508422851562 0
623 237.25 100 619.41912841796875 235.505508422851562 0
363 344.25 0 357.02740478515625 339.53424072265625 0
363 343.75 0 357.02740478515625 339.53424072265625 0
363 343.75 100 357.02740478515625 339.53424072265625 0
363 344.25 100 357.02740478515625 339.53424072265625 0
436 344.25 0 431.02740478515625 339.53424072265625 0
436 343.75 0 431.02740478515625 339.53424072265625 0
436 343.75 100 431.02740478515625 339.53424072265625 0
436 344.25 100 431.02740478515625 339.53424072265625 0
544 414.25 0 540.1102294921875 412.049468994140625 0
544 413.75 0 540.1102294921875 412.049468994140625 0
544 413.75 100 540.1102294921875 412.049468994140625 0
544 414.25 100 540.1102294921875 412.049468994140625 0
364 414.25 0 359.629638671875 410.414337158203125 0
364 413.75 0 359.629638671875 410.414337158203125 0
364 413.75 100 359.629638671875 410.414337158203125 0
364 414.25 100 359.629638671875 410.414337158203125 0
472 414.25 0 468.629638671875 410.414337158203125 0
472 413.75 0 468.629638671875 410.414337158203125 0
472 413.75 100 468.629638671875 410.414337158203125 0
472 414.25 100 468.629638671875 410.414337158203125 0
100.75 61 0 100.520500183105469 59.8610496520996094 0
101.25 61 0 100.520500183105469 59.8610496520996094 0
101.25 61 100 100.520500183105469 59.8610496520996094 0
100.75 61 100 100.520500183105469 59.8610496520996094 0
100.75 500 0 100.520500183105469 499.861053466796875 0
101.25 500 0 100.520500183105469 499.861053466796875 0
101.25 500 100 100.520500183105469 499.861053466796875 0
100.75 500 100 100.520500183105469 499.861053466796875 0
732.25 61 0 730.1771240234375 59.8273162841796875 0
731.75 61 0 730.1771240234375 59.8273162841796875 0
731.75 61 100 730.1771240234375 59.8273162841796875 0
732.25 61 100 730.1771240234375 59.8273162841796875 0
361.75 235 0 360.384918212890625 233.113204956054688 0
362.25 235 0 360.384918212890625 233.113204956054688 0
362.25 235 100 360.384918212890625 233.113204956054688 0
361.75 235 100 360.384918212890625 233.113204956054688 0
361.75 500 0 360.384918212890625 499.11322021484375 0
362.25 500 0 360.384918212890625 499.11322021484375 0
362.25 500 100 360.384918212890625 499.11322021484375 0
361.75 500 100 360.384918212890625 499.11322021484375 0
528.75 211 0 525.10345458984375 208.544830322265625 0
529.25 211 0 525.10345458984375 208.544830322265625 0
529.25 211 100 525.10345458984375 208.544830322265625 0
528.75 211 100 525.10345458984375 208.544830322265625 0
528.75 356 0 525.10345458984375 354.544830322265625 0
529.25 356 0 525.10345458984375 354.544830322265625 0
529.25 356 100 525.10345458984375 354.544830322265625 0
528.75 356 100 525.10345458984375 354.544830322265625 0
102 236.75 0 100.695747375488281 236.043807983398438 0
102 237.25 0 100.695747375488281 236.043807983398438 0
102 237.25 100 100.695747375488281 236.043807983398438 0
102 236.75 100 100.695747375488281 236.043807983398438 0
485.75 212 0 480.292144775390625 208.61798095703125 0
486.25 212 0 480.292144775390625 208.61798095703125 0
486.25 212 100 480.292144775390625 208.61798095703125 0
485.75 212 100 480.292144775390625 208.61798095703125 0
485.75 301 0 480.292144775390625 298.61798095703125 0
486.25 301 0 480.292144775390625 298.61798095703125 0
486.25 301 100 480.292144775390625 298.61798095703125 0
485.75 301 100 480.292144775390625 298.61798095703125 0
224 62.25 0 221.582275390625 61.8560142517089844 0
224 61.75 0 221.582275390625 61.8560142517089844 0
224 61.75 100 221.582275390625 61.8560142517089844 0
224 62.25 100 221.582275390625 61.8560142517089844 0
382 62.25 0 380.582275390625 61.8560142517089844 0
382 61.75 0 380.582275390625 61.8560142517089844 0
382 61.75 100 380.582275390625 61.8560142517089844 0
382 62.25 100 380.582275390625 61.8560142517089844 0
75.75 121 0 74.421051025390625 117.877189636230469 0
76.25 121 0 74.421051025390625 117.877189636230469 0
76.25 121 100 74.421051025390625 117.877189636230469 0
75.75 121 100 74.421051025390625 117.877189636230469 0
75.75 178 0 74.421051025390625 175.877197265625 0
76.25 178 0 74.421051025390625 175.877197265625 0
76.25 178 100 74.421051025390625 175.877197265625 0
75.75 178 100 74.421051025390625 175.877197265625 0
461 62.25 0 457.13665771484375 61.8633537292480469 0
461 61.75 0 457.13665771484375 61.8633537292480469 0
461 61.75 100 457.13665771484375 61.8633537292480469 0
461 62.25 100 457.13665771484375 61.8633537292480469 0
622 62.25 0 619.13665771484375 61.8633537292480469 0
622 61.75 0 619.13665771484375 61.8633537292480469 0
622 61.75 100 619.13665771484375 61.8633537292480469 0
622 62.25 100 619.13665771484375 61.8633537292480469 0
361 268.25 0 355.186676025390625 264.67333984375 0
361 267.75 0 355.186676025390625 264.67333984375 0
361 267.75 100 355.186676025390625 264.67333984375 0
361 268.25 100 355.186676025390625 264.67333984375 0
436 268.25 0 431.186676025390625 264.67333984375 0
436 267.75 0 431.186676025390625 264.67333984375 0
436 267.75 100 431.186676025390625 264.67333984375 0
436 268.25 100 431.186676025390625 264.67333984375 0
597.25 238 0 0 0 -1
596.75 238 0 0 0 -1
596.75 61 0 0 0 -1
597.25 61 0 0 0 -1
597.25 238 100 0 0 1
596.75 238 100 0 0 1
596.75 61 100 0 0 1
597.25 61 100 0 0 1
437.25 414 0 0 0 -1
436.75 414 0 0 0 -1
436.75 237.25 0 0 0 -1
437.25 236.75 0 0 0 -1
437.25 414 100 0 0 1
436.75 414 100 0 0 1
436.75 237.25 100 0 0 1
437.25 236.75 100 0 0 1
437.25 236.75 0 0 0 -1
436.75 237.25 0 0 0 -1
102 237.25 0 0 0 -1
102 236.75 0 0 0 -1
437.25 236.75 100 0 0 1
436.75 237.25 100 0 0 1
102 237.25 100 0 0 1
102 236.75 100 0 0 1
487 237.25 0 0 0 -1
487 236.75 0 0 0 -1
623 236.75 0 0 0 -1
623 237.25 0 0 0 -1
487 237.25 100 0 0 1
487 236.75 100 0 0 1
623 236.75 100 0 0 1
623 237.25 100 0 0 1
363 344.25 0 0 0 -1
363 343.75 0 0 0 -1
436 343.75 0 0 0 -1
436 344.25 0 0 0 -1
363 344.25 100 0 0 1
363 343.75 100 0 0 1
436 343.75 100 0 0 1
436 344.25 100 0 0 1
544 414.25 0 0 0 -1
544 413.75 0 0 0 -1
731.75 413.75 0 0 0 -1
732.25 414.25 0 0 0 -1
544 414.25 100 0 0 1
544 413.75 100 0 0 1
731.75 413.75 100 0 0 1
732.25 414.25 100 0 0 1
732.25 414.25 0 0 0 -1
731.75 413.75 0 0 0 -1
731.75 61 0 0 0 -1
732.25 61 0 0 0 -1
732.25 414.25 100 0 0 1
731.75 413.75 100 0 0 1
731.75 61 100 0 0 1
732.25 61 100 0 0 1
364 414.25 0 0 0 -1
364 413.75 0 0 0 -1
472 413.75 0 0 0 -1
472 414.25 0 0 0 -1
364 414.25 100 0 0 1
364 413.75 100 0 0 1
472 413.75 100 0 0 1
472 414.25 100 0 0 1
100.75 61 0 0 0 -1
101.25 61 0 0 0 -1
101.25 500 0 0 0 -1
100.75 500 0 0 0 -1
100.75 61 100 0 0 1
101.25 61 100 0 0 1
101.25 500 100 0 0 1
100.75 500 100 0 0 1
361.75 235 0 0 0 -1
362.25 235 0 0 0 -1
362.25 500 0 0 0 -1
361.75 500 0 0 0 -1
361.75 235 100 0 0 1
362.25 235 100 0 0 1
362.25 500 100 0 0 1
361.75 500 100 0 0 1
528.75 211 0 0 0 -1
529.25 211 0 0 0 -1
529.25 356 0 0 0 -1
528.75 356 0 0 0 -1
528.75 211 100 0 0 1
529.25 211 100 0 0 1
529.25 356 100 0 0 1
528.75 356 100 0 0 1
485.75 212 0 0 0 -1
486.25 212 0 0 0 -1
486.25 301 0 0 0 -1
485.75 301 0 0 0 -1
485.75 212 100 0 0 1
486.25 212 100 0 0 1
486.25 301 100 0 0 1
485.75 301 100 0 0 1
224 62.25 0 0 0 -1
224 61.75 0 0 0 -1
382 61.75 0 0 0 -1
382 62.25 0 0 0 -1
224 62.25 100 0 0 1
224 61.75 100 0 0 1
382 61.75 100 0 0 1
382 62.25 100 0 0 1
75.75 121 0 0 0 -1
76.25 121 0 0 0 -1
76.25 178 0 0 0 -1
75.75 178 0 0 0 -1
75.75 121 100 0 0 1
76.25 121 100 0 0 1
76.25 178 100 0 0 1
75.75 178 100 0 0 1
461 62.25 0 0 0 -1
461 61.75 0 0 0 -1
622 61.75 0 0 0 -1
622 62.25 0 0 0 -1
461 62.25 100 0 0 1
461 61.75 100 0 0 1
622 61.75 100 0 0 1
622 62.25 100 0 0 1
361 268.25 0 0 0 -1
361 267.75 0 0 0 -1
436 267.75 0 0 0 -1
436 268.25 0 0 0 -1
361 268.25 100 0 0 1
361 267.75 100 0 0 1
436 267.75 100 0 0 1
436 268.25 100 0 0 1
4 0 1 2 3
4 4 5 6 7
4 8 9 10 11
4 12 13 14 15
4 16 17 18 19
4 20 21 22 23
4 24 25 26 27
4 28 29 30 31
4 32 33 34 35
4 36 37 38 39
4 40 41 42 43
4 44 45 46 47
4 48 49 50 51
4 52 53 54 55
4 56 57 58 59
4 60 61 62 63
4 64 65 66 67
4 68 69 70 71
4 72 73 74 75
4 76 77 78 79
4 80 81 82 83
4 84 85 86 87
4 88 89 90 91
4 92 93 94 95
4 96 97 98 99
4 100 101 102 103
4 104 105 106 107
4 108 109 110 111
4 112 113 114 115
4 116 117 118 119
4 120 121 122 123
4 124 125 126 127
4 128 129 130 131
4 132 133 134 135
4 136 137 138 139
4 140 141 142 143
4 144 145 146 147
4 148 149 150 151
4 152 153 154 155
4 156 157 158 159
4 160 161 162 163
4 164 165 166 167
4 168 169 170 171
4 172 173 174 175
4 176 177 178 179
4 180 181 182 183
4 184 185 186 187
4 188 189 190 191
4 192 193 194 195
4 196 197 198 199
4 200 201 202 203
4 204 205 206 207
4 208 209 210 211
4 212 213 214 215
4 216 217 218 219
4 220 221 222 223
4 224 225 226 227
4 228 229 230 231
4 232 233 234 235
4 236 237 238 239
4 240 241 242 243
4 244 245 246 247
4 248 249 250 251
4 252 253 254 255
4 256 257 258 259
4 260 261 262 263
4 264 265 266 267
4 268 269 270 271
4 272 273 274 275
4 276 277 278 279
4 280 281 282 283
4 284 285 286 287
4 288 289 290 291
4 292 293 294 295
4 296 297 298 299
4 300 301 302 303
4 304 305 306 307
4 308 309 310 311
4 312 313 314 315
4 316 317 318 319
4 320 321 322 323
4 324 325 326 327
4 328 329 330 331
4 332 333 334 335
4 336 337 338 339
4 340 341 342 343
4 344 345 346 347
4 348 349 350 351
4 352 353 354 355
4 356 357 358 359
4 360 361 362 363
4 364 365 366 367
