ply
format ascii 1.0
element vertex 488
property float x
property float y
property float z
property float nx
property float ny
property float nz
element quads 122
property list uchar int vertex_indices
end_header
241.75 451.25 0 -0 1 0
555.25 451.25 0 -0 1 0
555.25 451.25 100 -0 1 0
241.75 451.25 100 -0 1 0
242.25 450.75 0 0 -1 0
554.75 450.75 0 0 -1 0
554.75 450.75 100 0 -1 0
242.25 450.75 100 0 -1 0
242.25 450.75 0 1 0 0
242.25 419 0 1 0 0
242.25 419 100 1 0 0
242.25 450.75 100 1 0 0
241.75 451.25 0 -1 -0 0
241.75 419 0 -1 -0 0
241.75 419 100 -1 -0 0
241.75 451.25 100 -1 -0 0
555.25 451.25 0 1 0 0
555.25 366 0 1 0 0
555.25 366 100 1 0 0
555.25 451.25 100 1 0 0
554.75 450.75 0 -1 -0 0
554.75 366 0 -1 -0 0
554.75 366 100 -1 -0 0
554.75 450.75 100 -1 -0 0
647.25 161 0 1 0 0
647.25 101.75 0 1 0 0
647.25 101.75 100 1 0 0
647.25 161 100 1 0 0
646.75 161 0 -1 -0 0
646.75 102.25 0 -1 -0 0
646.75 102.25 100 -1 -0 0
646.75 161 100 -1 -0 0
647.25 101.75 0 -0 -1 0
205.75 101.75 0 -0 -1 0
205.75 101.75 100 -0 -1 0
647.25 101.75 100 -0 -1 0
646.75 102.25 0 0 1 0
206.25 102.25 0 0 1 0
206.25 102.25 100 0 1 0
646.75 102.25 100 0 1 0
504.25 449 0 1 0 0
504.25 365 0 1 0 0
504.25 365 100 1 0 0
504.25 449 100 1 0 0
503.75 449 0 -1 -0 0
503.75 365 0 -1 -0 0
503.75 365 100 -1 -0 0
503.75 449 100 -1 -0 0
495 311.25 0 -0 1 0
563 311.25 0 -0 1 0
563 311.25 100 -0 1 0
495 311.25 100 -0 1 0
495 310.75 0 0 -1 0
563 310.75 0 0 -1 0
563 310.75 100 0 -1 0
495 310.75 100 0 -1 0
504.25 309 0 1 0 0
504.25 227.75 0 1 0 0
504.25 227.75 100 1 0 0
504.25 309 100 1 0 0
503.75 309 0 -1 -0 0
503.75 228.25 0 -1 -0 0
503.75 228.25 100 -1 -0 0
503.75 309 100 -1 -0 0
504.25 227.75 0 -0 -1 0
371.25 227.75 0 -0 -1 0
371.25 227.75 100 -0 -1 0
504.25 227.75 100 -0 -1 0
503.75 228.25 0 0 1 0
370.75 228.25 0 0 1 0
370.75 228.25 100 0 1 0
503.75 228.25 100 0 1 0
205.75 101.75 0 -1 0 0
205.75 139 0 -1 0 0
205.75 139 100 -1 0 0
205.75 101.75 100 -1 0 0
206.25 102.25 0 1 -0 0
206.25 139 0 1 -0 0
206.25 139 100 1 -0 0
206.25 102.25 100 1 -0 0
370.75 101 0 -1 0 0
370.75 228.25 0 -1 0 0
370.75 228.25 100 -1 0 0
370.75 101 100 -1 0 0
371.25 101 0 1 -0 0
371.25 227.75 0 1 -0 0
371.25 227.75 100 1 -0 0
371.25 101 100 1 -0 0
437.75 277 0 -1 0 0
437.75 449 0 -1 0 0
437.75 449 100 -1 0 0
437.75 277 100 -1 0 0
438.25 277 0 1 -0 0
438.25 449 0 1 -0 0
438.25 449 100 1 -0 0
438.25 277 100 1 -0 0
523.75 104 0 -1 0 0
523.75 202 0 -1 0 0
523.75 202 100 -1 0 0
523.75 104 100 -1 0 0
524.25 104 0 1 -0 0
524.25 202 0 1 -0 0
524.25 202 100 1 -0 0
524.25 104 100 1 -0 0
205.75 241 0 -1 0 0
205.75 278.25 0 -1 0 0
205.75 278.25 100 -1 0 0
205.75 241 100 -1 0 0
206.25 241 0 1 -0 0
206.25 277.75 0 1 -0 0
206.25 277.75 100 1 -0 0
206.25 241 100 1 -0 0
205.75 278.25 0 -0 1 0
496 278.25 0 -0 1 0
496 278.25 100 -0 1 0
205.75 278.25 100 -0 1 0
206.25 277.75 0 0 -1 0
496 277.75 0 0 -1 0
496 277.75 100 0 -1 0
206.25 277.75 100 0 -1 0
241.75 279 0 -1 0 0
241.75 318 0 -1 0 0
241.75 318 100 -1 0 0
241.75 279 100 -1 0 0
242.25 279 0 1 -0 0
242.25 318 0 1 -0 0
242.25 318 100 1 -0 0
242.25 279 100 1 -0 0
804.75 177 0 -1 0 0
804.75 243 0 -1 0 0
804.75 243 100 -1 0 0
804.75 177 100 -1 0 0
805.25 177 0 1 -0 0
805.25 243 0 1 -0 0
805.25 243 100 1 -0 0
805.25 177 100 1 -0 0
433 363.25 0 -0 1 0
647.25 363.25 0 -0 1 0
647.25 363.25 100 -0 1 0
433 363.25 100 -0 1 0
433 362.75 0 0 -1 0
646.75 362.75 0 0 -1 0
646.75 362.75 100 0 -1 0
433 362.75 100 0 -1 0
647.25 363.25 0 1 0 0
647.25 285 0 1 0 0
647.25 285 100 1 0 0
647.25 363.25 100 1 0 0
646.75 362.75 0 -1 -0 0
646.75 285 0 -1 -0 0
646.75 285 100 -1 -0 0
646.75 362.75 100 -1 -0 0
562 278.25 0 -0 1 0
761 278.25 0 -0 1 0
761 278.25 100 -0 1 0
562 278.25 100 -0 1 0
562 277.75 0 0 -1 0
761 277.75 0 0 -1 0
761 277.75 100 0 -1 0
562 277.75 100 0 -1 0
367 172.25 0 -0 1 0
523 172.25 0 -0 1 0
523 172.25 100 -0 1 0
367 172.25 100 -0 1 0
367 171.75 0 0 -1 0
523 171.75 0 0 -1 0
523 171.75 100 0 -1 0
367 171.75 100 0 -1 0
644 134.25 0 -0 1 0
768 134.25 0 -0 1 0
768 134.25 100 -0 1 0
644 134.25 100 -0 1 0
644 133.75 0 0 -1 0
768 133.75 0 0 -1 0
768 133.75 100 0 -1 0
644 133.75 100 0 -1 0
644 151.25 0 -0 1 0
689 151.25 0 -0 1 0
689 151.25 100 -0 1 0
644 151.25 100 -0 1 0
644 150.75 0 0 -1 0
689 150.75 0 0 -1 0
689 150.75 100 0 -1 0
644 150.75 100 0 -1 0
647.25 161 0 636.325927734375 159.282699584960938 0
646.75 161 0 636.325927734375 159.282699584960938 0
646.75 161 100 636.325927734375 159.282699584960938 0
647.25 161 100 636.325927734375 159.282699584960938 0
504.25 449 0 498.24700927734375 444.654754638671875 0
503.75 449 0 498.24700927734375 444.654754638671875 0
503.75 449 100 498.24700927734375 444.654754638671875 0
504.25 449 100 498.24700927734375 444.654754638671875 0
504.25 365 0 498.24700927734375 359.654754638671875 0
503.75 365 0 498.24700927734375 359.654754638671875 0
503.75 365 100 498.24700927734375 359.654754638671875 0
504.25 365 100 498.24700927734375 359.654754638671875 0
555.25 366 0 548.73681640625 360.706756591796875 0
554.75 366 0 548.73681640625 360.706756591796875 0
554.75 366 100 548.73681640625 360.706756591796875 0
555.25 366 100 548.73681640625 360.706756591796875 0
495 311.25 0 486.7205810546875 306.67279052734375 0
495 310.75 0 486.7205810546875 306.67279052734375 0
495 310.75 100 486.7205810546875 306.67279052734375 0
495 311.25 100 486.7205810546875 306.67279052734375 0
563 311.25 0 555.7205810546875 306.67279052734375 0
563 310.75 0 555.7205810546875 306.67279052734375 0
563 310.75 100 555.7205810546875 306.67279052734375 0
563 311.25 100 555.7205810546875 306.67279052734375 0
504.25 309 0 498.043853759765625 306.196929931640625 0
503.75 309 0 498.043853759765625 306.196929931640625 0
503.75 309 100 498.043853759765625 306.196929931640625 0
504.25 309 100 498.043853759765625 306.196929931640625 0
370.75 101 0 367.836456298828125 99.2062835693359375 0
371.25 101 0 367.836456298828125 99.2062835693359375 0
371.25 101 100 367.836456298828125 99.2062835693359375 0
370.75 101 100 367.836456298828125 99.2062835693359375 0
437.75 277 0 435.2049560546875 274.3895263671875 0
438.25 277 0 435.2049560546875 274.3895263671875 0
438.25 277 100 435.2049560546875 274.3895263671875 0
437.75 277 100 435.2049560546875 274.3895263671875 0
437.75 449 0 435.2049560546875 447.3895263671875 0
438.25 449 0 435.2049560546875 447.3895263671875 0
438.25 449 100 435.2049560546875 447.3895263671875 0
437.75 449 100 435.2049560546875 447.3895263671875 0
523.75 104 0 518.4056396484375 101.938774108886719 0
524.25 104 0 518.4056396484375 101.938774108886719 0
524.25 104 100 518.4056396484375 101.938774108886719 0
523.75 104 100 518.4056396484375 101.938774108886719 0
523.75 202 0 518.4056396484375 200.93878173828125 0
524.25 202 0 518.4056396484375 200.93878173828125 0
524.25 202 100 518.4056396484375 200.93878173828125 0
523.75 202 100 518.4056396484375 200.93878173828125 0
205.75 139 0 200.226516723632812 136.268463134765625 0
206.25 139 0 200.226516723632812 136.268463134765625 0
206.25 139 100 200.226516723632812 136.268463134765625 0
205.75 139 100 200.226516723632812 136.268463134765625 0
205.75 241 0 200.226516723632812 233.530197143554688 0
206.25 241 0 200.226516723632812 233.530197143554688 0
206.25 241 100 200.226516723632812 233.530197143554688 0
205.75 241 100 200.226516723632812 233.530197143554688 0
242.25 419 0 234.620071411132812 404.80316162109375 0
241.75 419 0 234.620071411132812 404.80316162109375 0
241.75 419 100 234.620071411132812 404.80316162109375 0
242.25 419 100 234.620071411132812 404.80316162109375 0
241.75 279 0 235.551284790039062 270.846160888671875 0
242.25 279 0 235.551284790039062 270.846160888671875 0
242.25 279 100 235.551284790039062 270.846160888671875 0
241.75 279 100 235.551284790039062 270.846160888671875 0
241.75 318 0 235.551284790039062 310.846160888671875 0
242.25 318 0 235.551284790039062 310.846160888671875 0
242.25 318 100 235.551284790039062 310.846160888671875 0
241.75 318 100 235.551284790039062 310.846160888671875 0
496 278.25 0 495.2911376953125 277.291351318359375 0
496 277.75 0 495.2911376953125 277.291351318359375 0
496 277.75 100 495.2911376953125 277.291351318359375 0
496 278.25 100 495.2911376953125 277.291351318359375 0
804.75 177 0 792.55682373046875 173.31817626953125 0
805.25 177 0 792.55682373046875 173.31817626953125 0
805.25 177 100 792.55682373046875 173.31817626953125 0
804.75 177 100 792.55682373046875 173.31817626953125 0
804.75 243 0 792.55682373046875 240.31817626953125 0
805.25 243 0 792.55682373046875 240.31817626953125 0
805.25 243 100 792.55682373046875 240.31817626953125 0
804.75 243 100 792.55682373046875 240.31817626953125 0
433 363.25 0 429.97900390625 361.5545654296875 0
433 362.75 0 429.97900390625 361.5545654296875 0
433 362.75 100 429.97900390625 361.5545654296875 0
433 363.25 100 429.97900390625 361.5545654296875 0
647.25 285 0 638.97845458984375 280.357818603515625 0
646.75 285 0 638.97845458984375 280.357818603515625 0
646.75 285 100 638.97845458984375 280.357818603515625 0
647.25 285 100 638.97845458984375 280.357818603515625 0
562 278.25 0 558.1759033203125 276.85174560546875 0
562 277.75 0 558.1759033203125 276.85174560546875 0
562 277.75 100 558.1759033203125 276.85174560546875 0
562 278.25 100 558.1759033203125 276.85174560546875 0
761 278.25 0 758.1759033203125 276.85174560546875 0
761 277.75 0 758.1759033203125 276.85174560546875 0
761 277.75 100 758.1759033203125 276.85174560546875 0
761 278.25 100 758.1759033203125 276.85174560546875 0
367 172.25 0 363.647430419921875 171.145828247070312 0
367 171.75 0 363.647430419921875 171.145828247070312 0
367 171.75 100 363.647430419921875 171.145828247070312 0
367 172.25 100 363.647430419921875 171.145828247070312 0
523 172.25 0 520.6474609375 171.145828247070312 0
523 171.75 0 520.6474609375 171.145828247070312 0
523 171.75 100 520.6474609375 171.145828247070312 0
523 172.25 100 520.6474609375 171.145828247070312 0
644 134.25 0 637.80645751953125 133.167343139648438 0
644 133.75 0 637.80645751953125 133.167343139648438 0
644 133.75 100 637.80645751953125 133.167343139648438 0
644 134.25 100 637.80645751953125 133.167343139648438 0
768 134.25 0 762.80645751953125 133.167343139648438 0
768 133.75 0 762.80645751953125 133.167343139648438 0
768 133.75 100 762.80645751953125 133.167343139648438 0
768 134.25 100 762.80645751953125 133.167343139648438 0
644 151.25 0 628.68890380859375 147.888885498046875 0
644 150.75 0 628.68890380859375 147.888885498046875 0
644 150.75 100 628.68890380859375 147.888885498046875 0
644 151.25 100 628.68890380859375 147.888885498046875 0
689 151.25 0 674.68890380859375 147.888885498046875 0
689 150.75 0 674.68890380859375 147.888885498046875 0
689 150.75 100 674.68890380859375 147.888885498046875 0
689 151.25 100 674.68890380859375 147.888885498046875 0
241.75 451.25 0 0 0 -1
242.25 450.75 0 0 0 -1
554.75 450.75 0 0 0 -1
555.25 451.25 0 0 0 -1
241.75 451.25 100 0 0 1
242.25 450.75 100 0 0 1
554.75 450.75 100 0 0 1
555.25 451.25 100 0 0 1
242.25 450.75 0 0 0 -1
241.75 451.25 0 0 0 -1
241.75 419 0 0 0 -1
242.25 419 0 0 0 -1
242.25 450.75 100 0 0 1
241.75 451.25 100 0 0 1
241.75 419 100 0 0 1
242.25 419 100 0 0 1
555.25 451.25 0 0 0 -1
554.75 450.75 0 0 0 -1
554.75 366 0 0 0 -1
555.25 366 0 0 0 -1
555.25 451.25 100 0 0 1
554.75 450.75 100 0 0 1
554.75 366 100 0 0 1
555.25 366 100 0 0 1
647.25 161 0 0 0 -1
646.75 161 0 0 0 -1
646.75 102.25 0 0 0 -1
647.25 101.75 0 0 0 -1
647.25 161 100 0 0 1
646.75 161 100 0 0 1
646.75 102.25 100 0 0 1
647.25 101.75 100 0 0 1
647.25 101.75 0 0 0 -1
646.75 102.25 0 0 0 -1
206.25 102.25 0 0 0 -1
205.75 101.75 0 0 0 -1
647.25 101.75 100 0 0 1
646.75 102.25 100 0 0 1
206.25 102.25 100 0 0 1
205.75 101.75 100 0 0 1
504.25 449 0 0 0 -1
503.75 449 0 0 0 -1
503.75 365 0 0 0 -1
504.25 365 0 0 0 -1
504.25 449 100 0 0 1
503.75 449 100 0 0 1
503.75 365 100 0 0 1
504.25 365 100 0 0 1
495 311.25 0 0 0 -1
495 310.75 0 0 0 -1
563 310.75 0 0 0 -1
563 311.25 0 0 0 -1
495 311.25 100 0 0 1
495 310.75 100 0 0 1
563 310.75 100 0 0 1
563 311.25 100 0 0 1
504.25 309 0 0 0 -1
503.75 309 0 0 0 -1
503.75 228.25 0 0 0 -1
504.25 227.75 0 0 0 -1
504.25 309 100 0 0 1
503.75 309 100 0 0 1
503.75 228.25 100 0 0 1
504.25 227.75 100 0 0 1
504.25 227.75 0 0 0 -1
503.75 228.25 0 0 0 -1
370.75 228.25 0 0 0 -1
371.25 227.75 0 0 0 -1
504.25 227.75 100 0 0 1
503.75 228.25 100 0 0 1
370.75 228.25 100 0 0 1
371.25 227.75 100 0 0 1
205.75 101.75 0 0 0 -1
206.25 102.25 0 0 0 -1
206.25 139 0 0 0 -1
205.75 139 0 0 0 -1
205.75 101.75 100 0 0 1
206.25 102.25 100 0 0 1
206.25 139 100 0 0 1
205.75 139 100 0 0 1
370.75 101 0 0 0 -1
371.25 101 0 0 0 -1
371.25 227.75 0 0 0 -1
370.75 228.25 0 0 0 -1
370.75 101 100 0 0 1
371.25 101 100 0 0 1
371.25 227.75 100 0 0 1
370.75 228.25 100 0 0 1
437.75 277 0 0 0 -1
438.25 277 0 0 0 -1
438.25 449 0 0 0 -1
437.75 449 0 0 0 -1
437.75 277 100 0 0 1
438.25 277 100 0 0 1
438.25 449 100 0 0 1
437.75 449 100 0 0 1
523.75 104 0 0 0 -1
524.25 104 0 0 0 -1
524.25 202 0 0 0 -1
523.75 202 0 0 0 -1
523.75 104 100 0 0 1
524.25 104 100 0 0 1
524.25 202 100 0 0 1
523.75 202 100 0 0 1
205.75 241 0 0 0 -1
206.25 241 0 0 0 -1
206.25 277.75 0 0 0 -1
205.75 278.25 0 0 0 -1
205.75 241 100 0 0 1
206.25 241 100 0 0 1
206.25 277.75 100 0 0 1
205.75 278.25 100 0 0 1
205.75 278.25 0 0 0 -1
206.25 277.75 0 0 0 -1
496 277.75 0 0 0 -1
496 278.25 0 0 0 -1
205.75 278.25 100 0 0 1
206.25 277.75 100 0 0 1
496 277.75 100 0 0 1
496 278.25 100 0 0 1
241.75 279 0 0 0 -1
242.25 279 0 0 0 -1
242.25 318 0 0 0 -1
241.75 318 0 0 0 -1
241.75 279 100 0 0 1
242.25 279 100 0 0 1
242.25 318 100 0 0 1
241.75 318 100 0 0 1
804.75 177 0 0 0 -1
805.25 177 0 0 0 -1
805.25 243 0 0 0 -1
804.75 243 0 0 0 -1
804.75 177 100 0 0 1
805.25 177 100 0 0 1
805.25 243 100 0 0 1
804.75 243 100 0 0 1
433 363.25 0 0 0 -1
433 362.75 0 0 0 -1
646.75 362.75 0 0 0 -1
647.25 363.25 0 0 0 -1
433 363.25 100 0 0 1
433 362.75 100 0 0 1
646.75 362.75 100 0 0 1
647.25 363.25 100 0 0 1
647.25 363.25 0 0 0 -1
646.75 362.75 0 0 0 -1
646.75 285 0 0 0 -1
647.25 285 0 0 0 -1
647.25 363.25 100 0 0 1
646.75 362.75 100 0 0 1
646.75 285 100 0 0 1
647.25 285 100 0 0 1
562 278.25 0 0 0 -1
562 277.75 0 0 0 -1
761 277.75 0 0 0 -1
761 278.25 0 0 0 -1
562 278.25 100 0 0 1
562 277.75 100 0 0 1
761 277.75 100 0 0 1
761 278.25 100 0 0 1
367 172.25 0 0 0 -1
367 171.75 0 0 0 -1
523 171.75 0 0 0 -1
523 172.25 0 0 0 -1
367 172.25 100 0 0 1
367 171.75 100 0 0 1
523 171.75 100 0 0 1
523 172.25 100 0 0 1
644 134.25 0 0 0 -1
644 133.75 0 0 0 -1
768 133.75 0 0 0 -1
768 134.25 0 0 0 -1
644 134.25 100 0 0 1
644 133.75 100 0 0 1
768 133.75 100 0 0 1
768 134.25 100 0 0 1
644 151.25 0 0 0 -1
644 150.75 0 0 0 -1
689 150.75 0 0 0 -1
689 151.25 0 0 0 -1
644 151.25 100 0 0 1
644 150.75 100 0 0 1
689 150.75 100 0 0 1
689 151.25 100 0 0 1
4 0 1 2 3
4 4 5 6 7
4 8 9 10 11
4 12 13 14 15
4 16 17 18 19
4 20 21 22 23
4 24 25 26 27
4 28 29 30 31
4 32 33 34 35
4 36 37 38 39
4 40 41 42 43
4 44 45 46 47
4 48 49 50 51
4 52 53 54 55
4 56 57 58 59
4 60 61 62 63
4 64 65 66 67
4 68 69 70 71
4 72 73 74 75
4 76 77 78 79
4 80 81 82 83
4 84 85 86 87
4 88 89 90 91
4 92 93 94 95
4 96 97 98 99
4 100 101 102 103
4 104 105 106 107
4 108 109 110 111
4 112 113 114 115
4 116 117 118 119
4 120 121 122 123
4 124 125 126 127
4 128 129 130 131
4 132 133 134 135
4 136 137 138 139
4 140 141 142 143
4 144 145 146 147
4 148 149 150 151
4 152 153 154 155
4 156 157 158 159
4 160 161 162 163
4 164 165 166 167
4 168 169 170 171
4 172 173 174 175
4 176 177 178 179
4 180 181 182 183
4 184 185 186 187
4 188 189 190 191
4 192 193 194 195
4 196 197 198 199
4 200 201 202 203
4 204 205 206 207
4 208 209 210 211
4 212 213 214 215
4 216 217 218 219
4 220 221 222 223
4 224 225 226 227
4 228 229 230 231
4 232 233 234 235
4 236 237 238 239
4 240 241 242 243
4 244 245 246 247
4 248 249 250 251
4 252 253 254 255
4 256 257 258 259
4 260 261 262 263
4 264 265 266 267
4 268 269 270 271
4 272 273 274 275
4 276 277 278 279
4 280 281 282 283
4 284 285 286 287
4 288 289 290 291
4 292 293 294 295
4 296 297 298 299
4 300 301 302 303
4 304 305 306 307
4 308 309 310 311
4 312 313 314 315
4 316 317 318 319
4 320 321 322 323
4 324 325 326 327
4 328 329 330 331
4 332 333 334 335
4 336 337 338 339
4 340 341 342 343
4 344 345 346 347
4 348 349 350 351
4 352 353 354 355
4 356 357 358 359
4 360 361 362 363
4 364 365 366 367
4 368 369 370 371
4 372 373 374 375
4 376 377 378 379
4 380 381 382 383
4 384 385 386 387
4 388 389 390 391
4 392 393 394 395
4 396 397 398 399
4 400 401 402 403
4 404 405 406 407
4 408 409 410 411
4 412 413 414 415
4 416 417 418 419
4 420 421 422 423
4 424 425 426 427
4 428 429 430 431
4 432 433 434 435
4 436 437 438 439
4 440 441 442 443
4 444 445 446 447
4 448 449 450 451
4 452 453 454 455
4 456 457 458 459
4 460 461 462 463
4 464 465 466 467
4 468 469 470 471
4 472 473 474 475
4 476 477 478 479
4 480 481 482 483
4 484 485 486 487
