ply
format ascii 1.0
element vertex 802
property float x
property float y
property float z
property float nx
property float ny
property float nz
element quads 199
property list uchar int vertex_indices
element triads 2
property list uchar int vertex_indices
end_header
651 97 0 -0 -1 0
200 97 0 -0 -1 0
200 97 150 -0 -1 0
651 97 150 -0 -1 0
641 107 0 0 1 0
210 107 0 0 1 0
210 107 150 0 1 0
641 107 150 0 1 0
641 107 0 -1 0 0
641 138 0 -1 0 0
641 138 150 -1 0 0
641 107 150 -1 0 0
651 97 0 1 -0 0
651 128 0 1 -0 0
651 128 150 1 -0 0
651 97 150 1 -0 0
200 97 0 -1 0 0
200 139 0 -1 0 0
200 139 150 -1 0 0
200 97 150 -1 0 0
210 107 0 1 -0 0
210 139 0 1 -0 0
210 139 150 1 -0 0
210 107 150 1 -0 0
394 273 0 -0 -1 0
210 273 0 -0 -1 0
210 273 150 -0 -1 0
394 273 150 -0 -1 0
394 283 0 0 1 0
200 283 0 0 1 0
200 283 150 0 1 0
394 283 150 0 1 0
210 273 0 1 0 0
210 241 0 1 0 0
210 241 150 1 0 0
210 273 150 1 0 0
200 283 0 -1 -0 0
200 241 0 -1 -0 0
200 241 150 -1 -0 0
200 283 150 -1 -0 0
773 282 0 -0 -1 0
557 282 0 -0 -1 0
557 282 150 -0 -1 0
773 282 150 -0 -1 0
773 292 0 0 1 0
567 292 0 0 1 0
567 292 150 0 1 0
773 292 150 0 1 0
557 282 0 -1 0 0
557 305 0 -1 0 0
557 305 150 -1 0 0
557 282 150 -1 0 0
567 292 0 1 -0 0
567 315 0 1 -0 0
567 315 150 1 -0 0
567 292 150 1 -0 0
501 273 0 -0 -1 0
432 273 0 -0 -1 0
432 273 150 -0 -1 0
501 273 150 -0 -1 0
491 283 0 0 1 0
442 283 0 0 1 0
442 283 150 0 1 0
491 283 150 0 1 0
491 283 0 -1 0 0
491 315 0 -1 0 0
491 315 150 -1 0 0
491 283 150 -1 0 0
501 273 0 1 -0 0
501 305 0 1 -0 0
501 305 150 1 -0 0
501 273 150 1 -0 0
432 273 0 -1 0 0
432 321 0 -1 0 0
432 321 150 -1 0 0
432 273 150 -1 0 0
442 283 0 1 -0 0
442 321 0 1 -0 0
442 321 150 1 -0 0
442 283 150 1 -0 0
494.928924560546875 223 0 -0 -1 0
372 223 0 -0 -1 0
372 223 150 -0 -1 0
494.928924560546875 223 150 -0 -1 0
499.071075439453125 233 0 0 1 0
372 233 0 0 1 0
372 233 150 0 1 0
499.071075439453125 233 150 0 1 0
499.071075439453125 233 0 0.70710676908493042 0.70710676908493042 0
529 203.071075439453125 0 0.70710676908493042 0.70710676908493042 0
529 203.071075439453125 150 0.70710676908493042 0.70710676908493042 0
499.071075439453125 233 150 0.70710676908493042 0.70710676908493042 0
494.928924560546875 223 0 -0.70710676908493042 -0.70710676908493042 0
519 198.928924560546875 0 -0.70710676908493042 -0.70710676908493042 0
519 198.928924560546875 150 -0.70710676908493042 -0.70710676908493042 0
494.928924560546875 223 150 -0.70710676908493042 -0.70710676908493042 0
411 167 0 -0 -1 0
366 167 0 -0 -1 0
366 167 150 -0 -1 0
411 167 150 -0 -1 0
411 177 0 0 1 0
376 177 0 0 1 0
376 177 150 0 1 0
411 177 150 0 1 0
366 167 0 -1 0 0
366 228 0 -1 0 0
366 228 150 -1 0 0
366 167 150 -1 0 0
376 177 0 1 -0 0
376 228 0 1 -0 0
376 228 150 1 -0 0
376 177 150 1 -0 0
560 452 0 1 0 0
560 368 0 1 0 0
560 368 150 1 0 0
560 452 150 1 0 0
550 452 0 -1 -0 0
550 358 0 -1 -0 0
550 358 150 -1 -0 0
550 452 150 -1 -0 0
560 368 0 -0 1 0
648.97100830078125 368 0 -0 1 0
648.97100830078125 368 150 -0 1 0
560 368 150 -0 1 0
550 358 0 0 -1 0
639.02899169921875 358 0 0 -1 0
639.02899169921875 358 150 0 -1 0
550 358 150 0 -1 0
704 138.633575439453125 0 -0 -1 0
644 138.633575439453125 0 -0 -1 0
644 138.633575439453125 150 -0 -1 0
704 138.633575439453125 150 -0 -1 0
704 148.633575439453125 0 0 1 0
644 148.633575439453125 0 0 1 0
644 148.633575439453125 150 0 1 0
704 148.633575439453125 150 0 1 0
442.5 363 0 1 0 0
442.5 358 0 1 0 0
442.5 358 150 1 0 0
442.5 363 150 1 0 0
432.5 363 0 -1 -0 0
432.5 358 0 -1 -0 0
432.5 358 150 -1 -0 0
432.5 363 150 -1 -0 0
685 149.702072143554688 0 -0 -1 0
644 149.702072143554688 0 -0 -1 0
644 149.702072143554688 150 -0 -1 0
685 149.702072143554688 150 -0 -1 0
685 159.702072143554688 0 0 1 0
644 159.702072143554688 0 0 1 0
644 159.702072143554688 150 0 1 0
685 159.702072143554688 150 0 1 0
529.5 140 0 1 0 0
529.5 104 0 1 0 0
529.5 104 150 1 0 0
529.5 140 150 1 0 0
519.5 140 0 -1 -0 0
519.5 104 0 -1 -0 0
519.5 104 150 -1 -0 0
519.5 140 150 -1 -0 0
529 203.071075439453125 0 1 0 0
529 165.994888305664062 0 1 0 0
529 165.994888305664062 150 1 0 0
529 203.071075439453125 150 1 0 0
519 198.928924560546875 0 -1 -0 0
519 170.94049072265625 0 -1 -0 0
519 170.94049072265625 150 -1 -0 0
519 198.928924560546875 150 -1 -0 0
442.5 449 0 1 0 0
442.5 405 0 1 0 0
442.5 405 150 1 0 0
442.5 449 150 1 0 0
432.5 449 0 -1 -0 0
432.5 405 0 -1 -0 0
432.5 405 150 -1 -0 0
432.5 449 150 -1 -0 0
245.519729614257812 318 0 1 0 0
245.519729614257812 279 0 1 0 0
245.519729614257812 279 150 1 0 0
245.519729614257812 318 150 1 0 0
235.519729614257812 318 0 -1 -0 0
235.519729614257812 279 0 -1 -0 0
235.519729614257812 279 150 -1 -0 0
235.519729614257812 318 150 -1 -0 0
810.375 243 0 1 0 0
810.375 226 0 1 0 0
810.375 226 150 1 0 0
810.375 243 150 1 0 0
800.375 243 0 -1 -0 0
800.375 226 0 -1 -0 0
800.375 226 150 -1 -0 0
800.375 243 150 -1 -0 0
409.489349365234375 128 0 1 0 0
409.489349365234375 104 0 1 0 0
409.489349365234375 104 150 1 0 0
409.489349365234375 128 150 1 0 0
399.489349365234375 128 0 -1 -0 0
399.489349365234375 104 0 -1 -0 0
399.489349365234375 104 150 -1 -0 0
399.489349365234375 128 150 -1 -0 0
672 156 0 -0 -1 0
645 156 0 -0 -1 0
645 156 150 -0 -1 0
672 156 150 -0 -1 0
672 166 0 0 1 0
645 166 0 0 1 0
645 166 150 0 1 0
672 166 150 0 1 0
776 272.085723876953125 0 -0 -1 0
762 272.085723876953125 0 -0 -1 0
762 272.085723876953125 150 -0 -1 0
776 272.085723876953125 150 -0 -1 0
776 282.085723876953125 0 0 1 0
762 282.085723876953125 0 0 1 0
762 282.085723876953125 150 0 1 0
776 282.085723876953125 150 0 1 0
810 192 0 1 0 0
810 177 0 1 0 0
810 177 150 1 0 0
810 192 150 1 0 0
800 192 0 -1 -0 0
800 177 0 -1 -0 0
800 177 150 -1 -0 0
800 192 150 -1 -0 0
376.49090576171875 132 0 1 0 0
376.49090576171875 104 0 1 0 0
376.49090576171875 104 150 1 0 0
376.49090576171875 132 150 1 0 0
366.49090576171875 132 0 -1 -0 0
366.49090576171875 104 0 -1 -0 0
366.49090576171875 104 150 -1 -0 0
366.49090576171875 132 150 -1 -0 0
775 135.384613037109375 0 -0 -1 0
757 135.384613037109375 0 -0 -1 0
757 135.384613037109375 150 -0 -1 0
775 135.384613037109375 150 -0 -1 0
775 145.384613037109375 0 0 1 0
757 145.384613037109375 0 0 1 0
757 145.384613037109375 150 0 1 0
775 145.384613037109375 150 0 1 0
554 447 0 -0 -1 0
245.076324462890625 447 0 -0 -1 0
245.076324462890625 447 150 -0 -1 0
554 447 150 -0 -1 0
554 457 0 0 1 0
234.923675537109375 457 0 0 1 0
234.923675537109375 457 150 0 1 0
554 457 150 0 1 0
245.076324462890625 447 0 0.999885261058807373 0.015149775892496109 0
245.499420166015625 419.07574462890625 0 0.999885261058807373 0.015149775892496109 0
245.499420166015625 419.07574462890625 150 0.999885261058807373 0.015149775892496109 0
245.076324462890625 447 150 0.999885261058807373 0.015149775892496109 0
234.923675537109375 457 0 -0.999885261058807373 -0.015149775892496109 0
235.500579833984375 418.92425537109375 0 -0.999885261058807373 -0.015149775892496109 0
235.500579833984375 418.92425537109375 150 -0.999885261058807373 -0.015149775892496109 0
234.923675537109375 457 150 -0.999885261058807373 -0.015149775892496109 0
648.97100830078125 368 0 0.999983072280883789 0.00581385521218180656 0
649.41851806640625 291.029083251953125 0 0.999983072280883789 0.00581385521218180656 0
649.41851806640625 291.029083251953125 150 0.999983072280883789 0.00581385521218180656 0
648.97100830078125 368 150 0.999983072280883789 0.00581385521218180656 0
639.02899169921875 358 0 -0.999983072280883789 -0.00581385521218180656 0
639.418701171875 290.970916748046875 0 -0.999983072280883789 -0.00581385521218180656 0
639.418701171875 290.970916748046875 150 -0.999983072280883789 -0.00581385521218180656 0
639.02899169921875 358 150 -0.999983072280883789 -0.00581385521218180656 0
491 315 0 -0 1 0
567 315 0 -0 1 0
567 315 150 -0 1 0
491 315 150 -0 1 0
501 305 0 0 -1 0
557 305 0 0 -1 0
557 305 150 0 -1 0
501 305 150 0 -1 0
770 128 0 -0 -1 0
651 128 0 -0 -1 0
651 128 150 -0 -1 0
770 128 150 -0 -1 0
770 138 0 0 1 0
641 138 0 0 1 0
641 138 150 0 1 0
770 138 150 0 1 0
528.88250732421875 175.995010375976562 0 0.999716699123382568 0.0238027777522802353 0
529.49859619140625 150.1190185546875 0 0.999716699123382568 0.0238027777522802353 0
529.49859619140625 150.1190185546875 150 0.999716699123382568 0.0238027777522802353 0
528.88250732421875 175.995010375976562 150 0.999716699123382568 0.0238027777522802353 0
519 170.94049072265625 0 -0.999716699123382568 -0.0238027777522802353 0
519.50140380859375 149.8809814453125 0 -0.999716699123382568 -0.0238027777522802353 0
519.50140380859375 149.8809814453125 150 -0.999716699123382568 -0.0238027777522802353 0
519 170.94049072265625 150 -0.999716699123382568 -0.0238027777522802353 0
529 165.994888305664062 0 -0.00102240347769111395 -0.999999463558197021 0
447.994873046875 166.07769775390625 0 -0.00102240347769111395 -0.999999463558197021 0
447.994873046875 166.07769775390625 150 -0.00102240347769111395 -0.999999463558197021 0
529 165.994888305664062 150 -0.00102240347769111395 -0.999999463558197021 0
528.88250732421875 175.995010375976562 0 0.00102240347769111395 0.999999463558197021 0
448.005126953125 176.07769775390625 0 0.00102240347769111395 0.999999463558197021 0
448.005126953125 176.07769775390625 150 0.00102240347769111395 0.999999463558197021 0
528.88250732421875 175.995010375976562 150 0.00102240347769111395 0.999999463558197021 0
509 449 0 1 0 0
509 358 0 1 0 0
509 358 150 1 0 0
509 449 150 1 0 0
499 449 0 -1 -0 0
499 368 0 -1 -0 0
499 368 150 -1 -0 0
499 449 150 -1 -0 0
509 358 0 -0 -1 0
438 358 0 -0 -1 0
438 358 150 -0 -1 0
509 358 150 -0 -1 0
499 368 0 0 1 0
438 368 0 0 1 0
438 368 150 0 1 0
499 368 150 0 1 0
394 273 0 392.85870361328125 271.51629638671875 0
394 283 0 392.85870361328125 271.51629638671875 0
394 283 150 392.85870361328125 271.51629638671875 0
394 273 150 392.85870361328125 271.51629638671875 0
773 282 0 770.42132568359375 280.6944580078125 0
773 292 0 770.42132568359375 280.6944580078125 0
773 292 150 770.42132568359375 280.6944580078125 0
773 282 150 770.42132568359375 280.6944580078125 0
372 223 0 367.973846435546875 221.185943603515625 0
372 233 0 367.973846435546875 221.185943603515625 0
372 233 150 367.973846435546875 221.185943603515625 0
372 223 150 367.973846435546875 221.185943603515625 0
411 167 0 402.866668701171875 163.288894653320312 0
411 177 0 402.866668701171875 163.288894653320312 0
411 177 150 402.866668701171875 163.288894653320312 0
411 167 150 402.866668701171875 163.288894653320312 0
560 452 0 553.33331298828125 447.619049072265625 0
550 452 0 553.33331298828125 447.619049072265625 0
550 452 150 553.33331298828125 447.619049072265625 0
560 452 150 553.33331298828125 447.619049072265625 0
704 138.633575439453125 0 693.26666259765625 136.323013305664062 0
704 148.633575439453125 0 693.26666259765625 136.323013305664062 0
704 148.633575439453125 150 693.26666259765625 136.323013305664062 0
704 138.633575439453125 150 693.26666259765625 136.323013305664062 0
644 138.633575439453125 0 632.26666259765625 136.323013305664062 0
644 148.633575439453125 0 632.26666259765625 136.323013305664062 0
644 148.633575439453125 150 632.26666259765625 136.323013305664062 0
644 138.633575439453125 150 632.26666259765625 136.323013305664062 0
432 321 0 423 315.3125 0
442 321 0 423 315.3125 0
442 321 150 423 315.3125 0
432 321 150 423 315.3125 0
442.5 363 0 354 291.399993896484375 0
432.5 363 0 354 291.399993896484375 0
432.5 363 150 354 291.399993896484375 0
442.5 363 150 354 291.399993896484375 0
442.5 358 0 354 285.399993896484375 0
432.5 358 0 354 285.399993896484375 0
432.5 358 150 354 285.399993896484375 0
442.5 358 150 354 285.399993896484375 0
200 139 0 195.23809814453125 136.690475463867188 0
210 139 0 195.23809814453125 136.690475463867188 0
210 139 150 195.23809814453125 136.690475463867188 0
200 139 150 195.23809814453125 136.690475463867188 0
366 228 0 360 225.262298583984375 0
376 228 0 360 225.262298583984375 0
376 228 150 360 225.262298583984375 0
366 228 150 360 225.262298583984375 0
685 149.702072143554688 0 669.29266357421875 146.050796508789062 0
685 159.702072143554688 0 669.29266357421875 146.050796508789062 0
685 159.702072143554688 150 669.29266357421875 146.050796508789062 0
685 149.702072143554688 150 669.29266357421875 146.050796508789062 0
644 149.702072143554688 0 627.29266357421875 146.050796508789062 0
644 159.702072143554688 0 627.29266357421875 146.050796508789062 0
644 159.702072143554688 150 627.29266357421875 146.050796508789062 0
644 149.702072143554688 150 627.29266357421875 146.050796508789062 0
210 241 0 203.4375 232.46875 0
200 241 0 203.4375 232.46875 0
200 241 150 203.4375 232.46875 0
210 241 150 203.4375 232.46875 0
529.5 140 0 514.79168701171875 137.111114501953125 0
519.5 140 0 514.79168701171875 137.111114501953125 0
519.5 140 150 514.79168701171875 137.111114501953125 0
529.5 140 150 514.79168701171875 137.111114501953125 0
529.5 104 0 514.79168701171875 100.111114501953125 0
519.5 104 0 514.79168701171875 100.111114501953125 0
519.5 104 150 514.79168701171875 100.111114501953125 0
529.5 104 150 514.79168701171875 100.111114501953125 0
442.5 449 0 432.44317626953125 439.795440673828125 0
432.5 449 0 432.44317626953125 439.795440673828125 0
432.5 449 150 432.44317626953125 439.795440673828125 0
442.5 449 150 432.44317626953125 439.795440673828125 0
442.5 405 0 432.44317626953125 394.795440673828125 0
432.5 405 0 432.44317626953125 394.795440673828125 0
432.5 405 150 432.44317626953125 394.795440673828125 0
442.5 405 150 432.44317626953125 394.795440673828125 0
245.519729614257812 318 0 239.224365234375 310.846160888671875 0
235.519729614257812 318 0 239.224365234375 310.846160888671875 0
235.519729614257812 318 150 239.224365234375 310.846160888671875 0
245.519729614257812 318 150 239.224365234375 310.846160888671875 0
245.519729614257812 279 0 239.224365234375 270.846160888671875 0
235.519729614257812 279 0 239.224365234375 270.846160888671875 0
235.519729614257812 279 150 239.224365234375 270.846160888671875 0
245.519729614257812 279 150 239.224365234375 270.846160888671875 0
810.375 243 0 762.70587158203125 229.705886840820312 0
800.375 243 0 762.70587158203125 229.705886840820312 0
800.375 243 150 762.70587158203125 229.705886840820312 0
810.375 243 150 762.70587158203125 229.705886840820312 0
810.375 226 0 762.70587158203125 211.705886840820312 0
800.375 226 0 762.70587158203125 211.705886840820312 0
800.375 226 150 762.70587158203125 211.705886840820312 0
810.375 226 150 762.70587158203125 211.705886840820312 0
409.489349365234375 128 0 392.42730712890625 123.666664123535156 0
399.489349365234375 128 0 392.42730712890625 123.666664123535156 0
399.489349365234375 128 150 392.42730712890625 123.666664123535156 0
409.489349365234375 128 150 392.42730712890625 123.666664123535156 0
409.489349365234375 104 0 392.42730712890625 98.6666641235351562 0
399.489349365234375 104 0 392.42730712890625 98.6666641235351562 0
399.489349365234375 104 150 392.42730712890625 98.6666641235351562 0
409.489349365234375 104 150 392.42730712890625 98.6666641235351562 0
672 156 0 648.111083984375 150.22222900390625 0
672 166 0 648.111083984375 150.22222900390625 0
672 166 150 648.111083984375 150.22222900390625 0
672 156 150 648.111083984375 150.22222900390625 0
645 156 0 620.111083984375 150.22222900390625 0
645 166 0 620.111083984375 150.22222900390625 0
645 166 150 620.111083984375 150.22222900390625 0
645 156 150 620.111083984375 150.22222900390625 0
776 272.085723876953125 0 721.5714111328125 252.651016235351562 0
776 282.085723876953125 0 721.5714111328125 252.651016235351562 0
776 282.085723876953125 150 721.5714111328125 252.651016235351562 0
776 272.085723876953125 150 721.5714111328125 252.651016235351562 0
762 272.085723876953125 0 706.5714111328125 252.651016235351562 0
762 282.085723876953125 0 706.5714111328125 252.651016235351562 0
762 282.085723876953125 150 706.5714111328125 252.651016235351562 0
762 272.085723876953125 150 706.5714111328125 252.651016235351562 0
810 192 0 756 180.199996948242188 0
800 192 0 756 180.199996948242188 0
800 192 150 756 180.199996948242188 0
810 192 150 756 180.199996948242188 0
810 177 0 756 164.199996948242188 0
800 177 0 756 164.199996948242188 0
800 177 150 756 164.199996948242188 0
810 177 150 756 164.199996948242188 0
376.49090576171875 132 0 363.0447998046875 128.285720825195312 0
366.49090576171875 132 0 363.0447998046875 128.285720825195312 0
366.49090576171875 132 150 363.0447998046875 128.285720825195312 0
376.49090576171875 132 150 363.0447998046875 128.285720825195312 0
376.49090576171875 104 0 363.0447998046875 99.2857131958007812 0
366.49090576171875 104 0 363.0447998046875 99.2857131958007812 0
366.49090576171875 104 150 363.0447998046875 99.2857131958007812 0
376.49090576171875 104 150 363.0447998046875 99.2857131958007812 0
775 135.384613037109375 0 732.9444580078125 127.863250732421875 0
775 145.384613037109375 0 732.9444580078125 127.863250732421875 0
775 145.384613037109375 150 732.9444580078125 127.863250732421875 0
775 135.384613037109375 150 732.9444580078125 127.863250732421875 0
757 135.384613037109375 0 713.9444580078125 127.863250732421875 0
757 145.384613037109375 0 713.9444580078125 127.863250732421875 0
757 145.384613037109375 150 713.9444580078125 127.863250732421875 0
757 135.384613037109375 150 713.9444580078125 127.863250732421875 0
554 447 0 553.2066650390625 445.55303955078125 0
554 457 0 553.2066650390625 445.55303955078125 0
554 457 150 553.2066650390625 445.55303955078125 0
554 447 150 553.2066650390625 445.55303955078125 0
245.499420166015625 419.07574462890625 0 236.723968505859375 403.07000732421875 0
235.500579833984375 418.92425537109375 0 236.723968505859375 403.07000732421875 0
235.500579833984375 418.92425537109375 150 236.723968505859375 403.07000732421875 0
245.499420166015625 419.07574462890625 150 236.723968505859375 403.07000732421875 0
649.41851806640625 291.029083251953125 0 640.9873046875 286.248138427734375 0
639.418701171875 290.970916748046875 0 640.9873046875 286.248138427734375 0
639.418701171875 290.970916748046875 150 640.9873046875 286.248138427734375 0
649.41851806640625 291.029083251953125 150 640.9873046875 286.248138427734375 0
770 128 0 764.5294189453125 126.924369812011719 0
770 138 0 764.5294189453125 126.924369812011719 0
770 138 150 764.5294189453125 126.924369812011719 0
770 128 150 764.5294189453125 126.924369812011719 0
509 449 0 503.406585693359375 445.065948486328125 0
499 449 0 503.406585693359375 445.065948486328125 0
499 449 150 503.406585693359375 445.065948486328125 0
509 449 150 503.406585693359375 445.065948486328125 0
438 358 0 430.83099365234375 352.957733154296875 0
438 368 0 430.83099365234375 352.957733154296875 0
438 368 150 430.83099365234375 352.957733154296875 0
438 358 150 430.83099365234375 352.957733154296875 0
529.49859619140625 150.1190185546875 0 509.06524658203125 143.3194580078125 0
519.50140380859375 149.8809814453125 0 509.06524658203125 143.3194580078125 0
519.50140380859375 149.8809814453125 150 509.06524658203125 143.3194580078125 0
529.49859619140625 150.1190185546875 150 509.06524658203125 143.3194580078125 0
447.994873046875 166.07769775390625 0 441.464447021484375 164.028518676757812 0
448.005126953125 176.07769775390625 0 441.464447021484375 164.028518676757812 0
448.005126953125 176.07769775390625 150 441.464447021484375 164.028518676757812 0
447.994873046875 166.07769775390625 150 441.464447021484375 164.028518676757812 0
651 97 0 0 0 -1
641 107 0 0 0 -1
210 107 0 0 0 -1
200 97 0 0 0 -1
651 97 150 0 0 1
641 107 150 0 0 1
210 107 150 0 0 1
200 97 150 0 0 1
641 107 0 0 0 -1
651 97 0 0 0 -1
651 128 0 0 0 -1
641 138 0 0 0 -1
641 107 150 0 0 1
651 97 150 0 0 1
651 128 150 0 0 1
641 138 150 0 0 1
200 97 0 0 0 -1
210 107 0 0 0 -1
210 139 0 0 0 -1
200 139 0 0 0 -1
200 97 150 0 0 1
210 107 150 0 0 1
210 139 150 0 0 1
200 139 150 0 0 1
394 273 0 0 0 -1
394 283 0 0 0 -1
200 283 0 0 0 -1
210 273 0 0 0 -1
394 273 150 0 0 1
394 283 150 0 0 1
200 283 150 0 0 1
210 273 150 0 0 1
210 273 0 0 0 -1
200 283 0 0 0 -1
200 241 0 0 0 -1
210 241 0 0 0 -1
210 273 150 0 0 1
200 283 150 0 0 1
200 241 150 0 0 1
210 241 150 0 0 1
773 282 0 0 0 -1
773 292 0 0 0 -1
567 292 0 0 0 -1
557 282 0 0 0 -1
773 282 150 0 0 1
773 292 150 0 0 1
567 292 150 0 0 1
557 282 150 0 0 1
557 282 0 0 0 -1
567 292 0 0 0 -1
567 315 0 0 0 -1
557 305 0 0 0 -1
557 282 150 0 0 1
567 292 150 0 0 1
567 315 150 0 0 1
557 305 150 0 0 1
501 273 0 0 0 -1
491 283 0 0 0 -1
442 283 0 0 0 -1
432 273 0 0 0 -1
501 273 150 0 0 1
491 283 150 0 0 1
442 283 150 0 0 1
432 273 150 0 0 1
491 283 0 0 0 -1
501 273 0 0 0 -1
501 305 0 0 0 -1
491 315 0 0 0 -1
491 283 150 0 0 1
501 273 150 0 0 1
501 305 150 0 0 1
491 315 150 0 0 1
432 273 0 0 0 -1
442 283 0 0 0 -1
442 321 0 0 0 -1
432 321 0 0 0 -1
432 273 150 0 0 1
442 283 150 0 0 1
442 321 150 0 0 1
432 321 150 0 0 1
494.928924560546875 223 0 0 0 -1
499.071075439453125 233 0 0 0 -1
372 233 0 0 0 -1
372 223 0 0 0 -1
494.928924560546875 223 150 0 0 1
499.071075439453125 233 150 0 0 1
372 233 150 0 0 1
372 223 150 0 0 1
499.071075439453125 233 0 0 0 -1
494.928924560546875 223 0 0 0 -1
519 198.928924560546875 0 0 0 -1
529 203.071075439453125 0 0 0 -1
499.071075439453125 233 150 0 0 1
494.928924560546875 223 150 0 0 1
519 198.928924560546875 150 0 0 1
529 203.071075439453125 150 0 0 1
411 167 0 0 0 -1
411 177 0 0 0 -1
376 177 0 0 0 -1
366 167 0 0 0 -1
411 167 150 0 0 1
411 177 150 0 0 1
376 177 150 0 0 1
366 167 150 0 0 1
366 167 0 0 0 -1
376 177 0 0 0 -1
376 228 0 0 0 -1
366 228 0 0 0 -1
366 167 150 0 0 1
376 177 150 0 0 1
376 228 150 0 0 1
366 228 150 0 0 1
560 452 0 0 0 -1
550 452 0 0 0 -1
550 358 0 0 0 -1
560 368 0 0 0 -1
560 452 150 0 0 1
550 452 150 0 0 1
550 358 150 0 0 1
560 368 150 0 0 1
560 368 0 0 0 -1
550 358 0 0 0 -1
639.02899169921875 358 0 0 0 -1
648.97100830078125 368 0 0 0 -1
560 368 150 0 0 1
550 358 150 0 0 1
639.02899169921875 358 150 0 0 1
648.97100830078125 368 150 0 0 1
704 138.633575439453125 0 0 0 -1
704 148.633575439453125 0 0 0 -1
644 148.633575439453125 0 0 0 -1
644 138.633575439453125 0 0 0 -1
704 138.633575439453125 150 0 0 1
704 148.633575439453125 150 0 0 1
644 148.633575439453125 150 0 0 1
644 138.633575439453125 150 0 0 1
442.5 363 0 0 0 -1
432.5 363 0 0 0 -1
432.5 358 0 0 0 -1
442.5 358 0 0 0 -1
442.5 363 150 0 0 1
432.5 363 150 0 0 1
432.5 358 150 0 0 1
442.5 358 150 0 0 1
685 149.702072143554688 0 0 0 -1
685 159.702072143554688 0 0 0 -1
644 159.702072143554688 0 0 0 -1
644 149.702072143554688 0 0 0 -1
685 149.702072143554688 150 0 0 1
685 159.702072143554688 150 0 0 1
644 159.702072143554688 150 0 0 1
644 149.702072143554688 150 0 0 1
529.5 140 0 0 0 -1
519.5 140 0 0 0 -1
519.5 104 0 0 0 -1
529.5 104 0 0 0 -1
529.5 140 150 0 0 1
519.5 140 150 0 0 1
519.5 104 150 0 0 1
529.5 104 150 0 0 1
529 203.071075439453125 0 0 0 -1
519 198.928924560546875 0 0 0 -1
519 170.94049072265625 0 0 0 -1
529 165.994888305664062 0 0 0 -1
529 203.071075439453125 150 0 0 1
519 198.928924560546875 150 0 0 1
519 170.94049072265625 150 0 0 1
529 165.994888305664062 150 0 0 1
442.5 449 0 0 0 -1
432.5 449 0 0 0 -1
432.5 405 0 0 0 -1
442.5 405 0 0 0 -1
442.5 449 150 0 0 1
432.5 449 150 0 0 1
432.5 405 150 0 0 1
442.5 405 150 0 0 1
245.519729614257812 318 0 0 0 -1
235.519729614257812 318 0 0 0 -1
235.519729614257812 279 0 0 0 -1
245.519729614257812 279 0 0 0 -1
245.519729614257812 318 150 0 0 1
235.519729614257812 318 150 0 0 1
235.519729614257812 279 150 0 0 1
245.519729614257812 279 150 0 0 1
810.375 243 0 0 0 -1
800.375 243 0 0 0 -1
800.375 226 0 0 0 -1
810.375 226 0 0 0 -1
810.375 243 150 0 0 1
800.375 243 150 0 0 1
800.375 226 150 0 0 1
810.375 226 150 0 0 1
409.489349365234375 128 0 0 0 -1
399.489349365234375 128 0 0 0 -1
399.489349365234375 104 0 0 0 -1
409.489349365234375 104 0 0 0 -1
409.489349365234375 128 150 0 0 1
399.489349365234375 128 150 0 0 1
399.489349365234375 104 150 0 0 1
409.489349365234375 104 150 0 0 1
672 156 0 0 0 -1
672 166 0 0 0 -1
645 166 0 0 0 -1
645 156 0 0 0 -1
672 156 150 0 0 1
672 166 150 0 0 1
645 166 150 0 0 1
645 156 150 0 0 1
776 272.085723876953125 0 0 0 -1
776 282.085723876953125 0 0 0 -1
762 282.085723876953125 0 0 0 -1
762 272.085723876953125 0 0 0 -1
776 272.085723876953125 150 0 0 1
776 282.085723876953125 150 0 0 1
762 282.085723876953125 150 0 0 1
762 272.085723876953125 150 0 0 1
810 192 0 0 0 -1
800 192 0 0 0 -1
800 177 0 0 0 -1
810 177 0 0 0 -1
810 192 150 0 0 1
800 192 150 0 0 1
800 177 150 0 0 1
810 177 150 0 0 1
376.49090576171875 132 0 0 0 -1
366.49090576171875 132 0 0 0 -1
366.49090576171875 104 0 0 0 -1
376.49090576171875 104 0 0 0 -1
376.49090576171875 132 150 0 0 1
366.49090576171875 132 150 0 0 1
366.49090576171875 104 150 0 0 1
376.49090576171875 104 150 0 0 1
775 135.384613037109375 0 0 0 -1
775 145.384613037109375 0 0 0 -1
757 145.384613037109375 0 0 0 -1
757 135.384613037109375 0 0 0 -1
775 135.384613037109375 150 0 0 1
775 145.384613037109375 150 0 0 1
757 145.384613037109375 150 0 0 1
757 135.384613037109375 150 0 0 1
554 447 0 0 0 -1
554 457 0 0 0 -1
234.923675537109375 457 0 0 0 -1
245.076324462890625 447 0 0 0 -1
554 447 150 0 0 1
554 457 150 0 0 1
234.923675537109375 457 150 0 0 1
245.076324462890625 447 150 0 0 1
245.076324462890625 447 0 0 0 -1
234.923675537109375 457 0 0 0 -1
235.500579833984375 418.92425537109375 0 0 0 -1
245.499420166015625 419.07574462890625 0 0 0 -1
245.076324462890625 447 150 0 0 1
234.923675537109375 457 150 0 0 1
235.500579833984375 418.92425537109375 150 0 0 1
245.499420166015625 419.07574462890625 150 0 0 1
648.97100830078125 368 0 0 0 -1
639.02899169921875 358 0 0 0 -1
639.418701171875 290.970916748046875 0 0 0 -1
649.41851806640625 291.029083251953125 0 0 0 -1
648.97100830078125 368 150 0 0 1
639.02899169921875 358 150 0 0 1
639.418701171875 290.970916748046875 150 0 0 1
649.41851806640625 291.029083251953125 150 0 0 1
491 315 0 0 0 -1
501 305 0 0 0 -1
557 305 0 0 0 -1
567 315 0 0 0 -1
491 315 150 0 0 1
501 305 150 0 0 1
557 305 150 0 0 1
567 315 150 0 0 1
770 128 0 0 0 -1
770 138 0 0 0 -1
641 138 0 0 0 -1
651 128 0 0 0 -1
770 128 150 0 0 1
770 138 150 0 0 1
641 138 150 0 0 1
651 128 150 0 0 1
528.88250732421875 175.995010375976562 0 0 0 -1
519 170.94049072265625 0 0 0 -1
519.50140380859375 149.8809814453125 0 0 0 -1
529.49859619140625 150.1190185546875 0 0 0 -1
528.88250732421875 175.995010375976562 150 0 0 1
519 170.94049072265625 150 0 0 1
519.50140380859375 149.8809814453125 150 0 0 1
529.49859619140625 150.1190185546875 150 0 0 1
529 165.994888305664062 0 0 0 -1
528.88250732421875 175.995010375976562 0 0 0 -1
448.005126953125 176.07769775390625 0 0 0 -1
447.994873046875 166.07769775390625 0 0 0 -1
529 165.994888305664062 150 0 0 1
528.88250732421875 175.995010375976562 150 0 0 1
448.005126953125 176.07769775390625 150 0 0 1
447.994873046875 166.07769775390625 150 0 0 1
509 449 0 0 0 -1
499 449 0 0 0 -1
499 368 0 0 0 -1
509 358 0 0 0 -1
509 449 150 0 0 1
499 449 150 0 0 1
499 368 150 0 0 1
509 358 150 0 0 1
509 358 0 0 0 -1
499 368 0 0 0 -1
438 368 0 0 0 -1
438 358 0 0 0 -1
509 358 150 0 0 1
499 368 150 0 0 1
438 368 150 0 0 1
438 358 150 0 0 1
519 170.94049072265625 0 0 0 -1
528.88250732421875 175.995010375976562 0 0 0 -1
529 165.994888305664062 0 0 0 -1
519 170.94049072265625 150 0 0 1
528.88250732421875 175.995010375976562 150 0 0 1
529 165.994888305664062 150 0 0 1
4 0 1 2 3
4 4 5 6 7
4 8 9 10 11
4 12 13 14 15
4 16 17 18 19
4 20 21 22 23
4 24 25 26 27
4 28 29 30 31
4 32 33 34 35
4 36 37 38 39
4 40 41 42 43
4 44 45 46 47
4 48 49 50 51
4 52 53 54 55
4 56 57 58 59
4 60 61 62 63
4 64 65 66 67
4 68 69 70 71
4 72 73 74 75
4 76 77 78 79
4 80 81 82 83
4 84 85 86 87
4 88 89 90 91
4 92 93 94 95
4 96 97 98 99
4 100 101 102 103
4 104 105 106 107
4 108 109 110 111
4 112 113 114 115
4 116 117 118 119
4 120 121 122 123
4 124 125 126 127
4 128 129 130 131
4 132 133 134 135
4 136 137 138 139
4 140 141 142 143
4 144 145 146 147
4 148 149 150 151
4 152 153 154 155
4 156 157 158 159
4 160 161 162 163
4 164 165 166 167
4 168 169 170 171
4 172 173 174 175
4 176 177 178 179
4 180 181 182 183
4 184 185 186 187
4 188 189 190 191
4 192 193 194 195
4 196 197 198 199
4 200 201 202 203
4 204 205 206 207
4 208 209 210 211
4 212 213 214 215
4 216 217 218 219
4 220 221 222 223
4 224 225 226 227
4 228 229 230 231
4 232 233 234 235
4 236 237 238 239
4 240 241 242 243
4 244 245 246 247
4 248 249 250 251
4 252 253 254 255
4 256 257 258 259
4 260 261 262 263
4 264 265 266 267
4 268 269 270 271
4 272 273 274 275
4 276 277 278 279
4 280 281 282 283
4 284 285 286 287
4 288 289 290 291
4 292 293 294 295
4 296 297 298 299
4 300 301 302 303
4 304 305 306 307
4 308 309 310 311
4 312 313 314 315
4 316 317 318 319
4 320 321 322 323
4 324 325 326 327
4 328 329 330 331
4 332 333 334 335
4 336 337 338 339
4 340 341 342 343
4 344 345 346 347
4 348 349 350 351
4 352 353 354 355
4 356 357 358 359
4 360 361 362 363
4 364 365 366 367
4 368 369 370 371
4 372 373 374 375
4 376 377 378 379
4 380 381 382 383
4 384 385 386 387
4 388 389 390 391
4 392 393 394 395
4 396 397 398 399
4 400 401 402 403
4 404 405 406 407
4 408 409 410 411
4 412 413 414 415
4 416 417 418 419
4 420 421 422 423
4 424 425 426 427
4 428 429 430 431
4 432 433 434 435
4 436 437 438 439
4 440 441 442 443
4 444 445 446 447
4 448 449 450 451
4 452 453 454 455
4 456 457 458 459
4 460 461 462 463
4 464 465 466 467
4 468 469 470 471
4 472 473 474 475
4 476 477 478 479
4 480 481 482 483
4 484 485 486 487
4 488 489 490 491
4 492 493 494 495
4 496 497 498 499
4 500 501 502 503
4 504 505 506 507
4 508 509 510 511
4 512 513 514 515
4 516 517 518 519
4 520 521 522 523
4 524 525 526 527
4 528 529 530 531
4 532 533 534 535
4 536 537 538 539
4 540 541 542 543
4 544 545 546 547
4 548 549 550 551
4 552 553 554 555
4 556 557 558 559
4 560 561 562 563
4 564 565 566 567
4 568 569 570 571
4 572 573 574 575
4 576 577 578 579
4 580 581 582 583
4 584 585 586 587
4 588 589 590 591
4 592 593 594 595
4 596 597 598 599
4 600 601 602 603
4 604 605 606 607
4 608 609 610 611
4 612 613 614 615
4 616 617 618 619
4 620 621 622 623
4 624 625 626 627
4 628 629 630 631
4 632 633 634 635
4 636 637 638 639
4 640 641 642 643
4 644 645 646 647
4 648 649 650 651
4 652 653 654 655
4 656 657 658 659
4 660 661 662 663
4 664 665 666 667
4 668 669 670 671
4 672 673 674 675
4 676 677 678 679
4 680 681 682 683
4 684 685 686 687
4 688 689 690 691
4 692 693 694 695
4 696 697 698 699
4 700 701 702 703
4 704 705 706 707
4 708 709 710 711
4 712 713 714 715
4 716 717 718 719
4 720 721 722 723
4 724 725 726 727
4 728 729 730 731
4 732 733 734 735
4 736 737 738 739
4 740 741 742 743
4 744 745 746 747
4 748 749 750 751
4 752 753 754 755
4 756 757 758 759
4 760 761 762 763
4 764 765 766 767
4 768 769 770 771
4 772 773 774 775
4 776 777 778 779
4 780 781 782 783
4 784 785 786 787
4 788 789 790 791
4 792 793 794 795
3 796 797 798
3 799 800 801
