ply
format ascii 1.0
element vertex 296
property float x
property float y
property float z
property float nx
property float ny
property float nz
element quads 74
property list uchar int vertex_indices
end_header
546.25 502.25 0 1 0 0
546.25 341 0 1 0 0
546.25 341 100 1 0 0
546.25 502.25 100 1 0 0
545.75 501.75 0 -1 -0 0
545.75 341 0 -1 -0 0
545.75 341 100 -1 -0 0
545.75 501.75 100 -1 -0 0
545.75 501.75 0 -0 -1 0
449.25 501.75 0 -0 -1 0
449.25 501.75 100 -0 -1 0
545.75 501.75 100 -0 -1 0
546.25 502.25 0 0 1 0
448.75 502.25 0 0 1 0
448.75 502.25 100 0 1 0
546.25 502.25 100 0 1 0
392.25 118 0 1 0 0
392.25 10.25 0 1 0 0
392.25 10.25 100 1 0 0
392.25 118 100 1 0 0
391.75 118 0 -1 -0 0
391.75 9.75 0 -1 -0 0
391.75 9.75 100 -1 -0 0
391.75 118 100 -1 -0 0
392.25 10.25 0 -0 1 0
500.75 10.25 0 -0 1 0
500.75 10.25 100 -0 1 0
392.25 10.25 100 -0 1 0
391.75 9.75 0 0 -1 0
501.25 9.75 0 0 -1 0
501.25 9.75 100 0 -1 0
391.75 9.75 100 0 -1 0
449.25 501.75 0 1 0 0
449.25 341 0 1 0 0
449.25 341 100 1 0 0
449.25 501.75 100 1 0 0
448.75 502.25 0 -1 -0 0
448.75 341 0 -1 -0 0
448.75 341 100 -1 -0 0
448.75 502.25 100 -1 -0 0
349.25 351 0 1 0 0
349.25 321 0 1 0 0
349.25 321 100 1 0 0
349.25 351 100 1 0 0
348.75 351 0 -1 -0 0
348.75 321 0 -1 -0 0
348.75 321 100 -1 -0 0
348.75 351 100 -1 -0 0
449.25 181 0 1 0 0
449.25 158 0 1 0 0
449.25 158 100 1 0 0
449.25 181 100 1 0 0
448.75 181 0 -1 -0 0
448.75 158 0 -1 -0 0
448.75 158 100 -1 -0 0
448.75 181 100 -1 -0 0
343 443.25 0 -0 1 0
408 443.25 0 -0 1 0
408 443.25 100 -0 1 0
343 443.25 100 -0 1 0
343 442.75 0 0 -1 0
408 442.75 0 0 -1 0
408 442.75 100 0 -1 0
343 442.75 100 0 -1 0
500.75 10.25 0 -1 0 0
500.75 286.25 0 -1 0 0
500.75 286.25 100 -1 0 0
500.75 10.25 100 -1 0 0
501.25 9.75 0 1 -0 0
501.25 285.75 0 1 -0 0
501.25 285.75 100 1 -0 0
501.25 9.75 100 1 -0 0
513 342.25 0 -0 1 0
575 342.25 0 -0 1 0
575 342.25 100 -0 1 0
513 342.25 100 -0 1 0
513 341.75 0 0 -1 0
575 341.75 0 0 -1 0
575 341.75 100 0 -1 0
513 341.75 100 0 -1 0
500.75 286.25 0 -0 1 0
575 286.25 0 -0 1 0
575 286.25 100 -0 1 0
500.75 286.25 100 -0 1 0
501.25 285.75 0 0 -1 0
575 285.75 0 0 -1 0
575 285.75 100 0 -1 0
501.25 285.75 100 0 -1 0
257.75 320 0 -1 0 0
257.75 401 0 -1 0 0
257.75 401 100 -1 0 0
257.75 320 100 -1 0 0
258.25 320 0 1 -0 0
258.25 401 0 1 -0 0
258.25 401 100 1 -0 0
258.25 320 100 1 -0 0
408.75 204 0 -1 0 0
408.75 452 0 -1 0 0
408.75 452 100 -1 0 0
408.75 204 100 -1 0 0
409.25 204 0 1 -0 0
409.25 452 0 1 -0 0
409.25 452 100 1 -0 0
409.25 204 100 1 -0 0
281.75 73 0 -1 0 0
281.75 322 0 -1 0 0
281.75 322 100 -1 0 0
281.75 73 100 -1 0 0
282.25 73 0 1 -0 0
282.25 322 0 1 -0 0
282.25 322 100 1 -0 0
282.25 73 100 1 -0 0
546.25 341 0 542.8624267578125 337.885284423828125 0
545.75 341 0 542.8624267578125 337.885284423828125 0
545.75 341 100 542.8624267578125 337.885284423828125 0
546.25 341 100 542.8624267578125 337.885284423828125 0
392.25 118 0 388.609619140625 117.904869079589844 0
391.75 118 0 388.609619140625 117.904869079589844 0
391.75 118 100 388.609619140625 117.904869079589844 0
392.25 118 100 388.609619140625 117.904869079589844 0
349.25 351 0 337.60833740234375 340.29998779296875 0
348.75 351 0 337.60833740234375 340.29998779296875 0
348.75 351 100 337.60833740234375 340.29998779296875 0
349.25 351 100 337.60833740234375 340.29998779296875 0
349.25 321 0 337.60833740234375 309.29998779296875 0
348.75 321 0 337.60833740234375 309.29998779296875 0
348.75 321 100 337.60833740234375 309.29998779296875 0
349.25 321 100 337.60833740234375 309.29998779296875 0
449.25 181 0 429.717376708984375 174.13043212890625 0
448.75 181 0 429.717376708984375 174.13043212890625 0
448.75 181 100 429.717376708984375 174.13043212890625 0
449.25 181 100 429.717376708984375 174.13043212890625 0
449.25 158 0 429.717376708984375 150.13043212890625 0
448.75 158 0 429.717376708984375 150.13043212890625 0
448.75 158 100 429.717376708984375 150.13043212890625 0
449.25 158 100 429.717376708984375 150.13043212890625 0
343 443.25 0 336.72308349609375 436.430755615234375 0
343 442.75 0 336.72308349609375 436.430755615234375 0
343 442.75 100 336.72308349609375 436.430755615234375 0
343 443.25 100 336.72308349609375 436.430755615234375 0
408 443.25 0 402.72308349609375 436.430755615234375 0
408 442.75 0 402.72308349609375 436.430755615234375 0
408 442.75 100 402.72308349609375 436.430755615234375 0
408 443.25 100 402.72308349609375 436.430755615234375 0
513 342.25 0 503.725799560546875 336.729827880859375 0
513 341.75 0 503.725799560546875 336.729827880859375 0
513 341.75 100 503.725799560546875 336.729827880859375 0
513 342.25 100 503.725799560546875 336.729827880859375 0
575 342.25 0 566.725830078125 336.729827880859375 0
575 341.75 0 566.725830078125 336.729827880859375 0
575 341.75 100 566.725830078125 336.729827880859375 0
575 342.25 100 566.725830078125 336.729827880859375 0
257.75 320 0 254.567901611328125 315.04937744140625 0
258.25 320 0 254.567901611328125 315.04937744140625 0
258.25 320 100 254.567901611328125 315.04937744140625 0
257.75 320 100 254.567901611328125 315.04937744140625 0
257.75 401 0 254.567901611328125 397.04937744140625 0
258.25 401 0 254.567901611328125 397.04937744140625 0
258.25 401 100 254.567901611328125 397.04937744140625 0
257.75 401 100 254.567901611328125 397.04937744140625 0
575 286.25 0 568.25592041015625 282.394775390625 0
575 285.75 0 568.25592041015625 282.394775390625 0
575 285.75 100 568.25592041015625 282.394775390625 0
575 286.25 100 568.25592041015625 282.394775390625 0
449.25 341 0 446.455291748046875 337.878692626953125 0
448.75 341 0 446.455291748046875 337.878692626953125 0
448.75 341 100 446.455291748046875 337.878692626953125 0
449.25 341 100 446.455291748046875 337.878692626953125 0
408.75 204 0 407.101806640625 202.177413940429688 0
409.25 204 0 407.101806640625 202.177413940429688 0
409.25 204 100 407.101806640625 202.177413940429688 0
408.75 204 100 407.101806640625 202.177413940429688 0
408.75 452 0 407.101806640625 451.17742919921875 0
409.25 452 0 407.101806640625 451.17742919921875 0
409.25 452 100 407.101806640625 451.17742919921875 0
408.75 452 100 407.101806640625 451.17742919921875 0
281.75 73 0 280.61846923828125 71.7068252563476562 0
282.25 73 0 280.61846923828125 71.7068252563476562 0
282.25 73 100 280.61846923828125 71.7068252563476562 0
281.75 73 100 280.61846923828125 71.7068252563476562 0
281.75 322 0 280.61846923828125 321.706817626953125 0
282.25 322 0 280.61846923828125 321.706817626953125 0
282.25 322 100 280.61846923828125 321.706817626953125 0
281.75 322 100 280.61846923828125 321.706817626953125 0
546.25 502.25 0 0 0 -1
545.75 501.75 0 0 0 -1
545.75 341 0 0 0 -1
546.25 341 0 0 0 -1
546.25 502.25 100 0 0 1
545.75 501.75 100 0 0 1
545.75 341 100 0 0 1
546.25 341 100 0 0 1
545.75 501.75 0 0 0 -1
546.25 502.25 0 0 0 -1
448.75 502.25 0 0 0 -1
449.25 501.75 0 0 0 -1
545.75 501.75 100 0 0 1
546.25 502.25 100 0 0 1
448.75 502.25 100 0 0 1
449.25 501.75 100 0 0 1
392.25 118 0 0 0 -1
391.75 118 0 0 0 -1
391.75 9.75 0 0 0 -1
392.25 10.25 0 0 0 -1
392.25 118 100 0 0 1
391.75 118 100 0 0 1
391.75 9.75 100 0 0 1
392.25 10.25 100 0 0 1
392.25 10.25 0 0 0 -1
391.75 9.75 0 0 0 -1
501.25 9.75 0 0 0 -1
500.75 10.25 0 0 0 -1
392.25 10.25 100 0 0 1
391.75 9.75 100 0 0 1
501.25 9.75 100 0 0 1
500.75 10.25 100 0 0 1
449.25 501.75 0 0 0 -1
448.75 502.25 0 0 0 -1
448.75 341 0 0 0 -1
449.25 341 0 0 0 -1
449.25 501.75 100 0 0 1
448.75 502.25 100 0 0 1
448.75 341 100 0 0 1
449.25 341 100 0 0 1
349.25 351 0 0 0 -1
348.75 351 0 0 0 -1
348.75 321 0 0 0 -1
349.25 321 0 0 0 -1
349.25 351 100 0 0 1
348.75 351 100 0 0 1
348.75 321 100 0 0 1
349.25 321 100 0 0 1
449.25 181 0 0 0 -1
448.75 181 0 0 0 -1
448.75 158 0 0 0 -1
449.25 158 0 0 0 -1
449.25 181 100 0 0 1
448.75 181 100 0 0 1
448.75 158 100 0 0 1
449.25 158 100 0 0 1
343 443.25 0 0 0 -1
343 442.75 0 0 0 -1
408 442.75 0 0 0 -1
408 443.25 0 0 0 -1
343 443.25 100 0 0 1
343 442.75 100 0 0 1
408 442.75 100 0 0 1
408 443.25 100 0 0 1
500.75 10.25 0 0 0 -1
501.25 9.75 0 0 0 -1
501.25 285.75 0 0 0 -1
500.75 286.25 0 0 0 -1
500.75 10.25 100 0 0 1
501.25 9.75 100 0 0 1
501.25 285.75 100 0 0 1
500.75 286.25 100 0 0 1
513 342.25 0 0 0 -1
513 341.75 0 0 0 -1
575 341.75 0 0 0 -1
575 342.25 0 0 0 -1
513 342.25 100 0 0 1
513 341.75 100 0 0 1
575 341.75 100 0 0 1
575 342.25 100 0 0 1
500.75 286.25 0 0 0 -1
501.25 285.75 0 0 0 -1
575 285.75 0 0 0 -1
575 286.25 0 0 0 -1
500.75 286.25 100 0 0 1
501.25 285.75 100 0 0 1
575 285.75 100 0 0 1
575 286.25 100 0 0 1
257.75 320 0 0 0 -1
258.25 320 0 0 0 -1
258.25 401 0 0 0 -1
257.75 401 0 0 0 -1
257.75 320 100 0 0 1
258.25 320 100 0 0 1
258.25 401 100 0 0 1
257.75 401 100 0 0 1
408.75 204 0 0 0 -1
409.25 204 0 0 0 -1
409.25 452 0 0 0 -1
408.75 452 0 0 0 -1
408.75 204 100 0 0 1
409.25 204 100 0 0 1
409.25 452 100 0 0 1
408.75 452 100 0 0 1
281.75 73 0 0 0 -1
282.25 73 0 0 0 -1
282.25 322 0 0 0 -1
281.75 322 0 0 0 -1
281.75 73 100 0 0 1
282.25 73 100 0 0 1
282.25 322 100 0 0 1
281.75 322 100 0 0 1
4 0 1 2 3
4 4 5 6 7
4 8 9 10 11
4 12 13 14 15
4 16 17 18 19
4 20 21 22 23
4 24 25 26 27
4 28 29 30 31
4 32 33 34 35
4 36 37 38 39
4 40 41 42 43
4 44 45 46 47
4 48 49 50 51
4 52 53 54 55
4 56 57 58 59
4 60 61 62 63
4 64 65 66 67
4 68 69 70 71
4 72 73 74 75
4 76 77 78 79
4 80 81 82 83
4 84 85 86 87
4 88 89 90 91
4 92 93 94 95
4 96 97 98 99
4 100 101 102 103
4 104 105 106 107
4 108 109 110 111
4 112 113 114 115
4 116 117 118 119
4 120 121 122 123
4 124 125 126 127
4 128 129 130 131
4 132 133 134 135
4 136 137 138 139
4 140 141 142 143
4 144 145 146 147
4 148 149 150 151
4 152 153 154 155
4 156 157 158 159
4 160 161 162 163
4 164 165 166 167
4 168 169 170 171
4 172 173 174 175
4 176 177 178 179
4 180 181 182 183
4 184 185 186 187
4 188 189 190 191
4 192 193 194 195
4 196 197 198 199
4 200 201 202 203
4 204 205 206 207
4 208 209 210 211
4 212 213 214 215
4 216 217 218 219
4 220 221 222 223
4 224 225 226 227
4 228 229 230 231
4 232 233 234 235
4 236 237 238 239
4 240 241 242 243
4 244 245 246 247
4 248 249 250 251
4 252 253 254 255
4 256 257 258 259
4 260 261 262 263
4 264 265 266 267
4 268 269 270 271
4 272 273 274 275
4 276 277 278 279
4 280 281 282 283
4 284 285 286 287
4 288 289 290 291
4 292 293 294 295
