ply
format ascii 1.0
element vertex 512
property float x
property float y
property float z
property float nx
property float ny
property float nz
element quads 128
property list uchar int vertex_indices
end_header
595 537 0 1 0 0
595 393 0 1 0 0
595 393 100 1 0 0
595 537 100 1 0 0
589 531 0 -1 -0 0
589 393 0 -1 -0 0
589 393 100 -1 -0 0
589 531 100 -1 -0 0
589 531 0 -0 -1 0
545 531 0 -0 -1 0
545 531 100 -0 -1 0
589 531 100 -0 -1 0
595 537 0 0 1 0
545 537 0 0 1 0
545 537 100 0 1 0
595 537 100 0 1 0
556.17791748046875 292 0 1 0 0
556.17791748046875 254 0 1 0 0
556.17791748046875 254 100 1 0 0
556.17791748046875 292 100 1 0 0
550.17791748046875 292 0 -1 -0 0
550.17791748046875 254 0 -1 -0 0
550.17791748046875 254 100 -1 -0 0
550.17791748046875 292 100 -1 -0 0
556.17791748046875 363 0 1 0 0
556.17791748046875 351 0 1 0 0
556.17791748046875 351 100 1 0 0
556.17791748046875 363 100 1 0 0
550.17791748046875 363 0 -1 -0 0
550.17791748046875 351 0 -1 -0 0
550.17791748046875 351 100 -1 -0 0
550.17791748046875 363 100 -1 -0 0
556.17791748046875 333 0 1 0 0
556.17791748046875 311 0 1 0 0
556.17791748046875 311 100 1 0 0
556.17791748046875 333 100 1 0 0
550.17791748046875 333 0 -1 -0 0
550.17791748046875 311 0 -1 -0 0
550.17791748046875 311 100 -1 -0 0
550.17791748046875 333 100 -1 -0 0
257 264 0 1 0 0
257 206 0 1 0 0
257 206 100 1 0 0
257 264 100 1 0 0
251 264 0 -1 -0 0
251 206 0 -1 -0 0
251 206 100 -1 -0 0
251 264 100 -1 -0 0
235.71014404296875 405 0 1 0 0
235.71014404296875 347 0 1 0 0
235.71014404296875 347 100 1 0 0
235.71014404296875 405 100 1 0 0
229.71014404296875 405 0 -1 -0 0
229.71014404296875 347 0 -1 -0 0
229.71014404296875 347 100 -1 -0 0
229.71014404296875 405 100 -1 -0 0
236 330 0 1 0 0
236 293 0 1 0 0
236 293 100 1 0 0
236 330 100 1 0 0
230 330 0 -1 -0 0
230 287 0 -1 -0 0
230 287 100 -1 -0 0
230 330 100 -1 -0 0
236 293 0 -0 1 0
252 293 0 -0 1 0
252 293 100 -0 1 0
236 293 100 -0 1 0
230 287 0 0 -1 0
252 287 0 0 -1 0
252 287 100 0 -1 0
230 287 100 0 -1 0
525 531 0 -0 -1 0
478 531 0 -0 -1 0
478 531 100 -0 -1 0
525 531 100 -0 -1 0
525 537 0 0 1 0
478 537 0 0 1 0
478 537 100 0 1 0
525 537 100 0 1 0
528 327.795928955078125 0 -0 -1 0
488 327.795928955078125 0 -0 -1 0
488 327.795928955078125 100 -0 -1 0
528 327.795928955078125 100 -0 -1 0
528 333.795928955078125 0 0 1 0
488 333.795928955078125 0 0 1 0
488 333.795928955078125 100 0 1 0
528 333.795928955078125 100 0 1 0
592 389.7755126953125 0 -0 -1 0
555 389.7755126953125 0 -0 -1 0
555 389.7755126953125 100 -0 -1 0
592 389.7755126953125 100 -0 -1 0
592 395.7755126953125 0 0 1 0
555 395.7755126953125 0 0 1 0
555 395.7755126953125 100 0 1 0
592 395.7755126953125 100 0 1 0
326 389.7755126953125 0 -0 -1 0
314 389.7755126953125 0 -0 -1 0
314 389.7755126953125 100 -0 -1 0
326 389.7755126953125 100 -0 -1 0
326 395.7755126953125 0 0 1 0
314 395.7755126953125 0 0 1 0
314 395.7755126953125 100 0 1 0
326 395.7755126953125 100 0 1 0
434 403 0 -0 -1 0
424 403 0 -0 -1 0
424 403 100 -0 -1 0
434 403 100 -0 -1 0
434 409 0 0 1 0
418 409 0 0 1 0
418 409 100 0 1 0
434 409 100 0 1 0
424 403 0 1 0 0
424 377 0 1 0 0
424 377 100 1 0 0
424 403 100 1 0 0
418 409 0 -1 -0 0
418 377 0 -1 -0 0
418 377 100 -1 -0 0
418 409 100 -1 -0 0
481 428 0 1 0 0
481 407 0 1 0 0
481 407 100 1 0 0
481 428 100 1 0 0
475 428 0 -1 -0 0
475 407 0 -1 -0 0
475 407 100 -1 -0 0
475 428 100 -1 -0 0
350 220 0 -0 -1 0
340 220 0 -0 -1 0
340 220 100 -0 -1 0
350 220 100 -0 -1 0
350 226 0 0 1 0
340 226 0 0 1 0
340 226 100 0 1 0
350 226 100 0 1 0
287 403 0 1 0 0
287 382 0 1 0 0
287 382 100 1 0 0
287 403 100 1 0 0
281 403 0 -1 -0 0
281 382 0 -1 -0 0
281 382 100 -1 -0 0
281 403 100 -1 -0 0
457 222 0 1 0 0
457 208 0 1 0 0
457 208 100 1 0 0
457 222 100 1 0 0
451 222 0 -1 -0 0
451 208 0 -1 -0 0
451 208 100 -1 -0 0
451 222 100 -1 -0 0
550.177978515625 171.985580444335938 0 -0.999988436698913574 -0.00480843381956219673 0
550.014404296875 206 0 -0.999988436698913574 -0.00480843381956219673 0
550.014404296875 206 100 -0.999988436698913574 -0.00480843381956219673 0
550.177978515625 171.985580444335938 100 -0.999988436698913574 -0.00480843381956219673 0
556.1778564453125 172.014419555664062 0 0.999988436698913574 0.00480843381956219673 0
555.985595703125 212 0 0.999988436698913574 0.00480843381956219673 0
555.985595703125 212 100 0.999988436698913574 0.00480843381956219673 0
556.1778564453125 172.014419555664062 100 0.999988436698913574 0.00480843381956219673 0
550.014404296875 206 0 -0 -1 0
542 206 0 -0 -1 0
542 206 100 -0 -1 0
550.014404296875 206 100 -0 -1 0
555.985595703125 212 0 0 1 0
542 212 0 0 1 0
542 212 100 0 1 0
555.985595703125 212 100 0 1 0
363.1549072265625 395.771514892578125 0 0.0516317225992679596 0.998666167259216309 0
381 394.848907470703125 0 0.0516317225992679596 0.998666167259216309 0
381 394.848907470703125 100 0.0516317225992679596 0.998666167259216309 0
363.1549072265625 395.771514892578125 100 0.0516317225992679596 0.998666167259216309 0
362.8450927734375 389.779510498046875 0 -0.0516317225992679596 -0.998666167259216309 0
375 389.151092529296875 0 -0.0516317225992679596 -0.998666167259216309 0
375 389.151092529296875 100 -0.0516317225992679596 -0.998666167259216309 0
362.8450927734375 389.779510498046875 100 -0.0516317225992679596 -0.998666167259216309 0
381 394.848907470703125 0 1 0 0
381 376 0 1 0 0
381 376 100 1 0 0
381 394.848907470703125 100 1 0 0
375 389.151092529296875 0 -1 -0 0
375 376 0 -1 -0 0
375 376 100 -1 -0 0
375 389.151092529296875 100 -1 -0 0
595 393 0 590.8680419921875 389.270843505859375 0
589 393 0 590.8680419921875 389.270843505859375 0
589 393 100 590.8680419921875 389.270843505859375 0
595 393 100 590.8680419921875 389.270843505859375 0
556.17791748046875 292 0 541.5416259765625 285.3157958984375 0
550.17791748046875 292 0 541.5416259765625 285.3157958984375 0
550.17791748046875 292 100 541.5416259765625 285.3157958984375 0
556.17791748046875 292 100 541.5416259765625 285.3157958984375 0
556.17791748046875 254 0 541.5416259765625 246.3157958984375 0
550.17791748046875 254 0 541.5416259765625 246.3157958984375 0
550.17791748046875 254 100 541.5416259765625 246.3157958984375 0
556.17791748046875 254 100 541.5416259765625 246.3157958984375 0
556.17791748046875 363 0 509.829742431640625 333.75 0
550.17791748046875 363 0 509.829742431640625 333.75 0
550.17791748046875 363 100 509.829742431640625 333.75 0
556.17791748046875 363 100 509.829742431640625 333.75 0
556.17791748046875 351 0 509.829742431640625 320.75 0
550.17791748046875 351 0 509.829742431640625 320.75 0
550.17791748046875 351 100 509.829742431640625 320.75 0
556.17791748046875 351 100 509.829742431640625 320.75 0
556.17791748046875 333 0 530.8970947265625 318.8636474609375 0
550.17791748046875 333 0 530.8970947265625 318.8636474609375 0
550.17791748046875 333 100 530.8970947265625 318.8636474609375 0
556.17791748046875 333 100 530.8970947265625 318.8636474609375 0
556.17791748046875 311 0 530.8970947265625 295.8636474609375 0
550.17791748046875 311 0 530.8970947265625 295.8636474609375 0
550.17791748046875 311 100 530.8970947265625 295.8636474609375 0
556.17791748046875 311 100 530.8970947265625 295.8636474609375 0
257 264 0 252.5689697265625 260.448272705078125 0
251 264 0 252.5689697265625 260.448272705078125 0
251 264 100 252.5689697265625 260.448272705078125 0
257 264 100 252.5689697265625 260.448272705078125 0
257 206 0 252.5689697265625 201.448272705078125 0
251 206 0 252.5689697265625 201.448272705078125 0
251 206 100 252.5689697265625 201.448272705078125 0
257 206 100 252.5689697265625 201.448272705078125 0
235.71014404296875 405 0 231.64617919921875 399.017242431640625 0
229.71014404296875 405 0 231.64617919921875 399.017242431640625 0
229.71014404296875 405 100 231.64617919921875 399.017242431640625 0
235.71014404296875 405 100 231.64617919921875 399.017242431640625 0
235.71014404296875 347 0 231.64617919921875 340.017242431640625 0
229.71014404296875 347 0 231.64617919921875 340.017242431640625 0
229.71014404296875 347 100 231.64617919921875 340.017242431640625 0
235.71014404296875 347 100 231.64617919921875 340.017242431640625 0
236 330 0 229.621627807617188 322.081085205078125 0
230 330 0 229.621627807617188 322.081085205078125 0
230 330 100 229.621627807617188 322.081085205078125 0
236 330 100 229.621627807617188 322.081085205078125 0
525 531 0 514.82977294921875 519.7021484375 0
525 537 0 514.82977294921875 519.7021484375 0
525 537 100 514.82977294921875 519.7021484375 0
525 531 100 514.82977294921875 519.7021484375 0
478 531 0 466.82977294921875 519.7021484375 0
478 537 0 466.82977294921875 519.7021484375 0
478 537 100 466.82977294921875 519.7021484375 0
478 531 100 466.82977294921875 519.7021484375 0
545 531 0 531.6136474609375 518.93182373046875 0
545 537 0 531.6136474609375 518.93182373046875 0
545 537 100 531.6136474609375 518.93182373046875 0
545 531 100 531.6136474609375 518.93182373046875 0
528 327.795928955078125 0 515.79998779296875 319.60101318359375 0
528 333.795928955078125 0 515.79998779296875 319.60101318359375 0
528 333.795928955078125 100 515.79998779296875 319.60101318359375 0
528 327.795928955078125 100 515.79998779296875 319.60101318359375 0
488 327.795928955078125 0 474.79998779296875 319.60101318359375 0
488 333.795928955078125 0 474.79998779296875 319.60101318359375 0
488 333.795928955078125 100 474.79998779296875 319.60101318359375 0
488 327.795928955078125 100 474.79998779296875 319.60101318359375 0
592 389.7755126953125 0 577 379.24102783203125 0
592 395.7755126953125 0 577 379.24102783203125 0
592 395.7755126953125 100 577 379.24102783203125 0
592 389.7755126953125 100 577 379.24102783203125 0
555 389.7755126953125 0 539 379.24102783203125 0
555 395.7755126953125 0 539 379.24102783203125 0
555 395.7755126953125 100 539 379.24102783203125 0
555 389.7755126953125 100 539 379.24102783203125 0
326 389.7755126953125 0 299.833343505859375 357.294219970703125 0
326 395.7755126953125 0 299.833343505859375 357.294219970703125 0
326 395.7755126953125 100 299.833343505859375 357.294219970703125 0
326 389.7755126953125 100 299.833343505859375 357.294219970703125 0
314 389.7755126953125 0 286.833343505859375 357.294219970703125 0
314 395.7755126953125 0 286.833343505859375 357.294219970703125 0
314 395.7755126953125 100 286.833343505859375 357.294219970703125 0
314 389.7755126953125 100 286.833343505859375 357.294219970703125 0
434 403 0 391.600006103515625 362.70001220703125 0
434 409 0 391.600006103515625 362.70001220703125 0
434 409 100 391.600006103515625 362.70001220703125 0
434 403 100 391.600006103515625 362.70001220703125 0
424 377 0 407.69232177734375 361.5 0
418 377 0 407.69232177734375 361.5 0
418 377 100 407.69232177734375 361.5 0
424 377 100 407.69232177734375 361.5 0
481 428 0 458.095245361328125 408.619049072265625 0
475 428 0 458.095245361328125 408.619049072265625 0
475 428 100 458.095245361328125 408.619049072265625 0
481 428 100 458.095245361328125 408.619049072265625 0
481 407 0 458.095245361328125 386.619049072265625 0
475 407 0 458.095245361328125 386.619049072265625 0
475 407 100 458.095245361328125 386.619049072265625 0
481 407 100 458.095245361328125 386.619049072265625 0
350 220 0 316 198 0
350 226 0 316 198 0
350 226 100 316 198 0
350 220 100 316 198 0
340 220 0 305 198 0
340 226 0 305 198 0
340 226 100 305 198 0
340 220 100 305 198 0
287 403 0 273.333343505859375 384.80950927734375 0
281 403 0 273.333343505859375 384.80950927734375 0
281 403 100 273.333343505859375 384.80950927734375 0
287 403 100 273.333343505859375 384.80950927734375 0
287 382 0 273.333343505859375 362.80950927734375 0
281 382 0 273.333343505859375 362.80950927734375 0
281 382 100 273.333343505859375 362.80950927734375 0
287 382 100 273.333343505859375 362.80950927734375 0
252 293 0 237.25 274.6875 0
252 287 0 237.25 274.6875 0
252 287 100 237.25 274.6875 0
252 293 100 237.25 274.6875 0
457 222 0 424.357147216796875 207.142852783203125 0
451 222 0 424.357147216796875 207.142852783203125 0
451 222 100 424.357147216796875 207.142852783203125 0
457 222 100 424.357147216796875 207.142852783203125 0
457 208 0 424.357147216796875 192.142852783203125 0
451 208 0 424.357147216796875 192.142852783203125 0
451 208 100 424.357147216796875 192.142852783203125 0
457 208 100 424.357147216796875 192.142852783203125 0
550.177978515625 171.985580444335938 0 534.00811767578125 165.929397583007812 0
556.1778564453125 172.014419555664062 0 534.00811767578125 165.929397583007812 0
556.1778564453125 172.014419555664062 100 534.00811767578125 165.929397583007812 0
550.177978515625 171.985580444335938 100 534.00811767578125 165.929397583007812 0
542 206 0 473.37164306640625 180.296234130859375 0
542 212 0 473.37164306640625 180.296234130859375 0
542 212 100 473.37164306640625 180.296234130859375 0
542 206 100 473.37164306640625 180.296234130859375 0
363.1549072265625 395.771514892578125 0 341.832977294921875 373.674560546875 0
362.8450927734375 389.779510498046875 0 341.832977294921875 373.674560546875 0
362.8450927734375 389.779510498046875 100 341.832977294921875 373.674560546875 0
363.1549072265625 395.771514892578125 100 341.832977294921875 373.674560546875 0
381 376 0 360.78662109375 355.0518798828125 0
375 376 0 360.78662109375 355.0518798828125 0
375 376 100 360.78662109375 355.0518798828125 0
381 376 100 360.78662109375 355.0518798828125 0
595 537 0 0 0 -1
589 531 0 0 0 -1
589 393 0 0 0 -1
595 393 0 0 0 -1
595 537 100 0 0 1
589 531 100 0 0 1
589 393 100 0 0 1
595 393 100 0 0 1
589 531 0 0 0 -1
595 537 0 0 0 -1
545 537 0 0 0 -1
545 531 0 0 0 -1
589 531 100 0 0 1
595 537 100 0 0 1
545 537 100 0 0 1
545 531 100 0 0 1
556.17791748046875 292 0 0 0 -1
550.17791748046875 292 0 0 0 -1
550.17791748046875 254 0 0 0 -1
556.17791748046875 254 0 0 0 -1
556.17791748046875 292 100 0 0 1
550.17791748046875 292 100 0 0 1
550.17791748046875 254 100 0 0 1
556.17791748046875 254 100 0 0 1
556.17791748046875 363 0 0 0 -1
550.17791748046875 363 0 0 0 -1
550.17791748046875 351 0 0 0 -1
556.17791748046875 351 0 0 0 -1
556.17791748046875 363 100 0 0 1
550.17791748046875 363 100 0 0 1
550.17791748046875 351 100 0 0 1
556.17791748046875 351 100 0 0 1
556.17791748046875 333 0 0 0 -1
550.17791748046875 333 0 0 0 -1
550.17791748046875 311 0 0 0 -1
556.17791748046875 311 0 0 0 -1
556.17791748046875 333 100 0 0 1
550.17791748046875 333 100 0 0 1
550.17791748046875 311 100 0 0 1
556.17791748046875 311 100 0 0 1
257 264 0 0 0 -1
251 264 0 0 0 -1
251 206 0 0 0 -1
257 206 0 0 0 -1
257 264 100 0 0 1
251 264 100 0 0 1
251 206 100 0 0 1
257 206 100 0 0 1
235.71014404296875 405 0 0 0 -1
229.71014404296875 405 0 0 0 -1
229.71014404296875 347 0 0 0 -1
235.71014404296875 347 0 0 0 -1
235.71014404296875 405 100 0 0 1
229.71014404296875 405 100 0 0 1
229.71014404296875 347 100 0 0 1
235.71014404296875 347 100 0 0 1
236 330 0 0 0 -1
230 330 0 0 0 -1
230 287 0 0 0 -1
236 293 0 0 0 -1
236 330 100 0 0 1
230 330 100 0 0 1
230 287 100 0 0 1
236 293 100 0 0 1
236 293 0 0 0 -1
230 287 0 0 0 -1
252 287 0 0 0 -1
252 293 0 0 0 -1
236 293 100 0 0 1
230 287 100 0 0 1
252 287 100 0 0 1
252 293 100 0 0 1
525 531 0 0 0 -1
525 537 0 0 0 -1
478 537 0 0 0 -1
478 531 0 0 0 -1
525 531 100 0 0 1
525 537 100 0 0 1
478 537 100 0 0 1
478 531 100 0 0 1
528 327.795928955078125 0 0 0 -1
528 333.795928955078125 0 0 0 -1
488 333.795928955078125 0 0 0 -1
488 327.795928955078125 0 0 0 -1
528 327.795928955078125 100 0 0 1
528 333.795928955078125 100 0 0 1
488 333.795928955078125 100 0 0 1
488 327.795928955078125 100 0 0 1
592 389.7755126953125 0 0 0 -1
592 395.7755126953125 0 0 0 -1
555 395.7755126953125 0 0 0 -1
555 389.7755126953125 0 0 0 -1
592 389.7755126953125 100 0 0 1
592 395.7755126953125 100 0 0 1
555 395.7755126953125 100 0 0 1
555 389.7755126953125 100 0 0 1
326 389.7755126953125 0 0 0 -1
326 395.7755126953125 0 0 0 -1
314 395.7755126953125 0 0 0 -1
314 389.7755126953125 0 0 0 -1
326 389.7755126953125 100 0 0 1
326 395.7755126953125 100 0 0 1
314 395.7755126953125 100 0 0 1
314 389.7755126953125 100 0 0 1
434 403 0 0 0 -1
434 409 0 0 0 -1
418 409 0 0 0 -1
424 403 0 0 0 -1
434 403 100 0 0 1
434 409 100 0 0 1
418 409 100 0 0 1
424 403 100 0 0 1
424 403 0 0 0 -1
418 409 0 0 0 -1
418 377 0 0 0 -1
424 377 0 0 0 -1
424 403 100 0 0 1
418 409 100 0 0 1
418 377 100 0 0 1
424 377 100 0 0 1
481 428 0 0 0 -1
475 428 0 0 0 -1
475 407 0 0 0 -1
481 407 0 0 0 -1
481 428 100 0 0 1
475 428 100 0 0 1
475 407 100 0 0 1
481 407 100 0 0 1
350 220 0 0 0 -1
350 226 0 0 0 -1
340 226 0 0 0 -1
340 220 0 0 0 -1
350 220 100 0 0 1
350 226 100 0 0 1
340 226 100 0 0 1
340 220 100 0 0 1
287 403 0 0 0 -1
281 403 0 0 0 -1
281 382 0 0 0 -1
287 382 0 0 0 -1
287 403 100 0 0 1
281 403 100 0 0 1
281 382 100 0 0 1
287 382 100 0 0 1
457 222 0 0 0 -1
451 222 0 0 0 -1
451 208 0 0 0 -1
457 208 0 0 0 -1
457 222 100 0 0 1
451 222 100 0 0 1
451 208 100 0 0 1
457 208 100 0 0 1
550.177978515625 171.985580444335938 0 0 0 -1
556.1778564453125 172.014419555664062 0 0 0 -1
555.985595703125 212 0 0 0 -1
550.014404296875 206 0 0 0 -1
550.177978515625 171.985580444335938 100 0 0 1
556.1778564453125 172.014419555664062 100 0 0 1
555.985595703125 212 100 0 0 1
550.014404296875 206 100 0 0 1
550.014404296875 206 0 0 0 -1
555.985595703125 212 0 0 0 -1
542 212 0 0 0 -1
542 206 0 0 0 -1
550.014404296875 206 100 0 0 1
555.985595703125 212 100 0 0 1
542 212 100 0 0 1
542 206 100 0 0 1
363.1549072265625 395.771514892578125 0 0 0 -1
362.8450927734375 389.779510498046875 0 0 0 -1
375 389.151092529296875 0 0 0 -1
381 394.848907470703125 0 0 0 -1
363.1549072265625 395.771514892578125 100 0 0 1
362.8450927734375 389.779510498046875 100 0 0 1
375 389.151092529296875 100 0 0 1
381 394.848907470703125 100 0 0 1
381 394.848907470703125 0 0 0 -1
375 389.151092529296875 0 0 0 -1
375 376 0 0 0 -1
381 376 0 0 0 -1
381 394.848907470703125 100 0 0 1
375 389.151092529296875 100 0 0 1
375 376 100 0 0 1
381 376 100 0 0 1
4 0 1 2 3
4 4 5 6 7
4 8 9 10 11
4 12 13 14 15
4 16 17 18 19
4 20 21 22 23
4 24 25 26 27
4 28 29 30 31
4 32 33 34 35
4 36 37 38 39
4 40 41 42 43
4 44 45 46 47
4 48 49 50 51
4 52 53 54 55
4 56 57 58 59
4 60 61 62 63
4 64 65 66 67
4 68 69 70 71
4 72 73 74 75
4 76 77 78 79
4 80 81 82 83
4 84 85 86 87
4 88 89 90 91
4 92 93 94 95
4 96 97 98 99
4 100 101 102 103
4 104 105 106 107
4 108 109 110 111
4 112 113 114 115
4 116 117 118 119
4 120 121 122 123
4 124 125 126 127
4 128 129 130 131
4 132 133 134 135
4 136 137 138 139
4 140 141 142 143
4 144 145 146 147
4 148 149 150 151
4 152 153 154 155
4 156 157 158 159
4 160 161 162 163
4 164 165 166 167
4 168 169 170 171
4 172 173 174 175
4 176 177 178 179
4 180 181 182 183
4 184 185 186 187
4 188 189 190 191
4 192 193 194 195
4 196 197 198 199
4 200 201 202 203
4 204 205 206 207
4 208 209 210 211
4 212 213 214 215
4 216 217 218 219
4 220 221 222 223
4 224 225 226 227
4 228 229 230 231
4 232 233 234 235
4 236 237 238 239
4 240 241 242 243
4 244 245 246 247
4 248 249 250 251
4 252 253 254 255
4 256 257 258 259
4 260 261 262 263
4 264 265 266 267
4 268 269 270 271
4 272 273 274 275
4 276 277 278 279
4 280 281 282 283
4 284 285 286 287
4 288 289 290 291
4 292 293 294 295
4 296 297 298 299
4 300 301 302 303
4 304 305 306 307
4 308 309 310 311
4 312 313 314 315
4 316 317 318 319
4 320 321 322 323
4 324 325 326 327
4 328 329 330 331
4 332 333 334 335
4 336 337 338 339
4 340 341 342 343
4 344 345 346 347
4 348 349 350 351
4 352 353 354 355
4 356 357 358 359
4 360 361 362 363
4 364 365 366 367
4 368 369 370 371
4 372 373 374 375
4 376 377 378 379
4 380 381 382 383
4 384 385 386 387
4 388 389 390 391
4 392 393 394 395
4 396 397 398 399
4 400 401 402 403
4 404 405 406 407
4 408 409 410 411
4 412 413 414 415
4 416 417 418 419
4 420 421 422 423
4 424 425 426 427
4 428 429 430 431
4 432 433 434 435
4 436 437 438 439
4 440 441 442 443
4 444 445 446 447
4 448 449 450 451
4 452 453 454 455
4 456 457 458 459
4 460 461 462 463
4 464 465 466 467
4 468 469 470 471
4 472 473 474 475
4 476 477 478 479
4 480 481 482 483
4 484 485 486 487
4 488 489 490 491
4 492 493 494 495
4 496 497 498 499
4 500 501 502 503
4 504 505 506 507
4 508 509 510 511
