ply
format ascii 1.0
element vertex 360
property float x
property float y
property float z
property float nx
property float ny
property float nz
element quads 90
property list uchar int vertex_indices
end_header
204.25 375.75 0 1 0 0
204.25 289 0 1 0 0
204.25 289 100 1 0 0
204.25 375.75 100 1 0 0
203.75 376.25 0 -1 -0 0
203.75 289 0 -1 -0 0
203.75 289 100 -1 -0 0
203.75 376.25 100 -1 -0 0
203.75 376.25 0 -0 1 0
227 376.25 0 -0 1 0
227 376.25 100 -0 1 0
203.75 376.25 100 -0 1 0
204.25 375.75 0 0 -1 0
227 375.75 0 0 -1 0
227 375.75 100 0 -1 0
204.25 375.75 100 0 -1 0
511.25 280 0 1 0 0
511.25 207 0 1 0 0
511.25 207 100 1 0 0
511.25 280 100 1 0 0
510.75 280 0 -1 -0 0
510.75 207 0 -1 -0 0
510.75 207 100 -1 -0 0
510.75 280 100 -1 -0 0
289.75 99.25 0 -0 1 0
537.25 99.25 0 -0 1 0
537.25 99.25 100 -0 1 0
289.75 99.25 100 -0 1 0
290.25 98.75 0 0 -1 0
536.75 98.75 0 0 -1 0
536.75 98.75 100 0 -1 0
290.25 98.75 100 0 -1 0
290.25 98.75 0 1 0 0
290.25 41.75 0 1 0 0
290.25 41.75 100 1 0 0
290.25 98.75 100 1 0 0
289.75 99.25 0 -1 -0 0
289.75 42.25 0 -1 -0 0
289.75 42.25 100 -1 -0 0
289.75 99.25 100 -1 -0 0
537.25 99.25 0 1 0 0
537.25 42 0 1 0 0
537.25 42 100 1 0 0
537.25 99.25 100 1 0 0
536.75 98.75 0 -1 -0 0
536.75 42 0 -1 -0 0
536.75 42 100 -1 -0 0
536.75 98.75 100 -1 -0 0
577 513.25 0 -0 1 0
616 513.25 0 -0 1 0
616 513.25 100 -0 1 0
577 513.25 100 -0 1 0
577 512.75 0 0 -1 0
616 512.75 0 0 -1 0
616 512.75 100 0 -1 0
577 512.75 100 0 -1 0
456.75 543.25 0 -0 1 0
492 543.25 0 -0 1 0
492 543.25 100 -0 1 0
456.75 543.25 100 -0 1 0
457.25 542.75 0 0 -1 0
492 542.75 0 0 -1 0
492 542.75 100 0 -1 0
457.25 542.75 100 0 -1 0
457.25 542.75 0 1 0 0
457.25 388 0 1 0 0
457.25 388 100 1 0 0
457.25 542.75 100 1 0 0
456.75 543.25 0 -1 -0 0
456.75 388 0 -1 -0 0
456.75 388 100 -1 -0 0
456.75 543.25 100 -1 -0 0
168.75 41.75 0 -1 0 0
168.75 292 0 -1 0 0
168.75 292 100 -1 0 0
168.75 41.75 100 -1 0 0
169.25 42.25 0 1 -0 0
169.25 292 0 1 -0 0
169.25 292 100 1 -0 0
169.25 42.25 100 1 -0 0
169.25 42.25 0 -0 1 0
289.75 42.25 0 -0 1 0
289.75 42.25 100 -0 1 0
169.25 42.25 100 -0 1 0
168.75 41.75 0 0 -1 0
290.25 41.75 0 0 -1 0
290.25 41.75 100 0 -1 0
168.75 41.75 100 0 -1 0
656.75 42 0 -1 0 0
656.75 292 0 -1 0 0
656.75 292 100 -1 0 0
656.75 42 100 -1 0 0
657.25 42 0 1 -0 0
657.25 292 0 1 -0 0
657.25 292 100 1 -0 0
657.25 42 100 1 -0 0
613.75 290 0 -1 0 0
613.75 367 0 -1 0 0
613.75 367 100 -1 0 0
613.75 290 100 -1 0 0
614.25 290 0 1 -0 0
614.25 367 0 1 -0 0
614.25 367 100 1 -0 0
614.25 290 100 1 -0 0
542 543.25 0 -0 1 0
580 543.25 0 -0 1 0
580 543.25 100 -0 1 0
542 543.25 100 -0 1 0
542 542.75 0 0 -1 0
580 542.75 0 0 -1 0
580 542.75 100 0 -1 0
542 542.75 100 0 -1 0
289.75 163 0 -1 0 0
289.75 196 0 -1 0 0
289.75 196 100 -1 0 0
289.75 163 100 -1 0 0
290.25 163 0 1 -0 0
290.25 196 0 1 -0 0
290.25 196 100 1 -0 0
290.25 163 100 1 -0 0
356.75 291 0 -1 0 0
356.75 391 0 -1 0 0
356.75 391 100 -1 0 0
356.75 291 100 -1 0 0
357.25 291 0 1 -0 0
357.25 391 0 1 -0 0
357.25 391 100 1 -0 0
357.25 291 100 1 -0 0
276 376.25 0 -0 1 0
302 376.25 0 -0 1 0
302 376.25 100 -0 1 0
276 376.25 100 -0 1 0
276 375.75 0 0 -1 0
302 375.75 0 0 -1 0
302 375.75 100 0 -1 0
276 375.75 100 0 -1 0
204.25 289 0 201.895538330078125 284.6685791015625 0
203.75 289 0 201.895538330078125 284.6685791015625 0
203.75 289 100 201.895538330078125 284.6685791015625 0
204.25 289 100 201.895538330078125 284.6685791015625 0
511.25 280 0 504.24658203125 277.164398193359375 0
510.75 280 0 504.24658203125 277.164398193359375 0
510.75 280 100 504.24658203125 277.164398193359375 0
511.25 280 100 504.24658203125 277.164398193359375 0
511.25 207 0 504.24658203125 203.164382934570312 0
510.75 207 0 504.24658203125 203.164382934570312 0
510.75 207 100 504.24658203125 203.164382934570312 0
511.25 207 100 504.24658203125 203.164382934570312 0
227 376.25 0 218.236557006835938 360.06719970703125 0
227 375.75 0 218.236557006835938 360.06719970703125 0
227 375.75 100 218.236557006835938 360.06719970703125 0
227 376.25 100 218.236557006835938 360.06719970703125 0
577 513.25 0 561.20513916015625 500.089752197265625 0
577 512.75 0 561.20513916015625 500.089752197265625 0
577 512.75 100 561.20513916015625 500.089752197265625 0
577 513.25 100 561.20513916015625 500.089752197265625 0
616 513.25 0 601.20513916015625 500.089752197265625 0
616 512.75 0 601.20513916015625 500.089752197265625 0
616 512.75 100 601.20513916015625 500.089752197265625 0
616 513.25 100 601.20513916015625 500.089752197265625 0
492 543.25 0 479.04254150390625 527.838623046875 0
492 542.75 0 479.04254150390625 527.838623046875 0
492 542.75 100 479.04254150390625 527.838623046875 0
492 543.25 100 479.04254150390625 527.838623046875 0
168.75 292 0 168.075668334960938 291.833160400390625 0
169.25 292 0 168.075668334960938 291.833160400390625 0
169.25 292 100 168.075668334960938 291.833160400390625 0
168.75 292 100 168.075668334960938 291.833160400390625 0
656.75 42 0 654.12298583984375 40.832000732421875 0
657.25 42 0 654.12298583984375 40.832000732421875 0
657.25 42 100 654.12298583984375 40.832000732421875 0
656.75 42 100 654.12298583984375 40.832000732421875 0
656.75 292 0 654.12298583984375 291.832000732421875 0
657.25 292 0 654.12298583984375 291.832000732421875 0
657.25 292 100 654.12298583984375 291.832000732421875 0
656.75 292 100 654.12298583984375 291.832000732421875 0
457.25 388 0 454.29522705078125 384.49273681640625 0
456.75 388 0 454.29522705078125 384.49273681640625 0
456.75 388 100 454.29522705078125 384.49273681640625 0
457.25 388 100 454.29522705078125 384.49273681640625 0
613.75 290 0 605.77923583984375 285.2337646484375 0
614.25 290 0 605.77923583984375 285.2337646484375 0
614.25 290 100 605.77923583984375 285.2337646484375 0
613.75 290 100 605.77923583984375 285.2337646484375 0
613.75 367 0 605.77923583984375 363.2337646484375 0
614.25 367 0 605.77923583984375 363.2337646484375 0
614.25 367 100 605.77923583984375 363.2337646484375 0
613.75 367 100 605.77923583984375 363.2337646484375 0
537.25 42 0 527.86572265625 40.2663764953613281 0
536.75 42 0 527.86572265625 40.2663764953613281 0
536.75 42 100 527.86572265625 40.2663764953613281 0
537.25 42 100 527.86572265625 40.2663764953613281 0
542 543.25 0 526.73681640625 528.95391845703125 0
542 542.75 0 526.73681640625 528.95391845703125 0
542 542.75 100 526.73681640625 528.95391845703125 0
542 543.25 100 526.73681640625 528.95391845703125 0
580 543.25 0 565.73681640625 528.95391845703125 0
580 542.75 0 565.73681640625 528.95391845703125 0
580 542.75 100 565.73681640625 528.95391845703125 0
580 543.25 100 565.73681640625 528.95391845703125 0
289.75 163 0 280.969696044921875 157.06060791015625 0
290.25 163 0 280.969696044921875 157.06060791015625 0
290.25 163 100 280.969696044921875 157.06060791015625 0
289.75 163 100 280.969696044921875 157.06060791015625 0
289.75 196 0 280.969696044921875 191.06060791015625 0
290.25 196 0 280.969696044921875 191.06060791015625 0
290.25 196 100 280.969696044921875 191.06060791015625 0
289.75 196 100 280.969696044921875 191.06060791015625 0
356.75 291 0 353.1824951171875 287.089996337890625 0
357.25 291 0 353.1824951171875 287.089996337890625 0
357.25 291 100 353.1824951171875 287.089996337890625 0
356.75 291 100 353.1824951171875 287.089996337890625 0
356.75 391 0 353.1824951171875 388.089996337890625 0
357.25 391 0 353.1824951171875 388.089996337890625 0
357.25 391 100 353.1824951171875 388.089996337890625 0
356.75 391 100 353.1824951171875 388.089996337890625 0
276 376.25 0 264.384613037109375 361.778839111328125 0
276 375.75 0 264.384613037109375 361.778839111328125 0
276 375.75 100 264.384613037109375 361.778839111328125 0
276 376.25 100 264.384613037109375 361.778839111328125 0
302 376.25 0 291.384613037109375 361.778839111328125 0
302 375.75 0 291.384613037109375 361.778839111328125 0
302 375.75 100 291.384613037109375 361.778839111328125 0
302 376.25 100 291.384613037109375 361.778839111328125 0
204.25 375.75 0 0 0 -1
203.75 376.25 0 0 0 -1
203.75 289 0 0 0 -1
204.25 289 0 0 0 -1
204.25 375.75 100 0 0 1
203.75 376.25 100 0 0 1
203.75 289 100 0 0 1
204.25 289 100 0 0 1
203.75 376.25 0 0 0 -1
204.25 375.75 0 0 0 -1
227 375.75 0 0 0 -1
227 376.25 0 0 0 -1
203.75 376.25 100 0 0 1
204.25 375.75 100 0 0 1
227 375.75 100 0 0 1
227 376.25 100 0 0 1
511.25 280 0 0 0 -1
510.75 280 0 0 0 -1
510.75 207 0 0 0 -1
511.25 207 0 0 0 -1
511.25 280 100 0 0 1
510.75 280 100 0 0 1
510.75 207 100 0 0 1
511.25 207 100 0 0 1
289.75 99.25 0 0 0 -1
290.25 98.75 0 0 0 -1
536.75 98.75 0 0 0 -1
537.25 99.25 0 0 0 -1
289.75 99.25 100 0 0 1
290.25 98.75 100 0 0 1
536.75 98.75 100 0 0 1
537.25 99.25 100 0 0 1
290.25 98.75 0 0 0 -1
289.75 99.25 0 0 0 -1
289.75 42.25 0 0 0 -1
290.25 41.75 0 0 0 -1
290.25 98.75 100 0 0 1
289.75 99.25 100 0 0 1
289.75 42.25 100 0 0 1
290.25 41.75 100 0 0 1
537.25 99.25 0 0 0 -1
536.75 98.75 0 0 0 -1
536.75 42 0 0 0 -1
537.25 42 0 0 0 -1
537.25 99.25 100 0 0 1
536.75 98.75 100 0 0 1
536.75 42 100 0 0 1
537.25 42 100 0 0 1
577 513.25 0 0 0 -1
577 512.75 0 0 0 -1
616 512.75 0 0 0 -1
616 513.25 0 0 0 -1
577 513.25 100 0 0 1
577 512.75 100 0 0 1
616 512.75 100 0 0 1
616 513.25 100 0 0 1
456.75 543.25 0 0 0 -1
457.25 542.75 0 0 0 -1
492 542.75 0 0 0 -1
492 543.25 0 0 0 -1
456.75 543.25 100 0 0 1
457.25 542.75 100 0 0 1
492 542.75 100 0 0 1
492 543.25 100 0 0 1
457.25 542.75 0 0 0 -1
456.75 543.25 0 0 0 -1
456.75 388 0 0 0 -1
457.25 388 0 0 0 -1
457.25 542.75 100 0 0 1
456.75 543.25 100 0 0 1
456.75 388 100 0 0 1
457.25 388 100 0 0 1
168.75 41.75 0 0 0 -1
169.25 42.25 0 0 0 -1
169.25 292 0 0 0 -1
168.75 292 0 0 0 -1
168.75 41.75 100 0 0 1
169.25 42.25 100 0 0 1
169.25 292 100 0 0 1
168.75 292 100 0 0 1
169.25 42.25 0 0 0 -1
168.75 41.75 0 0 0 -1
290.25 41.75 0 0 0 -1
289.75 42.25 0 0 0 -1
169.25 42.25 100 0 0 1
168.75 41.75 100 0 0 1
290.25 41.75 100 0 0 1
289.75 42.25 100 0 0 1
656.75 42 0 0 0 -1
657.25 42 0 0 0 -1
657.25 292 0 0 0 -1
656.75 292 0 0 0 -1
656.75 42 100 0 0 1
657.25 42 100 0 0 1
657.25 292 100 0 0 1
656.75 292 100 0 0 1
613.75 290 0 0 0 -1
614.25 290 0 0 0 -1
614.25 367 0 0 0 -1
613.75 367 0 0 0 -1
613.75 290 100 0 0 1
614.25 290 100 0 0 1
614.25 367 100 0 0 1
613.75 367 100 0 0 1
542 543.25 0 0 0 -1
542 542.75 0 0 0 -1
580 542.75 0 0 0 -1
580 543.25 0 0 0 -1
542 543.25 100 0 0 1
542 542.75 100 0 0 1
580 542.75 100 0 0 1
580 543.25 100 0 0 1
289.75 163 0 0 0 -1
290.25 163 0 0 0 -1
290.25 196 0 0 0 -1
289.75 196 0 0 0 -1
289.75 163 100 0 0 1
290.25 163 100 0 0 1
290.25 196 100 0 0 1
289.75 196 100 0 0 1
356.75 291 0 0 0 -1
357.25 291 0 0 0 -1
357.25 391 0 0 0 -1
356.75 391 0 0 0 -1
356.75 291 100 0 0 1
357.25 291 100 0 0 1
357.25 391 100 0 0 1
356.75 391 100 0 0 1
276 376.25 0 0 0 -1
276 375.75 0 0 0 -1
302 375.75 0 0 0 -1
302 376.25 0 0 0 -1
276 376.25 100 0 0 1
276 375.75 100 0 0 1
302 375.75 100 0 0 1
302 376.25 100 0 0 1
4 0 1 2 3
4 4 5 6 7
4 8 9 10 11
4 12 13 14 15
4 16 17 18 19
4 20 21 22 23
4 24 25 26 27
4 28 29 30 31
4 32 33 34 35
4 36 37 38 39
4 40 41 42 43
4 44 45 46 47
4 48 49 50 51
4 52 53 54 55
4 56 57 58 59
4 60 61 62 63
4 64 65 66 67
4 68 69 70 71
4 72 73 74 75
4 76 77 78 79
4 80 81 82 83
4 84 85 86 87
4 88 89 90 91
4 92 93 94 95
4 96 97 98 99
4 100 101 102 103
4 104 105 106 107
4 108 109 110 111
4 112 113 114 115
4 116 117 118 119
4 120 121 122 123
4 124 125 126 127
4 128 129 130 131
4 132 133 134 135
4 136 137 138 139
4 140 141 142 143
4 144 145 146 147
4 148 149 150 151
4 152 153 154 155
4 156 157 158 159
4 160 161 162 163
4 164 165 166 167
4 168 169 170 171
4 172 173 174 175
4 176 177 178 179
4 180 181 182 183
4 184 185 186 187
4 188 189 190 191
4 192 193 194 195
4 196 197 198 199
4 200 201 202 203
4 204 205 206 207
4 208 209 210 211
4 212 213 214 215
4 216 217 218 219
4 220 221 222 223
4 224 225 226 227
4 228 229 230 231
4 232 233 234 235
4 236 237 238 239
4 240 241 242 243
4 244 245 246 247
4 248 249 250 251
4 252 253 254 255
4 256 257 258 259
4 260 261 262 263
4 264 265 266 267
4 268 269 270 271
4 272 273 274 275
4 276 277 278 279
4 280 281 282 283
4 284 285 286 287
4 288 289 290 291
4 292 293 294 295
4 296 297 298 299
4 300 301 302 303
4 304 305 306 307
4 308 309 310 311
4 312 313 314 315
4 316 317 318 319
4 320 321 322 323
4 324 325 326 327
4 328 329 330 331
4 332 333 334 335
4 336 337 338 339
4 340 341 342 343
4 344 345 346 347
4 348 349 350 351
4 352 353 354 355
4 356 357 358 359
