ply
format ascii 1.0
element vertex 760
property float x
property float y
property float z
property float nx
property float ny
property float nz
element quads 190
property list uchar int vertex_indices
end_header
171 172 0 1 0 0
171 45 0 1 0 0
171 45 100 1 0 0
171 172 100 1 0 0
165 172 0 -1 -0 0
165 39 0 -1 -0 0
165 39 100 -1 -0 0
165 172 100 -1 -0 0
171 45 0 -0 1 0
237 45 0 -0 1 0
237 45 100 -0 1 0
171 45 100 -0 1 0
165 39 0 0 -1 0
237 39 0 0 -1 0
237 39 100 0 -1 0
165 39 100 0 -1 0
459 539 0 1 0 0
459 390 0 1 0 0
459 390 100 1 0 0
459 539 100 1 0 0
453 545 0 -1 -0 0
453 390 0 -1 -0 0
453 390 100 -1 -0 0
453 545 100 -1 -0 0
453 545 0 -0 1 0
493 545 0 -0 1 0
493 545 100 -0 1 0
453 545 100 -0 1 0
459 539 0 0 -1 0
493 539 0 0 -1 0
493 539 100 0 -1 0
459 539 100 0 -1 0
562 39 0 -0 -1 0
534 39 0 -0 -1 0
534 39 100 -0 -1 0
562 39 100 -0 -1 0
562 45 0 0 1 0
540 45 0 0 1 0
540 45 100 0 1 0
562 45 100 0 1 0
534 39 0 -1 0 0
534 96.0120086669921875 0 -1 0 0
534 96.0120086669921875 100 -1 0 0
534 39 100 -1 0 0
540 45 0 1 -0 0
540 101.987991333007812 0 1 -0 0
540 101.987991333007812 100 1 -0 0
540 45 100 1 -0 0
413 96.1122817993164062 0 -0 -1 0
400 96.1122817993164062 0 -0 -1 0
400 96.1122817993164062 100 -0 -1 0
413 96.1122817993164062 100 -0 -1 0
413 102.112281799316406 0 0 1 0
400 102.112281799316406 0 0 1 0
400 102.112281799316406 100 0 1 0
413 102.112281799316406 100 0 1 0
376 96.1122817993164062 0 -0 -1 0
363 96.1122817993164062 0 -0 -1 0
363 96.1122817993164062 100 -0 -1 0
376 96.1122817993164062 100 -0 -1 0
376 102.112281799316406 0 0 1 0
363 102.112281799316406 0 0 1 0
363 102.112281799316406 100 0 1 0
376 102.112281799316406 100 0 1 0
339 96.1122817993164062 0 -0 -1 0
327 96.1122817993164062 0 -0 -1 0
327 96.1122817993164062 100 -0 -1 0
339 96.1122817993164062 100 -0 -1 0
339 102.112281799316406 0 0 1 0
327 102.112281799316406 0 0 1 0
327 102.112281799316406 100 0 1 0
339 102.112281799316406 100 0 1 0
449 96.1122817993164062 0 -0 -1 0
436 96.1122817993164062 0 -0 -1 0
436 96.1122817993164062 100 -0 -1 0
449 96.1122817993164062 100 -0 -1 0
449 102.112281799316406 0 0 1 0
436 102.112281799316406 0 0 1 0
436 102.112281799316406 100 0 1 0
449 102.112281799316406 100 0 1 0
485 96.1122817993164062 0 -0 -1 0
473 96.1122817993164062 0 -0 -1 0
473 96.1122817993164062 100 -0 -1 0
485 96.1122817993164062 100 -0 -1 0
485 102.112281799316406 0 0 1 0
473 102.112281799316406 0 0 1 0
473 102.112281799316406 100 0 1 0
485 102.112281799316406 100 0 1 0
303 96 0 -0 -1 0
293 96 0 -0 -1 0
293 96 100 -0 -1 0
303 96 100 -0 -1 0
303 102 0 0 1 0
287 102 0 0 1 0
287 102 100 0 1 0
303 102 100 0 1 0
293 96 0 1 0 0
293 38.9491844177246094 0 1 0 0
293 38.9491844177246094 100 1 0 0
293 96 100 1 0 0
287 102 0 -1 -0 0
287 45.0508155822753906 0 -1 -0 0
287 45.0508155822753906 100 -1 -0 0
287 102 100 -1 -0 0
293 196 0 1 0 0
293 168 0 1 0 0
293 168 100 1 0 0
293 196 100 1 0 0
287 196 0 -1 -0 0
287 162 0 -1 -0 0
287 162 100 -1 -0 0
287 196 100 -1 -0 0
293 168 0 -0 1 0
321 168 0 -0 1 0
321 168 100 -0 1 0
293 168 100 -0 1 0
287 162 0 0 -1 0
321 162 0 0 -1 0
321 162 100 0 -1 0
287 162 100 0 -1 0
206 372 0 1 0 0
206 288 0 1 0 0
206 288 100 1 0 0
206 372 100 1 0 0
200 378 0 -1 -0 0
200 294 0 -1 -0 0
200 294 100 -1 -0 0
200 378 100 -1 -0 0
200 378 0 -0 1 0
227 378 0 -0 1 0
227 378 100 -0 1 0
200 378 100 -0 1 0
206 372 0 0 -1 0
227 372 0 0 -1 0
227 372 100 0 -1 0
206 372 100 0 -1 0
206 288 0 -0 -1 0
171.011367797851562 288 0 -0 -1 0
171.011367797851562 288 100 -0 -1 0
206 288 100 -0 -1 0
200 294 0 0 1 0
164.988632202148438 294 0 0 1 0
164.988632202148438 294 100 0 1 0
200 294 100 0 1 0
617.20452880859375 367 0 1 0 0
617.20452880859375 290 0 1 0 0
617.20452880859375 290 100 1 0 0
617.20452880859375 367 100 1 0 0
611.20452880859375 367 0 -1 -0 0
611.20452880859375 290 0 -1 -0 0
611.20452880859375 290 100 -1 -0 0
611.20452880859375 367 100 -1 -0 0
514 271 0 1 0 0
514 207 0 1 0 0
514 207 100 1 0 0
514 271 100 1 0 0
508 271 0 -1 -0 0
508 207 0 -1 -0 0
508 207 100 -1 -0 0
508 271 100 -1 -0 0
379 387 0 -0 -1 0
360 387 0 -0 -1 0
360 387 100 -0 -1 0
379 387 100 -0 -1 0
379 393 0 0 1 0
354 393 0 0 1 0
354 393 100 0 1 0
379 393 100 0 1 0
360 387 0 1 0 0
360 361 0 1 0 0
360 361 100 1 0 0
360 387 100 1 0 0
354 393 0 -1 -0 0
354 361 0 -1 -0 0
354 361 100 -1 -0 0
354 393 100 -1 -0 0
456 386.95867919921875 0 -0 -1 0
435 386.95867919921875 0 -0 -1 0
435 386.95867919921875 100 -0 -1 0
456 386.95867919921875 100 -0 -1 0
456 392.95867919921875 0 0 1 0
435 392.95867919921875 0 0 1 0
435 392.95867919921875 100 0 1 0
456 392.95867919921875 100 0 1 0
537 162.360000610351562 0 -0 -1 0
527 162.360000610351562 0 -0 -1 0
527 162.360000610351562 100 -0 -1 0
537 162.360000610351562 100 -0 -1 0
537 168.360000610351562 0 0 1 0
527 168.360000610351562 0 0 1 0
527 168.360000610351562 100 0 1 0
537 168.360000610351562 100 0 1 0
558.44000244140625 353 0 1 0 0
558.44000244140625 337 0 1 0 0
558.44000244140625 337 100 1 0 0
558.44000244140625 353 100 1 0 0
552.44000244140625 353 0 -1 -0 0
552.44000244140625 337 0 -1 -0 0
552.44000244140625 337 100 -1 -0 0
552.44000244140625 353 100 -1 -0 0
655 177.509811401367188 0 -0 -1 0
629 177.509811401367188 0 -0 -1 0
629 177.509811401367188 100 -0 -1 0
655 177.509811401367188 100 -0 -1 0
655 183.509811401367188 0 0 1 0
629 183.509811401367188 0 0 1 0
629 183.509811401367188 100 0 1 0
655 183.509811401367188 100 0 1 0
165.351791381835938 197.9886474609375 0 -0.999992847442626953 -0.00378240854479372501 0
164.988632202148438 294 0 -0.999992847442626953 -0.00378240854479372501 0
164.988632202148438 294 100 -0.999992847442626953 -0.00378240854479372501 0
165.351791381835938 197.9886474609375 100 -0.999992847442626953 -0.00378240854479372501 0
171.35174560546875 198.0113525390625 0 0.999992847442626953 0.00378240854479372501 0
171.011367797851562 288 0 0.999992847442626953 0.00378240854479372501 0
171.011367797851562 288 100 0.999992847442626953 0.00378240854479372501 0
171.35174560546875 198.0113525390625 100 0.999992847442626953 0.00378240854479372501 0
660 254 0 1 0 0
660 38.9427757263183594 0 1 0 0
660 38.9427757263183594 100 1 0 0
660 254 100 1 0 0
654 254 0 -1 -0 0
654 45.0572242736816406 0 -1 -0 0
654 45.0572242736816406 100 -1 -0 0
654 254 100 -1 -0 0
660 38.9427757263183594 0 -0.018893074244260788 -0.999821484088897705 0
632.94329833984375 39.4540519714355469 0 -0.018893074244260788 -0.999821484088897705 0
632.94329833984375 39.4540519714355469 100 -0.018893074244260788 -0.999821484088897705 0
660 38.9427757263183594 100 -0.018893074244260788 -0.999821484088897705 0
654 45.0572242736816406 0 0.018893074244260788 0.999821484088897705 0
633.05670166015625 45.4529800415039062 0 0.018893074244260788 0.999821484088897705 0
633.05670166015625 45.4529800415039062 100 0.018893074244260788 0.999821484088897705 0
654 45.0572242736816406 100 0.018893074244260788 0.999821484088897705 0
263.050384521484375 45.4530906677246094 0 0.0167944729328155518 0.999858975410461426 0
287 45.0508155822753906 0 0.0167944729328155518 0.999858975410461426 0
287 45.0508155822753906 100 0.0167944729328155518 0.999858975410461426 0
263.050384521484375 45.4530906677246094 100 0.0167944729328155518 0.999858975410461426 0
262.949615478515625 39.4539375305175781 0 -0.0167944729328155518 -0.999858975410461426 0
293 38.9491844177246094 0 -0.0167944729328155518 -0.999858975410461426 0
293 38.9491844177246094 100 -0.0167944729328155518 -0.999858975410461426 0
262.949615478515625 39.4539375305175781 100 -0.0167944729328155518 -0.999858975410461426 0
509.01202392578125 102.112258911132812 0 0.004009992815554142 0.999991953372955322 0
540 101.987991333007812 0 0.004009992815554142 0.999991953372955322 0
540 101.987991333007812 100 0.004009992815554142 0.999991953372955322 0
509.01202392578125 102.112258911132812 100 0.004009992815554142 0.999991953372955322 0
508.98797607421875 96.1123046875 0 -0.004009992815554142 -0.999991953372955322 0
534 96.0120086669921875 0 -0.004009992815554142 -0.999991953372955322 0
534 96.0120086669921875 100 -0.004009992815554142 -0.999991953372955322 0
508.98797607421875 96.1123046875 100 -0.004009992815554142 -0.999991953372955322 0
542.03863525390625 545.47662353515625 0 0.012886817567050457 0.999916970729827881 0
582 544.96160888671875 0 0.012886817567050457 0.999916970729827881 0
582 544.96160888671875 100 0.012886817567050457 0.999916970729827881 0
542.03863525390625 545.47662353515625 100 0.012886817567050457 0.999916970729827881 0
541.96136474609375 539.47711181640625 0 -0.012886817567050457 -0.999916970729827881 0
576 539.03839111328125 0 -0.012886817567050457 -0.999916970729827881 0
576 539.03839111328125 100 -0.012886817567050457 -0.999916970729827881 0
541.96136474609375 539.47711181640625 100 -0.012886817567050457 -0.999916970729827881 0
582 544.96160888671875 0 1 0 0
582 517 0 1 0 0
582 517 100 1 0 0
582 544.96160888671875 100 1 0 0
576 539.03839111328125 0 -1 -0 0
576 511 0 -1 -0 0
576 511 100 -1 -0 0
576 539.03839111328125 100 -1 -0 0
582 517 0 -0 1 0
616.9619140625 517 0 -0 1 0
616.9619140625 517 100 -0 1 0
582 517 100 -0 1 0
576 511 0 0 -1 0
611.0380859375 511 0 0 -1 0
611.0380859375 511 100 0 -1 0
576 511 100 0 -1 0
611.20477294921875 497.961639404296875 0 -0.999918282032012939 -0.0127830468118190765 0
611.0380859375 511 0 -0.999918282032012939 -0.0127830468118190765 0
611.0380859375 511 100 -0.999918282032012939 -0.0127830468118190765 0
611.20477294921875 497.961639404296875 100 -0.999918282032012939 -0.0127830468118190765 0
617.20428466796875 498.038360595703125 0 0.999918282032012939 0.0127830468118190765 0
616.9619140625 517 0 0.999918282032012939 0.0127830468118190765 0
616.9619140625 517 100 0.999918282032012939 0.0127830468118190765 0
617.20428466796875 498.038360595703125 100 0.999918282032012939 0.0127830468118190765 0
297.961517333984375 361.780548095703125 0 -0.997321069240570068 -0.073148772120475769 0
297.207855224609375 372.056396484375 0 -0.997321069240570068 -0.073148772120475769 0
297.207855224609375 372.056396484375 100 -0.997321069240570068 -0.073148772120475769 0
297.961517333984375 361.780548095703125 100 -0.997321069240570068 -0.073148772120475769 0
303.945465087890625 362.219451904296875 0 0.997321069240570068 0.073148772120475769 0
302.792144775390625 377.943603515625 0 0.997321069240570068 0.073148772120475769 0
302.792144775390625 377.943603515625 100 0.997321069240570068 0.073148772120475769 0
303.945465087890625 362.219451904296875 100 0.997321069240570068 0.073148772120475769 0
297.207855224609375 372.056396484375 0 -0.0204205773770809174 -0.999791502952575684 0
275.938751220703125 372.490814208984375 0 -0.0204205773770809174 -0.999791502952575684 0
275.938751220703125 372.490814208984375 100 -0.0204205773770809174 -0.999791502952575684 0
297.207855224609375 372.056396484375 100 -0.0204205773770809174 -0.999791502952575684 0
302.792144775390625 377.943603515625 0 0.0204205773770809174 0.999791502952575684 0
276.061248779296875 378.48956298828125 0 0.0204205773770809174 0.999791502952575684 0
276.061248779296875 378.48956298828125 100 0.0204205773770809174 0.999791502952575684 0
302.792144775390625 377.943603515625 100 0.0204205773770809174 0.999791502952575684 0
171 172 0 169.653549194335938 171.645675659179688 0
165 172 0 169.653549194335938 171.645675659179688 0
165 172 100 169.653549194335938 171.645675659179688 0
171 172 100 169.653549194335938 171.645675659179688 0
459 390 0 455.919464111328125 386.382537841796875 0
453 390 0 455.919464111328125 386.382537841796875 0
453 390 100 455.919464111328125 386.382537841796875 0
459 390 100 455.919464111328125 386.382537841796875 0
237 45 0 234.409088134765625 44.3181800842285156 0
237 39 0 234.409088134765625 44.3181800842285156 0
237 39 100 234.409088134765625 44.3181800842285156 0
237 45 100 234.409088134765625 44.3181800842285156 0
562 39 0 542.9285888671875 37.6071434020996094 0
562 45 0 542.9285888671875 37.6071434020996094 0
562 45 100 542.9285888671875 37.6071434020996094 0
562 39 100 542.9285888671875 37.6071434020996094 0
413 96.1122817993164062 0 382.23077392578125 88.719024658203125 0
413 102.112281799316406 0 382.23077392578125 88.719024658203125 0
413 102.112281799316406 100 382.23077392578125 88.719024658203125 0
413 96.1122817993164062 100 382.23077392578125 88.719024658203125 0
400 96.1122817993164062 0 368.23077392578125 88.719024658203125 0
400 102.112281799316406 0 368.23077392578125 88.719024658203125 0
400 102.112281799316406 100 368.23077392578125 88.719024658203125 0
400 96.1122817993164062 100 368.23077392578125 88.719024658203125 0
376 96.1122817993164062 0 348.076934814453125 88.719024658203125 0
376 102.112281799316406 0 348.076934814453125 88.719024658203125 0
376 102.112281799316406 100 348.076934814453125 88.719024658203125 0
376 96.1122817993164062 100 348.076934814453125 88.719024658203125 0
363 96.1122817993164062 0 334.076934814453125 88.719024658203125 0
363 102.112281799316406 0 334.076934814453125 88.719024658203125 0
363 102.112281799316406 100 334.076934814453125 88.719024658203125 0
363 96.1122817993164062 100 334.076934814453125 88.719024658203125 0
339 96.1122817993164062 0 311.75 88.1029205322265625 0
339 102.112281799316406 0 311.75 88.1029205322265625 0
339 102.112281799316406 100 311.75 88.1029205322265625 0
339 96.1122817993164062 100 311.75 88.1029205322265625 0
327 96.1122817993164062 0 298.75 88.1029205322265625 0
327 102.112281799316406 0 298.75 88.1029205322265625 0
327 102.112281799316406 100 298.75 88.1029205322265625 0
327 96.1122817993164062 100 298.75 88.1029205322265625 0
449 96.1122817993164062 0 415.4615478515625 88.719024658203125 0
449 102.112281799316406 0 415.4615478515625 88.719024658203125 0
449 102.112281799316406 100 415.4615478515625 88.719024658203125 0
449 96.1122817993164062 100 415.4615478515625 88.719024658203125 0
436 96.1122817993164062 0 401.4615478515625 88.719024658203125 0
436 102.112281799316406 0 401.4615478515625 88.719024658203125 0
436 102.112281799316406 100 401.4615478515625 88.719024658203125 0
436 96.1122817993164062 100 401.4615478515625 88.719024658203125 0
485 96.1122817993164062 0 445.583343505859375 88.1029205322265625 0
485 102.112281799316406 0 445.583343505859375 88.1029205322265625 0
485 102.112281799316406 100 445.583343505859375 88.1029205322265625 0
485 96.1122817993164062 100 445.583343505859375 88.1029205322265625 0
473 96.1122817993164062 0 432.583343505859375 88.1029205322265625 0
473 102.112281799316406 0 432.583343505859375 88.1029205322265625 0
473 102.112281799316406 100 432.583343505859375 88.1029205322265625 0
473 96.1122817993164062 100 432.583343505859375 88.1029205322265625 0
303 96 0 273.70001220703125 86.4000015258789062 0
303 102 0 273.70001220703125 86.4000015258789062 0
303 102 100 273.70001220703125 86.4000015258789062 0
303 96 100 273.70001220703125 86.4000015258789062 0
293 196 0 282.53570556640625 190 0
287 196 0 282.53570556640625 190 0
287 196 100 282.53570556640625 190 0
293 196 100 282.53570556640625 190 0
493 545 0 481.67498779296875 531.375 0
493 539 0 481.67498779296875 531.375 0
493 539 100 481.67498779296875 531.375 0
493 545 100 481.67498779296875 531.375 0
617.20452880859375 367 0 609.18890380859375 363.2337646484375 0
611.20452880859375 367 0 609.18890380859375 363.2337646484375 0
611.20452880859375 367 100 609.18890380859375 363.2337646484375 0
617.20452880859375 367 100 609.18890380859375 363.2337646484375 0
617.20452880859375 290 0 609.18890380859375 285.2337646484375 0
611.20452880859375 290 0 609.18890380859375 285.2337646484375 0
611.20452880859375 290 100 609.18890380859375 285.2337646484375 0
617.20452880859375 290 100 609.18890380859375 285.2337646484375 0
514 271 0 505.96875 267.765625 0
508 271 0 505.96875 267.765625 0
508 271 100 505.96875 267.765625 0
514 271 100 505.96875 267.765625 0
514 207 0 505.96875 202.765625 0
508 207 0 505.96875 202.765625 0
508 207 100 505.96875 202.765625 0
514 207 100 505.96875 202.765625 0
379 387 0 360.052642822265625 366.631591796875 0
379 393 0 360.052642822265625 366.631591796875 0
379 393 100 360.052642822265625 366.631591796875 0
379 387 100 360.052642822265625 366.631591796875 0
456 386.95867919921875 0 435.28570556640625 368.532073974609375 0
456 392.95867919921875 0 435.28570556640625 368.532073974609375 0
456 392.95867919921875 100 435.28570556640625 368.532073974609375 0
456 386.95867919921875 100 435.28570556640625 368.532073974609375 0
435 386.95867919921875 0 413.28570556640625 368.532073974609375 0
435 392.95867919921875 0 413.28570556640625 368.532073974609375 0
435 392.95867919921875 100 413.28570556640625 368.532073974609375 0
435 386.95867919921875 100 413.28570556640625 368.532073974609375 0
227 378 0 219.59259033203125 364 0
227 372 0 219.59259033203125 364 0
227 372 100 219.59259033203125 364 0
227 378 100 219.59259033203125 364 0
360 361 0 346.153839111328125 346.115386962890625 0
354 361 0 346.153839111328125 346.115386962890625 0
354 361 100 346.153839111328125 346.115386962890625 0
360 361 100 346.153839111328125 346.115386962890625 0
321 168 0 310.53570556640625 162 0
321 162 0 310.53570556640625 162 0
321 162 100 310.53570556640625 162 0
321 168 100 310.53570556640625 162 0
537 162.360000610351562 0 484.29998779296875 146.123992919921875 0
537 168.360000610351562 0 484.29998779296875 146.123992919921875 0
537 168.360000610351562 100 484.29998779296875 146.123992919921875 0
537 162.360000610351562 100 484.29998779296875 146.123992919921875 0
527 162.360000610351562 0 473.29998779296875 146.123992919921875 0
527 168.360000610351562 0 473.29998779296875 146.123992919921875 0
527 168.360000610351562 100 473.29998779296875 146.123992919921875 0
527 162.360000610351562 100 473.29998779296875 146.123992919921875 0
558.44000244140625 353 0 523.5374755859375 331.9375 0
552.44000244140625 353 0 523.5374755859375 331.9375 0
552.44000244140625 353 100 523.5374755859375 331.9375 0
558.44000244140625 353 100 523.5374755859375 331.9375 0
558.44000244140625 337 0 523.5374755859375 314.9375 0
552.44000244140625 337 0 523.5374755859375 314.9375 0
552.44000244140625 337 100 523.5374755859375 314.9375 0
558.44000244140625 337 100 523.5374755859375 314.9375 0
655 177.509811401367188 0 630.80767822265625 170.682510375976562 0
655 183.509811401367188 0 630.80767822265625 170.682510375976562 0
655 183.509811401367188 100 630.80767822265625 170.682510375976562 0
655 177.509811401367188 100 630.80767822265625 170.682510375976562 0
629 177.509811401367188 0 603.80767822265625 170.682510375976562 0
629 183.509811401367188 0 603.80767822265625 170.682510375976562 0
629 183.509811401367188 100 603.80767822265625 170.682510375976562 0
629 177.509811401367188 100 603.80767822265625 170.682510375976562 0
165.351791381835938 197.9886474609375 0 163.633377075195312 194.926544189453125 0
171.35174560546875 198.0113525390625 0 163.633377075195312 194.926544189453125 0
171.35174560546875 198.0113525390625 100 163.633377075195312 194.926544189453125 0
165.351791381835938 197.9886474609375 100 163.633377075195312 194.926544189453125 0
660 254 0 656.9310302734375 253.818923950195312 0
654 254 0 656.9310302734375 253.818923950195312 0
654 254 100 656.9310302734375 253.818923950195312 0
660 254 100 656.9310302734375 253.818923950195312 0
632.94329833984375 39.4540519714355469 0 608.554443359375 38.0150032043457031 0
633.05670166015625 45.4529800415039062 0 608.554443359375 38.0150032043457031 0
633.05670166015625 45.4529800415039062 100 608.554443359375 38.0150032043457031 0
632.94329833984375 39.4540519714355469 100 608.554443359375 38.0150032043457031 0
263.050384521484375 45.4530906677246094 0 251.068588256835938 43.5722923278808594 0
262.949615478515625 39.4539375305175781 0 251.068588256835938 43.5722923278808594 0
262.949615478515625 39.4539375305175781 100 251.068588256835938 43.5722923278808594 0
263.050384521484375 45.4530906677246094 100 251.068588256835938 43.5722923278808594 0
509.01202392578125 102.112258911132812 0 491.5860595703125 98.8210678100585938 0
508.98797607421875 96.1123046875 0 491.5860595703125 98.8210678100585938 0
508.98797607421875 96.1123046875 100 491.5860595703125 98.8210678100585938 0
509.01202392578125 102.112258911132812 100 491.5860595703125 98.8210678100585938 0
542.03863525390625 545.47662353515625 0 527.47576904296875 531.84051513671875 0
541.96136474609375 539.47711181640625 0 527.47576904296875 531.84051513671875 0
541.96136474609375 539.47711181640625 100 527.47576904296875 531.84051513671875 0
542.03863525390625 545.47662353515625 100 527.47576904296875 531.84051513671875 0
611.20477294921875 497.961639404296875 0 564.34393310546875 458.77276611328125 0
617.20428466796875 498.038360595703125 0 564.34393310546875 458.77276611328125 0
617.20428466796875 498.038360595703125 100 564.34393310546875 458.77276611328125 0
611.20477294921875 497.961639404296875 100 564.34393310546875 458.77276611328125 0
297.961517333984375 361.780548095703125 0 269.116058349609375 325.670684814453125 0
303.945465087890625 362.219451904296875 0 269.116058349609375 325.670684814453125 0
303.945465087890625 362.219451904296875 100 269.116058349609375 325.670684814453125 0
297.961517333984375 361.780548095703125 100 269.116058349609375 325.670684814453125 0
275.938751220703125 372.490814208984375 0 261.96795654296875 355.00164794921875 0
276.061248779296875 378.48956298828125 0 261.96795654296875 355.00164794921875 0
276.061248779296875 378.48956298828125 100 261.96795654296875 355.00164794921875 0
275.938751220703125 372.490814208984375 100 261.96795654296875 355.00164794921875 0
171 172 0 0 0 -1
165 172 0 0 0 -1
165 39 0 0 0 -1
171 45 0 0 0 -1
171 172 100 0 0 1
165 172 100 0 0 1
165 39 100 0 0 1
171 45 100 0 0 1
171 45 0 0 0 -1
165 39 0 0 0 -1
237 39 0 0 0 -1
237 45 0 0 0 -1
171 45 100 0 0 1
165 39 100 0 0 1
237 39 100 0 0 1
237 45 100 0 0 1
459 539 0 0 0 -1
453 545 0 0 0 -1
453 390 0 0 0 -1
459 390 0 0 0 -1
459 539 100 0 0 1
453 545 100 0 0 1
453 390 100 0 0 1
459 390 100 0 0 1
453 545 0 0 0 -1
459 539 0 0 0 -1
493 539 0 0 0 -1
493 545 0 0 0 -1
453 545 100 0 0 1
459 539 100 0 0 1
493 539 100 0 0 1
493 545 100 0 0 1
562 39 0 0 0 -1
562 45 0 0 0 -1
540 45 0 0 0 -1
534 39 0 0 0 -1
562 39 100 0 0 1
562 45 100 0 0 1
540 45 100 0 0 1
534 39 100 0 0 1
534 39 0 0 0 -1
540 45 0 0 0 -1
540 101.987991333007812 0 0 0 -1
534 96.0120086669921875 0 0 0 -1
534 39 100 0 0 1
540 45 100 0 0 1
540 101.987991333007812 100 0 0 1
534 96.0120086669921875 100 0 0 1
413 96.1122817993164062 0 0 0 -1
413 102.112281799316406 0 0 0 -1
400 102.112281799316406 0 0 0 -1
400 96.1122817993164062 0 0 0 -1
413 96.1122817993164062 100 0 0 1
413 102.112281799316406 100 0 0 1
400 102.112281799316406 100 0 0 1
400 96.1122817993164062 100 0 0 1
376 96.1122817993164062 0 0 0 -1
376 102.112281799316406 0 0 0 -1
363 102.112281799316406 0 0 0 -1
363 96.1122817993164062 0 0 0 -1
376 96.1122817993164062 100 0 0 1
376 102.112281799316406 100 0 0 1
363 102.112281799316406 100 0 0 1
363 96.1122817993164062 100 0 0 1
339 96.1122817993164062 0 0 0 -1
339 102.112281799316406 0 0 0 -1
327 102.112281799316406 0 0 0 -1
327 96.1122817993164062 0 0 0 -1
339 96.1122817993164062 100 0 0 1
339 102.112281799316406 100 0 0 1
327 102.112281799316406 100 0 0 1
327 96.1122817993164062 100 0 0 1
449 96.1122817993164062 0 0 0 -1
449 102.112281799316406 0 0 0 -1
436 102.112281799316406 0 0 0 -1
436 96.1122817993164062 0 0 0 -1
449 96.1122817993164062 100 0 0 1
449 102.112281799316406 100 0 0 1
436 102.112281799316406 100 0 0 1
436 96.1122817993164062 100 0 0 1
485 96.1122817993164062 0 0 0 -1
485 102.112281799316406 0 0 0 -1
473 102.112281799316406 0 0 0 -1
473 96.1122817993164062 0 0 0 -1
485 96.1122817993164062 100 0 0 1
485 102.112281799316406 100 0 0 1
473 102.112281799316406 100 0 0 1
473 96.1122817993164062 100 0 0 1
303 96 0 0 0 -1
303 102 0 0 0 -1
287 102 0 0 0 -1
293 96 0 0 0 -1
303 96 100 0 0 1
303 102 100 0 0 1
287 102 100 0 0 1
293 96 100 0 0 1
293 96 0 0 0 -1
287 102 0 0 0 -1
287 45.0508155822753906 0 0 0 -1
293 38.9491844177246094 0 0 0 -1
293 96 100 0 0 1
287 102 100 0 0 1
287 45.0508155822753906 100 0 0 1
293 38.9491844177246094 100 0 0 1
293 196 0 0 0 -1
287 196 0 0 0 -1
287 162 0 0 0 -1
293 168 0 0 0 -1
293 196 100 0 0 1
287 196 100 0 0 1
287 162 100 0 0 1
293 168 100 0 0 1
293 168 0 0 0 -1
287 162 0 0 0 -1
321 162 0 0 0 -1
321 168 0 0 0 -1
293 168 100 0 0 1
287 162 100 0 0 1
321 162 100 0 0 1
321 168 100 0 0 1
206 372 0 0 0 -1
200 378 0 0 0 -1
200 294 0 0 0 -1
206 288 0 0 0 -1
206 372 100 0 0 1
200 378 100 0 0 1
200 294 100 0 0 1
206 288 100 0 0 1
200 378 0 0 0 -1
206 372 0 0 0 -1
227 372 0 0 0 -1
227 378 0 0 0 -1
200 378 100 0 0 1
206 372 100 0 0 1
227 372 100 0 0 1
227 378 100 0 0 1
206 288 0 0 0 -1
200 294 0 0 0 -1
164.988632202148438 294 0 0 0 -1
171.011367797851562 288 0 0 0 -1
206 288 100 0 0 1
200 294 100 0 0 1
164.988632202148438 294 100 0 0 1
171.011367797851562 288 100 0 0 1
617.20452880859375 367 0 0 0 -1
611.20452880859375 367 0 0 0 -1
611.20452880859375 290 0 0 0 -1
617.20452880859375 290 0 0 0 -1
617.20452880859375 367 100 0 0 1
611.20452880859375 367 100 0 0 1
611.20452880859375 290 100 0 0 1
617.20452880859375 290 100 0 0 1
514 271 0 0 0 -1
508 271 0 0 0 -1
508 207 0 0 0 -1
514 207 0 0 0 -1
514 271 100 0 0 1
508 271 100 0 0 1
508 207 100 0 0 1
514 207 100 0 0 1
379 387 0 0 0 -1
379 393 0 0 0 -1
354 393 0 0 0 -1
360 387 0 0 0 -1
379 387 100 0 0 1
379 393 100 0 0 1
354 393 100 0 0 1
360 387 100 0 0 1
360 387 0 0 0 -1
354 393 0 0 0 -1
354 361 0 0 0 -1
360 361 0 0 0 -1
360 387 100 0 0 1
354 393 100 0 0 1
354 361 100 0 0 1
360 361 100 0 0 1
456 386.95867919921875 0 0 0 -1
456 392.95867919921875 0 0 0 -1
435 392.95867919921875 0 0 0 -1
435 386.95867919921875 0 0 0 -1
456 386.95867919921875 100 0 0 1
456 392.95867919921875 100 0 0 1
435 392.95867919921875 100 0 0 1
435 386.95867919921875 100 0 0 1
537 162.360000610351562 0 0 0 -1
537 168.360000610351562 0 0 0 -1
527 168.360000610351562 0 0 0 -1
527 162.360000610351562 0 0 0 -1
537 162.360000610351562 100 0 0 1
537 168.360000610351562 100 0 0 1
527 168.360000610351562 100 0 0 1
527 162.360000610351562 100 0 0 1
558.44000244140625 353 0 0 0 -1
552.44000244140625 353 0 0 0 -1
552.44000244140625 337 0 0 0 -1
558.44000244140625 337 0 0 0 -1
558.44000244140625 353 100 0 0 1
552.44000244140625 353 100 0 0 1
552.44000244140625 337 100 0 0 1
558.44000244140625 337 100 0 0 1
655 177.509811401367188 0 0 0 -1
655 183.509811401367188 0 0 0 -1
629 183.509811401367188 0 0 0 -1
629 177.509811401367188 0 0 0 -1
655 177.509811401367188 100 0 0 1
655 183.509811401367188 100 0 0 1
629 183.509811401367188 100 0 0 1
629 177.509811401367188 100 0 0 1
165.351791381835938 197.9886474609375 0 0 0 -1
171.35174560546875 198.0113525390625 0 0 0 -1
171.011367797851562 288 0 0 0 -1
164.988632202148438 294 0 0 0 -1
165.351791381835938 197.9886474609375 100 0 0 1
171.35174560546875 198.0113525390625 100 0 0 1
171.011367797851562 288 100 0 0 1
164.988632202148438 294 100 0 0 1
660 254 0 0 0 -1
654 254 0 0 0 -1
654 45.0572242736816406 0 0 0 -1
660 38.9427757263183594 0 0 0 -1
660 254 100 0 0 1
654 254 100 0 0 1
654 45.0572242736816406 100 0 0 1
660 38.9427757263183594 100 0 0 1
660 38.9427757263183594 0 0 0 -1
654 45.0572242736816406 0 0 0 -1
633.05670166015625 45.4529800415039062 0 0 0 -1
632.94329833984375 39.4540519714355469 0 0 0 -1
660 38.9427757263183594 100 0 0 1
654 45.0572242736816406 100 0 0 1
633.05670166015625 45.4529800415039062 100 0 0 1
632.94329833984375 39.4540519714355469 100 0 0 1
263.050384521484375 45.4530906677246094 0 0 0 -1
262.949615478515625 39.4539375305175781 0 0 0 -1
293 38.9491844177246094 0 0 0 -1
287 45.0508155822753906 0 0 0 -1
263.050384521484375 45.4530906677246094 100 0 0 1
262.949615478515625 39.4539375305175781 100 0 0 1
293 38.9491844177246094 100 0 0 1
287 45.0508155822753906 100 0 0 1
509.01202392578125 102.112258911132812 0 0 0 -1
508.98797607421875 96.1123046875 0 0 0 -1
534 96.0120086669921875 0 0 0 -1
540 101.987991333007812 0 0 0 -1
509.01202392578125 102.112258911132812 100 0 0 1
508.98797607421875 96.1123046875 100 0 0 1
534 96.0120086669921875 100 0 0 1
540 101.987991333007812 100 0 0 1
542.03863525390625 545.47662353515625 0 0 0 -1
541.96136474609375 539.47711181640625 0 0 0 -1
576 539.03839111328125 0 0 0 -1
582 544.96160888671875 0 0 0 -1
542.03863525390625 545.47662353515625 100 0 0 1
541.96136474609375 539.47711181640625 100 0 0 1
576 539.03839111328125 100 0 0 1
582 544.96160888671875 100 0 0 1
582 544.96160888671875 0 0 0 -1
576 539.03839111328125 0 0 0 -1
576 511 0 0 0 -1
582 517 0 0 0 -1
582 544.96160888671875 100 0 0 1
576 539.03839111328125 100 0 0 1
576 511 100 0 0 1
582 517 100 0 0 1
582 517 0 0 0 -1
576 511 0 0 0 -1
611.0380859375 511 0 0 0 -1
616.9619140625 517 0 0 0 -1
582 517 100 0 0 1
576 511 100 0 0 1
611.0380859375 511 100 0 0 1
616.9619140625 517 100 0 0 1
611.20477294921875 497.961639404296875 0 0 0 -1
617.20428466796875 498.038360595703125 0 0 0 -1
616.9619140625 517 0 0 0 -1
611.0380859375 511 0 0 0 -1
611.20477294921875 497.961639404296875 100 0 0 1
617.20428466796875 498.038360595703125 100 0 0 1
616.9619140625 517 100 0 0 1
611.0380859375 511 100 0 0 1
297.961517333984375 361.780548095703125 0 0 0 -1
303.945465087890625 362.219451904296875 0 0 0 -1
302.792144775390625 377.943603515625 0 0 0 -1
297.207855224609375 372.056396484375 0 0 0 -1
297.961517333984375 361.780548095703125 100 0 0 1
303.945465087890625 362.219451904296875 100 0 0 1
302.792144775390625 377.943603515625 100 0 0 1
297.207855224609375 372.056396484375 100 0 0 1
297.207855224609375 372.056396484375 0 0 0 -1
302.792144775390625 377.943603515625 0 0 0 -1
276.061248779296875 378.48956298828125 0 0 0 -1
275.938751220703125 372.490814208984375 0 0 0 -1
297.207855224609375 372.056396484375 100 0 0 1
302.792144775390625 377.943603515625 100 0 0 1
276.061248779296875 378.48956298828125 100 0 0 1
275.938751220703125 372.490814208984375 100 0 0 1
4 0 1 2 3
4 4 5 6 7
4 8 9 10 11
4 12 13 14 15
4 16 17 18 19
4 20 21 22 23
4 24 25 26 27
4 28 29 30 31
4 32 33 34 35
4 36 37 38 39
4 40 41 42 43
4 44 45 46 47
4 48 49 50 51
4 52 53 54 55
4 56 57 58 59
4 60 61 62 63
4 64 65 66 67
4 68 69 70 71
4 72 73 74 75
4 76 77 78 79
4 80 81 82 83
4 84 85 86 87
4 88 89 90 91
4 92 93 94 95
4 96 97 98 99
4 100 101 102 103
4 104 105 106 107
4 108 109 110 111
4 112 113 114 115
4 116 117 118 119
4 120 121 122 123
4 124 125 126 127
4 128 129 130 131
4 132 133 134 135
4 136 137 138 139
4 140 141 142 143
4 144 145 146 147
4 148 149 150 151
4 152 153 154 155
4 156 157 158 159
4 160 161 162 163
4 164 165 166 167
4 168 169 170 171
4 172 173 174 175
4 176 177 178 179
4 180 181 182 183
4 184 185 186 187
4 188 189 190 191
4 192 193 194 195
4 196 197 198 199
4 200 201 202 203
4 204 205 206 207
4 208 209 210 211
4 212 213 214 215
4 216 217 218 219
4 220 221 222 223
4 224 225 226 227
4 228 229 230 231
4 232 233 234 235
4 236 237 238 239
4 240 241 242 243
4 244 245 246 247
4 248 249 250 251
4 252 253 254 255
4 256 257 258 259
4 260 261 262 263
4 264 265 266 267
4 268 269 270 271
4 272 273 274 275
4 276 277 278 279
4 280 281 282 283
4 284 285 286 287
4 288 289 290 291
4 292 293 294 295
4 296 297 298 299
4 300 301 302 303
4 304 305 306 307
4 308 309 310 311
4 312 313 314 315
4 316 317 318 319
4 320 321 322 323
4 324 325 326 327
4 328 329 330 331
4 332 333 334 335
4 336 337 338 339
4 340 341 342 343
4 344 345 346 347
4 348 349 350 351
4 352 353 354 355
4 356 357 358 359
4 360 361 362 363
4 364 365 366 367
4 368 369 370 371
4 372 373 374 375
4 376 377 378 379
4 380 381 382 383
4 384 385 386 387
4 388 389 390 391
4 392 393 394 395
4 396 397 398 399
4 400 401 402 403
4 404 405 406 407
4 408 409 410 411
4 412 413 414 415
4 416 417 418 419
4 420 421 422 423
4 424 425 426 427
4 428 429 430 431
4 432 433 434 435
4 436 437 438 439
4 440 441 442 443
4 444 445 446 447
4 448 449 450 451
4 452 453 454 455
4 456 457 458 459
4 460 461 462 463
4 464 465 466 467
4 468 469 470 471
4 472 473 474 475
4 476 477 478 479
4 480 481 482 483
4 484 485 486 487
4 488 489 490 491
4 492 493 494 495
4 496 497 498 499
4 500 501 502 503
4 504 505 506 507
4 508 509 510 511
4 512 513 514 515
4 516 517 518 519
4 520 521 522 523
4 524 525 526 527
4 528 529 530 531
4 532 533 534 535
4 536 537 538 539
4 540 541 542 543
4 544 545 546 547
4 548 549 550 551
4 552 553 554 555
4 556 557 558 559
4 560 561 562 563
4 564 565 566 567
4 568 569 570 571
4 572 573 574 575
4 576 577 578 579
4 580 581 582 583
4 584 585 586 587
4 588 589 590 591
4 592 593 594 595
4 596 597 598 599
4 600 601 602 603
4 604 605 606 607
4 608 609 610 611
4 612 613 614 615
4 616 617 618 619
4 620 621 622 623
4 624 625 626 627
4 628 629 630 631
4 632 633 634 635
4 636 637 638 639
4 640 641 642 643
4 644 645 646 647
4 648 649 650 651
4 652 653 654 655
4 656 657 658 659
4 660 661 662 663
4 664 665 666 667
4 668 669 670 671
4 672 673 674 675
4 676 677 678 679
4 680 681 682 683
4 684 685 686 687
4 688 689 690 691
4 692 693 694 695
4 696 697 698 699
4 700 701 702 703
4 704 705 706 707
4 708 709 710 711
4 712 713 714 715
4 716 717 718 719
4 720 721 722 723
4 724 725 726 727
4 728 729 730 731
4 732 733 734 735
4 736 737 738 739
4 740 741 742 743
4 744 745 746 747
4 748 749 750 751
4 752 753 754 755
4 756 757 758 759
