ply
format ascii 1.0
element vertex 640
property float x
property float y
property float z
property float nx
property float ny
property float nz
element quads 160
property list uchar int vertex_indices
end_header
149.25 472.25 0 1 0 0
149.25 367 0 1 0 0
149.25 367 100 1 0 0
149.25 472.25 100 1 0 0
148.75 471.75 0 -1 -0 0
148.75 367 0 -1 -0 0
148.75 367 100 -1 -0 0
148.75 471.75 100 -1 -0 0
148.75 471.75 0 -0 -1 0
114 471.75 0 -0 -1 0
114 471.75 100 -0 -1 0
148.75 471.75 100 -0 -1 0
149.25 472.25 0 0 1 0
114 472.25 0 0 1 0
114 472.25 100 0 1 0
149.25 472.25 100 0 1 0
525.25 410.25 0 1 0 0
525.25 182 0 1 0 0
525.25 182 100 1 0 0
525.25 410.25 100 1 0 0
524.75 409.75 0 -1 -0 0
524.75 182 0 -1 -0 0
524.75 182 100 -1 -0 0
524.75 409.75 100 -1 -0 0
524.75 409.75 0 -0 -1 0
499 409.75 0 -0 -1 0
499 409.75 100 -0 -1 0
524.75 409.75 100 -0 -1 0
525.25 410.25 0 0 1 0
499 410.25 0 0 1 0
499 410.25 100 0 1 0
525.25 410.25 100 0 1 0
295 307.25 0 -0 1 0
416 307.25 0 -0 1 0
416 307.25 100 -0 1 0
295 307.25 100 -0 1 0
295 306.75 0 0 -1 0
416 306.75 0 0 -1 0
416 306.75 100 0 -1 0
295 306.75 100 0 -1 0
432.25 410 0 1 0 0
432.25 334 0 1 0 0
432.25 334 100 1 0 0
432.25 410 100 1 0 0
431.75 410 0 -1 -0 0
431.75 334 0 -1 -0 0
431.75 334 100 -1 -0 0
431.75 410 100 -1 -0 0
10 368.25 0 -0 1 0
184.75 368.25 0 -0 1 0
184.75 368.25 100 -0 1 0
10 368.25 100 -0 1 0
10 367.75 0 0 -1 0
185.25 367.75 0 0 -1 0
185.25 367.75 100 0 -1 0
10 367.75 100 0 -1 0
184.75 368.25 0 -1 0 0
184.75 427 0 -1 0 0
184.75 427 100 -1 0 0
184.75 368.25 100 -1 0 0
185.25 367.75 0 1 -0 0
185.25 427 0 1 -0 0
185.25 427 100 1 -0 0
185.25 367.75 100 1 -0 0
275 90.25 0 -0 1 0
308 90.25 0 -0 1 0
308 90.25 100 -0 1 0
275 90.25 100 -0 1 0
275 89.75 0 0 -1 0
308 89.75 0 0 -1 0
308 89.75 100 0 -1 0
275 89.75 100 0 -1 0
385 450.25 0 -0 1 0
415.25 450.25 0 -0 1 0
415.25 450.25 100 -0 1 0
385 450.25 100 -0 1 0
385 449.75 0 0 -1 0
414.75 449.75 0 0 -1 0
414.75 449.75 100 0 -1 0
385 449.75 100 0 -1 0
415.25 450.25 0 1 0 0
415.25 409 0 1 0 0
415.25 409 100 1 0 0
415.25 450.25 100 1 0 0
414.75 449.75 0 -1 -0 0
414.75 409 0 -1 -0 0
414.75 409 100 -1 -0 0
414.75 449.75 100 -1 -0 0
703.25 489.75 0 1 0 0
703.25 449.75 0 1 0 0
703.25 449.75 100 1 0 0
703.25 489.75 100 1 0 0
702.75 490.25 0 -1 -0 0
702.75 450.25 0 -1 -0 0
702.75 450.25 100 -1 -0 0
702.75 490.25 100 -1 -0 0
702.75 490.25 0 -0 1 0
821.25 490.25 0 -0 1 0
821.25 490.25 100 -0 1 0
702.75 490.25 100 -0 1 0
703.25 489.75 0 0 -1 0
820.75 489.75 0 0 -1 0
820.75 489.75 100 0 -1 0
703.25 489.75 100 0 -1 0
703.25 449.75 0 -0 -1 0
580.25 449.75 0 -0 -1 0
580.25 449.75 100 -0 -1 0
703.25 449.75 100 -0 -1 0
702.75 450.25 0 0 1 0
579.75 450.25 0 0 1 0
579.75 450.25 100 0 1 0
702.75 450.25 100 0 1 0
8.75 472.25 0 -0 1 0
43 472.25 0 -0 1 0
43 472.25 100 -0 1 0
8.75 472.25 100 -0 1 0
9.25 471.75 0 0 -1 0
43 471.75 0 0 -1 0
43 471.75 100 0 -1 0
9.25 471.75 100 0 -1 0
9.25 471.75 0 1 0 0
9.25 233 0 1 0 0
9.25 233 100 1 0 0
9.25 471.75 100 1 0 0
8.75 472.25 0 -1 -0 0
8.75 233 0 -1 -0 0
8.75 233 100 -1 -0 0
8.75 472.25 100 -1 -0 0
65.25 366 0 1 0 0
65.25 306 0 1 0 0
65.25 306 100 1 0 0
65.25 366 100 1 0 0
64.75 366 0 -1 -0 0
64.75 306 0 -1 -0 0
64.75 306 100 -1 -0 0
64.75 366 100 -1 -0 0
821.25 490.25 0 1 0 0
821.25 416 0 1 0 0
821.25 416 100 1 0 0
821.25 490.25 100 1 0 0
820.75 489.75 0 -1 -0 0
820.75 416 0 -1 -0 0
820.75 416 100 -1 -0 0
820.75 489.75 100 -1 -0 0
580.25 449.75 0 1 0 0
580.25 182 0 1 0 0
580.25 182 100 1 0 0
580.25 449.75 100 1 0 0
579.75 450.25 0 -1 -0 0
579.75 182 0 -1 -0 0
579.75 182 100 -1 -0 0
579.75 450.25 100 -1 -0 0
79 163.25 0 -0 1 0
168.75 163.25 0 -0 1 0
168.75 163.25 100 -0 1 0
79 163.25 100 -0 1 0
79 162.75 0 0 -1 0
169.25 162.75 0 0 -1 0
169.25 162.75 100 0 -1 0
79 162.75 100 0 -1 0
168.75 163.25 0 -1 0 0
168.75 283.25 0 -1 0 0
168.75 283.25 100 -1 0 0
168.75 163.25 100 -1 0 0
169.25 162.75 0 1 -0 0
169.25 282.75 0 1 -0 0
169.25 282.75 100 1 -0 0
169.25 162.75 100 1 -0 0
220.75 386 0 -1 0 0
220.75 461 0 -1 0 0
220.75 461 100 -1 0 0
220.75 386 100 -1 0 0
221.25 386 0 1 -0 0
221.25 461 0 1 -0 0
221.25 461 100 1 -0 0
221.25 386 100 1 -0 0
295.75 381 0 -1 0 0
295.75 450.25 0 -1 0 0
295.75 450.25 100 -1 0 0
295.75 381 100 -1 0 0
296.25 381 0 1 -0 0
296.25 449.75 0 1 -0 0
296.25 449.75 100 1 -0 0
296.25 381 100 1 -0 0
295.75 450.25 0 -0 1 0
325 450.25 0 -0 1 0
325 450.25 100 -0 1 0
295.75 450.25 100 -0 1 0
296.25 449.75 0 0 -1 0
325 449.75 0 0 -1 0
325 449.75 100 0 -1 0
296.25 449.75 100 0 -1 0
168.75 283.25 0 -0 1 0
275 283.25 0 -0 1 0
275 283.25 100 -0 1 0
168.75 283.25 100 -0 1 0
169.25 282.75 0 0 -1 0
275 282.75 0 0 -1 0
275 282.75 100 0 -1 0
169.25 282.75 100 0 -1 0
10 307.25 0 -0 1 0
105 307.25 0 -0 1 0
105 307.25 100 -0 1 0
10 307.25 100 -0 1 0
10 306.75 0 0 -1 0
105 306.75 0 0 -1 0
105 306.75 100 0 -1 0
10 306.75 100 0 -1 0
415 333.25 0 -0 1 0
541 333.25 0 -0 1 0
541 333.25 100 -0 1 0
415 333.25 100 -0 1 0
415 332.75 0 0 -1 0
541 332.75 0 0 -1 0
541 332.75 100 0 -1 0
415 332.75 100 0 -1 0
295.75 92 0 -1 0 0
295.75 166 0 -1 0 0
295.75 166 100 -1 0 0
295.75 92 100 -1 0 0
296.25 92 0 1 -0 0
296.25 166 0 1 -0 0
296.25 166 100 1 -0 0
296.25 92 100 1 -0 0
149.25 90.25 0 -0 1 0
202 90.25 0 -0 1 0
202 90.25 100 -0 1 0
149.25 90.25 100 -0 1 0
148.75 89.75 0 0 -1 0
202 89.75 0 0 -1 0
202 89.75 100 0 -1 0
148.75 89.75 100 0 -1 0
148.75 89.75 0 -1 0 0
148.75 215 0 -1 0 0
148.75 215 100 -1 0 0
148.75 89.75 100 -1 0 0
149.25 90.25 0 1 -0 0
149.25 215 0 1 -0 0
149.25 215 100 1 -0 0
149.25 90.25 100 1 -0 0
407 182.25 0 -0 1 0
821 182.25 0 -0 1 0
821 182.25 100 -0 1 0
407 182.25 100 -0 1 0
407 181.75 0 0 -1 0
821 181.75 0 0 -1 0
821 181.75 100 0 -1 0
407 181.75 100 0 -1 0
149.25 367 0 147.831954956054688 362.5130615234375 0
148.75 367 0 147.831954956054688 362.5130615234375 0
148.75 367 100 147.831954956054688 362.5130615234375 0
149.25 367 100 147.831954956054688 362.5130615234375 0
525.25 182 0 522.94879150390625 180.202621459960938 0
524.75 182 0 522.94879150390625 180.202621459960938 0
524.75 182 100 522.94879150390625 180.202621459960938 0
525.25 182 100 522.94879150390625 180.202621459960938 0
295 307.25 0 291.561981201171875 304.71075439453125 0
295 306.75 0 291.561981201171875 304.71075439453125 0
295 306.75 100 291.561981201171875 304.71075439453125 0
295 307.25 100 291.561981201171875 304.71075439453125 0
416 307.25 0 413.561981201171875 304.71075439453125 0
416 306.75 0 413.561981201171875 304.71075439453125 0
416 306.75 100 413.561981201171875 304.71075439453125 0
416 307.25 100 413.561981201171875 304.71075439453125 0
432.25 410 0 426.5625 405.605255126953125 0
431.75 410 0 426.5625 405.605255126953125 0
431.75 410 100 426.5625 405.605255126953125 0
432.25 410 100 426.5625 405.605255126953125 0
432.25 334 0 426.5625 328.605255126953125 0
431.75 334 0 426.5625 328.605255126953125 0
431.75 334 100 426.5625 328.605255126953125 0
432.25 334 100 426.5625 328.605255126953125 0
10 368.25 0 8.94277572631835938 366.1427001953125 0
10 367.75 0 8.94277572631835938 366.1427001953125 0
10 367.75 100 8.94277572631835938 366.1427001953125 0
10 368.25 100 8.94277572631835938 366.1427001953125 0
275 90.25 0 265.666656494140625 87.5151519775390625 0
275 89.75 0 265.666656494140625 87.5151519775390625 0
275 89.75 100 265.666656494140625 87.5151519775390625 0
275 90.25 100 265.666656494140625 87.5151519775390625 0
308 90.25 0 299.666656494140625 87.5151519775390625 0
308 89.75 0 299.666656494140625 87.5151519775390625 0
308 89.75 100 299.666656494140625 87.5151519775390625 0
308 90.25 100 299.666656494140625 87.5151519775390625 0
385 450.25 0 371.272735595703125 435.365692138671875 0
385 449.75 0 371.272735595703125 435.365692138671875 0
385 449.75 100 371.272735595703125 435.365692138671875 0
385 450.25 100 371.272735595703125 435.365692138671875 0
43 472.25 0 42.7445259094238281 458.461669921875 0
43 471.75 0 42.7445259094238281 458.461669921875 0
43 471.75 100 42.7445259094238281 458.461669921875 0
43 472.25 100 42.7445259094238281 458.461669921875 0
65.25 366 0 64.1624984741210938 360.899993896484375 0
64.75 366 0 64.1624984741210938 360.899993896484375 0
64.75 366 100 64.1624984741210938 360.899993896484375 0
65.25 366 100 64.1624984741210938 360.899993896484375 0
65.25 306 0 64.1624984741210938 299.899993896484375 0
64.75 306 0 64.1624984741210938 299.899993896484375 0
64.75 306 100 64.1624984741210938 299.899993896484375 0
65.25 306 100 64.1624984741210938 299.899993896484375 0
114 471.75 0 109.71942138671875 458.174468994140625 0
114 472.25 0 109.71942138671875 458.174468994140625 0
114 472.25 100 109.71942138671875 458.174468994140625 0
114 471.75 100 109.71942138671875 458.174468994140625 0
9.25 233 0 9.21125698089599609 231.024078369140625 0
8.75 233 0 9.21125698089599609 231.024078369140625 0
8.75 233 100 9.21125698089599609 231.024078369140625 0
9.25 233 100 9.21125698089599609 231.024078369140625 0
79 163.25 0 77.1197738647460938 161.431060791015625 0
79 162.75 0 77.1197738647460938 161.431060791015625 0
79 162.75 100 77.1197738647460938 161.431060791015625 0
79 163.25 100 77.1197738647460938 161.431060791015625 0
220.75 386 0 217.806671142578125 379.85333251953125 0
221.25 386 0 217.806671142578125 379.85333251953125 0
221.25 386 100 217.806671142578125 379.85333251953125 0
220.75 386 100 217.806671142578125 379.85333251953125 0
220.75 461 0 217.806671142578125 455.85333251953125 0
221.25 461 0 217.806671142578125 455.85333251953125 0
221.25 461 100 217.806671142578125 455.85333251953125 0
220.75 461 100 217.806671142578125 455.85333251953125 0
295.75 381 0 291.479248046875 374.498199462890625 0
296.25 381 0 291.479248046875 374.498199462890625 0
296.25 381 100 291.479248046875 374.498199462890625 0
295.75 381 100 291.479248046875 374.498199462890625 0
275 283.25 0 273.411773681640625 280.5841064453125 0
275 282.75 0 273.411773681640625 280.5841064453125 0
275 282.75 100 273.411773681640625 280.5841064453125 0
275 283.25 100 273.411773681640625 280.5841064453125 0
821.25 416 0 810.18939208984375 409.397308349609375 0
820.75 416 0 810.18939208984375 409.397308349609375 0
820.75 416 100 810.18939208984375 409.397308349609375 0
821.25 416 100 810.18939208984375 409.397308349609375 0
10 307.25 0 8.89473724365234375 304.015777587890625 0
10 306.75 0 8.89473724365234375 304.015777587890625 0
10 306.75 100 8.89473724365234375 304.015777587890625 0
10 307.25 100 8.89473724365234375 304.015777587890625 0
105 307.25 0 104.894737243652344 304.015777587890625 0
105 306.75 0 104.894737243652344 304.015777587890625 0
105 306.75 100 104.894737243652344 304.015777587890625 0
105 307.25 100 104.894737243652344 304.015777587890625 0
415 333.25 0 410.70635986328125 330.60516357421875 0
415 332.75 0 410.70635986328125 330.60516357421875 0
415 332.75 100 410.70635986328125 330.60516357421875 0
415 333.25 100 410.70635986328125 330.60516357421875 0
541 333.25 0 537.70635986328125 330.60516357421875 0
541 332.75 0 537.70635986328125 330.60516357421875 0
541 332.75 100 537.70635986328125 330.60516357421875 0
541 333.25 100 537.70635986328125 330.60516357421875 0
184.75 427 0 181.605316162109375 420.731903076171875 0
185.25 427 0 181.605316162109375 420.731903076171875 0
185.25 427 100 181.605316162109375 420.731903076171875 0
184.75 427 100 181.605316162109375 420.731903076171875 0
295.75 92 0 291.753387451171875 89.7567596435546875 0
296.25 92 0 291.753387451171875 89.7567596435546875 0
296.25 92 100 291.753387451171875 89.7567596435546875 0
295.75 92 100 291.753387451171875 89.7567596435546875 0
295.75 166 0 291.753387451171875 164.756759643554688 0
296.25 166 0 291.753387451171875 164.756759643554688 0
296.25 166 100 291.753387451171875 164.756759643554688 0
295.75 166 100 291.753387451171875 164.756759643554688 0
325 450.25 0 314.888885498046875 434.856842041015625 0
325 449.75 0 314.888885498046875 434.856842041015625 0
325 449.75 100 314.888885498046875 434.856842041015625 0
325 450.25 100 314.888885498046875 434.856842041015625 0
499 409.75 0 478.621368408203125 393.837371826171875 0
499 410.25 0 478.621368408203125 393.837371826171875 0
499 410.25 100 478.621368408203125 393.837371826171875 0
499 409.75 100 478.621368408203125 393.837371826171875 0
415.25 409 0 405.183319091796875 398.0848388671875 0
414.75 409 0 405.183319091796875 398.0848388671875 0
414.75 409 100 405.183319091796875 398.0848388671875 0
415.25 409 100 405.183319091796875 398.0848388671875 0
580.25 182 0 578.0828857421875 180.320266723632812 0
579.75 182 0 578.0828857421875 180.320266723632812 0
579.75 182 100 578.0828857421875 180.320266723632812 0
580.25 182 100 578.0828857421875 180.320266723632812 0
202 90.25 0 199.170608520507812 88.5391006469726562 0
202 89.75 0 199.170608520507812 88.5391006469726562 0
202 89.75 100 199.170608520507812 88.5391006469726562 0
202 90.25 100 199.170608520507812 88.5391006469726562 0
407 182.25 0 405.01690673828125 181.809783935546875 0
407 181.75 0 405.01690673828125 181.809783935546875 0
407 181.75 100 405.01690673828125 181.809783935546875 0
407 182.25 100 405.01690673828125 181.809783935546875 0
821 182.25 0 820.01690673828125 181.809783935546875 0
821 181.75 0 820.01690673828125 181.809783935546875 0
821 181.75 100 820.01690673828125 181.809783935546875 0
821 182.25 100 820.01690673828125 181.809783935546875 0
148.75 215 0 147.5623779296875 214.283432006835938 0
149.25 215 0 147.5623779296875 214.283432006835938 0
149.25 215 100 147.5623779296875 214.283432006835938 0
148.75 215 100 147.5623779296875 214.283432006835938 0
149.25 472.25 0 0 0 -1
148.75 471.75 0 0 0 -1
148.75 367 0 0 0 -1
149.25 367 0 0 0 -1
149.25 472.25 100 0 0 1
148.75 471.75 100 0 0 1
148.75 367 100 0 0 1
149.25 367 100 0 0 1
148.75 471.75 0 0 0 -1
149.25 472.25 0 0 0 -1
114 472.25 0 0 0 -1
114 471.75 0 0 0 -1
148.75 471.75 100 0 0 1
149.25 472.25 100 0 0 1
114 472.25 100 0 0 1
114 471.75 100 0 0 1
525.25 410.25 0 0 0 -1
524.75 409.75 0 0 0 -1
524.75 182 0 0 0 -1
525.25 182 0 0 0 -1
525.25 410.25 100 0 0 1
524.75 409.75 100 0 0 1
524.75 182 100 0 0 1
525.25 182 100 0 0 1
524.75 409.75 0 0 0 -1
525.25 410.25 0 0 0 -1
499 410.25 0 0 0 -1
499 409.75 0 0 0 -1
524.75 409.75 100 0 0 1
525.25 410.25 100 0 0 1
499 410.25 100 0 0 1
499 409.75 100 0 0 1
295 307.25 0 0 0 -1
295 306.75 0 0 0 -1
416 306.75 0 0 0 -1
416 307.25 0 0 0 -1
295 307.25 100 0 0 1
295 306.75 100 0 0 1
416 306.75 100 0 0 1
416 307.25 100 0 0 1
432.25 410 0 0 0 -1
431.75 410 0 0 0 -1
431.75 334 0 0 0 -1
432.25 334 0 0 0 -1
432.25 410 100 0 0 1
431.75 410 100 0 0 1
431.75 334 100 0 0 1
432.25 334 100 0 0 1
10 368.25 0 0 0 -1
10 367.75 0 0 0 -1
185.25 367.75 0 0 0 -1
184.75 368.25 0 0 0 -1
10 368.25 100 0 0 1
10 367.75 100 0 0 1
185.25 367.75 100 0 0 1
184.75 368.25 100 0 0 1
184.75 368.25 0 0 0 -1
185.25 367.75 0 0 0 -1
185.25 427 0 0 0 -1
184.75 427 0 0 0 -1
184.75 368.25 100 0 0 1
185.25 367.75 100 0 0 1
185.25 427 100 0 0 1
184.75 427 100 0 0 1
275 90.25 0 0 0 -1
275 89.75 0 0 0 -1
308 89.75 0 0 0 -1
308 90.25 0 0 0 -1
275 90.25 100 0 0 1
275 89.75 100 0 0 1
308 89.75 100 0 0 1
308 90.25 100 0 0 1
385 450.25 0 0 0 -1
385 449.75 0 0 0 -1
414.75 449.75 0 0 0 -1
415.25 450.25 0 0 0 -1
385 450.25 100 0 0 1
385 449.75 100 0 0 1
414.75 449.75 100 0 0 1
415.25 450.25 100 0 0 1
415.25 450.25 0 0 0 -1
414.75 449.75 0 0 0 -1
414.75 409 0 0 0 -1
415.25 409 0 0 0 -1
415.25 450.25 100 0 0 1
414.75 449.75 100 0 0 1
414.75 409 100 0 0 1
415.25 409 100 0 0 1
703.25 489.75 0 0 0 -1
702.75 490.25 0 0 0 -1
702.75 450.25 0 0 0 -1
703.25 449.75 0 0 0 -1
703.25 489.75 100 0 0 1
702.75 490.25 100 0 0 1
702.75 450.25 100 0 0 1
703.25 449.75 100 0 0 1
702.75 490.25 0 0 0 -1
703.25 489.75 0 0 0 -1
820.75 489.75 0 0 0 -1
821.25 490.25 0 0 0 -1
702.75 490.25 100 0 0 1
703.25 489.75 100 0 0 1
820.75 489.75 100 0 0 1
821.25 490.25 100 0 0 1
703.25 449.75 0 0 0 -1
702.75 450.25 0 0 0 -1
579.75 450.25 0 0 0 -1
580.25 449.75 0 0 0 -1
703.25 449.75 100 0 0 1
702.75 450.25 100 0 0 1
579.75 450.25 100 0 0 1
580.25 449.75 100 0 0 1
8.75 472.25 0 0 0 -1
9.25 471.75 0 0 0 -1
43 471.75 0 0 0 -1
43 472.25 0 0 0 -1
8.75 472.25 100 0 0 1
9.25 471.75 100 0 0 1
43 471.75 100 0 0 1
43 472.25 100 0 0 1
9.25 471.75 0 0 0 -1
8.75 472.25 0 0 0 -1
8.75 233 0 0 0 -1
9.25 233 0 0 0 -1
9.25 471.75 100 0 0 1
8.75 472.25 100 0 0 1
8.75 233 100 0 0 1
9.25 233 100 0 0 1
65.25 366 0 0 0 -1
64.75 366 0 0 0 -1
64.75 306 0 0 0 -1
65.25 306 0 0 0 -1
65.25 366 100 0 0 1
64.75 366 100 0 0 1
64.75 306 100 0 0 1
65.25 306 100 0 0 1
821.25 490.25 0 0 0 -1
820.75 489.75 0 0 0 -1
820.75 416 0 0 0 -1
821.25 416 0 0 0 -1
821.25 490.25 100 0 0 1
820.75 489.75 100 0 0 1
820.75 416 100 0 0 1
821.25 416 100 0 0 1
580.25 449.75 0 0 0 -1
579.75 450.25 0 0 0 -1
579.75 182 0 0 0 -1
580.25 182 0 0 0 -1
580.25 449.75 100 0 0 1
579.75 450.25 100 0 0 1
579.75 182 100 0 0 1
580.25 182 100 0 0 1
79 163.25 0 0 0 -1
79 162.75 0 0 0 -1
169.25 162.75 0 0 0 -1
168.75 163.25 0 0 0 -1
79 163.25 100 0 0 1
79 162.75 100 0 0 1
169.25 162.75 100 0 0 1
168.75 163.25 100 0 0 1
168.75 163.25 0 0 0 -1
169.25 162.75 0 0 0 -1
169.25 282.75 0 0 0 -1
168.75 283.25 0 0 0 -1
168.75 163.25 100 0 0 1
169.25 162.75 100 0 0 1
169.25 282.75 100 0 0 1
168.75 283.25 100 0 0 1
220.75 386 0 0 0 -1
221.25 386 0 0 0 -1
221.25 461 0 0 0 -1
220.75 461 0 0 0 -1
220.75 386 100 0 0 1
221.25 386 100 0 0 1
221.25 461 100 0 0 1
220.75 461 100 0 0 1
295.75 381 0 0 0 -1
296.25 381 0 0 0 -1
296.25 449.75 0 0 0 -1
295.75 450.25 0 0 0 -1
295.75 381 100 0 0 1
296.25 381 100 0 0 1
296.25 449.75 100 0 0 1
295.75 450.25 100 0 0 1
295.75 450.25 0 0 0 -1
296.25 449.75 0 0 0 -1
325 449.75 0 0 0 -1
325 450.25 0 0 0 -1
295.75 450.25 100 0 0 1
296.25 449.75 100 0 0 1
325 449.75 100 0 0 1
325 450.25 100 0 0 1
168.75 283.25 0 0 0 -1
169.25 282.75 0 0 0 -1
275 282.75 0 0 0 -1
275 283.25 0 0 0 -1
168.75 283.25 100 0 0 1
169.25 282.75 100 0 0 1
275 282.75 100 0 0 1
275 283.25 100 0 0 1
10 307.25 0 0 0 -1
10 306.75 0 0 0 -1
105 306.75 0 0 0 -1
105 307.25 0 0 0 -1
10 307.25 100 0 0 1
10 306.75 100 0 0 1
105 306.75 100 0 0 1
105 307.25 100 0 0 1
415 333.25 0 0 0 -1
415 332.75 0 0 0 -1
541 332.75 0 0 0 -1
541 333.25 0 0 0 -1
415 333.25 100 0 0 1
415 332.75 100 0 0 1
541 332.75 100 0 0 1
541 333.25 100 0 0 1
295.75 92 0 0 0 -1
296.25 92 0 0 0 -1
296.25 166 0 0 0 -1
295.75 166 0 0 0 -1
295.75 92 100 0 0 1
296.25 92 100 0 0 1
296.25 166 100 0 0 1
295.75 166 100 0 0 1
149.25 90.25 0 0 0 -1
148.75 89.75 0 0 0 -1
202 89.75 0 0 0 -1
202 90.25 0 0 0 -1
149.25 90.25 100 0 0 1
148.75 89.75 100 0 0 1
202 89.75 100 0 0 1
202 90.25 100 0 0 1
148.75 89.75 0 0 0 -1
149.25 90.25 0 0 0 -1
149.25 215 0 0 0 -1
148.75 215 0 0 0 -1
148.75 89.75 100 0 0 1
149.25 90.25 100 0 0 1
149.25 215 100 0 0 1
148.75 215 100 0 0 1
407 182.25 0 0 0 -1
407 181.75 0 0 0 -1
821 181.75 0 0 0 -1
821 182.25 0 0 0 -1
407 182.25 100 0 0 1
407 181.75 100 0 0 1
821 181.75 100 0 0 1
821 182.25 100 0 0 1
4 0 1 2 3
4 4 5 6 7
4 8 9 10 11
4 12 13 14 15
4 16 17 18 19
4 20 21 22 23
4 24 25 26 27
4 28 29 30 31
4 32 33 34 35
4 36 37 38 39
4 40 41 42 43
4 44 45 46 47
4 48 49 50 51
4 52 53 54 55
4 56 57 58 59
4 60 61 62 63
4 64 65 66 67
4 68 69 70 71
4 72 73 74 75
4 76 77 78 79
4 80 81 82 83
4 84 85 86 87
4 88 89 90 91
4 92 93 94 95
4 96 97 98 99
4 100 101 102 103
4 104 105 106 107
4 108 109 110 111
4 112 113 114 115
4 116 117 118 119
4 120 121 122 123
4 124 125 126 127
4 128 129 130 131
4 132 133 134 135
4 136 137 138 139
4 140 141 142 143
4 144 145 146 147
4 148 149 150 151
4 152 153 154 155
4 156 157 158 159
4 160 161 162 163
4 164 165 166 167
4 168 169 170 171
4 172 173 174 175
4 176 177 178 179
4 180 181 182 183
4 184 185 186 187
4 188 189 190 191
4 192 193 194 195
4 196 197 198 199
4 200 201 202 203
4 204 205 206 207
4 208 209 210 211
4 212 213 214 215
4 216 217 218 219
4 220 221 222 223
4 224 225 226 227
4 228 229 230 231
4 232 233 234 235
4 236 237 238 239
4 240 241 242 243
4 244 245 246 247
4 248 249 250 251
4 252 253 254 255
4 256 257 258 259
4 260 261 262 263
4 264 265 266 267
4 268 269 270 271
4 272 273 274 275
4 276 277 278 279
4 280 281 282 283
4 284 285 286 287
4 288 289 290 291
4 292 293 294 295
4 296 297 298 299
4 300 301 302 303
4 304 305 306 307
4 308 309 310 311
4 312 313 314 315
4 316 317 318 319
4 320 321 322 323
4 324 325 326 327
4 328 329 330 331
4 332 333 334 335
4 336 337 338 339
4 340 341 342 343
4 344 345 346 347
4 348 349 350 351
4 352 353 354 355
4 356 357 358 359
4 360 361 362 363
4 364 365 366 367
4 368 369 370 371
4 372 373 374 375
4 376 377 378 379
4 380 381 382 383
4 384 385 386 387
4 388 389 390 391
4 392 393 394 395
4 396 397 398 399
4 400 401 402 403
4 404 405 406 407
4 408 409 410 411
4 412 413 414 415
4 416 417 418 419
4 420 421 422 423
4 424 425 426 427
4 428 429 430 431
4 432 433 434 435
4 436 437 438 439
4 440 441 442 443
4 444 445 446 447
4 448 449 450 451
4 452 453 454 455
4 456 457 458 459
4 460 461 462 463
4 464 465 466 467
4 468 469 470 471
4 472 473 474 475
4 476 477 478 479
4 480 481 482 483
4 484 485 486 487
4 488 489 490 491
4 492 493 494 495
4 496 497 498 499
4 500 501 502 503
4 504 505 506 507
4 508 509 510 511
4 512 513 514 515
4 516 517 518 519
4 520 521 522 523
4 524 525 526 527
4 528 529 530 531
4 532 533 534 535
4 536 537 538 539
4 540 541 542 543
4 544 545 546 547
4 548 549 550 551
4 552 553 554 555
4 556 557 558 559
4 560 561 562 563
4 564 565 566 567
4 568 569 570 571
4 572 573 574 575
4 576 577 578 579
4 580 581 582 583
4 584 585 586 587
4 588 589 590 591
4 592 593 594 595
4 596 597 598 599
4 600 601 602 603
4 604 605 606 607
4 608 609 610 611
4 612 613 614 615
4 616 617 618 619
4 620 621 622 623
4 624 625 626 627
4 628 629 630 631
4 632 633 634 635
4 636 637 638 639
