ply
format ascii 1.0
element vertex 600
property float x
property float y
property float z
property float nx
property float ny
property float nz
element quads 150
property list uchar int vertex_indices
end_header
618 206 0 1 0 0
618 114 0 1 0 0
618 114 100 1 0 0
618 206 100 1 0 0
612 206 0 -1 -0 0
612 108 0 -1 -0 0
612 108 100 -1 -0 0
612 206 100 -1 -0 0
618 114 0 -0 1 0
629 114 0 -0 1 0
629 114 100 -0 1 0
618 114 100 -0 1 0
612 108 0 0 -1 0
629 108 0 0 -1 0
629 108 100 0 -1 0
612 108 100 0 -1 0
617.65753173828125 373 0 1 0 0
617.65753173828125 362 0 1 0 0
617.65753173828125 362 100 1 0 0
617.65753173828125 373 100 1 0 0
611.65753173828125 373 0 -1 -0 0
611.65753173828125 362 0 -1 -0 0
611.65753173828125 362 100 -1 -0 0
611.65753173828125 373 100 -1 -0 0
617.65753173828125 336 0 1 0 0
617.65753173828125 269 0 1 0 0
617.65753173828125 269 100 1 0 0
617.65753173828125 336 100 1 0 0
611.65753173828125 336 0 -1 -0 0
611.65753173828125 269 0 -1 -0 0
611.65753173828125 269 100 -1 -0 0
611.65753173828125 336 100 -1 -0 0
618 67 0 1 0 0
618 34 0 1 0 0
618 34 100 1 0 0
618 67 100 1 0 0
612 73 0 -1 -0 0
612 34 0 -1 -0 0
612 34 100 -1 -0 0
612 73 100 -1 -0 0
612 73 0 -0 1 0
626 73 0 -0 1 0
626 73 100 -0 1 0
612 73 100 -0 1 0
618 67 0 0 -1 0
632 67 0 0 -1 0
632 67 100 0 -1 0
618 67 100 0 -1 0
617.65753173828125 245 0 1 0 0
617.65753173828125 231 0 1 0 0
617.65753173828125 231 100 1 0 0
617.65753173828125 245 100 1 0 0
611.65753173828125 245 0 -1 -0 0
611.65753173828125 231 0 -1 -0 0
611.65753173828125 231 100 -1 -0 0
611.65753173828125 245 100 -1 -0 0
180.435821533203125 246 0 1 0 0
180.435821533203125 191 0 1 0 0
180.435821533203125 191 100 1 0 0
180.435821533203125 246 100 1 0 0
174.435821533203125 246 0 -1 -0 0
174.435821533203125 191 0 -1 -0 0
174.435821533203125 191 100 -1 -0 0
174.435821533203125 246 100 -1 -0 0
180.435821533203125 341 0 1 0 0
180.435821533203125 264 0 1 0 0
180.435821533203125 264 100 1 0 0
180.435821533203125 341 100 1 0 0
174.435821533203125 341 0 -1 -0 0
174.435821533203125 264 0 -1 -0 0
174.435821533203125 264 100 -1 -0 0
174.435821533203125 341 100 -1 -0 0
180.435821533203125 173 0 1 0 0
180.435821533203125 158 0 1 0 0
180.435821533203125 158 100 1 0 0
180.435821533203125 173 100 1 0 0
174.435821533203125 173 0 -1 -0 0
174.435821533203125 158 0 -1 -0 0
174.435821533203125 158 100 -1 -0 0
174.435821533203125 173 100 -1 -0 0
180.435821533203125 373 0 1 0 0
180.435821533203125 359 0 1 0 0
180.435821533203125 359 100 1 0 0
180.435821533203125 373 100 1 0 0
174.435821533203125 373 0 -1 -0 0
174.435821533203125 359 0 -1 -0 0
174.435821533203125 359 100 -1 -0 0
174.435821533203125 373 100 -1 -0 0
571 30.7543869018554688 0 -0 -1 0
508 30.7543869018554688 0 -0 -1 0
508 30.7543869018554688 100 -0 -1 0
571 30.7543869018554688 100 -0 -1 0
571 36.7543869018554688 0 0 1 0
508 36.7543869018554688 0 0 1 0
508 36.7543869018554688 100 0 1 0
571 36.7543869018554688 100 0 1 0
483 30.7543869018554688 0 -0 -1 0
464 30.7543869018554688 0 -0 -1 0
464 30.7543869018554688 100 -0 -1 0
483 30.7543869018554688 100 -0 -1 0
483 36.7543869018554688 0 0 1 0
464 36.7543869018554688 0 0 1 0
464 36.7543869018554688 100 0 1 0
483 36.7543869018554688 100 0 1 0
615 30.7543869018554688 0 -0 -1 0
596 30.7543869018554688 0 -0 -1 0
596 30.7543869018554688 100 -0 -1 0
615 30.7543869018554688 100 -0 -1 0
615 36.7543869018554688 0 0 1 0
596 36.7543869018554688 0 0 1 0
596 36.7543869018554688 100 0 1 0
615 36.7543869018554688 100 0 1 0
518 529.6654052734375 0 -0 -1 0
458 529.6654052734375 0 -0 -1 0
458 529.6654052734375 100 -0 -1 0
518 529.6654052734375 100 -0 -1 0
518 535.6654052734375 0 0 1 0
458 535.6654052734375 0 0 1 0
458 535.6654052734375 100 0 1 0
518 535.6654052734375 100 0 1 0
408 368 0 -0 -1 0
393 368 0 -0 -1 0
393 368 100 -0 -1 0
408 368 100 -0 -1 0
408 374 0 0 1 0
393 374 0 0 1 0
393 374 100 0 1 0
408 374 100 0 1 0
287 368 0 -0 -1 0
269 368 0 -0 -1 0
269 368 100 -0 -1 0
287 368 100 -0 -1 0
287 374 0 0 1 0
275 374 0 0 1 0
275 374 100 0 1 0
287 374 100 0 1 0
269 368 0 -1 0 0
269 411 0 -1 0 0
269 411 100 -1 0 0
269 368 100 -1 0 0
275 374 0 1 -0 0
275 411 0 1 -0 0
275 411 100 1 -0 0
275 374 100 1 -0 0
458 367.797210693359375 0 -0 -1 0
442 367.797210693359375 0 -0 -1 0
442 367.797210693359375 100 -0 -1 0
458 367.797210693359375 100 -0 -1 0
458 373.797210693359375 0 0 1 0
442 373.797210693359375 0 0 1 0
442 373.797210693359375 100 0 1 0
458 373.797210693359375 100 0 1 0
461 402 0 1 0 0
461 371 0 1 0 0
461 371 100 1 0 0
461 402 100 1 0 0
455 402 0 -1 -0 0
455 371 0 -1 -0 0
455 371 100 -1 -0 0
455 402 100 -1 -0 0
395.506500244140625 371 0 1 0 0
395.506500244140625 333 0 1 0 0
395.506500244140625 333 100 1 0 0
395.506500244140625 371 100 1 0 0
389.506500244140625 371 0 -1 -0 0
389.506500244140625 333 0 -1 -0 0
389.506500244140625 333 100 -1 -0 0
389.506500244140625 371 100 -1 -0 0
518 540 0 -0 -1 0
507 540 0 -0 -1 0
507 540 100 -0 -1 0
518 540 100 -0 -1 0
518 546 0 0 1 0
507 546 0 0 1 0
507 546 100 0 1 0
518 546 100 0 1 0
611.6575927734375 398.98516845703125 0 -0.999987781047821045 -0.00494380621239542961 0
611.01458740234375 529.0386962890625 0 -0.999987781047821045 -0.00494380621239542961 0
611.01458740234375 529.0386962890625 100 -0.999987781047821045 -0.00494380621239542961 0
611.6575927734375 398.98516845703125 100 -0.999987781047821045 -0.00494380621239542961 0
617.657470703125 399.01483154296875 0 0.999987781047821045 0.00494380621239542961 0
616.98541259765625 534.9613037109375 0 0.999987781047821045 0.00494380621239542961 0
616.98541259765625 534.9613037109375 100 0.999987781047821045 0.00494380621239542961 0
617.657470703125 399.01483154296875 100 0.999987781047821045 0.00494380621239542961 0
611.01458740234375 529.0386962890625 0 -0.0130456471815705299 -0.999914884567260742 0
562.96087646484375 529.6656494140625 0 -0.0130456471815705299 -0.999914884567260742 0
562.96087646484375 529.6656494140625 100 -0.0130456471815705299 -0.999914884567260742 0
611.01458740234375 529.0386962890625 100 -0.0130456471815705299 -0.999914884567260742 0
616.98541259765625 534.9613037109375 0 0.0130456471815705299 0.999914884567260742 0
563.03912353515625 535.66510009765625 0 0.0130456471815705299 0.999914884567260742 0
563.03912353515625 535.66510009765625 100 0.0130456471815705299 0.999914884567260742 0
616.98541259765625 534.9613037109375 100 0.0130456471815705299 0.999914884567260742 0
336.1492919921875 373.793487548828125 0 0.0497634448111057281 0.99876105785369873 0
355 372.854248046875 0 0.0497634448111057281 0.99876105785369873 0
355 372.854248046875 100 0.0497634448111057281 0.99876105785369873 0
336.1492919921875 373.793487548828125 100 0.0497634448111057281 0.99876105785369873 0
335.8507080078125 367.800933837890625 0 -0.0497634448111057281 -0.99876105785369873 0
349 367.145751953125 0 -0.0497634448111057281 -0.99876105785369873 0
349 367.145751953125 100 -0.0497634448111057281 -0.99876105785369873 0
335.8507080078125 367.800933837890625 100 -0.0497634448111057281 -0.99876105785369873 0
355 372.854248046875 0 1 0 0
355 332 0 1 0 0
355 332 100 1 0 0
355 372.854248046875 100 1 0 0
349 367.145751953125 0 -1 -0 0
349 332 0 -1 -0 0
349 332 100 -1 -0 0
349 367.145751953125 100 -1 -0 0
632 110 0 1 0 0
632 67 0 1 0 0
632 67 100 1 0 0
632 110 100 1 0 0
626 110 0 -1 -0 0
626 73 0 -1 -0 0
626 73 100 -1 -0 0
626 110 100 -1 -0 0
618 206 0 611.2825927734375 204.7608642578125 0
612 206 0 611.2825927734375 204.7608642578125 0
612 206 100 611.2825927734375 204.7608642578125 0
618 206 100 611.2825927734375 204.7608642578125 0
617.65753173828125 373 0 561.5068359375 340.090911865234375 0
611.65753173828125 373 0 561.5068359375 340.090911865234375 0
611.65753173828125 373 100 561.5068359375 340.090911865234375 0
617.65753173828125 373 100 561.5068359375 340.090911865234375 0
617.65753173828125 362 0 561.5068359375 328.090911865234375 0
611.65753173828125 362 0 561.5068359375 328.090911865234375 0
611.65753173828125 362 100 561.5068359375 328.090911865234375 0
617.65753173828125 362 100 561.5068359375 328.090911865234375 0
617.65753173828125 336 0 608.43878173828125 331.985076904296875 0
611.65753173828125 336 0 608.43878173828125 331.985076904296875 0
611.65753173828125 336 100 608.43878173828125 331.985076904296875 0
617.65753173828125 336 100 608.43878173828125 331.985076904296875 0
617.65753173828125 269 0 608.43878173828125 263.985076904296875 0
611.65753173828125 269 0 608.43878173828125 263.985076904296875 0
611.65753173828125 269 100 608.43878173828125 263.985076904296875 0
617.65753173828125 269 100 608.43878173828125 263.985076904296875 0
618 34 0 599.272705078125 31.969696044921875 0
612 34 0 599.272705078125 31.969696044921875 0
612 34 100 599.272705078125 31.969696044921875 0
618 34 100 599.272705078125 31.969696044921875 0
617.65753173828125 245 0 573.53912353515625 228.5 0
611.65753173828125 245 0 573.53912353515625 228.5 0
611.65753173828125 245 100 573.53912353515625 228.5 0
617.65753173828125 245 100 573.53912353515625 228.5 0
617.65753173828125 231 0 573.53912353515625 213.5 0
611.65753173828125 231 0 573.53912353515625 213.5 0
611.65753173828125 231 100 573.53912353515625 213.5 0
617.65753173828125 231 100 573.53912353515625 213.5 0
180.435821533203125 246 0 177.155166625976562 242.527267456054688 0
174.435821533203125 246 0 177.155166625976562 242.527267456054688 0
174.435821533203125 246 100 177.155166625976562 242.527267456054688 0
180.435821533203125 246 100 177.155166625976562 242.527267456054688 0
180.435821533203125 191 0 177.155166625976562 186.527267456054688 0
174.435821533203125 191 0 177.155166625976562 186.527267456054688 0
174.435821533203125 191 100 177.155166625976562 186.527267456054688 0
180.435821533203125 191 100 177.155166625976562 186.527267456054688 0
180.435821533203125 341 0 178.092498779296875 337.571441650390625 0
174.435821533203125 341 0 178.092498779296875 337.571441650390625 0
174.435821533203125 341 100 178.092498779296875 337.571441650390625 0
180.435821533203125 341 100 178.092498779296875 337.571441650390625 0
180.435821533203125 264 0 178.092498779296875 259.571441650390625 0
174.435821533203125 264 0 178.092498779296875 259.571441650390625 0
174.435821533203125 264 100 178.092498779296875 259.571441650390625 0
180.435821533203125 264 100 178.092498779296875 259.571441650390625 0
180.435821533203125 173 0 168.406768798828125 162.466659545898438 0
174.435821533203125 173 0 168.406768798828125 162.466659545898438 0
174.435821533203125 173 100 168.406768798828125 162.466659545898438 0
180.435821533203125 173 100 168.406768798828125 162.466659545898438 0
180.435821533203125 158 0 168.406768798828125 146.466659545898438 0
174.435821533203125 158 0 168.406768798828125 146.466659545898438 0
174.435821533203125 158 100 168.406768798828125 146.466659545898438 0
180.435821533203125 158 100 168.406768798828125 146.466659545898438 0
180.435821533203125 373 0 167.54754638671875 347.357147216796875 0
174.435821533203125 373 0 167.54754638671875 347.357147216796875 0
174.435821533203125 373 100 167.54754638671875 347.357147216796875 0
180.435821533203125 373 100 167.54754638671875 347.357147216796875 0
180.435821533203125 359 0 167.54754638671875 332.357147216796875 0
174.435821533203125 359 0 167.54754638671875 332.357147216796875 0
174.435821533203125 359 100 167.54754638671875 332.357147216796875 0
180.435821533203125 359 100 167.54754638671875 332.357147216796875 0
571 30.7543869018554688 0 562.9365234375 30.2662220001220703 0
571 36.7543869018554688 0 562.9365234375 30.2662220001220703 0
571 36.7543869018554688 100 562.9365234375 30.2662220001220703 0
571 30.7543869018554688 100 562.9365234375 30.2662220001220703 0
508 30.7543869018554688 0 498.936492919921875 30.2662220001220703 0
508 36.7543869018554688 0 498.936492919921875 30.2662220001220703 0
508 36.7543869018554688 100 498.936492919921875 30.2662220001220703 0
508 30.7543869018554688 100 498.936492919921875 30.2662220001220703 0
483 30.7543869018554688 0 458.578948974609375 29.1357345581054688 0
483 36.7543869018554688 0 458.578948974609375 29.1357345581054688 0
483 36.7543869018554688 100 458.578948974609375 29.1357345581054688 0
483 30.7543869018554688 100 458.578948974609375 29.1357345581054688 0
464 30.7543869018554688 0 438.578948974609375 29.1357345581054688 0
464 36.7543869018554688 0 438.578948974609375 29.1357345581054688 0
464 36.7543869018554688 100 438.578948974609375 29.1357345581054688 0
464 30.7543869018554688 100 438.578948974609375 29.1357345581054688 0
615 30.7543869018554688 0 583.631591796875 29.1357345581054688 0
615 36.7543869018554688 0 583.631591796875 29.1357345581054688 0
615 36.7543869018554688 100 583.631591796875 29.1357345581054688 0
615 30.7543869018554688 100 583.631591796875 29.1357345581054688 0
596 30.7543869018554688 0 563.631591796875 29.1357345581054688 0
596 36.7543869018554688 0 563.631591796875 29.1357345581054688 0
596 36.7543869018554688 100 563.631591796875 29.1357345581054688 0
596 30.7543869018554688 100 563.631591796875 29.1357345581054688 0
518 529.6654052734375 0 510.366668701171875 520.837646484375 0
518 535.6654052734375 0 510.366668701171875 520.837646484375 0
518 535.6654052734375 100 510.366668701171875 520.837646484375 0
518 529.6654052734375 100 510.366668701171875 520.837646484375 0
458 529.6654052734375 0 449.366668701171875 520.837646484375 0
458 535.6654052734375 0 449.366668701171875 520.837646484375 0
458 535.6654052734375 100 449.366668701171875 520.837646484375 0
458 529.6654052734375 100 449.366668701171875 520.837646484375 0
408 368 0 381.79998779296875 343.4666748046875 0
408 374 0 381.79998779296875 343.4666748046875 0
408 374 100 381.79998779296875 343.4666748046875 0
408 368 100 381.79998779296875 343.4666748046875 0
393 368 0 365.79998779296875 343.4666748046875 0
393 374 0 365.79998779296875 343.4666748046875 0
393 374 100 365.79998779296875 343.4666748046875 0
393 368 100 365.79998779296875 343.4666748046875 0
287 368 0 272.0555419921875 347.5555419921875 0
287 374 0 272.0555419921875 347.5555419921875 0
287 374 100 272.0555419921875 347.5555419921875 0
287 368 100 272.0555419921875 347.5555419921875 0
458 367.797210693359375 0 430.375 344.80987548828125 0
458 373.797210693359375 0 430.375 344.80987548828125 0
458 373.797210693359375 100 430.375 344.80987548828125 0
458 367.797210693359375 100 430.375 344.80987548828125 0
442 367.797210693359375 0 413.375 344.80987548828125 0
442 373.797210693359375 0 413.375 344.80987548828125 0
442 373.797210693359375 100 413.375 344.80987548828125 0
442 367.797210693359375 100 413.375 344.80987548828125 0
269 411 0 262.744171142578125 402.441864013671875 0
275 411 0 262.744171142578125 402.441864013671875 0
275 411 100 262.744171142578125 402.441864013671875 0
269 411 100 262.744171142578125 402.441864013671875 0
461 402 0 446.1290283203125 390.032257080078125 0
455 402 0 446.1290283203125 390.032257080078125 0
455 402 100 446.1290283203125 390.032257080078125 0
461 402 100 446.1290283203125 390.032257080078125 0
461 371 0 446.1290283203125 358.032257080078125 0
455 371 0 446.1290283203125 358.032257080078125 0
455 371 100 446.1290283203125 358.032257080078125 0
461 371 100 446.1290283203125 358.032257080078125 0
395.506500244140625 371 0 385.098419189453125 362.236846923828125 0
389.506500244140625 371 0 385.098419189453125 362.236846923828125 0
389.506500244140625 371 100 385.098419189453125 362.236846923828125 0
395.506500244140625 371 100 385.098419189453125 362.236846923828125 0
395.506500244140625 333 0 385.098419189453125 323.236846923828125 0
389.506500244140625 333 0 385.098419189453125 323.236846923828125 0
389.506500244140625 333 100 385.098419189453125 323.236846923828125 0
395.506500244140625 333 100 385.098419189453125 323.236846923828125 0
518 540 0 471.909088134765625 490.909088134765625 0
518 546 0 471.909088134765625 490.909088134765625 0
518 546 100 471.909088134765625 490.909088134765625 0
518 540 100 471.909088134765625 490.909088134765625 0
507 540 0 459.909088134765625 490.909088134765625 0
507 546 0 459.909088134765625 490.909088134765625 0
507 546 100 459.909088134765625 490.909088134765625 0
507 540 100 459.909088134765625 490.909088134765625 0
629 114 0 572.81817626953125 103.636360168457031 0
629 108 0 572.81817626953125 103.636360168457031 0
629 108 100 572.81817626953125 103.636360168457031 0
629 114 100 572.81817626953125 103.636360168457031 0
611.6575927734375 398.98516845703125 0 606.95947265625 394.9173583984375 0
617.657470703125 399.01483154296875 0 606.95947265625 394.9173583984375 0
617.657470703125 399.01483154296875 100 606.95947265625 394.9173583984375 0
611.6575927734375 398.98516845703125 100 606.95947265625 394.9173583984375 0
562.96087646484375 529.6656494140625 0 550.2467041015625 518.65728759765625 0
563.03912353515625 535.66510009765625 0 550.2467041015625 518.65728759765625 0
563.03912353515625 535.66510009765625 100 550.2467041015625 518.65728759765625 0
562.96087646484375 529.6656494140625 100 550.2467041015625 518.65728759765625 0
336.1492919921875 373.793487548828125 0 317.3404541015625 354.038665771484375 0
335.8507080078125 367.800933837890625 0 317.3404541015625 354.038665771484375 0
335.8507080078125 367.800933837890625 100 317.3404541015625 354.038665771484375 0
336.1492919921875 373.793487548828125 100 317.3404541015625 354.038665771484375 0
355 332 0 346.310577392578125 322.87353515625 0
349 332 0 346.310577392578125 322.87353515625 0
349 332 100 346.310577392578125 322.87353515625 0
355 332 100 346.310577392578125 322.87353515625 0
632 110 0 617.30230712890625 108.441864013671875 0
626 110 0 617.30230712890625 108.441864013671875 0
626 110 100 617.30230712890625 108.441864013671875 0
632 110 100 617.30230712890625 108.441864013671875 0
618 206 0 0 0 -1
612 206 0 0 0 -1
612 108 0 0 0 -1
618 114 0 0 0 -1
618 206 100 0 0 1
612 206 100 0 0 1
612 108 100 0 0 1
618 114 100 0 0 1
618 114 0 0 0 -1
612 108 0 0 0 -1
629 108 0 0 0 -1
629 114 0 0 0 -1
618 114 100 0 0 1
612 108 100 0 0 1
629 108 100 0 0 1
629 114 100 0 0 1
617.65753173828125 373 0 0 0 -1
611.65753173828125 373 0 0 0 -1
611.65753173828125 362 0 0 0 -1
617.65753173828125 362 0 0 0 -1
617.65753173828125 373 100 0 0 1
611.65753173828125 373 100 0 0 1
611.65753173828125 362 100 0 0 1
617.65753173828125 362 100 0 0 1
617.65753173828125 336 0 0 0 -1
611.65753173828125 336 0 0 0 -1
611.65753173828125 269 0 0 0 -1
617.65753173828125 269 0 0 0 -1
617.65753173828125 336 100 0 0 1
611.65753173828125 336 100 0 0 1
611.65753173828125 269 100 0 0 1
617.65753173828125 269 100 0 0 1
618 67 0 0 0 -1
612 73 0 0 0 -1
612 34 0 0 0 -1
618 34 0 0 0 -1
618 67 100 0 0 1
612 73 100 0 0 1
612 34 100 0 0 1
618 34 100 0 0 1
612 73 0 0 0 -1
618 67 0 0 0 -1
632 67 0 0 0 -1
626 73 0 0 0 -1
612 73 100 0 0 1
618 67 100 0 0 1
632 67 100 0 0 1
626 73 100 0 0 1
617.65753173828125 245 0 0 0 -1
611.65753173828125 245 0 0 0 -1
611.65753173828125 231 0 0 0 -1
617.65753173828125 231 0 0 0 -1
617.65753173828125 245 100 0 0 1
611.65753173828125 245 100 0 0 1
611.65753173828125 231 100 0 0 1
617.65753173828125 231 100 0 0 1
180.435821533203125 246 0 0 0 -1
174.435821533203125 246 0 0 0 -1
174.435821533203125 191 0 0 0 -1
180.435821533203125 191 0 0 0 -1
180.435821533203125 246 100 0 0 1
174.435821533203125 246 100 0 0 1
174.435821533203125 191 100 0 0 1
180.435821533203125 191 100 0 0 1
180.435821533203125 341 0 0 0 -1
174.435821533203125 341 0 0 0 -1
174.435821533203125 264 0 0 0 -1
180.435821533203125 264 0 0 0 -1
180.435821533203125 341 100 0 0 1
174.435821533203125 341 100 0 0 1
174.435821533203125 264 100 0 0 1
180.435821533203125 264 100 0 0 1
180.435821533203125 173 0 0 0 -1
174.435821533203125 173 0 0 0 -1
174.435821533203125 158 0 0 0 -1
180.435821533203125 158 0 0 0 -1
180.435821533203125 173 100 0 0 1
174.435821533203125 173 100 0 0 1
174.435821533203125 158 100 0 0 1
180.435821533203125 158 100 0 0 1
180.435821533203125 373 0 0 0 -1
174.435821533203125 373 0 0 0 -1
174.435821533203125 359 0 0 0 -1
180.435821533203125 359 0 0 0 -1
180.435821533203125 373 100 0 0 1
174.435821533203125 373 100 0 0 1
174.435821533203125 359 100 0 0 1
180.435821533203125 359 100 0 0 1
571 30.7543869018554688 0 0 0 -1
571 36.7543869018554688 0 0 0 -1
508 36.7543869018554688 0 0 0 -1
508 30.7543869018554688 0 0 0 -1
571 30.7543869018554688 100 0 0 1
571 36.7543869018554688 100 0 0 1
508 36.7543869018554688 100 0 0 1
508 30.7543869018554688 100 0 0 1
483 30.7543869018554688 0 0 0 -1
483 36.7543869018554688 0 0 0 -1
464 36.7543869018554688 0 0 0 -1
464 30.7543869018554688 0 0 0 -1
483 30.7543869018554688 100 0 0 1
483 36.7543869018554688 100 0 0 1
464 36.7543869018554688 100 0 0 1
464 30.7543869018554688 100 0 0 1
615 30.7543869018554688 0 0 0 -1
615 36.7543869018554688 0 0 0 -1
596 36.7543869018554688 0 0 0 -1
596 30.7543869018554688 0 0 0 -1
615 30.7543869018554688 100 0 0 1
615 36.7543869018554688 100 0 0 1
596 36.7543869018554688 100 0 0 1
596 30.7543869018554688 100 0 0 1
518 529.6654052734375 0 0 0 -1
518 535.6654052734375 0 0 0 -1
458 535.6654052734375 0 0 0 -1
458 529.6654052734375 0 0 0 -1
518 529.6654052734375 100 0 0 1
518 535.6654052734375 100 0 0 1
458 535.6654052734375 100 0 0 1
458 529.6654052734375 100 0 0 1
408 368 0 0 0 -1
408 374 0 0 0 -1
393 374 0 0 0 -1
393 368 0 0 0 -1
408 368 100 0 0 1
408 374 100 0 0 1
393 374 100 0 0 1
393 368 100 0 0 1
287 368 0 0 0 -1
287 374 0 0 0 -1
275 374 0 0 0 -1
269 368 0 0 0 -1
287 368 100 0 0 1
287 374 100 0 0 1
275 374 100 0 0 1
269 368 100 0 0 1
269 368 0 0 0 -1
275 374 0 0 0 -1
275 411 0 0 0 -1
269 411 0 0 0 -1
269 368 100 0 0 1
275 374 100 0 0 1
275 411 100 0 0 1
269 411 100 0 0 1
458 367.797210693359375 0 0 0 -1
458 373.797210693359375 0 0 0 -1
442 373.797210693359375 0 0 0 -1
442 367.797210693359375 0 0 0 -1
458 367.797210693359375 100 0 0 1
458 373.797210693359375 100 0 0 1
442 373.797210693359375 100 0 0 1
442 367.797210693359375 100 0 0 1
461 402 0 0 0 -1
455 402 0 0 0 -1
455 371 0 0 0 -1
461 371 0 0 0 -1
461 402 100 0 0 1
455 402 100 0 0 1
455 371 100 0 0 1
461 371 100 0 0 1
395.506500244140625 371 0 0 0 -1
389.506500244140625 371 0 0 0 -1
389.506500244140625 333 0 0 0 -1
395.506500244140625 333 0 0 0 -1
395.506500244140625 371 100 0 0 1
389.506500244140625 371 100 0 0 1
389.506500244140625 333 100 0 0 1
395.506500244140625 333 100 0 0 1
518 540 0 0 0 -1
518 546 0 0 0 -1
507 546 0 0 0 -1
507 540 0 0 0 -1
518 540 100 0 0 1
518 546 100 0 0 1
507 546 100 0 0 1
507 540 100 0 0 1
611.6575927734375 398.98516845703125 0 0 0 -1
617.657470703125 399.01483154296875 0 0 0 -1
616.98541259765625 534.9613037109375 0 0 0 -1
611.01458740234375 529.0386962890625 0 0 0 -1
611.6575927734375 398.98516845703125 100 0 0 1
617.657470703125 399.01483154296875 100 0 0 1
616.98541259765625 534.9613037109375 100 0 0 1
611.01458740234375 529.0386962890625 100 0 0 1
611.01458740234375 529.0386962890625 0 0 0 -1
616.98541259765625 534.9613037109375 0 0 0 -1
563.03912353515625 535.66510009765625 0 0 0 -1
562.96087646484375 529.6656494140625 0 0 0 -1
611.01458740234375 529.0386962890625 100 0 0 1
616.98541259765625 534.9613037109375 100 0 0 1
563.03912353515625 535.66510009765625 100 0 0 1
562.96087646484375 529.6656494140625 100 0 0 1
336.1492919921875 373.793487548828125 0 0 0 -1
335.8507080078125 367.800933837890625 0 0 0 -1
349 367.145751953125 0 0 0 -1
355 372.854248046875 0 0 0 -1
336.1492919921875 373.793487548828125 100 0 0 1
335.8507080078125 367.800933837890625 100 0 0 1
349 367.145751953125 100 0 0 1
355 372.854248046875 100 0 0 1
355 372.854248046875 0 0 0 -1
349 367.145751953125 0 0 0 -1
349 332 0 0 0 -1
355 332 0 0 0 -1
355 372.854248046875 100 0 0 1
349 367.145751953125 100 0 0 1
349 332 100 0 0 1
355 332 100 0 0 1
632 110 0 0 0 -1
626 110 0 0 0 -1
626 73 0 0 0 -1
632 67 0 0 0 -1
632 110 100 0 0 1
626 110 100 0 0 1
626 73 100 0 0 1
632 67 100 0 0 1
4 0 1 2 3
4 4 5 6 7
4 8 9 10 11
4 12 13 14 15
4 16 17 18 19
4 20 21 22 23
4 24 25 26 27
4 28 29 30 31
4 32 33 34 35
4 36 37 38 39
4 40 41 42 43
4 44 45 46 47
4 48 49 50 51
4 52 53 54 55
4 56 57 58 59
4 60 61 62 63
4 64 65 66 67
4 68 69 70 71
4 72 73 74 75
4 76 77 78 79
4 80 81 82 83
4 84 85 86 87
4 88 89 90 91
4 92 93 94 95
4 96 97 98 99
4 100 101 102 103
4 104 105 106 107
4 108 109 110 111
4 112 113 114 115
4 116 117 118 119
4 120 121 122 123
4 124 125 126 127
4 128 129 130 131
4 132 133 134 135
4 136 137 138 139
4 140 141 142 143
4 144 145 146 147
4 148 149 150 151
4 152 153 154 155
4 156 157 158 159
4 160 161 162 163
4 164 165 166 167
4 168 169 170 171
4 172 173 174 175
4 176 177 178 179
4 180 181 182 183
4 184 185 186 187
4 188 189 190 191
4 192 193 194 195
4 196 197 198 199
4 200 201 202 203
4 204 205 206 207
4 208 209 210 211
4 212 213 214 215
4 216 217 218 219
4 220 221 222 223
4 224 225 226 227
4 228 229 230 231
4 232 233 234 235
4 236 237 238 239
4 240 241 242 243
4 244 245 246 247
4 248 249 250 251
4 252 253 254 255
4 256 257 258 259
4 260 261 262 263
4 264 265 266 267
4 268 269 270 271
4 272 273 274 275
4 276 277 278 279
4 280 281 282 283
4 284 285 286 287
4 288 289 290 291
4 292 293 294 295
4 296 297 298 299
4 300 301 302 303
4 304 305 306 307
4 308 309 310 311
4 312 313 314 315
4 316 317 318 319
4 320 321 322 323
4 324 325 326 327
4 328 329 330 331
4 332 333 334 335
4 336 337 338 339
4 340 341 342 343
4 344 345 346 347
4 348 349 350 351
4 352 353 354 355
4 356 357 358 359
4 360 361 362 363
4 364 365 366 367
4 368 369 370 371
4 372 373 374 375
4 376 377 378 379
4 380 381 382 383
4 384 385 386 387
4 388 389 390 391
4 392 393 394 395
4 396 397 398 399
4 400 401 402 403
4 404 405 406 407
4 408 409 410 411
4 412 413 414 415
4 416 417 418 419
4 420 421 422 423
4 424 425 426 427
4 428 429 430 431
4 432 433 434 435
4 436 437 438 439
4 440 441 442 443
4 444 445 446 447
4 448 449 450 451
4 452 453 454 455
4 456 457 458 459
4 460 461 462 463
4 464 465 466 467
4 468 469 470 471
4 472 473 474 475
4 476 477 478 479
4 480 481 482 483
4 484 485 486 487
4 488 489 490 491
4 492 493 494 495
4 496 497 498 499
4 500 501 502 503
4 504 505 506 507
4 508 509 510 511
4 512 513 514 515
4 516 517 518 519
4 520 521 522 523
4 524 525 526 527
4 528 529 530 531
4 532 533 534 535
4 536 537 538 539
4 540 541 542 543
4 544 545 546 547
4 548 549 550 551
4 552 553 554 555
4 556 557 558 559
4 560 561 562 563
4 564 565 566 567
4 568 569 570 571
4 572 573 574 575
4 576 577 578 579
4 580 581 582 583
4 584 585 586 587
4 588 589 590 591
4 592 593 594 595
4 596 597 598 599
