ply
format ascii 1.0
element vertex 806
property float x
property float y
property float z
property float nx
property float ny
property float nz
element quads 200
property list uchar int vertex_indices
element triads 2
property list uchar int vertex_indices
end_header
273 492 0 1 0 0
273 322.757354736328125 0 1 0 0
273 322.757354736328125 100 1 0 0
273 492 100 1 0 0
267 498 0 -1 -0 0
267 325.242645263671875 0 -1 -0 0
267 325.242645263671875 100 -1 -0 0
267 498 100 -1 -0 0
267 498 0 -0 1 0
293 498 0 -0 1 0
293 498 100 -0 1 0
267 498 100 -0 1 0
273 492 0 0 -1 0
293 492 0 0 -1 0
293 492 100 0 -1 0
273 492 100 0 -1 0
273 322.757354736328125 0 0.70710676908493042 -0.70710676908493042 0
212 261.757354736328125 0 0.70710676908493042 -0.70710676908493042 0
212 261.757354736328125 100 0.70710676908493042 -0.70710676908493042 0
273 322.757354736328125 100 0.70710676908493042 -0.70710676908493042 0
267 325.242645263671875 0 -0.70710676908493042 0.70710676908493042 0
206 264.242645263671875 0 -0.70710676908493042 0.70710676908493042 0
206 264.242645263671875 100 -0.70710676908493042 0.70710676908493042 0
267 325.242645263671875 100 -0.70710676908493042 0.70710676908493042 0
387 498 0 1 0 0
387 324 0 1 0 0
387 324 100 1 0 0
387 498 100 1 0 0
381 492 0 -1 -0 0
381 324 0 -1 -0 0
381 324 100 -1 -0 0
381 492 100 -1 -0 0
381 492 0 -0 -1 0
337 492 0 -0 -1 0
337 492 100 -0 -1 0
381 492 100 -0 -1 0
387 498 0 0 1 0
343 498 0 0 1 0
343 498 100 0 1 0
387 498 100 0 1 0
387.007568359375 324 0 1 0 0
387.007568359375 302 0 1 0 0
387.007568359375 302 100 1 0 0
387.007568359375 324 100 1 0 0
381.007568359375 324 0 -1 -0 0
381.007568359375 302 0 -1 -0 0
381.007568359375 302 100 -1 -0 0
381.007568359375 324 100 -1 -0 0
212 261.757354736328125 0 1 0 0
212 233.242645263671875 0 1 0 0
212 233.242645263671875 100 1 0 0
212 261.757354736328125 100 1 0 0
206 264.242645263671875 0 -1 -0 0
206 230.757354736328125 0 -1 -0 0
206 230.757354736328125 100 -1 -0 0
206 264.242645263671875 100 -1 -0 0
432.0185546875 146 0 1 0 0
432.0185546875 87 0 1 0 0
432.0185546875 87 100 1 0 0
432.0185546875 146 100 1 0 0
426.0185546875 146 0 -1 -0 0
426.0185546875 87 0 -1 -0 0
426.0185546875 87 100 -1 -0 0
426.0185546875 146 100 -1 -0 0
212 233.242645263671875 0 0.70710676908493042 0.70710676908493042 0
295.965057373046875 149.277572631835938 0 0.70710676908493042 0.70710676908493042 0
295.965057373046875 149.277572631835938 100 0.70710676908493042 0.70710676908493042 0
212 233.242645263671875 100 0.70710676908493042 0.70710676908493042 0
206 230.757354736328125 0 -0.70710676908493042 -0.70710676908493042 0
296.034942626953125 140.722427368164062 0 -0.70710676908493042 -0.70710676908493042 0
296.034942626953125 140.722427368164062 100 -0.70710676908493042 -0.70710676908493042 0
206 230.757354736328125 100 -0.70710676908493042 -0.70710676908493042 0
295.965057373046875 149.277572631835938 0 -0.718561530113220215 0.695463359355926514 0
339.0928955078125 193.837799072265625 0 -0.718561530113220215 0.695463359355926514 0
339.0928955078125 193.837799072265625 100 -0.718561530113220215 0.695463359355926514 0
295.965057373046875 149.277572631835938 100 -0.718561530113220215 0.695463359355926514 0
296.034942626953125 140.722427368164062 0 0.718561530113220215 -0.695463359355926514 0
343.404266357421875 189.665023803710938 0 0.718561530113220215 -0.695463359355926514 0
343.404266357421875 189.665023803710938 100 0.718561530113220215 -0.695463359355926514 0
296.034942626953125 140.722427368164062 100 0.718561530113220215 -0.695463359355926514 0
343 538 0 1 0 0
343 498 0 1 0 0
343 498 100 1 0 0
343 538 100 1 0 0
337 538 0 -1 -0 0
337 492 0 -1 -0 0
337 492 100 -1 -0 0
337 538 100 -1 -0 0
299.507598876953125 145 0 1 0 0
299.507598876953125 87 0 1 0 0
299.507598876953125 87 100 1 0 0
299.507598876953125 145 100 1 0 0
293.507598876953125 145 0 -1 -0 0
293.507598876953125 87 0 -1 -0 0
293.507598876953125 87 100 -1 -0 0
293.507598876953125 145 100 -1 -0 0
293 498 0 -0 1 0
308 498 0 -0 1 0
308 498 100 -0 1 0
293 498 100 -0 1 0
293 492 0 0 -1 0
314 492 0 0 -1 0
314 492 100 0 -1 0
293 492 100 0 -1 0
308 498 0 -1 0 0
308 538 0 -1 0 0
308 538 100 -1 0 0
308 498 100 -1 0 0
314 492 0 1 -0 0
314 538 0 1 -0 0
314 538 100 1 -0 0
314 492 100 1 -0 0
370 262 0 1 0 0
370 215 0 1 0 0
370 215 100 1 0 0
370 262 100 1 0 0
364 268 0 -1 -0 0
364 210.867431640625 0 -1 -0 0
364 210.867431640625 100 -1 -0 0
364 268 100 -1 -0 0
364 268 0 -0 1 0
395 268 0 -0 1 0
395 268 100 -0 1 0
364 268 100 -0 1 0
370 262 0 0 -1 0
395 262 0 0 -1 0
395 262 100 0 -1 0
370 262 100 0 -1 0
373.638885498046875 209 0 0.750512659549713135 0.660856068134307861 0
387.981048583984375 192.712081909179688 0 0.750512659549713135 0.660856068134307861 0
387.981048583984375 192.712081909179688 100 0.750512659549713135 0.660856068134307861 0
373.638885498046875 209 100 0.750512659549713135 0.660856068134307861 0
364 210.867431640625 0 -0.750512659549713135 -0.660856068134307861 0
383.47796630859375 188.746932983398438 0 -0.750512659549713135 -0.660856068134307861 0
383.47796630859375 188.746932983398438 100 -0.750512659549713135 -0.660856068134307861 0
364 210.867431640625 100 -0.750512659549713135 -0.660856068134307861 0
370 215 0 -0 1 0
393 215 0 -0 1 0
393 215 100 -0 1 0
370 215 100 -0 1 0
373.638885498046875 209 0 0 -1 0
393 209 0 0 -1 0
393 209 100 0 -1 0
373.638885498046875 209 100 0 -1 0
464 186 0 -0 -1 0
444 186 0 -0 -1 0
444 186 100 -0 -1 0
464 186 100 -0 -1 0
470 192 0 0 1 0
447 192 0 0 1 0
447 192 100 0 1 0
470 192 100 0 1 0
470 192 0 1 0 0
470 121.960357666015625 0 1 0 0
470 121.960357666015625 100 1 0 0
470 192 100 1 0 0
464 186 0 -1 -0 0
464 128.039642333984375 0 -1 -0 0
464 128.039642333984375 100 -1 -0 0
464 186 100 -1 -0 0
450 186 0 -0 -1 0
429 186 0 -0 -1 0
429 186 100 -0 -1 0
450 186 100 -0 -1 0
447 192 0 0 1 0
429 192 0 0 1 0
429 192 100 0 1 0
447 192 100 0 1 0
444 186 0 -1 0 0
444 262.0306396484375 0 -1 0 0
444 262.0306396484375 100 -1 0 0
444 186 100 -1 0 0
450 186 0 1 -0 0
450 267.9693603515625 0 1 -0 0
450 267.9693603515625 100 1 -0 0
450 186 100 1 -0 0
470 495 0 1 0 0
470 458 0 1 0 0
470 458 100 1 0 0
470 495 100 1 0 0
464 495 0 -1 -0 0
464 452 0 -1 -0 0
464 452 100 -1 -0 0
464 495 100 -1 -0 0
470 458 0 -0 1 0
510.949493408203125 458 0 -0 1 0
510.949493408203125 458 100 -0 1 0
470 458 100 -0 1 0
464 452 0 0 -1 0
505.050506591796875 452 0 0 -1 0
505.050506591796875 452 100 0 -1 0
464 452 100 0 -1 0
530 383 0 -0 -1 0
512 383 0 -0 -1 0
512 383 100 -0 -1 0
530 383 100 -0 -1 0
530 389 0 0 1 0
506 389 0 0 1 0
506 389 100 0 1 0
530 389 100 0 1 0
512 383 0 1 0 0
512 321.022979736328125 0 1 0 0
512 321.022979736328125 100 1 0 0
512 383 100 1 0 0
506 389 0 -1 -0 0
506 326.977020263671875 0 -1 -0 0
506 326.977020263671875 100 -1 -0 0
506 389 100 -1 -0 0
598 383 0 -0 -1 0
576 383 0 -0 -1 0
576 383 100 -0 -1 0
598 383 100 -0 -1 0
592 389 0 0 1 0
576 389 0 0 1 0
576 389 100 0 1 0
592 389 100 0 1 0
592 389 0 -1 0 0
592 433.02581787109375 0 -1 0 0
592 433.02581787109375 100 -1 0 0
592 389 100 -1 0 0
598 383 0 1 -0 0
598 438.97418212890625 0 1 -0 0
598 438.97418212890625 100 1 -0 0
598 383 100 1 -0 0
345 52.859375 0 -0 -1 0
328 52.859375 0 -0 -1 0
328 52.859375 100 -0 -1 0
345 52.859375 100 -0 -1 0
345 58.859375 0 0 1 0
328 58.859375 0 0 1 0
328 58.859375 100 0 1 0
345 58.859375 100 0 1 0
398 52.859375 0 -0 -1 0
380 52.859375 0 -0 -1 0
380 52.859375 100 -0 -1 0
398 52.859375 100 -0 -1 0
398 58.859375 0 0 1 0
380 58.859375 0 0 1 0
380 58.859375 100 0 1 0
398 58.859375 100 0 1 0
505.781463623046875 408.949066162109375 0 -0.999855875968933105 -0.0169762894511222839 0
505.050506591796875 452 0 -0.999855875968933105 -0.0169762894511222839 0
505.050506591796875 452 100 -0.999855875968933105 -0.0169762894511222839 0
505.781463623046875 408.949066162109375 100 -0.999855875968933105 -0.0169762894511222839 0
511.78057861328125 409.050933837890625 0 0.999855875968933105 0.0169762894511222839 0
510.949493408203125 458 0 0.999855875968933105 0.0169762894511222839 0
510.949493408203125 458 100 0.999855875968933105 0.0169762894511222839 0
511.78057861328125 409.050933837890625 100 0.999855875968933105 0.0169762894511222839 0
432 494 0 1 0 0
432 451.99432373046875 0 1 0 0
432 451.99432373046875 100 1 0 0
432 494 100 1 0 0
426 494 0 -1 -0 0
426 458.00567626953125 0 -1 -0 0
426 458.00567626953125 100 -1 -0 0
426 494 100 -1 -0 0
432 451.99432373046875 0 -0.00188560318201780319 -0.999998211860656738 0
385.994354248046875 452.081085205078125 0 -0.00188560318201780319 -0.999998211860656738 0
385.994354248046875 452.081085205078125 100 -0.00188560318201780319 -0.999998211860656738 0
432 451.99432373046875 100 -0.00188560318201780319 -0.999998211860656738 0
426 458.00567626953125 0 0.00188560318201780319 0.999998211860656738 0
386.005645751953125 458.081085205078125 0 0.00188560318201780319 0.999998211860656738 0
386.005645751953125 458.081085205078125 100 0.00188560318201780319 0.999998211860656738 0
426 458.00567626953125 100 0.00188560318201780319 0.999998211860656738 0
426.0185546875 167.997222900390625 0 -0.999999582767486572 -0.000928073830436915159 0
426.002655029296875 185.140640258789062 0 -0.999999582767486572 -0.000928073830436915159 0
426.002655029296875 185.140640258789062 100 -0.999999582767486572 -0.000928073830436915159 0
426.0185546875 167.997222900390625 100 -0.999999582767486572 -0.000928073830436915159 0
432.0185546875 168.002777099609375 0 0.999999582767486572 0.000928073830436915159 0
431.997344970703125 190.859359741210938 0 0.999999582767486572 0.000928073830436915159 0
431.997344970703125 190.859359741210938 100 0.999999582767486572 0.000928073830436915159 0
432.0185546875 168.002777099609375 100 0.999999582767486572 0.000928073830436915159 0
426.002655029296875 185.140640258789062 0 -0.0480214580893516541 -0.998846292495727539 0
416.855926513671875 185.58038330078125 0 -0.0480214580893516541 -0.998846292495727539 0
416.855926513671875 185.58038330078125 100 -0.0480214580893516541 -0.998846292495727539 0
426.002655029296875 185.140640258789062 100 -0.0480214580893516541 -0.998846292495727539 0
431.997344970703125 190.859359741210938 0 0.0480214580893516541 0.998846292495727539 0
417.144073486328125 191.573455810546875 0 0.0480214580893516541 0.998846292495727539 0
417.144073486328125 191.573455810546875 100 0.0480214580893516541 0.998846292495727539 0
431.997344970703125 190.859359741210938 100 0.0480214580893516541 0.998846292495727539 0
444 262.0306396484375 0 -0.0102633889764547348 -0.999947309494018555 0
415.969207763671875 262.318328857421875 0 -0.0102633889764547348 -0.999947309494018555 0
415.969207763671875 262.318328857421875 100 -0.0102633889764547348 -0.999947309494018555 0
444 262.0306396484375 100 -0.0102633889764547348 -0.999947309494018555 0
450 267.9693603515625 0 0.0102633889764547348 0.999947309494018555 0
416.030792236328125 268.318023681640625 0 0.0102633889764547348 0.999947309494018555 0
416.030792236328125 268.318023681640625 100 0.0102633889764547348 0.999947309494018555 0
450 267.9693603515625 100 0.0102633889764547348 0.999947309494018555 0
592 433.02581787109375 0 -0.00864165276288986206 -0.999962687492370605 0
509.97406005859375 433.73468017578125 0 -0.00864165276288986206 -0.999962687492370605 0
509.97406005859375 433.73468017578125 100 -0.00864165276288986206 -0.999962687492370605 0
592 433.02581787109375 100 -0.00864165276288986206 -0.999962687492370605 0
598 438.97418212890625 0 0.00864165276288986206 0.999962687492370605 0
510.02593994140625 439.734466552734375 0 0.00864165276288986206 0.999962687492370605 0
510.02593994140625 439.734466552734375 100 0.00864165276288986206 0.999962687492370605 0
598 438.97418212890625 100 0.00864165276288986206 0.999962687492370605 0
470 121.960357666015625 0 -0.0131262820214033127 -0.999913871288299561 0
429.96063232421875 122.485969543457031 0 -0.0131262820214033127 -0.999913871288299561 0
429.96063232421875 122.485969543457031 100 -0.0131262820214033127 -0.999913871288299561 0
470 121.960357666015625 100 -0.0131262820214033127 -0.999913871288299561 0
464 128.039642333984375 0 0.0131262820214033127 0.999913871288299561 0
430.03936767578125 128.485458374023438 0 0.0131262820214033127 0.999913871288299561 0
430.03936767578125 128.485458374023438 100 0.0131262820214033127 0.999913871288299561 0
464 128.039642333984375 100 0.0131262820214033127 0.999913871288299561 0
555.114501953125 388.7615966796875 0 0.038161158561706543 0.999271571636199951 0
578 387.88763427734375 0 0.038161158561706543 0.999271571636199951 0
578 387.88763427734375 100 0.038161158561706543 0.999271571636199951 0
555.114501953125 388.7615966796875 100 0.038161158561706543 0.999271571636199951 0
554.885498046875 382.765960693359375 0 -0.038161158561706543 -0.999271571636199951 0
572 382.11236572265625 0 -0.038161158561706543 -0.999271571636199951 0
572 382.11236572265625 100 -0.038161158561706543 -0.999271571636199951 0
554.885498046875 382.765960693359375 100 -0.038161158561706543 -0.999271571636199951 0
578 387.88763427734375 0 1 0 0
578 337.977020263671875 0 1 0 0
578 337.977020263671875 100 1 0 0
578 387.88763427734375 100 1 0 0
572 382.11236572265625 0 -1 -0 0
572 344.022979736328125 0 -1 -0 0
572 344.022979736328125 100 -1 -0 0
572 382.11236572265625 100 -1 -0 0
511.02288818359375 344.48828125 0 0.0076305917464196682 0.999970912933349609 0
572 344.022979736328125 0 0.0076305917464196682 0.999970912933349609 0
572 344.022979736328125 100 0.0076305917464196682 0.999970912933349609 0
511.02288818359375 344.48828125 100 0.0076305917464196682 0.999970912933349609 0
510.97711181640625 338.48846435546875 0 -0.0076305917464196682 -0.999970912933349609 0
578 337.977020263671875 0 -0.0076305917464196682 -0.999970912933349609 0
578 337.977020263671875 100 -0.0076305917464196682 -0.999970912933349609 0
510.97711181640625 338.48846435546875 100 -0.0076305917464196682 -0.999970912933349609 0
414.9769287109375 326.276824951171875 0 -0.00769207999110221863 0.999970436096191406 0
506 326.977020263671875 0 -0.00769207999110221863 0.999970436096191406 0
506 326.977020263671875 100 -0.00769207999110221863 0.999970436096191406 0
414.9769287109375 326.276824951171875 100 -0.00769207999110221863 0.999970436096191406 0
415.0230712890625 320.277008056640625 0 0.00769207999110221863 -0.999970436096191406 0
512 321.022979736328125 0 0.00769207999110221863 -0.999970436096191406 0
512 321.022979736328125 100 0.00769207999110221863 -0.999970436096191406 0
415.0230712890625 320.277008056640625 100 0.00769207999110221863 -0.999970436096191406 0
387 324 0 384.775848388671875 321.137939453125 0
381 324 0 384.775848388671875 321.137939453125 0
381 324 100 384.775848388671875 321.137939453125 0
387 324 100 384.775848388671875 321.137939453125 0
387.007568359375 324 0 369.41632080078125 310.272735595703125 0
381.007568359375 324 0 369.41632080078125 310.272735595703125 0
381.007568359375 324 100 369.41632080078125 310.272735595703125 0
387.007568359375 324 100 369.41632080078125 310.272735595703125 0
387.007568359375 302 0 369.41632080078125 287.272735595703125 0
381.007568359375 302 0 369.41632080078125 287.272735595703125 0
381.007568359375 302 100 369.41632080078125 287.272735595703125 0
387.007568359375 302 100 369.41632080078125 287.272735595703125 0
432.0185546875 146 0 424.69622802734375 144.525421142578125 0
426.0185546875 146 0 424.69622802734375 144.525421142578125 0
426.0185546875 146 100 424.69622802734375 144.525421142578125 0
432.0185546875 146 100 424.69622802734375 144.525421142578125 0
432.0185546875 87 0 424.69622802734375 84.525421142578125 0
426.0185546875 87 0 424.69622802734375 84.525421142578125 0
426.0185546875 87 100 424.69622802734375 84.525421142578125 0
432.0185546875 87 100 424.69622802734375 84.525421142578125 0
343 538 0 334.42498779296875 525.54998779296875 0
337 538 0 334.42498779296875 525.54998779296875 0
337 538 100 334.42498779296875 525.54998779296875 0
343 538 100 334.42498779296875 525.54998779296875 0
339.0928955078125 193.837799072265625 0 334.320281982421875 191.43060302734375 0
343.404266357421875 189.665023803710938 0 334.320281982421875 191.43060302734375 0
343.404266357421875 189.665023803710938 100 334.320281982421875 191.43060302734375 0
339.0928955078125 193.837799072265625 100 334.320281982421875 191.43060302734375 0
299.507598876953125 145 0 294.34368896484375 143.5 0
293.507598876953125 145 0 294.34368896484375 143.5 0
293.507598876953125 145 100 294.34368896484375 143.5 0
299.507598876953125 145 100 294.34368896484375 143.5 0
299.507598876953125 87 0 294.34368896484375 84.5 0
293.507598876953125 87 0 294.34368896484375 84.5 0
293.507598876953125 87 100 294.34368896484375 84.5 0
299.507598876953125 87 100 294.34368896484375 84.5 0
429 186 0 407.571441650390625 177.142852783203125 0
429 192 0 407.571441650390625 177.142852783203125 0
429 192 100 407.571441650390625 177.142852783203125 0
429 186 100 407.571441650390625 177.142852783203125 0
395 268 0 383.258056640625 259.354827880859375 0
395 262 0 383.258056640625 259.354827880859375 0
395 262 100 383.258056640625 259.354827880859375 0
395 268 100 383.258056640625 259.354827880859375 0
470 495 0 457.29730224609375 482.621612548828125 0
464 495 0 457.29730224609375 482.621612548828125 0
464 495 100 457.29730224609375 482.621612548828125 0
470 495 100 457.29730224609375 482.621612548828125 0
530 383 0 501.5555419921875 361.72222900390625 0
530 389 0 501.5555419921875 361.72222900390625 0
530 389 100 501.5555419921875 361.72222900390625 0
530 383 100 501.5555419921875 361.72222900390625 0
576 383 0 548.81817626953125 365.590911865234375 0
576 389 0 548.81817626953125 365.590911865234375 0
576 389 100 548.81817626953125 365.590911865234375 0
576 383 100 548.81817626953125 365.590911865234375 0
345 52.859375 0 325.70587158203125 49.75 0
345 58.859375 0 325.70587158203125 49.75 0
345 58.859375 100 325.70587158203125 49.75 0
345 52.859375 100 325.70587158203125 49.75 0
328 52.859375 0 307.70587158203125 49.75 0
328 58.859375 0 307.70587158203125 49.75 0
328 58.859375 100 307.70587158203125 49.75 0
328 52.859375 100 307.70587158203125 49.75 0
398 52.859375 0 376.888885498046875 49.9227447509765625 0
398 58.859375 0 376.888885498046875 49.9227447509765625 0
398 58.859375 100 376.888885498046875 49.9227447509765625 0
398 52.859375 100 376.888885498046875 49.9227447509765625 0
380 52.859375 0 357.888885498046875 49.9227447509765625 0
380 58.859375 0 357.888885498046875 49.9227447509765625 0
380 58.859375 100 357.888885498046875 49.9227447509765625 0
380 52.859375 100 357.888885498046875 49.9227447509765625 0
308 538 0 300.29998779296875 525.54998779296875 0
314 538 0 300.29998779296875 525.54998779296875 0
314 538 100 300.29998779296875 525.54998779296875 0
308 538 100 300.29998779296875 525.54998779296875 0
387.981048583984375 192.712081909179688 0 370.764556884765625 183.081802368164062 0
383.47796630859375 188.746932983398438 0 370.764556884765625 183.081802368164062 0
383.47796630859375 188.746932983398438 100 370.764556884765625 183.081802368164062 0
387.981048583984375 192.712081909179688 100 370.764556884765625 183.081802368164062 0
393 215 0 376.913055419921875 205.652175903320312 0
393 209 0 376.913055419921875 205.652175903320312 0
393 209 100 376.913055419921875 205.652175903320312 0
393 215 100 376.913055419921875 205.652175903320312 0
505.781463623046875 408.949066162109375 0 494.051666259765625 398.451385498046875 0
511.78057861328125 409.050933837890625 0 494.051666259765625 398.451385498046875 0
511.78057861328125 409.050933837890625 100 494.051666259765625 398.451385498046875 0
505.781463623046875 408.949066162109375 100 494.051666259765625 398.451385498046875 0
432 494 0 421.715667724609375 483.23968505859375 0
426 494 0 421.715667724609375 483.23968505859375 0
426 494 100 421.715667724609375 483.23968505859375 0
432 494 100 421.715667724609375 483.23968505859375 0
385.994354248046875 452.081085205078125 0 376.604217529296875 442.25634765625 0
386.005645751953125 458.081085205078125 0 376.604217529296875 442.25634765625 0
386.005645751953125 458.081085205078125 100 376.604217529296875 442.25634765625 0
385.994354248046875 452.081085205078125 100 376.604217529296875 442.25634765625 0
426.0185546875 167.997222900390625 0 401.16925048828125 157.197708129882812 0
432.0185546875 168.002777099609375 0 401.16925048828125 157.197708129882812 0
432.0185546875 168.002777099609375 100 401.16925048828125 157.197708129882812 0
426.0185546875 167.997222900390625 100 401.16925048828125 157.197708129882812 0
416.855926513671875 185.58038330078125 0 370.335296630859375 165.362518310546875 0
417.144073486328125 191.573455810546875 0 370.335296630859375 165.362518310546875 0
417.144073486328125 191.573455810546875 100 370.335296630859375 165.362518310546875 0
416.855926513671875 185.58038330078125 100 370.335296630859375 165.362518310546875 0
415.969207763671875 262.318328857421875 0 400.13031005859375 252.970870971679688 0
416.030792236328125 268.318023681640625 0 400.13031005859375 252.970870971679688 0
416.030792236328125 268.318023681640625 100 400.13031005859375 252.970870971679688 0
415.969207763671875 262.318328857421875 100 400.13031005859375 252.970870971679688 0
509.97406005859375 433.73468017578125 0 502.757110595703125 428.45574951171875 0
510.02593994140625 439.734466552734375 0 502.757110595703125 428.45574951171875 0
510.02593994140625 439.734466552734375 100 502.757110595703125 428.45574951171875 0
509.97406005859375 433.73468017578125 100 502.757110595703125 428.45574951171875 0
429.96063232421875 122.485969543457031 0 418.223175048828125 119.440223693847656 0
430.03936767578125 128.485458374023438 0 418.223175048828125 119.440223693847656 0
430.03936767578125 128.485458374023438 100 418.223175048828125 119.440223693847656 0
429.96063232421875 122.485969543457031 100 418.223175048828125 119.440223693847656 0
555.114501953125 388.7615966796875 0 529.876708984375 371.82489013671875 0
554.885498046875 382.765960693359375 0 529.876708984375 371.82489013671875 0
554.885498046875 382.765960693359375 100 529.876708984375 371.82489013671875 0
555.114501953125 388.7615966796875 100 529.876708984375 371.82489013671875 0
511.02288818359375 344.48828125 0 501.642608642578125 338.84661865234375 0
510.97711181640625 338.48846435546875 0 501.642608642578125 338.84661865234375 0
510.97711181640625 338.48846435546875 100 501.642608642578125 338.84661865234375 0
511.02288818359375 344.48828125 100 501.642608642578125 338.84661865234375 0
414.9769287109375 326.276824951171875 0 409.418060302734375 322.6846923828125 0
415.0230712890625 320.277008056640625 0 409.418060302734375 322.6846923828125 0
415.0230712890625 320.277008056640625 100 409.418060302734375 322.6846923828125 0
414.9769287109375 326.276824951171875 100 409.418060302734375 322.6846923828125 0
273 492 0 0 0 -1
267 498 0 0 0 -1
267 325.242645263671875 0 0 0 -1
273 322.757354736328125 0 0 0 -1
273 492 100 0 0 1
267 498 100 0 0 1
267 325.242645263671875 100 0 0 1
273 322.757354736328125 100 0 0 1
267 498 0 0 0 -1
273 492 0 0 0 -1
293 492 0 0 0 -1
293 498 0 0 0 -1
267 498 100 0 0 1
273 492 100 0 0 1
293 492 100 0 0 1
293 498 100 0 0 1
273 322.757354736328125 0 0 0 -1
267 325.242645263671875 0 0 0 -1
206 264.242645263671875 0 0 0 -1
212 261.757354736328125 0 0 0 -1
273 322.757354736328125 100 0 0 1
267 325.242645263671875 100 0 0 1
206 264.242645263671875 100 0 0 1
212 261.757354736328125 100 0 0 1
387 498 0 0 0 -1
381 492 0 0 0 -1
381 324 0 0 0 -1
387 324 0 0 0 -1
387 498 100 0 0 1
381 492 100 0 0 1
381 324 100 0 0 1
387 324 100 0 0 1
381 492 0 0 0 -1
387 498 0 0 0 -1
343 498 0 0 0 -1
337 492 0 0 0 -1
381 492 100 0 0 1
387 498 100 0 0 1
343 498 100 0 0 1
337 492 100 0 0 1
387.007568359375 324 0 0 0 -1
381.007568359375 324 0 0 0 -1
381.007568359375 302 0 0 0 -1
387.007568359375 302 0 0 0 -1
387.007568359375 324 100 0 0 1
381.007568359375 324 100 0 0 1
381.007568359375 302 100 0 0 1
387.007568359375 302 100 0 0 1
212 261.757354736328125 0 0 0 -1
206 264.242645263671875 0 0 0 -1
206 230.757354736328125 0 0 0 -1
212 233.242645263671875 0 0 0 -1
212 261.757354736328125 100 0 0 1
206 264.242645263671875 100 0 0 1
206 230.757354736328125 100 0 0 1
212 233.242645263671875 100 0 0 1
432.0185546875 146 0 0 0 -1
426.0185546875 146 0 0 0 -1
426.0185546875 87 0 0 0 -1
432.0185546875 87 0 0 0 -1
432.0185546875 146 100 0 0 1
426.0185546875 146 100 0 0 1
426.0185546875 87 100 0 0 1
432.0185546875 87 100 0 0 1
212 233.242645263671875 0 0 0 -1
206 230.757354736328125 0 0 0 -1
296.034942626953125 140.722427368164062 0 0 0 -1
295.965057373046875 149.277572631835938 0 0 0 -1
212 233.242645263671875 100 0 0 1
206 230.757354736328125 100 0 0 1
296.034942626953125 140.722427368164062 100 0 0 1
295.965057373046875 149.277572631835938 100 0 0 1
295.965057373046875 149.277572631835938 0 0 0 -1
296.034942626953125 140.722427368164062 0 0 0 -1
343.404266357421875 189.665023803710938 0 0 0 -1
339.0928955078125 193.837799072265625 0 0 0 -1
295.965057373046875 149.277572631835938 100 0 0 1
296.034942626953125 140.722427368164062 100 0 0 1
343.404266357421875 189.665023803710938 100 0 0 1
339.0928955078125 193.837799072265625 100 0 0 1
343 538 0 0 0 -1
337 538 0 0 0 -1
337 492 0 0 0 -1
343 498 0 0 0 -1
343 538 100 0 0 1
337 538 100 0 0 1
337 492 100 0 0 1
343 498 100 0 0 1
299.507598876953125 145 0 0 0 -1
293.507598876953125 145 0 0 0 -1
293.507598876953125 87 0 0 0 -1
299.507598876953125 87 0 0 0 -1
299.507598876953125 145 100 0 0 1
293.507598876953125 145 100 0 0 1
293.507598876953125 87 100 0 0 1
299.507598876953125 87 100 0 0 1
293 498 0 0 0 -1
293 492 0 0 0 -1
314 492 0 0 0 -1
308 498 0 0 0 -1
293 498 100 0 0 1
293 492 100 0 0 1
314 492 100 0 0 1
308 498 100 0 0 1
308 498 0 0 0 -1
314 492 0 0 0 -1
314 538 0 0 0 -1
308 538 0 0 0 -1
308 498 100 0 0 1
314 492 100 0 0 1
314 538 100 0 0 1
308 538 100 0 0 1
370 262 0 0 0 -1
364 268 0 0 0 -1
364 210.867431640625 0 0 0 -1
370 215 0 0 0 -1
370 262 100 0 0 1
364 268 100 0 0 1
364 210.867431640625 100 0 0 1
370 215 100 0 0 1
364 268 0 0 0 -1
370 262 0 0 0 -1
395 262 0 0 0 -1
395 268 0 0 0 -1
364 268 100 0 0 1
370 262 100 0 0 1
395 262 100 0 0 1
395 268 100 0 0 1
373.638885498046875 209 0 0 0 -1
364 210.867431640625 0 0 0 -1
383.47796630859375 188.746932983398438 0 0 0 -1
387.981048583984375 192.712081909179688 0 0 0 -1
373.638885498046875 209 100 0 0 1
364 210.867431640625 100 0 0 1
383.47796630859375 188.746932983398438 100 0 0 1
387.981048583984375 192.712081909179688 100 0 0 1
370 215 0 0 0 -1
373.638885498046875 209 0 0 0 -1
393 209 0 0 0 -1
393 215 0 0 0 -1
370 215 100 0 0 1
373.638885498046875 209 100 0 0 1
393 209 100 0 0 1
393 215 100 0 0 1
464 186 0 0 0 -1
470 192 0 0 0 -1
447 192 0 0 0 -1
444 186 0 0 0 -1
464 186 100 0 0 1
470 192 100 0 0 1
447 192 100 0 0 1
444 186 100 0 0 1
470 192 0 0 0 -1
464 186 0 0 0 -1
464 128.039642333984375 0 0 0 -1
470 121.960357666015625 0 0 0 -1
470 192 100 0 0 1
464 186 100 0 0 1
464 128.039642333984375 100 0 0 1
470 121.960357666015625 100 0 0 1
450 186 0 0 0 -1
447 192 0 0 0 -1
429 192 0 0 0 -1
429 186 0 0 0 -1
450 186 100 0 0 1
447 192 100 0 0 1
429 192 100 0 0 1
429 186 100 0 0 1
444 186 0 0 0 -1
450 186 0 0 0 -1
450 267.9693603515625 0 0 0 -1
444 262.0306396484375 0 0 0 -1
444 186 100 0 0 1
450 186 100 0 0 1
450 267.9693603515625 100 0 0 1
444 262.0306396484375 100 0 0 1
470 495 0 0 0 -1
464 495 0 0 0 -1
464 452 0 0 0 -1
470 458 0 0 0 -1
470 495 100 0 0 1
464 495 100 0 0 1
464 452 100 0 0 1
470 458 100 0 0 1
470 458 0 0 0 -1
464 452 0 0 0 -1
505.050506591796875 452 0 0 0 -1
510.949493408203125 458 0 0 0 -1
470 458 100 0 0 1
464 452 100 0 0 1
505.050506591796875 452 100 0 0 1
510.949493408203125 458 100 0 0 1
530 383 0 0 0 -1
530 389 0 0 0 -1
506 389 0 0 0 -1
512 383 0 0 0 -1
530 383 100 0 0 1
530 389 100 0 0 1
506 389 100 0 0 1
512 383 100 0 0 1
512 383 0 0 0 -1
506 389 0 0 0 -1
506 326.977020263671875 0 0 0 -1
512 321.022979736328125 0 0 0 -1
512 383 100 0 0 1
506 389 100 0 0 1
506 326.977020263671875 100 0 0 1
512 321.022979736328125 100 0 0 1
598 383 0 0 0 -1
592 389 0 0 0 -1
576 389 0 0 0 -1
576 383 0 0 0 -1
598 383 100 0 0 1
592 389 100 0 0 1
576 389 100 0 0 1
576 383 100 0 0 1
592 389 0 0 0 -1
598 383 0 0 0 -1
598 438.97418212890625 0 0 0 -1
592 433.02581787109375 0 0 0 -1
592 389 100 0 0 1
598 383 100 0 0 1
598 438.97418212890625 100 0 0 1
592 433.02581787109375 100 0 0 1
345 52.859375 0 0 0 -1
345 58.859375 0 0 0 -1
328 58.859375 0 0 0 -1
328 52.859375 0 0 0 -1
345 52.859375 100 0 0 1
345 58.859375 100 0 0 1
328 58.859375 100 0 0 1
328 52.859375 100 0 0 1
398 52.859375 0 0 0 -1
398 58.859375 0 0 0 -1
380 58.859375 0 0 0 -1
380 52.859375 0 0 0 -1
398 52.859375 100 0 0 1
398 58.859375 100 0 0 1
380 58.859375 100 0 0 1
380 52.859375 100 0 0 1
505.781463623046875 408.949066162109375 0 0 0 -1
511.78057861328125 409.050933837890625 0 0 0 -1
510.949493408203125 458 0 0 0 -1
505.050506591796875 452 0 0 0 -1
505.781463623046875 408.949066162109375 100 0 0 1
511.78057861328125 409.050933837890625 100 0 0 1
510.949493408203125 458 100 0 0 1
505.050506591796875 452 100 0 0 1
432 494 0 0 0 -1
426 494 0 0 0 -1
426 458.00567626953125 0 0 0 -1
432 451.99432373046875 0 0 0 -1
432 494 100 0 0 1
426 494 100 0 0 1
426 458.00567626953125 100 0 0 1
432 451.99432373046875 100 0 0 1
432 451.99432373046875 0 0 0 -1
426 458.00567626953125 0 0 0 -1
386.005645751953125 458.081085205078125 0 0 0 -1
385.994354248046875 452.081085205078125 0 0 0 -1
432 451.99432373046875 100 0 0 1
426 458.00567626953125 100 0 0 1
386.005645751953125 458.081085205078125 100 0 0 1
385.994354248046875 452.081085205078125 100 0 0 1
426.0185546875 167.997222900390625 0 0 0 -1
432.0185546875 168.002777099609375 0 0 0 -1
431.997344970703125 190.859359741210938 0 0 0 -1
426.002655029296875 185.140640258789062 0 0 0 -1
426.0185546875 167.997222900390625 100 0 0 1
432.0185546875 168.002777099609375 100 0 0 1
431.997344970703125 190.859359741210938 100 0 0 1
426.002655029296875 185.140640258789062 100 0 0 1
426.002655029296875 185.140640258789062 0 0 0 -1
431.997344970703125 190.859359741210938 0 0 0 -1
417.144073486328125 191.573455810546875 0 0 0 -1
416.855926513671875 185.58038330078125 0 0 0 -1
426.002655029296875 185.140640258789062 100 0 0 1
431.997344970703125 190.859359741210938 100 0 0 1
417.144073486328125 191.573455810546875 100 0 0 1
416.855926513671875 185.58038330078125 100 0 0 1
444 262.0306396484375 0 0 0 -1
450 267.9693603515625 0 0 0 -1
416.030792236328125 268.318023681640625 0 0 0 -1
415.969207763671875 262.318328857421875 0 0 0 -1
444 262.0306396484375 100 0 0 1
450 267.9693603515625 100 0 0 1
416.030792236328125 268.318023681640625 100 0 0 1
415.969207763671875 262.318328857421875 100 0 0 1
592 433.02581787109375 0 0 0 -1
598 438.97418212890625 0 0 0 -1
510.02593994140625 439.734466552734375 0 0 0 -1
509.97406005859375 433.73468017578125 0 0 0 -1
592 433.02581787109375 100 0 0 1
598 438.97418212890625 100 0 0 1
510.02593994140625 439.734466552734375 100 0 0 1
509.97406005859375 433.73468017578125 100 0 0 1
470 121.960357666015625 0 0 0 -1
464 128.039642333984375 0 0 0 -1
430.03936767578125 128.485458374023438 0 0 0 -1
429.96063232421875 122.485969543457031 0 0 0 -1
470 121.960357666015625 100 0 0 1
464 128.039642333984375 100 0 0 1
430.03936767578125 128.485458374023438 100 0 0 1
429.96063232421875 122.485969543457031 100 0 0 1
555.114501953125 388.7615966796875 0 0 0 -1
554.885498046875 382.765960693359375 0 0 0 -1
572 382.11236572265625 0 0 0 -1
578 387.88763427734375 0 0 0 -1
555.114501953125 388.7615966796875 100 0 0 1
554.885498046875 382.765960693359375 100 0 0 1
572 382.11236572265625 100 0 0 1
578 387.88763427734375 100 0 0 1
578 387.88763427734375 0 0 0 -1
572 382.11236572265625 0 0 0 -1
572 344.022979736328125 0 0 0 -1
578 337.977020263671875 0 0 0 -1
578 387.88763427734375 100 0 0 1
572 382.11236572265625 100 0 0 1
572 344.022979736328125 100 0 0 1
578 337.977020263671875 100 0 0 1
511.02288818359375 344.48828125 0 0 0 -1
510.97711181640625 338.48846435546875 0 0 0 -1
578 337.977020263671875 0 0 0 -1
572 344.022979736328125 0 0 0 -1
511.02288818359375 344.48828125 100 0 0 1
510.97711181640625 338.48846435546875 100 0 0 1
578 337.977020263671875 100 0 0 1
572 344.022979736328125 100 0 0 1
414.9769287109375 326.276824951171875 0 0 0 -1
415.0230712890625 320.277008056640625 0 0 0 -1
512 321.022979736328125 0 0 0 -1
506 326.977020263671875 0 0 0 -1
414.9769287109375 326.276824951171875 100 0 0 1
415.0230712890625 320.277008056640625 100 0 0 1
512 321.022979736328125 100 0 0 1
506 326.977020263671875 100 0 0 1
364 210.867431640625 0 0 0 -1
373.638885498046875 209 0 0 0 -1
370 215 0 0 0 -1
364 210.867431640625 100 0 0 1
373.638885498046875 209 100 0 0 1
370 215 100 0 0 1
4 0 1 2 3
4 4 5 6 7
4 8 9 10 11
4 12 13 14 15
4 16 17 18 19
4 20 21 22 23
4 24 25 26 27
4 28 29 30 31
4 32 33 34 35
4 36 37 38 39
4 40 41 42 43
4 44 45 46 47
4 48 49 50 51
4 52 53 54 55
4 56 57 58 59
4 60 61 62 63
4 64 65 66 67
4 68 69 70 71
4 72 73 74 75
4 76 77 78 79
4 80 81 82 83
4 84 85 86 87
4 88 89 90 91
4 92 93 94 95
4 96 97 98 99
4 100 101 102 103
4 104 105 106 107
4 108 109 110 111
4 112 113 114 115
4 116 117 118 119
4 120 121 122 123
4 124 125 126 127
4 128 129 130 131
4 132 133 134 135
4 136 137 138 139
4 140 141 142 143
4 144 145 146 147
4 148 149 150 151
4 152 153 154 155
4 156 157 158 159
4 160 161 162 163
4 164 165 166 167
4 168 169 170 171
4 172 173 174 175
4 176 177 178 179
4 180 181 182 183
4 184 185 186 187
4 188 189 190 191
4 192 193 194 195
4 196 197 198 199
4 200 201 202 203
4 204 205 206 207
4 208 209 210 211
4 212 213 214 215
4 216 217 218 219
4 220 221 222 223
4 224 225 226 227
4 228 229 230 231
4 232 233 234 235
4 236 237 238 239
4 240 241 242 243
4 244 245 246 247
4 248 249 250 251
4 252 253 254 255
4 256 257 258 259
4 260 261 262 263
4 264 265 266 267
4 268 269 270 271
4 272 273 274 275
4 276 277 278 279
4 280 281 282 283
4 284 285 286 287
4 288 289 290 291
4 292 293 294 295
4 296 297 298 299
4 300 301 302 303
4 304 305 306 307
4 308 309 310 311
4 312 313 314 315
4 316 317 318 319
4 320 321 322 323
4 324 325 326 327
4 328 329 330 331
4 332 333 334 335
4 336 337 338 339
4 340 341 342 343
4 344 345 346 347
4 348 349 350 351
4 352 353 354 355
4 356 357 358 359
4 360 361 362 363
4 364 365 366 367
4 368 369 370 371
4 372 373 374 375
4 376 377 378 379
4 380 381 382 383
4 384 385 386 387
4 388 389 390 391
4 392 393 394 395
4 396 397 398 399
4 400 401 402 403
4 404 405 406 407
4 408 409 410 411
4 412 413 414 415
4 416 417 418 419
4 420 421 422 423
4 424 425 426 427
4 428 429 430 431
4 432 433 434 435
4 436 437 438 439
4 440 441 442 443
4 444 445 446 447
4 448 449 450 451
4 452 453 454 455
4 456 457 458 459
4 460 461 462 463
4 464 465 466 467
4 468 469 470 471
4 472 473 474 475
4 476 477 478 479
4 480 481 482 483
4 484 485 486 487
4 488 489 490 491
4 492 493 494 495
4 496 497 498 499
4 500 501 502 503
4 504 505 506 507
4 508 509 510 511
4 512 513 514 515
4 516 517 518 519
4 520 521 522 523
4 524 525 526 527
4 528 529 530 531
4 532 533 534 535
4 536 537 538 539
4 540 541 542 543
4 544 545 546 547
4 548 549 550 551
4 552 553 554 555
4 556 557 558 559
4 560 561 562 563
4 564 565 566 567
4 568 569 570 571
4 572 573 574 575
4 576 577 578 579
4 580 581 582 583
4 584 585 586 587
4 588 589 590 591
4 592 593 594 595
4 596 597 598 599
4 600 601 602 603
4 604 605 606 607
4 608 609 610 611
4 612 613 614 615
4 616 617 618 619
4 620 621 622 623
4 624 625 626 627
4 628 629 630 631
4 632 633 634 635
4 636 637 638 639
4 640 641 642 643
4 644 645 646 647
4 648 649 650 651
4 652 653 654 655
4 656 657 658 659
4 660 661 662 663
4 664 665 666 667
4 668 669 670 671
4 672 673 674 675
4 676 677 678 679
4 680 681 682 683
4 684 685 686 687
4 688 689 690 691
4 692 693 694 695
4 696 697 698 699
4 700 701 702 703
4 704 705 706 707
4 708 709 710 711
4 712 713 714 715
4 716 717 718 719
4 720 721 722 723
4 724 725 726 727
4 728 729 730 731
4 732 733 734 735
4 736 737 738 739
4 740 741 742 743
4 744 745 746 747
4 748 749 750 751
4 752 753 754 755
4 756 757 758 759
4 760 761 762 763
4 764 765 766 767
4 768 769 770 771
4 772 773 774 775
4 776 777 778 779
4 780 781 782 783
4 784 785 786 787
4 788 789 790 791
4 792 793 794 795
4 796 797 798 799
3 800 801 802
3 803 804 805
