ply
format ascii 1.0
element vertex 392
property float x
property float y
property float z
property float nx
property float ny
property float nz
element quads 98
property list uchar int vertex_indices
end_header
225.25 168 0 1 0 0
225.25 52.25 0 1 0 0
225.25 52.25 100 1 0 0
225.25 168 100 1 0 0
224.75 168 0 -1 -0 0
224.75 51.75 0 -1 -0 0
224.75 51.75 100 -1 -0 0
224.75 168 100 -1 -0 0
225.25 52.25 0 -0 1 0
348 52.25 0 -0 1 0
348 52.25 100 -0 1 0
225.25 52.25 100 -0 1 0
224.75 51.75 0 0 -1 0
348 51.75 0 0 -1 0
348 51.75 100 0 -1 0
224.75 51.75 100 0 -1 0
411.25 482 0 1 0 0
411.25 344.75 0 1 0 0
411.25 344.75 100 1 0 0
411.25 482 100 1 0 0
410.75 482 0 -1 -0 0
410.75 345.25 0 -1 -0 0
410.75 345.25 100 -1 -0 0
410.75 482 100 -1 -0 0
411.25 344.75 0 -0 -1 0
225 344.75 0 -0 -1 0
225 344.75 100 -0 -1 0
411.25 344.75 100 -0 -1 0
410.75 345.25 0 0 1 0
225 345.25 0 0 1 0
225 345.25 100 0 1 0
410.75 345.25 100 0 1 0
554.25 332 0 1 0 0
554.25 289 0 1 0 0
554.25 289 100 1 0 0
554.25 332 100 1 0 0
553.75 332 0 -1 -0 0
553.75 289 0 -1 -0 0
553.75 289 100 -1 -0 0
553.75 332 100 -1 -0 0
224 139.25 0 -0 1 0
333 139.25 0 -0 1 0
333 139.25 100 -0 1 0
224 139.25 100 -0 1 0
224 138.75 0 0 -1 0
333 138.75 0 0 -1 0
333 138.75 100 0 -1 0
224 138.75 100 0 -1 0
451 86.25 0 -0 1 0
480 86.25 0 -0 1 0
480 86.25 100 -0 1 0
451 86.25 100 -0 1 0
451 85.75 0 0 -1 0
480 85.75 0 0 -1 0
480 85.75 100 0 -1 0
451 85.75 100 0 -1 0
630.75 167 0 -1 0 0
630.75 266 0 -1 0 0
630.75 266 100 -1 0 0
630.75 167 100 -1 0 0
631.25 167 0 1 -0 0
631.25 266 0 1 -0 0
631.25 266 100 1 -0 0
631.25 167 100 1 -0 0
292.75 139 0 -1 0 0
292.75 254 0 -1 0 0
292.75 254 100 -1 0 0
292.75 139 100 -1 0 0
293.25 139 0 1 -0 0
293.25 254 0 1 -0 0
293.25 254 100 1 -0 0
293.25 139 100 1 -0 0
195.75 166 0 -1 0 0
195.75 294 0 -1 0 0
195.75 294 100 -1 0 0
195.75 166 100 -1 0 0
196.25 166 0 1 -0 0
196.25 294 0 1 -0 0
196.25 294 100 1 -0 0
196.25 166 100 1 -0 0
410.75 174 0 -1 0 0
410.75 283 0 -1 0 0
410.75 283 100 -1 0 0
410.75 174 100 -1 0 0
411.25 174 0 1 -0 0
411.25 283 0 1 -0 0
411.25 283 100 1 -0 0
411.25 174 100 1 -0 0
199 254.25 0 -0 1 0
418 254.25 0 -0 1 0
418 254.25 100 -0 1 0
199 254.25 100 -0 1 0
199 253.75 0 0 -1 0
418 253.75 0 0 -1 0
418 253.75 100 0 -1 0
199 253.75 100 0 -1 0
529.75 39 0 -1 0 0
529.75 102 0 -1 0 0
529.75 102 100 -1 0 0
529.75 39 100 -1 0 0
530.25 39 0 1 -0 0
530.25 102 0 1 -0 0
530.25 102 100 1 -0 0
530.25 39 100 1 -0 0
224.75 253 0 -1 0 0
224.75 542 0 -1 0 0
224.75 542 100 -1 0 0
224.75 253 100 -1 0 0
225.25 253 0 1 -0 0
225.25 542 0 1 -0 0
225.25 542 100 1 -0 0
225.25 253 100 1 -0 0
529.75 363 0 -1 0 0
529.75 445 0 -1 0 0
529.75 445 100 -1 0 0
529.75 363 100 -1 0 0
530.25 363 0 1 -0 0
530.25 445 0 1 -0 0
530.25 445 100 1 -0 0
530.25 363 100 1 -0 0
165 168.25 0 -0 1 0
332 168.25 0 -0 1 0
332 168.25 100 -0 1 0
165 168.25 100 -0 1 0
165 167.75 0 0 -1 0
332 167.75 0 0 -1 0
332 167.75 100 0 -1 0
165 167.75 100 0 -1 0
172.75 157 0 -1 0 0
172.75 241 0 -1 0 0
172.75 241 100 -1 0 0
172.75 157 100 -1 0 0
173.25 157 0 1 -0 0
173.25 241 0 1 -0 0
173.25 241 100 1 -0 0
173.25 157 100 1 -0 0
225.25 168 0 223.304000854492188 167.548599243164062 0
224.75 168 0 223.304000854492188 167.548599243164062 0
224.75 168 100 223.304000854492188 167.548599243164062 0
225.25 168 100 223.304000854492188 167.548599243164062 0
411.25 482 0 408.253631591796875 479.4881591796875 0
410.75 482 0 408.253631591796875 479.4881591796875 0
410.75 482 100 408.253631591796875 479.4881591796875 0
411.25 482 100 408.253631591796875 479.4881591796875 0
554.25 332 0 541.3604736328125 325.279083251953125 0
553.75 332 0 541.3604736328125 325.279083251953125 0
553.75 332 100 541.3604736328125 325.279083251953125 0
554.25 332 100 541.3604736328125 325.279083251953125 0
554.25 289 0 541.3604736328125 281.279083251953125 0
553.75 289 0 541.3604736328125 281.279083251953125 0
553.75 289 100 541.3604736328125 281.279083251953125 0
554.25 289 100 541.3604736328125 281.279083251953125 0
224 139.25 0 220.944961547851562 137.97247314453125 0
224 138.75 0 220.944961547851562 137.97247314453125 0
224 138.75 100 220.944961547851562 137.97247314453125 0
224 139.25 100 220.944961547851562 137.97247314453125 0
333 139.25 0 330.9449462890625 137.97247314453125 0
333 138.75 0 330.9449462890625 137.97247314453125 0
333 138.75 100 330.9449462890625 137.97247314453125 0
333 139.25 100 330.9449462890625 137.97247314453125 0
451 86.25 0 434.448272705078125 83.2758636474609375 0
451 85.75 0 434.448272705078125 83.2758636474609375 0
451 85.75 100 434.448272705078125 83.2758636474609375 0
451 86.25 100 434.448272705078125 83.2758636474609375 0
480 86.25 0 464.448272705078125 83.2758636474609375 0
480 85.75 0 464.448272705078125 83.2758636474609375 0
480 85.75 100 464.448272705078125 83.2758636474609375 0
480 86.25 100 464.448272705078125 83.2758636474609375 0
630.75 167 0 624.3787841796875 164.313125610351562 0
631.25 167 0 624.3787841796875 164.313125610351562 0
631.25 167 100 624.3787841796875 164.313125610351562 0
630.75 167 100 624.3787841796875 164.313125610351562 0
630.75 266 0 624.3787841796875 264.313140869140625 0
631.25 266 0 624.3787841796875 264.313140869140625 0
631.25 266 100 624.3787841796875 264.313140869140625 0
630.75 266 100 624.3787841796875 264.313140869140625 0
292.75 139 0 290.204345703125 136.791305541992188 0
293.25 139 0 290.204345703125 136.791305541992188 0
293.25 139 100 290.204345703125 136.791305541992188 0
292.75 139 100 290.204345703125 136.791305541992188 0
292.75 254 0 290.204345703125 252.791305541992188 0
293.25 254 0 290.204345703125 252.791305541992188 0
293.25 254 100 290.204345703125 252.791305541992188 0
292.75 254 100 290.204345703125 252.791305541992188 0
348 52.25 0 346.16497802734375 51.8243370056152344 0
348 51.75 0 346.16497802734375 51.8243370056152344 0
348 51.75 100 346.16497802734375 51.8243370056152344 0
348 52.25 100 346.16497802734375 51.8243370056152344 0
195.75 166 0 194.220703125 163.703125 0
196.25 166 0 194.220703125 163.703125 0
196.25 166 100 194.220703125 163.703125 0
195.75 166 100 194.220703125 163.703125 0
195.75 294 0 194.220703125 292.703125 0
196.25 294 0 194.220703125 292.703125 0
196.25 294 100 194.220703125 292.703125 0
195.75 294 100 194.220703125 292.703125 0
410.75 174 0 406.981658935546875 171.403671264648438 0
411.25 174 0 406.981658935546875 171.403671264648438 0
411.25 174 100 406.981658935546875 171.403671264648438 0
410.75 174 100 406.981658935546875 171.403671264648438 0
410.75 283 0 406.981658935546875 281.403656005859375 0
411.25 283 0 406.981658935546875 281.403656005859375 0
411.25 283 100 406.981658935546875 281.403656005859375 0
410.75 283 100 406.981658935546875 281.403656005859375 0
199 254.25 0 197.091323852539062 253.089035034179688 0
199 253.75 0 197.091323852539062 253.089035034179688 0
199 253.75 100 197.091323852539062 253.089035034179688 0
199 254.25 100 197.091323852539062 253.089035034179688 0
418 254.25 0 417.091339111328125 253.089035034179688 0
418 253.75 0 417.091339111328125 253.089035034179688 0
418 253.75 100 417.091339111328125 253.089035034179688 0
418 254.25 100 417.091339111328125 253.089035034179688 0
225 344.75 0 222.791946411132812 342.89898681640625 0
225 345.25 0 222.791946411132812 342.89898681640625 0
225 345.25 100 222.791946411132812 342.89898681640625 0
225 344.75 100 222.791946411132812 342.89898681640625 0
529.75 39 0 521.34124755859375 37.380950927734375 0
530.25 39 0 521.34124755859375 37.380950927734375 0
530.25 39 100 521.34124755859375 37.380950927734375 0
529.75 39 100 521.34124755859375 37.380950927734375 0
529.75 102 0 521.34124755859375 101.380950927734375 0
530.25 102 0 521.34124755859375 101.380950927734375 0
530.25 102 100 521.34124755859375 101.380950927734375 0
529.75 102 100 521.34124755859375 101.380950927734375 0
224.75 253 0 223.972320556640625 251.12457275390625 0
225.25 253 0 223.972320556640625 251.12457275390625 0
225.25 253 100 223.972320556640625 251.12457275390625 0
224.75 253 100 223.972320556640625 251.12457275390625 0
224.75 542 0 223.972320556640625 541.12457275390625 0
225.25 542 0 223.972320556640625 541.12457275390625 0
225.25 542 100 223.972320556640625 541.12457275390625 0
224.75 542 100 223.972320556640625 541.12457275390625 0
529.75 363 0 523.28961181640625 357.57318115234375 0
530.25 363 0 523.28961181640625 357.57318115234375 0
530.25 363 100 523.28961181640625 357.57318115234375 0
529.75 363 100 523.28961181640625 357.57318115234375 0
529.75 445 0 523.28961181640625 440.57318115234375 0
530.25 445 0 523.28961181640625 440.57318115234375 0
530.25 445 100 523.28961181640625 440.57318115234375 0
529.75 445 100 523.28961181640625 440.57318115234375 0
165 168.25 0 163.011978149414062 167.242507934570312 0
165 167.75 0 163.011978149414062 167.242507934570312 0
165 167.75 100 163.011978149414062 167.242507934570312 0
165 168.25 100 163.011978149414062 167.242507934570312 0
332 168.25 0 331.011962890625 167.242507934570312 0
332 167.75 0 331.011962890625 167.242507934570312 0
332 167.75 100 331.011962890625 167.242507934570312 0
332 168.25 100 331.011962890625 167.242507934570312 0
172.75 157 0 170.693450927734375 154.130950927734375 0
173.25 157 0 170.693450927734375 154.130950927734375 0
173.25 157 100 170.693450927734375 154.130950927734375 0
172.75 157 100 170.693450927734375 154.130950927734375 0
172.75 241 0 170.693450927734375 239.130950927734375 0
173.25 241 0 170.693450927734375 239.130950927734375 0
173.25 241 100 170.693450927734375 239.130950927734375 0
172.75 241 100 170.693450927734375 239.130950927734375 0
225.25 168 0 0 0 -1
224.75 168 0 0 0 -1
224.75 51.75 0 0 0 -1
225.25 52.25 0 0 0 -1
225.25 168 100 0 0 1
224.75 168 100 0 0 1
224.75 51.75 100 0 0 1
225.25 52.25 100 0 0 1
225.25 52.25 0 0 0 -1
224.75 51.75 0 0 0 -1
348 51.75 0 0 0 -1
348 52.25 0 0 0 -1
225.25 52.25 100 0 0 1
224.75 51.75 100 0 0 1
348 51.75 100 0 0 1
348 52.25 100 0 0 1
411.25 482 0 0 0 -1
410.75 482 0 0 0 -1
410.75 345.25 0 0 0 -1
411.25 344.75 0 0 0 -1
411.25 482 100 0 0 1
410.75 482 100 0 0 1
410.75 345.25 100 0 0 1
411.25 344.75 100 0 0 1
411.25 344.75 0 0 0 -1
410.75 345.25 0 0 0 -1
225 345.25 0 0 0 -1
225 344.75 0 0 0 -1
411.25 344.75 100 0 0 1
410.75 345.25 100 0 0 1
225 345.25 100 0 0 1
225 344.75 100 0 0 1
554.25 332 0 0 0 -1
553.75 332 0 0 0 -1
553.75 289 0 0 0 -1
554.25 289 0 0 0 -1
554.25 332 100 0 0 1
553.75 332 100 0 0 1
553.75 289 100 0 0 1
554.25 289 100 0 0 1
224 139.25 0 0 0 -1
224 138.75 0 0 0 -1
333 138.75 0 0 0 -1
333 139.25 0 0 0 -1
224 139.25 100 0 0 1
224 138.75 100 0 0 1
333 138.75 100 0 0 1
333 139.25 100 0 0 1
451 86.25 0 0 0 -1
451 85.75 0 0 0 -1
480 85.75 0 0 0 -1
480 86.25 0 0 0 -1
451 86.25 100 0 0 1
451 85.75 100 0 0 1
480 85.75 100 0 0 1
480 86.25 100 0 0 1
630.75 167 0 0 0 -1
631.25 167 0 0 0 -1
631.25 266 0 0 0 -1
630.75 266 0 0 0 -1
630.75 167 100 0 0 1
631.25 167 100 0 0 1
631.25 266 100 0 0 1
630.75 266 100 0 0 1
292.75 139 0 0 0 -1
293.25 139 0 0 0 -1
293.25 254 0 0 0 -1
292.75 254 0 0 0 -1
292.75 139 100 0 0 1
293.25 139 100 0 0 1
293.25 254 100 0 0 1
292.75 254 100 0 0 1
195.75 166 0 0 0 -1
196.25 166 0 0 0 -1
196.25 294 0 0 0 -1
195.75 294 0 0 0 -1
195.75 166 100 0 0 1
196.25 166 100 0 0 1
196.25 294 100 0 0 1
195.75 294 100 0 0 1
410.75 174 0 0 0 -1
411.25 174 0 0 0 -1
411.25 283 0 0 0 -1
410.75 283 0 0 0 -1
410.75 174 100 0 0 1
411.25 174 100 0 0 1
411.25 283 100 0 0 1
410.75 283 100 0 0 1
199 254.25 0 0 0 -1
199 253.75 0 0 0 -1
418 253.75 0 0 0 -1
418 254.25 0 0 0 -1
199 254.25 100 0 0 1
199 253.75 100 0 0 1
418 253.75 100 0 0 1
418 254.25 100 0 0 1
529.75 39 0 0 0 -1
530.25 39 0 0 0 -1
530.25 102 0 0 0 -1
529.75 102 0 0 0 -1
529.75 39 100 0 0 1
530.25 39 100 0 0 1
530.25 102 100 0 0 1
529.75 102 100 0 0 1
224.75 253 0 0 0 -1
225.25 253 0 0 0 -1
225.25 542 0 0 0 -1
224.75 542 0 0 0 -1
224.75 253 100 0 0 1
225.25 253 100 0 0 1
225.25 542 100 0 0 1
224.75 542 100 0 0 1
529.75 363 0 0 0 -1
530.25 363 0 0 0 -1
530.25 445 0 0 0 -1
529.75 445 0 0 0 -1
529.75 363 100 0 0 1
530.25 363 100 0 0 1
530.25 445 100 0 0 1
529.75 445 100 0 0 1
165 168.25 0 0 0 -1
165 167.75 0 0 0 -1
332 167.75 0 0 0 -1
332 168.25 0 0 0 -1
165 168.25 100 0 0 1
165 167.75 100 0 0 1
332 167.75 100 0 0 1
332 168.25 100 0 0 1
172.75 157 0 0 0 -1
173.25 157 0 0 0 -1
173.25 241 0 0 0 -1
172.75 241 0 0 0 -1
172.75 157 100 0 0 1
173.25 157 100 0 0 1
173.25 241 100 0 0 1
172.75 241 100 0 0 1
4 0 1 2 3
4 4 5 6 7
4 8 9 10 11
4 12 13 14 15
4 16 17 18 19
4 20 21 22 23
4 24 25 26 27
4 28 29 30 31
4 32 33 34 35
4 36 37 38 39
4 40 41 42 43
4 44 45 46 47
4 48 49 50 51
4 52 53 54 55
4 56 57 58 59
4 60 61 62 63
4 64 65 66 67
4 68 69 70 71
4 72 73 74 75
4 76 77 78 79
4 80 81 82 83
4 84 85 86 87
4 88 89 90 91
4 92 93 94 95
4 96 97 98 99
4 100 101 102 103
4 104 105 106 107
4 108 109 110 111
4 112 113 114 115
4 116 117 118 119
4 120 121 122 123
4 124 125 126 127
4 128 129 130 131
4 132 133 134 135
4 136 137 138 139
4 140 141 142 143
4 144 145 146 147
4 148 149 150 151
4 152 153 154 155
4 156 157 158 159
4 160 161 162 163
4 164 165 166 167
4 168 169 170 171
4 172 173 174 175
4 176 177 178 179
4 180 181 182 183
4 184 185 186 187
4 188 189 190 191
4 192 193 194 195
4 196 197 198 199
4 200 201 202 203
4 204 205 206 207
4 208 209 210 211
4 212 213 214 215
4 216 217 218 219
4 220 221 222 223
4 224 225 226 227
4 228 229 230 231
4 232 233 234 235
4 236 237 238 239
4 240 241 242 243
4 244 245 246 247
4 248 249 250 251
4 252 253 254 255
4 256 257 258 259
4 260 261 262 263
4 264 265 266 267
4 268 269 270 271
4 272 273 274 275
4 276 277 278 279
4 280 281 282 283
4 284 285 286 287
4 288 289 290 291
4 292 293 294 295
4 296 297 298 299
4 300 301 302 303
4 304 305 306 307
4 308 309 310 311
4 312 313 314 315
4 316 317 318 319
4 320 321 322 323
4 324 325 326 327
4 328 329 330 331
4 332 333 334 335
4 336 337 338 339
4 340 341 342 343
4 344 345 346 347
4 348 349 350 351
4 352 353 354 355
4 356 357 358 359
4 360 361 362 363
4 364 365 366 367
4 368 369 370 371
4 372 373 374 375
4 376 377 378 379
4 380 381 382 383
4 384 385 386 387
4 388 389 390 391
