ply
format ascii 1.0
element vertex 626
property float x
property float y
property float z
property float nx
property float ny
property float nz
element quads 155
property list uchar int vertex_indices
element triads 2
property list uchar int vertex_indices
end_header
229.960830688476562 531 0 1 0 0
229.960830688476562 478 0 1 0 0
229.960830688476562 478 150 1 0 0
229.960830688476562 531 150 1 0 0
219.960830688476562 531 0 -1 -0 0
219.960830688476562 478 0 -1 -0 0
219.960830688476562 478 150 -1 -0 0
219.960830688476562 531 150 -1 -0 0
230 205.002090454101562 0 1 0 0
230 9 0 1 0 0
230 9 150 1 0 0
230 205.002090454101562 150 1 0 0
220 205.002090454101562 0 -1 -0 0
220 -1 0 -1 -0 0
220 -1 150 -1 -0 0
220 205.002090454101562 150 -1 -0 0
230 9 0 -0 1 0
396 9 0 -0 1 0
396 9 150 -0 1 0
230 9 150 -0 1 0
220 -1 0 0 -1 0
396 -1 0 0 -1 0
396 -1 150 0 -1 0
220 -1 150 0 -1 0
229.896347045898438 392 0 1 0 0
229.896347045898438 241 0 1 0 0
229.896347045898438 241 150 1 0 0
229.896347045898438 392 150 1 0 0
219.896347045898438 392 0 -1 -0 0
219.896347045898438 241 0 -1 -0 0
219.896347045898438 241 150 -1 -0 0
219.896347045898438 392 150 -1 -0 0
549 -1.5 0 -0 -1 0
440 -1.5 0 -0 -1 0
440 -1.5 150 -0 -1 0
549 -1.5 150 -0 -1 0
549 8.5 0 0 1 0
440 8.5 0 0 1 0
440 8.5 150 0 1 0
549 8.5 150 0 1 0
396 245.997650146484375 0 -0 -1 0
225 245.997650146484375 0 -0 -1 0
225 245.997650146484375 150 -0 -1 0
396 245.997650146484375 150 -0 -1 0
396 255.997650146484375 0 0 1 0
225 255.997650146484375 0 0 1 0
225 255.997650146484375 150 0 1 0
396 255.997650146484375 150 0 1 0
387 334.9925537109375 0 -0 -1 0
225 334.9925537109375 0 -0 -1 0
225 334.9925537109375 150 -0 -1 0
387 334.9925537109375 150 -0 -1 0
387 344.9925537109375 0 0 1 0
225 344.9925537109375 0 0 1 0
225 344.9925537109375 150 0 1 0
387 344.9925537109375 150 0 1 0
388 73.8360214233398438 0 -0 -1 0
229 73.8360214233398438 0 -0 -1 0
229 73.8360214233398438 150 -0 -1 0
388 73.8360214233398438 150 -0 -1 0
388 83.8360214233398438 0 0 1 0
229 83.8360214233398438 0 0 1 0
229 83.8360214233398438 150 0 1 0
388 83.8360214233398438 150 0 1 0
602 304.503662109375 0 -0 -1 0
495 304.503662109375 0 -0 -1 0
495 304.503662109375 150 -0 -1 0
602 304.503662109375 150 -0 -1 0
602 314.503662109375 0 0 1 0
495 314.503662109375 0 0 1 0
495 314.503662109375 150 0 1 0
602 314.503662109375 150 0 1 0
393 130 0 1 0 0
393 79 0 1 0 0
393 79 150 1 0 0
393 130 150 1 0 0
383 130 0 -1 -0 0
383 79 0 -1 -0 0
383 79 150 -1 -0 0
383 130 150 -1 -0 0
476 543 0 -0 -1 0
438 543 0 -0 -1 0
438 543 150 -0 -1 0
476 543 150 -0 -1 0
476 553 0 0 1 0
438 553 0 0 1 0
438 553 150 0 1 0
476 553 150 0 1 0
532 346.48980712890625 0 -0 -1 0
495 346.48980712890625 0 -0 -1 0
495 346.48980712890625 150 -0 -1 0
532 346.48980712890625 150 -0 -1 0
532 356.48980712890625 0 0 1 0
495 356.48980712890625 0 0 1 0
495 356.48980712890625 150 0 1 0
532 356.48980712890625 150 0 1 0
527 339 0 1 0 0
527 312 0 1 0 0
527 312 150 1 0 0
527 339 150 1 0 0
517 339 0 -1 -0 0
517 312 0 -1 -0 0
517 312 150 -1 -0 0
517 339 150 -1 -0 0
376.5 292 0 1 0 0
376.5 254 0 1 0 0
376.5 254 150 1 0 0
376.5 292 150 1 0 0
366.5 292 0 -1 -0 0
366.5 254 0 -1 -0 0
366.5 254 150 -1 -0 0
366.5 292 150 -1 -0 0
402 438 0 1 0 0
402 421.05108642578125 0 1 0 0
402 421.05108642578125 150 1 0 0
402 438 150 1 0 0
392 438 0 -1 -0 0
392 414.94891357421875 0 -1 -0 0
392 414.94891357421875 150 -1 -0 0
392 438 150 -1 -0 0
402 421.05108642578125 0 0.45733720064163208 0.889293372631072998 0
436.6824951171875 403.21490478515625 0 0.45733720064163208 0.889293372631072998 0
436.6824951171875 403.21490478515625 150 0.45733720064163208 0.889293372631072998 0
402 421.05108642578125 150 0.45733720064163208 0.889293372631072998 0
392 414.94891357421875 0 -0.45733720064163208 -0.889293372631072998 0
432.109130859375 394.32196044921875 0 -0.45733720064163208 -0.889293372631072998 0
432.109130859375 394.32196044921875 150 -0.45733720064163208 -0.889293372631072998 0
392 414.94891357421875 150 -0.45733720064163208 -0.889293372631072998 0
401.51898193359375 527 0 1 0 0
401.51898193359375 507 0 1 0 0
401.51898193359375 507 150 1 0 0
401.51898193359375 527 150 1 0 0
391.51898193359375 527 0 -1 -0 0
391.51898193359375 507 0 -1 -0 0
391.51898193359375 507 150 -1 -0 0
391.51898193359375 527 150 -1 -0 0
393.5 35 0 1 0 0
393.5 10 0 1 0 0
393.5 10 150 1 0 0
393.5 35 150 1 0 0
383.5 35 0 -1 -0 0
383.5 10 0 -1 -0 0
383.5 10 150 -1 -0 0
383.5 35 150 -1 -0 0
603.54168701171875 13 0 1 0 0
603.54168701171875 0 0 1 0 0
603.54168701171875 0 150 1 0 0
603.54168701171875 13 150 1 0 0
593.54168701171875 13 0 -1 -0 0
593.54168701171875 0 0 -1 -0 0
593.54168701171875 0 150 -1 -0 0
593.54168701171875 13 150 -1 -0 0
597 310 0 -1 0 0
597 543.06536865234375 0 -1 0 0
597 543.06536865234375 150 -1 0 0
597 310 150 -1 0 0
607 310 0 1 -0 0
607 552.93463134765625 0 1 -0 0
607 552.93463134765625 150 1 -0 0
607 310 150 1 -0 0
597 543.06536865234375 0 -0.0131614040583372116 -0.999913394451141357 0
561.9342041015625 543.52691650390625 0 -0.0131614040583372116 -0.999913394451141357 0
561.9342041015625 543.52691650390625 150 -0.0131614040583372116 -0.999913394451141357 0
597 543.06536865234375 150 -0.0131614040583372116 -0.999913394451141357 0
607 552.93463134765625 0 0.0131614040583372116 0.999913394451141357 0
562.0657958984375 553.52606201171875 0 0.0131614040583372116 0.999913394451141357 0
562.0657958984375 553.52606201171875 150 0.0131614040583372116 0.999913394451141357 0
607 552.93463134765625 150 0.0131614040583372116 0.999913394451141357 0
596.99566650390625 56.9743385314941406 0 -0.999986827373504639 -0.00513199670240283012 0
596.02557373046875 246 0 -0.999986827373504639 -0.00513199670240283012 0
596.02557373046875 246 150 -0.999986827373504639 -0.00513199670240283012 0
596.99566650390625 56.9743385314941406 150 -0.999986827373504639 -0.00513199670240283012 0
606.99554443359375 57.0256614685058594 0 0.999986827373504639 0.00513199670240283012 0
605.97442626953125 256 0 0.999986827373504639 0.00513199670240283012 0
605.97442626953125 256 150 0.999986827373504639 0.00513199670240283012 0
606.99554443359375 57.0256614685058594 150 0.999986827373504639 0.00513199670240283012 0
596.02557373046875 246 0 -0 -1 0
481 246 0 -0 -1 0
481 246 150 -0 -1 0
596.02557373046875 246 150 -0 -1 0
605.97442626953125 256 0 0 1 0
481 256 0 0 1 0
481 256 150 0 1 0
605.97442626953125 256 150 0 1 0
443.2894287109375 547.9146728515625 0 0.999854385852813721 -0.0170648060739040375 0
442.9154052734375 526 0 0.999854385852813721 -0.0170648060739040375 0
442.9154052734375 526 150 0.999854385852813721 -0.0170648060739040375 0
443.2894287109375 547.9146728515625 150 0.999854385852813721 -0.0170648060739040375 0
433.290863037109375 548.0853271484375 0 -0.999854385852813721 0.0170648060739040375 0
432.99993896484375 531.03887939453125 0 -0.999854385852813721 0.0170648060739040375 0
432.99993896484375 531.03887939453125 150 -0.999854385852813721 0.0170648060739040375 0
433.290863037109375 548.0853271484375 150 -0.999854385852813721 0.0170648060739040375 0
442.99249267578125 536 0 0.999998867511749268 0.00150333496276289225 0
443.290130615234375 338.00750732421875 0 0.999998867511749268 0.00150333496276289225 0
443.290130615234375 338.00750732421875 150 0.999998867511749268 0.00150333496276289225 0
442.99249267578125 536 150 0.999998867511749268 0.00150333496276289225 0
432.99993896484375 531.03887939453125 0 -0.999998867511749268 -0.00150333496276289225 0
433.2901611328125 337.99249267578125 0 -0.999998867511749268 -0.00150333496276289225 0
433.2901611328125 337.99249267578125 150 -0.999998867511749268 -0.00150333496276289225 0
432.99993896484375 531.03887939453125 150 -0.999998867511749268 -0.00150333496276289225 0
442.9154052734375 526 0 -0 -1 0
225 526 0 -0 -1 0
225 526 150 -0 -1 0
442.9154052734375 526 150 -0 -1 0
442.99249267578125 536 0 0 1 0
225 536 0 0 1 0
225 536 150 0 1 0
442.99249267578125 536 150 0 1 0
393 248 0 1 0 0
393 172.948715209960938 0 1 0 0
393 172.948715209960938 150 1 0 0
393 248 150 1 0 0
383 248 0 -1 -0 0
383 183.051284790039062 0 -1 -0 0
383 183.051284790039062 150 -1 -0 0
383 248 150 -1 -0 0
393 172.948715209960938 0 -0.0102035505697131157 -0.999947965145111084 0
338.948974609375 173.500259399414062 0 -0.0102035505697131157 -0.999947965145111084 0
338.948974609375 173.500259399414062 150 -0.0102035505697131157 -0.999947965145111084 0
393 172.948715209960938 150 -0.0102035505697131157 -0.999947965145111084 0
383 183.051284790039062 0 0.0102035505697131157 0.999947965145111084 0
339.051025390625 183.499740600585938 0 0.0102035505697131157 0.999947965145111084 0
339.051025390625 183.499740600585938 150 0.0102035505697131157 0.999947965145111084 0
383 183.051284790039062 150 0.0102035505697131157 0.999947965145111084 0
229.960830688476562 531 0 225.6219482421875 521.98114013671875 0
219.960830688476562 531 0 225.6219482421875 521.98114013671875 0
219.960830688476562 531 150 225.6219482421875 521.98114013671875 0
229.960830688476562 531 150 225.6219482421875 521.98114013671875 0
229.960830688476562 478 0 225.6219482421875 467.98114013671875 0
219.960830688476562 478 0 225.6219482421875 467.98114013671875 0
219.960830688476562 478 150 225.6219482421875 467.98114013671875 0
229.960830688476562 478 150 225.6219482421875 467.98114013671875 0
230 205.002090454101562 0 228.8265380859375 204.9561767578125 0
220 205.002090454101562 0 228.8265380859375 204.9561767578125 0
220 205.002090454101562 150 228.8265380859375 204.9561767578125 0
230 205.002090454101562 150 228.8265380859375 204.9561767578125 0
396 9 0 394.614471435546875 8.94578266143798828 0
396 -1 0 394.614471435546875 8.94578266143798828 0
396 -1 150 394.614471435546875 8.94578266143798828 0
396 9 150 394.614471435546875 8.94578266143798828 0
229.896347045898438 392 0 228.373855590820312 390.403961181640625 0
219.896347045898438 392 0 228.373855590820312 390.403961181640625 0
219.896347045898438 392 150 228.373855590820312 390.403961181640625 0
229.896347045898438 392 150 228.373855590820312 390.403961181640625 0
229.896347045898438 241 0 228.373855590820312 238.403976440429688 0
219.896347045898438 241 0 228.373855590820312 238.403976440429688 0
219.896347045898438 241 150 228.373855590820312 238.403976440429688 0
229.896347045898438 241 150 228.373855590820312 238.403976440429688 0
549 -1.5 0 544.96331787109375 -1.48623847961425781 0
549 8.5 0 544.96331787109375 -1.48623847961425781 0
549 8.5 150 544.96331787109375 -1.48623847961425781 0
549 -1.5 150 544.96331787109375 -1.48623847961425781 0
440 -1.5 0 434.96331787109375 -1.48623847961425781 0
440 8.5 0 434.96331787109375 -1.48623847961425781 0
440 8.5 150 434.96331787109375 -1.48623847961425781 0
440 -1.5 150 434.96331787109375 -1.48623847961425781 0
396 245.997650146484375 0 394.6842041015625 244.559066772460938 0
396 255.997650146484375 0 394.6842041015625 244.559066772460938 0
396 255.997650146484375 150 394.6842041015625 244.559066772460938 0
396 245.997650146484375 150 394.6842041015625 244.559066772460938 0
225 245.997650146484375 0 222.6842041015625 244.559066772460938 0
225 255.997650146484375 0 222.6842041015625 244.559066772460938 0
225 255.997650146484375 150 222.6842041015625 244.559066772460938 0
225 245.997650146484375 150 222.6842041015625 244.559066772460938 0
387 334.9925537109375 0 385.611114501953125 332.9246826171875 0
387 344.9925537109375 0 385.611114501953125 332.9246826171875 0
387 344.9925537109375 150 385.611114501953125 332.9246826171875 0
387 334.9925537109375 150 385.611114501953125 332.9246826171875 0
225 334.9925537109375 0 222.611114501953125 332.9246826171875 0
225 344.9925537109375 0 222.611114501953125 332.9246826171875 0
225 344.9925537109375 150 222.611114501953125 332.9246826171875 0
225 334.9925537109375 150 222.611114501953125 332.9246826171875 0
388 73.8360214233398438 0 386.55975341796875 73.37164306640625 0
388 83.8360214233398438 0 386.55975341796875 73.37164306640625 0
388 83.8360214233398438 150 386.55975341796875 73.37164306640625 0
388 73.8360214233398438 150 386.55975341796875 73.37164306640625 0
229 73.8360214233398438 0 226.55975341796875 73.37164306640625 0
229 83.8360214233398438 0 226.55975341796875 73.37164306640625 0
229 83.8360214233398438 150 226.55975341796875 73.37164306640625 0
229 73.8360214233398438 150 226.55975341796875 73.37164306640625 0
602 304.503662109375 0 597.37384033203125 301.657806396484375 0
602 314.503662109375 0 597.37384033203125 301.657806396484375 0
602 314.503662109375 150 597.37384033203125 301.657806396484375 0
602 304.503662109375 150 597.37384033203125 301.657806396484375 0
495 304.503662109375 0 489.37384033203125 301.657806396484375 0
495 314.503662109375 0 489.37384033203125 301.657806396484375 0
495 314.503662109375 150 489.37384033203125 301.657806396484375 0
495 304.503662109375 150 489.37384033203125 301.657806396484375 0
393 130 0 385.29412841796875 128.450973510742188 0
383 130 0 385.29412841796875 128.450973510742188 0
383 130 150 385.29412841796875 128.450973510742188 0
393 130 150 385.29412841796875 128.450973510742188 0
393 79 0 385.29412841796875 76.4509811401367188 0
383 79 0 385.29412841796875 76.4509811401367188 0
383 79 150 385.29412841796875 76.4509811401367188 0
393 79 150 385.29412841796875 76.4509811401367188 0
476 543 0 464.47369384765625 528.71051025390625 0
476 553 0 464.47369384765625 528.71051025390625 0
476 553 150 464.47369384765625 528.71051025390625 0
476 543 150 464.47369384765625 528.71051025390625 0
438 543 0 425.47369384765625 528.71051025390625 0
438 553 0 425.47369384765625 528.71051025390625 0
438 553 150 425.47369384765625 528.71051025390625 0
438 543 150 425.47369384765625 528.71051025390625 0
532 346.48980712890625 0 518.62164306640625 337.125213623046875 0
532 356.48980712890625 0 518.62164306640625 337.125213623046875 0
532 356.48980712890625 150 518.62164306640625 337.125213623046875 0
532 346.48980712890625 150 518.62164306640625 337.125213623046875 0
495 346.48980712890625 0 480.621612548828125 337.125213623046875 0
495 356.48980712890625 0 480.621612548828125 337.125213623046875 0
495 356.48980712890625 150 480.621612548828125 337.125213623046875 0
495 346.48980712890625 150 480.621612548828125 337.125213623046875 0
527 339 0 507.481475830078125 327.4444580078125 0
517 339 0 507.481475830078125 327.4444580078125 0
517 339 150 507.481475830078125 327.4444580078125 0
527 339 150 507.481475830078125 327.4444580078125 0
527 312 0 507.481475830078125 299.4444580078125 0
517 312 0 507.481475830078125 299.4444580078125 0
517 312 150 507.481475830078125 299.4444580078125 0
527 312 150 507.481475830078125 299.4444580078125 0
376.5 292 0 366.59210205078125 285.3157958984375 0
366.5 292 0 366.59210205078125 285.3157958984375 0
366.5 292 150 366.59210205078125 285.3157958984375 0
376.5 292 150 366.59210205078125 285.3157958984375 0
376.5 254 0 366.59210205078125 246.3157958984375 0
366.5 254 0 366.59210205078125 246.3157958984375 0
366.5 254 150 366.59210205078125 246.3157958984375 0
376.5 254 150 366.59210205078125 246.3157958984375 0
402 438 0 378.281646728515625 413.157623291015625 0
392 438 0 378.281646728515625 413.157623291015625 0
392 438 150 378.281646728515625 413.157623291015625 0
402 438 150 378.281646728515625 413.157623291015625 0
401.51898193359375 527 0 381.443023681640625 501.649993896484375 0
391.51898193359375 527 0 381.443023681640625 501.649993896484375 0
391.51898193359375 527 150 381.443023681640625 501.649993896484375 0
401.51898193359375 527 150 381.443023681640625 501.649993896484375 0
401.51898193359375 507 0 381.443023681640625 480.649993896484375 0
391.51898193359375 507 0 381.443023681640625 480.649993896484375 0
391.51898193359375 507 150 381.443023681640625 480.649993896484375 0
401.51898193359375 507 150 381.443023681640625 480.649993896484375 0
393.5 35 0 377.760009765625 34.5999984741210938 0
383.5 35 0 377.760009765625 34.5999984741210938 0
383.5 35 150 377.760009765625 34.5999984741210938 0
393.5 35 150 377.760009765625 34.5999984741210938 0
393.5 10 0 377.760009765625 8.60000038146972656 0
383.5 10 0 377.760009765625 8.60000038146972656 0
383.5 10 150 377.760009765625 8.60000038146972656 0
393.5 10 150 377.760009765625 8.60000038146972656 0
603.54168701171875 13 0 557.1153564453125 13 0
593.54168701171875 13 0 557.1153564453125 13 0
593.54168701171875 13 150 557.1153564453125 13 0
603.54168701171875 13 150 557.1153564453125 13 0
603.54168701171875 0 0 557.1153564453125 -1 0
593.54168701171875 0 0 557.1153564453125 -1 0
593.54168701171875 0 150 557.1153564453125 -1 0
603.54168701171875 0 150 557.1153564453125 -1 0
436.6824951171875 403.21490478515625 0 426.37481689453125 392.418731689453125 0
432.109130859375 394.32196044921875 0 426.37481689453125 392.418731689453125 0
432.109130859375 394.32196044921875 150 426.37481689453125 392.418731689453125 0
436.6824951171875 403.21490478515625 150 426.37481689453125 392.418731689453125 0
597 310 0 594.4384765625 307.669891357421875 0
607 310 0 594.4384765625 307.669891357421875 0
607 310 150 594.4384765625 307.669891357421875 0
597 310 150 594.4384765625 307.669891357421875 0
561.9342041015625 543.52691650390625 0 544.9105224609375 528.041259765625 0
562.0657958984375 553.52606201171875 0 544.9105224609375 528.041259765625 0
562.0657958984375 553.52606201171875 150 544.9105224609375 528.041259765625 0
561.9342041015625 543.52691650390625 150 544.9105224609375 528.041259765625 0
596.99566650390625 56.9743385314941406 0 593.84259033203125 55.6729469299316406 0
606.99554443359375 57.0256614685058594 0 593.84259033203125 55.6729469299316406 0
606.99554443359375 57.0256614685058594 150 593.84259033203125 55.6729469299316406 0
596.99566650390625 56.9743385314941406 150 593.84259033203125 55.6729469299316406 0
481 246 0 475.818328857421875 243.861343383789062 0
481 256 0 475.818328857421875 243.861343383789062 0
481 256 150 475.818328857421875 243.861343383789062 0
481 246 150 475.818328857421875 243.861343383789062 0
443.2894287109375 547.9146728515625 0 423.081451416015625 523.916015625 0
433.290863037109375 548.0853271484375 0 423.081451416015625 523.916015625 0
433.290863037109375 548.0853271484375 150 423.081451416015625 523.916015625 0
443.2894287109375 547.9146728515625 150 423.081451416015625 523.916015625 0
443.290130615234375 338.00750732421875 0 441.052734375 335.30035400390625 0
433.2901611328125 337.99249267578125 0 441.052734375 335.30035400390625 0
433.2901611328125 337.99249267578125 150 441.052734375 335.30035400390625 0
443.290130615234375 338.00750732421875 150 441.052734375 335.30035400390625 0
225 526 0 222.967483520507812 523.58624267578125 0
225 536 0 222.967483520507812 523.58624267578125 0
225 536 150 222.967483520507812 523.58624267578125 0
225 526 150 222.967483520507812 523.58624267578125 0
393 248 0 387.763580322265625 245.695587158203125 0
383 248 0 387.763580322265625 245.695587158203125 0
383 248 150 387.763580322265625 245.695587158203125 0
393 248 150 387.763580322265625 245.695587158203125 0
338.948974609375 173.500259399414062 0 331.678466796875 170.300689697265625 0
339.051025390625 183.499740600585938 0 331.678466796875 170.300689697265625 0
339.051025390625 183.499740600585938 150 331.678466796875 170.300689697265625 0
338.948974609375 173.500259399414062 150 331.678466796875 170.300689697265625 0
229.960830688476562 531 0 0 0 -1
219.960830688476562 531 0 0 0 -1
219.960830688476562 478 0 0 0 -1
229.960830688476562 478 0 0 0 -1
229.960830688476562 531 150 0 0 1
219.960830688476562 531 150 0 0 1
219.960830688476562 478 150 0 0 1
229.960830688476562 478 150 0 0 1
230 205.002090454101562 0 0 0 -1
220 205.002090454101562 0 0 0 -1
220 -1 0 0 0 -1
230 9 0 0 0 -1
230 205.002090454101562 150 0 0 1
220 205.002090454101562 150 0 0 1
220 -1 150 0 0 1
230 9 150 0 0 1
230 9 0 0 0 -1
220 -1 0 0 0 -1
396 -1 0 0 0 -1
396 9 0 0 0 -1
230 9 150 0 0 1
220 -1 150 0 0 1
396 -1 150 0 0 1
396 9 150 0 0 1
229.896347045898438 392 0 0 0 -1
219.896347045898438 392 0 0 0 -1
219.896347045898438 241 0 0 0 -1
229.896347045898438 241 0 0 0 -1
229.896347045898438 392 150 0 0 1
219.896347045898438 392 150 0 0 1
219.896347045898438 241 150 0 0 1
229.896347045898438 241 150 0 0 1
549 -1.5 0 0 0 -1
549 8.5 0 0 0 -1
440 8.5 0 0 0 -1
440 -1.5 0 0 0 -1
549 -1.5 150 0 0 1
549 8.5 150 0 0 1
440 8.5 150 0 0 1
440 -1.5 150 0 0 1
396 245.997650146484375 0 0 0 -1
396 255.997650146484375 0 0 0 -1
225 255.997650146484375 0 0 0 -1
225 245.997650146484375 0 0 0 -1
396 245.997650146484375 150 0 0 1
396 255.997650146484375 150 0 0 1
225 255.997650146484375 150 0 0 1
225 245.997650146484375 150 0 0 1
387 334.9925537109375 0 0 0 -1
387 344.9925537109375 0 0 0 -1
225 344.9925537109375 0 0 0 -1
225 334.9925537109375 0 0 0 -1
387 334.9925537109375 150 0 0 1
387 344.9925537109375 150 0 0 1
225 344.9925537109375 150 0 0 1
225 334.9925537109375 150 0 0 1
388 73.8360214233398438 0 0 0 -1
388 83.8360214233398438 0 0 0 -1
229 83.8360214233398438 0 0 0 -1
229 73.8360214233398438 0 0 0 -1
388 73.8360214233398438 150 0 0 1
388 83.8360214233398438 150 0 0 1
229 83.8360214233398438 150 0 0 1
229 73.8360214233398438 150 0 0 1
602 304.503662109375 0 0 0 -1
602 314.503662109375 0 0 0 -1
495 314.503662109375 0 0 0 -1
495 304.503662109375 0 0 0 -1
602 304.503662109375 150 0 0 1
602 314.503662109375 150 0 0 1
495 314.503662109375 150 0 0 1
495 304.503662109375 150 0 0 1
393 130 0 0 0 -1
383 130 0 0 0 -1
383 79 0 0 0 -1
393 79 0 0 0 -1
393 130 150 0 0 1
383 130 150 0 0 1
383 79 150 0 0 1
393 79 150 0 0 1
476 543 0 0 0 -1
476 553 0 0 0 -1
438 553 0 0 0 -1
438 543 0 0 0 -1
476 543 150 0 0 1
476 553 150 0 0 1
438 553 150 0 0 1
438 543 150 0 0 1
532 346.48980712890625 0 0 0 -1
532 356.48980712890625 0 0 0 -1
495 356.48980712890625 0 0 0 -1
495 346.48980712890625 0 0 0 -1
532 346.48980712890625 150 0 0 1
532 356.48980712890625 150 0 0 1
495 356.48980712890625 150 0 0 1
495 346.48980712890625 150 0 0 1
527 339 0 0 0 -1
517 339 0 0 0 -1
517 312 0 0 0 -1
527 312 0 0 0 -1
527 339 150 0 0 1
517 339 150 0 0 1
517 312 150 0 0 1
527 312 150 0 0 1
376.5 292 0 0 0 -1
366.5 292 0 0 0 -1
366.5 254 0 0 0 -1
376.5 254 0 0 0 -1
376.5 292 150 0 0 1
366.5 292 150 0 0 1
366.5 254 150 0 0 1
376.5 254 150 0 0 1
402 438 0 0 0 -1
392 438 0 0 0 -1
392 414.94891357421875 0 0 0 -1
402 421.05108642578125 0 0 0 -1
402 438 150 0 0 1
392 438 150 0 0 1
392 414.94891357421875 150 0 0 1
402 421.05108642578125 150 0 0 1
402 421.05108642578125 0 0 0 -1
392 414.94891357421875 0 0 0 -1
432.109130859375 394.32196044921875 0 0 0 -1
436.6824951171875 403.21490478515625 0 0 0 -1
402 421.05108642578125 150 0 0 1
392 414.94891357421875 150 0 0 1
432.109130859375 394.32196044921875 150 0 0 1
436.6824951171875 403.21490478515625 150 0 0 1
401.51898193359375 527 0 0 0 -1
391.51898193359375 527 0 0 0 -1
391.51898193359375 507 0 0 0 -1
401.51898193359375 507 0 0 0 -1
401.51898193359375 527 150 0 0 1
391.51898193359375 527 150 0 0 1
391.51898193359375 507 150 0 0 1
401.51898193359375 507 150 0 0 1
393.5 35 0 0 0 -1
383.5 35 0 0 0 -1
383.5 10 0 0 0 -1
393.5 10 0 0 0 -1
393.5 35 150 0 0 1
383.5 35 150 0 0 1
383.5 10 150 0 0 1
393.5 10 150 0 0 1
603.54168701171875 13 0 0 0 -1
593.54168701171875 13 0 0 0 -1
593.54168701171875 0 0 0 0 -1
603.54168701171875 0 0 0 0 -1
603.54168701171875 13 150 0 0 1
593.54168701171875 13 150 0 0 1
593.54168701171875 0 150 0 0 1
603.54168701171875 0 150 0 0 1
597 310 0 0 0 -1
607 310 0 0 0 -1
607 552.93463134765625 0 0 0 -1
597 543.06536865234375 0 0 0 -1
597 310 150 0 0 1
607 310 150 0 0 1
607 552.93463134765625 150 0 0 1
597 543.06536865234375 150 0 0 1
597 543.06536865234375 0 0 0 -1
607 552.93463134765625 0 0 0 -1
562.0657958984375 553.52606201171875 0 0 0 -1
561.9342041015625 543.52691650390625 0 0 0 -1
597 543.06536865234375 150 0 0 1
607 552.93463134765625 150 0 0 1
562.0657958984375 553.52606201171875 150 0 0 1
561.9342041015625 543.52691650390625 150 0 0 1
596.99566650390625 56.9743385314941406 0 0 0 -1
606.99554443359375 57.0256614685058594 0 0 0 -1
605.97442626953125 256 0 0 0 -1
596.02557373046875 246 0 0 0 -1
596.99566650390625 56.9743385314941406 150 0 0 1
606.99554443359375 57.0256614685058594 150 0 0 1
605.97442626953125 256 150 0 0 1
596.02557373046875 246 150 0 0 1
596.02557373046875 246 0 0 0 -1
605.97442626953125 256 0 0 0 -1
481 256 0 0 0 -1
481 246 0 0 0 -1
596.02557373046875 246 150 0 0 1
605.97442626953125 256 150 0 0 1
481 256 150 0 0 1
481 246 150 0 0 1
443.2894287109375 547.9146728515625 0 0 0 -1
433.290863037109375 548.0853271484375 0 0 0 -1
432.99993896484375 531.03887939453125 0 0 0 -1
442.9154052734375 526 0 0 0 -1
443.2894287109375 547.9146728515625 150 0 0 1
433.290863037109375 548.0853271484375 150 0 0 1
432.99993896484375 531.03887939453125 150 0 0 1
442.9154052734375 526 150 0 0 1
442.99249267578125 536 0 0 0 -1
432.99993896484375 531.03887939453125 0 0 0 -1
433.2901611328125 337.99249267578125 0 0 0 -1
443.290130615234375 338.00750732421875 0 0 0 -1
442.99249267578125 536 150 0 0 1
432.99993896484375 531.03887939453125 150 0 0 1
433.2901611328125 337.99249267578125 150 0 0 1
443.290130615234375 338.00750732421875 150 0 0 1
442.9154052734375 526 0 0 0 -1
442.99249267578125 536 0 0 0 -1
225 536 0 0 0 -1
225 526 0 0 0 -1
442.9154052734375 526 150 0 0 1
442.99249267578125 536 150 0 0 1
225 536 150 0 0 1
225 526 150 0 0 1
393 248 0 0 0 -1
383 248 0 0 0 -1
383 183.051284790039062 0 0 0 -1
393 172.948715209960938 0 0 0 -1
393 248 150 0 0 1
383 248 150 0 0 1
383 183.051284790039062 150 0 0 1
393 172.948715209960938 150 0 0 1
393 172.948715209960938 0 0 0 -1
383 183.051284790039062 0 0 0 -1
339.051025390625 183.499740600585938 0 0 0 -1
338.948974609375 173.500259399414062 0 0 0 -1
393 172.948715209960938 150 0 0 1
383 183.051284790039062 150 0 0 1
339.051025390625 183.499740600585938 150 0 0 1
338.948974609375 173.500259399414062 150 0 0 1
432.99993896484375 531.03887939453125 0 0 0 -1
442.99249267578125 536 0 0 0 -1
442.9154052734375 526 0 0 0 -1
432.99993896484375 531.03887939453125 150 0 0 1
442.99249267578125 536 150 0 0 1
442.9154052734375 526 150 0 0 1
4 0 1 2 3
4 4 5 6 7
4 8 9 10 11
4 12 13 14 15
4 16 17 18 19
4 20 21 22 23
4 24 25 26 27
4 28 29 30 31
4 32 33 34 35
4 36 37 38 39
4 40 41 42 43
4 44 45 46 47
4 48 49 50 51
4 52 53 54 55
4 56 57 58 59
4 60 61 62 63
4 64 65 66 67
4 68 69 70 71
4 72 73 74 75
4 76 77 78 79
4 80 81 82 83
4 84 85 86 87
4 88 89 90 91
4 92 93 94 95
4 96 97 98 99
4 100 101 102 103
4 104 105 106 107
4 108 109 110 111
4 112 113 114 115
4 116 117 118 119
4 120 121 122 123
4 124 125 126 127
4 128 129 130 131
4 132 133 134 135
4 136 137 138 139
4 140 141 142 143
4 144 145 146 147
4 148 149 150 151
4 152 153 154 155
4 156 157 158 159
4 160 161 162 163
4 164 165 166 167
4 168 169 170 171
4 172 173 174 175
4 176 177 178 179
4 180 181 182 183
4 184 185 186 187
4 188 189 190 191
4 192 193 194 195
4 196 197 198 199
4 200 201 202 203
4 204 205 206 207
4 208 209 210 211
4 212 213 214 215
4 216 217 218 219
4 220 221 222 223
4 224 225 226 227
4 228 229 230 231
4 232 233 234 235
4 236 237 238 239
4 240 241 242 243
4 244 245 246 247
4 248 249 250 251
4 252 253 254 255
4 256 257 258 259
4 260 261 262 263
4 264 265 266 267
4 268 269 270 271
4 272 273 274 275
4 276 277 278 279
4 280 281 282 283
4 284 285 286 287
4 288 289 290 291
4 292 293 294 295
4 296 297 298 299
4 300 301 302 303
4 304 305 306 307
4 308 309 310 311
4 312 313 314 315
4 316 317 318 319
4 320 321 322 323
4 324 325 326 327
4 328 329 330 331
4 332 333 334 335
4 336 337 338 339
4 340 341 342 343
4 344 345 346 347
4 348 349 350 351
4 352 353 354 355
4 356 357 358 359
4 360 361 362 363
4 364 365 366 367
4 368 369 370 371
4 372 373 374 375
4 376 377 378 379
4 380 381 382 383
4 384 385 386 387
4 388 389 390 391
4 392 393 394 395
4 396 397 398 399
4 400 401 402 403
4 404 405 406 407
4 408 409 410 411
4 412 413 414 415
4 416 417 418 419
4 420 421 422 423
4 424 425 426 427
4 428 429 430 431
4 432 433 434 435
4 436 437 438 439
4 440 441 442 443
4 444 445 446 447
4 448 449 450 451
4 452 453 454 455
4 456 457 458 459
4 460 461 462 463
4 464 465 466 467
4 468 469 470 471
4 472 473 474 475
4 476 477 478 479
4 480 481 482 483
4 484 485 486 487
4 488 489 490 491
4 492 493 494 495
4 496 497 498 499
4 500 501 502 503
4 504 505 506 507
4 508 509 510 511
4 512 513 514 515
4 516 517 518 519
4 520 521 522 523
4 524 525 526 527
4 528 529 530 531
4 532 533 534 535
4 536 537 538 539
4 540 541 542 543
4 544 545 546 547
4 548 549 550 551
4 552 553 554 555
4 556 557 558 559
4 560 561 562 563
4 564 565 566 567
4 568 569 570 571
4 572 573 574 575
4 576 577 578 579
4 580 581 582 583
4 584 585 586 587
4 588 589 590 591
4 592 593 594 595
4 596 597 598 599
4 600 601 602 603
4 604 605 606 607
4 608 609 610 611
4 612 613 614 615
4 616 617 618 619
3 620 621 622
3 623 624 625
