ply
format ascii 1.0
element vertex 702
property float x
property float y
property float z
property float nx
property float ny
property float nz
element quads 171
property list uchar int vertex_indices
element triads 6
property list uchar int vertex_indices
end_header
604.94744873046875 13 0 1 0 0
604.94744873046875 0 0 1 0 0
604.94744873046875 0 100 1 0 0
604.94744873046875 13 100 1 0 0
598.94744873046875 13 0 -1 -0 0
598.94744873046875 0 0 -1 -0 0
598.94744873046875 0 100 -1 -0 0
598.94744873046875 13 100 -1 -0 0
228 205.001083374023438 0 1 0 0
228 7 0 1 0 0
228 7 100 1 0 0
228 205.001083374023438 100 1 0 0
222 205.001083374023438 0 -1 -0 0
222 1 0 -1 -0 0
222 1 100 -1 -0 0
222 205.001083374023438 100 -1 -0 0
228 7 0 -0 1 0
396 7 0 -0 1 0
396 7 100 -0 1 0
228 7 100 -0 1 0
222 1 0 0 -1 0
396 1 0 0 -1 0
396 1 100 0 -1 0
222 1 100 0 -1 0
549 0.74430382251739502 0 -0 -1 0
440 0.74430382251739502 0 -0 -1 0
440 0.74430382251739502 100 -0 -1 0
549 0.74430382251739502 100 -0 -1 0
549 6.74430370330810547 0 0 1 0
440 6.74430370330810547 0 0 1 0
440 6.74430370330810547 100 0 1 0
549 6.74430370330810547 100 0 1 0
390 75.8360214233398438 0 -0 -1 0
229 75.8360214233398438 0 -0 -1 0
229 75.8360214233398438 100 -0 -1 0
390 75.8360214233398438 100 -0 -1 0
390 81.8360214233398438 0 0 1 0
229 81.8360214233398438 0 0 1 0
229 81.8360214233398438 100 0 1 0
390 81.8360214233398438 100 0 1 0
392.73779296875 251 0 1 0 0
392.73779296875 171 0 1 0 0
392.73779296875 171 100 1 0 0
392.73779296875 251 100 1 0 0
386.73779296875 251 0 -1 -0 0
386.73779296875 171 0 -1 -0 0
386.73779296875 171 100 -1 -0 0
386.73779296875 251 100 -1 -0 0
393 130 0 1 0 0
393 79 0 1 0 0
393 79 100 1 0 0
393 130 100 1 0 0
387 130 0 -1 -0 0
387 79 0 -1 -0 0
387 79 100 -1 -0 0
387 130 100 -1 -0 0
392.73779296875 438 0 1 0 0
392.73779296875 417 0 1 0 0
392.73779296875 417 100 1 0 0
392.73779296875 438 100 1 0 0
386.73779296875 438 0 -1 -0 0
386.73779296875 417 0 -1 -0 0
386.73779296875 417 100 -1 -0 0
386.73779296875 438 100 -1 -0 0
392.73779296875 527 0 1 0 0
392.73779296875 507 0 1 0 0
392.73779296875 507 100 1 0 0
392.73779296875 527 100 1 0 0
386.73779296875 527 0 -1 -0 0
386.73779296875 507 0 -1 -0 0
386.73779296875 507 100 -1 -0 0
386.73779296875 527 100 -1 -0 0
392.73779296875 35 0 1 0 0
392.73779296875 10 0 1 0 0
392.73779296875 10 100 1 0 0
392.73779296875 35 100 1 0 0
386.73779296875 35 0 -1 -0 0
386.73779296875 10 0 -1 -0 0
386.73779296875 10 100 -1 -0 0
386.73779296875 35 100 -1 -0 0
602 306.503662109375 0 -0 -1 0
495 306.503662109375 0 -0 -1 0
495 306.503662109375 100 -0 -1 0
602 306.503662109375 100 -0 -1 0
602 312.503662109375 0 0 1 0
495 312.503662109375 0 0 1 0
495 312.503662109375 100 0 1 0
602 312.503662109375 100 0 1 0
532 348.48980712890625 0 -0 -1 0
495 348.48980712890625 0 -0 -1 0
495 348.48980712890625 100 -0 -1 0
532 348.48980712890625 100 -0 -1 0
532 354.48980712890625 0 0 1 0
495 354.48980712890625 0 0 1 0
495 354.48980712890625 100 0 1 0
532 354.48980712890625 100 0 1 0
525 339 0 1 0 0
525 312 0 1 0 0
525 312 100 1 0 0
525 339 100 1 0 0
519 339 0 -1 -0 0
519 312 0 -1 -0 0
519 312 100 -1 -0 0
519 339 100 -1 -0 0
386 175.5 0 -0 -1 0
339 175.5 0 -0 -1 0
339 175.5 100 -0 -1 0
386 175.5 100 -0 -1 0
386 181.5 0 0 1 0
339 181.5 0 0 1 0
339 181.5 100 0 1 0
386 181.5 100 0 1 0
374.5 292 0 1 0 0
374.5 254 0 1 0 0
374.5 254 100 1 0 0
374.5 292 100 1 0 0
368.5 292 0 -1 -0 0
368.5 254 0 -1 -0 0
368.5 254 100 -1 -0 0
368.5 292 100 -1 -0 0
401 438 0 1 0 0
401 419.807861328125 0 1 0 0
401 419.807861328125 100 1 0 0
401 438 100 1 0 0
395 438 0 -1 -0 0
395 416.192138671875 0 -1 -0 0
395 416.192138671875 100 -1 -0 0
395 438 100 -1 -0 0
401 419.807861328125 0 0.467189043760299683 0.884157478809356689 0
435.797393798828125 401.4208984375 0 0.467189043760299683 0.884157478809356689 0
435.797393798828125 401.4208984375 100 0.467189043760299683 0.884157478809356689 0
401 419.807861328125 100 0.467189043760299683 0.884157478809356689 0
395 416.192138671875 0 -0.467189043760299683 -0.884157478809356689 0
432.9942626953125 396.115966796875 0 -0.467189043760299683 -0.884157478809356689 0
432.9942626953125 396.115966796875 100 -0.467189043760299683 -0.884157478809356689 0
395 416.192138671875 100 -0.467189043760299683 -0.884157478809356689 0
401 527 0 1 0 0
401 507 0 1 0 0
401 507 100 1 0 0
401 527 100 1 0 0
395 527 0 -1 -0 0
395 507 0 -1 -0 0
395 507 100 -1 -0 0
395 527 100 -1 -0 0
599 310 0 -1 0 0
599 545.03826904296875 0 -1 0 0
599 545.03826904296875 100 -1 0 0
599 310 100 -1 0 0
605 310 0 1 -0 0
605 550.96173095703125 0 1 -0 0
605 550.96173095703125 100 1 -0 0
605 310 100 1 -0 0
599 545.03826904296875 0 -0.012831980362534523 -0.999917685985565186 0
561.96148681640625 545.5135498046875 0 -0.012831980362534523 -0.999917685985565186 0
561.96148681640625 545.5135498046875 100 -0.012831980362534523 -0.999917685985565186 0
599 545.03826904296875 100 -0.012831980362534523 -0.999917685985565186 0
605 550.96173095703125 0 0.012831980362534523 0.999917685985565186 0
562.03851318359375 551.5130615234375 0 0.012831980362534523 0.999917685985565186 0
562.03851318359375 551.5130615234375 100 0.012831980362534523 0.999917685985565186 0
605 550.96173095703125 100 0.012831980362534523 0.999917685985565186 0
598.947509765625 56.9852714538574219 0 -0.999987959861755371 -0.00490911258384585381 0
598.01458740234375 247.024734497070312 0 -0.999987959861755371 -0.00490911258384585381 0
598.01458740234375 247.024734497070312 100 -0.999987959861755371 -0.00490911258384585381 0
598.947509765625 56.9852714538574219 100 -0.999987959861755371 -0.00490911258384585381 0
604.94744873046875 57.0147285461425781 0 0.999987959861755371 0.00490911258384585381 0
603.98541259765625 252.975265502929688 0 0.999987959861755371 0.00490911258384585381 0
603.98541259765625 252.975265502929688 100 0.999987959861755371 0.00490911258384585381 0
604.94744873046875 57.0147285461425781 100 0.999987959861755371 0.00490911258384585381 0
598.01458740234375 247.024734497070312 0 -0.00832143053412437439 -0.999965369701385498 0
480.97503662109375 247.998703002929688 0 -0.00832143053412437439 -0.999965369701385498 0
480.97503662109375 247.998703002929688 100 -0.00832143053412437439 -0.999965369701385498 0
598.01458740234375 247.024734497070312 100 -0.00832143053412437439 -0.999965369701385498 0
603.98541259765625 252.975265502929688 0 0.00832143053412437439 0.999965369701385498 0
481.02496337890625 253.998504638671875 0 0.00832143053412437439 0.999965369701385498 0
481.02496337890625 253.998504638671875 100 0.00832143053412437439 0.999965369701385498 0
603.98541259765625 252.975265502929688 100 0.00832143053412437439 0.999965369701385498 0
222.09619140625 477.993804931640625 0 -0.999998331069946289 -0.00181481277104467154 0
221.994552612304688 534 0 -0.999998331069946289 -0.00181481277104467154 0
221.994552612304688 534 100 -0.999998331069946289 -0.00181481277104467154 0
222.09619140625 477.993804931640625 100 -0.999998331069946289 -0.00181481277104467154 0
228.096176147460938 478.00469970703125 0 0.999998331069946289 0.00181481277104467154 0
228.005447387695312 528 0 0.999998331069946289 0.00181481277104467154 0
228.005447387695312 528 100 0.999998331069946289 0.00181481277104467154 0
228.096176147460938 478.00469970703125 100 0.999998331069946289 0.00181481277104467154 0
221.994552612304688 534 0 -0 1 0
435 534 0 -0 1 0
435 534 100 -0 1 0
221.994552612304688 534 100 -0 1 0
228.005447387695312 528 0 0 -1 0
435.0045166015625 528 0 0 -1 0
435.0045166015625 528 100 0 -1 0
228.005447387695312 528 100 0 -1 0
222.010467529296875 240.99578857421875 0 -0.999999344348907471 -0.00116349814925342798 0
222 249.998260498046875 0 -0.999999344348907471 -0.00116349814925342798 0
222 249.998260498046875 100 -0.999999344348907471 -0.00116349814925342798 0
222.010467529296875 240.99578857421875 100 -0.999999344348907471 -0.00116349814925342798 0
228.010467529296875 241.002761840820312 0 0.999999344348907471 0.00116349814925342798 0
228.00347900390625 247.01812744140625 0 0.999999344348907471 0.00116349814925342798 0
228.00347900390625 247.01812744140625 100 0.999999344348907471 0.00116349814925342798 0
228.010467529296875 241.002761840820312 100 0.999999344348907471 0.00116349814925342798 0
228 253.018218994140625 0 -0.00605204841122031212 0.999981701374053955 0
389.981842041015625 253.998550415039062 0 -0.00605204841122031212 0.999981701374053955 0
389.981842041015625 253.998550415039062 100 -0.00605204841122031212 0.999981701374053955 0
228 253.018218994140625 100 -0.00605204841122031212 0.999981701374053955 0
228.00347900390625 247.01812744140625 0 0.00605204841122031212 -0.999981701374053955 0
390.018157958984375 247.9986572265625 0 0.00605204841122031212 -0.999981701374053955 0
390.018157958984375 247.9986572265625 100 0.00605204841122031212 -0.999981701374053955 0
228.00347900390625 247.01812744140625 100 0.00605204841122031212 -0.999981701374053955 0
222 249.998260498046875 0 -1 0 0
222 339.00030517578125 0 -1 0 0
222 339.00030517578125 100 -1 0 0
222 249.998260498046875 100 -1 0 0
228 253.018218994140625 0 1 -0 0
228 336.018310546875 0 1 -0 0
228 336.018310546875 100 1 -0 0
228 253.018218994140625 100 1 -0 0
387.01837158203125 336.99261474609375 0 0.00612671580165624619 -0.999981224536895752 0
228 336.018310546875 0 0.00612671580165624619 -0.999981224536895752 0
228 336.018310546875 100 0.00612671580165624619 -0.999981224536895752 0
387.01837158203125 336.99261474609375 100 0.00612671580165624619 -0.999981224536895752 0
386.98162841796875 342.99249267578125 0 -0.00612671580165624619 0.999981224536895752 0
228.000595092773438 342.0184326171875 0 -0.00612671580165624619 0.999981224536895752 0
228.000595092773438 342.0184326171875 100 -0.00612671580165624619 0.999981224536895752 0
386.98162841796875 342.99249267578125 100 -0.00612671580165624619 0.999981224536895752 0
222 339.00030517578125 0 -1 0.000197587287402711809 0
222.010467529296875 392.00164794921875 0 -1 0.000197587287402711809 0
222.010467529296875 392.00164794921875 100 -1 0.000197587287402711809 0
222 339.00030517578125 100 -1 0.000197587287402711809 0
228.000595092773438 342.0184326171875 0 1 -0.000197587287402711809 0
228.010467529296875 392.000457763671875 0 1 -0.000197587287402711809 0
228.010467529296875 392.000457763671875 100 1 -0.000197587287402711809 0
228.000595092773438 342.0184326171875 100 1 -0.000197587287402711809 0
476 546 0 -0 -1 0
441 546 0 -0 -1 0
441 546 100 -0 -1 0
476 546 100 -0 -1 0
476 552 0 0 1 0
435 552 0 0 1 0
435 552 100 0 1 0
476 552 100 0 1 0
441 546 0 1 0 0
441 531.00225830078125 0 1 0 0
441 531.00225830078125 100 1 0 0
441 546 100 1 0 0
435 552 0 -1 -0 0
435 534 0 -1 -0 0
435 534 100 -1 -0 0
435 552 100 -1 -0 0
441 531.00225830078125 0 0.999998867511749268 0.00150333496276289225 0
441.290130615234375 338.0045166015625 0 0.999998867511749268 0.00150333496276289225 0
441.290130615234375 338.0045166015625 100 0.999998867511749268 0.00150333496276289225 0
441 531.00225830078125 100 0.999998867511749268 0.00150333496276289225 0
435.0045166015625 528 0 -0.999998867511749268 -0.00150333496276289225 0
435.2901611328125 337.9954833984375 0 -0.999998867511749268 -0.00150333496276289225 0
435.2901611328125 337.9954833984375 100 -0.999998867511749268 -0.00150333496276289225 0
435.0045166015625 528 100 -0.999998867511749268 -0.00150333496276289225 0
604.94744873046875 13 0 558.41302490234375 13 0
598.94744873046875 13 0 558.41302490234375 13 0
598.94744873046875 13 100 558.41302490234375 13 0
604.94744873046875 13 100 558.41302490234375 13 0
604.94744873046875 0 0 558.41302490234375 -1 0
598.94744873046875 0 0 558.41302490234375 -1 0
598.94744873046875 0 100 558.41302490234375 -1 0
604.94744873046875 0 100 558.41302490234375 -1 0
228 205.001083374023438 0 226.848495483398438 204.965728759765625 0
222 205.001083374023438 0 226.848495483398438 204.965728759765625 0
222 205.001083374023438 100 226.848495483398438 204.965728759765625 0
228 205.001083374023438 100 226.848495483398438 204.965728759765625 0
396 7 0 394.642852783203125 6.95833349227905273 0
396 1 0 394.642852783203125 6.95833349227905273 0
396 1 100 394.642852783203125 6.95833349227905273 0
396 7 100 394.642852783203125 6.95833349227905273 0
549 0.74430382251739502 0 544.96331787109375 0.737475335597991943 0
549 6.74430370330810547 0 544.96331787109375 0.737475335597991943 0
549 6.74430370330810547 100 544.96331787109375 0.737475335597991943 0
549 0.74430382251739502 100 544.96331787109375 0.737475335597991943 0
440 0.74430382251739502 0 434.96331787109375 0.737475335597991943 0
440 6.74430370330810547 0 434.96331787109375 0.737475335597991943 0
440 6.74430370330810547 100 434.96331787109375 0.737475335597991943 0
440 0.74430382251739502 100 434.96331787109375 0.737475335597991943 0
390 75.8360214233398438 0 388.57763671875 75.364990234375 0
390 81.8360214233398438 0 388.57763671875 75.364990234375 0
390 81.8360214233398438 100 388.57763671875 75.364990234375 0
390 75.8360214233398438 100 388.57763671875 75.364990234375 0
229 75.8360214233398438 0 226.57763671875 75.364990234375 0
229 81.8360214233398438 0 226.57763671875 75.364990234375 0
229 81.8360214233398438 100 226.57763671875 75.364990234375 0
229 75.8360214233398438 100 226.57763671875 75.364990234375 0
392.73779296875 251 0 387.828582763671875 248.862503051757812 0
386.73779296875 251 0 387.828582763671875 248.862503051757812 0
386.73779296875 251 100 387.828582763671875 248.862503051757812 0
392.73779296875 251 100 387.828582763671875 248.862503051757812 0
392.73779296875 171 0 387.828582763671875 167.862503051757812 0
386.73779296875 171 0 387.828582763671875 167.862503051757812 0
386.73779296875 171 100 387.828582763671875 167.862503051757812 0
392.73779296875 171 100 387.828582763671875 167.862503051757812 0
393 130 0 385.29412841796875 128.450973510742188 0
387 130 0 385.29412841796875 128.450973510742188 0
387 130 100 385.29412841796875 128.450973510742188 0
393 130 100 385.29412841796875 128.450973510742188 0
393 79 0 385.29412841796875 76.4509811401367188 0
387 79 0 385.29412841796875 76.4509811401367188 0
387 79 100 385.29412841796875 76.4509811401367188 0
393 79 100 385.29412841796875 76.4509811401367188 0
392.73779296875 438 0 374.0360107421875 418.142852783203125 0
386.73779296875 438 0 374.0360107421875 418.142852783203125 0
386.73779296875 438 100 374.0360107421875 418.142852783203125 0
392.73779296875 438 100 374.0360107421875 418.142852783203125 0
392.73779296875 417 0 374.0360107421875 396.142852783203125 0
386.73779296875 417 0 374.0360107421875 396.142852783203125 0
386.73779296875 417 100 374.0360107421875 396.142852783203125 0
392.73779296875 417 100 374.0360107421875 396.142852783203125 0
392.73779296875 527 0 373.100921630859375 501.649993896484375 0
386.73779296875 527 0 373.100921630859375 501.649993896484375 0
386.73779296875 527 100 373.100921630859375 501.649993896484375 0
392.73779296875 527 100 373.100921630859375 501.649993896484375 0
392.73779296875 507 0 373.100921630859375 480.649993896484375 0
386.73779296875 507 0 373.100921630859375 480.649993896484375 0
386.73779296875 507 100 373.100921630859375 480.649993896484375 0
392.73779296875 507 100 373.100921630859375 480.649993896484375 0
392.73779296875 35 0 377.028289794921875 34.5999984741210938 0
386.73779296875 35 0 377.028289794921875 34.5999984741210938 0
386.73779296875 35 100 377.028289794921875 34.5999984741210938 0
392.73779296875 35 100 377.028289794921875 34.5999984741210938 0
392.73779296875 10 0 377.028289794921875 8.60000038146972656 0
386.73779296875 10 0 377.028289794921875 8.60000038146972656 0
386.73779296875 10 100 377.028289794921875 8.60000038146972656 0
392.73779296875 10 100 377.028289794921875 8.60000038146972656 0
602 306.503662109375 0 597.37384033203125 303.639129638671875 0
602 312.503662109375 0 597.37384033203125 303.639129638671875 0
602 312.503662109375 100 597.37384033203125 303.639129638671875 0
602 306.503662109375 100 597.37384033203125 303.639129638671875 0
495 306.503662109375 0 489.37384033203125 303.639129638671875 0
495 312.503662109375 0 489.37384033203125 303.639129638671875 0
495 312.503662109375 100 489.37384033203125 303.639129638671875 0
495 306.503662109375 100 489.37384033203125 303.639129638671875 0
532 348.48980712890625 0 518.62164306640625 339.0711669921875 0
532 354.48980712890625 0 518.62164306640625 339.0711669921875 0
532 354.48980712890625 100 518.62164306640625 339.0711669921875 0
532 348.48980712890625 100 518.62164306640625 339.0711669921875 0
495 348.48980712890625 0 480.621612548828125 339.0711669921875 0
495 354.48980712890625 0 480.621612548828125 339.0711669921875 0
495 354.48980712890625 100 480.621612548828125 339.0711669921875 0
495 348.48980712890625 100 480.621612548828125 339.0711669921875 0
525 339 0 505.5555419921875 327.4444580078125 0
519 339 0 505.5555419921875 327.4444580078125 0
519 339 100 505.5555419921875 327.4444580078125 0
525 339 100 505.5555419921875 327.4444580078125 0
525 312 0 505.5555419921875 299.4444580078125 0
519 312 0 505.5555419921875 299.4444580078125 0
519 312 100 505.5555419921875 299.4444580078125 0
525 312 100 505.5555419921875 299.4444580078125 0
386 175.5 0 378.7872314453125 171.765960693359375 0
386 181.5 0 378.7872314453125 171.765960693359375 0
386 181.5 100 378.7872314453125 171.765960693359375 0
386 175.5 100 378.7872314453125 171.765960693359375 0
339 175.5 0 330.7872314453125 171.765960693359375 0
339 181.5 0 330.7872314453125 171.765960693359375 0
339 181.5 100 330.7872314453125 171.765960693359375 0
339 175.5 100 330.7872314453125 171.765960693359375 0
374.5 292 0 364.644744873046875 285.3157958984375 0
368.5 292 0 364.644744873046875 285.3157958984375 0
368.5 292 100 364.644744873046875 285.3157958984375 0
374.5 292 100 364.644744873046875 285.3157958984375 0
374.5 254 0 364.644744873046875 246.3157958984375 0
368.5 254 0 364.644744873046875 246.3157958984375 0
368.5 254 100 364.644744873046875 246.3157958984375 0
374.5 254 100 364.644744873046875 246.3157958984375 0
401 438 0 378.95751953125 414.923675537109375 0
395 438 0 378.95751953125 414.923675537109375 0
395 438 100 378.95751953125 414.923675537109375 0
401 438 100 378.95751953125 414.923675537109375 0
401 527 0 380.95001220703125 501.649993896484375 0
395 527 0 380.95001220703125 501.649993896484375 0
395 527 100 380.95001220703125 501.649993896484375 0
401 527 100 380.95001220703125 501.649993896484375 0
401 507 0 380.95001220703125 480.649993896484375 0
395 507 0 380.95001220703125 480.649993896484375 0
395 507 100 380.95001220703125 480.649993896484375 0
401 507 100 380.95001220703125 480.649993896484375 0
435.797393798828125 401.4208984375 0 425.608489990234375 390.754119873046875 0
432.9942626953125 396.115966796875 0 425.608489990234375 390.754119873046875 0
432.9942626953125 396.115966796875 100 425.608489990234375 390.754119873046875 0
435.797393798828125 401.4208984375 100 425.608489990234375 390.754119873046875 0
599 310 0 596.45147705078125 307.681060791015625 0
605 310 0 596.45147705078125 307.681060791015625 0
605 310 100 596.45147705078125 307.681060791015625 0
599 310 100 596.45147705078125 307.681060791015625 0
561.96148681640625 545.5135498046875 0 545.79046630859375 530.79931640625 0
562.03851318359375 551.5130615234375 0 545.79046630859375 530.79931640625 0
562.03851318359375 551.5130615234375 100 545.79046630859375 530.79931640625 0
561.96148681640625 545.5135498046875 100 545.79046630859375 530.79931640625 0
598.947509765625 56.9852714538574219 0 595.80078125 55.6854286193847656 0
604.94744873046875 57.0147285461425781 0 595.80078125 55.6854286193847656 0
604.94744873046875 57.0147285461425781 100 595.80078125 55.6854286193847656 0
598.947509765625 56.9852714538574219 100 595.80078125 55.6854286193847656 0
480.97503662109375 247.998703002929688 0 475.865692138671875 245.888168334960938 0
481.02496337890625 253.998504638671875 0 475.865692138671875 245.888168334960938 0
481.02496337890625 253.998504638671875 100 475.865692138671875 245.888168334960938 0
480.97503662109375 247.998703002929688 100 475.865692138671875 245.888168334960938 0
222.09619140625 477.993804931640625 0 218.1324462890625 468.45916748046875 0
228.096176147460938 478.00469970703125 0 218.1324462890625 468.45916748046875 0
228.096176147460938 478.00469970703125 100 218.1324462890625 468.45916748046875 0
222.09619140625 477.993804931640625 100 218.1324462890625 468.45916748046875 0
222.010467529296875 240.99578857421875 0 197.350601196289062 213.225845336914062 0
228.010467529296875 241.002761840820312 0 197.350601196289062 213.225845336914062 0
228.010467529296875 241.002761840820312 100 197.350601196289062 213.225845336914062 0
222.010467529296875 240.99578857421875 100 197.350601196289062 213.225845336914062 0
389.981842041015625 253.998550415039062 0 388.574310302734375 252.436569213867188 0
390.018157958984375 247.9986572265625 0 388.574310302734375 252.436569213867188 0
390.018157958984375 247.9986572265625 100 388.574310302734375 252.436569213867188 0
389.981842041015625 253.998550415039062 100 388.574310302734375 252.436569213867188 0
387.01837158203125 336.99261474609375 0 385.584625244140625 334.87957763671875 0
386.98162841796875 342.99249267578125 0 385.584625244140625 334.87957763671875 0
386.98162841796875 342.99249267578125 100 385.584625244140625 334.87957763671875 0
387.01837158203125 336.99261474609375 100 385.584625244140625 334.87957763671875 0
222.010467529296875 392.00164794921875 0 217.8218994140625 385.6055908203125 0
228.010467529296875 392.000457763671875 0 217.8218994140625 385.6055908203125 0
228.010467529296875 392.000457763671875 100 217.8218994140625 385.6055908203125 0
222.010467529296875 392.00164794921875 100 217.8218994140625 385.6055908203125 0
476 546 0 463.399993896484375 530.4000244140625 0
476 552 0 463.399993896484375 530.4000244140625 0
476 552 100 463.399993896484375 530.4000244140625 0
476 546 100 463.399993896484375 530.4000244140625 0
441.290130615234375 338.0045166015625 0 439.005157470703125 335.253173828125 0
435.2901611328125 337.9954833984375 0 439.005157470703125 335.253173828125 0
435.2901611328125 337.9954833984375 100 439.005157470703125 335.253173828125 0
441.290130615234375 338.0045166015625 100 439.005157470703125 335.253173828125 0
604.94744873046875 13 0 0 0 -1
598.94744873046875 13 0 0 0 -1
598.94744873046875 0 0 0 0 -1
604.94744873046875 0 0 0 0 -1
604.94744873046875 13 100 0 0 1
598.94744873046875 13 100 0 0 1
598.94744873046875 0 100 0 0 1
604.94744873046875 0 100 0 0 1
228 205.001083374023438 0 0 0 -1
222 205.001083374023438 0 0 0 -1
222 1 0 0 0 -1
228 7 0 0 0 -1
228 205.001083374023438 100 0 0 1
222 205.001083374023438 100 0 0 1
222 1 100 0 0 1
228 7 100 0 0 1
228 7 0 0 0 -1
222 1 0 0 0 -1
396 1 0 0 0 -1
396 7 0 0 0 -1
228 7 100 0 0 1
222 1 100 0 0 1
396 1 100 0 0 1
396 7 100 0 0 1
549 0.74430382251739502 0 0 0 -1
549 6.74430370330810547 0 0 0 -1
440 6.74430370330810547 0 0 0 -1
440 0.74430382251739502 0 0 0 -1
549 0.74430382251739502 100 0 0 1
549 6.74430370330810547 100 0 0 1
440 6.74430370330810547 100 0 0 1
440 0.74430382251739502 100 0 0 1
390 75.8360214233398438 0 0 0 -1
390 81.8360214233398438 0 0 0 -1
229 81.8360214233398438 0 0 0 -1
229 75.8360214233398438 0 0 0 -1
390 75.8360214233398438 100 0 0 1
390 81.8360214233398438 100 0 0 1
229 81.8360214233398438 100 0 0 1
229 75.8360214233398438 100 0 0 1
392.73779296875 251 0 0 0 -1
386.73779296875 251 0 0 0 -1
386.73779296875 171 0 0 0 -1
392.73779296875 171 0 0 0 -1
392.73779296875 251 100 0 0 1
386.73779296875 251 100 0 0 1
386.73779296875 171 100 0 0 1
392.73779296875 171 100 0 0 1
393 130 0 0 0 -1
387 130 0 0 0 -1
387 79 0 0 0 -1
393 79 0 0 0 -1
393 130 100 0 0 1
387 130 100 0 0 1
387 79 100 0 0 1
393 79 100 0 0 1
392.73779296875 438 0 0 0 -1
386.73779296875 438 0 0 0 -1
386.73779296875 417 0 0 0 -1
392.73779296875 417 0 0 0 -1
392.73779296875 438 100 0 0 1
386.73779296875 438 100 0 0 1
386.73779296875 417 100 0 0 1
392.73779296875 417 100 0 0 1
392.73779296875 527 0 0 0 -1
386.73779296875 527 0 0 0 -1
386.73779296875 507 0 0 0 -1
392.73779296875 507 0 0 0 -1
392.73779296875 527 100 0 0 1
386.73779296875 527 100 0 0 1
386.73779296875 507 100 0 0 1
392.73779296875 507 100 0 0 1
392.73779296875 35 0 0 0 -1
386.73779296875 35 0 0 0 -1
386.73779296875 10 0 0 0 -1
392.73779296875 10 0 0 0 -1
392.73779296875 35 100 0 0 1
386.73779296875 35 100 0 0 1
386.73779296875 10 100 0 0 1
392.73779296875 10 100 0 0 1
602 306.503662109375 0 0 0 -1
602 312.503662109375 0 0 0 -1
495 312.503662109375 0 0 0 -1
495 306.503662109375 0 0 0 -1
602 306.503662109375 100 0 0 1
602 312.503662109375 100 0 0 1
495 312.503662109375 100 0 0 1
495 306.503662109375 100 0 0 1
532 348.48980712890625 0 0 0 -1
532 354.48980712890625 0 0 0 -1
495 354.48980712890625 0 0 0 -1
495 348.48980712890625 0 0 0 -1
532 348.48980712890625 100 0 0 1
532 354.48980712890625 100 0 0 1
495 354.48980712890625 100 0 0 1
495 348.48980712890625 100 0 0 1
525 339 0 0 0 -1
519 339 0 0 0 -1
519 312 0 0 0 -1
525 312 0 0 0 -1
525 339 100 0 0 1
519 339 100 0 0 1
519 312 100 0 0 1
525 312 100 0 0 1
386 175.5 0 0 0 -1
386 181.5 0 0 0 -1
339 181.5 0 0 0 -1
339 175.5 0 0 0 -1
386 175.5 100 0 0 1
386 181.5 100 0 0 1
339 181.5 100 0 0 1
339 175.5 100 0 0 1
374.5 292 0 0 0 -1
368.5 292 0 0 0 -1
368.5 254 0 0 0 -1
374.5 254 0 0 0 -1
374.5 292 100 0 0 1
368.5 292 100 0 0 1
368.5 254 100 0 0 1
374.5 254 100 0 0 1
401 438 0 0 0 -1
395 438 0 0 0 -1
395 416.192138671875 0 0 0 -1
401 419.807861328125 0 0 0 -1
401 438 100 0 0 1
395 438 100 0 0 1
395 416.192138671875 100 0 0 1
401 419.807861328125 100 0 0 1
401 419.807861328125 0 0 0 -1
395 416.192138671875 0 0 0 -1
432.9942626953125 396.115966796875 0 0 0 -1
435.797393798828125 401.4208984375 0 0 0 -1
401 419.807861328125 100 0 0 1
395 416.192138671875 100 0 0 1
432.9942626953125 396.115966796875 100 0 0 1
435.797393798828125 401.4208984375 100 0 0 1
401 527 0 0 0 -1
395 527 0 0 0 -1
395 507 0 0 0 -1
401 507 0 0 0 -1
401 527 100 0 0 1
395 527 100 0 0 1
395 507 100 0 0 1
401 507 100 0 0 1
599 310 0 0 0 -1
605 310 0 0 0 -1
605 550.96173095703125 0 0 0 -1
599 545.03826904296875 0 0 0 -1
599 310 100 0 0 1
605 310 100 0 0 1
605 550.96173095703125 100 0 0 1
599 545.03826904296875 100 0 0 1
599 545.03826904296875 0 0 0 -1
605 550.96173095703125 0 0 0 -1
562.03851318359375 551.5130615234375 0 0 0 -1
561.96148681640625 545.5135498046875 0 0 0 -1
599 545.03826904296875 100 0 0 1
605 550.96173095703125 100 0 0 1
562.03851318359375 551.5130615234375 100 0 0 1
561.96148681640625 545.5135498046875 100 0 0 1
598.947509765625 56.9852714538574219 0 0 0 -1
604.94744873046875 57.0147285461425781 0 0 0 -1
603.98541259765625 252.975265502929688 0 0 0 -1
598.01458740234375 247.024734497070312 0 0 0 -1
598.947509765625 56.9852714538574219 100 0 0 1
604.94744873046875 57.0147285461425781 100 0 0 1
603.98541259765625 252.975265502929688 100 0 0 1
598.01458740234375 247.024734497070312 100 0 0 1
598.01458740234375 247.024734497070312 0 0 0 -1
603.98541259765625 252.975265502929688 0 0 0 -1
481.02496337890625 253.998504638671875 0 0 0 -1
480.97503662109375 247.998703002929688 0 0 0 -1
598.01458740234375 247.024734497070312 100 0 0 1
603.98541259765625 252.975265502929688 100 0 0 1
481.02496337890625 253.998504638671875 100 0 0 1
480.97503662109375 247.998703002929688 100 0 0 1
222.09619140625 477.993804931640625 0 0 0 -1
228.096176147460938 478.00469970703125 0 0 0 -1
228.005447387695312 528 0 0 0 -1
221.994552612304688 534 0 0 0 -1
222.09619140625 477.993804931640625 100 0 0 1
228.096176147460938 478.00469970703125 100 0 0 1
228.005447387695312 528 100 0 0 1
221.994552612304688 534 100 0 0 1
221.994552612304688 534 0 0 0 -1
228.005447387695312 528 0 0 0 -1
435.0045166015625 528 0 0 0 -1
435 534 0 0 0 -1
221.994552612304688 534 100 0 0 1
228.005447387695312 528 100 0 0 1
435.0045166015625 528 100 0 0 1
435 534 100 0 0 1
222.010467529296875 240.99578857421875 0 0 0 -1
228.010467529296875 241.002761840820312 0 0 0 -1
228.00347900390625 247.01812744140625 0 0 0 -1
222 249.998260498046875 0 0 0 -1
222.010467529296875 240.99578857421875 100 0 0 1
228.010467529296875 241.002761840820312 100 0 0 1
228.00347900390625 247.01812744140625 100 0 0 1
222 249.998260498046875 100 0 0 1
228 253.018218994140625 0 0 0 -1
228.00347900390625 247.01812744140625 0 0 0 -1
390.018157958984375 247.9986572265625 0 0 0 -1
389.981842041015625 253.998550415039062 0 0 0 -1
228 253.018218994140625 100 0 0 1
228.00347900390625 247.01812744140625 100 0 0 1
390.018157958984375 247.9986572265625 100 0 0 1
389.981842041015625 253.998550415039062 100 0 0 1
222 249.998260498046875 0 0 0 -1
228 253.018218994140625 0 0 0 -1
228 336.018310546875 0 0 0 -1
222 339.00030517578125 0 0 0 -1
222 249.998260498046875 100 0 0 1
228 253.018218994140625 100 0 0 1
228 336.018310546875 100 0 0 1
222 339.00030517578125 100 0 0 1
387.01837158203125 336.99261474609375 0 0 0 -1
386.98162841796875 342.99249267578125 0 0 0 -1
228.000595092773438 342.0184326171875 0 0 0 -1
228 336.018310546875 0 0 0 -1
387.01837158203125 336.99261474609375 100 0 0 1
386.98162841796875 342.99249267578125 100 0 0 1
228.000595092773438 342.0184326171875 100 0 0 1
228 336.018310546875 100 0 0 1
222 339.00030517578125 0 0 0 -1
228.000595092773438 342.0184326171875 0 0 0 -1
228.010467529296875 392.000457763671875 0 0 0 -1
222.010467529296875 392.00164794921875 0 0 0 -1
222 339.00030517578125 100 0 0 1
228.000595092773438 342.0184326171875 100 0 0 1
228.010467529296875 392.000457763671875 100 0 0 1
222.010467529296875 392.00164794921875 100 0 0 1
476 546 0 0 0 -1
476 552 0 0 0 -1
435 552 0 0 0 -1
441 546 0 0 0 -1
476 546 100 0 0 1
476 552 100 0 0 1
435 552 100 0 0 1
441 546 100 0 0 1
441 546 0 0 0 -1
435 552 0 0 0 -1
435 534 0 0 0 -1
441 531.00225830078125 0 0 0 -1
441 546 100 0 0 1
435 552 100 0 0 1
435 534 100 0 0 1
441 531.00225830078125 100 0 0 1
441 531.00225830078125 0 0 0 -1
435.0045166015625 528 0 0 0 -1
435.2901611328125 337.9954833984375 0 0 0 -1
441.290130615234375 338.0045166015625 0 0 0 -1
441 531.00225830078125 100 0 0 1
435.0045166015625 528 100 0 0 1
435.2901611328125 337.9954833984375 100 0 0 1
441.290130615234375 338.0045166015625 100 0 0 1
228.00347900390625 247.01812744140625 0 0 0 -1
228 253.018218994140625 0 0 0 -1
222 249.998260498046875 0 0 0 -1
228.00347900390625 247.01812744140625 100 0 0 1
228 253.018218994140625 100 0 0 1
222 249.998260498046875 100 0 0 1
228.000595092773438 342.0184326171875 0 0 0 -1
222 339.00030517578125 0 0 0 -1
228 336.018310546875 0 0 0 -1
228.000595092773438 342.0184326171875 100 0 0 1
222 339.00030517578125 100 0 0 1
228 336.018310546875 100 0 0 1
435.0045166015625 528 0 0 0 -1
441 531.00225830078125 0 0 0 -1
435 534 0 0 0 -1
435.0045166015625 528 100 0 0 1
441 531.00225830078125 100 0 0 1
435 534 100 0 0 1
4 0 1 2 3
4 4 5 6 7
4 8 9 10 11
4 12 13 14 15
4 16 17 18 19
4 20 21 22 23
4 24 25 26 27
4 28 29 30 31
4 32 33 34 35
4 36 37 38 39
4 40 41 42 43
4 44 45 46 47
4 48 49 50 51
4 52 53 54 55
4 56 57 58 59
4 60 61 62 63
4 64 65 66 67
4 68 69 70 71
4 72 73 74 75
4 76 77 78 79
4 80 81 82 83
4 84 85 86 87
4 88 89 90 91
4 92 93 94 95
4 96 97 98 99
4 100 101 102 103
4 104 105 106 107
4 108 109 110 111
4 112 113 114 115
4 116 117 118 119
4 120 121 122 123
4 124 125 126 127
4 128 129 130 131
4 132 133 134 135
4 136 137 138 139
4 140 141 142 143
4 144 145 146 147
4 148 149 150 151
4 152 153 154 155
4 156 157 158 159
4 160 161 162 163
4 164 165 166 167
4 168 169 170 171
4 172 173 174 175
4 176 177 178 179
4 180 181 182 183
4 184 185 186 187
4 188 189 190 191
4 192 193 194 195
4 196 197 198 199
4 200 201 202 203
4 204 205 206 207
4 208 209 210 211
4 212 213 214 215
4 216 217 218 219
4 220 221 222 223
4 224 225 226 227
4 228 229 230 231
4 232 233 234 235
4 236 237 238 239
4 240 241 242 243
4 244 245 246 247
4 248 249 250 251
4 252 253 254 255
4 256 257 258 259
4 260 261 262 263
4 264 265 266 267
4 268 269 270 271
4 272 273 274 275
4 276 277 278 279
4 280 281 282 283
4 284 285 286 287
4 288 289 290 291
4 292 293 294 295
4 296 297 298 299
4 300 301 302 303
4 304 305 306 307
4 308 309 310 311
4 312 313 314 315
4 316 317 318 319
4 320 321 322 323
4 324 325 326 327
4 328 329 330 331
4 332 333 334 335
4 336 337 338 339
4 340 341 342 343
4 344 345 346 347
4 348 349 350 351
4 352 353 354 355
4 356 357 358 359
4 360 361 362 363
4 364 365 366 367
4 368 369 370 371
4 372 373 374 375
4 376 377 378 379
4 380 381 382 383
4 384 385 386 387
4 388 389 390 391
4 392 393 394 395
4 396 397 398 399
4 400 401 402 403
4 404 405 406 407
4 408 409 410 411
4 412 413 414 415
4 416 417 418 419
4 420 421 422 423
4 424 425 426 427
4 428 429 430 431
4 432 433 434 435
4 436 437 438 439
4 440 441 442 443
4 444 445 446 447
4 448 449 450 451
4 452 453 454 455
4 456 457 458 459
4 460 461 462 463
4 464 465 466 467
4 468 469 470 471
4 472 473 474 475
4 476 477 478 479
4 480 481 482 483
4 484 485 486 487
4 488 489 490 491
4 492 493 494 495
4 496 497 498 499
4 500 501 502 503
4 504 505 506 507
4 508 509 510 511
4 512 513 514 515
4 516 517 518 519
4 520 521 522 523
4 524 525 526 527
4 528 529 530 531
4 532 533 534 535
4 536 537 538 539
4 540 541 542 543
4 544 545 546 547
4 548 549 550 551
4 552 553 554 555
4 556 557 558 559
4 560 561 562 563
4 564 565 566 567
4 568 569 570 571
4 572 573 574 575
4 576 577 578 579
4 580 581 582 583
4 584 585 586 587
4 588 589 590 591
4 592 593 594 595
4 596 597 598 599
4 600 601 602 603
4 604 605 606 607
4 608 609 610 611
4 612 613 614 615
4 616 617 618 619
4 620 621 622 623
4 624 625 626 627
4 628 629 630 631
4 632 633 634 635
4 636 637 638 639
4 640 641 642 643
4 644 645 646 647
4 648 649 650 651
4 652 653 654 655
4 656 657 658 659
4 660 661 662 663
4 664 665 666 667
4 668 669 670 671
4 672 673 674 675
4 676 677 678 679
4 680 681 682 683
3 684 685 686
3 687 688 689
3 690 691 692
3 693 694 695
3 696 697 698
3 699 700 701
