ply
format ascii 1.0
element vertex 684
property float x
property float y
property float z
property float nx
property float ny
property float nz
element quads 171
property list uchar int vertex_indices
end_header
251 215 0 1 0 0
251 80 0 1 0 0
251 80 150 1 0 0
251 215 150 1 0 0
241 215 0 -1 -0 0
241 70 0 -1 -0 0
241 70 150 -1 -0 0
241 215 150 -1 -0 0
251 80 0 -0 1 0
268 80 0 -0 1 0
268 80 150 -0 1 0
251 80 150 -0 1 0
241 70 0 0 -1 0
268 70 0 0 -1 0
268 70 150 0 -1 0
241 70 150 0 -1 0
251.4375 311 0 1 0 0
251.4375 275 0 1 0 0
251.4375 275 150 1 0 0
251.4375 311 150 1 0 0
241.4375 311 0 -1 -0 0
241.4375 275 0 -1 -0 0
241.4375 275 150 -1 -0 0
241.4375 311 150 -1 -0 0
419 71 0 -0 -1 0
383 71 0 -0 -1 0
383 71 150 -0 -1 0
419 71 150 -0 -1 0
419 81 0 0 1 0
393 81 0 0 1 0
393 81 150 0 1 0
419 81 150 0 1 0
383 71 0 -1 0 0
383 256 0 -1 0 0
383 256 150 -1 0 0
383 71 150 -1 0 0
393 81 0 1 -0 0
393 266 0 1 -0 0
393 266 150 1 -0 0
393 81 150 1 -0 0
517 247 0 -0 -1 0
435 247 0 -0 -1 0
435 247 150 -0 -1 0
517 247 150 -0 -1 0
517 257 0 0 1 0
435 257 0 0 1 0
435 257 150 0 1 0
517 257 150 0 1 0
425 252 0 -1 0 0
425 280 0 -1 0 0
425 280 150 -1 0 0
425 252 150 -1 0 0
435 257 0 1 -0 0
435 280 0 1 -0 0
435 280 150 1 -0 0
435 257 150 1 -0 0
435 247 0 1 0 0
435 229 0 1 0 0
435 229 150 1 0 0
435 247 150 1 0 0
425 252 0 -1 -0 0
425 219 0 -1 -0 0
425 219 150 -1 -0 0
425 252 150 -1 -0 0
518 315 0 -0 -1 0
460 315 0 -0 -1 0
460 315 150 -0 -1 0
518 315 150 -0 -1 0
518 325 0 0 1 0
470 325 0 0 1 0
470 325 150 0 1 0
518 325 150 0 1 0
460 315 0 -1 0 0
460 347 0 -1 0 0
460 347 150 -1 0 0
460 315 150 -1 0 0
470 325 0 1 -0 0
470 347 0 1 -0 0
470 347 150 1 -0 0
470 325 150 1 -0 0
280 291.5 0 -0 -1 0
248 291.5 0 -0 -1 0
248 291.5 150 -0 -1 0
280 291.5 150 -0 -1 0
280 301.5 0 0 1 0
248 301.5 0 0 1 0
248 301.5 150 0 1 0
280 301.5 150 0 1 0
390 292 0 -0 -1 0
367 292 0 -0 -1 0
367 292 150 -0 -1 0
390 292 150 -0 -1 0
390 302 0 0 1 0
357 302 0 0 1 0
357 302 150 0 1 0
390 302 150 0 1 0
367 292 0 1 0 0
367 266 0 1 0 0
367 266 150 1 0 0
367 292 150 1 0 0
357 302 0 -1 -0 0
357 256 0 -1 -0 0
357 256 150 -1 -0 0
357 302 150 -1 -0 0
388 70.504852294921875 0 -0 -1 0
335 70.504852294921875 0 -0 -1 0
335 70.504852294921875 150 -0 -1 0
388 70.504852294921875 150 -0 -1 0
388 80.504852294921875 0 0 1 0
335 80.504852294921875 0 0 1 0
335 80.504852294921875 150 0 1 0
388 80.504852294921875 150 0 1 0
367 266 0 -0 1 0
393 266 0 -0 1 0
393 266 150 -0 1 0
367 266 150 -0 1 0
357 256 0 0 -1 0
383 256 0 0 -1 0
383 256 150 0 -1 0
357 256 150 0 -1 0
346 471 0 -0 -1 0
330 471 0 -0 -1 0
330 471 150 -0 -1 0
346 471 150 -0 -1 0
346 481 0 0 1 0
330 481 0 0 1 0
330 481 150 0 1 0
346 481 150 0 1 0
518 343 0 -0 -1 0
507 343 0 -0 -1 0
507 343 150 -0 -1 0
518 343 150 -0 -1 0
518 353 0 0 1 0
507 353 0 0 1 0
507 353 150 0 1 0
518 353 150 0 1 0
435 229 0 -0 1 0
442 229 0 -0 1 0
442 229 150 -0 1 0
435 229 150 -0 1 0
425 219 0 0 -1 0
442 219 0 0 -1 0
442 219 150 0 -1 0
425 219 150 0 -1 0
327 291.5079345703125 0 -0 -1 0
295 291.5079345703125 0 -0 -1 0
295 291.5079345703125 150 -0 -1 0
327 291.5079345703125 150 -0 -1 0
327 301.5079345703125 0 0 1 0
295 301.5079345703125 0 0 1 0
295 301.5079345703125 150 0 1 0
327 301.5079345703125 150 0 1 0
387 141 0 -0 -1 0
355 141 0 -0 -1 0
355 141 150 -0 -1 0
387 141 150 -0 -1 0
387 151 0 0 1 0
355 151 0 0 1 0
355 151 150 0 1 0
387 151 150 0 1 0
251 346 0 1 0 0
251 333 0 1 0 0
251 333 150 1 0 0
251 346 150 1 0 0
241 346 0 -1 -0 0
241 333 0 -1 -0 0
241 333 150 -1 -0 0
241 346 150 -1 -0 0
386 188.5 0 -0 -1 0
355 188.5 0 -0 -1 0
355 188.5 150 -0 -1 0
386 188.5 150 -0 -1 0
386 198.5 0 0 1 0
355 198.5 0 0 1 0
355 198.5 150 0 1 0
386 198.5 150 0 1 0
517 219.5 0 -0 -1 0
506 219.5 0 -0 -1 0
506 219.5 150 -0 -1 0
517 219.5 150 -0 -1 0
517 229.5 0 0 1 0
506 229.5 0 0 1 0
506 229.5 150 0 1 0
517 229.5 150 0 1 0
459.5 268 0 1 0 0
459.5 254 0 1 0 0
459.5 254 150 1 0 0
459.5 268 150 1 0 0
449.5 268 0 -1 -0 0
449.5 254 0 -1 -0 0
449.5 254 150 -1 -0 0
449.5 268 150 -1 -0 0
486.07574462890625 81.4994277954101562 0 0.015149775892496109 0.999885261058807373 0
514 81.0763320922851562 0 0.015149775892496109 0.999885261058807373 0
514 81.0763320922851562 150 0.015149775892496109 0.999885261058807373 0
486.07574462890625 81.4994277954101562 150 0.015149775892496109 0.999885261058807373 0
485.92425537109375 71.5005722045898438 0 -0.015149775892496109 -0.999885261058807373 0
524 70.9236679077148438 0 -0.015149775892496109 -0.999885261058807373 0
524 70.9236679077148438 150 -0.015149775892496109 -0.999885261058807373 0
485.92425537109375 71.5005722045898438 150 -0.015149775892496109 -0.999885261058807373 0
514 81.0763320922851562 0 -1 0 0
514 471.128692626953125 0 -1 0 0
514 471.128692626953125 150 -1 0 0
514 81.0763320922851562 150 -1 0 0
524 70.9236679077148438 0 1 -0 0
524 480.871307373046875 0 1 -0 0
524 480.871307373046875 150 1 -0 0
524 70.9236679077148438 150 1 -0 0
481.130340576171875 481.98919677734375 0 0.0260676927864551544 0.999660193920135498 0
524 480.871307373046875 0 0.0260676927864551544 0.999660193920135498 0
524 480.871307373046875 150 0.0260676927864551544 0.999660193920135498 0
481.130340576171875 481.98919677734375 150 0.0260676927864551544 0.999660193920135498 0
480.869659423828125 471.99261474609375 0 -0.0260676927864551544 -0.999660193920135498 0
514 471.128692626953125 0 -0.0260676927864551544 -0.999660193920135498 0
514 471.128692626953125 150 -0.0260676927864551544 -0.999660193920135498 0
480.869659423828125 471.99261474609375 150 -0.0260676927864551544 -0.999660193920135498 0
425.5003662109375 306.94049072265625 0 -0.999929130077362061 -0.0119039183482527733 0
424.94012451171875 354 0 -0.999929130077362061 -0.0119039183482527733 0
424.94012451171875 354 150 -0.999929130077362061 -0.0119039183482527733 0
425.5003662109375 306.94049072265625 150 -0.999929130077362061 -0.0119039183482527733 0
435.4996337890625 307.05950927734375 0 0.999929130077362061 0.0119039183482527733 0
435.05987548828125 344 0 0.999929130077362061 0.0119039183482527733 0
435.05987548828125 344 150 0.999929130077362061 0.0119039183482527733 0
435.4996337890625 307.05950927734375 150 0.999929130077362061 0.0119039183482527733 0
424.94012451171875 354 0 -0 1 0
477 354 0 -0 1 0
477 354 150 -0 1 0
424.94012451171875 354 150 -0 1 0
435.05987548828125 344 0 0 -1 0
477 344 0 0 -1 0
477 344 150 0 -1 0
435.05987548828125 344 150 0 -1 0
384.479278564453125 339.019012451171875 0 -0.999992787837982178 0.00380110181868076324 0
385.01898193359375 481 0 -0.999992787837982178 0.00380110181868076324 0
385.01898193359375 481 150 -0.999992787837982178 0.00380110181868076324 0
384.479278564453125 339.019012451171875 150 -0.999992787837982178 0.00380110181868076324 0
394.479217529296875 338.980987548828125 0 0.999992787837982178 -0.00380110181868076324 0
394.98101806640625 471 0 0.999992787837982178 -0.00380110181868076324 0
394.98101806640625 471 150 0.999992787837982178 -0.00380110181868076324 0
394.479217529296875 338.980987548828125 150 0.999992787837982178 -0.00380110181868076324 0
385.01898193359375 481 0 -0 1 0
435 481 0 -0 1 0
435 481 150 -0 1 0
385.01898193359375 481 150 -0 1 0
394.98101806640625 471 0 0 -1 0
435 471 0 0 -1 0
435 471 150 0 -1 0
394.98101806640625 471 150 0 -1 0
290 471 0 -0 -1 0
251.97576904296875 471 0 -0 -1 0
251.97576904296875 471 150 -0 -1 0
290 471 150 -0 -1 0
290 481 0 0 1 0
242.02423095703125 481 0 0 1 0
242.02423095703125 481 150 0 1 0
290 481 150 0 1 0
251.97576904296875 471 0 0.999988198280334473 -0.00485703209415078163 0
251.485092163085938 369.9757080078125 0 0.999988198280334473 -0.00485703209415078163 0
251.485092163085938 369.9757080078125 150 0.999988198280334473 -0.00485703209415078163 0
251.97576904296875 471 150 0.999988198280334473 -0.00485703209415078163 0
242.02423095703125 481 0 -0.999988198280334473 0.00485703209415078163 0
241.485214233398438 370.0242919921875 0 -0.999988198280334473 0.00485703209415078163 0
241.485214233398438 370.0242919921875 150 -0.999988198280334473 0.00485703209415078163 0
242.02423095703125 481 150 -0.999988198280334473 0.00485703209415078163 0
251 215 0 249.1407470703125 214.40740966796875 0
241 215 0 249.1407470703125 214.40740966796875 0
241 215 150 249.1407470703125 214.40740966796875 0
251 215 150 249.1407470703125 214.40740966796875 0
251.4375 311 0 244.453125 303.361114501953125 0
241.4375 311 0 244.453125 303.361114501953125 0
241.4375 311 150 244.453125 303.361114501953125 0
251.4375 311 150 244.453125 303.361114501953125 0
251.4375 275 0 244.453125 266.361114501953125 0
241.4375 275 0 244.453125 266.361114501953125 0
241.4375 275 150 244.453125 266.361114501953125 0
251.4375 275 150 244.453125 266.361114501953125 0
419 71 0 408.361114501953125 69.0277786254882812 0
419 81 0 408.361114501953125 69.0277786254882812 0
419 81 150 408.361114501953125 69.0277786254882812 0
419 71 150 408.361114501953125 69.0277786254882812 0
517 247 0 511.69512939453125 243.987808227539062 0
517 257 0 511.69512939453125 243.987808227539062 0
517 257 150 511.69512939453125 243.987808227539062 0
517 247 150 511.69512939453125 243.987808227539062 0
518 315 0 510.0689697265625 309.5689697265625 0
518 325 0 510.0689697265625 309.5689697265625 0
518 325 150 510.0689697265625 309.5689697265625 0
518 315 150 510.0689697265625 309.5689697265625 0
425 280 0 409.821441650390625 271 0
435 280 0 409.821441650390625 271 0
435 280 150 409.821441650390625 271 0
425 280 150 409.821441650390625 271 0
280 291.5 0 272.25 282.390625 0
280 301.5 0 272.25 282.390625 0
280 301.5 150 272.25 282.390625 0
280 291.5 150 272.25 282.390625 0
248 291.5 0 239.25 282.390625 0
248 301.5 0 239.25 282.390625 0
248 301.5 150 239.25 282.390625 0
248 291.5 150 239.25 282.390625 0
390 292 0 374.043487548828125 279.304351806640625 0
390 302 0 374.043487548828125 279.304351806640625 0
390 302 150 374.043487548828125 279.304351806640625 0
390 292 150 374.043487548828125 279.304351806640625 0
388 70.504852294921875 0 381.67926025390625 69.1745758056640625 0
388 80.504852294921875 0 381.67926025390625 69.1745758056640625 0
388 80.504852294921875 150 381.67926025390625 69.1745758056640625 0
388 70.504852294921875 150 381.67926025390625 69.1745758056640625 0
335 70.504852294921875 0 327.67926025390625 69.1745758056640625 0
335 80.504852294921875 0 327.67926025390625 69.1745758056640625 0
335 80.504852294921875 150 327.67926025390625 69.1745758056640625 0
335 70.504852294921875 150 327.67926025390625 69.1745758056640625 0
346 471 0 325.375 441.5625 0
346 481 0 325.375 441.5625 0
346 481 150 325.375 441.5625 0
346 471 150 325.375 441.5625 0
330 471 0 308.375 441.5625 0
330 481 0 308.375 441.5625 0
330 481 150 308.375 441.5625 0
330 471 150 308.375 441.5625 0
518 343 0 471.909088134765625 311.81817626953125 0
518 353 0 471.909088134765625 311.81817626953125 0
518 353 150 471.909088134765625 311.81817626953125 0
518 343 150 471.909088134765625 311.81817626953125 0
507 343 0 459.909088134765625 311.81817626953125 0
507 353 0 459.909088134765625 311.81817626953125 0
507 353 150 459.909088134765625 311.81817626953125 0
507 343 150 459.909088134765625 311.81817626953125 0
327 291.5079345703125 0 317.78125 282.3983154296875 0
327 301.5079345703125 0 317.78125 282.3983154296875 0
327 301.5079345703125 150 317.78125 282.3983154296875 0
327 291.5079345703125 150 317.78125 282.3983154296875 0
295 291.5079345703125 0 284.78125 282.3983154296875 0
295 301.5079345703125 0 284.78125 282.3983154296875 0
295 301.5079345703125 150 284.78125 282.3983154296875 0
295 291.5079345703125 150 284.78125 282.3983154296875 0
387 141 0 375.90625 136.59375 0
387 151 0 375.90625 136.59375 0
387 151 150 375.90625 136.59375 0
387 141 150 375.90625 136.59375 0
355 141 0 342.90625 136.59375 0
355 151 0 342.90625 136.59375 0
355 151 150 342.90625 136.59375 0
355 141 150 342.90625 136.59375 0
268 80 0 253.23529052734375 75.2941207885742188 0
268 70 0 253.23529052734375 75.2941207885742188 0
268 70 150 253.23529052734375 75.2941207885742188 0
268 80 150 253.23529052734375 75.2941207885742188 0
442 229 0 379.857147216796875 196.285720825195312 0
442 219 0 379.857147216796875 196.285720825195312 0
442 219 150 379.857147216796875 196.285720825195312 0
442 229 150 379.857147216796875 196.285720825195312 0
251 346 0 231.692306518554688 320.384613037109375 0
241 346 0 231.692306518554688 320.384613037109375 0
241 346 150 231.692306518554688 320.384613037109375 0
251 346 150 231.692306518554688 320.384613037109375 0
251 333 0 231.692306518554688 306.384613037109375 0
241 333 0 231.692306518554688 306.384613037109375 0
241 333 150 231.692306518554688 306.384613037109375 0
251 333 150 231.692306518554688 306.384613037109375 0
386 188.5 0 374.54840087890625 182.419357299804688 0
386 198.5 0 374.54840087890625 182.419357299804688 0
386 198.5 150 374.54840087890625 182.419357299804688 0
386 188.5 150 374.54840087890625 182.419357299804688 0
355 188.5 0 342.54840087890625 182.419357299804688 0
355 198.5 0 342.54840087890625 182.419357299804688 0
355 198.5 150 342.54840087890625 182.419357299804688 0
355 188.5 150 342.54840087890625 182.419357299804688 0
460 347 0 445.625 337.15625 0
470 347 0 445.625 337.15625 0
470 347 150 445.625 337.15625 0
460 347 150 445.625 337.15625 0
517 219.5 0 471 199.545455932617188 0
517 229.5 0 471 199.545455932617188 0
517 229.5 150 471 199.545455932617188 0
517 219.5 150 471 199.545455932617188 0
506 219.5 0 459 199.545455932617188 0
506 229.5 0 459 199.545455932617188 0
506 229.5 150 459 199.545455932617188 0
506 219.5 150 459 199.545455932617188 0
459.5 268 0 426.678558349609375 249.857147216796875 0
449.5 268 0 426.678558349609375 249.857147216796875 0
449.5 268 150 426.678558349609375 249.857147216796875 0
459.5 268 150 426.678558349609375 249.857147216796875 0
459.5 254 0 426.678558349609375 234.857147216796875 0
449.5 254 0 426.678558349609375 234.857147216796875 0
449.5 254 150 426.678558349609375 234.857147216796875 0
459.5 254 150 426.678558349609375 234.857147216796875 0
486.07574462890625 81.4994277954101562 0 467.670928955078125 78.5963211059570312 0
485.92425537109375 71.5005722045898438 0 467.670928955078125 78.5963211059570312 0
485.92425537109375 71.5005722045898438 150 467.670928955078125 78.5963211059570312 0
486.07574462890625 81.4994277954101562 150 467.670928955078125 78.5963211059570312 0
481.130340576171875 481.98919677734375 0 468.911407470703125 470.775970458984375 0
480.869659423828125 471.99261474609375 0 468.911407470703125 470.775970458984375 0
480.869659423828125 471.99261474609375 150 468.911407470703125 470.775970458984375 0
481.130340576171875 481.98919677734375 150 468.911407470703125 470.775970458984375 0
425.5003662109375 306.94049072265625 0 416.471160888671875 299.418609619140625 0
435.4996337890625 307.05950927734375 0 416.471160888671875 299.418609619140625 0
435.4996337890625 307.05950927734375 150 416.471160888671875 299.418609619140625 0
425.5003662109375 306.94049072265625 150 416.471160888671875 299.418609619140625 0
477 354 0 468.83746337890625 347.20013427734375 0
477 344 0 468.83746337890625 347.20013427734375 0
477 344 150 468.83746337890625 347.20013427734375 0
477 354 150 468.83746337890625 347.20013427734375 0
384.479278564453125 339.019012451171875 0 381.767547607421875 335.631256103515625 0
394.479217529296875 338.980987548828125 0 381.767547607421875 335.631256103515625 0
394.479217529296875 338.980987548828125 150 381.767547607421875 335.631256103515625 0
384.479278564453125 339.019012451171875 150 381.767547607421875 335.631256103515625 0
435 481 0 427.29669189453125 471.3763427734375 0
435 471 0 427.29669189453125 471.3763427734375 0
435 471 150 427.29669189453125 471.3763427734375 0
435 481 150 427.29669189453125 471.3763427734375 0
290 471 0 283.373291015625 458.6131591796875 0
290 481 0 283.373291015625 458.6131591796875 0
290 481 150 283.373291015625 458.6131591796875 0
290 471 150 283.373291015625 458.6131591796875 0
251.485092163085938 369.9757080078125 0 248.99090576171875 365.31353759765625 0
241.485214233398438 370.0242919921875 0 248.99090576171875 365.31353759765625 0
241.485214233398438 370.0242919921875 150 248.99090576171875 365.31353759765625 0
251.485092163085938 369.9757080078125 150 248.99090576171875 365.31353759765625 0
251 215 0 0 0 -1
241 215 0 0 0 -1
241 70 0 0 0 -1
251 80 0 0 0 -1
251 215 150 0 0 1
241 215 150 0 0 1
241 70 150 0 0 1
251 80 150 0 0 1
251 80 0 0 0 -1
241 70 0 0 0 -1
268 70 0 0 0 -1
268 80 0 0 0 -1
251 80 150 0 0 1
241 70 150 0 0 1
268 70 150 0 0 1
268 80 150 0 0 1
251.4375 311 0 0 0 -1
241.4375 311 0 0 0 -1
241.4375 275 0 0 0 -1
251.4375 275 0 0 0 -1
251.4375 311 150 0 0 1
241.4375 311 150 0 0 1
241.4375 275 150 0 0 1
251.4375 275 150 0 0 1
419 71 0 0 0 -1
419 81 0 0 0 -1
393 81 0 0 0 -1
383 71 0 0 0 -1
419 71 150 0 0 1
419 81 150 0 0 1
393 81 150 0 0 1
383 71 150 0 0 1
383 71 0 0 0 -1
393 81 0 0 0 -1
393 266 0 0 0 -1
383 256 0 0 0 -1
383 71 150 0 0 1
393 81 150 0 0 1
393 266 150 0 0 1
383 256 150 0 0 1
517 247 0 0 0 -1
517 257 0 0 0 -1
435 257 0 0 0 -1
435 247 0 0 0 -1
517 247 150 0 0 1
517 257 150 0 0 1
435 257 150 0 0 1
435 247 150 0 0 1
425 252 0 0 0 -1
435 257 0 0 0 -1
435 280 0 0 0 -1
425 280 0 0 0 -1
425 252 150 0 0 1
435 257 150 0 0 1
435 280 150 0 0 1
425 280 150 0 0 1
435 247 0 0 0 -1
425 252 0 0 0 -1
425 219 0 0 0 -1
435 229 0 0 0 -1
435 247 150 0 0 1
425 252 150 0 0 1
425 219 150 0 0 1
435 229 150 0 0 1
518 315 0 0 0 -1
518 325 0 0 0 -1
470 325 0 0 0 -1
460 315 0 0 0 -1
518 315 150 0 0 1
518 325 150 0 0 1
470 325 150 0 0 1
460 315 150 0 0 1
460 315 0 0 0 -1
470 325 0 0 0 -1
470 347 0 0 0 -1
460 347 0 0 0 -1
460 315 150 0 0 1
470 325 150 0 0 1
470 347 150 0 0 1
460 347 150 0 0 1
280 291.5 0 0 0 -1
280 301.5 0 0 0 -1
248 301.5 0 0 0 -1
248 291.5 0 0 0 -1
280 291.5 150 0 0 1
280 301.5 150 0 0 1
248 301.5 150 0 0 1
248 291.5 150 0 0 1
390 292 0 0 0 -1
390 302 0 0 0 -1
357 302 0 0 0 -1
367 292 0 0 0 -1
390 292 150 0 0 1
390 302 150 0 0 1
357 302 150 0 0 1
367 292 150 0 0 1
367 292 0 0 0 -1
357 302 0 0 0 -1
357 256 0 0 0 -1
367 266 0 0 0 -1
367 292 150 0 0 1
357 302 150 0 0 1
357 256 150 0 0 1
367 266 150 0 0 1
388 70.504852294921875 0 0 0 -1
388 80.504852294921875 0 0 0 -1
335 80.504852294921875 0 0 0 -1
335 70.504852294921875 0 0 0 -1
388 70.504852294921875 150 0 0 1
388 80.504852294921875 150 0 0 1
335 80.504852294921875 150 0 0 1
335 70.504852294921875 150 0 0 1
367 266 0 0 0 -1
357 256 0 0 0 -1
383 256 0 0 0 -1
393 266 0 0 0 -1
367 266 150 0 0 1
357 256 150 0 0 1
383 256 150 0 0 1
393 266 150 0 0 1
346 471 0 0 0 -1
346 481 0 0 0 -1
330 481 0 0 0 -1
330 471 0 0 0 -1
346 471 150 0 0 1
346 481 150 0 0 1
330 481 150 0 0 1
330 471 150 0 0 1
518 343 0 0 0 -1
518 353 0 0 0 -1
507 353 0 0 0 -1
507 343 0 0 0 -1
518 343 150 0 0 1
518 353 150 0 0 1
507 353 150 0 0 1
507 343 150 0 0 1
435 229 0 0 0 -1
425 219 0 0 0 -1
442 219 0 0 0 -1
442 229 0 0 0 -1
435 229 150 0 0 1
425 219 150 0 0 1
442 219 150 0 0 1
442 229 150 0 0 1
327 291.5079345703125 0 0 0 -1
327 301.5079345703125 0 0 0 -1
295 301.5079345703125 0 0 0 -1
295 291.5079345703125 0 0 0 -1
327 291.5079345703125 150 0 0 1
327 301.5079345703125 150 0 0 1
295 301.5079345703125 150 0 0 1
295 291.5079345703125 150 0 0 1
387 141 0 0 0 -1
387 151 0 0 0 -1
355 151 0 0 0 -1
355 141 0 0 0 -1
387 141 150 0 0 1
387 151 150 0 0 1
355 151 150 0 0 1
355 141 150 0 0 1
251 346 0 0 0 -1
241 346 0 0 0 -1
241 333 0 0 0 -1
251 333 0 0 0 -1
251 346 150 0 0 1
241 346 150 0 0 1
241 333 150 0 0 1
251 333 150 0 0 1
386 188.5 0 0 0 -1
386 198.5 0 0 0 -1
355 198.5 0 0 0 -1
355 188.5 0 0 0 -1
386 188.5 150 0 0 1
386 198.5 150 0 0 1
355 198.5 150 0 0 1
355 188.5 150 0 0 1
517 219.5 0 0 0 -1
517 229.5 0 0 0 -1
506 229.5 0 0 0 -1
506 219.5 0 0 0 -1
517 219.5 150 0 0 1
517 229.5 150 0 0 1
506 229.5 150 0 0 1
506 219.5 150 0 0 1
459.5 268 0 0 0 -1
449.5 268 0 0 0 -1
449.5 254 0 0 0 -1
459.5 254 0 0 0 -1
459.5 268 150 0 0 1
449.5 268 150 0 0 1
449.5 254 150 0 0 1
459.5 254 150 0 0 1
486.07574462890625 81.4994277954101562 0 0 0 -1
485.92425537109375 71.5005722045898438 0 0 0 -1
524 70.9236679077148438 0 0 0 -1
514 81.0763320922851562 0 0 0 -1
486.07574462890625 81.4994277954101562 150 0 0 1
485.92425537109375 71.5005722045898438 150 0 0 1
524 70.9236679077148438 150 0 0 1
514 81.0763320922851562 150 0 0 1
514 81.0763320922851562 0 0 0 -1
524 70.9236679077148438 0 0 0 -1
524 480.871307373046875 0 0 0 -1
514 471.128692626953125 0 0 0 -1
514 81.0763320922851562 150 0 0 1
524 70.9236679077148438 150 0 0 1
524 480.871307373046875 150 0 0 1
514 471.128692626953125 150 0 0 1
481.130340576171875 481.98919677734375 0 0 0 -1
480.869659423828125 471.99261474609375 0 0 0 -1
514 471.128692626953125 0 0 0 -1
524 480.871307373046875 0 0 0 -1
481.130340576171875 481.98919677734375 150 0 0 1
480.869659423828125 471.99261474609375 150 0 0 1
514 471.128692626953125 150 0 0 1
524 480.871307373046875 150 0 0 1
425.5003662109375 306.94049072265625 0 0 0 -1
435.4996337890625 307.05950927734375 0 0 0 -1
435.05987548828125 344 0 0 0 -1
424.94012451171875 354 0 0 0 -1
425.5003662109375 306.94049072265625 150 0 0 1
435.4996337890625 307.05950927734375 150 0 0 1
435.05987548828125 344 150 0 0 1
424.94012451171875 354 150 0 0 1
424.94012451171875 354 0 0 0 -1
435.05987548828125 344 0 0 0 -1
477 344 0 0 0 -1
477 354 0 0 0 -1
424.94012451171875 354 150 0 0 1
435.05987548828125 344 150 0 0 1
477 344 150 0 0 1
477 354 150 0 0 1
384.479278564453125 339.019012451171875 0 0 0 -1
394.479217529296875 338.980987548828125 0 0 0 -1
394.98101806640625 471 0 0 0 -1
385.01898193359375 481 0 0 0 -1
384.479278564453125 339.019012451171875 150 0 0 1
394.479217529296875 338.980987548828125 150 0 0 1
394.98101806640625 471 150 0 0 1
385.01898193359375 481 150 0 0 1
385.01898193359375 481 0 0 0 -1
394.98101806640625 471 0 0 0 -1
435 471 0 0 0 -1
435 481 0 0 0 -1
385.01898193359375 481 150 0 0 1
394.98101806640625 471 150 0 0 1
435 471 150 0 0 1
435 481 150 0 0 1
290 471 0 0 0 -1
290 481 0 0 0 -1
242.02423095703125 481 0 0 0 -1
251.97576904296875 471 0 0 0 -1
290 471 150 0 0 1
290 481 150 0 0 1
242.02423095703125 481 150 0 0 1
251.97576904296875 471 150 0 0 1
251.97576904296875 471 0 0 0 -1
242.02423095703125 481 0 0 0 -1
241.485214233398438 370.0242919921875 0 0 0 -1
251.485092163085938 369.9757080078125 0 0 0 -1
251.97576904296875 471 150 0 0 1
242.02423095703125 481 150 0 0 1
241.485214233398438 370.0242919921875 150 0 0 1
251.485092163085938 369.9757080078125 150 0 0 1
4 0 1 2 3
4 4 5 6 7
4 8 9 10 11
4 12 13 14 15
4 16 17 18 19
4 20 21 22 23
4 24 25 26 27
4 28 29 30 31
4 32 33 34 35
4 36 37 38 39
4 40 41 42 43
4 44 45 46 47
4 48 49 50 51
4 52 53 54 55
4 56 57 58 59
4 60 61 62 63
4 64 65 66 67
4 68 69 70 71
4 72 73 74 75
4 76 77 78 79
4 80 81 82 83
4 84 85 86 87
4 88 89 90 91
4 92 93 94 95
4 96 97 98 99
4 100 101 102 103
4 104 105 106 107
4 108 109 110 111
4 112 113 114 115
4 116 117 118 119
4 120 121 122 123
4 124 125 126 127
4 128 129 130 131
4 132 133 134 135
4 136 137 138 139
4 140 141 142 143
4 144 145 146 147
4 148 149 150 151
4 152 153 154 155
4 156 157 158 159
4 160 161 162 163
4 164 165 166 167
4 168 169 170 171
4 172 173 174 175
4 176 177 178 179
4 180 181 182 183
4 184 185 186 187
4 188 189 190 191
4 192 193 194 195
4 196 197 198 199
4 200 201 202 203
4 204 205 206 207
4 208 209 210 211
4 212 213 214 215
4 216 217 218 219
4 220 221 222 223
4 224 225 226 227
4 228 229 230 231
4 232 233 234 235
4 236 237 238 239
4 240 241 242 243
4 244 245 246 247
4 248 249 250 251
4 252 253 254 255
4 256 257 258 259
4 260 261 262 263
4 264 265 266 267
4 268 269 270 271
4 272 273 274 275
4 276 277 278 279
4 280 281 282 283
4 284 285 286 287
4 288 289 290 291
4 292 293 294 295
4 296 297 298 299
4 300 301 302 303
4 304 305 306 307
4 308 309 310 311
4 312 313 314 315
4 316 317 318 319
4 320 321 322 323
4 324 325 326 327
4 328 329 330 331
4 332 333 334 335
4 336 337 338 339
4 340 341 342 343
4 344 345 346 347
4 348 349 350 351
4 352 353 354 355
4 356 357 358 359
4 360 361 362 363
4 364 365 366 367
4 368 369 370 371
4 372 373 374 375
4 376 377 378 379
4 380 381 382 383
4 384 385 386 387
4 388 389 390 391
4 392 393 394 395
4 396 397 398 399
4 400 401 402 403
4 404 405 406 407
4 408 409 410 411
4 412 413 414 415
4 416 417 418 419
4 420 421 422 423
4 424 425 426 427
4 428 429 430 431
4 432 433 434 435
4 436 437 438 439
4 440 441 442 443
4 444 445 446 447
4 448 449 450 451
4 452 453 454 455
4 456 457 458 459
4 460 461 462 463
4 464 465 466 467
4 468 469 470 471
4 472 473 474 475
4 476 477 478 479
4 480 481 482 483
4 484 485 486 487
4 488 489 490 491
4 492 493 494 495
4 496 497 498 499
4 500 501 502 503
4 504 505 506 507
4 508 509 510 511
4 512 513 514 515
4 516 517 518 519
4 520 521 522 523
4 524 525 526 527
4 528 529 530 531
4 532 533 534 535
4 536 537 538 539
4 540 541 542 543
4 544 545 546 547
4 548 549 550 551
4 552 553 554 555
4 556 557 558 559
4 560 561 562 563
4 564 565 566 567
4 568 569 570 571
4 572 573 574 575
4 576 577 578 579
4 580 581 582 583
4 584 585 586 587
4 588 589 590 591
4 592 593 594 595
4 596 597 598 599
4 600 601 602 603
4 604 605 606 607
4 608 609 610 611
4 612 613 614 615
4 616 617 618 619
4 620 621 622 623
4 624 625 626 627
4 628 629 630 631
4 632 633 634 635
4 636 637 638 639
4 640 641 642 643
4 644 645 646 647
4 648 649 650 651
4 652 653 654 655
4 656 657 658 659
4 660 661 662 663
4 664 665 666 667
4 668 669 670 671
4 672 673 674 675
4 676 677 678 679
4 680 681 682 683
