ply
format ascii 1.0
element vertex 480
property float x
property float y
property float z
property float nx
property float ny
property float nz
element quads 120
property list uchar int vertex_indices
end_header
447 324.25 0 -0 1 0
621 324.25 0 -0 1 0
621 324.25 100 -0 1 0
447 324.25 100 -0 1 0
447 323.75 0 0 -1 0
621 323.75 0 0 -1 0
621 323.75 100 0 -1 0
447 323.75 100 0 -1 0
447 263.25 0 -0 1 0
621 263.25 0 -0 1 0
621 263.25 100 -0 1 0
447 263.25 100 -0 1 0
447 262.75 0 0 -1 0
621 262.75 0 0 -1 0
621 262.75 100 0 -1 0
447 262.75 100 0 -1 0
383.25 483.25 0 1 0 0
383.25 443.75 0 1 0 0
383.25 443.75 100 1 0 0
383.25 483.25 100 1 0 0
382.75 482.75 0 -1 -0 0
382.75 444.25 0 -1 -0 0
382.75 444.25 100 -1 -0 0
382.75 482.75 100 -1 -0 0
382.75 482.75 0 -0 -1 0
245.25 482.75 0 -0 -1 0
245.25 482.75 100 -0 -1 0
382.75 482.75 100 -0 -1 0
383.25 483.25 0 0 1 0
244.75 483.25 0 0 1 0
244.75 483.25 100 0 1 0
383.25 483.25 100 0 1 0
383.25 443.75 0 -0 -1 0
289 443.75 0 -0 -1 0
289 443.75 100 -0 -1 0
383.25 443.75 100 -0 -1 0
382.75 444.25 0 0 1 0
289 444.25 0 0 1 0
289 444.25 100 0 1 0
382.75 444.25 100 0 1 0
489.25 259 0 1 0 0
489.25 219 0 1 0 0
489.25 219 100 1 0 0
489.25 259 100 1 0 0
488.75 259 0 -1 -0 0
488.75 219 0 -1 -0 0
488.75 219 100 -1 -0 0
488.75 259 100 -1 -0 0
245.25 482.75 0 1 0 0
245.25 409 0 1 0 0
245.25 409 100 1 0 0
245.25 482.75 100 1 0 0
244.75 483.25 0 -1 -0 0
244.75 409 0 -1 -0 0
244.75 409 100 -1 -0 0
244.75 483.25 100 -1 -0 0
619.75 61.25 0 -1 0 0
619.75 408 0 -1 0 0
619.75 408 100 -1 0 0
619.75 61.25 100 -1 0 0
620.25 60.75 0 1 -0 0
620.25 408 0 1 -0 0
620.25 408 100 1 -0 0
620.25 60.75 100 1 -0 0
620.25 60.75 0 -0 -1 0
468 60.75 0 -0 -1 0
468 60.75 100 -0 -1 0
620.25 60.75 100 -0 -1 0
619.75 61.25 0 0 1 0
468 61.25 0 0 1 0
468 61.25 100 0 1 0
619.75 61.25 100 0 1 0
209.75 60.75 0 -1 0 0
209.75 405.25 0 -1 0 0
209.75 405.25 100 -1 0 0
209.75 60.75 100 -1 0 0
210.25 61.25 0 1 -0 0
210.25 404.75 0 1 -0 0
210.25 404.75 100 1 -0 0
210.25 61.25 100 1 -0 0
210.25 61.25 0 -0 1 0
358 61.25 0 -0 1 0
358 61.25 100 -0 1 0
210.25 61.25 100 -0 1 0
209.75 60.75 0 0 -1 0
358 60.75 0 0 -1 0
358 60.75 100 0 -1 0
209.75 60.75 100 0 -1 0
209.75 405.25 0 -0 1 0
383.25 405.25 0 -0 1 0
383.25 405.25 100 -0 1 0
209.75 405.25 100 -0 1 0
210.25 404.75 0 0 -1 0
382.75 404.75 0 0 -1 0
382.75 404.75 100 0 -1 0
210.25 404.75 100 0 -1 0
382.75 233 0 -1 0 0
382.75 404.75 0 -1 0 0
382.75 404.75 100 -1 0 0
382.75 233 100 -1 0 0
383.25 233 0 1 -0 0
383.25 405.25 0 1 -0 0
383.25 405.25 100 1 -0 0
383.25 233 100 1 -0 0
212 236.25 0 -0 1 0
442 236.25 0 -0 1 0
442 236.25 100 -0 1 0
212 236.25 100 -0 1 0
212 235.75 0 0 -1 0
442 235.75 0 0 -1 0
442 235.75 100 0 -1 0
212 235.75 100 0 -1 0
442.75 483.25 0 -0 1 0
586.25 483.25 0 -0 1 0
586.25 483.25 100 -0 1 0
442.75 483.25 100 -0 1 0
443.25 482.75 0 0 -1 0
585.75 482.75 0 0 -1 0
585.75 482.75 100 0 -1 0
443.25 482.75 100 0 -1 0
443.25 482.75 0 1 0 0
443.25 151 0 1 0 0
443.25 151 100 1 0 0
443.25 482.75 100 1 0 0
442.75 483.25 0 -1 -0 0
442.75 151 0 -1 -0 0
442.75 151 100 -1 -0 0
442.75 483.25 100 -1 -0 0
586.25 483.25 0 1 0 0
586.25 403 0 1 0 0
586.25 403 100 1 0 0
586.25 483.25 100 1 0 0
585.75 482.75 0 -1 -0 0
585.75 403 0 -1 -0 0
585.75 403 100 -1 -0 0
585.75 482.75 100 -1 -0 0
474.75 321 0 -1 0 0
474.75 359 0 -1 0 0
474.75 359 100 -1 0 0
474.75 321 100 -1 0 0
475.25 321 0 1 -0 0
475.25 359 0 1 -0 0
475.25 359 100 1 -0 0
475.25 321 100 1 -0 0
474.75 57 0 -1 0 0
474.75 130 0 -1 0 0
474.75 130 100 -1 0 0
474.75 57 100 -1 0 0
475.25 57 0 1 -0 0
475.25 130 0 1 -0 0
475.25 130 100 1 -0 0
475.25 57 100 1 -0 0
365.75 210 0 -1 0 0
365.75 267 0 -1 0 0
365.75 267 100 -1 0 0
365.75 210 100 -1 0 0
366.25 210 0 1 -0 0
366.25 267 0 1 -0 0
366.25 267 100 1 -0 0
366.25 210 100 1 -0 0
212 263.25 0 -0 1 0
380 263.25 0 -0 1 0
380 263.25 100 -0 1 0
212 263.25 100 -0 1 0
212 262.75 0 0 -1 0
380 262.75 0 0 -1 0
380 262.75 100 0 -1 0
212 262.75 100 0 -1 0
447 356.25 0 -0 1 0
621 356.25 0 -0 1 0
621 356.25 100 -0 1 0
447 356.25 100 -0 1 0
447 355.75 0 0 -1 0
621 355.75 0 0 -1 0
621 355.75 100 0 -1 0
447 355.75 100 0 -1 0
514 137.25 0 -0 1 0
615 137.25 0 -0 1 0
615 137.25 100 -0 1 0
514 137.25 100 -0 1 0
514 136.75 0 0 -1 0
615 136.75 0 0 -1 0
615 136.75 100 0 -1 0
514 136.75 100 0 -1 0
447 324.25 0 443.4310302734375 322.386505126953125 0
447 323.75 0 443.4310302734375 322.386505126953125 0
447 323.75 100 443.4310302734375 322.386505126953125 0
447 324.25 100 443.4310302734375 322.386505126953125 0
621 324.25 0 618.4310302734375 322.386505126953125 0
621 323.75 0 618.4310302734375 322.386505126953125 0
621 323.75 100 618.4310302734375 322.386505126953125 0
621 324.25 100 618.4310302734375 322.386505126953125 0
447 263.25 0 443.4310302734375 261.737060546875 0
447 262.75 0 443.4310302734375 261.737060546875 0
447 262.75 100 443.4310302734375 261.737060546875 0
447 263.25 100 443.4310302734375 261.737060546875 0
621 263.25 0 618.4310302734375 261.737060546875 0
621 262.75 0 618.4310302734375 261.737060546875 0
621 262.75 100 618.4310302734375 261.737060546875 0
621 263.25 100 618.4310302734375 261.737060546875 0
489.25 259 0 477.01873779296875 253.524993896484375 0
488.75 259 0 477.01873779296875 253.524993896484375 0
488.75 259 100 477.01873779296875 253.524993896484375 0
489.25 259 100 477.01873779296875 253.524993896484375 0
489.25 219 0 477.01873779296875 212.524993896484375 0
488.75 219 0 477.01873779296875 212.524993896484375 0
488.75 219 100 477.01873779296875 212.524993896484375 0
489.25 219 100 477.01873779296875 212.524993896484375 0
245.25 409 0 241.924575805664062 402.4542236328125 0
244.75 409 0 241.924575805664062 402.4542236328125 0
244.75 409 100 241.924575805664062 402.4542236328125 0
245.25 409 100 241.924575805664062 402.4542236328125 0
619.75 408 0 617.96270751953125 407.8233642578125 0
620.25 408 0 617.96270751953125 407.8233642578125 0
620.25 408 100 617.96270751953125 407.8233642578125 0
619.75 408 100 617.96270751953125 407.8233642578125 0
382.75 233 0 380.521484375 230.64337158203125 0
383.25 233 0 380.521484375 230.64337158203125 0
383.25 233 100 380.521484375 230.64337158203125 0
382.75 233 100 380.521484375 230.64337158203125 0
212 236.25 0 210.078262329101562 235.222824096679688 0
212 235.75 0 210.078262329101562 235.222824096679688 0
212 235.75 100 210.078262329101562 235.222824096679688 0
212 236.25 100 210.078262329101562 235.222824096679688 0
442 236.25 0 441.0782470703125 235.222824096679688 0
442 235.75 0 441.0782470703125 235.222824096679688 0
442 235.75 100 441.0782470703125 235.222824096679688 0
442 236.25 100 441.0782470703125 235.222824096679688 0
586.25 403 0 578.9447021484375 396.978179931640625 0
585.75 403 0 578.9447021484375 396.978179931640625 0
585.75 403 100 578.9447021484375 396.978179931640625 0
586.25 403 100 578.9447021484375 396.978179931640625 0
289 443.75 0 284.933685302734375 439.041778564453125 0
289 444.25 0 284.933685302734375 439.041778564453125 0
289 444.25 100 284.933685302734375 439.041778564453125 0
289 443.75 100 284.933685302734375 439.041778564453125 0
474.75 321 0 462.256591796875 311.552642822265625 0
475.25 321 0 462.256591796875 311.552642822265625 0
475.25 321 100 462.256591796875 311.552642822265625 0
474.75 321 100 462.256591796875 311.552642822265625 0
474.75 359 0 462.256591796875 350.552642822265625 0
475.25 359 0 462.256591796875 350.552642822265625 0
475.25 359 100 462.256591796875 350.552642822265625 0
474.75 359 100 462.256591796875 350.552642822265625 0
358 61.25 0 356.576995849609375 60.83544921875 0
358 60.75 0 356.576995849609375 60.83544921875 0
358 60.75 100 356.576995849609375 60.83544921875 0
358 61.25 100 356.576995849609375 60.83544921875 0
474.75 57 0 468.24658203125 55.21917724609375 0
475.25 57 0 468.24658203125 55.21917724609375 0
475.25 57 100 468.24658203125 55.21917724609375 0
474.75 57 100 468.24658203125 55.21917724609375 0
474.75 130 0 468.24658203125 129.21917724609375 0
475.25 130 0 468.24658203125 129.21917724609375 0
475.25 130 100 468.24658203125 129.21917724609375 0
474.75 130 100 468.24658203125 129.21917724609375 0
365.75 210 0 359.333343505859375 205.3157958984375 0
366.25 210 0 359.333343505859375 205.3157958984375 0
366.25 210 100 359.333343505859375 205.3157958984375 0
365.75 210 100 359.333343505859375 205.3157958984375 0
365.75 267 0 359.333343505859375 263.3157958984375 0
366.25 267 0 359.333343505859375 263.3157958984375 0
366.25 267 100 359.333343505859375 263.3157958984375 0
365.75 267 100 359.333343505859375 263.3157958984375 0
212 263.25 0 209.73809814453125 261.68304443359375 0
212 262.75 0 209.73809814453125 261.68304443359375 0
212 262.75 100 209.73809814453125 261.68304443359375 0
212 263.25 100 209.73809814453125 261.68304443359375 0
380 263.25 0 378.73809814453125 261.68304443359375 0
380 262.75 0 378.73809814453125 261.68304443359375 0
380 262.75 100 378.73809814453125 261.68304443359375 0
380 263.25 100 378.73809814453125 261.68304443359375 0
447 356.25 0 443.4310302734375 354.20257568359375 0
447 355.75 0 443.4310302734375 354.20257568359375 0
447 355.75 100 443.4310302734375 354.20257568359375 0
447 356.25 100 443.4310302734375 354.20257568359375 0
621 356.25 0 618.4310302734375 354.20257568359375 0
621 355.75 0 618.4310302734375 354.20257568359375 0
621 355.75 100 618.4310302734375 354.20257568359375 0
621 356.25 100 618.4310302734375 354.20257568359375 0
468 60.75 0 463.926116943359375 60.3509864807128906 0
468 61.25 0 463.926116943359375 60.3509864807128906 0
468 61.25 100 463.926116943359375 60.3509864807128906 0
468 60.75 100 463.926116943359375 60.3509864807128906 0
514 137.25 0 507.910888671875 135.891082763671875 0
514 136.75 0 507.910888671875 135.891082763671875 0
514 136.75 100 507.910888671875 135.891082763671875 0
514 137.25 100 507.910888671875 135.891082763671875 0
615 137.25 0 609.910888671875 135.891082763671875 0
615 136.75 0 609.910888671875 135.891082763671875 0
615 136.75 100 609.910888671875 135.891082763671875 0
615 137.25 100 609.910888671875 135.891082763671875 0
443.25 151 0 441.913909912109375 149.544845581054688 0
442.75 151 0 441.913909912109375 149.544845581054688 0
442.75 151 100 441.913909912109375 149.544845581054688 0
443.25 151 100 441.913909912109375 149.544845581054688 0
447 324.25 0 0 0 -1
447 323.75 0 0 0 -1
621 323.75 0 0 0 -1
621 324.25 0 0 0 -1
447 324.25 100 0 0 1
447 323.75 100 0 0 1
621 323.75 100 0 0 1
621 324.25 100 0 0 1
447 263.25 0 0 0 -1
447 262.75 0 0 0 -1
621 262.75 0 0 0 -1
621 263.25 0 0 0 -1
447 263.25 100 0 0 1
447 262.75 100 0 0 1
621 262.75 100 0 0 1
621 263.25 100 0 0 1
383.25 483.25 0 0 0 -1
382.75 482.75 0 0 0 -1
382.75 444.25 0 0 0 -1
383.25 443.75 0 0 0 -1
383.25 483.25 100 0 0 1
382.75 482.75 100 0 0 1
382.75 444.25 100 0 0 1
383.25 443.75 100 0 0 1
382.75 482.75 0 0 0 -1
383.25 483.25 0 0 0 -1
244.75 483.25 0 0 0 -1
245.25 482.75 0 0 0 -1
382.75 482.75 100 0 0 1
383.25 483.25 100 0 0 1
244.75 483.25 100 0 0 1
245.25 482.75 100 0 0 1
383.25 443.75 0 0 0 -1
382.75 444.25 0 0 0 -1
289 444.25 0 0 0 -1
289 443.75 0 0 0 -1
383.25 443.75 100 0 0 1
382.75 444.25 100 0 0 1
289 444.25 100 0 0 1
289 443.75 100 0 0 1
489.25 259 0 0 0 -1
488.75 259 0 0 0 -1
488.75 219 0 0 0 -1
489.25 219 0 0 0 -1
489.25 259 100 0 0 1
488.75 259 100 0 0 1
488.75 219 100 0 0 1
489.25 219 100 0 0 1
245.25 482.75 0 0 0 -1
244.75 483.25 0 0 0 -1
244.75 409 0 0 0 -1
245.25 409 0 0 0 -1
245.25 482.75 100 0 0 1
244.75 483.25 100 0 0 1
244.75 409 100 0 0 1
245.25 409 100 0 0 1
619.75 61.25 0 0 0 -1
620.25 60.75 0 0 0 -1
620.25 408 0 0 0 -1
619.75 408 0 0 0 -1
619.75 61.25 100 0 0 1
620.25 60.75 100 0 0 1
620.25 408 100 0 0 1
619.75 408 100 0 0 1
620.25 60.75 0 0 0 -1
619.75 61.25 0 0 0 -1
468 61.25 0 0 0 -1
468 60.75 0 0 0 -1
620.25 60.75 100 0 0 1
619.75 61.25 100 0 0 1
468 61.25 100 0 0 1
468 60.75 100 0 0 1
209.75 60.75 0 0 0 -1
210.25 61.25 0 0 0 -1
210.25 404.75 0 0 0 -1
209.75 405.25 0 0 0 -1
209.75 60.75 100 0 0 1
210.25 61.25 100 0 0 1
210.25 404.75 100 0 0 1
209.75 405.25 100 0 0 1
210.25 61.25 0 0 0 -1
209.75 60.75 0 0 0 -1
358 60.75 0 0 0 -1
358 61.25 0 0 0 -1
210.25 61.25 100 0 0 1
209.75 60.75 100 0 0 1
358 60.75 100 0 0 1
358 61.25 100 0 0 1
209.75 405.25 0 0 0 -1
210.25 404.75 0 0 0 -1
382.75 404.75 0 0 0 -1
383.25 405.25 0 0 0 -1
209.75 405.25 100 0 0 1
210.25 404.75 100 0 0 1
382.75 404.75 100 0 0 1
383.25 405.25 100 0 0 1
382.75 233 0 0 0 -1
383.25 233 0 0 0 -1
383.25 405.25 0 0 0 -1
382.75 404.75 0 0 0 -1
382.75 233 100 0 0 1
383.25 233 100 0 0 1
383.25 405.25 100 0 0 1
382.75 404.75 100 0 0 1
212 236.25 0 0 0 -1
212 235.75 0 0 0 -1
442 235.75 0 0 0 -1
442 236.25 0 0 0 -1
212 236.25 100 0 0 1
212 235.75 100 0 0 1
442 235.75 100 0 0 1
442 236.25 100 0 0 1
442.75 483.25 0 0 0 -1
443.25 482.75 0 0 0 -1
585.75 482.75 0 0 0 -1
586.25 483.25 0 0 0 -1
442.75 483.25 100 0 0 1
443.25 482.75 100 0 0 1
585.75 482.75 100 0 0 1
586.25 483.25 100 0 0 1
443.25 482.75 0 0 0 -1
442.75 483.25 0 0 0 -1
442.75 151 0 0 0 -1
443.25 151 0 0 0 -1
443.25 482.75 100 0 0 1
442.75 483.25 100 0 0 1
442.75 151 100 0 0 1
443.25 151 100 0 0 1
586.25 483.25 0 0 0 -1
585.75 482.75 0 0 0 -1
585.75 403 0 0 0 -1
586.25 403 0 0 0 -1
586.25 483.25 100 0 0 1
585.75 482.75 100 0 0 1
585.75 403 100 0 0 1
586.25 403 100 0 0 1
474.75 321 0 0 0 -1
475.25 321 0 0 0 -1
475.25 359 0 0 0 -1
474.75 359 0 0 0 -1
474.75 321 100 0 0 1
475.25 321 100 0 0 1
475.25 359 100 0 0 1
474.75 359 100 0 0 1
474.75 57 0 0 0 -1
475.25 57 0 0 0 -1
475.25 130 0 0 0 -1
474.75 130 0 0 0 -1
474.75 57 100 0 0 1
475.25 57 100 0 0 1
475.25 130 100 0 0 1
474.75 130 100 0 0 1
365.75 210 0 0 0 -1
366.25 210 0 0 0 -1
366.25 267 0 0 0 -1
365.75 267 0 0 0 -1
365.75 210 100 0 0 1
366.25 210 100 0 0 1
366.25 267 100 0 0 1
365.75 267 100 0 0 1
212 263.25 0 0 0 -1
212 262.75 0 0 0 -1
380 262.75 0 0 0 -1
380 263.25 0 0 0 -1
212 263.25 100 0 0 1
212 262.75 100 0 0 1
380 262.75 100 0 0 1
380 263.25 100 0 0 1
447 356.25 0 0 0 -1
447 355.75 0 0 0 -1
621 355.75 0 0 0 -1
621 356.25 0 0 0 -1
447 356.25 100 0 0 1
447 355.75 100 0 0 1
621 355.75 100 0 0 1
621 356.25 100 0 0 1
514 137.25 0 0 0 -1
514 136.75 0 0 0 -1
615 136.75 0 0 0 -1
615 137.25 0 0 0 -1
514 137.25 100 0 0 1
514 136.75 100 0 0 1
615 136.75 100 0 0 1
615 137.25 100 0 0 1
4 0 1 2 3
4 4 5 6 7
4 8 9 10 11
4 12 13 14 15
4 16 17 18 19
4 20 21 22 23
4 24 25 26 27
4 28 29 30 31
4 32 33 34 35
4 36 37 38 39
4 40 41 42 43
4 44 45 46 47
4 48 49 50 51
4 52 53 54 55
4 56 57 58 59
4 60 61 62 63
4 64 65 66 67
4 68 69 70 71
4 72 73 74 75
4 76 77 78 79
4 80 81 82 83
4 84 85 86 87
4 88 89 90 91
4 92 93 94 95
4 96 97 98 99
4 100 101 102 103
4 104 105 106 107
4 108 109 110 111
4 112 113 114 115
4 116 117 118 119
4 120 121 122 123
4 124 125 126 127
4 128 129 130 131
4 132 133 134 135
4 136 137 138 139
4 140 141 142 143
4 144 145 146 147
4 148 149 150 151
4 152 153 154 155
4 156 157 158 159
4 160 161 162 163
4 164 165 166 167
4 168 169 170 171
4 172 173 174 175
4 176 177 178 179
4 180 181 182 183
4 184 185 186 187
4 188 189 190 191
4 192 193 194 195
4 196 197 198 199
4 200 201 202 203
4 204 205 206 207
4 208 209 210 211
4 212 213 214 215
4 216 217 218 219
4 220 221 222 223
4 224 225 226 227
4 228 229 230 231
4 232 233 234 235
4 236 237 238 239
4 240 241 242 243
4 244 245 246 247
4 248 249 250 251
4 252 253 254 255
4 256 257 258 259
4 260 261 262 263
4 264 265 266 267
4 268 269 270 271
4 272 273 274 275
4 276 277 278 279
4 280 281 282 283
4 284 285 286 287
4 288 289 290 291
4 292 293 294 295
4 296 297 298 299
4 300 301 302 303
4 304 305 306 307
4 308 309 310 311
4 312 313 314 315
4 316 317 318 319
4 320 321 322 323
4 324 325 326 327
4 328 329 330 331
4 332 333 334 335
4 336 337 338 339
4 340 341 342 343
4 344 345 346 347
4 348 349 350 351
4 352 353 354 355
4 356 357 358 359
4 360 361 362 363
4 364 365 366 367
4 368 369 370 371
4 372 373 374 375
4 376 377 378 379
4 380 381 382 383
4 384 385 386 387
4 388 389 390 391
4 392 393 394 395
4 396 397 398 399
4 400 401 402 403
4 404 405 406 407
4 408 409 410 411
4 412 413 414 415
4 416 417 418 419
4 420 421 422 423
4 424 425 426 427
4 428 429 430 431
4 432 433 434 435
4 436 437 438 439
4 440 441 442 443
4 444 445 446 447
4 448 449 450 451
4 452 453 454 455
4 456 457 458 459
4 460 461 462 463
4 464 465 466 467
4 468 469 470 471
4 472 473 474 475
4 476 477 478 479
