ply
format ascii 1.0
element vertex 1112
property float x
property float y
property float z
property float nx
property float ny
property float nz
element quads 278
property list uchar int vertex_indices
end_header
625 25.4874992370605469 0 -0 -1 0
584 25.4874992370605469 0 -0 -1 0
584 25.4874992370605469 150 -0 -1 0
625 25.4874992370605469 150 -0 -1 0
625 35.4874992370605469 0 0 1 0
584 35.4874992370605469 0 0 1 0
584 35.4874992370605469 150 0 1 0
625 35.4874992370605469 150 0 1 0
663.29412841796875 173 0 1 0 0
663.29412841796875 107 0 1 0 0
663.29412841796875 107 150 1 0 0
663.29412841796875 173 150 1 0 0
653.29412841796875 173 0 -1 -0 0
653.29412841796875 107 0 -1 -0 0
653.29412841796875 107 150 -1 -0 0
653.29412841796875 173 150 -1 -0 0
563 25.4857139587402344 0 -0 -1 0
527 25.4857139587402344 0 -0 -1 0
527 25.4857139587402344 150 -0 -1 0
563 25.4857139587402344 150 -0 -1 0
563 35.4857139587402344 0 0 1 0
527 35.4857139587402344 0 0 1 0
527 35.4857139587402344 150 0 1 0
563 35.4857139587402344 150 0 1 0
553.03619384765625 282 0 1 0 0
553.03619384765625 208 0 1 0 0
553.03619384765625 208 150 1 0 0
553.03619384765625 282 150 1 0 0
543.03619384765625 282 0 -1 -0 0
543.03619384765625 208 0 -1 -0 0
543.03619384765625 208 150 -1 -0 0
543.03619384765625 282 150 -1 -0 0
321 430 0 1 0 0
321 359 0 1 0 0
321 359 150 1 0 0
321 430 150 1 0 0
311 430 0 -1 -0 0
311 349 0 -1 -0 0
311 349 150 -1 -0 0
311 430 150 -1 -0 0
321 359 0 -0 1 0
338 359 0 -0 1 0
338 359 150 -0 1 0
321 359 150 -0 1 0
311 349 0 0 -1 0
328 349 0 0 -1 0
328 349 150 0 -1 0
311 349 150 0 -1 0
252 132 0 1 0 0
252 60 0 1 0 0
252 60 150 1 0 0
252 132 150 1 0 0
242 132 0 -1 -0 0
242 60 0 -1 -0 0
242 60 150 -1 -0 0
242 132 150 -1 -0 0
439 213.810348510742188 0 -0 -1 0
392 213.810348510742188 0 -0 -1 0
392 213.810348510742188 150 -0 -1 0
439 213.810348510742188 150 -0 -1 0
439 223.810348510742188 0 0 1 0
392 223.810348510742188 0 0 1 0
392 223.810348510742188 150 0 1 0
439 223.810348510742188 150 0 1 0
366 71 0 1 0 0
366 30 0 1 0 0
366 30 150 1 0 0
366 71 150 1 0 0
356 71 0 -1 -0 0
356 30 0 -1 -0 0
356 30 150 -1 -0 0
356 71 150 -1 -0 0
338 359 0 1 0 0
338 342 0 1 0 0
338 342 150 1 0 0
338 359 150 1 0 0
328 349 0 -1 -0 0
328 342 0 -1 -0 0
328 342 150 -1 -0 0
328 349 150 -1 -0 0
618 317.5 0 -0 -1 0
592 317.5 0 -0 -1 0
592 317.5 150 -0 -1 0
618 317.5 150 -0 -1 0
618 327.5 0 0 1 0
592 327.5 0 0 1 0
592 327.5 150 0 1 0
618 327.5 150 0 1 0
230 286 0 -0 -1 0
198 286 0 -0 -1 0
198 286 150 -0 -1 0
230 286 150 -0 -1 0
230 296 0 0 1 0
198 296 0 0 1 0
198 296 150 0 1 0
230 296 150 0 1 0
337.666656494140625 284 0 1 0 0
337.666656494140625 254 0 1 0 0
337.666656494140625 254 150 1 0 0
337.666656494140625 284 150 1 0 0
327.666656494140625 284 0 -1 -0 0
327.666656494140625 254 0 -1 -0 0
327.666656494140625 254 150 -1 -0 0
327.666656494140625 284 150 -1 -0 0
231 502 0 1 0 0
231 445 0 1 0 0
231 445 150 1 0 0
231 502 150 1 0 0
221 502 0 -1 -0 0
221 455 0 -1 -0 0
221 455 150 -1 -0 0
221 502 150 -1 -0 0
231 445 0 -0 -1 0
192 445 0 -0 -1 0
192 445 150 -0 -1 0
231 445 150 -0 -1 0
221 455 0 0 1 0
192 455 0 0 1 0
192 455 150 0 1 0
221 455 150 0 1 0
311.1630859375 539 0 1 0 0
311.1630859375 525 0 1 0 0
311.1630859375 525 150 1 0 0
311.1630859375 539 150 1 0 0
301.1630859375 539 0 -1 -0 0
301.1630859375 525 0 -1 -0 0
301.1630859375 525 150 -1 -0 0
301.1630859375 539 150 -1 -0 0
479 246 0 1 0 0
479 214 0 1 0 0
479 214 150 1 0 0
479 246 150 1 0 0
469 256 0 -1 -0 0
469 224 0 -1 -0 0
469 224 150 -1 -0 0
469 256 150 -1 -0 0
469 256 0 -0 1 0
494 256 0 -0 1 0
494 256 150 -0 1 0
469 256 150 -0 1 0
479 246 0 0 -1 0
494 246 0 0 -1 0
494 246 150 0 -1 0
479 246 150 0 -1 0
479 214 0 -0 -1 0
459 214 0 -0 -1 0
459 214 150 -0 -1 0
479 214 150 -0 -1 0
469 224 0 0 1 0
459 224 0 0 1 0
459 224 150 0 1 0
469 224 150 0 1 0
436 27.3154754638671875 0 -0 -1 0
396 27.3154754638671875 0 -0 -1 0
396 27.3154754638671875 150 -0 -1 0
436 27.3154754638671875 150 -0 -1 0
436 37.3154754638671875 0 0 1 0
396 37.3154754638671875 0 0 1 0
396 37.3154754638671875 150 0 1 0
436 37.3154754638671875 150 0 1 0
312.03125 360 0 1 0 0
312.03125 347 0 1 0 0
312.03125 347 150 1 0 0
312.03125 360 150 1 0 0
302.03125 360 0 -1 -0 0
302.03125 347 0 -1 -0 0
302.03125 347 150 -1 -0 0
302.03125 360 150 -1 -0 0
272 25.4897956848144531 0 -0 -1 0
247 25.4897956848144531 0 -0 -1 0
247 25.4897956848144531 150 -0 -1 0
272 25.4897956848144531 150 -0 -1 0
272 35.4897956848144531 0 0 1 0
247 35.4897956848144531 0 0 1 0
247 35.4897956848144531 150 0 1 0
272 35.4897956848144531 150 0 1 0
663.34783935546875 238 0 1 0 0
663.34783935546875 193 0 1 0 0
663.34783935546875 193 150 1 0 0
663.34783935546875 238 150 1 0 0
653.34783935546875 238 0 -1 -0 0
653.34783935546875 193 0 -1 -0 0
653.34783935546875 193 150 -1 -0 0
653.34783935546875 238 150 -1 -0 0
310.862060546875 218 0 1 0 0
310.862060546875 195 0 1 0 0
310.862060546875 195 150 1 0 0
310.862060546875 218 150 1 0 0
300.862060546875 218 0 -1 -0 0
300.862060546875 195 0 -1 -0 0
300.862060546875 195 150 -1 -0 0
300.862060546875 218 150 -1 -0 0
310.48980712890625 158 0 1 0 0
310.48980712890625 133 0 1 0 0
310.48980712890625 133 150 1 0 0
310.48980712890625 158 150 1 0 0
300.48980712890625 158 0 -1 -0 0
300.48980712890625 133 0 -1 -0 0
300.48980712890625 133 150 -1 -0 0
300.48980712890625 158 150 -1 -0 0
501 25.4805202484130859 0 -0 -1 0
461 25.4805202484130859 0 -0 -1 0
461 25.4805202484130859 150 -0 -1 0
501 25.4805202484130859 150 -0 -1 0
501 35.4805183410644531 0 0 1 0
461 35.4805183410644531 0 0 1 0
461 35.4805183410644531 150 0 1 0
501 35.4805183410644531 150 0 1 0
431.013702392578125 158 0 1 0 0
431.013702392578125 132 0 1 0 0
431.013702392578125 132 150 1 0 0
431.013702392578125 158 150 1 0 0
421.013702392578125 158 0 -1 -0 0
421.013702392578125 132 0 -1 -0 0
421.013702392578125 132 150 -1 -0 0
421.013702392578125 158 150 -1 -0 0
619 185.79730224609375 0 -0 -1 0
598 185.79730224609375 0 -0 -1 0
598 185.79730224609375 150 -0 -1 0
619 185.79730224609375 150 -0 -1 0
619 195.79730224609375 0 0 1 0
598 195.79730224609375 0 0 1 0
598 195.79730224609375 150 0 1 0
619 195.79730224609375 150 0 1 0
663.48980712890625 284 0 1 0 0
663.48980712890625 259 0 1 0 0
663.48980712890625 259 150 1 0 0
663.48980712890625 284 150 1 0 0
653.48980712890625 284 0 -1 -0 0
653.48980712890625 259 0 -1 -0 0
653.48980712890625 259 150 -1 -0 0
653.48980712890625 284 150 -1 -0 0
663.45947265625 83 0 1 0 0
663.45947265625 63 0 1 0 0
663.45947265625 63 150 1 0 0
663.45947265625 83 150 1 0 0
653.45947265625 83 0 -1 -0 0
653.45947265625 63 0 -1 -0 0
653.45947265625 63 150 -1 -0 0
653.45947265625 83 150 -1 -0 0
349 213 0 -0 -1 0
328 213 0 -0 -1 0
328 213 150 -0 -1 0
349 213 150 -0 -1 0
349 223 0 0 1 0
338 223 0 0 1 0
338 223 150 0 1 0
349 223 150 0 1 0
328 213 0 -1 0 0
328 233 0 -1 0 0
328 233 150 -1 0 0
328 213 150 -1 0 0
338 223 0 1 -0 0
338 233 0 1 -0 0
338 233 150 1 -0 0
338 223 150 1 -0 0
345 128.5 0 -0 -1 0
330 128.5 0 -0 -1 0
330 128.5 150 -0 -1 0
345 128.5 150 -0 -1 0
345 138.5 0 0 1 0
330 138.5 0 0 1 0
330 138.5 150 0 1 0
345 138.5 150 0 1 0
323.483856201171875 502 0 1 0 0
323.483856201171875 486 0 1 0 0
323.483856201171875 486 150 1 0 0
323.483856201171875 502 150 1 0 0
313.483856201171875 502 0 -1 -0 0
313.483856201171875 486 0 -1 -0 0
313.483856201171875 486 150 -1 -0 0
313.483856201171875 502 150 -1 -0 0
170 364 0 1 0 0
170 346 0 1 0 0
170 346 150 1 0 0
170 364 150 1 0 0
160 364 0 -1 -0 0
160 346 0 -1 -0 0
160 346 150 -1 -0 0
160 364 150 -1 -0 0
331 265 0 -0 -1 0
318 265 0 -0 -1 0
318 265 150 -0 -1 0
331 265 150 -0 -1 0
331 275 0 0 1 0
318 275 0 0 1 0
318 275 150 0 1 0
331 275 150 0 1 0
345.521728515625 217 0 1 0 0
345.521728515625 205 0 1 0 0
345.521728515625 205 150 1 0 0
345.521728515625 217 150 1 0 0
335.521728515625 217 0 -1 -0 0
335.521728515625 205 0 -1 -0 0
335.521728515625 205 150 -1 -0 0
335.521728515625 217 150 -1 -0 0
170 450 0 1 0 0
170 438 0 1 0 0
170 438 150 1 0 0
170 450 150 1 0 0
160 450 0 -1 -0 0
160 438 0 -1 -0 0
160 438 150 -1 -0 0
160 450 150 -1 -0 0
300.521728515625 539 0 1 0 0
300.521728515625 527 0 1 0 0
300.521728515625 527 150 1 0 0
300.521728515625 539 150 1 0 0
290.521728515625 539 0 -1 -0 0
290.521728515625 527 0 -1 -0 0
290.521728515625 527 150 -1 -0 0
290.521728515625 539 150 -1 -0 0
663 40 0 1 0 0
663 25 0 1 0 0
663 25 150 1 0 0
663 40 150 1 0 0
653 40 0 -1 -0 0
653 35 0 -1 -0 0
653 35 150 -1 -0 0
653 40 150 -1 -0 0
663 25 0 -0 -1 0
647 25 0 -0 -1 0
647 25 150 -0 -1 0
663 25 150 -0 -1 0
653 35 0 0 1 0
647 35 0 0 1 0
647 35 150 0 1 0
653 35 150 0 1 0
431 205 0 1 0 0
431 195 0 1 0 0
431 195 150 1 0 0
431 205 150 1 0 0
421 205 0 -1 -0 0
421 195 0 -1 -0 0
421 195 150 -1 -0 0
421 205 150 -1 -0 0
354 73 0 1 0 0
354 24.9177742004394531 0 1 0 0
354 24.9177742004394531 150 1 0 0
354 73 150 1 0 0
344 73 0 -1 -0 0
344 35.0822257995605469 0 -1 -0 0
344 35.0822257995605469 150 -1 -0 0
344 73 150 -1 -0 0
354 24.9177742004394531 0 -0.016309887170791626 -0.999866962432861328 0
318.91845703125 25.4900264739990234 0 -0.016309887170791626 -0.999866962432861328 0
318.91845703125 25.4900264739990234 150 -0.016309887170791626 -0.999866962432861328 0
354 24.9177742004394531 150 -0.016309887170791626 -0.999866962432861328 0
344 35.0822257995605469 0 0.016309887170791626 0.999866962432861328 0
319.08154296875 35.4886970520019531 0 0.016309887170791626 0.999866962432861328 0
319.08154296875 35.4886970520019531 150 0.016309887170791626 0.999866962432861328 0
344 35.0822257995605469 150 0.016309887170791626 0.999866962432861328 0
520 256 0 -0 1 0
544.9434814453125 256 0 -0 1 0
544.9434814453125 256 150 -0 1 0
520 256 150 -0 1 0
520 246 0 0 -1 0
535.0565185546875 246 0 0 -1 0
535.0565185546875 246 150 0 -1 0
520 246 150 0 -1 0
544.9434814453125 256 0 0.999935448169708252 0.011362902820110321 0
545.49969482421875 207.056808471679688 0 0.999935448169708252 0.011362902820110321 0
545.49969482421875 207.056808471679688 150 0.999935448169708252 0.011362902820110321 0
544.9434814453125 256 150 0.999935448169708252 0.011362902820110321 0
535.0565185546875 246 0 -0.999935448169708252 -0.011362902820110321 0
535.50030517578125 206.943191528320312 0 -0.999935448169708252 -0.011362902820110321 0
535.50030517578125 206.943191528320312 150 -0.999935448169708252 -0.011362902820110321 0
535.0565185546875 246 150 -0.999935448169708252 -0.011362902820110321 0
640.13885498046875 327.498077392578125 0 0.0277670677751302719 0.999614417552947998 0
662.86676025390625 326.866729736328125 0 0.0277670677751302719 0.999614417552947998 0
662.86676025390625 326.866729736328125 150 0.0277670677751302719 0.999614417552947998 0
640.13885498046875 327.498077392578125 150 0.0277670677751302719 0.999614417552947998 0
639.86114501953125 317.501922607421875 0 -0.0277670677751302719 -0.999614417552947998 0
653.13323974609375 317.133270263671875 0 -0.0277670677751302719 -0.999614417552947998 0
653.13323974609375 317.133270263671875 150 -0.0277670677751302719 -0.999614417552947998 0
639.86114501953125 317.501922607421875 150 -0.0277670677751302719 -0.999614417552947998 0
662.86676025390625 326.866729736328125 0 0.999614417552947998 0.0277670677751302719 0
663.498046875 304.138824462890625 0 0.999614417552947998 0.0277670677751302719 0
663.498046875 304.138824462890625 150 0.999614417552947998 0.0277670677751302719 0
662.86676025390625 326.866729736328125 150 0.999614417552947998 0.0277670677751302719 0
653.13323974609375 317.133270263671875 0 -0.999614417552947998 -0.0277670677751302719 0
653.501953125 303.861175537109375 0 -0.999614417552947998 -0.0277670677751302719 0
653.501953125 303.861175537109375 150 -0.999614417552947998 -0.0277670677751302719 0
653.13323974609375 317.133270263671875 150 -0.999614417552947998 -0.0277670677751302719 0
570 317 0 -0 -1 0
556.136474609375 317 0 -0 -1 0
556.136474609375 317 150 -0 -1 0
570 317 150 -0 -1 0
570 327 0 0 1 0
545.863525390625 327 0 0 1 0
545.863525390625 327 150 0 1 0
570 327 150 0 1 0
556.136474609375 317 0 0.999637424945831299 0.0269262604415416718 0
556.4830322265625 304.1346435546875 0 0.999637424945831299 0.0269262604415416718 0
556.4830322265625 304.1346435546875 150 0.999637424945831299 0.0269262604415416718 0
556.136474609375 317 150 0.999637424945831299 0.0269262604415416718 0
545.863525390625 327 0 -0.999637424945831299 -0.0269262604415416718 0
546.48663330078125 303.8653564453125 0 -0.999637424945831299 -0.0269262604415416718 0
546.48663330078125 303.8653564453125 150 -0.999637424945831299 -0.0269262604415416718 0
545.863525390625 327 150 -0.999637424945831299 -0.0269262604415416718 0
625 25.4874992370605469 0 610.756103515625 24.8658542633056641 0
625 35.4874992370605469 0 610.756103515625 24.8658542633056641 0
625 35.4874992370605469 150 610.756103515625 24.8658542633056641 0
625 25.4874992370605469 150 610.756103515625 24.8658542633056641 0
584 25.4874992370605469 0 568.756103515625 24.8658542633056641 0
584 35.4874992370605469 0 568.756103515625 24.8658542633056641 0
584 35.4874992370605469 150 568.756103515625 24.8658542633056641 0
584 25.4874992370605469 150 568.756103515625 24.8658542633056641 0
663.29412841796875 173 0 653.24420166015625 171.3787841796875 0
653.29412841796875 173 0 653.24420166015625 171.3787841796875 0
653.29412841796875 173 150 653.24420166015625 171.3787841796875 0
663.29412841796875 173 150 653.24420166015625 171.3787841796875 0
663.29412841796875 107 0 653.24420166015625 104.3787841796875 0
653.29412841796875 107 0 653.24420166015625 104.3787841796875 0
653.29412841796875 107 150 653.24420166015625 104.3787841796875 0
663.29412841796875 107 150 653.24420166015625 104.3787841796875 0
563 25.4857139587402344 0 548.361083984375 24.7777786254882812 0
563 35.4857139587402344 0 548.361083984375 24.7777786254882812 0
563 35.4857139587402344 150 548.361083984375 24.7777786254882812 0
563 25.4857139587402344 150 548.361083984375 24.7777786254882812 0
527 25.4857139587402344 0 511.361114501953125 24.7777786254882812 0
527 35.4857139587402344 0 511.361114501953125 24.7777786254882812 0
527 35.4857139587402344 150 511.361114501953125 24.7777786254882812 0
527 25.4857139587402344 150 511.361114501953125 24.7777786254882812 0
553.03619384765625 282 0 545.562744140625 279.189178466796875 0
543.03619384765625 282 0 545.562744140625 279.189178466796875 0
543.03619384765625 282 150 545.562744140625 279.189178466796875 0
553.03619384765625 282 150 545.562744140625 279.189178466796875 0
553.03619384765625 208 0 545.562744140625 204.189193725585938 0
543.03619384765625 208 0 545.562744140625 204.189193725585938 0
543.03619384765625 208 150 545.562744140625 204.189193725585938 0
553.03619384765625 208 150 545.562744140625 204.189193725585938 0
321 430 0 316.4788818359375 424.94366455078125 0
311 430 0 316.4788818359375 424.94366455078125 0
311 430 150 316.4788818359375 424.94366455078125 0
321 430 150 316.4788818359375 424.94366455078125 0
252 132 0 248.5 131.166671752929688 0
242 132 0 248.5 131.166671752929688 0
242 132 150 248.5 131.166671752929688 0
252 132 150 248.5 131.166671752929688 0
252 60 0 248.5 58.1666679382324219 0
242 60 0 248.5 58.1666679382324219 0
242 60 150 248.5 58.1666679382324219 0
252 60 150 248.5 58.1666679382324219 0
439 213.810348510742188 0 430.659576416015625 209.261184692382812 0
439 223.810348510742188 0 430.659576416015625 209.261184692382812 0
439 223.810348510742188 150 430.659576416015625 209.261184692382812 0
439 213.810348510742188 150 430.659576416015625 209.261184692382812 0
392 213.810348510742188 0 382.659576416015625 209.261184692382812 0
392 223.810348510742188 0 382.659576416015625 209.261184692382812 0
392 223.810348510742188 150 382.659576416015625 209.261184692382812 0
392 213.810348510742188 150 382.659576416015625 209.261184692382812 0
366 71 0 357.07318115234375 70.2682952880859375 0
356 71 0 357.07318115234375 70.2682952880859375 0
356 71 150 357.07318115234375 70.2682952880859375 0
366 71 150 357.07318115234375 70.2682952880859375 0
366 30 0 357.07318115234375 28.2682933807373047 0
356 30 0 357.07318115234375 28.2682933807373047 0
356 30 150 357.07318115234375 28.2682933807373047 0
366 30 150 357.07318115234375 28.2682933807373047 0
338 342 0 318.117645263671875 320.882354736328125 0
328 342 0 318.117645263671875 320.882354736328125 0
328 342 150 318.117645263671875 320.882354736328125 0
338 342 150 318.117645263671875 320.882354736328125 0
618 317.5 0 595.23077392578125 305.2884521484375 0
618 327.5 0 595.23077392578125 305.2884521484375 0
618 327.5 150 595.23077392578125 305.2884521484375 0
618 317.5 150 595.23077392578125 305.2884521484375 0
592 317.5 0 568.23077392578125 305.2884521484375 0
592 327.5 0 568.23077392578125 305.2884521484375 0
592 327.5 150 568.23077392578125 305.2884521484375 0
592 317.5 150 568.23077392578125 305.2884521484375 0
230 286 0 223.8125 277.0625 0
230 296 0 223.8125 277.0625 0
230 296 150 223.8125 277.0625 0
230 286 150 223.8125 277.0625 0
198 286 0 190.8125 277.0625 0
198 296 0 190.8125 277.0625 0
198 296 150 190.8125 277.0625 0
198 286 150 190.8125 277.0625 0
337.666656494140625 284 0 326.411102294921875 275.5333251953125 0
327.666656494140625 284 0 326.411102294921875 275.5333251953125 0
327.666656494140625 284 150 326.411102294921875 275.5333251953125 0
337.666656494140625 284 150 326.411102294921875 275.5333251953125 0
337.666656494140625 254 0 326.411102294921875 244.533340454101562 0
327.666656494140625 254 0 326.411102294921875 244.533340454101562 0
327.666656494140625 254 150 326.411102294921875 244.533340454101562 0
337.666656494140625 254 150 326.411102294921875 244.533340454101562 0
231 502 0 226.947372436523438 494.1929931640625 0
221 502 0 226.947372436523438 494.1929931640625 0
221 502 150 226.947372436523438 494.1929931640625 0
231 502 150 226.947372436523438 494.1929931640625 0
311.1630859375 539 0 288.937164306640625 501.5 0
301.1630859375 539 0 288.937164306640625 501.5 0
301.1630859375 539 150 288.937164306640625 501.5 0
311.1630859375 539 150 288.937164306640625 501.5 0
311.1630859375 525 0 288.937164306640625 486.5 0
301.1630859375 525 0 288.937164306640625 486.5 0
301.1630859375 525 150 288.937164306640625 486.5 0
311.1630859375 525 150 288.937164306640625 486.5 0
436 27.3154754638671875 0 426.100006103515625 26.6325893402099609 0
436 37.3154754638671875 0 426.100006103515625 26.6325893402099609 0
436 37.3154754638671875 150 426.100006103515625 26.6325893402099609 0
436 27.3154754638671875 150 426.100006103515625 26.6325893402099609 0
396 27.3154754638671875 0 385.100006103515625 26.6325893402099609 0
396 37.3154754638671875 0 385.100006103515625 26.6325893402099609 0
396 37.3154754638671875 150 385.100006103515625 26.6325893402099609 0
396 27.3154754638671875 150 385.100006103515625 26.6325893402099609 0
192 445 0 186.076919555664062 433.589752197265625 0
192 455 0 186.076919555664062 433.589752197265625 0
192 455 150 186.076919555664062 433.589752197265625 0
192 445 150 186.076919555664062 433.589752197265625 0
312.03125 360 0 288.028839111328125 333.30767822265625 0
302.03125 360 0 288.028839111328125 333.30767822265625 0
302.03125 360 150 288.028839111328125 333.30767822265625 0
312.03125 360 150 288.028839111328125 333.30767822265625 0
312.03125 347 0 288.028839111328125 319.30767822265625 0
302.03125 347 0 288.028839111328125 319.30767822265625 0
302.03125 347 150 288.028839111328125 319.30767822265625 0
312.03125 347 150 288.028839111328125 319.30767822265625 0
272 25.4897956848144531 0 262.1199951171875 24.4702033996582031 0
272 35.4897956848144531 0 262.1199951171875 24.4702033996582031 0
272 35.4897956848144531 150 262.1199951171875 24.4702033996582031 0
272 25.4897956848144531 150 262.1199951171875 24.4702033996582031 0
247 25.4897956848144531 0 236.1199951171875 24.4702033996582031 0
247 35.4897956848144531 0 236.1199951171875 24.4702033996582031 0
247 35.4897956848144531 150 236.1199951171875 24.4702033996582031 0
247 25.4897956848144531 150 236.1199951171875 24.4702033996582031 0
663.34783935546875 238 0 648.60675048828125 233.711105346679688 0
653.34783935546875 238 0 648.60675048828125 233.711105346679688 0
653.34783935546875 238 150 648.60675048828125 233.711105346679688 0
663.34783935546875 238 150 648.60675048828125 233.711105346679688 0
663.34783935546875 193 0 648.60675048828125 187.711105346679688 0
653.34783935546875 193 0 648.60675048828125 187.711105346679688 0
653.34783935546875 193 150 648.60675048828125 187.711105346679688 0
663.34783935546875 193 150 648.60675048828125 187.711105346679688 0
310.862060546875 218 0 297.3463134765625 209.521743774414062 0
300.862060546875 218 0 297.3463134765625 209.521743774414062 0
300.862060546875 218 150 297.3463134765625 209.521743774414062 0
310.862060546875 218 150 297.3463134765625 209.521743774414062 0
310.862060546875 195 0 297.3463134765625 185.521743774414062 0
300.862060546875 195 0 297.3463134765625 185.521743774414062 0
300.862060546875 195 150 297.3463134765625 185.521743774414062 0
310.862060546875 195 150 297.3463134765625 185.521743774414062 0
310.48980712890625 158 0 298.0701904296875 152.67999267578125 0
300.48980712890625 158 0 298.0701904296875 152.67999267578125 0
300.48980712890625 158 150 298.0701904296875 152.67999267578125 0
310.48980712890625 158 150 298.0701904296875 152.67999267578125 0
310.48980712890625 133 0 298.0701904296875 126.680000305175781 0
300.48980712890625 133 0 298.0701904296875 126.680000305175781 0
300.48980712890625 133 150 298.0701904296875 126.680000305175781 0
310.48980712890625 133 150 298.0701904296875 126.680000305175781 0
501 25.4805202484130859 0 489.475006103515625 24.843505859375 0
501 35.4805183410644531 0 489.475006103515625 24.843505859375 0
501 35.4805183410644531 150 489.475006103515625 24.843505859375 0
501 25.4805202484130859 150 489.475006103515625 24.843505859375 0
461 25.4805202484130859 0 448.475006103515625 24.843505859375 0
461 35.4805183410644531 0 448.475006103515625 24.843505859375 0
461 35.4805183410644531 150 448.475006103515625 24.843505859375 0
461 25.4805202484130859 150 448.475006103515625 24.843505859375 0
431.013702392578125 158 0 414.436248779296875 152.923080444335938 0
421.013702392578125 158 0 414.436248779296875 152.923080444335938 0
421.013702392578125 158 150 414.436248779296875 152.923080444335938 0
431.013702392578125 158 150 414.436248779296875 152.923080444335938 0
431.013702392578125 132 0 414.436248779296875 125.923080444335938 0
421.013702392578125 132 0 414.436248779296875 125.923080444335938 0
421.013702392578125 132 150 414.436248779296875 125.923080444335938 0
431.013702392578125 132 150 414.436248779296875 125.923080444335938 0
619 185.79730224609375 0 590.5238037109375 176.949813842773438 0
619 195.79730224609375 0 590.5238037109375 176.949813842773438 0
619 195.79730224609375 150 590.5238037109375 176.949813842773438 0
619 185.79730224609375 150 590.5238037109375 176.949813842773438 0
598 185.79730224609375 0 568.5238037109375 176.949813842773438 0
598 195.79730224609375 0 568.5238037109375 176.949813842773438 0
598 195.79730224609375 150 568.5238037109375 176.949813842773438 0
598 185.79730224609375 150 568.5238037109375 176.949813842773438 0
663.48980712890625 284 0 636.9501953125 273.6400146484375 0
653.48980712890625 284 0 636.9501953125 273.6400146484375 0
653.48980712890625 284 150 636.9501953125 273.6400146484375 0
663.48980712890625 284 150 636.9501953125 273.6400146484375 0
663.48980712890625 259 0 636.9501953125 247.639999389648438 0
653.48980712890625 259 0 636.9501953125 247.639999389648438 0
653.48980712890625 259 150 636.9501953125 247.639999389648438 0
663.48980712890625 259 150 636.9501953125 247.639999389648438 0
663.45947265625 83 0 630.2864990234375 79.8499984741210938 0
653.45947265625 83 0 630.2864990234375 79.8499984741210938 0
653.45947265625 83 150 630.2864990234375 79.8499984741210938 0
663.45947265625 83 150 630.2864990234375 79.8499984741210938 0
663.45947265625 63 0 630.2864990234375 58.8499984741210938 0
653.45947265625 63 0 630.2864990234375 58.8499984741210938 0
653.45947265625 63 150 630.2864990234375 58.8499984741210938 0
663.45947265625 63 150 630.2864990234375 58.8499984741210938 0
349 213 0 333.380950927734375 202.857147216796875 0
349 223 0 333.380950927734375 202.857147216796875 0
349 223 150 333.380950927734375 202.857147216796875 0
349 213 150 333.380950927734375 202.857147216796875 0
345 128.5 0 323 119.933334350585938 0
345 138.5 0 323 119.933334350585938 0
345 138.5 150 323 119.933334350585938 0
345 128.5 150 323 119.933334350585938 0
330 128.5 0 307 119.933334350585938 0
330 138.5 0 307 119.933334350585938 0
330 138.5 150 307 119.933334350585938 0
330 128.5 150 307 119.933334350585938 0
323.483856201171875 502 0 303.266143798828125 471.625 0
313.483856201171875 502 0 303.266143798828125 471.625 0
313.483856201171875 502 150 303.266143798828125 471.625 0
323.483856201171875 502 150 303.266143798828125 471.625 0
323.483856201171875 486 0 303.266143798828125 454.625 0
313.483856201171875 486 0 303.266143798828125 454.625 0
313.483856201171875 486 150 303.266143798828125 454.625 0
323.483856201171875 486 150 303.266143798828125 454.625 0
494 256 0 475.239990234375 245.759994506835938 0
494 246 0 475.239990234375 245.759994506835938 0
494 246 150 475.239990234375 245.759994506835938 0
494 256 150 475.239990234375 245.759994506835938 0
170 364 0 160.555557250976562 344.77777099609375 0
160 364 0 160.555557250976562 344.77777099609375 0
160 364 150 160.555557250976562 344.77777099609375 0
170 364 150 160.555557250976562 344.77777099609375 0
170 346 0 160.555557250976562 325.77777099609375 0
160 346 0 160.555557250976562 325.77777099609375 0
160 346 150 160.555557250976562 325.77777099609375 0
170 346 150 160.555557250976562 325.77777099609375 0
331 265 0 306.5384521484375 244.615386962890625 0
331 275 0 306.5384521484375 244.615386962890625 0
331 275 150 306.5384521484375 244.615386962890625 0
331 265 150 306.5384521484375 244.615386962890625 0
318 265 0 292.5384521484375 244.615386962890625 0
318 275 0 292.5384521484375 244.615386962890625 0
318 275 150 292.5384521484375 244.615386962890625 0
318 265 150 292.5384521484375 244.615386962890625 0
345.521728515625 217 0 316.728271484375 199.916671752929688 0
335.521728515625 217 0 316.728271484375 199.916671752929688 0
335.521728515625 217 150 316.728271484375 199.916671752929688 0
345.521728515625 217 150 316.728271484375 199.916671752929688 0
345.521728515625 205 0 316.728271484375 186.916671752929688 0
335.521728515625 205 0 316.728271484375 186.916671752929688 0
335.521728515625 205 150 316.728271484375 186.916671752929688 0
345.521728515625 205 150 316.728271484375 186.916671752929688 0
328 233 0 311.600006103515625 222.350006103515625 0
338 233 0 311.600006103515625 222.350006103515625 0
338 233 150 311.600006103515625 222.350006103515625 0
328 233 150 311.600006103515625 222.350006103515625 0
170 450 0 155.833328247070312 413.5 0
160 450 0 155.833328247070312 413.5 0
160 450 150 155.833328247070312 413.5 0
170 450 150 155.833328247070312 413.5 0
170 438 0 155.833328247070312 400.5 0
160 438 0 155.833328247070312 400.5 0
160 438 150 155.833328247070312 400.5 0
170 438 150 155.833328247070312 400.5 0
300.521728515625 539 0 275.478271484375 495.083343505859375 0
290.521728515625 539 0 275.478271484375 495.083343505859375 0
290.521728515625 539 150 275.478271484375 495.083343505859375 0
300.521728515625 539 150 275.478271484375 495.083343505859375 0
300.521728515625 527 0 275.478271484375 482.083343505859375 0
290.521728515625 527 0 275.478271484375 482.083343505859375 0
290.521728515625 527 150 275.478271484375 482.083343505859375 0
300.521728515625 527 150 275.478271484375 482.083343505859375 0
459 214 0 435.04998779296875 203.300003051757812 0
459 224 0 435.04998779296875 203.300003051757812 0
459 224 150 435.04998779296875 203.300003051757812 0
459 214 150 435.04998779296875 203.300003051757812 0
663 40 0 618.79998779296875 38.3333320617675781 0
653 40 0 618.79998779296875 38.3333320617675781 0
653 40 150 618.79998779296875 38.3333320617675781 0
663 40 150 618.79998779296875 38.3333320617675781 0
647 25 0 605.5625 23.4375 0
647 35 0 605.5625 23.4375 0
647 35 150 605.5625 23.4375 0
647 25 150 605.5625 23.4375 0
431 205 0 387.899993896484375 185.5 0
421 205 0 387.899993896484375 185.5 0
421 205 150 387.899993896484375 185.5 0
431 205 150 387.899993896484375 185.5 0
431 195 0 387.899993896484375 174.5 0
421 195 0 387.899993896484375 174.5 0
421 195 150 387.899993896484375 174.5 0
431 195 150 387.899993896484375 174.5 0
354 73 0 346.637603759765625 72.4817657470703125 0
344 73 0 346.637603759765625 72.4817657470703125 0
344 73 150 346.637603759765625 72.4817657470703125 0
354 73 150 346.637603759765625 72.4817657470703125 0
318.91845703125 25.4900264739990234 0 308.829010009765625 24.7798404693603516 0
319.08154296875 35.4886970520019531 0 308.829010009765625 24.7798404693603516 0
319.08154296875 35.4886970520019531 150 308.829010009765625 24.7798404693603516 0
318.91845703125 25.4900264739990234 150 308.829010009765625 24.7798404693603516 0
520 256 0 498.15289306640625 245.736801147460938 0
520 246 0 498.15289306640625 245.736801147460938 0
520 246 150 498.15289306640625 245.736801147460938 0
520 256 150 498.15289306640625 245.736801147460938 0
545.49969482421875 207.056808471679688 0 534.3662109375 201.82659912109375 0
535.50030517578125 206.943191528320312 0 534.3662109375 201.82659912109375 0
535.50030517578125 206.943191528320312 150 534.3662109375 201.82659912109375 0
545.49969482421875 207.056808471679688 150 534.3662109375 201.82659912109375 0
640.13885498046875 327.498077392578125 0 610.9847412109375 313.12188720703125 0
639.86114501953125 317.501922607421875 0 610.9847412109375 313.12188720703125 0
639.86114501953125 317.501922607421875 150 610.9847412109375 313.12188720703125 0
640.13885498046875 327.498077392578125 150 610.9847412109375 313.12188720703125 0
663.498046875 304.138824462890625 0 634.343994140625 289.76263427734375 0
653.501953125 303.861175537109375 0 634.343994140625 289.76263427734375 0
653.501953125 303.861175537109375 150 634.343994140625 289.76263427734375 0
663.498046875 304.138824462890625 150 634.343994140625 289.76263427734375 0
570 317 0 529.8848876953125 294.13421630859375 0
570 327 0 529.8848876953125 294.13421630859375 0
570 327 150 529.8848876953125 294.13421630859375 0
570 317 150 529.8848876953125 294.13421630859375 0
556.4830322265625 304.1346435546875 0 513.27130126953125 279.5037841796875 0
546.48663330078125 303.8653564453125 0 513.27130126953125 279.5037841796875 0
546.48663330078125 303.8653564453125 150 513.27130126953125 279.5037841796875 0
556.4830322265625 304.1346435546875 150 513.27130126953125 279.5037841796875 0
625 25.4874992370605469 0 0 0 -1
625 35.4874992370605469 0 0 0 -1
584 35.4874992370605469 0 0 0 -1
584 25.4874992370605469 0 0 0 -1
625 25.4874992370605469 150 0 0 1
625 35.4874992370605469 150 0 0 1
584 35.4874992370605469 150 0 0 1
584 25.4874992370605469 150 0 0 1
663.29412841796875 173 0 0 0 -1
653.29412841796875 173 0 0 0 -1
653.29412841796875 107 0 0 0 -1
663.29412841796875 107 0 0 0 -1
663.29412841796875 173 150 0 0 1
653.29412841796875 173 150 0 0 1
653.29412841796875 107 150 0 0 1
663.29412841796875 107 150 0 0 1
563 25.4857139587402344 0 0 0 -1
563 35.4857139587402344 0 0 0 -1
527 35.4857139587402344 0 0 0 -1
527 25.4857139587402344 0 0 0 -1
563 25.4857139587402344 150 0 0 1
563 35.4857139587402344 150 0 0 1
527 35.4857139587402344 150 0 0 1
527 25.4857139587402344 150 0 0 1
553.03619384765625 282 0 0 0 -1
543.03619384765625 282 0 0 0 -1
543.03619384765625 208 0 0 0 -1
553.03619384765625 208 0 0 0 -1
553.03619384765625 282 150 0 0 1
543.03619384765625 282 150 0 0 1
543.03619384765625 208 150 0 0 1
553.03619384765625 208 150 0 0 1
321 430 0 0 0 -1
311 430 0 0 0 -1
311 349 0 0 0 -1
321 359 0 0 0 -1
321 430 150 0 0 1
311 430 150 0 0 1
311 349 150 0 0 1
321 359 150 0 0 1
321 359 0 0 0 -1
311 349 0 0 0 -1
328 349 0 0 0 -1
338 359 0 0 0 -1
321 359 150 0 0 1
311 349 150 0 0 1
328 349 150 0 0 1
338 359 150 0 0 1
252 132 0 0 0 -1
242 132 0 0 0 -1
242 60 0 0 0 -1
252 60 0 0 0 -1
252 132 150 0 0 1
242 132 150 0 0 1
242 60 150 0 0 1
252 60 150 0 0 1
439 213.810348510742188 0 0 0 -1
439 223.810348510742188 0 0 0 -1
392 223.810348510742188 0 0 0 -1
392 213.810348510742188 0 0 0 -1
439 213.810348510742188 150 0 0 1
439 223.810348510742188 150 0 0 1
392 223.810348510742188 150 0 0 1
392 213.810348510742188 150 0 0 1
366 71 0 0 0 -1
356 71 0 0 0 -1
356 30 0 0 0 -1
366 30 0 0 0 -1
366 71 150 0 0 1
356 71 150 0 0 1
356 30 150 0 0 1
366 30 150 0 0 1
338 359 0 0 0 -1
328 349 0 0 0 -1
328 342 0 0 0 -1
338 342 0 0 0 -1
338 359 150 0 0 1
328 349 150 0 0 1
328 342 150 0 0 1
338 342 150 0 0 1
618 317.5 0 0 0 -1
618 327.5 0 0 0 -1
592 327.5 0 0 0 -1
592 317.5 0 0 0 -1
618 317.5 150 0 0 1
618 327.5 150 0 0 1
592 327.5 150 0 0 1
592 317.5 150 0 0 1
230 286 0 0 0 -1
230 296 0 0 0 -1
198 296 0 0 0 -1
198 286 0 0 0 -1
230 286 150 0 0 1
230 296 150 0 0 1
198 296 150 0 0 1
198 286 150 0 0 1
337.666656494140625 284 0 0 0 -1
327.666656494140625 284 0 0 0 -1
327.666656494140625 254 0 0 0 -1
337.666656494140625 254 0 0 0 -1
337.666656494140625 284 150 0 0 1
327.666656494140625 284 150 0 0 1
327.666656494140625 254 150 0 0 1
337.666656494140625 254 150 0 0 1
231 502 0 0 0 -1
221 502 0 0 0 -1
221 455 0 0 0 -1
231 445 0 0 0 -1
231 502 150 0 0 1
221 502 150 0 0 1
221 455 150 0 0 1
231 445 150 0 0 1
231 445 0 0 0 -1
221 455 0 0 0 -1
192 455 0 0 0 -1
192 445 0 0 0 -1
231 445 150 0 0 1
221 455 150 0 0 1
192 455 150 0 0 1
192 445 150 0 0 1
311.1630859375 539 0 0 0 -1
301.1630859375 539 0 0 0 -1
301.1630859375 525 0 0 0 -1
311.1630859375 525 0 0 0 -1
311.1630859375 539 150 0 0 1
301.1630859375 539 150 0 0 1
301.1630859375 525 150 0 0 1
311.1630859375 525 150 0 0 1
479 246 0 0 0 -1
469 256 0 0 0 -1
469 224 0 0 0 -1
479 214 0 0 0 -1
479 246 150 0 0 1
469 256 150 0 0 1
469 224 150 0 0 1
479 214 150 0 0 1
469 256 0 0 0 -1
479 246 0 0 0 -1
494 246 0 0 0 -1
494 256 0 0 0 -1
469 256 150 0 0 1
479 246 150 0 0 1
494 246 150 0 0 1
494 256 150 0 0 1
479 214 0 0 0 -1
469 224 0 0 0 -1
459 224 0 0 0 -1
459 214 0 0 0 -1
479 214 150 0 0 1
469 224 150 0 0 1
459 224 150 0 0 1
459 214 150 0 0 1
436 27.3154754638671875 0 0 0 -1
436 37.3154754638671875 0 0 0 -1
396 37.3154754638671875 0 0 0 -1
396 27.3154754638671875 0 0 0 -1
436 27.3154754638671875 150 0 0 1
436 37.3154754638671875 150 0 0 1
396 37.3154754638671875 150 0 0 1
396 27.3154754638671875 150 0 0 1
312.03125 360 0 0 0 -1
302.03125 360 0 0 0 -1
302.03125 347 0 0 0 -1
312.03125 347 0 0 0 -1
312.03125 360 150 0 0 1
302.03125 360 150 0 0 1
302.03125 347 150 0 0 1
312.03125 347 150 0 0 1
272 25.4897956848144531 0 0 0 -1
272 35.4897956848144531 0 0 0 -1
247 35.4897956848144531 0 0 0 -1
247 25.4897956848144531 0 0 0 -1
272 25.4897956848144531 150 0 0 1
272 35.4897956848144531 150 0 0 1
247 35.4897956848144531 150 0 0 1
247 25.4897956848144531 150 0 0 1
663.34783935546875 238 0 0 0 -1
653.34783935546875 238 0 0 0 -1
653.34783935546875 193 0 0 0 -1
663.34783935546875 193 0 0 0 -1
663.34783935546875 238 150 0 0 1
653.34783935546875 238 150 0 0 1
653.34783935546875 193 150 0 0 1
663.34783935546875 193 150 0 0 1
310.862060546875 218 0 0 0 -1
300.862060546875 218 0 0 0 -1
300.862060546875 195 0 0 0 -1
310.862060546875 195 0 0 0 -1
310.862060546875 218 150 0 0 1
300.862060546875 218 150 0 0 1
300.862060546875 195 150 0 0 1
310.862060546875 195 150 0 0 1
310.48980712890625 158 0 0 0 -1
300.48980712890625 158 0 0 0 -1
300.48980712890625 133 0 0 0 -1
310.48980712890625 133 0 0 0 -1
310.48980712890625 158 150 0 0 1
300.48980712890625 158 150 0 0 1
300.48980712890625 133 150 0 0 1
310.48980712890625 133 150 0 0 1
501 25.4805202484130859 0 0 0 -1
501 35.4805183410644531 0 0 0 -1
461 35.4805183410644531 0 0 0 -1
461 25.4805202484130859 0 0 0 -1
501 25.4805202484130859 150 0 0 1
501 35.4805183410644531 150 0 0 1
461 35.4805183410644531 150 0 0 1
461 25.4805202484130859 150 0 0 1
431.013702392578125 158 0 0 0 -1
421.013702392578125 158 0 0 0 -1
421.013702392578125 132 0 0 0 -1
431.013702392578125 132 0 0 0 -1
431.013702392578125 158 150 0 0 1
421.013702392578125 158 150 0 0 1
421.013702392578125 132 150 0 0 1
431.013702392578125 132 150 0 0 1
619 185.79730224609375 0 0 0 -1
619 195.79730224609375 0 0 0 -1
598 195.79730224609375 0 0 0 -1
598 185.79730224609375 0 0 0 -1
619 185.79730224609375 150 0 0 1
619 195.79730224609375 150 0 0 1
598 195.79730224609375 150 0 0 1
598 185.79730224609375 150 0 0 1
663.48980712890625 284 0 0 0 -1
653.48980712890625 284 0 0 0 -1
653.48980712890625 259 0 0 0 -1
663.48980712890625 259 0 0 0 -1
663.48980712890625 284 150 0 0 1
653.48980712890625 284 150 0 0 1
653.48980712890625 259 150 0 0 1
663.48980712890625 259 150 0 0 1
663.45947265625 83 0 0 0 -1
653.45947265625 83 0 0 0 -1
653.45947265625 63 0 0 0 -1
663.45947265625 63 0 0 0 -1
663.45947265625 83 150 0 0 1
653.45947265625 83 150 0 0 1
653.45947265625 63 150 0 0 1
663.45947265625 63 150 0 0 1
349 213 0 0 0 -1
349 223 0 0 0 -1
338 223 0 0 0 -1
328 213 0 0 0 -1
349 213 150 0 0 1
349 223 150 0 0 1
338 223 150 0 0 1
328 213 150 0 0 1
328 213 0 0 0 -1
338 223 0 0 0 -1
338 233 0 0 0 -1
328 233 0 0 0 -1
328 213 150 0 0 1
338 223 150 0 0 1
338 233 150 0 0 1
328 233 150 0 0 1
345 128.5 0 0 0 -1
345 138.5 0 0 0 -1
330 138.5 0 0 0 -1
330 128.5 0 0 0 -1
345 128.5 150 0 0 1
345 138.5 150 0 0 1
330 138.5 150 0 0 1
330 128.5 150 0 0 1
323.483856201171875 502 0 0 0 -1
313.483856201171875 502 0 0 0 -1
313.483856201171875 486 0 0 0 -1
323.483856201171875 486 0 0 0 -1
323.483856201171875 502 150 0 0 1
313.483856201171875 502 150 0 0 1
313.483856201171875 486 150 0 0 1
323.483856201171875 486 150 0 0 1
170 364 0 0 0 -1
160 364 0 0 0 -1
160 346 0 0 0 -1
170 346 0 0 0 -1
170 364 150 0 0 1
160 364 150 0 0 1
160 346 150 0 0 1
170 346 150 0 0 1
331 265 0 0 0 -1
331 275 0 0 0 -1
318 275 0 0 0 -1
318 265 0 0 0 -1
331 265 150 0 0 1
331 275 150 0 0 1
318 275 150 0 0 1
318 265 150 0 0 1
345.521728515625 217 0 0 0 -1
335.521728515625 217 0 0 0 -1
335.521728515625 205 0 0 0 -1
345.521728515625 205 0 0 0 -1
345.521728515625 217 150 0 0 1
335.521728515625 217 150 0 0 1
335.521728515625 205 150 0 0 1
345.521728515625 205 150 0 0 1
170 450 0 0 0 -1
160 450 0 0 0 -1
160 438 0 0 0 -1
170 438 0 0 0 -1
170 450 150 0 0 1
160 450 150 0 0 1
160 438 150 0 0 1
170 438 150 0 0 1
300.521728515625 539 0 0 0 -1
290.521728515625 539 0 0 0 -1
290.521728515625 527 0 0 0 -1
300.521728515625 527 0 0 0 -1
300.521728515625 539 150 0 0 1
290.521728515625 539 150 0 0 1
290.521728515625 527 150 0 0 1
300.521728515625 527 150 0 0 1
663 40 0 0 0 -1
653 40 0 0 0 -1
653 35 0 0 0 -1
663 25 0 0 0 -1
663 40 150 0 0 1
653 40 150 0 0 1
653 35 150 0 0 1
663 25 150 0 0 1
663 25 0 0 0 -1
653 35 0 0 0 -1
647 35 0 0 0 -1
647 25 0 0 0 -1
663 25 150 0 0 1
653 35 150 0 0 1
647 35 150 0 0 1
647 25 150 0 0 1
431 205 0 0 0 -1
421 205 0 0 0 -1
421 195 0 0 0 -1
431 195 0 0 0 -1
431 205 150 0 0 1
421 205 150 0 0 1
421 195 150 0 0 1
431 195 150 0 0 1
354 73 0 0 0 -1
344 73 0 0 0 -1
344 35.0822257995605469 0 0 0 -1
354 24.9177742004394531 0 0 0 -1
354 73 150 0 0 1
344 73 150 0 0 1
344 35.0822257995605469 150 0 0 1
354 24.9177742004394531 150 0 0 1
354 24.9177742004394531 0 0 0 -1
344 35.0822257995605469 0 0 0 -1
319.08154296875 35.4886970520019531 0 0 0 -1
318.91845703125 25.4900264739990234 0 0 0 -1
354 24.9177742004394531 150 0 0 1
344 35.0822257995605469 150 0 0 1
319.08154296875 35.4886970520019531 150 0 0 1
318.91845703125 25.4900264739990234 150 0 0 1
520 256 0 0 0 -1
520 246 0 0 0 -1
535.0565185546875 246 0 0 0 -1
544.9434814453125 256 0 0 0 -1
520 256 150 0 0 1
520 246 150 0 0 1
535.0565185546875 246 150 0 0 1
544.9434814453125 256 150 0 0 1
544.9434814453125 256 0 0 0 -1
535.0565185546875 246 0 0 0 -1
535.50030517578125 206.943191528320312 0 0 0 -1
545.49969482421875 207.056808471679688 0 0 0 -1
544.9434814453125 256 150 0 0 1
535.0565185546875 246 150 0 0 1
535.50030517578125 206.943191528320312 150 0 0 1
545.49969482421875 207.056808471679688 150 0 0 1
640.13885498046875 327.498077392578125 0 0 0 -1
639.86114501953125 317.501922607421875 0 0 0 -1
653.13323974609375 317.133270263671875 0 0 0 -1
662.86676025390625 326.866729736328125 0 0 0 -1
640.13885498046875 327.498077392578125 150 0 0 1
639.86114501953125 317.501922607421875 150 0 0 1
653.13323974609375 317.133270263671875 150 0 0 1
662.86676025390625 326.866729736328125 150 0 0 1
662.86676025390625 326.866729736328125 0 0 0 -1
653.13323974609375 317.133270263671875 0 0 0 -1
653.501953125 303.861175537109375 0 0 0 -1
663.498046875 304.138824462890625 0 0 0 -1
662.86676025390625 326.866729736328125 150 0 0 1
653.13323974609375 317.133270263671875 150 0 0 1
653.501953125 303.861175537109375 150 0 0 1
663.498046875 304.138824462890625 150 0 0 1
570 317 0 0 0 -1
570 327 0 0 0 -1
545.863525390625 327 0 0 0 -1
556.136474609375 317 0 0 0 -1
570 317 150 0 0 1
570 327 150 0 0 1
545.863525390625 327 150 0 0 1
556.136474609375 317 150 0 0 1
556.136474609375 317 0 0 0 -1
545.863525390625 327 0 0 0 -1
546.48663330078125 303.8653564453125 0 0 0 -1
556.4830322265625 304.1346435546875 0 0 0 -1
556.136474609375 317 150 0 0 1
545.863525390625 327 150 0 0 1
546.48663330078125 303.8653564453125 150 0 0 1
556.4830322265625 304.1346435546875 150 0 0 1
4 0 1 2 3
4 4 5 6 7
4 8 9 10 11
4 12 13 14 15
4 16 17 18 19
4 20 21 22 23
4 24 25 26 27
4 28 29 30 31
4 32 33 34 35
4 36 37 38 39
4 40 41 42 43
4 44 45 46 47
4 48 49 50 51
4 52 53 54 55
4 56 57 58 59
4 60 61 62 63
4 64 65 66 67
4 68 69 70 71
4 72 73 74 75
4 76 77 78 79
4 80 81 82 83
4 84 85 86 87
4 88 89 90 91
4 92 93 94 95
4 96 97 98 99
4 100 101 102 103
4 104 105 106 107
4 108 109 110 111
4 112 113 114 115
4 116 117 118 119
4 120 121 122 123
4 124 125 126 127
4 128 129 130 131
4 132 133 134 135
4 136 137 138 139
4 140 141 142 143
4 144 145 146 147
4 148 149 150 151
4 152 153 154 155
4 156 157 158 159
4 160 161 162 163
4 164 165 166 167
4 168 169 170 171
4 172 173 174 175
4 176 177 178 179
4 180 181 182 183
4 184 185 186 187
4 188 189 190 191
4 192 193 194 195
4 196 197 198 199
4 200 201 202 203
4 204 205 206 207
4 208 209 210 211
4 212 213 214 215
4 216 217 218 219
4 220 221 222 223
4 224 225 226 227
4 228 229 230 231
4 232 233 234 235
4 236 237 238 239
4 240 241 242 243
4 244 245 246 247
4 248 249 250 251
4 252 253 254 255
4 256 257 258 259
4 260 261 262 263
4 264 265 266 267
4 268 269 270 271
4 272 273 274 275
4 276 277 278 279
4 280 281 282 283
4 284 285 286 287
4 288 289 290 291
4 292 293 294 295
4 296 297 298 299
4 300 301 302 303
4 304 305 306 307
4 308 309 310 311
4 312 313 314 315
4 316 317 318 319
4 320 321 322 323
4 324 325 326 327
4 328 329 330 331
4 332 333 334 335
4 336 337 338 339
4 340 341 342 343
4 344 345 346 347
4 348 349 350 351
4 352 353 354 355
4 356 357 358 359
4 360 361 362 363
4 364 365 366 367
4 368 369 370 371
4 372 373 374 375
4 376 377 378 379
4 380 381 382 383
4 384 385 386 387
4 388 389 390 391
4 392 393 394 395
4 396 397 398 399
4 400 401 402 403
4 404 405 406 407
4 408 409 410 411
4 412 413 414 415
4 416 417 418 419
4 420 421 422 423
4 424 425 426 427
4 428 429 430 431
4 432 433 434 435
4 436 437 438 439
4 440 441 442 443
4 444 445 446 447
4 448 449 450 451
4 452 453 454 455
4 456 457 458 459
4 460 461 462 463
4 464 465 466 467
4 468 469 470 471
4 472 473 474 475
4 476 477 478 479
4 480 481 482 483
4 484 485 486 487
4 488 489 490 491
4 492 493 494 495
4 496 497 498 499
4 500 501 502 503
4 504 505 506 507
4 508 509 510 511
4 512 513 514 515
4 516 517 518 519
4 520 521 522 523
4 524 525 526 527
4 528 529 530 531
4 532 533 534 535
4 536 537 538 539
4 540 541 542 543
4 544 545 546 547
4 548 549 550 551
4 552 553 554 555
4 556 557 558 559
4 560 561 562 563
4 564 565 566 567
4 568 569 570 571
4 572 573 574 575
4 576 577 578 579
4 580 581 582 583
4 584 585 586 587
4 588 589 590 591
4 592 593 594 595
4 596 597 598 599
4 600 601 602 603
4 604 605 606 607
4 608 609 610 611
4 612 613 614 615
4 616 617 618 619
4 620 621 622 623
4 624 625 626 627
4 628 629 630 631
4 632 633 634 635
4 636 637 638 639
4 640 641 642 643
4 644 645 646 647
4 648 649 650 651
4 652 653 654 655
4 656 657 658 659
4 660 661 662 663
4 664 665 666 667
4 668 669 670 671
4 672 673 674 675
4 676 677 678 679
4 680 681 682 683
4 684 685 686 687
4 688 689 690 691
4 692 693 694 695
4 696 697 698 699
4 700 701 702 703
4 704 705 706 707
4 708 709 710 711
4 712 713 714 715
4 716 717 718 719
4 720 721 722 723
4 724 725 726 727
4 728 729 730 731
4 732 733 734 735
4 736 737 738 739
4 740 741 742 743
4 744 745 746 747
4 748 749 750 751
4 752 753 754 755
4 756 757 758 759
4 760 761 762 763
4 764 765 766 767
4 768 769 770 771
4 772 773 774 775
4 776 777 778 779
4 780 781 782 783
4 784 785 786 787
4 788 789 790 791
4 792 793 794 795
4 796 797 798 799
4 800 801 802 803
4 804 805 806 807
4 808 809 810 811
4 812 813 814 815
4 816 817 818 819
4 820 821 822 823
4 824 825 826 827
4 828 829 830 831
4 832 833 834 835
4 836 837 838 839
4 840 841 842 843
4 844 845 846 847
4 848 849 850 851
4 852 853 854 855
4 856 857 858 859
4 860 861 862 863
4 864 865 866 867
4 868 869 870 871
4 872 873 874 875
4 876 877 878 879
4 880 881 882 883
4 884 885 886 887
4 888 889 890 891
4 892 893 894 895
4 896 897 898 899
4 900 901 902 903
4 904 905 906 907
4 908 909 910 911
4 912 913 914 915
4 916 917 918 919
4 920 921 922 923
4 924 925 926 927
4 928 929 930 931
4 932 933 934 935
4 936 937 938 939
4 940 941 942 943
4 944 945 946 947
4 948 949 950 951
4 952 953 954 955
4 956 957 958 959
4 960 961 962 963
4 964 965 966 967
4 968 969 970 971
4 972 973 974 975
4 976 977 978 979
4 980 981 982 983
4 984 985 986 987
4 988 989 990 991
4 992 993 994 995
4 996 997 998 999
4 1000 1001 1002 1003
4 1004 1005 1006 1007
4 1008 1009 1010 1011
4 1012 1013 1014 1015
4 1016 1017 1018 1019
4 1020 1021 1022 1023
4 1024 1025 1026 1027
4 1028 1029 1030 1031
4 1032 1033 1034 1035
4 1036 1037 1038 1039
4 1040 1041 1042 1043
4 1044 1045 1046 1047
4 1048 1049 1050 1051
4 1052 1053 1054 1055
4 1056 1057 1058 1059
4 1060 1061 1062 1063
4 1064 1065 1066 1067
4 1068 1069 1070 1071
4 1072 1073 1074 1075
4 1076 1077 1078 1079
4 1080 1081 1082 1083
4 1084 1085 1086 1087
4 1088 1089 1090 1091
4 1092 1093 1094 1095
4 1096 1097 1098 1099
4 1100 1101 1102 1103
4 1104 1105 1106 1107
4 1108 1109 1110 1111
