ply
format ascii 1.0
element vertex 628
property float x
property float y
property float z
property float nx
property float ny
property float nz
element quads 157
property list uchar int vertex_indices
end_header
453 225.434463500976562 0 -0 -1 0
302 225.434463500976562 0 -0 -1 0
302 225.434463500976562 150 -0 -1 0
453 225.434463500976562 150 -0 -1 0
453 235.434463500976562 0 0 1 0
302 235.434463500976562 0 0 1 0
302 235.434463500976562 150 0 1 0
453 235.434463500976562 150 0 1 0
393 299.82806396484375 0 -0 -1 0
302 299.82806396484375 0 -0 -1 0
302 299.82806396484375 150 -0 -1 0
393 299.82806396484375 150 -0 -1 0
393 309.82806396484375 0 0 1 0
302 309.82806396484375 0 0 1 0
302 309.82806396484375 150 0 1 0
393 309.82806396484375 150 0 1 0
258 228.8494873046875 0 -0 -1 0
125 228.8494873046875 0 -0 -1 0
125 228.8494873046875 150 -0 -1 0
258 228.8494873046875 150 -0 -1 0
258 238.8494873046875 0 0 1 0
125 238.8494873046875 0 0 1 0
125 238.8494873046875 150 0 1 0
258 238.8494873046875 150 0 1 0
318 110.721351623535156 0 -0 -1 0
181 110.721351623535156 0 -0 -1 0
181 110.721351623535156 150 -0 -1 0
318 110.721351623535156 150 -0 -1 0
318 120.721351623535156 0 0 1 0
181 120.721351623535156 0 0 1 0
181 120.721351623535156 150 0 1 0
318 120.721351623535156 150 0 1 0
454 49.4964523315429688 0 -0 -1 0
368 49.4964523315429688 0 -0 -1 0
368 49.4964523315429688 150 -0 -1 0
454 49.4964523315429688 150 -0 -1 0
454 59.4964523315429688 0 0 1 0
368 59.4964523315429688 0 0 1 0
368 59.4964523315429688 150 0 1 0
454 59.4964523315429688 150 0 1 0
392 385.5 0 -0 -1 0
360 385.5 0 -0 -1 0
360 385.5 150 -0 -1 0
392 385.5 150 -0 -1 0
392 395.5 0 0 1 0
360 395.5 0 0 1 0
360 395.5 150 0 1 0
392 395.5 150 0 1 0
557 207 0 1 0 0
557 157 0 1 0 0
557 157 150 1 0 0
557 207 150 1 0 0
547 207 0 -1 -0 0
547 147 0 -1 -0 0
547 147 150 -1 -0 0
547 207 150 -1 -0 0
557 157 0 -0 1 0
614.9625244140625 157 0 -0 1 0
614.9625244140625 157 150 -0 1 0
557 157 150 -0 1 0
547 147 0 0 -1 0
605.0374755859375 147 0 0 -1 0
605.0374755859375 147 150 0 -1 0
547 147 150 0 -1 0
259.1849365234375 78 0 0.0738716870546340942 0.997267782688140869 0
610.369384765625 51.9863395690917969 0 0.0738716870546340942 0.997267782688140869 0
610.369384765625 51.9863395690917969 150 0.0738716870546340942 0.997267782688140869 0
259.1849365234375 78 150 0.0738716870546340942 0.997267782688140869 0
-11.184931755065918 88 0 -0.0738716870546340942 -0.997267782688140869 0
609.630615234375 42.0136604309082031 0 -0.0738716870546340942 -0.997267782688140869 0
609.630615234375 42.0136604309082031 150 -0.0738716870546340942 -0.997267782688140869 0
-11.184931755065918 88 150 -0.0738716870546340942 -0.997267782688140869 0
124 88 0 -0 1 0
623 88 0 -0 1 0
623 88 150 -0 1 0
124 88 150 -0 1 0
259.1849365234375 78 0 0 -1 0
623 78 0 0 -1 0
623 78 150 0 -1 0
259.1849365234375 78 150 0 -1 0
-11.184931755065918 88 0 -0 1 0
726 88 0 -0 1 0
726 88 150 -0 1 0
-11.184931755065918 88 150 -0 1 0
124 78 0 0 -1 0
736 78 0 0 -1 0
736 78 150 0 -1 0
124 78 150 0 -1 0
170 447.5 0 -0 -1 0
123 447.5 0 -0 -1 0
123 447.5 150 -0 -1 0
170 447.5 150 -0 -1 0
170 457.5 0 0 1 0
123 457.5 0 0 1 0
123 457.5 150 0 1 0
170 457.5 150 0 1 0
298 386.48748779296875 0 -0 -1 0
256 386.48748779296875 0 -0 -1 0
256 386.48748779296875 150 -0 -1 0
298 386.48748779296875 150 -0 -1 0
298 396.48748779296875 0 0 1 0
256 396.48748779296875 0 0 1 0
256 396.48748779296875 150 0 1 0
298 396.48748779296875 150 0 1 0
218 288.49664306640625 0 -0 -1 0
125 288.49664306640625 0 -0 -1 0
125 288.49664306640625 150 -0 -1 0
218 288.49664306640625 150 -0 -1 0
218 298.49664306640625 0 0 1 0
125 298.49664306640625 0 0 1 0
125 298.49664306640625 150 0 1 0
218 298.49664306640625 150 0 1 0
257 314.504852294921875 0 -0 -1 0
205 314.504852294921875 0 -0 -1 0
205 314.504852294921875 150 -0 -1 0
257 314.504852294921875 150 -0 -1 0
257 324.504852294921875 0 0 1 0
205 324.504852294921875 0 0 1 0
205 324.504852294921875 150 0 1 0
257 324.504852294921875 150 0 1 0
221 51 0 -0 -1 0
127 51 0 -0 -1 0
127 51 150 -0 -1 0
221 51 150 -0 -1 0
221 61 0 0 1 0
127 61 0 0 1 0
127 61 150 0 1 0
221 61 150 0 1 0
600 190.168319702148438 0 -0 -1 0
554 190.168319702148438 0 -0 -1 0
554 190.168319702148438 150 -0 -1 0
600 190.168319702148438 150 -0 -1 0
600 200.168319702148438 0 0 1 0
554 200.168319702148438 0 0 1 0
554 200.168319702148438 150 0 1 0
600 200.168319702148438 150 0 1 0
331 50.0775184631347656 0 -0 -1 0
242 50.0775184631347656 0 -0 -1 0
242 50.0775184631347656 150 -0 -1 0
331 50.0775184631347656 150 -0 -1 0
331 60.0775184631347656 0 0 1 0
242 60.0775184631347656 0 0 1 0
242 60.0775184631347656 150 0 1 0
331 60.0775184631347656 150 0 1 0
317 181 0 -0 -1 0
258 181 0 -0 -1 0
258 181 150 -0 -1 0
317 181 150 -0 -1 0
317 191 0 0 1 0
258 191 0 0 1 0
258 191 150 0 1 0
317 191 150 0 1 0
351 264 0 -0 -1 0
322 264 0 -0 -1 0
322 264 150 -0 -1 0
351 264 150 -0 -1 0
351 274 0 0 1 0
322 274 0 0 1 0
322 274 150 0 1 0
351 274 150 0 1 0
257 447 0 -0 -1 0
211 447 0 -0 -1 0
211 447 150 -0 -1 0
257 447 150 -0 -1 0
257 457 0 0 1 0
211 457 0 0 1 0
211 457 150 0 1 0
257 457 150 0 1 0
458 161 0 1 0 0
458 150 0 1 0 0
458 150 150 1 0 0
458 161 150 1 0 0
448 161 0 -1 -0 0
448 150 0 -1 -0 0
448 150 150 -1 -0 0
448 161 150 -1 -0 0
154 112.5 0 -0 -1 0
127 112.5 0 -0 -1 0
127 112.5 150 -0 -1 0
154 112.5 150 -0 -1 0
154 122.5 0 0 1 0
127 122.5 0 0 1 0
127 122.5 150 0 1 0
154 122.5 150 0 1 0
319 263.566680908203125 0 -0 -1 0
302 263.566680908203125 0 -0 -1 0
302 263.566680908203125 150 -0 -1 0
319 263.566680908203125 150 -0 -1 0
319 273.566680908203125 0 0 1 0
302 273.566680908203125 0 0 1 0
302 273.566680908203125 150 0 1 0
319 273.566680908203125 150 0 1 0
315 243 0 -0 -1 0
302 243 0 -0 -1 0
302 243 150 -0 -1 0
315 243 150 -0 -1 0
315 253 0 0 1 0
302 253 0 0 1 0
302 253 150 0 1 0
315 253 150 0 1 0
726 88 0 -1 0 0
726 187.090347290039062 0 -1 0 0
726 187.090347290039062 150 -1 0 0
726 88 150 -1 0 0
736 78 0 1 -0 0
736 196.909652709960938 0 1 -0 0
736 196.909652709960938 150 1 -0 0
736 78 150 1 -0 0
687.0911865234375 197.801498413085938 0 0.0182316415011882782 0.999833762645721436 0
736 196.909652709960938 0 0.0182316415011882782 0.999833762645721436 0
736 196.909652709960938 150 0.0182316415011882782 0.999833762645721436 0
687.0911865234375 197.801498413085938 150 0.0182316415011882782 0.999833762645721436 0
686.9088134765625 187.80316162109375 0 -0.0182316415011882782 -0.999833762645721436 0
726 187.090347290039062 0 -0.0182316415011882782 -0.999833762645721436 0
726 187.090347290039062 150 -0.0182316415011882782 -0.999833762645721436 0
686.9088134765625 187.80316162109375 150 -0.0182316415011882782 -0.999833762645721436 0
614.9625244140625 157 0 0.999971687793731689 0.00752487033605575562 0
615.17291259765625 129.037628173828125 0 0.999971687793731689 0.00752487033605575562 0
615.17291259765625 129.037628173828125 150 0.999971687793731689 0.00752487033605575562 0
614.9625244140625 157 150 0.999971687793731689 0.00752487033605575562 0
605.0374755859375 147 0 -0.999971687793731689 -0.00752487033605575562 0
605.1732177734375 128.962371826171875 0 -0.999971687793731689 -0.00752487033605575562 0
605.1732177734375 128.962371826171875 150 -0.999971687793731689 -0.00752487033605575562 0
605.0374755859375 147 150 -0.999971687793731689 -0.00752487033605575562 0
453 225.434463500976562 0 451 223.941513061523438 0
453 235.434463500976562 0 451 223.941513061523438 0
453 235.434463500976562 150 451 223.941513061523438 0
453 225.434463500976562 150 451 223.941513061523438 0
302 225.434463500976562 0 299 223.941513061523438 0
302 235.434463500976562 0 299 223.941513061523438 0
302 235.434463500976562 150 299 223.941513061523438 0
302 225.434463500976562 150 299 223.941513061523438 0
393 299.82806396484375 0 389.681304931640625 296.533233642578125 0
393 309.82806396484375 0 389.681304931640625 296.533233642578125 0
393 309.82806396484375 150 389.681304931640625 296.533233642578125 0
393 299.82806396484375 150 389.681304931640625 296.533233642578125 0
302 299.82806396484375 0 297.681304931640625 296.533233642578125 0
302 309.82806396484375 0 297.681304931640625 296.533233642578125 0
302 309.82806396484375 150 297.681304931640625 296.533233642578125 0
302 299.82806396484375 150 297.681304931640625 296.533233642578125 0
258 228.8494873046875 0 257.060150146484375 227.128814697265625 0
258 238.8494873046875 0 257.060150146484375 227.128814697265625 0
258 238.8494873046875 150 257.060150146484375 227.128814697265625 0
258 228.8494873046875 150 257.060150146484375 227.128814697265625 0
125 228.8494873046875 0 123.060150146484375 227.128814697265625 0
125 238.8494873046875 0 123.060150146484375 227.128814697265625 0
125 238.8494873046875 150 123.060150146484375 227.128814697265625 0
125 228.8494873046875 150 123.060150146484375 227.128814697265625 0
318 110.721351623535156 0 316.6788330078125 109.913169860839844 0
318 120.721351623535156 0 316.6788330078125 109.913169860839844 0
318 120.721351623535156 150 316.6788330078125 109.913169860839844 0
318 110.721351623535156 150 316.6788330078125 109.913169860839844 0
181 110.721351623535156 0 178.6788330078125 109.913169860839844 0
181 120.721351623535156 0 178.6788330078125 109.913169860839844 0
181 120.721351623535156 150 178.6788330078125 109.913169860839844 0
181 110.721351623535156 150 178.6788330078125 109.913169860839844 0
454 49.4964523315429688 0 449.720916748046875 48.9209136962890625 0
454 59.4964523315429688 0 449.720916748046875 48.9209136962890625 0
454 59.4964523315429688 150 449.720916748046875 48.9209136962890625 0
454 49.4964523315429688 150 449.720916748046875 48.9209136962890625 0
368 49.4964523315429688 0 362.720916748046875 48.9209136962890625 0
368 59.4964523315429688 0 362.720916748046875 48.9209136962890625 0
368 59.4964523315429688 150 362.720916748046875 48.9209136962890625 0
368 49.4964523315429688 150 362.720916748046875 48.9209136962890625 0
392 385.5 0 380.75 373.453125 0
392 395.5 0 380.75 373.453125 0
392 395.5 150 380.75 373.453125 0
392 385.5 150 380.75 373.453125 0
360 385.5 0 347.75 373.453125 0
360 395.5 0 347.75 373.453125 0
360 395.5 150 347.75 373.453125 0
360 385.5 150 347.75 373.453125 0
557 207 0 545.8599853515625 203.860000610351562 0
547 207 0 545.8599853515625 203.860000610351562 0
547 207 150 545.8599853515625 203.860000610351562 0
557 207 150 545.8599853515625 203.860000610351562 0
610.369384765625 51.9863395690917969 0 609.63336181640625 51.7648391723632812 0
609.630615234375 42.0136604309082031 0 609.63336181640625 51.7648391723632812 0
609.630615234375 42.0136604309082031 150 609.63336181640625 51.7648391723632812 0
610.369384765625 51.9863395690917969 150 609.63336181640625 51.7648391723632812 0
170 447.5 0 167.382980346679688 437.978729248046875 0
170 457.5 0 167.382980346679688 437.978729248046875 0
170 457.5 150 167.382980346679688 437.978729248046875 0
170 447.5 150 167.382980346679688 437.978729248046875 0
123 447.5 0 119.382980346679688 437.978729248046875 0
123 457.5 0 119.382980346679688 437.978729248046875 0
123 457.5 150 119.382980346679688 437.978729248046875 0
123 447.5 150 119.382980346679688 437.978729248046875 0
298 386.48748779296875 0 291.904754638671875 377.285430908203125 0
298 396.48748779296875 0 291.904754638671875 377.285430908203125 0
298 396.48748779296875 150 291.904754638671875 377.285430908203125 0
298 386.48748779296875 150 291.904754638671875 377.285430908203125 0
256 386.48748779296875 0 248.904754638671875 377.285430908203125 0
256 396.48748779296875 0 248.904754638671875 377.285430908203125 0
256 396.48748779296875 150 248.904754638671875 377.285430908203125 0
256 386.48748779296875 150 248.904754638671875 377.285430908203125 0
218 288.49664306640625 0 216.655914306640625 285.39453125 0
218 298.49664306640625 0 216.655914306640625 285.39453125 0
218 298.49664306640625 150 216.655914306640625 285.39453125 0
218 288.49664306640625 150 216.655914306640625 285.39453125 0
125 288.49664306640625 0 122.655914306640625 285.39453125 0
125 298.49664306640625 0 122.655914306640625 285.39453125 0
125 298.49664306640625 150 122.655914306640625 285.39453125 0
125 288.49664306640625 150 122.655914306640625 285.39453125 0
257 314.504852294921875 0 253.057693481445312 308.456695556640625 0
257 324.504852294921875 0 253.057693481445312 308.456695556640625 0
257 324.504852294921875 150 253.057693481445312 308.456695556640625 0
257 314.504852294921875 150 253.057693481445312 308.456695556640625 0
205 314.504852294921875 0 200.057693481445312 308.456695556640625 0
205 324.504852294921875 0 200.057693481445312 308.456695556640625 0
205 324.504852294921875 150 200.057693481445312 308.456695556640625 0
205 314.504852294921875 150 200.057693481445312 308.456695556640625 0
221 51 0 219.648941040039062 50.4574470520019531 0
221 61 0 219.648941040039062 50.4574470520019531 0
221 61 150 219.648941040039062 50.4574470520019531 0
221 51 150 219.648941040039062 50.4574470520019531 0
127 51 0 124.648933410644531 50.4574470520019531 0
127 61 0 124.648933410644531 50.4574470520019531 0
127 61 150 124.648933410644531 50.4574470520019531 0
127 51 150 124.648933410644531 50.4574470520019531 0
600 190.168319702148438 0 587.95654296875 186.034225463867188 0
600 200.168319702148438 0 587.95654296875 186.034225463867188 0
600 200.168319702148438 150 587.95654296875 186.034225463867188 0
600 190.168319702148438 150 587.95654296875 186.034225463867188 0
554 190.168319702148438 0 540.95654296875 186.034225463867188 0
554 200.168319702148438 0 540.95654296875 186.034225463867188 0
554 200.168319702148438 150 540.95654296875 186.034225463867188 0
554 190.168319702148438 150 540.95654296875 186.034225463867188 0
331 50.0775184631347656 0 328.2808837890625 49.5148506164550781 0
331 60.0775184631347656 0 328.2808837890625 49.5148506164550781 0
331 60.0775184631347656 150 328.2808837890625 49.5148506164550781 0
331 50.0775184631347656 150 328.2808837890625 49.5148506164550781 0
242 50.0775184631347656 0 238.280899047851562 49.5148506164550781 0
242 60.0775184631347656 0 238.280899047851562 49.5148506164550781 0
242 60.0775184631347656 150 238.280899047851562 49.5148506164550781 0
242 50.0775184631347656 150 238.280899047851562 49.5148506164550781 0
317 181 0 312.627105712890625 177.932205200195312 0
317 191 0 312.627105712890625 177.932205200195312 0
317 191 150 312.627105712890625 177.932205200195312 0
317 181 150 312.627105712890625 177.932205200195312 0
258 181 0 252.627120971679688 177.932205200195312 0
258 191 0 252.627120971679688 177.932205200195312 0
258 191 150 252.627120971679688 177.932205200195312 0
258 181 150 252.627120971679688 177.932205200195312 0
351 264 0 339.89654541015625 254.89654541015625 0
351 274 0 339.89654541015625 254.89654541015625 0
351 274 150 339.89654541015625 254.89654541015625 0
351 264 150 339.89654541015625 254.89654541015625 0
322 264 0 309.89654541015625 254.89654541015625 0
322 274 0 309.89654541015625 254.89654541015625 0
322 274 150 309.89654541015625 254.89654541015625 0
322 264 150 309.89654541015625 254.89654541015625 0
257 447 0 252.413040161132812 437.282623291015625 0
257 457 0 252.413040161132812 437.282623291015625 0
257 457 150 252.413040161132812 437.282623291015625 0
257 447 150 252.413040161132812 437.282623291015625 0
211 447 0 205.413040161132812 437.282623291015625 0
211 457 0 205.413040161132812 437.282623291015625 0
211 457 150 205.413040161132812 437.282623291015625 0
211 447 150 205.413040161132812 437.282623291015625 0
458 161 0 416.3636474609375 147.363632202148438 0
448 161 0 416.3636474609375 147.363632202148438 0
448 161 150 416.3636474609375 147.363632202148438 0
458 161 150 416.3636474609375 147.363632202148438 0
458 150 0 416.3636474609375 135.363632202148438 0
448 150 0 416.3636474609375 135.363632202148438 0
448 150 150 416.3636474609375 135.363632202148438 0
458 150 150 416.3636474609375 135.363632202148438 0
154 112.5 0 149.296295166015625 108.333335876464844 0
154 122.5 0 149.296295166015625 108.333335876464844 0
154 122.5 150 149.296295166015625 108.333335876464844 0
154 112.5 150 149.296295166015625 108.333335876464844 0
127 112.5 0 121.296295166015625 108.333335876464844 0
127 122.5 0 121.296295166015625 108.333335876464844 0
127 122.5 150 121.296295166015625 108.333335876464844 0
127 112.5 150 121.296295166015625 108.333335876464844 0
319 263.566680908203125 0 301.23529052734375 248.062744140625 0
319 273.566680908203125 0 301.23529052734375 248.062744140625 0
319 273.566680908203125 150 301.23529052734375 248.062744140625 0
319 263.566680908203125 150 301.23529052734375 248.062744140625 0
302 263.566680908203125 0 283.23529052734375 248.062744140625 0
302 273.566680908203125 0 283.23529052734375 248.062744140625 0
302 273.566680908203125 150 283.23529052734375 248.062744140625 0
302 263.566680908203125 150 283.23529052734375 248.062744140625 0
315 243 0 291.76922607421875 224.307693481445312 0
315 253 0 291.76922607421875 224.307693481445312 0
315 253 150 291.76922607421875 224.307693481445312 0
315 243 150 291.76922607421875 224.307693481445312 0
302 243 0 277.76922607421875 224.307693481445312 0
302 253 0 277.76922607421875 224.307693481445312 0
302 253 150 277.76922607421875 224.307693481445312 0
302 243 150 277.76922607421875 224.307693481445312 0
623 88 0 622.75152587890625 87.8236465454101562 0
623 78 0 622.75152587890625 87.8236465454101562 0
623 78 150 622.75152587890625 87.8236465454101562 0
623 88 150 622.75152587890625 87.8236465454101562 0
687.0911865234375 197.801498413085938 0 672.04522705078125 193.776107788085938 0
686.9088134765625 187.80316162109375 0 672.04522705078125 193.776107788085938 0
686.9088134765625 187.80316162109375 150 672.04522705078125 193.776107788085938 0
687.0911865234375 197.801498413085938 150 672.04522705078125 193.776107788085938 0
615.17291259765625 129.037628173828125 0 593.1810302734375 123.423095703125 0
605.1732177734375 128.962371826171875 0 593.1810302734375 123.423095703125 0
605.1732177734375 128.962371826171875 150 593.1810302734375 123.423095703125 0
615.17291259765625 129.037628173828125 150 593.1810302734375 123.423095703125 0
453 225.434463500976562 0 0 0 -1
453 235.434463500976562 0 0 0 -1
302 235.434463500976562 0 0 0 -1
302 225.434463500976562 0 0 0 -1
453 225.434463500976562 150 0 0 1
453 235.434463500976562 150 0 0 1
302 235.434463500976562 150 0 0 1
302 225.434463500976562 150 0 0 1
393 299.82806396484375 0 0 0 -1
393 309.82806396484375 0 0 0 -1
302 309.82806396484375 0 0 0 -1
302 299.82806396484375 0 0 0 -1
393 299.82806396484375 150 0 0 1
393 309.82806396484375 150 0 0 1
302 309.82806396484375 150 0 0 1
302 299.82806396484375 150 0 0 1
258 228.8494873046875 0 0 0 -1
258 238.8494873046875 0 0 0 -1
125 238.8494873046875 0 0 0 -1
125 228.8494873046875 0 0 0 -1
258 228.8494873046875 150 0 0 1
258 238.8494873046875 150 0 0 1
125 238.8494873046875 150 0 0 1
125 228.8494873046875 150 0 0 1
318 110.721351623535156 0 0 0 -1
318 120.721351623535156 0 0 0 -1
181 120.721351623535156 0 0 0 -1
181 110.721351623535156 0 0 0 -1
318 110.721351623535156 150 0 0 1
318 120.721351623535156 150 0 0 1
181 120.721351623535156 150 0 0 1
181 110.721351623535156 150 0 0 1
454 49.4964523315429688 0 0 0 -1
454 59.4964523315429688 0 0 0 -1
368 59.4964523315429688 0 0 0 -1
368 49.4964523315429688 0 0 0 -1
454 49.4964523315429688 150 0 0 1
454 59.4964523315429688 150 0 0 1
368 59.4964523315429688 150 0 0 1
368 49.4964523315429688 150 0 0 1
392 385.5 0 0 0 -1
392 395.5 0 0 0 -1
360 395.5 0 0 0 -1
360 385.5 0 0 0 -1
392 385.5 150 0 0 1
392 395.5 150 0 0 1
360 395.5 150 0 0 1
360 385.5 150 0 0 1
557 207 0 0 0 -1
547 207 0 0 0 -1
547 147 0 0 0 -1
557 157 0 0 0 -1
557 207 150 0 0 1
547 207 150 0 0 1
547 147 150 0 0 1
557 157 150 0 0 1
557 157 0 0 0 -1
547 147 0 0 0 -1
605.0374755859375 147 0 0 0 -1
614.9625244140625 157 0 0 0 -1
557 157 150 0 0 1
547 147 150 0 0 1
605.0374755859375 147 150 0 0 1
614.9625244140625 157 150 0 0 1
259.1849365234375 78 0 0 0 -1
-11.184931755065918 88 0 0 0 -1
609.630615234375 42.0136604309082031 0 0 0 -1
610.369384765625 51.9863395690917969 0 0 0 -1
259.1849365234375 78 150 0 0 1
-11.184931755065918 88 150 0 0 1
609.630615234375 42.0136604309082031 150 0 0 1
610.369384765625 51.9863395690917969 150 0 0 1
124 88 0 0 0 -1
259.1849365234375 78 0 0 0 -1
623 78 0 0 0 -1
623 88 0 0 0 -1
124 88 150 0 0 1
259.1849365234375 78 150 0 0 1
623 78 150 0 0 1
623 88 150 0 0 1
-11.184931755065918 88 0 0 0 -1
124 78 0 0 0 -1
736 78 0 0 0 -1
726 88 0 0 0 -1
-11.184931755065918 88 150 0 0 1
124 78 150 0 0 1
736 78 150 0 0 1
726 88 150 0 0 1
170 447.5 0 0 0 -1
170 457.5 0 0 0 -1
123 457.5 0 0 0 -1
123 447.5 0 0 0 -1
170 447.5 150 0 0 1
170 457.5 150 0 0 1
123 457.5 150 0 0 1
123 447.5 150 0 0 1
298 386.48748779296875 0 0 0 -1
298 396.48748779296875 0 0 0 -1
256 396.48748779296875 0 0 0 -1
256 386.48748779296875 0 0 0 -1
298 386.48748779296875 150 0 0 1
298 396.48748779296875 150 0 0 1
256 396.48748779296875 150 0 0 1
256 386.48748779296875 150 0 0 1
218 288.49664306640625 0 0 0 -1
218 298.49664306640625 0 0 0 -1
125 298.49664306640625 0 0 0 -1
125 288.49664306640625 0 0 0 -1
218 288.49664306640625 150 0 0 1
218 298.49664306640625 150 0 0 1
125 298.49664306640625 150 0 0 1
125 288.49664306640625 150 0 0 1
257 314.504852294921875 0 0 0 -1
257 324.504852294921875 0 0 0 -1
205 324.504852294921875 0 0 0 -1
205 314.504852294921875 0 0 0 -1
257 314.504852294921875 150 0 0 1
257 324.504852294921875 150 0 0 1
205 324.504852294921875 150 0 0 1
205 314.504852294921875 150 0 0 1
221 51 0 0 0 -1
221 61 0 0 0 -1
127 61 0 0 0 -1
127 51 0 0 0 -1
221 51 150 0 0 1
221 61 150 0 0 1
127 61 150 0 0 1
127 51 150 0 0 1
600 190.168319702148438 0 0 0 -1
600 200.168319702148438 0 0 0 -1
554 200.168319702148438 0 0 0 -1
554 190.168319702148438 0 0 0 -1
600 190.168319702148438 150 0 0 1
600 200.168319702148438 150 0 0 1
554 200.168319702148438 150 0 0 1
554 190.168319702148438 150 0 0 1
331 50.0775184631347656 0 0 0 -1
331 60.0775184631347656 0 0 0 -1
242 60.0775184631347656 0 0 0 -1
242 50.0775184631347656 0 0 0 -1
331 50.0775184631347656 150 0 0 1
331 60.0775184631347656 150 0 0 1
242 60.0775184631347656 150 0 0 1
242 50.0775184631347656 150 0 0 1
317 181 0 0 0 -1
317 191 0 0 0 -1
258 191 0 0 0 -1
258 181 0 0 0 -1
317 181 150 0 0 1
317 191 150 0 0 1
258 191 150 0 0 1
258 181 150 0 0 1
351 264 0 0 0 -1
351 274 0 0 0 -1
322 274 0 0 0 -1
322 264 0 0 0 -1
351 264 150 0 0 1
351 274 150 0 0 1
322 274 150 0 0 1
322 264 150 0 0 1
257 447 0 0 0 -1
257 457 0 0 0 -1
211 457 0 0 0 -1
211 447 0 0 0 -1
257 447 150 0 0 1
257 457 150 0 0 1
211 457 150 0 0 1
211 447 150 0 0 1
458 161 0 0 0 -1
448 161 0 0 0 -1
448 150 0 0 0 -1
458 150 0 0 0 -1
458 161 150 0 0 1
448 161 150 0 0 1
448 150 150 0 0 1
458 150 150 0 0 1
154 112.5 0 0 0 -1
154 122.5 0 0 0 -1
127 122.5 0 0 0 -1
127 112.5 0 0 0 -1
154 112.5 150 0 0 1
154 122.5 150 0 0 1
127 122.5 150 0 0 1
127 112.5 150 0 0 1
319 263.566680908203125 0 0 0 -1
319 273.566680908203125 0 0 0 -1
302 273.566680908203125 0 0 0 -1
302 263.566680908203125 0 0 0 -1
319 263.566680908203125 150 0 0 1
319 273.566680908203125 150 0 0 1
302 273.566680908203125 150 0 0 1
302 263.566680908203125 150 0 0 1
315 243 0 0 0 -1
315 253 0 0 0 -1
302 253 0 0 0 -1
302 243 0 0 0 -1
315 243 150 0 0 1
315 253 150 0 0 1
302 253 150 0 0 1
302 243 150 0 0 1
726 88 0 0 0 -1
736 78 0 0 0 -1
736 196.909652709960938 0 0 0 -1
726 187.090347290039062 0 0 0 -1
726 88 150 0 0 1
736 78 150 0 0 1
736 196.909652709960938 150 0 0 1
726 187.090347290039062 150 0 0 1
687.0911865234375 197.801498413085938 0 0 0 -1
686.9088134765625 187.80316162109375 0 0 0 -1
726 187.090347290039062 0 0 0 -1
736 196.909652709960938 0 0 0 -1
687.0911865234375 197.801498413085938 150 0 0 1
686.9088134765625 187.80316162109375 150 0 0 1
726 187.090347290039062 150 0 0 1
736 196.909652709960938 150 0 0 1
614.9625244140625 157 0 0 0 -1
605.0374755859375 147 0 0 0 -1
605.1732177734375 128.962371826171875 0 0 0 -1
615.17291259765625 129.037628173828125 0 0 0 -1
614.9625244140625 157 150 0 0 1
605.0374755859375 147 150 0 0 1
605.1732177734375 128.962371826171875 150 0 0 1
615.17291259765625 129.037628173828125 150 0 0 1
4 0 1 2 3
4 4 5 6 7
4 8 9 10 11
4 12 13 14 15
4 16 17 18 19
4 20 21 22 23
4 24 25 26 27
4 28 29 30 31
4 32 33 34 35
4 36 37 38 39
4 40 41 42 43
4 44 45 46 47
4 48 49 50 51
4 52 53 54 55
4 56 57 58 59
4 60 61 62 63
4 64 65 66 67
4 68 69 70 71
4 72 73 74 75
4 76 77 78 79
4 80 81 82 83
4 84 85 86 87
4 88 89 90 91
4 92 93 94 95
4 96 97 98 99
4 100 101 102 103
4 104 105 106 107
4 108 109 110 111
4 112 113 114 115
4 116 117 118 119
4 120 121 122 123
4 124 125 126 127
4 128 129 130 131
4 132 133 134 135
4 136 137 138 139
4 140 141 142 143
4 144 145 146 147
4 148 149 150 151
4 152 153 154 155
4 156 157 158 159
4 160 161 162 163
4 164 165 166 167
4 168 169 170 171
4 172 173 174 175
4 176 177 178 179
4 180 181 182 183
4 184 185 186 187
4 188 189 190 191
4 192 193 194 195
4 196 197 198 199
4 200 201 202 203
4 204 205 206 207
4 208 209 210 211
4 212 213 214 215
4 216 217 218 219
4 220 221 222 223
4 224 225 226 227
4 228 229 230 231
4 232 233 234 235
4 236 237 238 239
4 240 241 242 243
4 244 245 246 247
4 248 249 250 251
4 252 253 254 255
4 256 257 258 259
4 260 261 262 263
4 264 265 266 267
4 268 269 270 271
4 272 273 274 275
4 276 277 278 279
4 280 281 282 283
4 284 285 286 287
4 288 289 290 291
4 292 293 294 295
4 296 297 298 299
4 300 301 302 303
4 304 305 306 307
4 308 309 310 311
4 312 313 314 315
4 316 317 318 319
4 320 321 322 323
4 324 325 326 327
4 328 329 330 331
4 332 333 334 335
4 336 337 338 339
4 340 341 342 343
4 344 345 346 347
4 348 349 350 351
4 352 353 354 355
4 356 357 358 359
4 360 361 362 363
4 364 365 366 367
4 368 369 370 371
4 372 373 374 375
4 376 377 378 379
4 380 381 382 383
4 384 385 386 387
4 388 389 390 391
4 392 393 394 395
4 396 397 398 399
4 400 401 402 403
4 404 405 406 407
4 408 409 410 411
4 412 413 414 415
4 416 417 418 419
4 420 421 422 423
4 424 425 426 427
4 428 429 430 431
4 432 433 434 435
4 436 437 438 439
4 440 441 442 443
4 444 445 446 447
4 448 449 450 451
4 452 453 454 455
4 456 457 458 459
4 460 461 462 463
4 464 465 466 467
4 468 469 470 471
4 472 473 474 475
4 476 477 478 479
4 480 481 482 483
4 484 485 486 487
4 488 489 490 491
4 492 493 494 495
4 496 497 498 499
4 500 501 502 503
4 504 505 506 507
4 508 509 510 511
4 512 513 514 515
4 516 517 518 519
4 520 521 522 523
4 524 525 526 527
4 528 529 530 531
4 532 533 534 535
4 536 537 538 539
4 540 541 542 543
4 544 545 546 547
4 548 549 550 551
4 552 553 554 555
4 556 557 558 559
4 560 561 562 563
4 564 565 566 567
4 568 569 570 571
4 572 573 574 575
4 576 577 578 579
4 580 581 582 583
4 584 585 586 587
4 588 589 590 591
4 592 593 594 595
4 596 597 598 599
4 600 601 602 603
4 604 605 606 607
4 608 609 610 611
4 612 613 614 615
4 616 617 618 619
4 620 621 622 623
4 624 625 626 627
