ply
format ascii 1.0
element vertex 608
property float x
property float y
property float z
property float nx
property float ny
property float nz
element quads 152
property list uchar int vertex_indices
end_header
453 229.465850830078125 0 -0 -1 0
302 229.465850830078125 0 -0 -1 0
302 229.465850830078125 100 -0 -1 0
453 229.465850830078125 100 -0 -1 0
453 235.465850830078125 0 0 1 0
302 235.465850830078125 0 0 1 0
302 235.465850830078125 100 0 1 0
453 235.465850830078125 100 0 1 0
258 229.465850830078125 0 -0 -1 0
125 229.465850830078125 0 -0 -1 0
125 229.465850830078125 100 -0 -1 0
258 229.465850830078125 100 -0 -1 0
258 235.465850830078125 0 0 1 0
125 235.465850830078125 0 0 1 0
125 235.465850830078125 100 0 1 0
258 235.465850830078125 100 0 1 0
393 301.82806396484375 0 -0 -1 0
302 301.82806396484375 0 -0 -1 0
302 301.82806396484375 100 -0 -1 0
393 301.82806396484375 100 -0 -1 0
393 307.82806396484375 0 0 1 0
302 307.82806396484375 0 0 1 0
302 307.82806396484375 100 0 1 0
393 307.82806396484375 100 0 1 0
318 112.940635681152344 0 -0 -1 0
181 112.940635681152344 0 -0 -1 0
181 112.940635681152344 100 -0 -1 0
318 112.940635681152344 100 -0 -1 0
318 118.940635681152344 0 0 1 0
181 118.940635681152344 0 0 1 0
181 118.940635681152344 100 0 1 0
318 118.940635681152344 100 0 1 0
154 112.940635681152344 0 -0 -1 0
127 112.940635681152344 0 -0 -1 0
127 112.940635681152344 100 -0 -1 0
154 112.940635681152344 100 -0 -1 0
154 118.940635681152344 0 0 1 0
127 118.940635681152344 0 0 1 0
127 118.940635681152344 100 0 1 0
154 118.940635681152344 100 0 1 0
454 52.0906600952148438 0 -0 -1 0
368 52.0906600952148438 0 -0 -1 0
368 52.0906600952148438 100 -0 -1 0
454 52.0906600952148438 100 -0 -1 0
454 58.0906600952148438 0 0 1 0
368 58.0906600952148438 0 0 1 0
368 58.0906600952148438 100 0 1 0
454 58.0906600952148438 100 0 1 0
221 52.0906600952148438 0 -0 -1 0
127 52.0906600952148438 0 -0 -1 0
127 52.0906600952148438 100 -0 -1 0
221 52.0906600952148438 100 -0 -1 0
221 58.0906600952148438 0 0 1 0
127 58.0906600952148438 0 0 1 0
127 58.0906600952148438 100 0 1 0
221 58.0906600952148438 100 0 1 0
331 52.0906600952148438 0 -0 -1 0
242 52.0906600952148438 0 -0 -1 0
242 52.0906600952148438 100 -0 -1 0
331 52.0906600952148438 100 -0 -1 0
331 58.0906600952148438 0 0 1 0
242 58.0906600952148438 0 0 1 0
242 58.0906600952148438 100 0 1 0
331 58.0906600952148438 100 0 1 0
392 388.05633544921875 0 -0 -1 0
360 388.05633544921875 0 -0 -1 0
360 388.05633544921875 100 -0 -1 0
392 388.05633544921875 100 -0 -1 0
392 394.05633544921875 0 0 1 0
360 394.05633544921875 0 0 1 0
360 394.05633544921875 100 0 1 0
392 394.05633544921875 100 0 1 0
298 388.05633544921875 0 -0 -1 0
256 388.05633544921875 0 -0 -1 0
256 388.05633544921875 100 -0 -1 0
298 388.05633544921875 100 -0 -1 0
298 394.05633544921875 0 0 1 0
256 394.05633544921875 0 0 1 0
256 394.05633544921875 100 0 1 0
298 394.05633544921875 100 0 1 0
555 207 0 1 0 0
555 155 0 1 0 0
555 155 100 1 0 0
555 207 100 1 0 0
549 207 0 -1 -0 0
549 149 0 -1 -0 0
549 149 100 -1 -0 0
549 207 100 -1 -0 0
555 155 0 -0 1 0
612.98651123046875 155 0 -0 1 0
612.98651123046875 155 100 -0 1 0
555 155 100 -0 1 0
549 149 0 0 -1 0
607.01348876953125 149 0 0 -1 0
607.01348876953125 149 100 0 -1 0
549 149 100 0 -1 0
170 449.335723876953125 0 -0 -1 0
123 449.335723876953125 0 -0 -1 0
123 449.335723876953125 100 -0 -1 0
170 449.335723876953125 100 -0 -1 0
170 455.335723876953125 0 0 1 0
123 455.335723876953125 0 0 1 0
123 455.335723876953125 100 0 1 0
170 455.335723876953125 100 0 1 0
257 449.335723876953125 0 -0 -1 0
211 449.335723876953125 0 -0 -1 0
211 449.335723876953125 100 -0 -1 0
257 449.335723876953125 100 -0 -1 0
257 455.335723876953125 0 0 1 0
211 455.335723876953125 0 0 1 0
211 455.335723876953125 100 0 1 0
257 455.335723876953125 100 0 1 0
218 290.49664306640625 0 -0 -1 0
125 290.49664306640625 0 -0 -1 0
125 290.49664306640625 100 -0 -1 0
218 290.49664306640625 100 -0 -1 0
218 296.49664306640625 0 0 1 0
125 296.49664306640625 0 0 1 0
125 296.49664306640625 100 0 1 0
218 296.49664306640625 100 0 1 0
257 316.504852294921875 0 -0 -1 0
205 316.504852294921875 0 -0 -1 0
205 316.504852294921875 100 -0 -1 0
257 316.504852294921875 100 -0 -1 0
257 322.504852294921875 0 0 1 0
205 322.504852294921875 0 0 1 0
205 322.504852294921875 100 0 1 0
257 322.504852294921875 100 0 1 0
600 189.14227294921875 0 -0 -1 0
554 189.14227294921875 0 -0 -1 0
554 189.14227294921875 100 -0 -1 0
600 189.14227294921875 100 -0 -1 0
600 195.14227294921875 0 0 1 0
554 195.14227294921875 0 0 1 0
554 195.14227294921875 100 0 1 0
600 195.14227294921875 100 0 1 0
317 189.14227294921875 0 -0 -1 0
258 189.14227294921875 0 -0 -1 0
258 189.14227294921875 100 -0 -1 0
317 189.14227294921875 100 -0 -1 0
317 195.14227294921875 0 0 1 0
258 195.14227294921875 0 0 1 0
258 195.14227294921875 100 0 1 0
317 195.14227294921875 100 0 1 0
351 265.7796630859375 0 -0 -1 0
322 265.7796630859375 0 -0 -1 0
322 265.7796630859375 100 -0 -1 0
351 265.7796630859375 100 -0 -1 0
351 271.7796630859375 0 0 1 0
322 271.7796630859375 0 0 1 0
322 271.7796630859375 100 0 1 0
351 271.7796630859375 100 0 1 0
319 265.7796630859375 0 -0 -1 0
302 265.7796630859375 0 -0 -1 0
302 265.7796630859375 100 -0 -1 0
319 265.7796630859375 100 -0 -1 0
319 271.7796630859375 0 0 1 0
302 271.7796630859375 0 0 1 0
302 271.7796630859375 100 0 1 0
319 271.7796630859375 100 0 1 0
456 161 0 1 0 0
456 150 0 1 0 0
456 150 100 1 0 0
456 161 100 1 0 0
450 161 0 -1 -0 0
450 150 0 -1 -0 0
450 150 100 -1 -0 0
450 161 100 -1 -0 0
315 245 0 -0 -1 0
302 245 0 -0 -1 0
302 245 100 -0 -1 0
315 245 100 -0 -1 0
315 251 0 0 1 0
302 251 0 0 1 0
302 251 100 0 1 0
315 251 100 0 1 0
728 85 0 -1 0 0
728 189.009689331054688 0 -1 0 0
728 189.009689331054688 100 -1 0 0
728 85 100 -1 0 0
734 79 0 1 -0 0
734 194.990310668945312 0 1 -0 0
734 194.990310668945312 100 1 -0 0
734 79 100 1 -0 0
734 79 0 -0 -1 0
613.92413330078125 79 0 -0 -1 0
613.92413330078125 79 100 -0 -1 0
734 79 100 -0 -1 0
728 85 0 0 1 0
608.07586669921875 85 0 0 1 0
608.07586669921875 85 100 0 1 0
728 85 100 0 1 0
728 189.009689331054688 0 -0.00323353824205696583 -0.999994754791259766 0
686.99029541015625 189.142288208007812 0 -0.00323353824205696583 -0.999994754791259766 0
686.99029541015625 189.142288208007812 100 -0.00323353824205696583 -0.999994754791259766 0
728 189.009689331054688 100 -0.00323353824205696583 -0.999994754791259766 0
734 194.990310668945312 0 0.00323353824205696583 0.999994754791259766 0
687.00970458984375 195.142257690429688 0 0.00323353824205696583 0.999994754791259766 0
687.00970458984375 195.142257690429688 100 0.00323353824205696583 0.999994754791259766 0
734 194.990310668945312 100 0.00323353824205696583 0.999994754791259766 0
607.10345458984375 128.98651123046875 0 -0.999989867210388184 -0.00449770549312233925 0
607.01348876953125 149 0 -0.999989867210388184 -0.00449770549312233925 0
607.01348876953125 149 100 -0.999989867210388184 -0.00449770549312233925 0
607.10345458984375 128.98651123046875 100 -0.999989867210388184 -0.00449770549312233925 0
613.1033935546875 129.01348876953125 0 0.999989867210388184 0.00449770549312233925 0
612.98651123046875 155 0 0.999989867210388184 0.00449770549312233925 0
612.98651123046875 155 100 0.999989867210388184 0.00449770549312233925 0
613.1033935546875 129.01348876953125 100 0.999989867210388184 0.00449770549312233925 0
613.92413330078125 79 0 0.999672055244445801 -0.0256073642522096634 0
613.10247802734375 46.9231796264648438 0 0.999672055244445801 -0.0256073642522096634 0
613.10247802734375 46.9231796264648438 100 0.999672055244445801 -0.0256073642522096634 0
613.92413330078125 79 100 0.999672055244445801 -0.0256073642522096634 0
608.07586669921875 85 0 -0.999672055244445801 0.0256073642522096634 0
607.10443115234375 47.0768203735351562 0 -0.999672055244445801 0.0256073642522096634 0
607.10443115234375 47.0768203735351562 100 -0.999672055244445801 0.0256073642522096634 0
608.07586669921875 85 100 -0.999672055244445801 0.0256073642522096634 0
453 229.465850830078125 0 451 227.946212768554688 0
453 235.465850830078125 0 451 227.946212768554688 0
453 235.465850830078125 100 451 227.946212768554688 0
453 229.465850830078125 100 451 227.946212768554688 0
302 229.465850830078125 0 299 227.946212768554688 0
302 235.465850830078125 0 299 227.946212768554688 0
302 235.465850830078125 100 299 227.946212768554688 0
302 229.465850830078125 100 299 227.946212768554688 0
258 229.465850830078125 0 257.060150146484375 227.740554809570312 0
258 235.465850830078125 0 257.060150146484375 227.740554809570312 0
258 235.465850830078125 100 257.060150146484375 227.740554809570312 0
258 229.465850830078125 100 257.060150146484375 227.740554809570312 0
125 229.465850830078125 0 123.060150146484375 227.740554809570312 0
125 235.465850830078125 0 123.060150146484375 227.740554809570312 0
125 235.465850830078125 100 123.060150146484375 227.740554809570312 0
125 229.465850830078125 100 123.060150146484375 227.740554809570312 0
393 301.82806396484375 0 389.681304931640625 298.511260986328125 0
393 307.82806396484375 0 389.681304931640625 298.511260986328125 0
393 307.82806396484375 100 389.681304931640625 298.511260986328125 0
393 301.82806396484375 100 389.681304931640625 298.511260986328125 0
302 301.82806396484375 0 297.681304931640625 298.511260986328125 0
302 307.82806396484375 0 297.681304931640625 298.511260986328125 0
302 307.82806396484375 100 297.681304931640625 298.511260986328125 0
302 301.82806396484375 100 297.681304931640625 298.511260986328125 0
318 112.940635681152344 0 316.6788330078125 112.116256713867188 0
318 118.940635681152344 0 316.6788330078125 112.116256713867188 0
318 118.940635681152344 100 316.6788330078125 112.116256713867188 0
318 112.940635681152344 100 316.6788330078125 112.116256713867188 0
181 112.940635681152344 0 178.6788330078125 112.116256713867188 0
181 118.940635681152344 0 178.6788330078125 112.116256713867188 0
181 118.940635681152344 100 178.6788330078125 112.116256713867188 0
181 112.940635681152344 100 178.6788330078125 112.116256713867188 0
154 112.940635681152344 0 149.296295166015625 108.757652282714844 0
154 118.940635681152344 0 149.296295166015625 108.757652282714844 0
154 118.940635681152344 100 149.296295166015625 108.757652282714844 0
154 112.940635681152344 100 149.296295166015625 108.757652282714844 0
127 112.940635681152344 0 121.296295166015625 108.757652282714844 0
127 118.940635681152344 0 121.296295166015625 108.757652282714844 0
127 118.940635681152344 100 121.296295166015625 108.757652282714844 0
127 112.940635681152344 100 121.296295166015625 108.757652282714844 0
454 52.0906600952148438 0 449.720916748046875 51.484954833984375 0
454 58.0906600952148438 0 449.720916748046875 51.484954833984375 0
454 58.0906600952148438 100 449.720916748046875 51.484954833984375 0
454 52.0906600952148438 100 449.720916748046875 51.484954833984375 0
368 52.0906600952148438 0 362.720916748046875 51.484954833984375 0
368 58.0906600952148438 0 362.720916748046875 51.484954833984375 0
368 58.0906600952148438 100 362.720916748046875 51.484954833984375 0
368 52.0906600952148438 100 362.720916748046875 51.484954833984375 0
221 52.0906600952148438 0 219.648941040039062 51.5365028381347656 0
221 58.0906600952148438 0 219.648941040039062 51.5365028381347656 0
221 58.0906600952148438 100 219.648941040039062 51.5365028381347656 0
221 52.0906600952148438 100 219.648941040039062 51.5365028381347656 0
127 52.0906600952148438 0 124.648933410644531 51.5365028381347656 0
127 58.0906600952148438 0 124.648933410644531 51.5365028381347656 0
127 58.0906600952148438 100 124.648933410644531 51.5365028381347656 0
127 52.0906600952148438 100 124.648933410644531 51.5365028381347656 0
331 52.0906600952148438 0 328.2808837890625 51.50537109375 0
331 58.0906600952148438 0 328.2808837890625 51.50537109375 0
331 58.0906600952148438 100 328.2808837890625 51.50537109375 0
331 52.0906600952148438 100 328.2808837890625 51.50537109375 0
242 52.0906600952148438 0 238.280899047851562 51.50537109375 0
242 58.0906600952148438 0 238.280899047851562 51.50537109375 0
242 58.0906600952148438 100 238.280899047851562 51.50537109375 0
242 52.0906600952148438 100 238.280899047851562 51.50537109375 0
392 388.05633544921875 0 380.75 375.9295654296875 0
392 394.05633544921875 0 380.75 375.9295654296875 0
392 394.05633544921875 100 380.75 375.9295654296875 0
392 388.05633544921875 100 380.75 375.9295654296875 0
360 388.05633544921875 0 347.75 375.9295654296875 0
360 394.05633544921875 0 347.75 375.9295654296875 0
360 394.05633544921875 100 347.75 375.9295654296875 0
360 388.05633544921875 100 347.75 375.9295654296875 0
298 388.05633544921875 0 291.904754638671875 378.81689453125 0
298 394.05633544921875 0 291.904754638671875 378.81689453125 0
298 394.05633544921875 100 291.904754638671875 378.81689453125 0
298 388.05633544921875 100 291.904754638671875 378.81689453125 0
256 388.05633544921875 0 248.904754638671875 378.81689453125 0
256 394.05633544921875 0 248.904754638671875 378.81689453125 0
256 394.05633544921875 100 248.904754638671875 378.81689453125 0
256 388.05633544921875 100 248.904754638671875 378.81689453125 0
555 207 0 544.326904296875 204.01922607421875 0
549 207 0 544.326904296875 204.01922607421875 0
549 207 100 544.326904296875 204.01922607421875 0
555 207 100 544.326904296875 204.01922607421875 0
170 449.335723876953125 0 167.382980346679688 439.775390625 0
170 455.335723876953125 0 167.382980346679688 439.775390625 0
170 455.335723876953125 100 167.382980346679688 439.775390625 0
170 449.335723876953125 100 167.382980346679688 439.775390625 0
123 449.335723876953125 0 119.382980346679688 439.775390625 0
123 455.335723876953125 0 119.382980346679688 439.775390625 0
123 455.335723876953125 100 119.382980346679688 439.775390625 0
123 449.335723876953125 100 119.382980346679688 439.775390625 0
257 449.335723876953125 0 252.413040161132812 439.567535400390625 0
257 455.335723876953125 0 252.413040161132812 439.567535400390625 0
257 455.335723876953125 100 252.413040161132812 439.567535400390625 0
257 449.335723876953125 100 252.413040161132812 439.567535400390625 0
211 449.335723876953125 0 205.413040161132812 439.567535400390625 0
211 455.335723876953125 0 205.413040161132812 439.567535400390625 0
211 455.335723876953125 100 205.413040161132812 439.567535400390625 0
211 449.335723876953125 100 205.413040161132812 439.567535400390625 0
218 290.49664306640625 0 216.655914306640625 287.373016357421875 0
218 296.49664306640625 0 216.655914306640625 287.373016357421875 0
218 296.49664306640625 100 216.655914306640625 287.373016357421875 0
218 290.49664306640625 100 216.655914306640625 287.373016357421875 0
125 290.49664306640625 0 122.655914306640625 287.373016357421875 0
125 296.49664306640625 0 122.655914306640625 287.373016357421875 0
125 296.49664306640625 100 122.655914306640625 287.373016357421875 0
125 290.49664306640625 100 122.655914306640625 287.373016357421875 0
257 316.504852294921875 0 253.057693481445312 310.418212890625 0
257 322.504852294921875 0 253.057693481445312 310.418212890625 0
257 322.504852294921875 100 253.057693481445312 310.418212890625 0
257 316.504852294921875 100 253.057693481445312 310.418212890625 0
205 316.504852294921875 0 200.057693481445312 310.418212890625 0
205 322.504852294921875 0 200.057693481445312 310.418212890625 0
205 322.504852294921875 100 200.057693481445312 310.418212890625 0
205 316.504852294921875 100 200.057693481445312 310.418212890625 0
600 189.14227294921875 0 587.95654296875 185.030487060546875 0
600 195.14227294921875 0 587.95654296875 185.030487060546875 0
600 195.14227294921875 100 587.95654296875 185.030487060546875 0
600 189.14227294921875 100 587.95654296875 185.030487060546875 0
554 189.14227294921875 0 540.95654296875 185.030487060546875 0
554 195.14227294921875 0 540.95654296875 185.030487060546875 0
554 195.14227294921875 100 540.95654296875 185.030487060546875 0
554 189.14227294921875 100 540.95654296875 185.030487060546875 0
317 189.14227294921875 0 312.627105712890625 185.936477661132812 0
317 195.14227294921875 0 312.627105712890625 185.936477661132812 0
317 195.14227294921875 100 312.627105712890625 185.936477661132812 0
317 189.14227294921875 100 312.627105712890625 185.936477661132812 0
258 189.14227294921875 0 252.627120971679688 185.936477661132812 0
258 195.14227294921875 0 252.627120971679688 185.936477661132812 0
258 195.14227294921875 100 252.627120971679688 185.936477661132812 0
258 189.14227294921875 100 252.627120971679688 185.936477661132812 0
351 265.7796630859375 0 339.89654541015625 256.614837646484375 0
351 271.7796630859375 0 339.89654541015625 256.614837646484375 0
351 271.7796630859375 100 339.89654541015625 256.614837646484375 0
351 265.7796630859375 100 339.89654541015625 256.614837646484375 0
322 265.7796630859375 0 309.89654541015625 256.614837646484375 0
322 271.7796630859375 0 309.89654541015625 256.614837646484375 0
322 271.7796630859375 100 309.89654541015625 256.614837646484375 0
322 265.7796630859375 100 309.89654541015625 256.614837646484375 0
319 265.7796630859375 0 301.23529052734375 250.14556884765625 0
319 271.7796630859375 0 301.23529052734375 250.14556884765625 0
319 271.7796630859375 100 301.23529052734375 250.14556884765625 0
319 265.7796630859375 100 301.23529052734375 250.14556884765625 0
302 265.7796630859375 0 283.23529052734375 250.14556884765625 0
302 271.7796630859375 0 283.23529052734375 250.14556884765625 0
302 271.7796630859375 100 283.23529052734375 250.14556884765625 0
302 265.7796630859375 100 283.23529052734375 250.14556884765625 0
456 161 0 414.545440673828125 147.363632202148438 0
450 161 0 414.545440673828125 147.363632202148438 0
450 161 100 414.545440673828125 147.363632202148438 0
456 161 100 414.545440673828125 147.363632202148438 0
456 150 0 414.545440673828125 135.363632202148438 0
450 150 0 414.545440673828125 135.363632202148438 0
450 150 100 414.545440673828125 135.363632202148438 0
456 150 100 414.545440673828125 135.363632202148438 0
315 245 0 291.76922607421875 226.153839111328125 0
315 251 0 291.76922607421875 226.153839111328125 0
315 251 100 291.76922607421875 226.153839111328125 0
315 245 100 291.76922607421875 226.153839111328125 0
302 245 0 277.76922607421875 226.153839111328125 0
302 251 0 277.76922607421875 226.153839111328125 0
302 251 100 277.76922607421875 226.153839111328125 0
302 245 100 277.76922607421875 226.153839111328125 0
686.99029541015625 189.142288208007812 0 669.23846435546875 184.533416748046875 0
687.00970458984375 195.142257690429688 0 669.23846435546875 184.533416748046875 0
687.00970458984375 195.142257690429688 100 669.23846435546875 184.533416748046875 0
686.99029541015625 189.142288208007812 100 669.23846435546875 184.533416748046875 0
607.10345458984375 128.98651123046875 0 576.7735595703125 121.541603088378906 0
613.1033935546875 129.01348876953125 0 576.7735595703125 121.541603088378906 0
613.1033935546875 129.01348876953125 100 576.7735595703125 121.541603088378906 0
607.10345458984375 128.98651123046875 100 576.7735595703125 121.541603088378906 0
613.10247802734375 46.9231796264648438 0 593.96954345703125 44.4611473083496094 0
607.10443115234375 47.0768203735351562 0 593.96954345703125 44.4611473083496094 0
607.10443115234375 47.0768203735351562 100 593.96954345703125 44.4611473083496094 0
613.10247802734375 46.9231796264648438 100 593.96954345703125 44.4611473083496094 0
453 229.465850830078125 0 0 0 -1
453 235.465850830078125 0 0 0 -1
302 235.465850830078125 0 0 0 -1
302 229.465850830078125 0 0 0 -1
453 229.465850830078125 100 0 0 1
453 235.465850830078125 100 0 0 1
302 235.465850830078125 100 0 0 1
302 229.465850830078125 100 0 0 1
258 229.465850830078125 0 0 0 -1
258 235.465850830078125 0 0 0 -1
125 235.465850830078125 0 0 0 -1
125 229.465850830078125 0 0 0 -1
258 229.465850830078125 100 0 0 1
258 235.465850830078125 100 0 0 1
125 235.465850830078125 100 0 0 1
125 229.465850830078125 100 0 0 1
393 301.82806396484375 0 0 0 -1
393 307.82806396484375 0 0 0 -1
302 307.82806396484375 0 0 0 -1
302 301.82806396484375 0 0 0 -1
393 301.82806396484375 100 0 0 1
393 307.82806396484375 100 0 0 1
302 307.82806396484375 100 0 0 1
302 301.82806396484375 100 0 0 1
318 112.940635681152344 0 0 0 -1
318 118.940635681152344 0 0 0 -1
181 118.940635681152344 0 0 0 -1
181 112.940635681152344 0 0 0 -1
318 112.940635681152344 100 0 0 1
318 118.940635681152344 100 0 0 1
181 118.940635681152344 100 0 0 1
181 112.940635681152344 100 0 0 1
154 112.940635681152344 0 0 0 -1
154 118.940635681152344 0 0 0 -1
127 118.940635681152344 0 0 0 -1
127 112.940635681152344 0 0 0 -1
154 112.940635681152344 100 0 0 1
154 118.940635681152344 100 0 0 1
127 118.940635681152344 100 0 0 1
127 112.940635681152344 100 0 0 1
454 52.0906600952148438 0 0 0 -1
454 58.0906600952148438 0 0 0 -1
368 58.0906600952148438 0 0 0 -1
368 52.0906600952148438 0 0 0 -1
454 52.0906600952148438 100 0 0 1
454 58.0906600952148438 100 0 0 1
368 58.0906600952148438 100 0 0 1
368 52.0906600952148438 100 0 0 1
221 52.0906600952148438 0 0 0 -1
221 58.0906600952148438 0 0 0 -1
127 58.0906600952148438 0 0 0 -1
127 52.0906600952148438 0 0 0 -1
221 52.0906600952148438 100 0 0 1
221 58.0906600952148438 100 0 0 1
127 58.0906600952148438 100 0 0 1
127 52.0906600952148438 100 0 0 1
331 52.0906600952148438 0 0 0 -1
331 58.0906600952148438 0 0 0 -1
242 58.0906600952148438 0 0 0 -1
242 52.0906600952148438 0 0 0 -1
331 52.0906600952148438 100 0 0 1
331 58.0906600952148438 100 0 0 1
242 58.0906600952148438 100 0 0 1
242 52.0906600952148438 100 0 0 1
392 388.05633544921875 0 0 0 -1
392 394.05633544921875 0 0 0 -1
360 394.05633544921875 0 0 0 -1
360 388.05633544921875 0 0 0 -1
392 388.05633544921875 100 0 0 1
392 394.05633544921875 100 0 0 1
360 394.05633544921875 100 0 0 1
360 388.05633544921875 100 0 0 1
298 388.05633544921875 0 0 0 -1
298 394.05633544921875 0 0 0 -1
256 394.05633544921875 0 0 0 -1
256 388.05633544921875 0 0 0 -1
298 388.05633544921875 100 0 0 1
298 394.05633544921875 100 0 0 1
256 394.05633544921875 100 0 0 1
256 388.05633544921875 100 0 0 1
555 207 0 0 0 -1
549 207 0 0 0 -1
549 149 0 0 0 -1
555 155 0 0 0 -1
555 207 100 0 0 1
549 207 100 0 0 1
549 149 100 0 0 1
555 155 100 0 0 1
555 155 0 0 0 -1
549 149 0 0 0 -1
607.01348876953125 149 0 0 0 -1
612.98651123046875 155 0 0 0 -1
555 155 100 0 0 1
549 149 100 0 0 1
607.01348876953125 149 100 0 0 1
612.98651123046875 155 100 0 0 1
170 449.335723876953125 0 0 0 -1
170 455.335723876953125 0 0 0 -1
123 455.335723876953125 0 0 0 -1
123 449.335723876953125 0 0 0 -1
170 449.335723876953125 100 0 0 1
170 455.335723876953125 100 0 0 1
123 455.335723876953125 100 0 0 1
123 449.335723876953125 100 0 0 1
257 449.335723876953125 0 0 0 -1
257 455.335723876953125 0 0 0 -1
211 455.335723876953125 0 0 0 -1
211 449.335723876953125 0 0 0 -1
257 449.335723876953125 100 0 0 1
257 455.335723876953125 100 0 0 1
211 455.335723876953125 100 0 0 1
211 449.335723876953125 100 0 0 1
218 290.49664306640625 0 0 0 -1
218 296.49664306640625 0 0 0 -1
125 296.49664306640625 0 0 0 -1
125 290.49664306640625 0 0 0 -1
218 290.49664306640625 100 0 0 1
218 296.49664306640625 100 0 0 1
125 296.49664306640625 100 0 0 1
125 290.49664306640625 100 0 0 1
257 316.504852294921875 0 0 0 -1
257 322.504852294921875 0 0 0 -1
205 322.504852294921875 0 0 0 -1
205 316.504852294921875 0 0 0 -1
257 316.504852294921875 100 0 0 1
257 322.504852294921875 100 0 0 1
205 322.504852294921875 100 0 0 1
205 316.504852294921875 100 0 0 1
600 189.14227294921875 0 0 0 -1
600 195.14227294921875 0 0 0 -1
554 195.14227294921875 0 0 0 -1
554 189.14227294921875 0 0 0 -1
600 189.14227294921875 100 0 0 1
600 195.14227294921875 100 0 0 1
554 195.14227294921875 100 0 0 1
554 189.14227294921875 100 0 0 1
317 189.14227294921875 0 0 0 -1
317 195.14227294921875 0 0 0 -1
258 195.14227294921875 0 0 0 -1
258 189.14227294921875 0 0 0 -1
317 189.14227294921875 100 0 0 1
317 195.14227294921875 100 0 0 1
258 195.14227294921875 100 0 0 1
258 189.14227294921875 100 0 0 1
351 265.7796630859375 0 0 0 -1
351 271.7796630859375 0 0 0 -1
322 271.7796630859375 0 0 0 -1
322 265.7796630859375 0 0 0 -1
351 265.7796630859375 100 0 0 1
351 271.7796630859375 100 0 0 1
322 271.7796630859375 100 0 0 1
322 265.7796630859375 100 0 0 1
319 265.7796630859375 0 0 0 -1
319 271.7796630859375 0 0 0 -1
302 271.7796630859375 0 0 0 -1
302 265.7796630859375 0 0 0 -1
319 265.7796630859375 100 0 0 1
319 271.7796630859375 100 0 0 1
302 271.7796630859375 100 0 0 1
302 265.7796630859375 100 0 0 1
456 161 0 0 0 -1
450 161 0 0 0 -1
450 150 0 0 0 -1
456 150 0 0 0 -1
456 161 100 0 0 1
450 161 100 0 0 1
450 150 100 0 0 1
456 150 100 0 0 1
315 245 0 0 0 -1
315 251 0 0 0 -1
302 251 0 0 0 -1
302 245 0 0 0 -1
315 245 100 0 0 1
315 251 100 0 0 1
302 251 100 0 0 1
302 245 100 0 0 1
728 85 0 0 0 -1
734 79 0 0 0 -1
734 194.990310668945312 0 0 0 -1
728 189.009689331054688 0 0 0 -1
728 85 100 0 0 1
734 79 100 0 0 1
734 194.990310668945312 100 0 0 1
728 189.009689331054688 100 0 0 1
734 79 0 0 0 -1
728 85 0 0 0 -1
608.07586669921875 85 0 0 0 -1
613.92413330078125 79 0 0 0 -1
734 79 100 0 0 1
728 85 100 0 0 1
608.07586669921875 85 100 0 0 1
613.92413330078125 79 100 0 0 1
728 189.009689331054688 0 0 0 -1
734 194.990310668945312 0 0 0 -1
687.00970458984375 195.142257690429688 0 0 0 -1
686.99029541015625 189.142288208007812 0 0 0 -1
728 189.009689331054688 100 0 0 1
734 194.990310668945312 100 0 0 1
687.00970458984375 195.142257690429688 100 0 0 1
686.99029541015625 189.142288208007812 100 0 0 1
607.10345458984375 128.98651123046875 0 0 0 -1
613.1033935546875 129.01348876953125 0 0 0 -1
612.98651123046875 155 0 0 0 -1
607.01348876953125 149 0 0 0 -1
607.10345458984375 128.98651123046875 100 0 0 1
613.1033935546875 129.01348876953125 100 0 0 1
612.98651123046875 155 100 0 0 1
607.01348876953125 149 100 0 0 1
613.92413330078125 79 0 0 0 -1
608.07586669921875 85 0 0 0 -1
607.10443115234375 47.0768203735351562 0 0 0 -1
613.10247802734375 46.9231796264648438 0 0 0 -1
613.92413330078125 79 100 0 0 1
608.07586669921875 85 100 0 0 1
607.10443115234375 47.0768203735351562 100 0 0 1
613.10247802734375 46.9231796264648438 100 0 0 1
4 0 1 2 3
4 4 5 6 7
4 8 9 10 11
4 12 13 14 15
4 16 17 18 19
4 20 21 22 23
4 24 25 26 27
4 28 29 30 31
4 32 33 34 35
4 36 37 38 39
4 40 41 42 43
4 44 45 46 47
4 48 49 50 51
4 52 53 54 55
4 56 57 58 59
4 60 61 62 63
4 64 65 66 67
4 68 69 70 71
4 72 73 74 75
4 76 77 78 79
4 80 81 82 83
4 84 85 86 87
4 88 89 90 91
4 92 93 94 95
4 96 97 98 99
4 100 101 102 103
4 104 105 106 107
4 108 109 110 111
4 112 113 114 115
4 116 117 118 119
4 120 121 122 123
4 124 125 126 127
4 128 129 130 131
4 132 133 134 135
4 136 137 138 139
4 140 141 142 143
4 144 145 146 147
4 148 149 150 151
4 152 153 154 155
4 156 157 158 159
4 160 161 162 163
4 164 165 166 167
4 168 169 170 171
4 172 173 174 175
4 176 177 178 179
4 180 181 182 183
4 184 185 186 187
4 188 189 190 191
4 192 193 194 195
4 196 197 198 199
4 200 201 202 203
4 204 205 206 207
4 208 209 210 211
4 212 213 214 215
4 216 217 218 219
4 220 221 222 223
4 224 225 226 227
4 228 229 230 231
4 232 233 234 235
4 236 237 238 239
4 240 241 242 243
4 244 245 246 247
4 248 249 250 251
4 252 253 254 255
4 256 257 258 259
4 260 261 262 263
4 264 265 266 267
4 268 269 270 271
4 272 273 274 275
4 276 277 278 279
4 280 281 282 283
4 284 285 286 287
4 288 289 290 291
4 292 293 294 295
4 296 297 298 299
4 300 301 302 303
4 304 305 306 307
4 308 309 310 311
4 312 313 314 315
4 316 317 318 319
4 320 321 322 323
4 324 325 326 327
4 328 329 330 331
4 332 333 334 335
4 336 337 338 339
4 340 341 342 343
4 344 345 346 347
4 348 349 350 351
4 352 353 354 355
4 356 357 358 359
4 360 361 362 363
4 364 365 366 367
4 368 369 370 371
4 372 373 374 375
4 376 377 378 379
4 380 381 382 383
4 384 385 386 387
4 388 389 390 391
4 392 393 394 395
4 396 397 398 399
4 400 401 402 403
4 404 405 406 407
4 408 409 410 411
4 412 413 414 415
4 416 417 418 419
4 420 421 422 423
4 424 425 426 427
4 428 429 430 431
4 432 433 434 435
4 436 437 438 439
4 440 441 442 443
4 444 445 446 447
4 448 449 450 451
4 452 453 454 455
4 456 457 458 459
4 460 461 462 463
4 464 465 466 467
4 468 469 470 471
4 472 473 474 475
4 476 477 478 479
4 480 481 482 483
4 484 485 486 487
4 488 489 490 491
4 492 493 494 495
4 496 497 498 499
4 500 501 502 503
4 504 505 506 507
4 508 509 510 511
4 512 513 514 515
4 516 517 518 519
4 520 521 522 523
4 524 525 526 527
4 528 529 530 531
4 532 533 534 535
4 536 537 538 539
4 540 541 542 543
4 544 545 546 547
4 548 549 550 551
4 552 553 554 555
4 556 557 558 559
4 560 561 562 563
4 564 565 566 567
4 568 569 570 571
4 572 573 574 575
4 576 577 578 579
4 580 581 582 583
4 584 585 586 587
4 588 589 590 591
4 592 593 594 595
4 596 597 598 599
4 600 601 602 603
4 604 605 606 607
