ply
format ascii 1.0
element vertex 520
property float x
property float y
property float z
property float nx
property float ny
property float nz
element quads 130
property list uchar int vertex_indices
end_header
160.25 533 0 1 0 0
160.25 512 0 1 0 0
160.25 512 100 1 0 0
160.25 533 100 1 0 0
159.75 533 0 -1 -0 0
159.75 512 0 -1 -0 0
159.75 512 100 -1 -0 0
159.75 533 100 -1 -0 0
568 418.25 0 -0 1 0
720.25 418.25 0 -0 1 0
720.25 418.25 100 -0 1 0
568 418.25 100 -0 1 0
568 417.75 0 0 -1 0
719.75 417.75 0 0 -1 0
719.75 417.75 100 0 -1 0
568 417.75 100 0 -1 0
720.25 418.25 0 1 0 0
720.25 150.75 0 1 0 0
720.25 150.75 100 1 0 0
720.25 418.25 100 1 0 0
719.75 417.75 0 -1 -0 0
719.75 151.25 0 -1 -0 0
719.75 151.25 100 -1 -0 0
719.75 417.75 100 -1 -0 0
381.25 295 0 1 0 0
381.25 253 0 1 0 0
381.25 253 100 1 0 0
381.25 295 100 1 0 0
380.75 295 0 -1 -0 0
380.75 253 0 -1 -0 0
380.75 253 100 -1 -0 0
380.75 295 100 -1 -0 0
492 98.25 0 -0 1 0
567.75 98.25 0 -0 1 0
567.75 98.25 100 -0 1 0
492 98.25 100 -0 1 0
492 97.75 0 0 -1 0
568.25 97.75 0 0 -1 0
568.25 97.75 100 0 -1 0
492 97.75 100 0 -1 0
567.75 98.25 0 -1 0 0
567.75 206 0 -1 0 0
567.75 206 100 -1 0 0
567.75 98.25 100 -1 0 0
568.25 97.75 0 1 -0 0
568.25 206 0 1 -0 0
568.25 206 100 1 -0 0
568.25 97.75 100 1 -0 0
674 151.25 0 -0 1 0
719.75 151.25 0 -0 1 0
719.75 151.25 100 -0 1 0
674 151.25 100 -0 1 0
674 150.75 0 0 -1 0
720.25 150.75 0 0 -1 0
720.25 150.75 100 0 -1 0
674 150.75 100 0 -1 0
457.25 395.25 0 -0 1 0
488 395.25 0 -0 1 0
488 395.25 100 -0 1 0
457.25 395.25 100 -0 1 0
456.75 394.75 0 0 -1 0
488 394.75 0 0 -1 0
488 394.75 100 0 -1 0
456.75 394.75 100 0 -1 0
456.75 394.75 0 -1 0 0
456.75 469 0 -1 0 0
456.75 469 100 -1 0 0
456.75 394.75 100 -1 0 0
457.25 395.25 0 1 -0 0
457.25 469 0 1 -0 0
457.25 469 100 1 -0 0
457.25 395.25 100 1 -0 0
227.25 254 0 1 0 0
227.25 210 0 1 0 0
227.25 210 100 1 0 0
227.25 254 100 1 0 0
226.75 254 0 -1 -0 0
226.75 210 0 -1 -0 0
226.75 210 100 -1 -0 0
226.75 254 100 -1 -0 0
381.25 98.25 0 -0 1 0
438 98.25 0 -0 1 0
438 98.25 100 -0 1 0
381.25 98.25 100 -0 1 0
380.75 97.75 0 0 -1 0
438 97.75 0 0 -1 0
438 97.75 100 0 -1 0
380.75 97.75 100 0 -1 0
380.75 97.75 0 -1 0 0
380.75 159 0 -1 0 0
380.75 159 100 -1 0 0
380.75 97.75 100 -1 0 0
381.25 98.25 0 1 -0 0
381.25 159 0 1 -0 0
381.25 159 100 1 -0 0
381.25 98.25 100 1 -0 0
570 151.25 0 -0 1 0
610 151.25 0 -0 1 0
610 151.25 100 -0 1 0
570 151.25 100 -0 1 0
570 150.75 0 0 -1 0
610 150.75 0 0 -1 0
610 150.75 100 0 -1 0
570 150.75 100 0 -1 0
567.75 361 0 -1 0 0
567.75 469 0 -1 0 0
567.75 469 100 -1 0 0
567.75 361 100 -1 0 0
568.25 361 0 1 -0 0
568.25 469 0 1 -0 0
568.25 469 100 1 -0 0
568.25 361 100 1 -0 0
349.75 413 0 -1 0 0
349.75 529.75 0 -1 0 0
349.75 529.75 100 -1 0 0
349.75 413 100 -1 0 0
350.25 413 0 1 -0 0
350.25 530.25 0 1 -0 0
350.25 530.25 100 1 -0 0
350.25 413 100 1 -0 0
349.75 529.75 0 -0 -1 0
106 529.75 0 -0 -1 0
106 529.75 100 -0 -1 0
349.75 529.75 100 -0 -1 0
350.25 530.25 0 0 1 0
106 530.25 0 0 1 0
106 530.25 100 0 1 0
350.25 530.25 100 0 1 0
159.75 137.75 0 -1 0 0
159.75 364 0 -1 0 0
159.75 364 100 -1 0 0
159.75 137.75 100 -1 0 0
160.25 138.25 0 1 -0 0
160.25 364 0 1 -0 0
160.25 364 100 1 -0 0
160.25 138.25 100 1 -0 0
160.25 138.25 0 -0 1 0
295 138.25 0 -0 1 0
295 138.25 100 -0 1 0
160.25 138.25 100 -0 1 0
159.75 137.75 0 0 -1 0
295 137.75 0 0 -1 0
295 137.75 100 0 -1 0
159.75 137.75 100 0 -1 0
548.75 261 0 -1 0 0
548.75 397 0 -1 0 0
548.75 397 100 -1 0 0
548.75 261 100 -1 0 0
549.25 261 0 1 -0 0
549.25 397 0 1 -0 0
549.25 397 100 1 -0 0
549.25 261 100 1 -0 0
570 138.25 0 -0 1 0
611 138.25 0 -0 1 0
611 138.25 100 -0 1 0
570 138.25 100 -0 1 0
570 137.75 0 0 -1 0
611 137.75 0 0 -1 0
611 137.75 100 0 -1 0
570 137.75 100 0 -1 0
540 395.25 0 -0 1 0
569 395.25 0 -0 1 0
569 395.25 100 -0 1 0
540 395.25 100 -0 1 0
540 394.75 0 0 -1 0
569 394.75 0 0 -1 0
569 394.75 100 0 -1 0
540 394.75 100 0 -1 0
164 337.25 0 -0 1 0
293 337.25 0 -0 1 0
293 337.25 100 -0 1 0
164 337.25 100 -0 1 0
164 336.75 0 0 -1 0
293 336.75 0 0 -1 0
293 336.75 100 0 -1 0
164 336.75 100 0 -1 0
600.75 280 0 -1 0 0
600.75 339 0 -1 0 0
600.75 339 100 -1 0 0
600.75 280 100 -1 0 0
601.25 280 0 1 -0 0
601.25 339 0 1 -0 0
601.25 339 100 1 -0 0
601.25 280 100 1 -0 0
548.75 153 0 -1 0 0
548.75 213 0 -1 0 0
548.75 213 100 -1 0 0
548.75 153 100 -1 0 0
549.25 153 0 1 -0 0
549.25 213 0 1 -0 0
549.25 213 100 1 -0 0
549.25 153 100 1 -0 0
160.25 533 0 152.619049072265625 508.619049072265625 0
159.75 533 0 152.619049072265625 508.619049072265625 0
159.75 533 100 152.619049072265625 508.619049072265625 0
160.25 533 100 152.619049072265625 508.619049072265625 0
160.25 512 0 152.619049072265625 486.619049072265625 0
159.75 512 0 152.619049072265625 486.619049072265625 0
159.75 512 100 152.619049072265625 486.619049072265625 0
160.25 512 100 152.619049072265625 486.619049072265625 0
568 418.25 0 563.269287109375 415.50286865234375 0
568 417.75 0 563.269287109375 415.50286865234375 0
568 417.75 100 563.269287109375 415.50286865234375 0
568 418.25 100 563.269287109375 415.50286865234375 0
381.25 295 0 372.172607421875 288.9761962890625 0
380.75 295 0 372.172607421875 288.9761962890625 0
380.75 295 100 372.172607421875 288.9761962890625 0
381.25 295 100 372.172607421875 288.9761962890625 0
381.25 253 0 372.172607421875 245.9761962890625 0
380.75 253 0 372.172607421875 245.9761962890625 0
380.75 253 100 372.172607421875 245.9761962890625 0
381.25 253 100 372.172607421875 245.9761962890625 0
492 98.25 0 484.50494384765625 96.952972412109375 0
492 97.75 0 484.50494384765625 96.952972412109375 0
492 97.75 100 484.50494384765625 96.952972412109375 0
492 98.25 100 484.50494384765625 96.952972412109375 0
674 151.25 0 658.26776123046875 147.943984985351562 0
674 150.75 0 658.26776123046875 147.943984985351562 0
674 150.75 100 658.26776123046875 147.943984985351562 0
674 151.25 100 658.26776123046875 147.943984985351562 0
488 395.25 0 473.130096435546875 382.396331787109375 0
488 394.75 0 473.130096435546875 382.396331787109375 0
488 394.75 100 473.130096435546875 382.396331787109375 0
488 395.25 100 473.130096435546875 382.396331787109375 0
227.25 254 0 222.085220336914062 249.227279663085938 0
226.75 254 0 222.085220336914062 249.227279663085938 0
226.75 254 100 222.085220336914062 249.227279663085938 0
227.25 254 100 222.085220336914062 249.227279663085938 0
227.25 210 0 222.085220336914062 204.227279663085938 0
226.75 210 0 222.085220336914062 204.227279663085938 0
226.75 210 100 222.085220336914062 204.227279663085938 0
227.25 210 100 222.085220336914062 204.227279663085938 0
438 98.25 0 431.281951904296875 96.5187225341796875 0
438 97.75 0 431.281951904296875 96.5187225341796875 0
438 97.75 100 431.281951904296875 96.5187225341796875 0
438 98.25 100 431.281951904296875 96.5187225341796875 0
570 151.25 0 554.75 147.46875 0
570 150.75 0 554.75 147.46875 0
570 150.75 100 554.75 147.46875 0
570 151.25 100 554.75 147.46875 0
610 151.25 0 595.75 147.46875 0
610 150.75 0 595.75 147.46875 0
610 150.75 100 595.75 147.46875 0
610 151.25 100 595.75 147.46875 0
567.75 361 0 562.4930419921875 356.65740966796875 0
568.25 361 0 562.4930419921875 356.65740966796875 0
568.25 361 100 562.4930419921875 356.65740966796875 0
567.75 361 100 562.4930419921875 356.65740966796875 0
567.75 469 0 562.4930419921875 465.65740966796875 0
568.25 469 0 562.4930419921875 465.65740966796875 0
568.25 469 100 562.4930419921875 465.65740966796875 0
567.75 469 100 562.4930419921875 465.65740966796875 0
380.75 159 0 374.533660888671875 157.404083251953125 0
381.25 159 0 374.533660888671875 157.404083251953125 0
381.25 159 100 374.533660888671875 157.404083251953125 0
380.75 159 100 374.533660888671875 157.404083251953125 0
349.75 413 0 346.7542724609375 408.4625244140625 0
350.25 413 0 346.7542724609375 408.4625244140625 0
350.25 413 100 346.7542724609375 408.4625244140625 0
349.75 413 100 346.7542724609375 408.4625244140625 0
159.75 364 0 159.043930053710938 363.39117431640625 0
160.25 364 0 159.043930053710938 363.39117431640625 0
160.25 364 100 159.043930053710938 363.39117431640625 0
159.75 364 100 159.043930053710938 363.39117431640625 0
548.75 261 0 544.715087890625 258.08087158203125 0
549.25 261 0 544.715087890625 258.08087158203125 0
549.25 261 100 544.715087890625 258.08087158203125 0
548.75 261 100 544.715087890625 258.08087158203125 0
548.75 397 0 544.715087890625 395.08087158203125 0
549.25 397 0 544.715087890625 395.08087158203125 0
549.25 397 100 544.715087890625 395.08087158203125 0
548.75 397 100 544.715087890625 395.08087158203125 0
570 138.25 0 555.0975341796875 134.8780517578125 0
570 137.75 0 555.0975341796875 134.8780517578125 0
570 137.75 100 555.0975341796875 134.8780517578125 0
570 138.25 100 555.0975341796875 134.8780517578125 0
611 138.25 0 597.0975341796875 134.8780517578125 0
611 137.75 0 597.0975341796875 134.8780517578125 0
611 137.75 100 597.0975341796875 134.8780517578125 0
611 138.25 100 597.0975341796875 134.8780517578125 0
540 395.25 0 520.37933349609375 381.620697021484375 0
540 394.75 0 520.37933349609375 381.620697021484375 0
540 394.75 100 520.37933349609375 381.620697021484375 0
540 395.25 100 520.37933349609375 381.620697021484375 0
569 395.25 0 550.37933349609375 381.620697021484375 0
569 394.75 0 550.37933349609375 381.620697021484375 0
569 394.75 100 550.37933349609375 381.620697021484375 0
569 395.25 100 550.37933349609375 381.620697021484375 0
106 529.75 0 104.56512451171875 527.57666015625 0
106 530.25 0 104.56512451171875 527.57666015625 0
106 530.25 100 104.56512451171875 527.57666015625 0
106 529.75 100 104.56512451171875 527.57666015625 0
164 337.25 0 161.728683471679688 334.635650634765625 0
164 336.75 0 161.728683471679688 334.635650634765625 0
164 336.75 100 161.728683471679688 334.635650634765625 0
164 337.25 100 161.728683471679688 334.635650634765625 0
293 337.25 0 291.728668212890625 334.635650634765625 0
293 336.75 0 291.728668212890625 334.635650634765625 0
293 336.75 100 291.728668212890625 334.635650634765625 0
293 337.25 100 291.728668212890625 334.635650634765625 0
600.75 280 0 590.56781005859375 274.254241943359375 0
601.25 280 0 590.56781005859375 274.254241943359375 0
601.25 280 100 590.56781005859375 274.254241943359375 0
600.75 280 100 590.56781005859375 274.254241943359375 0
600.75 339 0 590.56781005859375 334.254241943359375 0
601.25 339 0 590.56781005859375 334.254241943359375 0
601.25 339 100 590.56781005859375 334.254241943359375 0
600.75 339 100 590.56781005859375 334.254241943359375 0
456.75 469 0 450.598480224609375 463.683502197265625 0
457.25 469 0 450.598480224609375 463.683502197265625 0
457.25 469 100 450.598480224609375 463.683502197265625 0
456.75 469 100 450.598480224609375 463.683502197265625 0
295 138.25 0 293.810760498046875 137.224029541015625 0
295 137.75 0 293.810760498046875 137.224029541015625 0
295 137.75 100 293.810760498046875 137.224029541015625 0
295 138.25 100 293.810760498046875 137.224029541015625 0
548.75 153 0 539.60418701171875 149.449996948242188 0
549.25 153 0 539.60418701171875 149.449996948242188 0
549.25 153 100 539.60418701171875 149.449996948242188 0
548.75 153 100 539.60418701171875 149.449996948242188 0
548.75 213 0 539.60418701171875 210.449996948242188 0
549.25 213 0 539.60418701171875 210.449996948242188 0
549.25 213 100 539.60418701171875 210.449996948242188 0
548.75 213 100 539.60418701171875 210.449996948242188 0
567.75 206 0 562.4808349609375 205.088165283203125 0
568.25 206 0 562.4808349609375 205.088165283203125 0
568.25 206 100 562.4808349609375 205.088165283203125 0
567.75 206 100 562.4808349609375 205.088165283203125 0
160.25 533 0 0 0 -1
159.75 533 0 0 0 -1
159.75 512 0 0 0 -1
160.25 512 0 0 0 -1
160.25 533 100 0 0 1
159.75 533 100 0 0 1
159.75 512 100 0 0 1
160.25 512 100 0 0 1
568 418.25 0 0 0 -1
568 417.75 0 0 0 -1
719.75 417.75 0 0 0 -1
720.25 418.25 0 0 0 -1
568 418.25 100 0 0 1
568 417.75 100 0 0 1
719.75 417.75 100 0 0 1
720.25 418.25 100 0 0 1
720.25 418.25 0 0 0 -1
719.75 417.75 0 0 0 -1
719.75 151.25 0 0 0 -1
720.25 150.75 0 0 0 -1
720.25 418.25 100 0 0 1
719.75 417.75 100 0 0 1
719.75 151.25 100 0 0 1
720.25 150.75 100 0 0 1
381.25 295 0 0 0 -1
380.75 295 0 0 0 -1
380.75 253 0 0 0 -1
381.25 253 0 0 0 -1
381.25 295 100 0 0 1
380.75 295 100 0 0 1
380.75 253 100 0 0 1
381.25 253 100 0 0 1
492 98.25 0 0 0 -1
492 97.75 0 0 0 -1
568.25 97.75 0 0 0 -1
567.75 98.25 0 0 0 -1
492 98.25 100 0 0 1
492 97.75 100 0 0 1
568.25 97.75 100 0 0 1
567.75 98.25 100 0 0 1
567.75 98.25 0 0 0 -1
568.25 97.75 0 0 0 -1
568.25 206 0 0 0 -1
567.75 206 0 0 0 -1
567.75 98.25 100 0 0 1
568.25 97.75 100 0 0 1
568.25 206 100 0 0 1
567.75 206 100 0 0 1
674 151.25 0 0 0 -1
674 150.75 0 0 0 -1
720.25 150.75 0 0 0 -1
719.75 151.25 0 0 0 -1
674 151.25 100 0 0 1
674 150.75 100 0 0 1
720.25 150.75 100 0 0 1
719.75 151.25 100 0 0 1
457.25 395.25 0 0 0 -1
456.75 394.75 0 0 0 -1
488 394.75 0 0 0 -1
488 395.25 0 0 0 -1
457.25 395.25 100 0 0 1
456.75 394.75 100 0 0 1
488 394.75 100 0 0 1
488 395.25 100 0 0 1
456.75 394.75 0 0 0 -1
457.25 395.25 0 0 0 -1
457.25 469 0 0 0 -1
456.75 469 0 0 0 -1
456.75 394.75 100 0 0 1
457.25 395.25 100 0 0 1
457.25 469 100 0 0 1
456.75 469 100 0 0 1
227.25 254 0 0 0 -1
226.75 254 0 0 0 -1
226.75 210 0 0 0 -1
227.25 210 0 0 0 -1
227.25 254 100 0 0 1
226.75 254 100 0 0 1
226.75 210 100 0 0 1
227.25 210 100 0 0 1
381.25 98.25 0 0 0 -1
380.75 97.75 0 0 0 -1
438 97.75 0 0 0 -1
438 98.25 0 0 0 -1
381.25 98.25 100 0 0 1
380.75 97.75 100 0 0 1
438 97.75 100 0 0 1
438 98.25 100 0 0 1
380.75 97.75 0 0 0 -1
381.25 98.25 0 0 0 -1
381.25 159 0 0 0 -1
380.75 159 0 0 0 -1
380.75 97.75 100 0 0 1
381.25 98.25 100 0 0 1
381.25 159 100 0 0 1
380.75 159 100 0 0 1
570 151.25 0 0 0 -1
570 150.75 0 0 0 -1
610 150.75 0 0 0 -1
610 151.25 0 0 0 -1
570 151.25 100 0 0 1
570 150.75 100 0 0 1
610 150.75 100 0 0 1
610 151.25 100 0 0 1
567.75 361 0 0 0 -1
568.25 361 0 0 0 -1
568.25 469 0 0 0 -1
567.75 469 0 0 0 -1
567.75 361 100 0 0 1
568.25 361 100 0 0 1
568.25 469 100 0 0 1
567.75 469 100 0 0 1
349.75 413 0 0 0 -1
350.25 413 0 0 0 -1
350.25 530.25 0 0 0 -1
349.75 529.75 0 0 0 -1
349.75 413 100 0 0 1
350.25 413 100 0 0 1
350.25 530.25 100 0 0 1
349.75 529.75 100 0 0 1
349.75 529.75 0 0 0 -1
350.25 530.25 0 0 0 -1
106 530.25 0 0 0 -1
106 529.75 0 0 0 -1
349.75 529.75 100 0 0 1
350.25 530.25 100 0 0 1
106 530.25 100 0 0 1
106 529.75 100 0 0 1
159.75 137.75 0 0 0 -1
160.25 138.25 0 0 0 -1
160.25 364 0 0 0 -1
159.75 364 0 0 0 -1
159.75 137.75 100 0 0 1
160.25 138.25 100 0 0 1
160.25 364 100 0 0 1
159.75 364 100 0 0 1
160.25 138.25 0 0 0 -1
159.75 137.75 0 0 0 -1
295 137.75 0 0 0 -1
295 138.25 0 0 0 -1
160.25 138.25 100 0 0 1
159.75 137.75 100 0 0 1
295 137.75 100 0 0 1
295 138.25 100 0 0 1
548.75 261 0 0 0 -1
549.25 261 0 0 0 -1
549.25 397 0 0 0 -1
548.75 397 0 0 0 -1
548.75 261 100 0 0 1
549.25 261 100 0 0 1
549.25 397 100 0 0 1
548.75 397 100 0 0 1
570 138.25 0 0 0 -1
570 137.75 0 0 0 -1
611 137.75 0 0 0 -1
611 138.25 0 0 0 -1
570 138.25 100 0 0 1
570 137.75 100 0 0 1
611 137.75 100 0 0 1
611 138.25 100 0 0 1
540 395.25 0 0 0 -1
540 394.75 0 0 0 -1
569 394.75 0 0 0 -1
569 395.25 0 0 0 -1
540 395.25 100 0 0 1
540 394.75 100 0 0 1
569 394.75 100 0 0 1
569 395.25 100 0 0 1
164 337.25 0 0 0 -1
164 336.75 0 0 0 -1
293 336.75 0 0 0 -1
293 337.25 0 0 0 -1
164 337.25 100 0 0 1
164 336.75 100 0 0 1
293 336.75 100 0 0 1
293 337.25 100 0 0 1
600.75 280 0 0 0 -1
601.25 280 0 0 0 -1
601.25 339 0 0 0 -1
600.75 339 0 0 0 -1
600.75 280 100 0 0 1
601.25 280 100 0 0 1
601.25 339 100 0 0 1
600.75 339 100 0 0 1
548.75 153 0 0 0 -1
549.25 153 0 0 0 -1
549.25 213 0 0 0 -1
548.75 213 0 0 0 -1
548.75 153 100 0 0 1
549.25 153 100 0 0 1
549.25 213 100 0 0 1
548.75 213 100 0 0 1
4 0 1 2 3
4 4 5 6 7
4 8 9 10 11
4 12 13 14 15
4 16 17 18 19
4 20 21 22 23
4 24 25 26 27
4 28 29 30 31
4 32 33 34 35
4 36 37 38 39
4 40 41 42 43
4 44 45 46 47
4 48 49 50 51
4 52 53 54 55
4 56 57 58 59
4 60 61 62 63
4 64 65 66 67
4 68 69 70 71
4 72 73 74 75
4 76 77 78 79
4 80 81 82 83
4 84 85 86 87
4 88 89 90 91
4 92 93 94 95
4 96 97 98 99
4 100 101 102 103
4 104 105 106 107
4 108 109 110 111
4 112 113 114 115
4 116 117 118 119
4 120 121 122 123
4 124 125 126 127
4 128 129 130 131
4 132 133 134 135
4 136 137 138 139
4 140 141 142 143
4 144 145 146 147
4 148 149 150 151
4 152 153 154 155
4 156 157 158 159
4 160 161 162 163
4 164 165 166 167
4 168 169 170 171
4 172 173 174 175
4 176 177 178 179
4 180 181 182 183
4 184 185 186 187
4 188 189 190 191
4 192 193 194 195
4 196 197 198 199
4 200 201 202 203
4 204 205 206 207
4 208 209 210 211
4 212 213 214 215
4 216 217 218 219
4 220 221 222 223
4 224 225 226 227
4 228 229 230 231
4 232 233 234 235
4 236 237 238 239
4 240 241 242 243
4 244 245 246 247
4 248 249 250 251
4 252 253 254 255
4 256 257 258 259
4 260 261 262 263
4 264 265 266 267
4 268 269 270 271
4 272 273 274 275
4 276 277 278 279
4 280 281 282 283
4 284 285 286 287
4 288 289 290 291
4 292 293 294 295
4 296 297 298 299
4 300 301 302 303
4 304 305 306 307
4 308 309 310 311
4 312 313 314 315
4 316 317 318 319
4 320 321 322 323
4 324 325 326 327
4 328 329 330 331
4 332 333 334 335
4 336 337 338 339
4 340 341 342 343
4 344 345 346 347
4 348 349 350 351
4 352 353 354 355
4 356 357 358 359
4 360 361 362 363
4 364 365 366 367
4 368 369 370 371
4 372 373 374 375
4 376 377 378 379
4 380 381 382 383
4 384 385 386 387
4 388 389 390 391
4 392 393 394 395
4 396 397 398 399
4 400 401 402 403
4 404 405 406 407
4 408 409 410 411
4 412 413 414 415
4 416 417 418 419
4 420 421 422 423
4 424 425 426 427
4 428 429 430 431
4 432 433 434 435
4 436 437 438 439
4 440 441 442 443
4 444 445 446 447
4 448 449 450 451
4 452 453 454 455
4 456 457 458 459
4 460 461 462 463
4 464 465 466 467
4 468 469 470 471
4 472 473 474 475
4 476 477 478 479
4 480 481 482 483
4 484 485 486 487
4 488 489 490 491
4 492 493 494 495
4 496 497 498 499
4 500 501 502 503
4 504 505 506 507
4 508 509 510 511
4 512 513 514 515
4 516 517 518 519
