ply
format ascii 1.0
element vertex 704
property float x
property float y
property float z
property float nx
property float ny
property float nz
element quads 176
property list uchar int vertex_indices
end_header
408.25 427.75 0 1 0 0
408.25 372.75 0 1 0 0
408.25 372.75 100 1 0 0
408.25 427.75 100 1 0 0
407.75 428.25 0 -1 -0 0
407.75 373.25 0 -1 -0 0
407.75 373.25 100 -1 -0 0
407.75 428.25 100 -1 -0 0
407.75 428.25 0 -0 1 0
469.75 428.25 0 -0 1 0
469.75 428.25 100 -0 1 0
407.75 428.25 100 -0 1 0
408.25 427.75 0 0 -1 0
470.25 427.75 0 0 -1 0
470.25 427.75 100 0 -1 0
408.25 427.75 100 0 -1 0
408.25 372.75 0 -0 -1 0
337.896453857421875 372.75 0 -0 -1 0
337.896453857421875 372.75 100 -0 -1 0
408.25 372.75 100 -0 -1 0
407.75 373.25 0 0 1 0
338.103546142578125 373.25 0 0 1 0
338.103546142578125 373.25 100 0 1 0
407.75 373.25 100 0 1 0
213.25 28.25 0 -0 1 0
247 28.25 0 -0 1 0
247 28.25 100 -0 1 0
213.25 28.25 100 -0 1 0
212.75 27.75 0 0 -1 0
247 27.75 0 0 -1 0
247 27.75 100 0 -1 0
212.75 27.75 100 0 -1 0
212.75 27.75 0 -1 0 0
212.75 55.75 0 -1 0 0
212.75 55.75 100 -1 0 0
212.75 27.75 100 -1 0 0
213.25 28.25 0 1 -0 0
213.25 56.25 0 1 -0 0
213.25 56.25 100 1 -0 0
213.25 28.25 100 1 -0 0
269.25 54 0 1 0 0
269.25 28.25 0 1 0 0
269.25 28.25 100 1 0 0
269.25 54 100 1 0 0
268.75 54 0 -1 -0 0
268.75 27.75 0 -1 -0 0
268.75 27.75 100 -1 -0 0
268.75 54 100 -1 -0 0
269.25 28.25 0 -0 1 0
385 28.25 0 -0 1 0
385 28.25 100 -0 1 0
269.25 28.25 100 -0 1 0
268.75 27.75 0 0 -1 0
385 27.75 0 0 -1 0
385 27.75 100 0 -1 0
268.75 27.75 100 0 -1 0
469.75 472.25 0 -0 1 0
486 472.25 0 -0 1 0
486 472.25 100 -0 1 0
469.75 472.25 100 -0 1 0
470.25 471.75 0 0 -1 0
486 471.75 0 0 -1 0
486 471.75 100 0 -1 0
470.25 471.75 100 0 -1 0
470.25 471.75 0 1 0 0
470.25 427.75 0 1 0 0
470.25 427.75 100 1 0 0
470.25 471.75 100 1 0 0
469.75 472.25 0 -1 -0 0
469.75 428.25 0 -1 -0 0
469.75 428.25 100 -1 -0 0
469.75 472.25 100 -1 -0 0
547 252.25 0 -0 1 0
557 252.25 0 -0 1 0
557 252.25 100 -0 1 0
547 252.25 100 -0 1 0
547 251.75 0 0 -1 0
557 251.75 0 0 -1 0
557 251.75 100 0 -1 0
547 251.75 100 0 -1 0
338.25 25 0 1 0 0
338.25 9.25 0 1 0 0
338.25 9.25 100 1 0 0
338.25 25 100 1 0 0
337.75 25 0 -1 -0 0
337.75 8.75 0 -1 -0 0
337.75 8.75 100 -1 -0 0
337.75 25 100 -1 -0 0
338.25 9.25 0 -0 1 0
376.75 9.25 0 -0 1 0
376.75 9.25 100 -0 1 0
338.25 9.25 100 -0 1 0
337.75 8.75 0 0 -1 0
377.25 8.75 0 0 -1 0
377.25 8.75 100 0 -1 0
337.75 8.75 100 0 -1 0
559.25 428.25 0 -0 1 0
679.25 428.25 0 -0 1 0
679.25 428.25 100 -0 1 0
559.25 428.25 100 -0 1 0
558.75 427.75 0 0 -1 0
678.75 427.75 0 0 -1 0
678.75 427.75 100 0 -1 0
558.75 427.75 100 0 -1 0
558.75 427.75 0 -1 0 0
558.75 471.75 0 -1 0 0
558.75 471.75 100 -1 0 0
558.75 427.75 100 -1 0 0
559.25 428.25 0 1 -0 0
559.25 472.25 0 1 -0 0
559.25 472.25 100 1 -0 0
559.25 428.25 100 1 -0 0
679.25 428.25 0 1 0 0
679.25 392 0 1 0 0
679.25 392 100 1 0 0
679.25 428.25 100 1 0 0
678.75 427.75 0 -1 -0 0
678.75 392 0 -1 -0 0
678.75 392 100 -1 -0 0
678.75 427.75 100 -1 -0 0
678.75 205.25 0 -1 0 0
678.75 335 0 -1 0 0
678.75 335 100 -1 0 0
678.75 205.25 100 -1 0 0
679.25 204.75 0 1 -0 0
679.25 335 0 1 -0 0
679.25 335 100 1 -0 0
679.25 204.75 100 1 -0 0
679.25 204.75 0 -0 -1 0
647 204.75 0 -0 -1 0
647 204.75 100 -0 -1 0
679.25 204.75 100 -0 -1 0
678.75 205.25 0 0 1 0
647 205.25 0 0 1 0
647 205.25 100 0 1 0
678.75 205.25 100 0 1 0
212.75 146.25 0 -1 0 0
212.75 215 0 -1 0 0
212.75 215 100 -1 0 0
212.75 146.25 100 -1 0 0
213.25 145.75 0 1 -0 0
213.25 215 0 1 -0 0
213.25 215 100 1 -0 0
213.25 145.75 100 1 -0 0
213.25 145.75 0 -0 -1 0
150.25 145.75 0 -0 -1 0
150.25 145.75 100 -0 -1 0
213.25 145.75 100 -0 -1 0
212.75 146.25 0 0 1 0
149.75 146.25 0 0 1 0
149.75 146.25 100 0 1 0
212.75 146.25 100 0 1 0
524 205.25 0 -0 1 0
590 205.25 0 -0 1 0
590 205.25 100 -0 1 0
524 205.25 100 -0 1 0
524 204.75 0 0 -1 0
590 204.75 0 0 -1 0
590 204.75 100 0 -1 0
524 204.75 100 0 -1 0
249.75 214 0 -1 0 0
249.75 285.896453857421875 0 -1 0 0
249.75 285.896453857421875 100 -1 0 0
249.75 214 100 -1 0 0
250.25 214 0 1 -0 0
250.25 286.103546142578125 0 1 -0 0
250.25 286.103546142578125 100 1 -0 0
250.25 214 100 1 -0 0
249.75 285.896453857421875 0 -0.70710676908493042 -0.70710676908493042 0
202.146453857421875 333.5 0 -0.70710676908493042 -0.70710676908493042 0
202.146453857421875 333.5 100 -0.70710676908493042 -0.70710676908493042 0
249.75 285.896453857421875 100 -0.70710676908493042 -0.70710676908493042 0
250.25 286.103546142578125 0 0.70710676908493042 0.70710676908493042 0
202.853546142578125 333.5 0 0.70710676908493042 0.70710676908493042 0
202.853546142578125 333.5 100 0.70710676908493042 0.70710676908493042 0
250.25 286.103546142578125 100 0.70710676908493042 0.70710676908493042 0
149.75 130 0 -1 0 0
149.75 146.25 0 -1 0 0
149.75 146.25 100 -1 0 0
149.75 130 100 -1 0 0
150.25 130 0 1 -0 0
150.25 145.75 0 1 -0 0
150.25 145.75 100 1 -0 0
150.25 130 100 1 -0 0
337.896453857421875 372.75 0 -0.70710676908493042 -0.70710676908493042 0
290 420.646453857421875 0 -0.70710676908493042 -0.70710676908493042 0
290 420.646453857421875 100 -0.70710676908493042 -0.70710676908493042 0
337.896453857421875 372.75 100 -0.70710676908493042 -0.70710676908493042 0
338.103546142578125 373.25 0 0.70710676908493042 0.70710676908493042 0
290 421.353546142578125 0 0.70710676908493042 0.70710676908493042 0
290 421.353546142578125 100 0.70710676908493042 0.70710676908493042 0
338.103546142578125 373.25 100 0.70710676908493042 0.70710676908493042 0
212.75 55.75 0 -0 -1 0
149.75 55.75 0 -0 -1 0
149.75 55.75 100 -0 -1 0
212.75 55.75 100 -0 -1 0
213.25 56.25 0 0 1 0
150.25 56.25 0 0 1 0
150.25 56.25 100 0 1 0
213.25 56.25 100 0 1 0
149.75 55.75 0 -1 0 0
149.75 73 0 -1 0 0
149.75 73 100 -1 0 0
149.75 55.75 100 -1 0 0
150.25 56.25 0 1 -0 0
150.25 73 0 1 -0 0
150.25 73 100 1 -0 0
150.25 56.25 100 1 -0 0
558.75 471.75 0 -0 -1 0
544 471.75 0 -0 -1 0
544 471.75 100 -0 -1 0
558.75 471.75 100 -0 -1 0
559.25 472.25 0 0 1 0
544 472.25 0 0 1 0
544 472.25 100 0 1 0
559.25 472.25 100 0 1 0
376.75 9.25 0 -1 0 0
376.75 26 0 -1 0 0
376.75 26 100 -1 0 0
376.75 9.25 100 -1 0 0
377.25 8.75 0 1 -0 0
377.25 26 0 1 -0 0
377.25 26 100 1 -0 0
377.25 8.75 100 1 -0 0
290 420.646453857421875 0 0.70710676908493042 -0.70710676908493042 0
273.176788330078125 403.823211669921875 0 0.70710676908493042 -0.70710676908493042 0
273.176788330078125 403.823211669921875 100 0.70710676908493042 -0.70710676908493042 0
290 420.646453857421875 100 0.70710676908493042 -0.70710676908493042 0
290 421.353546142578125 0 -0.70710676908493042 0.70710676908493042 0
272.823211669921875 404.176788330078125 0 -0.70710676908493042 0.70710676908493042 0
272.823211669921875 404.176788330078125 100 -0.70710676908493042 0.70710676908493042 0
290 421.353546142578125 100 -0.70710676908493042 0.70710676908493042 0
477.823211669921875 185.176773071289062 0 -0.70710676908493042 0.70710676908493042 0
501.823211669921875 209.176773071289062 0 -0.70710676908493042 0.70710676908493042 0
501.823211669921875 209.176773071289062 100 -0.70710676908493042 0.70710676908493042 0
477.823211669921875 185.176773071289062 100 -0.70710676908493042 0.70710676908493042 0
478.176788330078125 184.823226928710938 0 0.70710676908493042 -0.70710676908493042 0
502.176788330078125 208.823226928710938 0 0.70710676908493042 -0.70710676908493042 0
502.176788330078125 208.823226928710938 100 0.70710676908493042 -0.70710676908493042 0
478.176788330078125 184.823226928710938 100 0.70710676908493042 -0.70710676908493042 0
532 313.25 0 -0 1 0
551 313.25 0 -0 1 0
551 313.25 100 -0 1 0
532 313.25 100 -0 1 0
532 312.75 0 0 -1 0
551 312.75 0 0 -1 0
551 312.75 100 0 -1 0
532 312.75 100 0 -1 0
215 205.25 0 -0 1 0
248 205.25 0 -0 1 0
248 205.25 100 -0 1 0
215 205.25 100 -0 1 0
215 204.75 0 0 -1 0
248 204.75 0 0 -1 0
248 204.75 100 0 -1 0
215 204.75 100 0 -1 0
202.146453857421875 333.5 0 -0.70710676908493042 0.70710676908493042 0
220.823226928710938 352.176788330078125 0 -0.70710676908493042 0.70710676908493042 0
220.823226928710938 352.176788330078125 100 -0.70710676908493042 0.70710676908493042 0
202.146453857421875 333.5 100 -0.70710676908493042 0.70710676908493042 0
202.853546142578125 333.5 0 0.70710676908493042 -0.70710676908493042 0
221.176773071289062 351.823211669921875 0 0.70710676908493042 -0.70710676908493042 0
221.176773071289062 351.823211669921875 100 0.70710676908493042 -0.70710676908493042 0
202.853546142578125 333.5 100 0.70710676908493042 -0.70710676908493042 0
415.823211669921875 123.176773071289062 0 -0.70710676908493042 0.70710676908493042 0
437.823211669921875 145.176773071289062 0 -0.70710676908493042 0.70710676908493042 0
437.823211669921875 145.176773071289062 100 -0.70710676908493042 0.70710676908493042 0
415.823211669921875 123.176773071289062 100 -0.70710676908493042 0.70710676908493042 0
416.176788330078125 122.823226928710938 0 0.70710676908493042 -0.70710676908493042 0
438.176788330078125 144.823226928710938 0 0.70710676908493042 -0.70710676908493042 0
438.176788330078125 144.823226928710938 100 0.70710676908493042 -0.70710676908493042 0
416.176788330078125 122.823226928710938 100 0.70710676908493042 -0.70710676908493042 0
237.823226928710938 435.176788330078125 0 -0.70710676908493042 0.70710676908493042 0
258.823211669921875 456.176788330078125 0 -0.70710676908493042 0.70710676908493042 0
258.823211669921875 456.176788330078125 100 -0.70710676908493042 0.70710676908493042 0
237.823226928710938 435.176788330078125 100 -0.70710676908493042 0.70710676908493042 0
238.176773071289062 434.823211669921875 0 0.70710676908493042 -0.70710676908493042 0
259.176788330078125 455.823211669921875 0 0.70710676908493042 -0.70710676908493042 0
259.176788330078125 455.823211669921875 100 0.70710676908493042 -0.70710676908493042 0
238.176773071289062 434.823211669921875 100 0.70710676908493042 -0.70710676908493042 0
165.823226928710938 363.176788330078125 0 -0.70710676908493042 0.70710676908493042 0
185.823226928710938 383.176788330078125 0 -0.70710676908493042 0.70710676908493042 0
185.823226928710938 383.176788330078125 100 -0.70710676908493042 0.70710676908493042 0
165.823226928710938 363.176788330078125 100 -0.70710676908493042 0.70710676908493042 0
166.176773071289062 362.823211669921875 0 0.70710676908493042 -0.70710676908493042 0
186.176773071289062 382.823211669921875 0 0.70710676908493042 -0.70710676908493042 0
186.176773071289062 382.823211669921875 100 0.70710676908493042 -0.70710676908493042 0
166.176773071289062 362.823211669921875 100 0.70710676908493042 -0.70710676908493042 0
247 28.25 0 240.681488037109375 27.4129638671875 0
247 27.75 0 240.681488037109375 27.4129638671875 0
247 27.75 100 240.681488037109375 27.4129638671875 0
247 28.25 100 240.681488037109375 27.4129638671875 0
269.25 54 0 258.793701171875 52.9029121398925781 0
268.75 54 0 258.793701171875 52.9029121398925781 0
268.75 54 100 258.793701171875 52.9029121398925781 0
269.25 54 100 258.793701171875 52.9029121398925781 0
486 472.25 0 457.092315673828125 443.1884765625 0
486 471.75 0 457.092315673828125 443.1884765625 0
486 471.75 100 457.092315673828125 443.1884765625 0
486 472.25 100 457.092315673828125 443.1884765625 0
547 252.25 0 491.29998779296875 227.024993896484375 0
547 251.75 0 491.29998779296875 227.024993896484375 0
547 251.75 100 491.29998779296875 227.024993896484375 0
547 252.25 100 491.29998779296875 227.024993896484375 0
557 252.25 0 502.29998779296875 227.024993896484375 0
557 251.75 0 502.29998779296875 227.024993896484375 0
557 251.75 100 502.29998779296875 227.024993896484375 0
557 252.25 100 502.29998779296875 227.024993896484375 0
338.25 25 0 316.7738037109375 24.4126987457275391 0
337.75 25 0 316.7738037109375 24.4126987457275391 0
337.75 25 100 316.7738037109375 24.4126987457275391 0
338.25 25 100 316.7738037109375 24.4126987457275391 0
679.25 392 0 660.5120849609375 380.18621826171875 0
678.75 392 0 660.5120849609375 380.18621826171875 0
678.75 392 100 660.5120849609375 380.18621826171875 0
679.25 392 100 660.5120849609375 380.18621826171875 0
678.75 335 0 673.518798828125 333.418121337890625 0
679.25 335 0 673.518798828125 333.418121337890625 0
679.25 335 100 673.518798828125 333.418121337890625 0
678.75 335 100 673.518798828125 333.418121337890625 0
385 28.25 0 382.673858642578125 28.0059394836425781 0
385 27.75 0 382.673858642578125 28.0059394836425781 0
385 27.75 100 382.673858642578125 28.0059394836425781 0
385 28.25 100 382.673858642578125 28.0059394836425781 0
212.75 215 0 209.65545654296875 212.872726440429688 0
213.25 215 0 209.65545654296875 212.872726440429688 0
213.25 215 100 209.65545654296875 212.872726440429688 0
212.75 215 100 209.65545654296875 212.872726440429688 0
647 204.75 0 625.93798828125 198.401168823242188 0
647 205.25 0 625.93798828125 198.401168823242188 0
647 205.25 100 625.93798828125 198.401168823242188 0
647 204.75 100 625.93798828125 198.401168823242188 0
524 205.25 0 515.06060791015625 202.140151977539062 0
524 204.75 0 515.06060791015625 202.140151977539062 0
524 204.75 100 515.06060791015625 202.140151977539062 0
524 205.25 100 515.06060791015625 202.140151977539062 0
590 205.25 0 582.06060791015625 202.140151977539062 0
590 204.75 0 582.06060791015625 202.140151977539062 0
590 204.75 100 582.06060791015625 202.140151977539062 0
590 205.25 100 582.06060791015625 202.140151977539062 0
249.75 214 0 246.276260375976562 210.02349853515625 0
250.25 214 0 246.276260375976562 210.02349853515625 0
250.25 214 100 246.276260375976562 210.02349853515625 0
249.75 214 100 246.276260375976562 210.02349853515625 0
149.75 130 0 140.534622192382812 121 0
150.25 130 0 140.534622192382812 121 0
150.25 130 100 140.534622192382812 121 0
149.75 130 100 140.534622192382812 121 0
477.823211669921875 185.176773071289062 0 463.038116455078125 179.013839721679688 0
478.176788330078125 184.823226928710938 0 463.038116455078125 179.013839721679688 0
478.176788330078125 184.823226928710938 100 463.038116455078125 179.013839721679688 0
477.823211669921875 185.176773071289062 100 463.038116455078125 179.013839721679688 0
501.823211669921875 209.176773071289062 0 487.745208740234375 203.720947265625 0
502.176788330078125 208.823226928710938 0 487.745208740234375 203.720947265625 0
502.176788330078125 208.823226928710938 100 487.745208740234375 203.720947265625 0
501.823211669921875 209.176773071289062 100 487.745208740234375 203.720947265625 0
532 313.25 0 503 296.763153076171875 0
532 312.75 0 503 296.763153076171875 0
532 312.75 100 503 296.763153076171875 0
532 313.25 100 503 296.763153076171875 0
551 313.25 0 523 296.763153076171875 0
551 312.75 0 523 296.763153076171875 0
551 312.75 100 523 296.763153076171875 0
551 313.25 100 523 296.763153076171875 0
215 205.25 0 207.484848022460938 199.030303955078125 0
215 204.75 0 207.484848022460938 199.030303955078125 0
215 204.75 100 207.484848022460938 199.030303955078125 0
215 205.25 100 207.484848022460938 199.030303955078125 0
248 205.25 0 241.484848022460938 199.030303955078125 0
248 204.75 0 241.484848022460938 199.030303955078125 0
248 204.75 100 241.484848022460938 199.030303955078125 0
248 205.25 100 241.484848022460938 199.030303955078125 0
220.823226928710938 352.176788330078125 0 213.169921875 339.550384521484375 0
221.176773071289062 351.823211669921875 0 213.169921875 339.550384521484375 0
221.176773071289062 351.823211669921875 100 213.169921875 339.550384521484375 0
220.823226928710938 352.176788330078125 100 213.169921875 339.550384521484375 0
376.75 26 0 354.257476806640625 25.4477615356445312 0
377.25 26 0 354.257476806640625 25.4477615356445312 0
377.25 26 100 354.257476806640625 25.4477615356445312 0
376.75 26 100 354.257476806640625 25.4477615356445312 0
415.823211669921875 123.176773071289062 0 401.75103759765625 118.5106201171875 0
416.176788330078125 122.823226928710938 0 401.75103759765625 118.5106201171875 0
416.176788330078125 122.823226928710938 100 401.75103759765625 118.5106201171875 0
415.823211669921875 123.176773071289062 100 401.75103759765625 118.5106201171875 0
437.823211669921875 145.176773071289062 0 424.458160400390625 141.217727661132812 0
438.176788330078125 144.823226928710938 0 424.458160400390625 141.217727661132812 0
438.176788330078125 144.823226928710938 100 424.458160400390625 141.217727661132812 0
437.823211669921875 145.176773071289062 100 424.458160400390625 141.217727661132812 0
149.75 73 0 141.06884765625 69.7681121826171875 0
150.25 73 0 141.06884765625 69.7681121826171875 0
150.25 73 100 141.06884765625 69.7681121826171875 0
149.75 73 100 141.06884765625 69.7681121826171875 0
544 471.75 0 506.11865234375 439.766937255859375 0
544 472.25 0 506.11865234375 439.766937255859375 0
544 472.25 100 506.11865234375 439.766937255859375 0
544 471.75 100 506.11865234375 439.766937255859375 0
273.176788330078125 403.823211669921875 0 260.98760986328125 386.142791748046875 0
272.823211669921875 404.176788330078125 0 260.98760986328125 386.142791748046875 0
272.823211669921875 404.176788330078125 100 260.98760986328125 386.142791748046875 0
273.176788330078125 403.823211669921875 100 260.98760986328125 386.142791748046875 0
237.823226928710938 435.176788330078125 0 229.108184814453125 419.816497802734375 0
238.176773071289062 434.823211669921875 0 229.108184814453125 419.816497802734375 0
238.176773071289062 434.823211669921875 100 229.108184814453125 419.816497802734375 0
237.823226928710938 435.176788330078125 100 229.108184814453125 419.816497802734375 0
258.823211669921875 456.176788330078125 0 250.815292358398438 441.52362060546875 0
259.176788330078125 455.823211669921875 0 250.815292358398438 441.52362060546875 0
259.176788330078125 455.823211669921875 100 250.815292358398438 441.52362060546875 0
258.823211669921875 456.176788330078125 100 250.815292358398438 441.52362060546875 0
165.823226928710938 363.176788330078125 0 159.253387451171875 349.629425048828125 0
166.176773071289062 362.823211669921875 0 159.253387451171875 349.629425048828125 0
166.176773071289062 362.823211669921875 100 159.253387451171875 349.629425048828125 0
165.823226928710938 363.176788330078125 100 159.253387451171875 349.629425048828125 0
185.823226928710938 383.176788330078125 0 179.960479736328125 370.3365478515625 0
186.176773071289062 382.823211669921875 0 179.960479736328125 370.3365478515625 0
186.176773071289062 382.823211669921875 100 179.960479736328125 370.3365478515625 0
185.823226928710938 383.176788330078125 100 179.960479736328125 370.3365478515625 0
408.25 427.75 0 0 0 -1
407.75 428.25 0 0 0 -1
407.75 373.25 0 0 0 -1
408.25 372.75 0 0 0 -1
408.25 427.75 100 0 0 1
407.75 428.25 100 0 0 1
407.75 373.25 100 0 0 1
408.25 372.75 100 0 0 1
407.75 428.25 0 0 0 -1
408.25 427.75 0 0 0 -1
470.25 427.75 0 0 0 -1
469.75 428.25 0 0 0 -1
407.75 428.25 100 0 0 1
408.25 427.75 100 0 0 1
470.25 427.75 100 0 0 1
469.75 428.25 100 0 0 1
408.25 372.75 0 0 0 -1
407.75 373.25 0 0 0 -1
338.103546142578125 373.25 0 0 0 -1
337.896453857421875 372.75 0 0 0 -1
408.25 372.75 100 0 0 1
407.75 373.25 100 0 0 1
338.103546142578125 373.25 100 0 0 1
337.896453857421875 372.75 100 0 0 1
213.25 28.25 0 0 0 -1
212.75 27.75 0 0 0 -1
247 27.75 0 0 0 -1
247 28.25 0 0 0 -1
213.25 28.25 100 0 0 1
212.75 27.75 100 0 0 1
247 27.75 100 0 0 1
247 28.25 100 0 0 1
212.75 27.75 0 0 0 -1
213.25 28.25 0 0 0 -1
213.25 56.25 0 0 0 -1
212.75 55.75 0 0 0 -1
212.75 27.75 100 0 0 1
213.25 28.25 100 0 0 1
213.25 56.25 100 0 0 1
212.75 55.75 100 0 0 1
269.25 54 0 0 0 -1
268.75 54 0 0 0 -1
268.75 27.75 0 0 0 -1
269.25 28.25 0 0 0 -1
269.25 54 100 0 0 1
268.75 54 100 0 0 1
268.75 27.75 100 0 0 1
269.25 28.25 100 0 0 1
269.25 28.25 0 0 0 -1
268.75 27.75 0 0 0 -1
385 27.75 0 0 0 -1
385 28.25 0 0 0 -1
269.25 28.25 100 0 0 1
268.75 27.75 100 0 0 1
385 27.75 100 0 0 1
385 28.25 100 0 0 1
469.75 472.25 0 0 0 -1
470.25 471.75 0 0 0 -1
486 471.75 0 0 0 -1
486 472.25 0 0 0 -1
469.75 472.25 100 0 0 1
470.25 471.75 100 0 0 1
486 471.75 100 0 0 1
486 472.25 100 0 0 1
470.25 471.75 0 0 0 -1
469.75 472.25 0 0 0 -1
469.75 428.25 0 0 0 -1
470.25 427.75 0 0 0 -1
470.25 471.75 100 0 0 1
469.75 472.25 100 0 0 1
469.75 428.25 100 0 0 1
470.25 427.75 100 0 0 1
547 252.25 0 0 0 -1
547 251.75 0 0 0 -1
557 251.75 0 0 0 -1
557 252.25 0 0 0 -1
547 252.25 100 0 0 1
547 251.75 100 0 0 1
557 251.75 100 0 0 1
557 252.25 100 0 0 1
338.25 25 0 0 0 -1
337.75 25 0 0 0 -1
337.75 8.75 0 0 0 -1
338.25 9.25 0 0 0 -1
338.25 25 100 0 0 1
337.75 25 100 0 0 1
337.75 8.75 100 0 0 1
338.25 9.25 100 0 0 1
338.25 9.25 0 0 0 -1
337.75 8.75 0 0 0 -1
377.25 8.75 0 0 0 -1
376.75 9.25 0 0 0 -1
338.25 9.25 100 0 0 1
337.75 8.75 100 0 0 1
377.25 8.75 100 0 0 1
376.75 9.25 100 0 0 1
559.25 428.25 0 0 0 -1
558.75 427.75 0 0 0 -1
678.75 427.75 0 0 0 -1
679.25 428.25 0 0 0 -1
559.25 428.25 100 0 0 1
558.75 427.75 100 0 0 1
678.75 427.75 100 0 0 1
679.25 428.25 100 0 0 1
558.75 427.75 0 0 0 -1
559.25 428.25 0 0 0 -1
559.25 472.25 0 0 0 -1
558.75 471.75 0 0 0 -1
558.75 427.75 100 0 0 1
559.25 428.25 100 0 0 1
559.25 472.25 100 0 0 1
558.75 471.75 100 0 0 1
679.25 428.25 0 0 0 -1
678.75 427.75 0 0 0 -1
678.75 392 0 0 0 -1
679.25 392 0 0 0 -1
679.25 428.25 100 0 0 1
678.75 427.75 100 0 0 1
678.75 392 100 0 0 1
679.25 392 100 0 0 1
678.75 205.25 0 0 0 -1
679.25 204.75 0 0 0 -1
679.25 335 0 0 0 -1
678.75 335 0 0 0 -1
678.75 205.25 100 0 0 1
679.25 204.75 100 0 0 1
679.25 335 100 0 0 1
678.75 335 100 0 0 1
679.25 204.75 0 0 0 -1
678.75 205.25 0 0 0 -1
647 205.25 0 0 0 -1
647 204.75 0 0 0 -1
679.25 204.75 100 0 0 1
678.75 205.25 100 0 0 1
647 205.25 100 0 0 1
647 204.75 100 0 0 1
212.75 146.25 0 0 0 -1
213.25 145.75 0 0 0 -1
213.25 215 0 0 0 -1
212.75 215 0 0 0 -1
212.75 146.25 100 0 0 1
213.25 145.75 100 0 0 1
213.25 215 100 0 0 1
212.75 215 100 0 0 1
213.25 145.75 0 0 0 -1
212.75 146.25 0 0 0 -1
149.75 146.25 0 0 0 -1
150.25 145.75 0 0 0 -1
213.25 145.75 100 0 0 1
212.75 146.25 100 0 0 1
149.75 146.25 100 0 0 1
150.25 145.75 100 0 0 1
524 205.25 0 0 0 -1
524 204.75 0 0 0 -1
590 204.75 0 0 0 -1
590 205.25 0 0 0 -1
524 205.25 100 0 0 1
524 204.75 100 0 0 1
590 204.75 100 0 0 1
590 205.25 100 0 0 1
249.75 214 0 0 0 -1
250.25 214 0 0 0 -1
250.25 286.103546142578125 0 0 0 -1
249.75 285.896453857421875 0 0 0 -1
249.75 214 100 0 0 1
250.25 214 100 0 0 1
250.25 286.103546142578125 100 0 0 1
249.75 285.896453857421875 100 0 0 1
249.75 285.896453857421875 0 0 0 -1
250.25 286.103546142578125 0 0 0 -1
202.853546142578125 333.5 0 0 0 -1
202.146453857421875 333.5 0 0 0 -1
249.75 285.896453857421875 100 0 0 1
250.25 286.103546142578125 100 0 0 1
202.853546142578125 333.5 100 0 0 1
202.146453857421875 333.5 100 0 0 1
149.75 130 0 0 0 -1
150.25 130 0 0 0 -1
150.25 145.75 0 0 0 -1
149.75 146.25 0 0 0 -1
149.75 130 100 0 0 1
150.25 130 100 0 0 1
150.25 145.75 100 0 0 1
149.75 146.25 100 0 0 1
337.896453857421875 372.75 0 0 0 -1
338.103546142578125 373.25 0 0 0 -1
290 421.353546142578125 0 0 0 -1
290 420.646453857421875 0 0 0 -1
337.896453857421875 372.75 100 0 0 1
338.103546142578125 373.25 100 0 0 1
290 421.353546142578125 100 0 0 1
290 420.646453857421875 100 0 0 1
212.75 55.75 0 0 0 -1
213.25 56.25 0 0 0 -1
150.25 56.25 0 0 0 -1
149.75 55.75 0 0 0 -1
212.75 55.75 100 0 0 1
213.25 56.25 100 0 0 1
150.25 56.25 100 0 0 1
149.75 55.75 100 0 0 1
149.75 55.75 0 0 0 -1
150.25 56.25 0 0 0 -1
150.25 73 0 0 0 -1
149.75 73 0 0 0 -1
149.75 55.75 100 0 0 1
150.25 56.25 100 0 0 1
150.25 73 100 0 0 1
149.75 73 100 0 0 1
558.75 471.75 0 0 0 -1
559.25 472.25 0 0 0 -1
544 472.25 0 0 0 -1
544 471.75 0 0 0 -1
558.75 471.75 100 0 0 1
559.25 472.25 100 0 0 1
544 472.25 100 0 0 1
544 471.75 100 0 0 1
376.75 9.25 0 0 0 -1
377.25 8.75 0 0 0 -1
377.25 26 0 0 0 -1
376.75 26 0 0 0 -1
376.75 9.25 100 0 0 1
377.25 8.75 100 0 0 1
377.25 26 100 0 0 1
376.75 26 100 0 0 1
290 420.646453857421875 0 0 0 -1
290 421.353546142578125 0 0 0 -1
272.823211669921875 404.176788330078125 0 0 0 -1
273.176788330078125 403.823211669921875 0 0 0 -1
290 420.646453857421875 100 0 0 1
290 421.353546142578125 100 0 0 1
272.823211669921875 404.176788330078125 100 0 0 1
273.176788330078125 403.823211669921875 100 0 0 1
477.823211669921875 185.176773071289062 0 0 0 -1
478.176788330078125 184.823226928710938 0 0 0 -1
502.176788330078125 208.823226928710938 0 0 0 -1
501.823211669921875 209.176773071289062 0 0 0 -1
477.823211669921875 185.176773071289062 100 0 0 1
478.176788330078125 184.823226928710938 100 0 0 1
502.176788330078125 208.823226928710938 100 0 0 1
501.823211669921875 209.176773071289062 100 0 0 1
532 313.25 0 0 0 -1
532 312.75 0 0 0 -1
551 312.75 0 0 0 -1
551 313.25 0 0 0 -1
532 313.25 100 0 0 1
532 312.75 100 0 0 1
551 312.75 100 0 0 1
551 313.25 100 0 0 1
215 205.25 0 0 0 -1
215 204.75 0 0 0 -1
248 204.75 0 0 0 -1
248 205.25 0 0 0 -1
215 205.25 100 0 0 1
215 204.75 100 0 0 1
248 204.75 100 0 0 1
248 205.25 100 0 0 1
202.146453857421875 333.5 0 0 0 -1
202.853546142578125 333.5 0 0 0 -1
221.176773071289062 351.823211669921875 0 0 0 -1
220.823226928710938 352.176788330078125 0 0 0 -1
202.146453857421875 333.5 100 0 0 1
202.853546142578125 333.5 100 0 0 1
221.176773071289062 351.823211669921875 100 0 0 1
220.823226928710938 352.176788330078125 100 0 0 1
415.823211669921875 123.176773071289062 0 0 0 -1
416.176788330078125 122.823226928710938 0 0 0 -1
438.176788330078125 144.823226928710938 0 0 0 -1
437.823211669921875 145.176773071289062 0 0 0 -1
415.823211669921875 123.176773071289062 100 0 0 1
416.176788330078125 122.823226928710938 100 0 0 1
438.176788330078125 144.823226928710938 100 0 0 1
437.823211669921875 145.176773071289062 100 0 0 1
237.823226928710938 435.176788330078125 0 0 0 -1
238.176773071289062 434.823211669921875 0 0 0 -1
259.176788330078125 455.823211669921875 0 0 0 -1
258.823211669921875 456.176788330078125 0 0 0 -1
237.823226928710938 435.176788330078125 100 0 0 1
238.176773071289062 434.823211669921875 100 0 0 1
259.176788330078125 455.823211669921875 100 0 0 1
258.823211669921875 456.176788330078125 100 0 0 1
165.823226928710938 363.176788330078125 0 0 0 -1
166.176773071289062 362.823211669921875 0 0 0 -1
186.176773071289062 382.823211669921875 0 0 0 -1
185.823226928710938 383.176788330078125 0 0 0 -1
165.823226928710938 363.176788330078125 100 0 0 1
166.176773071289062 362.823211669921875 100 0 0 1
186.176773071289062 382.823211669921875 100 0 0 1
185.823226928710938 383.176788330078125 100 0 0 1
4 0 1 2 3
4 4 5 6 7
4 8 9 10 11
4 12 13 14 15
4 16 17 18 19
4 20 21 22 23
4 24 25 26 27
4 28 29 30 31
4 32 33 34 35
4 36 37 38 39
4 40 41 42 43
4 44 45 46 47
4 48 49 50 51
4 52 53 54 55
4 56 57 58 59
4 60 61 62 63
4 64 65 66 67
4 68 69 70 71
4 72 73 74 75
4 76 77 78 79
4 80 81 82 83
4 84 85 86 87
4 88 89 90 91
4 92 93 94 95
4 96 97 98 99
4 100 101 102 103
4 104 105 106 107
4 108 109 110 111
4 112 113 114 115
4 116 117 118 119
4 120 121 122 123
4 124 125 126 127
4 128 129 130 131
4 132 133 134 135
4 136 137 138 139
4 140 141 142 143
4 144 145 146 147
4 148 149 150 151
4 152 153 154 155
4 156 157 158 159
4 160 161 162 163
4 164 165 166 167
4 168 169 170 171
4 172 173 174 175
4 176 177 178 179
4 180 181 182 183
4 184 185 186 187
4 188 189 190 191
4 192 193 194 195
4 196 197 198 199
4 200 201 202 203
4 204 205 206 207
4 208 209 210 211
4 212 213 214 215
4 216 217 218 219
4 220 221 222 223
4 224 225 226 227
4 228 229 230 231
4 232 233 234 235
4 236 237 238 239
4 240 241 242 243
4 244 245 246 247
4 248 249 250 251
4 252 253 254 255
4 256 257 258 259
4 260 261 262 263
4 264 265 266 267
4 268 269 270 271
4 272 273 274 275
4 276 277 278 279
4 280 281 282 283
4 284 285 286 287
4 288 289 290 291
4 292 293 294 295
4 296 297 298 299
4 300 301 302 303
4 304 305 306 307
4 308 309 310 311
4 312 313 314 315
4 316 317 318 319
4 320 321 322 323
4 324 325 326 327
4 328 329 330 331
4 332 333 334 335
4 336 337 338 339
4 340 341 342 343
4 344 345 346 347
4 348 349 350 351
4 352 353 354 355
4 356 357 358 359
4 360 361 362 363
4 364 365 366 367
4 368 369 370 371
4 372 373 374 375
4 376 377 378 379
4 380 381 382 383
4 384 385 386 387
4 388 389 390 391
4 392 393 394 395
4 396 397 398 399
4 400 401 402 403
4 404 405 406 407
4 408 409 410 411
4 412 413 414 415
4 416 417 418 419
4 420 421 422 423
4 424 425 426 427
4 428 429 430 431
4 432 433 434 435
4 436 437 438 439
4 440 441 442 443
4 444 445 446 447
4 448 449 450 451
4 452 453 454 455
4 456 457 458 459
4 460 461 462 463
4 464 465 466 467
4 468 469 470 471
4 472 473 474 475
4 476 477 478 479
4 480 481 482 483
4 484 485 486 487
4 488 489 490 491
4 492 493 494 495
4 496 497 498 499
4 500 501 502 503
4 504 505 506 507
4 508 509 510 511
4 512 513 514 515
4 516 517 518 519
4 520 521 522 523
4 524 525 526 527
4 528 529 530 531
4 532 533 534 535
4 536 537 538 539
4 540 541 542 543
4 544 545 546 547
4 548 549 550 551
4 552 553 554 555
4 556 557 558 559
4 560 561 562 563
4 564 565 566 567
4 568 569 570 571
4 572 573 574 575
4 576 577 578 579
4 580 581 582 583
4 584 585 586 587
4 588 589 590 591
4 592 593 594 595
4 596 597 598 599
4 600 601 602 603
4 604 605 606 607
4 608 609 610 611
4 612 613 614 615
4 616 617 618 619
4 620 621 622 623
4 624 625 626 627
4 628 629 630 631
4 632 633 634 635
4 636 637 638 639
4 640 641 642 643
4 644 645 646 647
4 648 649 650 651
4 652 653 654 655
4 656 657 658 659
4 660 661 662 663
4 664 665 666 667
4 668 669 670 671
4 672 673 674 675
4 676 677 678 679
4 680 681 682 683
4 684 685 686 687
4 688 689 690 691
4 692 693 694 695
4 696 697 698 699
4 700 701 702 703
