ply
format ascii 1.0
element vertex 648
property float x
property float y
property float z
property float nx
property float ny
property float nz
element quads 162
property list uchar int vertex_indices
end_header
628.25 452.25 0 1 0 0
628.25 420 0 1 0 0
628.25 420 100 1 0 0
628.25 452.25 100 1 0 0
627.75 451.75 0 -1 -0 0
627.75 420 0 -1 -0 0
627.75 420 100 -1 -0 0
627.75 451.75 100 -1 -0 0
627.75 451.75 0 -0 -1 0
441 451.75 0 -0 -1 0
441 451.75 100 -0 -1 0
627.75 451.75 100 -0 -1 0
628.25 452.25 0 0 1 0
441 452.25 0 0 1 0
441 452.25 100 0 1 0
628.25 452.25 100 0 1 0
375.25 206 0 1 0 0
375.25 44 0 1 0 0
375.25 44 100 1 0 0
375.25 206 100 1 0 0
374.75 206 0 -1 -0 0
374.75 44 0 -1 -0 0
374.75 44 100 -1 -0 0
374.75 206 100 -1 -0 0
181.25 451.75 0 1 0 0
181.25 415 0 1 0 0
181.25 415 100 1 0 0
181.25 451.75 100 1 0 0
180.75 452.25 0 -1 -0 0
180.75 415 0 -1 -0 0
180.75 415 100 -1 -0 0
180.75 452.25 100 -1 -0 0
180.75 452.25 0 -0 1 0
233 452.25 0 -0 1 0
233 452.25 100 -0 1 0
180.75 452.25 100 -0 1 0
181.25 451.75 0 0 -1 0
233 451.75 0 0 -1 0
233 451.75 100 0 -1 0
181.25 451.75 100 0 -1 0
441.25 206 0 1 0 0
441.25 45.75 0 1 0 0
441.25 45.75 100 1 0 0
441.25 206 100 1 0 0
440.75 206 0 -1 -0 0
440.75 46.25 0 -1 -0 0
440.75 46.25 100 -1 -0 0
440.75 206 100 -1 -0 0
441.25 45.75 0 -0 -1 0
324.75 45.75 0 -0 -1 0
324.75 45.75 100 -0 -1 0
441.25 45.75 100 -0 -1 0
440.75 46.25 0 0 1 0
325.25 46.25 0 0 1 0
325.25 46.25 100 0 1 0
440.75 46.25 100 0 1 0
326 151.25 0 -0 1 0
440 151.25 0 -0 1 0
440 151.25 100 -0 1 0
326 151.25 100 -0 1 0
326 150.75 0 0 -1 0
440 150.75 0 0 -1 0
440 150.75 100 0 -1 0
326 150.75 100 0 -1 0
287 452.25 0 -0 1 0
324.75 452.25 0 -0 1 0
324.75 452.25 100 -0 1 0
287 452.25 100 -0 1 0
287 451.75 0 0 -1 0
325.25 451.75 0 0 -1 0
325.25 451.75 100 0 -1 0
287 451.75 100 0 -1 0
324.75 452.25 0 -1 0 0
324.75 472.25 0 -1 0 0
324.75 472.25 100 -1 0 0
324.75 452.25 100 -1 0 0
325.25 451.75 0 1 -0 0
325.25 471.75 0 1 -0 0
325.25 471.75 100 1 -0 0
325.25 451.75 100 1 -0 0
443 67.25 0 -0 1 0
487 67.25 0 -0 1 0
487 67.25 100 -0 1 0
443 67.25 100 -0 1 0
443 66.75 0 0 -1 0
487 66.75 0 0 -1 0
487 66.75 100 0 -1 0
443 66.75 100 0 -1 0
502.75 338.25 0 -0 1 0
625 338.25 0 -0 1 0
625 338.25 100 -0 1 0
502.75 338.25 100 -0 1 0
503.25 337.75 0 0 -1 0
625 337.75 0 0 -1 0
625 337.75 100 0 -1 0
503.25 337.75 100 0 -1 0
503.25 337.75 0 1 0 0
503.25 205 0 1 0 0
503.25 205 100 1 0 0
503.25 337.75 100 1 0 0
502.75 338.25 0 -1 -0 0
502.75 205 0 -1 -0 0
502.75 205 100 -1 -0 0
502.75 338.25 100 -1 -0 0
324.75 45.75 0 -1 0 0
324.75 206 0 -1 0 0
324.75 206 100 -1 0 0
324.75 45.75 100 -1 0 0
325.25 46.25 0 1 -0 0
325.25 206 0 1 -0 0
325.25 206 100 1 -0 0
325.25 46.25 100 1 -0 0
361.25 378 0 1 0 0
361.25 314 0 1 0 0
361.25 314 100 1 0 0
361.25 378 100 1 0 0
360.75 378 0 -1 -0 0
360.75 314 0 -1 -0 0
360.75 314 100 -1 -0 0
360.75 378 100 -1 -0 0
416 472.25 0 -0 1 0
441.25 472.25 0 -0 1 0
441.25 472.25 100 -0 1 0
416 472.25 100 -0 1 0
416 471.75 0 0 -1 0
440.75 471.75 0 0 -1 0
440.75 471.75 100 0 -1 0
416 471.75 100 0 -1 0
441.25 472.25 0 1 0 0
441.25 414 0 1 0 0
441.25 414 100 1 0 0
441.25 472.25 100 1 0 0
440.75 471.75 0 -1 -0 0
440.75 414 0 -1 -0 0
440.75 414 100 -1 -0 0
440.75 471.75 100 -1 -0 0
182 338.25 0 -0 1 0
265 338.25 0 -0 1 0
265 338.25 100 -0 1 0
182 338.25 100 -0 1 0
182 337.75 0 0 -1 0
265 337.75 0 0 -1 0
265 337.75 100 0 -1 0
182 337.75 100 0 -1 0
325 365.25 0 -0 1 0
454 365.25 0 -0 1 0
454 365.25 100 -0 1 0
325 365.25 100 -0 1 0
325 364.75 0 0 -1 0
454 364.75 0 0 -1 0
454 364.75 100 0 -1 0
325 364.75 100 0 -1 0
559.25 277 0 1 0 0
559.25 207 0 1 0 0
559.25 207 100 1 0 0
559.25 277 100 1 0 0
558.75 277 0 -1 -0 0
558.75 207 0 -1 -0 0
558.75 207 100 -1 -0 0
558.75 277 100 -1 -0 0
324.75 472.25 0 -0 1 0
351 472.25 0 -0 1 0
351 472.25 100 -0 1 0
324.75 472.25 100 -0 1 0
325.25 471.75 0 0 -1 0
351 471.75 0 0 -1 0
351 471.75 100 0 -1 0
325.25 471.75 100 0 -1 0
182 189.25 0 -0 1 0
265 189.25 0 -0 1 0
265 189.25 100 -0 1 0
182 189.25 100 -0 1 0
182 188.75 0 0 -1 0
265 188.75 0 0 -1 0
265 188.75 100 0 -1 0
182 188.75 100 0 -1 0
627.75 67.25 0 -1 0 0
627.75 355 0 -1 0 0
627.75 355 100 -1 0 0
627.75 67.25 100 -1 0 0
628.25 66.75 0 1 -0 0
628.25 355 0 1 -0 0
628.25 355 100 1 -0 0
628.25 66.75 100 1 -0 0
628.25 66.75 0 -0 -1 0
582 66.75 0 -0 -1 0
582 66.75 100 -0 -1 0
628.25 66.75 100 -0 -1 0
627.75 67.25 0 0 1 0
582 67.25 0 0 1 0
582 67.25 100 0 1 0
627.75 67.25 100 0 1 0
180.75 168 0 -1 0 0
180.75 350 0 -1 0 0
180.75 350 100 -1 0 0
180.75 168 100 -1 0 0
181.25 168 0 1 -0 0
181.25 350 0 1 -0 0
181.25 350 100 1 -0 0
181.25 168 100 1 -0 0
254.75 189 0 -1 0 0
254.75 356 0 -1 0 0
254.75 356 100 -1 0 0
254.75 189 100 -1 0 0
255.25 189 0 1 -0 0
255.25 356 0 1 -0 0
255.25 356 100 1 -0 0
255.25 189 100 1 -0 0
287 67.25 0 -0 1 0
326 67.25 0 -0 1 0
326 67.25 100 -0 1 0
287 67.25 100 -0 1 0
287 66.75 0 0 -1 0
326 66.75 0 0 -1 0
326 66.75 100 0 -1 0
287 66.75 100 0 -1 0
256 313.25 0 -0 1 0
454 313.25 0 -0 1 0
454 313.25 100 -0 1 0
256 313.25 100 -0 1 0
256 312.75 0 0 -1 0
454 312.75 0 0 -1 0
454 312.75 100 0 -1 0
256 312.75 100 0 -1 0
178 67.25 0 -0 1 0
233 67.25 0 -0 1 0
233 67.25 100 -0 1 0
178 67.25 100 -0 1 0
178 66.75 0 0 -1 0
233 66.75 0 0 -1 0
233 66.75 100 0 -1 0
178 66.75 100 0 -1 0
256 206.25 0 -0 1 0
628 206.25 0 -0 1 0
628 206.25 100 -0 1 0
256 206.25 100 -0 1 0
256 205.75 0 0 -1 0
628 205.75 0 0 -1 0
628 205.75 100 0 -1 0
256 205.75 100 0 -1 0
628.25 420 0 608.7694091796875 405.97674560546875 0
627.75 420 0 608.7694091796875 405.97674560546875 0
627.75 420 100 608.7694091796875 405.97674560546875 0
628.25 420 100 608.7694091796875 405.97674560546875 0
375.25 206 0 372.93365478515625 205.7283935546875 0
374.75 206 0 372.93365478515625 205.7283935546875 0
374.75 206 100 372.93365478515625 205.7283935546875 0
375.25 206 100 372.93365478515625 205.7283935546875 0
375.25 44 0 372.93365478515625 42.7283935546875 0
374.75 44 0 372.93365478515625 42.7283935546875 0
374.75 44 100 372.93365478515625 42.7283935546875 0
375.25 44 100 372.93365478515625 42.7283935546875 0
181.25 415 0 176.318023681640625 402.707489013671875 0
180.75 415 0 176.318023681640625 402.707489013671875 0
180.75 415 100 176.318023681640625 402.707489013671875 0
181.25 415 100 176.318023681640625 402.707489013671875 0
441 451.75 0 437.6385498046875 449.33099365234375 0
441 452.25 0 437.6385498046875 449.33099365234375 0
441 452.25 100 437.6385498046875 449.33099365234375 0
441 451.75 100 437.6385498046875 449.33099365234375 0
441.25 206 0 438.496490478515625 205.714508056640625 0
440.75 206 0 438.496490478515625 205.714508056640625 0
440.75 206 100 438.496490478515625 205.714508056640625 0
441.25 206 100 438.496490478515625 205.714508056640625 0
326 151.25 0 322.140350341796875 149.923248291015625 0
326 150.75 0 322.140350341796875 149.923248291015625 0
326 150.75 100 322.140350341796875 149.923248291015625 0
326 151.25 100 322.140350341796875 149.923248291015625 0
440 151.25 0 437.140350341796875 149.923248291015625 0
440 150.75 0 437.140350341796875 149.923248291015625 0
440 150.75 100 437.140350341796875 149.923248291015625 0
440 151.25 100 437.140350341796875 149.923248291015625 0
287 452.25 0 278.3973388671875 440.269866943359375 0
287 451.75 0 278.3973388671875 440.269866943359375 0
287 451.75 100 278.3973388671875 440.269866943359375 0
287 452.25 100 278.3973388671875 440.269866943359375 0
443 67.25 0 431.93182373046875 65.721588134765625 0
443 66.75 0 431.93182373046875 65.721588134765625 0
443 66.75 100 431.93182373046875 65.721588134765625 0
443 67.25 100 431.93182373046875 65.721588134765625 0
487 67.25 0 476.93182373046875 65.721588134765625 0
487 66.75 0 476.93182373046875 65.721588134765625 0
487 66.75 100 476.93182373046875 65.721588134765625 0
487 67.25 100 476.93182373046875 65.721588134765625 0
625 338.25 0 620.88751220703125 335.483123779296875 0
625 337.75 0 620.88751220703125 335.483123779296875 0
625 337.75 100 620.88751220703125 335.483123779296875 0
625 338.25 100 620.88751220703125 335.483123779296875 0
361.25 378 0 355.60546875 373.09375 0
360.75 378 0 355.60546875 373.09375 0
360.75 378 100 355.60546875 373.09375 0
361.25 378 100 355.60546875 373.09375 0
361.25 314 0 355.60546875 308.09375 0
360.75 314 0 355.60546875 308.09375 0
360.75 314 100 355.60546875 308.09375 0
361.25 314 100 355.60546875 308.09375 0
416 472.25 0 398.524749755859375 453.547027587890625 0
416 471.75 0 398.524749755859375 453.547027587890625 0
416 471.75 100 398.524749755859375 453.547027587890625 0
416 472.25 100 398.524749755859375 453.547027587890625 0
182 338.25 0 178.807235717773438 334.174713134765625 0
182 337.75 0 178.807235717773438 334.174713134765625 0
182 337.75 100 178.807235717773438 334.174713134765625 0
182 338.25 100 178.807235717773438 334.174713134765625 0
265 338.25 0 262.807220458984375 334.174713134765625 0
265 337.75 0 262.807220458984375 334.174713134765625 0
265 337.75 100 262.807220458984375 334.174713134765625 0
265 338.25 100 262.807220458984375 334.174713134765625 0
325 365.25 0 321.480621337890625 362.418609619140625 0
325 364.75 0 321.480621337890625 362.418609619140625 0
325 364.75 100 321.480621337890625 362.418609619140625 0
325 365.25 100 321.480621337890625 362.418609619140625 0
454 365.25 0 451.480621337890625 362.418609619140625 0
454 364.75 0 451.480621337890625 362.418609619140625 0
454 364.75 100 451.480621337890625 362.418609619140625 0
454 365.25 100 451.480621337890625 362.418609619140625 0
441.25 414 0 433.674896240234375 405.8927001953125 0
440.75 414 0 433.674896240234375 405.8927001953125 0
440.75 414 100 433.674896240234375 405.8927001953125 0
441.25 414 100 433.674896240234375 405.8927001953125 0
559.25 277 0 551.2607421875 274.0428466796875 0
558.75 277 0 551.2607421875 274.0428466796875 0
558.75 277 100 551.2607421875 274.0428466796875 0
559.25 277 100 551.2607421875 274.0428466796875 0
559.25 207 0 551.2607421875 203.042861938476562 0
558.75 207 0 551.2607421875 203.042861938476562 0
558.75 207 100 551.2607421875 203.042861938476562 0
559.25 207 100 551.2607421875 203.042861938476562 0
182 189.25 0 178.807235717773438 186.969879150390625 0
182 188.75 0 178.807235717773438 186.969879150390625 0
182 188.75 100 178.807235717773438 186.969879150390625 0
182 189.25 100 178.807235717773438 186.969879150390625 0
265 189.25 0 262.807220458984375 186.969879150390625 0
265 188.75 0 262.807220458984375 186.969879150390625 0
265 188.75 100 262.807220458984375 186.969879150390625 0
265 189.25 100 262.807220458984375 186.969879150390625 0
627.75 355 0 625.56842041015625 354.76629638671875 0
628.25 355 0 625.56842041015625 354.76629638671875 0
628.25 355 100 625.56842041015625 354.76629638671875 0
627.75 355 100 625.56842041015625 354.76629638671875 0
180.75 168 0 179.756866455078125 166.076919555664062 0
181.25 168 0 179.756866455078125 166.076919555664062 0
181.25 168 100 179.756866455078125 166.076919555664062 0
180.75 168 100 179.756866455078125 166.076919555664062 0
180.75 350 0 179.756866455078125 349.076934814453125 0
181.25 350 0 179.756866455078125 349.076934814453125 0
181.25 350 100 179.756866455078125 349.076934814453125 0
180.75 350 100 179.756866455078125 349.076934814453125 0
254.75 189 0 253.22454833984375 186.868270874023438 0
255.25 189 0 253.22454833984375 186.868270874023438 0
255.25 189 100 253.22454833984375 186.868270874023438 0
254.75 189 100 253.22454833984375 186.868270874023438 0
254.75 356 0 253.22454833984375 354.868255615234375 0
255.25 356 0 253.22454833984375 354.868255615234375 0
255.25 356 100 253.22454833984375 354.868255615234375 0
254.75 356 100 253.22454833984375 354.868255615234375 0
287 67.25 0 278.641021728515625 65.5256423950195312 0
287 66.75 0 278.641021728515625 65.5256423950195312 0
287 66.75 100 278.641021728515625 65.5256423950195312 0
287 67.25 100 278.641021728515625 65.5256423950195312 0
326 67.25 0 318.641021728515625 65.5256423950195312 0
326 66.75 0 318.641021728515625 65.5256423950195312 0
326 66.75 100 318.641021728515625 65.5256423950195312 0
326 67.25 100 318.641021728515625 65.5256423950195312 0
503.25 205 0 499.45904541015625 202.45574951171875 0
502.75 205 0 499.45904541015625 202.45574951171875 0
502.75 205 100 499.45904541015625 202.45574951171875 0
503.25 205 100 499.45904541015625 202.45574951171875 0
256 313.25 0 253.707077026367188 311.667938232421875 0
256 312.75 0 253.707077026367188 311.667938232421875 0
256 312.75 100 253.707077026367188 311.667938232421875 0
256 313.25 100 253.707077026367188 311.667938232421875 0
454 313.25 0 452.707061767578125 311.667938232421875 0
454 312.75 0 452.707061767578125 311.667938232421875 0
454 312.75 100 452.707061767578125 311.667938232421875 0
454 313.25 100 452.707061767578125 311.667938232421875 0
233 452.25 0 229.540664672851562 443.594482421875 0
233 451.75 0 229.540664672851562 443.594482421875 0
233 451.75 100 229.540664672851562 443.594482421875 0
233 452.25 100 229.540664672851562 443.594482421875 0
178 67.25 0 173.763641357421875 66.0272750854492188 0
178 66.75 0 173.763641357421875 66.0272750854492188 0
178 66.75 100 173.763641357421875 66.0272750854492188 0
178 67.25 100 173.763641357421875 66.0272750854492188 0
233 67.25 0 229.763641357421875 66.0272750854492188 0
233 66.75 0 229.763641357421875 66.0272750854492188 0
233 66.75 100 229.763641357421875 66.0272750854492188 0
233 67.25 100 229.763641357421875 66.0272750854492188 0
351 472.25 0 338.628570556640625 454.259521484375 0
351 471.75 0 338.628570556640625 454.259521484375 0
351 471.75 100 338.628570556640625 454.259521484375 0
351 472.25 100 338.628570556640625 454.259521484375 0
582 66.75 0 568.41619873046875 65.3067550659179688 0
582 67.25 0 568.41619873046875 65.3067550659179688 0
582 67.25 100 568.41619873046875 65.3067550659179688 0
582 66.75 100 568.41619873046875 65.3067550659179688 0
324.75 206 0 322.723480224609375 205.714508056640625 0
325.25 206 0 322.723480224609375 205.714508056640625 0
325.25 206 100 322.723480224609375 205.714508056640625 0
324.75 206 100 322.723480224609375 205.714508056640625 0
256 206.25 0 254.31182861328125 205.695571899414062 0
256 205.75 0 254.31182861328125 205.695571899414062 0
256 205.75 100 254.31182861328125 205.695571899414062 0
256 206.25 100 254.31182861328125 205.695571899414062 0
628 206.25 0 627.31182861328125 205.695571899414062 0
628 205.75 0 627.31182861328125 205.695571899414062 0
628 205.75 100 627.31182861328125 205.695571899414062 0
628 206.25 100 627.31182861328125 205.695571899414062 0
628.25 452.25 0 0 0 -1
627.75 451.75 0 0 0 -1
627.75 420 0 0 0 -1
628.25 420 0 0 0 -1
628.25 452.25 100 0 0 1
627.75 451.75 100 0 0 1
627.75 420 100 0 0 1
628.25 420 100 0 0 1
627.75 451.75 0 0 0 -1
628.25 452.25 0 0 0 -1
441 452.25 0 0 0 -1
441 451.75 0 0 0 -1
627.75 451.75 100 0 0 1
628.25 452.25 100 0 0 1
441 452.25 100 0 0 1
441 451.75 100 0 0 1
375.25 206 0 0 0 -1
374.75 206 0 0 0 -1
374.75 44 0 0 0 -1
375.25 44 0 0 0 -1
375.25 206 100 0 0 1
374.75 206 100 0 0 1
374.75 44 100 0 0 1
375.25 44 100 0 0 1
181.25 451.75 0 0 0 -1
180.75 452.25 0 0 0 -1
180.75 415 0 0 0 -1
181.25 415 0 0 0 -1
181.25 451.75 100 0 0 1
180.75 452.25 100 0 0 1
180.75 415 100 0 0 1
181.25 415 100 0 0 1
180.75 452.25 0 0 0 -1
181.25 451.75 0 0 0 -1
233 451.75 0 0 0 -1
233 452.25 0 0 0 -1
180.75 452.25 100 0 0 1
181.25 451.75 100 0 0 1
233 451.75 100 0 0 1
233 452.25 100 0 0 1
441.25 206 0 0 0 -1
440.75 206 0 0 0 -1
440.75 46.25 0 0 0 -1
441.25 45.75 0 0 0 -1
441.25 206 100 0 0 1
440.75 206 100 0 0 1
440.75 46.25 100 0 0 1
441.25 45.75 100 0 0 1
441.25 45.75 0 0 0 -1
440.75 46.25 0 0 0 -1
325.25 46.25 0 0 0 -1
324.75 45.75 0 0 0 -1
441.25 45.75 100 0 0 1
440.75 46.25 100 0 0 1
325.25 46.25 100 0 0 1
324.75 45.75 100 0 0 1
326 151.25 0 0 0 -1
326 150.75 0 0 0 -1
440 150.75 0 0 0 -1
440 151.25 0 0 0 -1
326 151.25 100 0 0 1
326 150.75 100 0 0 1
440 150.75 100 0 0 1
440 151.25 100 0 0 1
287 452.25 0 0 0 -1
287 451.75 0 0 0 -1
325.25 451.75 0 0 0 -1
324.75 452.25 0 0 0 -1
287 452.25 100 0 0 1
287 451.75 100 0 0 1
325.25 451.75 100 0 0 1
324.75 452.25 100 0 0 1
324.75 452.25 0 0 0 -1
325.25 451.75 0 0 0 -1
325.25 471.75 0 0 0 -1
324.75 472.25 0 0 0 -1
324.75 452.25 100 0 0 1
325.25 451.75 100 0 0 1
325.25 471.75 100 0 0 1
324.75 472.25 100 0 0 1
443 67.25 0 0 0 -1
443 66.75 0 0 0 -1
487 66.75 0 0 0 -1
487 67.25 0 0 0 -1
443 67.25 100 0 0 1
443 66.75 100 0 0 1
487 66.75 100 0 0 1
487 67.25 100 0 0 1
502.75 338.25 0 0 0 -1
503.25 337.75 0 0 0 -1
625 337.75 0 0 0 -1
625 338.25 0 0 0 -1
502.75 338.25 100 0 0 1
503.25 337.75 100 0 0 1
625 337.75 100 0 0 1
625 338.25 100 0 0 1
503.25 337.75 0 0 0 -1
502.75 338.25 0 0 0 -1
502.75 205 0 0 0 -1
503.25 205 0 0 0 -1
503.25 337.75 100 0 0 1
502.75 338.25 100 0 0 1
502.75 205 100 0 0 1
503.25 205 100 0 0 1
324.75 45.75 0 0 0 -1
325.25 46.25 0 0 0 -1
325.25 206 0 0 0 -1
324.75 206 0 0 0 -1
324.75 45.75 100 0 0 1
325.25 46.25 100 0 0 1
325.25 206 100 0 0 1
324.75 206 100 0 0 1
361.25 378 0 0 0 -1
360.75 378 0 0 0 -1
360.75 314 0 0 0 -1
361.25 314 0 0 0 -1
361.25 378 100 0 0 1
360.75 378 100 0 0 1
360.75 314 100 0 0 1
361.25 314 100 0 0 1
416 472.25 0 0 0 -1
416 471.75 0 0 0 -1
440.75 471.75 0 0 0 -1
441.25 472.25 0 0 0 -1
416 472.25 100 0 0 1
416 471.75 100 0 0 1
440.75 471.75 100 0 0 1
441.25 472.25 100 0 0 1
441.25 472.25 0 0 0 -1
440.75 471.75 0 0 0 -1
440.75 414 0 0 0 -1
441.25 414 0 0 0 -1
441.25 472.25 100 0 0 1
440.75 471.75 100 0 0 1
440.75 414 100 0 0 1
441.25 414 100 0 0 1
182 338.25 0 0 0 -1
182 337.75 0 0 0 -1
265 337.75 0 0 0 -1
265 338.25 0 0 0 -1
182 338.25 100 0 0 1
182 337.75 100 0 0 1
265 337.75 100 0 0 1
265 338.25 100 0 0 1
325 365.25 0 0 0 -1
325 364.75 0 0 0 -1
454 364.75 0 0 0 -1
454 365.25 0 0 0 -1
325 365.25 100 0 0 1
325 364.75 100 0 0 1
454 364.75 100 0 0 1
454 365.25 100 0 0 1
559.25 277 0 0 0 -1
558.75 277 0 0 0 -1
558.75 207 0 0 0 -1
559.25 207 0 0 0 -1
559.25 277 100 0 0 1
558.75 277 100 0 0 1
558.75 207 100 0 0 1
559.25 207 100 0 0 1
324.75 472.25 0 0 0 -1
325.25 471.75 0 0 0 -1
351 471.75 0 0 0 -1
351 472.25 0 0 0 -1
324.75 472.25 100 0 0 1
325.25 471.75 100 0 0 1
351 471.75 100 0 0 1
351 472.25 100 0 0 1
182 189.25 0 0 0 -1
182 188.75 0 0 0 -1
265 188.75 0 0 0 -1
265 189.25 0 0 0 -1
182 189.25 100 0 0 1
182 188.75 100 0 0 1
265 188.75 100 0 0 1
265 189.25 100 0 0 1
627.75 67.25 0 0 0 -1
628.25 66.75 0 0 0 -1
628.25 355 0 0 0 -1
627.75 355 0 0 0 -1
627.75 67.25 100 0 0 1
628.25 66.75 100 0 0 1
628.25 355 100 0 0 1
627.75 355 100 0 0 1
628.25 66.75 0 0 0 -1
627.75 67.25 0 0 0 -1
582 67.25 0 0 0 -1
582 66.75 0 0 0 -1
628.25 66.75 100 0 0 1
627.75 67.25 100 0 0 1
582 67.25 100 0 0 1
582 66.75 100 0 0 1
180.75 168 0 0 0 -1
181.25 168 0 0 0 -1
181.25 350 0 0 0 -1
180.75 350 0 0 0 -1
180.75 168 100 0 0 1
181.25 168 100 0 0 1
181.25 350 100 0 0 1
180.75 350 100 0 0 1
254.75 189 0 0 0 -1
255.25 189 0 0 0 -1
255.25 356 0 0 0 -1
254.75 356 0 0 0 -1
254.75 189 100 0 0 1
255.25 189 100 0 0 1
255.25 356 100 0 0 1
254.75 356 100 0 0 1
287 67.25 0 0 0 -1
287 66.75 0 0 0 -1
326 66.75 0 0 0 -1
326 67.25 0 0 0 -1
287 67.25 100 0 0 1
287 66.75 100 0 0 1
326 66.75 100 0 0 1
326 67.25 100 0 0 1
256 313.25 0 0 0 -1
256 312.75 0 0 0 -1
454 312.75 0 0 0 -1
454 313.25 0 0 0 -1
256 313.25 100 0 0 1
256 312.75 100 0 0 1
454 312.75 100 0 0 1
454 313.25 100 0 0 1
178 67.25 0 0 0 -1
178 66.75 0 0 0 -1
233 66.75 0 0 0 -1
233 67.25 0 0 0 -1
178 67.25 100 0 0 1
178 66.75 100 0 0 1
233 66.75 100 0 0 1
233 67.25 100 0 0 1
256 206.25 0 0 0 -1
256 205.75 0 0 0 -1
628 205.75 0 0 0 -1
628 206.25 0 0 0 -1
256 206.25 100 0 0 1
256 205.75 100 0 0 1
628 205.75 100 0 0 1
628 206.25 100 0 0 1
4 0 1 2 3
4 4 5 6 7
4 8 9 10 11
4 12 13 14 15
4 16 17 18 19
4 20 21 22 23
4 24 25 26 27
4 28 29 30 31
4 32 33 34 35
4 36 37 38 39
4 40 41 42 43
4 44 45 46 47
4 48 49 50 51
4 52 53 54 55
4 56 57 58 59
4 60 61 62 63
4 64 65 66 67
4 68 69 70 71
4 72 73 74 75
4 76 77 78 79
4 80 81 82 83
4 84 85 86 87
4 88 89 90 91
4 92 93 94 95
4 96 97 98 99
4 100 101 102 103
4 104 105 106 107
4 108 109 110 111
4 112 113 114 115
4 116 117 118 119
4 120 121 122 123
4 124 125 126 127
4 128 129 130 131
4 132 133 134 135
4 136 137 138 139
4 140 141 142 143
4 144 145 146 147
4 148 149 150 151
4 152 153 154 155
4 156 157 158 159
4 160 161 162 163
4 164 165 166 167
4 168 169 170 171
4 172 173 174 175
4 176 177 178 179
4 180 181 182 183
4 184 185 186 187
4 188 189 190 191
4 192 193 194 195
4 196 197 198 199
4 200 201 202 203
4 204 205 206 207
4 208 209 210 211
4 212 213 214 215
4 216 217 218 219
4 220 221 222 223
4 224 225 226 227
4 228 229 230 231
4 232 233 234 235
4 236 237 238 239
4 240 241 242 243
4 244 245 246 247
4 248 249 250 251
4 252 253 254 255
4 256 257 258 259
4 260 261 262 263
4 264 265 266 267
4 268 269 270 271
4 272 273 274 275
4 276 277 278 279
4 280 281 282 283
4 284 285 286 287
4 288 289 290 291
4 292 293 294 295
4 296 297 298 299
4 300 301 302 303
4 304 305 306 307
4 308 309 310 311
4 312 313 314 315
4 316 317 318 319
4 320 321 322 323
4 324 325 326 327
4 328 329 330 331
4 332 333 334 335
4 336 337 338 339
4 340 341 342 343
4 344 345 346 347
4 348 349 350 351
4 352 353 354 355
4 356 357 358 359
4 360 361 362 363
4 364 365 366 367
4 368 369 370 371
4 372 373 374 375
4 376 377 378 379
4 380 381 382 383
4 384 385 386 387
4 388 389 390 391
4 392 393 394 395
4 396 397 398 399
4 400 401 402 403
4 404 405 406 407
4 408 409 410 411
4 412 413 414 415
4 416 417 418 419
4 420 421 422 423
4 424 425 426 427
4 428 429 430 431
4 432 433 434 435
4 436 437 438 439
4 440 441 442 443
4 444 445 446 447
4 448 449 450 451
4 452 453 454 455
4 456 457 458 459
4 460 461 462 463
4 464 465 466 467
4 468 469 470 471
4 472 473 474 475
4 476 477 478 479
4 480 481 482 483
4 484 485 486 487
4 488 489 490 491
4 492 493 494 495
4 496 497 498 499
4 500 501 502 503
4 504 505 506 507
4 508 509 510 511
4 512 513 514 515
4 516 517 518 519
4 520 521 522 523
4 524 525 526 527
4 528 529 530 531
4 532 533 534 535
4 536 537 538 539
4 540 541 542 543
4 544 545 546 547
4 548 549 550 551
4 552 553 554 555
4 556 557 558 559
4 560 561 562 563
4 564 565 566 567
4 568 569 570 571
4 572 573 574 575
4 576 577 578 579
4 580 581 582 583
4 584 585 586 587
4 588 589 590 591
4 592 593 594 595
4 596 597 598 599
4 600 601 602 603
4 604 605 606 607
4 608 609 610 611
4 612 613 614 615
4 616 617 618 619
4 620 621 622 623
4 624 625 626 627
4 628 629 630 631
4 632 633 634 635
4 636 637 638 639
4 640 641 642 643
4 644 645 646 647
