ply
format ascii 1.0
element vertex 112
property float x
property float y
property float z
property float nx
property float ny
property float nz
element faces 28
property list uchar uint vertex_indices
end_header
-2 0.0500000007450580597 -1 -0 1 0
-1.02071070671081543 0.0500000007450580597 -1 -0 1 0
-2 0.0500000007450580597 1 -0 1 0
-1.02071070671081543 0.0500000007450580597 1 -0 1 0
-2 -0.0500000007450580597 -1 0 -1 0
-1.02071070671081543 -0.0500000007450580597 -1 0 -1 0
-2 -0.0500000007450580597 1 0 -1 0
-1.02071070671081543 -0.0500000007450580597 1 0 -1 0
-1.02071070671081543 0.0500000007450580597 -1 -0 1 0
-2 0.0500000007450580597 -1 -0 1 0
-1.02071070671081543 0.0500000007450580597 1 -0 1 0
-2 0.0500000007450580597 1 -0 1 0
-1.02071070671081543 -0.0500000007450580597 -1 0 -1 0
-2 -0.0500000007450580597 -1 0 -1 0
-1.02071070671081543 -0.0500000007450580597 1 0 -1 0
-2 -0.0500000007450580597 1 0 -1 0
-0.929289340972900391 -4.16333634234433703e-17 -1 0.70710676908493042 0.70710676908493042 0
4.16333634234433703e-17 -0.929289340972900391 -1 0.70710676908493042 0.70710676908493042 0
-0.929289340972900391 -4.16333634234433703e-17 1 0.70710676908493042 0.70710676908493042 0
4.16333634234433703e-17 -0.929289340972900391 1 0.70710676908493042 0.70710676908493042 0
-1.02071070671081543 -0.0500000007450580597 -1 -0.70710676908493042 -0.70710676908493042 0
1.59594559789866253e-16 -1.07071065902709961 -1 -0.70710676908493042 -0.70710676908493042 0
-1.02071070671081543 -0.0500000007450580597 1 -0.70710676908493042 -0.70710676908493042 0
1.59594559789866253e-16 -1.07071065902709961 1 -0.70710676908493042 -0.70710676908493042 0
4.16333634234433703e-17 -0.929289340972900391 -1 0.70710676908493042 0.70710676908493042 0
-0.929289340972900391 -4.16333634234433703e-17 -1 0.70710676908493042 0.70710676908493042 0
4.16333634234433703e-17 -0.929289340972900391 1 0.70710676908493042 0.70710676908493042 0
-0.929289340972900391 -4.16333634234433703e-17 1 0.70710676908493042 0.70710676908493042 0
1.59594559789866253e-16 -1.07071065902709961 -1 -0.70710676908493042 -0.70710676908493042 0
-1.02071070671081543 -0.0500000007450580597 -1 -0.70710676908493042 -0.70710676908493042 0
1.59594559789866253e-16 -1.07071065902709961 1 -0.70710676908493042 -0.70710676908493042 0
-1.02071070671081543 -0.0500000007450580597 1 -0.70710676908493042 -0.70710676908493042 0
-1.02071070671081543 0.0500000007450580597 -1 -0.70710676908493042 0.70710676908493042 0
-1.52655665885959024e-16 1.07071065902709961 -1 -0.70710676908493042 0.70710676908493042 0
-1.02071070671081543 0.0500000007450580597 1 -0.70710676908493042 0.70710676908493042 0
-1.52655665885959024e-16 1.07071065902709961 1 -0.70710676908493042 0.70710676908493042 0
-0.929289340972900391 -4.16333634234433703e-17 -1 0.70710676908493042 -0.70710676908493042 0
-3.46944695195361419e-17 0.929289340972900391 -1 0.70710676908493042 -0.70710676908493042 0
-0.929289340972900391 -4.16333634234433703e-17 1 0.70710676908493042 -0.70710676908493042 0
-3.46944695195361419e-17 0.929289340972900391 1 0.70710676908493042 -0.70710676908493042 0
-1.52655665885959024e-16 1.07071065902709961 -1 -0.70710676908493042 0.70710676908493042 0
-1.02071070671081543 0.0500000007450580597 -1 -0.70710676908493042 0.70710676908493042 0
-1.52655665885959024e-16 1.07071065902709961 1 -0.70710676908493042 0.70710676908493042 0
-1.02071070671081543 0.0500000007450580597 1 -0.70710676908493042 0.70710676908493042 0
-3.46944695195361419e-17 0.929289340972900391 -1 0.70710676908493042 -0.70710676908493042 0
-0.929289340972900391 -4.16333634234433703e-17 -1 0.70710676908493042 -0.70710676908493042 0
-3.46944695195361419e-17 0.929289340972900391 1 0.70710676908493042 -0.70710676908493042 0
-0.929289340972900391 -4.16333634234433703e-17 1 0.70710676908493042 -0.70710676908493042 0
4.16333634234433703e-17 -0.929289340972900391 -1 -0.70710676908493042 0.70710676908493042 0
0.929289340972900391 3.46944695195361419e-17 -1 -0.70710676908493042 0.70710676908493042 0
4.16333634234433703e-17 -0.929289340972900391 1 -0.70710676908493042 0.70710676908493042 0
0.929289340972900391 3.46944695195361419e-17 1 -0.70710676908493042 0.70710676908493042 0
1.59594559789866253e-16 -1.07071065902709961 -1 0.70710676908493042 -0.70710676908493042 0
1.02071070671081543 -0.0500000007450580597 -1 0.70710676908493042 -0.70710676908493042 0
1.59594559789866253e-16 -1.07071065902709961 1 0.70710676908493042 -0.70710676908493042 0
1.02071070671081543 -0.0500000007450580597 1 0.70710676908493042 -0.70710676908493042 0
0.929289340972900391 3.46944695195361419e-17 -1 -0.70710676908493042 0.70710676908493042 0
4.16333634234433703e-17 -0.929289340972900391 -1 -0.70710676908493042 0.70710676908493042 0
0.929289340972900391 3.46944695195361419e-17 1 -0.70710676908493042 0.70710676908493042 0
4.16333634234433703e-17 -0.929289340972900391 1 -0.70710676908493042 0.70710676908493042 0
1.02071070671081543 -0.0500000007450580597 -1 0.70710676908493042 -0.70710676908493042 0
1.59594559789866253e-16 -1.07071065902709961 -1 0.70710676908493042 -0.70710676908493042 0
1.02071070671081543 -0.0500000007450580597 1 0.70710676908493042 -0.70710676908493042 0
1.59594559789866253e-16 -1.07071065902709961 1 0.70710676908493042 -0.70710676908493042 0
-1.52655665885959024e-16 1.07071065902709961 -1 0.70710676908493042 0.70710676908493042 0
1.02071070671081543 0.0500000007450580597 -1 0.70710676908493042 0.70710676908493042 0
-1.52655665885959024e-16 1.07071065902709961 1 0.70710676908493042 0.70710676908493042 0
1.02071070671081543 0.0500000007450580597 1 0.70710676908493042 0.70710676908493042 0
-3.46944695195361419e-17 0.929289340972900391 -1 -0.70710676908493042 -0.70710676908493042 0
0.929289340972900391 3.46944695195361419e-17 -1 -0.70710676908493042 -0.70710676908493042 0
-3.46944695195361419e-17 0.929289340972900391 1 -0.70710676908493042 -0.70710676908493042 0
0.929289340972900391 3.46944695195361419e-17 1 -0.70710676908493042 -0.70710676908493042 0
1.02071070671081543 0.0500000007450580597 -1 0.70710676908493042 0.70710676908493042 0
-1.52655665885959024e-16 1.07071065902709961 -1 0.70710676908493042 0.70710676908493042 0
1.02071070671081543 0.0500000007450580597 1 0.70710676908493042 0.70710676908493042 0
-1.52655665885959024e-16 1.07071065902709961 1 0.70710676908493042 0.70710676908493042 0
0.929289340972900391 3.46944695195361419e-17 -1 -0.70710676908493042 -0.70710676908493042 0
-3.46944695195361419e-17 0.929289340972900391 -1 -0.70710676908493042 -0.70710676908493042 0
0.929289340972900391 3.46944695195361419e-17 1 -0.70710676908493042 -0.70710676908493042 0
-3.46944695195361419e-17 0.929289340972900391 1 -0.70710676908493042 -0.70710676908493042 0
1.02071070671081543 0.0500000007450580597 -1 -0 1 0
2 0.0500000007450580597 -1 -0 1 0
1.02071070671081543 0.0500000007450580597 1 -0 1 0
2 0.0500000007450580597 1 -0 1 0
1.02071070671081543 -0.0500000007450580597 -1 0 -1 0
2 -0.0500000007450580597 -1 0 -1 0
1.02071070671081543 -0.0500000007450580597 1 0 -1 0
2 -0.0500000007450580597 1 0 -1 0
2 0.0500000007450580597 -1 -0 1 0
1.02071070671081543 0.0500000007450580597 -1 -0 1 0
2 0.0500000007450580597 1 -0 1 0
1.02071070671081543 0.0500000007450580597 1 -0 1 0
2 -0.0500000007450580597 -1 0 -1 0
1.02071070671081543 -0.0500000007450580597 -1 0 -1 0
2 -0.0500000007450580597 1 0 -1 0
1.02071070671081543 -0.0500000007450580597 1 0 -1 0
-2 0.0500000007450580597 -1 -0.95770263671875 -0.00105743412859737873 0
-2 -0.0500000007450580597 -1 -0.95770263671875 -0.00105743412859737873 0
-2 0.0500000007450580597 1 -0.95770263671875 -0.00105743412859737873 0
-2 -0.0500000007450580597 1 -0.95770263671875 -0.00105743412859737873 0
-2 -0.0500000007450580597 -1 -0.95770263671875 0.00105743412859737873 0
-2 0.0500000007450580597 -1 -0.95770263671875 0.00105743412859737873 0
-2 -0.0500000007450580597 1 -0.95770263671875 0.00105743412859737873 0
-2 0.0500000007450580597 1 -0.95770263671875 0.00105743412859737873 0
2 0.0500000007450580597 -1 0.95770263671875 -0.00105743412859737873 0
2 -0.0500000007450580597 -1 0.95770263671875 -0.00105743412859737873 0
2 0.0500000007450580597 1 0.95770263671875 -0.00105743412859737873 0
2 -0.0500000007450580597 1 0.95770263671875 -0.00105743412859737873 0
2 -0.0500000007450580597 -1 0.95770263671875 0.00105743412859737873 0
2 0.0500000007450580597 -1 0.95770263671875 0.00105743412859737873 0
2 -0.0500000007450580597 1 0.95770263671875 0.00105743412859737873 0
2 0.0500000007450580597 1 0.95770263671875 0.00105743412859737873 0
4 0 1 3 2
4 4 5 7 6
4 8 9 11 10
4 12 13 15 14
4 16 17 19 18
4 20 21 23 22
4 24 25 27 26
4 28 29 31 30
4 32 33 35 34
4 36 37 39 38
4 40 41 43 42
4 44 45 47 46
4 48 49 51 50
4 52 53 55 54
4 56 57 59 58
4 60 61 63 62
4 64 65 67 66
4 68 69 71 70
4 72 73 75 74
4 76 77 79 78
4 80 81 83 82
4 84 85 87 86
4 88 89 91 90
4 92 93 95 94
4 96 97 99 98
4 100 101 103 102
4 104 105 107 106
4 108 109 111 110
