ply
format ascii 1.0
element vertex 348
property float x
property float y
property float z
property float nx
property float ny
property float nz
element quads 84
property list uchar int vertex_indices
element triads 4
property list uchar int vertex_indices
end_header
97 333 0 1 0 0
97 264 0 1 0 0
97 264 100 1 0 0
97 333 100 1 0 0
87 343 0 -1 -0 0
87 264 0 -1 -0 0
87 264 100 -1 -0 0
87 343 100 -1 -0 0
87 343 0 -0 1 0
140 343 0 -0 1 0
140 343 100 -0 1 0
87 343 100 -0 1 0
97 333 0 0 -1 0
150 333 0 0 -1 0
150 333 100 0 -1 0
97 333 100 0 -1 0
449 427 0 1 0 0
449 372 0 1 0 0
449 372 100 1 0 0
449 427 100 1 0 0
439 437 0 -1 -0 0
439 382 0 -1 -0 0
439 382 100 -1 -0 0
439 437 100 -1 -0 0
439 437 0 -0 1 0
695 437 0 -0 1 0
695 437 100 -0 1 0
439 437 100 -0 1 0
449 427 0 0 -1 0
685 427 0 0 -1 0
685 427 100 0 -1 0
449 427 100 0 -1 0
449 372 0 -0 -1 0
150 372 0 -0 -1 0
150 372 100 -0 -1 0
449 372 100 -0 -1 0
439 382 0 0 1 0
140 382 0 0 1 0
140 382 100 0 1 0
439 382 100 0 1 0
150 372 0 1 0 0
150 333 0 1 0 0
150 333 100 1 0 0
150 372 100 1 0 0
140 382 0 -1 -0 0
140 343 0 -1 -0 0
140 343 100 -1 -0 0
140 382 100 -1 -0 0
150 205 0 1 0 0
150 158 0 1 0 0
150 158 100 1 0 0
150 205 100 1 0 0
140 195 0 -1 -0 0
140 148 0 -1 -0 0
140 148 100 -1 -0 0
140 195 100 -1 -0 0
140 195 0 -0 -1 0
92 195 0 -0 -1 0
92 195 100 -0 -1 0
140 195 100 -0 -1 0
150 205 0 0 1 0
92 205 0 0 1 0
92 205 100 0 1 0
150 205 100 0 1 0
150 158 0 -0 1 0
444 158 0 -0 1 0
444 158 100 -0 1 0
150 158 100 -0 1 0
140 148 0 0 -1 0
444 148 0 0 -1 0
444 148 100 0 -1 0
140 148 100 0 -1 0
444 116 0 -0 1 0
685 116 0 -0 1 0
685 116 100 -0 1 0
444 116 100 -0 1 0
444 106 0 0 -1 0
695 106 0 0 -1 0
695 106 100 0 -1 0
444 106 100 0 -1 0
685 116 0 -1 0 0
685 205 0 -1 0 0
685 205 100 -1 0 0
685 116 100 -1 0 0
695 106 0 1 -0 0
695 205 0 1 -0 0
695 205 100 1 -0 0
695 106 100 1 -0 0
695 437 0 1 0 0
695 269 0 1 0 0
695 269 100 1 0 0
695 437 100 1 0 0
685 427 0 -1 -0 0
685 269 0 -1 -0 0
685 269 100 -1 -0 0
685 427 100 -1 -0 0
227 254 0 -0 1 0
481 254 0 -0 1 0
481 254 100 -0 1 0
227 254 100 -0 1 0
227 244 0 0 -1 0
481 244 0 0 -1 0
481 244 100 0 -1 0
227 244 100 0 -1 0
227 240 0 -0 1 0
481 240 0 -0 1 0
481 240 100 -0 1 0
227 240 100 -0 1 0
227 230 0 0 -1 0
481 230 0 0 -1 0
481 230 100 0 -1 0
227 230 100 0 -1 0
690 195 0 -0 -1 0
644 195 0 -0 -1 0
644 195 100 -0 -1 0
690 195 100 -0 -1 0
695 205 0 0 1 0
644 205 0 0 1 0
644 205 100 0 1 0
695 205 100 0 1 0
685 205 0 -0 1 0
801 205 0 -0 1 0
801 205 100 -0 1 0
685 205 100 -0 1 0
690 195 0 0 -1 0
801 195 0 0 -1 0
801 195 100 0 -1 0
690 195 100 0 -1 0
644 269 0 -0 1 0
685 269 0 -0 1 0
685 269 100 -0 1 0
644 269 100 -0 1 0
644 259 0 0 -1 0
690 259 0 0 -1 0
690 259 100 0 -1 0
644 259 100 0 -1 0
695 269 0 -0 1 0
784 269 0 -0 1 0
784 269 100 -0 1 0
695 269 100 -0 1 0
690 259 0 0 -1 0
784 259 0 0 -1 0
784 259 100 0 -1 0
690 259 100 0 -1 0
97 264 0 95.5942001342773438 259.173919677734375 0
87 264 0 95.5942001342773438 259.173919677734375 0
87 264 100 95.5942001342773438 259.173919677734375 0
97 264 100 95.5942001342773438 259.173919677734375 0
444 116 0 441.157684326171875 115.518669128417969 0
444 106 0 441.157684326171875 115.518669128417969 0
444 106 100 441.157684326171875 115.518669128417969 0
444 116 100 441.157684326171875 115.518669128417969 0
92 195 0 89.0833358764648438 190.9375 0
92 205 0 89.0833358764648438 190.9375 0
92 205 100 89.0833358764648438 190.9375 0
92 195 100 89.0833358764648438 190.9375 0
444 158 0 443.48980712890625 157.46258544921875 0
444 148 0 443.48980712890625 157.46258544921875 0
444 148 100 443.48980712890625 157.46258544921875 0
444 158 100 443.48980712890625 157.46258544921875 0
227 254 0 225.106292724609375 253 0
227 244 0 225.106292724609375 253 0
227 244 100 225.106292724609375 253 0
227 254 100 225.106292724609375 253 0
481 254 0 480.106292724609375 253 0
481 244 0 480.106292724609375 253 0
481 244 100 480.106292724609375 253 0
481 254 100 480.106292724609375 253 0
227 240 0 225.106292724609375 239.05511474609375 0
227 230 0 225.106292724609375 239.05511474609375 0
227 230 100 225.106292724609375 239.05511474609375 0
227 240 100 225.106292724609375 239.05511474609375 0
481 240 0 480.106292724609375 239.05511474609375 0
481 230 0 480.106292724609375 239.05511474609375 0
481 230 100 480.106292724609375 239.05511474609375 0
481 240 100 480.106292724609375 239.05511474609375 0
644 195 0 629 190.7608642578125 0
644 205 0 629 190.7608642578125 0
644 205 100 629 190.7608642578125 0
644 195 100 629 190.7608642578125 0
801 205 0 795.0948486328125 203.232757568359375 0
801 195 0 795.0948486328125 203.232757568359375 0
801 195 100 795.0948486328125 203.232757568359375 0
801 205 100 795.0948486328125 203.232757568359375 0
644 269 0 627.29266357421875 262.43902587890625 0
644 259 0 627.29266357421875 262.43902587890625 0
644 259 100 627.29266357421875 262.43902587890625 0
644 269 100 627.29266357421875 262.43902587890625 0
784 269 0 776.1910400390625 265.9775390625 0
784 259 0 776.1910400390625 265.9775390625 0
784 259 100 776.1910400390625 265.9775390625 0
784 269 100 776.1910400390625 265.9775390625 0
97 333 0 0 0 -1
87 343 0 0 0 -1
87 264 0 0 0 -1
97 264 0 0 0 -1
97 333 100 0 0 1
87 343 100 0 0 1
87 264 100 0 0 1
97 264 100 0 0 1
87 343 0 0 0 -1
97 333 0 0 0 -1
150 333 0 0 0 -1
140 343 0 0 0 -1
87 343 100 0 0 1
97 333 100 0 0 1
150 333 100 0 0 1
140 343 100 0 0 1
449 427 0 0 0 -1
439 437 0 0 0 -1
439 382 0 0 0 -1
449 372 0 0 0 -1
449 427 100 0 0 1
439 437 100 0 0 1
439 382 100 0 0 1
449 372 100 0 0 1
439 437 0 0 0 -1
449 427 0 0 0 -1
685 427 0 0 0 -1
695 437 0 0 0 -1
439 437 100 0 0 1
449 427 100 0 0 1
685 427 100 0 0 1
695 437 100 0 0 1
449 372 0 0 0 -1
439 382 0 0 0 -1
140 382 0 0 0 -1
150 372 0 0 0 -1
449 372 100 0 0 1
439 382 100 0 0 1
140 382 100 0 0 1
150 372 100 0 0 1
150 372 0 0 0 -1
140 382 0 0 0 -1
140 343 0 0 0 -1
150 333 0 0 0 -1
150 372 100 0 0 1
140 382 100 0 0 1
140 343 100 0 0 1
150 333 100 0 0 1
150 205 0 0 0 -1
140 195 0 0 0 -1
140 148 0 0 0 -1
150 158 0 0 0 -1
150 205 100 0 0 1
140 195 100 0 0 1
140 148 100 0 0 1
150 158 100 0 0 1
140 195 0 0 0 -1
150 205 0 0 0 -1
92 205 0 0 0 -1
92 195 0 0 0 -1
140 195 100 0 0 1
150 205 100 0 0 1
92 205 100 0 0 1
92 195 100 0 0 1
150 158 0 0 0 -1
140 148 0 0 0 -1
444 148 0 0 0 -1
444 158 0 0 0 -1
150 158 100 0 0 1
140 148 100 0 0 1
444 148 100 0 0 1
444 158 100 0 0 1
444 116 0 0 0 -1
444 106 0 0 0 -1
695 106 0 0 0 -1
685 116 0 0 0 -1
444 116 100 0 0 1
444 106 100 0 0 1
695 106 100 0 0 1
685 116 100 0 0 1
685 116 0 0 0 -1
695 106 0 0 0 -1
695 205 0 0 0 -1
685 205 0 0 0 -1
685 116 100 0 0 1
695 106 100 0 0 1
695 205 100 0 0 1
685 205 100 0 0 1
695 437 0 0 0 -1
685 427 0 0 0 -1
685 269 0 0 0 -1
695 269 0 0 0 -1
695 437 100 0 0 1
685 427 100 0 0 1
685 269 100 0 0 1
695 269 100 0 0 1
227 254 0 0 0 -1
227 244 0 0 0 -1
481 244 0 0 0 -1
481 254 0 0 0 -1
227 254 100 0 0 1
227 244 100 0 0 1
481 244 100 0 0 1
481 254 100 0 0 1
227 240 0 0 0 -1
227 230 0 0 0 -1
481 230 0 0 0 -1
481 240 0 0 0 -1
227 240 100 0 0 1
227 230 100 0 0 1
481 230 100 0 0 1
481 240 100 0 0 1
690 195 0 0 0 -1
695 205 0 0 0 -1
644 205 0 0 0 -1
644 195 0 0 0 -1
690 195 100 0 0 1
695 205 100 0 0 1
644 205 100 0 0 1
644 195 100 0 0 1
685 205 0 0 0 -1
690 195 0 0 0 -1
801 195 0 0 0 -1
801 205 0 0 0 -1
685 205 100 0 0 1
690 195 100 0 0 1
801 195 100 0 0 1
801 205 100 0 0 1
644 269 0 0 0 -1
644 259 0 0 0 -1
690 259 0 0 0 -1
685 269 0 0 0 -1
644 269 100 0 0 1
644 259 100 0 0 1
690 259 100 0 0 1
685 269 100 0 0 1
695 269 0 0 0 -1
690 259 0 0 0 -1
784 259 0 0 0 -1
784 269 0 0 0 -1
695 269 100 0 0 1
690 259 100 0 0 1
784 259 100 0 0 1
784 269 100 0 0 1
695 205 0 0 0 -1
690 195 0 0 0 -1
685 205 0 0 0 -1
695 205 100 0 0 1
690 195 100 0 0 1
685 205 100 0 0 1
690 259 0 0 0 -1
695 269 0 0 0 -1
685 269 0 0 0 -1
690 259 100 0 0 1
695 269 100 0 0 1
685 269 100 0 0 1
4 0 1 2 3
4 4 5 6 7
4 8 9 10 11
4 12 13 14 15
4 16 17 18 19
4 20 21 22 23
4 24 25 26 27
4 28 29 30 31
4 32 33 34 35
4 36 37 38 39
4 40 41 42 43
4 44 45 46 47
4 48 49 50 51
4 52 53 54 55
4 56 57 58 59
4 60 61 62 63
4 64 65 66 67
4 68 69 70 71
4 72 73 74 75
4 76 77 78 79
4 80 81 82 83
4 84 85 86 87
4 88 89 90 91
4 92 93 94 95
4 96 97 98 99
4 100 101 102 103
4 104 105 106 107
4 108 109 110 111
4 112 113 114 115
4 116 117 118 119
4 120 121 122 123
4 124 125 126 127
4 128 129 130 131
4 132 133 134 135
4 136 137 138 139
4 140 141 142 143
4 144 145 146 147
4 148 149 150 151
4 152 153 154 155
4 156 157 158 159
4 160 161 162 163
4 164 165 166 167
4 168 169 170 171
4 172 173 174 175
4 176 177 178 179
4 180 181 182 183
4 184 185 186 187
4 188 189 190 191
4 192 193 194 195
4 196 197 198 199
4 200 201 202 203
4 204 205 206 207
4 208 209 210 211
4 212 213 214 215
4 216 217 218 219
4 220 221 222 223
4 224 225 226 227
4 228 229 230 231
4 232 233 234 235
4 236 237 238 239
4 240 241 242 243
4 244 245 246 247
4 248 249 250 251
4 252 253 254 255
4 256 257 258 259
4 260 261 262 263
4 264 265 266 267
4 268 269 270 271
4 272 273 274 275
4 276 277 278 279
4 280 281 282 283
4 284 285 286 287
4 288 289 290 291
4 292 293 294 295
4 296 297 298 299
4 300 301 302 303
4 304 305 306 307
4 308 309 310 311
4 312 313 314 315
4 316 317 318 319
4 320 321 322 323
4 324 325 326 327
4 328 329 330 331
4 332 333 334 335
3 336 337 338
3 339 340 341
3 342 343 344
3 345 346 347
