ply
format ascii 1.0
element vertex 774
property float x
property float y
property float z
property float nx
property float ny
property float nz
element quads 177
property list uchar int vertex_indices
element triads 22
property list uchar int vertex_indices
end_header
306 387 0 1 0 0
306 303 0 1 0 0
306 303 100 1 0 0
306 387 100 1 0 0
296 377 0 -1 -0 0
296 303 0 -1 -0 0
296 303 100 -1 -0 0
296 377 100 -1 -0 0
296 377 0 -0 -1 0
198 377 0 -0 -1 0
198 377 100 -0 -1 0
296 377 100 -0 -1 0
306 387 0 0 1 0
198 387 0 0 1 0
198 387 100 0 1 0
306 387 100 0 1 0
57 126 0 -0 1 0
416 126 0 -0 1 0
416 126 100 -0 1 0
57 126 100 -0 1 0
47 116 0 0 -1 0
416 116 0 0 -1 0
416 116 100 0 -1 0
47 116 100 0 -1 0
47 116 0 -1 0 0
47 326 0 -1 0 0
47 326 100 -1 0 0
47 116 100 -1 0 0
57 126 0 1 -0 0
57 321 0 1 -0 0
57 321 100 1 -0 0
57 126 100 1 -0 0
150 258 0 -0 1 0
188 258 0 -0 1 0
188 258 100 -0 1 0
150 258 100 -0 1 0
150 248 0 0 -1 0
198 248 0 0 -1 0
198 248 100 0 -1 0
150 248 100 0 -1 0
188 258 0 -1 0 0
188 274 0 -1 0 0
188 274 100 -1 0 0
188 258 100 -1 0 0
198 248 0 1 -0 0
198 269 0 1 -0 0
198 269 100 1 -0 0
198 248 100 1 -0 0
734 159 0 1 0 0
734 121 0 1 0 0
734 121 100 1 0 0
734 159 100 1 0 0
724 149 0 -1 -0 0
724 121 0 -1 -0 0
724 121 100 -1 -0 0
724 149 100 -1 -0 0
724 149 0 -0 -1 0
677 149 0 -0 -1 0
677 149 100 -0 -1 0
724 149 100 -0 -1 0
734 159 0 0 1 0
672 159 0 0 1 0
672 159 100 0 1 0
734 159 100 0 1 0
149 422 0 -0 1 0
198 422 0 -0 1 0
198 422 100 -0 1 0
149 422 100 -0 1 0
149 412 0 0 -1 0
188 412 0 0 -1 0
188 412 100 0 -1 0
149 412 100 0 -1 0
198 422 0 1 0 0
198 387 0 1 0 0
198 387 100 1 0 0
198 422 100 1 0 0
188 412 0 -1 -0 0
188 382 0 -1 -0 0
188 382 100 -1 -0 0
188 412 100 -1 -0 0
47 422 0 -0 1 0
99 422 0 -0 1 0
99 422 100 -0 1 0
47 422 100 -0 1 0
57 412 0 0 -1 0
99 412 0 0 -1 0
99 412 100 0 -1 0
57 412 100 0 -1 0
57 412 0 1 0 0
57 321 0 1 0 0
57 321 100 1 0 0
57 412 100 1 0 0
47 422 0 -1 -0 0
47 316 0 -1 -0 0
47 316 100 -1 -0 0
47 422 100 -1 -0 0
747 25 0 -0 1 0
769 25 0 -0 1 0
769 25 100 -0 1 0
747 25 100 -0 1 0
747 15 0 0 -1 0
779 15 0 0 -1 0
779 15 100 0 -1 0
747 15 100 0 -1 0
769 25 0 -1 0 0
769 198 0 -1 0 0
769 198 100 -1 0 0
769 25 100 -1 0 0
779 15 0 1 -0 0
779 203 0 1 -0 0
779 203 100 1 -0 0
779 15 100 1 -0 0
479 49 0 -0 1 0
672 49 0 -0 1 0
672 49 100 -0 1 0
479 49 100 -0 1 0
479 39 0 0 -1 0
672 39 0 0 -1 0
672 39 100 0 -1 0
479 39 100 0 -1 0
597 519 0 -0 1 0
656 519 0 -0 1 0
656 519 100 -0 1 0
597 519 100 -0 1 0
597 509 0 0 -1 0
656 509 0 0 -1 0
656 509 100 0 -1 0
597 509 100 0 -1 0
459 519 0 -0 1 0
521 519 0 -0 1 0
521 519 100 -0 1 0
459 519 100 -0 1 0
469 509 0 0 -1 0
521 509 0 0 -1 0
521 509 100 0 -1 0
469 509 100 0 -1 0
469 509 0 1 0 0
469 359 0 1 0 0
469 359 100 1 0 0
469 509 100 1 0 0
459 519 0 -1 -0 0
459 359 0 -1 -0 0
459 359 100 -1 -0 0
459 519 100 -1 -0 0
729 258 0 -0 1 0
779 258 0 -0 1 0
779 258 100 -0 1 0
729 258 100 -0 1 0
729 248 0 0 -1 0
769 248 0 0 -1 0
769 248 100 0 -1 0
729 248 100 0 -1 0
779 258 0 1 0 0
779 203 0 1 0 0
779 203 100 1 0 0
779 258 100 1 0 0
769 248 0 -1 -0 0
769 208 0 -1 -0 0
769 208 100 -1 -0 0
769 248 100 -1 -0 0
459 253 0 -1 0 0
459 274 0 -1 0 0
459 274 100 -1 0 0
459 253 100 -1 0 0
469 253 0 1 -0 0
469 274 0 1 -0 0
469 274 100 1 -0 0
469 253 100 1 -0 0
672 25 0 -0 1 0
698 25 0 -0 1 0
698 25 100 -0 1 0
672 25 100 -0 1 0
672 15 0 0 -1 0
698 15 0 0 -1 0
698 15 100 0 -1 0
672 15 100 0 -1 0
729 208 0 -0 1 0
769 208 0 -0 1 0
769 208 100 -0 1 0
729 208 100 -0 1 0
729 198 0 0 -1 0
769 198 0 0 -1 0
769 198 100 0 -1 0
729 198 100 0 -1 0
667 121 0 -1 0 0
667 149 0 -1 0 0
667 149 100 -1 0 0
667 121 100 -1 0 0
677 121 0 1 -0 0
677 149 0 1 -0 0
677 149 100 1 -0 0
677 121 100 1 -0 0
667 149 0 -0 -1 0
634 149 0 -0 -1 0
634 149 100 -0 -1 0
667 149 100 -0 -1 0
672 159 0 0 1 0
634 159 0 0 1 0
634 159 100 0 1 0
672 159 100 0 1 0
47 326 0 -0 1 0
188 326 0 -0 1 0
188 326 100 -0 1 0
47 326 100 -0 1 0
47 316 0 0 -1 0
188 316 0 0 -1 0
188 316 100 0 -1 0
47 316 100 0 -1 0
672 248 0 -0 -1 0
644 248 0 -0 -1 0
644 248 100 -0 -1 0
672 248 100 -0 -1 0
672 258 0 0 1 0
639 258 0 0 1 0
639 258 100 0 1 0
672 258 100 0 1 0
634 248 0 -0 -1 0
484 248 0 -0 -1 0
484 248 100 -0 -1 0
634 248 100 -0 -1 0
639 258 0 0 1 0
484 258 0 0 1 0
484 258 100 0 1 0
639 258 100 0 1 0
644 248 0 1 0 0
644 198 0 1 0 0
644 198 100 1 0 0
644 248 100 1 0 0
634 248 0 -1 -0 0
634 203 0 -1 -0 0
634 203 100 -1 -0 0
634 248 100 -1 -0 0
198 279 0 -0 1 0
236 279 0 -0 1 0
236 279 100 -0 1 0
198 279 100 -0 1 0
198 269 0 0 -1 0
236 269 0 0 -1 0
236 269 100 0 -1 0
198 269 100 0 -1 0
188 274 0 -1 0 0
188 316 0 -1 0 0
188 316 100 -1 0 0
188 274 100 -1 0 0
198 279 0 1 -0 0
198 321 0 1 -0 0
198 321 100 1 -0 0
198 279 100 1 -0 0
198 377 0 1 0 0
198 321 0 1 0 0
198 321 100 1 0 0
198 377 100 1 0 0
188 382 0 -1 -0 0
188 326 0 -1 -0 0
188 326 100 -1 -0 0
188 382 100 -1 -0 0
418 208 0 -0 1 0
479 208 0 -0 1 0
479 208 100 -0 1 0
418 208 100 -0 1 0
418 198 0 0 -1 0
484 198 0 0 -1 0
484 198 100 0 -1 0
418 198 100 0 -1 0
474 198 0 -1 0 0
474 253 0 -1 0 0
474 253 100 -1 0 0
474 198 100 -1 0 0
484 198 0 1 -0 0
484 248 0 1 -0 0
484 248 100 1 -0 0
484 198 100 1 -0 0
479 208 0 -0 1 0
644 208 0 -0 1 0
644 208 100 -0 1 0
479 208 100 -0 1 0
474 198 0 0 -1 0
644 198 0 0 -1 0
644 198 100 0 -1 0
474 198 100 0 -1 0
644 154 0 1 0 0
644 121 0 1 0 0
644 121 100 1 0 0
644 154 100 1 0 0
634 159 0 -1 -0 0
634 121 0 -1 -0 0
634 121 100 -1 -0 0
634 159 100 -1 -0 0
634 149 0 -1 0 0
634 203 0 -1 0 0
634 203 100 -1 0 0
634 149 100 -1 0 0
644 154 0 1 -0 0
644 208 0 1 -0 0
644 208 100 1 -0 0
644 154 100 1 -0 0
474 253 0 -1 0 0
474 362 0 -1 0 0
474 362 100 -1 0 0
474 253 100 -1 0 0
484 258 0 1 -0 0
484 362 0 1 -0 0
484 362 100 1 -0 0
484 258 100 1 -0 0
306 303 0 302.357147216796875 298.392852783203125 0
296 303 0 302.357147216796875 298.392852783203125 0
296 303 100 302.357147216796875 298.392852783203125 0
306 303 100 302.357147216796875 298.392852783203125 0
416 126 0 415.841217041015625 125.649024963378906 0
416 116 0 415.841217041015625 125.649024963378906 0
416 116 100 415.841217041015625 125.649024963378906 0
416 126 100 415.841217041015625 125.649024963378906 0
150 258 0 145.052627563476562 251.210525512695312 0
150 248 0 145.052627563476562 251.210525512695312 0
150 248 100 145.052627563476562 251.210525512695312 0
150 258 100 145.052627563476562 251.210525512695312 0
734 121 0 714.6842041015625 116.815788269042969 0
724 121 0 714.6842041015625 116.815788269042969 0
724 121 100 714.6842041015625 116.815788269042969 0
734 121 100 714.6842041015625 116.815788269042969 0
149 422 0 144.959182739257812 413.38775634765625 0
149 412 0 144.959182739257812 413.38775634765625 0
149 412 100 144.959182739257812 413.38775634765625 0
149 422 100 144.959182739257812 413.38775634765625 0
99 422 0 98.0961532592773438 413.884613037109375 0
99 412 0 98.0961532592773438 413.884613037109375 0
99 412 100 98.0961532592773438 413.884613037109375 0
99 422 100 98.0961532592773438 413.884613037109375 0
747 25 0 712.04547119140625 23.8636360168457031 0
747 15 0 712.04547119140625 23.8636360168457031 0
747 15 100 712.04547119140625 23.8636360168457031 0
747 25 100 712.04547119140625 23.8636360168457031 0
479 49 0 475.51812744140625 48.7461128234863281 0
479 39 0 475.51812744140625 48.7461128234863281 0
479 39 100 475.51812744140625 48.7461128234863281 0
479 49 100 475.51812744140625 48.7461128234863281 0
672 49 0 669.51812744140625 48.7461128234863281 0
672 39 0 669.51812744140625 48.7461128234863281 0
672 39 100 669.51812744140625 48.7461128234863281 0
672 49 100 669.51812744140625 48.7461128234863281 0
597 519 0 585.88134765625 510.203399658203125 0
597 509 0 585.88134765625 510.203399658203125 0
597 509 100 585.88134765625 510.203399658203125 0
597 519 100 585.88134765625 510.203399658203125 0
656 519 0 645.88134765625 510.203399658203125 0
656 509 0 645.88134765625 510.203399658203125 0
656 509 100 645.88134765625 510.203399658203125 0
656 519 100 645.88134765625 510.203399658203125 0
521 519 0 513.5968017578125 510.6290283203125 0
521 509 0 513.5968017578125 510.6290283203125 0
521 509 100 513.5968017578125 510.6290283203125 0
521 519 100 513.5968017578125 510.6290283203125 0
729 258 0 713.41998291015625 252.839996337890625 0
729 248 0 713.41998291015625 252.839996337890625 0
729 248 100 713.41998291015625 252.839996337890625 0
729 258 100 713.41998291015625 252.839996337890625 0
459 253 0 437.142852783203125 239.952377319335938 0
469 253 0 437.142852783203125 239.952377319335938 0
469 253 100 437.142852783203125 239.952377319335938 0
459 253 100 437.142852783203125 239.952377319335938 0
459 274 0 437.142852783203125 261.952392578125 0
469 274 0 437.142852783203125 261.952392578125 0
469 274 100 437.142852783203125 261.952392578125 0
459 274 100 437.142852783203125 261.952392578125 0
672 25 0 645.15386962890625 24.0384616851806641 0
672 15 0 645.15386962890625 24.0384616851806641 0
672 15 100 645.15386962890625 24.0384616851806641 0
672 25 100 645.15386962890625 24.0384616851806641 0
698 25 0 672.15386962890625 24.0384616851806641 0
698 15 0 672.15386962890625 24.0384616851806641 0
698 15 100 672.15386962890625 24.0384616851806641 0
698 25 100 672.15386962890625 24.0384616851806641 0
469 359 0 465.873321533203125 355.606658935546875 0
459 359 0 465.873321533203125 355.606658935546875 0
459 359 100 465.873321533203125 355.606658935546875 0
469 359 100 465.873321533203125 355.606658935546875 0
729 208 0 709.7750244140625 202.800003051757812 0
729 198 0 709.7750244140625 202.800003051757812 0
729 198 100 709.7750244140625 202.800003051757812 0
729 208 100 709.7750244140625 202.800003051757812 0
667 121 0 643.1785888671875 115.678573608398438 0
677 121 0 643.1785888671875 115.678573608398438 0
677 121 100 643.1785888671875 115.678573608398438 0
667 121 100 643.1785888671875 115.678573608398438 0
672 248 0 649 239.142852783203125 0
672 258 0 649 239.142852783203125 0
672 258 100 649 239.142852783203125 0
672 248 100 649 239.142852783203125 0
236 279 0 230.789474487304688 271.65789794921875 0
236 269 0 230.789474487304688 271.65789794921875 0
236 269 100 230.789474487304688 271.65789794921875 0
236 279 100 230.789474487304688 271.65789794921875 0
418 208 0 410.147552490234375 204.590164184570312 0
418 198 0 410.147552490234375 204.590164184570312 0
418 198 100 410.147552490234375 204.590164184570312 0
418 208 100 410.147552490234375 204.590164184570312 0
644 121 0 624.48486328125 116.333335876464844 0
634 121 0 624.48486328125 116.333335876464844 0
634 121 100 624.48486328125 116.333335876464844 0
644 121 100 624.48486328125 116.333335876464844 0
474 362 0 469.6513671875 359.67889404296875 0
484 362 0 469.6513671875 359.67889404296875 0
484 362 100 469.6513671875 359.67889404296875 0
474 362 100 469.6513671875 359.67889404296875 0
306 387 0 0 0 -1
296 377 0 0 0 -1
296 303 0 0 0 -1
306 303 0 0 0 -1
306 387 100 0 0 1
296 377 100 0 0 1
296 303 100 0 0 1
306 303 100 0 0 1
296 377 0 0 0 -1
306 387 0 0 0 -1
198 387 0 0 0 -1
198 377 0 0 0 -1
296 377 100 0 0 1
306 387 100 0 0 1
198 387 100 0 0 1
198 377 100 0 0 1
57 126 0 0 0 -1
47 116 0 0 0 -1
416 116 0 0 0 -1
416 126 0 0 0 -1
57 126 100 0 0 1
47 116 100 0 0 1
416 116 100 0 0 1
416 126 100 0 0 1
47 116 0 0 0 -1
57 126 0 0 0 -1
57 321 0 0 0 -1
47 326 0 0 0 -1
47 116 100 0 0 1
57 126 100 0 0 1
57 321 100 0 0 1
47 326 100 0 0 1
150 258 0 0 0 -1
150 248 0 0 0 -1
198 248 0 0 0 -1
188 258 0 0 0 -1
150 258 100 0 0 1
150 248 100 0 0 1
198 248 100 0 0 1
188 258 100 0 0 1
188 258 0 0 0 -1
198 248 0 0 0 -1
198 269 0 0 0 -1
188 274 0 0 0 -1
188 258 100 0 0 1
198 248 100 0 0 1
198 269 100 0 0 1
188 274 100 0 0 1
734 159 0 0 0 -1
724 149 0 0 0 -1
724 121 0 0 0 -1
734 121 0 0 0 -1
734 159 100 0 0 1
724 149 100 0 0 1
724 121 100 0 0 1
734 121 100 0 0 1
724 149 0 0 0 -1
734 159 0 0 0 -1
672 159 0 0 0 -1
677 149 0 0 0 -1
724 149 100 0 0 1
734 159 100 0 0 1
672 159 100 0 0 1
677 149 100 0 0 1
149 422 0 0 0 -1
149 412 0 0 0 -1
188 412 0 0 0 -1
198 422 0 0 0 -1
149 422 100 0 0 1
149 412 100 0 0 1
188 412 100 0 0 1
198 422 100 0 0 1
198 422 0 0 0 -1
188 412 0 0 0 -1
188 382 0 0 0 -1
198 387 0 0 0 -1
198 422 100 0 0 1
188 412 100 0 0 1
188 382 100 0 0 1
198 387 100 0 0 1
47 422 0 0 0 -1
57 412 0 0 0 -1
99 412 0 0 0 -1
99 422 0 0 0 -1
47 422 100 0 0 1
57 412 100 0 0 1
99 412 100 0 0 1
99 422 100 0 0 1
57 412 0 0 0 -1
47 422 0 0 0 -1
47 316 0 0 0 -1
57 321 0 0 0 -1
57 412 100 0 0 1
47 422 100 0 0 1
47 316 100 0 0 1
57 321 100 0 0 1
747 25 0 0 0 -1
747 15 0 0 0 -1
779 15 0 0 0 -1
769 25 0 0 0 -1
747 25 100 0 0 1
747 15 100 0 0 1
779 15 100 0 0 1
769 25 100 0 0 1
769 25 0 0 0 -1
779 15 0 0 0 -1
779 203 0 0 0 -1
769 198 0 0 0 -1
769 25 100 0 0 1
779 15 100 0 0 1
779 203 100 0 0 1
769 198 100 0 0 1
479 49 0 0 0 -1
479 39 0 0 0 -1
672 39 0 0 0 -1
672 49 0 0 0 -1
479 49 100 0 0 1
479 39 100 0 0 1
672 39 100 0 0 1
672 49 100 0 0 1
597 519 0 0 0 -1
597 509 0 0 0 -1
656 509 0 0 0 -1
656 519 0 0 0 -1
597 519 100 0 0 1
597 509 100 0 0 1
656 509 100 0 0 1
656 519 100 0 0 1
459 519 0 0 0 -1
469 509 0 0 0 -1
521 509 0 0 0 -1
521 519 0 0 0 -1
459 519 100 0 0 1
469 509 100 0 0 1
521 509 100 0 0 1
521 519 100 0 0 1
469 509 0 0 0 -1
459 519 0 0 0 -1
459 359 0 0 0 -1
469 359 0 0 0 -1
469 509 100 0 0 1
459 519 100 0 0 1
459 359 100 0 0 1
469 359 100 0 0 1
729 258 0 0 0 -1
729 248 0 0 0 -1
769 248 0 0 0 -1
779 258 0 0 0 -1
729 258 100 0 0 1
729 248 100 0 0 1
769 248 100 0 0 1
779 258 100 0 0 1
779 258 0 0 0 -1
769 248 0 0 0 -1
769 208 0 0 0 -1
779 203 0 0 0 -1
779 258 100 0 0 1
769 248 100 0 0 1
769 208 100 0 0 1
779 203 100 0 0 1
459 253 0 0 0 -1
469 253 0 0 0 -1
469 274 0 0 0 -1
459 274 0 0 0 -1
459 253 100 0 0 1
469 253 100 0 0 1
469 274 100 0 0 1
459 274 100 0 0 1
672 25 0 0 0 -1
672 15 0 0 0 -1
698 15 0 0 0 -1
698 25 0 0 0 -1
672 25 100 0 0 1
672 15 100 0 0 1
698 15 100 0 0 1
698 25 100 0 0 1
729 208 0 0 0 -1
729 198 0 0 0 -1
769 198 0 0 0 -1
769 208 0 0 0 -1
729 208 100 0 0 1
729 198 100 0 0 1
769 198 100 0 0 1
769 208 100 0 0 1
667 121 0 0 0 -1
677 121 0 0 0 -1
677 149 0 0 0 -1
667 149 0 0 0 -1
667 121 100 0 0 1
677 121 100 0 0 1
677 149 100 0 0 1
667 149 100 0 0 1
667 149 0 0 0 -1
672 159 0 0 0 -1
634 159 0 0 0 -1
634 149 0 0 0 -1
667 149 100 0 0 1
672 159 100 0 0 1
634 159 100 0 0 1
634 149 100 0 0 1
47 326 0 0 0 -1
47 316 0 0 0 -1
188 316 0 0 0 -1
188 326 0 0 0 -1
47 326 100 0 0 1
47 316 100 0 0 1
188 316 100 0 0 1
188 326 100 0 0 1
672 248 0 0 0 -1
672 258 0 0 0 -1
639 258 0 0 0 -1
644 248 0 0 0 -1
672 248 100 0 0 1
672 258 100 0 0 1
639 258 100 0 0 1
644 248 100 0 0 1
634 248 0 0 0 -1
639 258 0 0 0 -1
484 258 0 0 0 -1
484 248 0 0 0 -1
634 248 100 0 0 1
639 258 100 0 0 1
484 258 100 0 0 1
484 248 100 0 0 1
644 248 0 0 0 -1
634 248 0 0 0 -1
634 203 0 0 0 -1
644 198 0 0 0 -1
644 248 100 0 0 1
634 248 100 0 0 1
634 203 100 0 0 1
644 198 100 0 0 1
198 279 0 0 0 -1
198 269 0 0 0 -1
236 269 0 0 0 -1
236 279 0 0 0 -1
198 279 100 0 0 1
198 269 100 0 0 1
236 269 100 0 0 1
236 279 100 0 0 1
188 274 0 0 0 -1
198 279 0 0 0 -1
198 321 0 0 0 -1
188 316 0 0 0 -1
188 274 100 0 0 1
198 279 100 0 0 1
198 321 100 0 0 1
188 316 100 0 0 1
198 377 0 0 0 -1
188 382 0 0 0 -1
188 326 0 0 0 -1
198 321 0 0 0 -1
198 377 100 0 0 1
188 382 100 0 0 1
188 326 100 0 0 1
198 321 100 0 0 1
418 208 0 0 0 -1
418 198 0 0 0 -1
484 198 0 0 0 -1
479 208 0 0 0 -1
418 208 100 0 0 1
418 198 100 0 0 1
484 198 100 0 0 1
479 208 100 0 0 1
474 198 0 0 0 -1
484 198 0 0 0 -1
484 248 0 0 0 -1
474 253 0 0 0 -1
474 198 100 0 0 1
484 198 100 0 0 1
484 248 100 0 0 1
474 253 100 0 0 1
479 208 0 0 0 -1
474 198 0 0 0 -1
644 198 0 0 0 -1
644 208 0 0 0 -1
479 208 100 0 0 1
474 198 100 0 0 1
644 198 100 0 0 1
644 208 100 0 0 1
644 154 0 0 0 -1
634 159 0 0 0 -1
634 121 0 0 0 -1
644 121 0 0 0 -1
644 154 100 0 0 1
634 159 100 0 0 1
634 121 100 0 0 1
644 121 100 0 0 1
634 149 0 0 0 -1
644 154 0 0 0 -1
644 208 0 0 0 -1
634 203 0 0 0 -1
634 149 100 0 0 1
644 154 100 0 0 1
644 208 100 0 0 1
634 203 100 0 0 1
474 253 0 0 0 -1
484 258 0 0 0 -1
484 362 0 0 0 -1
474 362 0 0 0 -1
474 253 100 0 0 1
484 258 100 0 0 1
484 362 100 0 0 1
474 362 100 0 0 1
769 198 0 0 0 -1
779 203 0 0 0 -1
769 208 0 0 0 -1
769 198 100 0 0 1
779 203 100 0 0 1
769 208 100 0 0 1
677 149 0 0 0 -1
672 159 0 0 0 -1
667 149 0 0 0 -1
677 149 100 0 0 1
672 159 100 0 0 1
667 149 100 0 0 1
57 321 0 0 0 -1
47 316 0 0 0 -1
47 326 0 0 0 -1
57 321 100 0 0 1
47 316 100 0 0 1
47 326 100 0 0 1
639 258 0 0 0 -1
634 248 0 0 0 -1
644 248 0 0 0 -1
639 258 100 0 0 1
634 248 100 0 0 1
644 248 100 0 0 1
198 269 0 0 0 -1
198 279 0 0 0 -1
188 274 0 0 0 -1
198 269 100 0 0 1
198 279 100 0 0 1
188 274 100 0 0 1
198 387 0 0 0 -1
188 382 0 0 0 -1
198 377 0 0 0 -1
198 387 100 0 0 1
188 382 100 0 0 1
198 377 100 0 0 1
484 198 0 0 0 -1
474 198 0 0 0 -1
479 208 0 0 0 -1
484 198 100 0 0 1
474 198 100 0 0 1
479 208 100 0 0 1
634 159 0 0 0 -1
644 154 0 0 0 -1
634 149 0 0 0 -1
634 159 100 0 0 1
644 154 100 0 0 1
634 149 100 0 0 1
188 316 0 0 0 -1
198 321 0 0 0 -1
188 326 0 0 0 -1
188 316 100 0 0 1
198 321 100 0 0 1
188 326 100 0 0 1
484 258 0 0 0 -1
474 253 0 0 0 -1
484 248 0 0 0 -1
484 258 100 0 0 1
474 253 100 0 0 1
484 248 100 0 0 1
644 198 0 0 0 -1
634 203 0 0 0 -1
644 208 0 0 0 -1
644 198 100 0 0 1
634 203 100 0 0 1
644 208 100 0 0 1
4 0 1 2 3
4 4 5 6 7
4 8 9 10 11
4 12 13 14 15
4 16 17 18 19
4 20 21 22 23
4 24 25 26 27
4 28 29 30 31
4 32 33 34 35
4 36 37 38 39
4 40 41 42 43
4 44 45 46 47
4 48 49 50 51
4 52 53 54 55
4 56 57 58 59
4 60 61 62 63
4 64 65 66 67
4 68 69 70 71
4 72 73 74 75
4 76 77 78 79
4 80 81 82 83
4 84 85 86 87
4 88 89 90 91
4 92 93 94 95
4 96 97 98 99
4 100 101 102 103
4 104 105 106 107
4 108 109 110 111
4 112 113 114 115
4 116 117 118 119
4 120 121 122 123
4 124 125 126 127
4 128 129 130 131
4 132 133 134 135
4 136 137 138 139
4 140 141 142 143
4 144 145 146 147
4 148 149 150 151
4 152 153 154 155
4 156 157 158 159
4 160 161 162 163
4 164 165 166 167
4 168 169 170 171
4 172 173 174 175
4 176 177 178 179
4 180 181 182 183
4 184 185 186 187
4 188 189 190 191
4 192 193 194 195
4 196 197 198 199
4 200 201 202 203
4 204 205 206 207
4 208 209 210 211
4 212 213 214 215
4 216 217 218 219
4 220 221 222 223
4 224 225 226 227
4 228 229 230 231
4 232 233 234 235
4 236 237 238 239
4 240 241 242 243
4 244 245 246 247
4 248 249 250 251
4 252 253 254 255
4 256 257 258 259
4 260 261 262 263
4 264 265 266 267
4 268 269 270 271
4 272 273 274 275
4 276 277 278 279
4 280 281 282 283
4 284 285 286 287
4 288 289 290 291
4 292 293 294 295
4 296 297 298 299
4 300 301 302 303
4 304 305 306 307
4 308 309 310 311
4 312 313 314 315
4 316 317 318 319
4 320 321 322 323
4 324 325 326 327
4 328 329 330 331
4 332 333 334 335
4 336 337 338 339
4 340 341 342 343
4 344 345 346 347
4 348 349 350 351
4 352 353 354 355
4 356 357 358 359
4 360 361 362 363
4 364 365 366 367
4 368 369 370 371
4 372 373 374 375
4 376 377 378 379
4 380 381 382 383
4 384 385 386 387
4 388 389 390 391
4 392 393 394 395
4 396 397 398 399
4 400 401 402 403
4 404 405 406 407
4 408 409 410 411
4 412 413 414 415
4 416 417 418 419
4 420 421 422 423
4 424 425 426 427
4 428 429 430 431
4 432 433 434 435
4 436 437 438 439
4 440 441 442 443
4 444 445 446 447
4 448 449 450 451
4 452 453 454 455
4 456 457 458 459
4 460 461 462 463
4 464 465 466 467
4 468 469 470 471
4 472 473 474 475
4 476 477 478 479
4 480 481 482 483
4 484 485 486 487
4 488 489 490 491
4 492 493 494 495
4 496 497 498 499
4 500 501 502 503
4 504 505 506 507
4 508 509 510 511
4 512 513 514 515
4 516 517 518 519
4 520 521 522 523
4 524 525 526 527
4 528 529 530 531
4 532 533 534 535
4 536 537 538 539
4 540 541 542 543
4 544 545 546 547
4 548 549 550 551
4 552 553 554 555
4 556 557 558 559
4 560 561 562 563
4 564 565 566 567
4 568 569 570 571
4 572 573 574 575
4 576 577 578 579
4 580 581 582 583
4 584 585 586 587
4 588 589 590 591
4 592 593 594 595
4 596 597 598 599
4 600 601 602 603
4 604 605 606 607
4 608 609 610 611
4 612 613 614 615
4 616 617 618 619
4 620 621 622 623
4 624 625 626 627
4 628 629 630 631
4 632 633 634 635
4 636 637 638 639
4 640 641 642 643
4 644 645 646 647
4 648 649 650 651
4 652 653 654 655
4 656 657 658 659
4 660 661 662 663
4 664 665 666 667
4 668 669 670 671
4 672 673 674 675
4 676 677 678 679
4 680 681 682 683
4 684 685 686 687
4 688 689 690 691
4 692 693 694 695
4 696 697 698 699
4 700 701 702 703
4 704 705 706 707
3 708 709 710
3 711 712 713
3 714 715 716
3 717 718 719
3 720 721 722
3 723 724 725
3 726 727 728
3 729 730 731
3 732 733 734
3 735 736 737
3 738 739 740
3 741 742 743
3 744 745 746
3 747 748 749
3 750 751 752
3 753 754 755
3 756 757 758
3 759 760 761
3 762 763 764
3 765 766 767
3 768 769 770
3 771 772 773
