ply
format ascii 1.0
element vertex 608
property float x
property float y
property float z
property float nx
property float ny
property float nz
element quads 140
property list uchar int vertex_indices
element triads 16
property list uchar int vertex_indices
end_header
467 369 0 1 0 0
467 318 0 1 0 0
467 318 100 1 0 0
467 369 100 1 0 0
457 369 0 -1 -0 0
457 318 0 -1 -0 0
457 318 100 -1 -0 0
457 369 100 -1 -0 0
352 157 0 1 0 0
352 136 0 1 0 0
352 136 100 1 0 0
352 157 100 1 0 0
342 157 0 -1 -0 0
342 136 0 -1 -0 0
342 136 100 -1 -0 0
342 157 100 -1 -0 0
467 276 0 1 0 0
467 258 0 1 0 0
467 258 100 1 0 0
467 276 100 1 0 0
457 286 0 -1 -0 0
457 258 0 -1 -0 0
457 258 100 -1 -0 0
457 286 100 -1 -0 0
457 286 0 -0 1 0
513 286 0 -0 1 0
513 286 100 -0 1 0
457 286 100 -0 1 0
467 276 0 0 -1 0
508 276 0 0 -1 0
508 276 100 0 -1 0
467 276 100 0 -1 0
414 204 0 1 0 0
414 157 0 1 0 0
414 157 100 1 0 0
414 204 100 1 0 0
404 204 0 -1 -0 0
404 157 0 -1 -0 0
404 157 100 -1 -0 0
404 204 100 -1 -0 0
223 338 0 -1 0 0
223 391 0 -1 0 0
223 391 100 -1 0 0
223 338 100 -1 0 0
233 338 0 1 -0 0
233 391 0 1 -0 0
233 391 100 1 -0 0
233 338 100 1 -0 0
364 452 0 -0 1 0
409 452 0 -0 1 0
409 452 100 -0 1 0
364 452 100 -0 1 0
364 442 0 0 -1 0
409 442 0 0 -1 0
409 442 100 0 -1 0
364 442 100 0 -1 0
255 452 0 -0 1 0
306 452 0 -0 1 0
306 452 100 -0 1 0
255 452 100 -0 1 0
265 442 0 0 -1 0
306 442 0 0 -1 0
306 442 100 0 -1 0
265 442 100 0 -1 0
265 442 0 1 0 0
265 281 0 1 0 0
265 281 100 1 0 0
265 442 100 1 0 0
255 452 0 -1 -0 0
255 276 0 -1 -0 0
255 276 100 -1 -0 0
255 452 100 -1 -0 0
580 452 0 -0 1 0
638 452 0 -0 1 0
638 452 100 -0 1 0
580 452 100 -0 1 0
580 442 0 0 -1 0
628 442 0 0 -1 0
628 442 100 0 -1 0
580 442 100 0 -1 0
638 452 0 1 0 0
638 302 0 1 0 0
638 302 100 1 0 0
638 452 100 1 0 0
628 442 0 -1 -0 0
628 307 0 -1 -0 0
628 307 100 -1 -0 0
628 442 100 -1 -0 0
597 162 0 -0 1 0
628 162 0 -0 1 0
628 162 100 -0 1 0
597 162 100 -0 1 0
597 152 0 0 -1 0
638 152 0 0 -1 0
638 152 100 0 -1 0
597 152 100 0 -1 0
628 162 0 -1 0 0
628 297 0 -1 0 0
628 297 100 -1 0 0
628 162 100 -1 0 0
638 152 0 1 -0 0
638 302 0 1 -0 0
638 302 100 1 -0 0
638 152 100 1 -0 0
503 286 0 -0 1 0
544 286 0 -0 1 0
544 286 100 -0 1 0
503 286 100 -0 1 0
508 276 0 0 -1 0
549 276 0 0 -1 0
549 276 100 0 -1 0
508 276 100 0 -1 0
513 286 0 1 0 0
513 152 0 1 0 0
513 152 100 1 0 0
513 286 100 1 0 0
503 286 0 -1 -0 0
503 152 0 -1 -0 0
503 152 100 -1 -0 0
503 286 100 -1 -0 0
628 297 0 -0 -1 0
575 297 0 -0 -1 0
575 297 100 -0 -1 0
628 297 100 -0 -1 0
628 307 0 0 1 0
575 307 0 0 1 0
575 307 100 0 1 0
628 307 100 0 1 0
255 157 0 -1 0 0
255 286 0 -1 0 0
255 286 100 -1 0 0
255 157 100 -1 0 0
265 157 0 1 -0 0
265 281 0 1 -0 0
265 281 100 1 -0 0
265 157 100 1 -0 0
255 286 0 -0 1 0
363 286 0 -0 1 0
363 286 100 -0 1 0
255 286 100 -0 1 0
255 276 0 0 -1 0
363 276 0 0 -1 0
363 276 100 0 -1 0
255 276 100 0 -1 0
503 318 0 -1 0 0
503 452 0 -1 0 0
503 452 100 -1 0 0
503 318 100 -1 0 0
513 318 0 1 -0 0
513 452 0 1 -0 0
513 452 100 1 -0 0
513 318 100 1 -0 0
508 442 0 -0 -1 0
479 442 0 -0 -1 0
479 442 100 -0 -1 0
508 442 100 -0 -1 0
513 452 0 0 1 0
479 452 0 0 1 0
479 452 100 0 1 0
513 452 100 0 1 0
503 452 0 -0 1 0
528 452 0 -0 1 0
528 452 100 -0 1 0
503 452 100 -0 1 0
508 442 0 0 -1 0
528 442 0 0 -1 0
528 442 100 0 -1 0
508 442 100 0 -1 0
441 135 0 -1 0 0
441 162 0 -1 0 0
441 162 100 -1 0 0
441 135 100 -1 0 0
451 135 0 1 -0 0
451 157 0 1 -0 0
451 157 100 1 -0 0
451 135 100 1 -0 0
441 152 0 -1 0 0
441 281 0 -1 0 0
441 281 100 -1 0 0
441 152 100 -1 0 0
451 157 0 1 -0 0
451 281 0 1 -0 0
451 281 100 1 -0 0
451 157 100 1 -0 0
441 162 0 -0 1 0
508 162 0 -0 1 0
508 162 100 -0 1 0
441 162 100 -0 1 0
441 152 0 0 -1 0
513 152 0 0 -1 0
513 152 100 0 -1 0
441 152 100 0 -1 0
575 286 0 -1 0 0
575 307 0 -1 0 0
575 307 100 -1 0 0
575 286 100 -1 0 0
585 276 0 1 -0 0
585 302 0 1 -0 0
585 302 100 1 -0 0
585 276 100 1 -0 0
585 276 0 -0 -1 0
539 276 0 -0 -1 0
539 276 100 -0 -1 0
585 276 100 -0 -1 0
575 286 0 0 1 0
544 286 0 0 1 0
544 286 100 0 1 0
575 286 100 0 1 0
575 297 0 -1 0 0
575 375 0 -1 0 0
575 375 100 -1 0 0
575 297 100 -1 0 0
585 302 0 1 -0 0
585 375 0 1 -0 0
585 375 100 1 -0 0
585 302 100 1 -0 0
549 406 0 1 0 0
549 276 0 1 0 0
549 276 100 1 0 0
549 406 100 1 0 0
539 406 0 -1 -0 0
539 276 0 -1 -0 0
539 276 100 -1 -0 0
539 406 100 -1 -0 0
508 162 0 -0 1 0
544 162 0 -0 1 0
544 162 100 -0 1 0
508 162 100 -0 1 0
503 152 0 0 -1 0
544 152 0 0 -1 0
544 152 100 0 -1 0
503 152 100 0 -1 0
467 369 0 457.8431396484375 362.76470947265625 0
457 369 0 457.8431396484375 362.76470947265625 0
457 369 100 457.8431396484375 362.76470947265625 0
467 369 100 457.8431396484375 362.76470947265625 0
467 318 0 457.8431396484375 310.76470947265625 0
457 318 0 457.8431396484375 310.76470947265625 0
457 318 100 457.8431396484375 310.76470947265625 0
467 318 100 457.8431396484375 310.76470947265625 0
352 157 0 335.23809814453125 150.5238037109375 0
342 157 0 335.23809814453125 150.5238037109375 0
342 157 100 335.23809814453125 150.5238037109375 0
352 157 100 335.23809814453125 150.5238037109375 0
352 136 0 335.23809814453125 128.5238037109375 0
342 136 0 335.23809814453125 128.5238037109375 0
342 136 100 335.23809814453125 128.5238037109375 0
352 136 100 335.23809814453125 128.5238037109375 0
467 258 0 441.0555419921875 242.666671752929688 0
457 258 0 441.0555419921875 242.666671752929688 0
457 258 100 441.0555419921875 242.666671752929688 0
467 258 100 441.0555419921875 242.666671752929688 0
414 204 0 405.191497802734375 200.659576416015625 0
404 204 0 405.191497802734375 200.659576416015625 0
404 204 100 405.191497802734375 200.659576416015625 0
414 204 100 405.191497802734375 200.659576416015625 0
414 157 0 405.191497802734375 152.659576416015625 0
404 157 0 405.191497802734375 152.659576416015625 0
404 157 100 405.191497802734375 152.659576416015625 0
414 157 100 405.191497802734375 152.659576416015625 0
223 338 0 218.792449951171875 330.622650146484375 0
233 338 0 218.792449951171875 330.622650146484375 0
233 338 100 218.792449951171875 330.622650146484375 0
223 338 100 218.792449951171875 330.622650146484375 0
223 391 0 218.792449951171875 384.622650146484375 0
233 391 0 218.792449951171875 384.622650146484375 0
233 391 100 218.792449951171875 384.622650146484375 0
223 391 100 218.792449951171875 384.622650146484375 0
364 452 0 354.911102294921875 441.95556640625 0
364 442 0 354.911102294921875 441.95556640625 0
364 442 100 354.911102294921875 441.95556640625 0
364 452 100 354.911102294921875 441.95556640625 0
409 452 0 400.911102294921875 441.95556640625 0
409 442 0 400.911102294921875 441.95556640625 0
409 442 100 400.911102294921875 441.95556640625 0
409 452 100 400.911102294921875 441.95556640625 0
306 452 0 301 443.13726806640625 0
306 442 0 301 443.13726806640625 0
306 442 100 301 443.13726806640625 0
306 452 100 301 443.13726806640625 0
580 452 0 569 444.2069091796875 0
580 442 0 569 444.2069091796875 0
580 442 100 569 444.2069091796875 0
580 452 100 569 444.2069091796875 0
597 162 0 576.741943359375 156.774200439453125 0
597 152 0 576.741943359375 156.774200439453125 0
597 152 100 576.741943359375 156.774200439453125 0
597 162 100 576.741943359375 156.774200439453125 0
255 157 0 253.02325439453125 154.782943725585938 0
265 157 0 253.02325439453125 154.782943725585938 0
265 157 100 253.02325439453125 154.782943725585938 0
255 157 100 253.02325439453125 154.782943725585938 0
363 286 0 360.638885498046875 283.351837158203125 0
363 276 0 360.638885498046875 283.351837158203125 0
363 276 100 360.638885498046875 283.351837158203125 0
363 286 100 360.638885498046875 283.351837158203125 0
503 318 0 499.24627685546875 314.626861572265625 0
513 318 0 499.24627685546875 314.626861572265625 0
513 318 100 499.24627685546875 314.626861572265625 0
503 318 100 499.24627685546875 314.626861572265625 0
479 442 0 461.482757568359375 426.75860595703125 0
479 452 0 461.482757568359375 426.75860595703125 0
479 452 100 461.482757568359375 426.75860595703125 0
479 442 100 461.482757568359375 426.75860595703125 0
528 452 0 507.8800048828125 433.920013427734375 0
528 442 0 507.8800048828125 433.920013427734375 0
528 442 100 507.8800048828125 433.920013427734375 0
528 452 100 507.8800048828125 433.920013427734375 0
441 135 0 424.666656494140625 129 0
451 135 0 424.666656494140625 129 0
451 135 100 424.666656494140625 129 0
441 135 100 424.666656494140625 129 0
441 281 0 437.581390380859375 279.82171630859375 0
451 281 0 437.581390380859375 279.82171630859375 0
451 281 100 437.581390380859375 279.82171630859375 0
441 281 100 437.581390380859375 279.82171630859375 0
575 375 0 567.62823486328125 371.19232177734375 0
585 375 0 567.62823486328125 371.19232177734375 0
585 375 100 567.62823486328125 371.19232177734375 0
575 375 100 567.62823486328125 371.19232177734375 0
549 406 0 544.77691650390625 403.876922607421875 0
539 406 0 544.77691650390625 403.876922607421875 0
539 406 100 544.77691650390625 403.876922607421875 0
549 406 100 544.77691650390625 403.876922607421875 0
544 162 0 529.888916015625 157.5 0
544 152 0 529.888916015625 157.5 0
544 152 100 529.888916015625 157.5 0
544 162 100 529.888916015625 157.5 0
467 369 0 0 0 -1
457 369 0 0 0 -1
457 318 0 0 0 -1
467 318 0 0 0 -1
467 369 100 0 0 1
457 369 100 0 0 1
457 318 100 0 0 1
467 318 100 0 0 1
352 157 0 0 0 -1
342 157 0 0 0 -1
342 136 0 0 0 -1
352 136 0 0 0 -1
352 157 100 0 0 1
342 157 100 0 0 1
342 136 100 0 0 1
352 136 100 0 0 1
467 276 0 0 0 -1
457 286 0 0 0 -1
457 258 0 0 0 -1
467 258 0 0 0 -1
467 276 100 0 0 1
457 286 100 0 0 1
457 258 100 0 0 1
467 258 100 0 0 1
457 286 0 0 0 -1
467 276 0 0 0 -1
508 276 0 0 0 -1
513 286 0 0 0 -1
457 286 100 0 0 1
467 276 100 0 0 1
508 276 100 0 0 1
513 286 100 0 0 1
414 204 0 0 0 -1
404 204 0 0 0 -1
404 157 0 0 0 -1
414 157 0 0 0 -1
414 204 100 0 0 1
404 204 100 0 0 1
404 157 100 0 0 1
414 157 100 0 0 1
223 338 0 0 0 -1
233 338 0 0 0 -1
233 391 0 0 0 -1
223 391 0 0 0 -1
223 338 100 0 0 1
233 338 100 0 0 1
233 391 100 0 0 1
223 391 100 0 0 1
364 452 0 0 0 -1
364 442 0 0 0 -1
409 442 0 0 0 -1
409 452 0 0 0 -1
364 452 100 0 0 1
364 442 100 0 0 1
409 442 100 0 0 1
409 452 100 0 0 1
255 452 0 0 0 -1
265 442 0 0 0 -1
306 442 0 0 0 -1
306 452 0 0 0 -1
255 452 100 0 0 1
265 442 100 0 0 1
306 442 100 0 0 1
306 452 100 0 0 1
265 442 0 0 0 -1
255 452 0 0 0 -1
255 276 0 0 0 -1
265 281 0 0 0 -1
265 442 100 0 0 1
255 452 100 0 0 1
255 276 100 0 0 1
265 281 100 0 0 1
580 452 0 0 0 -1
580 442 0 0 0 -1
628 442 0 0 0 -1
638 452 0 0 0 -1
580 452 100 0 0 1
580 442 100 0 0 1
628 442 100 0 0 1
638 452 100 0 0 1
638 452 0 0 0 -1
628 442 0 0 0 -1
628 307 0 0 0 -1
638 302 0 0 0 -1
638 452 100 0 0 1
628 442 100 0 0 1
628 307 100 0 0 1
638 302 100 0 0 1
597 162 0 0 0 -1
597 152 0 0 0 -1
638 152 0 0 0 -1
628 162 0 0 0 -1
597 162 100 0 0 1
597 152 100 0 0 1
638 152 100 0 0 1
628 162 100 0 0 1
628 162 0 0 0 -1
638 152 0 0 0 -1
638 302 0 0 0 -1
628 297 0 0 0 -1
628 162 100 0 0 1
638 152 100 0 0 1
638 302 100 0 0 1
628 297 100 0 0 1
503 286 0 0 0 -1
508 276 0 0 0 -1
549 276 0 0 0 -1
544 286 0 0 0 -1
503 286 100 0 0 1
508 276 100 0 0 1
549 276 100 0 0 1
544 286 100 0 0 1
513 286 0 0 0 -1
503 286 0 0 0 -1
503 152 0 0 0 -1
513 152 0 0 0 -1
513 286 100 0 0 1
503 286 100 0 0 1
503 152 100 0 0 1
513 152 100 0 0 1
628 297 0 0 0 -1
628 307 0 0 0 -1
575 307 0 0 0 -1
575 297 0 0 0 -1
628 297 100 0 0 1
628 307 100 0 0 1
575 307 100 0 0 1
575 297 100 0 0 1
255 157 0 0 0 -1
265 157 0 0 0 -1
265 281 0 0 0 -1
255 286 0 0 0 -1
255 157 100 0 0 1
265 157 100 0 0 1
265 281 100 0 0 1
255 286 100 0 0 1
255 286 0 0 0 -1
255 276 0 0 0 -1
363 276 0 0 0 -1
363 286 0 0 0 -1
255 286 100 0 0 1
255 276 100 0 0 1
363 276 100 0 0 1
363 286 100 0 0 1
503 318 0 0 0 -1
513 318 0 0 0 -1
513 452 0 0 0 -1
503 452 0 0 0 -1
503 318 100 0 0 1
513 318 100 0 0 1
513 452 100 0 0 1
503 452 100 0 0 1
508 442 0 0 0 -1
513 452 0 0 0 -1
479 452 0 0 0 -1
479 442 0 0 0 -1
508 442 100 0 0 1
513 452 100 0 0 1
479 452 100 0 0 1
479 442 100 0 0 1
503 452 0 0 0 -1
508 442 0 0 0 -1
528 442 0 0 0 -1
528 452 0 0 0 -1
503 452 100 0 0 1
508 442 100 0 0 1
528 442 100 0 0 1
528 452 100 0 0 1
441 135 0 0 0 -1
451 135 0 0 0 -1
451 157 0 0 0 -1
441 162 0 0 0 -1
441 135 100 0 0 1
451 135 100 0 0 1
451 157 100 0 0 1
441 162 100 0 0 1
441 152 0 0 0 -1
451 157 0 0 0 -1
451 281 0 0 0 -1
441 281 0 0 0 -1
441 152 100 0 0 1
451 157 100 0 0 1
451 281 100 0 0 1
441 281 100 0 0 1
441 162 0 0 0 -1
441 152 0 0 0 -1
513 152 0 0 0 -1
508 162 0 0 0 -1
441 162 100 0 0 1
441 152 100 0 0 1
513 152 100 0 0 1
508 162 100 0 0 1
575 286 0 0 0 -1
585 276 0 0 0 -1
585 302 0 0 0 -1
575 307 0 0 0 -1
575 286 100 0 0 1
585 276 100 0 0 1
585 302 100 0 0 1
575 307 100 0 0 1
585 276 0 0 0 -1
575 286 0 0 0 -1
544 286 0 0 0 -1
539 276 0 0 0 -1
585 276 100 0 0 1
575 286 100 0 0 1
544 286 100 0 0 1
539 276 100 0 0 1
575 297 0 0 0 -1
585 302 0 0 0 -1
585 375 0 0 0 -1
575 375 0 0 0 -1
575 297 100 0 0 1
585 302 100 0 0 1
585 375 100 0 0 1
575 375 100 0 0 1
549 406 0 0 0 -1
539 406 0 0 0 -1
539 276 0 0 0 -1
549 276 0 0 0 -1
549 406 100 0 0 1
539 406 100 0 0 1
539 276 100 0 0 1
549 276 100 0 0 1
508 162 0 0 0 -1
503 152 0 0 0 -1
544 152 0 0 0 -1
544 162 0 0 0 -1
508 162 100 0 0 1
503 152 100 0 0 1
544 152 100 0 0 1
544 162 100 0 0 1
508 276 0 0 0 -1
503 286 0 0 0 -1
513 286 0 0 0 -1
508 276 100 0 0 1
503 286 100 0 0 1
513 286 100 0 0 1
638 302 0 0 0 -1
628 307 0 0 0 -1
628 297 0 0 0 -1
638 302 100 0 0 1
628 307 100 0 0 1
628 297 100 0 0 1
265 281 0 0 0 -1
255 276 0 0 0 -1
255 286 0 0 0 -1
265 281 100 0 0 1
255 276 100 0 0 1
255 286 100 0 0 1
513 452 0 0 0 -1
508 442 0 0 0 -1
503 452 0 0 0 -1
513 452 100 0 0 1
508 442 100 0 0 1
503 452 100 0 0 1
451 157 0 0 0 -1
441 152 0 0 0 -1
441 162 0 0 0 -1
451 157 100 0 0 1
441 152 100 0 0 1
441 162 100 0 0 1
585 302 0 0 0 -1
575 297 0 0 0 -1
575 307 0 0 0 -1
585 302 100 0 0 1
575 297 100 0 0 1
575 307 100 0 0 1
539 276 0 0 0 -1
544 286 0 0 0 -1
549 276 0 0 0 -1
539 276 100 0 0 1
544 286 100 0 0 1
549 276 100 0 0 1
503 152 0 0 0 -1
508 162 0 0 0 -1
513 152 0 0 0 -1
503 152 100 0 0 1
508 162 100 0 0 1
513 152 100 0 0 1
4 0 1 2 3
4 4 5 6 7
4 8 9 10 11
4 12 13 14 15
4 16 17 18 19
4 20 21 22 23
4 24 25 26 27
4 28 29 30 31
4 32 33 34 35
4 36 37 38 39
4 40 41 42 43
4 44 45 46 47
4 48 49 50 51
4 52 53 54 55
4 56 57 58 59
4 60 61 62 63
4 64 65 66 67
4 68 69 70 71
4 72 73 74 75
4 76 77 78 79
4 80 81 82 83
4 84 85 86 87
4 88 89 90 91
4 92 93 94 95
4 96 97 98 99
4 100 101 102 103
4 104 105 106 107
4 108 109 110 111
4 112 113 114 115
4 116 117 118 119
4 120 121 122 123
4 124 125 126 127
4 128 129 130 131
4 132 133 134 135
4 136 137 138 139
4 140 141 142 143
4 144 145 146 147
4 148 149 150 151
4 152 153 154 155
4 156 157 158 159
4 160 161 162 163
4 164 165 166 167
4 168 169 170 171
4 172 173 174 175
4 176 177 178 179
4 180 181 182 183
4 184 185 186 187
4 188 189 190 191
4 192 193 194 195
4 196 197 198 199
4 200 201 202 203
4 204 205 206 207
4 208 209 210 211
4 212 213 214 215
4 216 217 218 219
4 220 221 222 223
4 224 225 226 227
4 228 229 230 231
4 232 233 234 235
4 236 237 238 239
4 240 241 242 243
4 244 245 246 247
4 248 249 250 251
4 252 253 254 255
4 256 257 258 259
4 260 261 262 263
4 264 265 266 267
4 268 269 270 271
4 272 273 274 275
4 276 277 278 279
4 280 281 282 283
4 284 285 286 287
4 288 289 290 291
4 292 293 294 295
4 296 297 298 299
4 300 301 302 303
4 304 305 306 307
4 308 309 310 311
4 312 313 314 315
4 316 317 318 319
4 320 321 322 323
4 324 325 326 327
4 328 329 330 331
4 332 333 334 335
4 336 337 338 339
4 340 341 342 343
4 344 345 346 347
4 348 349 350 351
4 352 353 354 355
4 356 357 358 359
4 360 361 362 363
4 364 365 366 367
4 368 369 370 371
4 372 373 374 375
4 376 377 378 379
4 380 381 382 383
4 384 385 386 387
4 388 389 390 391
4 392 393 394 395
4 396 397 398 399
4 400 401 402 403
4 404 405 406 407
4 408 409 410 411
4 412 413 414 415
4 416 417 418 419
4 420 421 422 423
4 424 425 426 427
4 428 429 430 431
4 432 433 434 435
4 436 437 438 439
4 440 441 442 443
4 444 445 446 447
4 448 449 450 451
4 452 453 454 455
4 456 457 458 459
4 460 461 462 463
4 464 465 466 467
4 468 469 470 471
4 472 473 474 475
4 476 477 478 479
4 480 481 482 483
4 484 485 486 487
4 488 489 490 491
4 492 493 494 495
4 496 497 498 499
4 500 501 502 503
4 504 505 506 507
4 508 509 510 511
4 512 513 514 515
4 516 517 518 519
4 520 521 522 523
4 524 525 526 527
4 528 529 530 531
4 532 533 534 535
4 536 537 538 539
4 540 541 542 543
4 544 545 546 547
4 548 549 550 551
4 552 553 554 555
4 556 557 558 559
3 560 561 562
3 563 564 565
3 566 567 568
3 569 570 571
3 572 573 574
3 575 576 577
3 578 579 580
3 581 582 583
3 584 585 586
3 587 588 589
3 590 591 592
3 593 594 595
3 596 597 598
3 599 600 601
3 602 603 604
3 605 606 607
