ply
format ascii 1.0
element vertex 352
property float x
property float y
property float z
property float nx
property float ny
property float nz
element quads 80
property list uchar int vertex_indices
element triads 12
property list uchar int vertex_indices
end_header
351 12 0 -0 1 0
402 12 0 -0 1 0
402 12 100 -0 1 0
351 12 100 -0 1 0
351 2 0 0 -1 0
412 2 0 0 -1 0
412 2 100 0 -1 0
351 2 100 0 -1 0
402 12 0 -1 0 0
402 117 0 -1 0 0
402 117 100 -1 0 0
402 12 100 -1 0 0
412 2 0 1 -0 0
412 112 0 1 -0 0
412 112 100 1 -0 0
412 2 100 1 -0 0
241 12 0 -0 1 0
291 12 0 -0 1 0
291 12 100 -0 1 0
241 12 100 -0 1 0
231 2 0 0 -1 0
291 2 0 0 -1 0
291 2 100 0 -1 0
231 2 100 0 -1 0
231 2 0 -1 0 0
231 323 0 -1 0 0
231 323 100 -1 0 0
231 2 100 -1 0 0
241 12 0 1 -0 0
241 313 0 1 -0 0
241 313 100 1 -0 0
241 12 100 1 -0 0
231 323 0 -0 1 0
412 323 0 -0 1 0
412 323 100 -0 1 0
231 323 100 -0 1 0
241 313 0 0 -1 0
407 313 0 0 -1 0
407 313 100 0 -1 0
241 313 100 0 -1 0
402 237 0 -1 0 0
402 323 0 -1 0 0
402 323 100 -1 0 0
402 237 100 -1 0 0
412 237 0 1 -0 0
412 323 0 1 -0 0
412 323 100 1 -0 0
412 237 100 1 -0 0
402 323 0 -0 1 0
450 323 0 -0 1 0
450 323 100 -0 1 0
402 323 100 -0 1 0
407 313 0 0 -1 0
450 313 0 0 -1 0
450 313 100 0 -1 0
407 313 100 0 -1 0
489 358 0 -0 -1 0
460 358 0 -0 -1 0
460 358 100 -0 -1 0
489 358 100 -0 -1 0
489 368 0 0 1 0
460 368 0 0 1 0
460 368 100 0 1 0
489 368 100 0 1 0
450 363 0 -1 0 0
450 416 0 -1 0 0
450 416 100 -1 0 0
450 363 100 -1 0 0
460 368 0 1 -0 0
460 416 0 1 -0 0
460 416 100 1 -0 0
460 368 100 1 -0 0
460 358 0 1 0 0
460 318 0 1 0 0
460 318 100 1 0 0
460 358 100 1 0 0
450 363 0 -1 -0 0
450 323 0 -1 -0 0
450 323 100 -1 -0 0
450 363 100 -1 -0 0
548 368 0 -0 1 0
578 368 0 -0 1 0
578 368 100 -0 1 0
548 368 100 -0 1 0
548 358 0 0 -1 0
578 358 0 0 -1 0
578 358 100 0 -1 0
548 358 100 0 -1 0
588 363 0 1 0 0
588 112 0 1 0 0
588 112 100 1 0 0
588 363 100 1 0 0
578 358 0 -1 -0 0
578 112 0 -1 -0 0
578 112 100 -1 -0 0
578 358 100 -1 -0 0
578 368 0 -1 0 0
578 416 0 -1 0 0
578 416 100 -1 0 0
578 368 100 -1 0 0
588 363 0 1 -0 0
588 416 0 1 -0 0
588 416 100 1 -0 0
588 363 100 1 -0 0
382 117 0 -0 1 0
402 117 0 -0 1 0
402 117 100 -0 1 0
382 117 100 -0 1 0
382 107 0 0 -1 0
407 107 0 0 -1 0
407 107 100 0 -1 0
382 107 100 0 -1 0
402 117 0 -0 1 0
513 117 0 -0 1 0
513 117 100 -0 1 0
402 117 100 -0 1 0
407 107 0 0 -1 0
513 107 0 0 -1 0
513 107 100 0 -1 0
407 107 100 0 -1 0
402 117 0 -1 0 0
402 159 0 -1 0 0
402 159 100 -1 0 0
402 117 100 -1 0 0
412 112 0 1 -0 0
412 159 0 1 -0 0
412 159 100 1 -0 0
412 112 100 1 -0 0
460 318 0 1 0 0
460 269 0 1 0 0
460 269 100 1 0 0
460 318 100 1 0 0
450 313 0 -1 -0 0
450 269 0 -1 -0 0
450 269 100 -1 -0 0
450 313 100 -1 -0 0
351 12 0 343.117645263671875 11.7647056579589844 0
351 2 0 343.117645263671875 11.7647056579589844 0
351 2 100 343.117645263671875 11.7647056579589844 0
351 12 100 343.117645263671875 11.7647056579589844 0
291 12 0 286.17999267578125 11.7600002288818359 0
291 2 0 286.17999267578125 11.7600002288818359 0
291 2 100 286.17999267578125 11.7600002288818359 0
291 12 100 286.17999267578125 11.7600002288818359 0
402 237 0 397.325592041015625 233.244186401367188 0
412 237 0 397.325592041015625 233.244186401367188 0
412 237 100 397.325592041015625 233.244186401367188 0
402 237 100 397.325592041015625 233.244186401367188 0
489 358 0 473.137939453125 345.655181884765625 0
489 368 0 473.137939453125 345.655181884765625 0
489 368 100 473.137939453125 345.655181884765625 0
489 358 100 473.137939453125 345.655181884765625 0
450 416 0 441.509429931640625 409.15093994140625 0
460 416 0 441.509429931640625 409.15093994140625 0
460 416 100 441.509429931640625 409.15093994140625 0
450 416 100 441.509429931640625 409.15093994140625 0
548 368 0 528.73333740234375 355.73333740234375 0
548 358 0 528.73333740234375 355.73333740234375 0
548 358 100 528.73333740234375 355.73333740234375 0
548 368 100 528.73333740234375 355.73333740234375 0
588 112 0 585.6573486328125 110.553787231445312 0
578 112 0 585.6573486328125 110.553787231445312 0
578 112 100 585.6573486328125 110.553787231445312 0
588 112 100 585.6573486328125 110.553787231445312 0
578 416 0 565.95831298828125 408.333343505859375 0
588 416 0 565.95831298828125 408.333343505859375 0
588 416 100 565.95831298828125 408.333343505859375 0
578 416 100 565.95831298828125 408.333343505859375 0
382 117 0 361.899993896484375 111.150001525878906 0
382 107 0 361.899993896484375 111.150001525878906 0
382 107 100 361.899993896484375 111.150001525878906 0
382 117 100 361.899993896484375 111.150001525878906 0
513 117 0 509.378387451171875 115.945945739746094 0
513 107 0 509.378387451171875 115.945945739746094 0
513 107 100 509.378387451171875 115.945945739746094 0
513 117 100 509.378387451171875 115.945945739746094 0
402 159 0 392.428558349609375 156.214279174804688 0
412 159 0 392.428558349609375 156.214279174804688 0
412 159 100 392.428558349609375 156.214279174804688 0
402 159 100 392.428558349609375 156.214279174804688 0
460 269 0 450.61224365234375 262.51019287109375 0
450 269 0 450.61224365234375 262.51019287109375 0
450 269 100 450.61224365234375 262.51019287109375 0
460 269 100 450.61224365234375 262.51019287109375 0
351 12 0 0 0 -1
351 2 0 0 0 -1
412 2 0 0 0 -1
402 12 0 0 0 -1
351 12 100 0 0 1
351 2 100 0 0 1
412 2 100 0 0 1
402 12 100 0 0 1
402 12 0 0 0 -1
412 2 0 0 0 -1
412 112 0 0 0 -1
402 117 0 0 0 -1
402 12 100 0 0 1
412 2 100 0 0 1
412 112 100 0 0 1
402 117 100 0 0 1
241 12 0 0 0 -1
231 2 0 0 0 -1
291 2 0 0 0 -1
291 12 0 0 0 -1
241 12 100 0 0 1
231 2 100 0 0 1
291 2 100 0 0 1
291 12 100 0 0 1
231 2 0 0 0 -1
241 12 0 0 0 -1
241 313 0 0 0 -1
231 323 0 0 0 -1
231 2 100 0 0 1
241 12 100 0 0 1
241 313 100 0 0 1
231 323 100 0 0 1
231 323 0 0 0 -1
241 313 0 0 0 -1
407 313 0 0 0 -1
412 323 0 0 0 -1
231 323 100 0 0 1
241 313 100 0 0 1
407 313 100 0 0 1
412 323 100 0 0 1
402 237 0 0 0 -1
412 237 0 0 0 -1
412 323 0 0 0 -1
402 323 0 0 0 -1
402 237 100 0 0 1
412 237 100 0 0 1
412 323 100 0 0 1
402 323 100 0 0 1
402 323 0 0 0 -1
407 313 0 0 0 -1
450 313 0 0 0 -1
450 323 0 0 0 -1
402 323 100 0 0 1
407 313 100 0 0 1
450 313 100 0 0 1
450 323 100 0 0 1
489 358 0 0 0 -1
489 368 0 0 0 -1
460 368 0 0 0 -1
460 358 0 0 0 -1
489 358 100 0 0 1
489 368 100 0 0 1
460 368 100 0 0 1
460 358 100 0 0 1
450 363 0 0 0 -1
460 368 0 0 0 -1
460 416 0 0 0 -1
450 416 0 0 0 -1
450 363 100 0 0 1
460 368 100 0 0 1
460 416 100 0 0 1
450 416 100 0 0 1
460 358 0 0 0 -1
450 363 0 0 0 -1
450 323 0 0 0 -1
460 318 0 0 0 -1
460 358 100 0 0 1
450 363 100 0 0 1
450 323 100 0 0 1
460 318 100 0 0 1
548 368 0 0 0 -1
548 358 0 0 0 -1
578 358 0 0 0 -1
578 368 0 0 0 -1
548 368 100 0 0 1
548 358 100 0 0 1
578 358 100 0 0 1
578 368 100 0 0 1
588 363 0 0 0 -1
578 358 0 0 0 -1
578 112 0 0 0 -1
588 112 0 0 0 -1
588 363 100 0 0 1
578 358 100 0 0 1
578 112 100 0 0 1
588 112 100 0 0 1
578 368 0 0 0 -1
588 363 0 0 0 -1
588 416 0 0 0 -1
578 416 0 0 0 -1
578 368 100 0 0 1
588 363 100 0 0 1
588 416 100 0 0 1
578 416 100 0 0 1
382 117 0 0 0 -1
382 107 0 0 0 -1
407 107 0 0 0 -1
402 117 0 0 0 -1
382 117 100 0 0 1
382 107 100 0 0 1
407 107 100 0 0 1
402 117 100 0 0 1
402 117 0 0 0 -1
407 107 0 0 0 -1
513 107 0 0 0 -1
513 117 0 0 0 -1
402 117 100 0 0 1
407 107 100 0 0 1
513 107 100 0 0 1
513 117 100 0 0 1
402 117 0 0 0 -1
412 112 0 0 0 -1
412 159 0 0 0 -1
402 159 0 0 0 -1
402 117 100 0 0 1
412 112 100 0 0 1
412 159 100 0 0 1
402 159 100 0 0 1
460 318 0 0 0 -1
450 313 0 0 0 -1
450 269 0 0 0 -1
460 269 0 0 0 -1
460 318 100 0 0 1
450 313 100 0 0 1
450 269 100 0 0 1
460 269 100 0 0 1
412 323 0 0 0 -1
407 313 0 0 0 -1
402 323 0 0 0 -1
412 323 100 0 0 1
407 313 100 0 0 1
402 323 100 0 0 1
460 368 0 0 0 -1
450 363 0 0 0 -1
460 358 0 0 0 -1
460 368 100 0 0 1
450 363 100 0 0 1
460 358 100 0 0 1
578 358 0 0 0 -1
588 363 0 0 0 -1
578 368 0 0 0 -1
578 358 100 0 0 1
588 363 100 0 0 1
578 368 100 0 0 1
407 107 0 0 0 -1
402 117 0 0 0 -1
412 112 0 0 0 -1
402 117 0 0 0 -1
407 107 100 0 0 1
402 117 100 0 0 1
412 112 100 0 0 1
402 117 100 0 0 1
450 313 0 0 0 -1
460 318 0 0 0 -1
450 323 0 0 0 -1
450 313 100 0 0 1
460 318 100 0 0 1
450 323 100 0 0 1
4 0 1 2 3
4 4 5 6 7
4 8 9 10 11
4 12 13 14 15
4 16 17 18 19
4 20 21 22 23
4 24 25 26 27
4 28 29 30 31
4 32 33 34 35
4 36 37 38 39
4 40 41 42 43
4 44 45 46 47
4 48 49 50 51
4 52 53 54 55
4 56 57 58 59
4 60 61 62 63
4 64 65 66 67
4 68 69 70 71
4 72 73 74 75
4 76 77 78 79
4 80 81 82 83
4 84 85 86 87
4 88 89 90 91
4 92 93 94 95
4 96 97 98 99
4 100 101 102 103
4 104 105 106 107
4 108 109 110 111
4 112 113 114 115
4 116 117 118 119
4 120 121 122 123
4 124 125 126 127
4 128 129 130 131
4 132 133 134 135
4 136 137 138 139
4 140 141 142 143
4 144 145 146 147
4 148 149 150 151
4 152 153 154 155
4 156 157 158 159
4 160 161 162 163
4 164 165 166 167
4 168 169 170 171
4 172 173 174 175
4 176 177 178 179
4 180 181 182 183
4 184 185 186 187
4 188 189 190 191
4 192 193 194 195
4 196 197 198 199
4 200 201 202 203
4 204 205 206 207
4 208 209 210 211
4 212 213 214 215
4 216 217 218 219
4 220 221 222 223
4 224 225 226 227
4 228 229 230 231
4 232 233 234 235
4 236 237 238 239
4 240 241 242 243
4 244 245 246 247
4 248 249 250 251
4 252 253 254 255
4 256 257 258 259
4 260 261 262 263
4 264 265 266 267
4 268 269 270 271
4 272 273 274 275
4 276 277 278 279
4 280 281 282 283
4 284 285 286 287
4 288 289 290 291
4 292 293 294 295
4 296 297 298 299
4 300 301 302 303
4 304 305 306 307
4 308 309 310 311
4 312 313 314 315
4 316 317 318 319
3 320 321 322
3 323 324 325
3 326 327 328
3 329 330 331
3 332 333 334
3 335 336 337
3 338 339 340
3 339 340 341
3 342 343 344
3 343 344 345
3 346 347 348
3 349 350 351
