ply
format ascii 1.0
element vertex 756
property float x
property float y
property float z
property float nx
property float ny
property float nz
element quads 168
property list uchar int vertex_indices
element triads 28
property list uchar int vertex_indices
end_header
243 8 0 -0 1 0
361 8 0 -0 1 0
361 8 100 -0 1 0
243 8 100 -0 1 0
233 -2 0 0 -1 0
371 -2 0 0 -1 0
371 -2 100 0 -1 0
233 -2 100 0 -1 0
233 -2 0 -1 0 0
233 149 0 -1 0 0
233 149 100 -1 0 0
233 -2 100 -1 0 0
243 8 0 1 -0 0
243 149 0 1 -0 0
243 149 100 1 -0 0
243 8 100 1 -0 0
361 8 0 -1 0 0
361 47 0 -1 0 0
361 47 100 -1 0 0
361 8 100 -1 0 0
371 -2 0 1 -0 0
371 42 0 1 -0 0
371 42 100 1 -0 0
371 -2 100 1 -0 0
389 367 0 -1 0 0
389 541 0 -1 0 0
389 541 100 -1 0 0
389 367 100 -1 0 0
399 377 0 1 -0 0
399 551 0 1 -0 0
399 551 100 1 -0 0
399 377 100 1 -0 0
399 377 0 -0 1 0
443 377 0 -0 1 0
443 377 100 -0 1 0
399 377 100 -0 1 0
389 367 0 0 -1 0
448 367 0 0 -1 0
448 367 100 0 -1 0
389 367 100 0 -1 0
389 541 0 -0 -1 0
223 541 0 -0 -1 0
223 541 100 -0 -1 0
389 541 100 -0 -1 0
399 551 0 0 1 0
213 551 0 0 1 0
213 551 100 0 1 0
399 551 100 0 1 0
305 403 0 -0 1 0
329 403 0 -0 1 0
329 403 100 -0 1 0
305 403 100 -0 1 0
305 393 0 0 -1 0
319 393 0 0 -1 0
319 393 100 0 -1 0
305 393 100 0 -1 0
329 403 0 1 0 0
329 372 0 1 0 0
329 372 100 1 0 0
329 403 100 1 0 0
319 393 0 -1 -0 0
319 372 0 -1 -0 0
319 372 100 -1 -0 0
319 393 100 -1 -0 0
223 541 0 1 0 0
223 403 0 1 0 0
223 403 100 1 0 0
223 541 100 1 0 0
213 551 0 -1 -0 0
213 398 0 -1 -0 0
213 398 100 -1 -0 0
213 551 100 -1 -0 0
422 241 0 1 0 0
422 159 0 1 0 0
422 159 100 1 0 0
422 241 100 1 0 0
412 241 0 -1 -0 0
412 154 0 -1 -0 0
412 154 100 -1 -0 0
412 241 100 -1 -0 0
422 149 0 1 0 0
422 93 0 1 0 0
422 93 100 1 0 0
422 149 100 1 0 0
412 154 0 -1 -0 0
412 93 0 -1 -0 0
412 93 100 -1 -0 0
412 154 100 -1 -0 0
422 159 0 -0 1 0
543 159 0 -0 1 0
543 159 100 -0 1 0
422 159 100 -0 1 0
422 149 0 0 -1 0
543 149 0 0 -1 0
543 149 100 0 -1 0
422 149 100 0 -1 0
453 517 0 1 0 0
453 377 0 1 0 0
453 377 100 1 0 0
453 517 100 1 0 0
443 517 0 -1 -0 0
443 377 0 -1 -0 0
443 377 100 -1 -0 0
443 517 100 -1 -0 0
453 377 0 -0 1 0
553 377 0 -0 1 0
553 377 100 -0 1 0
453 377 100 -0 1 0
448 367 0 0 -1 0
543 367 0 0 -1 0
543 367 100 0 -1 0
448 367 100 0 -1 0
553 377 0 1 0 0
553 258 0 1 0 0
553 258 100 1 0 0
553 377 100 1 0 0
543 367 0 -1 -0 0
543 263 0 -1 -0 0
543 263 100 -1 -0 0
543 367 100 -1 -0 0
448 268 0 -0 1 0
553 268 0 -0 1 0
553 268 100 -0 1 0
448 268 100 -0 1 0
448 258 0 0 -1 0
553 258 0 0 -1 0
553 258 100 0 -1 0
448 258 100 0 -1 0
553 268 0 1 0 0
553 154 0 1 0 0
553 154 100 1 0 0
553 268 100 1 0 0
543 263 0 -1 -0 0
543 159 0 -1 -0 0
543 159 100 -1 -0 0
543 263 100 -1 -0 0
213 81 0 -1 0 0
213 159 0 -1 0 0
213 159 100 -1 0 0
213 81 100 -1 0 0
223 81 0 1 -0 0
223 154 0 1 -0 0
223 154 100 1 -0 0
223 81 100 1 -0 0
213 149 0 -1 0 0
213 268 0 -1 0 0
213 268 100 -1 0 0
213 149 100 -1 0 0
223 154 0 1 -0 0
223 263 0 1 -0 0
223 263 100 1 -0 0
223 154 100 1 -0 0
213 159 0 -0 1 0
238 159 0 -0 1 0
238 159 100 -0 1 0
213 159 100 -0 1 0
213 149 0 0 -1 0
233 149 0 0 -1 0
233 149 100 0 -1 0
213 149 100 0 -1 0
329 372 0 1 0 0
329 241 0 1 0 0
329 241 100 1 0 0
329 372 100 1 0 0
319 372 0 -1 -0 0
319 246 0 -1 -0 0
319 246 100 -1 -0 0
319 372 100 -1 -0 0
468 47 0 -1 0 0
468 93 0 -1 0 0
468 93 100 -1 0 0
468 47 100 -1 0 0
478 37 0 1 -0 0
478 93 0 1 -0 0
478 93 100 1 -0 0
478 37 100 1 -0 0
478 37 0 -0 -1 0
361 37 0 -0 -1 0
361 37 100 -0 -1 0
478 37 100 -0 -1 0
468 47 0 0 1 0
361 47 0 0 1 0
361 47 100 0 1 0
468 47 100 0 1 0
473 103 0 -0 1 0
543 103 0 -0 1 0
543 103 100 -0 1 0
473 103 100 -0 1 0
478 93 0 0 -1 0
553 93 0 0 -1 0
553 93 100 0 -1 0
478 93 100 0 -1 0
468 93 0 -0 -1 0
412 93 0 -0 -1 0
412 93 100 -0 -1 0
468 93 100 -0 -1 0
473 103 0 0 1 0
417 103 0 0 1 0
417 103 100 0 1 0
473 103 100 0 1 0
543 103 0 -1 0 0
543 149 0 -1 0 0
543 149 100 -1 0 0
543 103 100 -1 0 0
553 93 0 1 -0 0
553 154 0 1 -0 0
553 154 100 1 -0 0
553 93 100 1 -0 0
243 268 0 1 0 0
243 241 0 1 0 0
243 241 100 1 0 0
243 268 100 1 0 0
233 258 0 -1 -0 0
233 241 0 -1 -0 0
233 241 100 -1 -0 0
233 258 100 -1 -0 0
233 258 0 -0 -1 0
213 258 0 -0 -1 0
213 258 100 -0 -1 0
233 258 100 -0 -1 0
243 268 0 0 1 0
213 268 0 0 1 0
213 268 100 0 1 0
243 268 100 0 1 0
243 241 0 1 0 0
243 217 0 1 0 0
243 217 100 1 0 0
243 241 100 1 0 0
233 241 0 -1 -0 0
233 217 0 -1 -0 0
233 217 100 -1 -0 0
233 241 100 -1 -0 0
256 263 0 1 0 0
256 246 0 1 0 0
256 246 100 1 0 0
256 263 100 1 0 0
246 263 0 -1 -0 0
246 241 0 -1 -0 0
246 241 100 -1 -0 0
246 263 100 -1 -0 0
256 236 0 1 0 0
256 217 0 1 0 0
256 217 100 1 0 0
256 236 100 1 0 0
246 241 0 -1 -0 0
246 217 0 -1 -0 0
246 217 100 -1 -0 0
246 241 100 -1 -0 0
256 246 0 -0 1 0
319 246 0 -0 1 0
319 246 100 -0 1 0
256 246 100 -0 1 0
256 236 0 0 -1 0
319 236 0 0 -1 0
319 236 100 0 -1 0
256 236 100 0 -1 0
213 258 0 -1 0 0
213 398 0 -1 0 0
213 398 100 -1 0 0
213 258 100 -1 0 0
223 263 0 1 -0 0
223 393 0 1 -0 0
223 393 100 1 -0 0
223 263 100 1 -0 0
361 37 0 -1 0 0
361 98 0 -1 0 0
361 98 100 -1 0 0
361 37 100 -1 0 0
371 42 0 1 -0 0
371 93 0 1 -0 0
371 93 100 1 -0 0
371 42 100 1 -0 0
238 393 0 -0 -1 0
223 393 0 -0 -1 0
223 393 100 -0 -1 0
238 393 100 -0 -1 0
238 403 0 0 1 0
223 403 0 0 1 0
223 403 100 0 1 0
238 403 100 0 1 0
238 159 0 -0 1 0
324 159 0 -0 1 0
324 159 100 -0 1 0
238 159 100 -0 1 0
243 149 0 0 -1 0
324 149 0 0 -1 0
324 149 100 0 -1 0
243 149 100 0 -1 0
422 93 0 -0 -1 0
371 93 0 -0 -1 0
371 93 100 -0 -1 0
422 93 100 -0 -1 0
417 103 0 0 1 0
371 103 0 0 1 0
371 103 100 0 1 0
417 103 100 0 1 0
319 215 0 -1 0 0
319 236 0 -1 0 0
319 236 100 -1 0 0
319 215 100 -1 0 0
329 215 0 1 -0 0
329 241 0 1 -0 0
329 241 100 1 -0 0
329 215 100 1 -0 0
371 117 0 1 0 0
371 103 0 1 0 0
371 103 100 1 0 0
371 117 100 1 0 0
361 117 0 -1 -0 0
361 98 0 -1 -0 0
361 98 100 -1 -0 0
361 117 100 -1 -0 0
305 403 0 291.291656494140625 386.208343505859375 0
305 393 0 291.291656494140625 386.208343505859375 0
305 393 100 291.291656494140625 386.208343505859375 0
305 403 100 291.291656494140625 386.208343505859375 0
422 241 0 416.853668212890625 239.06097412109375 0
412 241 0 416.853668212890625 239.06097412109375 0
412 241 100 416.853668212890625 239.06097412109375 0
422 241 100 416.853668212890625 239.06097412109375 0
453 517 0 449.7642822265625 514.30712890625 0
443 517 0 449.7642822265625 514.30712890625 0
443 517 100 449.7642822265625 514.30712890625 0
453 517 100 449.7642822265625 514.30712890625 0
448 268 0 442.73333740234375 265.4476318359375 0
448 258 0 442.73333740234375 265.4476318359375 0
448 258 100 442.73333740234375 265.4476318359375 0
448 268 100 442.73333740234375 265.4476318359375 0
213 81 0 210.26922607421875 78.9615402221679688 0
223 81 0 210.26922607421875 78.9615402221679688 0
223 81 100 210.26922607421875 78.9615402221679688 0
213 81 100 210.26922607421875 78.9615402221679688 0
243 217 0 232.875 206.958328247070312 0
233 217 0 232.875 206.958328247070312 0
233 217 100 232.875 206.958328247070312 0
243 217 100 232.875 206.958328247070312 0
256 263 0 240.941177368164062 248.5294189453125 0
246 263 0 240.941177368164062 248.5294189453125 0
246 263 100 240.941177368164062 248.5294189453125 0
256 263 100 240.941177368164062 248.5294189453125 0
256 217 0 242.526321411132812 204.578948974609375 0
246 217 0 242.526321411132812 204.578948974609375 0
246 217 100 242.526321411132812 204.578948974609375 0
256 217 100 242.526321411132812 204.578948974609375 0
238 393 0 223.133331298828125 366.79998779296875 0
238 403 0 223.133331298828125 366.79998779296875 0
238 403 100 223.133331298828125 366.79998779296875 0
238 393 100 223.133331298828125 366.79998779296875 0
324 159 0 321.2325439453125 157.151168823242188 0
324 149 0 321.2325439453125 157.151168823242188 0
324 149 100 321.2325439453125 157.151168823242188 0
324 159 100 321.2325439453125 157.151168823242188 0
319 215 0 303.80950927734375 203.76190185546875 0
329 215 0 303.80950927734375 203.76190185546875 0
329 215 100 303.80950927734375 203.76190185546875 0
319 215 100 303.80950927734375 203.76190185546875 0
371 117 0 344.5 109.642860412597656 0
361 117 0 344.5 109.642860412597656 0
361 117 100 344.5 109.642860412597656 0
371 117 100 344.5 109.642860412597656 0
243 8 0 0 0 -1
233 -2 0 0 0 -1
371 -2 0 0 0 -1
361 8 0 0 0 -1
243 8 100 0 0 1
233 -2 100 0 0 1
371 -2 100 0 0 1
361 8 100 0 0 1
233 -2 0 0 0 -1
243 8 0 0 0 -1
243 149 0 0 0 -1
233 149 0 0 0 -1
233 -2 100 0 0 1
243 8 100 0 0 1
243 149 100 0 0 1
233 149 100 0 0 1
361 8 0 0 0 -1
371 -2 0 0 0 -1
371 42 0 0 0 -1
361 47 0 0 0 -1
361 8 100 0 0 1
371 -2 100 0 0 1
371 42 100 0 0 1
361 47 100 0 0 1
389 367 0 0 0 -1
399 377 0 0 0 -1
399 551 0 0 0 -1
389 541 0 0 0 -1
389 367 100 0 0 1
399 377 100 0 0 1
399 551 100 0 0 1
389 541 100 0 0 1
399 377 0 0 0 -1
389 367 0 0 0 -1
448 367 0 0 0 -1
443 377 0 0 0 -1
399 377 100 0 0 1
389 367 100 0 0 1
448 367 100 0 0 1
443 377 100 0 0 1
389 541 0 0 0 -1
399 551 0 0 0 -1
213 551 0 0 0 -1
223 541 0 0 0 -1
389 541 100 0 0 1
399 551 100 0 0 1
213 551 100 0 0 1
223 541 100 0 0 1
305 403 0 0 0 -1
305 393 0 0 0 -1
319 393 0 0 0 -1
329 403 0 0 0 -1
305 403 100 0 0 1
305 393 100 0 0 1
319 393 100 0 0 1
329 403 100 0 0 1
329 403 0 0 0 -1
319 393 0 0 0 -1
319 372 0 0 0 -1
329 372 0 0 0 -1
329 403 100 0 0 1
319 393 100 0 0 1
319 372 100 0 0 1
329 372 100 0 0 1
223 541 0 0 0 -1
213 551 0 0 0 -1
213 398 0 0 0 -1
223 403 0 0 0 -1
223 541 100 0 0 1
213 551 100 0 0 1
213 398 100 0 0 1
223 403 100 0 0 1
422 241 0 0 0 -1
412 241 0 0 0 -1
412 154 0 0 0 -1
422 159 0 0 0 -1
422 241 100 0 0 1
412 241 100 0 0 1
412 154 100 0 0 1
422 159 100 0 0 1
422 149 0 0 0 -1
412 154 0 0 0 -1
412 93 0 0 0 -1
422 93 0 0 0 -1
422 149 100 0 0 1
412 154 100 0 0 1
412 93 100 0 0 1
422 93 100 0 0 1
422 159 0 0 0 -1
422 149 0 0 0 -1
543 149 0 0 0 -1
543 159 0 0 0 -1
422 159 100 0 0 1
422 149 100 0 0 1
543 149 100 0 0 1
543 159 100 0 0 1
453 517 0 0 0 -1
443 517 0 0 0 -1
443 377 0 0 0 -1
453 377 0 0 0 -1
453 517 100 0 0 1
443 517 100 0 0 1
443 377 100 0 0 1
453 377 100 0 0 1
453 377 0 0 0 -1
448 367 0 0 0 -1
543 367 0 0 0 -1
553 377 0 0 0 -1
453 377 100 0 0 1
448 367 100 0 0 1
543 367 100 0 0 1
553 377 100 0 0 1
553 377 0 0 0 -1
543 367 0 0 0 -1
543 263 0 0 0 -1
553 258 0 0 0 -1
553 377 100 0 0 1
543 367 100 0 0 1
543 263 100 0 0 1
553 258 100 0 0 1
448 268 0 0 0 -1
448 258 0 0 0 -1
553 258 0 0 0 -1
553 268 0 0 0 -1
448 268 100 0 0 1
448 258 100 0 0 1
553 258 100 0 0 1
553 268 100 0 0 1
553 268 0 0 0 -1
543 263 0 0 0 -1
543 159 0 0 0 -1
553 154 0 0 0 -1
553 268 100 0 0 1
543 263 100 0 0 1
543 159 100 0 0 1
553 154 100 0 0 1
213 81 0 0 0 -1
223 81 0 0 0 -1
223 154 0 0 0 -1
213 159 0 0 0 -1
213 81 100 0 0 1
223 81 100 0 0 1
223 154 100 0 0 1
213 159 100 0 0 1
213 149 0 0 0 -1
223 154 0 0 0 -1
223 263 0 0 0 -1
213 268 0 0 0 -1
213 149 100 0 0 1
223 154 100 0 0 1
223 263 100 0 0 1
213 268 100 0 0 1
213 159 0 0 0 -1
213 149 0 0 0 -1
233 149 0 0 0 -1
238 159 0 0 0 -1
213 159 100 0 0 1
213 149 100 0 0 1
233 149 100 0 0 1
238 159 100 0 0 1
329 372 0 0 0 -1
319 372 0 0 0 -1
319 246 0 0 0 -1
329 241 0 0 0 -1
329 372 100 0 0 1
319 372 100 0 0 1
319 246 100 0 0 1
329 241 100 0 0 1
468 47 0 0 0 -1
478 37 0 0 0 -1
478 93 0 0 0 -1
468 93 0 0 0 -1
468 47 100 0 0 1
478 37 100 0 0 1
478 93 100 0 0 1
468 93 100 0 0 1
478 37 0 0 0 -1
468 47 0 0 0 -1
361 47 0 0 0 -1
361 37 0 0 0 -1
478 37 100 0 0 1
468 47 100 0 0 1
361 47 100 0 0 1
361 37 100 0 0 1
473 103 0 0 0 -1
478 93 0 0 0 -1
553 93 0 0 0 -1
543 103 0 0 0 -1
473 103 100 0 0 1
478 93 100 0 0 1
553 93 100 0 0 1
543 103 100 0 0 1
468 93 0 0 0 -1
473 103 0 0 0 -1
417 103 0 0 0 -1
412 93 0 0 0 -1
468 93 100 0 0 1
473 103 100 0 0 1
417 103 100 0 0 1
412 93 100 0 0 1
543 103 0 0 0 -1
553 93 0 0 0 -1
553 154 0 0 0 -1
543 149 0 0 0 -1
543 103 100 0 0 1
553 93 100 0 0 1
553 154 100 0 0 1
543 149 100 0 0 1
243 268 0 0 0 -1
233 258 0 0 0 -1
233 241 0 0 0 -1
243 241 0 0 0 -1
243 268 100 0 0 1
233 258 100 0 0 1
233 241 100 0 0 1
243 241 100 0 0 1
233 258 0 0 0 -1
243 268 0 0 0 -1
213 268 0 0 0 -1
213 258 0 0 0 -1
233 258 100 0 0 1
243 268 100 0 0 1
213 268 100 0 0 1
213 258 100 0 0 1
243 241 0 0 0 -1
233 241 0 0 0 -1
233 217 0 0 0 -1
243 217 0 0 0 -1
243 241 100 0 0 1
233 241 100 0 0 1
233 217 100 0 0 1
243 217 100 0 0 1
256 263 0 0 0 -1
246 263 0 0 0 -1
246 241 0 0 0 -1
256 246 0 0 0 -1
256 263 100 0 0 1
246 263 100 0 0 1
246 241 100 0 0 1
256 246 100 0 0 1
256 236 0 0 0 -1
246 241 0 0 0 -1
246 217 0 0 0 -1
256 217 0 0 0 -1
256 236 100 0 0 1
246 241 100 0 0 1
246 217 100 0 0 1
256 217 100 0 0 1
256 246 0 0 0 -1
256 236 0 0 0 -1
319 236 0 0 0 -1
319 246 0 0 0 -1
256 246 100 0 0 1
256 236 100 0 0 1
319 236 100 0 0 1
319 246 100 0 0 1
213 258 0 0 0 -1
223 263 0 0 0 -1
223 393 0 0 0 -1
213 398 0 0 0 -1
213 258 100 0 0 1
223 263 100 0 0 1
223 393 100 0 0 1
213 398 100 0 0 1
361 37 0 0 0 -1
371 42 0 0 0 -1
371 93 0 0 0 -1
361 98 0 0 0 -1
361 37 100 0 0 1
371 42 100 0 0 1
371 93 100 0 0 1
361 98 100 0 0 1
238 393 0 0 0 -1
238 403 0 0 0 -1
223 403 0 0 0 -1
223 393 0 0 0 -1
238 393 100 0 0 1
238 403 100 0 0 1
223 403 100 0 0 1
223 393 100 0 0 1
238 159 0 0 0 -1
243 149 0 0 0 -1
324 149 0 0 0 -1
324 159 0 0 0 -1
238 159 100 0 0 1
243 149 100 0 0 1
324 149 100 0 0 1
324 159 100 0 0 1
422 93 0 0 0 -1
417 103 0 0 0 -1
371 103 0 0 0 -1
371 93 0 0 0 -1
422 93 100 0 0 1
417 103 100 0 0 1
371 103 100 0 0 1
371 93 100 0 0 1
319 215 0 0 0 -1
329 215 0 0 0 -1
329 241 0 0 0 -1
319 236 0 0 0 -1
319 215 100 0 0 1
329 215 100 0 0 1
329 241 100 0 0 1
319 236 100 0 0 1
371 117 0 0 0 -1
361 117 0 0 0 -1
361 98 0 0 0 -1
371 103 0 0 0 -1
371 117 100 0 0 1
361 117 100 0 0 1
361 98 100 0 0 1
371 103 100 0 0 1
412 154 0 0 0 -1
422 149 0 0 0 -1
422 159 0 0 0 -1
412 154 100 0 0 1
422 149 100 0 0 1
422 159 100 0 0 1
443 377 0 0 0 -1
448 367 0 0 0 -1
453 377 0 0 0 -1
443 377 100 0 0 1
448 367 100 0 0 1
453 377 100 0 0 1
553 258 0 0 0 -1
543 263 0 0 0 -1
553 268 0 0 0 -1
553 258 100 0 0 1
543 263 100 0 0 1
553 268 100 0 0 1
223 154 0 0 0 -1
213 149 0 0 0 -1
213 159 0 0 0 -1
223 154 100 0 0 1
213 149 100 0 0 1
213 159 100 0 0 1
478 93 0 0 0 -1
473 103 0 0 0 -1
468 93 0 0 0 -1
478 93 100 0 0 1
473 103 100 0 0 1
468 93 100 0 0 1
246 241 0 0 0 -1
256 236 0 0 0 -1
256 246 0 0 0 -1
246 241 100 0 0 1
256 236 100 0 0 1
256 246 100 0 0 1
213 268 0 0 0 -1
223 263 0 0 0 -1
213 258 0 0 0 -1
213 268 100 0 0 1
223 263 100 0 0 1
213 258 100 0 0 1
361 47 0 0 0 -1
371 42 0 0 0 -1
361 37 0 0 0 -1
361 47 100 0 0 1
371 42 100 0 0 1
361 37 100 0 0 1
223 403 0 0 0 -1
213 398 0 0 0 -1
223 393 0 0 0 -1
223 403 100 0 0 1
213 398 100 0 0 1
223 393 100 0 0 1
243 149 0 0 0 -1
238 159 0 0 0 -1
233 149 0 0 0 -1
243 149 100 0 0 1
238 159 100 0 0 1
233 149 100 0 0 1
412 93 0 0 0 -1
417 103 0 0 0 -1
422 93 0 0 0 -1
412 93 100 0 0 1
417 103 100 0 0 1
422 93 100 0 0 1
543 149 0 0 0 -1
553 154 0 0 0 -1
543 159 0 0 0 -1
543 149 100 0 0 1
553 154 100 0 0 1
543 159 100 0 0 1
329 241 0 0 0 -1
319 246 0 0 0 -1
319 236 0 0 0 -1
329 241 100 0 0 1
319 246 100 0 0 1
319 236 100 0 0 1
361 98 0 0 0 -1
371 93 0 0 0 -1
371 103 0 0 0 -1
361 98 100 0 0 1
371 93 100 0 0 1
371 103 100 0 0 1
4 0 1 2 3
4 4 5 6 7
4 8 9 10 11
4 12 13 14 15
4 16 17 18 19
4 20 21 22 23
4 24 25 26 27
4 28 29 30 31
4 32 33 34 35
4 36 37 38 39
4 40 41 42 43
4 44 45 46 47
4 48 49 50 51
4 52 53 54 55
4 56 57 58 59
4 60 61 62 63
4 64 65 66 67
4 68 69 70 71
4 72 73 74 75
4 76 77 78 79
4 80 81 82 83
4 84 85 86 87
4 88 89 90 91
4 92 93 94 95
4 96 97 98 99
4 100 101 102 103
4 104 105 106 107
4 108 109 110 111
4 112 113 114 115
4 116 117 118 119
4 120 121 122 123
4 124 125 126 127
4 128 129 130 131
4 132 133 134 135
4 136 137 138 139
4 140 141 142 143
4 144 145 146 147
4 148 149 150 151
4 152 153 154 155
4 156 157 158 159
4 160 161 162 163
4 164 165 166 167
4 168 169 170 171
4 172 173 174 175
4 176 177 178 179
4 180 181 182 183
4 184 185 186 187
4 188 189 190 191
4 192 193 194 195
4 196 197 198 199
4 200 201 202 203
4 204 205 206 207
4 208 209 210 211
4 212 213 214 215
4 216 217 218 219
4 220 221 222 223
4 224 225 226 227
4 228 229 230 231
4 232 233 234 235
4 236 237 238 239
4 240 241 242 243
4 244 245 246 247
4 248 249 250 251
4 252 253 254 255
4 256 257 258 259
4 260 261 262 263
4 264 265 266 267
4 268 269 270 271
4 272 273 274 275
4 276 277 278 279
4 280 281 282 283
4 284 285 286 287
4 288 289 290 291
4 292 293 294 295
4 296 297 298 299
4 300 301 302 303
4 304 305 306 307
4 308 309 310 311
4 312 313 314 315
4 316 317 318 319
4 320 321 322 323
4 324 325 326 327
4 328 329 330 331
4 332 333 334 335
4 336 337 338 339
4 340 341 342 343
4 344 345 346 347
4 348 349 350 351
4 352 353 354 355
4 356 357 358 359
4 360 361 362 363
4 364 365 366 367
4 368 369 370 371
4 372 373 374 375
4 376 377 378 379
4 380 381 382 383
4 384 385 386 387
4 388 389 390 391
4 392 393 394 395
4 396 397 398 399
4 400 401 402 403
4 404 405 406 407
4 408 409 410 411
4 412 413 414 415
4 416 417 418 419
4 420 421 422 423
4 424 425 426 427
4 428 429 430 431
4 432 433 434 435
4 436 437 438 439
4 440 441 442 443
4 444 445 446 447
4 448 449 450 451
4 452 453 454 455
4 456 457 458 459
4 460 461 462 463
4 464 465 466 467
4 468 469 470 471
4 472 473 474 475
4 476 477 478 479
4 480 481 482 483
4 484 485 486 487
4 488 489 490 491
4 492 493 494 495
4 496 497 498 499
4 500 501 502 503
4 504 505 506 507
4 508 509 510 511
4 512 513 514 515
4 516 517 518 519
4 520 521 522 523
4 524 525 526 527
4 528 529 530 531
4 532 533 534 535
4 536 537 538 539
4 540 541 542 543
4 544 545 546 547
4 548 549 550 551
4 552 553 554 555
4 556 557 558 559
4 560 561 562 563
4 564 565 566 567
4 568 569 570 571
4 572 573 574 575
4 576 577 578 579
4 580 581 582 583
4 584 585 586 587
4 588 589 590 591
4 592 593 594 595
4 596 597 598 599
4 600 601 602 603
4 604 605 606 607
4 608 609 610 611
4 612 613 614 615
4 616 617 618 619
4 620 621 622 623
4 624 625 626 627
4 628 629 630 631
4 632 633 634 635
4 636 637 638 639
4 640 641 642 643
4 644 645 646 647
4 648 649 650 651
4 652 653 654 655
4 656 657 658 659
4 660 661 662 663
4 664 665 666 667
4 668 669 670 671
3 672 673 674
3 675 676 677
3 678 679 680
3 681 682 683
3 684 685 686
3 687 688 689
3 690 691 692
3 693 694 695
3 696 697 698
3 699 700 701
3 702 703 704
3 705 706 707
3 708 709 710
3 711 712 713
3 714 715 716
3 717 718 719
3 720 721 722
3 723 724 725
3 726 727 728
3 729 730 731
3 732 733 734
3 735 736 737
3 738 739 740
3 741 742 743
3 744 745 746
3 747 748 749
3 750 751 752
3 753 754 755
