ply
format ascii 1.0
element vertex 476
property float x
property float y
property float z
property float nx
property float ny
property float nz
element quads 110
property list uchar int vertex_indices
element triads 12
property list uchar int vertex_indices
end_header
697 99 0 -0 1 0
755 99 0 -0 1 0
755 99 100 -0 1 0
697 99 100 -0 1 0
697 89 0 0 -1 0
765 89 0 0 -1 0
765 89 100 0 -1 0
697 89 100 0 -1 0
755 99 0 -1 0 0
755 374 0 -1 0 0
755 374 100 -1 0 0
755 99 100 -1 0 0
765 89 0 1 -0 0
765 384 0 1 -0 0
765 384 100 1 -0 0
765 89 100 1 -0 0
755 374 0 -0 -1 0
597 374 0 -0 -1 0
597 374 100 -0 -1 0
755 374 100 -0 -1 0
765 384 0 0 1 0
597 384 0 0 1 0
597 384 100 0 1 0
765 384 100 0 1 0
117 261 0 -0 1 0
315 261 0 -0 1 0
315 261 100 -0 1 0
117 261 100 -0 1 0
117 251 0 0 -1 0
325 251 0 0 -1 0
325 251 100 0 -1 0
117 251 100 0 -1 0
315 261 0 -1 0 0
315 291 0 -1 0 0
315 291 100 -1 0 0
315 261 100 -1 0 0
325 251 0 1 -0 0
325 286 0 1 -0 0
325 286 100 1 -0 0
325 251 100 1 -0 0
117 99 0 -0 1 0
320 99 0 -0 1 0
320 99 100 -0 1 0
117 99 100 -0 1 0
117 89 0 0 -1 0
320 89 0 0 -1 0
320 89 100 0 -1 0
117 89 100 0 -1 0
112 397 0 -1 0 0
112 447 0 -1 0 0
112 447 100 -1 0 0
112 397 100 -1 0 0
122 397 0 1 -0 0
122 437 0 1 -0 0
122 437 100 1 -0 0
122 397 100 1 -0 0
112 447 0 -0 1 0
325 447 0 -0 1 0
325 447 100 -0 1 0
112 447 100 -0 1 0
122 437 0 0 -1 0
320 437 0 0 -1 0
320 437 100 0 -1 0
122 437 100 0 -1 0
371 402 0 -0 1 0
453 402 0 -0 1 0
453 402 100 -0 1 0
371 402 100 -0 1 0
371 392 0 0 -1 0
453 392 0 0 -1 0
453 392 100 0 -1 0
371 392 100 0 -1 0
532 99 0 -0 1 0
601 99 0 -0 1 0
601 99 100 -0 1 0
532 99 100 -0 1 0
527 89 0 0 -1 0
601 89 0 0 -1 0
601 89 100 0 -1 0
527 89 100 0 -1 0
522 99 0 -1 0 0
522 176 0 -1 0 0
522 176 100 -1 0 0
522 99 100 -1 0 0
532 99 0 1 -0 0
532 181 0 1 -0 0
532 181 100 1 -0 0
532 99 100 1 -0 0
527 89 0 -0 -1 0
424 89 0 -0 -1 0
424 89 100 -0 -1 0
527 89 100 -0 -1 0
522 99 0 0 1 0
434 99 0 0 1 0
434 99 100 0 1 0
522 99 100 0 1 0
482 291 0 -0 1 0
532 291 0 -0 1 0
532 291 100 -0 1 0
482 291 100 -0 1 0
482 281 0 0 -1 0
522 281 0 0 -1 0
522 281 100 0 -1 0
482 281 100 0 -1 0
532 291 0 1 0 0
532 171 0 1 0 0
532 171 100 1 0 0
532 291 100 1 0 0
522 281 0 -1 -0 0
522 176 0 -1 -0 0
522 176 100 -1 -0 0
522 281 100 -1 -0 0
532 171 0 -0 -1 0
434 171 0 -0 -1 0
434 171 100 -0 -1 0
532 171 100 -0 -1 0
532 181 0 0 1 0
434 181 0 0 1 0
434 181 100 0 1 0
532 181 100 0 1 0
320 85 0 -0 1 0
429 85 0 -0 1 0
429 85 100 -0 1 0
320 85 100 -0 1 0
320 75 0 0 -1 0
429 75 0 0 -1 0
429 75 100 0 -1 0
320 75 100 0 -1 0
429 85 0 -0 1 0
527 85 0 -0 1 0
527 85 100 -0 1 0
429 85 100 -0 1 0
429 75 0 0 -1 0
527 75 0 0 -1 0
527 75 100 0 -1 0
429 75 100 0 -1 0
315 447 0 -0 1 0
527 447 0 -0 1 0
527 447 100 -0 1 0
315 447 100 -0 1 0
320 437 0 0 -1 0
527 437 0 0 -1 0
527 437 100 0 -1 0
320 437 100 0 -1 0
325 447 0 1 0 0
325 346 0 1 0 0
325 346 100 1 0 0
325 447 100 1 0 0
315 447 0 -1 -0 0
315 341 0 -1 -0 0
315 341 100 -1 -0 0
315 447 100 -1 -0 0
453 336 0 -0 -1 0
325 336 0 -0 -1 0
325 336 100 -0 -1 0
453 336 100 -0 -1 0
453 346 0 0 1 0
325 346 0 0 1 0
325 346 100 0 1 0
453 346 100 0 1 0
325 336 0 1 0 0
325 286 0 1 0 0
325 286 100 1 0 0
325 336 100 1 0 0
315 341 0 -1 -0 0
315 281 0 -1 -0 0
315 281 100 -1 -0 0
315 341 100 -1 -0 0
424 281 0 -0 -1 0
315 281 0 -0 -1 0
315 281 100 -0 -1 0
424 281 100 -0 -1 0
434 291 0 0 1 0
315 291 0 0 1 0
315 291 100 0 1 0
434 291 100 0 1 0
434 291 0 1 0 0
434 181 0 1 0 0
434 181 100 1 0 0
434 291 100 1 0 0
424 281 0 -1 -0 0
424 176 0 -1 -0 0
424 176 100 -1 -0 0
424 281 100 -1 -0 0
434 171 0 1 0 0
434 99 0 1 0 0
434 99 100 1 0 0
434 171 100 1 0 0
424 176 0 -1 -0 0
424 89 0 -1 -0 0
424 89 100 -1 -0 0
424 176 100 -1 -0 0
697 99 0 683.9827880859375 97.2931060791015625 0
697 89 0 683.9827880859375 97.2931060791015625 0
697 89 100 683.9827880859375 97.2931060791015625 0
697 99 100 683.9827880859375 97.2931060791015625 0
117 261 0 115.409088134765625 259.68182373046875 0
117 251 0 115.409088134765625 259.68182373046875 0
117 251 100 115.409088134765625 259.68182373046875 0
117 261 100 115.409088134765625 259.68182373046875 0
117 99 0 115.42364501953125 98.5123138427734375 0
117 89 0 115.42364501953125 98.5123138427734375 0
117 89 100 115.42364501953125 98.5123138427734375 0
117 99 100 115.42364501953125 98.5123138427734375 0
320 99 0 319.42364501953125 98.5123138427734375 0
320 89 0 319.42364501953125 98.5123138427734375 0
320 89 100 319.42364501953125 98.5123138427734375 0
320 99 100 319.42364501953125 98.5123138427734375 0
112 397 0 109.760002136230469 388.05999755859375 0
122 397 0 109.760002136230469 388.05999755859375 0
122 397 100 109.760002136230469 388.05999755859375 0
112 397 100 109.760002136230469 388.05999755859375 0
371 402 0 365.475616455078125 397.097564697265625 0
371 392 0 365.475616455078125 397.097564697265625 0
371 392 100 365.475616455078125 397.097564697265625 0
371 402 100 365.475616455078125 397.097564697265625 0
453 402 0 448.475616455078125 397.097564697265625 0
453 392 0 448.475616455078125 397.097564697265625 0
453 392 100 448.475616455078125 397.097564697265625 0
453 402 100 448.475616455078125 397.097564697265625 0
597 374 0 592.22149658203125 371.632904052734375 0
597 384 0 592.22149658203125 371.632904052734375 0
597 384 100 592.22149658203125 371.632904052734375 0
597 374 100 592.22149658203125 371.632904052734375 0
601 99 0 593.28985595703125 97.565216064453125 0
601 89 0 593.28985595703125 97.565216064453125 0
601 89 100 593.28985595703125 97.565216064453125 0
601 99 100 593.28985595703125 97.565216064453125 0
482 291 0 471.3599853515625 285.17999267578125 0
482 281 0 471.3599853515625 285.17999267578125 0
482 281 100 471.3599853515625 285.17999267578125 0
482 291 100 471.3599853515625 285.17999267578125 0
320 85 0 316.064208984375 84.220184326171875 0
320 75 0 316.064208984375 84.220184326171875 0
320 75 100 316.064208984375 84.220184326171875 0
320 85 100 316.064208984375 84.220184326171875 0
527 85 0 522.6224365234375 84.1326522827148438 0
527 75 0 522.6224365234375 84.1326522827148438 0
527 75 100 522.6224365234375 84.1326522827148438 0
527 85 100 522.6224365234375 84.1326522827148438 0
527 447 0 525.51416015625 444.891510009765625 0
527 437 0 525.51416015625 444.891510009765625 0
527 437 100 525.51416015625 444.891510009765625 0
527 447 100 525.51416015625 444.891510009765625 0
453 336 0 450.4609375 333.375 0
453 346 0 450.4609375 333.375 0
453 346 100 450.4609375 333.375 0
453 336 100 450.4609375 333.375 0
697 99 0 0 0 -1
697 89 0 0 0 -1
765 89 0 0 0 -1
755 99 0 0 0 -1
697 99 100 0 0 1
697 89 100 0 0 1
765 89 100 0 0 1
755 99 100 0 0 1
755 99 0 0 0 -1
765 89 0 0 0 -1
765 384 0 0 0 -1
755 374 0 0 0 -1
755 99 100 0 0 1
765 89 100 0 0 1
765 384 100 0 0 1
755 374 100 0 0 1
755 374 0 0 0 -1
765 384 0 0 0 -1
597 384 0 0 0 -1
597 374 0 0 0 -1
755 374 100 0 0 1
765 384 100 0 0 1
597 384 100 0 0 1
597 374 100 0 0 1
117 261 0 0 0 -1
117 251 0 0 0 -1
325 251 0 0 0 -1
315 261 0 0 0 -1
117 261 100 0 0 1
117 251 100 0 0 1
325 251 100 0 0 1
315 261 100 0 0 1
315 261 0 0 0 -1
325 251 0 0 0 -1
325 286 0 0 0 -1
315 291 0 0 0 -1
315 261 100 0 0 1
325 251 100 0 0 1
325 286 100 0 0 1
315 291 100 0 0 1
117 99 0 0 0 -1
117 89 0 0 0 -1
320 89 0 0 0 -1
320 99 0 0 0 -1
117 99 100 0 0 1
117 89 100 0 0 1
320 89 100 0 0 1
320 99 100 0 0 1
112 397 0 0 0 -1
122 397 0 0 0 -1
122 437 0 0 0 -1
112 447 0 0 0 -1
112 397 100 0 0 1
122 397 100 0 0 1
122 437 100 0 0 1
112 447 100 0 0 1
112 447 0 0 0 -1
122 437 0 0 0 -1
320 437 0 0 0 -1
325 447 0 0 0 -1
112 447 100 0 0 1
122 437 100 0 0 1
320 437 100 0 0 1
325 447 100 0 0 1
371 402 0 0 0 -1
371 392 0 0 0 -1
453 392 0 0 0 -1
453 402 0 0 0 -1
371 402 100 0 0 1
371 392 100 0 0 1
453 392 100 0 0 1
453 402 100 0 0 1
532 99 0 0 0 -1
527 89 0 0 0 -1
601 89 0 0 0 -1
601 99 0 0 0 -1
532 99 100 0 0 1
527 89 100 0 0 1
601 89 100 0 0 1
601 99 100 0 0 1
522 99 0 0 0 -1
532 99 0 0 0 -1
532 181 0 0 0 -1
522 176 0 0 0 -1
522 99 100 0 0 1
532 99 100 0 0 1
532 181 100 0 0 1
522 176 100 0 0 1
527 89 0 0 0 -1
522 99 0 0 0 -1
434 99 0 0 0 -1
424 89 0 0 0 -1
527 89 100 0 0 1
522 99 100 0 0 1
434 99 100 0 0 1
424 89 100 0 0 1
482 291 0 0 0 -1
482 281 0 0 0 -1
522 281 0 0 0 -1
532 291 0 0 0 -1
482 291 100 0 0 1
482 281 100 0 0 1
522 281 100 0 0 1
532 291 100 0 0 1
532 291 0 0 0 -1
522 281 0 0 0 -1
522 176 0 0 0 -1
532 171 0 0 0 -1
532 291 100 0 0 1
522 281 100 0 0 1
522 176 100 0 0 1
532 171 100 0 0 1
532 171 0 0 0 -1
532 181 0 0 0 -1
434 181 0 0 0 -1
434 171 0 0 0 -1
532 171 100 0 0 1
532 181 100 0 0 1
434 181 100 0 0 1
434 171 100 0 0 1
320 85 0 0 0 -1
320 75 0 0 0 -1
429 75 0 0 0 -1
429 85 0 0 0 -1
320 85 100 0 0 1
320 75 100 0 0 1
429 75 100 0 0 1
429 85 100 0 0 1
429 85 0 0 0 -1
429 75 0 0 0 -1
527 75 0 0 0 -1
527 85 0 0 0 -1
429 85 100 0 0 1
429 75 100 0 0 1
527 75 100 0 0 1
527 85 100 0 0 1
315 447 0 0 0 -1
320 437 0 0 0 -1
527 437 0 0 0 -1
527 447 0 0 0 -1
315 447 100 0 0 1
320 437 100 0 0 1
527 437 100 0 0 1
527 447 100 0 0 1
325 447 0 0 0 -1
315 447 0 0 0 -1
315 341 0 0 0 -1
325 346 0 0 0 -1
325 447 100 0 0 1
315 447 100 0 0 1
315 341 100 0 0 1
325 346 100 0 0 1
453 336 0 0 0 -1
453 346 0 0 0 -1
325 346 0 0 0 -1
325 336 0 0 0 -1
453 336 100 0 0 1
453 346 100 0 0 1
325 346 100 0 0 1
325 336 100 0 0 1
325 336 0 0 0 -1
315 341 0 0 0 -1
315 281 0 0 0 -1
325 286 0 0 0 -1
325 336 100 0 0 1
315 341 100 0 0 1
315 281 100 0 0 1
325 286 100 0 0 1
424 281 0 0 0 -1
434 291 0 0 0 -1
315 291 0 0 0 -1
315 281 0 0 0 -1
424 281 100 0 0 1
434 291 100 0 0 1
315 291 100 0 0 1
315 281 100 0 0 1
434 291 0 0 0 -1
424 281 0 0 0 -1
424 176 0 0 0 -1
434 181 0 0 0 -1
434 291 100 0 0 1
424 281 100 0 0 1
424 176 100 0 0 1
434 181 100 0 0 1
434 171 0 0 0 -1
424 176 0 0 0 -1
424 89 0 0 0 -1
434 99 0 0 0 -1
434 171 100 0 0 1
424 176 100 0 0 1
424 89 100 0 0 1
434 99 100 0 0 1
532 99 0 0 0 -1
522 99 0 0 0 -1
527 89 0 0 0 -1
532 99 100 0 0 1
522 99 100 0 0 1
527 89 100 0 0 1
522 176 0 0 0 -1
532 181 0 0 0 -1
532 171 0 0 0 -1
522 176 100 0 0 1
532 181 100 0 0 1
532 171 100 0 0 1
320 437 0 0 0 -1
315 447 0 0 0 -1
325 447 0 0 0 -1
320 437 100 0 0 1
315 447 100 0 0 1
325 447 100 0 0 1
325 346 0 0 0 -1
315 341 0 0 0 -1
325 336 0 0 0 -1
325 346 100 0 0 1
315 341 100 0 0 1
325 336 100 0 0 1
315 291 0 0 0 -1
325 286 0 0 0 -1
315 281 0 0 0 -1
315 291 100 0 0 1
325 286 100 0 0 1
315 281 100 0 0 1
434 181 0 0 0 -1
424 176 0 0 0 -1
434 171 0 0 0 -1
434 181 100 0 0 1
424 176 100 0 0 1
434 171 100 0 0 1
4 0 1 2 3
4 4 5 6 7
4 8 9 10 11
4 12 13 14 15
4 16 17 18 19
4 20 21 22 23
4 24 25 26 27
4 28 29 30 31
4 32 33 34 35
4 36 37 38 39
4 40 41 42 43
4 44 45 46 47
4 48 49 50 51
4 52 53 54 55
4 56 57 58 59
4 60 61 62 63
4 64 65 66 67
4 68 69 70 71
4 72 73 74 75
4 76 77 78 79
4 80 81 82 83
4 84 85 86 87
4 88 89 90 91
4 92 93 94 95
4 96 97 98 99
4 100 101 102 103
4 104 105 106 107
4 108 109 110 111
4 112 113 114 115
4 116 117 118 119
4 120 121 122 123
4 124 125 126 127
4 128 129 130 131
4 132 133 134 135
4 136 137 138 139
4 140 141 142 143
4 144 145 146 147
4 148 149 150 151
4 152 153 154 155
4 156 157 158 159
4 160 161 162 163
4 164 165 166 167
4 168 169 170 171
4 172 173 174 175
4 176 177 178 179
4 180 181 182 183
4 184 185 186 187
4 188 189 190 191
4 192 193 194 195
4 196 197 198 199
4 200 201 202 203
4 204 205 206 207
4 208 209 210 211
4 212 213 214 215
4 216 217 218 219
4 220 221 222 223
4 224 225 226 227
4 228 229 230 231
4 232 233 234 235
4 236 237 238 239
4 240 241 242 243
4 244 245 246 247
4 248 249 250 251
4 252 253 254 255
4 256 257 258 259
4 260 261 262 263
4 264 265 266 267
4 268 269 270 271
4 272 273 274 275
4 276 277 278 279
4 280 281 282 283
4 284 285 286 287
4 288 289 290 291
4 292 293 294 295
4 296 297 298 299
4 300 301 302 303
4 304 305 306 307
4 308 309 310 311
4 312 313 314 315
4 316 317 318 319
4 320 321 322 323
4 324 325 326 327
4 328 329 330 331
4 332 333 334 335
4 336 337 338 339
4 340 341 342 343
4 344 345 346 347
4 348 349 350 351
4 352 353 354 355
4 356 357 358 359
4 360 361 362 363
4 364 365 366 367
4 368 369 370 371
4 372 373 374 375
4 376 377 378 379
4 380 381 382 383
4 384 385 386 387
4 388 389 390 391
4 392 393 394 395
4 396 397 398 399
4 400 401 402 403
4 404 405 406 407
4 408 409 410 411
4 412 413 414 415
4 416 417 418 419
4 420 421 422 423
4 424 425 426 427
4 428 429 430 431
4 432 433 434 435
4 436 437 438 439
3 440 441 442
3 443 444 445
3 446 447 448
3 449 450 451
3 452 453 454
3 455 456 457
3 458 459 460
3 461 462 463
3 464 465 466
3 467 468 469
3 470 471 472
3 473 474 475
