ply
format ascii 1.0
element vertex 682
property float x
property float y
property float z
property float nx
property float ny
property float nz
element quads 149
property list uchar int vertex_indices
element triads 30
property list uchar int vertex_indices
end_header
193 346 0 -1 0 0
193 480 0 -1 0 0
193 480 100 -1 0 0
193 346 100 -1 0 0
203 346 0 1 -0 0
203 480 0 1 -0 0
203 480 100 1 -0 0
203 346 100 1 -0 0
612 329 0 -1 0 0
612 540 0 -1 0 0
612 540 100 -1 0 0
612 329 100 -1 0 0
622 319 0 1 -0 0
622 540 0 1 -0 0
622 540 100 1 -0 0
622 319 100 1 -0 0
622 319 0 -0 -1 0
596 319 0 -0 -1 0
596 319 100 -0 -1 0
622 319 100 -0 -1 0
612 329 0 0 1 0
591 329 0 0 1 0
591 329 100 0 1 0
612 329 100 0 1 0
173 395 0 -1 0 0
173 442 0 -1 0 0
173 442 100 -1 0 0
173 395 100 -1 0 0
183 395 0 1 -0 0
183 442 0 1 -0 0
183 442 100 1 -0 0
183 395 100 1 -0 0
203 150 0 -0 1 0
266 150 0 -0 1 0
266 150 100 -0 1 0
203 150 100 -0 1 0
193 140 0 0 -1 0
266 140 0 0 -1 0
266 140 100 0 -1 0
193 140 100 0 -1 0
193 140 0 -1 0 0
193 277 0 -1 0 0
193 277 100 -1 0 0
193 140 100 -1 0 0
203 150 0 1 -0 0
203 272 0 1 -0 0
203 272 100 1 -0 0
203 150 100 1 -0 0
341 509 0 1 0 0
341 475 0 1 0 0
341 475 100 1 0 0
341 509 100 1 0 0
331 509 0 -1 -0 0
331 480 0 -1 -0 0
331 480 100 -1 -0 0
331 509 100 -1 -0 0
341 485 0 1 0 0
341 464 0 1 0 0
341 464 100 1 0 0
341 485 100 1 0 0
331 480 0 -1 -0 0
331 454 0 -1 -0 0
331 454 100 -1 -0 0
331 480 100 -1 -0 0
341 475 0 -0 -1 0
276 475 0 -0 -1 0
276 475 100 -0 -1 0
341 475 100 -0 -1 0
341 485 0 0 1 0
276 485 0 0 1 0
276 485 100 0 1 0
341 485 100 0 1 0
341 464 0 -0 1 0
409 464 0 -0 1 0
409 464 100 -0 1 0
341 464 100 -0 1 0
331 454 0 0 -1 0
409 454 0 0 -1 0
409 454 100 0 -1 0
331 454 100 0 -1 0
249 267 0 -0 -1 0
193 267 0 -0 -1 0
193 267 100 -0 -1 0
249 267 100 -0 -1 0
249 277 0 0 1 0
193 277 0 0 1 0
193 277 100 0 1 0
249 277 100 0 1 0
193 267 0 -1 0 0
193 292 0 -1 0 0
193 292 100 -1 0 0
193 267 100 -1 0 0
203 272 0 1 -0 0
203 292 0 1 -0 0
203 292 100 1 -0 0
203 272 100 1 -0 0
399 459 0 -1 0 0
399 540 0 -1 0 0
399 540 100 -1 0 0
399 459 100 -1 0 0
409 454 0 1 -0 0
409 540 0 1 -0 0
409 540 100 1 -0 0
409 454 100 1 -0 0
409 464 0 1 0 0
409 329 0 1 0 0
409 329 100 1 0 0
409 464 100 1 0 0
399 459 0 -1 -0 0
399 329 0 -1 -0 0
399 329 100 -1 -0 0
399 459 100 -1 -0 0
586 111 0 -1 0 0
586 272 0 -1 0 0
586 272 100 -1 0 0
586 111 100 -1 0 0
596 101 0 1 -0 0
596 277 0 1 -0 0
596 277 100 1 -0 0
596 101 100 1 -0 0
596 101 0 -0 -1 0
459 101 0 -0 -1 0
459 101 100 -0 -1 0
596 101 100 -0 -1 0
586 111 0 0 1 0
464 111 0 0 1 0
464 111 100 0 1 0
586 111 100 0 1 0
596 267 0 -0 -1 0
524 267 0 -0 -1 0
524 267 100 -0 -1 0
596 267 100 -0 -1 0
596 277 0 0 1 0
529 277 0 0 1 0
529 277 100 0 1 0
596 277 100 0 1 0
586 272 0 -1 0 0
586 319 0 -1 0 0
586 319 100 -1 0 0
586 272 100 -1 0 0
596 267 0 1 -0 0
596 319 0 1 -0 0
596 319 100 1 -0 0
596 267 100 1 -0 0
331 101 0 -1 0 0
331 243 0 -1 0 0
331 243 100 -1 0 0
331 101 100 -1 0 0
341 111 0 1 -0 0
341 238 0 1 -0 0
341 238 100 1 -0 0
341 111 100 1 -0 0
341 111 0 -0 1 0
454 111 0 -0 1 0
454 111 100 -0 1 0
341 111 100 -0 1 0
331 101 0 0 -1 0
459 101 0 0 -1 0
459 101 100 0 -1 0
331 101 100 0 -1 0
331 233 0 -1 0 0
331 272 0 -1 0 0
331 272 100 -1 0 0
331 233 100 -1 0 0
341 238 0 1 -0 0
341 272 0 1 -0 0
341 272 100 1 -0 0
341 238 100 1 -0 0
331 243 0 -0 1 0
454 243 0 -0 1 0
454 243 100 -0 1 0
331 243 100 -0 1 0
331 233 0 0 -1 0
454 233 0 0 -1 0
454 233 100 0 -1 0
331 233 100 0 -1 0
454 111 0 -1 0 0
454 233 0 -1 0 0
454 233 100 -1 0 0
454 111 100 -1 0 0
464 111 0 1 -0 0
464 238 0 1 -0 0
464 238 100 1 -0 0
464 111 100 1 -0 0
364 267 0 -1 0 0
364 329 0 -1 0 0
364 329 100 -1 0 0
364 267 100 -1 0 0
374 277 0 1 -0 0
374 329 0 1 -0 0
374 329 100 1 -0 0
374 277 100 1 -0 0
374 277 0 -0 1 0
454 277 0 -0 1 0
454 277 100 -0 1 0
374 277 100 -0 1 0
364 267 0 0 -1 0
459 267 0 0 -1 0
459 267 100 0 -1 0
364 267 100 0 -1 0
369 319 0 -0 -1 0
336 319 0 -0 -1 0
336 319 100 -0 -1 0
369 319 100 -0 -1 0
374 329 0 0 1 0
336 329 0 0 1 0
336 329 100 0 1 0
374 329 100 0 1 0
364 329 0 -0 1 0
399 329 0 -0 1 0
399 329 100 -0 1 0
364 329 100 -0 1 0
369 319 0 0 -1 0
404 319 0 0 -1 0
404 319 100 0 -1 0
369 319 100 0 -1 0
534 319 0 1 0 0
534 267 0 1 0 0
534 267 100 1 0 0
534 319 100 1 0 0
524 319 0 -1 -0 0
524 267 0 -1 -0 0
524 267 100 -1 -0 0
524 319 100 -1 -0 0
529 329 0 -0 1 0
591 329 0 -0 1 0
591 329 100 -0 1 0
529 329 100 -0 1 0
534 319 0 0 -1 0
586 319 0 0 -1 0
586 319 100 0 -1 0
534 319 100 0 -1 0
524 319 0 -0 -1 0
464 319 0 -0 -1 0
464 319 100 -0 -1 0
524 319 100 -0 -1 0
529 329 0 0 1 0
459 329 0 0 1 0
459 329 100 0 1 0
529 329 100 0 1 0
534 267 0 -0 -1 0
459 267 0 -0 -1 0
459 267 100 -0 -1 0
534 267 100 -0 -1 0
529 277 0 0 1 0
454 277 0 0 1 0
454 277 100 0 1 0
529 277 100 0 1 0
409 329 0 -0 1 0
459 329 0 -0 1 0
459 329 100 -0 1 0
409 329 100 -0 1 0
404 319 0 0 -1 0
454 319 0 0 -1 0
454 319 100 0 -1 0
404 319 100 0 -1 0
454 243 0 -1 0 0
454 277 0 -1 0 0
454 277 100 -1 0 0
454 243 100 -1 0 0
464 238 0 1 -0 0
464 272 0 1 -0 0
464 272 100 1 -0 0
464 238 100 1 -0 0
454 277 0 -1 0 0
454 319 0 -1 0 0
454 319 100 -1 0 0
454 277 100 -1 0 0
464 272 0 1 -0 0
464 319 0 1 -0 0
464 319 100 1 -0 0
464 272 100 1 -0 0
193 346 0 191.559707641601562 342.41790771484375 0
203 346 0 191.559707641601562 342.41790771484375 0
203 346 100 191.559707641601562 342.41790771484375 0
193 346 100 191.559707641601562 342.41790771484375 0
193 480 0 191.559707641601562 477.41790771484375 0
203 480 0 191.559707641601562 477.41790771484375 0
203 480 100 191.559707641601562 477.41790771484375 0
193 480 100 191.559707641601562 477.41790771484375 0
612 540 0 609.09954833984375 538.44073486328125 0
622 540 0 609.09954833984375 538.44073486328125 0
622 540 100 609.09954833984375 538.44073486328125 0
612 540 100 609.09954833984375 538.44073486328125 0
173 395 0 169.31915283203125 385.595733642578125 0
183 395 0 169.31915283203125 385.595733642578125 0
183 395 100 169.31915283203125 385.595733642578125 0
173 395 100 169.31915283203125 385.595733642578125 0
173 442 0 169.31915283203125 433.595733642578125 0
183 442 0 169.31915283203125 433.595733642578125 0
183 442 100 169.31915283203125 433.595733642578125 0
173 442 100 169.31915283203125 433.595733642578125 0
266 150 0 262.77777099609375 147.619049072265625 0
266 140 0 262.77777099609375 147.619049072265625 0
266 140 100 262.77777099609375 147.619049072265625 0
266 150 100 262.77777099609375 147.619049072265625 0
341 509 0 330.9705810546875 495.0294189453125 0
331 509 0 330.9705810546875 495.0294189453125 0
331 509 100 330.9705810546875 495.0294189453125 0
341 509 100 330.9705810546875 495.0294189453125 0
276 475 0 270.75384521484375 467.69232177734375 0
276 485 0 270.75384521484375 467.69232177734375 0
276 485 100 270.75384521484375 467.69232177734375 0
276 475 100 270.75384521484375 467.69232177734375 0
249 267 0 245.553573608398438 262.232147216796875 0
249 277 0 245.553573608398438 262.232147216796875 0
249 277 100 245.553573608398438 262.232147216796875 0
249 267 100 245.553573608398438 262.232147216796875 0
193 292 0 185.279998779296875 281.32000732421875 0
203 292 0 185.279998779296875 281.32000732421875 0
203 292 100 185.279998779296875 281.32000732421875 0
193 292 100 185.279998779296875 281.32000732421875 0
399 540 0 394.074066162109375 534.33331298828125 0
409 540 0 394.074066162109375 534.33331298828125 0
409 540 100 394.074066162109375 534.33331298828125 0
399 540 100 394.074066162109375 534.33331298828125 0
331 272 0 322.5128173828125 266.025634765625 0
341 272 0 322.5128173828125 266.025634765625 0
341 272 100 322.5128173828125 266.025634765625 0
331 272 100 322.5128173828125 266.025634765625 0
336 319 0 324.81817626953125 309.333343505859375 0
336 329 0 324.81817626953125 309.333343505859375 0
336 329 100 324.81817626953125 309.333343505859375 0
336 319 100 324.81817626953125 309.333343505859375 0
193 346 0 0 0 -1
203 346 0 0 0 -1
203 480 0 0 0 -1
193 480 0 0 0 -1
193 346 100 0 0 1
203 346 100 0 0 1
203 480 100 0 0 1
193 480 100 0 0 1
612 329 0 0 0 -1
622 319 0 0 0 -1
622 540 0 0 0 -1
612 540 0 0 0 -1
612 329 100 0 0 1
622 319 100 0 0 1
622 540 100 0 0 1
612 540 100 0 0 1
622 319 0 0 0 -1
612 329 0 0 0 -1
591 329 0 0 0 -1
596 319 0 0 0 -1
622 319 100 0 0 1
612 329 100 0 0 1
591 329 100 0 0 1
596 319 100 0 0 1
173 395 0 0 0 -1
183 395 0 0 0 -1
183 442 0 0 0 -1
173 442 0 0 0 -1
173 395 100 0 0 1
183 395 100 0 0 1
183 442 100 0 0 1
173 442 100 0 0 1
203 150 0 0 0 -1
193 140 0 0 0 -1
266 140 0 0 0 -1
266 150 0 0 0 -1
203 150 100 0 0 1
193 140 100 0 0 1
266 140 100 0 0 1
266 150 100 0 0 1
193 140 0 0 0 -1
203 150 0 0 0 -1
203 272 0 0 0 -1
193 277 0 0 0 -1
193 140 100 0 0 1
203 150 100 0 0 1
203 272 100 0 0 1
193 277 100 0 0 1
341 509 0 0 0 -1
331 509 0 0 0 -1
331 480 0 0 0 -1
341 475 0 0 0 -1
341 509 100 0 0 1
331 509 100 0 0 1
331 480 100 0 0 1
341 475 100 0 0 1
341 485 0 0 0 -1
331 480 0 0 0 -1
331 454 0 0 0 -1
341 464 0 0 0 -1
341 485 100 0 0 1
331 480 100 0 0 1
331 454 100 0 0 1
341 464 100 0 0 1
341 475 0 0 0 -1
341 485 0 0 0 -1
276 485 0 0 0 -1
276 475 0 0 0 -1
341 475 100 0 0 1
341 485 100 0 0 1
276 485 100 0 0 1
276 475 100 0 0 1
341 464 0 0 0 -1
331 454 0 0 0 -1
409 454 0 0 0 -1
409 464 0 0 0 -1
341 464 100 0 0 1
331 454 100 0 0 1
409 454 100 0 0 1
409 464 100 0 0 1
249 267 0 0 0 -1
249 277 0 0 0 -1
193 277 0 0 0 -1
193 267 0 0 0 -1
249 267 100 0 0 1
249 277 100 0 0 1
193 277 100 0 0 1
193 267 100 0 0 1
193 267 0 0 0 -1
203 272 0 0 0 -1
203 292 0 0 0 -1
193 292 0 0 0 -1
193 267 100 0 0 1
203 272 100 0 0 1
203 292 100 0 0 1
193 292 100 0 0 1
399 459 0 0 0 -1
409 454 0 0 0 -1
409 540 0 0 0 -1
399 540 0 0 0 -1
399 459 100 0 0 1
409 454 100 0 0 1
409 540 100 0 0 1
399 540 100 0 0 1
409 464 0 0 0 -1
399 459 0 0 0 -1
399 329 0 0 0 -1
409 329 0 0 0 -1
409 464 100 0 0 1
399 459 100 0 0 1
399 329 100 0 0 1
409 329 100 0 0 1
586 111 0 0 0 -1
596 101 0 0 0 -1
596 277 0 0 0 -1
586 272 0 0 0 -1
586 111 100 0 0 1
596 101 100 0 0 1
596 277 100 0 0 1
586 272 100 0 0 1
596 101 0 0 0 -1
586 111 0 0 0 -1
464 111 0 0 0 -1
459 101 0 0 0 -1
596 101 100 0 0 1
586 111 100 0 0 1
464 111 100 0 0 1
459 101 100 0 0 1
596 267 0 0 0 -1
596 277 0 0 0 -1
529 277 0 0 0 -1
524 267 0 0 0 -1
596 267 100 0 0 1
596 277 100 0 0 1
529 277 100 0 0 1
524 267 100 0 0 1
586 272 0 0 0 -1
596 267 0 0 0 -1
596 319 0 0 0 -1
586 319 0 0 0 -1
586 272 100 0 0 1
596 267 100 0 0 1
596 319 100 0 0 1
586 319 100 0 0 1
331 101 0 0 0 -1
341 111 0 0 0 -1
341 238 0 0 0 -1
331 243 0 0 0 -1
331 101 100 0 0 1
341 111 100 0 0 1
341 238 100 0 0 1
331 243 100 0 0 1
341 111 0 0 0 -1
331 101 0 0 0 -1
459 101 0 0 0 -1
454 111 0 0 0 -1
341 111 100 0 0 1
331 101 100 0 0 1
459 101 100 0 0 1
454 111 100 0 0 1
331 233 0 0 0 -1
341 238 0 0 0 -1
341 272 0 0 0 -1
331 272 0 0 0 -1
331 233 100 0 0 1
341 238 100 0 0 1
341 272 100 0 0 1
331 272 100 0 0 1
331 243 0 0 0 -1
331 233 0 0 0 -1
454 233 0 0 0 -1
454 243 0 0 0 -1
331 243 100 0 0 1
331 233 100 0 0 1
454 233 100 0 0 1
454 243 100 0 0 1
454 111 0 0 0 -1
464 111 0 0 0 -1
464 238 0 0 0 -1
454 233 0 0 0 -1
454 111 100 0 0 1
464 111 100 0 0 1
464 238 100 0 0 1
454 233 100 0 0 1
364 267 0 0 0 -1
374 277 0 0 0 -1
374 329 0 0 0 -1
364 329 0 0 0 -1
364 267 100 0 0 1
374 277 100 0 0 1
374 329 100 0 0 1
364 329 100 0 0 1
374 277 0 0 0 -1
364 267 0 0 0 -1
459 267 0 0 0 -1
454 277 0 0 0 -1
374 277 100 0 0 1
364 267 100 0 0 1
459 267 100 0 0 1
454 277 100 0 0 1
369 319 0 0 0 -1
374 329 0 0 0 -1
336 329 0 0 0 -1
336 319 0 0 0 -1
369 319 100 0 0 1
374 329 100 0 0 1
336 329 100 0 0 1
336 319 100 0 0 1
364 329 0 0 0 -1
369 319 0 0 0 -1
404 319 0 0 0 -1
399 329 0 0 0 -1
364 329 100 0 0 1
369 319 100 0 0 1
404 319 100 0 0 1
399 329 100 0 0 1
534 319 0 0 0 -1
524 319 0 0 0 -1
524 267 0 0 0 -1
534 267 0 0 0 -1
534 319 100 0 0 1
524 319 100 0 0 1
524 267 100 0 0 1
534 267 100 0 0 1
529 329 0 0 0 -1
534 319 0 0 0 -1
586 319 0 0 0 -1
591 329 0 0 0 -1
529 329 100 0 0 1
534 319 100 0 0 1
586 319 100 0 0 1
591 329 100 0 0 1
524 319 0 0 0 -1
529 329 0 0 0 -1
459 329 0 0 0 -1
464 319 0 0 0 -1
524 319 100 0 0 1
529 329 100 0 0 1
459 329 100 0 0 1
464 319 100 0 0 1
534 267 0 0 0 -1
529 277 0 0 0 -1
454 277 0 0 0 -1
459 267 0 0 0 -1
534 267 100 0 0 1
529 277 100 0 0 1
454 277 100 0 0 1
459 267 100 0 0 1
409 329 0 0 0 -1
404 319 0 0 0 -1
454 319 0 0 0 -1
459 329 0 0 0 -1
409 329 100 0 0 1
404 319 100 0 0 1
454 319 100 0 0 1
459 329 100 0 0 1
454 243 0 0 0 -1
464 238 0 0 0 -1
464 272 0 0 0 -1
454 277 0 0 0 -1
454 243 100 0 0 1
464 238 100 0 0 1
464 272 100 0 0 1
454 277 100 0 0 1
454 277 0 0 0 -1
464 272 0 0 0 -1
464 319 0 0 0 -1
454 319 0 0 0 -1
454 277 100 0 0 1
464 272 100 0 0 1
464 319 100 0 0 1
454 319 100 0 0 1
331 480 0 0 0 -1
341 485 0 0 0 -1
341 475 0 0 0 -1
331 480 100 0 0 1
341 485 100 0 0 1
341 475 100 0 0 1
193 277 0 0 0 -1
203 272 0 0 0 -1
193 267 0 0 0 -1
193 277 100 0 0 1
203 272 100 0 0 1
193 267 100 0 0 1
409 454 0 0 0 -1
399 459 0 0 0 -1
409 464 0 0 0 -1
409 454 100 0 0 1
399 459 100 0 0 1
409 464 100 0 0 1
596 277 0 0 0 -1
596 267 0 0 0 -1
586 272 0 0 0 -1
596 277 100 0 0 1
596 267 100 0 0 1
586 272 100 0 0 1
341 238 0 0 0 -1
331 233 0 0 0 -1
331 243 0 0 0 -1
341 238 100 0 0 1
331 233 100 0 0 1
331 243 100 0 0 1
459 101 0 0 0 -1
464 111 0 0 0 -1
454 111 0 0 0 -1
459 101 100 0 0 1
464 111 100 0 0 1
454 111 100 0 0 1
374 329 0 0 0 -1
369 319 0 0 0 -1
364 329 0 0 0 -1
374 329 100 0 0 1
369 319 100 0 0 1
364 329 100 0 0 1
534 319 0 0 0 -1
529 329 0 0 0 -1
524 319 0 0 0 -1
534 319 100 0 0 1
529 329 100 0 0 1
524 319 100 0 0 1
524 267 0 0 0 -1
529 277 0 0 0 -1
534 267 0 0 0 -1
524 267 100 0 0 1
529 277 100 0 0 1
534 267 100 0 0 1
591 329 0 0 0 -1
586 319 0 0 0 -1
596 319 0 0 0 -1
591 329 100 0 0 1
586 319 100 0 0 1
596 319 100 0 0 1
399 329 0 0 0 -1
404 319 0 0 0 -1
409 329 0 0 0 -1
399 329 100 0 0 1
404 319 100 0 0 1
409 329 100 0 0 1
454 233 0 0 0 -1
464 238 0 0 0 -1
454 243 0 0 0 -1
454 233 100 0 0 1
464 238 100 0 0 1
454 243 100 0 0 1
459 267 0 0 0 -1
454 277 0 0 0 -1
464 272 0 0 0 -1
454 277 0 0 0 -1
459 267 100 0 0 1
454 277 100 0 0 1
464 272 100 0 0 1
454 277 100 0 0 1
459 329 0 0 0 -1
454 319 0 0 0 -1
464 319 0 0 0 -1
459 329 100 0 0 1
454 319 100 0 0 1
464 319 100 0 0 1
4 0 1 2 3
4 4 5 6 7
4 8 9 10 11
4 12 13 14 15
4 16 17 18 19
4 20 21 22 23
4 24 25 26 27
4 28 29 30 31
4 32 33 34 35
4 36 37 38 39
4 40 41 42 43
4 44 45 46 47
4 48 49 50 51
4 52 53 54 55
4 56 57 58 59
4 60 61 62 63
4 64 65 66 67
4 68 69 70 71
4 72 73 74 75
4 76 77 78 79
4 80 81 82 83
4 84 85 86 87
4 88 89 90 91
4 92 93 94 95
4 96 97 98 99
4 100 101 102 103
4 104 105 106 107
4 108 109 110 111
4 112 113 114 115
4 116 117 118 119
4 120 121 122 123
4 124 125 126 127
4 128 129 130 131
4 132 133 134 135
4 136 137 138 139
4 140 141 142 143
4 144 145 146 147
4 148 149 150 151
4 152 153 154 155
4 156 157 158 159
4 160 161 162 163
4 164 165 166 167
4 168 169 170 171
4 172 173 174 175
4 176 177 178 179
4 180 181 182 183
4 184 185 186 187
4 188 189 190 191
4 192 193 194 195
4 196 197 198 199
4 200 201 202 203
4 204 205 206 207
4 208 209 210 211
4 212 213 214 215
4 216 217 218 219
4 220 221 222 223
4 224 225 226 227
4 228 229 230 231
4 232 233 234 235
4 236 237 238 239
4 240 241 242 243
4 244 245 246 247
4 248 249 250 251
4 252 253 254 255
4 256 257 258 259
4 260 261 262 263
4 264 265 266 267
4 268 269 270 271
4 272 273 274 275
4 276 277 278 279
4 280 281 282 283
4 284 285 286 287
4 288 289 290 291
4 292 293 294 295
4 296 297 298 299
4 300 301 302 303
4 304 305 306 307
4 308 309 310 311
4 312 313 314 315
4 316 317 318 319
4 320 321 322 323
4 324 325 326 327
4 328 329 330 331
4 332 333 334 335
4 336 337 338 339
4 340 341 342 343
4 344 345 346 347
4 348 349 350 351
4 352 353 354 355
4 356 357 358 359
4 360 361 362 363
4 364 365 366 367
4 368 369 370 371
4 372 373 374 375
4 376 377 378 379
4 380 381 382 383
4 384 385 386 387
4 388 389 390 391
4 392 393 394 395
4 396 397 398 399
4 400 401 402 403
4 404 405 406 407
4 408 409 410 411
4 412 413 414 415
4 416 417 418 419
4 420 421 422 423
4 424 425 426 427
4 428 429 430 431
4 432 433 434 435
4 436 437 438 439
4 440 441 442 443
4 444 445 446 447
4 448 449 450 451
4 452 453 454 455
4 456 457 458 459
4 460 461 462 463
4 464 465 466 467
4 468 469 470 471
4 472 473 474 475
4 476 477 478 479
4 480 481 482 483
4 484 485 486 487
4 488 489 490 491
4 492 493 494 495
4 496 497 498 499
4 500 501 502 503
4 504 505 506 507
4 508 509 510 511
4 512 513 514 515
4 516 517 518 519
4 520 521 522 523
4 524 525 526 527
4 528 529 530 531
4 532 533 534 535
4 536 537 538 539
4 540 541 542 543
4 544 545 546 547
4 548 549 550 551
4 552 553 554 555
4 556 557 558 559
4 560 561 562 563
4 564 565 566 567
4 568 569 570 571
4 572 573 574 575
4 576 577 578 579
4 580 581 582 583
4 584 585 586 587
4 588 589 590 591
4 592 593 594 595
3 596 597 598
3 599 600 601
3 602 603 604
3 605 606 607
3 608 609 610
3 611 612 613
3 614 615 616
3 617 618 619
3 620 621 622
3 623 624 625
3 626 627 628
3 629 630 631
3 632 633 634
3 635 636 637
3 638 639 640
3 641 642 643
3 644 645 646
3 647 648 649
3 650 651 652
3 653 654 655
3 656 657 658
3 659 660 661
3 662 663 664
3 665 666 667
3 668 669 670
3 669 670 671
3 672 673 674
3 673 674 675
3 676 677 678
3 679 680 681
