ply
format ascii 1.0
element vertex 160
property float x
property float y
property float z
property float nx
property float ny
property float nz
element quads 40
property list uchar int vertex_indices
end_header
346 166 0 1 0 0
346 109 0 1 0 0
346 109 100 1 0 0
346 166 100 1 0 0
336 166 0 -1 -0 0
336 109 0 -1 -0 0
336 109 100 -1 -0 0
336 166 100 -1 -0 0
462 343 0 1 0 0
462 213 0 1 0 0
462 213 100 1 0 0
462 343 100 1 0 0
452 343 0 -1 -0 0
452 213 0 -1 -0 0
452 213 100 -1 -0 0
452 343 100 -1 -0 0
309 377 0 -1 0 0
309 464 0 -1 0 0
309 464 100 -1 0 0
309 377 100 -1 0 0
319 377 0 1 -0 0
319 464 0 1 -0 0
319 464 100 1 -0 0
319 377 100 1 -0 0
136 161 0 -1 0 0
136 418 0 -1 0 0
136 418 100 -1 0 0
136 161 100 -1 0 0
146 171 0 1 -0 0
146 418 0 1 -0 0
146 418 100 1 -0 0
146 171 100 1 -0 0
146 171 0 -0 1 0
224 171 0 -0 1 0
224 171 100 -0 1 0
146 171 100 -0 1 0
136 161 0 0 -1 0
224 161 0 0 -1 0
224 161 100 0 -1 0
136 161 100 0 -1 0
243 377 0 -1 0 0
243 502 0 -1 0 0
243 502 100 -1 0 0
243 377 100 -1 0 0
253 377 0 1 -0 0
253 502 0 1 -0 0
253 502 100 1 -0 0
253 377 100 1 -0 0
372 213 0 -1 0 0
372 376 0 -1 0 0
372 376 100 -1 0 0
372 213 100 -1 0 0
382 213 0 1 -0 0
382 376 0 1 -0 0
382 376 100 1 -0 0
382 213 100 1 -0 0
346 166 0 339.9298095703125 164.087722778320312 0
336 166 0 339.9298095703125 164.087722778320312 0
336 166 100 339.9298095703125 164.087722778320312 0
346 166 100 339.9298095703125 164.087722778320312 0
346 109 0 339.9298095703125 106.087722778320312 0
336 109 0 339.9298095703125 106.087722778320312 0
336 109 100 339.9298095703125 106.087722778320312 0
346 109 100 339.9298095703125 106.087722778320312 0
462 343 0 458.4461669921875 341.361541748046875 0
452 343 0 458.4461669921875 341.361541748046875 0
452 343 100 458.4461669921875 341.361541748046875 0
462 343 100 458.4461669921875 341.361541748046875 0
462 213 0 458.4461669921875 210.361541748046875 0
452 213 0 458.4461669921875 210.361541748046875 0
452 213 100 458.4461669921875 210.361541748046875 0
462 213 100 458.4461669921875 210.361541748046875 0
309 377 0 305.448272705078125 371.666656494140625 0
319 377 0 305.448272705078125 371.666656494140625 0
319 377 100 305.448272705078125 371.666656494140625 0
309 377 100 305.448272705078125 371.666656494140625 0
309 464 0 305.448272705078125 459.666656494140625 0
319 464 0 305.448272705078125 459.666656494140625 0
319 464 100 305.448272705078125 459.666656494140625 0
309 464 100 305.448272705078125 459.666656494140625 0
136 418 0 135.470809936523438 417.37353515625 0
146 418 0 135.470809936523438 417.37353515625 0
146 418 100 135.470809936523438 417.37353515625 0
136 418 100 135.470809936523438 417.37353515625 0
243 377 0 241.055999755859375 372.9840087890625 0
253 377 0 241.055999755859375 372.9840087890625 0
253 377 100 241.055999755859375 372.9840087890625 0
243 377 100 241.055999755859375 372.9840087890625 0
243 502 0 241.055999755859375 498.9840087890625 0
253 502 0 241.055999755859375 498.9840087890625 0
253 502 100 241.055999755859375 498.9840087890625 0
243 502 100 241.055999755859375 498.9840087890625 0
224 171 0 222.128204345703125 168.807693481445312 0
224 161 0 222.128204345703125 168.807693481445312 0
224 161 100 222.128204345703125 168.807693481445312 0
224 171 100 222.128204345703125 168.807693481445312 0
372 213 0 369.717803955078125 210.693252563476562 0
382 213 0 369.717803955078125 210.693252563476562 0
382 213 100 369.717803955078125 210.693252563476562 0
372 213 100 369.717803955078125 210.693252563476562 0
372 376 0 369.717803955078125 374.6932373046875 0
382 376 0 369.717803955078125 374.6932373046875 0
382 376 100 369.717803955078125 374.6932373046875 0
372 376 100 369.717803955078125 374.6932373046875 0
346 166 0 0 0 -1
336 166 0 0 0 -1
336 109 0 0 0 -1
346 109 0 0 0 -1
346 166 100 0 0 1
336 166 100 0 0 1
336 109 100 0 0 1
346 109 100 0 0 1
462 343 0 0 0 -1
452 343 0 0 0 -1
452 213 0 0 0 -1
462 213 0 0 0 -1
462 343 100 0 0 1
452 343 100 0 0 1
452 213 100 0 0 1
462 213 100 0 0 1
309 377 0 0 0 -1
319 377 0 0 0 -1
319 464 0 0 0 -1
309 464 0 0 0 -1
309 377 100 0 0 1
319 377 100 0 0 1
319 464 100 0 0 1
309 464 100 0 0 1
136 161 0 0 0 -1
146 171 0 0 0 -1
146 418 0 0 0 -1
136 418 0 0 0 -1
136 161 100 0 0 1
146 171 100 0 0 1
146 418 100 0 0 1
136 418 100 0 0 1
146 171 0 0 0 -1
136 161 0 0 0 -1
224 161 0 0 0 -1
224 171 0 0 0 -1
146 171 100 0 0 1
136 161 100 0 0 1
224 161 100 0 0 1
224 171 100 0 0 1
243 377 0 0 0 -1
253 377 0 0 0 -1
253 502 0 0 0 -1
243 502 0 0 0 -1
243 377 100 0 0 1
253 377 100 0 0 1
253 502 100 0 0 1
243 502 100 0 0 1
372 213 0 0 0 -1
382 213 0 0 0 -1
382 376 0 0 0 -1
372 376 0 0 0 -1
372 213 100 0 0 1
382 213 100 0 0 1
382 376 100 0 0 1
372 376 100 0 0 1
4 0 1 2 3
4 4 5 6 7
4 8 9 10 11
4 12 13 14 15
4 16 17 18 19
4 20 21 22 23
4 24 25 26 27
4 28 29 30 31
4 32 33 34 35
4 36 37 38 39
4 40 41 42 43
4 44 45 46 47
4 48 49 50 51
4 52 53 54 55
4 56 57 58 59
4 60 61 62 63
4 64 65 66 67
4 68 69 70 71
4 72 73 74 75
4 76 77 78 79
4 80 81 82 83
4 84 85 86 87
4 88 89 90 91
4 92 93 94 95
4 96 97 98 99
4 100 101 102 103
4 104 105 106 107
4 108 109 110 111
4 112 113 114 115
4 116 117 118 119
4 120 121 122 123
4 124 125 126 127
4 128 129 130 131
4 132 133 134 135
4 136 137 138 139
4 140 141 142 143
4 144 145 146 147
4 148 149 150 151
4 152 153 154 155
4 156 157 158 159
