ply
format ascii 1.0
element vertex 710
property float x
property float y
property float z
property float nx
property float ny
property float nz
element quads 155
property list uchar int vertex_indices
element triads 30
property list uchar int vertex_indices
end_header
538 240 0 -0 1 0
667 240 0 -0 1 0
667 240 100 -0 1 0
538 240 100 -0 1 0
538 230 0 0 -1 0
667 230 0 0 -1 0
667 230 100 0 -1 0
538 230 100 0 -1 0
168 412 0 1 0 0
168 350 0 1 0 0
168 350 100 1 0 0
168 412 100 1 0 0
158 412 0 -1 -0 0
158 350 0 -1 -0 0
158 350 100 -1 -0 0
158 412 100 -1 -0 0
352 227 0 -0 1 0
408 227 0 -0 1 0
408 227 100 -0 1 0
352 227 100 -0 1 0
352 217 0 0 -1 0
408 217 0 0 -1 0
408 217 100 0 -1 0
352 217 100 0 -1 0
543 28 0 -0 1 0
662 28 0 -0 1 0
662 28 100 -0 1 0
543 28 100 -0 1 0
533 18 0 0 -1 0
672 18 0 0 -1 0
672 18 100 0 -1 0
533 18 100 0 -1 0
533 18 0 -1 0 0
533 222 0 -1 0 0
533 222 100 -1 0 0
533 18 100 -1 0 0
543 28 0 1 -0 0
543 222 0 1 -0 0
543 222 100 1 -0 0
543 28 100 1 -0 0
662 28 0 -1 0 0
662 222 0 -1 0 0
662 222 100 -1 0 0
662 28 100 -1 0 0
672 18 0 1 -0 0
672 222 0 1 -0 0
672 222 100 1 -0 0
672 18 100 1 -0 0
226 54 0 -0 1 0
431 54 0 -0 1 0
431 54 100 -0 1 0
226 54 100 -0 1 0
216 44 0 0 -1 0
441 44 0 0 -1 0
441 44 100 0 -1 0
216 44 100 0 -1 0
216 44 0 -1 0 0
216 167 0 -1 0 0
216 167 100 -1 0 0
216 44 100 -1 0 0
226 54 0 1 -0 0
226 162 0 1 -0 0
226 162 100 1 -0 0
226 54 100 1 -0 0
431 54 0 -1 0 0
431 124 0 -1 0 0
431 124 100 -1 0 0
431 54 100 -1 0 0
441 44 0 1 -0 0
441 129 0 1 -0 0
441 129 100 1 -0 0
441 44 100 1 -0 0
352 240 0 -0 1 0
365 240 0 -0 1 0
365 240 100 -0 1 0
352 240 100 -0 1 0
352 230 0 0 -1 0
370 230 0 0 -1 0
370 230 100 0 -1 0
352 230 100 0 -1 0
375 240 0 -0 1 0
408 240 0 -0 1 0
408 240 100 -0 1 0
375 240 100 -0 1 0
370 230 0 0 -1 0
408 230 0 0 -1 0
408 230 100 0 -1 0
370 230 100 0 -1 0
365 240 0 -1 0 0
365 295 0 -1 0 0
365 295 100 -1 0 0
365 240 100 -1 0 0
375 240 0 1 -0 0
375 295 0 1 -0 0
375 295 100 1 -0 0
375 240 100 1 -0 0
347 124 0 -1 0 0
347 157 0 -1 0 0
347 157 100 -1 0 0
347 124 100 -1 0 0
357 134 0 1 -0 0
357 162 0 1 -0 0
357 162 100 1 -0 0
357 134 100 1 -0 0
357 134 0 -0 1 0
431 134 0 -0 1 0
431 134 100 -0 1 0
357 134 100 -0 1 0
347 124 0 0 -1 0
431 124 0 0 -1 0
431 124 100 0 -1 0
347 124 100 0 -1 0
347 167 0 -1 0 0
347 192 0 -1 0 0
347 192 100 -1 0 0
347 167 100 -1 0 0
357 162 0 1 -0 0
357 182 0 1 -0 0
357 182 100 1 -0 0
357 162 100 1 -0 0
347 157 0 -0 -1 0
307 157 0 -0 -1 0
307 157 100 -0 -1 0
347 157 100 -0 -1 0
347 167 0 0 1 0
312 167 0 0 1 0
312 167 100 0 1 0
347 167 100 0 1 0
257 222 0 1 0 0
257 157 0 1 0 0
257 157 100 1 0 0
257 222 100 1 0 0
247 222 0 -1 -0 0
247 157 0 -1 -0 0
247 157 100 -1 -0 0
247 222 100 -1 -0 0
252 167 0 -0 1 0
312 167 0 -0 1 0
312 167 100 -0 1 0
252 167 100 -0 1 0
247 157 0 0 -1 0
317 157 0 0 -1 0
317 157 100 0 -1 0
247 157 100 0 -1 0
257 157 0 -0 -1 0
216 157 0 -0 -1 0
216 157 100 -0 -1 0
257 157 100 -0 -1 0
252 167 0 0 1 0
216 167 0 0 1 0
216 167 100 0 1 0
252 167 100 0 1 0
441 446 0 1 0 0
441 368 0 1 0 0
441 368 100 1 0 0
441 446 100 1 0 0
431 436 0 -1 -0 0
431 373 0 -1 -0 0
431 373 100 -1 -0 0
431 436 100 -1 -0 0
431 436 0 -0 -1 0
408 436 0 -0 -1 0
408 436 100 -0 -1 0
431 436 100 -0 -1 0
441 446 0 0 1 0
403 446 0 0 1 0
403 446 100 0 1 0
441 446 100 0 1 0
431 363 0 -0 -1 0
413 363 0 -0 -1 0
413 363 100 -0 -1 0
431 363 100 -0 -1 0
431 373 0 0 1 0
413 373 0 0 1 0
413 373 100 0 1 0
431 373 100 0 1 0
441 368 0 1 0 0
441 285 0 1 0 0
441 285 100 1 0 0
441 368 100 1 0 0
431 363 0 -1 -0 0
431 290 0 -1 -0 0
431 290 100 -1 -0 0
431 363 100 -1 -0 0
216 446 0 -0 1 0
413 446 0 -0 1 0
413 446 100 -0 1 0
216 446 100 -0 1 0
226 436 0 0 -1 0
408 436 0 0 -1 0
408 436 100 0 -1 0
226 436 100 0 -1 0
226 436 0 1 0 0
226 290 0 1 0 0
226 290 100 1 0 0
226 436 100 1 0 0
216 446 0 -1 -0 0
216 285 0 -1 -0 0
216 285 100 -1 -0 0
216 446 100 -1 -0 0
413 446 0 1 0 0
413 373 0 1 0 0
413 373 100 1 0 0
413 446 100 1 0 0
403 446 0 -1 -0 0
403 368 0 -1 -0 0
403 368 100 -1 -0 0
403 446 100 -1 -0 0
431 134 0 -1 0 0
431 187 0 -1 0 0
431 187 100 -1 0 0
431 134 100 -1 0 0
441 129 0 1 -0 0
441 192 0 1 -0 0
441 192 100 1 -0 0
441 129 100 1 -0 0
347 192 0 -0 1 0
441 192 0 -0 1 0
441 192 100 -0 1 0
347 192 100 -0 1 0
357 182 0 0 -1 0
441 182 0 0 -1 0
441 182 100 0 -1 0
357 182 100 0 -1 0
216 295 0 -0 1 0
312 295 0 -0 1 0
312 295 100 -0 1 0
216 295 100 -0 1 0
216 285 0 0 -1 0
307 285 0 0 -1 0
307 285 100 0 -1 0
216 285 100 0 -1 0
226 290 0 1 0 0
226 162 0 1 0 0
226 162 100 1 0 0
226 290 100 1 0 0
216 295 0 -1 -0 0
216 157 0 -1 -0 0
216 157 100 -1 -0 0
216 295 100 -1 -0 0
317 285 0 1 0 0
317 157 0 1 0 0
317 157 100 1 0 0
317 285 100 1 0 0
307 285 0 -1 -0 0
307 157 0 -1 -0 0
307 157 100 -1 -0 0
307 285 100 -1 -0 0
312 295 0 -0 1 0
375 295 0 -0 1 0
375 295 100 -0 1 0
312 295 100 -0 1 0
317 285 0 0 -1 0
370 285 0 0 -1 0
370 285 100 0 -1 0
317 285 100 0 -1 0
365 295 0 -0 1 0
408 295 0 -0 1 0
408 295 100 -0 1 0
365 295 100 -0 1 0
370 285 0 0 -1 0
413 285 0 0 -1 0
413 285 100 0 -1 0
370 285 100 0 -1 0
403 285 0 -1 0 0
403 368 0 -1 0 0
403 368 100 -1 0 0
403 285 100 -1 0 0
413 285 0 1 -0 0
413 363 0 1 -0 0
413 363 100 1 -0 0
413 285 100 1 -0 0
408 295 0 -0 1 0
441 295 0 -0 1 0
441 295 100 -0 1 0
408 295 100 -0 1 0
403 285 0 0 -1 0
441 285 0 0 -1 0
441 285 100 0 -1 0
403 285 100 0 -1 0
431 187 0 -1 0 0
431 290 0 -1 0 0
431 290 100 -1 0 0
431 187 100 -1 0 0
441 182 0 1 -0 0
441 295 0 1 -0 0
441 295 100 1 -0 0
441 182 100 1 -0 0
538 240 0 532.8294677734375 238.139541625976562 0
538 230 0 532.8294677734375 238.139541625976562 0
538 230 100 532.8294677734375 238.139541625976562 0
538 240 100 532.8294677734375 238.139541625976562 0
667 240 0 662.8294677734375 238.139541625976562 0
667 230 0 662.8294677734375 238.139541625976562 0
667 230 100 662.8294677734375 238.139541625976562 0
667 240 100 662.8294677734375 238.139541625976562 0
168 412 0 165.290328979492188 406.354827880859375 0
158 412 0 165.290328979492188 406.354827880859375 0
158 412 100 165.290328979492188 406.354827880859375 0
168 412 100 165.290328979492188 406.354827880859375 0
168 350 0 165.290328979492188 343.354827880859375 0
158 350 0 165.290328979492188 343.354827880859375 0
158 350 100 165.290328979492188 343.354827880859375 0
168 350 100 165.290328979492188 343.354827880859375 0
352 227 0 344.71429443359375 222.946426391601562 0
352 217 0 344.71429443359375 222.946426391601562 0
352 217 100 344.71429443359375 222.946426391601562 0
352 227 100 344.71429443359375 222.946426391601562 0
408 227 0 401.71429443359375 222.946426391601562 0
408 217 0 401.71429443359375 222.946426391601562 0
408 217 100 401.71429443359375 222.946426391601562 0
408 227 100 401.71429443359375 222.946426391601562 0
662 222 0 658.587646484375 221.855667114257812 0
672 222 0 658.587646484375 221.855667114257812 0
672 222 100 658.587646484375 221.855667114257812 0
662 222 100 658.587646484375 221.855667114257812 0
533 222 0 530.38726806640625 221.911758422851562 0
543 222 0 530.38726806640625 221.911758422851562 0
543 222 100 530.38726806640625 221.911758422851562 0
533 222 100 530.38726806640625 221.911758422851562 0
352 240 0 323.923065185546875 221.538467407226562 0
352 230 0 323.923065185546875 221.538467407226562 0
352 230 100 323.923065185546875 221.538467407226562 0
352 240 100 323.923065185546875 221.538467407226562 0
408 240 0 396.6363525390625 232.727279663085938 0
408 230 0 396.6363525390625 232.727279663085938 0
408 230 100 396.6363525390625 232.727279663085938 0
408 240 100 396.6363525390625 232.727279663085938 0
257 222 0 253.046157836914062 219.584609985351562 0
247 222 0 253.046157836914062 219.584609985351562 0
247 222 100 253.046157836914062 219.584609985351562 0
257 222 100 253.046157836914062 219.584609985351562 0
538 240 0 0 0 -1
538 230 0 0 0 -1
667 230 0 0 0 -1
667 240 0 0 0 -1
538 240 100 0 0 1
538 230 100 0 0 1
667 230 100 0 0 1
667 240 100 0 0 1
168 412 0 0 0 -1
158 412 0 0 0 -1
158 350 0 0 0 -1
168 350 0 0 0 -1
168 412 100 0 0 1
158 412 100 0 0 1
158 350 100 0 0 1
168 350 100 0 0 1
352 227 0 0 0 -1
352 217 0 0 0 -1
408 217 0 0 0 -1
408 227 0 0 0 -1
352 227 100 0 0 1
352 217 100 0 0 1
408 217 100 0 0 1
408 227 100 0 0 1
543 28 0 0 0 -1
533 18 0 0 0 -1
672 18 0 0 0 -1
662 28 0 0 0 -1
543 28 100 0 0 1
533 18 100 0 0 1
672 18 100 0 0 1
662 28 100 0 0 1
533 18 0 0 0 -1
543 28 0 0 0 -1
543 222 0 0 0 -1
533 222 0 0 0 -1
533 18 100 0 0 1
543 28 100 0 0 1
543 222 100 0 0 1
533 222 100 0 0 1
662 28 0 0 0 -1
672 18 0 0 0 -1
672 222 0 0 0 -1
662 222 0 0 0 -1
662 28 100 0 0 1
672 18 100 0 0 1
672 222 100 0 0 1
662 222 100 0 0 1
226 54 0 0 0 -1
216 44 0 0 0 -1
441 44 0 0 0 -1
431 54 0 0 0 -1
226 54 100 0 0 1
216 44 100 0 0 1
441 44 100 0 0 1
431 54 100 0 0 1
216 44 0 0 0 -1
226 54 0 0 0 -1
226 162 0 0 0 -1
216 167 0 0 0 -1
216 44 100 0 0 1
226 54 100 0 0 1
226 162 100 0 0 1
216 167 100 0 0 1
431 54 0 0 0 -1
441 44 0 0 0 -1
441 129 0 0 0 -1
431 124 0 0 0 -1
431 54 100 0 0 1
441 44 100 0 0 1
441 129 100 0 0 1
431 124 100 0 0 1
352 240 0 0 0 -1
352 230 0 0 0 -1
370 230 0 0 0 -1
365 240 0 0 0 -1
352 240 100 0 0 1
352 230 100 0 0 1
370 230 100 0 0 1
365 240 100 0 0 1
375 240 0 0 0 -1
370 230 0 0 0 -1
408 230 0 0 0 -1
408 240 0 0 0 -1
375 240 100 0 0 1
370 230 100 0 0 1
408 230 100 0 0 1
408 240 100 0 0 1
365 240 0 0 0 -1
375 240 0 0 0 -1
375 295 0 0 0 -1
365 295 0 0 0 -1
365 240 100 0 0 1
375 240 100 0 0 1
375 295 100 0 0 1
365 295 100 0 0 1
347 124 0 0 0 -1
357 134 0 0 0 -1
357 162 0 0 0 -1
347 157 0 0 0 -1
347 124 100 0 0 1
357 134 100 0 0 1
357 162 100 0 0 1
347 157 100 0 0 1
357 134 0 0 0 -1
347 124 0 0 0 -1
431 124 0 0 0 -1
431 134 0 0 0 -1
357 134 100 0 0 1
347 124 100 0 0 1
431 124 100 0 0 1
431 134 100 0 0 1
347 167 0 0 0 -1
357 162 0 0 0 -1
357 182 0 0 0 -1
347 192 0 0 0 -1
347 167 100 0 0 1
357 162 100 0 0 1
357 182 100 0 0 1
347 192 100 0 0 1
347 157 0 0 0 -1
347 167 0 0 0 -1
312 167 0 0 0 -1
307 157 0 0 0 -1
347 157 100 0 0 1
347 167 100 0 0 1
312 167 100 0 0 1
307 157 100 0 0 1
257 222 0 0 0 -1
247 222 0 0 0 -1
247 157 0 0 0 -1
257 157 0 0 0 -1
257 222 100 0 0 1
247 222 100 0 0 1
247 157 100 0 0 1
257 157 100 0 0 1
252 167 0 0 0 -1
247 157 0 0 0 -1
317 157 0 0 0 -1
312 167 0 0 0 -1
252 167 100 0 0 1
247 157 100 0 0 1
317 157 100 0 0 1
312 167 100 0 0 1
257 157 0 0 0 -1
252 167 0 0 0 -1
216 167 0 0 0 -1
216 157 0 0 0 -1
257 157 100 0 0 1
252 167 100 0 0 1
216 167 100 0 0 1
216 157 100 0 0 1
441 446 0 0 0 -1
431 436 0 0 0 -1
431 373 0 0 0 -1
441 368 0 0 0 -1
441 446 100 0 0 1
431 436 100 0 0 1
431 373 100 0 0 1
441 368 100 0 0 1
431 436 0 0 0 -1
441 446 0 0 0 -1
403 446 0 0 0 -1
408 436 0 0 0 -1
431 436 100 0 0 1
441 446 100 0 0 1
403 446 100 0 0 1
408 436 100 0 0 1
431 363 0 0 0 -1
431 373 0 0 0 -1
413 373 0 0 0 -1
413 363 0 0 0 -1
431 363 100 0 0 1
431 373 100 0 0 1
413 373 100 0 0 1
413 363 100 0 0 1
441 368 0 0 0 -1
431 363 0 0 0 -1
431 290 0 0 0 -1
441 285 0 0 0 -1
441 368 100 0 0 1
431 363 100 0 0 1
431 290 100 0 0 1
441 285 100 0 0 1
216 446 0 0 0 -1
226 436 0 0 0 -1
408 436 0 0 0 -1
413 446 0 0 0 -1
216 446 100 0 0 1
226 436 100 0 0 1
408 436 100 0 0 1
413 446 100 0 0 1
226 436 0 0 0 -1
216 446 0 0 0 -1
216 285 0 0 0 -1
226 290 0 0 0 -1
226 436 100 0 0 1
216 446 100 0 0 1
216 285 100 0 0 1
226 290 100 0 0 1
413 446 0 0 0 -1
403 446 0 0 0 -1
403 368 0 0 0 -1
413 373 0 0 0 -1
413 446 100 0 0 1
403 446 100 0 0 1
403 368 100 0 0 1
413 373 100 0 0 1
431 134 0 0 0 -1
441 129 0 0 0 -1
441 192 0 0 0 -1
431 187 0 0 0 -1
431 134 100 0 0 1
441 129 100 0 0 1
441 192 100 0 0 1
431 187 100 0 0 1
347 192 0 0 0 -1
357 182 0 0 0 -1
441 182 0 0 0 -1
441 192 0 0 0 -1
347 192 100 0 0 1
357 182 100 0 0 1
441 182 100 0 0 1
441 192 100 0 0 1
216 295 0 0 0 -1
216 285 0 0 0 -1
307 285 0 0 0 -1
312 295 0 0 0 -1
216 295 100 0 0 1
216 285 100 0 0 1
307 285 100 0 0 1
312 295 100 0 0 1
226 290 0 0 0 -1
216 295 0 0 0 -1
216 157 0 0 0 -1
226 162 0 0 0 -1
226 290 100 0 0 1
216 295 100 0 0 1
216 157 100 0 0 1
226 162 100 0 0 1
317 285 0 0 0 -1
307 285 0 0 0 -1
307 157 0 0 0 -1
317 157 0 0 0 -1
317 285 100 0 0 1
307 285 100 0 0 1
307 157 100 0 0 1
317 157 100 0 0 1
312 295 0 0 0 -1
317 285 0 0 0 -1
370 285 0 0 0 -1
375 295 0 0 0 -1
312 295 100 0 0 1
317 285 100 0 0 1
370 285 100 0 0 1
375 295 100 0 0 1
365 295 0 0 0 -1
370 285 0 0 0 -1
413 285 0 0 0 -1
408 295 0 0 0 -1
365 295 100 0 0 1
370 285 100 0 0 1
413 285 100 0 0 1
408 295 100 0 0 1
403 285 0 0 0 -1
413 285 0 0 0 -1
413 363 0 0 0 -1
403 368 0 0 0 -1
403 285 100 0 0 1
413 285 100 0 0 1
413 363 100 0 0 1
403 368 100 0 0 1
408 295 0 0 0 -1
403 285 0 0 0 -1
441 285 0 0 0 -1
441 295 0 0 0 -1
408 295 100 0 0 1
403 285 100 0 0 1
441 285 100 0 0 1
441 295 100 0 0 1
431 187 0 0 0 -1
441 182 0 0 0 -1
441 295 0 0 0 -1
431 290 0 0 0 -1
431 187 100 0 0 1
441 182 100 0 0 1
441 295 100 0 0 1
431 290 100 0 0 1
370 230 0 0 0 -1
375 240 0 0 0 -1
365 240 0 0 0 -1
370 230 100 0 0 1
375 240 100 0 0 1
365 240 100 0 0 1
357 162 0 0 0 -1
347 167 0 0 0 -1
347 157 0 0 0 -1
357 162 100 0 0 1
347 167 100 0 0 1
347 157 100 0 0 1
247 157 0 0 0 -1
252 167 0 0 0 -1
257 157 0 0 0 -1
247 157 100 0 0 1
252 167 100 0 0 1
257 157 100 0 0 1
431 373 0 0 0 -1
431 363 0 0 0 -1
441 368 0 0 0 -1
431 373 100 0 0 1
431 363 100 0 0 1
441 368 100 0 0 1
408 436 0 0 0 -1
403 446 0 0 0 -1
413 446 0 0 0 -1
408 436 100 0 0 1
403 446 100 0 0 1
413 446 100 0 0 1
431 124 0 0 0 -1
441 129 0 0 0 -1
431 134 0 0 0 -1
431 124 100 0 0 1
441 129 100 0 0 1
431 134 100 0 0 1
216 285 0 0 0 -1
216 295 0 0 0 -1
226 290 0 0 0 -1
216 285 100 0 0 1
216 295 100 0 0 1
226 290 100 0 0 1
307 285 0 0 0 -1
317 285 0 0 0 -1
312 295 0 0 0 -1
307 285 100 0 0 1
317 285 100 0 0 1
312 295 100 0 0 1
307 157 0 0 0 -1
312 167 0 0 0 -1
317 157 0 0 0 -1
307 157 100 0 0 1
312 167 100 0 0 1
317 157 100 0 0 1
375 295 0 0 0 -1
370 285 0 0 0 -1
365 295 0 0 0 -1
375 295 100 0 0 1
370 285 100 0 0 1
365 295 100 0 0 1
413 285 0 0 0 -1
403 285 0 0 0 -1
408 295 0 0 0 -1
413 285 100 0 0 1
403 285 100 0 0 1
408 295 100 0 0 1
216 167 0 0 0 -1
226 162 0 0 0 -1
216 157 0 0 0 -1
216 167 100 0 0 1
226 162 100 0 0 1
216 157 100 0 0 1
413 373 0 0 0 -1
403 368 0 0 0 -1
413 363 0 0 0 -1
413 373 100 0 0 1
403 368 100 0 0 1
413 363 100 0 0 1
441 192 0 0 0 -1
441 182 0 0 0 -1
431 187 0 0 0 -1
441 192 100 0 0 1
441 182 100 0 0 1
431 187 100 0 0 1
441 285 0 0 0 -1
431 290 0 0 0 -1
441 295 0 0 0 -1
441 285 100 0 0 1
431 290 100 0 0 1
441 295 100 0 0 1
4 0 1 2 3
4 4 5 6 7
4 8 9 10 11
4 12 13 14 15
4 16 17 18 19
4 20 21 22 23
4 24 25 26 27
4 28 29 30 31
4 32 33 34 35
4 36 37 38 39
4 40 41 42 43
4 44 45 46 47
4 48 49 50 51
4 52 53 54 55
4 56 57 58 59
4 60 61 62 63
4 64 65 66 67
4 68 69 70 71
4 72 73 74 75
4 76 77 78 79
4 80 81 82 83
4 84 85 86 87
4 88 89 90 91
4 92 93 94 95
4 96 97 98 99
4 100 101 102 103
4 104 105 106 107
4 108 109 110 111
4 112 113 114 115
4 116 117 118 119
4 120 121 122 123
4 124 125 126 127
4 128 129 130 131
4 132 133 134 135
4 136 137 138 139
4 140 141 142 143
4 144 145 146 147
4 148 149 150 151
4 152 153 154 155
4 156 157 158 159
4 160 161 162 163
4 164 165 166 167
4 168 169 170 171
4 172 173 174 175
4 176 177 178 179
4 180 181 182 183
4 184 185 186 187
4 188 189 190 191
4 192 193 194 195
4 196 197 198 199
4 200 201 202 203
4 204 205 206 207
4 208 209 210 211
4 212 213 214 215
4 216 217 218 219
4 220 221 222 223
4 224 225 226 227
4 228 229 230 231
4 232 233 234 235
4 236 237 238 239
4 240 241 242 243
4 244 245 246 247
4 248 249 250 251
4 252 253 254 255
4 256 257 258 259
4 260 261 262 263
4 264 265 266 267
4 268 269 270 271
4 272 273 274 275
4 276 277 278 279
4 280 281 282 283
4 284 285 286 287
4 288 289 290 291
4 292 293 294 295
4 296 297 298 299
4 300 301 302 303
4 304 305 306 307
4 308 309 310 311
4 312 313 314 315
4 316 317 318 319
4 320 321 322 323
4 324 325 326 327
4 328 329 330 331
4 332 333 334 335
4 336 337 338 339
4 340 341 342 343
4 344 345 346 347
4 348 349 350 351
4 352 353 354 355
4 356 357 358 359
4 360 361 362 363
4 364 365 366 367
4 368 369 370 371
4 372 373 374 375
4 376 377 378 379
4 380 381 382 383
4 384 385 386 387
4 388 389 390 391
4 392 393 394 395
4 396 397 398 399
4 400 401 402 403
4 404 405 406 407
4 408 409 410 411
4 412 413 414 415
4 416 417 418 419
4 420 421 422 423
4 424 425 426 427
4 428 429 430 431
4 432 433 434 435
4 436 437 438 439
4 440 441 442 443
4 444 445 446 447
4 448 449 450 451
4 452 453 454 455
4 456 457 458 459
4 460 461 462 463
4 464 465 466 467
4 468 469 470 471
4 472 473 474 475
4 476 477 478 479
4 480 481 482 483
4 484 485 486 487
4 488 489 490 491
4 492 493 494 495
4 496 497 498 499
4 500 501 502 503
4 504 505 506 507
4 508 509 510 511
4 512 513 514 515
4 516 517 518 519
4 520 521 522 523
4 524 525 526 527
4 528 529 530 531
4 532 533 534 535
4 536 537 538 539
4 540 541 542 543
4 544 545 546 547
4 548 549 550 551
4 552 553 554 555
4 556 557 558 559
4 560 561 562 563
4 564 565 566 567
4 568 569 570 571
4 572 573 574 575
4 576 577 578 579
4 580 581 582 583
4 584 585 586 587
4 588 589 590 591
4 592 593 594 595
4 596 597 598 599
4 600 601 602 603
4 604 605 606 607
4 608 609 610 611
4 612 613 614 615
4 616 617 618 619
3 620 621 622
3 623 624 625
3 626 627 628
3 629 630 631
3 632 633 634
3 635 636 637
3 638 639 640
3 641 642 643
3 644 645 646
3 647 648 649
3 650 651 652
3 653 654 655
3 656 657 658
3 659 660 661
3 662 663 664
3 665 666 667
3 668 669 670
3 671 672 673
3 674 675 676
3 677 678 679
3 680 681 682
3 683 684 685
3 686 687 688
3 689 690 691
3 692 693 694
3 695 696 697
3 698 699 700
3 701 702 703
3 704 705 706
3 707 708 709
