ply
format ascii 1.0
element vertex 1010
property float x
property float y
property float z
property float nx
property float ny
property float nz
element quads 225
property list uchar int vertex_indices
element triads 38
property list uchar int vertex_indices
end_header
337 384 0 1 0 0
337 324 0 1 0 0
337 324 100 1 0 0
337 384 100 1 0 0
327 384 0 -1 -0 0
327 314 0 -1 -0 0
327 314 100 -1 -0 0
327 384 100 -1 -0 0
337 324 0 -0 1 0
462 324 0 -0 1 0
462 324 100 -0 1 0
337 324 100 -0 1 0
327 314 0 0 -1 0
457 314 0 0 -1 0
457 314 100 0 -1 0
327 314 100 0 -1 0
690 389 0 -0 1 0
740 389 0 -0 1 0
740 389 100 -0 1 0
690 389 100 -0 1 0
690 379 0 0 -1 0
730 379 0 0 -1 0
730 379 100 0 -1 0
690 379 100 0 -1 0
740 389 0 1 0 0
740 324 0 1 0 0
740 324 100 1 0 0
740 389 100 1 0 0
730 379 0 -1 -0 0
730 314 0 -1 -0 0
730 314 100 -1 -0 0
730 379 100 -1 -0 0
51 34 0 -0 1 0
80 34 0 -0 1 0
80 34 100 -0 1 0
51 34 100 -0 1 0
41 24 0 0 -1 0
80 24 0 0 -1 0
80 24 100 0 -1 0
41 24 100 0 -1 0
41 24 0 -1 0 0
41 156 0 -1 0 0
41 156 100 -1 0 0
41 24 100 -1 0 0
51 34 0 1 -0 0
51 151 0 1 -0 0
51 151 100 1 -0 0
51 34 100 1 -0 0
548 389 0 -0 1 0
588 389 0 -0 1 0
588 389 100 -0 1 0
548 389 100 -0 1 0
558 379 0 0 -1 0
588 379 0 0 -1 0
588 379 100 0 -1 0
558 379 100 0 -1 0
558 379 0 1 0 0
558 319 0 1 0 0
558 319 100 1 0 0
558 379 100 1 0 0
548 389 0 -1 -0 0
548 324 0 -1 -0 0
548 324 100 -1 -0 0
548 389 100 -1 -0 0
740 324 0 -0 1 0
782 324 0 -0 1 0
782 324 100 -0 1 0
740 324 100 -0 1 0
730 314 0 0 -1 0
772 314 0 0 -1 0
772 314 100 0 -1 0
730 314 100 0 -1 0
782 324 0 1 0 0
782 201 0 1 0 0
782 201 100 1 0 0
782 324 100 1 0 0
772 314 0 -1 -0 0
772 206 0 -1 -0 0
772 206 100 -1 -0 0
772 314 100 -1 -0 0
232 221 0 -1 0 0
232 319 0 -1 0 0
232 319 100 -1 0 0
232 221 100 -1 0 0
242 231 0 1 -0 0
242 319 0 1 -0 0
242 319 100 1 -0 0
242 231 100 1 -0 0
242 231 0 -0 1 0
311 231 0 -0 1 0
311 231 100 -0 1 0
242 231 100 -0 1 0
232 221 0 0 -1 0
316 221 0 0 -1 0
316 221 100 0 -1 0
232 221 100 0 -1 0
712 34 0 -0 1 0
772 34 0 -0 1 0
772 34 100 -0 1 0
712 34 100 -0 1 0
712 24 0 0 -1 0
782 24 0 0 -1 0
782 24 100 0 -1 0
712 24 100 0 -1 0
772 34 0 -1 0 0
772 196 0 -1 0 0
772 196 100 -1 0 0
772 34 100 -1 0 0
782 24 0 1 -0 0
782 201 0 1 -0 0
782 201 100 1 -0 0
782 24 100 1 -0 0
190 500 0 -0 1 0
242 500 0 -0 1 0
242 500 100 -0 1 0
190 500 100 -0 1 0
190 490 0 0 -1 0
232 490 0 0 -1 0
232 490 100 0 -1 0
190 490 100 0 -1 0
242 500 0 1 0 0
242 384 0 1 0 0
242 384 100 1 0 0
242 500 100 1 0 0
232 490 0 -1 -0 0
232 384 0 -1 -0 0
232 384 100 -1 -0 0
232 490 100 -1 -0 0
548 231 0 -1 0 0
548 314 0 -1 0 0
548 314 100 -1 0 0
548 231 100 -1 0 0
558 221 0 1 -0 0
558 319 0 1 -0 0
558 319 100 1 -0 0
558 221 100 1 -0 0
558 221 0 -0 -1 0
499 221 0 -0 -1 0
499 221 100 -0 -1 0
558 221 100 -0 -1 0
548 231 0 0 1 0
504 231 0 0 1 0
504 231 100 0 1 0
548 231 100 0 1 0
548 314 0 -0 -1 0
504 314 0 -0 -1 0
504 314 100 -0 -1 0
548 314 100 -0 -1 0
548 324 0 0 1 0
499 324 0 0 1 0
499 324 100 0 1 0
548 324 100 0 1 0
41 500 0 -0 1 0
92 500 0 -0 1 0
92 500 100 -0 1 0
41 500 100 -0 1 0
51 490 0 0 -1 0
92 490 0 0 -1 0
92 490 100 0 -1 0
51 490 100 0 -1 0
51 490 0 1 0 0
51 258 0 1 0 0
51 258 100 1 0 0
51 490 100 1 0 0
41 500 0 -1 -0 0
41 253 0 -1 -0 0
41 253 100 -1 -0 0
41 500 100 -1 -0 0
548 166 0 -0 -1 0
432 166 0 -0 -1 0
432 166 100 -0 -1 0
548 166 100 -0 -1 0
558 176 0 0 1 0
427 176 0 0 1 0
427 176 100 0 1 0
558 176 100 0 1 0
558 176 0 1 0 0
558 156 0 1 0 0
558 156 100 1 0 0
558 176 100 1 0 0
548 166 0 -1 -0 0
548 151 0 -1 -0 0
548 151 100 -1 -0 0
548 166 100 -1 -0 0
422 166 0 -0 -1 0
332 166 0 -0 -1 0
332 166 100 -0 -1 0
422 166 100 -0 -1 0
427 176 0 0 1 0
327 176 0 0 1 0
327 176 100 0 1 0
427 176 100 0 1 0
432 166 0 1 0 0
432 34 0 1 0 0
432 34 100 1 0 0
432 166 100 1 0 0
422 166 0 -1 -0 0
422 34 0 -1 -0 0
422 34 100 -1 -0 0
422 166 100 -1 -0 0
180 34 0 -0 1 0
210 34 0 -0 1 0
210 34 100 -0 1 0
180 34 100 -0 1 0
180 24 0 0 -1 0
215 24 0 0 -1 0
215 24 100 0 -1 0
180 24 100 0 -1 0
220 34 0 -0 1 0
237 34 0 -0 1 0
237 34 100 -0 1 0
220 34 100 -0 1 0
215 24 0 0 -1 0
237 24 0 0 -1 0
237 24 100 0 -1 0
215 24 100 0 -1 0
210 34 0 -1 0 0
210 146 0 -1 0 0
210 146 100 -1 0 0
210 34 100 -1 0 0
220 34 0 1 -0 0
220 146 0 1 -0 0
220 146 100 1 -0 0
220 34 100 1 -0 0
588 206 0 -0 1 0
772 206 0 -0 1 0
772 206 100 -0 1 0
588 206 100 -0 1 0
588 196 0 0 -1 0
772 196 0 0 -1 0
772 196 100 0 -1 0
588 196 100 0 -1 0
321 270 0 1 0 0
321 231 0 1 0 0
321 231 100 1 0 0
321 270 100 1 0 0
311 270 0 -1 -0 0
311 231 0 -1 -0 0
311 231 100 -1 -0 0
311 270 100 -1 -0 0
321 231 0 -0 1 0
452 231 0 -0 1 0
452 231 100 -0 1 0
321 231 100 -0 1 0
316 221 0 0 -1 0
457 221 0 0 -1 0
457 221 100 0 -1 0
316 221 100 0 -1 0
593 56 0 1 0 0
593 24 0 1 0 0
593 24 100 1 0 0
593 56 100 1 0 0
583 56 0 -1 -0 0
583 24 0 -1 -0 0
583 24 100 -1 -0 0
583 56 100 -1 -0 0
588 34 0 -0 1 0
613 34 0 -0 1 0
613 34 100 -0 1 0
588 34 100 -0 1 0
583 24 0 0 -1 0
613 24 0 0 -1 0
613 24 100 0 -1 0
583 24 100 0 -1 0
593 24 0 -0 -1 0
553 24 0 -0 -1 0
553 24 100 -0 -1 0
593 24 100 -0 -1 0
588 34 0 0 1 0
558 34 0 0 1 0
558 34 100 0 1 0
588 34 100 0 1 0
548 34 0 -1 0 0
548 151 0 -1 0 0
548 151 100 -1 0 0
548 34 100 -1 0 0
558 34 0 1 -0 0
558 156 0 1 -0 0
558 156 100 1 -0 0
558 34 100 1 -0 0
553 24 0 -0 -1 0
427 24 0 -0 -1 0
427 24 100 -0 -1 0
553 24 100 -0 -1 0
548 34 0 0 1 0
432 34 0 0 1 0
432 34 100 0 1 0
548 34 100 0 1 0
41 146 0 -1 0 0
41 253 0 -1 0 0
41 253 100 -1 0 0
41 146 100 -1 0 0
51 151 0 1 -0 0
51 248 0 1 -0 0
51 248 100 1 -0 0
51 151 100 1 -0 0
41 156 0 -0 1 0
148 156 0 -0 1 0
148 156 100 -0 1 0
41 156 100 -0 1 0
41 146 0 0 -1 0
153 146 0 0 -1 0
153 146 100 0 -1 0
41 146 100 0 -1 0
509 324 0 1 0 0
509 221 0 1 0 0
509 221 100 1 0 0
509 324 100 1 0 0
499 324 0 -1 -0 0
499 221 0 -1 -0 0
499 221 100 -1 -0 0
499 324 100 -1 -0 0
504 314 0 -0 -1 0
457 314 0 -0 -1 0
457 314 100 -0 -1 0
504 314 100 -0 -1 0
509 324 0 0 1 0
452 324 0 0 1 0
452 324 100 0 1 0
509 324 100 0 1 0
462 231 0 -0 1 0
504 231 0 -0 1 0
504 231 100 -0 1 0
462 231 100 -0 1 0
457 221 0 0 -1 0
509 221 0 0 -1 0
509 221 100 0 -1 0
457 221 100 0 -1 0
452 231 0 -1 0 0
452 324 0 -1 0 0
452 324 100 -1 0 0
452 231 100 -1 0 0
462 231 0 1 -0 0
462 324 0 1 -0 0
462 324 100 1 -0 0
462 231 100 1 -0 0
124 248 0 -0 -1 0
51 248 0 -0 -1 0
51 248 100 -0 -1 0
124 248 100 -0 -1 0
124 258 0 0 1 0
51 258 0 0 1 0
51 258 100 0 1 0
124 258 100 0 1 0
158 226 0 1 0 0
158 156 0 1 0 0
158 156 100 1 0 0
158 226 100 1 0 0
148 226 0 -1 -0 0
148 156 0 -1 -0 0
148 156 100 -1 -0 0
148 226 100 -1 -0 0
158 156 0 -0 1 0
215 156 0 -0 1 0
215 156 100 -0 1 0
158 156 100 -0 1 0
153 146 0 0 -1 0
210 146 0 0 -1 0
210 146 100 0 -1 0
153 146 100 0 -1 0
504 156 0 -0 1 0
558 156 0 -0 1 0
558 156 100 -0 1 0
504 156 100 -0 1 0
504 146 0 0 -1 0
553 146 0 0 -1 0
553 146 100 0 -1 0
504 146 100 0 -1 0
558 156 0 -0 1 0
588 156 0 -0 1 0
588 156 100 -0 1 0
558 156 100 -0 1 0
553 146 0 0 -1 0
588 146 0 0 -1 0
588 146 100 0 -1 0
553 146 100 0 -1 0
327 24 0 -1 0 0
327 176 0 -1 0 0
327 176 100 -1 0 0
327 24 100 -1 0 0
337 34 0 1 -0 0
337 176 0 1 -0 0
337 176 100 1 -0 0
337 34 100 1 -0 0
337 34 0 -0 1 0
422 34 0 -0 1 0
422 34 100 -0 1 0
337 34 100 -0 1 0
327 24 0 0 -1 0
427 24 0 0 -1 0
427 24 100 0 -1 0
327 24 100 0 -1 0
332 166 0 -0 -1 0
301 166 0 -0 -1 0
301 166 100 -0 -1 0
332 166 100 -0 -1 0
337 176 0 0 1 0
301 176 0 0 1 0
301 176 100 0 1 0
337 176 100 0 1 0
215 156 0 -0 1 0
237 156 0 -0 1 0
237 156 100 -0 1 0
215 156 100 -0 1 0
220 146 0 0 -1 0
237 146 0 0 -1 0
237 146 100 0 -1 0
220 146 100 0 -1 0
337 384 0 331.383331298828125 378.600006103515625 0
327 384 0 331.383331298828125 378.600006103515625 0
327 384 100 331.383331298828125 378.600006103515625 0
337 384 100 331.383331298828125 378.600006103515625 0
690 389 0 675.20001220703125 381.220001220703125 0
690 379 0 675.20001220703125 381.220001220703125 0
690 379 100 675.20001220703125 381.220001220703125 0
690 389 100 675.20001220703125 381.220001220703125 0
80 34 0 78.2413787841796875 32.8275871276855469 0
80 24 0 78.2413787841796875 32.8275871276855469 0
80 24 100 78.2413787841796875 32.8275871276855469 0
80 34 100 78.2413787841796875 32.8275871276855469 0
588 389 0 574.29998779296875 379.274993896484375 0
588 379 0 574.29998779296875 379.274993896484375 0
588 379 100 574.29998779296875 379.274993896484375 0
588 389 100 574.29998779296875 379.274993896484375 0
232 319 0 229.632659912109375 316.744903564453125 0
242 319 0 229.632659912109375 316.744903564453125 0
242 319 100 229.632659912109375 316.744903564453125 0
232 319 100 229.632659912109375 316.744903564453125 0
712 34 0 699.13336181640625 33.4333343505859375 0
712 24 0 699.13336181640625 33.4333343505859375 0
712 24 100 699.13336181640625 33.4333343505859375 0
712 34 100 699.13336181640625 33.4333343505859375 0
190 500 0 185.346160888671875 490.384613037109375 0
190 490 0 185.346160888671875 490.384613037109375 0
190 490 100 185.346160888671875 490.384613037109375 0
190 500 100 185.346160888671875 490.384613037109375 0
92 500 0 91.196075439453125 490.196075439453125 0
92 490 0 91.196075439453125 490.196075439453125 0
92 490 100 91.196075439453125 490.196075439453125 0
92 500 100 91.196075439453125 490.196075439453125 0
242 384 0 239.913787841796875 379.689666748046875 0
232 384 0 239.913787841796875 379.689666748046875 0
232 384 100 239.913787841796875 379.689666748046875 0
242 384 100 239.913787841796875 379.689666748046875 0
180 34 0 173 32.8666648864746094 0
180 24 0 173 32.8666648864746094 0
180 24 100 173 32.8666648864746094 0
180 34 100 173 32.8666648864746094 0
237 34 0 224.058822631835938 32 0
237 24 0 224.058822631835938 32 0
237 24 100 224.058822631835938 32 0
237 34 100 224.058822631835938 32 0
588 206 0 583.8043212890625 204.88043212890625 0
588 196 0 583.8043212890625 204.88043212890625 0
588 196 100 583.8043212890625 204.88043212890625 0
588 206 100 583.8043212890625 204.88043212890625 0
321 270 0 312.76922607421875 264.076934814453125 0
311 270 0 312.76922607421875 264.076934814453125 0
311 270 100 312.76922607421875 264.076934814453125 0
321 270 100 312.76922607421875 264.076934814453125 0
593 56 0 574.46875 55.25 0
583 56 0 574.46875 55.25 0
583 56 100 574.46875 55.25 0
593 56 100 574.46875 55.25 0
613 34 0 589.47998046875 32.6399993896484375 0
613 24 0 589.47998046875 32.6399993896484375 0
613 24 100 589.47998046875 32.6399993896484375 0
613 34 100 589.47998046875 32.6399993896484375 0
124 248 0 123.301368713378906 244.602737426757812 0
124 258 0 123.301368713378906 244.602737426757812 0
124 258 100 123.301368713378906 244.602737426757812 0
124 248 100 123.301368713378906 244.602737426757812 0
158 226 0 155.74285888671875 223.77142333984375 0
148 226 0 155.74285888671875 223.77142333984375 0
148 226 100 155.74285888671875 223.77142333984375 0
158 226 100 155.74285888671875 223.77142333984375 0
504 156 0 493.666656494140625 153.111114501953125 0
504 146 0 493.666656494140625 153.111114501953125 0
504 146 100 493.666656494140625 153.111114501953125 0
504 156 100 493.666656494140625 153.111114501953125 0
588 156 0 569.4000244140625 150.800003051757812 0
588 146 0 569.4000244140625 150.800003051757812 0
588 146 100 569.4000244140625 150.800003051757812 0
588 156 100 569.4000244140625 150.800003051757812 0
301 166 0 290.290313720703125 160.645156860351562 0
301 176 0 290.290313720703125 160.645156860351562 0
301 176 100 290.290313720703125 160.645156860351562 0
301 166 100 290.290313720703125 160.645156860351562 0
237 156 0 227.227279663085938 148.909088134765625 0
237 146 0 227.227279663085938 148.909088134765625 0
237 146 100 227.227279663085938 148.909088134765625 0
237 156 100 227.227279663085938 148.909088134765625 0
337 384 0 0 0 -1
327 384 0 0 0 -1
327 314 0 0 0 -1
337 324 0 0 0 -1
337 384 100 0 0 1
327 384 100 0 0 1
327 314 100 0 0 1
337 324 100 0 0 1
337 324 0 0 0 -1
327 314 0 0 0 -1
457 314 0 0 0 -1
462 324 0 0 0 -1
337 324 100 0 0 1
327 314 100 0 0 1
457 314 100 0 0 1
462 324 100 0 0 1
690 389 0 0 0 -1
690 379 0 0 0 -1
730 379 0 0 0 -1
740 389 0 0 0 -1
690 389 100 0 0 1
690 379 100 0 0 1
730 379 100 0 0 1
740 389 100 0 0 1
740 389 0 0 0 -1
730 379 0 0 0 -1
730 314 0 0 0 -1
740 324 0 0 0 -1
740 389 100 0 0 1
730 379 100 0 0 1
730 314 100 0 0 1
740 324 100 0 0 1
51 34 0 0 0 -1
41 24 0 0 0 -1
80 24 0 0 0 -1
80 34 0 0 0 -1
51 34 100 0 0 1
41 24 100 0 0 1
80 24 100 0 0 1
80 34 100 0 0 1
41 24 0 0 0 -1
51 34 0 0 0 -1
51 151 0 0 0 -1
41 156 0 0 0 -1
41 24 100 0 0 1
51 34 100 0 0 1
51 151 100 0 0 1
41 156 100 0 0 1
548 389 0 0 0 -1
558 379 0 0 0 -1
588 379 0 0 0 -1
588 389 0 0 0 -1
548 389 100 0 0 1
558 379 100 0 0 1
588 379 100 0 0 1
588 389 100 0 0 1
558 379 0 0 0 -1
548 389 0 0 0 -1
548 324 0 0 0 -1
558 319 0 0 0 -1
558 379 100 0 0 1
548 389 100 0 0 1
548 324 100 0 0 1
558 319 100 0 0 1
740 324 0 0 0 -1
730 314 0 0 0 -1
772 314 0 0 0 -1
782 324 0 0 0 -1
740 324 100 0 0 1
730 314 100 0 0 1
772 314 100 0 0 1
782 324 100 0 0 1
782 324 0 0 0 -1
772 314 0 0 0 -1
772 206 0 0 0 -1
782 201 0 0 0 -1
782 324 100 0 0 1
772 314 100 0 0 1
772 206 100 0 0 1
782 201 100 0 0 1
232 221 0 0 0 -1
242 231 0 0 0 -1
242 319 0 0 0 -1
232 319 0 0 0 -1
232 221 100 0 0 1
242 231 100 0 0 1
242 319 100 0 0 1
232 319 100 0 0 1
242 231 0 0 0 -1
232 221 0 0 0 -1
316 221 0 0 0 -1
311 231 0 0 0 -1
242 231 100 0 0 1
232 221 100 0 0 1
316 221 100 0 0 1
311 231 100 0 0 1
712 34 0 0 0 -1
712 24 0 0 0 -1
782 24 0 0 0 -1
772 34 0 0 0 -1
712 34 100 0 0 1
712 24 100 0 0 1
782 24 100 0 0 1
772 34 100 0 0 1
772 34 0 0 0 -1
782 24 0 0 0 -1
782 201 0 0 0 -1
772 196 0 0 0 -1
772 34 100 0 0 1
782 24 100 0 0 1
782 201 100 0 0 1
772 196 100 0 0 1
190 500 0 0 0 -1
190 490 0 0 0 -1
232 490 0 0 0 -1
242 500 0 0 0 -1
190 500 100 0 0 1
190 490 100 0 0 1
232 490 100 0 0 1
242 500 100 0 0 1
242 500 0 0 0 -1
232 490 0 0 0 -1
232 384 0 0 0 -1
242 384 0 0 0 -1
242 500 100 0 0 1
232 490 100 0 0 1
232 384 100 0 0 1
242 384 100 0 0 1
548 231 0 0 0 -1
558 221 0 0 0 -1
558 319 0 0 0 -1
548 314 0 0 0 -1
548 231 100 0 0 1
558 221 100 0 0 1
558 319 100 0 0 1
548 314 100 0 0 1
558 221 0 0 0 -1
548 231 0 0 0 -1
504 231 0 0 0 -1
499 221 0 0 0 -1
558 221 100 0 0 1
548 231 100 0 0 1
504 231 100 0 0 1
499 221 100 0 0 1
548 314 0 0 0 -1
548 324 0 0 0 -1
499 324 0 0 0 -1
504 314 0 0 0 -1
548 314 100 0 0 1
548 324 100 0 0 1
499 324 100 0 0 1
504 314 100 0 0 1
41 500 0 0 0 -1
51 490 0 0 0 -1
92 490 0 0 0 -1
92 500 0 0 0 -1
41 500 100 0 0 1
51 490 100 0 0 1
92 490 100 0 0 1
92 500 100 0 0 1
51 490 0 0 0 -1
41 500 0 0 0 -1
41 253 0 0 0 -1
51 258 0 0 0 -1
51 490 100 0 0 1
41 500 100 0 0 1
41 253 100 0 0 1
51 258 100 0 0 1
548 166 0 0 0 -1
558 176 0 0 0 -1
427 176 0 0 0 -1
432 166 0 0 0 -1
548 166 100 0 0 1
558 176 100 0 0 1
427 176 100 0 0 1
432 166 100 0 0 1
558 176 0 0 0 -1
548 166 0 0 0 -1
548 151 0 0 0 -1
558 156 0 0 0 -1
558 176 100 0 0 1
548 166 100 0 0 1
548 151 100 0 0 1
558 156 100 0 0 1
422 166 0 0 0 -1
427 176 0 0 0 -1
327 176 0 0 0 -1
332 166 0 0 0 -1
422 166 100 0 0 1
427 176 100 0 0 1
327 176 100 0 0 1
332 166 100 0 0 1
432 166 0 0 0 -1
422 166 0 0 0 -1
422 34 0 0 0 -1
432 34 0 0 0 -1
432 166 100 0 0 1
422 166 100 0 0 1
422 34 100 0 0 1
432 34 100 0 0 1
180 34 0 0 0 -1
180 24 0 0 0 -1
215 24 0 0 0 -1
210 34 0 0 0 -1
180 34 100 0 0 1
180 24 100 0 0 1
215 24 100 0 0 1
210 34 100 0 0 1
220 34 0 0 0 -1
215 24 0 0 0 -1
237 24 0 0 0 -1
237 34 0 0 0 -1
220 34 100 0 0 1
215 24 100 0 0 1
237 24 100 0 0 1
237 34 100 0 0 1
210 34 0 0 0 -1
220 34 0 0 0 -1
220 146 0 0 0 -1
210 146 0 0 0 -1
210 34 100 0 0 1
220 34 100 0 0 1
220 146 100 0 0 1
210 146 100 0 0 1
588 206 0 0 0 -1
588 196 0 0 0 -1
772 196 0 0 0 -1
772 206 0 0 0 -1
588 206 100 0 0 1
588 196 100 0 0 1
772 196 100 0 0 1
772 206 100 0 0 1
321 270 0 0 0 -1
311 270 0 0 0 -1
311 231 0 0 0 -1
321 231 0 0 0 -1
321 270 100 0 0 1
311 270 100 0 0 1
311 231 100 0 0 1
321 231 100 0 0 1
321 231 0 0 0 -1
316 221 0 0 0 -1
457 221 0 0 0 -1
452 231 0 0 0 -1
321 231 100 0 0 1
316 221 100 0 0 1
457 221 100 0 0 1
452 231 100 0 0 1
593 56 0 0 0 -1
583 56 0 0 0 -1
583 24 0 0 0 -1
593 24 0 0 0 -1
593 56 100 0 0 1
583 56 100 0 0 1
583 24 100 0 0 1
593 24 100 0 0 1
588 34 0 0 0 -1
583 24 0 0 0 -1
613 24 0 0 0 -1
613 34 0 0 0 -1
588 34 100 0 0 1
583 24 100 0 0 1
613 24 100 0 0 1
613 34 100 0 0 1
593 24 0 0 0 -1
588 34 0 0 0 -1
558 34 0 0 0 -1
553 24 0 0 0 -1
593 24 100 0 0 1
588 34 100 0 0 1
558 34 100 0 0 1
553 24 100 0 0 1
548 34 0 0 0 -1
558 34 0 0 0 -1
558 156 0 0 0 -1
548 151 0 0 0 -1
548 34 100 0 0 1
558 34 100 0 0 1
558 156 100 0 0 1
548 151 100 0 0 1
553 24 0 0 0 -1
548 34 0 0 0 -1
432 34 0 0 0 -1
427 24 0 0 0 -1
553 24 100 0 0 1
548 34 100 0 0 1
432 34 100 0 0 1
427 24 100 0 0 1
41 146 0 0 0 -1
51 151 0 0 0 -1
51 248 0 0 0 -1
41 253 0 0 0 -1
41 146 100 0 0 1
51 151 100 0 0 1
51 248 100 0 0 1
41 253 100 0 0 1
41 156 0 0 0 -1
41 146 0 0 0 -1
153 146 0 0 0 -1
148 156 0 0 0 -1
41 156 100 0 0 1
41 146 100 0 0 1
153 146 100 0 0 1
148 156 100 0 0 1
509 324 0 0 0 -1
499 324 0 0 0 -1
499 221 0 0 0 -1
509 221 0 0 0 -1
509 324 100 0 0 1
499 324 100 0 0 1
499 221 100 0 0 1
509 221 100 0 0 1
504 314 0 0 0 -1
509 324 0 0 0 -1
452 324 0 0 0 -1
457 314 0 0 0 -1
504 314 100 0 0 1
509 324 100 0 0 1
452 324 100 0 0 1
457 314 100 0 0 1
462 231 0 0 0 -1
457 221 0 0 0 -1
509 221 0 0 0 -1
504 231 0 0 0 -1
462 231 100 0 0 1
457 221 100 0 0 1
509 221 100 0 0 1
504 231 100 0 0 1
452 231 0 0 0 -1
462 231 0 0 0 -1
462 324 0 0 0 -1
452 324 0 0 0 -1
452 231 100 0 0 1
462 231 100 0 0 1
462 324 100 0 0 1
452 324 100 0 0 1
124 248 0 0 0 -1
124 258 0 0 0 -1
51 258 0 0 0 -1
51 248 0 0 0 -1
124 248 100 0 0 1
124 258 100 0 0 1
51 258 100 0 0 1
51 248 100 0 0 1
158 226 0 0 0 -1
148 226 0 0 0 -1
148 156 0 0 0 -1
158 156 0 0 0 -1
158 226 100 0 0 1
148 226 100 0 0 1
148 156 100 0 0 1
158 156 100 0 0 1
158 156 0 0 0 -1
153 146 0 0 0 -1
210 146 0 0 0 -1
215 156 0 0 0 -1
158 156 100 0 0 1
153 146 100 0 0 1
210 146 100 0 0 1
215 156 100 0 0 1
504 156 0 0 0 -1
504 146 0 0 0 -1
553 146 0 0 0 -1
558 156 0 0 0 -1
504 156 100 0 0 1
504 146 100 0 0 1
553 146 100 0 0 1
558 156 100 0 0 1
558 156 0 0 0 -1
553 146 0 0 0 -1
588 146 0 0 0 -1
588 156 0 0 0 -1
558 156 100 0 0 1
553 146 100 0 0 1
588 146 100 0 0 1
588 156 100 0 0 1
327 24 0 0 0 -1
337 34 0 0 0 -1
337 176 0 0 0 -1
327 176 0 0 0 -1
327 24 100 0 0 1
337 34 100 0 0 1
337 176 100 0 0 1
327 176 100 0 0 1
337 34 0 0 0 -1
327 24 0 0 0 -1
427 24 0 0 0 -1
422 34 0 0 0 -1
337 34 100 0 0 1
327 24 100 0 0 1
427 24 100 0 0 1
422 34 100 0 0 1
332 166 0 0 0 -1
337 176 0 0 0 -1
301 176 0 0 0 -1
301 166 0 0 0 -1
332 166 100 0 0 1
337 176 100 0 0 1
301 176 100 0 0 1
301 166 100 0 0 1
215 156 0 0 0 -1
220 146 0 0 0 -1
237 146 0 0 0 -1
237 156 0 0 0 -1
215 156 100 0 0 1
220 146 100 0 0 1
237 146 100 0 0 1
237 156 100 0 0 1
558 319 0 0 0 -1
548 324 0 0 0 -1
548 314 0 0 0 -1
558 319 100 0 0 1
548 324 100 0 0 1
548 314 100 0 0 1
427 176 0 0 0 -1
422 166 0 0 0 -1
432 166 0 0 0 -1
427 176 100 0 0 1
422 166 100 0 0 1
432 166 100 0 0 1
215 24 0 0 0 -1
220 34 0 0 0 -1
210 34 0 0 0 -1
215 24 100 0 0 1
220 34 100 0 0 1
210 34 100 0 0 1
772 196 0 0 0 -1
782 201 0 0 0 -1
772 206 0 0 0 -1
772 196 100 0 0 1
782 201 100 0 0 1
772 206 100 0 0 1
311 231 0 0 0 -1
316 221 0 0 0 -1
321 231 0 0 0 -1
311 231 100 0 0 1
316 221 100 0 0 1
321 231 100 0 0 1
583 24 0 0 0 -1
588 34 0 0 0 -1
593 24 0 0 0 -1
583 24 100 0 0 1
588 34 100 0 0 1
593 24 100 0 0 1
558 34 0 0 0 -1
548 34 0 0 0 -1
553 24 0 0 0 -1
558 34 100 0 0 1
548 34 100 0 0 1
553 24 100 0 0 1
51 151 0 0 0 -1
41 146 0 0 0 -1
41 156 0 0 0 -1
51 151 100 0 0 1
41 146 100 0 0 1
41 156 100 0 0 1
499 324 0 0 0 -1
509 324 0 0 0 -1
504 314 0 0 0 -1
499 324 100 0 0 1
509 324 100 0 0 1
504 314 100 0 0 1
457 221 0 0 0 -1
462 231 0 0 0 -1
452 231 0 0 0 -1
457 221 100 0 0 1
462 231 100 0 0 1
452 231 100 0 0 1
51 258 0 0 0 -1
41 253 0 0 0 -1
51 248 0 0 0 -1
51 258 100 0 0 1
41 253 100 0 0 1
51 248 100 0 0 1
148 156 0 0 0 -1
153 146 0 0 0 -1
158 156 0 0 0 -1
148 156 100 0 0 1
153 146 100 0 0 1
158 156 100 0 0 1
553 146 0 0 0 -1
558 156 0 0 0 -1
548 151 0 0 0 -1
558 156 0 0 0 -1
553 146 100 0 0 1
558 156 100 0 0 1
548 151 100 0 0 1
558 156 100 0 0 1
337 176 0 0 0 -1
332 166 0 0 0 -1
327 176 0 0 0 -1
337 176 100 0 0 1
332 166 100 0 0 1
327 176 100 0 0 1
427 24 0 0 0 -1
432 34 0 0 0 -1
422 34 0 0 0 -1
427 24 100 0 0 1
432 34 100 0 0 1
422 34 100 0 0 1
220 146 0 0 0 -1
215 156 0 0 0 -1
210 146 0 0 0 -1
220 146 100 0 0 1
215 156 100 0 0 1
210 146 100 0 0 1
499 221 0 0 0 -1
504 231 0 0 0 -1
509 221 0 0 0 -1
499 221 100 0 0 1
504 231 100 0 0 1
509 221 100 0 0 1
457 314 0 0 0 -1
452 324 0 0 0 -1
462 324 0 0 0 -1
457 314 100 0 0 1
452 324 100 0 0 1
462 324 100 0 0 1
4 0 1 2 3
4 4 5 6 7
4 8 9 10 11
4 12 13 14 15
4 16 17 18 19
4 20 21 22 23
4 24 25 26 27
4 28 29 30 31
4 32 33 34 35
4 36 37 38 39
4 40 41 42 43
4 44 45 46 47
4 48 49 50 51
4 52 53 54 55
4 56 57 58 59
4 60 61 62 63
4 64 65 66 67
4 68 69 70 71
4 72 73 74 75
4 76 77 78 79
4 80 81 82 83
4 84 85 86 87
4 88 89 90 91
4 92 93 94 95
4 96 97 98 99
4 100 101 102 103
4 104 105 106 107
4 108 109 110 111
4 112 113 114 115
4 116 117 118 119
4 120 121 122 123
4 124 125 126 127
4 128 129 130 131
4 132 133 134 135
4 136 137 138 139
4 140 141 142 143
4 144 145 146 147
4 148 149 150 151
4 152 153 154 155
4 156 157 158 159
4 160 161 162 163
4 164 165 166 167
4 168 169 170 171
4 172 173 174 175
4 176 177 178 179
4 180 181 182 183
4 184 185 186 187
4 188 189 190 191
4 192 193 194 195
4 196 197 198 199
4 200 201 202 203
4 204 205 206 207
4 208 209 210 211
4 212 213 214 215
4 216 217 218 219
4 220 221 222 223
4 224 225 226 227
4 228 229 230 231
4 232 233 234 235
4 236 237 238 239
4 240 241 242 243
4 244 245 246 247
4 248 249 250 251
4 252 253 254 255
4 256 257 258 259
4 260 261 262 263
4 264 265 266 267
4 268 269 270 271
4 272 273 274 275
4 276 277 278 279
4 280 281 282 283
4 284 285 286 287
4 288 289 290 291
4 292 293 294 295
4 296 297 298 299
4 300 301 302 303
4 304 305 306 307
4 308 309 310 311
4 312 313 314 315
4 316 317 318 319
4 320 321 322 323
4 324 325 326 327
4 328 329 330 331
4 332 333 334 335
4 336 337 338 339
4 340 341 342 343
4 344 345 346 347
4 348 349 350 351
4 352 353 354 355
4 356 357 358 359
4 360 361 362 363
4 364 365 366 367
4 368 369 370 371
4 372 373 374 375
4 376 377 378 379
4 380 381 382 383
4 384 385 386 387
4 388 389 390 391
4 392 393 394 395
4 396 397 398 399
4 400 401 402 403
4 404 405 406 407
4 408 409 410 411
4 412 413 414 415
4 416 417 418 419
4 420 421 422 423
4 424 425 426 427
4 428 429 430 431
4 432 433 434 435
4 436 437 438 439
4 440 441 442 443
4 444 445 446 447
4 448 449 450 451
4 452 453 454 455
4 456 457 458 459
4 460 461 462 463
4 464 465 466 467
4 468 469 470 471
4 472 473 474 475
4 476 477 478 479
4 480 481 482 483
4 484 485 486 487
4 488 489 490 491
4 492 493 494 495
4 496 497 498 499
4 500 501 502 503
4 504 505 506 507
4 508 509 510 511
4 512 513 514 515
4 516 517 518 519
4 520 521 522 523
4 524 525 526 527
4 528 529 530 531
4 532 533 534 535
4 536 537 538 539
4 540 541 542 543
4 544 545 546 547
4 548 549 550 551
4 552 553 554 555
4 556 557 558 559
4 560 561 562 563
4 564 565 566 567
4 568 569 570 571
4 572 573 574 575
4 576 577 578 579
4 580 581 582 583
4 584 585 586 587
4 588 589 590 591
4 592 593 594 595
4 596 597 598 599
4 600 601 602 603
4 604 605 606 607
4 608 609 610 611
4 612 613 614 615
4 616 617 618 619
4 620 621 622 623
4 624 625 626 627
4 628 629 630 631
4 632 633 634 635
4 636 637 638 639
4 640 641 642 643
4 644 645 646 647
4 648 649 650 651
4 652 653 654 655
4 656 657 658 659
4 660 661 662 663
4 664 665 666 667
4 668 669 670 671
4 672 673 674 675
4 676 677 678 679
4 680 681 682 683
4 684 685 686 687
4 688 689 690 691
4 692 693 694 695
4 696 697 698 699
4 700 701 702 703
4 704 705 706 707
4 708 709 710 711
4 712 713 714 715
4 716 717 718 719
4 720 721 722 723
4 724 725 726 727
4 728 729 730 731
4 732 733 734 735
4 736 737 738 739
4 740 741 742 743
4 744 745 746 747
4 748 749 750 751
4 752 753 754 755
4 756 757 758 759
4 760 761 762 763
4 764 765 766 767
4 768 769 770 771
4 772 773 774 775
4 776 777 778 779
4 780 781 782 783
4 784 785 786 787
4 788 789 790 791
4 792 793 794 795
4 796 797 798 799
4 800 801 802 803
4 804 805 806 807
4 808 809 810 811
4 812 813 814 815
4 816 817 818 819
4 820 821 822 823
4 824 825 826 827
4 828 829 830 831
4 832 833 834 835
4 836 837 838 839
4 840 841 842 843
4 844 845 846 847
4 848 849 850 851
4 852 853 854 855
4 856 857 858 859
4 860 861 862 863
4 864 865 866 867
4 868 869 870 871
4 872 873 874 875
4 876 877 878 879
4 880 881 882 883
4 884 885 886 887
4 888 889 890 891
4 892 893 894 895
4 896 897 898 899
3 900 901 902
3 903 904 905
3 906 907 908
3 909 910 911
3 912 913 914
3 915 916 917
3 918 919 920
3 921 922 923
3 924 925 926
3 927 928 929
3 930 931 932
3 933 934 935
3 936 937 938
3 939 940 941
3 942 943 944
3 945 946 947
3 948 949 950
3 951 952 953
3 954 955 956
3 957 958 959
3 960 961 962
3 963 964 965
3 966 967 968
3 969 970 971
3 972 973 974
3 973 974 975
3 976 977 978
3 977 978 979
3 980 981 982
3 983 984 985
3 986 987 988
3 989 990 991
3 992 993 994
3 995 996 997
3 998 999 1000
3 1001 1002 1003
3 1004 1005 1006
3 1007 1008 1009
