ply
format ascii 1.0
element vertex 606
property float x
property float y
property float z
property float nx
property float ny
property float nz
element quads 141
property list uchar int vertex_indices
element triads 14
property list uchar int vertex_indices
end_header
328 439 0 1 0 0
328 376 0 1 0 0
328 376 100 1 0 0
328 439 100 1 0 0
318 439 0 -1 -0 0
318 376 0 -1 -0 0
318 376 100 -1 -0 0
318 439 100 -1 -0 0
562 231 0 1 0 0
562 102 0 1 0 0
562 102 100 1 0 0
562 231 100 1 0 0
552 241 0 -1 -0 0
552 112 0 -1 -0 0
552 112 100 -1 -0 0
552 241 100 -1 -0 0
552 241 0 -0 1 0
577 241 0 -0 1 0
577 241 100 -0 1 0
552 241 100 -0 1 0
562 231 0 0 -1 0
582 231 0 0 -1 0
582 231 100 0 -1 0
562 231 100 0 -1 0
562 102 0 -0 -1 0
385 102 0 -0 -1 0
385 102 100 -0 -1 0
562 102 100 -0 -1 0
552 112 0 0 1 0
385 112 0 0 1 0
385 112 100 0 1 0
552 112 100 0 1 0
231 112 0 -0 1 0
272 112 0 -0 1 0
272 112 100 -0 1 0
231 112 100 -0 1 0
231 102 0 0 -1 0
282 102 0 0 -1 0
282 102 100 0 -1 0
231 102 100 0 -1 0
272 112 0 -1 0 0
272 131 0 -1 0 0
272 131 100 -1 0 0
272 112 100 -1 0 0
282 102 0 1 -0 0
282 131 0 1 -0 0
282 131 100 1 -0 0
282 102 100 1 -0 0
72 221 0 1 0 0
72 167 0 1 0 0
72 167 100 1 0 0
72 221 100 1 0 0
62 221 0 -1 -0 0
62 167 0 -1 -0 0
62 167 100 -1 -0 0
62 221 100 -1 -0 0
364 372 0 1 0 0
364 331 0 1 0 0
364 331 100 1 0 0
364 372 100 1 0 0
354 372 0 -1 -0 0
354 331 0 -1 -0 0
354 331 100 -1 -0 0
354 372 100 -1 -0 0
199 430 0 -0 1 0
236 430 0 -0 1 0
236 430 100 -0 1 0
199 430 100 -0 1 0
199 420 0 0 -1 0
226 420 0 0 -1 0
226 420 100 0 -1 0
199 420 100 0 -1 0
236 430 0 1 0 0
236 375 0 1 0 0
236 375 100 1 0 0
236 430 100 1 0 0
226 420 0 -1 -0 0
226 375 0 -1 -0 0
226 375 100 -1 -0 0
226 420 100 -1 -0 0
328 318 0 1 0 0
328 293 0 1 0 0
328 293 100 1 0 0
328 318 100 1 0 0
318 318 0 -1 -0 0
318 293 0 -1 -0 0
318 293 100 -1 -0 0
318 318 100 -1 -0 0
160 373 0 1 0 0
160 324 0 1 0 0
160 324 100 1 0 0
160 373 100 1 0 0
150 373 0 -1 -0 0
150 324 0 -1 -0 0
150 324 100 -1 -0 0
150 373 100 -1 -0 0
438 530 0 -0 1 0
671 530 0 -0 1 0
671 530 100 -0 1 0
438 530 100 -0 1 0
448 520 0 0 -1 0
671 520 0 0 -1 0
671 520 100 0 -1 0
448 520 100 0 -1 0
448 520 0 1 0 0
448 434 0 1 0 0
448 434 100 1 0 0
448 520 100 1 0 0
438 530 0 -1 -0 0
438 439 0 -1 -0 0
438 439 100 -1 -0 0
438 530 100 -1 -0 0
88 112 0 -0 1 0
139 112 0 -0 1 0
139 112 100 -0 1 0
88 112 100 -0 1 0
88 102 0 0 -1 0
139 102 0 0 -1 0
139 102 100 0 -1 0
88 102 100 0 -1 0
277 288 0 -0 -1 0
83 288 0 -0 -1 0
83 288 100 -0 -1 0
277 288 100 -0 -1 0
277 298 0 0 1 0
83 298 0 0 1 0
83 298 100 0 1 0
277 298 100 0 1 0
93 293 0 1 0 0
93 221 0 1 0 0
93 221 100 1 0 0
93 293 100 1 0 0
83 298 0 -1 -0 0
83 221 0 -1 -0 0
83 221 100 -1 -0 0
83 298 100 -1 -0 0
83 288 0 -1 0 0
83 425 0 -1 0 0
83 425 100 -1 0 0
83 288 100 -1 0 0
93 293 0 1 -0 0
93 425 0 1 -0 0
93 425 100 1 -0 0
93 293 100 1 -0 0
666 288 0 -0 -1 0
582 288 0 -0 -1 0
582 288 100 -0 -1 0
666 288 100 -0 -1 0
676 298 0 0 1 0
577 298 0 0 1 0
577 298 100 0 1 0
676 298 100 0 1 0
676 298 0 1 0 0
676 236 0 1 0 0
676 236 100 1 0 0
676 298 100 1 0 0
666 288 0 -1 -0 0
666 241 0 -1 -0 0
666 241 100 -1 -0 0
666 288 100 -1 -0 0
587 298 0 1 0 0
587 241 0 1 0 0
587 241 100 1 0 0
587 298 100 1 0 0
577 298 0 -1 -0 0
577 241 0 -1 -0 0
577 241 100 -1 -0 0
577 298 100 -1 -0 0
582 288 0 -0 -1 0
448 288 0 -0 -1 0
448 288 100 -0 -1 0
582 288 100 -0 -1 0
587 298 0 0 1 0
448 298 0 0 1 0
448 298 100 0 1 0
587 298 100 0 1 0
402 444 0 -0 1 0
448 444 0 -0 1 0
448 444 100 -0 1 0
402 444 100 -0 1 0
402 434 0 0 -1 0
448 434 0 0 -1 0
448 434 100 0 -1 0
402 434 100 0 -1 0
448 444 0 1 0 0
448 298 0 1 0 0
448 298 100 1 0 0
448 444 100 1 0 0
438 439 0 -1 -0 0
438 293 0 -1 -0 0
438 293 100 -1 -0 0
438 439 100 -1 -0 0
277 265 0 -0 1 0
438 265 0 -0 1 0
438 265 100 -0 1 0
277 265 100 -0 1 0
277 255 0 0 -1 0
443 255 0 0 -1 0
443 255 100 0 -1 0
277 255 100 0 -1 0
448 265 0 -0 1 0
466 265 0 -0 1 0
466 265 100 -0 1 0
448 265 100 -0 1 0
443 255 0 0 -1 0
466 255 0 0 -1 0
466 255 100 0 -1 0
443 255 100 0 -1 0
438 265 0 -1 0 0
438 293 0 -1 0 0
438 293 100 -1 0 0
438 265 100 -1 0 0
448 265 0 1 -0 0
448 288 0 1 -0 0
448 288 100 1 -0 0
448 265 100 1 -0 0
666 176 0 -1 0 0
666 231 0 -1 0 0
666 231 100 -1 0 0
666 176 100 -1 0 0
676 176 0 1 -0 0
676 236 0 1 -0 0
676 236 100 1 -0 0
676 176 100 1 -0 0
666 231 0 -0 -1 0
582 231 0 -0 -1 0
582 231 100 -0 -1 0
666 231 100 -0 -1 0
666 241 0 0 1 0
587 241 0 0 1 0
587 241 100 0 1 0
666 241 100 0 1 0
328 439 0 322.79364013671875 433.03173828125 0
318 439 0 322.79364013671875 433.03173828125 0
318 439 100 322.79364013671875 433.03173828125 0
328 439 100 322.79364013671875 433.03173828125 0
328 376 0 322.79364013671875 369.03173828125 0
318 376 0 322.79364013671875 369.03173828125 0
318 376 100 322.79364013671875 369.03173828125 0
328 376 100 322.79364013671875 369.03173828125 0
385 102 0 381.824859619140625 101.423728942871094 0
385 112 0 381.824859619140625 101.423728942871094 0
385 112 100 381.824859619140625 101.423728942871094 0
385 102 100 381.824859619140625 101.423728942871094 0
231 112 0 224.365859985351562 109.268295288085938 0
231 102 0 224.365859985351562 109.268295288085938 0
231 102 100 224.365859985351562 109.268295288085938 0
231 112 100 224.365859985351562 109.268295288085938 0
72 221 0 70.6666641235351562 217.90740966796875 0
62 221 0 70.6666641235351562 217.90740966796875 0
62 221 100 70.6666641235351562 217.90740966796875 0
72 221 100 70.6666641235351562 217.90740966796875 0
72 167 0 70.6666641235351562 162.90740966796875 0
62 167 0 70.6666641235351562 162.90740966796875 0
62 167 100 70.6666641235351562 162.90740966796875 0
72 167 100 70.6666641235351562 162.90740966796875 0
364 372 0 355.1219482421875 363.92681884765625 0
354 372 0 355.1219482421875 363.92681884765625 0
354 372 100 355.1219482421875 363.92681884765625 0
364 372 100 355.1219482421875 363.92681884765625 0
364 331 0 355.1219482421875 321.92681884765625 0
354 331 0 355.1219482421875 321.92681884765625 0
354 331 100 355.1219482421875 321.92681884765625 0
364 331 100 355.1219482421875 321.92681884765625 0
272 131 0 257.6842041015625 125.105262756347656 0
282 131 0 257.6842041015625 125.105262756347656 0
282 131 100 257.6842041015625 125.105262756347656 0
272 131 100 257.6842041015625 125.105262756347656 0
199 430 0 192.621627807617188 418.378387451171875 0
199 420 0 192.621627807617188 418.378387451171875 0
199 420 100 192.621627807617188 418.378387451171875 0
199 430 100 192.621627807617188 418.378387451171875 0
328 318 0 314.8800048828125 306.279998779296875 0
318 318 0 314.8800048828125 306.279998779296875 0
318 318 100 314.8800048828125 306.279998779296875 0
328 318 100 314.8800048828125 306.279998779296875 0
328 293 0 314.8800048828125 280.279998779296875 0
318 293 0 314.8800048828125 280.279998779296875 0
318 293 100 314.8800048828125 280.279998779296875 0
328 293 100 314.8800048828125 280.279998779296875 0
160 373 0 156.734695434570312 366.38775634765625 0
150 373 0 156.734695434570312 366.38775634765625 0
150 373 100 156.734695434570312 366.38775634765625 0
160 373 100 156.734695434570312 366.38775634765625 0
160 324 0 156.734695434570312 316.38775634765625 0
150 324 0 156.734695434570312 316.38775634765625 0
150 324 100 156.734695434570312 316.38775634765625 0
160 324 100 156.734695434570312 316.38775634765625 0
671 530 0 669.12017822265625 527.725341796875 0
671 520 0 669.12017822265625 527.725341796875 0
671 520 100 669.12017822265625 527.725341796875 0
671 530 100 669.12017822265625 527.725341796875 0
236 375 0 231.709091186523438 367.18182373046875 0
226 375 0 231.709091186523438 367.18182373046875 0
226 375 100 231.709091186523438 367.18182373046875 0
236 375 100 231.709091186523438 367.18182373046875 0
88 112 0 85.2745132446289062 109.803924560546875 0
88 102 0 85.2745132446289062 109.803924560546875 0
88 102 100 85.2745132446289062 109.803924560546875 0
88 112 100 85.2745132446289062 109.803924560546875 0
139 112 0 137.274505615234375 109.803924560546875 0
139 102 0 137.274505615234375 109.803924560546875 0
139 102 100 137.274505615234375 109.803924560546875 0
139 112 100 137.274505615234375 109.803924560546875 0
277 288 0 276.572174072265625 286.515472412109375 0
277 298 0 276.572174072265625 286.515472412109375 0
277 298 100 276.572174072265625 286.515472412109375 0
277 288 100 276.572174072265625 286.515472412109375 0
93 221 0 91.7083358764648438 216.930557250976562 0
83 221 0 91.7083358764648438 216.930557250976562 0
83 221 100 91.7083358764648438 216.930557250976562 0
93 221 100 91.7083358764648438 216.930557250976562 0
83 425 0 82.3941574096679688 422.897796630859375 0
93 425 0 82.3941574096679688 422.897796630859375 0
93 425 100 82.3941574096679688 422.897796630859375 0
83 425 100 82.3941574096679688 422.897796630859375 0
402 444 0 392.2608642578125 434.34783935546875 0
402 434 0 392.2608642578125 434.34783935546875 0
402 434 100 392.2608642578125 434.34783935546875 0
402 444 100 392.2608642578125 434.34783935546875 0
277 265 0 274.279510498046875 263.354034423828125 0
277 255 0 274.279510498046875 263.354034423828125 0
277 255 100 274.279510498046875 263.354034423828125 0
277 265 100 274.279510498046875 263.354034423828125 0
466 265 0 441.111114501953125 250.27777099609375 0
466 255 0 441.111114501953125 250.27777099609375 0
466 255 100 441.111114501953125 250.27777099609375 0
466 265 100 441.111114501953125 250.27777099609375 0
666 176 0 653.89093017578125 171.800003051757812 0
676 176 0 653.89093017578125 171.800003051757812 0
676 176 100 653.89093017578125 171.800003051757812 0
666 176 100 653.89093017578125 171.800003051757812 0
328 439 0 0 0 -1
318 439 0 0 0 -1
318 376 0 0 0 -1
328 376 0 0 0 -1
328 439 100 0 0 1
318 439 100 0 0 1
318 376 100 0 0 1
328 376 100 0 0 1
562 231 0 0 0 -1
552 241 0 0 0 -1
552 112 0 0 0 -1
562 102 0 0 0 -1
562 231 100 0 0 1
552 241 100 0 0 1
552 112 100 0 0 1
562 102 100 0 0 1
552 241 0 0 0 -1
562 231 0 0 0 -1
582 231 0 0 0 -1
577 241 0 0 0 -1
552 241 100 0 0 1
562 231 100 0 0 1
582 231 100 0 0 1
577 241 100 0 0 1
562 102 0 0 0 -1
552 112 0 0 0 -1
385 112 0 0 0 -1
385 102 0 0 0 -1
562 102 100 0 0 1
552 112 100 0 0 1
385 112 100 0 0 1
385 102 100 0 0 1
231 112 0 0 0 -1
231 102 0 0 0 -1
282 102 0 0 0 -1
272 112 0 0 0 -1
231 112 100 0 0 1
231 102 100 0 0 1
282 102 100 0 0 1
272 112 100 0 0 1
272 112 0 0 0 -1
282 102 0 0 0 -1
282 131 0 0 0 -1
272 131 0 0 0 -1
272 112 100 0 0 1
282 102 100 0 0 1
282 131 100 0 0 1
272 131 100 0 0 1
72 221 0 0 0 -1
62 221 0 0 0 -1
62 167 0 0 0 -1
72 167 0 0 0 -1
72 221 100 0 0 1
62 221 100 0 0 1
62 167 100 0 0 1
72 167 100 0 0 1
364 372 0 0 0 -1
354 372 0 0 0 -1
354 331 0 0 0 -1
364 331 0 0 0 -1
364 372 100 0 0 1
354 372 100 0 0 1
354 331 100 0 0 1
364 331 100 0 0 1
199 430 0 0 0 -1
199 420 0 0 0 -1
226 420 0 0 0 -1
236 430 0 0 0 -1
199 430 100 0 0 1
199 420 100 0 0 1
226 420 100 0 0 1
236 430 100 0 0 1
236 430 0 0 0 -1
226 420 0 0 0 -1
226 375 0 0 0 -1
236 375 0 0 0 -1
236 430 100 0 0 1
226 420 100 0 0 1
226 375 100 0 0 1
236 375 100 0 0 1
328 318 0 0 0 -1
318 318 0 0 0 -1
318 293 0 0 0 -1
328 293 0 0 0 -1
328 318 100 0 0 1
318 318 100 0 0 1
318 293 100 0 0 1
328 293 100 0 0 1
160 373 0 0 0 -1
150 373 0 0 0 -1
150 324 0 0 0 -1
160 324 0 0 0 -1
160 373 100 0 0 1
150 373 100 0 0 1
150 324 100 0 0 1
160 324 100 0 0 1
438 530 0 0 0 -1
448 520 0 0 0 -1
671 520 0 0 0 -1
671 530 0 0 0 -1
438 530 100 0 0 1
448 520 100 0 0 1
671 520 100 0 0 1
671 530 100 0 0 1
448 520 0 0 0 -1
438 530 0 0 0 -1
438 439 0 0 0 -1
448 434 0 0 0 -1
448 520 100 0 0 1
438 530 100 0 0 1
438 439 100 0 0 1
448 434 100 0 0 1
88 112 0 0 0 -1
88 102 0 0 0 -1
139 102 0 0 0 -1
139 112 0 0 0 -1
88 112 100 0 0 1
88 102 100 0 0 1
139 102 100 0 0 1
139 112 100 0 0 1
277 288 0 0 0 -1
277 298 0 0 0 -1
83 298 0 0 0 -1
83 288 0 0 0 -1
277 288 100 0 0 1
277 298 100 0 0 1
83 298 100 0 0 1
83 288 100 0 0 1
93 293 0 0 0 -1
83 298 0 0 0 -1
83 221 0 0 0 -1
93 221 0 0 0 -1
93 293 100 0 0 1
83 298 100 0 0 1
83 221 100 0 0 1
93 221 100 0 0 1
83 288 0 0 0 -1
93 293 0 0 0 -1
93 425 0 0 0 -1
83 425 0 0 0 -1
83 288 100 0 0 1
93 293 100 0 0 1
93 425 100 0 0 1
83 425 100 0 0 1
666 288 0 0 0 -1
676 298 0 0 0 -1
577 298 0 0 0 -1
582 288 0 0 0 -1
666 288 100 0 0 1
676 298 100 0 0 1
577 298 100 0 0 1
582 288 100 0 0 1
676 298 0 0 0 -1
666 288 0 0 0 -1
666 241 0 0 0 -1
676 236 0 0 0 -1
676 298 100 0 0 1
666 288 100 0 0 1
666 241 100 0 0 1
676 236 100 0 0 1
587 298 0 0 0 -1
577 298 0 0 0 -1
577 241 0 0 0 -1
587 241 0 0 0 -1
587 298 100 0 0 1
577 298 100 0 0 1
577 241 100 0 0 1
587 241 100 0 0 1
582 288 0 0 0 -1
587 298 0 0 0 -1
448 298 0 0 0 -1
448 288 0 0 0 -1
582 288 100 0 0 1
587 298 100 0 0 1
448 298 100 0 0 1
448 288 100 0 0 1
402 444 0 0 0 -1
402 434 0 0 0 -1
448 434 0 0 0 -1
448 444 0 0 0 -1
402 444 100 0 0 1
402 434 100 0 0 1
448 434 100 0 0 1
448 444 100 0 0 1
448 444 0 0 0 -1
438 439 0 0 0 -1
438 293 0 0 0 -1
448 298 0 0 0 -1
448 444 100 0 0 1
438 439 100 0 0 1
438 293 100 0 0 1
448 298 100 0 0 1
277 265 0 0 0 -1
277 255 0 0 0 -1
443 255 0 0 0 -1
438 265 0 0 0 -1
277 265 100 0 0 1
277 255 100 0 0 1
443 255 100 0 0 1
438 265 100 0 0 1
448 265 0 0 0 -1
443 255 0 0 0 -1
466 255 0 0 0 -1
466 265 0 0 0 -1
448 265 100 0 0 1
443 255 100 0 0 1
466 255 100 0 0 1
466 265 100 0 0 1
438 265 0 0 0 -1
448 265 0 0 0 -1
448 288 0 0 0 -1
438 293 0 0 0 -1
438 265 100 0 0 1
448 265 100 0 0 1
448 288 100 0 0 1
438 293 100 0 0 1
666 176 0 0 0 -1
676 176 0 0 0 -1
676 236 0 0 0 -1
666 231 0 0 0 -1
666 176 100 0 0 1
676 176 100 0 0 1
676 236 100 0 0 1
666 231 100 0 0 1
666 231 0 0 0 -1
666 241 0 0 0 -1
587 241 0 0 0 -1
582 231 0 0 0 -1
666 231 100 0 0 1
666 241 100 0 0 1
587 241 100 0 0 1
582 231 100 0 0 1
83 298 0 0 0 -1
93 293 0 0 0 -1
83 288 0 0 0 -1
83 298 100 0 0 1
93 293 100 0 0 1
83 288 100 0 0 1
577 298 0 0 0 -1
587 298 0 0 0 -1
582 288 0 0 0 -1
577 298 100 0 0 1
587 298 100 0 0 1
582 288 100 0 0 1
448 434 0 0 0 -1
438 439 0 0 0 -1
448 444 0 0 0 -1
448 434 100 0 0 1
438 439 100 0 0 1
448 444 100 0 0 1
443 255 0 0 0 -1
448 265 0 0 0 -1
438 265 0 0 0 -1
443 255 100 0 0 1
448 265 100 0 0 1
438 265 100 0 0 1
676 236 0 0 0 -1
666 241 0 0 0 -1
666 231 0 0 0 -1
676 236 100 0 0 1
666 241 100 0 0 1
666 231 100 0 0 1
577 241 0 0 0 -1
582 231 0 0 0 -1
587 241 0 0 0 -1
577 241 100 0 0 1
582 231 100 0 0 1
587 241 100 0 0 1
448 298 0 0 0 -1
438 293 0 0 0 -1
448 288 0 0 0 -1
448 298 100 0 0 1
438 293 100 0 0 1
448 288 100 0 0 1
4 0 1 2 3
4 4 5 6 7
4 8 9 10 11
4 12 13 14 15
4 16 17 18 19
4 20 21 22 23
4 24 25 26 27
4 28 29 30 31
4 32 33 34 35
4 36 37 38 39
4 40 41 42 43
4 44 45 46 47
4 48 49 50 51
4 52 53 54 55
4 56 57 58 59
4 60 61 62 63
4 64 65 66 67
4 68 69 70 71
4 72 73 74 75
4 76 77 78 79
4 80 81 82 83
4 84 85 86 87
4 88 89 90 91
4 92 93 94 95
4 96 97 98 99
4 100 101 102 103
4 104 105 106 107
4 108 109 110 111
4 112 113 114 115
4 116 117 118 119
4 120 121 122 123
4 124 125 126 127
4 128 129 130 131
4 132 133 134 135
4 136 137 138 139
4 140 141 142 143
4 144 145 146 147
4 148 149 150 151
4 152 153 154 155
4 156 157 158 159
4 160 161 162 163
4 164 165 166 167
4 168 169 170 171
4 172 173 174 175
4 176 177 178 179
4 180 181 182 183
4 184 185 186 187
4 188 189 190 191
4 192 193 194 195
4 196 197 198 199
4 200 201 202 203
4 204 205 206 207
4 208 209 210 211
4 212 213 214 215
4 216 217 218 219
4 220 221 222 223
4 224 225 226 227
4 228 229 230 231
4 232 233 234 235
4 236 237 238 239
4 240 241 242 243
4 244 245 246 247
4 248 249 250 251
4 252 253 254 255
4 256 257 258 259
4 260 261 262 263
4 264 265 266 267
4 268 269 270 271
4 272 273 274 275
4 276 277 278 279
4 280 281 282 283
4 284 285 286 287
4 288 289 290 291
4 292 293 294 295
4 296 297 298 299
4 300 301 302 303
4 304 305 306 307
4 308 309 310 311
4 312 313 314 315
4 316 317 318 319
4 320 321 322 323
4 324 325 326 327
4 328 329 330 331
4 332 333 334 335
4 336 337 338 339
4 340 341 342 343
4 344 345 346 347
4 348 349 350 351
4 352 353 354 355
4 356 357 358 359
4 360 361 362 363
4 364 365 366 367
4 368 369 370 371
4 372 373 374 375
4 376 377 378 379
4 380 381 382 383
4 384 385 386 387
4 388 389 390 391
4 392 393 394 395
4 396 397 398 399
4 400 401 402 403
4 404 405 406 407
4 408 409 410 411
4 412 413 414 415
4 416 417 418 419
4 420 421 422 423
4 424 425 426 427
4 428 429 430 431
4 432 433 434 435
4 436 437 438 439
4 440 441 442 443
4 444 445 446 447
4 448 449 450 451
4 452 453 454 455
4 456 457 458 459
4 460 461 462 463
4 464 465 466 467
4 468 469 470 471
4 472 473 474 475
4 476 477 478 479
4 480 481 482 483
4 484 485 486 487
4 488 489 490 491
4 492 493 494 495
4 496 497 498 499
4 500 501 502 503
4 504 505 506 507
4 508 509 510 511
4 512 513 514 515
4 516 517 518 519
4 520 521 522 523
4 524 525 526 527
4 528 529 530 531
4 532 533 534 535
4 536 537 538 539
4 540 541 542 543
4 544 545 546 547
4 548 549 550 551
4 552 553 554 555
4 556 557 558 559
4 560 561 562 563
3 564 565 566
3 567 568 569
3 570 571 572
3 573 574 575
3 576 577 578
3 579 580 581
3 582 583 584
3 585 586 587
3 588 589 590
3 591 592 593
3 594 595 596
3 597 598 599
3 600 601 602
3 603 604 605
