ply
format ascii 1.0
element vertex 624
property float x
property float y
property float z
property float nx
property float ny
property float nz
element quads 156
property list uchar int vertex_indices
end_header
32.25 41.25 0 -0 1 0
207.75 41.25 0 -0 1 0
207.75 41.25 100 -0 1 0
32.25 41.25 100 -0 1 0
31.75 40.75 0 0 -1 0
208.25 40.75 0 0 -1 0
208.25 40.75 100 0 -1 0
31.75 40.75 100 0 -1 0
31.75 40.75 0 -1 0 0
31.75 309 0 -1 0 0
31.75 309 100 -1 0 0
31.75 40.75 100 -1 0 0
32.25 41.25 0 1 -0 0
32.25 309 0 1 -0 0
32.25 309 100 1 -0 0
32.25 41.25 100 1 -0 0
207.75 41.25 0 -1 0 0
207.75 151 0 -1 0 0
207.75 151 100 -1 0 0
207.75 41.25 100 -1 0 0
208.25 40.75 0 1 -0 0
208.25 151 0 1 -0 0
208.25 151 100 1 -0 0
208.25 40.75 100 1 -0 0
59 230.25 0 -0 1 0
282 230.25 0 -0 1 0
282 230.25 100 -0 1 0
59 230.25 100 -0 1 0
59 229.75 0 0 -1 0
282 229.75 0 0 -1 0
282 229.75 100 0 -1 0
59 229.75 100 0 -1 0
302.25 108 0 1 0 0
302.25 48 0 1 0 0
302.25 48 100 1 0 0
302.25 108 100 1 0 0
301.75 108 0 -1 -0 0
301.75 48 0 -1 -0 0
301.75 48 100 -1 -0 0
301.75 108 100 -1 -0 0
289.25 110.75 0 1 0 0
289.25 48 0 1 0 0
289.25 48 100 1 0 0
289.25 110.75 100 1 0 0
288.75 111.25 0 -1 -0 0
288.75 48 0 -1 -0 0
288.75 48 100 -1 -0 0
288.75 111.25 100 -1 -0 0
288.75 111.25 0 -0 1 0
791 111.25 0 -0 1 0
791 111.25 100 -0 1 0
288.75 111.25 100 -0 1 0
289.25 110.75 0 0 -1 0
791 110.75 0 0 -1 0
791 110.75 100 0 -1 0
289.25 110.75 100 0 -1 0
534.25 309.75 0 1 0 0
534.25 282 0 1 0 0
534.25 282 100 1 0 0
534.25 309.75 100 1 0 0
533.75 310.25 0 -1 -0 0
533.75 282 0 -1 -0 0
533.75 282 100 -1 -0 0
533.75 310.25 100 -1 -0 0
533.75 310.25 0 -0 1 0
756.25 310.25 0 -0 1 0
756.25 310.25 100 -0 1 0
533.75 310.25 100 -0 1 0
534.25 309.75 0 0 -1 0
755.75 309.75 0 0 -1 0
755.75 309.75 100 0 -1 0
534.25 309.75 100 0 -1 0
756.25 310.25 0 1 0 0
756.25 277.75 0 1 0 0
756.25 277.75 100 1 0 0
756.25 310.25 100 1 0 0
755.75 309.75 0 -1 -0 0
755.75 278.25 0 -1 -0 0
755.75 278.25 100 -1 -0 0
755.75 309.75 100 -1 -0 0
756.25 277.75 0 -0 -1 0
486 277.75 0 -0 -1 0
486 277.75 100 -0 -1 0
756.25 277.75 100 -0 -1 0
755.75 278.25 0 0 1 0
486 278.25 0 0 1 0
486 278.25 100 0 1 0
755.75 278.25 100 0 1 0
635.25 399 0 1 0 0
635.25 284 0 1 0 0
635.25 284 100 1 0 0
635.25 399 100 1 0 0
634.75 399 0 -1 -0 0
634.75 284 0 -1 -0 0
634.75 284 100 -1 -0 0
634.75 399 100 -1 -0 0
207.75 216 0 -1 0 0
207.75 242 0 -1 0 0
207.75 242 100 -1 0 0
207.75 216 100 -1 0 0
208.25 216 0 1 -0 0
208.25 242 0 1 -0 0
208.25 242 100 1 -0 0
208.25 216 100 1 -0 0
525 194.25 0 -0 1 0
661 194.25 0 -0 1 0
661 194.25 100 -0 1 0
525 194.25 100 -0 1 0
525 193.75 0 0 -1 0
661 193.75 0 0 -1 0
661 193.75 100 0 -1 0
525 193.75 100 0 -1 0
301.75 277.75 0 -1 0 0
301.75 426 0 -1 0 0
301.75 426 100 -1 0 0
301.75 277.75 100 -1 0 0
302.25 278.25 0 1 -0 0
302.25 426 0 1 -0 0
302.25 426 100 1 -0 0
302.25 278.25 100 1 -0 0
302.25 278.25 0 -0 1 0
429 278.25 0 -0 1 0
429 278.25 100 -0 1 0
302.25 278.25 100 -0 1 0
301.75 277.75 0 0 -1 0
429 277.75 0 0 -1 0
429 277.75 100 0 -1 0
301.75 277.75 100 0 -1 0
634.75 116 0 -1 0 0
634.75 190 0 -1 0 0
634.75 190 100 -1 0 0
634.75 116 100 -1 0 0
635.25 116 0 1 -0 0
635.25 190 0 1 -0 0
635.25 190 100 1 -0 0
635.25 116 100 1 -0 0
782.75 109 0 -1 0 0
782.75 454.75 0 -1 0 0
782.75 454.75 100 -1 0 0
782.75 109 100 -1 0 0
783.25 109 0 1 -0 0
783.25 455.25 0 1 -0 0
783.25 455.25 100 1 -0 0
783.25 109 100 1 -0 0
782.75 454.75 0 -0 -1 0
740 454.75 0 -0 -1 0
740 454.75 100 -0 -1 0
782.75 454.75 100 -0 -1 0
783.25 455.25 0 0 1 0
740 455.25 0 0 1 0
740 455.25 100 0 1 0
783.25 455.25 100 0 1 0
59 243.25 0 -0 1 0
282 243.25 0 -0 1 0
282 243.25 100 -0 1 0
59 243.25 100 -0 1 0
59 242.75 0 0 -1 0
282 242.75 0 0 -1 0
282 242.75 100 0 -1 0
59 242.75 100 0 -1 0
320 324.25 0 -0 1 0
476 324.25 0 -0 1 0
476 324.25 100 -0 1 0
320 324.25 100 -0 1 0
320 323.75 0 0 -1 0
476 323.75 0 0 -1 0
476 323.75 100 0 -1 0
320 323.75 100 0 -1 0
59 216.25 0 -0 1 0
283 216.25 0 -0 1 0
283 216.25 100 -0 1 0
59 216.25 100 -0 1 0
59 215.75 0 0 -1 0
283 215.75 0 0 -1 0
283 215.75 100 0 -1 0
59 215.75 100 0 -1 0
534 295.25 0 -0 1 0
757 295.25 0 -0 1 0
757 295.25 100 -0 1 0
534 295.25 100 -0 1 0
534 294.75 0 0 -1 0
757 294.75 0 0 -1 0
757 294.75 100 0 -1 0
534 294.75 100 0 -1 0
320 352.25 0 -0 1 0
478 352.25 0 -0 1 0
478 352.25 100 -0 1 0
320 352.25 100 -0 1 0
320 351.75 0 0 -1 0
478 351.75 0 0 -1 0
478 351.75 100 0 -1 0
320 351.75 100 0 -1 0
497.75 264 0 -1 0 0
497.75 455.25 0 -1 0 0
497.75 455.25 100 -1 0 0
497.75 264 100 -1 0 0
498.25 264 0 1 -0 0
498.25 454.75 0 1 -0 0
498.25 454.75 100 1 -0 0
498.25 264 100 1 -0 0
497.75 455.25 0 -0 1 0
543 455.25 0 -0 1 0
543 455.25 100 -0 1 0
497.75 455.25 100 -0 1 0
498.25 454.75 0 0 -1 0
543 454.75 0 0 -1 0
543 454.75 100 0 -1 0
498.25 454.75 100 0 -1 0
252 194.25 0 -0 1 0
388 194.25 0 -0 1 0
388 194.25 100 -0 1 0
252 194.25 100 -0 1 0
252 193.75 0 0 -1 0
388 193.75 0 0 -1 0
388 193.75 100 0 -1 0
252 193.75 100 0 -1 0
30 421.25 0 -0 1 0
496 421.25 0 -0 1 0
496 421.25 100 -0 1 0
30 421.25 100 -0 1 0
30 420.75 0 0 -1 0
496 420.75 0 0 -1 0
496 420.75 100 0 -1 0
30 420.75 100 0 -1 0
320 337.25 0 -0 1 0
479 337.25 0 -0 1 0
479 337.25 100 -0 1 0
320 337.25 100 -0 1 0
320 336.75 0 0 -1 0
479 336.75 0 0 -1 0
479 336.75 100 0 -1 0
320 336.75 100 0 -1 0
59 230.25 0 57.7354278564453125 229.217483520507812 0
59 229.75 0 57.7354278564453125 229.217483520507812 0
59 229.75 100 57.7354278564453125 229.217483520507812 0
59 230.25 100 57.7354278564453125 229.217483520507812 0
282 230.25 0 281.73541259765625 229.217483520507812 0
282 229.75 0 281.73541259765625 229.217483520507812 0
282 229.75 100 281.73541259765625 229.217483520507812 0
282 230.25 100 281.73541259765625 229.217483520507812 0
302.25 108 0 297.212493896484375 107.199996948242188 0
301.75 108 0 297.212493896484375 107.199996948242188 0
301.75 108 100 297.212493896484375 107.199996948242188 0
302.25 108 100 297.212493896484375 107.199996948242188 0
302.25 48 0 297.212493896484375 46.2000007629394531 0
301.75 48 0 297.212493896484375 46.2000007629394531 0
301.75 48 100 297.212493896484375 46.2000007629394531 0
302.25 48 100 297.212493896484375 46.2000007629394531 0
289.25 48 0 284.64044189453125 46.2350616455078125 0
288.75 48 0 284.64044189453125 46.2350616455078125 0
288.75 48 100 284.64044189453125 46.2350616455078125 0
289.25 48 100 284.64044189453125 46.2350616455078125 0
534.25 282 0 514.99774169921875 270.83782958984375 0
533.75 282 0 514.99774169921875 270.83782958984375 0
533.75 282 100 514.99774169921875 270.83782958984375 0
534.25 282 100 514.99774169921875 270.83782958984375 0
635.25 399 0 629.72607421875 396.530426025390625 0
634.75 399 0 629.72607421875 396.530426025390625 0
634.75 399 100 629.72607421875 396.530426025390625 0
635.25 399 100 629.72607421875 396.530426025390625 0
635.25 284 0 629.72607421875 280.530426025390625 0
634.75 284 0 629.72607421875 280.530426025390625 0
634.75 284 100 629.72607421875 280.530426025390625 0
635.25 284 100 629.72607421875 280.530426025390625 0
207.75 216 0 199.759613037109375 206.692306518554688 0
208.25 216 0 199.759613037109375 206.692306518554688 0
208.25 216 100 199.759613037109375 206.692306518554688 0
207.75 216 100 199.759613037109375 206.692306518554688 0
207.75 242 0 199.759613037109375 233.692306518554688 0
208.25 242 0 199.759613037109375 233.692306518554688 0
208.25 242 100 199.759613037109375 233.692306518554688 0
207.75 242 100 199.759613037109375 233.692306518554688 0
525 194.25 0 520.13970947265625 192.821685791015625 0
525 193.75 0 520.13970947265625 192.821685791015625 0
525 193.75 100 520.13970947265625 192.821685791015625 0
525 194.25 100 520.13970947265625 192.821685791015625 0
661 194.25 0 657.13970947265625 192.821685791015625 0
661 193.75 0 657.13970947265625 192.821685791015625 0
661 193.75 100 657.13970947265625 192.821685791015625 0
661 194.25 100 657.13970947265625 192.821685791015625 0
301.75 426 0 299.714599609375 424.12646484375 0
302.25 426 0 299.714599609375 424.12646484375 0
302.25 426 100 299.714599609375 424.12646484375 0
301.75 426 100 299.714599609375 424.12646484375 0
634.75 116 0 626.17230224609375 113.43243408203125 0
635.25 116 0 626.17230224609375 113.43243408203125 0
635.25 116 100 626.17230224609375 113.43243408203125 0
634.75 116 100 626.17230224609375 113.43243408203125 0
634.75 190 0 626.17230224609375 188.43243408203125 0
635.25 190 0 626.17230224609375 188.43243408203125 0
635.25 190 100 626.17230224609375 188.43243408203125 0
634.75 190 100 626.17230224609375 188.43243408203125 0
782.75 109 0 780.486083984375 107.684745788574219 0
783.25 109 0 780.486083984375 107.684745788574219 0
783.25 109 100 780.486083984375 107.684745788574219 0
782.75 109 100 780.486083984375 107.684745788574219 0
59 243.25 0 57.7354278564453125 242.159194946289062 0
59 242.75 0 57.7354278564453125 242.159194946289062 0
59 242.75 100 57.7354278564453125 242.159194946289062 0
59 243.25 100 57.7354278564453125 242.159194946289062 0
282 243.25 0 281.73541259765625 242.159194946289062 0
282 242.75 0 281.73541259765625 242.159194946289062 0
282 242.75 100 281.73541259765625 242.159194946289062 0
282 243.25 100 281.73541259765625 242.159194946289062 0
320 324.25 0 316.94873046875 322.171478271484375 0
320 323.75 0 316.94873046875 322.171478271484375 0
320 323.75 100 316.94873046875 322.171478271484375 0
320 324.25 100 316.94873046875 322.171478271484375 0
476 324.25 0 473.94873046875 322.171478271484375 0
476 323.75 0 473.94873046875 322.171478271484375 0
476 323.75 100 473.94873046875 322.171478271484375 0
476 324.25 100 473.94873046875 322.171478271484375 0
59 216.25 0 57.7366065979003906 215.284591674804688 0
59 215.75 0 57.7366065979003906 215.284591674804688 0
59 215.75 100 57.7366065979003906 215.284591674804688 0
59 216.25 100 57.7366065979003906 215.284591674804688 0
283 216.25 0 282.736602783203125 215.284591674804688 0
283 215.75 0 282.736602783203125 215.284591674804688 0
283 215.75 100 282.736602783203125 215.284591674804688 0
283 216.25 100 282.736602783203125 215.284591674804688 0
486 277.75 0 483.20166015625 276.722259521484375 0
486 278.25 0 483.20166015625 276.722259521484375 0
486 278.25 100 483.20166015625 276.722259521484375 0
486 277.75 100 483.20166015625 276.722259521484375 0
534 295.25 0 530.60540771484375 293.925994873046875 0
534 294.75 0 530.60540771484375 293.925994873046875 0
534 294.75 100 530.60540771484375 293.925994873046875 0
534 295.25 100 530.60540771484375 293.925994873046875 0
757 295.25 0 754.60540771484375 293.925994873046875 0
757 294.75 0 754.60540771484375 293.925994873046875 0
757 294.75 100 754.60540771484375 293.925994873046875 0
757 295.25 100 754.60540771484375 293.925994873046875 0
320 352.25 0 316.97467041015625 350.02056884765625 0
320 351.75 0 316.97467041015625 350.02056884765625 0
320 351.75 100 316.97467041015625 350.02056884765625 0
320 352.25 100 316.97467041015625 350.02056884765625 0
478 352.25 0 475.97467041015625 350.02056884765625 0
478 351.75 0 475.97467041015625 350.02056884765625 0
478 351.75 100 475.97467041015625 350.02056884765625 0
478 352.25 100 475.97467041015625 350.02056884765625 0
31.75 309 0 31.6316394805908203 308.84808349609375 0
32.25 309 0 31.6316394805908203 308.84808349609375 0
32.25 309 100 31.6316394805908203 308.84808349609375 0
31.75 309 100 31.6316394805908203 308.84808349609375 0
791 111.25 0 790.42510986328125 111.028495788574219 0
791 110.75 0 790.42510986328125 111.028495788574219 0
791 110.75 100 790.42510986328125 111.028495788574219 0
791 111.25 100 790.42510986328125 111.028495788574219 0
497.75 264 0 495.14739990234375 261.619598388671875 0
498.25 264 0 495.14739990234375 261.619598388671875 0
498.25 264 100 495.14739990234375 261.619598388671875 0
497.75 264 100 495.14739990234375 261.619598388671875 0
429 278.25 0 426.615386962890625 276.05474853515625 0
429 277.75 0 426.615386962890625 276.05474853515625 0
429 277.75 100 426.615386962890625 276.05474853515625 0
429 278.25 100 426.615386962890625 276.05474853515625 0
207.75 151 0 205.8570556640625 150.6241455078125 0
208.25 151 0 205.8570556640625 150.6241455078125 0
208.25 151 100 205.8570556640625 150.6241455078125 0
207.75 151 100 205.8570556640625 150.6241455078125 0
252 194.25 0 249.147064208984375 192.821685791015625 0
252 193.75 0 249.147064208984375 192.821685791015625 0
252 193.75 100 249.147064208984375 192.821685791015625 0
252 194.25 100 249.147064208984375 192.821685791015625 0
388 194.25 0 386.147064208984375 192.821685791015625 0
388 193.75 0 386.147064208984375 192.821685791015625 0
388 193.75 100 386.147064208984375 192.821685791015625 0
388 194.25 100 386.147064208984375 192.821685791015625 0
30 421.25 0 28.9356231689453125 420.346038818359375 0
30 420.75 0 28.9356231689453125 420.346038818359375 0
30 420.75 100 28.9356231689453125 420.346038818359375 0
30 421.25 100 28.9356231689453125 420.346038818359375 0
496 421.25 0 495.93560791015625 420.346038818359375 0
496 420.75 0 495.93560791015625 420.346038818359375 0
496 420.75 100 495.93560791015625 420.346038818359375 0
496 421.25 100 495.93560791015625 420.346038818359375 0
320 337.25 0 316.9874267578125 335.128936767578125 0
320 336.75 0 316.9874267578125 335.128936767578125 0
320 336.75 100 316.9874267578125 335.128936767578125 0
320 337.25 100 316.9874267578125 335.128936767578125 0
479 337.25 0 476.9874267578125 335.128936767578125 0
479 336.75 0 476.9874267578125 335.128936767578125 0
479 336.75 100 476.9874267578125 335.128936767578125 0
479 337.25 100 476.9874267578125 335.128936767578125 0
543 455.25 0 532 445.189239501953125 0
543 454.75 0 532 445.189239501953125 0
543 454.75 100 532 445.189239501953125 0
543 455.25 100 532 445.189239501953125 0
740 454.75 0 721.6900634765625 444.112579345703125 0
740 455.25 0 721.6900634765625 444.112579345703125 0
740 455.25 100 721.6900634765625 444.112579345703125 0
740 454.75 100 721.6900634765625 444.112579345703125 0
32.25 41.25 0 0 0 -1
31.75 40.75 0 0 0 -1
208.25 40.75 0 0 0 -1
207.75 41.25 0 0 0 -1
32.25 41.25 100 0 0 1
31.75 40.75 100 0 0 1
208.25 40.75 100 0 0 1
207.75 41.25 100 0 0 1
31.75 40.75 0 0 0 -1
32.25 41.25 0 0 0 -1
32.25 309 0 0 0 -1
31.75 309 0 0 0 -1
31.75 40.75 100 0 0 1
32.25 41.25 100 0 0 1
32.25 309 100 0 0 1
31.75 309 100 0 0 1
207.75 41.25 0 0 0 -1
208.25 40.75 0 0 0 -1
208.25 151 0 0 0 -1
207.75 151 0 0 0 -1
207.75 41.25 100 0 0 1
208.25 40.75 100 0 0 1
208.25 151 100 0 0 1
207.75 151 100 0 0 1
59 230.25 0 0 0 -1
59 229.75 0 0 0 -1
282 229.75 0 0 0 -1
282 230.25 0 0 0 -1
59 230.25 100 0 0 1
59 229.75 100 0 0 1
282 229.75 100 0 0 1
282 230.25 100 0 0 1
302.25 108 0 0 0 -1
301.75 108 0 0 0 -1
301.75 48 0 0 0 -1
302.25 48 0 0 0 -1
302.25 108 100 0 0 1
301.75 108 100 0 0 1
301.75 48 100 0 0 1
302.25 48 100 0 0 1
289.25 110.75 0 0 0 -1
288.75 111.25 0 0 0 -1
288.75 48 0 0 0 -1
289.25 48 0 0 0 -1
289.25 110.75 100 0 0 1
288.75 111.25 100 0 0 1
288.75 48 100 0 0 1
289.25 48 100 0 0 1
288.75 111.25 0 0 0 -1
289.25 110.75 0 0 0 -1
791 110.75 0 0 0 -1
791 111.25 0 0 0 -1
288.75 111.25 100 0 0 1
289.25 110.75 100 0 0 1
791 110.75 100 0 0 1
791 111.25 100 0 0 1
534.25 309.75 0 0 0 -1
533.75 310.25 0 0 0 -1
533.75 282 0 0 0 -1
534.25 282 0 0 0 -1
534.25 309.75 100 0 0 1
533.75 310.25 100 0 0 1
533.75 282 100 0 0 1
534.25 282 100 0 0 1
533.75 310.25 0 0 0 -1
534.25 309.75 0 0 0 -1
755.75 309.75 0 0 0 -1
756.25 310.25 0 0 0 -1
533.75 310.25 100 0 0 1
534.25 309.75 100 0 0 1
755.75 309.75 100 0 0 1
756.25 310.25 100 0 0 1
756.25 310.25 0 0 0 -1
755.75 309.75 0 0 0 -1
755.75 278.25 0 0 0 -1
756.25 277.75 0 0 0 -1
756.25 310.25 100 0 0 1
755.75 309.75 100 0 0 1
755.75 278.25 100 0 0 1
756.25 277.75 100 0 0 1
756.25 277.75 0 0 0 -1
755.75 278.25 0 0 0 -1
486 278.25 0 0 0 -1
486 277.75 0 0 0 -1
756.25 277.75 100 0 0 1
755.75 278.25 100 0 0 1
486 278.25 100 0 0 1
486 277.75 100 0 0 1
635.25 399 0 0 0 -1
634.75 399 0 0 0 -1
634.75 284 0 0 0 -1
635.25 284 0 0 0 -1
635.25 399 100 0 0 1
634.75 399 100 0 0 1
634.75 284 100 0 0 1
635.25 284 100 0 0 1
207.75 216 0 0 0 -1
208.25 216 0 0 0 -1
208.25 242 0 0 0 -1
207.75 242 0 0 0 -1
207.75 216 100 0 0 1
208.25 216 100 0 0 1
208.25 242 100 0 0 1
207.75 242 100 0 0 1
525 194.25 0 0 0 -1
525 193.75 0 0 0 -1
661 193.75 0 0 0 -1
661 194.25 0 0 0 -1
525 194.25 100 0 0 1
525 193.75 100 0 0 1
661 193.75 100 0 0 1
661 194.25 100 0 0 1
301.75 277.75 0 0 0 -1
302.25 278.25 0 0 0 -1
302.25 426 0 0 0 -1
301.75 426 0 0 0 -1
301.75 277.75 100 0 0 1
302.25 278.25 100 0 0 1
302.25 426 100 0 0 1
301.75 426 100 0 0 1
302.25 278.25 0 0 0 -1
301.75 277.75 0 0 0 -1
429 277.75 0 0 0 -1
429 278.25 0 0 0 -1
302.25 278.25 100 0 0 1
301.75 277.75 100 0 0 1
429 277.75 100 0 0 1
429 278.25 100 0 0 1
634.75 116 0 0 0 -1
635.25 116 0 0 0 -1
635.25 190 0 0 0 -1
634.75 190 0 0 0 -1
634.75 116 100 0 0 1
635.25 116 100 0 0 1
635.25 190 100 0 0 1
634.75 190 100 0 0 1
782.75 109 0 0 0 -1
783.25 109 0 0 0 -1
783.25 455.25 0 0 0 -1
782.75 454.75 0 0 0 -1
782.75 109 100 0 0 1
783.25 109 100 0 0 1
783.25 455.25 100 0 0 1
782.75 454.75 100 0 0 1
782.75 454.75 0 0 0 -1
783.25 455.25 0 0 0 -1
740 455.25 0 0 0 -1
740 454.75 0 0 0 -1
782.75 454.75 100 0 0 1
783.25 455.25 100 0 0 1
740 455.25 100 0 0 1
740 454.75 100 0 0 1
59 243.25 0 0 0 -1
59 242.75 0 0 0 -1
282 242.75 0 0 0 -1
282 243.25 0 0 0 -1
59 243.25 100 0 0 1
59 242.75 100 0 0 1
282 242.75 100 0 0 1
282 243.25 100 0 0 1
320 324.25 0 0 0 -1
320 323.75 0 0 0 -1
476 323.75 0 0 0 -1
476 324.25 0 0 0 -1
320 324.25 100 0 0 1
320 323.75 100 0 0 1
476 323.75 100 0 0 1
476 324.25 100 0 0 1
59 216.25 0 0 0 -1
59 215.75 0 0 0 -1
283 215.75 0 0 0 -1
283 216.25 0 0 0 -1
59 216.25 100 0 0 1
59 215.75 100 0 0 1
283 215.75 100 0 0 1
283 216.25 100 0 0 1
534 295.25 0 0 0 -1
534 294.75 0 0 0 -1
757 294.75 0 0 0 -1
757 295.25 0 0 0 -1
534 295.25 100 0 0 1
534 294.75 100 0 0 1
757 294.75 100 0 0 1
757 295.25 100 0 0 1
320 352.25 0 0 0 -1
320 351.75 0 0 0 -1
478 351.75 0 0 0 -1
478 352.25 0 0 0 -1
320 352.25 100 0 0 1
320 351.75 100 0 0 1
478 351.75 100 0 0 1
478 352.25 100 0 0 1
497.75 264 0 0 0 -1
498.25 264 0 0 0 -1
498.25 454.75 0 0 0 -1
497.75 455.25 0 0 0 -1
497.75 264 100 0 0 1
498.25 264 100 0 0 1
498.25 454.75 100 0 0 1
497.75 455.25 100 0 0 1
497.75 455.25 0 0 0 -1
498.25 454.75 0 0 0 -1
543 454.75 0 0 0 -1
543 455.25 0 0 0 -1
497.75 455.25 100 0 0 1
498.25 454.75 100 0 0 1
543 454.75 100 0 0 1
543 455.25 100 0 0 1
252 194.25 0 0 0 -1
252 193.75 0 0 0 -1
388 193.75 0 0 0 -1
388 194.25 0 0 0 -1
252 194.25 100 0 0 1
252 193.75 100 0 0 1
388 193.75 100 0 0 1
388 194.25 100 0 0 1
30 421.25 0 0 0 -1
30 420.75 0 0 0 -1
496 420.75 0 0 0 -1
496 421.25 0 0 0 -1
30 421.25 100 0 0 1
30 420.75 100 0 0 1
496 420.75 100 0 0 1
496 421.25 100 0 0 1
320 337.25 0 0 0 -1
320 336.75 0 0 0 -1
479 336.75 0 0 0 -1
479 337.25 0 0 0 -1
320 337.25 100 0 0 1
320 336.75 100 0 0 1
479 336.75 100 0 0 1
479 337.25 100 0 0 1
4 0 1 2 3
4 4 5 6 7
4 8 9 10 11
4 12 13 14 15
4 16 17 18 19
4 20 21 22 23
4 24 25 26 27
4 28 29 30 31
4 32 33 34 35
4 36 37 38 39
4 40 41 42 43
4 44 45 46 47
4 48 49 50 51
4 52 53 54 55
4 56 57 58 59
4 60 61 62 63
4 64 65 66 67
4 68 69 70 71
4 72 73 74 75
4 76 77 78 79
4 80 81 82 83
4 84 85 86 87
4 88 89 90 91
4 92 93 94 95
4 96 97 98 99
4 100 101 102 103
4 104 105 106 107
4 108 109 110 111
4 112 113 114 115
4 116 117 118 119
4 120 121 122 123
4 124 125 126 127
4 128 129 130 131
4 132 133 134 135
4 136 137 138 139
4 140 141 142 143
4 144 145 146 147
4 148 149 150 151
4 152 153 154 155
4 156 157 158 159
4 160 161 162 163
4 164 165 166 167
4 168 169 170 171
4 172 173 174 175
4 176 177 178 179
4 180 181 182 183
4 184 185 186 187
4 188 189 190 191
4 192 193 194 195
4 196 197 198 199
4 200 201 202 203
4 204 205 206 207
4 208 209 210 211
4 212 213 214 215
4 216 217 218 219
4 220 221 222 223
4 224 225 226 227
4 228 229 230 231
4 232 233 234 235
4 236 237 238 239
4 240 241 242 243
4 244 245 246 247
4 248 249 250 251
4 252 253 254 255
4 256 257 258 259
4 260 261 262 263
4 264 265 266 267
4 268 269 270 271
4 272 273 274 275
4 276 277 278 279
4 280 281 282 283
4 284 285 286 287
4 288 289 290 291
4 292 293 294 295
4 296 297 298 299
4 300 301 302 303
4 304 305 306 307
4 308 309 310 311
4 312 313 314 315
4 316 317 318 319
4 320 321 322 323
4 324 325 326 327
4 328 329 330 331
4 332 333 334 335
4 336 337 338 339
4 340 341 342 343
4 344 345 346 347
4 348 349 350 351
4 352 353 354 355
4 356 357 358 359
4 360 361 362 363
4 364 365 366 367
4 368 369 370 371
4 372 373 374 375
4 376 377 378 379
4 380 381 382 383
4 384 385 386 387
4 388 389 390 391
4 392 393 394 395
4 396 397 398 399
4 400 401 402 403
4 404 405 406 407
4 408 409 410 411
4 412 413 414 415
4 416 417 418 419
4 420 421 422 423
4 424 425 426 427
4 428 429 430 431
4 432 433 434 435
4 436 437 438 439
4 440 441 442 443
4 444 445 446 447
4 448 449 450 451
4 452 453 454 455
4 456 457 458 459
4 460 461 462 463
4 464 465 466 467
4 468 469 470 471
4 472 473 474 475
4 476 477 478 479
4 480 481 482 483
4 484 485 486 487
4 488 489 490 491
4 492 493 494 495
4 496 497 498 499
4 500 501 502 503
4 504 505 506 507
4 508 509 510 511
4 512 513 514 515
4 516 517 518 519
4 520 521 522 523
4 524 525 526 527
4 528 529 530 531
4 532 533 534 535
4 536 537 538 539
4 540 541 542 543
4 544 545 546 547
4 548 549 550 551
4 552 553 554 555
4 556 557 558 559
4 560 561 562 563
4 564 565 566 567
4 568 569 570 571
4 572 573 574 575
4 576 577 578 579
4 580 581 582 583
4 584 585 586 587
4 588 589 590 591
4 592 593 594 595
4 596 597 598 599
4 600 601 602 603
4 604 605 606 607
4 608 609 610 611
4 612 613 614 615
4 616 617 618 619
4 620 621 622 623
