ply
format ascii 1.0
element vertex 328
property float x
property float y
property float z
property float nx
property float ny
property float nz
element quads 82
property list uchar int vertex_indices
end_header
259.25 166 0 1 0 0
259.25 136.25 0 1 0 0
259.25 136.25 100 1 0 0
259.25 166 100 1 0 0
258.75 166 0 -1 -0 0
258.75 135.75 0 -1 -0 0
258.75 135.75 100 -1 -0 0
258.75 166 100 -1 -0 0
259.25 136.25 0 -0 1 0
334 136.25 0 -0 1 0
334 136.25 100 -0 1 0
259.25 136.25 100 -0 1 0
258.75 135.75 0 0 -1 0
334 135.75 0 0 -1 0
334 135.75 100 0 -1 0
258.75 135.75 100 0 -1 0
542.25 292 0 1 0 0
542.25 238 0 1 0 0
542.25 238 100 1 0 0
542.25 292 100 1 0 0
541.75 292 0 -1 -0 0
541.75 238 0 -1 -0 0
541.75 238 100 -1 -0 0
541.75 292 100 -1 -0 0
420.75 239.25 0 -0 1 0
595 239.25 0 -0 1 0
595 239.25 100 -0 1 0
420.75 239.25 100 -0 1 0
421.25 238.75 0 0 -1 0
595 238.75 0 0 -1 0
595 238.75 100 0 -1 0
421.25 238.75 100 0 -1 0
421.25 238.75 0 1 0 0
421.25 135 0 1 0 0
421.25 135 100 1 0 0
421.25 238.75 100 1 0 0
420.75 239.25 0 -1 -0 0
420.75 135 0 -1 -0 0
420.75 135 100 -1 -0 0
420.75 239.25 100 -1 -0 0
561 418.25 0 -0 1 0
597.25 418.25 0 -0 1 0
597.25 418.25 100 -0 1 0
561 418.25 100 -0 1 0
561 417.75 0 0 -1 0
596.75 417.75 0 0 -1 0
596.75 417.75 100 0 -1 0
561 417.75 100 0 -1 0
597.25 418.25 0 1 0 0
597.25 135.75 0 1 0 0
597.25 135.75 100 1 0 0
597.25 418.25 100 1 0 0
596.75 417.75 0 -1 -0 0
596.75 136.25 0 -1 -0 0
596.75 136.25 100 -1 -0 0
596.75 417.75 100 -1 -0 0
536 136.25 0 -0 1 0
596.75 136.25 0 -0 1 0
596.75 136.25 100 -0 1 0
536 136.25 100 -0 1 0
536 135.75 0 0 -1 0
597.25 135.75 0 0 -1 0
597.25 135.75 100 0 -1 0
536 135.75 100 0 -1 0
474.75 135 0 -1 0 0
474.75 418 0 -1 0 0
474.75 418 100 -1 0 0
474.75 135 100 -1 0 0
475.25 135 0 1 -0 0
475.25 418 0 1 -0 0
475.25 418 100 1 -0 0
475.25 135 100 1 -0 0
409 136.25 0 -0 1 0
485 136.25 0 -0 1 0
485 136.25 100 -0 1 0
409 136.25 100 -0 1 0
409 135.75 0 0 -1 0
485 135.75 0 0 -1 0
485 135.75 100 0 -1 0
409 135.75 100 0 -1 0
238.75 165 0 -1 0 0
238.75 365 0 -1 0 0
238.75 365 100 -1 0 0
238.75 165 100 -1 0 0
239.25 165 0 1 -0 0
239.25 365 0 1 -0 0
239.25 365 100 1 -0 0
239.25 165 100 1 -0 0
434 291.25 0 -0 1 0
595 291.25 0 -0 1 0
595 291.25 100 -0 1 0
434 291.25 100 -0 1 0
434 290.75 0 0 -1 0
595 290.75 0 0 -1 0
595 290.75 100 0 -1 0
434 290.75 100 0 -1 0
375 418.25 0 -0 1 0
485 418.25 0 -0 1 0
485 418.25 100 -0 1 0
375 418.25 100 -0 1 0
375 417.75 0 0 -1 0
485 417.75 0 0 -1 0
485 417.75 100 0 -1 0
375 417.75 100 0 -1 0
434.75 238 0 -1 0 0
434.75 324 0 -1 0 0
434.75 324 100 -1 0 0
434.75 238 100 -1 0 0
435.25 238 0 1 -0 0
435.25 324 0 1 -0 0
435.25 324 100 1 -0 0
435.25 238 100 1 -0 0
258.75 274 0 -1 0 0
258.75 419 0 -1 0 0
258.75 419 100 -1 0 0
258.75 274 100 -1 0 0
259.25 274 0 1 -0 0
259.25 419 0 1 -0 0
259.25 419 100 1 -0 0
259.25 274 100 1 -0 0
259.25 166 0 250.535720825195312 161.420166015625 0
258.75 166 0 250.535720825195312 161.420166015625 0
258.75 166 100 250.535720825195312 161.420166015625 0
259.25 166 100 250.535720825195312 161.420166015625 0
542.25 292 0 532.20831298828125 287.59259033203125 0
541.75 292 0 532.20831298828125 287.59259033203125 0
541.75 292 100 532.20831298828125 287.59259033203125 0
542.25 292 100 532.20831298828125 287.59259033203125 0
542.25 238 0 532.20831298828125 232.59259033203125 0
541.75 238 0 532.20831298828125 232.59259033203125 0
541.75 238 100 532.20831298828125 232.59259033203125 0
542.25 238 100 532.20831298828125 232.59259033203125 0
595 239.25 0 592.58538818359375 237.876968383789062 0
595 238.75 0 592.58538818359375 237.876968383789062 0
595 238.75 100 592.58538818359375 237.876968383789062 0
595 239.25 100 592.58538818359375 237.876968383789062 0
561 418.25 0 544.52410888671875 406.712066650390625 0
561 417.75 0 544.52410888671875 406.712066650390625 0
561 417.75 100 544.52410888671875 406.712066650390625 0
561 418.25 100 544.52410888671875 406.712066650390625 0
536 136.25 0 526.17694091796875 134.0072021484375 0
536 135.75 0 526.17694091796875 134.0072021484375 0
536 135.75 100 526.17694091796875 134.0072021484375 0
536 136.25 100 526.17694091796875 134.0072021484375 0
474.75 135 0 473.07244873046875 133.522964477539062 0
475.25 135 0 473.07244873046875 133.522964477539062 0
475.25 135 100 473.07244873046875 133.522964477539062 0
474.75 135 100 473.07244873046875 133.522964477539062 0
474.75 418 0 473.07244873046875 417.522979736328125 0
475.25 418 0 473.07244873046875 417.522979736328125 0
475.25 418 100 473.07244873046875 417.522979736328125 0
474.75 418 100 473.07244873046875 417.522979736328125 0
421.25 135 0 417.18975830078125 132.69879150390625 0
420.75 135 0 417.18975830078125 132.69879150390625 0
420.75 135 100 417.18975830078125 132.69879150390625 0
421.25 135 100 417.18975830078125 132.69879150390625 0
409 136.25 0 402.618408203125 134.457229614257812 0
409 135.75 0 402.618408203125 134.457229614257812 0
409 135.75 100 402.618408203125 134.457229614257812 0
409 136.25 100 402.618408203125 134.457229614257812 0
485 136.25 0 479.618408203125 134.457229614257812 0
485 135.75 0 479.618408203125 134.457229614257812 0
485 135.75 100 479.618408203125 134.457229614257812 0
485 136.25 100 479.618408203125 134.457229614257812 0
238.75 165 0 237.556243896484375 163.175003051757812 0
239.25 165 0 237.556243896484375 163.175003051757812 0
239.25 165 100 237.556243896484375 163.175003051757812 0
238.75 165 100 237.556243896484375 163.175003051757812 0
238.75 365 0 237.556243896484375 364.17498779296875 0
239.25 365 0 237.556243896484375 364.17498779296875 0
239.25 365 100 237.556243896484375 364.17498779296875 0
238.75 365 100 237.556243896484375 364.17498779296875 0
434 291.25 0 430.304351806640625 289.44097900390625 0
434 290.75 0 430.304351806640625 289.44097900390625 0
434 290.75 100 430.304351806640625 289.44097900390625 0
434 291.25 100 430.304351806640625 289.44097900390625 0
595 291.25 0 592.3043212890625 289.44097900390625 0
595 290.75 0 592.3043212890625 289.44097900390625 0
595 290.75 100 592.3043212890625 289.44097900390625 0
595 291.25 100 592.3043212890625 289.44097900390625 0
375 418.25 0 370.590911865234375 414.447723388671875 0
375 417.75 0 370.590911865234375 414.447723388671875 0
375 417.75 100 370.590911865234375 414.447723388671875 0
375 418.25 100 370.590911865234375 414.447723388671875 0
485 418.25 0 481.590911865234375 414.447723388671875 0
485 417.75 0 481.590911865234375 414.447723388671875 0
485 417.75 100 481.590911865234375 414.447723388671875 0
485 418.25 100 481.590911865234375 414.447723388671875 0
434.75 238 0 429.69476318359375 234.232559204101562 0
435.25 238 0 429.69476318359375 234.232559204101562 0
435.25 238 100 429.69476318359375 234.232559204101562 0
434.75 238 100 429.69476318359375 234.232559204101562 0
434.75 324 0 429.69476318359375 321.2325439453125 0
435.25 324 0 429.69476318359375 321.2325439453125 0
435.25 324 100 429.69476318359375 321.2325439453125 0
434.75 324 100 429.69476318359375 321.2325439453125 0
334 136.25 0 330.531768798828125 134.427261352539062 0
334 135.75 0 330.531768798828125 134.427261352539062 0
334 135.75 100 330.531768798828125 134.427261352539062 0
334 136.25 100 330.531768798828125 134.427261352539062 0
258.75 274 0 256.96551513671875 271.1103515625 0
259.25 274 0 256.96551513671875 271.1103515625 0
259.25 274 100 256.96551513671875 271.1103515625 0
258.75 274 100 256.96551513671875 271.1103515625 0
258.75 419 0 256.96551513671875 417.1103515625 0
259.25 419 0 256.96551513671875 417.1103515625 0
259.25 419 100 256.96551513671875 417.1103515625 0
258.75 419 100 256.96551513671875 417.1103515625 0
259.25 166 0 0 0 -1
258.75 166 0 0 0 -1
258.75 135.75 0 0 0 -1
259.25 136.25 0 0 0 -1
259.25 166 100 0 0 1
258.75 166 100 0 0 1
258.75 135.75 100 0 0 1
259.25 136.25 100 0 0 1
259.25 136.25 0 0 0 -1
258.75 135.75 0 0 0 -1
334 135.75 0 0 0 -1
334 136.25 0 0 0 -1
259.25 136.25 100 0 0 1
258.75 135.75 100 0 0 1
334 135.75 100 0 0 1
334 136.25 100 0 0 1
542.25 292 0 0 0 -1
541.75 292 0 0 0 -1
541.75 238 0 0 0 -1
542.25 238 0 0 0 -1
542.25 292 100 0 0 1
541.75 292 100 0 0 1
541.75 238 100 0 0 1
542.25 238 100 0 0 1
420.75 239.25 0 0 0 -1
421.25 238.75 0 0 0 -1
595 238.75 0 0 0 -1
595 239.25 0 0 0 -1
420.75 239.25 100 0 0 1
421.25 238.75 100 0 0 1
595 238.75 100 0 0 1
595 239.25 100 0 0 1
421.25 238.75 0 0 0 -1
420.75 239.25 0 0 0 -1
420.75 135 0 0 0 -1
421.25 135 0 0 0 -1
421.25 238.75 100 0 0 1
420.75 239.25 100 0 0 1
420.75 135 100 0 0 1
421.25 135 100 0 0 1
561 418.25 0 0 0 -1
561 417.75 0 0 0 -1
596.75 417.75 0 0 0 -1
597.25 418.25 0 0 0 -1
561 418.25 100 0 0 1
561 417.75 100 0 0 1
596.75 417.75 100 0 0 1
597.25 418.25 100 0 0 1
597.25 418.25 0 0 0 -1
596.75 417.75 0 0 0 -1
596.75 136.25 0 0 0 -1
597.25 135.75 0 0 0 -1
597.25 418.25 100 0 0 1
596.75 417.75 100 0 0 1
596.75 136.25 100 0 0 1
597.25 135.75 100 0 0 1
536 136.25 0 0 0 -1
536 135.75 0 0 0 -1
597.25 135.75 0 0 0 -1
596.75 136.25 0 0 0 -1
536 136.25 100 0 0 1
536 135.75 100 0 0 1
597.25 135.75 100 0 0 1
596.75 136.25 100 0 0 1
474.75 135 0 0 0 -1
475.25 135 0 0 0 -1
475.25 418 0 0 0 -1
474.75 418 0 0 0 -1
474.75 135 100 0 0 1
475.25 135 100 0 0 1
475.25 418 100 0 0 1
474.75 418 100 0 0 1
409 136.25 0 0 0 -1
409 135.75 0 0 0 -1
485 135.75 0 0 0 -1
485 136.25 0 0 0 -1
409 136.25 100 0 0 1
409 135.75 100 0 0 1
485 135.75 100 0 0 1
485 136.25 100 0 0 1
238.75 165 0 0 0 -1
239.25 165 0 0 0 -1
239.25 365 0 0 0 -1
238.75 365 0 0 0 -1
238.75 165 100 0 0 1
239.25 165 100 0 0 1
239.25 365 100 0 0 1
238.75 365 100 0 0 1
434 291.25 0 0 0 -1
434 290.75 0 0 0 -1
595 290.75 0 0 0 -1
595 291.25 0 0 0 -1
434 291.25 100 0 0 1
434 290.75 100 0 0 1
595 290.75 100 0 0 1
595 291.25 100 0 0 1
375 418.25 0 0 0 -1
375 417.75 0 0 0 -1
485 417.75 0 0 0 -1
485 418.25 0 0 0 -1
375 418.25 100 0 0 1
375 417.75 100 0 0 1
485 417.75 100 0 0 1
485 418.25 100 0 0 1
434.75 238 0 0 0 -1
435.25 238 0 0 0 -1
435.25 324 0 0 0 -1
434.75 324 0 0 0 -1
434.75 238 100 0 0 1
435.25 238 100 0 0 1
435.25 324 100 0 0 1
434.75 324 100 0 0 1
258.75 274 0 0 0 -1
259.25 274 0 0 0 -1
259.25 419 0 0 0 -1
258.75 419 0 0 0 -1
258.75 274 100 0 0 1
259.25 274 100 0 0 1
259.25 419 100 0 0 1
258.75 419 100 0 0 1
4 0 1 2 3
4 4 5 6 7
4 8 9 10 11
4 12 13 14 15
4 16 17 18 19
4 20 21 22 23
4 24 25 26 27
4 28 29 30 31
4 32 33 34 35
4 36 37 38 39
4 40 41 42 43
4 44 45 46 47
4 48 49 50 51
4 52 53 54 55
4 56 57 58 59
4 60 61 62 63
4 64 65 66 67
4 68 69 70 71
4 72 73 74 75
4 76 77 78 79
4 80 81 82 83
4 84 85 86 87
4 88 89 90 91
4 92 93 94 95
4 96 97 98 99
4 100 101 102 103
4 104 105 106 107
4 108 109 110 111
4 112 113 114 115
4 116 117 118 119
4 120 121 122 123
4 124 125 126 127
4 128 129 130 131
4 132 133 134 135
4 136 137 138 139
4 140 141 142 143
4 144 145 146 147
4 148 149 150 151
4 152 153 154 155
4 156 157 158 159
4 160 161 162 163
4 164 165 166 167
4 168 169 170 171
4 172 173 174 175
4 176 177 178 179
4 180 181 182 183
4 184 185 186 187
4 188 189 190 191
4 192 193 194 195
4 196 197 198 199
4 200 201 202 203
4 204 205 206 207
4 208 209 210 211
4 212 213 214 215
4 216 217 218 219
4 220 221 222 223
4 224 225 226 227
4 228 229 230 231
4 232 233 234 235
4 236 237 238 239
4 240 241 242 243
4 244 245 246 247
4 248 249 250 251
4 252 253 254 255
4 256 257 258 259
4 260 261 262 263
4 264 265 266 267
4 268 269 270 271
4 272 273 274 275
4 276 277 278 279
4 280 281 282 283
4 284 285 286 287
4 288 289 290 291
4 292 293 294 295
4 296 297 298 299
4 300 301 302 303
4 304 305 306 307
4 308 309 310 311
4 312 313 314 315
4 316 317 318 319
4 320 321 322 323
4 324 325 326 327
