ply
format ascii 1.0
element vertex 448
property float x
property float y
property float z
property float nx
property float ny
property float nz
element quads 106
property list uchar int vertex_indices
element triads 8
property list uchar int vertex_indices
end_header
444 94 0 -0 1 0
694 94 0 -0 1 0
694 94 100 -0 1 0
444 94 100 -0 1 0
444 84 0 0 -1 0
704 84 0 0 -1 0
704 84 100 0 -1 0
444 84 100 0 -1 0
694 94 0 -1 0 0
694 249 0 -1 0 0
694 249 100 -1 0 0
694 94 100 -1 0 0
704 84 0 1 -0 0
704 259 0 1 -0 0
704 259 100 1 -0 0
704 84 100 1 -0 0
654 364 0 -0 1 0
704 364 0 -0 1 0
704 364 100 -0 1 0
654 364 100 -0 1 0
654 354 0 0 -1 0
694 354 0 0 -1 0
694 354 100 0 -1 0
654 354 100 0 -1 0
704 364 0 1 0 0
704 262 0 1 0 0
704 262 100 1 0 0
704 364 100 1 0 0
694 354 0 -1 -0 0
694 272 0 -1 -0 0
694 272 100 -1 -0 0
694 354 100 -1 -0 0
135 359 0 1 0 0
135 338 0 1 0 0
135 338 100 1 0 0
135 359 100 1 0 0
125 359 0 -1 -0 0
125 338 0 -1 -0 0
125 338 100 -1 -0 0
125 359 100 -1 -0 0
541 301 0 1 0 0
541 267 0 1 0 0
541 267 100 1 0 0
541 301 100 1 0 0
531 301 0 -1 -0 0
531 267 0 -1 -0 0
531 267 100 -1 -0 0
531 301 100 -1 -0 0
125 151 0 -1 0 0
125 190 0 -1 0 0
125 190 100 -1 0 0
125 151 100 -1 0 0
135 151 0 1 -0 0
135 190 0 1 -0 0
135 190 100 1 -0 0
135 151 100 1 -0 0
445 468 0 -0 1 0
484 468 0 -0 1 0
484 468 100 -0 1 0
445 468 100 -0 1 0
445 458 0 0 -1 0
474 458 0 0 -1 0
474 458 100 0 -1 0
445 458 100 0 -1 0
484 468 0 1 0 0
484 359 0 1 0 0
484 359 100 1 0 0
484 468 100 1 0 0
474 458 0 -1 -0 0
474 354 0 -1 -0 0
474 354 100 -1 -0 0
474 458 100 -1 -0 0
351 94 0 -0 1 0
386 94 0 -0 1 0
386 94 100 -0 1 0
351 94 100 -0 1 0
341 84 0 0 -1 0
386 84 0 0 -1 0
386 84 100 0 -1 0
341 84 100 0 -1 0
341 84 0 -1 0 0
341 230 0 -1 0 0
341 230 100 -1 0 0
341 84 100 -1 0 0
351 94 0 1 -0 0
351 225 0 1 -0 0
351 225 100 1 -0 0
351 94 100 1 -0 0
341 468 0 -0 1 0
387 468 0 -0 1 0
387 468 100 -0 1 0
341 468 100 -0 1 0
351 458 0 0 -1 0
387 458 0 0 -1 0
387 458 100 0 -1 0
351 458 100 0 -1 0
351 458 0 1 0 0
351 225 0 1 0 0
351 225 100 1 0 0
351 458 100 1 0 0
341 468 0 -1 -0 0
341 220 0 -1 -0 0
341 220 100 -1 -0 0
341 468 100 -1 -0 0
536 220 0 -0 -1 0
341 220 0 -0 -1 0
341 220 100 -0 -1 0
536 220 100 -0 -1 0
536 230 0 0 1 0
341 230 0 0 1 0
341 230 100 0 1 0
536 230 100 0 1 0
558 301 0 -1 0 0
558 354 0 -1 0 0
558 354 100 -1 0 0
558 301 100 -1 0 0
568 301 0 1 -0 0
568 354 0 1 -0 0
568 354 100 1 -0 0
568 301 100 1 -0 0
563 364 0 -0 1 0
599 364 0 -0 1 0
599 364 100 -0 1 0
563 364 100 -0 1 0
568 354 0 0 -1 0
599 354 0 0 -1 0
599 354 100 0 -1 0
568 354 100 0 -1 0
558 354 0 -0 -1 0
474 354 0 -0 -1 0
474 354 100 -0 -1 0
558 354 100 -0 -1 0
563 364 0 0 1 0
474 364 0 0 1 0
474 364 100 0 1 0
563 364 100 0 1 0
599 378 0 1 0 0
599 354 0 1 0 0
599 354 100 1 0 0
599 378 100 1 0 0
589 378 0 -1 -0 0
589 359 0 -1 -0 0
589 359 100 -1 -0 0
589 378 100 -1 -0 0
599 364 0 1 0 0
599 267 0 1 0 0
599 267 100 1 0 0
599 364 100 1 0 0
589 359 0 -1 -0 0
589 267 0 -1 -0 0
589 267 100 -1 -0 0
589 359 100 -1 -0 0
661 259 0 -0 1 0
704 259 0 -0 1 0
704 259 100 -0 1 0
661 259 100 -0 1 0
661 249 0 0 -1 0
694 249 0 0 -1 0
694 249 100 0 -1 0
661 249 100 0 -1 0
643 272 0 -0 1 0
694 272 0 -0 1 0
694 272 100 -0 1 0
643 272 100 -0 1 0
643 262 0 0 -1 0
704 262 0 0 -1 0
704 262 100 0 -1 0
643 262 100 0 -1 0
474 309 0 -1 0 0
474 364 0 -1 0 0
474 364 100 -1 0 0
474 309 100 -1 0 0
484 309 0 1 -0 0
484 359 0 1 -0 0
484 359 100 1 -0 0
484 309 100 1 -0 0
444 94 0 441.2239990234375 93.6240005493164062 0
444 84 0 441.2239990234375 93.6240005493164062 0
444 84 100 441.2239990234375 93.6240005493164062 0
444 94 100 441.2239990234375 93.6240005493164062 0
654 364 0 639.91998291015625 356.720001220703125 0
654 354 0 639.91998291015625 356.720001220703125 0
654 354 100 639.91998291015625 356.720001220703125 0
654 364 100 639.91998291015625 356.720001220703125 0
135 359 0 128.571426391601562 342.904754638671875 0
125 359 0 128.571426391601562 342.904754638671875 0
125 359 100 128.571426391601562 342.904754638671875 0
135 359 100 128.571426391601562 342.904754638671875 0
135 338 0 128.571426391601562 320.904754638671875 0
125 338 0 128.571426391601562 320.904754638671875 0
125 338 100 128.571426391601562 320.904754638671875 0
135 338 100 128.571426391601562 320.904754638671875 0
541 301 0 525.0882568359375 293.147064208984375 0
531 301 0 525.0882568359375 293.147064208984375 0
531 301 100 525.0882568359375 293.147064208984375 0
541 301 100 525.0882568359375 293.147064208984375 0
541 267 0 525.0882568359375 258.147064208984375 0
531 267 0 525.0882568359375 258.147064208984375 0
531 267 100 525.0882568359375 258.147064208984375 0
541 267 100 525.0882568359375 258.147064208984375 0
125 151 0 121.794868469238281 146.128204345703125 0
135 151 0 121.794868469238281 146.128204345703125 0
135 151 100 121.794868469238281 146.128204345703125 0
125 151 100 121.794868469238281 146.128204345703125 0
125 190 0 121.794868469238281 186.128204345703125 0
135 190 0 121.794868469238281 186.128204345703125 0
135 190 100 121.794868469238281 186.128204345703125 0
125 190 100 121.794868469238281 186.128204345703125 0
445 468 0 432.589752197265625 456 0
445 458 0 432.589752197265625 456 0
445 458 100 432.589752197265625 456 0
445 468 100 432.589752197265625 456 0
386 94 0 375.971435546875 91.3142852783203125 0
386 84 0 375.971435546875 91.3142852783203125 0
386 84 100 375.971435546875 91.3142852783203125 0
386 94 100 375.971435546875 91.3142852783203125 0
387 468 0 379.586944580078125 457.826080322265625 0
387 458 0 379.586944580078125 457.826080322265625 0
387 458 100 379.586944580078125 457.826080322265625 0
387 468 100 379.586944580078125 457.826080322265625 0
536 220 0 534.25128173828125 218.871795654296875 0
536 230 0 534.25128173828125 218.871795654296875 0
536 230 100 534.25128173828125 218.871795654296875 0
536 220 100 534.25128173828125 218.871795654296875 0
558 301 0 547.4716796875 294.32073974609375 0
568 301 0 547.4716796875 294.32073974609375 0
568 301 100 547.4716796875 294.32073974609375 0
558 301 100 547.4716796875 294.32073974609375 0
599 378 0 574.04168701171875 363.25 0
589 378 0 574.04168701171875 363.25 0
589 378 100 574.04168701171875 363.25 0
599 378 100 574.04168701171875 363.25 0
599 267 0 592.82476806640625 263.2474365234375 0
589 267 0 592.82476806640625 263.2474365234375 0
589 267 100 592.82476806640625 263.2474365234375 0
599 267 100 592.82476806640625 263.2474365234375 0
661 259 0 644.6279296875 252.97674560546875 0
661 249 0 644.6279296875 252.97674560546875 0
661 249 100 644.6279296875 252.97674560546875 0
661 259 100 644.6279296875 252.97674560546875 0
643 272 0 629.39215087890625 266.666656494140625 0
643 262 0 629.39215087890625 266.666656494140625 0
643 262 100 629.39215087890625 266.666656494140625 0
643 272 100 629.39215087890625 266.666656494140625 0
474 309 0 465.381805419921875 302.381805419921875 0
484 309 0 465.381805419921875 302.381805419921875 0
484 309 100 465.381805419921875 302.381805419921875 0
474 309 100 465.381805419921875 302.381805419921875 0
444 94 0 0 0 -1
444 84 0 0 0 -1
704 84 0 0 0 -1
694 94 0 0 0 -1
444 94 100 0 0 1
444 84 100 0 0 1
704 84 100 0 0 1
694 94 100 0 0 1
694 94 0 0 0 -1
704 84 0 0 0 -1
704 259 0 0 0 -1
694 249 0 0 0 -1
694 94 100 0 0 1
704 84 100 0 0 1
704 259 100 0 0 1
694 249 100 0 0 1
654 364 0 0 0 -1
654 354 0 0 0 -1
694 354 0 0 0 -1
704 364 0 0 0 -1
654 364 100 0 0 1
654 354 100 0 0 1
694 354 100 0 0 1
704 364 100 0 0 1
704 364 0 0 0 -1
694 354 0 0 0 -1
694 272 0 0 0 -1
704 262 0 0 0 -1
704 364 100 0 0 1
694 354 100 0 0 1
694 272 100 0 0 1
704 262 100 0 0 1
135 359 0 0 0 -1
125 359 0 0 0 -1
125 338 0 0 0 -1
135 338 0 0 0 -1
135 359 100 0 0 1
125 359 100 0 0 1
125 338 100 0 0 1
135 338 100 0 0 1
541 301 0 0 0 -1
531 301 0 0 0 -1
531 267 0 0 0 -1
541 267 0 0 0 -1
541 301 100 0 0 1
531 301 100 0 0 1
531 267 100 0 0 1
541 267 100 0 0 1
125 151 0 0 0 -1
135 151 0 0 0 -1
135 190 0 0 0 -1
125 190 0 0 0 -1
125 151 100 0 0 1
135 151 100 0 0 1
135 190 100 0 0 1
125 190 100 0 0 1
445 468 0 0 0 -1
445 458 0 0 0 -1
474 458 0 0 0 -1
484 468 0 0 0 -1
445 468 100 0 0 1
445 458 100 0 0 1
474 458 100 0 0 1
484 468 100 0 0 1
484 468 0 0 0 -1
474 458 0 0 0 -1
474 354 0 0 0 -1
484 359 0 0 0 -1
484 468 100 0 0 1
474 458 100 0 0 1
474 354 100 0 0 1
484 359 100 0 0 1
351 94 0 0 0 -1
341 84 0 0 0 -1
386 84 0 0 0 -1
386 94 0 0 0 -1
351 94 100 0 0 1
341 84 100 0 0 1
386 84 100 0 0 1
386 94 100 0 0 1
341 84 0 0 0 -1
351 94 0 0 0 -1
351 225 0 0 0 -1
341 230 0 0 0 -1
341 84 100 0 0 1
351 94 100 0 0 1
351 225 100 0 0 1
341 230 100 0 0 1
341 468 0 0 0 -1
351 458 0 0 0 -1
387 458 0 0 0 -1
387 468 0 0 0 -1
341 468 100 0 0 1
351 458 100 0 0 1
387 458 100 0 0 1
387 468 100 0 0 1
351 458 0 0 0 -1
341 468 0 0 0 -1
341 220 0 0 0 -1
351 225 0 0 0 -1
351 458 100 0 0 1
341 468 100 0 0 1
341 220 100 0 0 1
351 225 100 0 0 1
536 220 0 0 0 -1
536 230 0 0 0 -1
341 230 0 0 0 -1
341 220 0 0 0 -1
536 220 100 0 0 1
536 230 100 0 0 1
341 230 100 0 0 1
341 220 100 0 0 1
558 301 0 0 0 -1
568 301 0 0 0 -1
568 354 0 0 0 -1
558 354 0 0 0 -1
558 301 100 0 0 1
568 301 100 0 0 1
568 354 100 0 0 1
558 354 100 0 0 1
563 364 0 0 0 -1
568 354 0 0 0 -1
599 354 0 0 0 -1
599 364 0 0 0 -1
563 364 100 0 0 1
568 354 100 0 0 1
599 354 100 0 0 1
599 364 100 0 0 1
558 354 0 0 0 -1
563 364 0 0 0 -1
474 364 0 0 0 -1
474 354 0 0 0 -1
558 354 100 0 0 1
563 364 100 0 0 1
474 364 100 0 0 1
474 354 100 0 0 1
599 378 0 0 0 -1
589 378 0 0 0 -1
589 359 0 0 0 -1
599 354 0 0 0 -1
599 378 100 0 0 1
589 378 100 0 0 1
589 359 100 0 0 1
599 354 100 0 0 1
599 364 0 0 0 -1
589 359 0 0 0 -1
589 267 0 0 0 -1
599 267 0 0 0 -1
599 364 100 0 0 1
589 359 100 0 0 1
589 267 100 0 0 1
599 267 100 0 0 1
661 259 0 0 0 -1
661 249 0 0 0 -1
694 249 0 0 0 -1
704 259 0 0 0 -1
661 259 100 0 0 1
661 249 100 0 0 1
694 249 100 0 0 1
704 259 100 0 0 1
643 272 0 0 0 -1
643 262 0 0 0 -1
704 262 0 0 0 -1
694 272 0 0 0 -1
643 272 100 0 0 1
643 262 100 0 0 1
704 262 100 0 0 1
694 272 100 0 0 1
474 309 0 0 0 -1
484 309 0 0 0 -1
484 359 0 0 0 -1
474 364 0 0 0 -1
474 309 100 0 0 1
484 309 100 0 0 1
484 359 100 0 0 1
474 364 100 0 0 1
341 230 0 0 0 -1
351 225 0 0 0 -1
341 220 0 0 0 -1
341 230 100 0 0 1
351 225 100 0 0 1
341 220 100 0 0 1
568 354 0 0 0 -1
563 364 0 0 0 -1
558 354 0 0 0 -1
568 354 100 0 0 1
563 364 100 0 0 1
558 354 100 0 0 1
589 359 0 0 0 -1
599 364 0 0 0 -1
599 354 0 0 0 -1
589 359 100 0 0 1
599 364 100 0 0 1
599 354 100 0 0 1
484 359 0 0 0 -1
474 354 0 0 0 -1
474 364 0 0 0 -1
484 359 100 0 0 1
474 354 100 0 0 1
474 364 100 0 0 1
4 0 1 2 3
4 4 5 6 7
4 8 9 10 11
4 12 13 14 15
4 16 17 18 19
4 20 21 22 23
4 24 25 26 27
4 28 29 30 31
4 32 33 34 35
4 36 37 38 39
4 40 41 42 43
4 44 45 46 47
4 48 49 50 51
4 52 53 54 55
4 56 57 58 59
4 60 61 62 63
4 64 65 66 67
4 68 69 70 71
4 72 73 74 75
4 76 77 78 79
4 80 81 82 83
4 84 85 86 87
4 88 89 90 91
4 92 93 94 95
4 96 97 98 99
4 100 101 102 103
4 104 105 106 107
4 108 109 110 111
4 112 113 114 115
4 116 117 118 119
4 120 121 122 123
4 124 125 126 127
4 128 129 130 131
4 132 133 134 135
4 136 137 138 139
4 140 141 142 143
4 144 145 146 147
4 148 149 150 151
4 152 153 154 155
4 156 157 158 159
4 160 161 162 163
4 164 165 166 167
4 168 169 170 171
4 172 173 174 175
4 176 177 178 179
4 180 181 182 183
4 184 185 186 187
4 188 189 190 191
4 192 193 194 195
4 196 197 198 199
4 200 201 202 203
4 204 205 206 207
4 208 209 210 211
4 212 213 214 215
4 216 217 218 219
4 220 221 222 223
4 224 225 226 227
4 228 229 230 231
4 232 233 234 235
4 236 237 238 239
4 240 241 242 243
4 244 245 246 247
4 248 249 250 251
4 252 253 254 255
4 256 257 258 259
4 260 261 262 263
4 264 265 266 267
4 268 269 270 271
4 272 273 274 275
4 276 277 278 279
4 280 281 282 283
4 284 285 286 287
4 288 289 290 291
4 292 293 294 295
4 296 297 298 299
4 300 301 302 303
4 304 305 306 307
4 308 309 310 311
4 312 313 314 315
4 316 317 318 319
4 320 321 322 323
4 324 325 326 327
4 328 329 330 331
4 332 333 334 335
4 336 337 338 339
4 340 341 342 343
4 344 345 346 347
4 348 349 350 351
4 352 353 354 355
4 356 357 358 359
4 360 361 362 363
4 364 365 366 367
4 368 369 370 371
4 372 373 374 375
4 376 377 378 379
4 380 381 382 383
4 384 385 386 387
4 388 389 390 391
4 392 393 394 395
4 396 397 398 399
4 400 401 402 403
4 404 405 406 407
4 408 409 410 411
4 412 413 414 415
4 416 417 418 419
4 420 421 422 423
3 424 425 426
3 427 428 429
3 430 431 432
3 433 434 435
3 436 437 438
3 439 440 441
3 442 443 444
3 445 446 447
