ply
format ascii 1.0
element vertex 780
property float x
property float y
property float z
property float nx
property float ny
property float nz
element quads 176
property list uchar int vertex_indices
element triads 28
property list uchar int vertex_indices
end_header
190 395 0 1 0 0
190 310 0 1 0 0
190 310 100 1 0 0
190 395 100 1 0 0
180 395 0 -1 -0 0
180 300 0 -1 -0 0
180 300 100 -1 -0 0
180 395 100 -1 -0 0
190 310 0 -0 1 0
247 310 0 -0 1 0
247 310 100 -0 1 0
190 310 100 -0 1 0
180 300 0 0 -1 0
242 300 0 0 -1 0
242 300 100 0 -1 0
180 300 100 0 -1 0
649 310 0 1 0 0
649 288 0 1 0 0
649 288 100 1 0 0
649 310 100 1 0 0
639 300 0 -1 -0 0
639 288 0 -1 -0 0
639 288 100 -1 -0 0
639 300 100 -1 -0 0
639 300 0 -0 -1 0
597 300 0 -0 -1 0
597 300 100 -0 -1 0
639 300 100 -0 -1 0
649 310 0 0 1 0
607 310 0 0 1 0
607 310 100 0 1 0
649 310 100 0 1 0
649 216 0 1 0 0
649 194 0 1 0 0
649 194 100 1 0 0
649 216 100 1 0 0
639 216 0 -1 -0 0
639 204 0 -1 -0 0
639 204 100 -1 -0 0
639 216 100 -1 -0 0
649 194 0 -0 -1 0
601 194 0 -0 -1 0
601 194 100 -0 -1 0
649 194 100 -0 -1 0
639 204 0 0 1 0
596 204 0 0 1 0
596 204 100 0 1 0
639 204 100 0 1 0
444 77 0 -0 1 0
464 77 0 -0 1 0
464 77 100 -0 1 0
444 77 100 -0 1 0
444 67 0 0 -1 0
474 67 0 0 -1 0
474 67 100 0 -1 0
444 67 100 0 -1 0
464 77 0 -1 0 0
464 204 0 -1 0 0
464 204 100 -1 0 0
464 77 100 -1 0 0
474 67 0 1 -0 0
474 199 0 1 -0 0
474 199 100 1 -0 0
474 67 100 1 -0 0
180 445 0 -1 0 0
180 535 0 -1 0 0
180 535 100 -1 0 0
180 445 100 -1 0 0
190 445 0 1 -0 0
190 535 0 1 -0 0
190 535 100 1 -0 0
190 445 100 1 -0 0
379 37 0 -1 0 0
379 164 0 -1 0 0
379 164 100 -1 0 0
379 37 100 -1 0 0
389 27 0 1 -0 0
389 164 0 1 -0 0
389 164 100 1 -0 0
389 27 100 1 -0 0
389 27 0 -0 -1 0
237 27 0 -0 -1 0
237 27 100 -0 -1 0
389 27 100 -0 -1 0
379 37 0 0 1 0
247 37 0 0 1 0
247 37 100 0 1 0
379 37 100 0 1 0
507 466 0 -0 1 0
538 466 0 -0 1 0
538 466 100 -0 1 0
507 466 100 -0 1 0
507 456 0 0 -1 0
538 456 0 0 -1 0
538 456 100 0 -1 0
507 456 100 0 -1 0
237 27 0 -1 0 0
237 204 0 -1 0 0
237 204 100 -1 0 0
237 27 100 -1 0 0
247 37 0 1 -0 0
247 199 0 1 -0 0
247 199 100 1 -0 0
247 37 100 1 -0 0
464 254 0 -0 -1 0
439 254 0 -0 -1 0
439 254 100 -0 -1 0
464 254 100 -0 -1 0
474 264 0 0 1 0
444 264 0 0 1 0
444 264 100 0 1 0
474 264 100 0 1 0
474 264 0 1 0 0
474 199 0 1 0 0
474 199 100 1 0 0
474 264 100 1 0 0
464 254 0 -1 -0 0
464 204 0 -1 -0 0
464 204 100 -1 -0 0
464 254 100 -1 -0 0
449 254 0 -0 -1 0
366 254 0 -0 -1 0
366 254 100 -0 -1 0
449 254 100 -0 -1 0
444 264 0 0 1 0
371 264 0 0 1 0
371 264 100 0 1 0
444 264 100 0 1 0
439 254 0 -1 0 0
439 300 0 -1 0 0
439 300 100 -1 0 0
439 254 100 -1 0 0
449 254 0 1 -0 0
449 305 0 1 -0 0
449 305 100 1 -0 0
449 254 100 1 -0 0
358 194 0 -0 -1 0
237 194 0 -0 -1 0
237 194 100 -0 -1 0
358 194 100 -0 -1 0
348 204 0 0 1 0
237 204 0 0 1 0
237 204 100 0 1 0
348 204 100 0 1 0
348 204 0 -1 0 0
348 259 0 -1 0 0
348 259 100 -1 0 0
348 204 100 -1 0 0
358 194 0 1 -0 0
358 254 0 1 -0 0
358 254 100 1 -0 0
358 194 100 1 -0 0
237 194 0 -1 0 0
237 310 0 -1 0 0
237 310 100 -1 0 0
237 194 100 -1 0 0
247 199 0 1 -0 0
247 310 0 1 -0 0
247 310 100 1 -0 0
247 199 100 1 -0 0
597 300 0 -1 0 0
597 461 0 -1 0 0
597 461 100 -1 0 0
597 300 100 -1 0 0
607 310 0 1 -0 0
607 461 0 1 -0 0
607 461 100 1 -0 0
607 310 100 1 -0 0
577 204 0 -0 1 0
606 204 0 -0 1 0
606 204 100 -0 1 0
577 204 100 -0 1 0
577 194 0 0 -1 0
601 194 0 0 -1 0
601 194 100 0 -1 0
577 194 100 0 -1 0
606 204 0 1 0 0
606 72 0 1 0 0
606 72 100 1 0 0
606 204 100 1 0 0
596 204 0 -1 -0 0
596 77 0 -1 -0 0
596 77 100 -1 -0 0
596 204 100 -1 -0 0
606 461 0 1 0 0
606 300 0 1 0 0
606 300 100 1 0 0
606 461 100 1 0 0
596 461 0 -1 -0 0
596 310 0 -1 -0 0
596 310 100 -1 -0 0
596 461 100 -1 -0 0
606 300 0 -0 -1 0
577 300 0 -0 -1 0
577 300 100 -0 -1 0
606 300 100 -0 -1 0
596 310 0 0 1 0
577 310 0 0 1 0
577 310 100 0 1 0
596 310 100 0 1 0
358 264 0 -0 1 0
371 264 0 -0 1 0
371 264 100 -0 1 0
358 264 100 -0 1 0
358 254 0 0 -1 0
376 254 0 0 -1 0
376 254 100 0 -1 0
358 254 100 0 -1 0
348 259 0 -1 0 0
348 305 0 -1 0 0
348 305 100 -1 0 0
348 259 100 -1 0 0
358 264 0 1 -0 0
358 300 0 1 -0 0
358 300 100 1 -0 0
358 264 100 1 -0 0
419 204 0 -0 1 0
464 204 0 -0 1 0
464 204 100 -0 1 0
419 204 100 -0 1 0
419 194 0 0 -1 0
469 194 0 0 -1 0
469 194 100 0 -1 0
419 194 100 0 -1 0
464 204 0 -0 1 0
494 204 0 -0 1 0
494 204 100 -0 1 0
464 204 100 -0 1 0
469 194 0 0 -1 0
494 194 0 0 -1 0
494 194 100 0 -1 0
469 194 100 0 -1 0
517 77 0 -0 1 0
596 77 0 -0 1 0
596 77 100 -0 1 0
517 77 100 -0 1 0
517 67 0 0 -1 0
596 67 0 0 -1 0
596 67 100 0 -1 0
517 67 100 0 -1 0
606 72 0 1 0 0
606 32 0 1 0 0
606 32 100 1 0 0
606 72 100 1 0 0
596 67 0 -1 -0 0
596 32 0 -1 -0 0
596 32 100 -1 -0 0
596 67 100 -1 -0 0
384 466 0 -0 1 0
449 466 0 -0 1 0
449 466 100 -0 1 0
384 466 100 -0 1 0
384 456 0 0 -1 0
444 456 0 0 -1 0
444 456 100 0 -1 0
384 456 100 0 -1 0
439 466 0 -0 1 0
469 466 0 -0 1 0
469 466 100 -0 1 0
439 466 100 -0 1 0
444 456 0 0 -1 0
469 456 0 0 -1 0
469 456 100 0 -1 0
444 456 100 0 -1 0
449 466 0 1 0 0
449 305 0 1 0 0
449 305 100 1 0 0
449 466 100 1 0 0
439 466 0 -1 -0 0
439 310 0 -1 -0 0
439 310 100 -1 -0 0
439 466 100 -1 -0 0
237 310 0 -0 1 0
353 310 0 -0 1 0
353 310 100 -0 1 0
237 310 100 -0 1 0
242 300 0 0 -1 0
358 300 0 0 -1 0
358 300 100 0 -1 0
242 300 100 0 -1 0
376 300 0 1 0 0
376 254 0 1 0 0
376 254 100 1 0 0
376 300 100 1 0 0
366 300 0 -1 -0 0
366 254 0 -1 -0 0
366 254 100 -1 -0 0
366 300 100 -1 -0 0
371 310 0 -0 1 0
439 310 0 -0 1 0
439 310 100 -0 1 0
371 310 100 -0 1 0
376 300 0 0 -1 0
439 300 0 0 -1 0
439 300 100 0 -1 0
376 300 100 0 -1 0
366 300 0 -0 -1 0
358 300 0 -0 -1 0
358 300 100 -0 -1 0
366 300 100 -0 -1 0
371 310 0 0 1 0
353 310 0 0 1 0
353 310 100 0 1 0
371 310 100 0 1 0
358 535 0 1 0 0
358 300 0 1 0 0
358 300 100 1 0 0
358 535 100 1 0 0
348 535 0 -1 -0 0
348 305 0 -1 -0 0
348 305 100 -1 -0 0
348 535 100 -1 -0 0
190 395 0 187.76470947265625 391.352935791015625 0
180 395 0 187.76470947265625 391.352935791015625 0
180 395 100 187.76470947265625 391.352935791015625 0
190 395 100 187.76470947265625 391.352935791015625 0
649 288 0 619.5 273.909088134765625 0
639 288 0 619.5 273.909088134765625 0
639 288 100 619.5 273.909088134765625 0
649 288 100 619.5 273.909088134765625 0
649 216 0 619.5 207.18182373046875 0
639 216 0 619.5 207.18182373046875 0
639 216 100 619.5 207.18182373046875 0
649 216 100 619.5 207.18182373046875 0
444 77 0 420.79998779296875 73.1500015258789062 0
444 67 0 420.79998779296875 73.1500015258789062 0
444 67 100 420.79998779296875 73.1500015258789062 0
444 77 100 420.79998779296875 73.1500015258789062 0
180 445 0 178 439.0555419921875 0
190 445 0 178 439.0555419921875 0
190 445 100 178 439.0555419921875 0
180 445 100 178 439.0555419921875 0
180 535 0 178 530.0555419921875 0
190 535 0 178 530.0555419921875 0
190 535 100 178 530.0555419921875 0
180 535 100 178 530.0555419921875 0
379 164 0 376.0157470703125 163.708663940429688 0
389 164 0 376.0157470703125 163.708663940429688 0
389 164 100 376.0157470703125 163.708663940429688 0
379 164 100 376.0157470703125 163.708663940429688 0
507 466 0 489.645172119140625 450.967742919921875 0
507 456 0 489.645172119140625 450.967742919921875 0
507 456 100 489.645172119140625 450.967742919921875 0
507 466 100 489.645172119140625 450.967742919921875 0
538 466 0 521.6451416015625 450.967742919921875 0
538 456 0 521.6451416015625 450.967742919921875 0
538 456 100 521.6451416015625 450.967742919921875 0
538 466 100 521.6451416015625 450.967742919921875 0
597 461 0 593.29193115234375 459.13665771484375 0
607 461 0 593.29193115234375 459.13665771484375 0
607 461 100 593.29193115234375 459.13665771484375 0
597 461 100 593.29193115234375 459.13665771484375 0
577 204 0 556.10345458984375 196.96551513671875 0
577 194 0 556.10345458984375 196.96551513671875 0
577 194 100 556.10345458984375 196.96551513671875 0
577 204 100 556.10345458984375 196.96551513671875 0
606 461 0 602.23602294921875 459.13665771484375 0
596 461 0 602.23602294921875 459.13665771484375 0
596 461 100 602.23602294921875 459.13665771484375 0
606 461 100 602.23602294921875 459.13665771484375 0
577 300 0 556.10345458984375 289.655181884765625 0
577 310 0 556.10345458984375 289.655181884765625 0
577 310 100 556.10345458984375 289.655181884765625 0
577 300 100 556.10345458984375 289.655181884765625 0
419 204 0 408.68890380859375 199.466659545898438 0
419 194 0 408.68890380859375 199.466659545898438 0
419 194 100 408.68890380859375 199.466659545898438 0
419 204 100 408.68890380859375 199.466659545898438 0
494 204 0 478.5333251953125 197.199996948242188 0
494 194 0 478.5333251953125 197.199996948242188 0
494 194 100 478.5333251953125 197.199996948242188 0
494 204 100 478.5333251953125 197.199996948242188 0
517 77 0 509.4556884765625 76.0253143310546875 0
517 67 0 509.4556884765625 76.0253143310546875 0
517 67 100 509.4556884765625 76.0253143310546875 0
517 77 100 509.4556884765625 76.0253143310546875 0
606 32 0 590.8499755859375 30.2000007629394531 0
596 32 0 590.8499755859375 30.2000007629394531 0
596 32 100 590.8499755859375 30.2000007629394531 0
606 32 100 590.8499755859375 30.2000007629394531 0
384 466 0 377.092315673828125 458.830780029296875 0
384 456 0 377.092315673828125 458.830780029296875 0
384 456 100 377.092315673828125 458.830780029296875 0
384 466 100 377.092315673828125 458.830780029296875 0
469 466 0 454.366668701171875 450.4666748046875 0
469 456 0 454.366668701171875 450.4666748046875 0
469 456 100 454.366668701171875 450.4666748046875 0
469 466 100 454.366668701171875 450.4666748046875 0
358 535 0 356.476593017578125 533.723388671875 0
348 535 0 356.476593017578125 533.723388671875 0
348 535 100 356.476593017578125 533.723388671875 0
358 535 100 356.476593017578125 533.723388671875 0
190 395 0 0 0 -1
180 395 0 0 0 -1
180 300 0 0 0 -1
190 310 0 0 0 -1
190 395 100 0 0 1
180 395 100 0 0 1
180 300 100 0 0 1
190 310 100 0 0 1
190 310 0 0 0 -1
180 300 0 0 0 -1
242 300 0 0 0 -1
247 310 0 0 0 -1
190 310 100 0 0 1
180 300 100 0 0 1
242 300 100 0 0 1
247 310 100 0 0 1
649 310 0 0 0 -1
639 300 0 0 0 -1
639 288 0 0 0 -1
649 288 0 0 0 -1
649 310 100 0 0 1
639 300 100 0 0 1
639 288 100 0 0 1
649 288 100 0 0 1
639 300 0 0 0 -1
649 310 0 0 0 -1
607 310 0 0 0 -1
597 300 0 0 0 -1
639 300 100 0 0 1
649 310 100 0 0 1
607 310 100 0 0 1
597 300 100 0 0 1
649 216 0 0 0 -1
639 216 0 0 0 -1
639 204 0 0 0 -1
649 194 0 0 0 -1
649 216 100 0 0 1
639 216 100 0 0 1
639 204 100 0 0 1
649 194 100 0 0 1
649 194 0 0 0 -1
639 204 0 0 0 -1
596 204 0 0 0 -1
601 194 0 0 0 -1
649 194 100 0 0 1
639 204 100 0 0 1
596 204 100 0 0 1
601 194 100 0 0 1
444 77 0 0 0 -1
444 67 0 0 0 -1
474 67 0 0 0 -1
464 77 0 0 0 -1
444 77 100 0 0 1
444 67 100 0 0 1
474 67 100 0 0 1
464 77 100 0 0 1
464 77 0 0 0 -1
474 67 0 0 0 -1
474 199 0 0 0 -1
464 204 0 0 0 -1
464 77 100 0 0 1
474 67 100 0 0 1
474 199 100 0 0 1
464 204 100 0 0 1
180 445 0 0 0 -1
190 445 0 0 0 -1
190 535 0 0 0 -1
180 535 0 0 0 -1
180 445 100 0 0 1
190 445 100 0 0 1
190 535 100 0 0 1
180 535 100 0 0 1
379 37 0 0 0 -1
389 27 0 0 0 -1
389 164 0 0 0 -1
379 164 0 0 0 -1
379 37 100 0 0 1
389 27 100 0 0 1
389 164 100 0 0 1
379 164 100 0 0 1
389 27 0 0 0 -1
379 37 0 0 0 -1
247 37 0 0 0 -1
237 27 0 0 0 -1
389 27 100 0 0 1
379 37 100 0 0 1
247 37 100 0 0 1
237 27 100 0 0 1
507 466 0 0 0 -1
507 456 0 0 0 -1
538 456 0 0 0 -1
538 466 0 0 0 -1
507 466 100 0 0 1
507 456 100 0 0 1
538 456 100 0 0 1
538 466 100 0 0 1
237 27 0 0 0 -1
247 37 0 0 0 -1
247 199 0 0 0 -1
237 204 0 0 0 -1
237 27 100 0 0 1
247 37 100 0 0 1
247 199 100 0 0 1
237 204 100 0 0 1
464 254 0 0 0 -1
474 264 0 0 0 -1
444 264 0 0 0 -1
439 254 0 0 0 -1
464 254 100 0 0 1
474 264 100 0 0 1
444 264 100 0 0 1
439 254 100 0 0 1
474 264 0 0 0 -1
464 254 0 0 0 -1
464 204 0 0 0 -1
474 199 0 0 0 -1
474 264 100 0 0 1
464 254 100 0 0 1
464 204 100 0 0 1
474 199 100 0 0 1
449 254 0 0 0 -1
444 264 0 0 0 -1
371 264 0 0 0 -1
366 254 0 0 0 -1
449 254 100 0 0 1
444 264 100 0 0 1
371 264 100 0 0 1
366 254 100 0 0 1
439 254 0 0 0 -1
449 254 0 0 0 -1
449 305 0 0 0 -1
439 300 0 0 0 -1
439 254 100 0 0 1
449 254 100 0 0 1
449 305 100 0 0 1
439 300 100 0 0 1
358 194 0 0 0 -1
348 204 0 0 0 -1
237 204 0 0 0 -1
237 194 0 0 0 -1
358 194 100 0 0 1
348 204 100 0 0 1
237 204 100 0 0 1
237 194 100 0 0 1
348 204 0 0 0 -1
358 194 0 0 0 -1
358 254 0 0 0 -1
348 259 0 0 0 -1
348 204 100 0 0 1
358 194 100 0 0 1
358 254 100 0 0 1
348 259 100 0 0 1
237 194 0 0 0 -1
247 199 0 0 0 -1
247 310 0 0 0 -1
237 310 0 0 0 -1
237 194 100 0 0 1
247 199 100 0 0 1
247 310 100 0 0 1
237 310 100 0 0 1
597 300 0 0 0 -1
607 310 0 0 0 -1
607 461 0 0 0 -1
597 461 0 0 0 -1
597 300 100 0 0 1
607 310 100 0 0 1
607 461 100 0 0 1
597 461 100 0 0 1
577 204 0 0 0 -1
577 194 0 0 0 -1
601 194 0 0 0 -1
606 204 0 0 0 -1
577 204 100 0 0 1
577 194 100 0 0 1
601 194 100 0 0 1
606 204 100 0 0 1
606 204 0 0 0 -1
596 204 0 0 0 -1
596 77 0 0 0 -1
606 72 0 0 0 -1
606 204 100 0 0 1
596 204 100 0 0 1
596 77 100 0 0 1
606 72 100 0 0 1
606 461 0 0 0 -1
596 461 0 0 0 -1
596 310 0 0 0 -1
606 300 0 0 0 -1
606 461 100 0 0 1
596 461 100 0 0 1
596 310 100 0 0 1
606 300 100 0 0 1
606 300 0 0 0 -1
596 310 0 0 0 -1
577 310 0 0 0 -1
577 300 0 0 0 -1
606 300 100 0 0 1
596 310 100 0 0 1
577 310 100 0 0 1
577 300 100 0 0 1
358 264 0 0 0 -1
358 254 0 0 0 -1
376 254 0 0 0 -1
371 264 0 0 0 -1
358 264 100 0 0 1
358 254 100 0 0 1
376 254 100 0 0 1
371 264 100 0 0 1
348 259 0 0 0 -1
358 264 0 0 0 -1
358 300 0 0 0 -1
348 305 0 0 0 -1
348 259 100 0 0 1
358 264 100 0 0 1
358 300 100 0 0 1
348 305 100 0 0 1
419 204 0 0 0 -1
419 194 0 0 0 -1
469 194 0 0 0 -1
464 204 0 0 0 -1
419 204 100 0 0 1
419 194 100 0 0 1
469 194 100 0 0 1
464 204 100 0 0 1
464 204 0 0 0 -1
469 194 0 0 0 -1
494 194 0 0 0 -1
494 204 0 0 0 -1
464 204 100 0 0 1
469 194 100 0 0 1
494 194 100 0 0 1
494 204 100 0 0 1
517 77 0 0 0 -1
517 67 0 0 0 -1
596 67 0 0 0 -1
596 77 0 0 0 -1
517 77 100 0 0 1
517 67 100 0 0 1
596 67 100 0 0 1
596 77 100 0 0 1
606 72 0 0 0 -1
596 67 0 0 0 -1
596 32 0 0 0 -1
606 32 0 0 0 -1
606 72 100 0 0 1
596 67 100 0 0 1
596 32 100 0 0 1
606 32 100 0 0 1
384 466 0 0 0 -1
384 456 0 0 0 -1
444 456 0 0 0 -1
449 466 0 0 0 -1
384 466 100 0 0 1
384 456 100 0 0 1
444 456 100 0 0 1
449 466 100 0 0 1
439 466 0 0 0 -1
444 456 0 0 0 -1
469 456 0 0 0 -1
469 466 0 0 0 -1
439 466 100 0 0 1
444 456 100 0 0 1
469 456 100 0 0 1
469 466 100 0 0 1
449 466 0 0 0 -1
439 466 0 0 0 -1
439 310 0 0 0 -1
449 305 0 0 0 -1
449 466 100 0 0 1
439 466 100 0 0 1
439 310 100 0 0 1
449 305 100 0 0 1
237 310 0 0 0 -1
242 300 0 0 0 -1
358 300 0 0 0 -1
353 310 0 0 0 -1
237 310 100 0 0 1
242 300 100 0 0 1
358 300 100 0 0 1
353 310 100 0 0 1
376 300 0 0 0 -1
366 300 0 0 0 -1
366 254 0 0 0 -1
376 254 0 0 0 -1
376 300 100 0 0 1
366 300 100 0 0 1
366 254 100 0 0 1
376 254 100 0 0 1
371 310 0 0 0 -1
376 300 0 0 0 -1
439 300 0 0 0 -1
439 310 0 0 0 -1
371 310 100 0 0 1
376 300 100 0 0 1
439 300 100 0 0 1
439 310 100 0 0 1
366 300 0 0 0 -1
371 310 0 0 0 -1
353 310 0 0 0 -1
358 300 0 0 0 -1
366 300 100 0 0 1
371 310 100 0 0 1
353 310 100 0 0 1
358 300 100 0 0 1
358 535 0 0 0 -1
348 535 0 0 0 -1
348 305 0 0 0 -1
358 300 0 0 0 -1
358 535 100 0 0 1
348 535 100 0 0 1
348 305 100 0 0 1
358 300 100 0 0 1
444 264 0 0 0 -1
449 254 0 0 0 -1
439 254 0 0 0 -1
444 264 100 0 0 1
449 254 100 0 0 1
439 254 100 0 0 1
237 204 0 0 0 -1
247 199 0 0 0 -1
237 194 0 0 0 -1
237 204 100 0 0 1
247 199 100 0 0 1
237 194 100 0 0 1
601 194 0 0 0 -1
596 204 0 0 0 -1
606 204 0 0 0 -1
601 194 100 0 0 1
596 204 100 0 0 1
606 204 100 0 0 1
358 254 0 0 0 -1
358 264 0 0 0 -1
348 259 0 0 0 -1
358 254 100 0 0 1
358 264 100 0 0 1
348 259 100 0 0 1
469 194 0 0 0 -1
464 204 0 0 0 -1
474 199 0 0 0 -1
464 204 0 0 0 -1
469 194 100 0 0 1
464 204 100 0 0 1
474 199 100 0 0 1
464 204 100 0 0 1
596 67 0 0 0 -1
606 72 0 0 0 -1
596 77 0 0 0 -1
596 67 100 0 0 1
606 72 100 0 0 1
596 77 100 0 0 1
444 456 0 0 0 -1
439 466 0 0 0 -1
449 466 0 0 0 -1
444 456 100 0 0 1
439 466 100 0 0 1
449 466 100 0 0 1
247 310 0 0 0 -1
242 300 0 0 0 -1
237 310 0 0 0 -1
247 310 100 0 0 1
242 300 100 0 0 1
237 310 100 0 0 1
376 300 0 0 0 -1
371 310 0 0 0 -1
366 300 0 0 0 -1
376 300 100 0 0 1
371 310 100 0 0 1
366 300 100 0 0 1
366 254 0 0 0 -1
371 264 0 0 0 -1
376 254 0 0 0 -1
366 254 100 0 0 1
371 264 100 0 0 1
376 254 100 0 0 1
439 300 0 0 0 -1
449 305 0 0 0 -1
439 310 0 0 0 -1
439 300 100 0 0 1
449 305 100 0 0 1
439 310 100 0 0 1
348 305 0 0 0 -1
358 300 0 0 0 -1
353 310 0 0 0 -1
358 300 0 0 0 -1
348 305 100 0 0 1
358 300 100 0 0 1
353 310 100 0 0 1
358 300 100 0 0 1
4 0 1 2 3
4 4 5 6 7
4 8 9 10 11
4 12 13 14 15
4 16 17 18 19
4 20 21 22 23
4 24 25 26 27
4 28 29 30 31
4 32 33 34 35
4 36 37 38 39
4 40 41 42 43
4 44 45 46 47
4 48 49 50 51
4 52 53 54 55
4 56 57 58 59
4 60 61 62 63
4 64 65 66 67
4 68 69 70 71
4 72 73 74 75
4 76 77 78 79
4 80 81 82 83
4 84 85 86 87
4 88 89 90 91
4 92 93 94 95
4 96 97 98 99
4 100 101 102 103
4 104 105 106 107
4 108 109 110 111
4 112 113 114 115
4 116 117 118 119
4 120 121 122 123
4 124 125 126 127
4 128 129 130 131
4 132 133 134 135
4 136 137 138 139
4 140 141 142 143
4 144 145 146 147
4 148 149 150 151
4 152 153 154 155
4 156 157 158 159
4 160 161 162 163
4 164 165 166 167
4 168 169 170 171
4 172 173 174 175
4 176 177 178 179
4 180 181 182 183
4 184 185 186 187
4 188 189 190 191
4 192 193 194 195
4 196 197 198 199
4 200 201 202 203
4 204 205 206 207
4 208 209 210 211
4 212 213 214 215
4 216 217 218 219
4 220 221 222 223
4 224 225 226 227
4 228 229 230 231
4 232 233 234 235
4 236 237 238 239
4 240 241 242 243
4 244 245 246 247
4 248 249 250 251
4 252 253 254 255
4 256 257 258 259
4 260 261 262 263
4 264 265 266 267
4 268 269 270 271
4 272 273 274 275
4 276 277 278 279
4 280 281 282 283
4 284 285 286 287
4 288 289 290 291
4 292 293 294 295
4 296 297 298 299
4 300 301 302 303
4 304 305 306 307
4 308 309 310 311
4 312 313 314 315
4 316 317 318 319
4 320 321 322 323
4 324 325 326 327
4 328 329 330 331
4 332 333 334 335
4 336 337 338 339
4 340 341 342 343
4 344 345 346 347
4 348 349 350 351
4 352 353 354 355
4 356 357 358 359
4 360 361 362 363
4 364 365 366 367
4 368 369 370 371
4 372 373 374 375
4 376 377 378 379
4 380 381 382 383
4 384 385 386 387
4 388 389 390 391
4 392 393 394 395
4 396 397 398 399
4 400 401 402 403
4 404 405 406 407
4 408 409 410 411
4 412 413 414 415
4 416 417 418 419
4 420 421 422 423
4 424 425 426 427
4 428 429 430 431
4 432 433 434 435
4 436 437 438 439
4 440 441 442 443
4 444 445 446 447
4 448 449 450 451
4 452 453 454 455
4 456 457 458 459
4 460 461 462 463
4 464 465 466 467
4 468 469 470 471
4 472 473 474 475
4 476 477 478 479
4 480 481 482 483
4 484 485 486 487
4 488 489 490 491
4 492 493 494 495
4 496 497 498 499
4 500 501 502 503
4 504 505 506 507
4 508 509 510 511
4 512 513 514 515
4 516 517 518 519
4 520 521 522 523
4 524 525 526 527
4 528 529 530 531
4 532 533 534 535
4 536 537 538 539
4 540 541 542 543
4 544 545 546 547
4 548 549 550 551
4 552 553 554 555
4 556 557 558 559
4 560 561 562 563
4 564 565 566 567
4 568 569 570 571
4 572 573 574 575
4 576 577 578 579
4 580 581 582 583
4 584 585 586 587
4 588 589 590 591
4 592 593 594 595
4 596 597 598 599
4 600 601 602 603
4 604 605 606 607
4 608 609 610 611
4 612 613 614 615
4 616 617 618 619
4 620 621 622 623
4 624 625 626 627
4 628 629 630 631
4 632 633 634 635
4 636 637 638 639
4 640 641 642 643
4 644 645 646 647
4 648 649 650 651
4 652 653 654 655
4 656 657 658 659
4 660 661 662 663
4 664 665 666 667
4 668 669 670 671
4 672 673 674 675
4 676 677 678 679
4 680 681 682 683
4 684 685 686 687
4 688 689 690 691
4 692 693 694 695
4 696 697 698 699
4 700 701 702 703
3 704 705 706
3 707 708 709
3 710 711 712
3 713 714 715
3 716 717 718
3 719 720 721
3 722 723 724
3 725 726 727
3 728 729 730
3 729 730 731
3 732 733 734
3 733 734 735
3 736 737 738
3 739 740 741
3 742 743 744
3 745 746 747
3 748 749 750
3 751 752 753
3 754 755 756
3 757 758 759
3 760 761 762
3 763 764 765
3 766 767 768
3 769 770 771
3 772 773 774
3 773 774 775
3 776 777 778
3 777 778 779
