ply
format ascii 1.0
element vertex 418
property float x
property float y
property float z
property float nx
property float ny
property float nz
element quads 97
property list uchar int vertex_indices
element triads 10
property list uchar int vertex_indices
end_header
573 191 0 1 0 0
573 159 0 1 0 0
573 159 100 1 0 0
573 191 100 1 0 0
563 181 0 -1 -0 0
563 149 0 -1 -0 0
563 149 100 -1 -0 0
563 181 100 -1 -0 0
563 181 0 -0 -1 0
460 181 0 -0 -1 0
460 181 100 -0 -1 0
563 181 100 -0 -1 0
573 191 0 0 1 0
465 191 0 0 1 0
465 191 100 0 1 0
573 191 100 0 1 0
573 159 0 -0 1 0
614 159 0 -0 1 0
614 159 100 -0 1 0
573 159 100 -0 1 0
563 149 0 0 -1 0
614 149 0 0 -1 0
614 149 100 0 -1 0
563 149 100 0 -1 0
366 27 0 -0 1 0
503 27 0 -0 1 0
503 27 100 -0 1 0
366 27 100 -0 1 0
366 17 0 0 -1 0
503 17 0 0 -1 0
503 17 100 0 -1 0
366 17 100 0 -1 0
220 441 0 -1 0 0
220 499 0 -1 0 0
220 499 100 -1 0 0
220 441 100 -1 0 0
230 441 0 1 -0 0
230 499 0 1 -0 0
230 499 100 1 -0 0
230 441 100 1 -0 0
568 27 0 -0 1 0
614 27 0 -0 1 0
614 27 100 -0 1 0
568 27 100 -0 1 0
568 17 0 0 -1 0
624 17 0 0 -1 0
624 17 100 0 -1 0
568 17 100 0 -1 0
614 27 0 -1 0 0
614 149 0 -1 0 0
614 149 100 -1 0 0
614 27 100 -1 0 0
624 17 0 1 -0 0
624 154 0 1 -0 0
624 154 100 1 -0 0
624 17 100 1 -0 0
214 27 0 -0 1 0
259 27 0 -0 1 0
259 27 100 -0 1 0
214 27 100 -0 1 0
204 17 0 0 -1 0
259 17 0 0 -1 0
259 17 100 0 -1 0
204 17 100 0 -1 0
204 17 0 -1 0 0
204 499 0 -1 0 0
204 499 100 -1 0 0
204 17 100 -1 0 0
214 27 0 1 -0 0
214 499 0 1 -0 0
214 499 100 1 -0 0
214 27 100 1 -0 0
614 159 0 -1 0 0
614 290 0 -1 0 0
614 290 100 -1 0 0
614 159 100 -1 0 0
624 154 0 1 -0 0
624 295 0 1 -0 0
624 295 100 1 -0 0
624 154 100 1 -0 0
418 181 0 -1 0 0
418 281 0 -1 0 0
418 281 100 -1 0 0
418 181 100 -1 0 0
428 191 0 1 -0 0
428 271 0 1 -0 0
428 271 100 1 -0 0
428 191 100 1 -0 0
428 191 0 -0 1 0
455 191 0 -0 1 0
455 191 100 -0 1 0
428 191 100 -0 1 0
418 181 0 0 -1 0
460 181 0 0 -1 0
460 181 100 0 -1 0
418 181 100 0 -1 0
418 281 0 -0 1 0
460 281 0 -0 1 0
460 281 100 -0 1 0
418 281 100 -0 1 0
428 271 0 0 -1 0
455 271 0 0 -1 0
455 271 100 0 -1 0
428 271 100 0 -1 0
465 271 0 1 0 0
465 191 0 1 0 0
465 191 100 1 0 0
465 271 100 1 0 0
455 271 0 -1 -0 0
455 191 0 -1 -0 0
455 191 100 -1 -0 0
455 271 100 -1 -0 0
460 281 0 -0 1 0
530 281 0 -0 1 0
530 281 100 -0 1 0
460 281 100 -0 1 0
465 271 0 0 -1 0
520 271 0 0 -1 0
520 271 100 0 -1 0
465 271 100 0 -1 0
525 295 0 -0 1 0
624 295 0 -0 1 0
624 295 100 -0 1 0
525 295 100 -0 1 0
525 285 0 0 -1 0
624 285 0 0 -1 0
624 285 100 0 -1 0
525 285 100 0 -1 0
614 290 0 -1 0 0
614 516 0 -1 0 0
614 516 100 -1 0 0
614 290 100 -1 0 0
624 285 0 1 -0 0
624 516 0 1 -0 0
624 516 100 1 -0 0
624 285 100 1 -0 0
520 240 0 -1 0 0
520 271 0 -1 0 0
520 271 100 -1 0 0
520 240 100 -1 0 0
530 240 0 1 -0 0
530 281 0 1 -0 0
530 281 100 1 -0 0
530 240 100 1 -0 0
346 446 0 -0 1 0
388 446 0 -0 1 0
388 446 100 -0 1 0
346 446 100 -0 1 0
346 436 0 0 -1 0
388 436 0 0 -1 0
388 436 100 0 -1 0
346 436 100 0 -1 0
398 441 0 1 0 0
398 376 0 1 0 0
398 376 100 1 0 0
398 441 100 1 0 0
388 436 0 -1 -0 0
388 376 0 -1 -0 0
388 376 100 -1 -0 0
388 436 100 -1 -0 0
388 446 0 -1 0 0
388 516 0 -1 0 0
388 516 100 -1 0 0
388 446 100 -1 0 0
398 441 0 1 -0 0
398 516 0 1 -0 0
398 516 100 1 -0 0
398 441 100 1 -0 0
366 27 0 362.328460693359375 26.8029193878173828 0
366 17 0 362.328460693359375 26.8029193878173828 0
366 17 100 362.328460693359375 26.8029193878173828 0
366 27 100 362.328460693359375 26.8029193878173828 0
503 27 0 500.328460693359375 26.8029193878173828 0
503 17 0 500.328460693359375 26.8029193878173828 0
503 17 100 500.328460693359375 26.8029193878173828 0
503 27 100 500.328460693359375 26.8029193878173828 0
220 441 0 216.206893920898438 432.39654541015625 0
230 441 0 216.206893920898438 432.39654541015625 0
230 441 100 216.206893920898438 432.39654541015625 0
220 441 100 216.206893920898438 432.39654541015625 0
220 499 0 216.206893920898438 491.39654541015625 0
230 499 0 216.206893920898438 491.39654541015625 0
230 499 100 216.206893920898438 491.39654541015625 0
220 499 100 216.206893920898438 491.39654541015625 0
568 27 0 554.65216064453125 26.4130439758300781 0
568 17 0 554.65216064453125 26.4130439758300781 0
568 17 100 554.65216064453125 26.4130439758300781 0
568 27 100 554.65216064453125 26.4130439758300781 0
259 27 0 254.24444580078125 26.3999996185302734 0
259 17 0 254.24444580078125 26.3999996185302734 0
259 17 100 254.24444580078125 26.3999996185302734 0
259 27 100 254.24444580078125 26.3999996185302734 0
204 499 0 203.576766967773438 498.9647216796875 0
214 499 0 203.576766967773438 498.9647216796875 0
214 499 100 203.576766967773438 498.9647216796875 0
204 499 100 203.576766967773438 498.9647216796875 0
525 295 0 518.69696044921875 292.02020263671875 0
525 285 0 518.69696044921875 292.02020263671875 0
525 285 100 518.69696044921875 292.02020263671875 0
525 295 100 518.69696044921875 292.02020263671875 0
614 516 0 611.283203125 514.716796875 0
624 516 0 611.283203125 514.716796875 0
624 516 100 611.283203125 514.716796875 0
614 516 100 611.283203125 514.716796875 0
520 240 0 503.225799560546875 231.258071899414062 0
530 240 0 503.225799560546875 231.258071899414062 0
530 240 100 503.225799560546875 231.258071899414062 0
520 240 100 503.225799560546875 231.258071899414062 0
346 446 0 336.76190185546875 435.380950927734375 0
346 436 0 336.76190185546875 435.380950927734375 0
346 436 100 336.76190185546875 435.380950927734375 0
346 446 100 336.76190185546875 435.380950927734375 0
398 376 0 391.876922607421875 369.21539306640625 0
388 376 0 391.876922607421875 369.21539306640625 0
388 376 100 391.876922607421875 369.21539306640625 0
398 376 100 391.876922607421875 369.21539306640625 0
388 516 0 382.4571533203125 509.628570556640625 0
398 516 0 382.4571533203125 509.628570556640625 0
398 516 100 382.4571533203125 509.628570556640625 0
388 516 100 382.4571533203125 509.628570556640625 0
573 191 0 0 0 -1
563 181 0 0 0 -1
563 149 0 0 0 -1
573 159 0 0 0 -1
573 191 100 0 0 1
563 181 100 0 0 1
563 149 100 0 0 1
573 159 100 0 0 1
563 181 0 0 0 -1
573 191 0 0 0 -1
465 191 0 0 0 -1
460 181 0 0 0 -1
563 181 100 0 0 1
573 191 100 0 0 1
465 191 100 0 0 1
460 181 100 0 0 1
573 159 0 0 0 -1
563 149 0 0 0 -1
614 149 0 0 0 -1
614 159 0 0 0 -1
573 159 100 0 0 1
563 149 100 0 0 1
614 149 100 0 0 1
614 159 100 0 0 1
366 27 0 0 0 -1
366 17 0 0 0 -1
503 17 0 0 0 -1
503 27 0 0 0 -1
366 27 100 0 0 1
366 17 100 0 0 1
503 17 100 0 0 1
503 27 100 0 0 1
220 441 0 0 0 -1
230 441 0 0 0 -1
230 499 0 0 0 -1
220 499 0 0 0 -1
220 441 100 0 0 1
230 441 100 0 0 1
230 499 100 0 0 1
220 499 100 0 0 1
568 27 0 0 0 -1
568 17 0 0 0 -1
624 17 0 0 0 -1
614 27 0 0 0 -1
568 27 100 0 0 1
568 17 100 0 0 1
624 17 100 0 0 1
614 27 100 0 0 1
614 27 0 0 0 -1
624 17 0 0 0 -1
624 154 0 0 0 -1
614 149 0 0 0 -1
614 27 100 0 0 1
624 17 100 0 0 1
624 154 100 0 0 1
614 149 100 0 0 1
214 27 0 0 0 -1
204 17 0 0 0 -1
259 17 0 0 0 -1
259 27 0 0 0 -1
214 27 100 0 0 1
204 17 100 0 0 1
259 17 100 0 0 1
259 27 100 0 0 1
204 17 0 0 0 -1
214 27 0 0 0 -1
214 499 0 0 0 -1
204 499 0 0 0 -1
204 17 100 0 0 1
214 27 100 0 0 1
214 499 100 0 0 1
204 499 100 0 0 1
614 159 0 0 0 -1
624 154 0 0 0 -1
624 295 0 0 0 -1
614 290 0 0 0 -1
614 159 100 0 0 1
624 154 100 0 0 1
624 295 100 0 0 1
614 290 100 0 0 1
418 181 0 0 0 -1
428 191 0 0 0 -1
428 271 0 0 0 -1
418 281 0 0 0 -1
418 181 100 0 0 1
428 191 100 0 0 1
428 271 100 0 0 1
418 281 100 0 0 1
428 191 0 0 0 -1
418 181 0 0 0 -1
460 181 0 0 0 -1
455 191 0 0 0 -1
428 191 100 0 0 1
418 181 100 0 0 1
460 181 100 0 0 1
455 191 100 0 0 1
418 281 0 0 0 -1
428 271 0 0 0 -1
455 271 0 0 0 -1
460 281 0 0 0 -1
418 281 100 0 0 1
428 271 100 0 0 1
455 271 100 0 0 1
460 281 100 0 0 1
465 271 0 0 0 -1
455 271 0 0 0 -1
455 191 0 0 0 -1
465 191 0 0 0 -1
465 271 100 0 0 1
455 271 100 0 0 1
455 191 100 0 0 1
465 191 100 0 0 1
460 281 0 0 0 -1
465 271 0 0 0 -1
520 271 0 0 0 -1
530 281 0 0 0 -1
460 281 100 0 0 1
465 271 100 0 0 1
520 271 100 0 0 1
530 281 100 0 0 1
525 295 0 0 0 -1
525 285 0 0 0 -1
624 285 0 0 0 -1
624 295 0 0 0 -1
525 295 100 0 0 1
525 285 100 0 0 1
624 285 100 0 0 1
624 295 100 0 0 1
614 290 0 0 0 -1
624 285 0 0 0 -1
624 516 0 0 0 -1
614 516 0 0 0 -1
614 290 100 0 0 1
624 285 100 0 0 1
624 516 100 0 0 1
614 516 100 0 0 1
520 240 0 0 0 -1
530 240 0 0 0 -1
530 281 0 0 0 -1
520 271 0 0 0 -1
520 240 100 0 0 1
530 240 100 0 0 1
530 281 100 0 0 1
520 271 100 0 0 1
346 446 0 0 0 -1
346 436 0 0 0 -1
388 436 0 0 0 -1
388 446 0 0 0 -1
346 446 100 0 0 1
346 436 100 0 0 1
388 436 100 0 0 1
388 446 100 0 0 1
398 441 0 0 0 -1
388 436 0 0 0 -1
388 376 0 0 0 -1
398 376 0 0 0 -1
398 441 100 0 0 1
388 436 100 0 0 1
388 376 100 0 0 1
398 376 100 0 0 1
388 446 0 0 0 -1
398 441 0 0 0 -1
398 516 0 0 0 -1
388 516 0 0 0 -1
388 446 100 0 0 1
398 441 100 0 0 1
398 516 100 0 0 1
388 516 100 0 0 1
614 149 0 0 0 -1
624 154 0 0 0 -1
614 159 0 0 0 -1
614 149 100 0 0 1
624 154 100 0 0 1
614 159 100 0 0 1
455 271 0 0 0 -1
465 271 0 0 0 -1
460 281 0 0 0 -1
455 271 100 0 0 1
465 271 100 0 0 1
460 281 100 0 0 1
460 181 0 0 0 -1
465 191 0 0 0 -1
455 191 0 0 0 -1
460 181 100 0 0 1
465 191 100 0 0 1
455 191 100 0 0 1
624 285 0 0 0 -1
614 290 0 0 0 -1
624 295 0 0 0 -1
624 285 100 0 0 1
614 290 100 0 0 1
624 295 100 0 0 1
388 436 0 0 0 -1
398 441 0 0 0 -1
388 446 0 0 0 -1
388 436 100 0 0 1
398 441 100 0 0 1
388 446 100 0 0 1
4 0 1 2 3
4 4 5 6 7
4 8 9 10 11
4 12 13 14 15
4 16 17 18 19
4 20 21 22 23
4 24 25 26 27
4 28 29 30 31
4 32 33 34 35
4 36 37 38 39
4 40 41 42 43
4 44 45 46 47
4 48 49 50 51
4 52 53 54 55
4 56 57 58 59
4 60 61 62 63
4 64 65 66 67
4 68 69 70 71
4 72 73 74 75
4 76 77 78 79
4 80 81 82 83
4 84 85 86 87
4 88 89 90 91
4 92 93 94 95
4 96 97 98 99
4 100 101 102 103
4 104 105 106 107
4 108 109 110 111
4 112 113 114 115
4 116 117 118 119
4 120 121 122 123
4 124 125 126 127
4 128 129 130 131
4 132 133 134 135
4 136 137 138 139
4 140 141 142 143
4 144 145 146 147
4 148 149 150 151
4 152 153 154 155
4 156 157 158 159
4 160 161 162 163
4 164 165 166 167
4 168 169 170 171
4 172 173 174 175
4 176 177 178 179
4 180 181 182 183
4 184 185 186 187
4 188 189 190 191
4 192 193 194 195
4 196 197 198 199
4 200 201 202 203
4 204 205 206 207
4 208 209 210 211
4 212 213 214 215
4 216 217 218 219
4 220 221 222 223
4 224 225 226 227
4 228 229 230 231
4 232 233 234 235
4 236 237 238 239
4 240 241 242 243
4 244 245 246 247
4 248 249 250 251
4 252 253 254 255
4 256 257 258 259
4 260 261 262 263
4 264 265 266 267
4 268 269 270 271
4 272 273 274 275
4 276 277 278 279
4 280 281 282 283
4 284 285 286 287
4 288 289 290 291
4 292 293 294 295
4 296 297 298 299
4 300 301 302 303
4 304 305 306 307
4 308 309 310 311
4 312 313 314 315
4 316 317 318 319
4 320 321 322 323
4 324 325 326 327
4 328 329 330 331
4 332 333 334 335
4 336 337 338 339
4 340 341 342 343
4 344 345 346 347
4 348 349 350 351
4 352 353 354 355
4 356 357 358 359
4 360 361 362 363
4 364 365 366 367
4 368 369 370 371
4 372 373 374 375
4 376 377 378 379
4 380 381 382 383
4 384 385 386 387
3 388 389 390
3 391 392 393
3 394 395 396
3 397 398 399
3 400 401 402
3 403 404 405
3 406 407 408
3 409 410 411
3 412 413 414
3 415 416 417
