ply
format ascii 1.0
element vertex 282
property float x
property float y
property float z
property float nx
property float ny
property float nz
element quads 69
property list uchar int vertex_indices
element triads 2
property list uchar int vertex_indices
end_header
339 536 0 -0 1 0
398 536 0 -0 1 0
398 536 100 -0 1 0
339 536 100 -0 1 0
339 526 0 0 -1 0
388 526 0 0 -1 0
388 526 100 0 -1 0
339 526 100 0 -1 0
398 536 0 1 0 0
398 284 0 1 0 0
398 284 100 1 0 0
398 536 100 1 0 0
388 526 0 -1 -0 0
388 294 0 -1 -0 0
388 294 100 -1 -0 0
388 526 100 -1 -0 0
350 31 0 -0 1 0
393 31 0 -0 1 0
393 31 100 -0 1 0
350 31 100 -0 1 0
350 21 0 0 -1 0
393 21 0 0 -1 0
393 21 100 0 -1 0
350 21 100 0 -1 0
625 222 0 -1 0 0
625 489 0 -1 0 0
625 489 100 -1 0 0
625 222 100 -1 0 0
635 222 0 1 -0 0
635 499 0 1 -0 0
635 499 100 1 -0 0
635 222 100 1 -0 0
625 489 0 -0 -1 0
533 489 0 -0 -1 0
533 489 100 -0 -1 0
625 489 100 -0 -1 0
635 499 0 0 1 0
523 499 0 0 1 0
523 499 100 0 1 0
635 499 100 0 1 0
393 102 0 -0 1 0
565 102 0 -0 1 0
565 102 100 -0 1 0
393 102 100 -0 1 0
393 92 0 0 -1 0
575 92 0 0 -1 0
575 92 100 0 -1 0
393 92 100 0 -1 0
565 102 0 -1 0 0
565 229 0 -1 0 0
565 229 100 -1 0 0
565 102 100 -1 0 0
575 92 0 1 -0 0
575 229 0 1 -0 0
575 229 100 1 -0 0
575 92 100 1 -0 0
454 459 0 -0 1 0
523 459 0 -0 1 0
523 459 100 -0 1 0
454 459 100 -0 1 0
454 449 0 0 -1 0
533 449 0 0 -1 0
533 449 100 0 -1 0
454 449 100 0 -1 0
523 459 0 -1 0 0
523 499 0 -1 0 0
523 499 100 -1 0 0
523 459 100 -1 0 0
533 449 0 1 -0 0
533 489 0 1 -0 0
533 489 100 1 -0 0
533 449 100 1 -0 0
218 536 0 -0 1 0
271 536 0 -0 1 0
271 536 100 -0 1 0
218 536 100 -0 1 0
218 526 0 0 -1 0
271 526 0 0 -1 0
271 526 100 0 -1 0
218 526 100 0 -1 0
579 146 0 -1 0 0
579 229 0 -1 0 0
579 229 100 -1 0 0
579 146 100 -1 0 0
589 146 0 1 -0 0
589 229 0 1 -0 0
589 229 100 1 -0 0
589 146 100 1 -0 0
398 284 0 -0 -1 0
255 284 0 -0 -1 0
255 284 100 -0 -1 0
398 284 100 -0 -1 0
388 294 0 0 1 0
250 294 0 0 1 0
250 294 100 0 1 0
388 294 100 0 1 0
250 26 0 -1 0 0
250 294 0 -1 0 0
250 294 100 -1 0 0
250 26 100 -1 0 0
260 26 0 1 -0 0
260 294 0 1 -0 0
260 294 100 1 -0 0
260 26 100 1 -0 0
255 284 0 -0 -1 0
196 284 0 -0 -1 0
196 284 100 -0 -1 0
255 284 100 -0 -1 0
260 294 0 0 1 0
196 294 0 0 1 0
196 294 100 0 1 0
260 294 100 0 1 0
339 536 0 332.254241943359375 526.915283203125 0
339 526 0 332.254241943359375 526.915283203125 0
339 526 100 332.254241943359375 526.915283203125 0
339 536 100 332.254241943359375 526.915283203125 0
350 31 0 340.8604736328125 30.2790699005126953 0
350 21 0 340.8604736328125 30.2790699005126953 0
350 21 100 340.8604736328125 30.2790699005126953 0
350 31 100 340.8604736328125 30.2790699005126953 0
393 31 0 384.8604736328125 30.2790699005126953 0
393 21 0 384.8604736328125 30.2790699005126953 0
393 21 100 384.8604736328125 30.2790699005126953 0
393 31 100 384.8604736328125 30.2790699005126953 0
625 222 0 622.6591796875 220.168533325195312 0
635 222 0 622.6591796875 220.168533325195312 0
635 222 100 622.6591796875 220.168533325195312 0
625 222 100 622.6591796875 220.168533325195312 0
393 102 0 389.715118408203125 101.406974792480469 0
393 92 0 389.715118408203125 101.406974792480469 0
393 92 100 389.715118408203125 101.406974792480469 0
393 102 100 389.715118408203125 101.406974792480469 0
454 459 0 446.4202880859375 452.34783935546875 0
454 449 0 446.4202880859375 452.34783935546875 0
454 449 100 446.4202880859375 452.34783935546875 0
454 459 100 446.4202880859375 452.34783935546875 0
565 229 0 560.55120849609375 228.196853637695312 0
575 229 0 560.55120849609375 228.196853637695312 0
575 229 100 560.55120849609375 228.196853637695312 0
565 229 100 560.55120849609375 228.196853637695312 0
218 536 0 212.886795043945312 525.88677978515625 0
218 526 0 212.886795043945312 525.88677978515625 0
218 526 100 212.886795043945312 525.88677978515625 0
218 536 100 212.886795043945312 525.88677978515625 0
271 536 0 266.88677978515625 525.88677978515625 0
271 526 0 266.88677978515625 525.88677978515625 0
271 526 100 266.88677978515625 525.88677978515625 0
271 536 100 266.88677978515625 525.88677978515625 0
579 146 0 572.02410888671875 143.240966796875 0
589 146 0 572.02410888671875 143.240966796875 0
589 146 100 572.02410888671875 143.240966796875 0
579 146 100 572.02410888671875 143.240966796875 0
579 229 0 572.02410888671875 227.240966796875 0
589 229 0 572.02410888671875 227.240966796875 0
589 229 100 572.02410888671875 227.240966796875 0
579 229 100 572.02410888671875 227.240966796875 0
250 26 0 249.067169189453125 24.902984619140625 0
260 26 0 249.067169189453125 24.902984619140625 0
260 26 100 249.067169189453125 24.902984619140625 0
250 26 100 249.067169189453125 24.902984619140625 0
196 284 0 191.677963256835938 279.186431884765625 0
196 294 0 191.677963256835938 279.186431884765625 0
196 294 100 191.677963256835938 279.186431884765625 0
196 284 100 191.677963256835938 279.186431884765625 0
339 536 0 0 0 -1
339 526 0 0 0 -1
388 526 0 0 0 -1
398 536 0 0 0 -1
339 536 100 0 0 1
339 526 100 0 0 1
388 526 100 0 0 1
398 536 100 0 0 1
398 536 0 0 0 -1
388 526 0 0 0 -1
388 294 0 0 0 -1
398 284 0 0 0 -1
398 536 100 0 0 1
388 526 100 0 0 1
388 294 100 0 0 1
398 284 100 0 0 1
350 31 0 0 0 -1
350 21 0 0 0 -1
393 21 0 0 0 -1
393 31 0 0 0 -1
350 31 100 0 0 1
350 21 100 0 0 1
393 21 100 0 0 1
393 31 100 0 0 1
625 222 0 0 0 -1
635 222 0 0 0 -1
635 499 0 0 0 -1
625 489 0 0 0 -1
625 222 100 0 0 1
635 222 100 0 0 1
635 499 100 0 0 1
625 489 100 0 0 1
625 489 0 0 0 -1
635 499 0 0 0 -1
523 499 0 0 0 -1
533 489 0 0 0 -1
625 489 100 0 0 1
635 499 100 0 0 1
523 499 100 0 0 1
533 489 100 0 0 1
393 102 0 0 0 -1
393 92 0 0 0 -1
575 92 0 0 0 -1
565 102 0 0 0 -1
393 102 100 0 0 1
393 92 100 0 0 1
575 92 100 0 0 1
565 102 100 0 0 1
565 102 0 0 0 -1
575 92 0 0 0 -1
575 229 0 0 0 -1
565 229 0 0 0 -1
565 102 100 0 0 1
575 92 100 0 0 1
575 229 100 0 0 1
565 229 100 0 0 1
454 459 0 0 0 -1
454 449 0 0 0 -1
533 449 0 0 0 -1
523 459 0 0 0 -1
454 459 100 0 0 1
454 449 100 0 0 1
533 449 100 0 0 1
523 459 100 0 0 1
523 459 0 0 0 -1
533 449 0 0 0 -1
533 489 0 0 0 -1
523 499 0 0 0 -1
523 459 100 0 0 1
533 449 100 0 0 1
533 489 100 0 0 1
523 499 100 0 0 1
218 536 0 0 0 -1
218 526 0 0 0 -1
271 526 0 0 0 -1
271 536 0 0 0 -1
218 536 100 0 0 1
218 526 100 0 0 1
271 526 100 0 0 1
271 536 100 0 0 1
579 146 0 0 0 -1
589 146 0 0 0 -1
589 229 0 0 0 -1
579 229 0 0 0 -1
579 146 100 0 0 1
589 146 100 0 0 1
589 229 100 0 0 1
579 229 100 0 0 1
398 284 0 0 0 -1
388 294 0 0 0 -1
250 294 0 0 0 -1
255 284 0 0 0 -1
398 284 100 0 0 1
388 294 100 0 0 1
250 294 100 0 0 1
255 284 100 0 0 1
250 26 0 0 0 -1
260 26 0 0 0 -1
260 294 0 0 0 -1
250 294 0 0 0 -1
250 26 100 0 0 1
260 26 100 0 0 1
260 294 100 0 0 1
250 294 100 0 0 1
255 284 0 0 0 -1
260 294 0 0 0 -1
196 294 0 0 0 -1
196 284 0 0 0 -1
255 284 100 0 0 1
260 294 100 0 0 1
196 294 100 0 0 1
196 284 100 0 0 1
260 294 0 0 0 -1
255 284 0 0 0 -1
250 294 0 0 0 -1
260 294 100 0 0 1
255 284 100 0 0 1
250 294 100 0 0 1
4 0 1 2 3
4 4 5 6 7
4 8 9 10 11
4 12 13 14 15
4 16 17 18 19
4 20 21 22 23
4 24 25 26 27
4 28 29 30 31
4 32 33 34 35
4 36 37 38 39
4 40 41 42 43
4 44 45 46 47
4 48 49 50 51
4 52 53 54 55
4 56 57 58 59
4 60 61 62 63
4 64 65 66 67
4 68 69 70 71
4 72 73 74 75
4 76 77 78 79
4 80 81 82 83
4 84 85 86 87
4 88 89 90 91
4 92 93 94 95
4 96 97 98 99
4 100 101 102 103
4 104 105 106 107
4 108 109 110 111
4 112 113 114 115
4 116 117 118 119
4 120 121 122 123
4 124 125 126 127
4 128 129 130 131
4 132 133 134 135
4 136 137 138 139
4 140 141 142 143
4 144 145 146 147
4 148 149 150 151
4 152 153 154 155
4 156 157 158 159
4 160 161 162 163
4 164 165 166 167
4 168 169 170 171
4 172 173 174 175
4 176 177 178 179
4 180 181 182 183
4 184 185 186 187
4 188 189 190 191
4 192 193 194 195
4 196 197 198 199
4 200 201 202 203
4 204 205 206 207
4 208 209 210 211
4 212 213 214 215
4 216 217 218 219
4 220 221 222 223
4 224 225 226 227
4 228 229 230 231
4 232 233 234 235
4 236 237 238 239
4 240 241 242 243
4 244 245 246 247
4 248 249 250 251
4 252 253 254 255
4 256 257 258 259
4 260 261 262 263
4 264 265 266 267
4 268 269 270 271
4 272 273 274 275
3 276 277 278
3 279 280 281
