ply
format ascii 1.0
element vertex 372
property float x
property float y
property float z
property float nx
property float ny
property float nz
element quads 90
property list uchar int vertex_indices
element triads 4
property list uchar int vertex_indices
end_header
601 84 0 1 0 0
601 8 0 1 0 0
601 8 100 1 0 0
601 84 100 1 0 0
591 74 0 -1 -0 0
591 18 0 -1 -0 0
591 18 100 -1 -0 0
591 74 100 -1 -0 0
591 74 0 -0 -1 0
463 74 0 -0 -1 0
463 74 100 -0 -1 0
591 74 100 -0 -1 0
601 84 0 0 1 0
463 84 0 0 1 0
463 84 100 0 1 0
601 84 100 0 1 0
601 8 0 -0 -1 0
385 8 0 -0 -1 0
385 8 100 -0 -1 0
601 8 100 -0 -1 0
591 18 0 0 1 0
390 18 0 0 1 0
390 18 100 0 1 0
591 18 100 0 1 0
463 376 0 -0 1 0
492 376 0 -0 1 0
492 376 100 -0 1 0
463 376 100 -0 1 0
463 366 0 0 -1 0
492 366 0 0 -1 0
492 366 100 0 -1 0
463 366 100 0 -1 0
340 376 0 -0 1 0
371 376 0 -0 1 0
371 376 100 -0 1 0
340 376 100 -0 1 0
340 366 0 0 -1 0
371 366 0 0 -1 0
371 366 100 0 -1 0
340 366 100 0 -1 0
564 376 0 -0 1 0
601 376 0 -0 1 0
601 376 100 -0 1 0
564 376 100 -0 1 0
564 366 0 0 -1 0
591 366 0 0 -1 0
591 366 100 0 -1 0
564 366 100 0 -1 0
601 376 0 1 0 0
601 318 0 1 0 0
601 318 100 1 0 0
601 376 100 1 0 0
591 366 0 -1 -0 0
591 318 0 -1 -0 0
591 318 100 -1 -0 0
591 366 100 -1 -0 0
602 79 0 1 0 0
602 13 0 1 0 0
602 13 100 1 0 0
602 79 100 1 0 0
592 79 0 -1 -0 0
592 13 0 -1 -0 0
592 13 100 -1 -0 0
592 79 100 -1 -0 0
233 218 0 -1 0 0
233 371 0 -1 0 0
233 371 100 -1 0 0
233 218 100 -1 0 0
243 218 0 1 -0 0
243 371 0 1 -0 0
243 371 100 1 -0 0
243 218 100 1 -0 0
591 157 0 -1 0 0
591 247 0 -1 0 0
591 247 100 -1 0 0
591 157 100 -1 0 0
601 147 0 1 -0 0
601 247 0 1 -0 0
601 247 100 1 -0 0
601 147 100 1 -0 0
601 147 0 -0 -1 0
463 147 0 -0 -1 0
463 147 100 -0 -1 0
601 147 100 -0 -1 0
591 157 0 0 1 0
463 157 0 0 1 0
463 157 100 0 1 0
591 157 100 0 1 0
234 219 0 -1 0 0
234 376 0 -1 0 0
234 376 100 -1 0 0
234 219 100 -1 0 0
244 219 0 1 -0 0
244 366 0 1 -0 0
244 366 100 1 -0 0
244 219 100 1 -0 0
234 376 0 -0 1 0
268 376 0 -0 1 0
268 376 100 -0 1 0
234 376 100 -0 1 0
244 366 0 0 -1 0
268 366 0 0 -1 0
268 366 100 0 -1 0
244 366 100 0 -1 0
243 18 0 -0 1 0
380 18 0 -0 1 0
380 18 100 -0 1 0
243 18 100 -0 1 0
233 8 0 0 -1 0
385 8 0 0 -1 0
385 8 100 0 -1 0
233 8 100 0 -1 0
233 8 0 -1 0 0
233 131 0 -1 0 0
233 131 100 -1 0 0
233 8 100 -1 0 0
243 18 0 1 -0 0
243 126 0 1 -0 0
243 126 100 1 -0 0
243 18 100 1 -0 0
380 18 0 -1 0 0
380 94 0 -1 0 0
380 94 100 -1 0 0
380 18 100 -1 0 0
390 18 0 1 -0 0
390 94 0 1 -0 0
390 94 100 1 -0 0
390 18 100 1 -0 0
357 121 0 -0 -1 0
233 121 0 -0 -1 0
233 121 100 -0 -1 0
357 121 100 -0 -1 0
357 131 0 0 1 0
233 131 0 0 1 0
233 131 100 0 1 0
357 131 100 0 1 0
233 121 0 -1 0 0
233 169 0 -1 0 0
233 169 100 -1 0 0
233 121 100 -1 0 0
243 126 0 1 -0 0
243 169 0 1 -0 0
243 169 100 1 -0 0
243 126 100 1 -0 0
463 376 0 446.03448486328125 363.03448486328125 0
463 366 0 446.03448486328125 363.03448486328125 0
463 366 100 446.03448486328125 363.03448486328125 0
463 376 100 446.03448486328125 363.03448486328125 0
492 376 0 476.03448486328125 363.03448486328125 0
492 366 0 476.03448486328125 363.03448486328125 0
492 366 100 476.03448486328125 363.03448486328125 0
492 376 100 476.03448486328125 363.03448486328125 0
340 376 0 328.032257080078125 363.8709716796875 0
340 366 0 328.032257080078125 363.8709716796875 0
340 366 100 328.032257080078125 363.8709716796875 0
340 376 100 328.032257080078125 363.8709716796875 0
371 376 0 360.032257080078125 363.8709716796875 0
371 366 0 360.032257080078125 363.8709716796875 0
371 366 100 360.032257080078125 363.8709716796875 0
371 376 100 360.032257080078125 363.8709716796875 0
564 376 0 547.75677490234375 365.83782958984375 0
564 366 0 547.75677490234375 365.83782958984375 0
564 366 100 547.75677490234375 365.83782958984375 0
564 376 100 547.75677490234375 365.83782958984375 0
602 79 0 592.8787841796875 78.8030319213867188 0
592 79 0 592.8787841796875 78.8030319213867188 0
592 79 100 592.8787841796875 78.8030319213867188 0
602 79 100 592.8787841796875 78.8030319213867188 0
602 13 0 592.8787841796875 11.8030300140380859 0
592 13 0 592.8787841796875 11.8030300140380859 0
592 13 100 592.8787841796875 11.8030300140380859 0
602 13 100 592.8787841796875 11.8030300140380859 0
233 218 0 231.477127075195312 215.575164794921875 0
243 218 0 231.477127075195312 215.575164794921875 0
243 218 100 231.477127075195312 215.575164794921875 0
233 218 100 231.477127075195312 215.575164794921875 0
233 371 0 231.477127075195312 369.575164794921875 0
243 371 0 231.477127075195312 369.575164794921875 0
243 371 100 231.477127075195312 369.575164794921875 0
233 371 100 231.477127075195312 369.575164794921875 0
601 318 0 590.637939453125 311.517242431640625 0
591 318 0 590.637939453125 311.517242431640625 0
591 318 100 590.637939453125 311.517242431640625 0
601 318 100 590.637939453125 311.517242431640625 0
591 247 0 584.433349609375 245.25555419921875 0
601 247 0 584.433349609375 245.25555419921875 0
601 247 100 584.433349609375 245.25555419921875 0
591 247 100 584.433349609375 245.25555419921875 0
463 147 0 458.644927978515625 145.934783935546875 0
463 157 0 458.644927978515625 145.934783935546875 0
463 157 100 458.644927978515625 145.934783935546875 0
463 147 100 458.644927978515625 145.934783935546875 0
463 74 0 458.3828125 73.421875 0
463 84 0 458.3828125 73.421875 0
463 84 100 458.3828125 73.421875 0
463 74 100 458.3828125 73.421875 0
234 219 0 232.509552001953125 216.6051025390625 0
244 219 0 232.509552001953125 216.6051025390625 0
244 219 100 232.509552001953125 216.6051025390625 0
234 219 100 232.509552001953125 216.6051025390625 0
268 376 0 261.117645263671875 364.941162109375 0
268 366 0 261.117645263671875 364.941162109375 0
268 366 100 261.117645263671875 364.941162109375 0
268 376 100 261.117645263671875 364.941162109375 0
380 94 0 375 93.7631607055664062 0
390 94 0 375 93.7631607055664062 0
390 94 100 375 93.7631607055664062 0
380 94 100 375 93.7631607055664062 0
357 121 0 355.1209716796875 120.024192810058594 0
357 131 0 355.1209716796875 120.024192810058594 0
357 131 100 355.1209716796875 120.024192810058594 0
357 121 100 355.1209716796875 120.024192810058594 0
233 169 0 228.145828247070312 166.479171752929688 0
243 169 0 228.145828247070312 166.479171752929688 0
243 169 100 228.145828247070312 166.479171752929688 0
233 169 100 228.145828247070312 166.479171752929688 0
601 84 0 0 0 -1
591 74 0 0 0 -1
591 18 0 0 0 -1
601 8 0 0 0 -1
601 84 100 0 0 1
591 74 100 0 0 1
591 18 100 0 0 1
601 8 100 0 0 1
591 74 0 0 0 -1
601 84 0 0 0 -1
463 84 0 0 0 -1
463 74 0 0 0 -1
591 74 100 0 0 1
601 84 100 0 0 1
463 84 100 0 0 1
463 74 100 0 0 1
601 8 0 0 0 -1
591 18 0 0 0 -1
390 18 0 0 0 -1
385 8 0 0 0 -1
601 8 100 0 0 1
591 18 100 0 0 1
390 18 100 0 0 1
385 8 100 0 0 1
463 376 0 0 0 -1
463 366 0 0 0 -1
492 366 0 0 0 -1
492 376 0 0 0 -1
463 376 100 0 0 1
463 366 100 0 0 1
492 366 100 0 0 1
492 376 100 0 0 1
340 376 0 0 0 -1
340 366 0 0 0 -1
371 366 0 0 0 -1
371 376 0 0 0 -1
340 376 100 0 0 1
340 366 100 0 0 1
371 366 100 0 0 1
371 376 100 0 0 1
564 376 0 0 0 -1
564 366 0 0 0 -1
591 366 0 0 0 -1
601 376 0 0 0 -1
564 376 100 0 0 1
564 366 100 0 0 1
591 366 100 0 0 1
601 376 100 0 0 1
601 376 0 0 0 -1
591 366 0 0 0 -1
591 318 0 0 0 -1
601 318 0 0 0 -1
601 376 100 0 0 1
591 366 100 0 0 1
591 318 100 0 0 1
601 318 100 0 0 1
602 79 0 0 0 -1
592 79 0 0 0 -1
592 13 0 0 0 -1
602 13 0 0 0 -1
602 79 100 0 0 1
592 79 100 0 0 1
592 13 100 0 0 1
602 13 100 0 0 1
233 218 0 0 0 -1
243 218 0 0 0 -1
243 371 0 0 0 -1
233 371 0 0 0 -1
233 218 100 0 0 1
243 218 100 0 0 1
243 371 100 0 0 1
233 371 100 0 0 1
591 157 0 0 0 -1
601 147 0 0 0 -1
601 247 0 0 0 -1
591 247 0 0 0 -1
591 157 100 0 0 1
601 147 100 0 0 1
601 247 100 0 0 1
591 247 100 0 0 1
601 147 0 0 0 -1
591 157 0 0 0 -1
463 157 0 0 0 -1
463 147 0 0 0 -1
601 147 100 0 0 1
591 157 100 0 0 1
463 157 100 0 0 1
463 147 100 0 0 1
234 219 0 0 0 -1
244 219 0 0 0 -1
244 366 0 0 0 -1
234 376 0 0 0 -1
234 219 100 0 0 1
244 219 100 0 0 1
244 366 100 0 0 1
234 376 100 0 0 1
234 376 0 0 0 -1
244 366 0 0 0 -1
268 366 0 0 0 -1
268 376 0 0 0 -1
234 376 100 0 0 1
244 366 100 0 0 1
268 366 100 0 0 1
268 376 100 0 0 1
243 18 0 0 0 -1
233 8 0 0 0 -1
385 8 0 0 0 -1
380 18 0 0 0 -1
243 18 100 0 0 1
233 8 100 0 0 1
385 8 100 0 0 1
380 18 100 0 0 1
233 8 0 0 0 -1
243 18 0 0 0 -1
243 126 0 0 0 -1
233 131 0 0 0 -1
233 8 100 0 0 1
243 18 100 0 0 1
243 126 100 0 0 1
233 131 100 0 0 1
380 18 0 0 0 -1
390 18 0 0 0 -1
390 94 0 0 0 -1
380 94 0 0 0 -1
380 18 100 0 0 1
390 18 100 0 0 1
390 94 100 0 0 1
380 94 100 0 0 1
357 121 0 0 0 -1
357 131 0 0 0 -1
233 131 0 0 0 -1
233 121 0 0 0 -1
357 121 100 0 0 1
357 131 100 0 0 1
233 131 100 0 0 1
233 121 100 0 0 1
233 121 0 0 0 -1
243 126 0 0 0 -1
243 169 0 0 0 -1
233 169 0 0 0 -1
233 121 100 0 0 1
243 126 100 0 0 1
243 169 100 0 0 1
233 169 100 0 0 1
385 8 0 0 0 -1
390 18 0 0 0 -1
380 18 0 0 0 -1
385 8 100 0 0 1
390 18 100 0 0 1
380 18 100 0 0 1
233 131 0 0 0 -1
243 126 0 0 0 -1
233 121 0 0 0 -1
233 131 100 0 0 1
243 126 100 0 0 1
233 121 100 0 0 1
4 0 1 2 3
4 4 5 6 7
4 8 9 10 11
4 12 13 14 15
4 16 17 18 19
4 20 21 22 23
4 24 25 26 27
4 28 29 30 31
4 32 33 34 35
4 36 37 38 39
4 40 41 42 43
4 44 45 46 47
4 48 49 50 51
4 52 53 54 55
4 56 57 58 59
4 60 61 62 63
4 64 65 66 67
4 68 69 70 71
4 72 73 74 75
4 76 77 78 79
4 80 81 82 83
4 84 85 86 87
4 88 89 90 91
4 92 93 94 95
4 96 97 98 99
4 100 101 102 103
4 104 105 106 107
4 108 109 110 111
4 112 113 114 115
4 116 117 118 119
4 120 121 122 123
4 124 125 126 127
4 128 129 130 131
4 132 133 134 135
4 136 137 138 139
4 140 141 142 143
4 144 145 146 147
4 148 149 150 151
4 152 153 154 155
4 156 157 158 159
4 160 161 162 163
4 164 165 166 167
4 168 169 170 171
4 172 173 174 175
4 176 177 178 179
4 180 181 182 183
4 184 185 186 187
4 188 189 190 191
4 192 193 194 195
4 196 197 198 199
4 200 201 202 203
4 204 205 206 207
4 208 209 210 211
4 212 213 214 215
4 216 217 218 219
4 220 221 222 223
4 224 225 226 227
4 228 229 230 231
4 232 233 234 235
4 236 237 238 239
4 240 241 242 243
4 244 245 246 247
4 248 249 250 251
4 252 253 254 255
4 256 257 258 259
4 260 261 262 263
4 264 265 266 267
4 268 269 270 271
4 272 273 274 275
4 276 277 278 279
4 280 281 282 283
4 284 285 286 287
4 288 289 290 291
4 292 293 294 295
4 296 297 298 299
4 300 301 302 303
4 304 305 306 307
4 308 309 310 311
4 312 313 314 315
4 316 317 318 319
4 320 321 322 323
4 324 325 326 327
4 328 329 330 331
4 332 333 334 335
4 336 337 338 339
4 340 341 342 343
4 344 345 346 347
4 348 349 350 351
4 352 353 354 355
4 356 357 358 359
3 360 361 362
3 363 364 365
3 366 367 368
3 369 370 371
