ply
format ascii 1.0
element vertex 450
property float x
property float y
property float z
property float nx
property float ny
property float nz
element quads 103
property list uchar int vertex_indices
element triads 14
property list uchar int vertex_indices
end_header
680 465 0 1 0 0
680 365 0 1 0 0
680 365 100 1 0 0
680 465 100 1 0 0
670 455 0 -1 -0 0
670 365 0 -1 -0 0
670 365 100 -1 -0 0
670 455 100 -1 -0 0
670 455 0 -0 -1 0
434 455 0 -0 -1 0
434 455 100 -0 -1 0
670 455 100 -0 -1 0
680 465 0 0 1 0
424 465 0 0 1 0
424 465 100 0 1 0
680 465 100 0 1 0
455 129 0 1 0 0
455 46 0 1 0 0
455 46 100 1 0 0
455 129 100 1 0 0
445 129 0 -1 -0 0
445 36 0 -1 -0 0
445 36 100 -1 -0 0
445 129 100 -1 -0 0
455 46 0 -0 1 0
562 46 0 -0 1 0
562 46 100 -0 1 0
455 46 100 -0 1 0
445 36 0 0 -1 0
567 36 0 0 -1 0
567 36 100 0 -1 0
445 36 100 0 -1 0
434 455 0 1 0 0
434 416 0 1 0 0
434 416 100 1 0 0
434 455 100 1 0 0
424 465 0 -1 -0 0
424 421 0 -1 -0 0
424 421 100 -1 -0 0
424 465 100 -1 -0 0
172 183 0 -1 0 0
172 226 0 -1 0 0
172 226 100 -1 0 0
172 183 100 -1 0 0
182 193 0 1 -0 0
182 226 0 1 -0 0
182 226 100 1 -0 0
182 193 100 1 -0 0
182 193 0 -0 1 0
193 193 0 -0 1 0
193 193 100 -0 1 0
182 193 100 -0 1 0
172 183 0 0 -1 0
198 183 0 0 -1 0
198 183 100 0 -1 0
172 183 100 0 -1 0
203 46 0 -0 1 0
331 46 0 -0 1 0
331 46 100 -0 1 0
203 46 100 -0 1 0
193 36 0 0 -1 0
331 36 0 0 -1 0
331 36 100 0 -1 0
193 36 100 0 -1 0
193 36 0 -1 0 0
193 193 0 -1 0 0
193 193 100 -1 0 0
193 36 100 -1 0 0
203 46 0 1 -0 0
203 188 0 1 -0 0
203 188 100 1 -0 0
203 46 100 1 -0 0
336 416 0 1 0 0
336 360 0 1 0 0
336 360 100 1 0 0
336 416 100 1 0 0
326 426 0 -1 -0 0
326 370 0 -1 -0 0
326 370 100 -1 -0 0
326 426 100 -1 -0 0
326 426 0 -0 1 0
434 426 0 -0 1 0
434 426 100 -0 1 0
326 426 100 -0 1 0
336 416 0 0 -1 0
434 416 0 0 -1 0
434 416 100 0 -1 0
336 416 100 0 -1 0
336 360 0 -0 -1 0
198 360 0 -0 -1 0
198 360 100 -0 -1 0
336 360 100 -0 -1 0
326 370 0 0 1 0
198 370 0 0 1 0
198 370 100 0 1 0
326 370 100 0 1 0
434 426 0 1 0 0
434 351 0 1 0 0
434 351 100 1 0 0
434 426 100 1 0 0
424 421 0 -1 -0 0
424 356 0 -1 -0 0
424 356 100 -1 -0 0
424 421 100 -1 -0 0
434 193 0 -0 1 0
680 193 0 -0 1 0
680 193 100 -0 1 0
434 193 100 -0 1 0
424 183 0 0 -1 0
680 183 0 0 -1 0
680 183 100 0 -1 0
424 183 100 0 -1 0
424 183 0 -1 0 0
424 346 0 -1 0 0
424 346 100 -1 0 0
424 183 100 -1 0 0
434 193 0 1 -0 0
434 351 0 1 -0 0
434 351 100 1 -0 0
434 193 100 1 -0 0
670 188 0 -1 0 0
670 206 0 -1 0 0
670 206 100 -1 0 0
670 188 100 -1 0 0
680 183 0 1 -0 0
680 206 0 1 -0 0
680 206 100 1 -0 0
680 183 100 1 -0 0
680 193 0 1 0 0
680 129 0 1 0 0
680 129 100 1 0 0
680 193 100 1 0 0
670 188 0 -1 -0 0
670 134 0 -1 -0 0
670 134 100 -1 -0 0
670 188 100 -1 -0 0
572 46 0 -0 1 0
670 46 0 -0 1 0
670 46 100 -0 1 0
572 46 100 -0 1 0
567 36 0 0 -1 0
680 36 0 0 -1 0
680 36 100 0 -1 0
567 36 100 0 -1 0
562 46 0 -1 0 0
562 134 0 -1 0 0
562 134 100 -1 0 0
562 46 100 -1 0 0
572 46 0 1 -0 0
572 124 0 1 -0 0
572 124 100 1 -0 0
572 46 100 1 -0 0
670 46 0 -1 0 0
670 124 0 -1 0 0
670 124 100 -1 0 0
670 46 100 -1 0 0
680 36 0 1 -0 0
680 129 0 1 -0 0
680 129 100 1 -0 0
680 36 100 1 -0 0
562 134 0 -0 1 0
670 134 0 -0 1 0
670 134 100 -0 1 0
562 134 100 -0 1 0
572 124 0 0 -1 0
670 124 0 0 -1 0
670 124 100 0 -1 0
572 124 100 0 -1 0
193 193 0 -0 1 0
317 193 0 -0 1 0
317 193 100 -0 1 0
193 193 100 -0 1 0
198 183 0 0 -1 0
317 183 0 0 -1 0
317 183 100 0 -1 0
198 183 100 0 -1 0
193 193 0 -1 0 0
193 356 0 -1 0 0
193 356 100 -1 0 0
193 193 100 -1 0 0
203 188 0 1 -0 0
203 346 0 1 -0 0
203 346 100 1 -0 0
203 188 100 1 -0 0
193 356 0 -0 1 0
424 356 0 -0 1 0
424 356 100 -0 1 0
193 356 100 -0 1 0
203 346 0 0 -1 0
424 346 0 0 -1 0
424 346 100 0 -1 0
203 346 100 0 -1 0
680 365 0 673.20001220703125 360.350006103515625 0
670 365 0 673.20001220703125 360.350006103515625 0
670 365 100 673.20001220703125 360.350006103515625 0
680 365 100 673.20001220703125 360.350006103515625 0
455 129 0 449.51806640625 128.445785522460938 0
445 129 0 449.51806640625 128.445785522460938 0
445 129 100 449.51806640625 128.445785522460938 0
455 129 100 449.51806640625 128.445785522460938 0
172 226 0 168 221.744186401367188 0
182 226 0 168 221.744186401367188 0
182 226 100 168 221.744186401367188 0
172 226 100 168 221.744186401367188 0
331 46 0 329.4140625 45.640625 0
331 36 0 329.4140625 45.640625 0
331 36 100 329.4140625 45.640625 0
331 46 100 329.4140625 45.640625 0
198 360 0 195.565216064453125 357.39129638671875 0
198 370 0 195.565216064453125 357.39129638671875 0
198 370 100 195.565216064453125 357.39129638671875 0
198 360 100 195.565216064453125 357.39129638671875 0
670 206 0 632.77777099609375 195.555557250976562 0
680 206 0 632.77777099609375 195.555557250976562 0
680 206 100 632.77777099609375 195.555557250976562 0
670 206 100 632.77777099609375 195.555557250976562 0
317 193 0 315.44354248046875 191.44354248046875 0
317 183 0 315.44354248046875 191.44354248046875 0
317 183 100 315.44354248046875 191.44354248046875 0
317 193 100 315.44354248046875 191.44354248046875 0
680 465 0 0 0 -1
670 455 0 0 0 -1
670 365 0 0 0 -1
680 365 0 0 0 -1
680 465 100 0 0 1
670 455 100 0 0 1
670 365 100 0 0 1
680 365 100 0 0 1
670 455 0 0 0 -1
680 465 0 0 0 -1
424 465 0 0 0 -1
434 455 0 0 0 -1
670 455 100 0 0 1
680 465 100 0 0 1
424 465 100 0 0 1
434 455 100 0 0 1
455 129 0 0 0 -1
445 129 0 0 0 -1
445 36 0 0 0 -1
455 46 0 0 0 -1
455 129 100 0 0 1
445 129 100 0 0 1
445 36 100 0 0 1
455 46 100 0 0 1
455 46 0 0 0 -1
445 36 0 0 0 -1
567 36 0 0 0 -1
562 46 0 0 0 -1
455 46 100 0 0 1
445 36 100 0 0 1
567 36 100 0 0 1
562 46 100 0 0 1
434 455 0 0 0 -1
424 465 0 0 0 -1
424 421 0 0 0 -1
434 416 0 0 0 -1
434 455 100 0 0 1
424 465 100 0 0 1
424 421 100 0 0 1
434 416 100 0 0 1
172 183 0 0 0 -1
182 193 0 0 0 -1
182 226 0 0 0 -1
172 226 0 0 0 -1
172 183 100 0 0 1
182 193 100 0 0 1
182 226 100 0 0 1
172 226 100 0 0 1
182 193 0 0 0 -1
172 183 0 0 0 -1
198 183 0 0 0 -1
193 193 0 0 0 -1
182 193 100 0 0 1
172 183 100 0 0 1
198 183 100 0 0 1
193 193 100 0 0 1
203 46 0 0 0 -1
193 36 0 0 0 -1
331 36 0 0 0 -1
331 46 0 0 0 -1
203 46 100 0 0 1
193 36 100 0 0 1
331 36 100 0 0 1
331 46 100 0 0 1
193 36 0 0 0 -1
203 46 0 0 0 -1
203 188 0 0 0 -1
193 193 0 0 0 -1
193 36 100 0 0 1
203 46 100 0 0 1
203 188 100 0 0 1
193 193 100 0 0 1
336 416 0 0 0 -1
326 426 0 0 0 -1
326 370 0 0 0 -1
336 360 0 0 0 -1
336 416 100 0 0 1
326 426 100 0 0 1
326 370 100 0 0 1
336 360 100 0 0 1
326 426 0 0 0 -1
336 416 0 0 0 -1
434 416 0 0 0 -1
434 426 0 0 0 -1
326 426 100 0 0 1
336 416 100 0 0 1
434 416 100 0 0 1
434 426 100 0 0 1
336 360 0 0 0 -1
326 370 0 0 0 -1
198 370 0 0 0 -1
198 360 0 0 0 -1
336 360 100 0 0 1
326 370 100 0 0 1
198 370 100 0 0 1
198 360 100 0 0 1
434 426 0 0 0 -1
424 421 0 0 0 -1
424 356 0 0 0 -1
434 351 0 0 0 -1
434 426 100 0 0 1
424 421 100 0 0 1
424 356 100 0 0 1
434 351 100 0 0 1
434 193 0 0 0 -1
424 183 0 0 0 -1
680 183 0 0 0 -1
680 193 0 0 0 -1
434 193 100 0 0 1
424 183 100 0 0 1
680 183 100 0 0 1
680 193 100 0 0 1
424 183 0 0 0 -1
434 193 0 0 0 -1
434 351 0 0 0 -1
424 346 0 0 0 -1
424 183 100 0 0 1
434 193 100 0 0 1
434 351 100 0 0 1
424 346 100 0 0 1
670 188 0 0 0 -1
680 183 0 0 0 -1
680 206 0 0 0 -1
670 206 0 0 0 -1
670 188 100 0 0 1
680 183 100 0 0 1
680 206 100 0 0 1
670 206 100 0 0 1
680 193 0 0 0 -1
670 188 0 0 0 -1
670 134 0 0 0 -1
680 129 0 0 0 -1
680 193 100 0 0 1
670 188 100 0 0 1
670 134 100 0 0 1
680 129 100 0 0 1
572 46 0 0 0 -1
567 36 0 0 0 -1
680 36 0 0 0 -1
670 46 0 0 0 -1
572 46 100 0 0 1
567 36 100 0 0 1
680 36 100 0 0 1
670 46 100 0 0 1
562 46 0 0 0 -1
572 46 0 0 0 -1
572 124 0 0 0 -1
562 134 0 0 0 -1
562 46 100 0 0 1
572 46 100 0 0 1
572 124 100 0 0 1
562 134 100 0 0 1
670 46 0 0 0 -1
680 36 0 0 0 -1
680 129 0 0 0 -1
670 124 0 0 0 -1
670 46 100 0 0 1
680 36 100 0 0 1
680 129 100 0 0 1
670 124 100 0 0 1
562 134 0 0 0 -1
572 124 0 0 0 -1
670 124 0 0 0 -1
670 134 0 0 0 -1
562 134 100 0 0 1
572 124 100 0 0 1
670 124 100 0 0 1
670 134 100 0 0 1
193 193 0 0 0 -1
198 183 0 0 0 -1
317 183 0 0 0 -1
317 193 0 0 0 -1
193 193 100 0 0 1
198 183 100 0 0 1
317 183 100 0 0 1
317 193 100 0 0 1
193 193 0 0 0 -1
203 188 0 0 0 -1
203 346 0 0 0 -1
193 356 0 0 0 -1
193 193 100 0 0 1
203 188 100 0 0 1
203 346 100 0 0 1
193 356 100 0 0 1
193 356 0 0 0 -1
203 346 0 0 0 -1
424 346 0 0 0 -1
424 356 0 0 0 -1
193 356 100 0 0 1
203 346 100 0 0 1
424 346 100 0 0 1
424 356 100 0 0 1
434 416 0 0 0 -1
424 421 0 0 0 -1
434 426 0 0 0 -1
434 416 100 0 0 1
424 421 100 0 0 1
434 426 100 0 0 1
680 183 0 0 0 -1
670 188 0 0 0 -1
680 193 0 0 0 -1
680 183 100 0 0 1
670 188 100 0 0 1
680 193 100 0 0 1
567 36 0 0 0 -1
572 46 0 0 0 -1
562 46 0 0 0 -1
567 36 100 0 0 1
572 46 100 0 0 1
562 46 100 0 0 1
198 183 0 0 0 -1
193 193 0 0 0 -1
203 188 0 0 0 -1
193 193 0 0 0 -1
198 183 100 0 0 1
193 193 100 0 0 1
203 188 100 0 0 1
193 193 100 0 0 1
434 351 0 0 0 -1
424 356 0 0 0 -1
424 346 0 0 0 -1
434 351 100 0 0 1
424 356 100 0 0 1
424 346 100 0 0 1
670 124 0 0 0 -1
680 129 0 0 0 -1
670 134 0 0 0 -1
670 124 100 0 0 1
680 129 100 0 0 1
670 134 100 0 0 1
4 0 1 2 3
4 4 5 6 7
4 8 9 10 11
4 12 13 14 15
4 16 17 18 19
4 20 21 22 23
4 24 25 26 27
4 28 29 30 31
4 32 33 34 35
4 36 37 38 39
4 40 41 42 43
4 44 45 46 47
4 48 49 50 51
4 52 53 54 55
4 56 57 58 59
4 60 61 62 63
4 64 65 66 67
4 68 69 70 71
4 72 73 74 75
4 76 77 78 79
4 80 81 82 83
4 84 85 86 87
4 88 89 90 91
4 92 93 94 95
4 96 97 98 99
4 100 101 102 103
4 104 105 106 107
4 108 109 110 111
4 112 113 114 115
4 116 117 118 119
4 120 121 122 123
4 124 125 126 127
4 128 129 130 131
4 132 133 134 135
4 136 137 138 139
4 140 141 142 143
4 144 145 146 147
4 148 149 150 151
4 152 153 154 155
4 156 157 158 159
4 160 161 162 163
4 164 165 166 167
4 168 169 170 171
4 172 173 174 175
4 176 177 178 179
4 180 181 182 183
4 184 185 186 187
4 188 189 190 191
4 192 193 194 195
4 196 197 198 199
4 200 201 202 203
4 204 205 206 207
4 208 209 210 211
4 212 213 214 215
4 216 217 218 219
4 220 221 222 223
4 224 225 226 227
4 228 229 230 231
4 232 233 234 235
4 236 237 238 239
4 240 241 242 243
4 244 245 246 247
4 248 249 250 251
4 252 253 254 255
4 256 257 258 259
4 260 261 262 263
4 264 265 266 267
4 268 269 270 271
4 272 273 274 275
4 276 277 278 279
4 280 281 282 283
4 284 285 286 287
4 288 289 290 291
4 292 293 294 295
4 296 297 298 299
4 300 301 302 303
4 304 305 306 307
4 308 309 310 311
4 312 313 314 315
4 316 317 318 319
4 320 321 322 323
4 324 325 326 327
4 328 329 330 331
4 332 333 334 335
4 336 337 338 339
4 340 341 342 343
4 344 345 346 347
4 348 349 350 351
4 352 353 354 355
4 356 357 358 359
4 360 361 362 363
4 364 365 366 367
4 368 369 370 371
4 372 373 374 375
4 376 377 378 379
4 380 381 382 383
4 384 385 386 387
4 388 389 390 391
4 392 393 394 395
4 396 397 398 399
4 400 401 402 403
4 404 405 406 407
4 408 409 410 411
3 412 413 414
3 415 416 417
3 418 419 420
3 421 422 423
3 424 425 426
3 427 428 429
3 430 431 432
3 431 432 433
3 434 435 436
3 435 436 437
3 438 439 440
3 441 442 443
3 444 445 446
3 447 448 449
