ply
format ascii 1.0
element vertex 512
property float x
property float y
property float z
property float nx
property float ny
property float nz
element quads 116
property list uchar int vertex_indices
element triads 16
property list uchar int vertex_indices
end_header
203 524 0 -0 1 0
316 524 0 -0 1 0
316 524 100 -0 1 0
203 524 100 -0 1 0
213 514 0 0 -1 0
306 514 0 0 -1 0
306 514 100 0 -1 0
213 514 100 0 -1 0
213 514 0 1 0 0
213 372 0 1 0 0
213 372 100 1 0 0
213 514 100 1 0 0
203 524 0 -1 -0 0
203 367 0 -1 -0 0
203 367 100 -1 -0 0
203 524 100 -1 -0 0
316 524 0 1 0 0
316 420 0 1 0 0
316 420 100 1 0 0
316 524 100 1 0 0
306 514 0 -1 -0 0
306 415 0 -1 -0 0
306 415 100 -1 -0 0
306 514 100 -1 -0 0
419 343 0 -1 0 0
419 415 0 -1 0 0
419 415 100 -1 0 0
419 343 100 -1 0 0
429 343 0 1 -0 0
429 425 0 1 -0 0
429 425 100 1 -0 0
429 343 100 1 -0 0
419 415 0 -0 -1 0
306 415 0 -0 -1 0
306 415 100 -0 -1 0
419 415 100 -0 -1 0
429 425 0 0 1 0
306 425 0 0 1 0
306 425 100 0 1 0
429 425 100 0 1 0
311 157 0 -0 1 0
453 157 0 -0 1 0
453 157 100 -0 1 0
311 157 100 -0 1 0
311 147 0 0 -1 0
453 147 0 0 -1 0
453 147 100 0 -1 0
311 147 100 0 -1 0
448 37 0 -1 0 0
448 70 0 -1 0 0
448 70 100 -1 0 0
448 37 100 -1 0 0
458 27 0 1 -0 0
458 70 0 1 -0 0
458 70 100 1 -0 0
458 27 100 1 -0 0
458 27 0 -0 -1 0
311 27 0 -0 -1 0
311 27 100 -0 -1 0
458 27 100 -0 -1 0
448 37 0 0 1 0
316 37 0 0 1 0
316 37 100 0 1 0
448 37 100 0 1 0
419 220 0 -1 0 0
419 244 0 -1 0 0
419 244 100 -1 0 0
419 220 100 -1 0 0
429 220 0 1 -0 0
429 244 0 1 -0 0
429 244 100 1 -0 0
429 220 100 1 -0 0
480 462 0 -0 1 0
580 462 0 -0 1 0
580 462 100 -0 1 0
480 462 100 -0 1 0
490 452 0 0 -1 0
570 452 0 0 -1 0
570 452 100 0 -1 0
490 452 100 0 -1 0
490 452 0 1 0 0
490 403 0 1 0 0
490 403 100 1 0 0
490 452 100 1 0 0
480 462 0 -1 -0 0
480 398 0 -1 -0 0
480 398 100 -1 -0 0
480 462 100 -1 -0 0
580 462 0 1 0 0
580 403 0 1 0 0
580 403 100 1 0 0
580 462 100 1 0 0
570 452 0 -1 -0 0
570 403 0 -1 -0 0
570 403 100 -1 -0 0
570 452 100 -1 -0 0
490 393 0 1 0 0
490 286 0 1 0 0
490 286 100 1 0 0
490 393 100 1 0 0
480 398 0 -1 -0 0
480 286 0 -1 -0 0
480 286 100 -1 -0 0
480 398 100 -1 -0 0
490 403 0 -0 1 0
570 403 0 -0 1 0
570 403 100 -0 1 0
490 403 100 -0 1 0
490 393 0 0 -1 0
575 393 0 0 -1 0
575 393 100 0 -1 0
490 393 100 0 -1 0
316 55 0 1 0 0
316 37 0 1 0 0
316 37 100 1 0 0
316 55 100 1 0 0
306 55 0 -1 -0 0
306 37 0 -1 -0 0
306 37 100 -1 -0 0
306 55 100 -1 -0 0
311 27 0 -0 -1 0
203 27 0 -0 -1 0
203 27 100 -0 -1 0
311 27 100 -0 -1 0
306 37 0 0 1 0
213 37 0 0 1 0
213 37 100 0 1 0
306 37 100 0 1 0
203 27 0 -1 0 0
203 320 0 -1 0 0
203 320 100 -1 0 0
203 27 100 -1 0 0
213 37 0 1 -0 0
213 315 0 1 -0 0
213 315 100 1 -0 0
213 37 100 1 -0 0
262 362 0 -0 -1 0
213 362 0 -0 -1 0
213 362 100 -0 -1 0
262 362 100 -0 -1 0
262 372 0 0 1 0
213 372 0 0 1 0
213 372 100 0 1 0
262 372 100 0 1 0
213 362 0 1 0 0
213 315 0 1 0 0
213 315 100 1 0 0
213 362 100 1 0 0
203 367 0 -1 -0 0
203 310 0 -1 -0 0
203 310 100 -1 -0 0
203 367 100 -1 -0 0
316 420 0 1 0 0
316 310 0 1 0 0
316 310 100 1 0 0
316 420 100 1 0 0
306 425 0 -1 -0 0
306 320 0 -1 -0 0
306 320 100 -1 -0 0
306 425 100 -1 -0 0
316 310 0 -0 -1 0
203 310 0 -0 -1 0
203 310 100 -0 -1 0
316 310 100 -0 -1 0
306 320 0 0 1 0
203 320 0 0 1 0
203 320 100 0 1 0
306 320 100 0 1 0
580 403 0 -0 1 0
611 403 0 -0 1 0
611 403 100 -0 1 0
580 403 100 -0 1 0
575 393 0 0 -1 0
611 393 0 0 -1 0
611 393 100 0 -1 0
575 393 100 0 -1 0
575 291 0 -0 1 0
601 291 0 -0 1 0
601 291 100 -0 1 0
575 291 100 -0 1 0
575 281 0 0 -1 0
601 281 0 0 -1 0
601 281 100 0 -1 0
575 281 100 0 -1 0
611 286 0 1 0 0
611 232 0 1 0 0
611 232 100 1 0 0
611 286 100 1 0 0
601 281 0 -1 -0 0
601 232 0 -1 -0 0
601 232 100 -1 -0 0
601 281 100 -1 -0 0
601 291 0 -1 0 0
601 398 0 -1 0 0
601 398 100 -1 0 0
601 291 100 -1 0 0
611 286 0 1 -0 0
611 403 0 1 -0 0
611 403 100 1 -0 0
611 286 100 1 -0 0
601 398 0 -1 0 0
601 457 0 -1 0 0
601 457 100 -1 0 0
601 398 100 -1 0 0
611 393 0 1 -0 0
611 457 0 1 -0 0
611 457 100 1 -0 0
611 393 100 1 -0 0
419 343 0 413.1805419921875 337.236114501953125 0
429 343 0 413.1805419921875 337.236114501953125 0
429 343 100 413.1805419921875 337.236114501953125 0
419 343 100 413.1805419921875 337.236114501953125 0
311 157 0 307.809844970703125 155.894363403320312 0
311 147 0 307.809844970703125 155.894363403320312 0
311 147 100 307.809844970703125 155.894363403320312 0
311 157 100 307.809844970703125 155.894363403320312 0
453 157 0 450.809844970703125 155.894363403320312 0
453 147 0 450.809844970703125 155.894363403320312 0
453 147 100 450.809844970703125 155.894363403320312 0
453 157 100 450.809844970703125 155.894363403320312 0
448 70 0 434.42425537109375 68.8787841796875 0
458 70 0 434.42425537109375 68.8787841796875 0
458 70 100 434.42425537109375 68.8787841796875 0
448 70 100 434.42425537109375 68.8787841796875 0
419 220 0 401.541656494140625 209.833328247070312 0
429 220 0 401.541656494140625 209.833328247070312 0
429 220 100 401.541656494140625 209.833328247070312 0
419 220 100 401.541656494140625 209.833328247070312 0
419 244 0 401.541656494140625 234.833328247070312 0
429 244 0 401.541656494140625 234.833328247070312 0
429 244 100 401.541656494140625 234.833328247070312 0
419 244 100 401.541656494140625 234.833328247070312 0
490 286 0 485.420562744140625 282.327117919921875 0
480 286 0 485.420562744140625 282.327117919921875 0
480 286 100 485.420562744140625 282.327117919921875 0
490 286 100 485.420562744140625 282.327117919921875 0
316 55 0 298.4444580078125 52.9444427490234375 0
306 55 0 298.4444580078125 52.9444427490234375 0
306 55 100 298.4444580078125 52.9444427490234375 0
316 55 100 298.4444580078125 52.9444427490234375 0
262 362 0 257.653076171875 354.61224365234375 0
262 372 0 257.653076171875 354.61224365234375 0
262 372 100 257.653076171875 354.61224365234375 0
262 362 100 257.653076171875 354.61224365234375 0
575 291 0 551.8846435546875 279.80767822265625 0
575 281 0 551.8846435546875 279.80767822265625 0
575 281 100 551.8846435546875 279.80767822265625 0
575 291 100 551.8846435546875 279.80767822265625 0
611 232 0 599.6851806640625 226.703704833984375 0
601 232 0 599.6851806640625 226.703704833984375 0
601 232 100 599.6851806640625 226.703704833984375 0
611 232 100 599.6851806640625 226.703704833984375 0
601 457 0 590.81353759765625 450.254241943359375 0
611 457 0 590.81353759765625 450.254241943359375 0
611 457 100 590.81353759765625 450.254241943359375 0
601 457 100 590.81353759765625 450.254241943359375 0
203 524 0 0 0 -1
213 514 0 0 0 -1
306 514 0 0 0 -1
316 524 0 0 0 -1
203 524 100 0 0 1
213 514 100 0 0 1
306 514 100 0 0 1
316 524 100 0 0 1
213 514 0 0 0 -1
203 524 0 0 0 -1
203 367 0 0 0 -1
213 372 0 0 0 -1
213 514 100 0 0 1
203 524 100 0 0 1
203 367 100 0 0 1
213 372 100 0 0 1
316 524 0 0 0 -1
306 514 0 0 0 -1
306 415 0 0 0 -1
316 420 0 0 0 -1
316 524 100 0 0 1
306 514 100 0 0 1
306 415 100 0 0 1
316 420 100 0 0 1
419 343 0 0 0 -1
429 343 0 0 0 -1
429 425 0 0 0 -1
419 415 0 0 0 -1
419 343 100 0 0 1
429 343 100 0 0 1
429 425 100 0 0 1
419 415 100 0 0 1
419 415 0 0 0 -1
429 425 0 0 0 -1
306 425 0 0 0 -1
306 415 0 0 0 -1
419 415 100 0 0 1
429 425 100 0 0 1
306 425 100 0 0 1
306 415 100 0 0 1
311 157 0 0 0 -1
311 147 0 0 0 -1
453 147 0 0 0 -1
453 157 0 0 0 -1
311 157 100 0 0 1
311 147 100 0 0 1
453 147 100 0 0 1
453 157 100 0 0 1
448 37 0 0 0 -1
458 27 0 0 0 -1
458 70 0 0 0 -1
448 70 0 0 0 -1
448 37 100 0 0 1
458 27 100 0 0 1
458 70 100 0 0 1
448 70 100 0 0 1
458 27 0 0 0 -1
448 37 0 0 0 -1
316 37 0 0 0 -1
311 27 0 0 0 -1
458 27 100 0 0 1
448 37 100 0 0 1
316 37 100 0 0 1
311 27 100 0 0 1
419 220 0 0 0 -1
429 220 0 0 0 -1
429 244 0 0 0 -1
419 244 0 0 0 -1
419 220 100 0 0 1
429 220 100 0 0 1
429 244 100 0 0 1
419 244 100 0 0 1
480 462 0 0 0 -1
490 452 0 0 0 -1
570 452 0 0 0 -1
580 462 0 0 0 -1
480 462 100 0 0 1
490 452 100 0 0 1
570 452 100 0 0 1
580 462 100 0 0 1
490 452 0 0 0 -1
480 462 0 0 0 -1
480 398 0 0 0 -1
490 403 0 0 0 -1
490 452 100 0 0 1
480 462 100 0 0 1
480 398 100 0 0 1
490 403 100 0 0 1
580 462 0 0 0 -1
570 452 0 0 0 -1
570 403 0 0 0 -1
580 403 0 0 0 -1
580 462 100 0 0 1
570 452 100 0 0 1
570 403 100 0 0 1
580 403 100 0 0 1
490 393 0 0 0 -1
480 398 0 0 0 -1
480 286 0 0 0 -1
490 286 0 0 0 -1
490 393 100 0 0 1
480 398 100 0 0 1
480 286 100 0 0 1
490 286 100 0 0 1
490 403 0 0 0 -1
490 393 0 0 0 -1
575 393 0 0 0 -1
570 403 0 0 0 -1
490 403 100 0 0 1
490 393 100 0 0 1
575 393 100 0 0 1
570 403 100 0 0 1
316 55 0 0 0 -1
306 55 0 0 0 -1
306 37 0 0 0 -1
316 37 0 0 0 -1
316 55 100 0 0 1
306 55 100 0 0 1
306 37 100 0 0 1
316 37 100 0 0 1
311 27 0 0 0 -1
306 37 0 0 0 -1
213 37 0 0 0 -1
203 27 0 0 0 -1
311 27 100 0 0 1
306 37 100 0 0 1
213 37 100 0 0 1
203 27 100 0 0 1
203 27 0 0 0 -1
213 37 0 0 0 -1
213 315 0 0 0 -1
203 320 0 0 0 -1
203 27 100 0 0 1
213 37 100 0 0 1
213 315 100 0 0 1
203 320 100 0 0 1
262 362 0 0 0 -1
262 372 0 0 0 -1
213 372 0 0 0 -1
213 362 0 0 0 -1
262 362 100 0 0 1
262 372 100 0 0 1
213 372 100 0 0 1
213 362 100 0 0 1
213 362 0 0 0 -1
203 367 0 0 0 -1
203 310 0 0 0 -1
213 315 0 0 0 -1
213 362 100 0 0 1
203 367 100 0 0 1
203 310 100 0 0 1
213 315 100 0 0 1
316 420 0 0 0 -1
306 425 0 0 0 -1
306 320 0 0 0 -1
316 310 0 0 0 -1
316 420 100 0 0 1
306 425 100 0 0 1
306 320 100 0 0 1
316 310 100 0 0 1
316 310 0 0 0 -1
306 320 0 0 0 -1
203 320 0 0 0 -1
203 310 0 0 0 -1
316 310 100 0 0 1
306 320 100 0 0 1
203 320 100 0 0 1
203 310 100 0 0 1
580 403 0 0 0 -1
575 393 0 0 0 -1
611 393 0 0 0 -1
611 403 0 0 0 -1
580 403 100 0 0 1
575 393 100 0 0 1
611 393 100 0 0 1
611 403 100 0 0 1
575 291 0 0 0 -1
575 281 0 0 0 -1
601 281 0 0 0 -1
601 291 0 0 0 -1
575 291 100 0 0 1
575 281 100 0 0 1
601 281 100 0 0 1
601 291 100 0 0 1
611 286 0 0 0 -1
601 281 0 0 0 -1
601 232 0 0 0 -1
611 232 0 0 0 -1
611 286 100 0 0 1
601 281 100 0 0 1
601 232 100 0 0 1
611 232 100 0 0 1
601 291 0 0 0 -1
611 286 0 0 0 -1
611 403 0 0 0 -1
601 398 0 0 0 -1
601 291 100 0 0 1
611 286 100 0 0 1
611 403 100 0 0 1
601 398 100 0 0 1
601 398 0 0 0 -1
611 393 0 0 0 -1
611 457 0 0 0 -1
601 457 0 0 0 -1
601 398 100 0 0 1
611 393 100 0 0 1
611 457 100 0 0 1
601 457 100 0 0 1
480 398 0 0 0 -1
490 393 0 0 0 -1
490 403 0 0 0 -1
480 398 100 0 0 1
490 393 100 0 0 1
490 403 100 0 0 1
306 37 0 0 0 -1
311 27 0 0 0 -1
316 37 0 0 0 -1
306 37 100 0 0 1
311 27 100 0 0 1
316 37 100 0 0 1
213 372 0 0 0 -1
203 367 0 0 0 -1
213 362 0 0 0 -1
213 372 100 0 0 1
203 367 100 0 0 1
213 362 100 0 0 1
306 425 0 0 0 -1
316 420 0 0 0 -1
306 415 0 0 0 -1
306 425 100 0 0 1
316 420 100 0 0 1
306 415 100 0 0 1
203 320 0 0 0 -1
213 315 0 0 0 -1
203 310 0 0 0 -1
203 320 100 0 0 1
213 315 100 0 0 1
203 310 100 0 0 1
570 403 0 0 0 -1
575 393 0 0 0 -1
580 403 0 0 0 -1
570 403 100 0 0 1
575 393 100 0 0 1
580 403 100 0 0 1
601 281 0 0 0 -1
611 286 0 0 0 -1
601 291 0 0 0 -1
601 281 100 0 0 1
611 286 100 0 0 1
601 291 100 0 0 1
611 393 0 0 0 -1
601 398 0 0 0 -1
611 403 0 0 0 -1
611 393 100 0 0 1
601 398 100 0 0 1
611 403 100 0 0 1
4 0 1 2 3
4 4 5 6 7
4 8 9 10 11
4 12 13 14 15
4 16 17 18 19
4 20 21 22 23
4 24 25 26 27
4 28 29 30 31
4 32 33 34 35
4 36 37 38 39
4 40 41 42 43
4 44 45 46 47
4 48 49 50 51
4 52 53 54 55
4 56 57 58 59
4 60 61 62 63
4 64 65 66 67
4 68 69 70 71
4 72 73 74 75
4 76 77 78 79
4 80 81 82 83
4 84 85 86 87
4 88 89 90 91
4 92 93 94 95
4 96 97 98 99
4 100 101 102 103
4 104 105 106 107
4 108 109 110 111
4 112 113 114 115
4 116 117 118 119
4 120 121 122 123
4 124 125 126 127
4 128 129 130 131
4 132 133 134 135
4 136 137 138 139
4 140 141 142 143
4 144 145 146 147
4 148 149 150 151
4 152 153 154 155
4 156 157 158 159
4 160 161 162 163
4 164 165 166 167
4 168 169 170 171
4 172 173 174 175
4 176 177 178 179
4 180 181 182 183
4 184 185 186 187
4 188 189 190 191
4 192 193 194 195
4 196 197 198 199
4 200 201 202 203
4 204 205 206 207
4 208 209 210 211
4 212 213 214 215
4 216 217 218 219
4 220 221 222 223
4 224 225 226 227
4 228 229 230 231
4 232 233 234 235
4 236 237 238 239
4 240 241 242 243
4 244 245 246 247
4 248 249 250 251
4 252 253 254 255
4 256 257 258 259
4 260 261 262 263
4 264 265 266 267
4 268 269 270 271
4 272 273 274 275
4 276 277 278 279
4 280 281 282 283
4 284 285 286 287
4 288 289 290 291
4 292 293 294 295
4 296 297 298 299
4 300 301 302 303
4 304 305 306 307
4 308 309 310 311
4 312 313 314 315
4 316 317 318 319
4 320 321 322 323
4 324 325 326 327
4 328 329 330 331
4 332 333 334 335
4 336 337 338 339
4 340 341 342 343
4 344 345 346 347
4 348 349 350 351
4 352 353 354 355
4 356 357 358 359
4 360 361 362 363
4 364 365 366 367
4 368 369 370 371
4 372 373 374 375
4 376 377 378 379
4 380 381 382 383
4 384 385 386 387
4 388 389 390 391
4 392 393 394 395
4 396 397 398 399
4 400 401 402 403
4 404 405 406 407
4 408 409 410 411
4 412 413 414 415
4 416 417 418 419
4 420 421 422 423
4 424 425 426 427
4 428 429 430 431
4 432 433 434 435
4 436 437 438 439
4 440 441 442 443
4 444 445 446 447
4 448 449 450 451
4 452 453 454 455
4 456 457 458 459
4 460 461 462 463
3 464 465 466
3 467 468 469
3 470 471 472
3 473 474 475
3 476 477 478
3 479 480 481
3 482 483 484
3 485 486 487
3 488 489 490
3 491 492 493
3 494 495 496
3 497 498 499
3 500 501 502
3 503 504 505
3 506 507 508
3 509 510 511
