ply
format ascii 1.0
element vertex 566
property float x
property float y
property float z
property float nx
property float ny
property float nz
element quads 125
property list uchar int vertex_indices
element triads 22
property list uchar int vertex_indices
end_header
525 281 0 -0 1 0
611 281 0 -0 1 0
611 281 100 -0 1 0
525 281 100 -0 1 0
525 271 0 0 -1 0
611 271 0 0 -1 0
611 271 100 0 -1 0
525 271 100 0 -1 0
293 498 0 -0 1 0
530 498 0 -0 1 0
530 498 100 -0 1 0
293 498 100 -0 1 0
303 488 0 0 -1 0
520 488 0 0 -1 0
520 488 100 0 -1 0
303 488 100 0 -1 0
303 488 0 1 0 0
303 421 0 1 0 0
303 421 100 1 0 0
303 488 100 1 0 0
293 498 0 -1 -0 0
293 426 0 -1 -0 0
293 426 100 -1 -0 0
293 498 100 -1 -0 0
530 498 0 1 0 0
530 346 0 1 0 0
530 346 100 1 0 0
530 498 100 1 0 0
520 488 0 -1 -0 0
520 341 0 -1 -0 0
520 341 100 -1 -0 0
520 488 100 -1 -0 0
303 55 0 -0 1 0
520 55 0 -0 1 0
520 55 100 -0 1 0
303 55 100 -0 1 0
293 45 0 0 -1 0
530 45 0 0 -1 0
530 45 100 0 -1 0
293 45 100 0 -1 0
293 45 0 -1 0 0
293 126 0 -1 0 0
293 126 100 -1 0 0
293 45 100 -1 0 0
303 55 0 1 -0 0
303 131 0 1 -0 0
303 131 100 1 -0 0
303 55 100 1 -0 0
520 55 0 -1 0 0
520 212 0 -1 0 0
520 212 100 -1 0 0
520 55 100 -1 0 0
530 45 0 1 -0 0
530 212 0 1 -0 0
530 212 100 1 -0 0
530 45 100 1 -0 0
671 222 0 -1 0 0
671 336 0 -1 0 0
671 336 100 -1 0 0
671 222 100 -1 0 0
681 212 0 1 -0 0
681 346 0 1 -0 0
681 346 100 1 -0 0
681 212 100 1 -0 0
681 212 0 -0 -1 0
530 212 0 -0 -1 0
530 212 100 -0 -1 0
681 212 100 -0 -1 0
671 222 0 0 1 0
525 222 0 0 1 0
525 222 100 0 1 0
671 222 100 0 1 0
671 336 0 -0 -1 0
530 336 0 -0 -1 0
530 336 100 -0 -1 0
671 336 100 -0 -1 0
681 346 0 0 1 0
530 346 0 0 1 0
530 346 100 0 1 0
681 346 100 0 1 0
520 212 0 -0 -1 0
450 212 0 -0 -1 0
450 212 100 -0 -1 0
520 212 100 -0 -1 0
525 222 0 0 1 0
455 222 0 0 1 0
455 222 100 0 1 0
525 222 100 0 1 0
210 136 0 -0 1 0
293 136 0 -0 1 0
293 136 100 -0 1 0
210 136 100 -0 1 0
200 126 0 0 -1 0
293 126 0 0 -1 0
293 126 100 0 -1 0
200 126 100 0 -1 0
200 126 0 -1 0 0
200 281 0 -1 0 0
200 281 100 -1 0 0
200 126 100 -1 0 0
210 136 0 1 -0 0
210 276 0 1 -0 0
210 276 100 1 -0 0
210 136 100 1 -0 0
293 136 0 -1 0 0
293 260 0 -1 0 0
293 260 100 -1 0 0
293 136 100 -1 0 0
303 131 0 1 -0 0
303 255 0 1 -0 0
303 255 100 1 -0 0
303 131 100 1 -0 0
415 297 0 -0 1 0
460 297 0 -0 1 0
460 297 100 -0 1 0
415 297 100 -0 1 0
415 287 0 0 -1 0
455 287 0 0 -1 0
455 287 100 0 -1 0
415 287 100 0 -1 0
450 297 0 -0 1 0
520 297 0 -0 1 0
520 297 100 -0 1 0
450 297 100 -0 1 0
455 287 0 0 -1 0
530 287 0 0 -1 0
530 287 100 0 -1 0
455 287 100 0 -1 0
460 297 0 1 0 0
460 250 0 1 0 0
460 250 100 1 0 0
460 297 100 1 0 0
450 297 0 -1 -0 0
450 255 0 -1 -0 0
450 255 100 -1 -0 0
450 297 100 -1 -0 0
200 431 0 -0 1 0
303 431 0 -0 1 0
303 431 100 -0 1 0
200 431 100 -0 1 0
210 421 0 0 -1 0
303 421 0 0 -1 0
303 421 100 0 -1 0
210 421 100 0 -1 0
210 421 0 1 0 0
210 276 0 1 0 0
210 276 100 1 0 0
210 421 100 1 0 0
200 431 0 -1 -0 0
200 271 0 -1 -0 0
200 271 100 -1 -0 0
200 431 100 -1 -0 0
303 431 0 1 0 0
303 297 0 1 0 0
303 297 100 1 0 0
303 431 100 1 0 0
293 426 0 -1 -0 0
293 287 0 -1 -0 0
293 287 100 -1 -0 0
293 426 100 -1 -0 0
530 336 0 1 0 0
530 287 0 1 0 0
530 287 100 1 0 0
530 336 100 1 0 0
520 341 0 -1 -0 0
520 297 0 -1 -0 0
520 297 100 -1 -0 0
520 341 100 -1 -0 0
334 287 0 -0 -1 0
293 287 0 -0 -1 0
293 287 100 -0 -1 0
334 287 100 -0 -1 0
334 297 0 0 1 0
303 297 0 0 1 0
303 297 100 0 1 0
334 297 100 0 1 0
200 281 0 -0 1 0
303 281 0 -0 1 0
303 281 100 -0 1 0
200 281 100 -0 1 0
200 271 0 0 -1 0
293 271 0 0 -1 0
293 271 100 0 -1 0
200 271 100 0 -1 0
303 281 0 1 0 0
303 255 0 1 0 0
303 255 100 1 0 0
303 281 100 1 0 0
293 271 0 -1 -0 0
293 250 0 -1 -0 0
293 250 100 -1 -0 0
293 271 100 -1 -0 0
460 212 0 -0 -1 0
415 212 0 -0 -1 0
415 212 100 -0 -1 0
460 212 100 -0 -1 0
455 222 0 0 1 0
420 222 0 0 1 0
420 222 100 0 1 0
455 222 100 0 1 0
450 212 0 -1 0 0
450 255 0 -1 0 0
450 255 100 -1 0 0
450 212 100 -1 0 0
460 212 0 1 -0 0
460 260 0 1 -0 0
460 260 100 1 -0 0
460 212 100 1 -0 0
420 260 0 1 0 0
420 222 0 1 0 0
420 222 100 1 0 0
420 260 100 1 0 0
410 260 0 -1 -0 0
410 222 0 -1 -0 0
410 222 100 -1 -0 0
410 260 100 -1 -0 0
415 250 0 -0 -1 0
293 250 0 -0 -1 0
293 250 100 -0 -1 0
415 250 100 -0 -1 0
420 260 0 0 1 0
293 260 0 0 1 0
293 260 100 0 1 0
420 260 100 0 1 0
410 260 0 -0 1 0
460 260 0 -0 1 0
460 260 100 -0 1 0
410 260 100 -0 1 0
415 250 0 0 -1 0
460 250 0 0 -1 0
460 250 100 0 -1 0
415 250 100 0 -1 0
415 212 0 -0 -1 0
388 212 0 -0 -1 0
388 212 100 -0 -1 0
415 212 100 -0 -1 0
410 222 0 0 1 0
388 222 0 0 1 0
388 222 100 0 1 0
410 222 100 0 1 0
525 281 0 517.89532470703125 277.7325439453125 0
525 271 0 517.89532470703125 277.7325439453125 0
525 271 100 517.89532470703125 277.7325439453125 0
525 281 100 517.89532470703125 277.7325439453125 0
611 281 0 604.89532470703125 277.7325439453125 0
611 271 0 604.89532470703125 277.7325439453125 0
611 271 100 604.89532470703125 277.7325439453125 0
611 281 100 604.89532470703125 277.7325439453125 0
415 297 0 404.77777099609375 290.399993896484375 0
415 287 0 404.77777099609375 290.399993896484375 0
415 287 100 404.77777099609375 290.399993896484375 0
415 297 100 404.77777099609375 290.399993896484375 0
334 287 0 326.853668212890625 280 0
334 297 0 326.853668212890625 280 0
334 297 100 326.853668212890625 280 0
334 287 100 326.853668212890625 280 0
388 212 0 372.629638671875 204.148147583007812 0
388 222 0 372.629638671875 204.148147583007812 0
388 222 100 372.629638671875 204.148147583007812 0
388 212 100 372.629638671875 204.148147583007812 0
525 281 0 0 0 -1
525 271 0 0 0 -1
611 271 0 0 0 -1
611 281 0 0 0 -1
525 281 100 0 0 1
525 271 100 0 0 1
611 271 100 0 0 1
611 281 100 0 0 1
293 498 0 0 0 -1
303 488 0 0 0 -1
520 488 0 0 0 -1
530 498 0 0 0 -1
293 498 100 0 0 1
303 488 100 0 0 1
520 488 100 0 0 1
530 498 100 0 0 1
303 488 0 0 0 -1
293 498 0 0 0 -1
293 426 0 0 0 -1
303 421 0 0 0 -1
303 488 100 0 0 1
293 498 100 0 0 1
293 426 100 0 0 1
303 421 100 0 0 1
530 498 0 0 0 -1
520 488 0 0 0 -1
520 341 0 0 0 -1
530 346 0 0 0 -1
530 498 100 0 0 1
520 488 100 0 0 1
520 341 100 0 0 1
530 346 100 0 0 1
303 55 0 0 0 -1
293 45 0 0 0 -1
530 45 0 0 0 -1
520 55 0 0 0 -1
303 55 100 0 0 1
293 45 100 0 0 1
530 45 100 0 0 1
520 55 100 0 0 1
293 45 0 0 0 -1
303 55 0 0 0 -1
303 131 0 0 0 -1
293 126 0 0 0 -1
293 45 100 0 0 1
303 55 100 0 0 1
303 131 100 0 0 1
293 126 100 0 0 1
520 55 0 0 0 -1
530 45 0 0 0 -1
530 212 0 0 0 -1
520 212 0 0 0 -1
520 55 100 0 0 1
530 45 100 0 0 1
530 212 100 0 0 1
520 212 100 0 0 1
671 222 0 0 0 -1
681 212 0 0 0 -1
681 346 0 0 0 -1
671 336 0 0 0 -1
671 222 100 0 0 1
681 212 100 0 0 1
681 346 100 0 0 1
671 336 100 0 0 1
681 212 0 0 0 -1
671 222 0 0 0 -1
525 222 0 0 0 -1
530 212 0 0 0 -1
681 212 100 0 0 1
671 222 100 0 0 1
525 222 100 0 0 1
530 212 100 0 0 1
671 336 0 0 0 -1
681 346 0 0 0 -1
530 346 0 0 0 -1
530 336 0 0 0 -1
671 336 100 0 0 1
681 346 100 0 0 1
530 346 100 0 0 1
530 336 100 0 0 1
520 212 0 0 0 -1
525 222 0 0 0 -1
455 222 0 0 0 -1
450 212 0 0 0 -1
520 212 100 0 0 1
525 222 100 0 0 1
455 222 100 0 0 1
450 212 100 0 0 1
210 136 0 0 0 -1
200 126 0 0 0 -1
293 126 0 0 0 -1
293 136 0 0 0 -1
210 136 100 0 0 1
200 126 100 0 0 1
293 126 100 0 0 1
293 136 100 0 0 1
200 126 0 0 0 -1
210 136 0 0 0 -1
210 276 0 0 0 -1
200 281 0 0 0 -1
200 126 100 0 0 1
210 136 100 0 0 1
210 276 100 0 0 1
200 281 100 0 0 1
293 136 0 0 0 -1
303 131 0 0 0 -1
303 255 0 0 0 -1
293 260 0 0 0 -1
293 136 100 0 0 1
303 131 100 0 0 1
303 255 100 0 0 1
293 260 100 0 0 1
415 297 0 0 0 -1
415 287 0 0 0 -1
455 287 0 0 0 -1
460 297 0 0 0 -1
415 297 100 0 0 1
415 287 100 0 0 1
455 287 100 0 0 1
460 297 100 0 0 1
450 297 0 0 0 -1
455 287 0 0 0 -1
530 287 0 0 0 -1
520 297 0 0 0 -1
450 297 100 0 0 1
455 287 100 0 0 1
530 287 100 0 0 1
520 297 100 0 0 1
460 297 0 0 0 -1
450 297 0 0 0 -1
450 255 0 0 0 -1
460 250 0 0 0 -1
460 297 100 0 0 1
450 297 100 0 0 1
450 255 100 0 0 1
460 250 100 0 0 1
200 431 0 0 0 -1
210 421 0 0 0 -1
303 421 0 0 0 -1
303 431 0 0 0 -1
200 431 100 0 0 1
210 421 100 0 0 1
303 421 100 0 0 1
303 431 100 0 0 1
210 421 0 0 0 -1
200 431 0 0 0 -1
200 271 0 0 0 -1
210 276 0 0 0 -1
210 421 100 0 0 1
200 431 100 0 0 1
200 271 100 0 0 1
210 276 100 0 0 1
303 431 0 0 0 -1
293 426 0 0 0 -1
293 287 0 0 0 -1
303 297 0 0 0 -1
303 431 100 0 0 1
293 426 100 0 0 1
293 287 100 0 0 1
303 297 100 0 0 1
530 336 0 0 0 -1
520 341 0 0 0 -1
520 297 0 0 0 -1
530 287 0 0 0 -1
530 336 100 0 0 1
520 341 100 0 0 1
520 297 100 0 0 1
530 287 100 0 0 1
334 287 0 0 0 -1
334 297 0 0 0 -1
303 297 0 0 0 -1
293 287 0 0 0 -1
334 287 100 0 0 1
334 297 100 0 0 1
303 297 100 0 0 1
293 287 100 0 0 1
200 281 0 0 0 -1
200 271 0 0 0 -1
293 271 0 0 0 -1
303 281 0 0 0 -1
200 281 100 0 0 1
200 271 100 0 0 1
293 271 100 0 0 1
303 281 100 0 0 1
303 281 0 0 0 -1
293 271 0 0 0 -1
293 250 0 0 0 -1
303 255 0 0 0 -1
303 281 100 0 0 1
293 271 100 0 0 1
293 250 100 0 0 1
303 255 100 0 0 1
460 212 0 0 0 -1
455 222 0 0 0 -1
420 222 0 0 0 -1
415 212 0 0 0 -1
460 212 100 0 0 1
455 222 100 0 0 1
420 222 100 0 0 1
415 212 100 0 0 1
450 212 0 0 0 -1
460 212 0 0 0 -1
460 260 0 0 0 -1
450 255 0 0 0 -1
450 212 100 0 0 1
460 212 100 0 0 1
460 260 100 0 0 1
450 255 100 0 0 1
420 260 0 0 0 -1
410 260 0 0 0 -1
410 222 0 0 0 -1
420 222 0 0 0 -1
420 260 100 0 0 1
410 260 100 0 0 1
410 222 100 0 0 1
420 222 100 0 0 1
415 250 0 0 0 -1
420 260 0 0 0 -1
293 260 0 0 0 -1
293 250 0 0 0 -1
415 250 100 0 0 1
420 260 100 0 0 1
293 260 100 0 0 1
293 250 100 0 0 1
410 260 0 0 0 -1
415 250 0 0 0 -1
460 250 0 0 0 -1
460 260 0 0 0 -1
410 260 100 0 0 1
415 250 100 0 0 1
460 250 100 0 0 1
460 260 100 0 0 1
415 212 0 0 0 -1
410 222 0 0 0 -1
388 222 0 0 0 -1
388 212 0 0 0 -1
415 212 100 0 0 1
410 222 100 0 0 1
388 222 100 0 0 1
388 212 100 0 0 1
530 212 0 0 0 -1
525 222 0 0 0 -1
520 212 0 0 0 -1
530 212 100 0 0 1
525 222 100 0 0 1
520 212 100 0 0 1
293 126 0 0 0 -1
303 131 0 0 0 -1
293 136 0 0 0 -1
293 126 100 0 0 1
303 131 100 0 0 1
293 136 100 0 0 1
455 287 0 0 0 -1
450 297 0 0 0 -1
460 297 0 0 0 -1
455 287 100 0 0 1
450 297 100 0 0 1
460 297 100 0 0 1
303 421 0 0 0 -1
293 426 0 0 0 -1
303 431 0 0 0 -1
303 421 100 0 0 1
293 426 100 0 0 1
303 431 100 0 0 1
530 346 0 0 0 -1
520 341 0 0 0 -1
530 336 0 0 0 -1
530 346 100 0 0 1
520 341 100 0 0 1
530 336 100 0 0 1
210 276 0 0 0 -1
200 271 0 0 0 -1
200 281 0 0 0 -1
210 276 100 0 0 1
200 271 100 0 0 1
200 281 100 0 0 1
455 222 0 0 0 -1
460 212 0 0 0 -1
450 212 0 0 0 -1
455 222 100 0 0 1
460 212 100 0 0 1
450 212 100 0 0 1
420 260 0 0 0 -1
415 250 0 0 0 -1
410 260 0 0 0 -1
420 260 100 0 0 1
415 250 100 0 0 1
410 260 100 0 0 1
410 222 0 0 0 -1
415 212 0 0 0 -1
420 222 0 0 0 -1
410 222 100 0 0 1
415 212 100 0 0 1
420 222 100 0 0 1
293 260 0 0 0 -1
303 255 0 0 0 -1
293 250 0 0 0 -1
293 260 100 0 0 1
303 255 100 0 0 1
293 250 100 0 0 1
460 250 0 0 0 -1
450 255 0 0 0 -1
460 260 0 0 0 -1
460 250 100 0 0 1
450 255 100 0 0 1
460 260 100 0 0 1
4 0 1 2 3
4 4 5 6 7
4 8 9 10 11
4 12 13 14 15
4 16 17 18 19
4 20 21 22 23
4 24 25 26 27
4 28 29 30 31
4 32 33 34 35
4 36 37 38 39
4 40 41 42 43
4 44 45 46 47
4 48 49 50 51
4 52 53 54 55
4 56 57 58 59
4 60 61 62 63
4 64 65 66 67
4 68 69 70 71
4 72 73 74 75
4 76 77 78 79
4 80 81 82 83
4 84 85 86 87
4 88 89 90 91
4 92 93 94 95
4 96 97 98 99
4 100 101 102 103
4 104 105 106 107
4 108 109 110 111
4 112 113 114 115
4 116 117 118 119
4 120 121 122 123
4 124 125 126 127
4 128 129 130 131
4 132 133 134 135
4 136 137 138 139
4 140 141 142 143
4 144 145 146 147
4 148 149 150 151
4 152 153 154 155
4 156 157 158 159
4 160 161 162 163
4 164 165 166 167
4 168 169 170 171
4 172 173 174 175
4 176 177 178 179
4 180 181 182 183
4 184 185 186 187
4 188 189 190 191
4 192 193 194 195
4 196 197 198 199
4 200 201 202 203
4 204 205 206 207
4 208 209 210 211
4 212 213 214 215
4 216 217 218 219
4 220 221 222 223
4 224 225 226 227
4 228 229 230 231
4 232 233 234 235
4 236 237 238 239
4 240 241 242 243
4 244 245 246 247
4 248 249 250 251
4 252 253 254 255
4 256 257 258 259
4 260 261 262 263
4 264 265 266 267
4 268 269 270 271
4 272 273 274 275
4 276 277 278 279
4 280 281 282 283
4 284 285 286 287
4 288 289 290 291
4 292 293 294 295
4 296 297 298 299
4 300 301 302 303
4 304 305 306 307
4 308 309 310 311
4 312 313 314 315
4 316 317 318 319
4 320 321 322 323
4 324 325 326 327
4 328 329 330 331
4 332 333 334 335
4 336 337 338 339
4 340 341 342 343
4 344 345 346 347
4 348 349 350 351
4 352 353 354 355
4 356 357 358 359
4 360 361 362 363
4 364 365 366 367
4 368 369 370 371
4 372 373 374 375
4 376 377 378 379
4 380 381 382 383
4 384 385 386 387
4 388 389 390 391
4 392 393 394 395
4 396 397 398 399
4 400 401 402 403
4 404 405 406 407
4 408 409 410 411
4 412 413 414 415
4 416 417 418 419
4 420 421 422 423
4 424 425 426 427
4 428 429 430 431
4 432 433 434 435
4 436 437 438 439
4 440 441 442 443
4 444 445 446 447
4 448 449 450 451
4 452 453 454 455
4 456 457 458 459
4 460 461 462 463
4 464 465 466 467
4 468 469 470 471
4 472 473 474 475
4 476 477 478 479
4 480 481 482 483
4 484 485 486 487
4 488 489 490 491
4 492 493 494 495
4 496 497 498 499
3 500 501 502
3 503 504 505
3 506 507 508
3 509 510 511
3 512 513 514
3 515 516 517
3 518 519 520
3 521 522 523
3 524 525 526
3 527 528 529
3 530 531 532
3 533 534 535
3 536 537 538
3 539 540 541
3 542 543 544
3 545 546 547
3 548 549 550
3 551 552 553
3 554 555 556
3 557 558 559
3 560 561 562
3 563 564 565
