ply
format ascii 1.0
element vertex 338
property float x
property float y
property float z
property float nx
property float ny
property float nz
element quads 83
property list uchar int vertex_indices
element triads 2
property list uchar int vertex_indices
end_header
238 226 0 1 0 0
238 88 0 1 0 0
238 88 100 1 0 0
238 226 100 1 0 0
228 226 0 -1 -0 0
228 88 0 -1 -0 0
228 88 100 -1 -0 0
228 226 100 -1 -0 0
238 531 0 1 0 0
238 319 0 1 0 0
238 319 100 1 0 0
238 531 100 1 0 0
228 541 0 -1 -0 0
228 319 0 -1 -0 0
228 319 100 -1 -0 0
228 541 100 -1 -0 0
228 541 0 -0 1 0
302 541 0 -0 1 0
302 541 100 -0 1 0
228 541 100 -0 1 0
238 531 0 0 -1 0
302 531 0 0 -1 0
302 531 100 0 -1 0
238 531 100 0 -1 0
316 93 0 -0 1 0
387 93 0 -0 1 0
387 93 100 -0 1 0
316 93 100 -0 1 0
316 83 0 0 -1 0
387 83 0 0 -1 0
387 83 100 0 -1 0
316 83 100 0 -1 0
270 377 0 1 0 0
270 319 0 1 0 0
270 319 100 1 0 0
270 377 100 1 0 0
260 377 0 -1 -0 0
260 319 0 -1 -0 0
260 319 100 -1 -0 0
260 377 100 -1 -0 0
301 554 0 -0 1 0
387 554 0 -0 1 0
387 554 100 -0 1 0
301 554 100 -0 1 0
301 544 0 0 -1 0
387 544 0 0 -1 0
387 544 100 0 -1 0
301 544 100 0 -1 0
392 384 0 1 0 0
392 281 0 1 0 0
392 281 100 1 0 0
392 384 100 1 0 0
382 384 0 -1 -0 0
382 281 0 -1 -0 0
382 281 100 -1 -0 0
382 384 100 -1 -0 0
524 231 0 -0 1 0
582 231 0 -0 1 0
582 231 100 -0 1 0
524 231 100 -0 1 0
524 221 0 0 -1 0
582 221 0 0 -1 0
582 221 100 0 -1 0
524 221 100 0 -1 0
609 166 0 1 0 0
609 88 0 1 0 0
609 88 100 1 0 0
609 166 100 1 0 0
599 166 0 -1 -0 0
599 88 0 -1 -0 0
599 88 100 -1 -0 0
599 166 100 -1 -0 0
203 226 0 -1 0 0
203 322 0 -1 0 0
203 322 100 -1 0 0
203 226 100 -1 0 0
213 226 0 1 -0 0
213 322 0 1 -0 0
213 322 100 1 -0 0
213 226 100 1 -0 0
466 88 0 -1 0 0
466 256 0 -1 0 0
466 256 100 -1 0 0
466 88 100 -1 0 0
476 88 0 1 -0 0
476 256 0 1 -0 0
476 256 100 1 -0 0
476 88 100 1 -0 0
612 88 0 -1 0 0
612 354 0 -1 0 0
612 354 100 -1 0 0
612 88 100 -1 0 0
622 88 0 1 -0 0
622 364 0 1 -0 0
622 364 100 1 -0 0
622 88 100 1 -0 0
612 354 0 -0 -1 0
476 354 0 -0 -1 0
476 354 100 -0 -1 0
612 354 100 -0 -1 0
622 364 0 0 1 0
476 364 0 0 1 0
476 364 100 0 1 0
622 364 100 0 1 0
476 379 0 1 0 0
476 364 0 1 0 0
476 364 100 1 0 0
476 379 100 1 0 0
466 379 0 -1 -0 0
466 359 0 -1 -0 0
466 359 100 -1 -0 0
466 379 100 -1 -0 0
476 354 0 1 0 0
476 325 0 1 0 0
476 325 100 1 0 0
476 354 100 1 0 0
466 359 0 -1 -0 0
466 325 0 -1 -0 0
466 325 100 -1 -0 0
466 359 100 -1 -0 0
238 226 0 236.275360107421875 225.362319946289062 0
228 226 0 236.275360107421875 225.362319946289062 0
228 226 100 236.275360107421875 225.362319946289062 0
238 226 100 236.275360107421875 225.362319946289062 0
238 88 0 236.275360107421875 86.3623199462890625 0
228 88 0 236.275360107421875 86.3623199462890625 0
228 88 100 236.275360107421875 86.3623199462890625 0
238 88 100 236.275360107421875 86.3623199462890625 0
238 319 0 236.877365112304688 316.495269775390625 0
228 319 0 236.877365112304688 316.495269775390625 0
228 319 100 236.877365112304688 316.495269775390625 0
238 319 100 236.877365112304688 316.495269775390625 0
316 93 0 310.549285888671875 91.6901397705078125 0
316 83 0 310.549285888671875 91.6901397705078125 0
316 83 100 310.549285888671875 91.6901397705078125 0
316 93 100 310.549285888671875 91.6901397705078125 0
387 93 0 382.549285888671875 91.6901397705078125 0
387 83 0 382.549285888671875 91.6901397705078125 0
387 83 100 382.549285888671875 91.6901397705078125 0
387 93 100 382.549285888671875 91.6901397705078125 0
270 377 0 265.344818115234375 371.5 0
260 377 0 265.344818115234375 371.5 0
260 377 100 265.344818115234375 371.5 0
270 377 100 265.344818115234375 371.5 0
270 319 0 265.344818115234375 312.5 0
260 319 0 265.344818115234375 312.5 0
260 319 100 265.344818115234375 312.5 0
270 319 100 265.344818115234375 312.5 0
301 554 0 296.5 547.55816650390625 0
301 544 0 296.5 547.55816650390625 0
301 544 100 296.5 547.55816650390625 0
301 554 100 296.5 547.55816650390625 0
387 554 0 383.5 547.55816650390625 0
387 544 0 383.5 547.55816650390625 0
387 544 100 383.5 547.55816650390625 0
387 554 100 383.5 547.55816650390625 0
392 384 0 388.194183349609375 381.2718505859375 0
382 384 0 388.194183349609375 381.2718505859375 0
382 384 100 388.194183349609375 381.2718505859375 0
392 384 100 388.194183349609375 381.2718505859375 0
392 281 0 388.194183349609375 277.2718505859375 0
382 281 0 388.194183349609375 277.2718505859375 0
382 281 100 388.194183349609375 277.2718505859375 0
392 281 100 388.194183349609375 277.2718505859375 0
524 231 0 513.96551513671875 227.017242431640625 0
524 221 0 513.96551513671875 227.017242431640625 0
524 221 100 513.96551513671875 227.017242431640625 0
524 231 100 513.96551513671875 227.017242431640625 0
582 231 0 572.96551513671875 227.017242431640625 0
582 221 0 572.96551513671875 227.017242431640625 0
582 221 100 572.96551513671875 227.017242431640625 0
582 231 100 572.96551513671875 227.017242431640625 0
609 166 0 601.19232177734375 164.871795654296875 0
599 166 0 601.19232177734375 164.871795654296875 0
599 166 100 601.19232177734375 164.871795654296875 0
609 166 100 601.19232177734375 164.871795654296875 0
609 88 0 601.19232177734375 85.871795654296875 0
599 88 0 601.19232177734375 85.871795654296875 0
599 88 100 601.19232177734375 85.871795654296875 0
609 88 100 601.19232177734375 85.871795654296875 0
203 226 0 200.885421752929688 222.645828247070312 0
213 226 0 200.885421752929688 222.645828247070312 0
213 226 100 200.885421752929688 222.645828247070312 0
203 226 100 200.885421752929688 222.645828247070312 0
203 322 0 200.885421752929688 319.645843505859375 0
213 322 0 200.885421752929688 319.645843505859375 0
213 322 100 200.885421752929688 319.645843505859375 0
203 322 100 200.885421752929688 319.645843505859375 0
302 541 0 298.918914794921875 533.689208984375 0
302 531 0 298.918914794921875 533.689208984375 0
302 531 100 298.918914794921875 533.689208984375 0
302 541 100 298.918914794921875 533.689208984375 0
466 88 0 463.2261962890625 86.4761886596679688 0
476 88 0 463.2261962890625 86.4761886596679688 0
476 88 100 463.2261962890625 86.4761886596679688 0
466 88 100 463.2261962890625 86.4761886596679688 0
466 256 0 463.2261962890625 255.4761962890625 0
476 256 0 463.2261962890625 255.4761962890625 0
476 256 100 463.2261962890625 255.4761962890625 0
466 256 100 463.2261962890625 255.4761962890625 0
612 88 0 609.69921875 86.6691741943359375 0
622 88 0 609.69921875 86.6691741943359375 0
622 88 100 609.69921875 86.6691741943359375 0
612 88 100 609.69921875 86.6691741943359375 0
476 379 0 444.26666259765625 354.73333740234375 0
466 379 0 444.26666259765625 354.73333740234375 0
466 379 100 444.26666259765625 354.73333740234375 0
476 379 100 444.26666259765625 354.73333740234375 0
476 325 0 459.586212158203125 312.7930908203125 0
466 325 0 459.586212158203125 312.7930908203125 0
466 325 100 459.586212158203125 312.7930908203125 0
476 325 100 459.586212158203125 312.7930908203125 0
238 226 0 0 0 -1
228 226 0 0 0 -1
228 88 0 0 0 -1
238 88 0 0 0 -1
238 226 100 0 0 1
228 226 100 0 0 1
228 88 100 0 0 1
238 88 100 0 0 1
238 531 0 0 0 -1
228 541 0 0 0 -1
228 319 0 0 0 -1
238 319 0 0 0 -1
238 531 100 0 0 1
228 541 100 0 0 1
228 319 100 0 0 1
238 319 100 0 0 1
228 541 0 0 0 -1
238 531 0 0 0 -1
302 531 0 0 0 -1
302 541 0 0 0 -1
228 541 100 0 0 1
238 531 100 0 0 1
302 531 100 0 0 1
302 541 100 0 0 1
316 93 0 0 0 -1
316 83 0 0 0 -1
387 83 0 0 0 -1
387 93 0 0 0 -1
316 93 100 0 0 1
316 83 100 0 0 1
387 83 100 0 0 1
387 93 100 0 0 1
270 377 0 0 0 -1
260 377 0 0 0 -1
260 319 0 0 0 -1
270 319 0 0 0 -1
270 377 100 0 0 1
260 377 100 0 0 1
260 319 100 0 0 1
270 319 100 0 0 1
301 554 0 0 0 -1
301 544 0 0 0 -1
387 544 0 0 0 -1
387 554 0 0 0 -1
301 554 100 0 0 1
301 544 100 0 0 1
387 544 100 0 0 1
387 554 100 0 0 1
392 384 0 0 0 -1
382 384 0 0 0 -1
382 281 0 0 0 -1
392 281 0 0 0 -1
392 384 100 0 0 1
382 384 100 0 0 1
382 281 100 0 0 1
392 281 100 0 0 1
524 231 0 0 0 -1
524 221 0 0 0 -1
582 221 0 0 0 -1
582 231 0 0 0 -1
524 231 100 0 0 1
524 221 100 0 0 1
582 221 100 0 0 1
582 231 100 0 0 1
609 166 0 0 0 -1
599 166 0 0 0 -1
599 88 0 0 0 -1
609 88 0 0 0 -1
609 166 100 0 0 1
599 166 100 0 0 1
599 88 100 0 0 1
609 88 100 0 0 1
203 226 0 0 0 -1
213 226 0 0 0 -1
213 322 0 0 0 -1
203 322 0 0 0 -1
203 226 100 0 0 1
213 226 100 0 0 1
213 322 100 0 0 1
203 322 100 0 0 1
466 88 0 0 0 -1
476 88 0 0 0 -1
476 256 0 0 0 -1
466 256 0 0 0 -1
466 88 100 0 0 1
476 88 100 0 0 1
476 256 100 0 0 1
466 256 100 0 0 1
612 88 0 0 0 -1
622 88 0 0 0 -1
622 364 0 0 0 -1
612 354 0 0 0 -1
612 88 100 0 0 1
622 88 100 0 0 1
622 364 100 0 0 1
612 354 100 0 0 1
612 354 0 0 0 -1
622 364 0 0 0 -1
476 364 0 0 0 -1
476 354 0 0 0 -1
612 354 100 0 0 1
622 364 100 0 0 1
476 364 100 0 0 1
476 354 100 0 0 1
476 379 0 0 0 -1
466 379 0 0 0 -1
466 359 0 0 0 -1
476 364 0 0 0 -1
476 379 100 0 0 1
466 379 100 0 0 1
466 359 100 0 0 1
476 364 100 0 0 1
476 354 0 0 0 -1
466 359 0 0 0 -1
466 325 0 0 0 -1
476 325 0 0 0 -1
476 354 100 0 0 1
466 359 100 0 0 1
466 325 100 0 0 1
476 325 100 0 0 1
466 359 0 0 0 -1
476 354 0 0 0 -1
476 364 0 0 0 -1
466 359 100 0 0 1
476 354 100 0 0 1
476 364 100 0 0 1
4 0 1 2 3
4 4 5 6 7
4 8 9 10 11
4 12 13 14 15
4 16 17 18 19
4 20 21 22 23
4 24 25 26 27
4 28 29 30 31
4 32 33 34 35
4 36 37 38 39
4 40 41 42 43
4 44 45 46 47
4 48 49 50 51
4 52 53 54 55
4 56 57 58 59
4 60 61 62 63
4 64 65 66 67
4 68 69 70 71
4 72 73 74 75
4 76 77 78 79
4 80 81 82 83
4 84 85 86 87
4 88 89 90 91
4 92 93 94 95
4 96 97 98 99
4 100 101 102 103
4 104 105 106 107
4 108 109 110 111
4 112 113 114 115
4 116 117 118 119
4 120 121 122 123
4 124 125 126 127
4 128 129 130 131
4 132 133 134 135
4 136 137 138 139
4 140 141 142 143
4 144 145 146 147
4 148 149 150 151
4 152 153 154 155
4 156 157 158 159
4 160 161 162 163
4 164 165 166 167
4 168 169 170 171
4 172 173 174 175
4 176 177 178 179
4 180 181 182 183
4 184 185 186 187
4 188 189 190 191
4 192 193 194 195
4 196 197 198 199
4 200 201 202 203
4 204 205 206 207
4 208 209 210 211
4 212 213 214 215
4 216 217 218 219
4 220 221 222 223
4 224 225 226 227
4 228 229 230 231
4 232 233 234 235
4 236 237 238 239
4 240 241 242 243
4 244 245 246 247
4 248 249 250 251
4 252 253 254 255
4 256 257 258 259
4 260 261 262 263
4 264 265 266 267
4 268 269 270 271
4 272 273 274 275
4 276 277 278 279
4 280 281 282 283
4 284 285 286 287
4 288 289 290 291
4 292 293 294 295
4 296 297 298 299
4 300 301 302 303
4 304 305 306 307
4 308 309 310 311
4 312 313 314 315
4 316 317 318 319
4 320 321 322 323
4 324 325 326 327
4 328 329 330 331
3 332 333 334
3 335 336 337
