ply
format ascii 1.0
element vertex 212
property float x
property float y
property float z
property float nx
property float ny
property float nz
element quads 50
property list uchar int vertex_indices
element triads 4
property list uchar int vertex_indices
end_header
215 16 0 -0 1 0
355 16 0 -0 1 0
355 16 100 -0 1 0
215 16 100 -0 1 0
205 6 0 0 -1 0
365 6 0 0 -1 0
365 6 100 0 -1 0
205 6 100 0 -1 0
205 6 0 -1 0 0
205 400 0 -1 0 0
205 400 100 -1 0 0
205 6 100 -1 0 0
215 16 0 1 -0 0
215 390 0 1 -0 0
215 390 100 1 -0 0
215 16 100 1 -0 0
355 16 0 -1 0 0
355 90 0 -1 0 0
355 90 100 -1 0 0
355 16 100 -1 0 0
365 6 0 1 -0 0
365 85 0 1 -0 0
365 85 100 1 -0 0
365 6 100 1 -0 0
611 85 0 -1 0 0
611 534 0 -1 0 0
611 534 100 -1 0 0
611 85 100 -1 0 0
621 85 0 1 -0 0
621 544 0 1 -0 0
621 544 100 1 -0 0
621 85 100 1 -0 0
611 534 0 -0 -1 0
451 534 0 -0 -1 0
451 534 100 -0 -1 0
611 534 100 -0 -1 0
621 544 0 0 1 0
451 544 0 0 1 0
451 544 100 0 1 0
621 544 100 0 1 0
205 400 0 -0 1 0
412 400 0 -0 1 0
412 400 100 -0 1 0
205 400 100 -0 1 0
215 390 0 0 -1 0
407 390 0 0 -1 0
407 390 100 0 -1 0
215 390 100 0 -1 0
446 354 0 -1 0 0
446 390 0 -1 0 0
446 390 100 -1 0 0
446 354 100 -1 0 0
456 354 0 1 -0 0
456 400 0 1 -0 0
456 400 100 1 -0 0
456 354 100 1 -0 0
446 390 0 -0 -1 0
407 390 0 -0 -1 0
407 390 100 -0 -1 0
446 390 100 -0 -1 0
456 400 0 0 1 0
402 400 0 0 1 0
402 400 100 0 1 0
456 400 100 0 1 0
355 80 0 -1 0 0
355 128 0 -1 0 0
355 128 100 -1 0 0
355 80 100 -1 0 0
365 85 0 1 -0 0
365 128 0 1 -0 0
365 128 100 1 -0 0
365 85 100 1 -0 0
355 90 0 -0 1 0
407 90 0 -0 1 0
407 90 100 -0 1 0
355 90 100 -0 1 0
355 80 0 0 -1 0
407 80 0 0 -1 0
407 80 100 0 -1 0
355 80 100 0 -1 0
402 353 0 -1 0 0
402 400 0 -1 0 0
402 400 100 -1 0 0
402 353 100 -1 0 0
412 353 0 1 -0 0
412 400 0 1 -0 0
412 400 100 1 -0 0
412 353 100 1 -0 0
611 85 0 609.63922119140625 83.8106918334960938 0
621 85 0 609.63922119140625 83.8106918334960938 0
621 85 100 609.63922119140625 83.8106918334960938 0
611 85 100 609.63922119140625 83.8106918334960938 0
451 534 0 447.181243896484375 530.6624755859375 0
451 544 0 447.181243896484375 530.6624755859375 0
451 544 100 447.181243896484375 530.6624755859375 0
451 534 100 447.181243896484375 530.6624755859375 0
446 354 0 433.611114501953125 343.166656494140625 0
456 354 0 433.611114501953125 343.166656494140625 0
456 354 100 433.611114501953125 343.166656494140625 0
446 354 100 433.611114501953125 343.166656494140625 0
355 128 0 347.604156494140625 126.333335876464844 0
365 128 0 347.604156494140625 126.333335876464844 0
365 128 100 347.604156494140625 126.333335876464844 0
355 128 100 347.604156494140625 126.333335876464844 0
407 90 0 400.173065185546875 88.2692337036132812 0
407 80 0 400.173065185546875 88.2692337036132812 0
407 80 100 400.173065185546875 88.2692337036132812 0
407 90 100 400.173065185546875 88.2692337036132812 0
402 353 0 393.446807861328125 344.489349365234375 0
412 353 0 393.446807861328125 344.489349365234375 0
412 353 100 393.446807861328125 344.489349365234375 0
402 353 100 393.446807861328125 344.489349365234375 0
215 16 0 0 0 -1
205 6 0 0 0 -1
365 6 0 0 0 -1
355 16 0 0 0 -1
215 16 100 0 0 1
205 6 100 0 0 1
365 6 100 0 0 1
355 16 100 0 0 1
205 6 0 0 0 -1
215 16 0 0 0 -1
215 390 0 0 0 -1
205 400 0 0 0 -1
205 6 100 0 0 1
215 16 100 0 0 1
215 390 100 0 0 1
205 400 100 0 0 1
355 16 0 0 0 -1
365 6 0 0 0 -1
365 85 0 0 0 -1
355 90 0 0 0 -1
355 16 100 0 0 1
365 6 100 0 0 1
365 85 100 0 0 1
355 90 100 0 0 1
611 85 0 0 0 -1
621 85 0 0 0 -1
621 544 0 0 0 -1
611 534 0 0 0 -1
611 85 100 0 0 1
621 85 100 0 0 1
621 544 100 0 0 1
611 534 100 0 0 1
611 534 0 0 0 -1
621 544 0 0 0 -1
451 544 0 0 0 -1
451 534 0 0 0 -1
611 534 100 0 0 1
621 544 100 0 0 1
451 544 100 0 0 1
451 534 100 0 0 1
205 400 0 0 0 -1
215 390 0 0 0 -1
407 390 0 0 0 -1
412 400 0 0 0 -1
205 400 100 0 0 1
215 390 100 0 0 1
407 390 100 0 0 1
412 400 100 0 0 1
446 354 0 0 0 -1
456 354 0 0 0 -1
456 400 0 0 0 -1
446 390 0 0 0 -1
446 354 100 0 0 1
456 354 100 0 0 1
456 400 100 0 0 1
446 390 100 0 0 1
446 390 0 0 0 -1
456 400 0 0 0 -1
402 400 0 0 0 -1
407 390 0 0 0 -1
446 390 100 0 0 1
456 400 100 0 0 1
402 400 100 0 0 1
407 390 100 0 0 1
355 80 0 0 0 -1
365 85 0 0 0 -1
365 128 0 0 0 -1
355 128 0 0 0 -1
355 80 100 0 0 1
365 85 100 0 0 1
365 128 100 0 0 1
355 128 100 0 0 1
355 90 0 0 0 -1
355 80 0 0 0 -1
407 80 0 0 0 -1
407 90 0 0 0 -1
355 90 100 0 0 1
355 80 100 0 0 1
407 80 100 0 0 1
407 90 100 0 0 1
402 353 0 0 0 -1
412 353 0 0 0 -1
412 400 0 0 0 -1
402 400 0 0 0 -1
402 353 100 0 0 1
412 353 100 0 0 1
412 400 100 0 0 1
402 400 100 0 0 1
365 85 0 0 0 -1
355 80 0 0 0 -1
355 90 0 0 0 -1
365 85 100 0 0 1
355 80 100 0 0 1
355 90 100 0 0 1
412 400 0 0 0 -1
407 390 0 0 0 -1
402 400 0 0 0 -1
412 400 100 0 0 1
407 390 100 0 0 1
402 400 100 0 0 1
4 0 1 2 3
4 4 5 6 7
4 8 9 10 11
4 12 13 14 15
4 16 17 18 19
4 20 21 22 23
4 24 25 26 27
4 28 29 30 31
4 32 33 34 35
4 36 37 38 39
4 40 41 42 43
4 44 45 46 47
4 48 49 50 51
4 52 53 54 55
4 56 57 58 59
4 60 61 62 63
4 64 65 66 67
4 68 69 70 71
4 72 73 74 75
4 76 77 78 79
4 80 81 82 83
4 84 85 86 87
4 88 89 90 91
4 92 93 94 95
4 96 97 98 99
4 100 101 102 103
4 104 105 106 107
4 108 109 110 111
4 112 113 114 115
4 116 117 118 119
4 120 121 122 123
4 124 125 126 127
4 128 129 130 131
4 132 133 134 135
4 136 137 138 139
4 140 141 142 143
4 144 145 146 147
4 148 149 150 151
4 152 153 154 155
4 156 157 158 159
4 160 161 162 163
4 164 165 166 167
4 168 169 170 171
4 172 173 174 175
4 176 177 178 179
4 180 181 182 183
4 184 185 186 187
4 188 189 190 191
4 192 193 194 195
4 196 197 198 199
3 200 201 202
3 203 204 205
3 206 207 208
3 209 210 211
