ply
format ascii 1.0
element vertex 148
property float x
property float y
property float z
property float nx
property float ny
property float nz
element quads 34
property list uchar int vertex_indices
element triads 4
property list uchar int vertex_indices
end_header
314 529 0 -0 1 0
505 529 0 -0 1 0
505 529 100 -0 1 0
314 529 100 -0 1 0
324 519 0 0 -1 0
495 519 0 0 -1 0
495 519 100 0 -1 0
324 519 100 0 -1 0
324 519 0 1 0 0
324 188 0 1 0 0
324 188 100 1 0 0
324 519 100 1 0 0
314 529 0 -1 -0 0
314 178 0 -1 -0 0
314 178 100 -1 -0 0
314 529 100 -1 -0 0
505 529 0 1 0 0
505 178 0 1 0 0
505 178 100 1 0 0
505 529 100 1 0 0
495 519 0 -1 -0 0
495 188 0 -1 -0 0
495 188 100 -1 -0 0
495 519 100 -1 -0 0
505 178 0 -0 -1 0
483 178 0 -0 -1 0
483 178 100 -0 -1 0
505 178 100 -0 -1 0
495 188 0 0 1 0
478 188 0 0 1 0
478 188 100 0 1 0
495 188 100 0 1 0
324 188 0 -0 1 0
426 188 0 -0 1 0
426 188 100 -0 1 0
324 188 100 -0 1 0
314 178 0 0 -1 0
421 178 0 0 -1 0
421 178 100 0 -1 0
314 178 100 0 -1 0
416 49 0 -1 0 0
416 188 0 -1 0 0
416 188 100 -1 0 0
416 49 100 -1 0 0
426 49 0 1 -0 0
426 188 0 1 -0 0
426 188 100 1 -0 0
426 49 100 1 -0 0
416 188 0 -0 1 0
478 188 0 -0 1 0
478 188 100 -0 1 0
416 188 100 -0 1 0
421 178 0 0 -1 0
473 178 0 0 -1 0
473 178 100 0 -1 0
421 178 100 0 -1 0
473 26 0 -1 0 0
473 178 0 -1 0 0
473 178 100 -1 0 0
473 26 100 -1 0 0
483 26 0 1 -0 0
483 178 0 1 -0 0
483 178 100 1 -0 0
483 26 100 1 -0 0
416 49 0 413.0072021484375 47.6474838256835938 0
426 49 0 413.0072021484375 47.6474838256835938 0
426 49 100 413.0072021484375 47.6474838256835938 0
416 49 100 413.0072021484375 47.6474838256835938 0
473 26 0 469.888153076171875 24.8289470672607422 0
483 26 0 469.888153076171875 24.8289470672607422 0
483 26 100 469.888153076171875 24.8289470672607422 0
473 26 100 469.888153076171875 24.8289470672607422 0
314 529 0 0 0 -1
324 519 0 0 0 -1
495 519 0 0 0 -1
505 529 0 0 0 -1
314 529 100 0 0 1
324 519 100 0 0 1
495 519 100 0 0 1
505 529 100 0 0 1
324 519 0 0 0 -1
314 529 0 0 0 -1
314 178 0 0 0 -1
324 188 0 0 0 -1
324 519 100 0 0 1
314 529 100 0 0 1
314 178 100 0 0 1
324 188 100 0 0 1
505 529 0 0 0 -1
495 519 0 0 0 -1
495 188 0 0 0 -1
505 178 0 0 0 -1
505 529 100 0 0 1
495 519 100 0 0 1
495 188 100 0 0 1
505 178 100 0 0 1
505 178 0 0 0 -1
495 188 0 0 0 -1
478 188 0 0 0 -1
483 178 0 0 0 -1
505 178 100 0 0 1
495 188 100 0 0 1
478 188 100 0 0 1
483 178 100 0 0 1
324 188 0 0 0 -1
314 178 0 0 0 -1
421 178 0 0 0 -1
426 188 0 0 0 -1
324 188 100 0 0 1
314 178 100 0 0 1
421 178 100 0 0 1
426 188 100 0 0 1
416 49 0 0 0 -1
426 49 0 0 0 -1
426 188 0 0 0 -1
416 188 0 0 0 -1
416 49 100 0 0 1
426 49 100 0 0 1
426 188 100 0 0 1
416 188 100 0 0 1
416 188 0 0 0 -1
421 178 0 0 0 -1
473 178 0 0 0 -1
478 188 0 0 0 -1
416 188 100 0 0 1
421 178 100 0 0 1
473 178 100 0 0 1
478 188 100 0 0 1
473 26 0 0 0 -1
483 26 0 0 0 -1
483 178 0 0 0 -1
473 178 0 0 0 -1
473 26 100 0 0 1
483 26 100 0 0 1
483 178 100 0 0 1
473 178 100 0 0 1
426 188 0 0 0 -1
421 178 0 0 0 -1
416 188 0 0 0 -1
426 188 100 0 0 1
421 178 100 0 0 1
416 188 100 0 0 1
483 178 0 0 0 -1
478 188 0 0 0 -1
473 178 0 0 0 -1
483 178 100 0 0 1
478 188 100 0 0 1
473 178 100 0 0 1
4 0 1 2 3
4 4 5 6 7
4 8 9 10 11
4 12 13 14 15
4 16 17 18 19
4 20 21 22 23
4 24 25 26 27
4 28 29 30 31
4 32 33 34 35
4 36 37 38 39
4 40 41 42 43
4 44 45 46 47
4 48 49 50 51
4 52 53 54 55
4 56 57 58 59
4 60 61 62 63
4 64 65 66 67
4 68 69 70 71
4 72 73 74 75
4 76 77 78 79
4 80 81 82 83
4 84 85 86 87
4 88 89 90 91
4 92 93 94 95
4 96 97 98 99
4 100 101 102 103
4 104 105 106 107
4 108 109 110 111
4 112 113 114 115
4 116 117 118 119
4 120 121 122 123
4 124 125 126 127
4 128 129 130 131
4 132 133 134 135
3 136 137 138
3 139 140 141
3 142 143 144
3 145 146 147
