ply
format ascii 1.0
element vertex 762
property float x
property float y
property float z
property float nx
property float ny
property float nz
element quads 167
property list uchar int vertex_indices
element triads 34
property list uchar int vertex_indices
end_header
177 285 0 -0 1 0
329 285 0 -0 1 0
329 285 100 -0 1 0
177 285 100 -0 1 0
167 275 0 0 -1 0
339 275 0 0 -1 0
339 275 100 0 -1 0
167 275 100 0 -1 0
167 275 0 -1 0 0
167 451 0 -1 0 0
167 451 100 -1 0 0
167 275 100 -1 0 0
177 285 0 1 -0 0
177 441 0 1 -0 0
177 441 100 1 -0 0
177 285 100 1 -0 0
329 285 0 -1 0 0
329 389 0 -1 0 0
329 389 100 -1 0 0
329 285 100 -1 0 0
339 275 0 1 -0 0
339 384 0 1 -0 0
339 384 100 1 -0 0
339 275 100 1 -0 0
548 159 0 1 0 0
548 85 0 1 0 0
548 85 100 1 0 0
548 159 100 1 0 0
538 149 0 -1 -0 0
538 85 0 -1 -0 0
538 85 100 -1 -0 0
538 149 100 -1 -0 0
538 149 0 -0 -1 0
491 149 0 -0 -1 0
491 149 100 -0 -1 0
538 149 100 -0 -1 0
548 159 0 0 1 0
496 159 0 0 1 0
496 159 100 0 1 0
548 159 100 0 1 0
167 451 0 -0 1 0
228 451 0 -0 1 0
228 451 100 -0 1 0
167 451 100 -0 1 0
177 441 0 0 -1 0
233 441 0 0 -1 0
233 441 100 0 -1 0
177 441 100 0 -1 0
615 149 0 1 0 0
615 85 0 1 0 0
615 85 100 1 0 0
615 149 100 1 0 0
605 159 0 -1 -0 0
605 85 0 -1 -0 0
605 85 100 -1 -0 0
605 159 100 -1 -0 0
605 159 0 -0 1 0
660 159 0 -0 1 0
660 159 100 -0 1 0
605 159 100 -0 1 0
615 149 0 0 -1 0
660 149 0 0 -1 0
660 149 100 0 -1 0
615 149 100 0 -1 0
472 170 0 -1 0 0
472 236 0 -1 0 0
472 236 100 -1 0 0
472 170 100 -1 0 0
482 170 0 1 -0 0
482 236 0 1 -0 0
482 236 100 1 -0 0
482 170 100 1 -0 0
223 441 0 -1 0 0
223 538 0 -1 0 0
223 538 100 -1 0 0
223 441 100 -1 0 0
233 441 0 1 -0 0
233 538 0 1 -0 0
233 538 100 1 -0 0
233 441 100 1 -0 0
228 451 0 -0 1 0
339 451 0 -0 1 0
339 451 100 -0 1 0
228 451 100 -0 1 0
223 441 0 0 -1 0
334 441 0 0 -1 0
334 441 100 0 -1 0
223 441 100 0 -1 0
573 467 0 1 0 0
573 446 0 1 0 0
573 446 100 1 0 0
573 467 100 1 0 0
563 467 0 -1 -0 0
563 441 0 -1 -0 0
563 441 100 -1 -0 0
563 467 100 -1 -0 0
563 451 0 -0 1 0
610 451 0 -0 1 0
610 451 100 -0 1 0
563 451 100 -0 1 0
563 441 0 0 -1 0
610 441 0 0 -1 0
610 441 100 0 -1 0
563 441 100 0 -1 0
573 446 0 1 0 0
573 358 0 1 0 0
573 358 100 1 0 0
573 446 100 1 0 0
563 451 0 -1 -0 0
563 353 0 -1 -0 0
563 353 100 -1 -0 0
563 451 100 -1 -0 0
440 314 0 -1 0 0
440 384 0 -1 0 0
440 384 100 -1 0 0
440 314 100 -1 0 0
450 324 0 1 -0 0
450 389 0 1 -0 0
450 389 100 1 -0 0
450 324 100 1 -0 0
450 324 0 -0 1 0
548 324 0 -0 1 0
548 324 100 -0 1 0
450 324 100 -0 1 0
440 314 0 0 -1 0
543 314 0 0 -1 0
543 314 100 0 -1 0
440 314 100 0 -1 0
450 379 0 -0 -1 0
385 379 0 -0 -1 0
385 379 100 -0 -1 0
450 379 100 -0 -1 0
450 389 0 0 1 0
390 389 0 0 1 0
390 389 100 0 1 0
450 389 100 0 1 0
440 384 0 -1 0 0
440 446 0 -1 0 0
440 446 100 -1 0 0
440 384 100 -1 0 0
450 379 0 1 -0 0
450 451 0 1 -0 0
450 451 100 1 -0 0
450 379 100 1 -0 0
354 528 0 -0 -1 0
339 528 0 -0 -1 0
339 528 100 -0 -1 0
354 528 100 -0 -1 0
354 538 0 0 1 0
334 538 0 0 1 0
334 538 100 0 1 0
354 538 100 0 1 0
329 528 0 -0 -1 0
228 528 0 -0 -1 0
228 528 100 -0 -1 0
329 528 100 -0 -1 0
334 538 0 0 1 0
223 538 0 0 1 0
223 538 100 0 1 0
334 538 100 0 1 0
339 528 0 1 0 0
339 451 0 1 0 0
339 451 100 1 0 0
339 528 100 1 0 0
329 528 0 -1 -0 0
329 446 0 -1 -0 0
329 446 100 -1 -0 0
329 528 100 -1 -0 0
385 379 0 -0 -1 0
329 379 0 -0 -1 0
329 379 100 -0 -1 0
385 379 100 -0 -1 0
390 389 0 0 1 0
329 389 0 0 1 0
329 389 100 0 1 0
390 389 100 0 1 0
395 384 0 1 0 0
395 353 0 1 0 0
395 353 100 1 0 0
395 384 100 1 0 0
385 379 0 -1 -0 0
385 353 0 -1 -0 0
385 353 100 -1 -0 0
385 379 100 -1 -0 0
385 379 0 -1 0 0
385 404 0 -1 0 0
385 404 100 -1 0 0
385 379 100 -1 0 0
395 384 0 1 -0 0
395 404 0 1 -0 0
395 404 100 1 -0 0
395 384 100 1 -0 0
329 379 0 -1 0 0
329 446 0 -1 0 0
329 446 100 -1 0 0
329 379 100 -1 0 0
339 384 0 1 -0 0
339 451 0 1 -0 0
339 451 100 1 -0 0
339 384 100 1 -0 0
610 348 0 -0 -1 0
573 348 0 -0 -1 0
573 348 100 -0 -1 0
610 348 100 -0 -1 0
610 358 0 0 1 0
573 358 0 0 1 0
573 358 100 0 1 0
610 358 100 0 1 0
573 348 0 1 0 0
573 314 0 1 0 0
573 314 100 1 0 0
573 348 100 1 0 0
563 353 0 -1 -0 0
563 319 0 -1 -0 0
563 319 100 -1 -0 0
563 353 100 -1 -0 0
538 324 0 -0 1 0
573 324 0 -0 1 0
573 324 100 -0 1 0
538 324 100 -0 1 0
543 314 0 0 -1 0
573 314 0 0 -1 0
573 314 100 0 -1 0
543 314 100 0 -1 0
548 324 0 1 0 0
548 285 0 1 0 0
548 285 100 1 0 0
548 324 100 1 0 0
538 324 0 -1 -0 0
538 285 0 -1 -0 0
538 285 100 -1 -0 0
538 324 100 -1 -0 0
445 159 0 -0 1 0
486 159 0 -0 1 0
486 159 100 -0 1 0
445 159 100 -0 1 0
445 149 0 0 -1 0
491 149 0 0 -1 0
491 149 100 0 -1 0
445 149 100 0 -1 0
486 159 0 -1 0 0
486 285 0 -1 0 0
486 285 100 -1 0 0
486 159 100 -1 0 0
496 159 0 1 -0 0
496 275 0 1 -0 0
496 275 100 1 -0 0
496 159 100 1 -0 0
486 285 0 -0 1 0
538 285 0 -0 1 0
538 285 100 -0 1 0
486 285 100 -0 1 0
496 275 0 0 -1 0
543 275 0 0 -1 0
543 275 100 0 -1 0
496 275 100 0 -1 0
660 275 0 -0 -1 0
568 275 0 -0 -1 0
568 275 100 -0 -1 0
660 275 100 -0 -1 0
660 285 0 0 1 0
573 285 0 0 1 0
573 285 100 0 1 0
660 285 100 0 1 0
563 285 0 -1 0 0
563 319 0 -1 0 0
563 319 100 -1 0 0
563 285 100 -1 0 0
573 285 0 1 -0 0
573 324 0 1 -0 0
573 324 100 1 -0 0
573 285 100 1 -0 0
568 275 0 -0 -1 0
543 275 0 -0 -1 0
543 275 100 -0 -1 0
568 275 100 -0 -1 0
563 285 0 0 1 0
548 285 0 0 1 0
548 285 100 0 1 0
563 285 100 0 1 0
450 467 0 1 0 0
450 441 0 1 0 0
450 441 100 1 0 0
450 467 100 1 0 0
440 467 0 -1 -0 0
440 446 0 -1 -0 0
440 446 100 -1 -0 0
440 467 100 -1 -0 0
450 441 0 -0 -1 0
334 441 0 -0 -1 0
334 441 100 -0 -1 0
450 441 100 -0 -1 0
450 451 0 0 1 0
339 451 0 0 1 0
339 451 100 0 1 0
450 451 100 0 1 0
228 528 0 -0 -1 0
208 528 0 -0 -1 0
208 528 100 -0 -1 0
228 528 100 -0 -1 0
233 538 0 0 1 0
208 538 0 0 1 0
208 538 100 0 1 0
233 538 100 0 1 0
548 85 0 540.5946044921875 82.851348876953125 0
538 85 0 540.5946044921875 82.851348876953125 0
538 85 100 540.5946044921875 82.851348876953125 0
548 85 100 540.5946044921875 82.851348876953125 0
615 85 0 605.390625 82.671875 0
605 85 0 605.390625 82.671875 0
605 85 100 605.390625 82.671875 0
615 85 100 605.390625 82.671875 0
660 159 0 649 156.109085083007812 0
660 149 0 649 156.109085083007812 0
660 149 100 649 156.109085083007812 0
660 159 100 649 156.109085083007812 0
472 170 0 464.848480224609375 166.424240112304688 0
482 170 0 464.848480224609375 166.424240112304688 0
482 170 100 464.848480224609375 166.424240112304688 0
472 170 100 464.848480224609375 166.424240112304688 0
472 236 0 464.848480224609375 233.424240112304688 0
482 236 0 464.848480224609375 233.424240112304688 0
482 236 100 464.848480224609375 233.424240112304688 0
472 236 100 464.848480224609375 233.424240112304688 0
573 467 0 545.71429443359375 445.76190185546875 0
563 467 0 545.71429443359375 445.76190185546875 0
563 467 100 545.71429443359375 445.76190185546875 0
573 467 100 545.71429443359375 445.76190185546875 0
610 451 0 598.02130126953125 441.404266357421875 0
610 441 0 598.02130126953125 441.404266357421875 0
610 441 100 598.02130126953125 441.404266357421875 0
610 451 100 598.02130126953125 441.404266357421875 0
354 528 0 331.399993896484375 492.79998779296875 0
354 538 0 331.399993896484375 492.79998779296875 0
354 538 100 331.399993896484375 492.79998779296875 0
354 528 100 331.399993896484375 492.79998779296875 0
610 348 0 594.51348876953125 338.5946044921875 0
610 358 0 594.51348876953125 338.5946044921875 0
610 358 100 594.51348876953125 338.5946044921875 0
610 348 100 594.51348876953125 338.5946044921875 0
445 159 0 433.146331787109375 155.1219482421875 0
445 149 0 433.146331787109375 155.1219482421875 0
445 149 100 433.146331787109375 155.1219482421875 0
445 159 100 433.146331787109375 155.1219482421875 0
660 275 0 653.82611083984375 272.0108642578125 0
660 285 0 653.82611083984375 272.0108642578125 0
660 285 100 653.82611083984375 272.0108642578125 0
660 275 100 653.82611083984375 272.0108642578125 0
395 353 0 382.258056640625 340.6129150390625 0
385 353 0 382.258056640625 340.6129150390625 0
385 353 100 382.258056640625 340.6129150390625 0
395 353 100 382.258056640625 340.6129150390625 0
385 404 0 369.600006103515625 388.839996337890625 0
395 404 0 369.600006103515625 388.839996337890625 0
395 404 100 369.600006103515625 388.839996337890625 0
385 404 100 369.600006103515625 388.839996337890625 0
450 467 0 432.69232177734375 450.0384521484375 0
440 467 0 432.69232177734375 450.0384521484375 0
440 467 100 432.69232177734375 450.0384521484375 0
450 467 100 432.69232177734375 450.0384521484375 0
208 528 0 196.600006103515625 501.600006103515625 0
208 538 0 196.600006103515625 501.600006103515625 0
208 538 100 196.600006103515625 501.600006103515625 0
208 528 100 196.600006103515625 501.600006103515625 0
177 285 0 0 0 -1
167 275 0 0 0 -1
339 275 0 0 0 -1
329 285 0 0 0 -1
177 285 100 0 0 1
167 275 100 0 0 1
339 275 100 0 0 1
329 285 100 0 0 1
167 275 0 0 0 -1
177 285 0 0 0 -1
177 441 0 0 0 -1
167 451 0 0 0 -1
167 275 100 0 0 1
177 285 100 0 0 1
177 441 100 0 0 1
167 451 100 0 0 1
329 285 0 0 0 -1
339 275 0 0 0 -1
339 384 0 0 0 -1
329 389 0 0 0 -1
329 285 100 0 0 1
339 275 100 0 0 1
339 384 100 0 0 1
329 389 100 0 0 1
548 159 0 0 0 -1
538 149 0 0 0 -1
538 85 0 0 0 -1
548 85 0 0 0 -1
548 159 100 0 0 1
538 149 100 0 0 1
538 85 100 0 0 1
548 85 100 0 0 1
538 149 0 0 0 -1
548 159 0 0 0 -1
496 159 0 0 0 -1
491 149 0 0 0 -1
538 149 100 0 0 1
548 159 100 0 0 1
496 159 100 0 0 1
491 149 100 0 0 1
167 451 0 0 0 -1
177 441 0 0 0 -1
233 441 0 0 0 -1
228 451 0 0 0 -1
167 451 100 0 0 1
177 441 100 0 0 1
233 441 100 0 0 1
228 451 100 0 0 1
615 149 0 0 0 -1
605 159 0 0 0 -1
605 85 0 0 0 -1
615 85 0 0 0 -1
615 149 100 0 0 1
605 159 100 0 0 1
605 85 100 0 0 1
615 85 100 0 0 1
605 159 0 0 0 -1
615 149 0 0 0 -1
660 149 0 0 0 -1
660 159 0 0 0 -1
605 159 100 0 0 1
615 149 100 0 0 1
660 149 100 0 0 1
660 159 100 0 0 1
472 170 0 0 0 -1
482 170 0 0 0 -1
482 236 0 0 0 -1
472 236 0 0 0 -1
472 170 100 0 0 1
482 170 100 0 0 1
482 236 100 0 0 1
472 236 100 0 0 1
223 441 0 0 0 -1
233 441 0 0 0 -1
233 538 0 0 0 -1
223 538 0 0 0 -1
223 441 100 0 0 1
233 441 100 0 0 1
233 538 100 0 0 1
223 538 100 0 0 1
228 451 0 0 0 -1
223 441 0 0 0 -1
334 441 0 0 0 -1
339 451 0 0 0 -1
228 451 100 0 0 1
223 441 100 0 0 1
334 441 100 0 0 1
339 451 100 0 0 1
573 467 0 0 0 -1
563 467 0 0 0 -1
563 441 0 0 0 -1
573 446 0 0 0 -1
573 467 100 0 0 1
563 467 100 0 0 1
563 441 100 0 0 1
573 446 100 0 0 1
563 451 0 0 0 -1
563 441 0 0 0 -1
610 441 0 0 0 -1
610 451 0 0 0 -1
563 451 100 0 0 1
563 441 100 0 0 1
610 441 100 0 0 1
610 451 100 0 0 1
573 446 0 0 0 -1
563 451 0 0 0 -1
563 353 0 0 0 -1
573 358 0 0 0 -1
573 446 100 0 0 1
563 451 100 0 0 1
563 353 100 0 0 1
573 358 100 0 0 1
440 314 0 0 0 -1
450 324 0 0 0 -1
450 389 0 0 0 -1
440 384 0 0 0 -1
440 314 100 0 0 1
450 324 100 0 0 1
450 389 100 0 0 1
440 384 100 0 0 1
450 324 0 0 0 -1
440 314 0 0 0 -1
543 314 0 0 0 -1
548 324 0 0 0 -1
450 324 100 0 0 1
440 314 100 0 0 1
543 314 100 0 0 1
548 324 100 0 0 1
450 379 0 0 0 -1
450 389 0 0 0 -1
390 389 0 0 0 -1
385 379 0 0 0 -1
450 379 100 0 0 1
450 389 100 0 0 1
390 389 100 0 0 1
385 379 100 0 0 1
440 384 0 0 0 -1
450 379 0 0 0 -1
450 451 0 0 0 -1
440 446 0 0 0 -1
440 384 100 0 0 1
450 379 100 0 0 1
450 451 100 0 0 1
440 446 100 0 0 1
354 528 0 0 0 -1
354 538 0 0 0 -1
334 538 0 0 0 -1
339 528 0 0 0 -1
354 528 100 0 0 1
354 538 100 0 0 1
334 538 100 0 0 1
339 528 100 0 0 1
329 528 0 0 0 -1
334 538 0 0 0 -1
223 538 0 0 0 -1
228 528 0 0 0 -1
329 528 100 0 0 1
334 538 100 0 0 1
223 538 100 0 0 1
228 528 100 0 0 1
339 528 0 0 0 -1
329 528 0 0 0 -1
329 446 0 0 0 -1
339 451 0 0 0 -1
339 528 100 0 0 1
329 528 100 0 0 1
329 446 100 0 0 1
339 451 100 0 0 1
385 379 0 0 0 -1
390 389 0 0 0 -1
329 389 0 0 0 -1
329 379 0 0 0 -1
385 379 100 0 0 1
390 389 100 0 0 1
329 389 100 0 0 1
329 379 100 0 0 1
395 384 0 0 0 -1
385 379 0 0 0 -1
385 353 0 0 0 -1
395 353 0 0 0 -1
395 384 100 0 0 1
385 379 100 0 0 1
385 353 100 0 0 1
395 353 100 0 0 1
385 379 0 0 0 -1
395 384 0 0 0 -1
395 404 0 0 0 -1
385 404 0 0 0 -1
385 379 100 0 0 1
395 384 100 0 0 1
395 404 100 0 0 1
385 404 100 0 0 1
329 379 0 0 0 -1
339 384 0 0 0 -1
339 451 0 0 0 -1
329 446 0 0 0 -1
329 379 100 0 0 1
339 384 100 0 0 1
339 451 100 0 0 1
329 446 100 0 0 1
610 348 0 0 0 -1
610 358 0 0 0 -1
573 358 0 0 0 -1
573 348 0 0 0 -1
610 348 100 0 0 1
610 358 100 0 0 1
573 358 100 0 0 1
573 348 100 0 0 1
573 348 0 0 0 -1
563 353 0 0 0 -1
563 319 0 0 0 -1
573 314 0 0 0 -1
573 348 100 0 0 1
563 353 100 0 0 1
563 319 100 0 0 1
573 314 100 0 0 1
538 324 0 0 0 -1
543 314 0 0 0 -1
573 314 0 0 0 -1
573 324 0 0 0 -1
538 324 100 0 0 1
543 314 100 0 0 1
573 314 100 0 0 1
573 324 100 0 0 1
548 324 0 0 0 -1
538 324 0 0 0 -1
538 285 0 0 0 -1
548 285 0 0 0 -1
548 324 100 0 0 1
538 324 100 0 0 1
538 285 100 0 0 1
548 285 100 0 0 1
445 159 0 0 0 -1
445 149 0 0 0 -1
491 149 0 0 0 -1
486 159 0 0 0 -1
445 159 100 0 0 1
445 149 100 0 0 1
491 149 100 0 0 1
486 159 100 0 0 1
486 159 0 0 0 -1
496 159 0 0 0 -1
496 275 0 0 0 -1
486 285 0 0 0 -1
486 159 100 0 0 1
496 159 100 0 0 1
496 275 100 0 0 1
486 285 100 0 0 1
486 285 0 0 0 -1
496 275 0 0 0 -1
543 275 0 0 0 -1
538 285 0 0 0 -1
486 285 100 0 0 1
496 275 100 0 0 1
543 275 100 0 0 1
538 285 100 0 0 1
660 275 0 0 0 -1
660 285 0 0 0 -1
573 285 0 0 0 -1
568 275 0 0 0 -1
660 275 100 0 0 1
660 285 100 0 0 1
573 285 100 0 0 1
568 275 100 0 0 1
563 285 0 0 0 -1
573 285 0 0 0 -1
573 324 0 0 0 -1
563 319 0 0 0 -1
563 285 100 0 0 1
573 285 100 0 0 1
573 324 100 0 0 1
563 319 100 0 0 1
568 275 0 0 0 -1
563 285 0 0 0 -1
548 285 0 0 0 -1
543 275 0 0 0 -1
568 275 100 0 0 1
563 285 100 0 0 1
548 285 100 0 0 1
543 275 100 0 0 1
450 467 0 0 0 -1
440 467 0 0 0 -1
440 446 0 0 0 -1
450 441 0 0 0 -1
450 467 100 0 0 1
440 467 100 0 0 1
440 446 100 0 0 1
450 441 100 0 0 1
450 441 0 0 0 -1
450 451 0 0 0 -1
339 451 0 0 0 -1
334 441 0 0 0 -1
450 441 100 0 0 1
450 451 100 0 0 1
339 451 100 0 0 1
334 441 100 0 0 1
228 528 0 0 0 -1
233 538 0 0 0 -1
208 538 0 0 0 -1
208 528 0 0 0 -1
228 528 100 0 0 1
233 538 100 0 0 1
208 538 100 0 0 1
208 528 100 0 0 1
233 441 0 0 0 -1
223 441 0 0 0 -1
228 451 0 0 0 -1
233 441 100 0 0 1
223 441 100 0 0 1
228 451 100 0 0 1
563 441 0 0 0 -1
563 451 0 0 0 -1
573 446 0 0 0 -1
563 441 100 0 0 1
563 451 100 0 0 1
573 446 100 0 0 1
450 389 0 0 0 -1
450 379 0 0 0 -1
440 384 0 0 0 -1
450 389 100 0 0 1
450 379 100 0 0 1
440 384 100 0 0 1
334 538 0 0 0 -1
329 528 0 0 0 -1
339 528 0 0 0 -1
334 538 100 0 0 1
329 528 100 0 0 1
339 528 100 0 0 1
385 379 0 0 0 -1
395 384 0 0 0 -1
385 379 0 0 0 -1
390 389 0 0 0 -1
385 379 100 0 0 1
395 384 100 0 0 1
385 379 100 0 0 1
390 389 100 0 0 1
329 389 0 0 0 -1
339 384 0 0 0 -1
329 379 0 0 0 -1
329 389 100 0 0 1
339 384 100 0 0 1
329 379 100 0 0 1
573 358 0 0 0 -1
563 353 0 0 0 -1
573 348 0 0 0 -1
573 358 100 0 0 1
563 353 100 0 0 1
573 348 100 0 0 1
543 314 0 0 0 -1
538 324 0 0 0 -1
548 324 0 0 0 -1
543 314 100 0 0 1
538 324 100 0 0 1
548 324 100 0 0 1
491 149 0 0 0 -1
496 159 0 0 0 -1
486 159 0 0 0 -1
491 149 100 0 0 1
496 159 100 0 0 1
486 159 100 0 0 1
573 285 0 0 0 -1
563 285 0 0 0 -1
568 275 0 0 0 -1
573 285 100 0 0 1
563 285 100 0 0 1
568 275 100 0 0 1
440 446 0 0 0 -1
450 451 0 0 0 -1
450 441 0 0 0 -1
440 446 100 0 0 1
450 451 100 0 0 1
450 441 100 0 0 1
233 538 0 0 0 -1
228 528 0 0 0 -1
223 538 0 0 0 -1
233 538 100 0 0 1
228 528 100 0 0 1
223 538 100 0 0 1
329 446 0 0 0 -1
339 451 0 0 0 -1
334 441 0 0 0 -1
339 451 0 0 0 -1
329 446 100 0 0 1
339 451 100 0 0 1
334 441 100 0 0 1
339 451 100 0 0 1
573 314 0 0 0 -1
563 319 0 0 0 -1
573 324 0 0 0 -1
573 314 100 0 0 1
563 319 100 0 0 1
573 324 100 0 0 1
538 285 0 0 0 -1
543 275 0 0 0 -1
548 285 0 0 0 -1
538 285 100 0 0 1
543 275 100 0 0 1
548 285 100 0 0 1
4 0 1 2 3
4 4 5 6 7
4 8 9 10 11
4 12 13 14 15
4 16 17 18 19
4 20 21 22 23
4 24 25 26 27
4 28 29 30 31
4 32 33 34 35
4 36 37 38 39
4 40 41 42 43
4 44 45 46 47
4 48 49 50 51
4 52 53 54 55
4 56 57 58 59
4 60 61 62 63
4 64 65 66 67
4 68 69 70 71
4 72 73 74 75
4 76 77 78 79
4 80 81 82 83
4 84 85 86 87
4 88 89 90 91
4 92 93 94 95
4 96 97 98 99
4 100 101 102 103
4 104 105 106 107
4 108 109 110 111
4 112 113 114 115
4 116 117 118 119
4 120 121 122 123
4 124 125 126 127
4 128 129 130 131
4 132 133 134 135
4 136 137 138 139
4 140 141 142 143
4 144 145 146 147
4 148 149 150 151
4 152 153 154 155
4 156 157 158 159
4 160 161 162 163
4 164 165 166 167
4 168 169 170 171
4 172 173 174 175
4 176 177 178 179
4 180 181 182 183
4 184 185 186 187
4 188 189 190 191
4 192 193 194 195
4 196 197 198 199
4 200 201 202 203
4 204 205 206 207
4 208 209 210 211
4 212 213 214 215
4 216 217 218 219
4 220 221 222 223
4 224 225 226 227
4 228 229 230 231
4 232 233 234 235
4 236 237 238 239
4 240 241 242 243
4 244 245 246 247
4 248 249 250 251
4 252 253 254 255
4 256 257 258 259
4 260 261 262 263
4 264 265 266 267
4 268 269 270 271
4 272 273 274 275
4 276 277 278 279
4 280 281 282 283
4 284 285 286 287
4 288 289 290 291
4 292 293 294 295
4 296 297 298 299
4 300 301 302 303
4 304 305 306 307
4 308 309 310 311
4 312 313 314 315
4 316 317 318 319
4 320 321 322 323
4 324 325 326 327
4 328 329 330 331
4 332 333 334 335
4 336 337 338 339
4 340 341 342 343
4 344 345 346 347
4 348 349 350 351
4 352 353 354 355
4 356 357 358 359
4 360 361 362 363
4 364 365 366 367
4 368 369 370 371
4 372 373 374 375
4 376 377 378 379
4 380 381 382 383
4 384 385 386 387
4 388 389 390 391
4 392 393 394 395
4 396 397 398 399
4 400 401 402 403
4 404 405 406 407
4 408 409 410 411
4 412 413 414 415
4 416 417 418 419
4 420 421 422 423
4 424 425 426 427
4 428 429 430 431
4 432 433 434 435
4 436 437 438 439
4 440 441 442 443
4 444 445 446 447
4 448 449 450 451
4 452 453 454 455
4 456 457 458 459
4 460 461 462 463
4 464 465 466 467
4 468 469 470 471
4 472 473 474 475
4 476 477 478 479
4 480 481 482 483
4 484 485 486 487
4 488 489 490 491
4 492 493 494 495
4 496 497 498 499
4 500 501 502 503
4 504 505 506 507
4 508 509 510 511
4 512 513 514 515
4 516 517 518 519
4 520 521 522 523
4 524 525 526 527
4 528 529 530 531
4 532 533 534 535
4 536 537 538 539
4 540 541 542 543
4 544 545 546 547
4 548 549 550 551
4 552 553 554 555
4 556 557 558 559
4 560 561 562 563
4 564 565 566 567
4 568 569 570 571
4 572 573 574 575
4 576 577 578 579
4 580 581 582 583
4 584 585 586 587
4 588 589 590 591
4 592 593 594 595
4 596 597 598 599
4 600 601 602 603
4 604 605 606 607
4 608 609 610 611
4 612 613 614 615
4 616 617 618 619
4 620 621 622 623
4 624 625 626 627
4 628 629 630 631
4 632 633 634 635
4 636 637 638 639
4 640 641 642 643
4 644 645 646 647
4 648 649 650 651
4 652 653 654 655
4 656 657 658 659
4 660 661 662 663
4 664 665 666 667
3 668 669 670
3 671 672 673
3 674 675 676
3 677 678 679
3 680 681 682
3 683 684 685
3 686 687 688
3 689 690 691
3 692 693 694
3 693 694 695
3 696 697 698
3 697 698 699
3 700 701 702
3 703 704 705
3 706 707 708
3 709 710 711
3 712 713 714
3 715 716 717
3 718 719 720
3 721 722 723
3 724 725 726
3 727 728 729
3 730 731 732
3 733 734 735
3 736 737 738
3 739 740 741
3 742 743 744
3 743 744 745
3 746 747 748
3 747 748 749
3 750 751 752
3 753 754 755
3 756 757 758
3 759 760 761
