ply
format ascii 1.0
element vertex 634
property float x
property float y
property float z
property float nx
property float ny
property float nz
element quads 145
property list uchar int vertex_indices
element triads 18
property list uchar int vertex_indices
end_header
147 524 0 1 0 0
147 489 0 1 0 0
147 489 100 1 0 0
147 524 100 1 0 0
137 534 0 -1 -0 0
137 489 0 -1 -0 0
137 489 100 -1 -0 0
137 534 100 -1 -0 0
137 534 0 -0 1 0
233 534 0 -0 1 0
233 534 100 -0 1 0
137 534 100 -0 1 0
147 524 0 0 -1 0
233 524 0 0 -1 0
233 524 100 0 -1 0
147 524 100 0 -1 0
401 259 0 1 0 0
401 136 0 1 0 0
401 136 100 1 0 0
401 259 100 1 0 0
391 259 0 -1 -0 0
391 136 0 -1 -0 0
391 136 100 -1 -0 0
391 259 100 -1 -0 0
676 66 0 -0 1 0
703 66 0 -0 1 0
703 66 100 -0 1 0
676 66 100 -0 1 0
676 56 0 0 -1 0
703 56 0 0 -1 0
703 56 100 0 -1 0
676 56 100 0 -1 0
563 220 0 -0 1 0
602 220 0 -0 1 0
602 220 100 -0 1 0
563 220 100 -0 1 0
563 210 0 0 -1 0
612 210 0 0 -1 0
612 210 100 0 -1 0
563 210 100 0 -1 0
602 220 0 -1 0 0
602 298 0 -1 0 0
602 298 100 -1 0 0
602 220 100 -1 0 0
612 210 0 1 -0 0
612 298 0 1 -0 0
612 298 100 1 -0 0
612 210 100 1 -0 0
234 513 0 -0 1 0
274 513 0 -0 1 0
274 513 100 -0 1 0
234 513 100 -0 1 0
234 503 0 0 -1 0
274 503 0 0 -1 0
274 503 100 0 -1 0
234 503 100 0 -1 0
328 513 0 -0 1 0
369 513 0 -0 1 0
369 513 100 -0 1 0
328 513 100 -0 1 0
328 503 0 0 -1 0
359 503 0 0 -1 0
359 503 100 0 -1 0
328 503 100 0 -1 0
369 513 0 1 0 0
369 398 0 1 0 0
369 398 100 1 0 0
369 513 100 1 0 0
359 503 0 -1 -0 0
359 393 0 -1 -0 0
359 393 100 -1 -0 0
359 503 100 -1 -0 0
396 66 0 -0 1 0
426 66 0 -0 1 0
426 66 100 -0 1 0
396 66 100 -0 1 0
396 56 0 0 -1 0
426 56 0 0 -1 0
426 56 100 0 -1 0
396 56 100 0 -1 0
568 376 0 -0 1 0
652 376 0 -0 1 0
652 376 100 -0 1 0
568 376 100 -0 1 0
568 366 0 0 -1 0
642 366 0 0 -1 0
642 366 100 0 -1 0
568 366 100 0 -1 0
652 376 0 1 0 0
652 303 0 1 0 0
652 303 100 1 0 0
652 376 100 1 0 0
642 366 0 -1 -0 0
642 298 0 -1 -0 0
642 298 100 -1 -0 0
642 366 100 -1 -0 0
532 66 0 -0 1 0
607 66 0 -0 1 0
607 66 100 -0 1 0
532 66 100 -0 1 0
532 56 0 0 -1 0
607 56 0 0 -1 0
607 56 100 0 -1 0
532 56 100 0 -1 0
698 293 0 -0 -1 0
652 293 0 -0 -1 0
652 293 100 -0 -1 0
698 293 100 -0 -1 0
708 303 0 0 1 0
652 303 0 0 1 0
652 303 100 0 1 0
708 303 100 0 1 0
708 303 0 1 0 0
708 215 0 1 0 0
708 215 100 1 0 0
708 303 100 1 0 0
698 293 0 -1 -0 0
698 220 0 -1 -0 0
698 220 100 -1 -0 0
698 293 100 -1 -0 0
652 293 0 1 0 0
652 220 0 1 0 0
652 220 100 1 0 0
652 293 100 1 0 0
642 298 0 -1 -0 0
642 215 0 -1 -0 0
642 215 100 -1 -0 0
642 298 100 -1 -0 0
586 192 0 -0 1 0
642 192 0 -0 1 0
642 192 100 -0 1 0
586 192 100 -0 1 0
586 182 0 0 -1 0
647 182 0 0 -1 0
647 182 100 0 -1 0
586 182 100 0 -1 0
652 192 0 -0 1 0
698 192 0 -0 1 0
698 192 100 -0 1 0
652 192 100 -0 1 0
647 182 0 0 -1 0
708 182 0 0 -1 0
708 182 100 0 -1 0
647 182 100 0 -1 0
642 192 0 -1 0 0
642 215 0 -1 0 0
642 215 100 -1 0 0
642 192 100 -1 0 0
652 192 0 1 -0 0
652 210 0 1 -0 0
652 210 100 1 -0 0
652 192 100 1 -0 0
698 192 0 -1 0 0
698 210 0 -1 0 0
698 210 100 -1 0 0
698 192 100 -1 0 0
708 182 0 1 -0 0
708 215 0 1 -0 0
708 215 100 1 -0 0
708 182 100 1 -0 0
503 388 0 -0 -1 0
369 388 0 -0 -1 0
369 388 100 -0 -1 0
503 388 100 -0 -1 0
503 398 0 0 1 0
369 398 0 0 1 0
369 398 100 0 1 0
503 398 100 0 1 0
369 388 0 1 0 0
369 277 0 1 0 0
369 277 100 1 0 0
369 388 100 1 0 0
359 393 0 -1 -0 0
359 282 0 -1 -0 0
359 282 100 -1 -0 0
359 393 100 -1 -0 0
137 61 0 -1 0 0
137 206 0 -1 0 0
137 206 100 -1 0 0
137 61 100 -1 0 0
147 61 0 1 -0 0
147 201 0 1 -0 0
147 201 100 1 -0 0
147 61 100 1 -0 0
137 196 0 -1 0 0
137 277 0 -1 0 0
137 277 100 -1 0 0
137 196 100 -1 0 0
147 201 0 1 -0 0
147 272 0 1 -0 0
147 272 100 1 -0 0
147 201 100 1 -0 0
137 206 0 -0 1 0
199 206 0 -0 1 0
199 206 100 -0 1 0
137 206 100 -0 1 0
137 196 0 0 -1 0
209 196 0 0 -1 0
209 196 100 0 -1 0
137 196 100 0 -1 0
652 220 0 -0 1 0
698 220 0 -0 1 0
698 220 100 -0 1 0
652 220 100 -0 1 0
652 210 0 0 -1 0
698 210 0 0 -1 0
698 210 100 0 -1 0
652 210 100 0 -1 0
204 272 0 -0 -1 0
147 272 0 -0 -1 0
147 272 100 -0 -1 0
204 272 100 -0 -1 0
209 282 0 0 1 0
147 282 0 0 1 0
147 282 100 0 1 0
209 282 100 0 1 0
199 282 0 -0 1 0
359 282 0 -0 1 0
359 282 100 -0 1 0
199 282 100 -0 1 0
204 272 0 0 -1 0
359 272 0 0 -1 0
359 272 100 0 -1 0
204 272 100 0 -1 0
209 282 0 1 0 0
209 196 0 1 0 0
209 196 100 1 0 0
209 282 100 1 0 0
199 282 0 -1 -0 0
199 206 0 -1 -0 0
199 206 100 -1 -0 0
199 282 100 -1 -0 0
137 277 0 -1 0 0
137 317 0 -1 0 0
137 317 100 -1 0 0
137 277 100 -1 0 0
147 282 0 1 -0 0
147 317 0 1 -0 0
147 317 100 1 -0 0
147 282 100 1 -0 0
369 277 0 1 0 0
369 255 0 1 0 0
369 255 100 1 0 0
369 277 100 1 0 0
359 272 0 -1 -0 0
359 255 0 -1 -0 0
359 255 100 -1 -0 0
359 272 100 -1 -0 0
147 489 0 142.800003051757812 474.028564453125 0
137 489 0 142.800003051757812 474.028564453125 0
137 489 100 142.800003051757812 474.028564453125 0
147 489 100 142.800003051757812 474.028564453125 0
401 259 0 397.739837646484375 257.894317626953125 0
391 259 0 397.739837646484375 257.894317626953125 0
391 259 100 397.739837646484375 257.894317626953125 0
401 259 100 397.739837646484375 257.894317626953125 0
401 136 0 397.739837646484375 133.894302368164062 0
391 136 0 397.739837646484375 133.894302368164062 0
391 136 100 397.739837646484375 133.894302368164062 0
401 136 100 397.739837646484375 133.894302368164062 0
676 66 0 649.96295166015625 63.5555572509765625 0
676 56 0 649.96295166015625 63.5555572509765625 0
676 56 100 649.96295166015625 63.5555572509765625 0
676 66 100 649.96295166015625 63.5555572509765625 0
703 66 0 677.96295166015625 63.5555572509765625 0
703 56 0 677.96295166015625 63.5555572509765625 0
703 56 100 677.96295166015625 63.5555572509765625 0
703 66 100 677.96295166015625 63.5555572509765625 0
563 220 0 547.5640869140625 214.358978271484375 0
563 210 0 547.5640869140625 214.358978271484375 0
563 210 100 547.5640869140625 214.358978271484375 0
563 220 100 547.5640869140625 214.358978271484375 0
234 513 0 227.149993896484375 500.17498779296875 0
234 503 0 227.149993896484375 500.17498779296875 0
234 503 100 227.149993896484375 500.17498779296875 0
234 513 100 227.149993896484375 500.17498779296875 0
274 513 0 268.149993896484375 500.17498779296875 0
274 503 0 268.149993896484375 500.17498779296875 0
274 503 100 268.149993896484375 500.17498779296875 0
274 513 100 268.149993896484375 500.17498779296875 0
328 513 0 319 500.48779296875 0
328 503 0 319 500.48779296875 0
328 503 100 319 500.48779296875 0
328 513 100 319 500.48779296875 0
233 534 0 231.572921752929688 528.4375 0
233 524 0 231.572921752929688 528.4375 0
233 524 100 231.572921752929688 528.4375 0
233 534 100 231.572921752929688 528.4375 0
602 298 0 594.28204345703125 295.179473876953125 0
612 298 0 594.28204345703125 295.179473876953125 0
612 298 100 594.28204345703125 295.179473876953125 0
602 298 100 594.28204345703125 295.179473876953125 0
396 66 0 381.79998779296875 63.7999992370605469 0
396 56 0 381.79998779296875 63.7999992370605469 0
396 56 100 381.79998779296875 63.7999992370605469 0
396 66 100 381.79998779296875 63.7999992370605469 0
426 66 0 412.79998779296875 63.7999992370605469 0
426 56 0 412.79998779296875 63.7999992370605469 0
426 56 100 412.79998779296875 63.7999992370605469 0
426 66 100 412.79998779296875 63.7999992370605469 0
568 376 0 560.23809814453125 371.5238037109375 0
568 366 0 560.23809814453125 371.5238037109375 0
568 366 100 560.23809814453125 371.5238037109375 0
568 376 100 560.23809814453125 371.5238037109375 0
532 66 0 523.90667724609375 65.1200027465820312 0
532 56 0 523.90667724609375 65.1200027465820312 0
532 56 100 523.90667724609375 65.1200027465820312 0
532 66 100 523.90667724609375 65.1200027465820312 0
607 66 0 599.90667724609375 65.1200027465820312 0
607 56 0 599.90667724609375 65.1200027465820312 0
607 56 100 599.90667724609375 65.1200027465820312 0
607 66 100 599.90667724609375 65.1200027465820312 0
586 192 0 574.53570556640625 188.571426391601562 0
586 182 0 574.53570556640625 188.571426391601562 0
586 182 100 574.53570556640625 188.571426391601562 0
586 192 100 574.53570556640625 188.571426391601562 0
503 388 0 500.24627685546875 385.1044921875 0
503 398 0 500.24627685546875 385.1044921875 0
503 398 100 500.24627685546875 385.1044921875 0
503 388 100 500.24627685546875 385.1044921875 0
137 61 0 136.05517578125 59.5793113708496094 0
147 61 0 136.05517578125 59.5793113708496094 0
147 61 100 136.05517578125 59.5793113708496094 0
137 61 100 136.05517578125 59.5793113708496094 0
137 317 0 133.574996948242188 310.07501220703125 0
147 317 0 133.574996948242188 310.07501220703125 0
147 317 100 133.574996948242188 310.07501220703125 0
137 317 100 133.574996948242188 310.07501220703125 0
369 255 0 352.227264404296875 242.409088134765625 0
359 255 0 352.227264404296875 242.409088134765625 0
359 255 100 352.227264404296875 242.409088134765625 0
369 255 100 352.227264404296875 242.409088134765625 0
147 524 0 0 0 -1
137 534 0 0 0 -1
137 489 0 0 0 -1
147 489 0 0 0 -1
147 524 100 0 0 1
137 534 100 0 0 1
137 489 100 0 0 1
147 489 100 0 0 1
137 534 0 0 0 -1
147 524 0 0 0 -1
233 524 0 0 0 -1
233 534 0 0 0 -1
137 534 100 0 0 1
147 524 100 0 0 1
233 524 100 0 0 1
233 534 100 0 0 1
401 259 0 0 0 -1
391 259 0 0 0 -1
391 136 0 0 0 -1
401 136 0 0 0 -1
401 259 100 0 0 1
391 259 100 0 0 1
391 136 100 0 0 1
401 136 100 0 0 1
676 66 0 0 0 -1
676 56 0 0 0 -1
703 56 0 0 0 -1
703 66 0 0 0 -1
676 66 100 0 0 1
676 56 100 0 0 1
703 56 100 0 0 1
703 66 100 0 0 1
563 220 0 0 0 -1
563 210 0 0 0 -1
612 210 0 0 0 -1
602 220 0 0 0 -1
563 220 100 0 0 1
563 210 100 0 0 1
612 210 100 0 0 1
602 220 100 0 0 1
602 220 0 0 0 -1
612 210 0 0 0 -1
612 298 0 0 0 -1
602 298 0 0 0 -1
602 220 100 0 0 1
612 210 100 0 0 1
612 298 100 0 0 1
602 298 100 0 0 1
234 513 0 0 0 -1
234 503 0 0 0 -1
274 503 0 0 0 -1
274 513 0 0 0 -1
234 513 100 0 0 1
234 503 100 0 0 1
274 503 100 0 0 1
274 513 100 0 0 1
328 513 0 0 0 -1
328 503 0 0 0 -1
359 503 0 0 0 -1
369 513 0 0 0 -1
328 513 100 0 0 1
328 503 100 0 0 1
359 503 100 0 0 1
369 513 100 0 0 1
369 513 0 0 0 -1
359 503 0 0 0 -1
359 393 0 0 0 -1
369 398 0 0 0 -1
369 513 100 0 0 1
359 503 100 0 0 1
359 393 100 0 0 1
369 398 100 0 0 1
396 66 0 0 0 -1
396 56 0 0 0 -1
426 56 0 0 0 -1
426 66 0 0 0 -1
396 66 100 0 0 1
396 56 100 0 0 1
426 56 100 0 0 1
426 66 100 0 0 1
568 376 0 0 0 -1
568 366 0 0 0 -1
642 366 0 0 0 -1
652 376 0 0 0 -1
568 376 100 0 0 1
568 366 100 0 0 1
642 366 100 0 0 1
652 376 100 0 0 1
652 376 0 0 0 -1
642 366 0 0 0 -1
642 298 0 0 0 -1
652 303 0 0 0 -1
652 376 100 0 0 1
642 366 100 0 0 1
642 298 100 0 0 1
652 303 100 0 0 1
532 66 0 0 0 -1
532 56 0 0 0 -1
607 56 0 0 0 -1
607 66 0 0 0 -1
532 66 100 0 0 1
532 56 100 0 0 1
607 56 100 0 0 1
607 66 100 0 0 1
698 293 0 0 0 -1
708 303 0 0 0 -1
652 303 0 0 0 -1
652 293 0 0 0 -1
698 293 100 0 0 1
708 303 100 0 0 1
652 303 100 0 0 1
652 293 100 0 0 1
708 303 0 0 0 -1
698 293 0 0 0 -1
698 220 0 0 0 -1
708 215 0 0 0 -1
708 303 100 0 0 1
698 293 100 0 0 1
698 220 100 0 0 1
708 215 100 0 0 1
652 293 0 0 0 -1
642 298 0 0 0 -1
642 215 0 0 0 -1
652 220 0 0 0 -1
652 293 100 0 0 1
642 298 100 0 0 1
642 215 100 0 0 1
652 220 100 0 0 1
586 192 0 0 0 -1
586 182 0 0 0 -1
647 182 0 0 0 -1
642 192 0 0 0 -1
586 192 100 0 0 1
586 182 100 0 0 1
647 182 100 0 0 1
642 192 100 0 0 1
652 192 0 0 0 -1
647 182 0 0 0 -1
708 182 0 0 0 -1
698 192 0 0 0 -1
652 192 100 0 0 1
647 182 100 0 0 1
708 182 100 0 0 1
698 192 100 0 0 1
642 192 0 0 0 -1
652 192 0 0 0 -1
652 210 0 0 0 -1
642 215 0 0 0 -1
642 192 100 0 0 1
652 192 100 0 0 1
652 210 100 0 0 1
642 215 100 0 0 1
698 192 0 0 0 -1
708 182 0 0 0 -1
708 215 0 0 0 -1
698 210 0 0 0 -1
698 192 100 0 0 1
708 182 100 0 0 1
708 215 100 0 0 1
698 210 100 0 0 1
503 388 0 0 0 -1
503 398 0 0 0 -1
369 398 0 0 0 -1
369 388 0 0 0 -1
503 388 100 0 0 1
503 398 100 0 0 1
369 398 100 0 0 1
369 388 100 0 0 1
369 388 0 0 0 -1
359 393 0 0 0 -1
359 282 0 0 0 -1
369 277 0 0 0 -1
369 388 100 0 0 1
359 393 100 0 0 1
359 282 100 0 0 1
369 277 100 0 0 1
137 61 0 0 0 -1
147 61 0 0 0 -1
147 201 0 0 0 -1
137 206 0 0 0 -1
137 61 100 0 0 1
147 61 100 0 0 1
147 201 100 0 0 1
137 206 100 0 0 1
137 196 0 0 0 -1
147 201 0 0 0 -1
147 272 0 0 0 -1
137 277 0 0 0 -1
137 196 100 0 0 1
147 201 100 0 0 1
147 272 100 0 0 1
137 277 100 0 0 1
137 206 0 0 0 -1
137 196 0 0 0 -1
209 196 0 0 0 -1
199 206 0 0 0 -1
137 206 100 0 0 1
137 196 100 0 0 1
209 196 100 0 0 1
199 206 100 0 0 1
652 220 0 0 0 -1
652 210 0 0 0 -1
698 210 0 0 0 -1
698 220 0 0 0 -1
652 220 100 0 0 1
652 210 100 0 0 1
698 210 100 0 0 1
698 220 100 0 0 1
204 272 0 0 0 -1
209 282 0 0 0 -1
147 282 0 0 0 -1
147 272 0 0 0 -1
204 272 100 0 0 1
209 282 100 0 0 1
147 282 100 0 0 1
147 272 100 0 0 1
199 282 0 0 0 -1
204 272 0 0 0 -1
359 272 0 0 0 -1
359 282 0 0 0 -1
199 282 100 0 0 1
204 272 100 0 0 1
359 272 100 0 0 1
359 282 100 0 0 1
209 282 0 0 0 -1
199 282 0 0 0 -1
199 206 0 0 0 -1
209 196 0 0 0 -1
209 282 100 0 0 1
199 282 100 0 0 1
199 206 100 0 0 1
209 196 100 0 0 1
137 277 0 0 0 -1
147 282 0 0 0 -1
147 317 0 0 0 -1
137 317 0 0 0 -1
137 277 100 0 0 1
147 282 100 0 0 1
147 317 100 0 0 1
137 317 100 0 0 1
369 277 0 0 0 -1
359 272 0 0 0 -1
359 255 0 0 0 -1
369 255 0 0 0 -1
369 277 100 0 0 1
359 272 100 0 0 1
359 255 100 0 0 1
369 255 100 0 0 1
652 303 0 0 0 -1
642 298 0 0 0 -1
652 293 0 0 0 -1
652 303 100 0 0 1
642 298 100 0 0 1
652 293 100 0 0 1
647 182 0 0 0 -1
652 192 0 0 0 -1
642 192 0 0 0 -1
647 182 100 0 0 1
652 192 100 0 0 1
642 192 100 0 0 1
369 398 0 0 0 -1
359 393 0 0 0 -1
369 388 0 0 0 -1
369 398 100 0 0 1
359 393 100 0 0 1
369 388 100 0 0 1
147 201 0 0 0 -1
137 196 0 0 0 -1
137 206 0 0 0 -1
147 201 100 0 0 1
137 196 100 0 0 1
137 206 100 0 0 1
642 215 0 0 0 -1
652 210 0 0 0 -1
652 220 0 0 0 -1
642 215 100 0 0 1
652 210 100 0 0 1
652 220 100 0 0 1
708 215 0 0 0 -1
698 220 0 0 0 -1
698 210 0 0 0 -1
708 215 100 0 0 1
698 220 100 0 0 1
698 210 100 0 0 1
204 272 0 0 0 -1
199 282 0 0 0 -1
209 282 0 0 0 -1
204 272 100 0 0 1
199 282 100 0 0 1
209 282 100 0 0 1
147 282 0 0 0 -1
137 277 0 0 0 -1
147 272 0 0 0 -1
147 282 100 0 0 1
137 277 100 0 0 1
147 272 100 0 0 1
359 272 0 0 0 -1
369 277 0 0 0 -1
359 282 0 0 0 -1
359 272 100 0 0 1
369 277 100 0 0 1
359 282 100 0 0 1
4 0 1 2 3
4 4 5 6 7
4 8 9 10 11
4 12 13 14 15
4 16 17 18 19
4 20 21 22 23
4 24 25 26 27
4 28 29 30 31
4 32 33 34 35
4 36 37 38 39
4 40 41 42 43
4 44 45 46 47
4 48 49 50 51
4 52 53 54 55
4 56 57 58 59
4 60 61 62 63
4 64 65 66 67
4 68 69 70 71
4 72 73 74 75
4 76 77 78 79
4 80 81 82 83
4 84 85 86 87
4 88 89 90 91
4 92 93 94 95
4 96 97 98 99
4 100 101 102 103
4 104 105 106 107
4 108 109 110 111
4 112 113 114 115
4 116 117 118 119
4 120 121 122 123
4 124 125 126 127
4 128 129 130 131
4 132 133 134 135
4 136 137 138 139
4 140 141 142 143
4 144 145 146 147
4 148 149 150 151
4 152 153 154 155
4 156 157 158 159
4 160 161 162 163
4 164 165 166 167
4 168 169 170 171
4 172 173 174 175
4 176 177 178 179
4 180 181 182 183
4 184 185 186 187
4 188 189 190 191
4 192 193 194 195
4 196 197 198 199
4 200 201 202 203
4 204 205 206 207
4 208 209 210 211
4 212 213 214 215
4 216 217 218 219
4 220 221 222 223
4 224 225 226 227
4 228 229 230 231
4 232 233 234 235
4 236 237 238 239
4 240 241 242 243
4 244 245 246 247
4 248 249 250 251
4 252 253 254 255
4 256 257 258 259
4 260 261 262 263
4 264 265 266 267
4 268 269 270 271
4 272 273 274 275
4 276 277 278 279
4 280 281 282 283
4 284 285 286 287
4 288 289 290 291
4 292 293 294 295
4 296 297 298 299
4 300 301 302 303
4 304 305 306 307
4 308 309 310 311
4 312 313 314 315
4 316 317 318 319
4 320 321 322 323
4 324 325 326 327
4 328 329 330 331
4 332 333 334 335
4 336 337 338 339
4 340 341 342 343
4 344 345 346 347
4 348 349 350 351
4 352 353 354 355
4 356 357 358 359
4 360 361 362 363
4 364 365 366 367
4 368 369 370 371
4 372 373 374 375
4 376 377 378 379
4 380 381 382 383
4 384 385 386 387
4 388 389 390 391
4 392 393 394 395
4 396 397 398 399
4 400 401 402 403
4 404 405 406 407
4 408 409 410 411
4 412 413 414 415
4 416 417 418 419
4 420 421 422 423
4 424 425 426 427
4 428 429 430 431
4 432 433 434 435
4 436 437 438 439
4 440 441 442 443
4 444 445 446 447
4 448 449 450 451
4 452 453 454 455
4 456 457 458 459
4 460 461 462 463
4 464 465 466 467
4 468 469 470 471
4 472 473 474 475
4 476 477 478 479
4 480 481 482 483
4 484 485 486 487
4 488 489 490 491
4 492 493 494 495
4 496 497 498 499
4 500 501 502 503
4 504 505 506 507
4 508 509 510 511
4 512 513 514 515
4 516 517 518 519
4 520 521 522 523
4 524 525 526 527
4 528 529 530 531
4 532 533 534 535
4 536 537 538 539
4 540 541 542 543
4 544 545 546 547
4 548 549 550 551
4 552 553 554 555
4 556 557 558 559
4 560 561 562 563
4 564 565 566 567
4 568 569 570 571
4 572 573 574 575
4 576 577 578 579
3 580 581 582
3 583 584 585
3 586 587 588
3 589 590 591
3 592 593 594
3 595 596 597
3 598 599 600
3 601 602 603
3 604 605 606
3 607 608 609
3 610 611 612
3 613 614 615
3 616 617 618
3 619 620 621
3 622 623 624
3 625 626 627
3 628 629 630
3 631 632 633
