ply
format ascii 1.0
element vertex 628
property float x
property float y
property float z
property float nx
property float ny
property float nz
element quads 148
property list uchar int vertex_indices
element triads 12
property list uchar int vertex_indices
end_header
191 291 0 1 0 0
191 76 0 1 0 0
191 76 100 1 0 0
191 291 100 1 0 0
181 281 0 -1 -0 0
181 66 0 -1 -0 0
181 66 100 -1 -0 0
181 281 100 -1 -0 0
181 281 0 -0 -1 0
64 281 0 -0 -1 0
64 281 100 -0 -1 0
181 281 100 -0 -1 0
191 291 0 0 1 0
74 291 0 0 1 0
74 291 100 0 1 0
191 291 100 0 1 0
191 76 0 -0 1 0
302 76 0 -0 1 0
302 76 100 -0 1 0
191 76 100 -0 1 0
181 66 0 0 -1 0
307 66 0 0 -1 0
307 66 100 0 -1 0
181 66 100 0 -1 0
615 249 0 1 0 0
615 225 0 1 0 0
615 225 100 1 0 0
615 249 100 1 0 0
605 259 0 -1 -0 0
605 225 0 -1 -0 0
605 225 100 -1 -0 0
605 259 100 -1 -0 0
605 259 0 -0 1 0
658 259 0 -0 1 0
658 259 100 -0 1 0
605 259 100 -0 1 0
615 249 0 0 -1 0
658 249 0 0 -1 0
658 249 100 0 -1 0
615 249 100 0 -1 0
64 281 0 -1 0 0
64 501 0 -1 0 0
64 501 100 -1 0 0
64 281 100 -1 0 0
74 291 0 1 -0 0
74 501 0 1 -0 0
74 501 100 1 -0 0
74 291 100 1 -0 0
536 291 0 1 0 0
536 213 0 1 0 0
536 213 100 1 0 0
536 291 100 1 0 0
526 281 0 -1 -0 0
526 213 0 -1 -0 0
526 213 100 -1 -0 0
526 281 100 -1 -0 0
526 281 0 -0 -1 0
480 281 0 -0 -1 0
480 281 100 -0 -1 0
526 281 100 -0 -1 0
536 291 0 0 1 0
470 291 0 0 1 0
470 291 100 0 1 0
536 291 100 0 1 0
536 460 0 1 0 0
536 392 0 1 0 0
536 392 100 1 0 0
536 460 100 1 0 0
526 460 0 -1 -0 0
526 392 0 -1 -0 0
526 392 100 -1 -0 0
526 460 100 -1 -0 0
727 76 0 -0 1 0
754 76 0 -0 1 0
754 76 100 -0 1 0
727 76 100 -0 1 0
727 66 0 0 -1 0
764 66 0 0 -1 0
764 66 100 0 -1 0
727 66 100 0 -1 0
754 76 0 -1 0 0
754 254 0 -1 0 0
754 254 100 -1 0 0
754 76 100 -1 0 0
764 66 0 1 -0 0
764 254 0 1 -0 0
764 254 100 1 -0 0
764 66 100 1 -0 0
470 213 0 -1 0 0
470 291 0 -1 0 0
470 291 100 -1 0 0
470 213 100 -1 0 0
480 213 0 1 -0 0
480 281 0 1 -0 0
480 281 100 1 -0 0
480 213 100 1 -0 0
773 140 0 -1 0 0
773 183 0 -1 0 0
773 183 100 -1 0 0
773 140 100 -1 0 0
783 140 0 1 -0 0
783 183 0 1 -0 0
783 183 100 1 -0 0
783 140 100 1 -0 0
626 337 0 -1 0 0
626 370 0 -1 0 0
626 370 100 -1 0 0
626 337 100 -1 0 0
636 337 0 1 -0 0
636 380 0 1 -0 0
636 380 100 1 -0 0
636 337 100 1 -0 0
626 370 0 -0 -1 0
605 370 0 -0 -1 0
605 370 100 -0 -1 0
626 370 100 -0 -1 0
636 380 0 0 1 0
605 380 0 0 1 0
605 380 100 0 1 0
636 380 100 0 1 0
645 66 0 -0 -1 0
605 66 0 -0 -1 0
605 66 100 -0 -1 0
645 66 100 -0 -1 0
645 76 0 0 1 0
605 76 0 0 1 0
605 76 100 0 1 0
645 76 100 0 1 0
615 71 0 1 0 0
615 25 0 1 0 0
615 25 100 1 0 0
615 71 100 1 0 0
605 76 0 -1 -0 0
605 25 0 -1 -0 0
605 25 100 -1 -0 0
605 76 100 -1 -0 0
605 66 0 -1 0 0
605 99 0 -1 0 0
605 99 100 -1 0 0
605 66 100 -1 0 0
615 71 0 1 -0 0
615 99 0 1 -0 0
615 99 100 1 -0 0
615 71 100 1 -0 0
749 375 0 1 0 0
749 249 0 1 0 0
749 249 100 1 0 0
749 375 100 1 0 0
739 375 0 -1 -0 0
739 259 0 -1 -0 0
739 259 100 -1 -0 0
739 375 100 -1 -0 0
749 249 0 -0 -1 0
706 249 0 -0 -1 0
706 249 100 -0 -1 0
749 249 100 -0 -1 0
739 259 0 0 1 0
706 259 0 0 1 0
706 259 100 0 1 0
739 259 100 0 1 0
412 211 0 -1 0 0
412 281 0 -1 0 0
412 281 100 -1 0 0
412 211 100 -1 0 0
422 211 0 1 -0 0
422 286 0 1 -0 0
422 286 100 1 -0 0
422 211 100 1 -0 0
412 291 0 -1 0 0
412 492 0 -1 0 0
412 492 100 -1 0 0
412 291 100 -1 0 0
422 286 0 1 -0 0
422 492 0 1 -0 0
422 492 100 1 -0 0
422 286 100 1 -0 0
412 281 0 -0 -1 0
362 281 0 -0 -1 0
362 281 100 -0 -1 0
412 281 100 -0 -1 0
412 291 0 0 1 0
357 291 0 0 1 0
357 291 100 0 1 0
412 291 100 0 1 0
357 232 0 -1 0 0
357 291 0 -1 0 0
357 291 100 -1 0 0
357 232 100 -1 0 0
367 232 0 1 -0 0
367 291 0 1 -0 0
367 291 100 1 -0 0
367 232 100 1 -0 0
362 281 0 -0 -1 0
307 281 0 -0 -1 0
307 281 100 -0 -1 0
362 281 100 -0 -1 0
367 291 0 0 1 0
297 291 0 0 1 0
297 291 100 0 1 0
367 291 100 0 1 0
307 281 0 1 0 0
307 66 0 1 0 0
307 66 100 1 0 0
307 281 100 1 0 0
297 291 0 -1 -0 0
297 66 0 -1 -0 0
297 66 100 -1 -0 0
297 291 100 -1 -0 0
302 76 0 -0 1 0
379 76 0 -0 1 0
379 76 100 -0 1 0
302 76 100 -0 1 0
297 66 0 0 -1 0
384 66 0 0 -1 0
384 66 100 0 -1 0
297 66 100 0 -1 0
605 336 0 -1 0 0
605 380 0 -1 0 0
605 380 100 -1 0 0
605 336 100 -1 0 0
615 336 0 1 -0 0
615 375 0 1 -0 0
615 375 100 1 -0 0
615 336 100 1 -0 0
605 370 0 -1 0 0
605 396 0 -1 0 0
605 396 100 -1 0 0
605 370 100 -1 0 0
615 375 0 1 -0 0
615 396 0 1 -0 0
615 396 100 1 -0 0
615 375 100 1 -0 0
384 200 0 1 0 0
384 66 0 1 0 0
384 66 100 1 0 0
384 200 100 1 0 0
374 200 0 -1 -0 0
374 66 0 -1 -0 0
374 66 100 -1 -0 0
374 200 100 -1 -0 0
379 76 0 -0 1 0
491 76 0 -0 1 0
491 76 100 -0 1 0
379 76 100 -0 1 0
374 66 0 0 -1 0
491 66 0 0 -1 0
491 66 100 0 -1 0
374 66 100 0 -1 0
615 225 0 589.375 214.625 0
605 225 0 589.375 214.625 0
605 225 100 589.375 214.625 0
615 225 100 589.375 214.625 0
536 213 0 529.12823486328125 209.26922607421875 0
526 213 0 529.12823486328125 209.26922607421875 0
526 213 100 529.12823486328125 209.26922607421875 0
536 213 100 529.12823486328125 209.26922607421875 0
536 460 0 528.11767578125 454.23529052734375 0
526 460 0 528.11767578125 454.23529052734375 0
526 460 100 528.11767578125 454.23529052734375 0
536 460 100 528.11767578125 454.23529052734375 0
536 392 0 528.11767578125 385.23529052734375 0
526 392 0 528.11767578125 385.23529052734375 0
526 392 100 528.11767578125 385.23529052734375 0
536 392 100 528.11767578125 385.23529052734375 0
727 76 0 699.0740966796875 73.1851882934570312 0
727 66 0 699.0740966796875 73.1851882934570312 0
727 66 100 699.0740966796875 73.1851882934570312 0
727 76 100 699.0740966796875 73.1851882934570312 0
64 501 0 63.7090911865234375 499.72271728515625 0
74 501 0 63.7090911865234375 499.72271728515625 0
74 501 100 63.7090911865234375 499.72271728515625 0
64 501 100 63.7090911865234375 499.72271728515625 0
754 254 0 749.7640380859375 253.573028564453125 0
764 254 0 749.7640380859375 253.573028564453125 0
764 254 100 749.7640380859375 253.573028564453125 0
754 254 100 749.7640380859375 253.573028564453125 0
470 213 0 463.974365234375 209.26922607421875 0
480 213 0 463.974365234375 209.26922607421875 0
480 213 100 463.974365234375 209.26922607421875 0
470 213 100 463.974365234375 209.26922607421875 0
658 259 0 646.58489990234375 254.113204956054688 0
658 249 0 646.58489990234375 254.113204956054688 0
658 249 100 646.58489990234375 254.113204956054688 0
658 259 100 646.58489990234375 254.113204956054688 0
773 140 0 755.02325439453125 135.744186401367188 0
783 140 0 755.02325439453125 135.744186401367188 0
783 140 100 755.02325439453125 135.744186401367188 0
773 140 100 755.02325439453125 135.744186401367188 0
773 183 0 755.02325439453125 179.744186401367188 0
783 183 0 755.02325439453125 179.744186401367188 0
783 183 100 755.02325439453125 179.744186401367188 0
773 183 100 755.02325439453125 179.744186401367188 0
626 337 0 607.0302734375 325.787872314453125 0
636 337 0 607.0302734375 325.787872314453125 0
636 337 100 607.0302734375 325.787872314453125 0
626 337 100 607.0302734375 325.787872314453125 0
645 66 0 629.875 64.3499984741210938 0
645 76 0 629.875 64.3499984741210938 0
645 76 100 629.875 64.3499984741210938 0
645 66 100 629.875 64.3499984741210938 0
615 25 0 601.63043212890625 23.4565219879150391 0
605 25 0 601.63043212890625 23.4565219879150391 0
605 25 100 601.63043212890625 23.4565219879150391 0
615 25 100 601.63043212890625 23.4565219879150391 0
605 99 0 586.66668701171875 97 0
615 99 0 586.66668701171875 97 0
615 99 100 586.66668701171875 97 0
605 99 100 586.66668701171875 97 0
749 375 0 743.0555419921875 373.0238037109375 0
739 375 0 743.0555419921875 373.0238037109375 0
739 375 100 743.0555419921875 373.0238037109375 0
749 375 100 743.0555419921875 373.0238037109375 0
706 249 0 688.5814208984375 243.209304809570312 0
706 259 0 688.5814208984375 243.209304809570312 0
706 259 100 688.5814208984375 243.209304809570312 0
706 249 100 688.5814208984375 243.209304809570312 0
412 211 0 406.114288330078125 206.9857177734375 0
422 211 0 406.114288330078125 206.9857177734375 0
422 211 100 406.114288330078125 206.9857177734375 0
412 211 100 406.114288330078125 206.9857177734375 0
412 492 0 409.95025634765625 490.55224609375 0
422 492 0 409.95025634765625 490.55224609375 0
422 492 100 409.95025634765625 490.55224609375 0
412 492 100 409.95025634765625 490.55224609375 0
357 232 0 350.94915771484375 227.067794799804688 0
367 232 0 350.94915771484375 227.067794799804688 0
367 232 100 350.94915771484375 227.067794799804688 0
357 232 100 350.94915771484375 227.067794799804688 0
605 336 0 591.25 327.3636474609375 0
615 336 0 591.25 327.3636474609375 0
615 336 100 591.25 327.3636474609375 0
605 336 100 591.25 327.3636474609375 0
605 396 0 581.73077392578125 381.76922607421875 0
615 396 0 581.73077392578125 381.76922607421875 0
615 396 100 581.73077392578125 381.76922607421875 0
605 396 100 581.73077392578125 381.76922607421875 0
384 200 0 381.13433837890625 199.507461547851562 0
374 200 0 381.13433837890625 199.507461547851562 0
374 200 100 381.13433837890625 199.507461547851562 0
384 200 100 381.13433837890625 199.507461547851562 0
491 76 0 487.616058349609375 75.3214263916015625 0
491 66 0 487.616058349609375 75.3214263916015625 0
491 66 100 487.616058349609375 75.3214263916015625 0
491 76 100 487.616058349609375 75.3214263916015625 0
191 291 0 0 0 -1
181 281 0 0 0 -1
181 66 0 0 0 -1
191 76 0 0 0 -1
191 291 100 0 0 1
181 281 100 0 0 1
181 66 100 0 0 1
191 76 100 0 0 1
181 281 0 0 0 -1
191 291 0 0 0 -1
74 291 0 0 0 -1
64 281 0 0 0 -1
181 281 100 0 0 1
191 291 100 0 0 1
74 291 100 0 0 1
64 281 100 0 0 1
191 76 0 0 0 -1
181 66 0 0 0 -1
307 66 0 0 0 -1
302 76 0 0 0 -1
191 76 100 0 0 1
181 66 100 0 0 1
307 66 100 0 0 1
302 76 100 0 0 1
615 249 0 0 0 -1
605 259 0 0 0 -1
605 225 0 0 0 -1
615 225 0 0 0 -1
615 249 100 0 0 1
605 259 100 0 0 1
605 225 100 0 0 1
615 225 100 0 0 1
605 259 0 0 0 -1
615 249 0 0 0 -1
658 249 0 0 0 -1
658 259 0 0 0 -1
605 259 100 0 0 1
615 249 100 0 0 1
658 249 100 0 0 1
658 259 100 0 0 1
64 281 0 0 0 -1
74 291 0 0 0 -1
74 501 0 0 0 -1
64 501 0 0 0 -1
64 281 100 0 0 1
74 291 100 0 0 1
74 501 100 0 0 1
64 501 100 0 0 1
536 291 0 0 0 -1
526 281 0 0 0 -1
526 213 0 0 0 -1
536 213 0 0 0 -1
536 291 100 0 0 1
526 281 100 0 0 1
526 213 100 0 0 1
536 213 100 0 0 1
526 281 0 0 0 -1
536 291 0 0 0 -1
470 291 0 0 0 -1
480 281 0 0 0 -1
526 281 100 0 0 1
536 291 100 0 0 1
470 291 100 0 0 1
480 281 100 0 0 1
536 460 0 0 0 -1
526 460 0 0 0 -1
526 392 0 0 0 -1
536 392 0 0 0 -1
536 460 100 0 0 1
526 460 100 0 0 1
526 392 100 0 0 1
536 392 100 0 0 1
727 76 0 0 0 -1
727 66 0 0 0 -1
764 66 0 0 0 -1
754 76 0 0 0 -1
727 76 100 0 0 1
727 66 100 0 0 1
764 66 100 0 0 1
754 76 100 0 0 1
754 76 0 0 0 -1
764 66 0 0 0 -1
764 254 0 0 0 -1
754 254 0 0 0 -1
754 76 100 0 0 1
764 66 100 0 0 1
764 254 100 0 0 1
754 254 100 0 0 1
470 213 0 0 0 -1
480 213 0 0 0 -1
480 281 0 0 0 -1
470 291 0 0 0 -1
470 213 100 0 0 1
480 213 100 0 0 1
480 281 100 0 0 1
470 291 100 0 0 1
773 140 0 0 0 -1
783 140 0 0 0 -1
783 183 0 0 0 -1
773 183 0 0 0 -1
773 140 100 0 0 1
783 140 100 0 0 1
783 183 100 0 0 1
773 183 100 0 0 1
626 337 0 0 0 -1
636 337 0 0 0 -1
636 380 0 0 0 -1
626 370 0 0 0 -1
626 337 100 0 0 1
636 337 100 0 0 1
636 380 100 0 0 1
626 370 100 0 0 1
626 370 0 0 0 -1
636 380 0 0 0 -1
605 380 0 0 0 -1
605 370 0 0 0 -1
626 370 100 0 0 1
636 380 100 0 0 1
605 380 100 0 0 1
605 370 100 0 0 1
645 66 0 0 0 -1
645 76 0 0 0 -1
605 76 0 0 0 -1
605 66 0 0 0 -1
645 66 100 0 0 1
645 76 100 0 0 1
605 76 100 0 0 1
605 66 100 0 0 1
615 71 0 0 0 -1
605 76 0 0 0 -1
605 25 0 0 0 -1
615 25 0 0 0 -1
615 71 100 0 0 1
605 76 100 0 0 1
605 25 100 0 0 1
615 25 100 0 0 1
605 66 0 0 0 -1
615 71 0 0 0 -1
615 99 0 0 0 -1
605 99 0 0 0 -1
605 66 100 0 0 1
615 71 100 0 0 1
615 99 100 0 0 1
605 99 100 0 0 1
749 375 0 0 0 -1
739 375 0 0 0 -1
739 259 0 0 0 -1
749 249 0 0 0 -1
749 375 100 0 0 1
739 375 100 0 0 1
739 259 100 0 0 1
749 249 100 0 0 1
749 249 0 0 0 -1
739 259 0 0 0 -1
706 259 0 0 0 -1
706 249 0 0 0 -1
749 249 100 0 0 1
739 259 100 0 0 1
706 259 100 0 0 1
706 249 100 0 0 1
412 211 0 0 0 -1
422 211 0 0 0 -1
422 286 0 0 0 -1
412 281 0 0 0 -1
412 211 100 0 0 1
422 211 100 0 0 1
422 286 100 0 0 1
412 281 100 0 0 1
412 291 0 0 0 -1
422 286 0 0 0 -1
422 492 0 0 0 -1
412 492 0 0 0 -1
412 291 100 0 0 1
422 286 100 0 0 1
422 492 100 0 0 1
412 492 100 0 0 1
412 281 0 0 0 -1
412 291 0 0 0 -1
357 291 0 0 0 -1
362 281 0 0 0 -1
412 281 100 0 0 1
412 291 100 0 0 1
357 291 100 0 0 1
362 281 100 0 0 1
357 232 0 0 0 -1
367 232 0 0 0 -1
367 291 0 0 0 -1
357 291 0 0 0 -1
357 232 100 0 0 1
367 232 100 0 0 1
367 291 100 0 0 1
357 291 100 0 0 1
362 281 0 0 0 -1
367 291 0 0 0 -1
297 291 0 0 0 -1
307 281 0 0 0 -1
362 281 100 0 0 1
367 291 100 0 0 1
297 291 100 0 0 1
307 281 100 0 0 1
307 281 0 0 0 -1
297 291 0 0 0 -1
297 66 0 0 0 -1
307 66 0 0 0 -1
307 281 100 0 0 1
297 291 100 0 0 1
297 66 100 0 0 1
307 66 100 0 0 1
302 76 0 0 0 -1
297 66 0 0 0 -1
384 66 0 0 0 -1
379 76 0 0 0 -1
302 76 100 0 0 1
297 66 100 0 0 1
384 66 100 0 0 1
379 76 100 0 0 1
605 336 0 0 0 -1
615 336 0 0 0 -1
615 375 0 0 0 -1
605 380 0 0 0 -1
605 336 100 0 0 1
615 336 100 0 0 1
615 375 100 0 0 1
605 380 100 0 0 1
605 370 0 0 0 -1
615 375 0 0 0 -1
615 396 0 0 0 -1
605 396 0 0 0 -1
605 370 100 0 0 1
615 375 100 0 0 1
615 396 100 0 0 1
605 396 100 0 0 1
384 200 0 0 0 -1
374 200 0 0 0 -1
374 66 0 0 0 -1
384 66 0 0 0 -1
384 200 100 0 0 1
374 200 100 0 0 1
374 66 100 0 0 1
384 66 100 0 0 1
379 76 0 0 0 -1
374 66 0 0 0 -1
491 66 0 0 0 -1
491 76 0 0 0 -1
379 76 100 0 0 1
374 66 100 0 0 1
491 66 100 0 0 1
491 76 100 0 0 1
605 76 0 0 0 -1
615 71 0 0 0 -1
605 66 0 0 0 -1
605 76 100 0 0 1
615 71 100 0 0 1
605 66 100 0 0 1
422 286 0 0 0 -1
412 291 0 0 0 -1
412 281 0 0 0 -1
422 286 100 0 0 1
412 291 100 0 0 1
412 281 100 0 0 1
367 291 0 0 0 -1
362 281 0 0 0 -1
357 291 0 0 0 -1
367 291 100 0 0 1
362 281 100 0 0 1
357 291 100 0 0 1
307 66 0 0 0 -1
297 66 0 0 0 -1
302 76 0 0 0 -1
307 66 100 0 0 1
297 66 100 0 0 1
302 76 100 0 0 1
615 375 0 0 0 -1
605 370 0 0 0 -1
605 380 0 0 0 -1
615 375 100 0 0 1
605 370 100 0 0 1
605 380 100 0 0 1
374 66 0 0 0 -1
379 76 0 0 0 -1
384 66 0 0 0 -1
374 66 100 0 0 1
379 76 100 0 0 1
384 66 100 0 0 1
4 0 1 2 3
4 4 5 6 7
4 8 9 10 11
4 12 13 14 15
4 16 17 18 19
4 20 21 22 23
4 24 25 26 27
4 28 29 30 31
4 32 33 34 35
4 36 37 38 39
4 40 41 42 43
4 44 45 46 47
4 48 49 50 51
4 52 53 54 55
4 56 57 58 59
4 60 61 62 63
4 64 65 66 67
4 68 69 70 71
4 72 73 74 75
4 76 77 78 79
4 80 81 82 83
4 84 85 86 87
4 88 89 90 91
4 92 93 94 95
4 96 97 98 99
4 100 101 102 103
4 104 105 106 107
4 108 109 110 111
4 112 113 114 115
4 116 117 118 119
4 120 121 122 123
4 124 125 126 127
4 128 129 130 131
4 132 133 134 135
4 136 137 138 139
4 140 141 142 143
4 144 145 146 147
4 148 149 150 151
4 152 153 154 155
4 156 157 158 159
4 160 161 162 163
4 164 165 166 167
4 168 169 170 171
4 172 173 174 175
4 176 177 178 179
4 180 181 182 183
4 184 185 186 187
4 188 189 190 191
4 192 193 194 195
4 196 197 198 199
4 200 201 202 203
4 204 205 206 207
4 208 209 210 211
4 212 213 214 215
4 216 217 218 219
4 220 221 222 223
4 224 225 226 227
4 228 229 230 231
4 232 233 234 235
4 236 237 238 239
4 240 241 242 243
4 244 245 246 247
4 248 249 250 251
4 252 253 254 255
4 256 257 258 259
4 260 261 262 263
4 264 265 266 267
4 268 269 270 271
4 272 273 274 275
4 276 277 278 279
4 280 281 282 283
4 284 285 286 287
4 288 289 290 291
4 292 293 294 295
4 296 297 298 299
4 300 301 302 303
4 304 305 306 307
4 308 309 310 311
4 312 313 314 315
4 316 317 318 319
4 320 321 322 323
4 324 325 326 327
4 328 329 330 331
4 332 333 334 335
4 336 337 338 339
4 340 341 342 343
4 344 345 346 347
4 348 349 350 351
4 352 353 354 355
4 356 357 358 359
4 360 361 362 363
4 364 365 366 367
4 368 369 370 371
4 372 373 374 375
4 376 377 378 379
4 380 381 382 383
4 384 385 386 387
4 388 389 390 391
4 392 393 394 395
4 396 397 398 399
4 400 401 402 403
4 404 405 406 407
4 408 409 410 411
4 412 413 414 415
4 416 417 418 419
4 420 421 422 423
4 424 425 426 427
4 428 429 430 431
4 432 433 434 435
4 436 437 438 439
4 440 441 442 443
4 444 445 446 447
4 448 449 450 451
4 452 453 454 455
4 456 457 458 459
4 460 461 462 463
4 464 465 466 467
4 468 469 470 471
4 472 473 474 475
4 476 477 478 479
4 480 481 482 483
4 484 485 486 487
4 488 489 490 491
4 492 493 494 495
4 496 497 498 499
4 500 501 502 503
4 504 505 506 507
4 508 509 510 511
4 512 513 514 515
4 516 517 518 519
4 520 521 522 523
4 524 525 526 527
4 528 529 530 531
4 532 533 534 535
4 536 537 538 539
4 540 541 542 543
4 544 545 546 547
4 548 549 550 551
4 552 553 554 555
4 556 557 558 559
4 560 561 562 563
4 564 565 566 567
4 568 569 570 571
4 572 573 574 575
4 576 577 578 579
4 580 581 582 583
4 584 585 586 587
4 588 589 590 591
3 592 593 594
3 595 596 597
3 598 599 600
3 601 602 603
3 604 605 606
3 607 608 609
3 610 611 612
3 613 614 615
3 616 617 618
3 619 620 621
3 622 623 624
3 625 626 627
