ply
format ascii 1.0
element vertex 1226
property float x
property float y
property float z
property float nx
property float ny
property float nz
element quads 269
property list uchar int vertex_indices
element triads 54
property list uchar int vertex_indices
end_header
456 192 0 -0 1 0
493 192 0 -0 1 0
493 192 100 -0 1 0
456 192 100 -0 1 0
456 182 0 0 -1 0
483 182 0 0 -1 0
483 182 100 0 -1 0
456 182 100 0 -1 0
493 192 0 1 0 0
493 34 0 1 0 0
493 34 100 1 0 0
493 192 100 1 0 0
483 182 0 -1 -0 0
483 34 0 -1 -0 0
483 34 100 -1 -0 0
483 182 100 -1 -0 0
264 407 0 -0 1 0
365 407 0 -0 1 0
365 407 100 -0 1 0
264 407 100 -0 1 0
264 397 0 0 -1 0
365 397 0 0 -1 0
365 397 100 0 -1 0
264 397 100 0 -1 0
259 394 0 -0 1 0
370 394 0 -0 1 0
370 394 100 -0 1 0
259 394 100 -0 1 0
264 384 0 0 -1 0
360 384 0 0 -1 0
360 384 100 0 -1 0
264 384 100 0 -1 0
269 394 0 1 0 0
269 262 0 1 0 0
269 262 100 1 0 0
269 394 100 1 0 0
259 394 0 -1 -0 0
259 262 0 -1 -0 0
259 262 100 -1 -0 0
259 394 100 -1 -0 0
264 384 0 -0 -1 0
239 384 0 -0 -1 0
239 384 100 -0 -1 0
264 384 100 -0 -1 0
269 394 0 0 1 0
239 394 0 0 1 0
239 394 100 0 1 0
269 394 100 0 1 0
370 394 0 1 0 0
370 267 0 1 0 0
370 267 100 1 0 0
370 394 100 1 0 0
360 384 0 -1 -0 0
360 257 0 -1 -0 0
360 257 100 -1 -0 0
360 384 100 -1 -0 0
125 394 0 -0 1 0
171 394 0 -0 1 0
171 394 100 -0 1 0
125 394 100 -0 1 0
135 384 0 0 -1 0
171 384 0 0 -1 0
171 384 100 0 -1 0
135 384 100 0 -1 0
135 384 0 1 0 0
135 262 0 1 0 0
135 262 100 1 0 0
135 384 100 1 0 0
125 394 0 -1 -0 0
125 267 0 -1 -0 0
125 267 100 -1 -0 0
125 394 100 -1 -0 0
370 267 0 -0 1 0
488 267 0 -0 1 0
488 267 100 -0 1 0
370 267 100 -0 1 0
360 257 0 0 -1 0
493 257 0 0 -1 0
493 257 100 0 -1 0
360 257 100 0 -1 0
103 152 0 -1 0 0
103 267 0 -1 0 0
103 267 100 -1 0 0
103 152 100 -1 0 0
113 162 0 1 -0 0
113 257 0 1 -0 0
113 257 100 1 -0 0
113 162 100 1 -0 0
113 162 0 -0 1 0
125 162 0 -0 1 0
125 162 100 -0 1 0
113 162 100 -0 1 0
103 152 0 0 -1 0
130 152 0 0 -1 0
130 152 100 0 -1 0
103 152 100 0 -1 0
103 267 0 -0 1 0
125 267 0 -0 1 0
125 267 100 -0 1 0
103 267 100 -0 1 0
113 257 0 0 -1 0
130 257 0 0 -1 0
130 257 100 0 -1 0
113 257 100 0 -1 0
604 34 0 -0 1 0
716 34 0 -0 1 0
716 34 100 -0 1 0
604 34 100 -0 1 0
604 24 0 0 -1 0
726 24 0 0 -1 0
726 24 100 0 -1 0
604 24 100 0 -1 0
716 34 0 -1 0 0
716 182 0 -1 0 0
716 182 100 -1 0 0
716 34 100 -1 0 0
726 24 0 1 -0 0
726 187 0 1 -0 0
726 187 100 1 -0 0
726 24 100 1 -0 0
493 389 0 1 0 0
493 376 0 1 0 0
493 376 100 1 0 0
493 389 100 1 0 0
483 389 0 -1 -0 0
483 371 0 -1 -0 0
483 371 100 -1 -0 0
483 389 100 -1 -0 0
493 366 0 1 0 0
493 257 0 1 0 0
493 257 100 1 0 0
493 366 100 1 0 0
483 371 0 -1 -0 0
483 257 0 -1 -0 0
483 257 100 -1 -0 0
483 371 100 -1 -0 0
493 376 0 -0 1 0
552 376 0 -0 1 0
552 376 100 -0 1 0
493 376 100 -0 1 0
493 366 0 0 -1 0
552 366 0 0 -1 0
552 366 100 0 -1 0
493 366 100 0 -1 0
209 257 0 -0 -1 0
171 257 0 -0 -1 0
171 257 100 -0 -1 0
209 257 100 -0 -1 0
209 267 0 0 1 0
166 267 0 0 1 0
166 267 100 0 1 0
209 267 100 0 1 0
176 267 0 1 0 0
176 232 0 1 0 0
176 232 100 1 0 0
176 267 100 1 0 0
166 267 0 -1 -0 0
166 222 0 -1 -0 0
166 222 100 -1 -0 0
166 267 100 -1 -0 0
171 257 0 -0 -1 0
130 257 0 -0 -1 0
130 257 100 -0 -1 0
171 257 100 -0 -1 0
176 267 0 0 1 0
125 267 0 0 1 0
125 267 100 0 1 0
176 267 100 0 1 0
244 152 0 -0 -1 0
166 152 0 -0 -1 0
166 152 100 -0 -1 0
244 152 100 -0 -1 0
234 162 0 0 1 0
171 162 0 0 1 0
171 162 100 0 1 0
234 162 100 0 1 0
234 162 0 -1 0 0
234 192 0 -1 0 0
234 192 100 -1 0 0
234 162 100 -1 0 0
244 152 0 1 -0 0
244 187 0 1 -0 0
244 187 100 1 -0 0
244 152 100 1 -0 0
176 152 0 -0 -1 0
130 152 0 -0 -1 0
130 152 100 -0 -1 0
176 152 100 -0 -1 0
171 162 0 0 1 0
125 162 0 0 1 0
125 162 100 0 1 0
171 162 100 0 1 0
166 152 0 -1 0 0
166 219 0 -1 0 0
166 219 100 -1 0 0
166 152 100 -1 0 0
176 152 0 1 -0 0
176 209 0 1 -0 0
176 209 100 1 -0 0
176 152 100 1 -0 0
239 222 0 -0 -1 0
166 222 0 -0 -1 0
166 222 100 -0 -1 0
239 222 100 -0 -1 0
239 232 0 0 1 0
176 232 0 0 1 0
176 232 100 0 1 0
239 232 100 0 1 0
716 192 0 -1 0 0
716 227 0 -1 0 0
716 227 100 -1 0 0
716 192 100 -1 0 0
726 187 0 1 -0 0
726 232 0 1 -0 0
726 232 100 1 -0 0
726 187 100 1 -0 0
716 182 0 -0 -1 0
635 182 0 -0 -1 0
635 182 100 -0 -1 0
716 182 100 -0 -1 0
716 192 0 0 1 0
645 192 0 0 1 0
645 192 100 0 1 0
716 192 100 0 1 0
206 98 0 -0 1 0
286 98 0 -0 1 0
286 98 100 -0 1 0
206 98 100 -0 1 0
206 88 0 0 -1 0
286 88 0 0 -1 0
286 88 100 0 -1 0
206 88 100 0 -1 0
296 93 0 1 0 0
296 34 0 1 0 0
296 34 100 1 0 0
296 93 100 1 0 0
286 88 0 -1 -0 0
286 34 0 -1 -0 0
286 34 100 -1 -0 0
286 88 100 -1 -0 0
286 98 0 -1 0 0
286 182 0 -1 0 0
286 182 100 -1 0 0
286 98 100 -1 0 0
296 93 0 1 -0 0
296 182 0 1 -0 0
296 182 100 1 -0 0
296 93 100 1 -0 0
488 24 0 -0 -1 0
468 24 0 -0 -1 0
468 24 100 -0 -1 0
488 24 100 -0 -1 0
483 34 0 0 1 0
468 34 0 0 1 0
468 34 100 0 1 0
483 34 100 0 1 0
493 34 0 -0 1 0
519 34 0 -0 1 0
519 34 100 -0 1 0
493 34 100 -0 1 0
488 24 0 0 -1 0
519 24 0 0 -1 0
519 24 100 0 -1 0
488 24 100 0 -1 0
135 262 0 1 0 0
135 157 0 1 0 0
135 157 100 1 0 0
135 262 100 1 0 0
125 267 0 -1 -0 0
125 162 0 -1 -0 0
125 162 100 -1 -0 0
125 267 100 -1 -0 0
524 540 0 -0 1 0
552 540 0 -0 1 0
552 540 100 -0 1 0
524 540 100 -0 1 0
524 530 0 0 -1 0
547 530 0 0 -1 0
547 530 100 0 -1 0
524 530 100 0 -1 0
542 540 0 -0 1 0
673 540 0 -0 1 0
673 540 100 -0 1 0
542 540 100 -0 1 0
547 530 0 0 -1 0
663 530 0 0 -1 0
663 530 100 0 -1 0
547 530 100 0 -1 0
552 540 0 1 0 0
552 438 0 1 0 0
552 438 100 1 0 0
552 540 100 1 0 0
542 540 0 -1 -0 0
542 433 0 -1 -0 0
542 433 100 -1 -0 0
542 540 100 -1 -0 0
673 540 0 1 0 0
673 428 0 1 0 0
673 428 100 1 0 0
673 540 100 1 0 0
663 530 0 -1 -0 0
663 433 0 -1 -0 0
663 433 100 -1 -0 0
663 530 100 -1 -0 0
239 34 0 -0 1 0
286 34 0 -0 1 0
286 34 100 -0 1 0
239 34 100 -0 1 0
239 24 0 0 -1 0
291 24 0 0 -1 0
291 24 100 0 -1 0
239 24 100 0 -1 0
296 34 0 -0 1 0
309 34 0 -0 1 0
309 34 100 -0 1 0
296 34 100 -0 1 0
291 24 0 0 -1 0
309 24 0 0 -1 0
309 24 100 0 -1 0
291 24 100 0 -1 0
599 371 0 -1 0 0
599 438 0 -1 0 0
599 438 100 -1 0 0
599 371 100 -1 0 0
609 371 0 1 -0 0
609 433 0 1 -0 0
609 433 100 1 -0 0
609 371 100 1 -0 0
599 438 0 -1 0 0
599 510 0 -1 0 0
599 510 100 -1 0 0
599 438 100 -1 0 0
609 433 0 1 -0 0
609 510 0 1 -0 0
609 510 100 1 -0 0
609 433 100 1 -0 0
604 428 0 -0 -1 0
552 428 0 -0 -1 0
552 428 100 -0 -1 0
604 428 100 -0 -1 0
599 438 0 0 1 0
552 438 0 0 1 0
552 438 100 0 1 0
599 438 100 0 1 0
599 438 0 -0 1 0
673 438 0 -0 1 0
673 438 100 -0 1 0
599 438 100 -0 1 0
604 428 0 0 -1 0
673 428 0 0 -1 0
673 428 100 0 -1 0
604 428 100 0 -1 0
726 352 0 1 0 0
726 222 0 1 0 0
726 222 100 1 0 0
726 352 100 1 0 0
716 342 0 -1 -0 0
716 227 0 -1 -0 0
716 227 100 -1 -0 0
716 342 100 -1 -0 0
716 342 0 -0 -1 0
668 342 0 -0 -1 0
668 342 100 -0 -1 0
716 342 100 -0 -1 0
726 352 0 0 1 0
673 352 0 0 1 0
673 352 100 0 1 0
726 352 100 0 1 0
726 222 0 -0 -1 0
640 222 0 -0 -1 0
640 222 100 -0 -1 0
726 222 100 -0 -1 0
726 232 0 0 1 0
635 232 0 0 1 0
635 232 100 0 1 0
726 232 100 0 1 0
645 232 0 1 0 0
645 192 0 1 0 0
645 192 100 1 0 0
645 232 100 1 0 0
635 232 0 -1 -0 0
635 182 0 -1 -0 0
635 182 100 -1 -0 0
635 232 100 -1 -0 0
640 222 0 -0 -1 0
547 222 0 -0 -1 0
547 222 100 -0 -1 0
640 222 100 -0 -1 0
645 232 0 0 1 0
552 232 0 0 1 0
552 232 100 0 1 0
645 232 100 0 1 0
488 267 0 -0 1 0
542 267 0 -0 1 0
542 267 100 -0 1 0
488 267 100 -0 1 0
483 257 0 0 -1 0
542 257 0 0 -1 0
542 257 100 0 -1 0
483 257 100 0 -1 0
234 182 0 -1 0 0
234 209 0 -1 0 0
234 209 100 -1 0 0
234 182 100 -1 0 0
244 187 0 1 -0 0
244 219 0 1 -0 0
244 219 100 1 -0 0
244 187 100 1 -0 0
234 192 0 -0 1 0
291 192 0 -0 1 0
291 192 100 -0 1 0
234 192 100 -0 1 0
234 182 0 0 -1 0
286 182 0 0 -1 0
286 182 100 0 -1 0
234 182 100 0 -1 0
234 209 0 -0 -1 0
176 209 0 -0 -1 0
176 209 100 -0 -1 0
234 209 100 -0 -1 0
244 219 0 0 1 0
166 219 0 0 1 0
166 219 100 0 1 0
244 219 100 0 1 0
663 352 0 -1 0 0
663 433 0 -1 0 0
663 433 100 -1 0 0
663 352 100 -1 0 0
673 352 0 1 -0 0
673 438 0 1 -0 0
673 438 100 1 -0 0
673 352 100 1 -0 0
668 342 0 -0 -1 0
552 342 0 -0 -1 0
552 342 100 -0 -1 0
668 342 100 -0 -1 0
663 352 0 0 1 0
552 352 0 0 1 0
552 352 100 0 1 0
663 352 100 0 1 0
542 371 0 -1 0 0
542 433 0 -1 0 0
542 433 100 -1 0 0
542 371 100 -1 0 0
552 366 0 1 -0 0
552 428 0 1 -0 0
552 428 100 1 -0 0
552 366 100 1 -0 0
552 376 0 1 0 0
552 352 0 1 0 0
552 352 100 1 0 0
552 376 100 1 0 0
542 371 0 -1 -0 0
542 347 0 -1 -0 0
542 347 100 -1 -0 0
542 371 100 -1 -0 0
135 157 0 1 0 0
135 29 0 1 0 0
135 29 100 1 0 0
135 157 100 1 0 0
125 162 0 -1 -0 0
125 29 0 -1 -0 0
125 29 100 -1 -0 0
125 162 100 -1 -0 0
291 192 0 -0 1 0
324 192 0 -0 1 0
324 192 100 -0 1 0
291 192 100 -0 1 0
296 182 0 0 -1 0
324 182 0 0 -1 0
324 182 100 0 -1 0
296 182 100 0 -1 0
525 232 0 -0 1 0
542 232 0 -0 1 0
542 232 100 -0 1 0
525 232 100 -0 1 0
525 222 0 0 -1 0
547 222 0 0 -1 0
547 222 100 0 -1 0
525 222 100 0 -1 0
542 232 0 -1 0 0
542 257 0 -1 0 0
542 257 100 -1 0 0
542 232 100 -1 0 0
552 232 0 1 -0 0
552 262 0 1 -0 0
552 262 100 1 -0 0
552 232 100 1 -0 0
542 267 0 -1 0 0
542 347 0 -1 0 0
542 347 100 -1 0 0
542 267 100 -1 0 0
552 262 0 1 -0 0
552 342 0 1 -0 0
552 342 100 1 -0 0
552 262 100 1 -0 0
456 192 0 442.675689697265625 186.810806274414062 0
456 182 0 442.675689697265625 186.810806274414062 0
456 182 100 442.675689697265625 186.810806274414062 0
456 192 100 442.675689697265625 186.810806274414062 0
264 407 0 260.386138916015625 402.970306396484375 0
264 397 0 260.386138916015625 402.970306396484375 0
264 397 100 260.386138916015625 402.970306396484375 0
264 407 100 260.386138916015625 402.970306396484375 0
365 407 0 362.386138916015625 402.970306396484375 0
365 397 0 362.386138916015625 402.970306396484375 0
365 397 100 362.386138916015625 402.970306396484375 0
365 407 100 362.386138916015625 402.970306396484375 0
171 394 0 168.282608032226562 385.434783935546875 0
171 384 0 168.282608032226562 385.434783935546875 0
171 384 100 168.282608032226562 385.434783935546875 0
171 394 100 168.282608032226562 385.434783935546875 0
269 262 0 266.962127685546875 259.01513671875 0
259 262 0 266.962127685546875 259.01513671875 0
259 262 100 266.962127685546875 259.01513671875 0
269 262 100 266.962127685546875 259.01513671875 0
604 34 0 597.60711669921875 33.6964302062988281 0
604 24 0 597.60711669921875 33.6964302062988281 0
604 24 100 597.60711669921875 33.6964302062988281 0
604 34 100 597.60711669921875 33.6964302062988281 0
239 384 0 228.44000244140625 368.6400146484375 0
239 394 0 228.44000244140625 368.6400146484375 0
239 394 100 228.44000244140625 368.6400146484375 0
239 384 100 228.44000244140625 368.6400146484375 0
493 389 0 455.076934814453125 360.076934814453125 0
483 389 0 455.076934814453125 360.076934814453125 0
483 389 100 455.076934814453125 360.076934814453125 0
493 389 100 455.076934814453125 360.076934814453125 0
209 257 0 204.5 250.236846923828125 0
209 267 0 204.5 250.236846923828125 0
209 267 100 204.5 250.236846923828125 0
209 257 100 204.5 250.236846923828125 0
239 222 0 236.726028442382812 218.958908081054688 0
239 232 0 236.726028442382812 218.958908081054688 0
239 232 100 236.726028442382812 218.958908081054688 0
239 222 100 236.726028442382812 218.958908081054688 0
206 98 0 202.425003051757812 96.7750015258789062 0
206 88 0 202.425003051757812 96.7750015258789062 0
206 88 100 202.425003051757812 96.7750015258789062 0
206 98 100 202.425003051757812 96.7750015258789062 0
468 24 0 443.600006103515625 22.7999992370605469 0
468 34 0 443.600006103515625 22.7999992370605469 0
468 34 100 443.600006103515625 22.7999992370605469 0
468 24 100 443.600006103515625 22.7999992370605469 0
519 34 0 500.0384521484375 32.6923065185546875 0
519 24 0 500.0384521484375 32.6923065185546875 0
519 24 100 500.0384521484375 32.6923065185546875 0
519 34 100 500.0384521484375 32.6923065185546875 0
524 540 0 504.28570556640625 520.71429443359375 0
524 530 0 504.28570556640625 520.71429443359375 0
524 530 100 504.28570556640625 520.71429443359375 0
524 540 100 504.28570556640625 520.71429443359375 0
239 34 0 232.914886474609375 33.2765960693359375 0
239 24 0 232.914886474609375 33.2765960693359375 0
239 24 100 232.914886474609375 33.2765960693359375 0
239 34 100 232.914886474609375 33.2765960693359375 0
309 34 0 286.23077392578125 31.3846149444580078 0
309 24 0 286.23077392578125 31.3846149444580078 0
309 24 100 286.23077392578125 31.3846149444580078 0
309 34 100 286.23077392578125 31.3846149444580078 0
599 371 0 590.0596923828125 364.462677001953125 0
609 371 0 590.0596923828125 364.462677001953125 0
609 371 100 590.0596923828125 364.462677001953125 0
599 371 100 590.0596923828125 364.462677001953125 0
599 510 0 590.6805419921875 503.916656494140625 0
609 510 0 590.6805419921875 503.916656494140625 0
609 510 100 590.6805419921875 503.916656494140625 0
599 510 100 590.6805419921875 503.916656494140625 0
135 29 0 133.9453125 27.7734375 0
125 29 0 133.9453125 27.7734375 0
125 29 100 133.9453125 27.7734375 0
135 29 100 133.9453125 27.7734375 0
324 192 0 315.18182373046875 186.18182373046875 0
324 182 0 315.18182373046875 186.18182373046875 0
324 182 100 315.18182373046875 186.18182373046875 0
324 192 100 315.18182373046875 186.18182373046875 0
525 232 0 493.117645263671875 218.352935791015625 0
525 222 0 493.117645263671875 218.352935791015625 0
525 222 100 493.117645263671875 218.352935791015625 0
525 232 100 493.117645263671875 218.352935791015625 0
456 192 0 0 0 -1
456 182 0 0 0 -1
483 182 0 0 0 -1
493 192 0 0 0 -1
456 192 100 0 0 1
456 182 100 0 0 1
483 182 100 0 0 1
493 192 100 0 0 1
493 192 0 0 0 -1
483 182 0 0 0 -1
483 34 0 0 0 -1
493 34 0 0 0 -1
493 192 100 0 0 1
483 182 100 0 0 1
483 34 100 0 0 1
493 34 100 0 0 1
264 407 0 0 0 -1
264 397 0 0 0 -1
365 397 0 0 0 -1
365 407 0 0 0 -1
264 407 100 0 0 1
264 397 100 0 0 1
365 397 100 0 0 1
365 407 100 0 0 1
259 394 0 0 0 -1
264 384 0 0 0 -1
360 384 0 0 0 -1
370 394 0 0 0 -1
259 394 100 0 0 1
264 384 100 0 0 1
360 384 100 0 0 1
370 394 100 0 0 1
269 394 0 0 0 -1
259 394 0 0 0 -1
259 262 0 0 0 -1
269 262 0 0 0 -1
269 394 100 0 0 1
259 394 100 0 0 1
259 262 100 0 0 1
269 262 100 0 0 1
264 384 0 0 0 -1
269 394 0 0 0 -1
239 394 0 0 0 -1
239 384 0 0 0 -1
264 384 100 0 0 1
269 394 100 0 0 1
239 394 100 0 0 1
239 384 100 0 0 1
370 394 0 0 0 -1
360 384 0 0 0 -1
360 257 0 0 0 -1
370 267 0 0 0 -1
370 394 100 0 0 1
360 384 100 0 0 1
360 257 100 0 0 1
370 267 100 0 0 1
125 394 0 0 0 -1
135 384 0 0 0 -1
171 384 0 0 0 -1
171 394 0 0 0 -1
125 394 100 0 0 1
135 384 100 0 0 1
171 384 100 0 0 1
171 394 100 0 0 1
135 384 0 0 0 -1
125 394 0 0 0 -1
125 267 0 0 0 -1
135 262 0 0 0 -1
135 384 100 0 0 1
125 394 100 0 0 1
125 267 100 0 0 1
135 262 100 0 0 1
370 267 0 0 0 -1
360 257 0 0 0 -1
493 257 0 0 0 -1
488 267 0 0 0 -1
370 267 100 0 0 1
360 257 100 0 0 1
493 257 100 0 0 1
488 267 100 0 0 1
103 152 0 0 0 -1
113 162 0 0 0 -1
113 257 0 0 0 -1
103 267 0 0 0 -1
103 152 100 0 0 1
113 162 100 0 0 1
113 257 100 0 0 1
103 267 100 0 0 1
113 162 0 0 0 -1
103 152 0 0 0 -1
130 152 0 0 0 -1
125 162 0 0 0 -1
113 162 100 0 0 1
103 152 100 0 0 1
130 152 100 0 0 1
125 162 100 0 0 1
103 267 0 0 0 -1
113 257 0 0 0 -1
130 257 0 0 0 -1
125 267 0 0 0 -1
103 267 100 0 0 1
113 257 100 0 0 1
130 257 100 0 0 1
125 267 100 0 0 1
604 34 0 0 0 -1
604 24 0 0 0 -1
726 24 0 0 0 -1
716 34 0 0 0 -1
604 34 100 0 0 1
604 24 100 0 0 1
726 24 100 0 0 1
716 34 100 0 0 1
716 34 0 0 0 -1
726 24 0 0 0 -1
726 187 0 0 0 -1
716 182 0 0 0 -1
716 34 100 0 0 1
726 24 100 0 0 1
726 187 100 0 0 1
716 182 100 0 0 1
493 389 0 0 0 -1
483 389 0 0 0 -1
483 371 0 0 0 -1
493 376 0 0 0 -1
493 389 100 0 0 1
483 389 100 0 0 1
483 371 100 0 0 1
493 376 100 0 0 1
493 366 0 0 0 -1
483 371 0 0 0 -1
483 257 0 0 0 -1
493 257 0 0 0 -1
493 366 100 0 0 1
483 371 100 0 0 1
483 257 100 0 0 1
493 257 100 0 0 1
493 376 0 0 0 -1
493 366 0 0 0 -1
552 366 0 0 0 -1
552 376 0 0 0 -1
493 376 100 0 0 1
493 366 100 0 0 1
552 366 100 0 0 1
552 376 100 0 0 1
209 257 0 0 0 -1
209 267 0 0 0 -1
166 267 0 0 0 -1
171 257 0 0 0 -1
209 257 100 0 0 1
209 267 100 0 0 1
166 267 100 0 0 1
171 257 100 0 0 1
176 267 0 0 0 -1
166 267 0 0 0 -1
166 222 0 0 0 -1
176 232 0 0 0 -1
176 267 100 0 0 1
166 267 100 0 0 1
166 222 100 0 0 1
176 232 100 0 0 1
171 257 0 0 0 -1
176 267 0 0 0 -1
125 267 0 0 0 -1
130 257 0 0 0 -1
171 257 100 0 0 1
176 267 100 0 0 1
125 267 100 0 0 1
130 257 100 0 0 1
244 152 0 0 0 -1
234 162 0 0 0 -1
171 162 0 0 0 -1
166 152 0 0 0 -1
244 152 100 0 0 1
234 162 100 0 0 1
171 162 100 0 0 1
166 152 100 0 0 1
234 162 0 0 0 -1
244 152 0 0 0 -1
244 187 0 0 0 -1
234 192 0 0 0 -1
234 162 100 0 0 1
244 152 100 0 0 1
244 187 100 0 0 1
234 192 100 0 0 1
176 152 0 0 0 -1
171 162 0 0 0 -1
125 162 0 0 0 -1
130 152 0 0 0 -1
176 152 100 0 0 1
171 162 100 0 0 1
125 162 100 0 0 1
130 152 100 0 0 1
166 152 0 0 0 -1
176 152 0 0 0 -1
176 209 0 0 0 -1
166 219 0 0 0 -1
166 152 100 0 0 1
176 152 100 0 0 1
176 209 100 0 0 1
166 219 100 0 0 1
239 222 0 0 0 -1
239 232 0 0 0 -1
176 232 0 0 0 -1
166 222 0 0 0 -1
239 222 100 0 0 1
239 232 100 0 0 1
176 232 100 0 0 1
166 222 100 0 0 1
716 192 0 0 0 -1
726 187 0 0 0 -1
726 232 0 0 0 -1
716 227 0 0 0 -1
716 192 100 0 0 1
726 187 100 0 0 1
726 232 100 0 0 1
716 227 100 0 0 1
716 182 0 0 0 -1
716 192 0 0 0 -1
645 192 0 0 0 -1
635 182 0 0 0 -1
716 182 100 0 0 1
716 192 100 0 0 1
645 192 100 0 0 1
635 182 100 0 0 1
206 98 0 0 0 -1
206 88 0 0 0 -1
286 88 0 0 0 -1
286 98 0 0 0 -1
206 98 100 0 0 1
206 88 100 0 0 1
286 88 100 0 0 1
286 98 100 0 0 1
296 93 0 0 0 -1
286 88 0 0 0 -1
286 34 0 0 0 -1
296 34 0 0 0 -1
296 93 100 0 0 1
286 88 100 0 0 1
286 34 100 0 0 1
296 34 100 0 0 1
286 98 0 0 0 -1
296 93 0 0 0 -1
296 182 0 0 0 -1
286 182 0 0 0 -1
286 98 100 0 0 1
296 93 100 0 0 1
296 182 100 0 0 1
286 182 100 0 0 1
488 24 0 0 0 -1
483 34 0 0 0 -1
468 34 0 0 0 -1
468 24 0 0 0 -1
488 24 100 0 0 1
483 34 100 0 0 1
468 34 100 0 0 1
468 24 100 0 0 1
493 34 0 0 0 -1
488 24 0 0 0 -1
519 24 0 0 0 -1
519 34 0 0 0 -1
493 34 100 0 0 1
488 24 100 0 0 1
519 24 100 0 0 1
519 34 100 0 0 1
135 262 0 0 0 -1
125 267 0 0 0 -1
125 162 0 0 0 -1
135 157 0 0 0 -1
135 262 100 0 0 1
125 267 100 0 0 1
125 162 100 0 0 1
135 157 100 0 0 1
524 540 0 0 0 -1
524 530 0 0 0 -1
547 530 0 0 0 -1
552 540 0 0 0 -1
524 540 100 0 0 1
524 530 100 0 0 1
547 530 100 0 0 1
552 540 100 0 0 1
542 540 0 0 0 -1
547 530 0 0 0 -1
663 530 0 0 0 -1
673 540 0 0 0 -1
542 540 100 0 0 1
547 530 100 0 0 1
663 530 100 0 0 1
673 540 100 0 0 1
552 540 0 0 0 -1
542 540 0 0 0 -1
542 433 0 0 0 -1
552 438 0 0 0 -1
552 540 100 0 0 1
542 540 100 0 0 1
542 433 100 0 0 1
552 438 100 0 0 1
673 540 0 0 0 -1
663 530 0 0 0 -1
663 433 0 0 0 -1
673 428 0 0 0 -1
673 540 100 0 0 1
663 530 100 0 0 1
663 433 100 0 0 1
673 428 100 0 0 1
239 34 0 0 0 -1
239 24 0 0 0 -1
291 24 0 0 0 -1
286 34 0 0 0 -1
239 34 100 0 0 1
239 24 100 0 0 1
291 24 100 0 0 1
286 34 100 0 0 1
296 34 0 0 0 -1
291 24 0 0 0 -1
309 24 0 0 0 -1
309 34 0 0 0 -1
296 34 100 0 0 1
291 24 100 0 0 1
309 24 100 0 0 1
309 34 100 0 0 1
599 371 0 0 0 -1
609 371 0 0 0 -1
609 433 0 0 0 -1
599 438 0 0 0 -1
599 371 100 0 0 1
609 371 100 0 0 1
609 433 100 0 0 1
599 438 100 0 0 1
599 438 0 0 0 -1
609 433 0 0 0 -1
609 510 0 0 0 -1
599 510 0 0 0 -1
599 438 100 0 0 1
609 433 100 0 0 1
609 510 100 0 0 1
599 510 100 0 0 1
604 428 0 0 0 -1
599 438 0 0 0 -1
552 438 0 0 0 -1
552 428 0 0 0 -1
604 428 100 0 0 1
599 438 100 0 0 1
552 438 100 0 0 1
552 428 100 0 0 1
599 438 0 0 0 -1
604 428 0 0 0 -1
673 428 0 0 0 -1
673 438 0 0 0 -1
599 438 100 0 0 1
604 428 100 0 0 1
673 428 100 0 0 1
673 438 100 0 0 1
726 352 0 0 0 -1
716 342 0 0 0 -1
716 227 0 0 0 -1
726 222 0 0 0 -1
726 352 100 0 0 1
716 342 100 0 0 1
716 227 100 0 0 1
726 222 100 0 0 1
716 342 0 0 0 -1
726 352 0 0 0 -1
673 352 0 0 0 -1
668 342 0 0 0 -1
716 342 100 0 0 1
726 352 100 0 0 1
673 352 100 0 0 1
668 342 100 0 0 1
726 222 0 0 0 -1
726 232 0 0 0 -1
635 232 0 0 0 -1
640 222 0 0 0 -1
726 222 100 0 0 1
726 232 100 0 0 1
635 232 100 0 0 1
640 222 100 0 0 1
645 232 0 0 0 -1
635 232 0 0 0 -1
635 182 0 0 0 -1
645 192 0 0 0 -1
645 232 100 0 0 1
635 232 100 0 0 1
635 182 100 0 0 1
645 192 100 0 0 1
640 222 0 0 0 -1
645 232 0 0 0 -1
552 232 0 0 0 -1
547 222 0 0 0 -1
640 222 100 0 0 1
645 232 100 0 0 1
552 232 100 0 0 1
547 222 100 0 0 1
488 267 0 0 0 -1
483 257 0 0 0 -1
542 257 0 0 0 -1
542 267 0 0 0 -1
488 267 100 0 0 1
483 257 100 0 0 1
542 257 100 0 0 1
542 267 100 0 0 1
234 182 0 0 0 -1
244 187 0 0 0 -1
244 219 0 0 0 -1
234 209 0 0 0 -1
234 182 100 0 0 1
244 187 100 0 0 1
244 219 100 0 0 1
234 209 100 0 0 1
234 192 0 0 0 -1
234 182 0 0 0 -1
286 182 0 0 0 -1
291 192 0 0 0 -1
234 192 100 0 0 1
234 182 100 0 0 1
286 182 100 0 0 1
291 192 100 0 0 1
234 209 0 0 0 -1
244 219 0 0 0 -1
166 219 0 0 0 -1
176 209 0 0 0 -1
234 209 100 0 0 1
244 219 100 0 0 1
166 219 100 0 0 1
176 209 100 0 0 1
663 352 0 0 0 -1
673 352 0 0 0 -1
673 438 0 0 0 -1
663 433 0 0 0 -1
663 352 100 0 0 1
673 352 100 0 0 1
673 438 100 0 0 1
663 433 100 0 0 1
668 342 0 0 0 -1
663 352 0 0 0 -1
552 352 0 0 0 -1
552 342 0 0 0 -1
668 342 100 0 0 1
663 352 100 0 0 1
552 352 100 0 0 1
552 342 100 0 0 1
542 371 0 0 0 -1
552 366 0 0 0 -1
552 428 0 0 0 -1
542 433 0 0 0 -1
542 371 100 0 0 1
552 366 100 0 0 1
552 428 100 0 0 1
542 433 100 0 0 1
552 376 0 0 0 -1
542 371 0 0 0 -1
542 347 0 0 0 -1
552 352 0 0 0 -1
552 376 100 0 0 1
542 371 100 0 0 1
542 347 100 0 0 1
552 352 100 0 0 1
135 157 0 0 0 -1
125 162 0 0 0 -1
125 29 0 0 0 -1
135 29 0 0 0 -1
135 157 100 0 0 1
125 162 100 0 0 1
125 29 100 0 0 1
135 29 100 0 0 1
291 192 0 0 0 -1
296 182 0 0 0 -1
324 182 0 0 0 -1
324 192 0 0 0 -1
291 192 100 0 0 1
296 182 100 0 0 1
324 182 100 0 0 1
324 192 100 0 0 1
525 232 0 0 0 -1
525 222 0 0 0 -1
547 222 0 0 0 -1
542 232 0 0 0 -1
525 232 100 0 0 1
525 222 100 0 0 1
547 222 100 0 0 1
542 232 100 0 0 1
542 232 0 0 0 -1
552 232 0 0 0 -1
552 262 0 0 0 -1
542 257 0 0 0 -1
542 232 100 0 0 1
552 232 100 0 0 1
552 262 100 0 0 1
542 257 100 0 0 1
542 267 0 0 0 -1
552 262 0 0 0 -1
552 342 0 0 0 -1
542 347 0 0 0 -1
542 267 100 0 0 1
552 262 100 0 0 1
552 342 100 0 0 1
542 347 100 0 0 1
259 394 0 0 0 -1
269 394 0 0 0 -1
264 384 0 0 0 -1
259 394 100 0 0 1
269 394 100 0 0 1
264 384 100 0 0 1
483 371 0 0 0 -1
493 366 0 0 0 -1
493 376 0 0 0 -1
483 371 100 0 0 1
493 366 100 0 0 1
493 376 100 0 0 1
166 267 0 0 0 -1
176 267 0 0 0 -1
171 257 0 0 0 -1
166 267 100 0 0 1
176 267 100 0 0 1
171 257 100 0 0 1
171 162 0 0 0 -1
176 152 0 0 0 -1
166 152 0 0 0 -1
171 162 100 0 0 1
176 152 100 0 0 1
166 152 100 0 0 1
726 187 0 0 0 -1
716 192 0 0 0 -1
716 182 0 0 0 -1
726 187 100 0 0 1
716 192 100 0 0 1
716 182 100 0 0 1
286 88 0 0 0 -1
296 93 0 0 0 -1
286 98 0 0 0 -1
286 88 100 0 0 1
296 93 100 0 0 1
286 98 100 0 0 1
483 34 0 0 0 -1
488 24 0 0 0 -1
493 34 0 0 0 -1
483 34 100 0 0 1
488 24 100 0 0 1
493 34 100 0 0 1
125 267 0 0 0 -1
130 257 0 0 0 -1
125 267 0 0 0 -1
135 262 0 0 0 -1
125 267 100 0 0 1
130 257 100 0 0 1
125 267 100 0 0 1
135 262 100 0 0 1
547 530 0 0 0 -1
542 540 0 0 0 -1
552 540 0 0 0 -1
547 530 100 0 0 1
542 540 100 0 0 1
552 540 100 0 0 1
291 24 0 0 0 -1
296 34 0 0 0 -1
286 34 0 0 0 -1
291 24 100 0 0 1
296 34 100 0 0 1
286 34 100 0 0 1
609 433 0 0 0 -1
599 438 0 0 0 -1
604 428 0 0 0 -1
599 438 0 0 0 -1
609 433 100 0 0 1
599 438 100 0 0 1
604 428 100 0 0 1
599 438 100 0 0 1
716 227 0 0 0 -1
726 232 0 0 0 -1
726 222 0 0 0 -1
716 227 100 0 0 1
726 232 100 0 0 1
726 222 100 0 0 1
635 232 0 0 0 -1
645 232 0 0 0 -1
640 222 0 0 0 -1
635 232 100 0 0 1
645 232 100 0 0 1
640 222 100 0 0 1
493 257 0 0 0 -1
483 257 0 0 0 -1
488 267 0 0 0 -1
493 257 100 0 0 1
483 257 100 0 0 1
488 267 100 0 0 1
244 187 0 0 0 -1
234 182 0 0 0 -1
234 192 0 0 0 -1
244 187 100 0 0 1
234 182 100 0 0 1
234 192 100 0 0 1
673 352 0 0 0 -1
663 352 0 0 0 -1
668 342 0 0 0 -1
673 352 100 0 0 1
663 352 100 0 0 1
668 342 100 0 0 1
552 366 0 0 0 -1
542 371 0 0 0 -1
552 376 0 0 0 -1
552 366 100 0 0 1
542 371 100 0 0 1
552 376 100 0 0 1
130 152 0 0 0 -1
125 162 0 0 0 -1
135 157 0 0 0 -1
125 162 0 0 0 -1
130 152 100 0 0 1
125 162 100 0 0 1
135 157 100 0 0 1
125 162 100 0 0 1
296 182 0 0 0 -1
291 192 0 0 0 -1
286 182 0 0 0 -1
296 182 100 0 0 1
291 192 100 0 0 1
286 182 100 0 0 1
552 438 0 0 0 -1
542 433 0 0 0 -1
552 428 0 0 0 -1
552 438 100 0 0 1
542 433 100 0 0 1
552 428 100 0 0 1
673 428 0 0 0 -1
663 433 0 0 0 -1
673 438 0 0 0 -1
673 428 100 0 0 1
663 433 100 0 0 1
673 438 100 0 0 1
547 222 0 0 0 -1
552 232 0 0 0 -1
542 232 0 0 0 -1
547 222 100 0 0 1
552 232 100 0 0 1
542 232 100 0 0 1
542 257 0 0 0 -1
552 262 0 0 0 -1
542 267 0 0 0 -1
542 257 100 0 0 1
552 262 100 0 0 1
542 267 100 0 0 1
552 352 0 0 0 -1
542 347 0 0 0 -1
552 342 0 0 0 -1
552 352 100 0 0 1
542 347 100 0 0 1
552 342 100 0 0 1
4 0 1 2 3
4 4 5 6 7
4 8 9 10 11
4 12 13 14 15
4 16 17 18 19
4 20 21 22 23
4 24 25 26 27
4 28 29 30 31
4 32 33 34 35
4 36 37 38 39
4 40 41 42 43
4 44 45 46 47
4 48 49 50 51
4 52 53 54 55
4 56 57 58 59
4 60 61 62 63
4 64 65 66 67
4 68 69 70 71
4 72 73 74 75
4 76 77 78 79
4 80 81 82 83
4 84 85 86 87
4 88 89 90 91
4 92 93 94 95
4 96 97 98 99
4 100 101 102 103
4 104 105 106 107
4 108 109 110 111
4 112 113 114 115
4 116 117 118 119
4 120 121 122 123
4 124 125 126 127
4 128 129 130 131
4 132 133 134 135
4 136 137 138 139
4 140 141 142 143
4 144 145 146 147
4 148 149 150 151
4 152 153 154 155
4 156 157 158 159
4 160 161 162 163
4 164 165 166 167
4 168 169 170 171
4 172 173 174 175
4 176 177 178 179
4 180 181 182 183
4 184 185 186 187
4 188 189 190 191
4 192 193 194 195
4 196 197 198 199
4 200 201 202 203
4 204 205 206 207
4 208 209 210 211
4 212 213 214 215
4 216 217 218 219
4 220 221 222 223
4 224 225 226 227
4 228 229 230 231
4 232 233 234 235
4 236 237 238 239
4 240 241 242 243
4 244 245 246 247
4 248 249 250 251
4 252 253 254 255
4 256 257 258 259
4 260 261 262 263
4 264 265 266 267
4 268 269 270 271
4 272 273 274 275
4 276 277 278 279
4 280 281 282 283
4 284 285 286 287
4 288 289 290 291
4 292 293 294 295
4 296 297 298 299
4 300 301 302 303
4 304 305 306 307
4 308 309 310 311
4 312 313 314 315
4 316 317 318 319
4 320 321 322 323
4 324 325 326 327
4 328 329 330 331
4 332 333 334 335
4 336 337 338 339
4 340 341 342 343
4 344 345 346 347
4 348 349 350 351
4 352 353 354 355
4 356 357 358 359
4 360 361 362 363
4 364 365 366 367
4 368 369 370 371
4 372 373 374 375
4 376 377 378 379
4 380 381 382 383
4 384 385 386 387
4 388 389 390 391
4 392 393 394 395
4 396 397 398 399
4 400 401 402 403
4 404 405 406 407
4 408 409 410 411
4 412 413 414 415
4 416 417 418 419
4 420 421 422 423
4 424 425 426 427
4 428 429 430 431
4 432 433 434 435
4 436 437 438 439
4 440 441 442 443
4 444 445 446 447
4 448 449 450 451
4 452 453 454 455
4 456 457 458 459
4 460 461 462 463
4 464 465 466 467
4 468 469 470 471
4 472 473 474 475
4 476 477 478 479
4 480 481 482 483
4 484 485 486 487
4 488 489 490 491
4 492 493 494 495
4 496 497 498 499
4 500 501 502 503
4 504 505 506 507
4 508 509 510 511
4 512 513 514 515
4 516 517 518 519
4 520 521 522 523
4 524 525 526 527
4 528 529 530 531
4 532 533 534 535
4 536 537 538 539
4 540 541 542 543
4 544 545 546 547
4 548 549 550 551
4 552 553 554 555
4 556 557 558 559
4 560 561 562 563
4 564 565 566 567
4 568 569 570 571
4 572 573 574 575
4 576 577 578 579
4 580 581 582 583
4 584 585 586 587
4 588 589 590 591
4 592 593 594 595
4 596 597 598 599
4 600 601 602 603
4 604 605 606 607
4 608 609 610 611
4 612 613 614 615
4 616 617 618 619
4 620 621 622 623
4 624 625 626 627
4 628 629 630 631
4 632 633 634 635
4 636 637 638 639
4 640 641 642 643
4 644 645 646 647
4 648 649 650 651
4 652 653 654 655
4 656 657 658 659
4 660 661 662 663
4 664 665 666 667
4 668 669 670 671
4 672 673 674 675
4 676 677 678 679
4 680 681 682 683
4 684 685 686 687
4 688 689 690 691
4 692 693 694 695
4 696 697 698 699
4 700 701 702 703
4 704 705 706 707
4 708 709 710 711
4 712 713 714 715
4 716 717 718 719
4 720 721 722 723
4 724 725 726 727
4 728 729 730 731
4 732 733 734 735
4 736 737 738 739
4 740 741 742 743
4 744 745 746 747
4 748 749 750 751
4 752 753 754 755
4 756 757 758 759
4 760 761 762 763
4 764 765 766 767
4 768 769 770 771
4 772 773 774 775
4 776 777 778 779
4 780 781 782 783
4 784 785 786 787
4 788 789 790 791
4 792 793 794 795
4 796 797 798 799
4 800 801 802 803
4 804 805 806 807
4 808 809 810 811
4 812 813 814 815
4 816 817 818 819
4 820 821 822 823
4 824 825 826 827
4 828 829 830 831
4 832 833 834 835
4 836 837 838 839
4 840 841 842 843
4 844 845 846 847
4 848 849 850 851
4 852 853 854 855
4 856 857 858 859
4 860 861 862 863
4 864 865 866 867
4 868 869 870 871
4 872 873 874 875
4 876 877 878 879
4 880 881 882 883
4 884 885 886 887
4 888 889 890 891
4 892 893 894 895
4 896 897 898 899
4 900 901 902 903
4 904 905 906 907
4 908 909 910 911
4 912 913 914 915
4 916 917 918 919
4 920 921 922 923
4 924 925 926 927
4 928 929 930 931
4 932 933 934 935
4 936 937 938 939
4 940 941 942 943
4 944 945 946 947
4 948 949 950 951
4 952 953 954 955
4 956 957 958 959
4 960 961 962 963
4 964 965 966 967
4 968 969 970 971
4 972 973 974 975
4 976 977 978 979
4 980 981 982 983
4 984 985 986 987
4 988 989 990 991
4 992 993 994 995
4 996 997 998 999
4 1000 1001 1002 1003
4 1004 1005 1006 1007
4 1008 1009 1010 1011
4 1012 1013 1014 1015
4 1016 1017 1018 1019
4 1020 1021 1022 1023
4 1024 1025 1026 1027
4 1028 1029 1030 1031
4 1032 1033 1034 1035
4 1036 1037 1038 1039
4 1040 1041 1042 1043
4 1044 1045 1046 1047
4 1048 1049 1050 1051
4 1052 1053 1054 1055
4 1056 1057 1058 1059
4 1060 1061 1062 1063
4 1064 1065 1066 1067
4 1068 1069 1070 1071
4 1072 1073 1074 1075
3 1076 1077 1078
3 1079 1080 1081
3 1082 1083 1084
3 1085 1086 1087
3 1088 1089 1090
3 1091 1092 1093
3 1094 1095 1096
3 1097 1098 1099
3 1100 1101 1102
3 1103 1104 1105
3 1106 1107 1108
3 1109 1110 1111
3 1112 1113 1114
3 1115 1116 1117
3 1118 1119 1120
3 1119 1120 1121
3 1122 1123 1124
3 1123 1124 1125
3 1126 1127 1128
3 1129 1130 1131
3 1132 1133 1134
3 1135 1136 1137
3 1138 1139 1140
3 1139 1140 1141
3 1142 1143 1144
3 1143 1144 1145
3 1146 1147 1148
3 1149 1150 1151
3 1152 1153 1154
3 1155 1156 1157
3 1158 1159 1160
3 1161 1162 1163
3 1164 1165 1166
3 1167 1168 1169
3 1170 1171 1172
3 1173 1174 1175
3 1176 1177 1178
3 1179 1180 1181
3 1182 1183 1184
3 1183 1184 1185
3 1186 1187 1188
3 1187 1188 1189
3 1190 1191 1192
3 1193 1194 1195
3 1196 1197 1198
3 1199 1200 1201
3 1202 1203 1204
3 1205 1206 1207
3 1208 1209 1210
3 1211 1212 1213
3 1214 1215 1216
3 1217 1218 1219
3 1220 1221 1222
3 1223 1224 1225
