ply
format ascii 1.0
element vertex 306
property float x
property float y
property float z
property float nx
property float ny
property float nz
element quads 75
property list uchar int vertex_indices
element triads 2
property list uchar int vertex_indices
end_header
256 417 0 1 0 0
256 389 0 1 0 0
256 389 100 1 0 0
256 417 100 1 0 0
246 427 0 -1 -0 0
246 389 0 -1 -0 0
246 389 100 -1 -0 0
246 427 100 -1 -0 0
246 427 0 -0 1 0
347 427 0 -0 1 0
347 427 100 -0 1 0
246 427 100 -0 1 0
256 417 0 0 -1 0
337 417 0 0 -1 0
337 417 100 0 -1 0
256 417 100 0 -1 0
533 324 0 1 0 0
533 259 0 1 0 0
533 259 100 1 0 0
533 324 100 1 0 0
523 324 0 -1 -0 0
523 259 0 -1 -0 0
523 259 100 -1 -0 0
523 324 100 -1 -0 0
491 326 0 1 0 0
491 230 0 1 0 0
491 230 100 1 0 0
491 326 100 1 0 0
481 326 0 -1 -0 0
481 230 0 -1 -0 0
481 230 100 -1 -0 0
481 326 100 -1 -0 0
486 548 0 -0 1 0
550 548 0 -0 1 0
550 548 100 -0 1 0
486 548 100 -0 1 0
486 538 0 0 -1 0
550 538 0 0 -1 0
550 538 100 0 -1 0
486 538 100 0 -1 0
481 422 0 -1 0 0
481 535 0 -1 0 0
481 535 100 -1 0 0
481 422 100 -1 0 0
491 422 0 1 -0 0
491 525 0 1 -0 0
491 525 100 1 -0 0
491 422 100 1 -0 0
481 535 0 -0 1 0
648 535 0 -0 1 0
648 535 100 -0 1 0
481 535 100 -0 1 0
491 525 0 0 -1 0
648 525 0 0 -1 0
648 525 100 0 -1 0
491 525 100 0 -1 0
168 172 0 -1 0 0
168 422 0 -1 0 0
168 422 100 -1 0 0
168 172 100 -1 0 0
178 172 0 1 -0 0
178 422 0 1 -0 0
178 422 100 1 -0 0
178 172 100 1 -0 0
347 427 0 1 0 0
347 401 0 1 0 0
347 401 100 1 0 0
347 427 100 1 0 0
337 417 0 -1 -0 0
337 401 0 -1 -0 0
337 401 100 -1 -0 0
337 417 100 -1 -0 0
643 14 0 -1 0 0
643 357 0 -1 0 0
643 357 100 -1 0 0
643 14 100 -1 0 0
653 14 0 1 -0 0
653 357 0 1 -0 0
653 357 100 1 -0 0
653 14 100 1 -0 0
395 259 0 -1 0 0
395 341 0 -1 0 0
395 341 100 -1 0 0
395 259 100 -1 0 0
405 259 0 1 -0 0
405 341 0 1 -0 0
405 341 100 1 -0 0
405 259 100 1 -0 0
173 103 0 -0 1 0
276 103 0 -0 1 0
276 103 100 -0 1 0
173 103 100 -0 1 0
173 93 0 0 -1 0
276 93 0 0 -1 0
276 93 100 0 -1 0
173 93 100 0 -1 0
286 98 0 1 0 0
286 59 0 1 0 0
286 59 100 1 0 0
286 98 100 1 0 0
276 93 0 -1 -0 0
276 59 0 -1 -0 0
276 59 100 -1 -0 0
276 93 100 -1 -0 0
276 103 0 -1 0 0
276 332 0 -1 0 0
276 332 100 -1 0 0
276 103 100 -1 0 0
286 98 0 1 -0 0
286 332 0 1 -0 0
286 332 100 1 -0 0
286 98 100 1 -0 0
256 389 0 246.857147216796875 374.107147216796875 0
246 389 0 246.857147216796875 374.107147216796875 0
246 389 100 246.857147216796875 374.107147216796875 0
256 389 100 246.857147216796875 374.107147216796875 0
533 324 0 524.79998779296875 320.015380859375 0
523 324 0 524.79998779296875 320.015380859375 0
523 324 100 524.79998779296875 320.015380859375 0
533 324 100 524.79998779296875 320.015380859375 0
533 259 0 524.79998779296875 254.015380859375 0
523 259 0 524.79998779296875 254.015380859375 0
523 259 100 524.79998779296875 254.015380859375 0
533 259 100 524.79998779296875 254.015380859375 0
491 326 0 485.885406494140625 323.604156494140625 0
481 326 0 485.885406494140625 323.604156494140625 0
481 326 100 485.885406494140625 323.604156494140625 0
491 326 100 485.885406494140625 323.604156494140625 0
491 230 0 485.885406494140625 226.604171752929688 0
481 230 0 485.885406494140625 226.604171752929688 0
481 230 100 485.885406494140625 226.604171752929688 0
491 230 100 485.885406494140625 226.604171752929688 0
486 548 0 477.40625 539.4375 0
486 538 0 477.40625 539.4375 0
486 538 100 477.40625 539.4375 0
486 548 100 477.40625 539.4375 0
550 548 0 542.40625 539.4375 0
550 538 0 542.40625 539.4375 0
550 538 100 542.40625 539.4375 0
550 548 100 542.40625 539.4375 0
481 422 0 476.743377685546875 417.265472412109375 0
491 422 0 476.743377685546875 417.265472412109375 0
491 422 100 476.743377685546875 417.265472412109375 0
481 422 100 476.743377685546875 417.265472412109375 0
168 172 0 167.3280029296875 170.311996459960938 0
178 172 0 167.3280029296875 170.311996459960938 0
178 172 100 167.3280029296875 170.311996459960938 0
168 172 100 167.3280029296875 170.311996459960938 0
168 422 0 167.3280029296875 421.31201171875 0
178 422 0 167.3280029296875 421.31201171875 0
178 422 100 167.3280029296875 421.31201171875 0
168 422 100 167.3280029296875 421.31201171875 0
347 401 0 333.653839111328125 384.576934814453125 0
337 401 0 333.653839111328125 384.576934814453125 0
337 401 100 333.653839111328125 384.576934814453125 0
347 401 100 333.653839111328125 384.576934814453125 0
648 535 0 645.1197509765625 531.79638671875 0
648 525 0 645.1197509765625 531.79638671875 0
648 525 100 645.1197509765625 531.79638671875 0
648 535 100 645.1197509765625 531.79638671875 0
643 14 0 641.1253662109375 12.9591836929321289 0
653 14 0 641.1253662109375 12.9591836929321289 0
653 14 100 641.1253662109375 12.9591836929321289 0
643 14 100 641.1253662109375 12.9591836929321289 0
643 357 0 641.1253662109375 356.959197998046875 0
653 357 0 641.1253662109375 356.959197998046875 0
653 357 100 641.1253662109375 356.959197998046875 0
643 357 100 641.1253662109375 356.959197998046875 0
395 259 0 390.18292236328125 254.841461181640625 0
405 259 0 390.18292236328125 254.841461181640625 0
405 259 100 390.18292236328125 254.841461181640625 0
395 259 100 390.18292236328125 254.841461181640625 0
395 341 0 390.18292236328125 337.841461181640625 0
405 341 0 390.18292236328125 337.841461181640625 0
405 341 100 390.18292236328125 337.841461181640625 0
395 341 100 390.18292236328125 337.841461181640625 0
173 103 0 170.320388793945312 102 0
173 93 0 170.320388793945312 102 0
173 93 100 170.320388793945312 102 0
173 103 100 170.320388793945312 102 0
286 59 0 278.666656494140625 56.4871788024902344 0
276 59 0 278.666656494140625 56.4871788024902344 0
276 59 100 278.666656494140625 56.4871788024902344 0
286 59 100 278.666656494140625 56.4871788024902344 0
276 332 0 274.794769287109375 331.55023193359375 0
286 332 0 274.794769287109375 331.55023193359375 0
286 332 100 274.794769287109375 331.55023193359375 0
276 332 100 274.794769287109375 331.55023193359375 0
256 417 0 0 0 -1
246 427 0 0 0 -1
246 389 0 0 0 -1
256 389 0 0 0 -1
256 417 100 0 0 1
246 427 100 0 0 1
246 389 100 0 0 1
256 389 100 0 0 1
246 427 0 0 0 -1
256 417 0 0 0 -1
337 417 0 0 0 -1
347 427 0 0 0 -1
246 427 100 0 0 1
256 417 100 0 0 1
337 417 100 0 0 1
347 427 100 0 0 1
533 324 0 0 0 -1
523 324 0 0 0 -1
523 259 0 0 0 -1
533 259 0 0 0 -1
533 324 100 0 0 1
523 324 100 0 0 1
523 259 100 0 0 1
533 259 100 0 0 1
491 326 0 0 0 -1
481 326 0 0 0 -1
481 230 0 0 0 -1
491 230 0 0 0 -1
491 326 100 0 0 1
481 326 100 0 0 1
481 230 100 0 0 1
491 230 100 0 0 1
486 548 0 0 0 -1
486 538 0 0 0 -1
550 538 0 0 0 -1
550 548 0 0 0 -1
486 548 100 0 0 1
486 538 100 0 0 1
550 538 100 0 0 1
550 548 100 0 0 1
481 422 0 0 0 -1
491 422 0 0 0 -1
491 525 0 0 0 -1
481 535 0 0 0 -1
481 422 100 0 0 1
491 422 100 0 0 1
491 525 100 0 0 1
481 535 100 0 0 1
481 535 0 0 0 -1
491 525 0 0 0 -1
648 525 0 0 0 -1
648 535 0 0 0 -1
481 535 100 0 0 1
491 525 100 0 0 1
648 525 100 0 0 1
648 535 100 0 0 1
168 172 0 0 0 -1
178 172 0 0 0 -1
178 422 0 0 0 -1
168 422 0 0 0 -1
168 172 100 0 0 1
178 172 100 0 0 1
178 422 100 0 0 1
168 422 100 0 0 1
347 427 0 0 0 -1
337 417 0 0 0 -1
337 401 0 0 0 -1
347 401 0 0 0 -1
347 427 100 0 0 1
337 417 100 0 0 1
337 401 100 0 0 1
347 401 100 0 0 1
643 14 0 0 0 -1
653 14 0 0 0 -1
653 357 0 0 0 -1
643 357 0 0 0 -1
643 14 100 0 0 1
653 14 100 0 0 1
653 357 100 0 0 1
643 357 100 0 0 1
395 259 0 0 0 -1
405 259 0 0 0 -1
405 341 0 0 0 -1
395 341 0 0 0 -1
395 259 100 0 0 1
405 259 100 0 0 1
405 341 100 0 0 1
395 341 100 0 0 1
173 103 0 0 0 -1
173 93 0 0 0 -1
276 93 0 0 0 -1
276 103 0 0 0 -1
173 103 100 0 0 1
173 93 100 0 0 1
276 93 100 0 0 1
276 103 100 0 0 1
286 98 0 0 0 -1
276 93 0 0 0 -1
276 59 0 0 0 -1
286 59 0 0 0 -1
286 98 100 0 0 1
276 93 100 0 0 1
276 59 100 0 0 1
286 59 100 0 0 1
276 103 0 0 0 -1
286 98 0 0 0 -1
286 332 0 0 0 -1
276 332 0 0 0 -1
276 103 100 0 0 1
286 98 100 0 0 1
286 332 100 0 0 1
276 332 100 0 0 1
276 93 0 0 0 -1
286 98 0 0 0 -1
276 103 0 0 0 -1
276 93 100 0 0 1
286 98 100 0 0 1
276 103 100 0 0 1
4 0 1 2 3
4 4 5 6 7
4 8 9 10 11
4 12 13 14 15
4 16 17 18 19
4 20 21 22 23
4 24 25 26 27
4 28 29 30 31
4 32 33 34 35
4 36 37 38 39
4 40 41 42 43
4 44 45 46 47
4 48 49 50 51
4 52 53 54 55
4 56 57 58 59
4 60 61 62 63
4 64 65 66 67
4 68 69 70 71
4 72 73 74 75
4 76 77 78 79
4 80 81 82 83
4 84 85 86 87
4 88 89 90 91
4 92 93 94 95
4 96 97 98 99
4 100 101 102 103
4 104 105 106 107
4 108 109 110 111
4 112 113 114 115
4 116 117 118 119
4 120 121 122 123
4 124 125 126 127
4 128 129 130 131
4 132 133 134 135
4 136 137 138 139
4 140 141 142 143
4 144 145 146 147
4 148 149 150 151
4 152 153 154 155
4 156 157 158 159
4 160 161 162 163
4 164 165 166 167
4 168 169 170 171
4 172 173 174 175
4 176 177 178 179
4 180 181 182 183
4 184 185 186 187
4 188 189 190 191
4 192 193 194 195
4 196 197 198 199
4 200 201 202 203
4 204 205 206 207
4 208 209 210 211
4 212 213 214 215
4 216 217 218 219
4 220 221 222 223
4 224 225 226 227
4 228 229 230 231
4 232 233 234 235
4 236 237 238 239
4 240 241 242 243
4 244 245 246 247
4 248 249 250 251
4 252 253 254 255
4 256 257 258 259
4 260 261 262 263
4 264 265 266 267
4 268 269 270 271
4 272 273 274 275
4 276 277 278 279
4 280 281 282 283
4 284 285 286 287
4 288 289 290 291
4 292 293 294 295
4 296 297 298 299
3 300 301 302
3 303 304 305
