ply
format ascii 1.0
element vertex 504
property float x
property float y
property float z
property float nx
property float ny
property float nz
element quads 120
property list uchar int vertex_indices
element triads 8
property list uchar int vertex_indices
end_header
336 542 0 1 0 0
336 515 0 1 0 0
336 515 100 1 0 0
336 542 100 1 0 0
326 542 0 -1 -0 0
326 515 0 -1 -0 0
326 515 100 -1 -0 0
326 542 100 -1 -0 0
662 20 0 -0 1 0
694 20 0 -0 1 0
694 20 100 -0 1 0
662 20 100 -0 1 0
662 10 0 0 -1 0
704 10 0 0 -1 0
704 10 100 0 -1 0
662 10 100 0 -1 0
694 20 0 -1 0 0
694 233 0 -1 0 0
694 233 100 -1 0 0
694 20 100 -1 0 0
704 10 0 1 -0 0
704 238 0 1 -0 0
704 238 100 1 -0 0
704 10 100 1 -0 0
571 20 0 -0 1 0
606 20 0 -0 1 0
606 20 100 -0 1 0
571 20 100 -0 1 0
571 10 0 0 -1 0
606 10 0 0 -1 0
606 10 100 0 -1 0
571 10 100 0 -1 0
285 325 0 1 0 0
285 265 0 1 0 0
285 265 100 1 0 0
285 325 100 1 0 0
275 325 0 -1 -0 0
275 265 0 -1 -0 0
275 265 100 -1 -0 0
275 325 100 -1 -0 0
331 330 0 -0 1 0
420 330 0 -0 1 0
420 330 100 -0 1 0
331 330 100 -0 1 0
331 320 0 0 -1 0
420 320 0 0 -1 0
420 320 100 0 -1 0
331 320 100 0 -1 0
319 260 0 1 0 0
319 204 0 1 0 0
319 204 100 1 0 0
319 260 100 1 0 0
309 260 0 -1 -0 0
309 204 0 -1 -0 0
309 204 100 -1 -0 0
309 260 100 -1 -0 0
156 10 0 -1 0 0
156 518 0 -1 0 0
156 518 100 -1 0 0
156 10 100 -1 0 0
166 20 0 1 -0 0
166 518 0 1 -0 0
166 518 100 1 -0 0
166 20 100 1 -0 0
166 20 0 -0 1 0
275 20 0 -0 1 0
275 20 100 -0 1 0
166 20 100 -0 1 0
156 10 0 0 -1 0
280 10 0 0 -1 0
280 10 100 0 -1 0
156 10 100 0 -1 0
415 450 0 -1 0 0
415 542 0 -1 0 0
415 542 100 -1 0 0
415 450 100 -1 0 0
425 460 0 1 -0 0
425 542 0 1 -0 0
425 542 100 1 -0 0
425 460 100 1 -0 0
425 460 0 -0 1 0
585 460 0 -0 1 0
585 460 100 -0 1 0
425 460 100 -0 1 0
415 450 0 0 -1 0
585 450 0 0 -1 0
585 450 100 0 -1 0
415 450 100 0 -1 0
566 89 0 -1 0 0
566 114 0 -1 0 0
566 114 100 -1 0 0
566 89 100 -1 0 0
576 89 0 1 -0 0
576 114 0 1 -0 0
576 114 100 1 -0 0
576 89 100 1 -0 0
400 119 0 -0 1 0
455 119 0 -0 1 0
455 119 100 -0 1 0
400 119 100 -0 1 0
400 109 0 0 -1 0
455 109 0 0 -1 0
455 109 100 0 -1 0
400 109 100 0 -1 0
326 20 0 -1 0 0
326 131 0 -1 0 0
326 131 100 -1 0 0
326 20 100 -1 0 0
336 10 0 1 -0 0
336 131 0 1 -0 0
336 131 100 1 -0 0
336 10 100 1 -0 0
336 10 0 -0 -1 0
280 10 0 -0 -1 0
280 10 100 -0 -1 0
336 10 100 -0 -1 0
326 20 0 0 1 0
285 20 0 0 1 0
285 20 100 0 1 0
326 20 100 0 1 0
275 20 0 -1 0 0
275 114 0 -1 0 0
275 114 100 -1 0 0
275 20 100 -1 0 0
285 20 0 1 -0 0
285 114 0 1 -0 0
285 114 100 1 -0 0
285 20 100 1 -0 0
694 434 0 -0 -1 0
576 434 0 -0 -1 0
576 434 100 -0 -1 0
694 434 100 -0 -1 0
704 444 0 0 1 0
566 444 0 0 1 0
566 444 100 0 1 0
704 444 100 0 1 0
704 444 0 1 0 0
704 320 0 1 0 0
704 320 100 1 0 0
704 444 100 1 0 0
694 434 0 -1 -0 0
694 325 0 -1 -0 0
694 325 100 -1 -0 0
694 434 100 -1 -0 0
576 434 0 1 0 0
576 411 0 1 0 0
576 411 100 1 0 0
576 434 100 1 0 0
566 444 0 -1 -0 0
566 411 0 -1 -0 0
566 411 100 -1 -0 0
566 444 100 -1 -0 0
606 243 0 -0 1 0
694 243 0 -0 1 0
694 243 100 -0 1 0
606 243 100 -0 1 0
606 233 0 0 -1 0
694 233 0 0 -1 0
694 233 100 0 -1 0
606 233 100 0 -1 0
694 243 0 -1 0 0
694 325 0 -1 0 0
694 325 100 -1 0 0
694 243 100 -1 0 0
704 238 0 1 -0 0
704 330 0 1 -0 0
704 330 100 1 -0 0
704 238 100 1 -0 0
601 291 0 -1 0 0
601 330 0 -1 0 0
601 330 100 -1 0 0
601 291 100 -1 0 0
611 291 0 1 -0 0
611 330 0 1 -0 0
611 330 100 1 -0 0
611 291 100 1 -0 0
606 320 0 -0 -1 0
571 320 0 -0 -1 0
571 320 100 -0 -1 0
606 320 100 -0 -1 0
611 330 0 0 1 0
571 330 0 0 1 0
571 330 100 0 1 0
611 330 100 0 1 0
601 330 0 -0 1 0
704 330 0 -0 1 0
704 330 100 -0 1 0
601 330 100 -0 1 0
606 320 0 0 -1 0
704 320 0 0 -1 0
704 320 100 0 -1 0
606 320 100 0 -1 0
336 542 0 323.5555419921875 522.9259033203125 0
326 542 0 323.5555419921875 522.9259033203125 0
326 542 100 323.5555419921875 522.9259033203125 0
336 542 100 323.5555419921875 522.9259033203125 0
336 515 0 323.5555419921875 494.925933837890625 0
326 515 0 323.5555419921875 494.925933837890625 0
326 515 100 323.5555419921875 494.925933837890625 0
336 515 100 323.5555419921875 494.925933837890625 0
662 20 0 640.3125 19.375 0
662 10 0 640.3125 19.375 0
662 10 100 640.3125 19.375 0
662 20 100 640.3125 19.375 0
571 20 0 553.68572998046875 19.4285717010498047 0
571 10 0 553.68572998046875 19.4285717010498047 0
571 10 100 553.68572998046875 19.4285717010498047 0
571 20 100 553.68572998046875 19.4285717010498047 0
606 20 0 589.68572998046875 19.4285717010498047 0
606 10 0 589.68572998046875 19.4285717010498047 0
606 10 100 589.68572998046875 19.4285717010498047 0
606 20 100 589.68572998046875 19.4285717010498047 0
285 325 0 280.25 320.583343505859375 0
275 325 0 280.25 320.583343505859375 0
275 325 100 280.25 320.583343505859375 0
285 325 100 280.25 320.583343505859375 0
285 265 0 280.25 259.583343505859375 0
275 265 0 280.25 259.583343505859375 0
275 265 100 280.25 259.583343505859375 0
285 265 100 280.25 259.583343505859375 0
331 330 0 326.2808837890625 326.292144775390625 0
331 320 0 326.2808837890625 326.292144775390625 0
331 320 100 326.2808837890625 326.292144775390625 0
331 330 100 326.2808837890625 326.292144775390625 0
420 330 0 416.2808837890625 326.292144775390625 0
420 320 0 416.2808837890625 326.292144775390625 0
420 320 100 416.2808837890625 326.292144775390625 0
420 330 100 416.2808837890625 326.292144775390625 0
319 260 0 313.303558349609375 256.357147216796875 0
309 260 0 313.303558349609375 256.357147216796875 0
309 260 100 313.303558349609375 256.357147216796875 0
319 260 100 313.303558349609375 256.357147216796875 0
319 204 0 313.303558349609375 199.357147216796875 0
309 204 0 313.303558349609375 199.357147216796875 0
309 204 100 313.303558349609375 199.357147216796875 0
319 204 100 313.303558349609375 199.357147216796875 0
156 518 0 155.692916870117188 517.98028564453125 0
166 518 0 155.692916870117188 517.98028564453125 0
166 518 100 155.692916870117188 517.98028564453125 0
156 518 100 155.692916870117188 517.98028564453125 0
415 542 0 410.4891357421875 537.10870361328125 0
425 542 0 410.4891357421875 537.10870361328125 0
425 542 100 410.4891357421875 537.10870361328125 0
415 542 100 410.4891357421875 537.10870361328125 0
566 89 0 543.3599853515625 84.44000244140625 0
576 89 0 543.3599853515625 84.44000244140625 0
576 89 100 543.3599853515625 84.44000244140625 0
566 89 100 543.3599853515625 84.44000244140625 0
566 114 0 543.3599853515625 110.44000244140625 0
576 114 0 543.3599853515625 110.44000244140625 0
576 114 100 543.3599853515625 110.44000244140625 0
566 114 100 543.3599853515625 110.44000244140625 0
400 119 0 391.727264404296875 116.83636474609375 0
400 109 0 391.727264404296875 116.83636474609375 0
400 109 100 391.727264404296875 116.83636474609375 0
400 119 100 391.727264404296875 116.83636474609375 0
455 119 0 447.727264404296875 116.83636474609375 0
455 109 0 447.727264404296875 116.83636474609375 0
455 109 100 447.727264404296875 116.83636474609375 0
455 119 100 447.727264404296875 116.83636474609375 0
585 460 0 582.34375 457.125 0
585 450 0 582.34375 457.125 0
585 450 100 582.34375 457.125 0
585 460 100 582.34375 457.125 0
326 131 0 323.06304931640625 130.81982421875 0
336 131 0 323.06304931640625 130.81982421875 0
336 131 100 323.06304931640625 130.81982421875 0
326 131 100 323.06304931640625 130.81982421875 0
275 114 0 272.074462890625 113.7872314453125 0
285 114 0 272.074462890625 113.7872314453125 0
285 114 100 272.074462890625 113.7872314453125 0
275 114 100 272.074462890625 113.7872314453125 0
576 411 0 550.95654296875 392.13043212890625 0
566 411 0 550.95654296875 392.13043212890625 0
566 411 100 550.95654296875 392.13043212890625 0
576 411 100 550.95654296875 392.13043212890625 0
606 243 0 598.1136474609375 240.238632202148438 0
606 233 0 598.1136474609375 240.238632202148438 0
606 233 100 598.1136474609375 240.238632202148438 0
606 243 100 598.1136474609375 240.238632202148438 0
601 291 0 585.5897216796875 282.5384521484375 0
611 291 0 585.5897216796875 282.5384521484375 0
611 291 100 585.5897216796875 282.5384521484375 0
601 291 100 585.5897216796875 282.5384521484375 0
571 320 0 553.68572998046875 310.857147216796875 0
571 330 0 553.68572998046875 310.857147216796875 0
571 330 100 553.68572998046875 310.857147216796875 0
571 320 100 553.68572998046875 310.857147216796875 0
336 542 0 0 0 -1
326 542 0 0 0 -1
326 515 0 0 0 -1
336 515 0 0 0 -1
336 542 100 0 0 1
326 542 100 0 0 1
326 515 100 0 0 1
336 515 100 0 0 1
662 20 0 0 0 -1
662 10 0 0 0 -1
704 10 0 0 0 -1
694 20 0 0 0 -1
662 20 100 0 0 1
662 10 100 0 0 1
704 10 100 0 0 1
694 20 100 0 0 1
694 20 0 0 0 -1
704 10 0 0 0 -1
704 238 0 0 0 -1
694 233 0 0 0 -1
694 20 100 0 0 1
704 10 100 0 0 1
704 238 100 0 0 1
694 233 100 0 0 1
571 20 0 0 0 -1
571 10 0 0 0 -1
606 10 0 0 0 -1
606 20 0 0 0 -1
571 20 100 0 0 1
571 10 100 0 0 1
606 10 100 0 0 1
606 20 100 0 0 1
285 325 0 0 0 -1
275 325 0 0 0 -1
275 265 0 0 0 -1
285 265 0 0 0 -1
285 325 100 0 0 1
275 325 100 0 0 1
275 265 100 0 0 1
285 265 100 0 0 1
331 330 0 0 0 -1
331 320 0 0 0 -1
420 320 0 0 0 -1
420 330 0 0 0 -1
331 330 100 0 0 1
331 320 100 0 0 1
420 320 100 0 0 1
420 330 100 0 0 1
319 260 0 0 0 -1
309 260 0 0 0 -1
309 204 0 0 0 -1
319 204 0 0 0 -1
319 260 100 0 0 1
309 260 100 0 0 1
309 204 100 0 0 1
319 204 100 0 0 1
156 10 0 0 0 -1
166 20 0 0 0 -1
166 518 0 0 0 -1
156 518 0 0 0 -1
156 10 100 0 0 1
166 20 100 0 0 1
166 518 100 0 0 1
156 518 100 0 0 1
166 20 0 0 0 -1
156 10 0 0 0 -1
280 10 0 0 0 -1
275 20 0 0 0 -1
166 20 100 0 0 1
156 10 100 0 0 1
280 10 100 0 0 1
275 20 100 0 0 1
415 450 0 0 0 -1
425 460 0 0 0 -1
425 542 0 0 0 -1
415 542 0 0 0 -1
415 450 100 0 0 1
425 460 100 0 0 1
425 542 100 0 0 1
415 542 100 0 0 1
425 460 0 0 0 -1
415 450 0 0 0 -1
585 450 0 0 0 -1
585 460 0 0 0 -1
425 460 100 0 0 1
415 450 100 0 0 1
585 450 100 0 0 1
585 460 100 0 0 1
566 89 0 0 0 -1
576 89 0 0 0 -1
576 114 0 0 0 -1
566 114 0 0 0 -1
566 89 100 0 0 1
576 89 100 0 0 1
576 114 100 0 0 1
566 114 100 0 0 1
400 119 0 0 0 -1
400 109 0 0 0 -1
455 109 0 0 0 -1
455 119 0 0 0 -1
400 119 100 0 0 1
400 109 100 0 0 1
455 109 100 0 0 1
455 119 100 0 0 1
326 20 0 0 0 -1
336 10 0 0 0 -1
336 131 0 0 0 -1
326 131 0 0 0 -1
326 20 100 0 0 1
336 10 100 0 0 1
336 131 100 0 0 1
326 131 100 0 0 1
336 10 0 0 0 -1
326 20 0 0 0 -1
285 20 0 0 0 -1
280 10 0 0 0 -1
336 10 100 0 0 1
326 20 100 0 0 1
285 20 100 0 0 1
280 10 100 0 0 1
275 20 0 0 0 -1
285 20 0 0 0 -1
285 114 0 0 0 -1
275 114 0 0 0 -1
275 20 100 0 0 1
285 20 100 0 0 1
285 114 100 0 0 1
275 114 100 0 0 1
694 434 0 0 0 -1
704 444 0 0 0 -1
566 444 0 0 0 -1
576 434 0 0 0 -1
694 434 100 0 0 1
704 444 100 0 0 1
566 444 100 0 0 1
576 434 100 0 0 1
704 444 0 0 0 -1
694 434 0 0 0 -1
694 325 0 0 0 -1
704 320 0 0 0 -1
704 444 100 0 0 1
694 434 100 0 0 1
694 325 100 0 0 1
704 320 100 0 0 1
576 434 0 0 0 -1
566 444 0 0 0 -1
566 411 0 0 0 -1
576 411 0 0 0 -1
576 434 100 0 0 1
566 444 100 0 0 1
566 411 100 0 0 1
576 411 100 0 0 1
606 243 0 0 0 -1
606 233 0 0 0 -1
694 233 0 0 0 -1
694 243 0 0 0 -1
606 243 100 0 0 1
606 233 100 0 0 1
694 233 100 0 0 1
694 243 100 0 0 1
694 243 0 0 0 -1
704 238 0 0 0 -1
704 330 0 0 0 -1
694 325 0 0 0 -1
694 243 100 0 0 1
704 238 100 0 0 1
704 330 100 0 0 1
694 325 100 0 0 1
601 291 0 0 0 -1
611 291 0 0 0 -1
611 330 0 0 0 -1
601 330 0 0 0 -1
601 291 100 0 0 1
611 291 100 0 0 1
611 330 100 0 0 1
601 330 100 0 0 1
606 320 0 0 0 -1
611 330 0 0 0 -1
571 330 0 0 0 -1
571 320 0 0 0 -1
606 320 100 0 0 1
611 330 100 0 0 1
571 330 100 0 0 1
571 320 100 0 0 1
601 330 0 0 0 -1
606 320 0 0 0 -1
704 320 0 0 0 -1
704 330 0 0 0 -1
601 330 100 0 0 1
606 320 100 0 0 1
704 320 100 0 0 1
704 330 100 0 0 1
280 10 0 0 0 -1
285 20 0 0 0 -1
275 20 0 0 0 -1
280 10 100 0 0 1
285 20 100 0 0 1
275 20 100 0 0 1
694 233 0 0 0 -1
704 238 0 0 0 -1
694 243 0 0 0 -1
694 233 100 0 0 1
704 238 100 0 0 1
694 243 100 0 0 1
611 330 0 0 0 -1
606 320 0 0 0 -1
601 330 0 0 0 -1
611 330 100 0 0 1
606 320 100 0 0 1
601 330 100 0 0 1
694 325 0 0 0 -1
704 330 0 0 0 -1
704 320 0 0 0 -1
694 325 100 0 0 1
704 330 100 0 0 1
704 320 100 0 0 1
4 0 1 2 3
4 4 5 6 7
4 8 9 10 11
4 12 13 14 15
4 16 17 18 19
4 20 21 22 23
4 24 25 26 27
4 28 29 30 31
4 32 33 34 35
4 36 37 38 39
4 40 41 42 43
4 44 45 46 47
4 48 49 50 51
4 52 53 54 55
4 56 57 58 59
4 60 61 62 63
4 64 65 66 67
4 68 69 70 71
4 72 73 74 75
4 76 77 78 79
4 80 81 82 83
4 84 85 86 87
4 88 89 90 91
4 92 93 94 95
4 96 97 98 99
4 100 101 102 103
4 104 105 106 107
4 108 109 110 111
4 112 113 114 115
4 116 117 118 119
4 120 121 122 123
4 124 125 126 127
4 128 129 130 131
4 132 133 134 135
4 136 137 138 139
4 140 141 142 143
4 144 145 146 147
4 148 149 150 151
4 152 153 154 155
4 156 157 158 159
4 160 161 162 163
4 164 165 166 167
4 168 169 170 171
4 172 173 174 175
4 176 177 178 179
4 180 181 182 183
4 184 185 186 187
4 188 189 190 191
4 192 193 194 195
4 196 197 198 199
4 200 201 202 203
4 204 205 206 207
4 208 209 210 211
4 212 213 214 215
4 216 217 218 219
4 220 221 222 223
4 224 225 226 227
4 228 229 230 231
4 232 233 234 235
4 236 237 238 239
4 240 241 242 243
4 244 245 246 247
4 248 249 250 251
4 252 253 254 255
4 256 257 258 259
4 260 261 262 263
4 264 265 266 267
4 268 269 270 271
4 272 273 274 275
4 276 277 278 279
4 280 281 282 283
4 284 285 286 287
4 288 289 290 291
4 292 293 294 295
4 296 297 298 299
4 300 301 302 303
4 304 305 306 307
4 308 309 310 311
4 312 313 314 315
4 316 317 318 319
4 320 321 322 323
4 324 325 326 327
4 328 329 330 331
4 332 333 334 335
4 336 337 338 339
4 340 341 342 343
4 344 345 346 347
4 348 349 350 351
4 352 353 354 355
4 356 357 358 359
4 360 361 362 363
4 364 365 366 367
4 368 369 370 371
4 372 373 374 375
4 376 377 378 379
4 380 381 382 383
4 384 385 386 387
4 388 389 390 391
4 392 393 394 395
4 396 397 398 399
4 400 401 402 403
4 404 405 406 407
4 408 409 410 411
4 412 413 414 415
4 416 417 418 419
4 420 421 422 423
4 424 425 426 427
4 428 429 430 431
4 432 433 434 435
4 436 437 438 439
4 440 441 442 443
4 444 445 446 447
4 448 449 450 451
4 452 453 454 455
4 456 457 458 459
4 460 461 462 463
4 464 465 466 467
4 468 469 470 471
4 472 473 474 475
4 476 477 478 479
3 480 481 482
3 483 484 485
3 486 487 488
3 489 490 491
3 492 493 494
3 495 496 497
3 498 499 500
3 501 502 503
