ply
format ascii 1.0
element vertex 988
property float x
property float y
property float z
property float nx
property float ny
property float nz
element quads 212
property list uchar int vertex_indices
element triads 48
property list uchar int vertex_indices
end_header
75 497 0 -0 1 0
182 497 0 -0 1 0
182 497 100 -0 1 0
75 497 100 -0 1 0
75 487 0 0 -1 0
182 487 0 0 -1 0
182 487 100 0 -1 0
75 487 100 0 -1 0
182 478 0 -0 1 0
301 478 0 -0 1 0
301 478 100 -0 1 0
182 478 100 -0 1 0
182 468 0 0 -1 0
291 468 0 0 -1 0
291 468 100 0 -1 0
182 468 100 0 -1 0
301 478 0 1 0 0
301 430 0 1 0 0
301 430 100 1 0 0
301 478 100 1 0 0
291 468 0 -1 -0 0
291 425 0 -1 -0 0
291 425 100 -1 -0 0
291 468 100 -1 -0 0
603 468 0 1 0 0
603 430 0 1 0 0
603 430 100 1 0 0
603 468 100 1 0 0
593 478 0 -1 -0 0
593 420 0 -1 -0 0
593 420 100 -1 -0 0
593 478 100 -1 -0 0
593 478 0 -0 1 0
635 478 0 -0 1 0
635 478 100 -0 1 0
593 478 100 -0 1 0
603 468 0 0 -1 0
630 468 0 0 -1 0
630 468 100 0 -1 0
603 468 100 0 -1 0
603 430 0 -0 1 0
635 430 0 -0 1 0
635 430 100 -0 1 0
603 430 100 -0 1 0
593 420 0 0 -1 0
635 420 0 0 -1 0
635 420 100 0 -1 0
593 420 100 0 -1 0
748 227 0 -1 0 0
748 313 0 -1 0 0
748 313 100 -1 0 0
748 227 100 -1 0 0
758 217 0 1 -0 0
758 318 0 1 -0 0
758 318 100 1 -0 0
758 217 100 1 -0 0
758 217 0 -0 -1 0
630 217 0 -0 -1 0
630 217 100 -0 -1 0
758 217 100 -0 -1 0
748 227 0 0 1 0
635 227 0 0 1 0
635 227 100 0 1 0
748 227 100 0 1 0
748 323 0 -1 0 0
748 369 0 -1 0 0
748 369 100 -1 0 0
748 323 100 -1 0 0
758 318 0 1 -0 0
758 374 0 1 -0 0
758 374 100 1 -0 0
758 318 100 1 -0 0
748 313 0 -0 -1 0
635 313 0 -0 -1 0
635 313 100 -0 -1 0
748 313 100 -0 -1 0
748 323 0 0 1 0
635 323 0 0 1 0
635 323 100 0 1 0
748 323 100 0 1 0
80 281 0 1 0 0
80 227 0 1 0 0
80 227 100 1 0 0
80 281 100 1 0 0
70 281 0 -1 -0 0
70 222 0 -1 -0 0
70 222 100 -1 -0 0
70 281 100 -1 -0 0
80 217 0 1 0 0
80 23 0 1 0 0
80 23 100 1 0 0
80 217 100 1 0 0
70 222 0 -1 -0 0
70 13 0 -1 -0 0
70 13 100 -1 -0 0
70 222 100 -1 -0 0
80 227 0 -0 1 0
166 227 0 -0 1 0
166 227 100 -0 1 0
80 227 100 -0 1 0
80 217 0 0 -1 0
161 217 0 0 -1 0
161 217 100 0 -1 0
80 217 100 0 -1 0
80 23 0 -0 1 0
161 23 0 -0 1 0
161 23 100 -0 1 0
80 23 100 -0 1 0
70 13 0 0 -1 0
166 13 0 0 -1 0
166 13 100 0 -1 0
70 13 100 0 -1 0
171 217 0 1 0 0
171 173 0 1 0 0
171 173 100 1 0 0
171 217 100 1 0 0
161 217 0 -1 -0 0
161 168 0 -1 -0 0
161 168 100 -1 -0 0
161 217 100 -1 -0 0
166 227 0 -0 1 0
199 227 0 -0 1 0
199 227 100 -0 1 0
166 227 100 -0 1 0
171 217 0 0 -1 0
194 217 0 0 -1 0
194 217 100 0 -1 0
171 217 100 0 -1 0
329 262 0 -1 0 0
329 350 0 -1 0 0
329 350 100 -1 0 0
329 262 100 -1 0 0
339 262 0 1 -0 0
339 350 0 1 -0 0
339 350 100 1 -0 0
339 262 100 1 -0 0
334 360 0 -0 1 0
372 360 0 -0 1 0
372 360 100 -0 1 0
334 360 100 -0 1 0
339 350 0 0 -1 0
367 350 0 0 -1 0
367 350 100 0 -1 0
339 350 100 0 -1 0
329 350 0 -0 -1 0
301 350 0 -0 -1 0
301 350 100 -0 -1 0
329 350 100 -0 -1 0
334 360 0 0 1 0
301 360 0 0 1 0
301 360 100 0 1 0
334 360 100 0 1 0
377 355 0 1 0 0
377 217 0 1 0 0
377 217 100 1 0 0
377 355 100 1 0 0
367 350 0 -1 -0 0
367 227 0 -1 -0 0
367 227 100 -1 -0 0
367 350 100 -1 -0 0
367 350 0 -1 0 0
367 425 0 -1 0 0
367 425 100 -1 0 0
367 350 100 -1 0 0
377 355 0 1 -0 0
377 430 0 1 -0 0
377 430 100 1 -0 0
377 355 100 1 -0 0
372 360 0 -0 1 0
481 360 0 -0 1 0
481 360 100 -0 1 0
372 360 100 -0 1 0
367 350 0 0 -1 0
481 350 0 0 -1 0
481 350 100 0 -1 0
367 350 100 0 -1 0
171 163 0 1 0 0
171 23 0 1 0 0
171 23 100 1 0 0
171 163 100 1 0 0
161 168 0 -1 -0 0
161 23 0 -1 -0 0
161 23 100 -1 -0 0
161 168 100 -1 -0 0
171 173 0 -0 1 0
199 173 0 -0 1 0
199 173 100 -0 1 0
171 173 100 -0 1 0
171 163 0 0 -1 0
204 163 0 0 -1 0
204 163 100 0 -1 0
171 163 100 0 -1 0
367 478 0 -0 1 0
491 478 0 -0 1 0
491 478 100 -0 1 0
367 478 100 -0 1 0
377 468 0 0 -1 0
486 468 0 0 -1 0
486 468 100 0 -1 0
377 468 100 0 -1 0
377 468 0 1 0 0
377 420 0 1 0 0
377 420 100 1 0 0
377 468 100 1 0 0
367 478 0 -1 -0 0
367 425 0 -1 -0 0
367 425 100 -1 -0 0
367 478 100 -1 -0 0
481 478 0 -0 1 0
538 478 0 -0 1 0
538 478 100 -0 1 0
481 478 100 -0 1 0
486 468 0 0 -1 0
538 468 0 0 -1 0
538 468 100 0 -1 0
486 468 100 0 -1 0
491 478 0 1 0 0
491 430 0 1 0 0
491 430 100 1 0 0
491 478 100 1 0 0
481 478 0 -1 -0 0
481 425 0 -1 -0 0
481 425 100 -1 -0 0
481 478 100 -1 -0 0
603 227 0 -0 1 0
625 227 0 -0 1 0
625 227 100 -0 1 0
603 227 100 -0 1 0
593 217 0 0 -1 0
630 217 0 0 -1 0
630 217 100 0 -1 0
593 217 100 0 -1 0
593 217 0 -1 0 0
593 267 0 -1 0 0
593 267 100 -1 0 0
593 217 100 -1 0 0
603 227 0 1 -0 0
603 267 0 1 -0 0
603 267 100 1 -0 0
603 227 100 1 -0 0
625 227 0 -1 0 0
625 257 0 -1 0 0
625 257 100 -1 0 0
625 227 100 -1 0 0
635 227 0 1 -0 0
635 262 0 1 -0 0
635 262 100 1 -0 0
635 227 100 1 -0 0
625 478 0 -0 1 0
758 478 0 -0 1 0
758 478 100 -0 1 0
625 478 100 -0 1 0
630 468 0 0 -1 0
748 468 0 0 -1 0
748 468 100 0 -1 0
630 468 100 0 -1 0
635 478 0 1 0 0
635 420 0 1 0 0
635 420 100 1 0 0
635 478 100 1 0 0
625 478 0 -1 -0 0
625 425 0 -1 -0 0
625 425 100 -1 -0 0
625 478 100 -1 -0 0
758 478 0 1 0 0
758 364 0 1 0 0
758 364 100 1 0 0
758 478 100 1 0 0
748 468 0 -1 -0 0
748 369 0 -1 -0 0
748 369 100 -1 -0 0
748 468 100 -1 -0 0
377 217 0 -0 -1 0
204 217 0 -0 -1 0
204 217 100 -0 -1 0
377 217 100 -0 -1 0
367 227 0 0 1 0
199 227 0 0 1 0
199 227 100 0 1 0
367 227 100 0 1 0
204 217 0 1 0 0
204 163 0 1 0 0
204 163 100 1 0 0
204 217 100 1 0 0
194 217 0 -1 -0 0
194 163 0 -1 -0 0
194 163 100 -1 -0 0
194 217 100 -1 -0 0
535 420 0 -0 -1 0
491 420 0 -0 -1 0
491 420 100 -0 -1 0
535 420 100 -0 -1 0
535 430 0 0 1 0
491 430 0 0 1 0
491 430 100 0 1 0
535 430 100 0 1 0
491 420 0 1 0 0
491 355 0 1 0 0
491 355 100 1 0 0
491 420 100 1 0 0
481 425 0 -1 -0 0
481 360 0 -1 -0 0
481 360 100 -1 -0 0
481 425 100 -1 -0 0
635 430 0 1 0 0
635 369 0 1 0 0
635 369 100 1 0 0
635 430 100 1 0 0
625 425 0 -1 -0 0
625 364 0 -1 -0 0
625 364 100 -1 -0 0
625 425 100 -1 -0 0
625 374 0 -0 1 0
758 374 0 -0 1 0
758 374 100 -0 1 0
625 374 100 -0 1 0
625 364 0 0 -1 0
758 364 0 0 -1 0
758 364 100 0 -1 0
625 364 100 0 -1 0
635 369 0 1 0 0
635 323 0 1 0 0
635 323 100 1 0 0
635 369 100 1 0 0
625 374 0 -1 -0 0
625 318 0 -1 -0 0
625 318 100 -1 -0 0
625 374 100 -1 -0 0
377 420 0 -0 -1 0
301 420 0 -0 -1 0
301 420 100 -0 -1 0
377 420 100 -0 -1 0
377 430 0 0 1 0
301 430 0 0 1 0
301 430 100 0 1 0
377 430 100 0 1 0
291 262 0 -1 0 0
291 355 0 -1 0 0
291 355 100 -1 0 0
291 262 100 -1 0 0
301 262 0 1 -0 0
301 350 0 1 -0 0
301 350 100 1 -0 0
301 262 100 1 -0 0
291 355 0 -1 0 0
291 425 0 -1 0 0
291 425 100 -1 0 0
291 355 100 -1 0 0
301 360 0 1 -0 0
301 420 0 1 -0 0
301 420 100 1 -0 0
301 360 100 1 -0 0
171 23 0 -0 1 0
296 23 0 -0 1 0
296 23 100 -0 1 0
171 23 100 -0 1 0
166 13 0 0 -1 0
296 13 0 0 -1 0
296 13 100 0 -1 0
166 13 100 0 -1 0
598 257 0 -0 -1 0
577 257 0 -0 -1 0
577 257 100 -0 -1 0
598 257 100 -0 -1 0
603 267 0 0 1 0
577 267 0 0 1 0
577 267 100 0 1 0
603 267 100 0 1 0
593 267 0 -0 1 0
625 267 0 -0 1 0
625 267 100 -0 1 0
593 267 100 -0 1 0
598 257 0 0 -1 0
625 257 0 0 -1 0
625 257 100 0 -1 0
598 257 100 0 -1 0
635 313 0 1 0 0
635 262 0 1 0 0
635 262 100 1 0 0
635 313 100 1 0 0
625 318 0 -1 -0 0
625 267 0 -1 -0 0
625 267 100 -1 -0 0
625 318 100 -1 -0 0
296 163 0 -0 -1 0
194 163 0 -0 -1 0
194 163 100 -0 -1 0
296 163 100 -0 -1 0
296 173 0 0 1 0
199 173 0 0 1 0
199 173 100 0 1 0
296 173 100 0 1 0
481 299 0 -1 0 0
481 350 0 -1 0 0
481 350 100 -1 0 0
481 299 100 -1 0 0
491 299 0 1 -0 0
491 355 0 1 -0 0
491 355 100 1 -0 0
491 299 100 1 -0 0
75 497 0 73.2990646362304688 492.355133056640625 0
75 487 0 73.2990646362304688 492.355133056640625 0
75 487 100 73.2990646362304688 492.355133056640625 0
75 497 100 73.2990646362304688 492.355133056640625 0
182 497 0 181.299072265625 492.355133056640625 0
182 487 0 181.299072265625 492.355133056640625 0
182 487 100 181.299072265625 492.355133056640625 0
182 497 100 181.299072265625 492.355133056640625 0
182 478 0 179.4705810546875 473.983184814453125 0
182 468 0 179.4705810546875 473.983184814453125 0
182 468 100 179.4705810546875 473.983184814453125 0
182 478 100 179.4705810546875 473.983184814453125 0
80 281 0 78.5185165405273438 276.796295166015625 0
70 281 0 78.5185165405273438 276.796295166015625 0
70 281 100 78.5185165405273438 276.796295166015625 0
80 281 100 78.5185165405273438 276.796295166015625 0
329 262 0 325.2613525390625 258.022735595703125 0
339 262 0 325.2613525390625 258.022735595703125 0
339 262 100 325.2613525390625 258.022735595703125 0
329 262 100 325.2613525390625 258.022735595703125 0
538 478 0 529.5614013671875 469.614044189453125 0
538 468 0 529.5614013671875 469.614044189453125 0
538 468 100 529.5614013671875 469.614044189453125 0
538 478 100 529.5614013671875 469.614044189453125 0
535 420 0 523.84088134765625 410.454559326171875 0
535 430 0 523.84088134765625 410.454559326171875 0
535 430 100 523.84088134765625 410.454559326171875 0
535 420 100 523.84088134765625 410.454559326171875 0
291 262 0 287.8709716796875 258.18280029296875 0
301 262 0 287.8709716796875 258.18280029296875 0
301 262 100 287.8709716796875 258.18280029296875 0
291 262 100 287.8709716796875 258.18280029296875 0
296 23 0 294.631988525390625 22.8159999847412109 0
296 13 0 294.631988525390625 22.8159999847412109 0
296 13 100 294.631988525390625 22.8159999847412109 0
296 23 100 294.631988525390625 22.8159999847412109 0
577 257 0 548.5238037109375 244.76190185546875 0
577 267 0 548.5238037109375 244.76190185546875 0
577 267 100 548.5238037109375 244.76190185546875 0
577 257 100 548.5238037109375 244.76190185546875 0
296 163 0 294.098052978515625 161.401962280273438 0
296 173 0 294.098052978515625 161.401962280273438 0
296 173 100 294.098052978515625 161.401962280273438 0
296 163 100 294.098052978515625 161.401962280273438 0
481 299 0 471.568634033203125 292.13726806640625 0
491 299 0 471.568634033203125 292.13726806640625 0
491 299 100 471.568634033203125 292.13726806640625 0
481 299 100 471.568634033203125 292.13726806640625 0
75 497 0 0 0 -1
75 487 0 0 0 -1
182 487 0 0 0 -1
182 497 0 0 0 -1
75 497 100 0 0 1
75 487 100 0 0 1
182 487 100 0 0 1
182 497 100 0 0 1
182 478 0 0 0 -1
182 468 0 0 0 -1
291 468 0 0 0 -1
301 478 0 0 0 -1
182 478 100 0 0 1
182 468 100 0 0 1
291 468 100 0 0 1
301 478 100 0 0 1
301 478 0 0 0 -1
291 468 0 0 0 -1
291 425 0 0 0 -1
301 430 0 0 0 -1
301 478 100 0 0 1
291 468 100 0 0 1
291 425 100 0 0 1
301 430 100 0 0 1
603 468 0 0 0 -1
593 478 0 0 0 -1
593 420 0 0 0 -1
603 430 0 0 0 -1
603 468 100 0 0 1
593 478 100 0 0 1
593 420 100 0 0 1
603 430 100 0 0 1
593 478 0 0 0 -1
603 468 0 0 0 -1
630 468 0 0 0 -1
635 478 0 0 0 -1
593 478 100 0 0 1
603 468 100 0 0 1
630 468 100 0 0 1
635 478 100 0 0 1
603 430 0 0 0 -1
593 420 0 0 0 -1
635 420 0 0 0 -1
635 430 0 0 0 -1
603 430 100 0 0 1
593 420 100 0 0 1
635 420 100 0 0 1
635 430 100 0 0 1
748 227 0 0 0 -1
758 217 0 0 0 -1
758 318 0 0 0 -1
748 313 0 0 0 -1
748 227 100 0 0 1
758 217 100 0 0 1
758 318 100 0 0 1
748 313 100 0 0 1
758 217 0 0 0 -1
748 227 0 0 0 -1
635 227 0 0 0 -1
630 217 0 0 0 -1
758 217 100 0 0 1
748 227 100 0 0 1
635 227 100 0 0 1
630 217 100 0 0 1
748 323 0 0 0 -1
758 318 0 0 0 -1
758 374 0 0 0 -1
748 369 0 0 0 -1
748 323 100 0 0 1
758 318 100 0 0 1
758 374 100 0 0 1
748 369 100 0 0 1
748 313 0 0 0 -1
748 323 0 0 0 -1
635 323 0 0 0 -1
635 313 0 0 0 -1
748 313 100 0 0 1
748 323 100 0 0 1
635 323 100 0 0 1
635 313 100 0 0 1
80 281 0 0 0 -1
70 281 0 0 0 -1
70 222 0 0 0 -1
80 227 0 0 0 -1
80 281 100 0 0 1
70 281 100 0 0 1
70 222 100 0 0 1
80 227 100 0 0 1
80 217 0 0 0 -1
70 222 0 0 0 -1
70 13 0 0 0 -1
80 23 0 0 0 -1
80 217 100 0 0 1
70 222 100 0 0 1
70 13 100 0 0 1
80 23 100 0 0 1
80 227 0 0 0 -1
80 217 0 0 0 -1
161 217 0 0 0 -1
166 227 0 0 0 -1
80 227 100 0 0 1
80 217 100 0 0 1
161 217 100 0 0 1
166 227 100 0 0 1
80 23 0 0 0 -1
70 13 0 0 0 -1
166 13 0 0 0 -1
161 23 0 0 0 -1
80 23 100 0 0 1
70 13 100 0 0 1
166 13 100 0 0 1
161 23 100 0 0 1
171 217 0 0 0 -1
161 217 0 0 0 -1
161 168 0 0 0 -1
171 173 0 0 0 -1
171 217 100 0 0 1
161 217 100 0 0 1
161 168 100 0 0 1
171 173 100 0 0 1
166 227 0 0 0 -1
171 217 0 0 0 -1
194 217 0 0 0 -1
199 227 0 0 0 -1
166 227 100 0 0 1
171 217 100 0 0 1
194 217 100 0 0 1
199 227 100 0 0 1
329 262 0 0 0 -1
339 262 0 0 0 -1
339 350 0 0 0 -1
329 350 0 0 0 -1
329 262 100 0 0 1
339 262 100 0 0 1
339 350 100 0 0 1
329 350 100 0 0 1
334 360 0 0 0 -1
339 350 0 0 0 -1
367 350 0 0 0 -1
372 360 0 0 0 -1
334 360 100 0 0 1
339 350 100 0 0 1
367 350 100 0 0 1
372 360 100 0 0 1
329 350 0 0 0 -1
334 360 0 0 0 -1
301 360 0 0 0 -1
301 350 0 0 0 -1
329 350 100 0 0 1
334 360 100 0 0 1
301 360 100 0 0 1
301 350 100 0 0 1
377 355 0 0 0 -1
367 350 0 0 0 -1
367 227 0 0 0 -1
377 217 0 0 0 -1
377 355 100 0 0 1
367 350 100 0 0 1
367 227 100 0 0 1
377 217 100 0 0 1
367 350 0 0 0 -1
377 355 0 0 0 -1
377 430 0 0 0 -1
367 425 0 0 0 -1
367 350 100 0 0 1
377 355 100 0 0 1
377 430 100 0 0 1
367 425 100 0 0 1
372 360 0 0 0 -1
367 350 0 0 0 -1
481 350 0 0 0 -1
481 360 0 0 0 -1
372 360 100 0 0 1
367 350 100 0 0 1
481 350 100 0 0 1
481 360 100 0 0 1
171 163 0 0 0 -1
161 168 0 0 0 -1
161 23 0 0 0 -1
171 23 0 0 0 -1
171 163 100 0 0 1
161 168 100 0 0 1
161 23 100 0 0 1
171 23 100 0 0 1
171 173 0 0 0 -1
171 163 0 0 0 -1
204 163 0 0 0 -1
199 173 0 0 0 -1
171 173 100 0 0 1
171 163 100 0 0 1
204 163 100 0 0 1
199 173 100 0 0 1
367 478 0 0 0 -1
377 468 0 0 0 -1
486 468 0 0 0 -1
491 478 0 0 0 -1
367 478 100 0 0 1
377 468 100 0 0 1
486 468 100 0 0 1
491 478 100 0 0 1
377 468 0 0 0 -1
367 478 0 0 0 -1
367 425 0 0 0 -1
377 420 0 0 0 -1
377 468 100 0 0 1
367 478 100 0 0 1
367 425 100 0 0 1
377 420 100 0 0 1
481 478 0 0 0 -1
486 468 0 0 0 -1
538 468 0 0 0 -1
538 478 0 0 0 -1
481 478 100 0 0 1
486 468 100 0 0 1
538 468 100 0 0 1
538 478 100 0 0 1
491 478 0 0 0 -1
481 478 0 0 0 -1
481 425 0 0 0 -1
491 430 0 0 0 -1
491 478 100 0 0 1
481 478 100 0 0 1
481 425 100 0 0 1
491 430 100 0 0 1
603 227 0 0 0 -1
593 217 0 0 0 -1
630 217 0 0 0 -1
625 227 0 0 0 -1
603 227 100 0 0 1
593 217 100 0 0 1
630 217 100 0 0 1
625 227 100 0 0 1
593 217 0 0 0 -1
603 227 0 0 0 -1
603 267 0 0 0 -1
593 267 0 0 0 -1
593 217 100 0 0 1
603 227 100 0 0 1
603 267 100 0 0 1
593 267 100 0 0 1
625 227 0 0 0 -1
635 227 0 0 0 -1
635 262 0 0 0 -1
625 257 0 0 0 -1
625 227 100 0 0 1
635 227 100 0 0 1
635 262 100 0 0 1
625 257 100 0 0 1
625 478 0 0 0 -1
630 468 0 0 0 -1
748 468 0 0 0 -1
758 478 0 0 0 -1
625 478 100 0 0 1
630 468 100 0 0 1
748 468 100 0 0 1
758 478 100 0 0 1
635 478 0 0 0 -1
625 478 0 0 0 -1
625 425 0 0 0 -1
635 420 0 0 0 -1
635 478 100 0 0 1
625 478 100 0 0 1
625 425 100 0 0 1
635 420 100 0 0 1
758 478 0 0 0 -1
748 468 0 0 0 -1
748 369 0 0 0 -1
758 364 0 0 0 -1
758 478 100 0 0 1
748 468 100 0 0 1
748 369 100 0 0 1
758 364 100 0 0 1
377 217 0 0 0 -1
367 227 0 0 0 -1
199 227 0 0 0 -1
204 217 0 0 0 -1
377 217 100 0 0 1
367 227 100 0 0 1
199 227 100 0 0 1
204 217 100 0 0 1
204 217 0 0 0 -1
194 217 0 0 0 -1
194 163 0 0 0 -1
204 163 0 0 0 -1
204 217 100 0 0 1
194 217 100 0 0 1
194 163 100 0 0 1
204 163 100 0 0 1
535 420 0 0 0 -1
535 430 0 0 0 -1
491 430 0 0 0 -1
491 420 0 0 0 -1
535 420 100 0 0 1
535 430 100 0 0 1
491 430 100 0 0 1
491 420 100 0 0 1
491 420 0 0 0 -1
481 425 0 0 0 -1
481 360 0 0 0 -1
491 355 0 0 0 -1
491 420 100 0 0 1
481 425 100 0 0 1
481 360 100 0 0 1
491 355 100 0 0 1
635 430 0 0 0 -1
625 425 0 0 0 -1
625 364 0 0 0 -1
635 369 0 0 0 -1
635 430 100 0 0 1
625 425 100 0 0 1
625 364 100 0 0 1
635 369 100 0 0 1
625 374 0 0 0 -1
625 364 0 0 0 -1
758 364 0 0 0 -1
758 374 0 0 0 -1
625 374 100 0 0 1
625 364 100 0 0 1
758 364 100 0 0 1
758 374 100 0 0 1
635 369 0 0 0 -1
625 374 0 0 0 -1
625 318 0 0 0 -1
635 323 0 0 0 -1
635 369 100 0 0 1
625 374 100 0 0 1
625 318 100 0 0 1
635 323 100 0 0 1
377 420 0 0 0 -1
377 430 0 0 0 -1
301 430 0 0 0 -1
301 420 0 0 0 -1
377 420 100 0 0 1
377 430 100 0 0 1
301 430 100 0 0 1
301 420 100 0 0 1
291 262 0 0 0 -1
301 262 0 0 0 -1
301 350 0 0 0 -1
291 355 0 0 0 -1
291 262 100 0 0 1
301 262 100 0 0 1
301 350 100 0 0 1
291 355 100 0 0 1
291 355 0 0 0 -1
301 360 0 0 0 -1
301 420 0 0 0 -1
291 425 0 0 0 -1
291 355 100 0 0 1
301 360 100 0 0 1
301 420 100 0 0 1
291 425 100 0 0 1
171 23 0 0 0 -1
166 13 0 0 0 -1
296 13 0 0 0 -1
296 23 0 0 0 -1
171 23 100 0 0 1
166 13 100 0 0 1
296 13 100 0 0 1
296 23 100 0 0 1
598 257 0 0 0 -1
603 267 0 0 0 -1
577 267 0 0 0 -1
577 257 0 0 0 -1
598 257 100 0 0 1
603 267 100 0 0 1
577 267 100 0 0 1
577 257 100 0 0 1
593 267 0 0 0 -1
598 257 0 0 0 -1
625 257 0 0 0 -1
625 267 0 0 0 -1
593 267 100 0 0 1
598 257 100 0 0 1
625 257 100 0 0 1
625 267 100 0 0 1
635 313 0 0 0 -1
625 318 0 0 0 -1
625 267 0 0 0 -1
635 262 0 0 0 -1
635 313 100 0 0 1
625 318 100 0 0 1
625 267 100 0 0 1
635 262 100 0 0 1
296 163 0 0 0 -1
296 173 0 0 0 -1
199 173 0 0 0 -1
194 163 0 0 0 -1
296 163 100 0 0 1
296 173 100 0 0 1
199 173 100 0 0 1
194 163 100 0 0 1
481 299 0 0 0 -1
491 299 0 0 0 -1
491 355 0 0 0 -1
481 350 0 0 0 -1
481 299 100 0 0 1
491 299 100 0 0 1
491 355 100 0 0 1
481 350 100 0 0 1
758 318 0 0 0 -1
748 323 0 0 0 -1
748 313 0 0 0 -1
758 318 100 0 0 1
748 323 100 0 0 1
748 313 100 0 0 1
70 222 0 0 0 -1
80 217 0 0 0 -1
80 227 0 0 0 -1
70 222 100 0 0 1
80 217 100 0 0 1
80 227 100 0 0 1
161 217 0 0 0 -1
171 217 0 0 0 -1
166 227 0 0 0 -1
161 217 100 0 0 1
171 217 100 0 0 1
166 227 100 0 0 1
339 350 0 0 0 -1
334 360 0 0 0 -1
329 350 0 0 0 -1
339 350 100 0 0 1
334 360 100 0 0 1
329 350 100 0 0 1
367 350 0 0 0 -1
377 355 0 0 0 -1
367 350 0 0 0 -1
372 360 0 0 0 -1
367 350 100 0 0 1
377 355 100 0 0 1
367 350 100 0 0 1
372 360 100 0 0 1
161 168 0 0 0 -1
171 163 0 0 0 -1
171 173 0 0 0 -1
161 168 100 0 0 1
171 163 100 0 0 1
171 173 100 0 0 1
486 468 0 0 0 -1
481 478 0 0 0 -1
491 478 0 0 0 -1
486 468 100 0 0 1
481 478 100 0 0 1
491 478 100 0 0 1
630 217 0 0 0 -1
635 227 0 0 0 -1
625 227 0 0 0 -1
630 217 100 0 0 1
635 227 100 0 0 1
625 227 100 0 0 1
630 468 0 0 0 -1
625 478 0 0 0 -1
635 478 0 0 0 -1
630 468 100 0 0 1
625 478 100 0 0 1
635 478 100 0 0 1
199 227 0 0 0 -1
194 217 0 0 0 -1
204 217 0 0 0 -1
199 227 100 0 0 1
194 217 100 0 0 1
204 217 100 0 0 1
491 430 0 0 0 -1
481 425 0 0 0 -1
491 420 0 0 0 -1
491 430 100 0 0 1
481 425 100 0 0 1
491 420 100 0 0 1
635 420 0 0 0 -1
625 425 0 0 0 -1
635 430 0 0 0 -1
635 420 100 0 0 1
625 425 100 0 0 1
635 430 100 0 0 1
625 364 0 0 0 -1
625 374 0 0 0 -1
635 369 0 0 0 -1
625 364 100 0 0 1
625 374 100 0 0 1
635 369 100 0 0 1
367 425 0 0 0 -1
377 430 0 0 0 -1
377 420 0 0 0 -1
367 425 100 0 0 1
377 430 100 0 0 1
377 420 100 0 0 1
301 350 0 0 0 -1
301 360 0 0 0 -1
291 355 0 0 0 -1
301 350 100 0 0 1
301 360 100 0 0 1
291 355 100 0 0 1
166 13 0 0 0 -1
171 23 0 0 0 -1
161 23 0 0 0 -1
166 13 100 0 0 1
171 23 100 0 0 1
161 23 100 0 0 1
603 267 0 0 0 -1
598 257 0 0 0 -1
593 267 0 0 0 -1
603 267 100 0 0 1
598 257 100 0 0 1
593 267 100 0 0 1
748 369 0 0 0 -1
758 374 0 0 0 -1
758 364 0 0 0 -1
748 369 100 0 0 1
758 374 100 0 0 1
758 364 100 0 0 1
635 323 0 0 0 -1
625 318 0 0 0 -1
635 313 0 0 0 -1
635 323 100 0 0 1
625 318 100 0 0 1
635 313 100 0 0 1
199 173 0 0 0 -1
204 163 0 0 0 -1
194 163 0 0 0 -1
199 173 100 0 0 1
204 163 100 0 0 1
194 163 100 0 0 1
491 355 0 0 0 -1
481 360 0 0 0 -1
481 350 0 0 0 -1
491 355 100 0 0 1
481 360 100 0 0 1
481 350 100 0 0 1
301 430 0 0 0 -1
291 425 0 0 0 -1
301 420 0 0 0 -1
301 430 100 0 0 1
291 425 100 0 0 1
301 420 100 0 0 1
625 257 0 0 0 -1
635 262 0 0 0 -1
625 267 0 0 0 -1
625 257 100 0 0 1
635 262 100 0 0 1
625 267 100 0 0 1
4 0 1 2 3
4 4 5 6 7
4 8 9 10 11
4 12 13 14 15
4 16 17 18 19
4 20 21 22 23
4 24 25 26 27
4 28 29 30 31
4 32 33 34 35
4 36 37 38 39
4 40 41 42 43
4 44 45 46 47
4 48 49 50 51
4 52 53 54 55
4 56 57 58 59
4 60 61 62 63
4 64 65 66 67
4 68 69 70 71
4 72 73 74 75
4 76 77 78 79
4 80 81 82 83
4 84 85 86 87
4 88 89 90 91
4 92 93 94 95
4 96 97 98 99
4 100 101 102 103
4 104 105 106 107
4 108 109 110 111
4 112 113 114 115
4 116 117 118 119
4 120 121 122 123
4 124 125 126 127
4 128 129 130 131
4 132 133 134 135
4 136 137 138 139
4 140 141 142 143
4 144 145 146 147
4 148 149 150 151
4 152 153 154 155
4 156 157 158 159
4 160 161 162 163
4 164 165 166 167
4 168 169 170 171
4 172 173 174 175
4 176 177 178 179
4 180 181 182 183
4 184 185 186 187
4 188 189 190 191
4 192 193 194 195
4 196 197 198 199
4 200 201 202 203
4 204 205 206 207
4 208 209 210 211
4 212 213 214 215
4 216 217 218 219
4 220 221 222 223
4 224 225 226 227
4 228 229 230 231
4 232 233 234 235
4 236 237 238 239
4 240 241 242 243
4 244 245 246 247
4 248 249 250 251
4 252 253 254 255
4 256 257 258 259
4 260 261 262 263
4 264 265 266 267
4 268 269 270 271
4 272 273 274 275
4 276 277 278 279
4 280 281 282 283
4 284 285 286 287
4 288 289 290 291
4 292 293 294 295
4 296 297 298 299
4 300 301 302 303
4 304 305 306 307
4 308 309 310 311
4 312 313 314 315
4 316 317 318 319
4 320 321 322 323
4 324 325 326 327
4 328 329 330 331
4 332 333 334 335
4 336 337 338 339
4 340 341 342 343
4 344 345 346 347
4 348 349 350 351
4 352 353 354 355
4 356 357 358 359
4 360 361 362 363
4 364 365 366 367
4 368 369 370 371
4 372 373 374 375
4 376 377 378 379
4 380 381 382 383
4 384 385 386 387
4 388 389 390 391
4 392 393 394 395
4 396 397 398 399
4 400 401 402 403
4 404 405 406 407
4 408 409 410 411
4 412 413 414 415
4 416 417 418 419
4 420 421 422 423
4 424 425 426 427
4 428 429 430 431
4 432 433 434 435
4 436 437 438 439
4 440 441 442 443
4 444 445 446 447
4 448 449 450 451
4 452 453 454 455
4 456 457 458 459
4 460 461 462 463
4 464 465 466 467
4 468 469 470 471
4 472 473 474 475
4 476 477 478 479
4 480 481 482 483
4 484 485 486 487
4 488 489 490 491
4 492 493 494 495
4 496 497 498 499
4 500 501 502 503
4 504 505 506 507
4 508 509 510 511
4 512 513 514 515
4 516 517 518 519
4 520 521 522 523
4 524 525 526 527
4 528 529 530 531
4 532 533 534 535
4 536 537 538 539
4 540 541 542 543
4 544 545 546 547
4 548 549 550 551
4 552 553 554 555
4 556 557 558 559
4 560 561 562 563
4 564 565 566 567
4 568 569 570 571
4 572 573 574 575
4 576 577 578 579
4 580 581 582 583
4 584 585 586 587
4 588 589 590 591
4 592 593 594 595
4 596 597 598 599
4 600 601 602 603
4 604 605 606 607
4 608 609 610 611
4 612 613 614 615
4 616 617 618 619
4 620 621 622 623
4 624 625 626 627
4 628 629 630 631
4 632 633 634 635
4 636 637 638 639
4 640 641 642 643
4 644 645 646 647
4 648 649 650 651
4 652 653 654 655
4 656 657 658 659
4 660 661 662 663
4 664 665 666 667
4 668 669 670 671
4 672 673 674 675
4 676 677 678 679
4 680 681 682 683
4 684 685 686 687
4 688 689 690 691
4 692 693 694 695
4 696 697 698 699
4 700 701 702 703
4 704 705 706 707
4 708 709 710 711
4 712 713 714 715
4 716 717 718 719
4 720 721 722 723
4 724 725 726 727
4 728 729 730 731
4 732 733 734 735
4 736 737 738 739
4 740 741 742 743
4 744 745 746 747
4 748 749 750 751
4 752 753 754 755
4 756 757 758 759
4 760 761 762 763
4 764 765 766 767
4 768 769 770 771
4 772 773 774 775
4 776 777 778 779
4 780 781 782 783
4 784 785 786 787
4 788 789 790 791
4 792 793 794 795
4 796 797 798 799
4 800 801 802 803
4 804 805 806 807
4 808 809 810 811
4 812 813 814 815
4 816 817 818 819
4 820 821 822 823
4 824 825 826 827
4 828 829 830 831
4 832 833 834 835
4 836 837 838 839
4 840 841 842 843
4 844 845 846 847
3 848 849 850
3 851 852 853
3 854 855 856
3 857 858 859
3 860 861 862
3 863 864 865
3 866 867 868
3 869 870 871
3 872 873 874
3 873 874 875
3 876 877 878
3 877 878 879
3 880 881 882
3 883 884 885
3 886 887 888
3 889 890 891
3 892 893 894
3 895 896 897
3 898 899 900
3 901 902 903
3 904 905 906
3 907 908 909
3 910 911 912
3 913 914 915
3 916 917 918
3 919 920 921
3 922 923 924
3 925 926 927
3 928 929 930
3 931 932 933
3 934 935 936
3 937 938 939
3 940 941 942
3 943 944 945
3 946 947 948
3 949 950 951
3 952 953 954
3 955 956 957
3 958 959 960
3 961 962 963
3 964 965 966
3 967 968 969
3 970 971 972
3 973 974 975
3 976 977 978
3 979 980 981
3 982 983 984
3 985 986 987
