ply
format ascii 1.0
element vertex 324
property float x
property float y
property float z
property float nx
property float ny
property float nz
element quads 72
property list uchar int vertex_indices
element triads 12
property list uchar int vertex_indices
end_header
454 498 0 -0 1 0
489 498 0 -0 1 0
489 498 100 -0 1 0
454 498 100 -0 1 0
454 488 0 0 -1 0
489 488 0 0 -1 0
489 488 100 0 -1 0
454 488 100 0 -1 0
484 461 0 -1 0 0
484 484 0 -1 0 0
484 484 100 -1 0 0
484 461 100 -1 0 0
494 461 0 1 -0 0
494 484 0 1 -0 0
494 484 100 1 -0 0
494 461 100 1 -0 0
489 474 0 -0 -1 0
450 474 0 -0 -1 0
450 474 100 -0 -1 0
489 474 100 -0 -1 0
494 484 0 0 1 0
450 484 0 0 1 0
450 484 100 0 1 0
494 484 100 0 1 0
484 484 0 -0 1 0
507 484 0 -0 1 0
507 484 100 -0 1 0
484 484 100 -0 1 0
489 474 0 0 -1 0
507 474 0 0 -1 0
507 474 100 0 -1 0
489 474 100 0 -1 0
321 164 0 -0 1 0
352 164 0 -0 1 0
352 164 100 -0 1 0
321 164 100 -0 1 0
321 154 0 0 -1 0
347 154 0 0 -1 0
347 154 100 0 -1 0
321 154 100 0 -1 0
342 164 0 -0 1 0
494 164 0 -0 1 0
494 164 100 -0 1 0
342 164 100 -0 1 0
347 154 0 0 -1 0
494 154 0 0 -1 0
494 154 100 0 -1 0
347 154 100 0 -1 0
352 164 0 1 0 0
352 23 0 1 0 0
352 23 100 1 0 0
352 164 100 1 0 0
342 164 0 -1 -0 0
342 23 0 -1 -0 0
342 23 100 -1 -0 0
342 164 100 -1 -0 0
484 159 0 -1 0 0
484 222 0 -1 0 0
484 222 100 -1 0 0
484 159 100 -1 0 0
494 154 0 1 -0 0
494 222 0 1 -0 0
494 222 100 1 -0 0
494 154 100 1 -0 0
494 164 0 1 0 0
494 23 0 1 0 0
494 23 100 1 0 0
494 164 100 1 0 0
484 159 0 -1 -0 0
484 23 0 -1 -0 0
484 23 100 -1 -0 0
484 159 100 -1 -0 0
305 23 0 -0 1 0
342 23 0 -0 1 0
342 23 100 -0 1 0
305 23 100 -0 1 0
305 13 0 0 -1 0
347 13 0 0 -1 0
347 13 100 0 -1 0
305 13 100 0 -1 0
352 23 0 -0 1 0
382 23 0 -0 1 0
382 23 100 -0 1 0
352 23 100 -0 1 0
347 13 0 0 -1 0
382 13 0 0 -1 0
382 13 100 0 -1 0
347 13 100 0 -1 0
489 212 0 -0 -1 0
306 212 0 -0 -1 0
306 212 100 -0 -1 0
489 212 100 -0 -1 0
494 222 0 0 1 0
306 222 0 0 1 0
306 222 100 0 1 0
494 222 100 0 1 0
484 222 0 -0 1 0
527 222 0 -0 1 0
527 222 100 -0 1 0
484 222 100 -0 1 0
489 212 0 0 -1 0
527 212 0 0 -1 0
527 212 100 0 -1 0
489 212 100 0 -1 0
489 13 0 -0 -1 0
437 13 0 -0 -1 0
437 13 100 -0 -1 0
489 13 100 -0 -1 0
484 23 0 0 1 0
437 23 0 0 1 0
437 23 100 0 1 0
484 23 100 0 1 0
494 23 0 -0 1 0
527 23 0 -0 1 0
527 23 100 -0 1 0
494 23 100 -0 1 0
489 13 0 0 -1 0
527 13 0 0 -1 0
527 13 100 0 -1 0
489 13 100 0 -1 0
454 498 0 440.028564453125 483.77142333984375 0
454 488 0 440.028564453125 483.77142333984375 0
454 488 100 440.028564453125 483.77142333984375 0
454 498 100 440.028564453125 483.77142333984375 0
489 498 0 476.028564453125 483.77142333984375 0
489 488 0 476.028564453125 483.77142333984375 0
489 488 100 476.028564453125 483.77142333984375 0
489 498 100 476.028564453125 483.77142333984375 0
484 461 0 462.956512451171875 439.956512451171875 0
494 461 0 462.956512451171875 439.956512451171875 0
494 461 100 462.956512451171875 439.956512451171875 0
484 461 100 462.956512451171875 439.956512451171875 0
450 474 0 437.4615478515625 461.846160888671875 0
450 484 0 437.4615478515625 461.846160888671875 0
450 484 100 437.4615478515625 461.846160888671875 0
450 474 100 437.4615478515625 461.846160888671875 0
507 484 0 485.956512451171875 462.956512451171875 0
507 474 0 485.956512451171875 462.956512451171875 0
507 474 100 485.956512451171875 462.956512451171875 0
507 484 100 485.956512451171875 462.956512451171875 0
321 164 0 309.645172119140625 158.709671020507812 0
321 154 0 309.645172119140625 158.709671020507812 0
321 154 100 309.645172119140625 158.709671020507812 0
321 164 100 309.645172119140625 158.709671020507812 0
305 23 0 295.756744384765625 22.3783779144287109 0
305 13 0 295.756744384765625 22.3783779144287109 0
305 13 100 295.756744384765625 22.3783779144287109 0
305 23 100 295.756744384765625 22.3783779144287109 0
382 23 0 370.26666259765625 22.2333335876464844 0
382 13 0 370.26666259765625 22.2333335876464844 0
382 13 100 370.26666259765625 22.2333335876464844 0
382 23 100 370.26666259765625 22.2333335876464844 0
306 212 0 303.327880859375 210.841537475585938 0
306 222 0 303.327880859375 210.841537475585938 0
306 222 100 303.327880859375 210.841537475585938 0
306 212 100 303.327880859375 210.841537475585938 0
527 222 0 515.74420166015625 216.837203979492188 0
527 212 0 515.74420166015625 216.837203979492188 0
527 212 100 515.74420166015625 216.837203979492188 0
527 222 100 515.74420166015625 216.837203979492188 0
437 13 0 427.596160888671875 12.75 0
437 23 0 427.596160888671875 12.75 0
437 23 100 427.596160888671875 12.75 0
437 13 100 427.596160888671875 12.75 0
527 23 0 512.0302734375 22.3030300140380859 0
527 13 0 512.0302734375 22.3030300140380859 0
527 13 100 512.0302734375 22.3030300140380859 0
527 23 100 512.0302734375 22.3030300140380859 0
454 498 0 0 0 -1
454 488 0 0 0 -1
489 488 0 0 0 -1
489 498 0 0 0 -1
454 498 100 0 0 1
454 488 100 0 0 1
489 488 100 0 0 1
489 498 100 0 0 1
484 461 0 0 0 -1
494 461 0 0 0 -1
494 484 0 0 0 -1
484 484 0 0 0 -1
484 461 100 0 0 1
494 461 100 0 0 1
494 484 100 0 0 1
484 484 100 0 0 1
489 474 0 0 0 -1
494 484 0 0 0 -1
450 484 0 0 0 -1
450 474 0 0 0 -1
489 474 100 0 0 1
494 484 100 0 0 1
450 484 100 0 0 1
450 474 100 0 0 1
484 484 0 0 0 -1
489 474 0 0 0 -1
507 474 0 0 0 -1
507 484 0 0 0 -1
484 484 100 0 0 1
489 474 100 0 0 1
507 474 100 0 0 1
507 484 100 0 0 1
321 164 0 0 0 -1
321 154 0 0 0 -1
347 154 0 0 0 -1
352 164 0 0 0 -1
321 164 100 0 0 1
321 154 100 0 0 1
347 154 100 0 0 1
352 164 100 0 0 1
342 164 0 0 0 -1
347 154 0 0 0 -1
494 154 0 0 0 -1
494 164 0 0 0 -1
342 164 100 0 0 1
347 154 100 0 0 1
494 154 100 0 0 1
494 164 100 0 0 1
352 164 0 0 0 -1
342 164 0 0 0 -1
342 23 0 0 0 -1
352 23 0 0 0 -1
352 164 100 0 0 1
342 164 100 0 0 1
342 23 100 0 0 1
352 23 100 0 0 1
484 159 0 0 0 -1
494 154 0 0 0 -1
494 222 0 0 0 -1
484 222 0 0 0 -1
484 159 100 0 0 1
494 154 100 0 0 1
494 222 100 0 0 1
484 222 100 0 0 1
494 164 0 0 0 -1
484 159 0 0 0 -1
484 23 0 0 0 -1
494 23 0 0 0 -1
494 164 100 0 0 1
484 159 100 0 0 1
484 23 100 0 0 1
494 23 100 0 0 1
305 23 0 0 0 -1
305 13 0 0 0 -1
347 13 0 0 0 -1
342 23 0 0 0 -1
305 23 100 0 0 1
305 13 100 0 0 1
347 13 100 0 0 1
342 23 100 0 0 1
352 23 0 0 0 -1
347 13 0 0 0 -1
382 13 0 0 0 -1
382 23 0 0 0 -1
352 23 100 0 0 1
347 13 100 0 0 1
382 13 100 0 0 1
382 23 100 0 0 1
489 212 0 0 0 -1
494 222 0 0 0 -1
306 222 0 0 0 -1
306 212 0 0 0 -1
489 212 100 0 0 1
494 222 100 0 0 1
306 222 100 0 0 1
306 212 100 0 0 1
484 222 0 0 0 -1
489 212 0 0 0 -1
527 212 0 0 0 -1
527 222 0 0 0 -1
484 222 100 0 0 1
489 212 100 0 0 1
527 212 100 0 0 1
527 222 100 0 0 1
489 13 0 0 0 -1
484 23 0 0 0 -1
437 23 0 0 0 -1
437 13 0 0 0 -1
489 13 100 0 0 1
484 23 100 0 0 1
437 23 100 0 0 1
437 13 100 0 0 1
494 23 0 0 0 -1
489 13 0 0 0 -1
527 13 0 0 0 -1
527 23 0 0 0 -1
494 23 100 0 0 1
489 13 100 0 0 1
527 13 100 0 0 1
527 23 100 0 0 1
494 484 0 0 0 -1
489 474 0 0 0 -1
484 484 0 0 0 -1
494 484 100 0 0 1
489 474 100 0 0 1
484 484 100 0 0 1
347 154 0 0 0 -1
342 164 0 0 0 -1
352 164 0 0 0 -1
347 154 100 0 0 1
342 164 100 0 0 1
352 164 100 0 0 1
494 154 0 0 0 -1
484 159 0 0 0 -1
494 164 0 0 0 -1
494 154 100 0 0 1
484 159 100 0 0 1
494 164 100 0 0 1
347 13 0 0 0 -1
352 23 0 0 0 -1
342 23 0 0 0 -1
347 13 100 0 0 1
352 23 100 0 0 1
342 23 100 0 0 1
494 222 0 0 0 -1
489 212 0 0 0 -1
484 222 0 0 0 -1
494 222 100 0 0 1
489 212 100 0 0 1
484 222 100 0 0 1
484 23 0 0 0 -1
489 13 0 0 0 -1
494 23 0 0 0 -1
484 23 100 0 0 1
489 13 100 0 0 1
494 23 100 0 0 1
4 0 1 2 3
4 4 5 6 7
4 8 9 10 11
4 12 13 14 15
4 16 17 18 19
4 20 21 22 23
4 24 25 26 27
4 28 29 30 31
4 32 33 34 35
4 36 37 38 39
4 40 41 42 43
4 44 45 46 47
4 48 49 50 51
4 52 53 54 55
4 56 57 58 59
4 60 61 62 63
4 64 65 66 67
4 68 69 70 71
4 72 73 74 75
4 76 77 78 79
4 80 81 82 83
4 84 85 86 87
4 88 89 90 91
4 92 93 94 95
4 96 97 98 99
4 100 101 102 103
4 104 105 106 107
4 108 109 110 111
4 112 113 114 115
4 116 117 118 119
4 120 121 122 123
4 124 125 126 127
4 128 129 130 131
4 132 133 134 135
4 136 137 138 139
4 140 141 142 143
4 144 145 146 147
4 148 149 150 151
4 152 153 154 155
4 156 157 158 159
4 160 161 162 163
4 164 165 166 167
4 168 169 170 171
4 172 173 174 175
4 176 177 178 179
4 180 181 182 183
4 184 185 186 187
4 188 189 190 191
4 192 193 194 195
4 196 197 198 199
4 200 201 202 203
4 204 205 206 207
4 208 209 210 211
4 212 213 214 215
4 216 217 218 219
4 220 221 222 223
4 224 225 226 227
4 228 229 230 231
4 232 233 234 235
4 236 237 238 239
4 240 241 242 243
4 244 245 246 247
4 248 249 250 251
4 252 253 254 255
4 256 257 258 259
4 260 261 262 263
4 264 265 266 267
4 268 269 270 271
4 272 273 274 275
4 276 277 278 279
4 280 281 282 283
4 284 285 286 287
3 288 289 290
3 291 292 293
3 294 295 296
3 297 298 299
3 300 301 302
3 303 304 305
3 306 307 308
3 309 310 311
3 312 313 314
3 315 316 317
3 318 319 320
3 321 322 323
