ply
format ascii 1.0
element vertex 168
property float x
property float y
property float z
property float nx
property float ny
property float nz
element quads 42
property list uchar int vertex_indices
end_header
439 325 0 -0 1 0
502 325 0 -0 1 0
502 325 100 -0 1 0
439 325 100 -0 1 0
439 315 0 0 -1 0
502 315 0 0 -1 0
502 315 100 0 -1 0
439 315 100 0 -1 0
434 115 0 -1 0 0
434 206 0 -1 0 0
434 206 100 -1 0 0
434 115 100 -1 0 0
444 115 0 1 -0 0
444 206 0 1 -0 0
444 206 100 1 -0 0
444 115 100 1 -0 0
502 174 0 -0 1 0
667 174 0 -0 1 0
667 174 100 -0 1 0
502 174 100 -0 1 0
502 164 0 0 -1 0
667 164 0 0 -1 0
667 164 100 0 -1 0
502 164 100 0 -1 0
189 169 0 -1 0 0
189 203 0 -1 0 0
189 203 100 -1 0 0
189 169 100 -1 0 0
199 169 0 1 -0 0
199 203 0 1 -0 0
199 203 100 1 -0 0
199 169 100 1 -0 0
434 428 0 -1 0 0
434 454 0 -1 0 0
434 454 100 -1 0 0
434 428 100 -1 0 0
444 428 0 1 -0 0
444 454 0 1 -0 0
444 454 100 1 -0 0
444 428 100 1 -0 0
206 117 0 -1 0 0
206 320 0 -1 0 0
206 320 100 -1 0 0
206 117 100 -1 0 0
216 117 0 1 -0 0
216 320 0 1 -0 0
216 320 100 1 -0 0
216 117 100 1 -0 0
281 325 0 -0 1 0
370 325 0 -0 1 0
370 325 100 -0 1 0
281 325 100 -0 1 0
281 315 0 0 -1 0
370 315 0 0 -1 0
370 315 100 0 -1 0
281 315 100 0 -1 0
439 325 0 431.03173828125 319.841278076171875 0
439 315 0 431.03173828125 319.841278076171875 0
439 315 100 431.03173828125 319.841278076171875 0
439 325 100 431.03173828125 319.841278076171875 0
502 325 0 495.03173828125 319.841278076171875 0
502 315 0 495.03173828125 319.841278076171875 0
502 315 100 495.03173828125 319.841278076171875 0
502 325 100 495.03173828125 319.841278076171875 0
434 115 0 429.23077392578125 112.73626708984375 0
444 115 0 429.23077392578125 112.73626708984375 0
444 115 100 429.23077392578125 112.73626708984375 0
434 115 100 429.23077392578125 112.73626708984375 0
434 206 0 429.23077392578125 204.73626708984375 0
444 206 0 429.23077392578125 204.73626708984375 0
444 206 100 429.23077392578125 204.73626708984375 0
434 206 100 429.23077392578125 204.73626708984375 0
502 174 0 497.95758056640625 172.945449829101562 0
502 164 0 497.95758056640625 172.945449829101562 0
502 164 100 497.95758056640625 172.945449829101562 0
502 174 100 497.95758056640625 172.945449829101562 0
667 174 0 663.95758056640625 172.945449829101562 0
667 164 0 663.95758056640625 172.945449829101562 0
667 164 100 663.95758056640625 172.945449829101562 0
667 174 100 663.95758056640625 172.945449829101562 0
189 169 0 183.441177368164062 163.0294189453125 0
199 169 0 183.441177368164062 163.0294189453125 0
199 169 100 183.441177368164062 163.0294189453125 0
189 169 100 183.441177368164062 163.0294189453125 0
189 203 0 183.441177368164062 198.0294189453125 0
199 203 0 183.441177368164062 198.0294189453125 0
199 203 100 183.441177368164062 198.0294189453125 0
189 203 100 183.441177368164062 198.0294189453125 0
434 428 0 417.30767822265625 410.5384521484375 0
444 428 0 417.30767822265625 410.5384521484375 0
444 428 100 417.30767822265625 410.5384521484375 0
434 428 100 417.30767822265625 410.5384521484375 0
434 454 0 417.30767822265625 437.5384521484375 0
444 454 0 417.30767822265625 437.5384521484375 0
444 454 100 417.30767822265625 437.5384521484375 0
434 454 100 417.30767822265625 437.5384521484375 0
206 117 0 204.985214233398438 115.42364501953125 0
216 117 0 204.985214233398438 115.42364501953125 0
216 117 100 204.985214233398438 115.42364501953125 0
206 117 100 204.985214233398438 115.42364501953125 0
206 320 0 204.985214233398438 319.42364501953125 0
216 320 0 204.985214233398438 319.42364501953125 0
216 320 100 204.985214233398438 319.42364501953125 0
206 320 100 204.985214233398438 319.42364501953125 0
281 325 0 276.842681884765625 321.34832763671875 0
281 315 0 276.842681884765625 321.34832763671875 0
281 315 100 276.842681884765625 321.34832763671875 0
281 325 100 276.842681884765625 321.34832763671875 0
370 325 0 366.842681884765625 321.34832763671875 0
370 315 0 366.842681884765625 321.34832763671875 0
370 315 100 366.842681884765625 321.34832763671875 0
370 325 100 366.842681884765625 321.34832763671875 0
439 325 0 0 0 -1
439 315 0 0 0 -1
502 315 0 0 0 -1
502 325 0 0 0 -1
439 325 100 0 0 1
439 315 100 0 0 1
502 315 100 0 0 1
502 325 100 0 0 1
434 115 0 0 0 -1
444 115 0 0 0 -1
444 206 0 0 0 -1
434 206 0 0 0 -1
434 115 100 0 0 1
444 115 100 0 0 1
444 206 100 0 0 1
434 206 100 0 0 1
502 174 0 0 0 -1
502 164 0 0 0 -1
667 164 0 0 0 -1
667 174 0 0 0 -1
502 174 100 0 0 1
502 164 100 0 0 1
667 164 100 0 0 1
667 174 100 0 0 1
189 169 0 0 0 -1
199 169 0 0 0 -1
199 203 0 0 0 -1
189 203 0 0 0 -1
189 169 100 0 0 1
199 169 100 0 0 1
199 203 100 0 0 1
189 203 100 0 0 1
434 428 0 0 0 -1
444 428 0 0 0 -1
444 454 0 0 0 -1
434 454 0 0 0 -1
434 428 100 0 0 1
444 428 100 0 0 1
444 454 100 0 0 1
434 454 100 0 0 1
206 117 0 0 0 -1
216 117 0 0 0 -1
216 320 0 0 0 -1
206 320 0 0 0 -1
206 117 100 0 0 1
216 117 100 0 0 1
216 320 100 0 0 1
206 320 100 0 0 1
281 325 0 0 0 -1
281 315 0 0 0 -1
370 315 0 0 0 -1
370 325 0 0 0 -1
281 325 100 0 0 1
281 315 100 0 0 1
370 315 100 0 0 1
370 325 100 0 0 1
4 0 1 2 3
4 4 5 6 7
4 8 9 10 11
4 12 13 14 15
4 16 17 18 19
4 20 21 22 23
4 24 25 26 27
4 28 29 30 31
4 32 33 34 35
4 36 37 38 39
4 40 41 42 43
4 44 45 46 47
4 48 49 50 51
4 52 53 54 55
4 56 57 58 59
4 60 61 62 63
4 64 65 66 67
4 68 69 70 71
4 72 73 74 75
4 76 77 78 79
4 80 81 82 83
4 84 85 86 87
4 88 89 90 91
4 92 93 94 95
4 96 97 98 99
4 100 101 102 103
4 104 105 106 107
4 108 109 110 111
4 112 113 114 115
4 116 117 118 119
4 120 121 122 123
4 124 125 126 127
4 128 129 130 131
4 132 133 134 135
4 136 137 138 139
4 140 141 142 143
4 144 145 146 147
4 148 149 150 151
4 152 153 154 155
4 156 157 158 159
4 160 161 162 163
4 164 165 166 167
