ply
format ascii 1.0
element vertex 382
property float x
property float y
property float z
property float nx
property float ny
property float nz
element quads 85
property list uchar int vertex_indices
element triads 14
property list uchar int vertex_indices
end_header
175 413 0 -0 1 0
556 413 0 -0 1 0
556 413 100 -0 1 0
175 413 100 -0 1 0
185 403 0 0 -1 0
556 403 0 0 -1 0
556 403 100 0 -1 0
185 403 100 0 -1 0
185 403 0 1 0 0
185 101 0 1 0 0
185 101 100 1 0 0
185 403 100 1 0 0
175 413 0 -1 -0 0
175 101 0 -1 -0 0
175 101 100 -1 -0 0
175 413 100 -1 -0 0
405 106 0 -0 1 0
456 106 0 -0 1 0
456 106 100 -0 1 0
405 106 100 -0 1 0
405 96 0 0 -1 0
466 96 0 0 -1 0
466 96 100 0 -1 0
405 96 100 0 -1 0
456 106 0 -1 0 0
456 194 0 -1 0 0
456 194 100 -1 0 0
456 106 100 -1 0 0
466 96 0 1 -0 0
466 194 0 1 -0 0
466 194 100 1 -0 0
466 96 100 1 -0 0
551 204 0 -1 0 0
551 343 0 -1 0 0
551 343 100 -1 0 0
551 204 100 -1 0 0
561 194 0 1 -0 0
561 343 0 1 -0 0
561 343 100 1 -0 0
561 194 100 1 -0 0
561 194 0 -0 -1 0
466 194 0 -0 -1 0
466 194 100 -0 -1 0
561 194 100 -0 -1 0
551 204 0 0 1 0
461 204 0 0 1 0
461 204 100 0 1 0
551 204 100 0 1 0
269 106 0 -0 1 0
294 106 0 -0 1 0
294 106 100 -0 1 0
269 106 100 -0 1 0
269 96 0 0 -1 0
299 96 0 0 -1 0
299 96 100 0 -1 0
269 96 100 0 -1 0
304 106 0 -0 1 0
347 106 0 -0 1 0
347 106 100 -0 1 0
304 106 100 -0 1 0
299 96 0 0 -1 0
347 96 0 0 -1 0
347 96 100 0 -1 0
299 96 100 0 -1 0
294 106 0 -1 0 0
294 204 0 -1 0 0
294 204 100 -1 0 0
294 106 100 -1 0 0
304 106 0 1 -0 0
304 204 0 1 -0 0
304 204 100 1 -0 0
304 106 100 1 -0 0
352 355 0 1 0 0
352 269 0 1 0 0
352 269 100 1 0 0
352 355 100 1 0 0
342 355 0 -1 -0 0
342 264 0 -1 -0 0
342 264 100 -1 -0 0
342 355 100 -1 -0 0
342 274 0 -0 1 0
386 274 0 -0 1 0
386 274 100 -0 1 0
342 274 100 -0 1 0
342 264 0 0 -1 0
391 264 0 0 -1 0
391 264 100 0 -1 0
342 264 100 0 -1 0
352 269 0 1 0 0
352 194 0 1 0 0
352 194 100 1 0 0
352 269 100 1 0 0
342 274 0 -1 -0 0
342 194 0 -1 -0 0
342 194 100 -1 -0 0
342 274 100 -1 -0 0
456 194 0 -0 -1 0
414 194 0 -0 -1 0
414 194 100 -0 -1 0
456 194 100 -0 -1 0
461 204 0 0 1 0
419 204 0 0 1 0
419 204 100 0 1 0
461 204 100 0 1 0
424 274 0 1 0 0
424 194 0 1 0 0
424 194 100 1 0 0
424 274 100 1 0 0
414 264 0 -1 -0 0
414 194 0 -1 -0 0
414 194 100 -1 -0 0
414 264 100 -1 -0 0
414 264 0 -0 -1 0
381 264 0 -0 -1 0
381 264 100 -0 -1 0
414 264 100 -0 -1 0
424 274 0 0 1 0
386 274 0 0 1 0
386 274 100 0 1 0
424 274 100 0 1 0
424 194 0 -0 -1 0
342 194 0 -0 -1 0
342 194 100 -0 -1 0
424 194 100 -0 -1 0
419 204 0 0 1 0
347 204 0 0 1 0
347 204 100 0 1 0
419 204 100 0 1 0
391 354 0 1 0 0
391 264 0 1 0 0
391 264 100 1 0 0
391 354 100 1 0 0
381 354 0 -1 -0 0
381 264 0 -1 -0 0
381 264 100 -1 -0 0
381 354 100 -1 -0 0
299 194 0 -0 -1 0
257 194 0 -0 -1 0
257 194 100 -0 -1 0
299 194 100 -0 -1 0
304 204 0 0 1 0
257 204 0 0 1 0
257 204 100 0 1 0
304 204 100 0 1 0
294 204 0 -0 1 0
347 204 0 -0 1 0
347 204 100 -0 1 0
294 204 100 -0 1 0
299 194 0 0 -1 0
352 194 0 0 -1 0
352 194 100 0 -1 0
299 194 100 0 -1 0
556 413 0 555.54071044921875 411.916015625 0
556 403 0 555.54071044921875 411.916015625 0
556 403 100 555.54071044921875 411.916015625 0
556 413 100 555.54071044921875 411.916015625 0
405 106 0 396.058837890625 103.92156982421875 0
405 96 0 396.058837890625 103.92156982421875 0
405 96 100 396.058837890625 103.92156982421875 0
405 106 100 396.058837890625 103.92156982421875 0
185 101 0 184.387420654296875 99.6655654907226562 0
175 101 0 184.387420654296875 99.6655654907226562 0
175 101 100 184.387420654296875 99.6655654907226562 0
185 101 100 184.387420654296875 99.6655654907226562 0
551 343 0 547.03594970703125 341.532379150390625 0
561 343 0 547.03594970703125 341.532379150390625 0
561 343 100 547.03594970703125 341.532379150390625 0
551 343 100 547.03594970703125 341.532379150390625 0
269 106 0 257.239990234375 101.760002136230469 0
269 96 0 257.239990234375 101.760002136230469 0
269 96 100 257.239990234375 101.760002136230469 0
269 106 100 257.239990234375 101.760002136230469 0
347 106 0 339.93023681640625 103.534881591796875 0
347 96 0 339.93023681640625 103.534881591796875 0
347 96 100 339.93023681640625 103.534881591796875 0
347 106 100 339.93023681640625 103.534881591796875 0
352 355 0 347.906982421875 351.872100830078125 0
342 355 0 347.906982421875 351.872100830078125 0
342 355 100 347.906982421875 351.872100830078125 0
352 355 100 347.906982421875 351.872100830078125 0
391 354 0 386.655548095703125 351.066680908203125 0
381 354 0 386.655548095703125 351.066680908203125 0
381 354 100 386.655548095703125 351.066680908203125 0
391 354 100 386.655548095703125 351.066680908203125 0
257 194 0 249.880950927734375 189.380950927734375 0
257 204 0 249.880950927734375 189.380950927734375 0
257 204 100 249.880950927734375 189.380950927734375 0
257 194 100 249.880950927734375 189.380950927734375 0
175 413 0 0 0 -1
185 403 0 0 0 -1
556 403 0 0 0 -1
556 413 0 0 0 -1
175 413 100 0 0 1
185 403 100 0 0 1
556 403 100 0 0 1
556 413 100 0 0 1
185 403 0 0 0 -1
175 413 0 0 0 -1
175 101 0 0 0 -1
185 101 0 0 0 -1
185 403 100 0 0 1
175 413 100 0 0 1
175 101 100 0 0 1
185 101 100 0 0 1
405 106 0 0 0 -1
405 96 0 0 0 -1
466 96 0 0 0 -1
456 106 0 0 0 -1
405 106 100 0 0 1
405 96 100 0 0 1
466 96 100 0 0 1
456 106 100 0 0 1
456 106 0 0 0 -1
466 96 0 0 0 -1
466 194 0 0 0 -1
456 194 0 0 0 -1
456 106 100 0 0 1
466 96 100 0 0 1
466 194 100 0 0 1
456 194 100 0 0 1
551 204 0 0 0 -1
561 194 0 0 0 -1
561 343 0 0 0 -1
551 343 0 0 0 -1
551 204 100 0 0 1
561 194 100 0 0 1
561 343 100 0 0 1
551 343 100 0 0 1
561 194 0 0 0 -1
551 204 0 0 0 -1
461 204 0 0 0 -1
466 194 0 0 0 -1
561 194 100 0 0 1
551 204 100 0 0 1
461 204 100 0 0 1
466 194 100 0 0 1
269 106 0 0 0 -1
269 96 0 0 0 -1
299 96 0 0 0 -1
294 106 0 0 0 -1
269 106 100 0 0 1
269 96 100 0 0 1
299 96 100 0 0 1
294 106 100 0 0 1
304 106 0 0 0 -1
299 96 0 0 0 -1
347 96 0 0 0 -1
347 106 0 0 0 -1
304 106 100 0 0 1
299 96 100 0 0 1
347 96 100 0 0 1
347 106 100 0 0 1
294 106 0 0 0 -1
304 106 0 0 0 -1
304 204 0 0 0 -1
294 204 0 0 0 -1
294 106 100 0 0 1
304 106 100 0 0 1
304 204 100 0 0 1
294 204 100 0 0 1
352 355 0 0 0 -1
342 355 0 0 0 -1
342 264 0 0 0 -1
352 269 0 0 0 -1
352 355 100 0 0 1
342 355 100 0 0 1
342 264 100 0 0 1
352 269 100 0 0 1
342 274 0 0 0 -1
342 264 0 0 0 -1
391 264 0 0 0 -1
386 274 0 0 0 -1
342 274 100 0 0 1
342 264 100 0 0 1
391 264 100 0 0 1
386 274 100 0 0 1
352 269 0 0 0 -1
342 274 0 0 0 -1
342 194 0 0 0 -1
352 194 0 0 0 -1
352 269 100 0 0 1
342 274 100 0 0 1
342 194 100 0 0 1
352 194 100 0 0 1
456 194 0 0 0 -1
461 204 0 0 0 -1
419 204 0 0 0 -1
414 194 0 0 0 -1
456 194 100 0 0 1
461 204 100 0 0 1
419 204 100 0 0 1
414 194 100 0 0 1
424 274 0 0 0 -1
414 264 0 0 0 -1
414 194 0 0 0 -1
424 194 0 0 0 -1
424 274 100 0 0 1
414 264 100 0 0 1
414 194 100 0 0 1
424 194 100 0 0 1
414 264 0 0 0 -1
424 274 0 0 0 -1
386 274 0 0 0 -1
381 264 0 0 0 -1
414 264 100 0 0 1
424 274 100 0 0 1
386 274 100 0 0 1
381 264 100 0 0 1
424 194 0 0 0 -1
419 204 0 0 0 -1
347 204 0 0 0 -1
342 194 0 0 0 -1
424 194 100 0 0 1
419 204 100 0 0 1
347 204 100 0 0 1
342 194 100 0 0 1
391 354 0 0 0 -1
381 354 0 0 0 -1
381 264 0 0 0 -1
391 264 0 0 0 -1
391 354 100 0 0 1
381 354 100 0 0 1
381 264 100 0 0 1
391 264 100 0 0 1
299 194 0 0 0 -1
304 204 0 0 0 -1
257 204 0 0 0 -1
257 194 0 0 0 -1
299 194 100 0 0 1
304 204 100 0 0 1
257 204 100 0 0 1
257 194 100 0 0 1
294 204 0 0 0 -1
299 194 0 0 0 -1
352 194 0 0 0 -1
347 204 0 0 0 -1
294 204 100 0 0 1
299 194 100 0 0 1
352 194 100 0 0 1
347 204 100 0 0 1
299 96 0 0 0 -1
304 106 0 0 0 -1
294 106 0 0 0 -1
299 96 100 0 0 1
304 106 100 0 0 1
294 106 100 0 0 1
342 264 0 0 0 -1
342 274 0 0 0 -1
352 269 0 0 0 -1
342 264 100 0 0 1
342 274 100 0 0 1
352 269 100 0 0 1
466 194 0 0 0 -1
461 204 0 0 0 -1
456 194 0 0 0 -1
466 194 100 0 0 1
461 204 100 0 0 1
456 194 100 0 0 1
414 194 0 0 0 -1
419 204 0 0 0 -1
424 194 0 0 0 -1
414 194 100 0 0 1
419 204 100 0 0 1
424 194 100 0 0 1
381 264 0 0 0 -1
386 274 0 0 0 -1
391 264 0 0 0 -1
381 264 100 0 0 1
386 274 100 0 0 1
391 264 100 0 0 1
304 204 0 0 0 -1
299 194 0 0 0 -1
294 204 0 0 0 -1
304 204 100 0 0 1
299 194 100 0 0 1
294 204 100 0 0 1
342 194 0 0 0 -1
347 204 0 0 0 -1
352 194 0 0 0 -1
342 194 100 0 0 1
347 204 100 0 0 1
352 194 100 0 0 1
4 0 1 2 3
4 4 5 6 7
4 8 9 10 11
4 12 13 14 15
4 16 17 18 19
4 20 21 22 23
4 24 25 26 27
4 28 29 30 31
4 32 33 34 35
4 36 37 38 39
4 40 41 42 43
4 44 45 46 47
4 48 49 50 51
4 52 53 54 55
4 56 57 58 59
4 60 61 62 63
4 64 65 66 67
4 68 69 70 71
4 72 73 74 75
4 76 77 78 79
4 80 81 82 83
4 84 85 86 87
4 88 89 90 91
4 92 93 94 95
4 96 97 98 99
4 100 101 102 103
4 104 105 106 107
4 108 109 110 111
4 112 113 114 115
4 116 117 118 119
4 120 121 122 123
4 124 125 126 127
4 128 129 130 131
4 132 133 134 135
4 136 137 138 139
4 140 141 142 143
4 144 145 146 147
4 148 149 150 151
4 152 153 154 155
4 156 157 158 159
4 160 161 162 163
4 164 165 166 167
4 168 169 170 171
4 172 173 174 175
4 176 177 178 179
4 180 181 182 183
4 184 185 186 187
4 188 189 190 191
4 192 193 194 195
4 196 197 198 199
4 200 201 202 203
4 204 205 206 207
4 208 209 210 211
4 212 213 214 215
4 216 217 218 219
4 220 221 222 223
4 224 225 226 227
4 228 229 230 231
4 232 233 234 235
4 236 237 238 239
4 240 241 242 243
4 244 245 246 247
4 248 249 250 251
4 252 253 254 255
4 256 257 258 259
4 260 261 262 263
4 264 265 266 267
4 268 269 270 271
4 272 273 274 275
4 276 277 278 279
4 280 281 282 283
4 284 285 286 287
4 288 289 290 291
4 292 293 294 295
4 296 297 298 299
4 300 301 302 303
4 304 305 306 307
4 308 309 310 311
4 312 313 314 315
4 316 317 318 319
4 320 321 322 323
4 324 325 326 327
4 328 329 330 331
4 332 333 334 335
4 336 337 338 339
3 340 341 342
3 343 344 345
3 346 347 348
3 349 350 351
3 352 353 354
3 355 356 357
3 358 359 360
3 361 362 363
3 364 365 366
3 367 368 369
3 370 371 372
3 373 374 375
3 376 377 378
3 379 380 381
