ply
format ascii 1.0
element vertex 176
property float x
property float y
property float z
property float nx
property float ny
property float nz
element quads 44
property list uchar int vertex_indices
end_header
203 327 0 1 0 0
203 85 0 1 0 0
203 85 100 1 0 0
203 327 100 1 0 0
193 337 0 -1 -0 0
193 75 0 -1 -0 0
193 75 100 -1 -0 0
193 337 100 -1 -0 0
193 337 0 -0 1 0
273 337 0 -0 1 0
273 337 100 -0 1 0
193 337 100 -0 1 0
203 327 0 0 -1 0
273 327 0 0 -1 0
273 327 100 0 -1 0
203 327 100 0 -1 0
203 85 0 -0 1 0
243 85 0 -0 1 0
243 85 100 -0 1 0
203 85 100 -0 1 0
193 75 0 0 -1 0
243 75 0 0 -1 0
243 75 100 0 -1 0
193 75 100 0 -1 0
508 369 0 1 0 0
508 288 0 1 0 0
508 288 100 1 0 0
508 369 100 1 0 0
498 369 0 -1 -0 0
498 288 0 -1 -0 0
498 288 100 -1 -0 0
498 369 100 -1 -0 0
561 132 0 -0 1 0
629 132 0 -0 1 0
629 132 100 -0 1 0
561 132 100 -0 1 0
571 122 0 0 -1 0
639 122 0 0 -1 0
639 122 100 0 -1 0
571 122 100 0 -1 0
571 122 0 1 0 0
571 52 0 1 0 0
571 52 100 1 0 0
571 122 100 1 0 0
561 132 0 -1 -0 0
561 52 0 -1 -0 0
561 52 100 -1 -0 0
561 132 100 -1 -0 0
629 132 0 -1 0 0
629 534 0 -1 0 0
629 534 100 -1 0 0
629 132 100 -1 0 0
639 122 0 1 -0 0
639 544 0 1 -0 0
639 544 100 1 -0 0
639 122 100 1 -0 0
629 534 0 -0 -1 0
503 534 0 -0 -1 0
503 534 100 -0 -1 0
629 534 100 -0 -1 0
639 544 0 0 1 0
503 544 0 0 1 0
503 544 100 0 1 0
639 544 100 0 1 0
271 320 0 -0 1 0
465 320 0 -0 1 0
465 320 100 -0 1 0
271 320 100 -0 1 0
271 310 0 0 -1 0
465 310 0 0 -1 0
465 310 100 0 -1 0
271 310 100 0 -1 0
508 369 0 501.7283935546875 365.4444580078125 0
498 369 0 501.7283935546875 365.4444580078125 0
498 369 100 501.7283935546875 365.4444580078125 0
508 369 100 501.7283935546875 365.4444580078125 0
508 288 0 501.7283935546875 283.4444580078125 0
498 288 0 501.7283935546875 283.4444580078125 0
498 288 100 501.7283935546875 283.4444580078125 0
508 288 100 501.7283935546875 283.4444580078125 0
243 85 0 237.925003051757812 82.875 0
243 75 0 237.925003051757812 82.875 0
243 75 100 237.925003051757812 82.875 0
243 85 100 237.925003051757812 82.875 0
503 534 0 498.0079345703125 529.76190185546875 0
503 544 0 498.0079345703125 529.76190185546875 0
503 544 100 498.0079345703125 529.76190185546875 0
503 534 100 498.0079345703125 529.76190185546875 0
271 320 0 268.60308837890625 318.35052490234375 0
271 310 0 268.60308837890625 318.35052490234375 0
271 310 100 268.60308837890625 318.35052490234375 0
271 320 100 268.60308837890625 318.35052490234375 0
465 320 0 463.60308837890625 318.35052490234375 0
465 310 0 463.60308837890625 318.35052490234375 0
465 310 100 463.60308837890625 318.35052490234375 0
465 320 100 463.60308837890625 318.35052490234375 0
273 337 0 270.587493896484375 332.787506103515625 0
273 327 0 270.587493896484375 332.787506103515625 0
273 327 100 270.587493896484375 332.787506103515625 0
273 337 100 270.587493896484375 332.787506103515625 0
571 52 0 562.84283447265625 50.25714111328125 0
561 52 0 562.84283447265625 50.25714111328125 0
561 52 100 562.84283447265625 50.25714111328125 0
571 52 100 562.84283447265625 50.25714111328125 0
203 327 0 0 0 -1
193 337 0 0 0 -1
193 75 0 0 0 -1
203 85 0 0 0 -1
203 327 100 0 0 1
193 337 100 0 0 1
193 75 100 0 0 1
203 85 100 0 0 1
193 337 0 0 0 -1
203 327 0 0 0 -1
273 327 0 0 0 -1
273 337 0 0 0 -1
193 337 100 0 0 1
203 327 100 0 0 1
273 327 100 0 0 1
273 337 100 0 0 1
203 85 0 0 0 -1
193 75 0 0 0 -1
243 75 0 0 0 -1
243 85 0 0 0 -1
203 85 100 0 0 1
193 75 100 0 0 1
243 75 100 0 0 1
243 85 100 0 0 1
508 369 0 0 0 -1
498 369 0 0 0 -1
498 288 0 0 0 -1
508 288 0 0 0 -1
508 369 100 0 0 1
498 369 100 0 0 1
498 288 100 0 0 1
508 288 100 0 0 1
561 132 0 0 0 -1
571 122 0 0 0 -1
639 122 0 0 0 -1
629 132 0 0 0 -1
561 132 100 0 0 1
571 122 100 0 0 1
639 122 100 0 0 1
629 132 100 0 0 1
571 122 0 0 0 -1
561 132 0 0 0 -1
561 52 0 0 0 -1
571 52 0 0 0 -1
571 122 100 0 0 1
561 132 100 0 0 1
561 52 100 0 0 1
571 52 100 0 0 1
629 132 0 0 0 -1
639 122 0 0 0 -1
639 544 0 0 0 -1
629 534 0 0 0 -1
629 132 100 0 0 1
639 122 100 0 0 1
639 544 100 0 0 1
629 534 100 0 0 1
629 534 0 0 0 -1
639 544 0 0 0 -1
503 544 0 0 0 -1
503 534 0 0 0 -1
629 534 100 0 0 1
639 544 100 0 0 1
503 544 100 0 0 1
503 534 100 0 0 1
271 320 0 0 0 -1
271 310 0 0 0 -1
465 310 0 0 0 -1
465 320 0 0 0 -1
271 320 100 0 0 1
271 310 100 0 0 1
465 310 100 0 0 1
465 320 100 0 0 1
4 0 1 2 3
4 4 5 6 7
4 8 9 10 11
4 12 13 14 15
4 16 17 18 19
4 20 21 22 23
4 24 25 26 27
4 28 29 30 31
4 32 33 34 35
4 36 37 38 39
4 40 41 42 43
4 44 45 46 47
4 48 49 50 51
4 52 53 54 55
4 56 57 58 59
4 60 61 62 63
4 64 65 66 67
4 68 69 70 71
4 72 73 74 75
4 76 77 78 79
4 80 81 82 83
4 84 85 86 87
4 88 89 90 91
4 92 93 94 95
4 96 97 98 99
4 100 101 102 103
4 104 105 106 107
4 108 109 110 111
4 112 113 114 115
4 116 117 118 119
4 120 121 122 123
4 124 125 126 127
4 128 129 130 131
4 132 133 134 135
4 136 137 138 139
4 140 141 142 143
4 144 145 146 147
4 148 149 150 151
4 152 153 154 155
4 156 157 158 159
4 160 161 162 163
4 164 165 166 167
4 168 169 170 171
4 172 173 174 175
