ply
format ascii 1.0
element vertex 250
property float x
property float y
property float z
property float nx
property float ny
property float nz
element quads 61
property list uchar int vertex_indices
element triads 2
property list uchar int vertex_indices
end_header
463 402 0 1 0 0
463 366 0 1 0 0
463 366 100 1 0 0
463 402 100 1 0 0
453 402 0 -1 -0 0
453 376 0 -1 -0 0
453 376 100 -1 -0 0
453 402 100 -1 -0 0
463 366 0 -0 -1 0
393 366 0 -0 -1 0
393 366 100 -0 -1 0
463 366 100 -0 -1 0
453 376 0 0 1 0
388 376 0 0 1 0
388 376 100 0 1 0
453 376 100 0 1 0
610 39 0 -1 0 0
610 527 0 -1 0 0
610 527 100 -1 0 0
610 39 100 -1 0 0
620 29 0 1 -0 0
620 537 0 1 -0 0
620 537 100 1 -0 0
620 29 100 1 -0 0
620 29 0 -0 -1 0
458 29 0 -0 -1 0
458 29 100 -0 -1 0
620 29 100 -0 -1 0
610 39 0 0 1 0
458 39 0 0 1 0
458 39 100 0 1 0
610 39 100 0 1 0
610 527 0 -0 -1 0
563 527 0 -0 -1 0
563 527 100 -0 -1 0
610 527 100 -0 -1 0
620 537 0 0 1 0
563 537 0 0 1 0
563 537 100 0 1 0
620 537 100 0 1 0
172 158 0 -1 0 0
172 411 0 -1 0 0
172 411 100 -1 0 0
172 158 100 -1 0 0
182 158 0 1 -0 0
182 411 0 1 -0 0
182 411 100 1 -0 0
182 158 100 1 -0 0
458 537 0 -0 1 0
509 537 0 -0 1 0
509 537 100 -0 1 0
458 537 100 -0 1 0
458 527 0 0 -1 0
509 527 0 0 -1 0
509 527 100 0 -1 0
458 527 100 0 -1 0
266 371 0 -1 0 0
266 411 0 -1 0 0
266 411 100 -1 0 0
266 371 100 -1 0 0
276 371 0 1 -0 0
276 411 0 1 -0 0
276 411 100 1 -0 0
276 371 100 1 -0 0
624 69 0 -1 0 0
624 111 0 -1 0 0
624 111 100 -1 0 0
624 69 100 -1 0 0
634 69 0 1 -0 0
634 111 0 1 -0 0
634 111 100 1 -0 0
634 69 100 1 -0 0
398 376 0 1 0 0
398 302 0 1 0 0
398 302 100 1 0 0
398 376 100 1 0 0
388 376 0 -1 -0 0
388 302 0 -1 -0 0
388 302 100 -1 -0 0
388 376 100 -1 -0 0
393 366 0 -0 -1 0
358 366 0 -0 -1 0
358 366 100 -0 -1 0
393 366 100 -0 -1 0
398 376 0 0 1 0
348 376 0 0 1 0
348 376 100 0 1 0
398 376 100 0 1 0
348 332 0 -1 0 0
348 376 0 -1 0 0
348 376 100 -1 0 0
348 332 100 -1 0 0
358 332 0 1 -0 0
358 366 0 1 -0 0
358 366 100 1 -0 0
358 332 100 1 -0 0
463 402 0 450.138885498046875 391.833343505859375 0
453 402 0 450.138885498046875 391.833343505859375 0
453 402 100 450.138885498046875 391.833343505859375 0
463 402 100 450.138885498046875 391.833343505859375 0
172 158 0 171.320159912109375 156.37548828125 0
182 158 0 171.320159912109375 156.37548828125 0
182 158 100 171.320159912109375 156.37548828125 0
172 158 100 171.320159912109375 156.37548828125 0
172 411 0 171.320159912109375 410.37548828125 0
182 411 0 171.320159912109375 410.37548828125 0
182 411 100 171.320159912109375 410.37548828125 0
172 411 100 171.320159912109375 410.37548828125 0
458 29 0 454.1728515625 28.8209877014160156 0
458 39 0 454.1728515625 28.8209877014160156 0
458 39 100 454.1728515625 28.8209877014160156 0
458 29 100 454.1728515625 28.8209877014160156 0
458 537 0 448.019622802734375 526.4705810546875 0
458 527 0 448.019622802734375 526.4705810546875 0
458 527 100 448.019622802734375 526.4705810546875 0
458 537 100 448.019622802734375 526.4705810546875 0
509 537 0 500.019622802734375 526.4705810546875 0
509 527 0 500.019622802734375 526.4705810546875 0
509 527 100 500.019622802734375 526.4705810546875 0
509 537 100 500.019622802734375 526.4705810546875 0
266 371 0 259.350006103515625 360.725006103515625 0
276 371 0 259.350006103515625 360.725006103515625 0
276 371 100 259.350006103515625 360.725006103515625 0
266 371 100 259.350006103515625 360.725006103515625 0
266 411 0 259.350006103515625 401.725006103515625 0
276 411 0 259.350006103515625 401.725006103515625 0
276 411 100 259.350006103515625 401.725006103515625 0
266 411 100 259.350006103515625 401.725006103515625 0
624 69 0 609.14288330078125 66.3571395874023438 0
634 69 0 609.14288330078125 66.3571395874023438 0
634 69 100 609.14288330078125 66.3571395874023438 0
624 69 100 609.14288330078125 66.3571395874023438 0
624 111 0 609.14288330078125 109.357139587402344 0
634 111 0 609.14288330078125 109.357139587402344 0
634 111 100 609.14288330078125 109.357139587402344 0
624 111 100 609.14288330078125 109.357139587402344 0
563 527 0 550.02130126953125 515.7872314453125 0
563 537 0 550.02130126953125 515.7872314453125 0
563 537 100 550.02130126953125 515.7872314453125 0
563 527 100 550.02130126953125 515.7872314453125 0
398 302 0 392.621612548828125 296.918914794921875 0
388 302 0 392.621612548828125 296.918914794921875 0
388 302 100 392.621612548828125 296.918914794921875 0
398 302 100 392.621612548828125 296.918914794921875 0
348 332 0 340.090911865234375 323.454559326171875 0
358 332 0 340.090911865234375 323.454559326171875 0
358 332 100 340.090911865234375 323.454559326171875 0
348 332 100 340.090911865234375 323.454559326171875 0
463 402 0 0 0 -1
453 402 0 0 0 -1
453 376 0 0 0 -1
463 366 0 0 0 -1
463 402 100 0 0 1
453 402 100 0 0 1
453 376 100 0 0 1
463 366 100 0 0 1
463 366 0 0 0 -1
453 376 0 0 0 -1
388 376 0 0 0 -1
393 366 0 0 0 -1
463 366 100 0 0 1
453 376 100 0 0 1
388 376 100 0 0 1
393 366 100 0 0 1
610 39 0 0 0 -1
620 29 0 0 0 -1
620 537 0 0 0 -1
610 527 0 0 0 -1
610 39 100 0 0 1
620 29 100 0 0 1
620 537 100 0 0 1
610 527 100 0 0 1
620 29 0 0 0 -1
610 39 0 0 0 -1
458 39 0 0 0 -1
458 29 0 0 0 -1
620 29 100 0 0 1
610 39 100 0 0 1
458 39 100 0 0 1
458 29 100 0 0 1
610 527 0 0 0 -1
620 537 0 0 0 -1
563 537 0 0 0 -1
563 527 0 0 0 -1
610 527 100 0 0 1
620 537 100 0 0 1
563 537 100 0 0 1
563 527 100 0 0 1
172 158 0 0 0 -1
182 158 0 0 0 -1
182 411 0 0 0 -1
172 411 0 0 0 -1
172 158 100 0 0 1
182 158 100 0 0 1
182 411 100 0 0 1
172 411 100 0 0 1
458 537 0 0 0 -1
458 527 0 0 0 -1
509 527 0 0 0 -1
509 537 0 0 0 -1
458 537 100 0 0 1
458 527 100 0 0 1
509 527 100 0 0 1
509 537 100 0 0 1
266 371 0 0 0 -1
276 371 0 0 0 -1
276 411 0 0 0 -1
266 411 0 0 0 -1
266 371 100 0 0 1
276 371 100 0 0 1
276 411 100 0 0 1
266 411 100 0 0 1
624 69 0 0 0 -1
634 69 0 0 0 -1
634 111 0 0 0 -1
624 111 0 0 0 -1
624 69 100 0 0 1
634 69 100 0 0 1
634 111 100 0 0 1
624 111 100 0 0 1
398 376 0 0 0 -1
388 376 0 0 0 -1
388 302 0 0 0 -1
398 302 0 0 0 -1
398 376 100 0 0 1
388 376 100 0 0 1
388 302 100 0 0 1
398 302 100 0 0 1
393 366 0 0 0 -1
398 376 0 0 0 -1
348 376 0 0 0 -1
358 366 0 0 0 -1
393 366 100 0 0 1
398 376 100 0 0 1
348 376 100 0 0 1
358 366 100 0 0 1
348 332 0 0 0 -1
358 332 0 0 0 -1
358 366 0 0 0 -1
348 376 0 0 0 -1
348 332 100 0 0 1
358 332 100 0 0 1
358 366 100 0 0 1
348 376 100 0 0 1
388 376 0 0 0 -1
398 376 0 0 0 -1
393 366 0 0 0 -1
388 376 100 0 0 1
398 376 100 0 0 1
393 366 100 0 0 1
4 0 1 2 3
4 4 5 6 7
4 8 9 10 11
4 12 13 14 15
4 16 17 18 19
4 20 21 22 23
4 24 25 26 27
4 28 29 30 31
4 32 33 34 35
4 36 37 38 39
4 40 41 42 43
4 44 45 46 47
4 48 49 50 51
4 52 53 54 55
4 56 57 58 59
4 60 61 62 63
4 64 65 66 67
4 68 69 70 71
4 72 73 74 75
4 76 77 78 79
4 80 81 82 83
4 84 85 86 87
4 88 89 90 91
4 92 93 94 95
4 96 97 98 99
4 100 101 102 103
4 104 105 106 107
4 108 109 110 111
4 112 113 114 115
4 116 117 118 119
4 120 121 122 123
4 124 125 126 127
4 128 129 130 131
4 132 133 134 135
4 136 137 138 139
4 140 141 142 143
4 144 145 146 147
4 148 149 150 151
4 152 153 154 155
4 156 157 158 159
4 160 161 162 163
4 164 165 166 167
4 168 169 170 171
4 172 173 174 175
4 176 177 178 179
4 180 181 182 183
4 184 185 186 187
4 188 189 190 191
4 192 193 194 195
4 196 197 198 199
4 200 201 202 203
4 204 205 206 207
4 208 209 210 211
4 212 213 214 215
4 216 217 218 219
4 220 221 222 223
4 224 225 226 227
4 228 229 230 231
4 232 233 234 235
4 236 237 238 239
4 240 241 242 243
3 244 245 246
3 247 248 249
