ply
format ascii 1.0
element vertex 946
property float x
property float y
property float z
property float nx
property float ny
property float nz
element quads 209
property list uchar int vertex_indices
element triads 42
property list uchar int vertex_indices
end_header
170 33 0 -0 1 0
279 33 0 -0 1 0
279 33 100 -0 1 0
170 33 100 -0 1 0
160 23 0 0 -1 0
289 23 0 0 -1 0
289 23 100 0 -1 0
160 23 100 0 -1 0
160 23 0 -1 0 0
160 404 0 -1 0 0
160 404 100 -1 0 0
160 23 100 -1 0 0
170 33 0 1 -0 0
170 404 0 1 -0 0
170 404 100 1 -0 0
170 33 100 1 -0 0
279 33 0 -1 0 0
279 133 0 -1 0 0
279 133 100 -1 0 0
279 33 100 -1 0 0
289 23 0 1 -0 0
289 128 0 1 -0 0
289 128 100 1 -0 0
289 23 100 1 -0 0
611 128 0 1 0 0
611 95 0 1 0 0
611 95 100 1 0 0
611 128 100 1 0 0
601 128 0 -1 -0 0
601 95 0 -1 -0 0
601 95 100 -1 -0 0
601 128 100 -1 -0 0
493 404 0 -1 0 0
493 483 0 -1 0 0
493 483 100 -1 0 0
493 404 100 -1 0 0
503 404 0 1 -0 0
503 483 0 1 -0 0
503 483 100 1 -0 0
503 404 100 1 -0 0
316 504 0 -0 1 0
461 504 0 -0 1 0
461 504 100 -0 1 0
316 504 100 -0 1 0
316 494 0 0 -1 0
461 494 0 0 -1 0
461 494 100 0 -1 0
316 494 100 0 -1 0
540 387 0 -1 0 0
540 499 0 -1 0 0
540 499 100 -1 0 0
540 387 100 -1 0 0
550 387 0 1 -0 0
550 499 0 1 -0 0
550 499 100 1 -0 0
550 387 100 1 -0 0
417 279 0 -1 0 0
417 311 0 -1 0 0
417 311 100 -1 0 0
417 279 100 -1 0 0
427 289 0 1 -0 0
427 316 0 1 -0 0
427 316 100 1 -0 0
427 289 100 1 -0 0
427 289 0 -0 1 0
578 289 0 -0 1 0
578 289 100 -0 1 0
427 289 100 -0 1 0
417 279 0 0 -1 0
578 279 0 0 -1 0
578 279 100 0 -1 0
417 279 100 0 -1 0
417 321 0 -1 0 0
417 347 0 -1 0 0
417 347 100 -1 0 0
417 321 100 -1 0 0
427 316 0 1 -0 0
427 342 0 1 -0 0
427 342 100 1 -0 0
427 316 100 1 -0 0
417 311 0 -0 -1 0
395 311 0 -0 -1 0
395 311 100 -0 -1 0
417 311 100 -0 -1 0
417 321 0 0 1 0
400 321 0 0 1 0
400 321 100 0 1 0
417 321 100 0 1 0
251 123 0 -1 0 0
251 242 0 -1 0 0
251 242 100 -1 0 0
251 123 100 -1 0 0
261 133 0 1 -0 0
261 232 0 1 -0 0
261 232 100 1 -0 0
261 133 100 1 -0 0
261 133 0 -0 1 0
279 133 0 -0 1 0
279 133 100 -0 1 0
261 133 100 -0 1 0
251 123 0 0 -1 0
284 123 0 0 -1 0
284 123 100 0 -1 0
251 123 100 0 -1 0
251 242 0 -0 1 0
311 242 0 -0 1 0
311 242 100 -0 1 0
251 242 100 -0 1 0
261 232 0 0 -1 0
311 232 0 0 -1 0
311 232 100 0 -1 0
261 232 100 0 -1 0
683 446 0 -0 -1 0
611 446 0 -0 -1 0
611 446 100 -0 -1 0
683 446 100 -0 -1 0
693 456 0 0 1 0
611 456 0 0 1 0
611 456 100 0 1 0
693 456 100 0 1 0
693 456 0 1 0 0
693 316 0 1 0 0
693 316 100 1 0 0
693 456 100 1 0 0
683 446 0 -1 -0 0
683 321 0 -1 -0 0
683 321 100 -1 -0 0
683 446 100 -1 -0 0
601 451 0 -1 0 0
601 469 0 -1 0 0
601 469 100 -1 0 0
601 451 100 -1 0 0
611 456 0 1 -0 0
611 469 0 1 -0 0
611 469 100 1 -0 0
611 456 100 1 -0 0
611 446 0 1 0 0
611 289 0 1 0 0
611 289 100 1 0 0
611 446 100 1 0 0
601 451 0 -1 -0 0
601 284 0 -1 -0 0
601 284 100 -1 -0 0
601 451 100 -1 -0 0
311 409 0 -0 1 0
400 409 0 -0 1 0
400 409 100 -0 1 0
311 409 100 -0 1 0
321 399 0 0 -1 0
395 399 0 0 -1 0
395 399 100 0 -1 0
321 399 100 0 -1 0
321 399 0 1 0 0
321 352 0 1 0 0
321 352 100 1 0 0
321 399 100 1 0 0
311 409 0 -1 -0 0
311 347 0 -1 -0 0
311 347 100 -1 -0 0
311 409 100 -1 -0 0
390 409 0 -0 1 0
427 409 0 -0 1 0
427 409 100 -0 1 0
390 409 100 -0 1 0
395 399 0 0 -1 0
417 399 0 0 -1 0
417 399 100 0 -1 0
395 399 100 0 -1 0
400 409 0 1 0 0
400 352 0 1 0 0
400 352 100 1 0 0
400 409 100 1 0 0
390 409 0 -1 -0 0
390 347 0 -1 -0 0
390 347 100 -1 -0 0
390 409 100 -1 -0 0
427 409 0 1 0 0
427 342 0 1 0 0
427 342 100 1 0 0
427 409 100 1 0 0
417 399 0 -1 -0 0
417 347 0 -1 -0 0
417 347 100 -1 -0 0
417 399 100 -1 -0 0
671 279 0 -0 -1 0
611 279 0 -0 -1 0
611 279 100 -0 -1 0
671 279 100 -0 -1 0
671 289 0 0 1 0
611 289 0 0 1 0
611 289 100 0 1 0
671 289 100 0 1 0
611 279 0 1 0 0
611 242 0 1 0 0
611 242 100 1 0 0
611 279 100 1 0 0
601 284 0 -1 -0 0
601 242 0 -1 -0 0
601 242 100 -1 -0 0
601 284 100 -1 -0 0
606 232 0 -0 -1 0
578 232 0 -0 -1 0
578 232 100 -0 -1 0
606 232 100 -0 -1 0
601 242 0 0 1 0
578 242 0 0 1 0
578 242 100 0 1 0
601 242 100 0 1 0
611 242 0 -0 1 0
683 242 0 -0 1 0
683 242 100 -0 1 0
611 242 100 -0 1 0
606 232 0 0 -1 0
683 232 0 0 -1 0
683 232 100 0 -1 0
606 232 100 0 -1 0
279 133 0 -0 1 0
311 133 0 -0 1 0
311 133 100 -0 1 0
279 133 100 -0 1 0
284 123 0 0 -1 0
321 123 0 0 -1 0
321 123 100 0 -1 0
284 123 100 0 -1 0
279 133 0 -1 0 0
279 191 0 -1 0 0
279 191 100 -1 0 0
279 133 100 -1 0 0
289 128 0 1 -0 0
289 191 0 1 -0 0
289 191 100 1 -0 0
289 128 100 1 -0 0
311 133 0 -1 0 0
311 207 0 -1 0 0
311 207 100 -1 0 0
311 133 100 -1 0 0
321 123 0 1 -0 0
321 212 0 1 -0 0
321 212 100 1 -0 0
321 123 100 1 -0 0
683 311 0 -0 -1 0
627 311 0 -0 -1 0
627 311 100 -0 -1 0
683 311 100 -0 -1 0
683 321 0 0 1 0
627 321 0 0 1 0
627 321 100 0 1 0
683 321 100 0 1 0
693 316 0 1 0 0
693 237 0 1 0 0
693 237 100 1 0 0
693 316 100 1 0 0
683 311 0 -1 -0 0
683 242 0 -1 -0 0
683 242 100 -1 -0 0
683 311 100 -1 -0 0
568 155 0 -1 0 0
568 237 0 -1 0 0
568 237 100 -1 0 0
568 155 100 -1 0 0
578 155 0 1 -0 0
578 232 0 1 -0 0
578 232 100 1 -0 0
578 155 100 1 -0 0
568 237 0 -1 0 0
568 284 0 -1 0 0
568 284 100 -1 0 0
568 237 100 -1 0 0
578 242 0 1 -0 0
578 289 0 1 -0 0
578 289 100 1 -0 0
578 242 100 1 -0 0
456 316 0 -1 0 0
456 342 0 -1 0 0
456 342 100 -1 0 0
456 316 100 -1 0 0
466 316 0 1 -0 0
466 347 0 1 -0 0
466 347 100 1 -0 0
466 316 100 1 -0 0
456 352 0 -1 0 0
456 383 0 -1 0 0
456 383 100 -1 0 0
456 352 100 -1 0 0
466 347 0 1 -0 0
466 383 0 1 -0 0
466 383 100 1 -0 0
466 347 100 1 -0 0
456 342 0 -0 -1 0
427 342 0 -0 -1 0
427 342 100 -0 -1 0
456 342 100 -0 -1 0
456 352 0 0 1 0
422 352 0 0 1 0
422 352 100 0 1 0
456 352 100 0 1 0
316 202 0 -0 -1 0
284 202 0 -0 -1 0
284 202 100 -0 -1 0
316 202 100 -0 -1 0
321 212 0 0 1 0
284 212 0 0 1 0
284 212 100 0 1 0
321 212 100 0 1 0
321 212 0 -0 1 0
349 212 0 -0 1 0
349 212 100 -0 1 0
321 212 100 -0 1 0
316 202 0 0 -1 0
349 202 0 0 -1 0
349 202 100 0 -1 0
316 202 100 0 -1 0
311 207 0 -1 0 0
311 232 0 -1 0 0
311 232 100 -1 0 0
311 207 100 -1 0 0
321 212 0 1 -0 0
321 237 0 1 -0 0
321 237 100 1 -0 0
321 212 100 1 -0 0
568 284 0 -1 0 0
568 316 0 -1 0 0
568 316 100 -1 0 0
568 284 100 -1 0 0
578 279 0 1 -0 0
578 316 0 1 -0 0
578 316 100 1 -0 0
578 279 100 1 -0 0
427 342 0 -0 -1 0
395 342 0 -0 -1 0
395 342 100 -0 -1 0
427 342 100 -0 -1 0
422 352 0 0 1 0
400 352 0 0 1 0
400 352 100 0 1 0
422 352 100 0 1 0
342 321 0 -0 1 0
390 321 0 -0 1 0
390 321 100 -0 1 0
342 321 100 -0 1 0
342 311 0 0 -1 0
395 311 0 0 -1 0
395 311 100 0 -1 0
342 311 100 0 -1 0
390 321 0 -1 0 0
390 347 0 -1 0 0
390 347 100 -1 0 0
390 321 100 -1 0 0
400 321 0 1 -0 0
400 352 0 1 -0 0
400 352 100 1 -0 0
400 321 100 1 -0 0
311 242 0 -1 0 0
311 347 0 -1 0 0
311 347 100 -1 0 0
311 242 100 -1 0 0
321 237 0 1 -0 0
321 342 0 1 -0 0
321 342 100 1 -0 0
321 237 100 1 -0 0
693 237 0 1 0 0
693 113 0 1 0 0
693 113 100 1 0 0
693 237 100 1 0 0
683 232 0 -1 -0 0
683 113 0 -1 -0 0
683 113 100 -1 -0 0
683 232 100 -1 -0 0
395 342 0 -0 -1 0
321 342 0 -0 -1 0
321 342 100 -0 -1 0
395 342 100 -0 -1 0
400 352 0 0 1 0
321 352 0 0 1 0
321 352 100 0 1 0
400 352 100 0 1 0
611 128 0 592.48486328125 125.1212158203125 0
601 128 0 592.48486328125 125.1212158203125 0
601 128 100 592.48486328125 125.1212158203125 0
611 128 100 592.48486328125 125.1212158203125 0
611 95 0 592.48486328125 91.1212158203125 0
601 95 0 592.48486328125 91.1212158203125 0
601 95 100 592.48486328125 91.1212158203125 0
611 95 100 592.48486328125 91.1212158203125 0
160 404 0 159.580047607421875 403.93963623046875 0
170 404 0 159.580047607421875 403.93963623046875 0
170 404 100 159.580047607421875 403.93963623046875 0
160 404 100 159.580047607421875 403.93963623046875 0
493 404 0 486.759490966796875 397.886077880859375 0
503 404 0 486.759490966796875 397.886077880859375 0
503 404 100 486.759490966796875 397.886077880859375 0
493 404 100 486.759490966796875 397.886077880859375 0
493 483 0 486.759490966796875 477.886077880859375 0
503 483 0 486.759490966796875 477.886077880859375 0
503 483 100 486.759490966796875 477.886077880859375 0
493 483 100 486.759490966796875 477.886077880859375 0
316 504 0 312.8206787109375 500.524139404296875 0
316 494 0 312.8206787109375 500.524139404296875 0
316 494 100 312.8206787109375 500.524139404296875 0
316 504 100 312.8206787109375 500.524139404296875 0
461 504 0 458.8206787109375 500.524139404296875 0
461 494 0 458.8206787109375 500.524139404296875 0
461 494 100 458.8206787109375 500.524139404296875 0
461 504 100 458.8206787109375 500.524139404296875 0
540 387 0 535.1785888671875 382.544647216796875 0
550 387 0 535.1785888671875 382.544647216796875 0
550 387 100 535.1785888671875 382.544647216796875 0
540 387 100 535.1785888671875 382.544647216796875 0
540 499 0 535.1785888671875 495.544647216796875 0
550 499 0 535.1785888671875 495.544647216796875 0
550 499 100 535.1785888671875 495.544647216796875 0
540 499 100 535.1785888671875 495.544647216796875 0
601 469 0 567.611083984375 443.9444580078125 0
611 469 0 567.611083984375 443.9444580078125 0
611 469 100 567.611083984375 443.9444580078125 0
601 469 100 567.611083984375 443.9444580078125 0
671 279 0 660.816650390625 274.350006103515625 0
671 289 0 660.816650390625 274.350006103515625 0
671 289 100 660.816650390625 274.350006103515625 0
671 279 100 660.816650390625 274.350006103515625 0
279 191 0 274.189666748046875 188.706893920898438 0
289 191 0 274.189666748046875 188.706893920898438 0
289 191 100 274.189666748046875 188.706893920898438 0
279 191 100 274.189666748046875 188.706893920898438 0
627 311 0 614.8035888671875 305.446441650390625 0
627 321 0 614.8035888671875 305.446441650390625 0
627 321 100 614.8035888671875 305.446441650390625 0
627 311 100 614.8035888671875 305.446441650390625 0
568 155 0 561.07318115234375 152.109756469726562 0
578 155 0 561.07318115234375 152.109756469726562 0
578 155 100 561.07318115234375 152.109756469726562 0
568 155 100 561.07318115234375 152.109756469726562 0
456 316 0 438.4615478515625 302.846160888671875 0
466 316 0 438.4615478515625 302.846160888671875 0
466 316 100 438.4615478515625 302.846160888671875 0
456 316 100 438.4615478515625 302.846160888671875 0
456 383 0 441.290313720703125 371.645172119140625 0
466 383 0 441.290313720703125 371.645172119140625 0
466 383 100 441.290313720703125 371.645172119140625 0
456 383 100 441.290313720703125 371.645172119140625 0
284 202 0 274.125 195.6875 0
284 212 0 274.125 195.6875 0
284 212 100 274.125 195.6875 0
284 202 100 274.125 195.6875 0
349 212 0 337.53570556640625 204.428573608398438 0
349 202 0 337.53570556640625 204.428573608398438 0
349 202 100 337.53570556640625 204.428573608398438 0
349 212 100 337.53570556640625 204.428573608398438 0
568 316 0 550.25 307.125 0
578 316 0 550.25 307.125 0
578 316 100 550.25 307.125 0
568 316 100 550.25 307.125 0
342 321 0 333.875 314.3125 0
342 311 0 333.875 314.3125 0
342 311 100 333.875 314.3125 0
342 321 100 333.875 314.3125 0
693 113 0 687.41131591796875 111.088706970214844 0
683 113 0 687.41131591796875 111.088706970214844 0
683 113 100 687.41131591796875 111.088706970214844 0
693 113 100 687.41131591796875 111.088706970214844 0
170 33 0 0 0 -1
160 23 0 0 0 -1
289 23 0 0 0 -1
279 33 0 0 0 -1
170 33 100 0 0 1
160 23 100 0 0 1
289 23 100 0 0 1
279 33 100 0 0 1
160 23 0 0 0 -1
170 33 0 0 0 -1
170 404 0 0 0 -1
160 404 0 0 0 -1
160 23 100 0 0 1
170 33 100 0 0 1
170 404 100 0 0 1
160 404 100 0 0 1
279 33 0 0 0 -1
289 23 0 0 0 -1
289 128 0 0 0 -1
279 133 0 0 0 -1
279 33 100 0 0 1
289 23 100 0 0 1
289 128 100 0 0 1
279 133 100 0 0 1
611 128 0 0 0 -1
601 128 0 0 0 -1
601 95 0 0 0 -1
611 95 0 0 0 -1
611 128 100 0 0 1
601 128 100 0 0 1
601 95 100 0 0 1
611 95 100 0 0 1
493 404 0 0 0 -1
503 404 0 0 0 -1
503 483 0 0 0 -1
493 483 0 0 0 -1
493 404 100 0 0 1
503 404 100 0 0 1
503 483 100 0 0 1
493 483 100 0 0 1
316 504 0 0 0 -1
316 494 0 0 0 -1
461 494 0 0 0 -1
461 504 0 0 0 -1
316 504 100 0 0 1
316 494 100 0 0 1
461 494 100 0 0 1
461 504 100 0 0 1
540 387 0 0 0 -1
550 387 0 0 0 -1
550 499 0 0 0 -1
540 499 0 0 0 -1
540 387 100 0 0 1
550 387 100 0 0 1
550 499 100 0 0 1
540 499 100 0 0 1
417 279 0 0 0 -1
427 289 0 0 0 -1
427 316 0 0 0 -1
417 311 0 0 0 -1
417 279 100 0 0 1
427 289 100 0 0 1
427 316 100 0 0 1
417 311 100 0 0 1
427 289 0 0 0 -1
417 279 0 0 0 -1
578 279 0 0 0 -1
578 289 0 0 0 -1
427 289 100 0 0 1
417 279 100 0 0 1
578 279 100 0 0 1
578 289 100 0 0 1
417 321 0 0 0 -1
427 316 0 0 0 -1
427 342 0 0 0 -1
417 347 0 0 0 -1
417 321 100 0 0 1
427 316 100 0 0 1
427 342 100 0 0 1
417 347 100 0 0 1
417 311 0 0 0 -1
417 321 0 0 0 -1
400 321 0 0 0 -1
395 311 0 0 0 -1
417 311 100 0 0 1
417 321 100 0 0 1
400 321 100 0 0 1
395 311 100 0 0 1
251 123 0 0 0 -1
261 133 0 0 0 -1
261 232 0 0 0 -1
251 242 0 0 0 -1
251 123 100 0 0 1
261 133 100 0 0 1
261 232 100 0 0 1
251 242 100 0 0 1
261 133 0 0 0 -1
251 123 0 0 0 -1
284 123 0 0 0 -1
279 133 0 0 0 -1
261 133 100 0 0 1
251 123 100 0 0 1
284 123 100 0 0 1
279 133 100 0 0 1
251 242 0 0 0 -1
261 232 0 0 0 -1
311 232 0 0 0 -1
311 242 0 0 0 -1
251 242 100 0 0 1
261 232 100 0 0 1
311 232 100 0 0 1
311 242 100 0 0 1
683 446 0 0 0 -1
693 456 0 0 0 -1
611 456 0 0 0 -1
611 446 0 0 0 -1
683 446 100 0 0 1
693 456 100 0 0 1
611 456 100 0 0 1
611 446 100 0 0 1
693 456 0 0 0 -1
683 446 0 0 0 -1
683 321 0 0 0 -1
693 316 0 0 0 -1
693 456 100 0 0 1
683 446 100 0 0 1
683 321 100 0 0 1
693 316 100 0 0 1
601 451 0 0 0 -1
611 456 0 0 0 -1
611 469 0 0 0 -1
601 469 0 0 0 -1
601 451 100 0 0 1
611 456 100 0 0 1
611 469 100 0 0 1
601 469 100 0 0 1
611 446 0 0 0 -1
601 451 0 0 0 -1
601 284 0 0 0 -1
611 289 0 0 0 -1
611 446 100 0 0 1
601 451 100 0 0 1
601 284 100 0 0 1
611 289 100 0 0 1
311 409 0 0 0 -1
321 399 0 0 0 -1
395 399 0 0 0 -1
400 409 0 0 0 -1
311 409 100 0 0 1
321 399 100 0 0 1
395 399 100 0 0 1
400 409 100 0 0 1
321 399 0 0 0 -1
311 409 0 0 0 -1
311 347 0 0 0 -1
321 352 0 0 0 -1
321 399 100 0 0 1
311 409 100 0 0 1
311 347 100 0 0 1
321 352 100 0 0 1
390 409 0 0 0 -1
395 399 0 0 0 -1
417 399 0 0 0 -1
427 409 0 0 0 -1
390 409 100 0 0 1
395 399 100 0 0 1
417 399 100 0 0 1
427 409 100 0 0 1
400 409 0 0 0 -1
390 409 0 0 0 -1
390 347 0 0 0 -1
400 352 0 0 0 -1
400 409 100 0 0 1
390 409 100 0 0 1
390 347 100 0 0 1
400 352 100 0 0 1
427 409 0 0 0 -1
417 399 0 0 0 -1
417 347 0 0 0 -1
427 342 0 0 0 -1
427 409 100 0 0 1
417 399 100 0 0 1
417 347 100 0 0 1
427 342 100 0 0 1
671 279 0 0 0 -1
671 289 0 0 0 -1
611 289 0 0 0 -1
611 279 0 0 0 -1
671 279 100 0 0 1
671 289 100 0 0 1
611 289 100 0 0 1
611 279 100 0 0 1
611 279 0 0 0 -1
601 284 0 0 0 -1
601 242 0 0 0 -1
611 242 0 0 0 -1
611 279 100 0 0 1
601 284 100 0 0 1
601 242 100 0 0 1
611 242 100 0 0 1
606 232 0 0 0 -1
601 242 0 0 0 -1
578 242 0 0 0 -1
578 232 0 0 0 -1
606 232 100 0 0 1
601 242 100 0 0 1
578 242 100 0 0 1
578 232 100 0 0 1
611 242 0 0 0 -1
606 232 0 0 0 -1
683 232 0 0 0 -1
683 242 0 0 0 -1
611 242 100 0 0 1
606 232 100 0 0 1
683 232 100 0 0 1
683 242 100 0 0 1
279 133 0 0 0 -1
284 123 0 0 0 -1
321 123 0 0 0 -1
311 133 0 0 0 -1
279 133 100 0 0 1
284 123 100 0 0 1
321 123 100 0 0 1
311 133 100 0 0 1
279 133 0 0 0 -1
289 128 0 0 0 -1
289 191 0 0 0 -1
279 191 0 0 0 -1
279 133 100 0 0 1
289 128 100 0 0 1
289 191 100 0 0 1
279 191 100 0 0 1
311 133 0 0 0 -1
321 123 0 0 0 -1
321 212 0 0 0 -1
311 207 0 0 0 -1
311 133 100 0 0 1
321 123 100 0 0 1
321 212 100 0 0 1
311 207 100 0 0 1
683 311 0 0 0 -1
683 321 0 0 0 -1
627 321 0 0 0 -1
627 311 0 0 0 -1
683 311 100 0 0 1
683 321 100 0 0 1
627 321 100 0 0 1
627 311 100 0 0 1
693 316 0 0 0 -1
683 311 0 0 0 -1
683 242 0 0 0 -1
693 237 0 0 0 -1
693 316 100 0 0 1
683 311 100 0 0 1
683 242 100 0 0 1
693 237 100 0 0 1
568 155 0 0 0 -1
578 155 0 0 0 -1
578 232 0 0 0 -1
568 237 0 0 0 -1
568 155 100 0 0 1
578 155 100 0 0 1
578 232 100 0 0 1
568 237 100 0 0 1
568 237 0 0 0 -1
578 242 0 0 0 -1
578 289 0 0 0 -1
568 284 0 0 0 -1
568 237 100 0 0 1
578 242 100 0 0 1
578 289 100 0 0 1
568 284 100 0 0 1
456 316 0 0 0 -1
466 316 0 0 0 -1
466 347 0 0 0 -1
456 342 0 0 0 -1
456 316 100 0 0 1
466 316 100 0 0 1
466 347 100 0 0 1
456 342 100 0 0 1
456 352 0 0 0 -1
466 347 0 0 0 -1
466 383 0 0 0 -1
456 383 0 0 0 -1
456 352 100 0 0 1
466 347 100 0 0 1
466 383 100 0 0 1
456 383 100 0 0 1
456 342 0 0 0 -1
456 352 0 0 0 -1
422 352 0 0 0 -1
427 342 0 0 0 -1
456 342 100 0 0 1
456 352 100 0 0 1
422 352 100 0 0 1
427 342 100 0 0 1
316 202 0 0 0 -1
321 212 0 0 0 -1
284 212 0 0 0 -1
284 202 0 0 0 -1
316 202 100 0 0 1
321 212 100 0 0 1
284 212 100 0 0 1
284 202 100 0 0 1
321 212 0 0 0 -1
316 202 0 0 0 -1
349 202 0 0 0 -1
349 212 0 0 0 -1
321 212 100 0 0 1
316 202 100 0 0 1
349 202 100 0 0 1
349 212 100 0 0 1
311 207 0 0 0 -1
321 212 0 0 0 -1
321 237 0 0 0 -1
311 232 0 0 0 -1
311 207 100 0 0 1
321 212 100 0 0 1
321 237 100 0 0 1
311 232 100 0 0 1
568 284 0 0 0 -1
578 279 0 0 0 -1
578 316 0 0 0 -1
568 316 0 0 0 -1
568 284 100 0 0 1
578 279 100 0 0 1
578 316 100 0 0 1
568 316 100 0 0 1
427 342 0 0 0 -1
422 352 0 0 0 -1
400 352 0 0 0 -1
395 342 0 0 0 -1
427 342 100 0 0 1
422 352 100 0 0 1
400 352 100 0 0 1
395 342 100 0 0 1
342 321 0 0 0 -1
342 311 0 0 0 -1
395 311 0 0 0 -1
390 321 0 0 0 -1
342 321 100 0 0 1
342 311 100 0 0 1
395 311 100 0 0 1
390 321 100 0 0 1
390 321 0 0 0 -1
400 321 0 0 0 -1
400 352 0 0 0 -1
390 347 0 0 0 -1
390 321 100 0 0 1
400 321 100 0 0 1
400 352 100 0 0 1
390 347 100 0 0 1
311 242 0 0 0 -1
321 237 0 0 0 -1
321 342 0 0 0 -1
311 347 0 0 0 -1
311 242 100 0 0 1
321 237 100 0 0 1
321 342 100 0 0 1
311 347 100 0 0 1
693 237 0 0 0 -1
683 232 0 0 0 -1
683 113 0 0 0 -1
693 113 0 0 0 -1
693 237 100 0 0 1
683 232 100 0 0 1
683 113 100 0 0 1
693 113 100 0 0 1
395 342 0 0 0 -1
400 352 0 0 0 -1
321 352 0 0 0 -1
321 342 0 0 0 -1
395 342 100 0 0 1
400 352 100 0 0 1
321 352 100 0 0 1
321 342 100 0 0 1
427 316 0 0 0 -1
417 321 0 0 0 -1
417 311 0 0 0 -1
427 316 100 0 0 1
417 321 100 0 0 1
417 311 100 0 0 1
611 456 0 0 0 -1
601 451 0 0 0 -1
611 446 0 0 0 -1
611 456 100 0 0 1
601 451 100 0 0 1
611 446 100 0 0 1
395 399 0 0 0 -1
390 409 0 0 0 -1
400 409 0 0 0 -1
395 399 100 0 0 1
390 409 100 0 0 1
400 409 100 0 0 1
611 289 0 0 0 -1
601 284 0 0 0 -1
611 279 0 0 0 -1
611 289 100 0 0 1
601 284 100 0 0 1
611 279 100 0 0 1
601 242 0 0 0 -1
606 232 0 0 0 -1
611 242 0 0 0 -1
601 242 100 0 0 1
606 232 100 0 0 1
611 242 100 0 0 1
284 123 0 0 0 -1
279 133 0 0 0 -1
289 128 0 0 0 -1
279 133 0 0 0 -1
284 123 100 0 0 1
279 133 100 0 0 1
289 128 100 0 0 1
279 133 100 0 0 1
683 321 0 0 0 -1
683 311 0 0 0 -1
693 316 0 0 0 -1
683 321 100 0 0 1
683 311 100 0 0 1
693 316 100 0 0 1
578 232 0 0 0 -1
578 242 0 0 0 -1
568 237 0 0 0 -1
578 232 100 0 0 1
578 242 100 0 0 1
568 237 100 0 0 1
466 347 0 0 0 -1
456 352 0 0 0 -1
456 342 0 0 0 -1
466 347 100 0 0 1
456 352 100 0 0 1
456 342 100 0 0 1
321 212 0 0 0 -1
316 202 0 0 0 -1
321 212 0 0 0 -1
311 207 0 0 0 -1
321 212 100 0 0 1
316 202 100 0 0 1
321 212 100 0 0 1
311 207 100 0 0 1
578 279 0 0 0 -1
568 284 0 0 0 -1
578 289 0 0 0 -1
578 279 100 0 0 1
568 284 100 0 0 1
578 289 100 0 0 1
417 347 0 0 0 -1
427 342 0 0 0 -1
422 352 0 0 0 -1
427 342 0 0 0 -1
417 347 100 0 0 1
427 342 100 0 0 1
422 352 100 0 0 1
427 342 100 0 0 1
395 311 0 0 0 -1
400 321 0 0 0 -1
390 321 0 0 0 -1
395 311 100 0 0 1
400 321 100 0 0 1
390 321 100 0 0 1
311 232 0 0 0 -1
321 237 0 0 0 -1
311 242 0 0 0 -1
311 232 100 0 0 1
321 237 100 0 0 1
311 242 100 0 0 1
683 232 0 0 0 -1
693 237 0 0 0 -1
683 242 0 0 0 -1
683 232 100 0 0 1
693 237 100 0 0 1
683 242 100 0 0 1
400 352 0 0 0 -1
390 347 0 0 0 -1
400 352 0 0 0 -1
395 342 0 0 0 -1
400 352 100 0 0 1
390 347 100 0 0 1
400 352 100 0 0 1
395 342 100 0 0 1
311 347 0 0 0 -1
321 342 0 0 0 -1
321 352 0 0 0 -1
311 347 100 0 0 1
321 342 100 0 0 1
321 352 100 0 0 1
4 0 1 2 3
4 4 5 6 7
4 8 9 10 11
4 12 13 14 15
4 16 17 18 19
4 20 21 22 23
4 24 25 26 27
4 28 29 30 31
4 32 33 34 35
4 36 37 38 39
4 40 41 42 43
4 44 45 46 47
4 48 49 50 51
4 52 53 54 55
4 56 57 58 59
4 60 61 62 63
4 64 65 66 67
4 68 69 70 71
4 72 73 74 75
4 76 77 78 79
4 80 81 82 83
4 84 85 86 87
4 88 89 90 91
4 92 93 94 95
4 96 97 98 99
4 100 101 102 103
4 104 105 106 107
4 108 109 110 111
4 112 113 114 115
4 116 117 118 119
4 120 121 122 123
4 124 125 126 127
4 128 129 130 131
4 132 133 134 135
4 136 137 138 139
4 140 141 142 143
4 144 145 146 147
4 148 149 150 151
4 152 153 154 155
4 156 157 158 159
4 160 161 162 163
4 164 165 166 167
4 168 169 170 171
4 172 173 174 175
4 176 177 178 179
4 180 181 182 183
4 184 185 186 187
4 188 189 190 191
4 192 193 194 195
4 196 197 198 199
4 200 201 202 203
4 204 205 206 207
4 208 209 210 211
4 212 213 214 215
4 216 217 218 219
4 220 221 222 223
4 224 225 226 227
4 228 229 230 231
4 232 233 234 235
4 236 237 238 239
4 240 241 242 243
4 244 245 246 247
4 248 249 250 251
4 252 253 254 255
4 256 257 258 259
4 260 261 262 263
4 264 265 266 267
4 268 269 270 271
4 272 273 274 275
4 276 277 278 279
4 280 281 282 283
4 284 285 286 287
4 288 289 290 291
4 292 293 294 295
4 296 297 298 299
4 300 301 302 303
4 304 305 306 307
4 308 309 310 311
4 312 313 314 315
4 316 317 318 319
4 320 321 322 323
4 324 325 326 327
4 328 329 330 331
4 332 333 334 335
4 336 337 338 339
4 340 341 342 343
4 344 345 346 347
4 348 349 350 351
4 352 353 354 355
4 356 357 358 359
4 360 361 362 363
4 364 365 366 367
4 368 369 370 371
4 372 373 374 375
4 376 377 378 379
4 380 381 382 383
4 384 385 386 387
4 388 389 390 391
4 392 393 394 395
4 396 397 398 399
4 400 401 402 403
4 404 405 406 407
4 408 409 410 411
4 412 413 414 415
4 416 417 418 419
4 420 421 422 423
4 424 425 426 427
4 428 429 430 431
4 432 433 434 435
4 436 437 438 439
4 440 441 442 443
4 444 445 446 447
4 448 449 450 451
4 452 453 454 455
4 456 457 458 459
4 460 461 462 463
4 464 465 466 467
4 468 469 470 471
4 472 473 474 475
4 476 477 478 479
4 480 481 482 483
4 484 485 486 487
4 488 489 490 491
4 492 493 494 495
4 496 497 498 499
4 500 501 502 503
4 504 505 506 507
4 508 509 510 511
4 512 513 514 515
4 516 517 518 519
4 520 521 522 523
4 524 525 526 527
4 528 529 530 531
4 532 533 534 535
4 536 537 538 539
4 540 541 542 543
4 544 545 546 547
4 548 549 550 551
4 552 553 554 555
4 556 557 558 559
4 560 561 562 563
4 564 565 566 567
4 568 569 570 571
4 572 573 574 575
4 576 577 578 579
4 580 581 582 583
4 584 585 586 587
4 588 589 590 591
4 592 593 594 595
4 596 597 598 599
4 600 601 602 603
4 604 605 606 607
4 608 609 610 611
4 612 613 614 615
4 616 617 618 619
4 620 621 622 623
4 624 625 626 627
4 628 629 630 631
4 632 633 634 635
4 636 637 638 639
4 640 641 642 643
4 644 645 646 647
4 648 649 650 651
4 652 653 654 655
4 656 657 658 659
4 660 661 662 663
4 664 665 666 667
4 668 669 670 671
4 672 673 674 675
4 676 677 678 679
4 680 681 682 683
4 684 685 686 687
4 688 689 690 691
4 692 693 694 695
4 696 697 698 699
4 700 701 702 703
4 704 705 706 707
4 708 709 710 711
4 712 713 714 715
4 716 717 718 719
4 720 721 722 723
4 724 725 726 727
4 728 729 730 731
4 732 733 734 735
4 736 737 738 739
4 740 741 742 743
4 744 745 746 747
4 748 749 750 751
4 752 753 754 755
4 756 757 758 759
4 760 761 762 763
4 764 765 766 767
4 768 769 770 771
4 772 773 774 775
4 776 777 778 779
4 780 781 782 783
4 784 785 786 787
4 788 789 790 791
4 792 793 794 795
4 796 797 798 799
4 800 801 802 803
4 804 805 806 807
4 808 809 810 811
4 812 813 814 815
4 816 817 818 819
4 820 821 822 823
4 824 825 826 827
4 828 829 830 831
4 832 833 834 835
3 836 837 838
3 839 840 841
3 842 843 844
3 845 846 847
3 848 849 850
3 851 852 853
3 854 855 856
3 857 858 859
3 860 861 862
3 863 864 865
3 866 867 868
3 867 868 869
3 870 871 872
3 871 872 873
3 874 875 876
3 877 878 879
3 880 881 882
3 883 884 885
3 886 887 888
3 889 890 891
3 892 893 894
3 893 894 895
3 896 897 898
3 897 898 899
3 900 901 902
3 903 904 905
3 906 907 908
3 907 908 909
3 910 911 912
3 911 912 913
3 914 915 916
3 917 918 919
3 920 921 922
3 923 924 925
3 926 927 928
3 929 930 931
3 932 933 934
3 933 934 935
3 936 937 938
3 937 938 939
3 940 941 942
3 943 944 945
