ply
format ascii 1.0
element vertex 924
property float x
property float y
property float z
property float nx
property float ny
property float nz
element quads 206
property list uchar int vertex_indices
element triads 40
property list uchar int vertex_indices
end_header
699 310 0 1 0 0
699 3 0 1 0 0
699 3 100 1 0 0
699 310 100 1 0 0
689 300 0 -1 -0 0
689 13 0 -1 -0 0
689 13 100 -1 -0 0
689 300 100 -1 -0 0
689 300 0 -0 -1 0
501 300 0 -0 -1 0
501 300 100 -0 -1 0
689 300 100 -0 -1 0
699 310 0 0 1 0
511 310 0 0 1 0
511 310 100 0 1 0
699 310 100 0 1 0
699 3 0 -0 -1 0
667 3 0 -0 -1 0
667 3 100 -0 -1 0
699 3 100 -0 -1 0
689 13 0 0 1 0
667 13 0 0 1 0
667 13 100 0 1 0
689 13 100 0 1 0
142 300 0 1 0 0
142 275 0 1 0 0
142 275 100 1 0 0
142 300 100 1 0 0
132 310 0 -1 -0 0
132 275 0 -1 -0 0
132 275 100 -1 -0 0
132 310 100 -1 -0 0
132 310 0 -0 1 0
153 310 0 -0 1 0
153 310 100 -0 1 0
132 310 100 -0 1 0
142 300 0 0 -1 0
158 300 0 0 -1 0
158 300 100 0 -1 0
142 300 100 0 -1 0
501 300 0 -1 0 0
501 396 0 -1 0 0
501 396 100 -1 0 0
501 300 100 -1 0 0
511 310 0 1 -0 0
511 396 0 1 -0 0
511 396 100 1 -0 0
511 310 100 1 -0 0
132 129 0 -1 0 0
132 190 0 -1 0 0
132 190 100 -1 0 0
132 129 100 -1 0 0
142 139 0 1 -0 0
142 190 0 1 -0 0
142 190 100 1 -0 0
142 139 100 1 -0 0
142 139 0 -0 1 0
153 139 0 -0 1 0
153 139 100 -0 1 0
142 139 100 -0 1 0
132 129 0 0 -1 0
158 129 0 0 -1 0
158 129 100 0 -1 0
132 129 100 0 -1 0
384 547 0 -0 1 0
430 547 0 -0 1 0
430 547 100 -0 1 0
384 547 100 -0 1 0
384 537 0 0 -1 0
420 537 0 0 -1 0
420 537 100 0 -1 0
384 537 100 0 -1 0
430 547 0 1 0 0
430 305 0 1 0 0
430 305 100 1 0 0
430 547 100 1 0 0
420 537 0 -1 -0 0
420 310 0 -1 -0 0
420 310 100 -1 -0 0
420 537 100 -1 -0 0
311 244 0 -1 0 0
311 310 0 -1 0 0
311 310 100 -1 0 0
311 244 100 -1 0 0
321 254 0 1 -0 0
321 310 0 1 -0 0
321 310 100 1 -0 0
321 254 100 1 -0 0
321 254 0 -0 1 0
353 254 0 -0 1 0
353 254 100 -0 1 0
321 254 100 -0 1 0
311 244 0 0 -1 0
348 244 0 0 -1 0
348 244 100 0 -1 0
311 244 100 0 -1 0
316 300 0 -0 -1 0
158 300 0 -0 -1 0
158 300 100 -0 -1 0
316 300 100 -0 -1 0
321 310 0 0 1 0
163 310 0 0 1 0
163 310 100 0 1 0
321 310 100 0 1 0
311 310 0 -0 1 0
393 310 0 -0 1 0
393 310 100 -0 1 0
311 310 100 -0 1 0
316 300 0 0 -1 0
398 300 0 0 -1 0
398 300 100 0 -1 0
316 300 100 0 -1 0
425 168 0 -0 -1 0
348 168 0 -0 -1 0
348 168 100 -0 -1 0
425 168 100 -0 -1 0
425 178 0 0 1 0
353 178 0 0 1 0
353 178 100 0 1 0
425 178 100 0 1 0
343 178 0 -1 0 0
343 254 0 -1 0 0
343 254 100 -1 0 0
343 178 100 -1 0 0
353 178 0 1 -0 0
353 254 0 1 -0 0
353 254 100 1 -0 0
353 178 100 1 -0 0
348 168 0 -0 -1 0
316 168 0 -0 -1 0
316 168 100 -0 -1 0
348 168 100 -0 -1 0
343 178 0 0 1 0
321 178 0 0 1 0
321 178 100 0 1 0
343 178 100 0 1 0
253 168 0 1 0 0
253 139 0 1 0 0
253 139 100 1 0 0
253 168 100 1 0 0
243 178 0 -1 -0 0
243 139 0 -1 -0 0
243 139 100 -1 -0 0
243 178 100 -1 -0 0
243 178 0 -0 1 0
321 178 0 -0 1 0
321 178 100 -0 1 0
243 178 100 -0 1 0
253 168 0 0 -1 0
316 168 0 0 -1 0
316 168 100 0 -1 0
253 168 100 0 -1 0
248 129 0 -0 -1 0
158 129 0 -0 -1 0
158 129 100 -0 -1 0
248 129 100 -0 -1 0
243 139 0 0 1 0
153 139 0 0 1 0
153 139 100 0 1 0
243 139 100 0 1 0
253 139 0 -0 1 0
321 139 0 -0 1 0
321 139 100 -0 1 0
253 139 100 -0 1 0
248 129 0 0 -1 0
321 129 0 0 -1 0
321 129 100 0 -1 0
248 129 100 0 -1 0
153 8 0 -1 0 0
153 139 0 -1 0 0
153 139 100 -1 0 0
153 8 100 -1 0 0
163 8 0 1 -0 0
163 134 0 1 -0 0
163 134 100 1 -0 0
163 8 100 1 -0 0
153 139 0 -1 0 0
153 173 0 -1 0 0
153 173 100 -1 0 0
153 139 100 -1 0 0
163 134 0 1 -0 0
163 173 0 1 -0 0
163 173 100 1 -0 0
163 134 100 1 -0 0
163 542 0 1 0 0
163 310 0 1 0 0
163 310 100 1 0 0
163 542 100 1 0 0
153 542 0 -1 -0 0
153 310 0 -1 -0 0
153 310 100 -1 -0 0
153 542 100 -1 -0 0
577 139 0 1 0 0
577 13 0 1 0 0
577 13 100 1 0 0
577 139 100 1 0 0
567 129 0 -1 -0 0
567 13 0 -1 -0 0
567 13 100 -1 -0 0
567 129 100 -1 -0 0
567 129 0 -0 -1 0
460 129 0 -0 -1 0
460 129 100 -0 -1 0
567 129 100 -0 -1 0
577 139 0 0 1 0
465 139 0 0 1 0
465 139 100 0 1 0
577 139 100 0 1 0
572 3 0 -0 -1 0
532 3 0 -0 -1 0
532 3 100 -0 -1 0
572 3 100 -0 -1 0
567 13 0 0 1 0
532 13 0 0 1 0
532 13 100 0 1 0
567 13 100 0 1 0
577 13 0 -0 1 0
597 13 0 -0 1 0
597 13 100 -0 1 0
577 13 100 -0 1 0
572 3 0 0 -1 0
597 3 0 0 -1 0
597 3 100 0 -1 0
572 3 100 0 -1 0
420 254 0 -1 0 0
420 300 0 -1 0 0
420 300 100 -1 0 0
420 254 100 -1 0 0
430 244 0 1 -0 0
430 305 0 1 -0 0
430 305 100 1 -0 0
430 244 100 1 -0 0
430 244 0 -0 -1 0
348 244 0 -0 -1 0
348 244 100 -0 -1 0
430 244 100 -0 -1 0
420 254 0 0 1 0
343 254 0 0 1 0
343 254 100 0 1 0
420 254 100 0 1 0
420 300 0 -0 -1 0
398 300 0 -0 -1 0
398 300 100 -0 -1 0
420 300 100 -0 -1 0
420 310 0 0 1 0
393 310 0 0 1 0
393 310 100 0 1 0
420 310 100 0 1 0
248 13 0 -0 1 0
284 13 0 -0 1 0
284 13 100 -0 1 0
248 13 100 -0 1 0
248 3 0 0 -1 0
289 3 0 0 -1 0
289 3 100 0 -1 0
248 3 100 0 -1 0
294 13 0 -0 1 0
348 13 0 -0 1 0
348 13 100 -0 1 0
294 13 100 -0 1 0
289 3 0 0 -1 0
348 3 0 0 -1 0
348 3 100 0 -1 0
289 3 100 0 -1 0
284 13 0 -1 0 0
284 78 0 -1 0 0
284 78 100 -1 0 0
284 13 100 -1 0 0
294 13 0 1 -0 0
294 78 0 1 -0 0
294 78 100 1 -0 0
294 13 100 1 -0 0
398 13 0 -0 1 0
437 13 0 -0 1 0
437 13 100 -0 1 0
398 13 100 -0 1 0
398 3 0 0 -1 0
442 3 0 0 -1 0
442 3 100 0 -1 0
398 3 100 0 -1 0
447 13 0 -0 1 0
481 13 0 -0 1 0
481 13 100 -0 1 0
447 13 100 -0 1 0
442 3 0 0 -1 0
481 3 0 0 -1 0
481 3 100 0 -1 0
442 3 100 0 -1 0
437 13 0 -1 0 0
437 134 0 -1 0 0
437 134 100 -1 0 0
437 13 100 -1 0 0
447 13 0 1 -0 0
447 129 0 1 -0 0
447 129 100 1 -0 0
447 13 100 1 -0 0
470 249 0 1 0 0
470 129 0 1 0 0
470 129 100 1 0 0
470 249 100 1 0 0
460 249 0 -1 -0 0
460 129 0 -1 -0 0
460 129 100 -1 -0 0
460 249 100 -1 -0 0
470 129 0 -0 -1 0
447 129 0 -0 -1 0
447 129 100 -0 -1 0
470 129 100 -0 -1 0
465 139 0 0 1 0
442 139 0 0 1 0
442 139 100 0 1 0
465 139 100 0 1 0
311 63 0 -1 0 0
311 139 0 -1 0 0
311 139 100 -1 0 0
311 63 100 -1 0 0
321 63 0 1 -0 0
321 139 0 1 -0 0
321 139 100 1 -0 0
321 63 100 1 -0 0
311 129 0 -1 0 0
311 173 0 -1 0 0
311 173 100 -1 0 0
311 129 100 -1 0 0
321 129 0 1 -0 0
321 178 0 1 -0 0
321 178 100 1 -0 0
321 129 100 1 -0 0
311 139 0 -0 1 0
442 139 0 -0 1 0
442 139 100 -0 1 0
311 139 100 -0 1 0
311 129 0 0 -1 0
447 129 0 0 -1 0
447 129 100 0 -1 0
311 129 100 0 -1 0
393 266 0 -1 0 0
393 310 0 -1 0 0
393 310 100 -1 0 0
393 266 100 -1 0 0
403 266 0 1 -0 0
403 305 0 1 -0 0
403 305 100 1 -0 0
403 266 100 1 -0 0
393 310 0 -1 0 0
393 353 0 -1 0 0
393 353 100 -1 0 0
393 310 100 -1 0 0
403 305 0 1 -0 0
403 353 0 1 -0 0
403 353 100 1 -0 0
403 305 100 1 -0 0
311 173 0 -1 0 0
311 193 0 -1 0 0
311 193 100 -1 0 0
311 173 100 -1 0 0
321 178 0 1 -0 0
321 193 0 1 -0 0
321 193 100 1 -0 0
321 178 100 1 -0 0
447 173 0 1 0 0
447 129 0 1 0 0
447 129 100 1 0 0
447 173 100 1 0 0
437 173 0 -1 -0 0
437 134 0 -1 -0 0
437 134 100 -1 -0 0
437 173 100 -1 -0 0
142 275 0 136.32000732421875 263 0
132 275 0 136.32000732421875 263 0
132 275 100 136.32000732421875 263 0
142 275 100 136.32000732421875 263 0
667 3 0 645.15625 2.90625 0
667 13 0 645.15625 2.90625 0
667 13 100 645.15625 2.90625 0
667 3 100 645.15625 2.90625 0
132 190 0 129.8360595703125 187.885238647460938 0
142 190 0 129.8360595703125 187.885238647460938 0
142 190 100 129.8360595703125 187.885238647460938 0
132 190 100 129.8360595703125 187.885238647460938 0
501 396 0 495.78125 392.875 0
511 396 0 495.78125 392.875 0
511 396 100 495.78125 392.875 0
501 396 100 495.78125 392.875 0
384 547 0 374.65216064453125 535.10870361328125 0
384 537 0 374.65216064453125 535.10870361328125 0
384 537 100 374.65216064453125 535.10870361328125 0
384 547 100 374.65216064453125 535.10870361328125 0
425 168 0 420.48052978515625 165.81817626953125 0
425 178 0 420.48052978515625 165.81817626953125 0
425 178 100 420.48052978515625 165.81817626953125 0
425 168 100 420.48052978515625 165.81817626953125 0
153 8 0 151.832061767578125 6.93893146514892578 0
163 8 0 151.832061767578125 6.93893146514892578 0
163 8 100 151.832061767578125 6.93893146514892578 0
153 8 100 151.832061767578125 6.93893146514892578 0
153 173 0 148.5 168.911758422851562 0
163 173 0 148.5 168.911758422851562 0
163 173 100 148.5 168.911758422851562 0
153 173 100 148.5 168.911758422851562 0
163 542 0 162.297409057617188 540.663818359375 0
153 542 0 162.297409057617188 540.663818359375 0
153 542 100 162.297409057617188 540.663818359375 0
163 542 100 162.297409057617188 540.663818359375 0
532 3 0 517.70001220703125 2.92499995231628418 0
532 13 0 517.70001220703125 2.92499995231628418 0
532 13 100 517.70001220703125 2.92499995231628418 0
532 3 100 517.70001220703125 2.92499995231628418 0
597 13 0 568.1500244140625 12.3500003814697266 0
597 3 0 568.1500244140625 12.3500003814697266 0
597 3 100 568.1500244140625 12.3500003814697266 0
597 13 100 568.1500244140625 12.3500003814697266 0
248 13 0 240.111114501953125 12.6388893127441406 0
248 3 0 240.111114501953125 12.6388893127441406 0
248 3 100 240.111114501953125 12.6388893127441406 0
248 13 100 240.111114501953125 12.6388893127441406 0
348 13 0 342.5555419921875 12.7592592239379883 0
348 3 0 342.5555419921875 12.7592592239379883 0
348 3 100 342.5555419921875 12.7592592239379883 0
348 13 100 342.5555419921875 12.7592592239379883 0
284 78 0 279.630767822265625 77.8000030517578125 0
294 78 0 279.630767822265625 77.8000030517578125 0
294 78 100 279.630767822265625 77.8000030517578125 0
284 78 100 279.630767822265625 77.8000030517578125 0
398 13 0 386.79486083984375 12.6666669845581055 0
398 3 0 386.79486083984375 12.6666669845581055 0
398 3 100 386.79486083984375 12.6666669845581055 0
398 13 100 386.79486083984375 12.6666669845581055 0
481 13 0 467.852935791015625 12.6176471710205078 0
481 3 0 467.852935791015625 12.6176471710205078 0
481 3 100 467.852935791015625 12.6176471710205078 0
481 13 100 467.852935791015625 12.6176471710205078 0
470 249 0 466.083343505859375 247.925003051757812 0
460 249 0 466.083343505859375 247.925003051757812 0
460 249 100 466.083343505859375 247.925003051757812 0
470 249 100 466.083343505859375 247.925003051757812 0
311 63 0 306.90789794921875 61.171051025390625 0
321 63 0 306.90789794921875 61.171051025390625 0
321 63 100 306.90789794921875 61.171051025390625 0
311 63 100 306.90789794921875 61.171051025390625 0
393 266 0 384.06817626953125 258.954559326171875 0
403 266 0 384.06817626953125 258.954559326171875 0
403 266 100 384.06817626953125 258.954559326171875 0
393 266 100 384.06817626953125 258.954559326171875 0
393 353 0 383.8604736328125 345.79071044921875 0
403 353 0 383.8604736328125 345.79071044921875 0
403 353 100 383.8604736328125 345.79071044921875 0
393 353 100 383.8604736328125 345.79071044921875 0
311 193 0 295.45001220703125 184.350006103515625 0
321 193 0 295.45001220703125 184.350006103515625 0
321 193 100 295.45001220703125 184.350006103515625 0
311 193 100 295.45001220703125 184.350006103515625 0
447 173 0 436.840911865234375 170.06817626953125 0
437 173 0 436.840911865234375 170.06817626953125 0
437 173 100 436.840911865234375 170.06817626953125 0
447 173 100 436.840911865234375 170.06817626953125 0
699 310 0 0 0 -1
689 300 0 0 0 -1
689 13 0 0 0 -1
699 3 0 0 0 -1
699 310 100 0 0 1
689 300 100 0 0 1
689 13 100 0 0 1
699 3 100 0 0 1
689 300 0 0 0 -1
699 310 0 0 0 -1
511 310 0 0 0 -1
501 300 0 0 0 -1
689 300 100 0 0 1
699 310 100 0 0 1
511 310 100 0 0 1
501 300 100 0 0 1
699 3 0 0 0 -1
689 13 0 0 0 -1
667 13 0 0 0 -1
667 3 0 0 0 -1
699 3 100 0 0 1
689 13 100 0 0 1
667 13 100 0 0 1
667 3 100 0 0 1
142 300 0 0 0 -1
132 310 0 0 0 -1
132 275 0 0 0 -1
142 275 0 0 0 -1
142 300 100 0 0 1
132 310 100 0 0 1
132 275 100 0 0 1
142 275 100 0 0 1
132 310 0 0 0 -1
142 300 0 0 0 -1
158 300 0 0 0 -1
153 310 0 0 0 -1
132 310 100 0 0 1
142 300 100 0 0 1
158 300 100 0 0 1
153 310 100 0 0 1
501 300 0 0 0 -1
511 310 0 0 0 -1
511 396 0 0 0 -1
501 396 0 0 0 -1
501 300 100 0 0 1
511 310 100 0 0 1
511 396 100 0 0 1
501 396 100 0 0 1
132 129 0 0 0 -1
142 139 0 0 0 -1
142 190 0 0 0 -1
132 190 0 0 0 -1
132 129 100 0 0 1
142 139 100 0 0 1
142 190 100 0 0 1
132 190 100 0 0 1
142 139 0 0 0 -1
132 129 0 0 0 -1
158 129 0 0 0 -1
153 139 0 0 0 -1
142 139 100 0 0 1
132 129 100 0 0 1
158 129 100 0 0 1
153 139 100 0 0 1
384 547 0 0 0 -1
384 537 0 0 0 -1
420 537 0 0 0 -1
430 547 0 0 0 -1
384 547 100 0 0 1
384 537 100 0 0 1
420 537 100 0 0 1
430 547 100 0 0 1
430 547 0 0 0 -1
420 537 0 0 0 -1
420 310 0 0 0 -1
430 305 0 0 0 -1
430 547 100 0 0 1
420 537 100 0 0 1
420 310 100 0 0 1
430 305 100 0 0 1
311 244 0 0 0 -1
321 254 0 0 0 -1
321 310 0 0 0 -1
311 310 0 0 0 -1
311 244 100 0 0 1
321 254 100 0 0 1
321 310 100 0 0 1
311 310 100 0 0 1
321 254 0 0 0 -1
311 244 0 0 0 -1
348 244 0 0 0 -1
353 254 0 0 0 -1
321 254 100 0 0 1
311 244 100 0 0 1
348 244 100 0 0 1
353 254 100 0 0 1
316 300 0 0 0 -1
321 310 0 0 0 -1
163 310 0 0 0 -1
158 300 0 0 0 -1
316 300 100 0 0 1
321 310 100 0 0 1
163 310 100 0 0 1
158 300 100 0 0 1
311 310 0 0 0 -1
316 300 0 0 0 -1
398 300 0 0 0 -1
393 310 0 0 0 -1
311 310 100 0 0 1
316 300 100 0 0 1
398 300 100 0 0 1
393 310 100 0 0 1
425 168 0 0 0 -1
425 178 0 0 0 -1
353 178 0 0 0 -1
348 168 0 0 0 -1
425 168 100 0 0 1
425 178 100 0 0 1
353 178 100 0 0 1
348 168 100 0 0 1
343 178 0 0 0 -1
353 178 0 0 0 -1
353 254 0 0 0 -1
343 254 0 0 0 -1
343 178 100 0 0 1
353 178 100 0 0 1
353 254 100 0 0 1
343 254 100 0 0 1
348 168 0 0 0 -1
343 178 0 0 0 -1
321 178 0 0 0 -1
316 168 0 0 0 -1
348 168 100 0 0 1
343 178 100 0 0 1
321 178 100 0 0 1
316 168 100 0 0 1
253 168 0 0 0 -1
243 178 0 0 0 -1
243 139 0 0 0 -1
253 139 0 0 0 -1
253 168 100 0 0 1
243 178 100 0 0 1
243 139 100 0 0 1
253 139 100 0 0 1
243 178 0 0 0 -1
253 168 0 0 0 -1
316 168 0 0 0 -1
321 178 0 0 0 -1
243 178 100 0 0 1
253 168 100 0 0 1
316 168 100 0 0 1
321 178 100 0 0 1
248 129 0 0 0 -1
243 139 0 0 0 -1
153 139 0 0 0 -1
158 129 0 0 0 -1
248 129 100 0 0 1
243 139 100 0 0 1
153 139 100 0 0 1
158 129 100 0 0 1
253 139 0 0 0 -1
248 129 0 0 0 -1
321 129 0 0 0 -1
321 139 0 0 0 -1
253 139 100 0 0 1
248 129 100 0 0 1
321 129 100 0 0 1
321 139 100 0 0 1
153 8 0 0 0 -1
163 8 0 0 0 -1
163 134 0 0 0 -1
153 139 0 0 0 -1
153 8 100 0 0 1
163 8 100 0 0 1
163 134 100 0 0 1
153 139 100 0 0 1
153 139 0 0 0 -1
163 134 0 0 0 -1
163 173 0 0 0 -1
153 173 0 0 0 -1
153 139 100 0 0 1
163 134 100 0 0 1
163 173 100 0 0 1
153 173 100 0 0 1
163 542 0 0 0 -1
153 542 0 0 0 -1
153 310 0 0 0 -1
163 310 0 0 0 -1
163 542 100 0 0 1
153 542 100 0 0 1
153 310 100 0 0 1
163 310 100 0 0 1
577 139 0 0 0 -1
567 129 0 0 0 -1
567 13 0 0 0 -1
577 13 0 0 0 -1
577 139 100 0 0 1
567 129 100 0 0 1
567 13 100 0 0 1
577 13 100 0 0 1
567 129 0 0 0 -1
577 139 0 0 0 -1
465 139 0 0 0 -1
460 129 0 0 0 -1
567 129 100 0 0 1
577 139 100 0 0 1
465 139 100 0 0 1
460 129 100 0 0 1
572 3 0 0 0 -1
567 13 0 0 0 -1
532 13 0 0 0 -1
532 3 0 0 0 -1
572 3 100 0 0 1
567 13 100 0 0 1
532 13 100 0 0 1
532 3 100 0 0 1
577 13 0 0 0 -1
572 3 0 0 0 -1
597 3 0 0 0 -1
597 13 0 0 0 -1
577 13 100 0 0 1
572 3 100 0 0 1
597 3 100 0 0 1
597 13 100 0 0 1
420 254 0 0 0 -1
430 244 0 0 0 -1
430 305 0 0 0 -1
420 300 0 0 0 -1
420 254 100 0 0 1
430 244 100 0 0 1
430 305 100 0 0 1
420 300 100 0 0 1
430 244 0 0 0 -1
420 254 0 0 0 -1
343 254 0 0 0 -1
348 244 0 0 0 -1
430 244 100 0 0 1
420 254 100 0 0 1
343 254 100 0 0 1
348 244 100 0 0 1
420 300 0 0 0 -1
420 310 0 0 0 -1
393 310 0 0 0 -1
398 300 0 0 0 -1
420 300 100 0 0 1
420 310 100 0 0 1
393 310 100 0 0 1
398 300 100 0 0 1
248 13 0 0 0 -1
248 3 0 0 0 -1
289 3 0 0 0 -1
284 13 0 0 0 -1
248 13 100 0 0 1
248 3 100 0 0 1
289 3 100 0 0 1
284 13 100 0 0 1
294 13 0 0 0 -1
289 3 0 0 0 -1
348 3 0 0 0 -1
348 13 0 0 0 -1
294 13 100 0 0 1
289 3 100 0 0 1
348 3 100 0 0 1
348 13 100 0 0 1
284 13 0 0 0 -1
294 13 0 0 0 -1
294 78 0 0 0 -1
284 78 0 0 0 -1
284 13 100 0 0 1
294 13 100 0 0 1
294 78 100 0 0 1
284 78 100 0 0 1
398 13 0 0 0 -1
398 3 0 0 0 -1
442 3 0 0 0 -1
437 13 0 0 0 -1
398 13 100 0 0 1
398 3 100 0 0 1
442 3 100 0 0 1
437 13 100 0 0 1
447 13 0 0 0 -1
442 3 0 0 0 -1
481 3 0 0 0 -1
481 13 0 0 0 -1
447 13 100 0 0 1
442 3 100 0 0 1
481 3 100 0 0 1
481 13 100 0 0 1
437 13 0 0 0 -1
447 13 0 0 0 -1
447 129 0 0 0 -1
437 134 0 0 0 -1
437 13 100 0 0 1
447 13 100 0 0 1
447 129 100 0 0 1
437 134 100 0 0 1
470 249 0 0 0 -1
460 249 0 0 0 -1
460 129 0 0 0 -1
470 129 0 0 0 -1
470 249 100 0 0 1
460 249 100 0 0 1
460 129 100 0 0 1
470 129 100 0 0 1
470 129 0 0 0 -1
465 139 0 0 0 -1
442 139 0 0 0 -1
447 129 0 0 0 -1
470 129 100 0 0 1
465 139 100 0 0 1
442 139 100 0 0 1
447 129 100 0 0 1
311 63 0 0 0 -1
321 63 0 0 0 -1
321 139 0 0 0 -1
311 139 0 0 0 -1
311 63 100 0 0 1
321 63 100 0 0 1
321 139 100 0 0 1
311 139 100 0 0 1
311 129 0 0 0 -1
321 129 0 0 0 -1
321 178 0 0 0 -1
311 173 0 0 0 -1
311 129 100 0 0 1
321 129 100 0 0 1
321 178 100 0 0 1
311 173 100 0 0 1
311 139 0 0 0 -1
311 129 0 0 0 -1
447 129 0 0 0 -1
442 139 0 0 0 -1
311 139 100 0 0 1
311 129 100 0 0 1
447 129 100 0 0 1
442 139 100 0 0 1
393 266 0 0 0 -1
403 266 0 0 0 -1
403 305 0 0 0 -1
393 310 0 0 0 -1
393 266 100 0 0 1
403 266 100 0 0 1
403 305 100 0 0 1
393 310 100 0 0 1
393 310 0 0 0 -1
403 305 0 0 0 -1
403 353 0 0 0 -1
393 353 0 0 0 -1
393 310 100 0 0 1
403 305 100 0 0 1
403 353 100 0 0 1
393 353 100 0 0 1
311 173 0 0 0 -1
321 178 0 0 0 -1
321 193 0 0 0 -1
311 193 0 0 0 -1
311 173 100 0 0 1
321 178 100 0 0 1
321 193 100 0 0 1
311 193 100 0 0 1
447 173 0 0 0 -1
437 173 0 0 0 -1
437 134 0 0 0 -1
447 129 0 0 0 -1
447 173 100 0 0 1
437 173 100 0 0 1
437 134 100 0 0 1
447 129 100 0 0 1
321 310 0 0 0 -1
316 300 0 0 0 -1
311 310 0 0 0 -1
321 310 100 0 0 1
316 300 100 0 0 1
311 310 100 0 0 1
353 178 0 0 0 -1
343 178 0 0 0 -1
348 168 0 0 0 -1
353 178 100 0 0 1
343 178 100 0 0 1
348 168 100 0 0 1
243 139 0 0 0 -1
248 129 0 0 0 -1
253 139 0 0 0 -1
243 139 100 0 0 1
248 129 100 0 0 1
253 139 100 0 0 1
163 134 0 0 0 -1
153 139 0 0 0 -1
158 129 0 0 0 -1
153 139 0 0 0 -1
163 134 100 0 0 1
153 139 100 0 0 1
158 129 100 0 0 1
153 139 100 0 0 1
153 310 0 0 0 -1
158 300 0 0 0 -1
163 310 0 0 0 -1
153 310 100 0 0 1
158 300 100 0 0 1
163 310 100 0 0 1
567 13 0 0 0 -1
572 3 0 0 0 -1
577 13 0 0 0 -1
567 13 100 0 0 1
572 3 100 0 0 1
577 13 100 0 0 1
430 305 0 0 0 -1
420 310 0 0 0 -1
420 300 0 0 0 -1
430 305 100 0 0 1
420 310 100 0 0 1
420 300 100 0 0 1
289 3 0 0 0 -1
294 13 0 0 0 -1
284 13 0 0 0 -1
289 3 100 0 0 1
294 13 100 0 0 1
284 13 100 0 0 1
442 3 0 0 0 -1
447 13 0 0 0 -1
437 13 0 0 0 -1
442 3 100 0 0 1
447 13 100 0 0 1
437 13 100 0 0 1
348 244 0 0 0 -1
343 254 0 0 0 -1
353 254 0 0 0 -1
348 244 100 0 0 1
343 254 100 0 0 1
353 254 100 0 0 1
460 129 0 0 0 -1
465 139 0 0 0 -1
470 129 0 0 0 -1
460 129 100 0 0 1
465 139 100 0 0 1
470 129 100 0 0 1
321 139 0 0 0 -1
321 129 0 0 0 -1
311 129 0 0 0 -1
311 139 0 0 0 -1
321 139 100 0 0 1
321 129 100 0 0 1
311 129 100 0 0 1
311 139 100 0 0 1
403 305 0 0 0 -1
393 310 0 0 0 -1
398 300 0 0 0 -1
393 310 0 0 0 -1
403 305 100 0 0 1
393 310 100 0 0 1
398 300 100 0 0 1
393 310 100 0 0 1
316 168 0 0 0 -1
321 178 0 0 0 -1
311 173 0 0 0 -1
321 178 0 0 0 -1
316 168 100 0 0 1
321 178 100 0 0 1
311 173 100 0 0 1
321 178 100 0 0 1
437 134 0 0 0 -1
447 129 0 0 0 -1
442 139 0 0 0 -1
447 129 0 0 0 -1
437 134 100 0 0 1
447 129 100 0 0 1
442 139 100 0 0 1
447 129 100 0 0 1
4 0 1 2 3
4 4 5 6 7
4 8 9 10 11
4 12 13 14 15
4 16 17 18 19
4 20 21 22 23
4 24 25 26 27
4 28 29 30 31
4 32 33 34 35
4 36 37 38 39
4 40 41 42 43
4 44 45 46 47
4 48 49 50 51
4 52 53 54 55
4 56 57 58 59
4 60 61 62 63
4 64 65 66 67
4 68 69 70 71
4 72 73 74 75
4 76 77 78 79
4 80 81 82 83
4 84 85 86 87
4 88 89 90 91
4 92 93 94 95
4 96 97 98 99
4 100 101 102 103
4 104 105 106 107
4 108 109 110 111
4 112 113 114 115
4 116 117 118 119
4 120 121 122 123
4 124 125 126 127
4 128 129 130 131
4 132 133 134 135
4 136 137 138 139
4 140 141 142 143
4 144 145 146 147
4 148 149 150 151
4 152 153 154 155
4 156 157 158 159
4 160 161 162 163
4 164 165 166 167
4 168 169 170 171
4 172 173 174 175
4 176 177 178 179
4 180 181 182 183
4 184 185 186 187
4 188 189 190 191
4 192 193 194 195
4 196 197 198 199
4 200 201 202 203
4 204 205 206 207
4 208 209 210 211
4 212 213 214 215
4 216 217 218 219
4 220 221 222 223
4 224 225 226 227
4 228 229 230 231
4 232 233 234 235
4 236 237 238 239
4 240 241 242 243
4 244 245 246 247
4 248 249 250 251
4 252 253 254 255
4 256 257 258 259
4 260 261 262 263
4 264 265 266 267
4 268 269 270 271
4 272 273 274 275
4 276 277 278 279
4 280 281 282 283
4 284 285 286 287
4 288 289 290 291
4 292 293 294 295
4 296 297 298 299
4 300 301 302 303
4 304 305 306 307
4 308 309 310 311
4 312 313 314 315
4 316 317 318 319
4 320 321 322 323
4 324 325 326 327
4 328 329 330 331
4 332 333 334 335
4 336 337 338 339
4 340 341 342 343
4 344 345 346 347
4 348 349 350 351
4 352 353 354 355
4 356 357 358 359
4 360 361 362 363
4 364 365 366 367
4 368 369 370 371
4 372 373 374 375
4 376 377 378 379
4 380 381 382 383
4 384 385 386 387
4 388 389 390 391
4 392 393 394 395
4 396 397 398 399
4 400 401 402 403
4 404 405 406 407
4 408 409 410 411
4 412 413 414 415
4 416 417 418 419
4 420 421 422 423
4 424 425 426 427
4 428 429 430 431
4 432 433 434 435
4 436 437 438 439
4 440 441 442 443
4 444 445 446 447
4 448 449 450 451
4 452 453 454 455
4 456 457 458 459
4 460 461 462 463
4 464 465 466 467
4 468 469 470 471
4 472 473 474 475
4 476 477 478 479
4 480 481 482 483
4 484 485 486 487
4 488 489 490 491
4 492 493 494 495
4 496 497 498 499
4 500 501 502 503
4 504 505 506 507
4 508 509 510 511
4 512 513 514 515
4 516 517 518 519
4 520 521 522 523
4 524 525 526 527
4 528 529 530 531
4 532 533 534 535
4 536 537 538 539
4 540 541 542 543
4 544 545 546 547
4 548 549 550 551
4 552 553 554 555
4 556 557 558 559
4 560 561 562 563
4 564 565 566 567
4 568 569 570 571
4 572 573 574 575
4 576 577 578 579
4 580 581 582 583
4 584 585 586 587
4 588 589 590 591
4 592 593 594 595
4 596 597 598 599
4 600 601 602 603
4 604 605 606 607
4 608 609 610 611
4 612 613 614 615
4 616 617 618 619
4 620 621 622 623
4 624 625 626 627
4 628 629 630 631
4 632 633 634 635
4 636 637 638 639
4 640 641 642 643
4 644 645 646 647
4 648 649 650 651
4 652 653 654 655
4 656 657 658 659
4 660 661 662 663
4 664 665 666 667
4 668 669 670 671
4 672 673 674 675
4 676 677 678 679
4 680 681 682 683
4 684 685 686 687
4 688 689 690 691
4 692 693 694 695
4 696 697 698 699
4 700 701 702 703
4 704 705 706 707
4 708 709 710 711
4 712 713 714 715
4 716 717 718 719
4 720 721 722 723
4 724 725 726 727
4 728 729 730 731
4 732 733 734 735
4 736 737 738 739
4 740 741 742 743
4 744 745 746 747
4 748 749 750 751
4 752 753 754 755
4 756 757 758 759
4 760 761 762 763
4 764 765 766 767
4 768 769 770 771
4 772 773 774 775
4 776 777 778 779
4 780 781 782 783
4 784 785 786 787
4 788 789 790 791
4 792 793 794 795
4 796 797 798 799
4 800 801 802 803
4 804 805 806 807
4 808 809 810 811
4 812 813 814 815
4 816 817 818 819
4 820 821 822 823
3 824 825 826
3 827 828 829
3 830 831 832
3 833 834 835
3 836 837 838
3 839 840 841
3 842 843 844
3 843 844 845
3 846 847 848
3 847 848 849
3 850 851 852
3 853 854 855
3 856 857 858
3 859 860 861
3 862 863 864
3 865 866 867
3 868 869 870
3 871 872 873
3 874 875 876
3 877 878 879
3 880 881 882
3 883 884 885
3 886 887 888
3 889 890 891
3 892 893 894
3 893 894 895
3 896 897 898
3 897 898 899
3 900 901 902
3 901 902 903
3 904 905 906
3 905 906 907
3 908 909 910
3 909 910 911
3 912 913 914
3 913 914 915
3 916 917 918
3 917 918 919
3 920 921 922
3 921 922 923
