ply
format ascii 1.0
element vertex 514
property float x
property float y
property float z
property float nx
property float ny
property float nz
element quads 109
property list uchar int vertex_indices
element triads 26
property list uchar int vertex_indices
end_header
357 251 0 -1 0 0
357 302 0 -1 0 0
357 302 100 -1 0 0
357 251 100 -1 0 0
367 251 0 1 -0 0
367 302 0 1 -0 0
367 302 100 1 -0 0
367 251 100 1 -0 0
362 292 0 -0 -1 0
241 292 0 -0 -1 0
241 292 100 -0 -1 0
362 292 100 -0 -1 0
367 302 0 0 1 0
241 302 0 0 1 0
241 302 100 0 1 0
367 302 100 0 1 0
357 302 0 -0 1 0
384 302 0 -0 1 0
384 302 100 -0 1 0
357 302 100 -0 1 0
362 292 0 0 -1 0
384 292 0 0 -1 0
384 292 100 0 -1 0
362 292 100 0 -1 0
524 481 0 1 0 0
524 343 0 1 0 0
524 343 100 1 0 0
524 481 100 1 0 0
514 471 0 -1 -0 0
514 348 0 -1 -0 0
514 348 100 -1 -0 0
514 471 100 -1 -0 0
514 471 0 -0 -1 0
389 471 0 -0 -1 0
389 471 100 -0 -1 0
514 471 100 -0 -1 0
524 481 0 0 1 0
384 481 0 0 1 0
384 481 100 0 1 0
524 481 100 0 1 0
524 353 0 1 0 0
524 315 0 1 0 0
524 315 100 1 0 0
524 353 100 1 0 0
514 348 0 -1 -0 0
514 320 0 -1 -0 0
514 320 100 -1 -0 0
514 348 100 -1 -0 0
524 343 0 -0 -1 0
430 343 0 -0 -1 0
430 343 100 -0 -1 0
524 343 100 -0 -1 0
524 353 0 0 1 0
425 353 0 0 1 0
425 353 100 0 1 0
524 353 100 0 1 0
464 325 0 -0 1 0
524 325 0 -0 1 0
524 325 100 -0 1 0
464 325 100 -0 1 0
464 315 0 0 -1 0
524 315 0 0 -1 0
524 315 100 0 -1 0
464 315 100 0 -1 0
524 325 0 1 0 0
524 251 0 1 0 0
524 251 100 1 0 0
524 325 100 1 0 0
514 320 0 -1 -0 0
514 256 0 -1 -0 0
514 256 100 -1 -0 0
514 320 100 -1 -0 0
362 152 0 -0 1 0
394 152 0 -0 1 0
394 152 100 -0 1 0
362 152 100 -0 1 0
362 142 0 0 -1 0
394 142 0 0 -1 0
394 142 100 0 -1 0
362 142 100 0 -1 0
384 147 0 -1 0 0
384 188 0 -1 0 0
384 188 100 -1 0 0
384 147 100 -1 0 0
394 142 0 1 -0 0
394 193 0 1 -0 0
394 193 100 1 -0 0
394 142 100 1 -0 0
394 152 0 1 0 0
394 80 0 1 0 0
394 80 100 1 0 0
394 152 100 1 0 0
384 147 0 -1 -0 0
384 80 0 -1 -0 0
384 80 100 -1 -0 0
384 147 100 -1 -0 0
362 198 0 -0 1 0
384 198 0 -0 1 0
384 198 100 -0 1 0
362 198 100 -0 1 0
362 188 0 0 -1 0
384 188 0 0 -1 0
384 188 100 0 -1 0
362 188 100 0 -1 0
384 198 0 -1 0 0
384 292 0 -1 0 0
384 292 100 -1 0 0
384 198 100 -1 0 0
394 193 0 1 -0 0
394 297 0 1 -0 0
394 297 100 1 -0 0
394 193 100 1 -0 0
241 70 0 -1 0 0
241 302 0 -1 0 0
241 302 100 -1 0 0
241 70 100 -1 0 0
251 80 0 1 -0 0
251 297 0 1 -0 0
251 297 100 1 -0 0
251 80 100 1 -0 0
251 80 0 -0 1 0
384 80 0 -0 1 0
384 80 100 -0 1 0
251 80 100 -0 1 0
241 70 0 0 -1 0
389 70 0 0 -1 0
389 70 100 0 -1 0
241 70 100 0 -1 0
241 292 0 -1 0 0
241 481 0 -1 0 0
241 481 100 -1 0 0
241 292 100 -1 0 0
251 297 0 1 -0 0
251 471 0 1 -0 0
251 471 100 1 -0 0
251 297 100 1 -0 0
241 481 0 -0 1 0
394 481 0 -0 1 0
394 481 100 -0 1 0
241 481 100 -0 1 0
251 471 0 0 -1 0
389 471 0 0 -1 0
389 471 100 0 -1 0
251 471 100 0 -1 0
435 353 0 1 0 0
435 251 0 1 0 0
435 251 100 1 0 0
435 353 100 1 0 0
425 353 0 -1 -0 0
425 246 0 -1 -0 0
425 246 100 -1 -0 0
425 353 100 -1 -0 0
430 343 0 -0 -1 0
394 343 0 -0 -1 0
394 343 100 -0 -1 0
430 343 100 -0 -1 0
435 353 0 0 1 0
394 353 0 0 1 0
394 353 100 0 1 0
435 353 100 0 1 0
514 80 0 -1 0 0
514 246 0 -1 0 0
514 246 100 -1 0 0
514 80 100 -1 0 0
524 70 0 1 -0 0
524 251 0 1 -0 0
524 251 100 1 -0 0
524 70 100 1 -0 0
524 70 0 -0 -1 0
389 70 0 -0 -1 0
389 70 100 -0 -1 0
524 70 100 -0 -1 0
514 80 0 0 1 0
394 80 0 0 1 0
394 80 100 0 1 0
514 80 100 0 1 0
514 246 0 -0 -1 0
425 246 0 -0 -1 0
425 246 100 -0 -1 0
514 246 100 -0 -1 0
514 256 0 0 1 0
425 256 0 0 1 0
425 256 100 0 1 0
514 256 100 0 1 0
394 481 0 1 0 0
394 353 0 1 0 0
394 353 100 1 0 0
394 481 100 1 0 0
384 481 0 -1 -0 0
384 348 0 -1 -0 0
384 348 100 -1 -0 0
384 481 100 -1 -0 0
384 302 0 -1 0 0
384 348 0 -1 0 0
384 348 100 -1 0 0
384 302 100 -1 0 0
394 297 0 1 -0 0
394 343 0 1 -0 0
394 343 100 1 -0 0
394 297 100 1 -0 0
425 223 0 -1 0 0
425 256 0 -1 0 0
425 256 100 -1 0 0
425 223 100 -1 0 0
435 223 0 1 -0 0
435 251 0 1 -0 0
435 251 100 1 -0 0
435 223 100 1 -0 0
357 251 0 350 245.07843017578125 0
367 251 0 350 245.07843017578125 0
367 251 100 350 245.07843017578125 0
357 251 100 350 245.07843017578125 0
464 325 0 455.26666259765625 319.583343505859375 0
464 315 0 455.26666259765625 319.583343505859375 0
464 315 100 455.26666259765625 319.583343505859375 0
464 325 100 455.26666259765625 319.583343505859375 0
362 152 0 349.6875 147.25 0
362 142 0 349.6875 147.25 0
362 142 100 349.6875 147.25 0
362 152 100 349.6875 147.25 0
362 198 0 344.545440673828125 189 0
362 188 0 344.545440673828125 189 0
362 188 100 344.545440673828125 189 0
362 198 100 344.545440673828125 189 0
425 223 0 412.1212158203125 215.242431640625 0
435 223 0 412.1212158203125 215.242431640625 0
435 223 100 412.1212158203125 215.242431640625 0
425 223 100 412.1212158203125 215.242431640625 0
357 251 0 0 0 -1
367 251 0 0 0 -1
367 302 0 0 0 -1
357 302 0 0 0 -1
357 251 100 0 0 1
367 251 100 0 0 1
367 302 100 0 0 1
357 302 100 0 0 1
362 292 0 0 0 -1
367 302 0 0 0 -1
241 302 0 0 0 -1
241 292 0 0 0 -1
362 292 100 0 0 1
367 302 100 0 0 1
241 302 100 0 0 1
241 292 100 0 0 1
357 302 0 0 0 -1
362 292 0 0 0 -1
384 292 0 0 0 -1
384 302 0 0 0 -1
357 302 100 0 0 1
362 292 100 0 0 1
384 292 100 0 0 1
384 302 100 0 0 1
524 481 0 0 0 -1
514 471 0 0 0 -1
514 348 0 0 0 -1
524 343 0 0 0 -1
524 481 100 0 0 1
514 471 100 0 0 1
514 348 100 0 0 1
524 343 100 0 0 1
514 471 0 0 0 -1
524 481 0 0 0 -1
384 481 0 0 0 -1
389 471 0 0 0 -1
514 471 100 0 0 1
524 481 100 0 0 1
384 481 100 0 0 1
389 471 100 0 0 1
524 353 0 0 0 -1
514 348 0 0 0 -1
514 320 0 0 0 -1
524 315 0 0 0 -1
524 353 100 0 0 1
514 348 100 0 0 1
514 320 100 0 0 1
524 315 100 0 0 1
524 343 0 0 0 -1
524 353 0 0 0 -1
425 353 0 0 0 -1
430 343 0 0 0 -1
524 343 100 0 0 1
524 353 100 0 0 1
425 353 100 0 0 1
430 343 100 0 0 1
464 325 0 0 0 -1
464 315 0 0 0 -1
524 315 0 0 0 -1
524 325 0 0 0 -1
464 325 100 0 0 1
464 315 100 0 0 1
524 315 100 0 0 1
524 325 100 0 0 1
524 325 0 0 0 -1
514 320 0 0 0 -1
514 256 0 0 0 -1
524 251 0 0 0 -1
524 325 100 0 0 1
514 320 100 0 0 1
514 256 100 0 0 1
524 251 100 0 0 1
362 152 0 0 0 -1
362 142 0 0 0 -1
394 142 0 0 0 -1
394 152 0 0 0 -1
362 152 100 0 0 1
362 142 100 0 0 1
394 142 100 0 0 1
394 152 100 0 0 1
384 147 0 0 0 -1
394 142 0 0 0 -1
394 193 0 0 0 -1
384 188 0 0 0 -1
384 147 100 0 0 1
394 142 100 0 0 1
394 193 100 0 0 1
384 188 100 0 0 1
394 152 0 0 0 -1
384 147 0 0 0 -1
384 80 0 0 0 -1
394 80 0 0 0 -1
394 152 100 0 0 1
384 147 100 0 0 1
384 80 100 0 0 1
394 80 100 0 0 1
362 198 0 0 0 -1
362 188 0 0 0 -1
384 188 0 0 0 -1
384 198 0 0 0 -1
362 198 100 0 0 1
362 188 100 0 0 1
384 188 100 0 0 1
384 198 100 0 0 1
384 198 0 0 0 -1
394 193 0 0 0 -1
394 297 0 0 0 -1
384 292 0 0 0 -1
384 198 100 0 0 1
394 193 100 0 0 1
394 297 100 0 0 1
384 292 100 0 0 1
241 70 0 0 0 -1
251 80 0 0 0 -1
251 297 0 0 0 -1
241 302 0 0 0 -1
241 70 100 0 0 1
251 80 100 0 0 1
251 297 100 0 0 1
241 302 100 0 0 1
251 80 0 0 0 -1
241 70 0 0 0 -1
389 70 0 0 0 -1
384 80 0 0 0 -1
251 80 100 0 0 1
241 70 100 0 0 1
389 70 100 0 0 1
384 80 100 0 0 1
241 292 0 0 0 -1
251 297 0 0 0 -1
251 471 0 0 0 -1
241 481 0 0 0 -1
241 292 100 0 0 1
251 297 100 0 0 1
251 471 100 0 0 1
241 481 100 0 0 1
241 481 0 0 0 -1
251 471 0 0 0 -1
389 471 0 0 0 -1
394 481 0 0 0 -1
241 481 100 0 0 1
251 471 100 0 0 1
389 471 100 0 0 1
394 481 100 0 0 1
435 353 0 0 0 -1
425 353 0 0 0 -1
425 246 0 0 0 -1
435 251 0 0 0 -1
435 353 100 0 0 1
425 353 100 0 0 1
425 246 100 0 0 1
435 251 100 0 0 1
430 343 0 0 0 -1
435 353 0 0 0 -1
394 353 0 0 0 -1
394 343 0 0 0 -1
430 343 100 0 0 1
435 353 100 0 0 1
394 353 100 0 0 1
394 343 100 0 0 1
514 80 0 0 0 -1
524 70 0 0 0 -1
524 251 0 0 0 -1
514 246 0 0 0 -1
514 80 100 0 0 1
524 70 100 0 0 1
524 251 100 0 0 1
514 246 100 0 0 1
524 70 0 0 0 -1
514 80 0 0 0 -1
394 80 0 0 0 -1
389 70 0 0 0 -1
524 70 100 0 0 1
514 80 100 0 0 1
394 80 100 0 0 1
389 70 100 0 0 1
514 246 0 0 0 -1
514 256 0 0 0 -1
425 256 0 0 0 -1
425 246 0 0 0 -1
514 246 100 0 0 1
514 256 100 0 0 1
425 256 100 0 0 1
425 246 100 0 0 1
394 481 0 0 0 -1
384 481 0 0 0 -1
384 348 0 0 0 -1
394 353 0 0 0 -1
394 481 100 0 0 1
384 481 100 0 0 1
384 348 100 0 0 1
394 353 100 0 0 1
384 302 0 0 0 -1
394 297 0 0 0 -1
394 343 0 0 0 -1
384 348 0 0 0 -1
384 302 100 0 0 1
394 297 100 0 0 1
394 343 100 0 0 1
384 348 100 0 0 1
425 223 0 0 0 -1
435 223 0 0 0 -1
435 251 0 0 0 -1
425 256 0 0 0 -1
425 223 100 0 0 1
435 223 100 0 0 1
435 251 100 0 0 1
425 256 100 0 0 1
367 302 0 0 0 -1
362 292 0 0 0 -1
357 302 0 0 0 -1
367 302 100 0 0 1
362 292 100 0 0 1
357 302 100 0 0 1
514 348 0 0 0 -1
524 353 0 0 0 -1
524 343 0 0 0 -1
514 348 100 0 0 1
524 353 100 0 0 1
524 343 100 0 0 1
524 315 0 0 0 -1
514 320 0 0 0 -1
524 325 0 0 0 -1
524 315 100 0 0 1
514 320 100 0 0 1
524 325 100 0 0 1
394 142 0 0 0 -1
384 147 0 0 0 -1
394 152 0 0 0 -1
394 142 100 0 0 1
384 147 100 0 0 1
394 152 100 0 0 1
384 188 0 0 0 -1
394 193 0 0 0 -1
384 198 0 0 0 -1
384 188 100 0 0 1
394 193 100 0 0 1
384 198 100 0 0 1
251 297 0 0 0 -1
241 292 0 0 0 -1
241 302 0 0 0 -1
251 297 100 0 0 1
241 292 100 0 0 1
241 302 100 0 0 1
425 353 0 0 0 -1
435 353 0 0 0 -1
430 343 0 0 0 -1
425 353 100 0 0 1
435 353 100 0 0 1
430 343 100 0 0 1
524 251 0 0 0 -1
514 256 0 0 0 -1
514 246 0 0 0 -1
524 251 100 0 0 1
514 256 100 0 0 1
514 246 100 0 0 1
389 70 0 0 0 -1
394 80 0 0 0 -1
384 80 0 0 0 -1
389 70 100 0 0 1
394 80 100 0 0 1
384 80 100 0 0 1
389 471 0 0 0 -1
384 481 0 0 0 -1
394 481 0 0 0 -1
389 471 100 0 0 1
384 481 100 0 0 1
394 481 100 0 0 1
384 292 0 0 0 -1
394 297 0 0 0 -1
384 302 0 0 0 -1
384 292 100 0 0 1
394 297 100 0 0 1
384 302 100 0 0 1
435 251 0 0 0 -1
425 246 0 0 0 -1
425 256 0 0 0 -1
435 251 100 0 0 1
425 246 100 0 0 1
425 256 100 0 0 1
394 353 0 0 0 -1
384 348 0 0 0 -1
394 343 0 0 0 -1
394 353 100 0 0 1
384 348 100 0 0 1
394 343 100 0 0 1
4 0 1 2 3
4 4 5 6 7
4 8 9 10 11
4 12 13 14 15
4 16 17 18 19
4 20 21 22 23
4 24 25 26 27
4 28 29 30 31
4 32 33 34 35
4 36 37 38 39
4 40 41 42 43
4 44 45 46 47
4 48 49 50 51
4 52 53 54 55
4 56 57 58 59
4 60 61 62 63
4 64 65 66 67
4 68 69 70 71
4 72 73 74 75
4 76 77 78 79
4 80 81 82 83
4 84 85 86 87
4 88 89 90 91
4 92 93 94 95
4 96 97 98 99
4 100 101 102 103
4 104 105 106 107
4 108 109 110 111
4 112 113 114 115
4 116 117 118 119
4 120 121 122 123
4 124 125 126 127
4 128 129 130 131
4 132 133 134 135
4 136 137 138 139
4 140 141 142 143
4 144 145 146 147
4 148 149 150 151
4 152 153 154 155
4 156 157 158 159
4 160 161 162 163
4 164 165 166 167
4 168 169 170 171
4 172 173 174 175
4 176 177 178 179
4 180 181 182 183
4 184 185 186 187
4 188 189 190 191
4 192 193 194 195
4 196 197 198 199
4 200 201 202 203
4 204 205 206 207
4 208 209 210 211
4 212 213 214 215
4 216 217 218 219
4 220 221 222 223
4 224 225 226 227
4 228 229 230 231
4 232 233 234 235
4 236 237 238 239
4 240 241 242 243
4 244 245 246 247
4 248 249 250 251
4 252 253 254 255
4 256 257 258 259
4 260 261 262 263
4 264 265 266 267
4 268 269 270 271
4 272 273 274 275
4 276 277 278 279
4 280 281 282 283
4 284 285 286 287
4 288 289 290 291
4 292 293 294 295
4 296 297 298 299
4 300 301 302 303
4 304 305 306 307
4 308 309 310 311
4 312 313 314 315
4 316 317 318 319
4 320 321 322 323
4 324 325 326 327
4 328 329 330 331
4 332 333 334 335
4 336 337 338 339
4 340 341 342 343
4 344 345 346 347
4 348 349 350 351
4 352 353 354 355
4 356 357 358 359
4 360 361 362 363
4 364 365 366 367
4 368 369 370 371
4 372 373 374 375
4 376 377 378 379
4 380 381 382 383
4 384 385 386 387
4 388 389 390 391
4 392 393 394 395
4 396 397 398 399
4 400 401 402 403
4 404 405 406 407
4 408 409 410 411
4 412 413 414 415
4 416 417 418 419
4 420 421 422 423
4 424 425 426 427
4 428 429 430 431
4 432 433 434 435
3 436 437 438
3 439 440 441
3 442 443 444
3 445 446 447
3 448 449 450
3 451 452 453
3 454 455 456
3 457 458 459
3 460 461 462
3 463 464 465
3 466 467 468
3 469 470 471
3 472 473 474
3 475 476 477
3 478 479 480
3 481 482 483
3 484 485 486
3 487 488 489
3 490 491 492
3 493 494 495
3 496 497 498
3 499 500 501
3 502 503 504
3 505 506 507
3 508 509 510
3 511 512 513
