ply
format ascii 1.0
element vertex 1356
property float x
property float y
property float z
property float nx
property float ny
property float nz
element quads 296
property list uchar int vertex_indices
element triads 64
property list uchar int vertex_indices
end_header
90 159 0 1 0 0
90 85 0 1 0 0
90 85 100 1 0 0
90 159 100 1 0 0
80 159 0 -1 -0 0
80 85 0 -1 -0 0
80 85 100 -1 -0 0
80 159 100 -1 -0 0
485 90 0 -0 1 0
553 90 0 -0 1 0
553 90 100 -0 1 0
485 90 100 -0 1 0
475 80 0 0 -1 0
563 80 0 0 -1 0
563 80 100 0 -1 0
475 80 100 0 -1 0
475 80 0 -1 0 0
475 204 0 -1 0 0
475 204 100 -1 0 0
475 80 100 -1 0 0
485 90 0 1 -0 0
485 194 0 1 -0 0
485 194 100 1 -0 0
485 90 100 1 -0 0
553 90 0 -1 0 0
553 137 0 -1 0 0
553 137 100 -1 0 0
553 90 100 -1 0 0
563 80 0 1 -0 0
563 132 0 1 -0 0
563 132 100 1 -0 0
563 80 100 1 -0 0
54 111 0 1 0 0
54 85 0 1 0 0
54 85 100 1 0 0
54 111 100 1 0 0
44 111 0 -1 -0 0
44 85 0 -1 -0 0
44 85 100 -1 -0 0
44 111 100 -1 -0 0
365 90 0 -0 1 0
403 90 0 -0 1 0
403 90 100 -0 1 0
365 90 100 -0 1 0
365 80 0 0 -1 0
403 80 0 0 -1 0
403 80 100 0 -1 0
365 80 100 0 -1 0
427 341 0 -1 0 0
427 386 0 -1 0 0
427 386 100 -1 0 0
427 341 100 -1 0 0
437 341 0 1 -0 0
437 376 0 1 -0 0
437 376 100 1 -0 0
437 341 100 1 -0 0
427 386 0 -0 1 0
542 386 0 -0 1 0
542 386 100 -0 1 0
427 386 100 -0 1 0
437 376 0 0 -1 0
537 376 0 0 -1 0
537 376 100 0 -1 0
437 376 100 0 -1 0
360 341 0 -1 0 0
360 401 0 -1 0 0
360 401 100 -1 0 0
360 341 100 -1 0 0
370 341 0 1 -0 0
370 411 0 1 -0 0
370 411 100 1 -0 0
370 341 100 1 -0 0
360 401 0 -0 -1 0
220 401 0 -0 -1 0
220 401 100 -0 -1 0
360 401 100 -0 -1 0
370 411 0 0 1 0
220 411 0 0 1 0
220 411 100 0 1 0
370 411 100 0 1 0
517 341 0 -1 0 0
517 365 0 -1 0 0
517 365 100 -1 0 0
517 341 100 -1 0 0
527 341 0 1 -0 0
527 365 0 1 -0 0
527 365 100 1 -0 0
527 341 100 1 -0 0
475 204 0 -0 1 0
532 204 0 -0 1 0
532 204 100 -0 1 0
475 204 100 -0 1 0
485 194 0 0 -1 0
537 194 0 0 -1 0
537 194 100 0 -1 0
485 194 100 0 -1 0
811 127 0 -0 -1 0
553 127 0 -0 -1 0
553 127 100 -0 -1 0
811 127 100 -0 -1 0
801 137 0 0 1 0
553 137 0 0 1 0
553 137 100 0 1 0
801 137 100 0 1 0
801 137 0 -1 0 0
801 360 0 -1 0 0
801 360 100 -1 0 0
801 137 100 -1 0 0
811 127 0 1 -0 0
811 370 0 1 -0 0
811 370 100 1 -0 0
811 127 100 1 -0 0
553 127 0 -1 0 0
553 199 0 -1 0 0
553 199 100 -1 0 0
553 127 100 -1 0 0
563 132 0 1 -0 0
563 204 0 1 -0 0
563 204 100 1 -0 0
563 132 100 1 -0 0
654 370 0 -0 1 0
811 370 0 -0 1 0
811 370 100 -0 1 0
654 370 100 -0 1 0
654 360 0 0 -1 0
801 360 0 0 -1 0
801 360 100 0 -1 0
654 360 100 0 -1 0
532 341 0 -1 0 0
532 386 0 -1 0 0
532 386 100 -1 0 0
532 341 100 -1 0 0
542 341 0 1 -0 0
542 386 0 1 -0 0
542 386 100 1 -0 0
542 341 100 1 -0 0
532 386 0 -0 1 0
558 386 0 -0 1 0
558 386 100 -0 1 0
532 386 100 -0 1 0
537 376 0 0 -1 0
553 376 0 0 -1 0
553 376 100 0 -1 0
537 376 100 0 -1 0
230 406 0 1 0 0
230 341 0 1 0 0
230 341 100 1 0 0
230 406 100 1 0 0
220 411 0 -1 -0 0
220 341 0 -1 -0 0
220 341 100 -1 -0 0
220 411 100 -1 -0 0
220 401 0 -1 0 0
220 477 0 -1 0 0
220 477 100 -1 0 0
220 401 100 -1 0 0
230 406 0 1 -0 0
230 487 0 1 -0 0
230 487 100 1 -0 0
230 406 100 1 -0 0
220 477 0 -0 -1 0
49 477 0 -0 -1 0
49 477 100 -0 -1 0
220 477 100 -0 -1 0
230 487 0 0 1 0
44 487 0 0 1 0
44 487 100 0 1 0
230 487 100 0 1 0
260 90 0 -0 1 0
290 90 0 -0 1 0
290 90 100 -0 1 0
260 90 100 -0 1 0
260 80 0 0 -1 0
295 80 0 0 -1 0
295 80 100 0 -1 0
260 80 100 0 -1 0
300 90 0 -0 1 0
326 90 0 -0 1 0
326 90 100 -0 1 0
300 90 100 -0 1 0
295 80 0 0 -1 0
326 80 0 0 -1 0
326 80 100 0 -1 0
295 80 100 0 -1 0
290 90 0 -1 0 0
290 199 0 -1 0 0
290 199 100 -1 0 0
290 90 100 -1 0 0
300 90 0 1 -0 0
300 204 0 1 -0 0
300 204 100 1 -0 0
300 90 100 1 -0 0
389 194 0 -0 -1 0
360 194 0 -0 -1 0
360 194 100 -0 -1 0
389 194 100 -0 -1 0
389 204 0 0 1 0
365 204 0 0 1 0
365 204 100 0 1 0
389 204 100 0 1 0
370 194 0 -0 -1 0
295 194 0 -0 -1 0
295 194 100 -0 -1 0
370 194 100 -0 -1 0
365 204 0 0 1 0
300 204 0 0 1 0
300 204 100 0 1 0
365 204 100 0 1 0
360 194 0 -1 0 0
360 237 0 -1 0 0
360 237 100 -1 0 0
360 194 100 -1 0 0
370 194 0 1 -0 0
370 232 0 1 -0 0
370 232 100 1 -0 0
370 194 100 1 -0 0
143 194 0 -1 0 0
143 232 0 -1 0 0
143 232 100 -1 0 0
143 194 100 -1 0 0
153 204 0 1 -0 0
153 232 0 1 -0 0
153 232 100 1 -0 0
153 204 100 1 -0 0
153 204 0 -0 1 0
172 204 0 -0 1 0
172 204 100 -0 1 0
153 204 100 -0 1 0
143 194 0 0 -1 0
167 194 0 0 -1 0
167 194 100 0 -1 0
143 194 100 0 -1 0
153 242 0 -0 1 0
188 242 0 -0 1 0
188 242 100 -0 1 0
153 242 100 -0 1 0
153 232 0 0 -1 0
193 232 0 0 -1 0
193 232 100 0 -1 0
153 232 100 0 -1 0
143 242 0 -1 0 0
143 346 0 -1 0 0
143 346 100 -1 0 0
143 242 100 -1 0 0
153 242 0 1 -0 0
153 346 0 1 -0 0
153 346 100 1 -0 0
153 242 100 1 -0 0
143 232 0 -0 -1 0
80 232 0 -0 -1 0
80 232 100 -0 -1 0
143 232 100 -0 -1 0
143 242 0 0 1 0
85 242 0 0 1 0
85 242 100 0 1 0
143 242 100 0 1 0
437 287 0 1 0 0
437 232 0 1 0 0
437 232 100 1 0 0
437 287 100 1 0 0
427 287 0 -1 -0 0
427 232 0 -1 -0 0
427 232 100 -1 -0 0
427 287 100 -1 -0 0
432 242 0 -0 1 0
537 242 0 -0 1 0
537 242 100 -0 1 0
432 242 100 -0 1 0
427 232 0 0 -1 0
532 232 0 0 -1 0
532 232 100 0 -1 0
427 232 100 0 -1 0
437 232 0 -0 -1 0
370 232 0 -0 -1 0
370 232 100 -0 -1 0
437 232 100 -0 -1 0
432 242 0 0 1 0
365 242 0 0 1 0
365 242 100 0 1 0
432 242 100 0 1 0
542 232 0 1 0 0
542 199 0 1 0 0
542 199 100 1 0 0
542 232 100 1 0 0
532 232 0 -1 -0 0
532 204 0 -1 -0 0
532 204 100 -1 -0 0
532 232 100 -1 -0 0
537 242 0 -0 1 0
553 242 0 -0 1 0
553 242 100 -0 1 0
537 242 100 -0 1 0
542 232 0 0 -1 0
553 232 0 0 -1 0
553 232 100 0 -1 0
542 232 100 0 -1 0
162 132 0 -1 0 0
162 204 0 -1 0 0
162 204 100 -1 0 0
162 132 100 -1 0 0
172 132 0 1 -0 0
172 204 0 1 -0 0
172 204 100 1 -0 0
172 132 100 1 -0 0
162 204 0 -0 1 0
225 204 0 -0 1 0
225 204 100 -0 1 0
162 204 100 -0 1 0
167 194 0 0 -1 0
230 194 0 0 -1 0
230 194 100 0 -1 0
167 194 100 0 -1 0
220 194 0 -1 0 0
220 237 0 -1 0 0
220 237 100 -1 0 0
220 194 100 -1 0 0
230 194 0 1 -0 0
230 242 0 1 -0 0
230 242 100 1 -0 0
230 194 100 1 -0 0
225 204 0 -0 1 0
300 204 0 -0 1 0
300 204 100 -0 1 0
225 204 100 -0 1 0
220 194 0 0 -1 0
295 194 0 0 -1 0
295 194 100 0 -1 0
220 194 100 0 -1 0
563 194 0 -0 -1 0
537 194 0 -0 -1 0
537 194 100 -0 -1 0
563 194 100 -0 -1 0
563 204 0 0 1 0
532 204 0 0 1 0
532 204 100 0 1 0
563 204 100 0 1 0
553 199 0 -1 0 0
553 232 0 -1 0 0
553 232 100 -1 0 0
553 199 100 -1 0 0
563 194 0 1 -0 0
563 237 0 1 -0 0
563 237 100 1 -0 0
563 194 100 1 -0 0
113 90 0 -0 1 0
143 90 0 -0 1 0
143 90 100 -0 1 0
113 90 100 -0 1 0
113 80 0 0 -1 0
148 80 0 0 -1 0
148 80 100 0 -1 0
113 80 100 0 -1 0
153 90 0 -0 1 0
193 90 0 -0 1 0
193 90 100 -0 1 0
153 90 100 -0 1 0
148 80 0 0 -1 0
193 80 0 0 -1 0
193 80 100 0 -1 0
148 80 100 0 -1 0
143 90 0 -1 0 0
143 132 0 -1 0 0
143 132 100 -1 0 0
143 90 100 -1 0 0
153 90 0 1 -0 0
153 132 0 1 -0 0
153 132 100 1 -0 0
153 90 100 1 -0 0
18 487 0 -0 1 0
54 487 0 -0 1 0
54 487 100 -0 1 0
18 487 100 -0 1 0
28 477 0 0 -1 0
49 477 0 0 -1 0
49 477 100 0 -1 0
28 477 100 0 -1 0
28 477 0 1 0 0
28 346 0 1 0 0
28 346 100 1 0 0
28 477 100 1 0 0
18 487 0 -1 -0 0
18 341 0 -1 -0 0
18 341 100 -1 -0 0
18 487 100 -1 -0 0
54 487 0 1 0 0
54 428 0 1 0 0
54 428 100 1 0 0
54 487 100 1 0 0
44 487 0 -1 -0 0
44 428 0 -1 -0 0
44 428 100 -1 -0 0
44 487 100 -1 -0 0
18 85 0 -1 0 0
18 242 0 -1 0 0
18 242 100 -1 0 0
18 85 100 -1 0 0
28 85 0 1 -0 0
28 237 0 1 -0 0
28 237 100 1 -0 0
28 85 100 1 -0 0
18 232 0 -1 0 0
18 341 0 -1 0 0
18 341 100 -1 0 0
18 232 100 -1 0 0
28 237 0 1 -0 0
28 336 0 1 -0 0
28 336 100 1 -0 0
28 237 100 1 -0 0
18 242 0 -0 1 0
85 242 0 -0 1 0
85 242 100 -0 1 0
18 242 100 -0 1 0
18 232 0 0 -1 0
90 232 0 0 -1 0
90 232 100 0 -1 0
18 232 100 0 -1 0
198 242 0 -0 1 0
230 242 0 -0 1 0
230 242 100 -0 1 0
198 242 100 -0 1 0
193 232 0 0 -1 0
225 232 0 0 -1 0
225 232 100 0 -1 0
193 232 100 0 -1 0
188 242 0 -1 0 0
188 341 0 -1 0 0
188 341 100 -1 0 0
188 242 100 -1 0 0
198 242 0 1 -0 0
198 346 0 1 -0 0
198 346 100 1 -0 0
198 242 100 1 -0 0
230 297 0 1 0 0
230 242 0 1 0 0
230 242 100 1 0 0
230 297 100 1 0 0
220 297 0 -1 -0 0
220 237 0 -1 -0 0
220 237 100 -1 -0 0
220 297 100 -1 -0 0
230 242 0 -0 1 0
300 242 0 -0 1 0
300 242 100 -0 1 0
230 242 100 -0 1 0
225 232 0 0 -1 0
295 232 0 0 -1 0
295 232 100 0 -1 0
225 232 100 0 -1 0
532 160 0 -1 0 0
532 204 0 -1 0 0
532 204 100 -1 0 0
532 160 100 -1 0 0
542 160 0 1 -0 0
542 199 0 1 -0 0
542 199 100 1 -0 0
542 160 100 1 -0 0
553 242 0 -1 0 0
553 376 0 -1 0 0
553 376 100 -1 0 0
553 242 100 -1 0 0
563 237 0 1 -0 0
563 376 0 1 -0 0
563 376 100 1 -0 0
563 237 100 1 -0 0
594 376 0 -0 -1 0
563 376 0 -0 -1 0
563 376 100 -0 -1 0
594 376 100 -0 -1 0
594 386 0 0 1 0
558 386 0 0 1 0
558 386 100 0 1 0
594 386 100 0 1 0
290 199 0 -1 0 0
290 242 0 -1 0 0
290 242 100 -1 0 0
290 199 100 -1 0 0
300 204 0 1 -0 0
300 242 0 1 -0 0
300 242 100 1 -0 0
300 204 100 1 -0 0
370 287 0 1 0 0
370 232 0 1 0 0
370 232 100 1 0 0
370 287 100 1 0 0
360 287 0 -1 -0 0
360 237 0 -1 -0 0
360 237 100 -1 -0 0
360 287 100 -1 -0 0
370 232 0 -0 -1 0
295 232 0 -0 -1 0
295 232 100 -0 -1 0
370 232 100 -0 -1 0
365 242 0 0 1 0
290 242 0 0 1 0
290 242 100 0 1 0
365 242 100 0 1 0
148 336 0 -0 -1 0
90 336 0 -0 -1 0
90 336 100 -0 -1 0
148 336 100 -0 -1 0
153 346 0 0 1 0
85 346 0 0 1 0
85 346 100 0 1 0
153 346 100 0 1 0
143 346 0 -0 1 0
198 346 0 -0 1 0
198 346 100 -0 1 0
143 346 100 -0 1 0
148 336 0 0 -1 0
198 336 0 0 -1 0
198 336 100 0 -1 0
148 336 100 0 -1 0
80 336 0 -0 -1 0
28 336 0 -0 -1 0
28 336 100 -0 -1 0
80 336 100 -0 -1 0
85 346 0 0 1 0
28 346 0 0 1 0
28 346 100 0 1 0
85 346 100 0 1 0
90 336 0 1 0 0
90 232 0 1 0 0
90 232 100 1 0 0
90 336 100 1 0 0
80 336 0 -1 -0 0
80 232 0 -1 -0 0
80 232 100 -1 -0 0
80 336 100 -1 -0 0
198 365 0 1 0 0
198 336 0 1 0 0
198 336 100 1 0 0
198 365 100 1 0 0
188 365 0 -1 -0 0
188 341 0 -1 -0 0
188 341 100 -1 -0 0
188 365 100 -1 -0 0
90 159 0 88.783782958984375 157.851348876953125 0
80 159 0 88.783782958984375 157.851348876953125 0
80 159 100 88.783782958984375 157.851348876953125 0
90 159 100 88.783782958984375 157.851348876953125 0
90 85 0 88.783782958984375 82.851348876953125 0
80 85 0 88.783782958984375 82.851348876953125 0
80 85 100 88.783782958984375 82.851348876953125 0
90 85 100 88.783782958984375 82.851348876953125 0
54 111 0 51.9230766296386719 107.730766296386719 0
44 111 0 51.9230766296386719 107.730766296386719 0
44 111 100 51.9230766296386719 107.730766296386719 0
54 111 100 51.9230766296386719 107.730766296386719 0
54 85 0 51.9230766296386719 80.7307662963867188 0
44 85 0 51.9230766296386719 80.7307662963867188 0
44 85 100 51.9230766296386719 80.7307662963867188 0
54 85 100 51.9230766296386719 80.7307662963867188 0
365 90 0 354.394744873046875 87.6315765380859375 0
365 80 0 354.394744873046875 87.6315765380859375 0
365 80 100 354.394744873046875 87.6315765380859375 0
365 90 100 354.394744873046875 87.6315765380859375 0
403 90 0 393.394744873046875 87.6315765380859375 0
403 80 0 393.394744873046875 87.6315765380859375 0
403 80 100 393.394744873046875 87.6315765380859375 0
403 90 100 393.394744873046875 87.6315765380859375 0
427 341 0 417.5111083984375 332.422210693359375 0
437 341 0 417.5111083984375 332.422210693359375 0
437 341 100 417.5111083984375 332.422210693359375 0
427 341 100 417.5111083984375 332.422210693359375 0
360 341 0 354 334.316680908203125 0
370 341 0 354 334.316680908203125 0
370 341 100 354 334.316680908203125 0
360 341 100 354 334.316680908203125 0
517 341 0 495.458343505859375 325.791656494140625 0
527 341 0 495.458343505859375 325.791656494140625 0
527 341 100 495.458343505859375 325.791656494140625 0
517 341 100 495.458343505859375 325.791656494140625 0
517 365 0 495.458343505859375 350.791656494140625 0
527 365 0 495.458343505859375 350.791656494140625 0
527 365 100 495.458343505859375 350.791656494140625 0
517 365 100 495.458343505859375 350.791656494140625 0
654 370 0 648.83441162109375 367.643310546875 0
654 360 0 648.83441162109375 367.643310546875 0
654 360 100 648.83441162109375 367.643310546875 0
654 370 100 648.83441162109375 367.643310546875 0
532 341 0 520.17779541015625 332.422210693359375 0
542 341 0 520.17779541015625 332.422210693359375 0
542 341 100 520.17779541015625 332.422210693359375 0
532 341 100 520.17779541015625 332.422210693359375 0
230 341 0 226.461532592773438 334.75384521484375 0
220 341 0 226.461532592773438 334.75384521484375 0
220 341 100 226.461532592773438 334.75384521484375 0
230 341 100 226.461532592773438 334.75384521484375 0
260 90 0 250.333328247070312 87 0
260 80 0 250.333328247070312 87 0
260 80 100 250.333328247070312 87 0
260 90 100 250.333328247070312 87 0
326 90 0 314.4615478515625 86.5384597778320312 0
326 80 0 314.4615478515625 86.5384597778320312 0
326 80 100 314.4615478515625 86.5384597778320312 0
326 90 100 314.4615478515625 86.5384597778320312 0
389 194 0 376.586212158203125 187.310348510742188 0
389 204 0 376.586212158203125 187.310348510742188 0
389 204 100 376.586212158203125 187.310348510742188 0
389 194 100 376.586212158203125 187.310348510742188 0
437 287 0 429.054534912109375 282.781829833984375 0
427 287 0 429.054534912109375 282.781829833984375 0
427 287 100 429.054534912109375 282.781829833984375 0
437 287 100 429.054534912109375 282.781829833984375 0
162 132 0 159.75 129.166671752929688 0
172 132 0 159.75 129.166671752929688 0
172 132 100 159.75 129.166671752929688 0
162 132 100 159.75 129.166671752929688 0
113 90 0 108.233329772949219 87 0
113 80 0 108.233329772949219 87 0
113 80 100 108.233329772949219 87 0
113 90 100 108.233329772949219 87 0
193 90 0 189.175003051757812 87.75 0
193 80 0 189.175003051757812 87.75 0
193 80 100 189.175003051757812 87.75 0
193 90 100 189.175003051757812 87.75 0
143 132 0 139.595245361328125 129.857147216796875 0
153 132 0 139.595245361328125 129.857147216796875 0
153 132 100 139.595245361328125 129.857147216796875 0
143 132 100 139.595245361328125 129.857147216796875 0
54 428 0 53.084747314453125 419.745758056640625 0
44 428 0 53.084747314453125 419.745758056640625 0
44 428 100 53.084747314453125 419.745758056640625 0
54 428 100 53.084747314453125 419.745758056640625 0
18 85 0 17.8853511810302734 83.4585952758789062 0
28 85 0 17.8853511810302734 83.4585952758789062 0
28 85 100 17.8853511810302734 83.4585952758789062 0
18 85 100 17.8853511810302734 83.4585952758789062 0
230 297 0 225.81817626953125 292.600006103515625 0
220 297 0 225.81817626953125 292.600006103515625 0
220 297 100 225.81817626953125 292.600006103515625 0
230 297 100 225.81817626953125 292.600006103515625 0
532 160 0 519.90911865234375 155.363632202148438 0
542 160 0 519.90911865234375 155.363632202148438 0
542 160 100 519.90911865234375 155.363632202148438 0
532 160 100 519.90911865234375 155.363632202148438 0
594 376 0 575.83868408203125 363.8709716796875 0
594 386 0 575.83868408203125 363.8709716796875 0
594 386 100 575.83868408203125 363.8709716796875 0
594 376 100 575.83868408203125 363.8709716796875 0
370 287 0 363.272735595703125 282.781829833984375 0
360 287 0 363.272735595703125 282.781829833984375 0
360 287 100 363.272735595703125 282.781829833984375 0
370 287 100 363.272735595703125 282.781829833984375 0
198 365 0 191.172409057617188 353.413787841796875 0
188 365 0 191.172409057617188 353.413787841796875 0
188 365 100 191.172409057617188 353.413787841796875 0
198 365 100 191.172409057617188 353.413787841796875 0
90 159 0 0 0 -1
80 159 0 0 0 -1
80 85 0 0 0 -1
90 85 0 0 0 -1
90 159 100 0 0 1
80 159 100 0 0 1
80 85 100 0 0 1
90 85 100 0 0 1
485 90 0 0 0 -1
475 80 0 0 0 -1
563 80 0 0 0 -1
553 90 0 0 0 -1
485 90 100 0 0 1
475 80 100 0 0 1
563 80 100 0 0 1
553 90 100 0 0 1
475 80 0 0 0 -1
485 90 0 0 0 -1
485 194 0 0 0 -1
475 204 0 0 0 -1
475 80 100 0 0 1
485 90 100 0 0 1
485 194 100 0 0 1
475 204 100 0 0 1
553 90 0 0 0 -1
563 80 0 0 0 -1
563 132 0 0 0 -1
553 137 0 0 0 -1
553 90 100 0 0 1
563 80 100 0 0 1
563 132 100 0 0 1
553 137 100 0 0 1
54 111 0 0 0 -1
44 111 0 0 0 -1
44 85 0 0 0 -1
54 85 0 0 0 -1
54 111 100 0 0 1
44 111 100 0 0 1
44 85 100 0 0 1
54 85 100 0 0 1
365 90 0 0 0 -1
365 80 0 0 0 -1
403 80 0 0 0 -1
403 90 0 0 0 -1
365 90 100 0 0 1
365 80 100 0 0 1
403 80 100 0 0 1
403 90 100 0 0 1
427 341 0 0 0 -1
437 341 0 0 0 -1
437 376 0 0 0 -1
427 386 0 0 0 -1
427 341 100 0 0 1
437 341 100 0 0 1
437 376 100 0 0 1
427 386 100 0 0 1
427 386 0 0 0 -1
437 376 0 0 0 -1
537 376 0 0 0 -1
542 386 0 0 0 -1
427 386 100 0 0 1
437 376 100 0 0 1
537 376 100 0 0 1
542 386 100 0 0 1
360 341 0 0 0 -1
370 341 0 0 0 -1
370 411 0 0 0 -1
360 401 0 0 0 -1
360 341 100 0 0 1
370 341 100 0 0 1
370 411 100 0 0 1
360 401 100 0 0 1
360 401 0 0 0 -1
370 411 0 0 0 -1
220 411 0 0 0 -1
220 401 0 0 0 -1
360 401 100 0 0 1
370 411 100 0 0 1
220 411 100 0 0 1
220 401 100 0 0 1
517 341 0 0 0 -1
527 341 0 0 0 -1
527 365 0 0 0 -1
517 365 0 0 0 -1
517 341 100 0 0 1
527 341 100 0 0 1
527 365 100 0 0 1
517 365 100 0 0 1
475 204 0 0 0 -1
485 194 0 0 0 -1
537 194 0 0 0 -1
532 204 0 0 0 -1
475 204 100 0 0 1
485 194 100 0 0 1
537 194 100 0 0 1
532 204 100 0 0 1
811 127 0 0 0 -1
801 137 0 0 0 -1
553 137 0 0 0 -1
553 127 0 0 0 -1
811 127 100 0 0 1
801 137 100 0 0 1
553 137 100 0 0 1
553 127 100 0 0 1
801 137 0 0 0 -1
811 127 0 0 0 -1
811 370 0 0 0 -1
801 360 0 0 0 -1
801 137 100 0 0 1
811 127 100 0 0 1
811 370 100 0 0 1
801 360 100 0 0 1
553 127 0 0 0 -1
563 132 0 0 0 -1
563 204 0 0 0 -1
553 199 0 0 0 -1
553 127 100 0 0 1
563 132 100 0 0 1
563 204 100 0 0 1
553 199 100 0 0 1
654 370 0 0 0 -1
654 360 0 0 0 -1
801 360 0 0 0 -1
811 370 0 0 0 -1
654 370 100 0 0 1
654 360 100 0 0 1
801 360 100 0 0 1
811 370 100 0 0 1
532 341 0 0 0 -1
542 341 0 0 0 -1
542 386 0 0 0 -1
532 386 0 0 0 -1
532 341 100 0 0 1
542 341 100 0 0 1
542 386 100 0 0 1
532 386 100 0 0 1
532 386 0 0 0 -1
537 376 0 0 0 -1
553 376 0 0 0 -1
558 386 0 0 0 -1
532 386 100 0 0 1
537 376 100 0 0 1
553 376 100 0 0 1
558 386 100 0 0 1
230 406 0 0 0 -1
220 411 0 0 0 -1
220 341 0 0 0 -1
230 341 0 0 0 -1
230 406 100 0 0 1
220 411 100 0 0 1
220 341 100 0 0 1
230 341 100 0 0 1
220 401 0 0 0 -1
230 406 0 0 0 -1
230 487 0 0 0 -1
220 477 0 0 0 -1
220 401 100 0 0 1
230 406 100 0 0 1
230 487 100 0 0 1
220 477 100 0 0 1
220 477 0 0 0 -1
230 487 0 0 0 -1
44 487 0 0 0 -1
49 477 0 0 0 -1
220 477 100 0 0 1
230 487 100 0 0 1
44 487 100 0 0 1
49 477 100 0 0 1
260 90 0 0 0 -1
260 80 0 0 0 -1
295 80 0 0 0 -1
290 90 0 0 0 -1
260 90 100 0 0 1
260 80 100 0 0 1
295 80 100 0 0 1
290 90 100 0 0 1
300 90 0 0 0 -1
295 80 0 0 0 -1
326 80 0 0 0 -1
326 90 0 0 0 -1
300 90 100 0 0 1
295 80 100 0 0 1
326 80 100 0 0 1
326 90 100 0 0 1
290 90 0 0 0 -1
300 90 0 0 0 -1
300 204 0 0 0 -1
290 199 0 0 0 -1
290 90 100 0 0 1
300 90 100 0 0 1
300 204 100 0 0 1
290 199 100 0 0 1
389 194 0 0 0 -1
389 204 0 0 0 -1
365 204 0 0 0 -1
360 194 0 0 0 -1
389 194 100 0 0 1
389 204 100 0 0 1
365 204 100 0 0 1
360 194 100 0 0 1
370 194 0 0 0 -1
365 204 0 0 0 -1
300 204 0 0 0 -1
295 194 0 0 0 -1
370 194 100 0 0 1
365 204 100 0 0 1
300 204 100 0 0 1
295 194 100 0 0 1
360 194 0 0 0 -1
370 194 0 0 0 -1
370 232 0 0 0 -1
360 237 0 0 0 -1
360 194 100 0 0 1
370 194 100 0 0 1
370 232 100 0 0 1
360 237 100 0 0 1
143 194 0 0 0 -1
153 204 0 0 0 -1
153 232 0 0 0 -1
143 232 0 0 0 -1
143 194 100 0 0 1
153 204 100 0 0 1
153 232 100 0 0 1
143 232 100 0 0 1
153 204 0 0 0 -1
143 194 0 0 0 -1
167 194 0 0 0 -1
172 204 0 0 0 -1
153 204 100 0 0 1
143 194 100 0 0 1
167 194 100 0 0 1
172 204 100 0 0 1
153 242 0 0 0 -1
153 232 0 0 0 -1
193 232 0 0 0 -1
188 242 0 0 0 -1
153 242 100 0 0 1
153 232 100 0 0 1
193 232 100 0 0 1
188 242 100 0 0 1
143 242 0 0 0 -1
153 242 0 0 0 -1
153 346 0 0 0 -1
143 346 0 0 0 -1
143 242 100 0 0 1
153 242 100 0 0 1
153 346 100 0 0 1
143 346 100 0 0 1
143 232 0 0 0 -1
143 242 0 0 0 -1
85 242 0 0 0 -1
80 232 0 0 0 -1
143 232 100 0 0 1
143 242 100 0 0 1
85 242 100 0 0 1
80 232 100 0 0 1
437 287 0 0 0 -1
427 287 0 0 0 -1
427 232 0 0 0 -1
437 232 0 0 0 -1
437 287 100 0 0 1
427 287 100 0 0 1
427 232 100 0 0 1
437 232 100 0 0 1
432 242 0 0 0 -1
427 232 0 0 0 -1
532 232 0 0 0 -1
537 242 0 0 0 -1
432 242 100 0 0 1
427 232 100 0 0 1
532 232 100 0 0 1
537 242 100 0 0 1
437 232 0 0 0 -1
432 242 0 0 0 -1
365 242 0 0 0 -1
370 232 0 0 0 -1
437 232 100 0 0 1
432 242 100 0 0 1
365 242 100 0 0 1
370 232 100 0 0 1
542 232 0 0 0 -1
532 232 0 0 0 -1
532 204 0 0 0 -1
542 199 0 0 0 -1
542 232 100 0 0 1
532 232 100 0 0 1
532 204 100 0 0 1
542 199 100 0 0 1
537 242 0 0 0 -1
542 232 0 0 0 -1
553 232 0 0 0 -1
553 242 0 0 0 -1
537 242 100 0 0 1
542 232 100 0 0 1
553 232 100 0 0 1
553 242 100 0 0 1
162 132 0 0 0 -1
172 132 0 0 0 -1
172 204 0 0 0 -1
162 204 0 0 0 -1
162 132 100 0 0 1
172 132 100 0 0 1
172 204 100 0 0 1
162 204 100 0 0 1
162 204 0 0 0 -1
167 194 0 0 0 -1
230 194 0 0 0 -1
225 204 0 0 0 -1
162 204 100 0 0 1
167 194 100 0 0 1
230 194 100 0 0 1
225 204 100 0 0 1
220 194 0 0 0 -1
230 194 0 0 0 -1
230 242 0 0 0 -1
220 237 0 0 0 -1
220 194 100 0 0 1
230 194 100 0 0 1
230 242 100 0 0 1
220 237 100 0 0 1
225 204 0 0 0 -1
220 194 0 0 0 -1
295 194 0 0 0 -1
300 204 0 0 0 -1
225 204 100 0 0 1
220 194 100 0 0 1
295 194 100 0 0 1
300 204 100 0 0 1
563 194 0 0 0 -1
563 204 0 0 0 -1
532 204 0 0 0 -1
537 194 0 0 0 -1
563 194 100 0 0 1
563 204 100 0 0 1
532 204 100 0 0 1
537 194 100 0 0 1
553 199 0 0 0 -1
563 194 0 0 0 -1
563 237 0 0 0 -1
553 232 0 0 0 -1
553 199 100 0 0 1
563 194 100 0 0 1
563 237 100 0 0 1
553 232 100 0 0 1
113 90 0 0 0 -1
113 80 0 0 0 -1
148 80 0 0 0 -1
143 90 0 0 0 -1
113 90 100 0 0 1
113 80 100 0 0 1
148 80 100 0 0 1
143 90 100 0 0 1
153 90 0 0 0 -1
148 80 0 0 0 -1
193 80 0 0 0 -1
193 90 0 0 0 -1
153 90 100 0 0 1
148 80 100 0 0 1
193 80 100 0 0 1
193 90 100 0 0 1
143 90 0 0 0 -1
153 90 0 0 0 -1
153 132 0 0 0 -1
143 132 0 0 0 -1
143 90 100 0 0 1
153 90 100 0 0 1
153 132 100 0 0 1
143 132 100 0 0 1
18 487 0 0 0 -1
28 477 0 0 0 -1
49 477 0 0 0 -1
54 487 0 0 0 -1
18 487 100 0 0 1
28 477 100 0 0 1
49 477 100 0 0 1
54 487 100 0 0 1
28 477 0 0 0 -1
18 487 0 0 0 -1
18 341 0 0 0 -1
28 346 0 0 0 -1
28 477 100 0 0 1
18 487 100 0 0 1
18 341 100 0 0 1
28 346 100 0 0 1
54 487 0 0 0 -1
44 487 0 0 0 -1
44 428 0 0 0 -1
54 428 0 0 0 -1
54 487 100 0 0 1
44 487 100 0 0 1
44 428 100 0 0 1
54 428 100 0 0 1
18 85 0 0 0 -1
28 85 0 0 0 -1
28 237 0 0 0 -1
18 242 0 0 0 -1
18 85 100 0 0 1
28 85 100 0 0 1
28 237 100 0 0 1
18 242 100 0 0 1
18 232 0 0 0 -1
28 237 0 0 0 -1
28 336 0 0 0 -1
18 341 0 0 0 -1
18 232 100 0 0 1
28 237 100 0 0 1
28 336 100 0 0 1
18 341 100 0 0 1
18 242 0 0 0 -1
18 232 0 0 0 -1
90 232 0 0 0 -1
85 242 0 0 0 -1
18 242 100 0 0 1
18 232 100 0 0 1
90 232 100 0 0 1
85 242 100 0 0 1
198 242 0 0 0 -1
193 232 0 0 0 -1
225 232 0 0 0 -1
230 242 0 0 0 -1
198 242 100 0 0 1
193 232 100 0 0 1
225 232 100 0 0 1
230 242 100 0 0 1
188 242 0 0 0 -1
198 242 0 0 0 -1
198 346 0 0 0 -1
188 341 0 0 0 -1
188 242 100 0 0 1
198 242 100 0 0 1
198 346 100 0 0 1
188 341 100 0 0 1
230 297 0 0 0 -1
220 297 0 0 0 -1
220 237 0 0 0 -1
230 242 0 0 0 -1
230 297 100 0 0 1
220 297 100 0 0 1
220 237 100 0 0 1
230 242 100 0 0 1
230 242 0 0 0 -1
225 232 0 0 0 -1
295 232 0 0 0 -1
300 242 0 0 0 -1
230 242 100 0 0 1
225 232 100 0 0 1
295 232 100 0 0 1
300 242 100 0 0 1
532 160 0 0 0 -1
542 160 0 0 0 -1
542 199 0 0 0 -1
532 204 0 0 0 -1
532 160 100 0 0 1
542 160 100 0 0 1
542 199 100 0 0 1
532 204 100 0 0 1
553 242 0 0 0 -1
563 237 0 0 0 -1
563 376 0 0 0 -1
553 376 0 0 0 -1
553 242 100 0 0 1
563 237 100 0 0 1
563 376 100 0 0 1
553 376 100 0 0 1
594 376 0 0 0 -1
594 386 0 0 0 -1
558 386 0 0 0 -1
563 376 0 0 0 -1
594 376 100 0 0 1
594 386 100 0 0 1
558 386 100 0 0 1
563 376 100 0 0 1
290 199 0 0 0 -1
300 204 0 0 0 -1
300 242 0 0 0 -1
290 242 0 0 0 -1
290 199 100 0 0 1
300 204 100 0 0 1
300 242 100 0 0 1
290 242 100 0 0 1
370 287 0 0 0 -1
360 287 0 0 0 -1
360 237 0 0 0 -1
370 232 0 0 0 -1
370 287 100 0 0 1
360 287 100 0 0 1
360 237 100 0 0 1
370 232 100 0 0 1
370 232 0 0 0 -1
365 242 0 0 0 -1
290 242 0 0 0 -1
295 232 0 0 0 -1
370 232 100 0 0 1
365 242 100 0 0 1
290 242 100 0 0 1
295 232 100 0 0 1
148 336 0 0 0 -1
153 346 0 0 0 -1
85 346 0 0 0 -1
90 336 0 0 0 -1
148 336 100 0 0 1
153 346 100 0 0 1
85 346 100 0 0 1
90 336 100 0 0 1
143 346 0 0 0 -1
148 336 0 0 0 -1
198 336 0 0 0 -1
198 346 0 0 0 -1
143 346 100 0 0 1
148 336 100 0 0 1
198 336 100 0 0 1
198 346 100 0 0 1
80 336 0 0 0 -1
85 346 0 0 0 -1
28 346 0 0 0 -1
28 336 0 0 0 -1
80 336 100 0 0 1
85 346 100 0 0 1
28 346 100 0 0 1
28 336 100 0 0 1
90 336 0 0 0 -1
80 336 0 0 0 -1
80 232 0 0 0 -1
90 232 0 0 0 -1
90 336 100 0 0 1
80 336 100 0 0 1
80 232 100 0 0 1
90 232 100 0 0 1
198 365 0 0 0 -1
188 365 0 0 0 -1
188 341 0 0 0 -1
198 336 0 0 0 -1
198 365 100 0 0 1
188 365 100 0 0 1
188 341 100 0 0 1
198 336 100 0 0 1
553 137 0 0 0 -1
563 132 0 0 0 -1
553 127 0 0 0 -1
553 137 100 0 0 1
563 132 100 0 0 1
553 127 100 0 0 1
542 386 0 0 0 -1
537 376 0 0 0 -1
532 386 0 0 0 -1
542 386 100 0 0 1
537 376 100 0 0 1
532 386 100 0 0 1
220 411 0 0 0 -1
230 406 0 0 0 -1
220 401 0 0 0 -1
220 411 100 0 0 1
230 406 100 0 0 1
220 401 100 0 0 1
295 80 0 0 0 -1
300 90 0 0 0 -1
290 90 0 0 0 -1
295 80 100 0 0 1
300 90 100 0 0 1
290 90 100 0 0 1
365 204 0 0 0 -1
370 194 0 0 0 -1
360 194 0 0 0 -1
365 204 100 0 0 1
370 194 100 0 0 1
360 194 100 0 0 1
153 232 0 0 0 -1
153 242 0 0 0 -1
143 242 0 0 0 -1
143 232 0 0 0 -1
153 232 100 0 0 1
153 242 100 0 0 1
143 242 100 0 0 1
143 232 100 0 0 1
427 232 0 0 0 -1
432 242 0 0 0 -1
437 232 0 0 0 -1
427 232 100 0 0 1
432 242 100 0 0 1
437 232 100 0 0 1
532 232 0 0 0 -1
542 232 0 0 0 -1
537 242 0 0 0 -1
532 232 100 0 0 1
542 232 100 0 0 1
537 242 100 0 0 1
172 204 0 0 0 -1
167 194 0 0 0 -1
162 204 0 0 0 -1
172 204 100 0 0 1
167 194 100 0 0 1
162 204 100 0 0 1
230 194 0 0 0 -1
220 194 0 0 0 -1
225 204 0 0 0 -1
230 194 100 0 0 1
220 194 100 0 0 1
225 204 100 0 0 1
563 204 0 0 0 -1
563 194 0 0 0 -1
553 199 0 0 0 -1
563 204 100 0 0 1
563 194 100 0 0 1
553 199 100 0 0 1
148 80 0 0 0 -1
153 90 0 0 0 -1
143 90 0 0 0 -1
148 80 100 0 0 1
153 90 100 0 0 1
143 90 100 0 0 1
49 477 0 0 0 -1
44 487 0 0 0 -1
54 487 0 0 0 -1
49 477 100 0 0 1
44 487 100 0 0 1
54 487 100 0 0 1
28 237 0 0 0 -1
18 232 0 0 0 -1
18 242 0 0 0 -1
28 237 100 0 0 1
18 232 100 0 0 1
18 242 100 0 0 1
193 232 0 0 0 -1
198 242 0 0 0 -1
188 242 0 0 0 -1
193 232 100 0 0 1
198 242 100 0 0 1
188 242 100 0 0 1
220 237 0 0 0 -1
230 242 0 0 0 -1
225 232 0 0 0 -1
230 242 0 0 0 -1
220 237 100 0 0 1
230 242 100 0 0 1
225 232 100 0 0 1
230 242 100 0 0 1
542 199 0 0 0 -1
532 204 0 0 0 -1
537 194 0 0 0 -1
532 204 0 0 0 -1
542 199 100 0 0 1
532 204 100 0 0 1
537 194 100 0 0 1
532 204 100 0 0 1
553 232 0 0 0 -1
563 237 0 0 0 -1
553 242 0 0 0 -1
553 232 100 0 0 1
563 237 100 0 0 1
553 242 100 0 0 1
558 386 0 0 0 -1
553 376 0 0 0 -1
563 376 0 0 0 -1
558 386 100 0 0 1
553 376 100 0 0 1
563 376 100 0 0 1
300 204 0 0 0 -1
295 194 0 0 0 -1
300 204 0 0 0 -1
290 199 0 0 0 -1
300 204 100 0 0 1
295 194 100 0 0 1
300 204 100 0 0 1
290 199 100 0 0 1
360 237 0 0 0 -1
370 232 0 0 0 -1
365 242 0 0 0 -1
370 232 0 0 0 -1
360 237 100 0 0 1
370 232 100 0 0 1
365 242 100 0 0 1
370 232 100 0 0 1
153 346 0 0 0 -1
148 336 0 0 0 -1
143 346 0 0 0 -1
153 346 100 0 0 1
148 336 100 0 0 1
143 346 100 0 0 1
85 346 0 0 0 -1
80 336 0 0 0 -1
90 336 0 0 0 -1
85 346 100 0 0 1
80 336 100 0 0 1
90 336 100 0 0 1
28 346 0 0 0 -1
18 341 0 0 0 -1
28 336 0 0 0 -1
28 346 100 0 0 1
18 341 100 0 0 1
28 336 100 0 0 1
80 232 0 0 0 -1
85 242 0 0 0 -1
90 232 0 0 0 -1
80 232 100 0 0 1
85 242 100 0 0 1
90 232 100 0 0 1
188 341 0 0 0 -1
198 346 0 0 0 -1
198 336 0 0 0 -1
188 341 100 0 0 1
198 346 100 0 0 1
198 336 100 0 0 1
300 242 0 0 0 -1
295 232 0 0 0 -1
290 242 0 0 0 -1
300 242 100 0 0 1
295 232 100 0 0 1
290 242 100 0 0 1
4 0 1 2 3
4 4 5 6 7
4 8 9 10 11
4 12 13 14 15
4 16 17 18 19
4 20 21 22 23
4 24 25 26 27
4 28 29 30 31
4 32 33 34 35
4 36 37 38 39
4 40 41 42 43
4 44 45 46 47
4 48 49 50 51
4 52 53 54 55
4 56 57 58 59
4 60 61 62 63
4 64 65 66 67
4 68 69 70 71
4 72 73 74 75
4 76 77 78 79
4 80 81 82 83
4 84 85 86 87
4 88 89 90 91
4 92 93 94 95
4 96 97 98 99
4 100 101 102 103
4 104 105 106 107
4 108 109 110 111
4 112 113 114 115
4 116 117 118 119
4 120 121 122 123
4 124 125 126 127
4 128 129 130 131
4 132 133 134 135
4 136 137 138 139
4 140 141 142 143
4 144 145 146 147
4 148 149 150 151
4 152 153 154 155
4 156 157 158 159
4 160 161 162 163
4 164 165 166 167
4 168 169 170 171
4 172 173 174 175
4 176 177 178 179
4 180 181 182 183
4 184 185 186 187
4 188 189 190 191
4 192 193 194 195
4 196 197 198 199
4 200 201 202 203
4 204 205 206 207
4 208 209 210 211
4 212 213 214 215
4 216 217 218 219
4 220 221 222 223
4 224 225 226 227
4 228 229 230 231
4 232 233 234 235
4 236 237 238 239
4 240 241 242 243
4 244 245 246 247
4 248 249 250 251
4 252 253 254 255
4 256 257 258 259
4 260 261 262 263
4 264 265 266 267
4 268 269 270 271
4 272 273 274 275
4 276 277 278 279
4 280 281 282 283
4 284 285 286 287
4 288 289 290 291
4 292 293 294 295
4 296 297 298 299
4 300 301 302 303
4 304 305 306 307
4 308 309 310 311
4 312 313 314 315
4 316 317 318 319
4 320 321 322 323
4 324 325 326 327
4 328 329 330 331
4 332 333 334 335
4 336 337 338 339
4 340 341 342 343
4 344 345 346 347
4 348 349 350 351
4 352 353 354 355
4 356 357 358 359
4 360 361 362 363
4 364 365 366 367
4 368 369 370 371
4 372 373 374 375
4 376 377 378 379
4 380 381 382 383
4 384 385 386 387
4 388 389 390 391
4 392 393 394 395
4 396 397 398 399
4 400 401 402 403
4 404 405 406 407
4 408 409 410 411
4 412 413 414 415
4 416 417 418 419
4 420 421 422 423
4 424 425 426 427
4 428 429 430 431
4 432 433 434 435
4 436 437 438 439
4 440 441 442 443
4 444 445 446 447
4 448 449 450 451
4 452 453 454 455
4 456 457 458 459
4 460 461 462 463
4 464 465 466 467
4 468 469 470 471
4 472 473 474 475
4 476 477 478 479
4 480 481 482 483
4 484 485 486 487
4 488 489 490 491
4 492 493 494 495
4 496 497 498 499
4 500 501 502 503
4 504 505 506 507
4 508 509 510 511
4 512 513 514 515
4 516 517 518 519
4 520 521 522 523
4 524 525 526 527
4 528 529 530 531
4 532 533 534 535
4 536 537 538 539
4 540 541 542 543
4 544 545 546 547
4 548 549 550 551
4 552 553 554 555
4 556 557 558 559
4 560 561 562 563
4 564 565 566 567
4 568 569 570 571
4 572 573 574 575
4 576 577 578 579
4 580 581 582 583
4 584 585 586 587
4 588 589 590 591
4 592 593 594 595
4 596 597 598 599
4 600 601 602 603
4 604 605 606 607
4 608 609 610 611
4 612 613 614 615
4 616 617 618 619
4 620 621 622 623
4 624 625 626 627
4 628 629 630 631
4 632 633 634 635
4 636 637 638 639
4 640 641 642 643
4 644 645 646 647
4 648 649 650 651
4 652 653 654 655
4 656 657 658 659
4 660 661 662 663
4 664 665 666 667
4 668 669 670 671
4 672 673 674 675
4 676 677 678 679
4 680 681 682 683
4 684 685 686 687
4 688 689 690 691
4 692 693 694 695
4 696 697 698 699
4 700 701 702 703
4 704 705 706 707
4 708 709 710 711
4 712 713 714 715
4 716 717 718 719
4 720 721 722 723
4 724 725 726 727
4 728 729 730 731
4 732 733 734 735
4 736 737 738 739
4 740 741 742 743
4 744 745 746 747
4 748 749 750 751
4 752 753 754 755
4 756 757 758 759
4 760 761 762 763
4 764 765 766 767
4 768 769 770 771
4 772 773 774 775
4 776 777 778 779
4 780 781 782 783
4 784 785 786 787
4 788 789 790 791
4 792 793 794 795
4 796 797 798 799
4 800 801 802 803
4 804 805 806 807
4 808 809 810 811
4 812 813 814 815
4 816 817 818 819
4 820 821 822 823
4 824 825 826 827
4 828 829 830 831
4 832 833 834 835
4 836 837 838 839
4 840 841 842 843
4 844 845 846 847
4 848 849 850 851
4 852 853 854 855
4 856 857 858 859
4 860 861 862 863
4 864 865 866 867
4 868 869 870 871
4 872 873 874 875
4 876 877 878 879
4 880 881 882 883
4 884 885 886 887
4 888 889 890 891
4 892 893 894 895
4 896 897 898 899
4 900 901 902 903
4 904 905 906 907
4 908 909 910 911
4 912 913 914 915
4 916 917 918 919
4 920 921 922 923
4 924 925 926 927
4 928 929 930 931
4 932 933 934 935
4 936 937 938 939
4 940 941 942 943
4 944 945 946 947
4 948 949 950 951
4 952 953 954 955
4 956 957 958 959
4 960 961 962 963
4 964 965 966 967
4 968 969 970 971
4 972 973 974 975
4 976 977 978 979
4 980 981 982 983
4 984 985 986 987
4 988 989 990 991
4 992 993 994 995
4 996 997 998 999
4 1000 1001 1002 1003
4 1004 1005 1006 1007
4 1008 1009 1010 1011
4 1012 1013 1014 1015
4 1016 1017 1018 1019
4 1020 1021 1022 1023
4 1024 1025 1026 1027
4 1028 1029 1030 1031
4 1032 1033 1034 1035
4 1036 1037 1038 1039
4 1040 1041 1042 1043
4 1044 1045 1046 1047
4 1048 1049 1050 1051
4 1052 1053 1054 1055
4 1056 1057 1058 1059
4 1060 1061 1062 1063
4 1064 1065 1066 1067
4 1068 1069 1070 1071
4 1072 1073 1074 1075
4 1076 1077 1078 1079
4 1080 1081 1082 1083
4 1084 1085 1086 1087
4 1088 1089 1090 1091
4 1092 1093 1094 1095
4 1096 1097 1098 1099
4 1100 1101 1102 1103
4 1104 1105 1106 1107
4 1108 1109 1110 1111
4 1112 1113 1114 1115
4 1116 1117 1118 1119
4 1120 1121 1122 1123
4 1124 1125 1126 1127
4 1128 1129 1130 1131
4 1132 1133 1134 1135
4 1136 1137 1138 1139
4 1140 1141 1142 1143
4 1144 1145 1146 1147
4 1148 1149 1150 1151
4 1152 1153 1154 1155
4 1156 1157 1158 1159
4 1160 1161 1162 1163
4 1164 1165 1166 1167
4 1168 1169 1170 1171
4 1172 1173 1174 1175
4 1176 1177 1178 1179
4 1180 1181 1182 1183
3 1184 1185 1186
3 1187 1188 1189
3 1190 1191 1192
3 1193 1194 1195
3 1196 1197 1198
3 1199 1200 1201
3 1202 1203 1204
3 1205 1206 1207
3 1208 1209 1210
3 1211 1212 1213
3 1214 1215 1216
3 1215 1216 1217
3 1218 1219 1220
3 1219 1220 1221
3 1222 1223 1224
3 1225 1226 1227
3 1228 1229 1230
3 1231 1232 1233
3 1234 1235 1236
3 1237 1238 1239
3 1240 1241 1242
3 1243 1244 1245
3 1246 1247 1248
3 1249 1250 1251
3 1252 1253 1254
3 1255 1256 1257
3 1258 1259 1260
3 1261 1262 1263
3 1264 1265 1266
3 1267 1268 1269
3 1270 1271 1272
3 1273 1274 1275
3 1276 1277 1278
3 1277 1278 1279
3 1280 1281 1282
3 1281 1282 1283
3 1284 1285 1286
3 1285 1286 1287
3 1288 1289 1290
3 1289 1290 1291
3 1292 1293 1294
3 1295 1296 1297
3 1298 1299 1300
3 1301 1302 1303
3 1304 1305 1306
3 1305 1306 1307
3 1308 1309 1310
3 1309 1310 1311
3 1312 1313 1314
3 1313 1314 1315
3 1316 1317 1318
3 1317 1318 1319
3 1320 1321 1322
3 1323 1324 1325
3 1326 1327 1328
3 1329 1330 1331
3 1332 1333 1334
3 1335 1336 1337
3 1338 1339 1340
3 1341 1342 1343
3 1344 1345 1346
3 1347 1348 1349
3 1350 1351 1352
3 1353 1354 1355
