ply
format ascii 1.0
element vertex 766
property float x
property float y
property float z
property float nx
property float ny
property float nz
element quads 169
property list uchar int vertex_indices
element triads 30
property list uchar int vertex_indices
end_header
388 488 0 1 0 0
388 439 0 1 0 0
388 439 100 1 0 0
388 488 100 1 0 0
378 478 0 -1 -0 0
378 449 0 -1 -0 0
378 449 100 -1 -0 0
378 478 100 -1 -0 0
378 478 0 -0 -1 0
250 478 0 -0 -1 0
250 478 100 -0 -1 0
378 478 100 -0 -1 0
388 488 0 0 1 0
240 488 0 0 1 0
240 488 100 0 1 0
388 488 100 0 1 0
388 439 0 -0 -1 0
289 439 0 -0 -1 0
289 439 100 -0 -1 0
388 439 100 -0 -1 0
378 449 0 0 1 0
289 449 0 0 1 0
289 449 100 0 1 0
378 449 100 0 1 0
438 488 0 -0 1 0
591 488 0 -0 1 0
591 488 100 -0 1 0
438 488 100 -0 1 0
448 478 0 0 -1 0
581 478 0 0 -1 0
581 478 100 0 -1 0
448 478 100 0 -1 0
448 478 0 1 0 0
448 361 0 1 0 0
448 361 100 1 0 0
448 478 100 1 0 0
438 488 0 -1 -0 0
438 356 0 -1 -0 0
438 356 100 -1 -0 0
438 488 100 -1 -0 0
591 488 0 1 0 0
591 405 0 1 0 0
591 405 100 1 0 0
591 488 100 1 0 0
581 478 0 -1 -0 0
581 405 0 -1 -0 0
581 405 100 -1 -0 0
581 478 100 -1 -0 0
250 478 0 1 0 0
250 410 0 1 0 0
250 410 100 1 0 0
250 478 100 1 0 0
240 488 0 -1 -0 0
240 410 0 -1 -0 0
240 410 100 -1 -0 0
240 488 100 -1 -0 0
215 66 0 -0 1 0
366 66 0 -0 1 0
366 66 100 -0 1 0
215 66 100 -0 1 0
205 56 0 0 -1 0
366 56 0 0 -1 0
366 56 100 0 -1 0
205 56 100 0 -1 0
205 56 0 -1 0 0
205 241 0 -1 0 0
205 241 100 -1 0 0
205 56 100 -1 0 0
215 66 0 1 -0 0
215 236 0 1 -0 0
215 236 100 1 -0 0
215 66 100 1 -0 0
470 56 0 -1 0 0
470 137 0 -1 0 0
470 137 100 -1 0 0
470 56 100 -1 0 0
480 66 0 1 -0 0
480 137 0 1 -0 0
480 137 100 1 -0 0
480 66 100 1 -0 0
480 66 0 -0 1 0
615 66 0 -0 1 0
615 66 100 -0 1 0
480 66 100 -0 1 0
470 56 0 0 -1 0
625 56 0 0 -1 0
625 56 100 0 -1 0
470 56 100 0 -1 0
615 66 0 -1 0 0
615 132 0 -1 0 0
615 132 100 -1 0 0
615 66 100 -1 0 0
625 56 0 1 -0 0
625 137 0 1 -0 0
625 137 100 1 -0 0
625 56 100 1 -0 0
484 219 0 -1 0 0
484 268 0 -1 0 0
484 268 100 -1 0 0
484 219 100 -1 0 0
494 219 0 1 -0 0
494 268 0 1 -0 0
494 268 100 1 -0 0
494 219 100 1 -0 0
489 258 0 -0 -1 0
448 258 0 -0 -1 0
448 258 100 -0 -1 0
489 258 100 -0 -1 0
494 268 0 0 1 0
448 268 0 0 1 0
448 268 100 0 1 0
494 268 100 0 1 0
484 268 0 -0 1 0
625 268 0 -0 1 0
625 268 100 -0 1 0
484 268 100 -0 1 0
489 258 0 0 -1 0
625 258 0 0 -1 0
625 258 100 0 -1 0
489 258 100 0 -1 0
438 263 0 -1 0 0
438 324 0 -1 0 0
438 324 100 -1 0 0
438 263 100 -1 0 0
448 268 0 1 -0 0
448 319 0 1 -0 0
448 319 100 1 -0 0
448 268 100 1 -0 0
448 258 0 1 0 0
448 236 0 1 0 0
448 236 100 1 0 0
448 258 100 1 0 0
438 263 0 -1 -0 0
438 241 0 -1 -0 0
438 241 100 -1 -0 0
438 263 100 -1 -0 0
245 400 0 -0 -1 0
215 400 0 -0 -1 0
215 400 100 -0 -1 0
245 400 100 -0 -1 0
240 410 0 0 1 0
205 410 0 0 1 0
205 410 100 0 1 0
240 410 100 0 1 0
250 410 0 -0 1 0
388 410 0 -0 1 0
388 410 100 -0 1 0
250 410 100 -0 1 0
245 400 0 0 -1 0
378 400 0 0 -1 0
378 400 100 0 -1 0
245 400 100 0 -1 0
215 400 0 1 0 0
215 268 0 1 0 0
215 268 100 1 0 0
215 400 100 1 0 0
205 410 0 -1 -0 0
205 263 0 -1 -0 0
205 263 100 -1 -0 0
205 410 100 -1 -0 0
388 410 0 1 0 0
388 263 0 1 0 0
388 263 100 1 0 0
388 410 100 1 0 0
378 400 0 -1 -0 0
378 263 0 -1 -0 0
378 263 100 -1 -0 0
378 400 100 -1 -0 0
215 258 0 1 0 0
215 236 0 1 0 0
215 236 100 1 0 0
215 258 100 1 0 0
205 263 0 -1 -0 0
205 231 0 -1 -0 0
205 231 100 -1 -0 0
205 263 100 -1 -0 0
215 268 0 -0 1 0
371 268 0 -0 1 0
371 268 100 -0 1 0
215 268 100 -0 1 0
215 258 0 0 -1 0
361 258 0 0 -1 0
361 258 100 0 -1 0
215 258 100 0 -1 0
388 263 0 1 0 0
388 241 0 1 0 0
388 241 100 1 0 0
388 263 100 1 0 0
378 263 0 -1 -0 0
378 231 0 -1 -0 0
378 231 100 -1 -0 0
378 263 100 -1 -0 0
361 210 0 -1 0 0
361 236 0 -1 0 0
361 236 100 -1 0 0
361 210 100 -1 0 0
371 210 0 1 -0 0
371 241 0 1 -0 0
371 241 100 1 -0 0
371 210 100 1 -0 0
371 231 0 -0 -1 0
205 231 0 -0 -1 0
205 231 100 -0 -1 0
371 231 100 -0 -1 0
371 241 0 0 1 0
205 241 0 0 1 0
205 241 100 0 1 0
371 241 100 0 1 0
361 236 0 -1 0 0
361 258 0 -1 0 0
361 258 100 -1 0 0
361 236 100 -1 0 0
371 231 0 1 -0 0
371 268 0 1 -0 0
371 268 100 1 -0 0
371 231 100 1 -0 0
514 142 0 -0 1 0
615 142 0 -0 1 0
615 142 100 -0 1 0
514 142 100 -0 1 0
514 132 0 0 -1 0
615 132 0 0 -1 0
615 132 100 0 -1 0
514 132 100 0 -1 0
615 142 0 -1 0 0
615 263 0 -1 0 0
615 263 100 -1 0 0
615 142 100 -1 0 0
625 137 0 1 -0 0
625 268 0 1 -0 0
625 268 100 1 -0 0
625 137 100 1 -0 0
448 329 0 -0 1 0
475 329 0 -0 1 0
475 329 100 -0 1 0
448 329 100 -0 1 0
448 319 0 0 -1 0
480 319 0 0 -1 0
480 319 100 0 -1 0
448 319 100 0 -1 0
438 324 0 -1 0 0
438 356 0 -1 0 0
438 356 100 -1 0 0
438 324 100 -1 0 0
448 329 0 1 -0 0
448 351 0 1 -0 0
448 351 100 1 -0 0
448 329 100 1 -0 0
625 405 0 1 0 0
625 351 0 1 0 0
625 351 100 1 0 0
625 405 100 1 0 0
615 405 0 -1 -0 0
615 356 0 -1 -0 0
615 356 100 -1 -0 0
615 405 100 -1 -0 0
625 361 0 1 0 0
625 319 0 1 0 0
625 319 100 1 0 0
625 361 100 1 0 0
615 356 0 -1 -0 0
615 324 0 -1 -0 0
615 324 100 -1 -0 0
615 356 100 -1 -0 0
625 351 0 -0 -1 0
475 351 0 -0 -1 0
475 351 100 -0 -1 0
625 351 100 -0 -1 0
625 361 0 0 1 0
470 361 0 0 1 0
470 361 100 0 1 0
625 361 100 0 1 0
625 329 0 1 0 0
625 258 0 1 0 0
625 258 100 1 0 0
625 329 100 1 0 0
615 324 0 -1 -0 0
615 263 0 -1 -0 0
615 263 100 -1 -0 0
615 324 100 -1 -0 0
625 319 0 -0 -1 0
470 319 0 -0 -1 0
470 319 100 -0 -1 0
625 319 100 -0 -1 0
625 329 0 0 1 0
475 329 0 0 1 0
475 329 100 0 1 0
625 329 100 0 1 0
480 361 0 1 0 0
480 319 0 1 0 0
480 319 100 1 0 0
480 361 100 1 0 0
470 361 0 -1 -0 0
470 319 0 -1 -0 0
470 319 100 -1 -0 0
470 361 100 -1 -0 0
475 351 0 -0 -1 0
448 351 0 -0 -1 0
448 351 100 -0 -1 0
475 351 100 -0 -1 0
480 361 0 0 1 0
448 361 0 0 1 0
448 361 100 0 1 0
480 361 100 0 1 0
438 151 0 -1 0 0
438 231 0 -1 0 0
438 231 100 -1 0 0
438 151 100 -1 0 0
448 151 0 1 -0 0
448 236 0 1 -0 0
448 236 100 1 -0 0
448 151 100 1 -0 0
438 231 0 -0 -1 0
378 231 0 -0 -1 0
378 231 100 -0 -1 0
438 231 100 -0 -1 0
438 241 0 0 1 0
388 241 0 0 1 0
388 241 100 0 1 0
438 241 100 0 1 0
591 405 0 583.8795166015625 399.1204833984375 0
581 405 0 583.8795166015625 399.1204833984375 0
581 405 100 583.8795166015625 399.1204833984375 0
591 405 100 583.8795166015625 399.1204833984375 0
289 439 0 285.080810546875 434.565643310546875 0
289 449 0 285.080810546875 434.565643310546875 0
289 449 100 285.080810546875 434.565643310546875 0
289 439 100 285.080810546875 434.565643310546875 0
366 66 0 364.576171875 65.5629119873046875 0
366 56 0 364.576171875 65.5629119873046875 0
366 56 100 364.576171875 65.5629119873046875 0
366 66 100 364.576171875 65.5629119873046875 0
470 137 0 464.197540283203125 136.308639526367188 0
480 137 0 464.197540283203125 136.308639526367188 0
480 137 100 464.197540283203125 136.308639526367188 0
470 137 100 464.197540283203125 136.308639526367188 0
484 219 0 474.1224365234375 213.530609130859375 0
494 219 0 474.1224365234375 213.530609130859375 0
494 219 100 474.1224365234375 213.530609130859375 0
484 219 100 474.1224365234375 213.530609130859375 0
361 210 0 347.115386962890625 200.923080444335938 0
371 210 0 347.115386962890625 200.923080444335938 0
371 210 100 347.115386962890625 200.923080444335938 0
361 210 100 347.115386962890625 200.923080444335938 0
514 142 0 507.910888671875 140.59405517578125 0
514 132 0 507.910888671875 140.59405517578125 0
514 132 100 507.910888671875 140.59405517578125 0
514 142 100 507.910888671875 140.59405517578125 0
625 405 0 613.4259033203125 398.5 0
615 405 0 613.4259033203125 398.5 0
615 405 100 613.4259033203125 398.5 0
625 405 100 613.4259033203125 398.5 0
438 151 0 432.524993896484375 148.112503051757812 0
448 151 0 432.524993896484375 148.112503051757812 0
448 151 100 432.524993896484375 148.112503051757812 0
438 151 100 432.524993896484375 148.112503051757812 0
388 488 0 0 0 -1
378 478 0 0 0 -1
378 449 0 0 0 -1
388 439 0 0 0 -1
388 488 100 0 0 1
378 478 100 0 0 1
378 449 100 0 0 1
388 439 100 0 0 1
378 478 0 0 0 -1
388 488 0 0 0 -1
240 488 0 0 0 -1
250 478 0 0 0 -1
378 478 100 0 0 1
388 488 100 0 0 1
240 488 100 0 0 1
250 478 100 0 0 1
388 439 0 0 0 -1
378 449 0 0 0 -1
289 449 0 0 0 -1
289 439 0 0 0 -1
388 439 100 0 0 1
378 449 100 0 0 1
289 449 100 0 0 1
289 439 100 0 0 1
438 488 0 0 0 -1
448 478 0 0 0 -1
581 478 0 0 0 -1
591 488 0 0 0 -1
438 488 100 0 0 1
448 478 100 0 0 1
581 478 100 0 0 1
591 488 100 0 0 1
448 478 0 0 0 -1
438 488 0 0 0 -1
438 356 0 0 0 -1
448 361 0 0 0 -1
448 478 100 0 0 1
438 488 100 0 0 1
438 356 100 0 0 1
448 361 100 0 0 1
591 488 0 0 0 -1
581 478 0 0 0 -1
581 405 0 0 0 -1
591 405 0 0 0 -1
591 488 100 0 0 1
581 478 100 0 0 1
581 405 100 0 0 1
591 405 100 0 0 1
250 478 0 0 0 -1
240 488 0 0 0 -1
240 410 0 0 0 -1
250 410 0 0 0 -1
250 478 100 0 0 1
240 488 100 0 0 1
240 410 100 0 0 1
250 410 100 0 0 1
215 66 0 0 0 -1
205 56 0 0 0 -1
366 56 0 0 0 -1
366 66 0 0 0 -1
215 66 100 0 0 1
205 56 100 0 0 1
366 56 100 0 0 1
366 66 100 0 0 1
205 56 0 0 0 -1
215 66 0 0 0 -1
215 236 0 0 0 -1
205 241 0 0 0 -1
205 56 100 0 0 1
215 66 100 0 0 1
215 236 100 0 0 1
205 241 100 0 0 1
470 56 0 0 0 -1
480 66 0 0 0 -1
480 137 0 0 0 -1
470 137 0 0 0 -1
470 56 100 0 0 1
480 66 100 0 0 1
480 137 100 0 0 1
470 137 100 0 0 1
480 66 0 0 0 -1
470 56 0 0 0 -1
625 56 0 0 0 -1
615 66 0 0 0 -1
480 66 100 0 0 1
470 56 100 0 0 1
625 56 100 0 0 1
615 66 100 0 0 1
615 66 0 0 0 -1
625 56 0 0 0 -1
625 137 0 0 0 -1
615 132 0 0 0 -1
615 66 100 0 0 1
625 56 100 0 0 1
625 137 100 0 0 1
615 132 100 0 0 1
484 219 0 0 0 -1
494 219 0 0 0 -1
494 268 0 0 0 -1
484 268 0 0 0 -1
484 219 100 0 0 1
494 219 100 0 0 1
494 268 100 0 0 1
484 268 100 0 0 1
489 258 0 0 0 -1
494 268 0 0 0 -1
448 268 0 0 0 -1
448 258 0 0 0 -1
489 258 100 0 0 1
494 268 100 0 0 1
448 268 100 0 0 1
448 258 100 0 0 1
484 268 0 0 0 -1
489 258 0 0 0 -1
625 258 0 0 0 -1
625 268 0 0 0 -1
484 268 100 0 0 1
489 258 100 0 0 1
625 258 100 0 0 1
625 268 100 0 0 1
438 263 0 0 0 -1
448 268 0 0 0 -1
448 319 0 0 0 -1
438 324 0 0 0 -1
438 263 100 0 0 1
448 268 100 0 0 1
448 319 100 0 0 1
438 324 100 0 0 1
448 258 0 0 0 -1
438 263 0 0 0 -1
438 241 0 0 0 -1
448 236 0 0 0 -1
448 258 100 0 0 1
438 263 100 0 0 1
438 241 100 0 0 1
448 236 100 0 0 1
245 400 0 0 0 -1
240 410 0 0 0 -1
205 410 0 0 0 -1
215 400 0 0 0 -1
245 400 100 0 0 1
240 410 100 0 0 1
205 410 100 0 0 1
215 400 100 0 0 1
250 410 0 0 0 -1
245 400 0 0 0 -1
378 400 0 0 0 -1
388 410 0 0 0 -1
250 410 100 0 0 1
245 400 100 0 0 1
378 400 100 0 0 1
388 410 100 0 0 1
215 400 0 0 0 -1
205 410 0 0 0 -1
205 263 0 0 0 -1
215 268 0 0 0 -1
215 400 100 0 0 1
205 410 100 0 0 1
205 263 100 0 0 1
215 268 100 0 0 1
388 410 0 0 0 -1
378 400 0 0 0 -1
378 263 0 0 0 -1
388 263 0 0 0 -1
388 410 100 0 0 1
378 400 100 0 0 1
378 263 100 0 0 1
388 263 100 0 0 1
215 258 0 0 0 -1
205 263 0 0 0 -1
205 231 0 0 0 -1
215 236 0 0 0 -1
215 258 100 0 0 1
205 263 100 0 0 1
205 231 100 0 0 1
215 236 100 0 0 1
215 268 0 0 0 -1
215 258 0 0 0 -1
361 258 0 0 0 -1
371 268 0 0 0 -1
215 268 100 0 0 1
215 258 100 0 0 1
361 258 100 0 0 1
371 268 100 0 0 1
388 263 0 0 0 -1
378 263 0 0 0 -1
378 231 0 0 0 -1
388 241 0 0 0 -1
388 263 100 0 0 1
378 263 100 0 0 1
378 231 100 0 0 1
388 241 100 0 0 1
361 210 0 0 0 -1
371 210 0 0 0 -1
371 241 0 0 0 -1
361 236 0 0 0 -1
361 210 100 0 0 1
371 210 100 0 0 1
371 241 100 0 0 1
361 236 100 0 0 1
371 231 0 0 0 -1
371 241 0 0 0 -1
205 241 0 0 0 -1
205 231 0 0 0 -1
371 231 100 0 0 1
371 241 100 0 0 1
205 241 100 0 0 1
205 231 100 0 0 1
361 236 0 0 0 -1
371 231 0 0 0 -1
371 268 0 0 0 -1
361 258 0 0 0 -1
361 236 100 0 0 1
371 231 100 0 0 1
371 268 100 0 0 1
361 258 100 0 0 1
514 142 0 0 0 -1
514 132 0 0 0 -1
615 132 0 0 0 -1
615 142 0 0 0 -1
514 142 100 0 0 1
514 132 100 0 0 1
615 132 100 0 0 1
615 142 100 0 0 1
615 142 0 0 0 -1
625 137 0 0 0 -1
625 268 0 0 0 -1
615 263 0 0 0 -1
615 142 100 0 0 1
625 137 100 0 0 1
625 268 100 0 0 1
615 263 100 0 0 1
448 329 0 0 0 -1
448 319 0 0 0 -1
480 319 0 0 0 -1
475 329 0 0 0 -1
448 329 100 0 0 1
448 319 100 0 0 1
480 319 100 0 0 1
475 329 100 0 0 1
438 324 0 0 0 -1
448 329 0 0 0 -1
448 351 0 0 0 -1
438 356 0 0 0 -1
438 324 100 0 0 1
448 329 100 0 0 1
448 351 100 0 0 1
438 356 100 0 0 1
625 405 0 0 0 -1
615 405 0 0 0 -1
615 356 0 0 0 -1
625 351 0 0 0 -1
625 405 100 0 0 1
615 405 100 0 0 1
615 356 100 0 0 1
625 351 100 0 0 1
625 361 0 0 0 -1
615 356 0 0 0 -1
615 324 0 0 0 -1
625 319 0 0 0 -1
625 361 100 0 0 1
615 356 100 0 0 1
615 324 100 0 0 1
625 319 100 0 0 1
625 351 0 0 0 -1
625 361 0 0 0 -1
470 361 0 0 0 -1
475 351 0 0 0 -1
625 351 100 0 0 1
625 361 100 0 0 1
470 361 100 0 0 1
475 351 100 0 0 1
625 329 0 0 0 -1
615 324 0 0 0 -1
615 263 0 0 0 -1
625 258 0 0 0 -1
625 329 100 0 0 1
615 324 100 0 0 1
615 263 100 0 0 1
625 258 100 0 0 1
625 319 0 0 0 -1
625 329 0 0 0 -1
475 329 0 0 0 -1
470 319 0 0 0 -1
625 319 100 0 0 1
625 329 100 0 0 1
475 329 100 0 0 1
470 319 100 0 0 1
480 361 0 0 0 -1
470 361 0 0 0 -1
470 319 0 0 0 -1
480 319 0 0 0 -1
480 361 100 0 0 1
470 361 100 0 0 1
470 319 100 0 0 1
480 319 100 0 0 1
475 351 0 0 0 -1
480 361 0 0 0 -1
448 361 0 0 0 -1
448 351 0 0 0 -1
475 351 100 0 0 1
480 361 100 0 0 1
448 361 100 0 0 1
448 351 100 0 0 1
438 151 0 0 0 -1
448 151 0 0 0 -1
448 236 0 0 0 -1
438 231 0 0 0 -1
438 151 100 0 0 1
448 151 100 0 0 1
448 236 100 0 0 1
438 231 100 0 0 1
438 231 0 0 0 -1
438 241 0 0 0 -1
388 241 0 0 0 -1
378 231 0 0 0 -1
438 231 100 0 0 1
438 241 100 0 0 1
388 241 100 0 0 1
378 231 100 0 0 1
494 268 0 0 0 -1
489 258 0 0 0 -1
484 268 0 0 0 -1
494 268 100 0 0 1
489 258 100 0 0 1
484 268 100 0 0 1
448 268 0 0 0 -1
438 263 0 0 0 -1
448 258 0 0 0 -1
448 268 100 0 0 1
438 263 100 0 0 1
448 258 100 0 0 1
240 410 0 0 0 -1
245 400 0 0 0 -1
250 410 0 0 0 -1
240 410 100 0 0 1
245 400 100 0 0 1
250 410 100 0 0 1
205 263 0 0 0 -1
215 258 0 0 0 -1
215 268 0 0 0 -1
205 263 100 0 0 1
215 258 100 0 0 1
215 268 100 0 0 1
371 241 0 0 0 -1
371 231 0 0 0 -1
361 236 0 0 0 -1
371 241 100 0 0 1
371 231 100 0 0 1
361 236 100 0 0 1
615 132 0 0 0 -1
625 137 0 0 0 -1
615 142 0 0 0 -1
615 132 100 0 0 1
625 137 100 0 0 1
615 142 100 0 0 1
448 319 0 0 0 -1
448 329 0 0 0 -1
438 324 0 0 0 -1
448 319 100 0 0 1
448 329 100 0 0 1
438 324 100 0 0 1
615 356 0 0 0 -1
625 361 0 0 0 -1
625 351 0 0 0 -1
615 356 100 0 0 1
625 361 100 0 0 1
625 351 100 0 0 1
615 324 0 0 0 -1
625 329 0 0 0 -1
625 319 0 0 0 -1
615 324 100 0 0 1
625 329 100 0 0 1
625 319 100 0 0 1
470 361 0 0 0 -1
480 361 0 0 0 -1
475 351 0 0 0 -1
470 361 100 0 0 1
480 361 100 0 0 1
475 351 100 0 0 1
448 236 0 0 0 -1
438 241 0 0 0 -1
438 231 0 0 0 -1
448 236 100 0 0 1
438 241 100 0 0 1
438 231 100 0 0 1
625 258 0 0 0 -1
615 263 0 0 0 -1
625 268 0 0 0 -1
625 258 100 0 0 1
615 263 100 0 0 1
625 268 100 0 0 1
215 236 0 0 0 -1
205 231 0 0 0 -1
205 241 0 0 0 -1
215 236 100 0 0 1
205 231 100 0 0 1
205 241 100 0 0 1
470 319 0 0 0 -1
475 329 0 0 0 -1
480 319 0 0 0 -1
470 319 100 0 0 1
475 329 100 0 0 1
480 319 100 0 0 1
448 361 0 0 0 -1
438 356 0 0 0 -1
448 351 0 0 0 -1
448 361 100 0 0 1
438 356 100 0 0 1
448 351 100 0 0 1
4 0 1 2 3
4 4 5 6 7
4 8 9 10 11
4 12 13 14 15
4 16 17 18 19
4 20 21 22 23
4 24 25 26 27
4 28 29 30 31
4 32 33 34 35
4 36 37 38 39
4 40 41 42 43
4 44 45 46 47
4 48 49 50 51
4 52 53 54 55
4 56 57 58 59
4 60 61 62 63
4 64 65 66 67
4 68 69 70 71
4 72 73 74 75
4 76 77 78 79
4 80 81 82 83
4 84 85 86 87
4 88 89 90 91
4 92 93 94 95
4 96 97 98 99
4 100 101 102 103
4 104 105 106 107
4 108 109 110 111
4 112 113 114 115
4 116 117 118 119
4 120 121 122 123
4 124 125 126 127
4 128 129 130 131
4 132 133 134 135
4 136 137 138 139
4 140 141 142 143
4 144 145 146 147
4 148 149 150 151
4 152 153 154 155
4 156 157 158 159
4 160 161 162 163
4 164 165 166 167
4 168 169 170 171
4 172 173 174 175
4 176 177 178 179
4 180 181 182 183
4 184 185 186 187
4 188 189 190 191
4 192 193 194 195
4 196 197 198 199
4 200 201 202 203
4 204 205 206 207
4 208 209 210 211
4 212 213 214 215
4 216 217 218 219
4 220 221 222 223
4 224 225 226 227
4 228 229 230 231
4 232 233 234 235
4 236 237 238 239
4 240 241 242 243
4 244 245 246 247
4 248 249 250 251
4 252 253 254 255
4 256 257 258 259
4 260 261 262 263
4 264 265 266 267
4 268 269 270 271
4 272 273 274 275
4 276 277 278 279
4 280 281 282 283
4 284 285 286 287
4 288 289 290 291
4 292 293 294 295
4 296 297 298 299
4 300 301 302 303
4 304 305 306 307
4 308 309 310 311
4 312 313 314 315
4 316 317 318 319
4 320 321 322 323
4 324 325 326 327
4 328 329 330 331
4 332 333 334 335
4 336 337 338 339
4 340 341 342 343
4 344 345 346 347
4 348 349 350 351
4 352 353 354 355
4 356 357 358 359
4 360 361 362 363
4 364 365 366 367
4 368 369 370 371
4 372 373 374 375
4 376 377 378 379
4 380 381 382 383
4 384 385 386 387
4 388 389 390 391
4 392 393 394 395
4 396 397 398 399
4 400 401 402 403
4 404 405 406 407
4 408 409 410 411
4 412 413 414 415
4 416 417 418 419
4 420 421 422 423
4 424 425 426 427
4 428 429 430 431
4 432 433 434 435
4 436 437 438 439
4 440 441 442 443
4 444 445 446 447
4 448 449 450 451
4 452 453 454 455
4 456 457 458 459
4 460 461 462 463
4 464 465 466 467
4 468 469 470 471
4 472 473 474 475
4 476 477 478 479
4 480 481 482 483
4 484 485 486 487
4 488 489 490 491
4 492 493 494 495
4 496 497 498 499
4 500 501 502 503
4 504 505 506 507
4 508 509 510 511
4 512 513 514 515
4 516 517 518 519
4 520 521 522 523
4 524 525 526 527
4 528 529 530 531
4 532 533 534 535
4 536 537 538 539
4 540 541 542 543
4 544 545 546 547
4 548 549 550 551
4 552 553 554 555
4 556 557 558 559
4 560 561 562 563
4 564 565 566 567
4 568 569 570 571
4 572 573 574 575
4 576 577 578 579
4 580 581 582 583
4 584 585 586 587
4 588 589 590 591
4 592 593 594 595
4 596 597 598 599
4 600 601 602 603
4 604 605 606 607
4 608 609 610 611
4 612 613 614 615
4 616 617 618 619
4 620 621 622 623
4 624 625 626 627
4 628 629 630 631
4 632 633 634 635
4 636 637 638 639
4 640 641 642 643
4 644 645 646 647
4 648 649 650 651
4 652 653 654 655
4 656 657 658 659
4 660 661 662 663
4 664 665 666 667
4 668 669 670 671
4 672 673 674 675
3 676 677 678
3 679 680 681
3 682 683 684
3 685 686 687
3 688 689 690
3 691 692 693
3 694 695 696
3 697 698 699
3 700 701 702
3 703 704 705
3 706 707 708
3 709 710 711
3 712 713 714
3 715 716 717
3 718 719 720
3 721 722 723
3 724 725 726
3 727 728 729
3 730 731 732
3 733 734 735
3 736 737 738
3 739 740 741
3 742 743 744
3 745 746 747
3 748 749 750
3 751 752 753
3 754 755 756
3 757 758 759
3 760 761 762
3 763 764 765
