ply
format ascii 1.0
element vertex 362
property float x
property float y
property float z
property float nx
property float ny
property float nz
element quads 89
property list uchar int vertex_indices
element triads 2
property list uchar int vertex_indices
end_header
362 26 0 -0 1 0
443 26 0 -0 1 0
443 26 100 -0 1 0
362 26 100 -0 1 0
362 16 0 0 -1 0
443 16 0 0 -1 0
443 16 100 0 -1 0
362 16 100 0 -1 0
537 269 0 1 0 0
537 247 0 1 0 0
537 247 100 1 0 0
537 269 100 1 0 0
527 259 0 -1 -0 0
527 237 0 -1 -0 0
527 237 100 -1 -0 0
527 259 100 -1 -0 0
527 259 0 -0 -1 0
472 259 0 -0 -1 0
472 259 100 -0 -1 0
527 259 100 -0 -1 0
537 269 0 0 1 0
462 269 0 0 1 0
462 269 100 0 1 0
537 269 100 0 1 0
537 247 0 -0 1 0
563 247 0 -0 1 0
563 247 100 -0 1 0
537 247 100 -0 1 0
527 237 0 0 -1 0
563 237 0 0 -1 0
563 237 100 0 -1 0
527 237 100 0 -1 0
244 259 0 1 0 0
244 132 0 1 0 0
244 132 100 1 0 0
244 259 100 1 0 0
234 269 0 -1 -0 0
234 132 0 -1 -0 0
234 132 100 -1 -0 0
234 269 100 -1 -0 0
234 269 0 -0 1 0
417 269 0 -0 1 0
417 269 100 -0 1 0
234 269 100 -0 1 0
244 259 0 0 -1 0
417 259 0 0 -1 0
417 259 100 0 -1 0
244 259 100 0 -1 0
558 339 0 -1 0 0
558 410 0 -1 0 0
558 410 100 -1 0 0
558 339 100 -1 0 0
568 339 0 1 -0 0
568 420 0 1 -0 0
568 420 100 1 -0 0
568 339 100 1 -0 0
558 410 0 -0 -1 0
532 410 0 -0 -1 0
532 410 100 -0 -1 0
558 410 100 -0 -1 0
568 420 0 0 1 0
532 420 0 0 1 0
532 420 100 0 1 0
568 420 100 0 1 0
626 21 0 -1 0 0
626 350 0 -1 0 0
626 350 100 -1 0 0
626 21 100 -1 0 0
636 21 0 1 -0 0
636 350 0 1 -0 0
636 350 100 1 -0 0
636 21 100 1 -0 0
649 105 0 -1 0 0
649 161 0 -1 0 0
649 161 100 -1 0 0
649 105 100 -1 0 0
659 105 0 1 -0 0
659 161 0 1 -0 0
659 161 100 1 -0 0
659 105 100 1 -0 0
517 283 0 -0 1 0
563 283 0 -0 1 0
563 283 100 -0 1 0
517 283 100 -0 1 0
517 273 0 0 -1 0
563 273 0 0 -1 0
563 273 100 0 -1 0
517 273 100 0 -1 0
166 16 0 -1 0 0
166 307 0 -1 0 0
166 307 100 -1 0 0
166 16 100 -1 0 0
176 26 0 1 -0 0
176 307 0 1 -0 0
176 307 100 1 -0 0
176 26 100 1 -0 0
176 26 0 -0 1 0
234 26 0 -0 1 0
234 26 100 -0 1 0
176 26 100 -0 1 0
166 16 0 0 -1 0
244 16 0 0 -1 0
244 16 100 0 -1 0
166 16 100 0 -1 0
171 523 0 -0 1 0
427 523 0 -0 1 0
427 523 100 -0 1 0
171 523 100 -0 1 0
171 513 0 0 -1 0
417 513 0 0 -1 0
417 513 100 0 -1 0
171 513 100 0 -1 0
427 523 0 1 0 0
427 264 0 1 0 0
427 264 100 1 0 0
427 523 100 1 0 0
417 513 0 -1 -0 0
417 269 0 -1 -0 0
417 269 100 -1 -0 0
417 513 100 -1 -0 0
244 85 0 1 0 0
244 16 0 1 0 0
244 16 100 1 0 0
244 85 100 1 0 0
234 85 0 -1 -0 0
234 26 0 -1 -0 0
234 26 100 -1 -0 0
234 85 100 -1 -0 0
427 264 0 1 0 0
427 95 0 1 0 0
427 95 100 1 0 0
427 264 100 1 0 0
417 259 0 -1 -0 0
417 95 0 -1 -0 0
417 95 100 -1 -0 0
417 259 100 -1 -0 0
462 242 0 -1 0 0
462 269 0 -1 0 0
462 269 100 -1 0 0
462 242 100 -1 0 0
472 242 0 1 -0 0
472 259 0 1 -0 0
472 259 100 1 -0 0
472 242 100 1 -0 0
362 26 0 356.530853271484375 25.6790122985839844 0
362 16 0 356.530853271484375 25.6790122985839844 0
362 16 100 356.530853271484375 25.6790122985839844 0
362 26 100 356.530853271484375 25.6790122985839844 0
443 26 0 438.530853271484375 25.6790122985839844 0
443 16 0 438.530853271484375 25.6790122985839844 0
443 16 100 438.530853271484375 25.6790122985839844 0
443 26 100 438.530853271484375 25.6790122985839844 0
244 132 0 242.0787353515625 129.96063232421875 0
234 132 0 242.0787353515625 129.96063232421875 0
234 132 100 242.0787353515625 129.96063232421875 0
244 132 100 242.0787353515625 129.96063232421875 0
558 339 0 550.140869140625 333.225341796875 0
568 339 0 550.140869140625 333.225341796875 0
568 339 100 550.140869140625 333.225341796875 0
558 339 100 550.140869140625 333.225341796875 0
626 21 0 624.0972900390625 19.9361705780029297 0
636 21 0 624.0972900390625 19.9361705780029297 0
636 21 100 624.0972900390625 19.9361705780029297 0
626 21 100 624.0972900390625 19.9361705780029297 0
626 350 0 624.0972900390625 349.9361572265625 0
636 350 0 624.0972900390625 349.9361572265625 0
636 350 100 624.0972900390625 349.9361572265625 0
626 350 100 624.0972900390625 349.9361572265625 0
649 105 0 637.41070556640625 102.125 0
659 105 0 637.41070556640625 102.125 0
659 105 100 637.41070556640625 102.125 0
649 105 100 637.41070556640625 102.125 0
649 161 0 637.41070556640625 159.125 0
659 161 0 637.41070556640625 159.125 0
659 161 100 637.41070556640625 159.125 0
649 161 100 637.41070556640625 159.125 0
517 283 0 504.7608642578125 276.84783935546875 0
517 273 0 504.7608642578125 276.84783935546875 0
517 273 100 504.7608642578125 276.84783935546875 0
517 283 100 504.7608642578125 276.84783935546875 0
563 283 0 551.7608642578125 276.84783935546875 0
563 273 0 551.7608642578125 276.84783935546875 0
563 273 100 551.7608642578125 276.84783935546875 0
563 283 100 551.7608642578125 276.84783935546875 0
532 410 0 510.5384521484375 394.23077392578125 0
532 420 0 510.5384521484375 394.23077392578125 0
532 420 100 510.5384521484375 394.23077392578125 0
532 410 100 510.5384521484375 394.23077392578125 0
166 307 0 165.429550170898438 306.94500732421875 0
176 307 0 165.429550170898438 306.94500732421875 0
176 307 100 165.429550170898438 306.94500732421875 0
166 307 100 165.429550170898438 306.94500732421875 0
563 247 0 542.34613037109375 237.5 0
563 237 0 542.34613037109375 237.5 0
563 237 100 542.34613037109375 237.5 0
563 247 100 542.34613037109375 237.5 0
171 523 0 169.33203125 520.95703125 0
171 513 0 169.33203125 520.95703125 0
171 513 100 169.33203125 520.95703125 0
171 523 100 169.33203125 520.95703125 0
244 85 0 240.463775634765625 84.7681121826171875 0
234 85 0 240.463775634765625 84.7681121826171875 0
234 85 100 240.463775634765625 84.7681121826171875 0
244 85 100 240.463775634765625 84.7681121826171875 0
427 95 0 424.473358154296875 93.4378662109375 0
417 95 0 424.473358154296875 93.4378662109375 0
417 95 100 424.473358154296875 93.4378662109375 0
427 95 100 424.473358154296875 93.4378662109375 0
462 242 0 444.888885498046875 232.037033081054688 0
472 242 0 444.888885498046875 232.037033081054688 0
472 242 100 444.888885498046875 232.037033081054688 0
462 242 100 444.888885498046875 232.037033081054688 0
362 26 0 0 0 -1
362 16 0 0 0 -1
443 16 0 0 0 -1
443 26 0 0 0 -1
362 26 100 0 0 1
362 16 100 0 0 1
443 16 100 0 0 1
443 26 100 0 0 1
537 269 0 0 0 -1
527 259 0 0 0 -1
527 237 0 0 0 -1
537 247 0 0 0 -1
537 269 100 0 0 1
527 259 100 0 0 1
527 237 100 0 0 1
537 247 100 0 0 1
527 259 0 0 0 -1
537 269 0 0 0 -1
462 269 0 0 0 -1
472 259 0 0 0 -1
527 259 100 0 0 1
537 269 100 0 0 1
462 269 100 0 0 1
472 259 100 0 0 1
537 247 0 0 0 -1
527 237 0 0 0 -1
563 237 0 0 0 -1
563 247 0 0 0 -1
537 247 100 0 0 1
527 237 100 0 0 1
563 237 100 0 0 1
563 247 100 0 0 1
244 259 0 0 0 -1
234 269 0 0 0 -1
234 132 0 0 0 -1
244 132 0 0 0 -1
244 259 100 0 0 1
234 269 100 0 0 1
234 132 100 0 0 1
244 132 100 0 0 1
234 269 0 0 0 -1
244 259 0 0 0 -1
417 259 0 0 0 -1
417 269 0 0 0 -1
234 269 100 0 0 1
244 259 100 0 0 1
417 259 100 0 0 1
417 269 100 0 0 1
558 339 0 0 0 -1
568 339 0 0 0 -1
568 420 0 0 0 -1
558 410 0 0 0 -1
558 339 100 0 0 1
568 339 100 0 0 1
568 420 100 0 0 1
558 410 100 0 0 1
558 410 0 0 0 -1
568 420 0 0 0 -1
532 420 0 0 0 -1
532 410 0 0 0 -1
558 410 100 0 0 1
568 420 100 0 0 1
532 420 100 0 0 1
532 410 100 0 0 1
626 21 0 0 0 -1
636 21 0 0 0 -1
636 350 0 0 0 -1
626 350 0 0 0 -1
626 21 100 0 0 1
636 21 100 0 0 1
636 350 100 0 0 1
626 350 100 0 0 1
649 105 0 0 0 -1
659 105 0 0 0 -1
659 161 0 0 0 -1
649 161 0 0 0 -1
649 105 100 0 0 1
659 105 100 0 0 1
659 161 100 0 0 1
649 161 100 0 0 1
517 283 0 0 0 -1
517 273 0 0 0 -1
563 273 0 0 0 -1
563 283 0 0 0 -1
517 283 100 0 0 1
517 273 100 0 0 1
563 273 100 0 0 1
563 283 100 0 0 1
166 16 0 0 0 -1
176 26 0 0 0 -1
176 307 0 0 0 -1
166 307 0 0 0 -1
166 16 100 0 0 1
176 26 100 0 0 1
176 307 100 0 0 1
166 307 100 0 0 1
176 26 0 0 0 -1
166 16 0 0 0 -1
244 16 0 0 0 -1
234 26 0 0 0 -1
176 26 100 0 0 1
166 16 100 0 0 1
244 16 100 0 0 1
234 26 100 0 0 1
171 523 0 0 0 -1
171 513 0 0 0 -1
417 513 0 0 0 -1
427 523 0 0 0 -1
171 523 100 0 0 1
171 513 100 0 0 1
417 513 100 0 0 1
427 523 100 0 0 1
427 523 0 0 0 -1
417 513 0 0 0 -1
417 269 0 0 0 -1
427 264 0 0 0 -1
427 523 100 0 0 1
417 513 100 0 0 1
417 269 100 0 0 1
427 264 100 0 0 1
244 85 0 0 0 -1
234 85 0 0 0 -1
234 26 0 0 0 -1
244 16 0 0 0 -1
244 85 100 0 0 1
234 85 100 0 0 1
234 26 100 0 0 1
244 16 100 0 0 1
427 264 0 0 0 -1
417 259 0 0 0 -1
417 95 0 0 0 -1
427 95 0 0 0 -1
427 264 100 0 0 1
417 259 100 0 0 1
417 95 100 0 0 1
427 95 100 0 0 1
462 242 0 0 0 -1
472 242 0 0 0 -1
472 259 0 0 0 -1
462 269 0 0 0 -1
462 242 100 0 0 1
472 242 100 0 0 1
472 259 100 0 0 1
462 269 100 0 0 1
417 259 0 0 0 -1
427 264 0 0 0 -1
417 269 0 0 0 -1
417 259 100 0 0 1
427 264 100 0 0 1
417 269 100 0 0 1
4 0 1 2 3
4 4 5 6 7
4 8 9 10 11
4 12 13 14 15
4 16 17 18 19
4 20 21 22 23
4 24 25 26 27
4 28 29 30 31
4 32 33 34 35
4 36 37 38 39
4 40 41 42 43
4 44 45 46 47
4 48 49 50 51
4 52 53 54 55
4 56 57 58 59
4 60 61 62 63
4 64 65 66 67
4 68 69 70 71
4 72 73 74 75
4 76 77 78 79
4 80 81 82 83
4 84 85 86 87
4 88 89 90 91
4 92 93 94 95
4 96 97 98 99
4 100 101 102 103
4 104 105 106 107
4 108 109 110 111
4 112 113 114 115
4 116 117 118 119
4 120 121 122 123
4 124 125 126 127
4 128 129 130 131
4 132 133 134 135
4 136 137 138 139
4 140 141 142 143
4 144 145 146 147
4 148 149 150 151
4 152 153 154 155
4 156 157 158 159
4 160 161 162 163
4 164 165 166 167
4 168 169 170 171
4 172 173 174 175
4 176 177 178 179
4 180 181 182 183
4 184 185 186 187
4 188 189 190 191
4 192 193 194 195
4 196 197 198 199
4 200 201 202 203
4 204 205 206 207
4 208 209 210 211
4 212 213 214 215
4 216 217 218 219
4 220 221 222 223
4 224 225 226 227
4 228 229 230 231
4 232 233 234 235
4 236 237 238 239
4 240 241 242 243
4 244 245 246 247
4 248 249 250 251
4 252 253 254 255
4 256 257 258 259
4 260 261 262 263
4 264 265 266 267
4 268 269 270 271
4 272 273 274 275
4 276 277 278 279
4 280 281 282 283
4 284 285 286 287
4 288 289 290 291
4 292 293 294 295
4 296 297 298 299
4 300 301 302 303
4 304 305 306 307
4 308 309 310 311
4 312 313 314 315
4 316 317 318 319
4 320 321 322 323
4 324 325 326 327
4 328 329 330 331
4 332 333 334 335
4 336 337 338 339
4 340 341 342 343
4 344 345 346 347
4 348 349 350 351
4 352 353 354 355
3 356 357 358
3 359 360 361
