ply
format ascii 1.0
element vertex 492
property float x
property float y
property float z
property float nx
property float ny
property float nz
element quads 122
property list uchar int vertex_indices
end_header
412 376 0 1 0 0
412 200 0 1 0 0
412 200 100 1 0 0
412 376 100 1 0 0
402 376 0 -1 -0 0
402 200 0 -1 -0 0
402 200 100 -1 -0 0
402 376 100 -1 -0 0
423 112 0 1 0 0
423 86 0 1 0 0
423 86 100 1 0 0
423 112 100 1 0 0
413 112 0 -1 -0 0
413 86 0 -1 -0 0
413 86 100 -1 -0 0
413 112 100 -1 -0 0
357 341 0 1 0 0
357 222 0 1 0 0
357 222 100 1 0 0
357 341 100 1 0 0
347 341 0 -1 -0 0
347 222 0 -1 -0 0
347 222 100 -1 -0 0
347 341 100 -1 -0 0
347 222 0 -1 0 0
347 413 0 -1 0 0
347 413 100 -1 0 0
347 222 100 -1 0 0
357 222 0 1 -0 0
357 413 0 1 -0 0
357 413 100 1 -0 0
357 222 100 1 -0 0
174 416 0 -0 1 0
218 416 0 -0 1 0
218 416 100 -0 1 0
174 416 100 -0 1 0
174 406 0 0 -1 0
218 406 0 0 -1 0
218 406 100 0 -1 0
174 406 100 0 -1 0
274 95 0 1 0 0
274 22 0 1 0 0
274 22 100 1 0 0
274 95 100 1 0 0
264 95 0 -1 -0 0
264 22 0 -1 -0 0
264 22 100 -1 -0 0
264 95 100 -1 -0 0
264 22 0 -1 0 0
264 143 0 -1 0 0
264 143 100 -1 0 0
264 22 100 -1 0 0
274 22 0 1 -0 0
274 143 0 1 -0 0
274 143 100 1 -0 0
274 22 100 1 -0 0
238 259 0 -0 1 0
291 259 0 -0 1 0
291 259 100 -0 1 0
238 259 100 -0 1 0
238 249 0 0 -1 0
291 249 0 0 -1 0
291 249 100 0 -1 0
238 249 100 0 -1 0
464 102 0 1 0 0
464 24 0 1 0 0
464 24 100 1 0 0
464 102 100 1 0 0
454 102 0 -1 -0 0
454 24 0 -1 -0 0
454 24 100 -1 -0 0
454 102 100 -1 -0 0
381 448 0 -0 1 0
457 448 0 -0 1 0
457 448 100 -0 1 0
381 448 100 -0 1 0
381 438 0 0 -1 0
457 438 0 0 -1 0
457 438 100 0 -1 0
381 438 100 0 -1 0
567 265 0 1 0 0
567 241 0 1 0 0
567 241 100 1 0 0
567 265 100 1 0 0
557 265 0 -1 -0 0
557 241 0 -1 -0 0
557 241 100 -1 -0 0
557 265 100 -1 -0 0
655 412 0 1 0 0
655 15 0 1 0 0
655 15 100 1 0 0
655 412 100 1 0 0
645 412 0 -1 -0 0
645 25 0 -1 -0 0
645 25 100 -1 -0 0
645 412 100 -1 -0 0
655 15 0 -0 -1 0
174 15 0 -0 -1 0
174 15 100 -0 -1 0
655 15 100 -0 -1 0
645 25 0 0 1 0
174 25 0 0 1 0
174 25 100 0 1 0
645 25 100 0 1 0
406 363 0 1 0 0
406 336 0 1 0 0
406 336 100 1 0 0
406 363 100 1 0 0
396 363 0 -1 -0 0
396 336 0 -1 -0 0
396 336 100 -1 -0 0
396 363 100 -1 -0 0
390 114 0 1 0 0
390 74 0 1 0 0
390 74 100 1 0 0
390 114 100 1 0 0
380 114 0 -1 -0 0
380 74 0 -1 -0 0
380 74 100 -1 -0 0
380 114 100 -1 -0 0
406 112 0 1 0 0
406 86 0 1 0 0
406 86 100 1 0 0
406 112 100 1 0 0
396 112 0 -1 -0 0
396 86 0 -1 -0 0
396 86 100 -1 -0 0
396 112 100 -1 -0 0
431 111 0 1 0 0
431 89 0 1 0 0
431 89 100 1 0 0
431 111 100 1 0 0
421 111 0 -1 -0 0
421 89 0 -1 -0 0
421 89 100 -1 -0 0
421 111 100 -1 -0 0
176 144 0 -0 1 0
272 144 0 -0 1 0
272 144 100 -0 1 0
176 144 100 -0 1 0
176 134 0 0 -1 0
272 134 0 0 -1 0
272 134 100 0 -1 0
176 134 100 0 -1 0
459 76 0 -0 1 0
575 76 0 -0 1 0
575 76 100 -0 1 0
459 76 100 -0 1 0
459 66 0 0 -1 0
570 66 0 0 -1 0
570 66 100 0 -1 0
459 66 100 0 -1 0
575 76 0 -0 1 0
607 76 0 -0 1 0
607 76 100 -0 1 0
575 76 100 -0 1 0
570 66 0 0 -1 0
607 66 0 0 -1 0
607 66 100 0 -1 0
570 66 100 0 -1 0
565 71 0 -1 0 0
565 114 0 -1 0 0
565 114 100 -1 0 0
565 71 100 -1 0 0
575 76 0 1 -0 0
575 114 0 1 -0 0
575 114 100 1 -0 0
575 76 100 1 -0 0
575 76 0 1 0 0
575 62 0 1 0 0
575 62 100 1 0 0
575 76 100 1 0 0
565 71 0 -1 -0 0
565 62 0 -1 -0 0
565 62 100 -1 -0 0
565 71 100 -1 -0 0
412 376 0 409.659088134765625 374.8636474609375 0
402 376 0 409.659088134765625 374.8636474609375 0
402 376 100 409.659088134765625 374.8636474609375 0
412 376 100 409.659088134765625 374.8636474609375 0
412 200 0 409.659088134765625 197.863632202148438 0
402 200 0 409.659088134765625 197.863632202148438 0
402 200 100 409.659088134765625 197.863632202148438 0
412 200 100 409.659088134765625 197.863632202148438 0
423 112 0 406.73077392578125 108.692306518554688 0
413 112 0 406.73077392578125 108.692306518554688 0
413 112 100 406.73077392578125 108.692306518554688 0
423 112 100 406.73077392578125 108.692306518554688 0
423 86 0 406.73077392578125 81.6923065185546875 0
413 86 0 406.73077392578125 81.6923065185546875 0
413 86 100 406.73077392578125 81.6923065185546875 0
423 86 100 406.73077392578125 81.6923065185546875 0
357 341 0 354 339.13446044921875 0
347 341 0 354 339.13446044921875 0
347 341 100 354 339.13446044921875 0
357 341 100 354 339.13446044921875 0
174 416 0 169.045455932617188 406.545440673828125 0
174 406 0 169.045455932617188 406.545440673828125 0
174 406 100 169.045455932617188 406.545440673828125 0
174 416 100 169.045455932617188 406.545440673828125 0
218 416 0 214.045455932617188 406.545440673828125 0
218 406 0 214.045455932617188 406.545440673828125 0
218 406 100 214.045455932617188 406.545440673828125 0
218 416 100 214.045455932617188 406.545440673828125 0
274 95 0 270.24658203125 94.6986312866210938 0
264 95 0 270.24658203125 94.6986312866210938 0
264 95 100 270.24658203125 94.6986312866210938 0
274 95 100 270.24658203125 94.6986312866210938 0
238 259 0 232.509429931640625 254.113204956054688 0
238 249 0 232.509429931640625 254.113204956054688 0
238 249 100 232.509429931640625 254.113204956054688 0
238 259 100 232.509429931640625 254.113204956054688 0
291 259 0 286.509429931640625 254.113204956054688 0
291 249 0 286.509429931640625 254.113204956054688 0
291 249 100 286.509429931640625 254.113204956054688 0
291 259 100 286.509429931640625 254.113204956054688 0
464 102 0 458.05126953125 101.692306518554688 0
454 102 0 458.05126953125 101.692306518554688 0
454 102 100 458.05126953125 101.692306518554688 0
464 102 100 458.05126953125 101.692306518554688 0
464 24 0 458.05126953125 22.6923084259033203 0
454 24 0 458.05126953125 22.6923084259033203 0
454 24 100 458.05126953125 22.6923084259033203 0
464 24 100 458.05126953125 22.6923084259033203 0
381 448 0 374.986846923828125 442.105255126953125 0
381 438 0 374.986846923828125 442.105255126953125 0
381 438 100 374.986846923828125 442.105255126953125 0
381 448 100 374.986846923828125 442.105255126953125 0
457 448 0 451.986846923828125 442.105255126953125 0
457 438 0 451.986846923828125 442.105255126953125 0
457 438 100 451.986846923828125 442.105255126953125 0
457 448 100 451.986846923828125 442.105255126953125 0
567 265 0 543.375 254.958328247070312 0
557 265 0 543.375 254.958328247070312 0
557 265 100 543.375 254.958328247070312 0
567 265 100 543.375 254.958328247070312 0
567 241 0 543.375 229.958328247070312 0
557 241 0 543.375 229.958328247070312 0
557 241 100 543.375 229.958328247070312 0
567 241 100 543.375 229.958328247070312 0
655 412 0 653.35009765625 411.96221923828125 0
645 412 0 653.35009765625 411.96221923828125 0
645 412 100 653.35009765625 411.96221923828125 0
655 412 100 653.35009765625 411.96221923828125 0
347 413 0 345.183258056640625 411.83770751953125 0
357 413 0 345.183258056640625 411.83770751953125 0
357 413 100 345.183258056640625 411.83770751953125 0
347 413 100 345.183258056640625 411.83770751953125 0
174 15 0 172.638259887695312 14.9688148498535156 0
174 25 0 172.638259887695312 14.9688148498535156 0
174 25 100 172.638259887695312 14.9688148498535156 0
174 15 100 172.638259887695312 14.9688148498535156 0
406 363 0 390.96295166015625 350.5555419921875 0
396 363 0 390.96295166015625 350.5555419921875 0
396 363 100 390.96295166015625 350.5555419921875 0
406 363 100 390.96295166015625 350.5555419921875 0
406 336 0 390.96295166015625 322.5555419921875 0
396 336 0 390.96295166015625 322.5555419921875 0
396 336 100 390.96295166015625 322.5555419921875 0
406 336 100 390.96295166015625 322.5555419921875 0
390 114 0 380.25 112.150001525878906 0
380 114 0 380.25 112.150001525878906 0
380 114 100 380.25 112.150001525878906 0
390 114 100 380.25 112.150001525878906 0
390 74 0 380.25 71.1500015258789062 0
380 74 0 380.25 71.1500015258789062 0
380 74 100 380.25 71.1500015258789062 0
390 74 100 380.25 71.1500015258789062 0
406 112 0 390.384613037109375 108.692306518554688 0
396 112 0 390.384613037109375 108.692306518554688 0
396 112 100 390.384613037109375 108.692306518554688 0
406 112 100 390.384613037109375 108.692306518554688 0
406 86 0 390.384613037109375 81.6923065185546875 0
396 86 0 390.384613037109375 81.6923065185546875 0
396 86 100 390.384613037109375 81.6923065185546875 0
406 86 100 390.384613037109375 81.6923065185546875 0
431 111 0 411.409088134765625 106.954544067382812 0
421 111 0 411.409088134765625 106.954544067382812 0
421 111 100 411.409088134765625 106.954544067382812 0
431 111 100 411.409088134765625 106.954544067382812 0
431 89 0 411.409088134765625 83.9545440673828125 0
421 89 0 411.409088134765625 83.9545440673828125 0
421 89 100 411.409088134765625 83.9545440673828125 0
431 89 100 411.409088134765625 83.9545440673828125 0
176 144 0 173.166671752929688 142.5 0
176 134 0 173.166671752929688 142.5 0
176 134 100 173.166671752929688 142.5 0
176 144 100 173.166671752929688 142.5 0
272 144 0 270.166656494140625 142.5 0
272 134 0 270.166656494140625 142.5 0
272 134 100 270.166656494140625 142.5 0
272 144 100 270.166656494140625 142.5 0
264 143 0 261.81817626953125 142.81817626953125 0
274 143 0 261.81817626953125 142.81817626953125 0
274 143 100 261.81817626953125 142.81817626953125 0
264 143 100 261.81817626953125 142.81817626953125 0
459 76 0 454.0430908203125 75.3448257446289062 0
459 66 0 454.0430908203125 75.3448257446289062 0
459 66 100 454.0430908203125 75.3448257446289062 0
459 76 100 454.0430908203125 75.3448257446289062 0
607 76 0 589.03125 73.625 0
607 66 0 589.03125 73.625 0
607 66 100 589.03125 73.625 0
607 76 100 589.03125 73.625 0
565 114 0 551.8604736328125 112.348838806152344 0
575 114 0 551.8604736328125 112.348838806152344 0
575 114 100 551.8604736328125 112.348838806152344 0
565 114 100 551.8604736328125 112.348838806152344 0
575 62 0 533.9285888671875 56.5714302062988281 0
565 62 0 533.9285888671875 56.5714302062988281 0
565 62 100 533.9285888671875 56.5714302062988281 0
575 62 100 533.9285888671875 56.5714302062988281 0
412 376 0 0 0 -1
402 376 0 0 0 -1
402 200 0 0 0 -1
412 200 0 0 0 -1
412 376 100 0 0 1
402 376 100 0 0 1
402 200 100 0 0 1
412 200 100 0 0 1
423 112 0 0 0 -1
413 112 0 0 0 -1
413 86 0 0 0 -1
423 86 0 0 0 -1
423 112 100 0 0 1
413 112 100 0 0 1
413 86 100 0 0 1
423 86 100 0 0 1
357 341 0 0 0 -1
347 341 0 0 0 -1
347 222 0 0 0 -1
357 222 0 0 0 -1
357 341 100 0 0 1
347 341 100 0 0 1
347 222 100 0 0 1
357 222 100 0 0 1
347 222 0 0 0 -1
357 222 0 0 0 -1
357 413 0 0 0 -1
347 413 0 0 0 -1
347 222 100 0 0 1
357 222 100 0 0 1
357 413 100 0 0 1
347 413 100 0 0 1
174 416 0 0 0 -1
174 406 0 0 0 -1
218 406 0 0 0 -1
218 416 0 0 0 -1
174 416 100 0 0 1
174 406 100 0 0 1
218 406 100 0 0 1
218 416 100 0 0 1
274 95 0 0 0 -1
264 95 0 0 0 -1
264 22 0 0 0 -1
274 22 0 0 0 -1
274 95 100 0 0 1
264 95 100 0 0 1
264 22 100 0 0 1
274 22 100 0 0 1
264 22 0 0 0 -1
274 22 0 0 0 -1
274 143 0 0 0 -1
264 143 0 0 0 -1
264 22 100 0 0 1
274 22 100 0 0 1
274 143 100 0 0 1
264 143 100 0 0 1
238 259 0 0 0 -1
238 249 0 0 0 -1
291 249 0 0 0 -1
291 259 0 0 0 -1
238 259 100 0 0 1
238 249 100 0 0 1
291 249 100 0 0 1
291 259 100 0 0 1
464 102 0 0 0 -1
454 102 0 0 0 -1
454 24 0 0 0 -1
464 24 0 0 0 -1
464 102 100 0 0 1
454 102 100 0 0 1
454 24 100 0 0 1
464 24 100 0 0 1
381 448 0 0 0 -1
381 438 0 0 0 -1
457 438 0 0 0 -1
457 448 0 0 0 -1
381 448 100 0 0 1
381 438 100 0 0 1
457 438 100 0 0 1
457 448 100 0 0 1
567 265 0 0 0 -1
557 265 0 0 0 -1
557 241 0 0 0 -1
567 241 0 0 0 -1
567 265 100 0 0 1
557 265 100 0 0 1
557 241 100 0 0 1
567 241 100 0 0 1
655 412 0 0 0 -1
645 412 0 0 0 -1
645 25 0 0 0 -1
655 15 0 0 0 -1
655 412 100 0 0 1
645 412 100 0 0 1
645 25 100 0 0 1
655 15 100 0 0 1
655 15 0 0 0 -1
645 25 0 0 0 -1
174 25 0 0 0 -1
174 15 0 0 0 -1
655 15 100 0 0 1
645 25 100 0 0 1
174 25 100 0 0 1
174 15 100 0 0 1
406 363 0 0 0 -1
396 363 0 0 0 -1
396 336 0 0 0 -1
406 336 0 0 0 -1
406 363 100 0 0 1
396 363 100 0 0 1
396 336 100 0 0 1
406 336 100 0 0 1
390 114 0 0 0 -1
380 114 0 0 0 -1
380 74 0 0 0 -1
390 74 0 0 0 -1
390 114 100 0 0 1
380 114 100 0 0 1
380 74 100 0 0 1
390 74 100 0 0 1
406 112 0 0 0 -1
396 112 0 0 0 -1
396 86 0 0 0 -1
406 86 0 0 0 -1
406 112 100 0 0 1
396 112 100 0 0 1
396 86 100 0 0 1
406 86 100 0 0 1
431 111 0 0 0 -1
421 111 0 0 0 -1
421 89 0 0 0 -1
431 89 0 0 0 -1
431 111 100 0 0 1
421 111 100 0 0 1
421 89 100 0 0 1
431 89 100 0 0 1
176 144 0 0 0 -1
176 134 0 0 0 -1
272 134 0 0 0 -1
272 144 0 0 0 -1
176 144 100 0 0 1
176 134 100 0 0 1
272 134 100 0 0 1
272 144 100 0 0 1
459 76 0 0 0 -1
459 66 0 0 0 -1
570 66 0 0 0 -1
575 76 0 0 0 -1
459 76 100 0 0 1
459 66 100 0 0 1
570 66 100 0 0 1
575 76 100 0 0 1
575 76 0 0 0 -1
570 66 0 0 0 -1
607 66 0 0 0 -1
607 76 0 0 0 -1
575 76 100 0 0 1
570 66 100 0 0 1
607 66 100 0 0 1
607 76 100 0 0 1
565 71 0 0 0 -1
575 76 0 0 0 -1
575 114 0 0 0 -1
565 114 0 0 0 -1
565 71 100 0 0 1
575 76 100 0 0 1
575 114 100 0 0 1
565 114 100 0 0 1
575 76 0 0 0 -1
565 71 0 0 0 -1
565 62 0 0 0 -1
575 62 0 0 0 -1
575 76 100 0 0 1
565 71 100 0 0 1
565 62 100 0 0 1
575 62 100 0 0 1
575 76 0 0 0 -1
575 76 0 0 0 -1
575 76 100 0 0 1
575 76 100 0 0 1
4 0 1 2 3
4 4 5 6 7
4 8 9 10 11
4 12 13 14 15
4 16 17 18 19
4 20 21 22 23
4 24 25 26 27
4 28 29 30 31
4 32 33 34 35
4 36 37 38 39
4 40 41 42 43
4 44 45 46 47
4 48 49 50 51
4 52 53 54 55
4 56 57 58 59
4 60 61 62 63
4 64 65 66 67
4 68 69 70 71
4 72 73 74 75
4 76 77 78 79
4 80 81 82 83
4 84 85 86 87
4 88 89 90 91
4 92 93 94 95
4 96 97 98 99
4 100 101 102 103
4 104 105 106 107
4 108 109 110 111
4 112 113 114 115
4 116 117 118 119
4 120 121 122 123
4 124 125 126 127
4 128 129 130 131
4 132 133 134 135
4 136 137 138 139
4 140 141 142 143
4 144 145 146 147
4 148 149 150 151
4 152 153 154 155
4 156 157 158 159
4 160 161 162 163
4 164 165 166 167
4 168 169 170 171
4 172 173 174 175
4 176 177 178 179
4 180 181 182 183
4 184 185 186 187
4 188 189 190 191
4 192 193 194 195
4 196 197 198 199
4 200 201 202 203
4 204 205 206 207
4 208 209 210 211
4 212 213 214 215
4 216 217 218 219
4 220 221 222 223
4 224 225 226 227
4 228 229 230 231
4 232 233 234 235
4 236 237 238 239
4 240 241 242 243
4 244 245 246 247
4 248 249 250 251
4 252 253 254 255
4 256 257 258 259
4 260 261 262 263
4 264 265 266 267
4 268 269 270 271
4 272 273 274 275
4 276 277 278 279
4 280 281 282 283
4 284 285 286 287
4 288 289 290 291
4 292 293 294 295
4 296 297 298 299
4 300 301 302 303
4 304 305 306 307
4 308 309 310 311
4 312 313 314 315
4 316 317 318 319
4 320 321 322 323
4 324 325 326 327
4 328 329 330 331
4 332 333 334 335
4 336 337 338 339
4 340 341 342 343
4 344 345 346 347
4 348 349 350 351
4 352 353 354 355
4 356 357 358 359
4 360 361 362 363
4 364 365 366 367
4 368 369 370 371
4 372 373 374 375
4 376 377 378 379
4 380 381 382 383
4 384 385 386 387
4 388 389 390 391
4 392 393 394 395
4 396 397 398 399
4 400 401 402 403
4 404 405 406 407
4 408 409 410 411
4 412 413 414 415
4 416 417 418 419
4 420 421 422 423
4 424 425 426 427
4 428 429 430 431
4 432 433 434 435
4 436 437 438 439
4 440 441 442 443
4 444 445 446 447
4 448 449 450 451
4 452 453 454 455
4 456 457 458 459
4 460 461 462 463
4 464 465 466 467
4 468 469 470 471
4 472 473 474 475
4 476 477 478 479
4 480 481 482 483
4 484 485 486 487
