ply
format ascii 1.0
element vertex 464
property float x
property float y
property float z
property float nx
property float ny
property float nz
element quads 116
property list uchar int vertex_indices
end_header
147 529 0 1 0 0
147 489 0 1 0 0
147 489 100 1 0 0
147 529 100 1 0 0
137 529 0 -1 -0 0
137 489 0 -1 -0 0
137 489 100 -1 -0 0
137 529 100 -1 -0 0
652 372 0 1 0 0
652 186 0 1 0 0
652 186 100 1 0 0
652 372 100 1 0 0
642 372 0 -1 -0 0
642 186 0 -1 -0 0
642 186 100 -1 -0 0
642 372 100 -1 -0 0
652 372 0 1 0 0
652 252 0 1 0 0
652 252 100 1 0 0
652 372 100 1 0 0
642 372 0 -1 -0 0
642 252 0 -1 -0 0
642 252 100 -1 -0 0
642 372 100 -1 -0 0
401 259 0 1 0 0
401 136 0 1 0 0
401 136 100 1 0 0
401 259 100 1 0 0
391 259 0 -1 -0 0
391 136 0 -1 -0 0
391 136 100 -1 -0 0
391 259 100 -1 -0 0
143 282 0 -0 1 0
365 282 0 -0 1 0
365 282 100 -0 1 0
143 282 100 -0 1 0
143 272 0 0 -1 0
365 272 0 0 -1 0
365 272 100 0 -1 0
143 272 100 0 -1 0
676 66 0 -0 1 0
704 66 0 -0 1 0
704 66 100 -0 1 0
676 66 100 -0 1 0
676 56 0 0 -1 0
704 56 0 0 -1 0
704 56 100 0 -1 0
676 56 100 0 -1 0
563 219 0 -0 1 0
603 219 0 -0 1 0
603 219 100 -0 1 0
563 219 100 -0 1 0
563 209 0 0 -1 0
613 209 0 0 -1 0
613 209 100 0 -1 0
563 209 100 0 -1 0
603 219 0 -1 0 0
603 294 0 -1 0 0
603 294 100 -1 0 0
603 219 100 -1 0 0
613 209 0 1 -0 0
613 294 0 1 -0 0
613 294 100 1 -0 0
613 209 100 1 -0 0
209 276 0 1 0 0
209 200 0 1 0 0
209 200 100 1 0 0
209 276 100 1 0 0
199 276 0 -1 -0 0
199 200 0 -1 -0 0
199 200 100 -1 -0 0
199 276 100 -1 -0 0
234 513 0 -0 1 0
274 513 0 -0 1 0
274 513 100 -0 1 0
234 513 100 -0 1 0
234 503 0 0 -1 0
274 503 0 0 -1 0
274 503 100 0 -1 0
234 503 100 0 -1 0
648 303 0 -0 1 0
707 303 0 -0 1 0
707 303 100 -0 1 0
648 303 100 -0 1 0
648 293 0 0 -1 0
697 293 0 0 -1 0
697 293 100 0 -1 0
648 293 100 0 -1 0
707 303 0 1 0 0
707 181 0 1 0 0
707 181 100 1 0 0
707 303 100 1 0 0
697 293 0 -1 -0 0
697 191 0 -1 -0 0
697 191 100 -1 -0 0
697 293 100 -1 -0 0
532 66 0 -0 1 0
615 66 0 -0 1 0
615 66 100 -0 1 0
532 66 100 -0 1 0
532 56 0 0 -1 0
615 56 0 0 -1 0
615 56 100 0 -1 0
532 56 100 0 -1 0
532 66 0 -0 1 0
589 66 0 -0 1 0
589 66 100 -0 1 0
532 66 100 -0 1 0
532 56 0 0 -1 0
589 56 0 0 -1 0
589 56 100 0 -1 0
532 56 100 0 -1 0
586 191 0 -0 1 0
697 191 0 -0 1 0
697 191 100 -0 1 0
586 191 100 -0 1 0
586 181 0 0 -1 0
707 181 0 0 -1 0
707 181 100 0 -1 0
586 181 100 0 -1 0
612 294 0 1 0 0
612 255 0 1 0 0
612 255 100 1 0 0
612 294 100 1 0 0
602 294 0 -1 -0 0
602 255 0 -1 -0 0
602 255 100 -1 -0 0
602 294 100 -1 -0 0
366 398 0 -0 1 0
503 398 0 -0 1 0
503 398 100 -0 1 0
366 398 100 -0 1 0
366 388 0 0 -1 0
503 388 0 0 -1 0
503 388 100 0 -1 0
366 388 100 0 -1 0
328 513 0 -0 1 0
364 513 0 -0 1 0
364 513 100 -0 1 0
328 513 100 -0 1 0
328 503 0 0 -1 0
364 503 0 0 -1 0
364 503 100 0 -1 0
328 503 100 0 -1 0
144 534 0 -0 1 0
233 534 0 -0 1 0
233 534 100 -0 1 0
144 534 100 -0 1 0
144 524 0 0 -1 0
233 524 0 0 -1 0
233 524 100 0 -1 0
144 524 100 0 -1 0
648 217 0 -0 1 0
702 217 0 -0 1 0
702 217 100 -0 1 0
648 217 100 -0 1 0
648 207 0 0 -1 0
702 207 0 0 -1 0
702 207 100 0 -1 0
648 207 100 0 -1 0
568 376 0 -0 1 0
642 376 0 -0 1 0
642 376 100 -0 1 0
568 376 100 -0 1 0
568 366 0 0 -1 0
642 366 0 0 -1 0
642 366 100 0 -1 0
568 366 100 0 -1 0
147 529 0 143.324996948242188 516.7750244140625 0
137 529 0 143.324996948242188 516.7750244140625 0
137 529 100 143.324996948242188 516.7750244140625 0
147 529 100 143.324996948242188 516.7750244140625 0
147 489 0 143.324996948242188 475.774993896484375 0
137 489 0 143.324996948242188 475.774993896484375 0
137 489 100 143.324996948242188 475.774993896484375 0
147 489 100 143.324996948242188 475.774993896484375 0
652 186 0 648.49462890625 184 0
642 186 0 648.49462890625 184 0
642 186 100 648.49462890625 184 0
652 186 100 648.49462890625 184 0
401 259 0 397.739837646484375 257.894317626953125 0
391 259 0 397.739837646484375 257.894317626953125 0
391 259 100 397.739837646484375 257.894317626953125 0
401 259 100 397.739837646484375 257.894317626953125 0
401 136 0 397.739837646484375 133.894302368164062 0
391 136 0 397.739837646484375 133.894302368164062 0
391 136 100 397.739837646484375 133.894302368164062 0
401 136 100 397.739837646484375 133.894302368164062 0
143 282 0 141.355850219726562 280.729736328125 0
143 272 0 141.355850219726562 280.729736328125 0
143 272 100 141.355850219726562 280.729736328125 0
143 282 100 141.355850219726562 280.729736328125 0
365 282 0 364.355865478515625 280.729736328125 0
365 272 0 364.355865478515625 280.729736328125 0
365 272 100 364.355865478515625 280.729736328125 0
365 282 100 364.355865478515625 280.729736328125 0
676 66 0 650.85711669921875 63.6428565979003906 0
676 56 0 650.85711669921875 63.6428565979003906 0
676 56 100 650.85711669921875 63.6428565979003906 0
676 66 100 650.85711669921875 63.6428565979003906 0
704 66 0 679.85711669921875 63.6428565979003906 0
704 56 0 679.85711669921875 63.6428565979003906 0
704 56 100 679.85711669921875 63.6428565979003906 0
704 66 100 679.85711669921875 63.6428565979003906 0
563 219 0 547.92498779296875 213.524993896484375 0
563 209 0 547.92498779296875 213.524993896484375 0
563 209 100 547.92498779296875 213.524993896484375 0
563 219 100 547.92498779296875 213.524993896484375 0
209 276 0 206.25 273.368408203125 0
199 276 0 206.25 273.368408203125 0
199 276 100 206.25 273.368408203125 0
209 276 100 206.25 273.368408203125 0
209 200 0 206.25 196.368423461914062 0
199 200 0 206.25 196.368423461914062 0
199 200 100 206.25 196.368423461914062 0
209 200 100 206.25 196.368423461914062 0
234 513 0 227.149993896484375 500.17498779296875 0
234 503 0 227.149993896484375 500.17498779296875 0
234 503 100 227.149993896484375 500.17498779296875 0
234 513 100 227.149993896484375 500.17498779296875 0
274 513 0 268.149993896484375 500.17498779296875 0
274 503 0 268.149993896484375 500.17498779296875 0
274 503 100 268.149993896484375 500.17498779296875 0
274 513 100 268.149993896484375 500.17498779296875 0
648 303 0 636.0169677734375 297.864410400390625 0
648 293 0 636.0169677734375 297.864410400390625 0
648 293 100 636.0169677734375 297.864410400390625 0
648 303 100 636.0169677734375 297.864410400390625 0
615 66 0 608.59033203125 65.2048187255859375 0
615 56 0 608.59033203125 65.2048187255859375 0
615 56 100 608.59033203125 65.2048187255859375 0
615 66 100 608.59033203125 65.2048187255859375 0
586 191 0 579.720703125 189.279281616210938 0
586 181 0 579.720703125 189.279281616210938 0
586 181 100 579.720703125 189.279281616210938 0
586 191 100 579.720703125 189.279281616210938 0
603 294 0 594.96002197265625 291.079986572265625 0
613 294 0 594.96002197265625 291.079986572265625 0
613 294 100 594.96002197265625 291.079986572265625 0
603 294 100 594.96002197265625 291.079986572265625 0
612 294 0 596.30767822265625 287.4615478515625 0
602 294 0 596.30767822265625 287.4615478515625 0
602 294 100 596.30767822265625 287.4615478515625 0
612 294 100 596.30767822265625 287.4615478515625 0
612 255 0 596.30767822265625 247.461532592773438 0
602 255 0 596.30767822265625 247.461532592773438 0
602 255 100 596.30767822265625 247.461532592773438 0
612 255 100 596.30767822265625 247.461532592773438 0
366 398 0 362.328460693359375 395.094879150390625 0
366 388 0 362.328460693359375 395.094879150390625 0
366 388 100 362.328460693359375 395.094879150390625 0
366 398 100 362.328460693359375 395.094879150390625 0
503 398 0 500.328460693359375 395.094879150390625 0
503 388 0 500.328460693359375 395.094879150390625 0
503 388 100 500.328460693359375 395.094879150390625 0
503 398 100 500.328460693359375 395.094879150390625 0
328 513 0 317.888885498046875 498.75 0
328 503 0 317.888885498046875 498.75 0
328 503 100 317.888885498046875 498.75 0
328 513 100 317.888885498046875 498.75 0
364 513 0 354.888885498046875 498.75 0
364 503 0 354.888885498046875 498.75 0
364 503 100 354.888885498046875 498.75 0
364 513 100 354.888885498046875 498.75 0
144 534 0 141.38201904296875 528 0
144 524 0 141.38201904296875 528 0
144 524 100 141.38201904296875 528 0
144 534 100 141.38201904296875 528 0
233 534 0 231.38201904296875 528 0
233 524 0 231.38201904296875 528 0
233 524 100 231.38201904296875 528 0
233 534 100 231.38201904296875 528 0
652 252 0 646.566650390625 248.899993896484375 0
642 252 0 646.566650390625 248.899993896484375 0
642 252 100 646.566650390625 248.899993896484375 0
652 252 100 646.566650390625 248.899993896484375 0
648 217 0 635 212.981475830078125 0
648 207 0 635 212.981475830078125 0
648 207 100 635 212.981475830078125 0
648 217 100 635 212.981475830078125 0
702 217 0 690 212.981475830078125 0
702 207 0 690 212.981475830078125 0
702 207 100 690 212.981475830078125 0
702 217 100 690 212.981475830078125 0
568 376 0 559.3243408203125 370.918914794921875 0
568 366 0 559.3243408203125 370.918914794921875 0
568 366 100 559.3243408203125 370.918914794921875 0
568 376 100 559.3243408203125 370.918914794921875 0
642 376 0 634.3243408203125 370.918914794921875 0
642 366 0 634.3243408203125 370.918914794921875 0
642 366 100 634.3243408203125 370.918914794921875 0
642 376 100 634.3243408203125 370.918914794921875 0
589 66 0 579.66668701171875 64.84210205078125 0
589 56 0 579.66668701171875 64.84210205078125 0
589 56 100 579.66668701171875 64.84210205078125 0
589 66 100 579.66668701171875 64.84210205078125 0
147 529 0 0 0 -1
137 529 0 0 0 -1
137 489 0 0 0 -1
147 489 0 0 0 -1
147 529 100 0 0 1
137 529 100 0 0 1
137 489 100 0 0 1
147 489 100 0 0 1
652 372 0 0 0 -1
642 372 0 0 0 -1
642 186 0 0 0 -1
652 186 0 0 0 -1
652 372 100 0 0 1
642 372 100 0 0 1
642 186 100 0 0 1
652 186 100 0 0 1
652 372 0 0 0 -1
642 372 0 0 0 -1
642 252 0 0 0 -1
652 252 0 0 0 -1
652 372 100 0 0 1
642 372 100 0 0 1
642 252 100 0 0 1
652 252 100 0 0 1
401 259 0 0 0 -1
391 259 0 0 0 -1
391 136 0 0 0 -1
401 136 0 0 0 -1
401 259 100 0 0 1
391 259 100 0 0 1
391 136 100 0 0 1
401 136 100 0 0 1
143 282 0 0 0 -1
143 272 0 0 0 -1
365 272 0 0 0 -1
365 282 0 0 0 -1
143 282 100 0 0 1
143 272 100 0 0 1
365 272 100 0 0 1
365 282 100 0 0 1
676 66 0 0 0 -1
676 56 0 0 0 -1
704 56 0 0 0 -1
704 66 0 0 0 -1
676 66 100 0 0 1
676 56 100 0 0 1
704 56 100 0 0 1
704 66 100 0 0 1
563 219 0 0 0 -1
563 209 0 0 0 -1
613 209 0 0 0 -1
603 219 0 0 0 -1
563 219 100 0 0 1
563 209 100 0 0 1
613 209 100 0 0 1
603 219 100 0 0 1
603 219 0 0 0 -1
613 209 0 0 0 -1
613 294 0 0 0 -1
603 294 0 0 0 -1
603 219 100 0 0 1
613 209 100 0 0 1
613 294 100 0 0 1
603 294 100 0 0 1
209 276 0 0 0 -1
199 276 0 0 0 -1
199 200 0 0 0 -1
209 200 0 0 0 -1
209 276 100 0 0 1
199 276 100 0 0 1
199 200 100 0 0 1
209 200 100 0 0 1
234 513 0 0 0 -1
234 503 0 0 0 -1
274 503 0 0 0 -1
274 513 0 0 0 -1
234 513 100 0 0 1
234 503 100 0 0 1
274 503 100 0 0 1
274 513 100 0 0 1
648 303 0 0 0 -1
648 293 0 0 0 -1
697 293 0 0 0 -1
707 303 0 0 0 -1
648 303 100 0 0 1
648 293 100 0 0 1
697 293 100 0 0 1
707 303 100 0 0 1
707 303 0 0 0 -1
697 293 0 0 0 -1
697 191 0 0 0 -1
707 181 0 0 0 -1
707 303 100 0 0 1
697 293 100 0 0 1
697 191 100 0 0 1
707 181 100 0 0 1
532 66 0 0 0 -1
532 56 0 0 0 -1
615 56 0 0 0 -1
615 66 0 0 0 -1
532 66 100 0 0 1
532 56 100 0 0 1
615 56 100 0 0 1
615 66 100 0 0 1
532 66 0 0 0 -1
532 56 0 0 0 -1
589 56 0 0 0 -1
589 66 0 0 0 -1
532 66 100 0 0 1
532 56 100 0 0 1
589 56 100 0 0 1
589 66 100 0 0 1
586 191 0 0 0 -1
586 181 0 0 0 -1
707 181 0 0 0 -1
697 191 0 0 0 -1
586 191 100 0 0 1
586 181 100 0 0 1
707 181 100 0 0 1
697 191 100 0 0 1
612 294 0 0 0 -1
602 294 0 0 0 -1
602 255 0 0 0 -1
612 255 0 0 0 -1
612 294 100 0 0 1
602 294 100 0 0 1
602 255 100 0 0 1
612 255 100 0 0 1
366 398 0 0 0 -1
366 388 0 0 0 -1
503 388 0 0 0 -1
503 398 0 0 0 -1
366 398 100 0 0 1
366 388 100 0 0 1
503 388 100 0 0 1
503 398 100 0 0 1
328 513 0 0 0 -1
328 503 0 0 0 -1
364 503 0 0 0 -1
364 513 0 0 0 -1
328 513 100 0 0 1
328 503 100 0 0 1
364 503 100 0 0 1
364 513 100 0 0 1
144 534 0 0 0 -1
144 524 0 0 0 -1
233 524 0 0 0 -1
233 534 0 0 0 -1
144 534 100 0 0 1
144 524 100 0 0 1
233 524 100 0 0 1
233 534 100 0 0 1
648 217 0 0 0 -1
648 207 0 0 0 -1
702 207 0 0 0 -1
702 217 0 0 0 -1
648 217 100 0 0 1
648 207 100 0 0 1
702 207 100 0 0 1
702 217 100 0 0 1
568 376 0 0 0 -1
568 366 0 0 0 -1
642 366 0 0 0 -1
642 376 0 0 0 -1
568 376 100 0 0 1
568 366 100 0 0 1
642 366 100 0 0 1
642 376 100 0 0 1
4 0 1 2 3
4 4 5 6 7
4 8 9 10 11
4 12 13 14 15
4 16 17 18 19
4 20 21 22 23
4 24 25 26 27
4 28 29 30 31
4 32 33 34 35
4 36 37 38 39
4 40 41 42 43
4 44 45 46 47
4 48 49 50 51
4 52 53 54 55
4 56 57 58 59
4 60 61 62 63
4 64 65 66 67
4 68 69 70 71
4 72 73 74 75
4 76 77 78 79
4 80 81 82 83
4 84 85 86 87
4 88 89 90 91
4 92 93 94 95
4 96 97 98 99
4 100 101 102 103
4 104 105 106 107
4 108 109 110 111
4 112 113 114 115
4 116 117 118 119
4 120 121 122 123
4 124 125 126 127
4 128 129 130 131
4 132 133 134 135
4 136 137 138 139
4 140 141 142 143
4 144 145 146 147
4 148 149 150 151
4 152 153 154 155
4 156 157 158 159
4 160 161 162 163
4 164 165 166 167
4 168 169 170 171
4 172 173 174 175
4 176 177 178 179
4 180 181 182 183
4 184 185 186 187
4 188 189 190 191
4 192 193 194 195
4 196 197 198 199
4 200 201 202 203
4 204 205 206 207
4 208 209 210 211
4 212 213 214 215
4 216 217 218 219
4 220 221 222 223
4 224 225 226 227
4 228 229 230 231
4 232 233 234 235
4 236 237 238 239
4 240 241 242 243
4 244 245 246 247
4 248 249 250 251
4 252 253 254 255
4 256 257 258 259
4 260 261 262 263
4 264 265 266 267
4 268 269 270 271
4 272 273 274 275
4 276 277 278 279
4 280 281 282 283
4 284 285 286 287
4 288 289 290 291
4 292 293 294 295
4 296 297 298 299
4 300 301 302 303
4 304 305 306 307
4 308 309 310 311
4 312 313 314 315
4 316 317 318 319
4 320 321 322 323
4 324 325 326 327
4 328 329 330 331
4 332 333 334 335
4 336 337 338 339
4 340 341 342 343
4 344 345 346 347
4 348 349 350 351
4 352 353 354 355
4 356 357 358 359
4 360 361 362 363
4 364 365 366 367
4 368 369 370 371
4 372 373 374 375
4 376 377 378 379
4 380 381 382 383
4 384 385 386 387
4 388 389 390 391
4 392 393 394 395
4 396 397 398 399
4 400 401 402 403
4 404 405 406 407
4 408 409 410 411
4 412 413 414 415
4 416 417 418 419
4 420 421 422 423
4 424 425 426 427
4 428 429 430 431
4 432 433 434 435
4 436 437 438 439
4 440 441 442 443
4 444 445 446 447
4 448 449 450 451
4 452 453 454 455
4 456 457 458 459
4 460 461 462 463
