ply
format ascii 1.0
element vertex 396
property float x
property float y
property float z
property float nx
property float ny
property float nz
element quads 99
property list uchar int vertex_indices
end_header
135 398 0 1 0 0
135 324 0 1 0 0
135 324 100 1 0 0
135 398 100 1 0 0
125 398 0 -1 -0 0
125 324 0 -1 -0 0
125 324 100 -1 -0 0
125 398 100 -1 -0 0
649 148 0 1 0 0
649 32 0 1 0 0
649 32 100 1 0 0
649 148 100 1 0 0
639 148 0 -1 -0 0
639 32 0 -1 -0 0
639 32 100 -1 -0 0
639 148 100 -1 -0 0
639 32 0 -1 0 0
639 212 0 -1 0 0
639 212 100 -1 0 0
639 32 100 -1 0 0
649 32 0 1 -0 0
649 212 0 1 -0 0
649 212 100 1 -0 0
649 32 100 1 -0 0
639 32 0 -1 0 0
639 169 0 -1 0 0
639 169 100 -1 0 0
639 32 100 -1 0 0
649 32 0 1 -0 0
649 169 0 1 -0 0
649 169 100 1 -0 0
649 32 100 1 -0 0
492 36 0 -0 1 0
549 36 0 -0 1 0
549 36 100 -0 1 0
492 36 100 -0 1 0
492 26 0 0 -1 0
549 26 0 0 -1 0
549 26 100 0 -1 0
492 26 100 0 -1 0
434 493 0 1 0 0
434 428 0 1 0 0
434 428 100 1 0 0
434 493 100 1 0 0
424 483 0 -1 -0 0
424 428 0 -1 -0 0
424 428 100 -1 -0 0
424 483 100 -1 -0 0
424 483 0 -0 -1 0
361 483 0 -0 -1 0
361 483 100 -0 -1 0
424 483 100 -0 -1 0
434 493 0 0 1 0
371 493 0 0 1 0
371 493 100 0 1 0
434 493 100 0 1 0
135 238 0 1 0 0
135 32 0 1 0 0
135 32 100 1 0 0
135 238 100 1 0 0
125 238 0 -1 -0 0
125 32 0 -1 -0 0
125 32 100 -1 -0 0
125 238 100 -1 -0 0
355 37 0 1 0 0
355 0 0 1 0 0
355 0 100 1 0 0
355 37 100 1 0 0
345 37 0 -1 -0 0
345 0 0 -1 -0 0
345 0 100 -1 -0 0
345 37 100 -1 -0 0
425 383 0 1 0 0
425 326 0 1 0 0
425 326 100 1 0 0
425 383 100 1 0 0
415 383 0 -1 -0 0
415 326 0 -1 -0 0
415 326 100 -1 -0 0
415 383 100 -1 -0 0
415 326 0 -1 0 0
415 430 0 -1 0 0
415 430 100 -1 0 0
415 326 100 -1 0 0
425 326 0 1 -0 0
425 430 0 1 -0 0
425 430 100 1 -0 0
425 326 100 1 -0 0
498 30 0 1 0 0
498 0 0 1 0 0
498 0 100 1 0 0
498 30 100 1 0 0
488 30 0 -1 -0 0
488 0 0 -1 -0 0
488 0 100 -1 -0 0
488 30 100 -1 -0 0
366 433 0 -0 1 0
439 433 0 -0 1 0
439 433 100 -0 1 0
366 433 100 -0 1 0
366 423 0 0 -1 0
439 423 0 0 -1 0
439 423 100 0 -1 0
366 423 100 0 -1 0
420 359 0 1 0 0
420 329 0 1 0 0
420 329 100 1 0 0
420 359 100 1 0 0
410 359 0 -1 -0 0
410 329 0 -1 -0 0
410 329 100 -1 -0 0
410 359 100 -1 -0 0
489 173 0 -0 1 0
518 173 0 -0 1 0
518 173 100 -0 1 0
489 173 100 -0 1 0
489 163 0 0 -1 0
518 163 0 0 -1 0
518 163 100 0 -1 0
489 163 100 0 -1 0
129 513 0 -0 1 0
160 513 0 -0 1 0
160 513 100 -0 1 0
129 513 100 -0 1 0
129 503 0 0 -1 0
160 503 0 0 -1 0
160 503 100 0 -1 0
129 503 100 0 -1 0
361 483 0 -1 0 0
361 518 0 -1 0 0
361 518 100 -1 0 0
361 483 100 -1 0 0
371 493 0 1 -0 0
371 518 0 1 -0 0
371 518 100 1 -0 0
371 493 100 1 -0 0
383 518 0 1 0 0
383 489 0 1 0 0
383 489 100 1 0 0
383 518 100 1 0 0
373 518 0 -1 -0 0
373 489 0 -1 -0 0
373 489 100 -1 -0 0
373 518 100 -1 -0 0
135 398 0 133.175674438476562 393.621612548828125 0
125 398 0 133.175674438476562 393.621612548828125 0
125 398 100 133.175674438476562 393.621612548828125 0
135 398 100 133.175674438476562 393.621612548828125 0
135 324 0 133.175674438476562 318.621612548828125 0
125 324 0 133.175674438476562 318.621612548828125 0
125 324 100 133.175674438476562 318.621612548828125 0
135 324 100 133.175674438476562 318.621612548828125 0
649 148 0 643.4051513671875 147.724136352539062 0
639 148 0 643.4051513671875 147.724136352539062 0
639 148 100 643.4051513671875 147.724136352539062 0
649 148 100 643.4051513671875 147.724136352539062 0
639 212 0 635.45001220703125 211.822219848632812 0
649 212 0 635.45001220703125 211.822219848632812 0
649 212 100 635.45001220703125 211.822219848632812 0
639 212 100 635.45001220703125 211.822219848632812 0
639 169 0 634.33575439453125 168.76641845703125 0
649 169 0 634.33575439453125 168.76641845703125 0
649 169 100 634.33575439453125 168.76641845703125 0
639 169 100 634.33575439453125 168.76641845703125 0
492 36 0 482.368408203125 35.3684196472167969 0
492 26 0 482.368408203125 35.3684196472167969 0
492 26 100 482.368408203125 35.3684196472167969 0
492 36 100 482.368408203125 35.3684196472167969 0
549 36 0 540.368408203125 35.3684196472167969 0
549 26 0 540.368408203125 35.3684196472167969 0
549 26 100 540.368408203125 35.3684196472167969 0
549 36 100 540.368408203125 35.3684196472167969 0
434 428 0 427.323089599609375 420.415374755859375 0
424 428 0 427.323089599609375 420.415374755859375 0
424 428 100 427.323089599609375 420.415374755859375 0
434 428 100 427.323089599609375 420.415374755859375 0
135 238 0 134.34466552734375 237.84466552734375 0
125 238 0 134.34466552734375 237.84466552734375 0
125 238 100 134.34466552734375 237.84466552734375 0
135 238 100 134.34466552734375 237.84466552734375 0
135 32 0 134.34466552734375 30.8446598052978516 0
125 32 0 134.34466552734375 30.8446598052978516 0
125 32 100 134.34466552734375 30.8446598052978516 0
135 32 100 134.34466552734375 30.8446598052978516 0
355 37 0 345.4053955078125 37 0
345 37 0 345.4053955078125 37 0
345 37 100 345.4053955078125 37 0
355 37 100 345.4053955078125 37 0
355 0 0 345.4053955078125 -1 0
345 0 0 345.4053955078125 -1 0
345 0 100 345.4053955078125 -1 0
355 0 100 345.4053955078125 -1 0
425 383 0 417.543853759765625 377.28070068359375 0
415 383 0 417.543853759765625 377.28070068359375 0
415 383 100 417.543853759765625 377.28070068359375 0
425 383 100 417.543853759765625 377.28070068359375 0
498 30 0 481.399993896484375 30 0
488 30 0 481.399993896484375 30 0
488 30 100 481.399993896484375 30 0
498 30 100 481.399993896484375 30 0
498 0 0 481.399993896484375 -1 0
488 0 0 481.399993896484375 -1 0
488 0 100 481.399993896484375 -1 0
498 0 100 481.399993896484375 -1 0
366 433 0 359.986297607421875 427.0684814453125 0
366 423 0 359.986297607421875 427.0684814453125 0
366 423 100 359.986297607421875 427.0684814453125 0
366 433 100 359.986297607421875 427.0684814453125 0
439 433 0 433.986297607421875 427.0684814453125 0
439 423 0 433.986297607421875 427.0684814453125 0
439 423 100 433.986297607421875 427.0684814453125 0
439 433 100 433.986297607421875 427.0684814453125 0
420 359 0 406 348.0333251953125 0
410 359 0 406 348.0333251953125 0
410 359 100 406 348.0333251953125 0
420 359 100 406 348.0333251953125 0
420 329 0 406 317.0333251953125 0
410 329 0 406 317.0333251953125 0
410 329 100 406 317.0333251953125 0
420 329 100 406 317.0333251953125 0
489 173 0 471.137939453125 167.03448486328125 0
489 163 0 471.137939453125 167.03448486328125 0
489 163 100 471.137939453125 167.03448486328125 0
489 173 100 471.137939453125 167.03448486328125 0
518 173 0 501.137939453125 167.03448486328125 0
518 163 0 501.137939453125 167.03448486328125 0
518 163 100 501.137939453125 167.03448486328125 0
518 173 100 501.137939453125 167.03448486328125 0
129 513 0 123.838706970214844 496.45159912109375 0
129 503 0 123.838706970214844 496.45159912109375 0
129 503 100 123.838706970214844 496.45159912109375 0
129 513 100 123.838706970214844 496.45159912109375 0
160 513 0 155.838714599609375 496.45159912109375 0
160 503 0 155.838714599609375 496.45159912109375 0
160 503 100 155.838714599609375 496.45159912109375 0
160 513 100 155.838714599609375 496.45159912109375 0
415 430 0 411.009613037109375 426.865386962890625 0
425 430 0 411.009613037109375 426.865386962890625 0
425 430 100 411.009613037109375 426.865386962890625 0
415 430 100 411.009613037109375 426.865386962890625 0
383 518 0 369.7930908203125 501.137939453125 0
373 518 0 369.7930908203125 501.137939453125 0
373 518 100 369.7930908203125 501.137939453125 0
383 518 100 369.7930908203125 501.137939453125 0
383 489 0 369.7930908203125 471.137939453125 0
373 489 0 369.7930908203125 471.137939453125 0
373 489 100 369.7930908203125 471.137939453125 0
383 489 100 369.7930908203125 471.137939453125 0
361 518 0 350.685699462890625 504.20001220703125 0
371 518 0 350.685699462890625 504.20001220703125 0
371 518 100 350.685699462890625 504.20001220703125 0
361 518 100 350.685699462890625 504.20001220703125 0
135 398 0 0 0 -1
125 398 0 0 0 -1
125 324 0 0 0 -1
135 324 0 0 0 -1
135 398 100 0 0 1
125 398 100 0 0 1
125 324 100 0 0 1
135 324 100 0 0 1
649 148 0 0 0 -1
639 148 0 0 0 -1
639 32 0 0 0 -1
649 32 0 0 0 -1
649 148 100 0 0 1
639 148 100 0 0 1
639 32 100 0 0 1
649 32 100 0 0 1
639 32 0 0 0 -1
649 32 0 0 0 -1
649 212 0 0 0 -1
639 212 0 0 0 -1
639 32 100 0 0 1
649 32 100 0 0 1
649 212 100 0 0 1
639 212 100 0 0 1
639 32 0 0 0 -1
649 32 0 0 0 -1
649 169 0 0 0 -1
639 169 0 0 0 -1
639 32 100 0 0 1
649 32 100 0 0 1
649 169 100 0 0 1
639 169 100 0 0 1
492 36 0 0 0 -1
492 26 0 0 0 -1
549 26 0 0 0 -1
549 36 0 0 0 -1
492 36 100 0 0 1
492 26 100 0 0 1
549 26 100 0 0 1
549 36 100 0 0 1
434 493 0 0 0 -1
424 483 0 0 0 -1
424 428 0 0 0 -1
434 428 0 0 0 -1
434 493 100 0 0 1
424 483 100 0 0 1
424 428 100 0 0 1
434 428 100 0 0 1
424 483 0 0 0 -1
434 493 0 0 0 -1
371 493 0 0 0 -1
361 483 0 0 0 -1
424 483 100 0 0 1
434 493 100 0 0 1
371 493 100 0 0 1
361 483 100 0 0 1
135 238 0 0 0 -1
125 238 0 0 0 -1
125 32 0 0 0 -1
135 32 0 0 0 -1
135 238 100 0 0 1
125 238 100 0 0 1
125 32 100 0 0 1
135 32 100 0 0 1
355 37 0 0 0 -1
345 37 0 0 0 -1
345 0 0 0 0 -1
355 0 0 0 0 -1
355 37 100 0 0 1
345 37 100 0 0 1
345 0 100 0 0 1
355 0 100 0 0 1
425 383 0 0 0 -1
415 383 0 0 0 -1
415 326 0 0 0 -1
425 326 0 0 0 -1
425 383 100 0 0 1
415 383 100 0 0 1
415 326 100 0 0 1
425 326 100 0 0 1
415 326 0 0 0 -1
425 326 0 0 0 -1
425 430 0 0 0 -1
415 430 0 0 0 -1
415 326 100 0 0 1
425 326 100 0 0 1
425 430 100 0 0 1
415 430 100 0 0 1
498 30 0 0 0 -1
488 30 0 0 0 -1
488 0 0 0 0 -1
498 0 0 0 0 -1
498 30 100 0 0 1
488 30 100 0 0 1
488 0 100 0 0 1
498 0 100 0 0 1
366 433 0 0 0 -1
366 423 0 0 0 -1
439 423 0 0 0 -1
439 433 0 0 0 -1
366 433 100 0 0 1
366 423 100 0 0 1
439 423 100 0 0 1
439 433 100 0 0 1
420 359 0 0 0 -1
410 359 0 0 0 -1
410 329 0 0 0 -1
420 329 0 0 0 -1
420 359 100 0 0 1
410 359 100 0 0 1
410 329 100 0 0 1
420 329 100 0 0 1
489 173 0 0 0 -1
489 163 0 0 0 -1
518 163 0 0 0 -1
518 173 0 0 0 -1
489 173 100 0 0 1
489 163 100 0 0 1
518 163 100 0 0 1
518 173 100 0 0 1
129 513 0 0 0 -1
129 503 0 0 0 -1
160 503 0 0 0 -1
160 513 0 0 0 -1
129 513 100 0 0 1
129 503 100 0 0 1
160 503 100 0 0 1
160 513 100 0 0 1
361 483 0 0 0 -1
371 493 0 0 0 -1
371 518 0 0 0 -1
361 518 0 0 0 -1
361 483 100 0 0 1
371 493 100 0 0 1
371 518 100 0 0 1
361 518 100 0 0 1
383 518 0 0 0 -1
373 518 0 0 0 -1
373 489 0 0 0 -1
383 489 0 0 0 -1
383 518 100 0 0 1
373 518 100 0 0 1
373 489 100 0 0 1
383 489 100 0 0 1
4 0 1 2 3
4 4 5 6 7
4 8 9 10 11
4 12 13 14 15
4 16 17 18 19
4 20 21 22 23
4 24 25 26 27
4 28 29 30 31
4 32 33 34 35
4 36 37 38 39
4 40 41 42 43
4 44 45 46 47
4 48 49 50 51
4 52 53 54 55
4 56 57 58 59
4 60 61 62 63
4 64 65 66 67
4 68 69 70 71
4 72 73 74 75
4 76 77 78 79
4 80 81 82 83
4 84 85 86 87
4 88 89 90 91
4 92 93 94 95
4 96 97 98 99
4 100 101 102 103
4 104 105 106 107
4 108 109 110 111
4 112 113 114 115
4 116 117 118 119
4 120 121 122 123
4 124 125 126 127
4 128 129 130 131
4 132 133 134 135
4 136 137 138 139
4 140 141 142 143
4 144 145 146 147
4 148 149 150 151
4 152 153 154 155
4 156 157 158 159
4 160 161 162 163
4 164 165 166 167
4 168 169 170 171
4 172 173 174 175
4 176 177 178 179
4 180 181 182 183
4 184 185 186 187
4 188 189 190 191
4 192 193 194 195
4 196 197 198 199
4 200 201 202 203
4 204 205 206 207
4 208 209 210 211
4 212 213 214 215
4 216 217 218 219
4 220 221 222 223
4 224 225 226 227
4 228 229 230 231
4 232 233 234 235
4 236 237 238 239
4 240 241 242 243
4 244 245 246 247
4 248 249 250 251
4 252 253 254 255
4 256 257 258 259
4 260 261 262 263
4 264 265 266 267
4 268 269 270 271
4 272 273 274 275
4 276 277 278 279
4 280 281 282 283
4 284 285 286 287
4 288 289 290 291
4 292 293 294 295
4 296 297 298 299
4 300 301 302 303
4 304 305 306 307
4 308 309 310 311
4 312 313 314 315
4 316 317 318 319
4 320 321 322 323
4 324 325 326 327
4 328 329 330 331
4 332 333 334 335
4 336 337 338 339
4 340 341 342 343
4 344 345 346 347
4 348 349 350 351
4 352 353 354 355
4 356 357 358 359
4 360 361 362 363
4 364 365 366 367
4 368 369 370 371
4 372 373 374 375
4 376 377 378 379
4 380 381 382 383
4 384 385 386 387
4 388 389 390 391
4 392 393 394 395
