ply
format ascii 1.0
element vertex 844
property float x
property float y
property float z
property float nx
property float ny
property float nz
element quads 209
property list uchar int vertex_indices
end_header
711 203 0 1 0 0
711 22 0 1 0 0
711 22 100 1 0 0
711 203 100 1 0 0
701 203 0 -1 -0 0
701 27 0 -1 -0 0
701 27 100 -1 -0 0
701 203 100 -1 -0 0
701 32 0 -1 0 0
701 86 0 -1 0 0
701 86 100 -1 0 0
701 32 100 -1 0 0
711 27 0 1 -0 0
711 86 0 1 -0 0
711 86 100 1 -0 0
711 27 100 1 -0 0
711 22 0 -0 -1 0
615 22 0 -0 -1 0
615 22 100 -0 -1 0
711 22 100 -0 -1 0
701 32 0 0 1 0
615 32 0 0 1 0
615 32 100 0 1 0
701 32 100 0 1 0
712 494 0 1 0 0
712 427 0 1 0 0
712 427 100 1 0 0
712 494 100 1 0 0
702 494 0 -1 -0 0
702 427 0 -1 -0 0
702 427 100 -1 -0 0
702 494 100 -1 -0 0
712 494 0 1 0 0
712 308 0 1 0 0
712 308 100 1 0 0
712 494 100 1 0 0
702 494 0 -1 -0 0
702 308 0 -1 -0 0
702 308 100 -1 -0 0
702 494 100 -1 -0 0
100 313 0 -0 1 0
417 313 0 -0 1 0
417 313 100 -0 1 0
100 313 100 -0 1 0
100 303 0 0 -1 0
422 303 0 0 -1 0
422 303 100 0 -1 0
100 303 100 0 -1 0
422 303 0 -0 -1 0
156 303 0 -0 -1 0
156 303 100 -0 -1 0
422 303 100 -0 -1 0
422 313 0 0 1 0
156 313 0 0 1 0
156 313 100 0 1 0
422 313 100 0 1 0
427 303 0 -0 -1 0
281 303 0 -0 -1 0
281 303 100 -0 -1 0
427 303 100 -0 -1 0
422 313 0 0 1 0
281 313 0 0 1 0
281 313 100 0 1 0
422 313 100 0 1 0
417 313 0 -1 0 0
417 392 0 -1 0 0
417 392 100 -1 0 0
417 313 100 -1 0 0
427 303 0 1 -0 0
427 392 0 1 -0 0
427 392 100 1 -0 0
427 303 100 1 -0 0
287 140 0 -0 1 0
397 140 0 -0 1 0
397 140 100 -0 1 0
287 140 100 -0 1 0
287 130 0 0 -1 0
397 130 0 0 -1 0
397 130 100 0 -1 0
287 130 100 0 -1 0
427 531 0 1 0 0
427 224 0 1 0 0
427 224 100 1 0 0
427 531 100 1 0 0
417 531 0 -1 -0 0
417 224 0 -1 -0 0
417 224 100 -1 -0 0
417 531 100 -1 -0 0
702 308 0 -1 0 0
702 378 0 -1 0 0
702 378 100 -1 0 0
702 308 100 -1 0 0
712 308 0 1 -0 0
712 378 0 1 -0 0
712 378 100 1 -0 0
712 308 100 1 -0 0
553 194 0 1 0 0
553 26 0 1 0 0
553 26 100 1 0 0
553 194 100 1 0 0
543 194 0 -1 -0 0
543 26 0 -1 -0 0
543 26 100 -1 -0 0
543 194 100 -1 -0 0
543 26 0 -1 0 0
543 48 0 -1 0 0
543 48 100 -1 0 0
543 26 100 -1 0 0
553 26 0 1 -0 0
553 48 0 1 -0 0
553 48 100 1 -0 0
553 26 100 1 -0 0
344 193 0 -0 1 0
549 193 0 -0 1 0
549 193 100 -0 1 0
344 193 100 -0 1 0
344 183 0 0 -1 0
549 183 0 0 -1 0
549 183 100 0 -1 0
344 183 100 0 -1 0
167 224 0 1 0 0
167 140 0 1 0 0
167 140 100 1 0 0
167 224 100 1 0 0
157 224 0 -1 -0 0
157 140 0 -1 -0 0
157 140 100 -1 -0 0
157 224 100 -1 -0 0
548 499 0 -0 1 0
589 499 0 -0 1 0
589 499 100 -0 1 0
548 499 100 -0 1 0
548 489 0 0 -1 0
589 489 0 0 -1 0
589 489 100 0 -1 0
548 489 100 0 -1 0
325 191 0 -0 1 0
398 191 0 -0 1 0
398 191 100 -0 1 0
325 191 100 -0 1 0
325 181 0 0 -1 0
398 181 0 0 -1 0
398 181 100 0 -1 0
325 181 100 0 -1 0
167 110 0 1 0 0
167 46 0 1 0 0
167 46 100 1 0 0
167 110 100 1 0 0
157 110 0 -1 -0 0
157 46 0 -1 -0 0
157 46 100 -1 -0 0
157 110 100 -1 -0 0
736 229 0 1 0 0
736 200 0 1 0 0
736 200 100 1 0 0
736 229 100 1 0 0
726 229 0 -1 -0 0
726 200 0 -1 -0 0
726 200 100 -1 -0 0
726 229 100 -1 -0 0
578 308 0 1 0 0
578 249 0 1 0 0
578 249 100 1 0 0
578 308 100 1 0 0
568 308 0 -1 -0 0
568 249 0 -1 -0 0
568 249 100 -1 -0 0
568 308 100 -1 -0 0
368 306 0 1 0 0
368 223 0 1 0 0
368 223 100 1 0 0
368 306 100 1 0 0
358 306 0 -1 -0 0
358 223 0 -1 -0 0
358 223 100 -1 -0 0
358 306 100 -1 -0 0
428 395 0 -0 1 0
546 395 0 -0 1 0
546 395 100 -0 1 0
428 395 100 -0 1 0
428 385 0 0 -1 0
546 385 0 0 -1 0
546 385 100 0 -1 0
428 385 100 0 -1 0
428 395 0 -0 1 0
480 395 0 -0 1 0
480 395 100 -0 1 0
428 395 100 -0 1 0
428 385 0 0 -1 0
480 385 0 0 -1 0
480 385 100 0 -1 0
428 385 100 0 -1 0
546 385 0 -0 -1 0
525 385 0 -0 -1 0
525 385 100 -0 -1 0
546 385 100 -0 -1 0
546 395 0 0 1 0
525 395 0 0 1 0
525 395 100 0 1 0
546 395 100 0 1 0
162 52 0 -0 1 0
199 52 0 -0 1 0
199 52 100 -0 1 0
162 52 100 -0 1 0
162 42 0 0 -1 0
199 42 0 0 -1 0
199 42 100 0 -1 0
162 42 100 0 -1 0
426 327 0 -0 1 0
478 327 0 -0 1 0
478 327 100 -0 1 0
426 327 100 -0 1 0
426 317 0 0 -1 0
478 317 0 0 -1 0
478 317 100 0 -1 0
426 317 100 0 -1 0
292 148 0 1 0 0
292 46 0 1 0 0
292 46 100 1 0 0
292 148 100 1 0 0
282 148 0 -1 -0 0
282 46 0 -1 -0 0
282 46 100 -1 -0 0
282 148 100 -1 -0 0
401 81 0 1 0 0
401 26 0 1 0 0
401 26 100 1 0 0
401 81 100 1 0 0
391 81 0 -1 -0 0
391 26 0 -1 -0 0
391 26 100 -1 -0 0
391 81 100 -1 -0 0
391 26 0 -1 0 0
391 186 0 -1 0 0
391 186 100 -1 0 0
391 26 100 -1 0 0
401 26 0 1 -0 0
401 186 0 1 -0 0
401 186 100 1 -0 0
401 26 100 1 -0 0
482 322 0 1 0 0
482 262 0 1 0 0
482 262 100 1 0 0
482 322 100 1 0 0
472 322 0 -1 -0 0
472 262 0 -1 -0 0
472 262 100 -1 -0 0
472 322 100 -1 -0 0
287 52 0 -0 1 0
397 52 0 -0 1 0
397 52 100 -0 1 0
287 52 100 -0 1 0
287 42 0 0 -1 0
397 42 0 0 -1 0
397 42 100 0 -1 0
287 42 100 0 -1 0
693 314 0 -0 1 0
731 314 0 -0 1 0
731 314 100 -0 1 0
693 314 100 -0 1 0
693 304 0 0 -1 0
731 304 0 0 -1 0
731 304 100 0 -1 0
693 304 100 0 -1 0
292 83 0 1 0 0
292 51 0 1 0 0
292 51 100 1 0 0
292 83 100 1 0 0
282 83 0 -1 -0 0
282 51 0 -1 -0 0
282 51 100 -1 -0 0
282 83 100 -1 -0 0
105 514 0 1 0 0
105 309 0 1 0 0
105 309 100 1 0 0
105 514 100 1 0 0
95 514 0 -1 -0 0
95 309 0 -1 -0 0
95 309 100 -1 -0 0
95 514 100 -1 -0 0
730 432 0 1 0 0
730 374 0 1 0 0
730 374 100 1 0 0
730 432 100 1 0 0
720 432 0 -1 -0 0
720 374 0 -1 -0 0
720 374 100 -1 -0 0
720 432 100 -1 -0 0
163 193 0 -0 1 0
259 193 0 -0 1 0
259 193 100 -0 1 0
163 193 100 -0 1 0
163 183 0 0 -1 0
259 183 0 0 -1 0
259 183 100 0 -1 0
163 183 100 0 -1 0
731 310 0 1 0 0
731 282 0 1 0 0
731 282 100 1 0 0
731 310 100 1 0 0
721 310 0 -1 -0 0
721 282 0 -1 -0 0
721 282 100 -1 -0 0
721 310 100 -1 -0 0
711 203 0 707.07183837890625 202.878448486328125 0
701 203 0 707.07183837890625 202.878448486328125 0
701 203 100 707.07183837890625 202.878448486328125 0
711 203 100 707.07183837890625 202.878448486328125 0
712 427 0 701.37310791015625 419.626861572265625 0
702 427 0 701.37310791015625 419.626861572265625 0
702 427 100 701.37310791015625 419.626861572265625 0
712 427 100 701.37310791015625 419.626861572265625 0
100 313 0 98.684539794921875 312.012603759765625 0
100 303 0 98.684539794921875 312.012603759765625 0
100 303 100 98.684539794921875 312.012603759765625 0
100 313 100 98.684539794921875 312.012603759765625 0
287 140 0 283.390899658203125 138.727279663085938 0
287 130 0 283.390899658203125 138.727279663085938 0
287 130 100 283.390899658203125 138.727279663085938 0
287 140 100 283.390899658203125 138.727279663085938 0
397 140 0 394.390899658203125 138.727279663085938 0
397 130 0 394.390899658203125 138.727279663085938 0
397 130 100 394.390899658203125 138.727279663085938 0
397 140 100 394.390899658203125 138.727279663085938 0
156 303 0 154.413528442382812 301.86090087890625 0
156 313 0 154.413528442382812 301.86090087890625 0
156 313 100 154.413528442382812 301.86090087890625 0
156 303 100 154.413528442382812 301.86090087890625 0
427 531 0 425.609130859375 530.2703857421875 0
417 531 0 425.609130859375 530.2703857421875 0
417 531 100 425.609130859375 530.2703857421875 0
427 531 100 425.609130859375 530.2703857421875 0
427 224 0 425.609130859375 222.270355224609375 0
417 224 0 425.609130859375 222.270355224609375 0
417 224 100 425.609130859375 222.270355224609375 0
427 224 100 425.609130859375 222.270355224609375 0
553 194 0 549.70831298828125 193.845245361328125 0
543 194 0 549.70831298828125 193.845245361328125 0
543 194 100 549.70831298828125 193.845245361328125 0
553 194 100 549.70831298828125 193.845245361328125 0
344 193 0 341.32196044921875 192.05853271484375 0
344 183 0 341.32196044921875 192.05853271484375 0
344 183 100 341.32196044921875 192.05853271484375 0
344 193 100 341.32196044921875 192.05853271484375 0
549 193 0 547.32196044921875 192.05853271484375 0
549 183 0 547.32196044921875 192.05853271484375 0
549 183 100 547.32196044921875 192.05853271484375 0
549 193 100 547.32196044921875 192.05853271484375 0
167 224 0 165.01190185546875 222.333328247070312 0
157 224 0 165.01190185546875 222.333328247070312 0
157 224 100 165.01190185546875 222.333328247070312 0
167 224 100 165.01190185546875 222.333328247070312 0
167 140 0 165.01190185546875 137.333328247070312 0
157 140 0 165.01190185546875 137.333328247070312 0
157 140 100 165.01190185546875 137.333328247070312 0
167 140 100 165.01190185546875 137.333328247070312 0
281 303 0 278.075347900390625 300.924652099609375 0
281 313 0 278.075347900390625 300.924652099609375 0
281 313 100 278.075347900390625 300.924652099609375 0
281 303 100 278.075347900390625 300.924652099609375 0
548 499 0 533.6341552734375 486.829254150390625 0
548 489 0 533.6341552734375 486.829254150390625 0
548 489 100 533.6341552734375 486.829254150390625 0
548 499 100 533.6341552734375 486.829254150390625 0
589 499 0 575.6341552734375 486.829254150390625 0
589 489 0 575.6341552734375 486.829254150390625 0
589 489 100 575.6341552734375 486.829254150390625 0
589 499 100 575.6341552734375 486.829254150390625 0
325 191 0 319.547943115234375 188.383560180664062 0
325 181 0 319.547943115234375 188.383560180664062 0
325 181 100 319.547943115234375 188.383560180664062 0
325 191 100 319.547943115234375 188.383560180664062 0
398 191 0 393.547943115234375 188.383560180664062 0
398 181 0 393.547943115234375 188.383560180664062 0
398 181 100 393.547943115234375 188.383560180664062 0
398 191 100 393.547943115234375 188.383560180664062 0
167 110 0 164.390625 109.28125 0
157 110 0 164.390625 109.28125 0
157 110 100 164.390625 109.28125 0
167 110 100 164.390625 109.28125 0
167 46 0 164.390625 44.28125 0
157 46 0 164.390625 44.28125 0
157 46 100 164.390625 44.28125 0
167 46 100 164.390625 44.28125 0
736 229 0 710.62066650390625 222.10345458984375 0
726 229 0 710.62066650390625 222.10345458984375 0
726 229 100 710.62066650390625 222.10345458984375 0
736 229 100 710.62066650390625 222.10345458984375 0
736 200 0 710.62066650390625 192.10345458984375 0
726 200 0 710.62066650390625 192.10345458984375 0
726 200 100 710.62066650390625 192.10345458984375 0
736 200 100 710.62066650390625 192.10345458984375 0
702 378 0 691.971435546875 373.600006103515625 0
712 378 0 691.971435546875 373.600006103515625 0
712 378 100 691.971435546875 373.600006103515625 0
702 378 100 691.971435546875 373.600006103515625 0
578 308 0 568.203369140625 303.7796630859375 0
568 308 0 568.203369140625 303.7796630859375 0
568 308 100 568.203369140625 303.7796630859375 0
578 308 100 568.203369140625 303.7796630859375 0
578 249 0 568.203369140625 243.7796630859375 0
568 249 0 568.203369140625 243.7796630859375 0
568 249 100 568.203369140625 243.7796630859375 0
578 249 100 568.203369140625 243.7796630859375 0
701 86 0 688.01849365234375 85.40740966796875 0
711 86 0 688.01849365234375 85.40740966796875 0
711 86 100 688.01849365234375 85.40740966796875 0
701 86 100 688.01849365234375 85.40740966796875 0
368 306 0 363.566253662109375 303.313262939453125 0
358 306 0 363.566253662109375 303.313262939453125 0
358 306 100 363.566253662109375 303.313262939453125 0
368 306 100 363.566253662109375 303.313262939453125 0
368 223 0 363.566253662109375 219.313247680664062 0
358 223 0 363.566253662109375 219.313247680664062 0
358 223 100 363.566253662109375 219.313247680664062 0
368 223 100 363.566253662109375 219.313247680664062 0
417 392 0 411.721527099609375 388.0379638671875 0
427 392 0 411.721527099609375 388.0379638671875 0
427 392 100 411.721527099609375 388.0379638671875 0
417 392 100 411.721527099609375 388.0379638671875 0
162 52 0 156.621627807617188 50.5945930480957031 0
162 42 0 156.621627807617188 50.5945930480957031 0
162 42 100 156.621627807617188 50.5945930480957031 0
162 52 100 156.621627807617188 50.5945930480957031 0
199 52 0 194.621627807617188 50.5945930480957031 0
199 42 0 194.621627807617188 50.5945930480957031 0
199 42 100 194.621627807617188 50.5945930480957031 0
199 52 100 194.621627807617188 50.5945930480957031 0
426 327 0 416.80767822265625 320.7115478515625 0
426 317 0 416.80767822265625 320.7115478515625 0
426 317 100 416.80767822265625 320.7115478515625 0
426 327 100 416.80767822265625 320.7115478515625 0
478 327 0 469.80767822265625 320.7115478515625 0
478 317 0 469.80767822265625 320.7115478515625 0
478 317 100 469.80767822265625 320.7115478515625 0
478 327 100 469.80767822265625 320.7115478515625 0
292 148 0 289.13726806640625 147.549026489257812 0
282 148 0 289.13726806640625 147.549026489257812 0
282 148 100 289.13726806640625 147.549026489257812 0
292 148 100 289.13726806640625 147.549026489257812 0
292 46 0 289.13726806640625 44.5490188598632812 0
282 46 0 289.13726806640625 44.5490188598632812 0
282 46 100 289.13726806640625 44.5490188598632812 0
292 46 100 289.13726806640625 44.5490188598632812 0
401 81 0 393.709075927734375 80.5272750854492188 0
391 81 0 393.709075927734375 80.5272750854492188 0
391 81 100 393.709075927734375 80.5272750854492188 0
401 81 100 393.709075927734375 80.5272750854492188 0
615 22 0 607.59375 21.7708339691162109 0
615 32 0 607.59375 21.7708339691162109 0
615 32 100 607.59375 21.7708339691162109 0
615 22 100 607.59375 21.7708339691162109 0
525 385 0 499 366.666656494140625 0
525 395 0 499 366.666656494140625 0
525 395 100 499 366.666656494140625 0
525 385 100 499 366.666656494140625 0
482 322 0 473.9666748046875 317.633331298828125 0
472 322 0 473.9666748046875 317.633331298828125 0
472 322 100 473.9666748046875 317.633331298828125 0
482 322 100 473.9666748046875 317.633331298828125 0
482 262 0 473.9666748046875 256.633331298828125 0
472 262 0 473.9666748046875 256.633331298828125 0
472 262 100 473.9666748046875 256.633331298828125 0
482 262 100 473.9666748046875 256.633331298828125 0
287 52 0 283.390899658203125 51.5272712707519531 0
287 42 0 283.390899658203125 51.5272712707519531 0
287 42 100 283.390899658203125 51.5272712707519531 0
287 52 100 283.390899658203125 51.5272712707519531 0
397 52 0 394.390899658203125 51.5272712707519531 0
397 42 0 394.390899658203125 51.5272712707519531 0
397 42 100 394.390899658203125 51.5272712707519531 0
397 52 100 394.390899658203125 51.5272712707519531 0
480 395 0 471.76922607421875 387.403839111328125 0
480 385 0 471.76922607421875 387.403839111328125 0
480 385 100 471.76922607421875 387.403839111328125 0
480 395 100 471.76922607421875 387.403839111328125 0
543 48 0 518.31817626953125 46.8181800842285156 0
553 48 0 518.31817626953125 46.8181800842285156 0
553 48 100 518.31817626953125 46.8181800842285156 0
543 48 100 518.31817626953125 46.8181800842285156 0
693 314 0 673.76318359375 305.736846923828125 0
693 304 0 673.76318359375 305.736846923828125 0
693 304 100 673.76318359375 305.736846923828125 0
693 314 100 673.76318359375 305.736846923828125 0
731 314 0 712.76318359375 305.736846923828125 0
731 304 0 712.76318359375 305.736846923828125 0
731 304 100 712.76318359375 305.736846923828125 0
731 314 100 712.76318359375 305.736846923828125 0
292 83 0 282.875 81.40625 0
282 83 0 282.875 81.40625 0
282 83 100 282.875 81.40625 0
292 83 100 282.875 81.40625 0
292 51 0 282.875 48.40625 0
282 51 0 282.875 48.40625 0
282 51 100 282.875 48.40625 0
292 51 100 282.875 48.40625 0
105 514 0 104.487808227539062 512.49267578125 0
95 514 0 104.487808227539062 512.49267578125 0
95 514 100 104.487808227539062 512.49267578125 0
105 514 100 104.487808227539062 512.49267578125 0
105 309 0 104.487808227539062 306.49267578125 0
95 309 0 104.487808227539062 306.49267578125 0
95 309 100 104.487808227539062 306.49267578125 0
105 309 100 104.487808227539062 306.49267578125 0
391 186 0 388.556243896484375 185.837493896484375 0
401 186 0 388.556243896484375 185.837493896484375 0
401 186 100 388.556243896484375 185.837493896484375 0
391 186 100 388.556243896484375 185.837493896484375 0
730 432 0 717.413818359375 425.551727294921875 0
720 432 0 717.413818359375 425.551727294921875 0
720 432 100 717.413818359375 425.551727294921875 0
730 432 100 717.413818359375 425.551727294921875 0
730 374 0 717.413818359375 366.551727294921875 0
720 374 0 717.413818359375 366.551727294921875 0
720 374 100 717.413818359375 366.551727294921875 0
730 374 100 717.413818359375 366.551727294921875 0
163 193 0 160.302078247070312 190.989578247070312 0
163 183 0 160.302078247070312 190.989578247070312 0
163 183 100 160.302078247070312 190.989578247070312 0
163 193 100 160.302078247070312 190.989578247070312 0
259 193 0 257.302093505859375 190.989578247070312 0
259 183 0 257.302093505859375 190.989578247070312 0
259 183 100 257.302093505859375 190.989578247070312 0
259 193 100 257.302093505859375 190.989578247070312 0
731 310 0 704.89288330078125 299.928558349609375 0
721 310 0 704.89288330078125 299.928558349609375 0
721 310 100 704.89288330078125 299.928558349609375 0
731 310 100 704.89288330078125 299.928558349609375 0
731 282 0 704.89288330078125 270.928558349609375 0
721 282 0 704.89288330078125 270.928558349609375 0
721 282 100 704.89288330078125 270.928558349609375 0
731 282 100 704.89288330078125 270.928558349609375 0
711 203 0 0 0 -1
701 203 0 0 0 -1
701 27 0 0 0 -1
711 22 0 0 0 -1
711 203 100 0 0 1
701 203 100 0 0 1
701 27 100 0 0 1
711 22 100 0 0 1
701 32 0 0 0 -1
711 27 0 0 0 -1
711 86 0 0 0 -1
701 86 0 0 0 -1
701 32 100 0 0 1
711 27 100 0 0 1
711 86 100 0 0 1
701 86 100 0 0 1
711 22 0 0 0 -1
701 32 0 0 0 -1
615 32 0 0 0 -1
615 22 0 0 0 -1
711 22 100 0 0 1
701 32 100 0 0 1
615 32 100 0 0 1
615 22 100 0 0 1
712 494 0 0 0 -1
702 494 0 0 0 -1
702 427 0 0 0 -1
712 427 0 0 0 -1
712 494 100 0 0 1
702 494 100 0 0 1
702 427 100 0 0 1
712 427 100 0 0 1
712 494 0 0 0 -1
702 494 0 0 0 -1
702 308 0 0 0 -1
712 308 0 0 0 -1
712 494 100 0 0 1
702 494 100 0 0 1
702 308 100 0 0 1
712 308 100 0 0 1
100 313 0 0 0 -1
100 303 0 0 0 -1
422 303 0 0 0 -1
417 313 0 0 0 -1
100 313 100 0 0 1
100 303 100 0 0 1
422 303 100 0 0 1
417 313 100 0 0 1
422 303 0 0 0 -1
422 313 0 0 0 -1
156 313 0 0 0 -1
156 303 0 0 0 -1
422 303 100 0 0 1
422 313 100 0 0 1
156 313 100 0 0 1
156 303 100 0 0 1
427 303 0 0 0 -1
422 313 0 0 0 -1
281 313 0 0 0 -1
281 303 0 0 0 -1
427 303 100 0 0 1
422 313 100 0 0 1
281 313 100 0 0 1
281 303 100 0 0 1
417 313 0 0 0 -1
427 303 0 0 0 -1
427 392 0 0 0 -1
417 392 0 0 0 -1
417 313 100 0 0 1
427 303 100 0 0 1
427 392 100 0 0 1
417 392 100 0 0 1
287 140 0 0 0 -1
287 130 0 0 0 -1
397 130 0 0 0 -1
397 140 0 0 0 -1
287 140 100 0 0 1
287 130 100 0 0 1
397 130 100 0 0 1
397 140 100 0 0 1
427 531 0 0 0 -1
417 531 0 0 0 -1
417 224 0 0 0 -1
427 224 0 0 0 -1
427 531 100 0 0 1
417 531 100 0 0 1
417 224 100 0 0 1
427 224 100 0 0 1
702 308 0 0 0 -1
712 308 0 0 0 -1
712 378 0 0 0 -1
702 378 0 0 0 -1
702 308 100 0 0 1
712 308 100 0 0 1
712 378 100 0 0 1
702 378 100 0 0 1
553 194 0 0 0 -1
543 194 0 0 0 -1
543 26 0 0 0 -1
553 26 0 0 0 -1
553 194 100 0 0 1
543 194 100 0 0 1
543 26 100 0 0 1
553 26 100 0 0 1
543 26 0 0 0 -1
553 26 0 0 0 -1
553 48 0 0 0 -1
543 48 0 0 0 -1
543 26 100 0 0 1
553 26 100 0 0 1
553 48 100 0 0 1
543 48 100 0 0 1
344 193 0 0 0 -1
344 183 0 0 0 -1
549 183 0 0 0 -1
549 193 0 0 0 -1
344 193 100 0 0 1
344 183 100 0 0 1
549 183 100 0 0 1
549 193 100 0 0 1
167 224 0 0 0 -1
157 224 0 0 0 -1
157 140 0 0 0 -1
167 140 0 0 0 -1
167 224 100 0 0 1
157 224 100 0 0 1
157 140 100 0 0 1
167 140 100 0 0 1
548 499 0 0 0 -1
548 489 0 0 0 -1
589 489 0 0 0 -1
589 499 0 0 0 -1
548 499 100 0 0 1
548 489 100 0 0 1
589 489 100 0 0 1
589 499 100 0 0 1
325 191 0 0 0 -1
325 181 0 0 0 -1
398 181 0 0 0 -1
398 191 0 0 0 -1
325 191 100 0 0 1
325 181 100 0 0 1
398 181 100 0 0 1
398 191 100 0 0 1
167 110 0 0 0 -1
157 110 0 0 0 -1
157 46 0 0 0 -1
167 46 0 0 0 -1
167 110 100 0 0 1
157 110 100 0 0 1
157 46 100 0 0 1
167 46 100 0 0 1
736 229 0 0 0 -1
726 229 0 0 0 -1
726 200 0 0 0 -1
736 200 0 0 0 -1
736 229 100 0 0 1
726 229 100 0 0 1
726 200 100 0 0 1
736 200 100 0 0 1
578 308 0 0 0 -1
568 308 0 0 0 -1
568 249 0 0 0 -1
578 249 0 0 0 -1
578 308 100 0 0 1
568 308 100 0 0 1
568 249 100 0 0 1
578 249 100 0 0 1
368 306 0 0 0 -1
358 306 0 0 0 -1
358 223 0 0 0 -1
368 223 0 0 0 -1
368 306 100 0 0 1
358 306 100 0 0 1
358 223 100 0 0 1
368 223 100 0 0 1
428 395 0 0 0 -1
428 385 0 0 0 -1
546 385 0 0 0 -1
546 395 0 0 0 -1
428 395 100 0 0 1
428 385 100 0 0 1
546 385 100 0 0 1
546 395 100 0 0 1
428 395 0 0 0 -1
428 385 0 0 0 -1
480 385 0 0 0 -1
480 395 0 0 0 -1
428 395 100 0 0 1
428 385 100 0 0 1
480 385 100 0 0 1
480 395 100 0 0 1
546 385 0 0 0 -1
546 395 0 0 0 -1
525 395 0 0 0 -1
525 385 0 0 0 -1
546 385 100 0 0 1
546 395 100 0 0 1
525 395 100 0 0 1
525 385 100 0 0 1
162 52 0 0 0 -1
162 42 0 0 0 -1
199 42 0 0 0 -1
199 52 0 0 0 -1
162 52 100 0 0 1
162 42 100 0 0 1
199 42 100 0 0 1
199 52 100 0 0 1
426 327 0 0 0 -1
426 317 0 0 0 -1
478 317 0 0 0 -1
478 327 0 0 0 -1
426 327 100 0 0 1
426 317 100 0 0 1
478 317 100 0 0 1
478 327 100 0 0 1
292 148 0 0 0 -1
282 148 0 0 0 -1
282 46 0 0 0 -1
292 46 0 0 0 -1
292 148 100 0 0 1
282 148 100 0 0 1
282 46 100 0 0 1
292 46 100 0 0 1
401 81 0 0 0 -1
391 81 0 0 0 -1
391 26 0 0 0 -1
401 26 0 0 0 -1
401 81 100 0 0 1
391 81 100 0 0 1
391 26 100 0 0 1
401 26 100 0 0 1
391 26 0 0 0 -1
401 26 0 0 0 -1
401 186 0 0 0 -1
391 186 0 0 0 -1
391 26 100 0 0 1
401 26 100 0 0 1
401 186 100 0 0 1
391 186 100 0 0 1
482 322 0 0 0 -1
472 322 0 0 0 -1
472 262 0 0 0 -1
482 262 0 0 0 -1
482 322 100 0 0 1
472 322 100 0 0 1
472 262 100 0 0 1
482 262 100 0 0 1
287 52 0 0 0 -1
287 42 0 0 0 -1
397 42 0 0 0 -1
397 52 0 0 0 -1
287 52 100 0 0 1
287 42 100 0 0 1
397 42 100 0 0 1
397 52 100 0 0 1
693 314 0 0 0 -1
693 304 0 0 0 -1
731 304 0 0 0 -1
731 314 0 0 0 -1
693 314 100 0 0 1
693 304 100 0 0 1
731 304 100 0 0 1
731 314 100 0 0 1
292 83 0 0 0 -1
282 83 0 0 0 -1
282 51 0 0 0 -1
292 51 0 0 0 -1
292 83 100 0 0 1
282 83 100 0 0 1
282 51 100 0 0 1
292 51 100 0 0 1
105 514 0 0 0 -1
95 514 0 0 0 -1
95 309 0 0 0 -1
105 309 0 0 0 -1
105 514 100 0 0 1
95 514 100 0 0 1
95 309 100 0 0 1
105 309 100 0 0 1
730 432 0 0 0 -1
720 432 0 0 0 -1
720 374 0 0 0 -1
730 374 0 0 0 -1
730 432 100 0 0 1
720 432 100 0 0 1
720 374 100 0 0 1
730 374 100 0 0 1
163 193 0 0 0 -1
163 183 0 0 0 -1
259 183 0 0 0 -1
259 193 0 0 0 -1
163 193 100 0 0 1
163 183 100 0 0 1
259 183 100 0 0 1
259 193 100 0 0 1
731 310 0 0 0 -1
721 310 0 0 0 -1
721 282 0 0 0 -1
731 282 0 0 0 -1
731 310 100 0 0 1
721 310 100 0 0 1
721 282 100 0 0 1
731 282 100 0 0 1
701 32 0 0 0 -1
711 22 0 0 0 -1
701 32 100 0 0 1
711 22 100 0 0 1
427 303 0 0 0 -1
417 313 0 0 0 -1
427 303 100 0 0 1
417 313 100 0 0 1
4 0 1 2 3
4 4 5 6 7
4 8 9 10 11
4 12 13 14 15
4 16 17 18 19
4 20 21 22 23
4 24 25 26 27
4 28 29 30 31
4 32 33 34 35
4 36 37 38 39
4 40 41 42 43
4 44 45 46 47
4 48 49 50 51
4 52 53 54 55
4 56 57 58 59
4 60 61 62 63
4 64 65 66 67
4 68 69 70 71
4 72 73 74 75
4 76 77 78 79
4 80 81 82 83
4 84 85 86 87
4 88 89 90 91
4 92 93 94 95
4 96 97 98 99
4 100 101 102 103
4 104 105 106 107
4 108 109 110 111
4 112 113 114 115
4 116 117 118 119
4 120 121 122 123
4 124 125 126 127
4 128 129 130 131
4 132 133 134 135
4 136 137 138 139
4 140 141 142 143
4 144 145 146 147
4 148 149 150 151
4 152 153 154 155
4 156 157 158 159
4 160 161 162 163
4 164 165 166 167
4 168 169 170 171
4 172 173 174 175
4 176 177 178 179
4 180 181 182 183
4 184 185 186 187
4 188 189 190 191
4 192 193 194 195
4 196 197 198 199
4 200 201 202 203
4 204 205 206 207
4 208 209 210 211
4 212 213 214 215
4 216 217 218 219
4 220 221 222 223
4 224 225 226 227
4 228 229 230 231
4 232 233 234 235
4 236 237 238 239
4 240 241 242 243
4 244 245 246 247
4 248 249 250 251
4 252 253 254 255
4 256 257 258 259
4 260 261 262 263
4 264 265 266 267
4 268 269 270 271
4 272 273 274 275
4 276 277 278 279
4 280 281 282 283
4 284 285 286 287
4 288 289 290 291
4 292 293 294 295
4 296 297 298 299
4 300 301 302 303
4 304 305 306 307
4 308 309 310 311
4 312 313 314 315
4 316 317 318 319
4 320 321 322 323
4 324 325 326 327
4 328 329 330 331
4 332 333 334 335
4 336 337 338 339
4 340 341 342 343
4 344 345 346 347
4 348 349 350 351
4 352 353 354 355
4 356 357 358 359
4 360 361 362 363
4 364 365 366 367
4 368 369 370 371
4 372 373 374 375
4 376 377 378 379
4 380 381 382 383
4 384 385 386 387
4 388 389 390 391
4 392 393 394 395
4 396 397 398 399
4 400 401 402 403
4 404 405 406 407
4 408 409 410 411
4 412 413 414 415
4 416 417 418 419
4 420 421 422 423
4 424 425 426 427
4 428 429 430 431
4 432 433 434 435
4 436 437 438 439
4 440 441 442 443
4 444 445 446 447
4 448 449 450 451
4 452 453 454 455
4 456 457 458 459
4 460 461 462 463
4 464 465 466 467
4 468 469 470 471
4 472 473 474 475
4 476 477 478 479
4 480 481 482 483
4 484 485 486 487
4 488 489 490 491
4 492 493 494 495
4 496 497 498 499
4 500 501 502 503
4 504 505 506 507
4 508 509 510 511
4 512 513 514 515
4 516 517 518 519
4 520 521 522 523
4 524 525 526 527
4 528 529 530 531
4 532 533 534 535
4 536 537 538 539
4 540 541 542 543
4 544 545 546 547
4 548 549 550 551
4 552 553 554 555
4 556 557 558 559
4 560 561 562 563
4 564 565 566 567
4 568 569 570 571
4 572 573 574 575
4 576 577 578 579
4 580 581 582 583
4 584 585 586 587
4 588 589 590 591
4 592 593 594 595
4 596 597 598 599
4 600 601 602 603
4 604 605 606 607
4 608 609 610 611
4 612 613 614 615
4 616 617 618 619
4 620 621 622 623
4 624 625 626 627
4 628 629 630 631
4 632 633 634 635
4 636 637 638 639
4 640 641 642 643
4 644 645 646 647
4 648 649 650 651
4 652 653 654 655
4 656 657 658 659
4 660 661 662 663
4 664 665 666 667
4 668 669 670 671
4 672 673 674 675
4 676 677 678 679
4 680 681 682 683
4 684 685 686 687
4 688 689 690 691
4 692 693 694 695
4 696 697 698 699
4 700 701 702 703
4 704 705 706 707
4 708 709 710 711
4 712 713 714 715
4 716 717 718 719
4 720 721 722 723
4 724 725 726 727
4 728 729 730 731
4 732 733 734 735
4 736 737 738 739
4 740 741 742 743
4 744 745 746 747
4 748 749 750 751
4 752 753 754 755
4 756 757 758 759
4 760 761 762 763
4 764 765 766 767
4 768 769 770 771
4 772 773 774 775
4 776 777 778 779
4 780 781 782 783
4 784 785 786 787
4 788 789 790 791
4 792 793 794 795
4 796 797 798 799
4 800 801 802 803
4 804 805 806 807
4 808 809 810 811
4 812 813 814 815
4 816 817 818 819
4 820 821 822 823
4 824 825 826 827
4 828 829 830 831
4 832 833 834 835
