ply
format ascii 1.0
element vertex 96
property float x
property float y
property float z
property float nx
property float ny
property float nz
element quads 24
property list uchar int vertex_indices
end_header
647 187 0 1 0 0
647 128 0 1 0 0
647 128 100 1 0 0
647 187 100 1 0 0
637 187 0 -1 -0 0
637 128 0 -1 -0 0
637 128 100 -1 -0 0
637 187 100 -1 -0 0
490 557 0 -0 1 0
642 557 0 -0 1 0
642 557 100 -0 1 0
490 557 100 -0 1 0
490 547 0 0 -1 0
642 547 0 0 -1 0
642 547 100 0 -1 0
490 547 100 0 -1 0
647 408 0 1 0 0
647 355 0 1 0 0
647 355 100 1 0 0
647 408 100 1 0 0
637 408 0 -1 -0 0
637 355 0 -1 -0 0
637 355 100 -1 -0 0
637 408 100 -1 -0 0
339 278 0 1 0 0
339 223 0 1 0 0
339 223 100 1 0 0
339 278 100 1 0 0
329 278 0 -1 -0 0
329 223 0 -1 -0 0
329 223 100 -1 -0 0
329 278 100 -1 -0 0
647 187 0 636.03387451171875 184.83050537109375 0
637 187 0 636.03387451171875 184.83050537109375 0
637 187 100 636.03387451171875 184.83050537109375 0
647 187 100 636.03387451171875 184.83050537109375 0
647 128 0 636.03387451171875 124.83050537109375 0
637 128 0 636.03387451171875 124.83050537109375 0
637 128 100 636.03387451171875 124.83050537109375 0
647 128 100 636.03387451171875 124.83050537109375 0
490 557 0 485.77630615234375 553.33551025390625 0
490 547 0 485.77630615234375 553.33551025390625 0
490 547 100 485.77630615234375 553.33551025390625 0
490 557 100 485.77630615234375 553.33551025390625 0
642 557 0 638.77630615234375 553.33551025390625 0
642 547 0 638.77630615234375 553.33551025390625 0
642 547 100 638.77630615234375 553.33551025390625 0
642 557 100 638.77630615234375 553.33551025390625 0
647 408 0 634.79248046875 401.3018798828125 0
637 408 0 634.79248046875 401.3018798828125 0
637 408 100 634.79248046875 401.3018798828125 0
647 408 100 634.79248046875 401.3018798828125 0
647 355 0 634.79248046875 347.3018798828125 0
637 355 0 634.79248046875 347.3018798828125 0
637 355 100 634.79248046875 347.3018798828125 0
647 355 100 634.79248046875 347.3018798828125 0
339 278 0 332.83636474609375 273.945465087890625 0
329 278 0 332.83636474609375 273.945465087890625 0
329 278 100 332.83636474609375 273.945465087890625 0
339 278 100 332.83636474609375 273.945465087890625 0
339 223 0 332.83636474609375 217.945449829101562 0
329 223 0 332.83636474609375 217.945449829101562 0
329 223 100 332.83636474609375 217.945449829101562 0
339 223 100 332.83636474609375 217.945449829101562 0
647 187 0 0 0 -1
637 187 0 0 0 -1
637 128 0 0 0 -1
647 128 0 0 0 -1
647 187 100 0 0 1
637 187 100 0 0 1
637 128 100 0 0 1
647 128 100 0 0 1
490 557 0 0 0 -1
490 547 0 0 0 -1
642 547 0 0 0 -1
642 557 0 0 0 -1
490 557 100 0 0 1
490 547 100 0 0 1
642 547 100 0 0 1
642 557 100 0 0 1
647 408 0 0 0 -1
637 408 0 0 0 -1
637 355 0 0 0 -1
647 355 0 0 0 -1
647 408 100 0 0 1
637 408 100 0 0 1
637 355 100 0 0 1
647 355 100 0 0 1
339 278 0 0 0 -1
329 278 0 0 0 -1
329 223 0 0 0 -1
339 223 0 0 0 -1
339 278 100 0 0 1
329 278 100 0 0 1
329 223 100 0 0 1
339 223 100 0 0 1
4 0 1 2 3
4 4 5 6 7
4 8 9 10 11
4 12 13 14 15
4 16 17 18 19
4 20 21 22 23
4 24 25 26 27
4 28 29 30 31
4 32 33 34 35
4 36 37 38 39
4 40 41 42 43
4 44 45 46 47
4 48 49 50 51
4 52 53 54 55
4 56 57 58 59
4 60 61 62 63
4 64 65 66 67
4 68 69 70 71
4 72 73 74 75
4 76 77 78 79
4 80 81 82 83
4 84 85 86 87
4 88 89 90 91
4 92 93 94 95
