ply
format ascii 1.0
element vertex 128
property float x
property float y
property float z
property float nx
property float ny
property float nz
element quads 32
property list uchar int vertex_indices
end_header
333 137 0 1 0 0
333 25 0 1 0 0
333 25 100 1 0 0
333 137 100 1 0 0
323 137 0 -1 -0 0
323 15 0 -1 -0 0
323 15 100 -1 -0 0
323 137 100 -1 -0 0
333 25 0 -0 1 0
509 25 0 -0 1 0
509 25 100 -0 1 0
333 25 100 -0 1 0
323 15 0 0 -1 0
519 15 0 0 -1 0
519 15 100 0 -1 0
323 15 100 0 -1 0
509 25 0 -1 0 0
509 164 0 -1 0 0
509 164 100 -1 0 0
509 25 100 -1 0 0
519 15 0 1 -0 0
519 164 0 1 -0 0
519 164 100 1 -0 0
519 15 100 1 -0 0
290 137 0 1 0 0
290 94 0 1 0 0
290 94 100 1 0 0
290 137 100 1 0 0
280 137 0 -1 -0 0
280 94 0 -1 -0 0
280 94 100 -1 -0 0
280 137 100 -1 -0 0
403 17 0 -0 1 0
439 17 0 -0 1 0
439 17 100 -0 1 0
403 17 100 -0 1 0
403 7 0 0 -1 0
439 7 0 0 -1 0
439 7 100 0 -1 0
403 7 100 0 -1 0
230 138 0 1 0 0
230 94 0 1 0 0
230 94 100 1 0 0
230 138 100 1 0 0
220 138 0 -1 -0 0
220 94 0 -1 -0 0
220 94 100 -1 -0 0
220 138 100 -1 -0 0
333 137 0 330.02679443359375 136.776779174804688 0
323 137 0 330.02679443359375 136.776779174804688 0
323 137 100 330.02679443359375 136.776779174804688 0
333 137 100 330.02679443359375 136.776779174804688 0
290 137 0 283.255828857421875 134.813949584960938 0
280 137 0 283.255828857421875 134.813949584960938 0
280 137 100 283.255828857421875 134.813949584960938 0
290 137 100 283.255828857421875 134.813949584960938 0
290 94 0 283.255828857421875 90.8139572143554688 0
280 94 0 283.255828857421875 90.8139572143554688 0
280 94 100 283.255828857421875 90.8139572143554688 0
290 94 100 283.255828857421875 90.8139572143554688 0
403 17 0 390.8055419921875 16.5277786254882812 0
403 7 0 390.8055419921875 16.5277786254882812 0
403 7 100 390.8055419921875 16.5277786254882812 0
403 17 100 390.8055419921875 16.5277786254882812 0
439 17 0 427.8055419921875 16.5277786254882812 0
439 7 0 427.8055419921875 16.5277786254882812 0
439 7 100 427.8055419921875 16.5277786254882812 0
439 17 100 427.8055419921875 16.5277786254882812 0
509 164 0 505.338134765625 163.820144653320312 0
519 164 0 505.338134765625 163.820144653320312 0
519 164 100 505.338134765625 163.820144653320312 0
509 164 100 505.338134765625 163.820144653320312 0
230 138 0 224.772720336914062 135.863632202148438 0
220 138 0 224.772720336914062 135.863632202148438 0
220 138 100 224.772720336914062 135.863632202148438 0
230 138 100 224.772720336914062 135.863632202148438 0
230 94 0 224.772720336914062 90.8636398315429688 0
220 94 0 224.772720336914062 90.8636398315429688 0
220 94 100 224.772720336914062 90.8636398315429688 0
230 94 100 224.772720336914062 90.8636398315429688 0
333 137 0 0 0 -1
323 137 0 0 0 -1
323 15 0 0 0 -1
333 25 0 0 0 -1
333 137 100 0 0 1
323 137 100 0 0 1
323 15 100 0 0 1
333 25 100 0 0 1
333 25 0 0 0 -1
323 15 0 0 0 -1
519 15 0 0 0 -1
509 25 0 0 0 -1
333 25 100 0 0 1
323 15 100 0 0 1
519 15 100 0 0 1
509 25 100 0 0 1
509 25 0 0 0 -1
519 15 0 0 0 -1
519 164 0 0 0 -1
509 164 0 0 0 -1
509 25 100 0 0 1
519 15 100 0 0 1
519 164 100 0 0 1
509 164 100 0 0 1
290 137 0 0 0 -1
280 137 0 0 0 -1
280 94 0 0 0 -1
290 94 0 0 0 -1
290 137 100 0 0 1
280 137 100 0 0 1
280 94 100 0 0 1
290 94 100 0 0 1
403 17 0 0 0 -1
403 7 0 0 0 -1
439 7 0 0 0 -1
439 17 0 0 0 -1
403 17 100 0 0 1
403 7 100 0 0 1
439 7 100 0 0 1
439 17 100 0 0 1
230 138 0 0 0 -1
220 138 0 0 0 -1
220 94 0 0 0 -1
230 94 0 0 0 -1
230 138 100 0 0 1
220 138 100 0 0 1
220 94 100 0 0 1
230 94 100 0 0 1
4 0 1 2 3
4 4 5 6 7
4 8 9 10 11
4 12 13 14 15
4 16 17 18 19
4 20 21 22 23
4 24 25 26 27
4 28 29 30 31
4 32 33 34 35
4 36 37 38 39
4 40 41 42 43
4 44 45 46 47
4 48 49 50 51
4 52 53 54 55
4 56 57 58 59
4 60 61 62 63
4 64 65 66 67
4 68 69 70 71
4 72 73 74 75
4 76 77 78 79
4 80 81 82 83
4 84 85 86 87
4 88 89 90 91
4 92 93 94 95
4 96 97 98 99
4 100 101 102 103
4 104 105 106 107
4 108 109 110 111
4 112 113 114 115
4 116 117 118 119
4 120 121 122 123
4 124 125 126 127
