ply
format ascii 1.0
element vertex 1264
property float x
property float y
property float z
property float nx
property float ny
property float nz
element quads 312
property list uchar int vertex_indices
end_header
125 508 0 1 0 0
125 279 0 1 0 0
125 279 100 1 0 0
125 508 100 1 0 0
115 508 0 -1 -0 0
115 279 0 -1 -0 0
115 279 100 -1 -0 0
115 508 100 -1 -0 0
121 329 0 1 0 0
121 52 0 1 0 0
121 52 100 1 0 0
121 329 100 1 0 0
111 329 0 -1 -0 0
111 52 0 -1 -0 0
111 52 100 -1 -0 0
111 329 100 -1 -0 0
111 52 0 -1 0 0
111 508 0 -1 0 0
111 508 100 -1 0 0
111 52 100 -1 0 0
121 52 0 1 -0 0
121 508 0 1 -0 0
121 508 100 1 -0 0
121 52 100 1 -0 0
716 506 0 1 0 0
716 379 0 1 0 0
716 379 100 1 0 0
716 506 100 1 0 0
706 506 0 -1 -0 0
706 379 0 -1 -0 0
706 379 100 -1 -0 0
706 506 100 -1 -0 0
218 508 0 1 0 0
218 444 0 1 0 0
218 444 100 1 0 0
218 508 100 1 0 0
208 508 0 -1 -0 0
208 444 0 -1 -0 0
208 444 100 -1 -0 0
208 508 100 -1 -0 0
616 357 0 1 0 0
616 336 0 1 0 0
616 336 100 1 0 0
616 357 100 1 0 0
606 357 0 -1 -0 0
606 336 0 -1 -0 0
606 336 100 -1 -0 0
606 357 100 -1 -0 0
212 512 0 -0 1 0
467 512 0 -0 1 0
467 512 100 -0 1 0
212 512 100 -0 1 0
212 502 0 0 -1 0
467 502 0 0 -1 0
467 502 100 0 -1 0
212 502 100 0 -1 0
218 362 0 1 0 0
218 342 0 1 0 0
218 342 100 1 0 0
218 362 100 1 0 0
208 362 0 -1 -0 0
208 342 0 -1 -0 0
208 342 100 -1 -0 0
208 362 100 -1 -0 0
548 287 0 -0 1 0
704 287 0 -0 1 0
704 287 100 -0 1 0
548 287 100 -0 1 0
548 277 0 0 -1 0
704 277 0 0 -1 0
704 277 100 0 -1 0
548 277 100 0 -1 0
704 277 0 -0 -1 0
476 277 0 -0 -1 0
476 277 100 -0 -1 0
704 277 100 -0 -1 0
704 287 0 0 1 0
476 287 0 0 1 0
476 287 100 0 1 0
704 287 100 0 1 0
183 361 0 1 0 0
183 339 0 1 0 0
183 339 100 1 0 0
183 361 100 1 0 0
173 361 0 -1 -0 0
173 339 0 -1 -0 0
173 339 100 -1 -0 0
173 361 100 -1 -0 0
584 279 0 1 0 0
584 227 0 1 0 0
584 227 100 1 0 0
584 279 100 1 0 0
574 279 0 -1 -0 0
574 227 0 -1 -0 0
574 227 100 -1 -0 0
574 279 100 -1 -0 0
406 59 0 -0 1 0
536 59 0 -0 1 0
536 59 100 -0 1 0
406 59 100 -0 1 0
406 49 0 0 -1 0
536 49 0 0 -1 0
536 49 100 0 -1 0
406 49 100 0 -1 0
536 49 0 -0 -1 0
286 49 0 -0 -1 0
286 49 100 -0 -1 0
536 49 100 -0 -1 0
536 59 0 0 1 0
286 59 0 0 1 0
286 59 100 0 1 0
536 59 100 0 1 0
218 221 0 1 0 0
218 61 0 1 0 0
218 61 100 1 0 0
218 221 100 1 0 0
208 221 0 -1 -0 0
208 61 0 -1 -0 0
208 61 100 -1 -0 0
208 221 100 -1 -0 0
208 61 0 -1 0 0
208 181 0 -1 0 0
208 181 100 -1 0 0
208 61 100 -1 0 0
218 61 0 1 -0 0
218 181 0 1 -0 0
218 181 100 1 -0 0
218 61 100 1 -0 0
452 115 0 -0 1 0
519 115 0 -0 1 0
519 115 100 -0 1 0
452 115 100 -0 1 0
452 105 0 0 -1 0
519 105 0 0 -1 0
519 105 100 0 -1 0
452 105 100 0 -1 0
250 112 0 1 0 0
250 90 0 1 0 0
250 90 100 1 0 0
250 112 100 1 0 0
240 112 0 -1 -0 0
240 90 0 -1 -0 0
240 90 100 -1 -0 0
240 112 100 -1 -0 0
476 292 0 -0 1 0
569 292 0 -0 1 0
569 292 100 -0 1 0
476 292 100 -0 1 0
476 282 0 0 -1 0
569 282 0 0 -1 0
569 282 100 0 -1 0
476 282 100 0 -1 0
122 139 0 -0 1 0
216 139 0 -0 1 0
216 139 100 -0 1 0
122 139 100 -0 1 0
122 129 0 0 -1 0
216 129 0 0 -1 0
216 129 100 0 -1 0
122 129 100 0 -1 0
250 282 0 1 0 0
250 226 0 1 0 0
250 226 100 1 0 0
250 282 100 1 0 0
240 282 0 -1 -0 0
240 226 0 -1 -0 0
240 226 100 -1 -0 0
240 282 100 -1 -0 0
123 289 0 -0 1 0
282 289 0 -0 1 0
282 289 100 -0 1 0
123 289 100 -0 1 0
123 279 0 0 -1 0
282 279 0 0 -1 0
282 279 100 0 -1 0
123 279 100 0 -1 0
423 508 0 1 0 0
423 497 0 1 0 0
423 497 100 1 0 0
423 508 100 1 0 0
413 508 0 -1 -0 0
413 502 0 -1 -0 0
413 502 100 -1 -0 0
413 508 100 -1 -0 0
423 507 0 1 0 0
423 218 0 1 0 0
423 218 100 1 0 0
423 507 100 1 0 0
413 502 0 -1 -0 0
413 218 0 -1 -0 0
413 218 100 -1 -0 0
413 502 100 -1 -0 0
418 497 0 -0 -1 0
344 497 0 -0 -1 0
344 497 100 -0 -1 0
418 497 100 -0 -1 0
423 507 0 0 1 0
344 507 0 0 1 0
344 507 100 0 1 0
423 507 100 0 1 0
418 507 0 -0 1 0
614 507 0 -0 1 0
614 507 100 -0 1 0
418 507 100 -0 1 0
418 497 0 0 -1 0
614 497 0 0 -1 0
614 497 100 0 -1 0
418 497 100 0 -1 0
423 497 0 -0 -1 0
209 497 0 -0 -1 0
209 497 100 -0 -1 0
423 497 100 -0 -1 0
418 507 0 0 1 0
209 507 0 0 1 0
209 507 100 0 1 0
418 507 100 0 1 0
328 231 0 -0 1 0
418 231 0 -0 1 0
418 231 100 -0 1 0
328 231 100 -0 1 0
328 221 0 0 -1 0
418 221 0 0 -1 0
418 221 100 0 -1 0
328 221 100 0 -1 0
418 231 0 -0 1 0
495 231 0 -0 1 0
495 231 100 -0 1 0
418 231 100 -0 1 0
418 221 0 0 -1 0
495 221 0 0 -1 0
495 221 100 0 -1 0
418 221 100 0 -1 0
328 229 0 -0 1 0
418 229 0 -0 1 0
418 229 100 -0 1 0
328 229 100 -0 1 0
328 219 0 0 -1 0
418 219 0 0 -1 0
418 219 100 0 -1 0
328 219 100 0 -1 0
418 229 0 -0 1 0
617 229 0 -0 1 0
617 229 100 -0 1 0
418 229 100 -0 1 0
418 219 0 0 -1 0
607 219 0 0 -1 0
607 219 100 0 -1 0
418 219 100 0 -1 0
617 229 0 1 0 0
617 139 0 1 0 0
617 139 100 1 0 0
617 229 100 1 0 0
607 219 0 -1 -0 0
607 134 0 -1 -0 0
607 134 100 -1 -0 0
607 219 100 -1 -0 0
357 393 0 -0 1 0
418 393 0 -0 1 0
418 393 100 -0 1 0
357 393 100 -0 1 0
357 383 0 0 -1 0
418 383 0 0 -1 0
418 383 100 0 -1 0
357 383 100 0 -1 0
418 393 0 -0 1 0
469 393 0 -0 1 0
469 393 100 -0 1 0
418 393 100 -0 1 0
418 383 0 0 -1 0
469 383 0 0 -1 0
469 383 100 0 -1 0
418 383 100 0 -1 0
360 508 0 1 0 0
360 502 0 1 0 0
360 502 100 1 0 0
360 508 100 1 0 0
350 508 0 -1 -0 0
350 502 0 -1 -0 0
350 502 100 -1 -0 0
350 508 100 -1 -0 0
360 502 0 1 0 0
360 221 0 1 0 0
360 221 100 1 0 0
360 502 100 1 0 0
350 502 0 -1 -0 0
350 221 0 -1 -0 0
350 221 100 -1 -0 0
350 502 100 -1 -0 0
360 502 0 1 0 0
360 296 0 1 0 0
360 296 100 1 0 0
360 502 100 1 0 0
350 502 0 -1 -0 0
350 296 0 -1 -0 0
350 296 100 -1 -0 0
350 502 100 -1 -0 0
411 142 0 1 0 0
411 63 0 1 0 0
411 63 100 1 0 0
411 142 100 1 0 0
401 142 0 -1 -0 0
401 58 0 -1 -0 0
401 58 100 -1 -0 0
401 142 100 -1 -0 0
411 63 0 1 0 0
411 52 0 1 0 0
411 52 100 1 0 0
411 63 100 1 0 0
401 58 0 -1 -0 0
401 52 0 -1 -0 0
401 52 100 -1 -0 0
401 58 100 -1 -0 0
406 53 0 -0 -1 0
286 53 0 -0 -1 0
286 53 100 -0 -1 0
406 53 100 -0 -1 0
411 63 0 0 1 0
286 63 0 0 1 0
286 63 100 0 1 0
411 63 100 0 1 0
411 63 0 -0 1 0
420 63 0 -0 1 0
420 63 100 -0 1 0
411 63 100 -0 1 0
406 53 0 0 -1 0
420 53 0 0 -1 0
420 53 100 0 -1 0
406 53 100 0 -1 0
312 104 0 -0 1 0
406 104 0 -0 1 0
406 104 100 -0 1 0
312 104 100 -0 1 0
312 94 0 0 -1 0
406 94 0 0 -1 0
406 94 100 0 -1 0
312 94 100 0 -1 0
406 104 0 -0 1 0
576 104 0 -0 1 0
576 104 100 -0 1 0
406 104 100 -0 1 0
406 94 0 0 -1 0
576 94 0 0 -1 0
576 94 100 0 -1 0
406 94 100 0 -1 0
406 94 0 -0 -1 0
248 94 0 -0 -1 0
248 94 100 -0 -1 0
406 94 100 -0 -1 0
406 104 0 0 1 0
248 104 0 0 1 0
248 104 100 0 1 0
406 104 100 0 1 0
481 507 0 1 0 0
481 502 0 1 0 0
481 502 100 1 0 0
481 507 100 1 0 0
471 507 0 -1 -0 0
471 502 0 -1 -0 0
471 502 100 -1 -0 0
471 507 100 -1 -0 0
481 502 0 1 0 0
481 340 0 1 0 0
481 340 100 1 0 0
481 502 100 1 0 0
471 502 0 -1 -0 0
471 340 0 -1 -0 0
471 340 100 -1 -0 0
471 502 100 -1 -0 0
418 508 0 1 0 0
418 502 0 1 0 0
418 502 100 1 0 0
418 508 100 1 0 0
408 508 0 -1 -0 0
408 502 0 -1 -0 0
408 502 100 -1 -0 0
408 508 100 -1 -0 0
418 502 0 1 0 0
418 51 0 1 0 0
418 51 100 1 0 0
418 502 100 1 0 0
408 502 0 -1 -0 0
408 51 0 -1 -0 0
408 51 100 -1 -0 0
408 502 100 -1 -0 0
477 507 0 1 0 0
477 502 0 1 0 0
477 502 100 1 0 0
477 507 100 1 0 0
467 507 0 -1 -0 0
467 502 0 -1 -0 0
467 502 100 -1 -0 0
467 507 100 -1 -0 0
477 502 0 1 0 0
477 280 0 1 0 0
477 280 100 1 0 0
477 502 100 1 0 0
467 502 0 -1 -0 0
467 280 0 -1 -0 0
467 280 100 -1 -0 0
467 502 100 -1 -0 0
713 228 0 1 0 0
713 57 0 1 0 0
713 57 100 1 0 0
713 228 100 1 0 0
703 228 0 -1 -0 0
703 57 0 -1 -0 0
703 57 100 -1 -0 0
703 228 100 -1 -0 0
713 62 0 1 0 0
713 50 0 1 0 0
713 50 100 1 0 0
713 62 100 1 0 0
703 57 0 -1 -0 0
703 50 0 -1 -0 0
703 50 100 -1 -0 0
703 57 100 -1 -0 0
708 52 0 -0 -1 0
586 52 0 -0 -1 0
586 52 100 -0 -1 0
708 52 100 -0 -1 0
713 62 0 0 1 0
586 62 0 0 1 0
586 62 100 0 1 0
713 62 100 0 1 0
713 62 0 -0 1 0
713 62 0 -0 1 0
713 62 100 -0 1 0
713 62 100 -0 1 0
708 52 0 0 -1 0
713 52 0 0 -1 0
713 52 100 0 -1 0
708 52 100 0 -1 0
703 57 0 -1 0 0
703 506 0 -1 0 0
703 506 100 -1 0 0
703 57 100 -1 0 0
713 62 0 1 -0 0
713 506 0 1 -0 0
713 506 100 1 -0 0
713 62 100 1 -0 0
122 62 0 -0 1 0
213 62 0 -0 1 0
213 62 100 -0 1 0
122 62 100 -0 1 0
122 52 0 0 -1 0
213 52 0 0 -1 0
213 52 100 0 -1 0
122 52 100 0 -1 0
213 62 0 -0 1 0
234 62 0 -0 1 0
234 62 100 -0 1 0
213 62 100 -0 1 0
213 52 0 0 -1 0
234 52 0 0 -1 0
234 52 100 0 -1 0
213 52 100 0 -1 0
470 139 0 -0 1 0
617 139 0 -0 1 0
617 139 100 -0 1 0
470 139 100 -0 1 0
470 129 0 0 -1 0
612 129 0 0 -1 0
612 129 100 0 -1 0
470 129 100 0 -1 0
617 139 0 -0 1 0
703 139 0 -0 1 0
703 139 100 -0 1 0
617 139 100 -0 1 0
612 129 0 0 -1 0
703 129 0 0 -1 0
703 129 100 0 -1 0
612 129 100 0 -1 0
617 139 0 1 0 0
617 54 0 1 0 0
617 54 100 1 0 0
617 139 100 1 0 0
607 134 0 -1 -0 0
607 54 0 -1 -0 0
607 54 100 -1 -0 0
607 134 100 -1 -0 0
125 508 0 124.454147338867188 506.781646728515625 0
115 508 0 124.454147338867188 506.781646728515625 0
115 508 100 124.454147338867188 506.781646728515625 0
125 508 100 124.454147338867188 506.781646728515625 0
125 279 0 124.454147338867188 276.781646728515625 0
115 279 0 124.454147338867188 276.781646728515625 0
115 279 100 124.454147338867188 276.781646728515625 0
125 279 100 124.454147338867188 276.781646728515625 0
121 329 0 120.563179016113281 328.812286376953125 0
111 329 0 120.563179016113281 328.812286376953125 0
111 329 100 120.563179016113281 328.812286376953125 0
121 329 100 120.563179016113281 328.812286376953125 0
716 506 0 710.3621826171875 503.0157470703125 0
706 506 0 710.3621826171875 503.0157470703125 0
706 506 100 710.3621826171875 503.0157470703125 0
716 506 100 710.3621826171875 503.0157470703125 0
716 379 0 710.3621826171875 375.0157470703125 0
706 379 0 710.3621826171875 375.0157470703125 0
706 379 100 710.3621826171875 375.0157470703125 0
716 379 100 710.3621826171875 375.0157470703125 0
218 508 0 214.59375 501.0625 0
208 508 0 214.59375 501.0625 0
208 508 100 214.59375 501.0625 0
218 508 100 214.59375 501.0625 0
218 444 0 214.59375 436.0625 0
208 444 0 214.59375 436.0625 0
208 444 100 214.59375 436.0625 0
218 444 100 214.59375 436.0625 0
616 357 0 586.66668701171875 341 0
606 357 0 586.66668701171875 341 0
606 357 100 586.66668701171875 341 0
616 357 100 586.66668701171875 341 0
616 336 0 586.66668701171875 319 0
606 336 0 586.66668701171875 319 0
606 336 100 586.66668701171875 319 0
616 336 100 586.66668701171875 319 0
212 512 0 210.168624877929688 509.992156982421875 0
212 502 0 210.168624877929688 509.992156982421875 0
212 502 100 210.168624877929688 509.992156982421875 0
212 512 100 210.168624877929688 509.992156982421875 0
467 512 0 466.16864013671875 509.992156982421875 0
467 502 0 466.16864013671875 509.992156982421875 0
467 502 100 466.16864013671875 509.992156982421875 0
467 512 100 466.16864013671875 509.992156982421875 0
218 362 0 207.100006103515625 344.899993896484375 0
208 362 0 207.100006103515625 344.899993896484375 0
208 362 100 207.100006103515625 344.899993896484375 0
218 362 100 207.100006103515625 344.899993896484375 0
218 342 0 207.100006103515625 323.899993896484375 0
208 342 0 207.100006103515625 323.899993896484375 0
208 342 100 207.100006103515625 323.899993896484375 0
218 342 100 207.100006103515625 323.899993896484375 0
548 287 0 543.4871826171875 285.160247802734375 0
548 277 0 543.4871826171875 285.160247802734375 0
548 277 100 543.4871826171875 285.160247802734375 0
548 287 100 543.4871826171875 285.160247802734375 0
183 361 0 174.68182373046875 345.590911865234375 0
173 361 0 174.68182373046875 345.590911865234375 0
173 361 100 174.68182373046875 345.590911865234375 0
183 361 100 174.68182373046875 345.590911865234375 0
183 339 0 174.68182373046875 322.590911865234375 0
173 339 0 174.68182373046875 322.590911865234375 0
173 339 100 174.68182373046875 322.590911865234375 0
183 339 100 174.68182373046875 322.590911865234375 0
584 279 0 572.76922607421875 274.634613037109375 0
574 279 0 572.76922607421875 274.634613037109375 0
574 279 100 572.76922607421875 274.634613037109375 0
584 279 100 572.76922607421875 274.634613037109375 0
584 227 0 572.76922607421875 221.634613037109375 0
574 227 0 572.76922607421875 221.634613037109375 0
574 227 100 572.76922607421875 221.634613037109375 0
584 227 100 572.76922607421875 221.634613037109375 0
406 59 0 401.876922607421875 58.5461540222167969 0
406 49 0 401.876922607421875 58.5461540222167969 0
406 49 100 401.876922607421875 58.5461540222167969 0
406 59 100 401.876922607421875 58.5461540222167969 0
218 221 0 216.637496948242188 220.618743896484375 0
208 221 0 216.637496948242188 220.618743896484375 0
208 221 100 216.637496948242188 220.618743896484375 0
218 221 100 216.637496948242188 220.618743896484375 0
452 115 0 444.25372314453125 113.283584594726562 0
452 105 0 444.25372314453125 113.283584594726562 0
452 105 100 444.25372314453125 113.283584594726562 0
452 115 100 444.25372314453125 113.283584594726562 0
519 115 0 512.25372314453125 113.283584594726562 0
519 105 0 512.25372314453125 113.283584594726562 0
519 105 100 512.25372314453125 113.283584594726562 0
519 115 100 512.25372314453125 113.283584594726562 0
208 181 0 206.26666259765625 180.491668701171875 0
218 181 0 206.26666259765625 180.491668701171875 0
218 181 100 206.26666259765625 180.491668701171875 0
208 181 100 206.26666259765625 180.491668701171875 0
250 112 0 238.636367797851562 107.909088134765625 0
240 112 0 238.636367797851562 107.909088134765625 0
240 112 100 238.636367797851562 107.909088134765625 0
250 112 100 238.636367797851562 107.909088134765625 0
250 90 0 238.636367797851562 84.909088134765625 0
240 90 0 238.636367797851562 84.909088134765625 0
240 90 100 238.636367797851562 84.909088134765625 0
250 90 100 238.636367797851562 84.909088134765625 0
476 292 0 469.8817138671875 288.8602294921875 0
476 282 0 469.8817138671875 288.8602294921875 0
476 282 100 469.8817138671875 288.8602294921875 0
476 292 100 469.8817138671875 288.8602294921875 0
569 292 0 563.8817138671875 288.8602294921875 0
569 282 0 563.8817138671875 288.8602294921875 0
569 282 100 563.8817138671875 288.8602294921875 0
569 292 100 563.8817138671875 288.8602294921875 0
111 508 0 110.756576538085938 507.885955810546875 0
121 508 0 110.756576538085938 507.885955810546875 0
121 508 100 110.756576538085938 507.885955810546875 0
111 508 100 110.756576538085938 507.885955810546875 0
476 277 0 472.91229248046875 275.78509521484375 0
476 287 0 472.91229248046875 275.78509521484375 0
476 287 100 472.91229248046875 275.78509521484375 0
476 277 100 472.91229248046875 275.78509521484375 0
122 139 0 119.702125549316406 137.521270751953125 0
122 129 0 119.702125549316406 137.521270751953125 0
122 129 100 119.702125549316406 137.521270751953125 0
122 139 100 119.702125549316406 137.521270751953125 0
216 139 0 214.702133178710938 137.521270751953125 0
216 129 0 214.702133178710938 137.521270751953125 0
216 129 100 214.702133178710938 137.521270751953125 0
216 139 100 214.702133178710938 137.521270751953125 0
250 282 0 245.535720825195312 277.96429443359375 0
240 282 0 245.535720825195312 277.96429443359375 0
240 282 100 245.535720825195312 277.96429443359375 0
250 282 100 245.535720825195312 277.96429443359375 0
250 226 0 245.535720825195312 220.964279174804688 0
240 226 0 245.535720825195312 220.964279174804688 0
240 226 100 245.535720825195312 220.964279174804688 0
250 226 100 245.535720825195312 220.964279174804688 0
123 289 0 121.226417541503906 287.182403564453125 0
123 279 0 121.226417541503906 287.182403564453125 0
123 279 100 121.226417541503906 287.182403564453125 0
123 289 100 121.226417541503906 287.182403564453125 0
282 289 0 281.226409912109375 287.182403564453125 0
282 279 0 281.226409912109375 287.182403564453125 0
282 279 100 281.226409912109375 287.182403564453125 0
282 289 100 281.226409912109375 287.182403564453125 0
286 49 0 283.855987548828125 48.8040008544921875 0
286 59 0 283.855987548828125 48.8040008544921875 0
286 59 100 283.855987548828125 48.8040008544921875 0
286 49 100 283.855987548828125 48.8040008544921875 0
423 508 0 384.545440673828125 462.81817626953125 0
413 508 0 384.545440673828125 462.81817626953125 0
413 508 100 384.545440673828125 462.81817626953125 0
423 508 100 384.545440673828125 462.81817626953125 0
423 218 0 421.536346435546875 216.245681762695312 0
413 218 0 421.536346435546875 216.245681762695312 0
413 218 100 421.536346435546875 216.245681762695312 0
423 218 100 421.536346435546875 216.245681762695312 0
344 497 0 338.351348876953125 490.283782958984375 0
344 507 0 338.351348876953125 490.283782958984375 0
344 507 100 338.351348876953125 490.283782958984375 0
344 497 100 338.351348876953125 490.283782958984375 0
614 507 0 611.86737060546875 504.41326904296875 0
614 497 0 611.86737060546875 504.41326904296875 0
614 497 100 611.86737060546875 504.41326904296875 0
614 507 100 611.86737060546875 504.41326904296875 0
328 231 0 323.355560302734375 228.433334350585938 0
328 221 0 323.355560302734375 228.433334350585938 0
328 221 100 323.355560302734375 228.433334350585938 0
328 231 100 323.355560302734375 228.433334350585938 0
495 231 0 489.571441650390625 228 0
495 221 0 489.571441650390625 228 0
495 221 100 489.571441650390625 228 0
495 231 100 489.571441650390625 228 0
328 229 0 323.355560302734375 226.455551147460938 0
328 219 0 323.355560302734375 226.455551147460938 0
328 219 100 323.355560302734375 226.455551147460938 0
328 229 100 323.355560302734375 226.455551147460938 0
357 393 0 350.147552490234375 386.557373046875 0
357 383 0 350.147552490234375 386.557373046875 0
357 383 100 350.147552490234375 386.557373046875 0
357 393 100 350.147552490234375 386.557373046875 0
469 393 0 460.803924560546875 385.29412841796875 0
469 383 0 460.803924560546875 385.29412841796875 0
469 383 100 460.803924560546875 385.29412841796875 0
469 393 100 460.803924560546875 385.29412841796875 0
209 497 0 207.023361206054688 494.677581787109375 0
209 507 0 207.023361206054688 494.677581787109375 0
209 507 100 207.023361206054688 494.677581787109375 0
209 497 100 207.023361206054688 494.677581787109375 0
360 508 0 300 424.333343505859375 0
350 508 0 300 424.333343505859375 0
350 508 100 300 424.333343505859375 0
360 508 100 300 424.333343505859375 0
360 221 0 358.7188720703125 219.213516235351562 0
350 221 0 358.7188720703125 219.213516235351562 0
350 221 100 358.7188720703125 219.213516235351562 0
360 221 100 358.7188720703125 219.213516235351562 0
411 142 0 405.797454833984375 141.202529907226562 0
401 142 0 405.797454833984375 141.202529907226562 0
401 142 100 405.797454833984375 141.202529907226562 0
411 142 100 405.797454833984375 141.202529907226562 0
411 52 0 373.6363525390625 46.2727279663085938 0
401 52 0 373.6363525390625 46.2727279663085938 0
401 52 100 373.6363525390625 46.2727279663085938 0
411 52 100 373.6363525390625 46.2727279663085938 0
286 53 0 282.616668701171875 52.5583343505859375 0
286 63 0 282.616668701171875 52.5583343505859375 0
286 63 100 282.616668701171875 52.5583343505859375 0
286 53 100 282.616668701171875 52.5583343505859375 0
420 63 0 374.333343505859375 56 0
420 53 0 374.333343505859375 56 0
420 53 100 374.333343505859375 56 0
420 63 100 374.333343505859375 56 0
312 104 0 307.68084716796875 102.89361572265625 0
312 94 0 307.68084716796875 102.89361572265625 0
312 94 100 307.68084716796875 102.89361572265625 0
312 104 100 307.68084716796875 102.89361572265625 0
576 104 0 573.61175537109375 103.388236999511719 0
576 94 0 573.61175537109375 103.388236999511719 0
576 94 100 573.61175537109375 103.388236999511719 0
576 104 100 573.61175537109375 103.388236999511719 0
248 94 0 245.430374145507812 93.405059814453125 0
248 104 0 245.430374145507812 93.405059814453125 0
248 104 100 245.430374145507812 93.405059814453125 0
248 94 100 245.430374145507812 93.405059814453125 0
481 507 0 384.79998779296875 406.600006103515625 0
471 507 0 384.79998779296875 406.600006103515625 0
471 507 100 384.79998779296875 406.600006103515625 0
481 507 100 384.79998779296875 406.600006103515625 0
481 340 0 478.030853271484375 336.9012451171875 0
471 340 0 478.030853271484375 336.9012451171875 0
471 340 100 478.030853271484375 336.9012451171875 0
481 340 100 478.030853271484375 336.9012451171875 0
360 296 0 358.25244140625 293.5631103515625 0
350 296 0 358.25244140625 293.5631103515625 0
350 296 100 358.25244140625 293.5631103515625 0
360 296 100 358.25244140625 293.5631103515625 0
418 508 0 348.333343505859375 424.333343505859375 0
408 508 0 348.333343505859375 424.333343505859375 0
408 508 100 348.333343505859375 424.333343505859375 0
418 508 100 348.333343505859375 424.333343505859375 0
418 51 0 417.07318115234375 49.8869171142578125 0
408 51 0 417.07318115234375 49.8869171142578125 0
408 51 100 417.07318115234375 49.8869171142578125 0
418 51 100 417.07318115234375 49.8869171142578125 0
477 507 0 381.600006103515625 406.600006103515625 0
467 507 0 381.600006103515625 406.600006103515625 0
467 507 100 381.600006103515625 406.600006103515625 0
477 507 100 381.600006103515625 406.600006103515625 0
477 280 0 474.851348876953125 277.738739013671875 0
467 280 0 474.851348876953125 277.738739013671875 0
467 280 100 474.851348876953125 277.738739013671875 0
477 280 100 474.851348876953125 277.738739013671875 0
713 228 0 708.83038330078125 227.666671752929688 0
703 228 0 708.83038330078125 227.666671752929688 0
703 228 100 708.83038330078125 227.666671752929688 0
713 228 100 708.83038330078125 227.666671752929688 0
713 50 0 653.58331298828125 44.8333320617675781 0
703 50 0 653.58331298828125 44.8333320617675781 0
703 50 100 653.58331298828125 44.8333320617675781 0
713 50 100 653.58331298828125 44.8333320617675781 0
586 52 0 580.19671630859375 51.5737686157226562 0
586 62 0 580.19671630859375 51.5737686157226562 0
586 62 100 580.19671630859375 51.5737686157226562 0
586 52 100 580.19671630859375 51.5737686157226562 0
713 62 0 -inf -inf 0
713 52 0 -inf -inf 0
713 52 100 -inf -inf 0
713 62 100 -inf -inf 0
703 506 0 701.434326171875 505.873046875 0
713 506 0 701.434326171875 505.873046875 0
713 506 100 701.434326171875 505.873046875 0
703 506 100 701.434326171875 505.873046875 0
122 62 0 119.659339904785156 61.3186798095703125 0
122 52 0 119.659339904785156 61.3186798095703125 0
122 52 100 119.659339904785156 61.3186798095703125 0
122 62 100 119.659339904785156 61.3186798095703125 0
234 62 0 223.857147216796875 59.0476188659667969 0
234 52 0 223.857147216796875 59.0476188659667969 0
234 52 100 223.857147216796875 59.0476188659667969 0
234 62 100 223.857147216796875 59.0476188659667969 0
470 139 0 465.802734375 138.054428100585938 0
470 129 0 465.802734375 138.054428100585938 0
470 129 100 465.802734375 138.054428100585938 0
470 139 100 465.802734375 138.054428100585938 0
703 139 0 695.8255615234375 137.38372802734375 0
703 129 0 695.8255615234375 137.38372802734375 0
703 129 100 695.8255615234375 137.38372802734375 0
703 139 100 695.8255615234375 137.38372802734375 0
617 54 0 609.74114990234375 52.3647041320800781 0
607 54 0 609.74114990234375 52.3647041320800781 0
607 54 100 609.74114990234375 52.3647041320800781 0
617 54 100 609.74114990234375 52.3647041320800781 0
125 508 0 0 0 -1
115 508 0 0 0 -1
115 279 0 0 0 -1
125 279 0 0 0 -1
125 508 100 0 0 1
115 508 100 0 0 1
115 279 100 0 0 1
125 279 100 0 0 1
121 329 0 0 0 -1
111 329 0 0 0 -1
111 52 0 0 0 -1
121 52 0 0 0 -1
121 329 100 0 0 1
111 329 100 0 0 1
111 52 100 0 0 1
121 52 100 0 0 1
111 52 0 0 0 -1
121 52 0 0 0 -1
121 508 0 0 0 -1
111 508 0 0 0 -1
111 52 100 0 0 1
121 52 100 0 0 1
121 508 100 0 0 1
111 508 100 0 0 1
716 506 0 0 0 -1
706 506 0 0 0 -1
706 379 0 0 0 -1
716 379 0 0 0 -1
716 506 100 0 0 1
706 506 100 0 0 1
706 379 100 0 0 1
716 379 100 0 0 1
218 508 0 0 0 -1
208 508 0 0 0 -1
208 444 0 0 0 -1
218 444 0 0 0 -1
218 508 100 0 0 1
208 508 100 0 0 1
208 444 100 0 0 1
218 444 100 0 0 1
616 357 0 0 0 -1
606 357 0 0 0 -1
606 336 0 0 0 -1
616 336 0 0 0 -1
616 357 100 0 0 1
606 357 100 0 0 1
606 336 100 0 0 1
616 336 100 0 0 1
212 512 0 0 0 -1
212 502 0 0 0 -1
467 502 0 0 0 -1
467 512 0 0 0 -1
212 512 100 0 0 1
212 502 100 0 0 1
467 502 100 0 0 1
467 512 100 0 0 1
218 362 0 0 0 -1
208 362 0 0 0 -1
208 342 0 0 0 -1
218 342 0 0 0 -1
218 362 100 0 0 1
208 362 100 0 0 1
208 342 100 0 0 1
218 342 100 0 0 1
548 287 0 0 0 -1
548 277 0 0 0 -1
704 277 0 0 0 -1
704 287 0 0 0 -1
548 287 100 0 0 1
548 277 100 0 0 1
704 277 100 0 0 1
704 287 100 0 0 1
704 277 0 0 0 -1
704 287 0 0 0 -1
476 287 0 0 0 -1
476 277 0 0 0 -1
704 277 100 0 0 1
704 287 100 0 0 1
476 287 100 0 0 1
476 277 100 0 0 1
183 361 0 0 0 -1
173 361 0 0 0 -1
173 339 0 0 0 -1
183 339 0 0 0 -1
183 361 100 0 0 1
173 361 100 0 0 1
173 339 100 0 0 1
183 339 100 0 0 1
584 279 0 0 0 -1
574 279 0 0 0 -1
574 227 0 0 0 -1
584 227 0 0 0 -1
584 279 100 0 0 1
574 279 100 0 0 1
574 227 100 0 0 1
584 227 100 0 0 1
406 59 0 0 0 -1
406 49 0 0 0 -1
536 49 0 0 0 -1
536 59 0 0 0 -1
406 59 100 0 0 1
406 49 100 0 0 1
536 49 100 0 0 1
536 59 100 0 0 1
536 49 0 0 0 -1
536 59 0 0 0 -1
286 59 0 0 0 -1
286 49 0 0 0 -1
536 49 100 0 0 1
536 59 100 0 0 1
286 59 100 0 0 1
286 49 100 0 0 1
218 221 0 0 0 -1
208 221 0 0 0 -1
208 61 0 0 0 -1
218 61 0 0 0 -1
218 221 100 0 0 1
208 221 100 0 0 1
208 61 100 0 0 1
218 61 100 0 0 1
208 61 0 0 0 -1
218 61 0 0 0 -1
218 181 0 0 0 -1
208 181 0 0 0 -1
208 61 100 0 0 1
218 61 100 0 0 1
218 181 100 0 0 1
208 181 100 0 0 1
452 115 0 0 0 -1
452 105 0 0 0 -1
519 105 0 0 0 -1
519 115 0 0 0 -1
452 115 100 0 0 1
452 105 100 0 0 1
519 105 100 0 0 1
519 115 100 0 0 1
250 112 0 0 0 -1
240 112 0 0 0 -1
240 90 0 0 0 -1
250 90 0 0 0 -1
250 112 100 0 0 1
240 112 100 0 0 1
240 90 100 0 0 1
250 90 100 0 0 1
476 292 0 0 0 -1
476 282 0 0 0 -1
569 282 0 0 0 -1
569 292 0 0 0 -1
476 292 100 0 0 1
476 282 100 0 0 1
569 282 100 0 0 1
569 292 100 0 0 1
122 139 0 0 0 -1
122 129 0 0 0 -1
216 129 0 0 0 -1
216 139 0 0 0 -1
122 139 100 0 0 1
122 129 100 0 0 1
216 129 100 0 0 1
216 139 100 0 0 1
250 282 0 0 0 -1
240 282 0 0 0 -1
240 226 0 0 0 -1
250 226 0 0 0 -1
250 282 100 0 0 1
240 282 100 0 0 1
240 226 100 0 0 1
250 226 100 0 0 1
123 289 0 0 0 -1
123 279 0 0 0 -1
282 279 0 0 0 -1
282 289 0 0 0 -1
123 289 100 0 0 1
123 279 100 0 0 1
282 279 100 0 0 1
282 289 100 0 0 1
423 508 0 0 0 -1
413 508 0 0 0 -1
413 502 0 0 0 -1
423 497 0 0 0 -1
423 508 100 0 0 1
413 508 100 0 0 1
413 502 100 0 0 1
423 497 100 0 0 1
423 507 0 0 0 -1
413 502 0 0 0 -1
413 218 0 0 0 -1
423 218 0 0 0 -1
423 507 100 0 0 1
413 502 100 0 0 1
413 218 100 0 0 1
423 218 100 0 0 1
418 497 0 0 0 -1
423 507 0 0 0 -1
344 507 0 0 0 -1
344 497 0 0 0 -1
418 497 100 0 0 1
423 507 100 0 0 1
344 507 100 0 0 1
344 497 100 0 0 1
418 507 0 0 0 -1
418 497 0 0 0 -1
614 497 0 0 0 -1
614 507 0 0 0 -1
418 507 100 0 0 1
418 497 100 0 0 1
614 497 100 0 0 1
614 507 100 0 0 1
423 497 0 0 0 -1
418 507 0 0 0 -1
209 507 0 0 0 -1
209 497 0 0 0 -1
423 497 100 0 0 1
418 507 100 0 0 1
209 507 100 0 0 1
209 497 100 0 0 1
328 231 0 0 0 -1
328 221 0 0 0 -1
418 221 0 0 0 -1
418 231 0 0 0 -1
328 231 100 0 0 1
328 221 100 0 0 1
418 221 100 0 0 1
418 231 100 0 0 1
418 231 0 0 0 -1
418 221 0 0 0 -1
495 221 0 0 0 -1
495 231 0 0 0 -1
418 231 100 0 0 1
418 221 100 0 0 1
495 221 100 0 0 1
495 231 100 0 0 1
328 229 0 0 0 -1
328 219 0 0 0 -1
418 219 0 0 0 -1
418 229 0 0 0 -1
328 229 100 0 0 1
328 219 100 0 0 1
418 219 100 0 0 1
418 229 100 0 0 1
418 229 0 0 0 -1
418 219 0 0 0 -1
607 219 0 0 0 -1
617 229 0 0 0 -1
418 229 100 0 0 1
418 219 100 0 0 1
607 219 100 0 0 1
617 229 100 0 0 1
617 229 0 0 0 -1
607 219 0 0 0 -1
607 134 0 0 0 -1
617 139 0 0 0 -1
617 229 100 0 0 1
607 219 100 0 0 1
607 134 100 0 0 1
617 139 100 0 0 1
357 393 0 0 0 -1
357 383 0 0 0 -1
418 383 0 0 0 -1
418 393 0 0 0 -1
357 393 100 0 0 1
357 383 100 0 0 1
418 383 100 0 0 1
418 393 100 0 0 1
418 393 0 0 0 -1
418 383 0 0 0 -1
469 383 0 0 0 -1
469 393 0 0 0 -1
418 393 100 0 0 1
418 383 100 0 0 1
469 383 100 0 0 1
469 393 100 0 0 1
360 508 0 0 0 -1
350 508 0 0 0 -1
350 502 0 0 0 -1
360 502 0 0 0 -1
360 508 100 0 0 1
350 508 100 0 0 1
350 502 100 0 0 1
360 502 100 0 0 1
360 502 0 0 0 -1
350 502 0 0 0 -1
350 221 0 0 0 -1
360 221 0 0 0 -1
360 502 100 0 0 1
350 502 100 0 0 1
350 221 100 0 0 1
360 221 100 0 0 1
360 502 0 0 0 -1
350 502 0 0 0 -1
350 296 0 0 0 -1
360 296 0 0 0 -1
360 502 100 0 0 1
350 502 100 0 0 1
350 296 100 0 0 1
360 296 100 0 0 1
411 142 0 0 0 -1
401 142 0 0 0 -1
401 58 0 0 0 -1
411 63 0 0 0 -1
411 142 100 0 0 1
401 142 100 0 0 1
401 58 100 0 0 1
411 63 100 0 0 1
411 63 0 0 0 -1
401 58 0 0 0 -1
401 52 0 0 0 -1
411 52 0 0 0 -1
411 63 100 0 0 1
401 58 100 0 0 1
401 52 100 0 0 1
411 52 100 0 0 1
406 53 0 0 0 -1
411 63 0 0 0 -1
286 63 0 0 0 -1
286 53 0 0 0 -1
406 53 100 0 0 1
411 63 100 0 0 1
286 63 100 0 0 1
286 53 100 0 0 1
411 63 0 0 0 -1
406 53 0 0 0 -1
420 53 0 0 0 -1
420 63 0 0 0 -1
411 63 100 0 0 1
406 53 100 0 0 1
420 53 100 0 0 1
420 63 100 0 0 1
312 104 0 0 0 -1
312 94 0 0 0 -1
406 94 0 0 0 -1
406 104 0 0 0 -1
312 104 100 0 0 1
312 94 100 0 0 1
406 94 100 0 0 1
406 104 100 0 0 1
406 104 0 0 0 -1
406 94 0 0 0 -1
576 94 0 0 0 -1
576 104 0 0 0 -1
406 104 100 0 0 1
406 94 100 0 0 1
576 94 100 0 0 1
576 104 100 0 0 1
406 94 0 0 0 -1
406 104 0 0 0 -1
248 104 0 0 0 -1
248 94 0 0 0 -1
406 94 100 0 0 1
406 104 100 0 0 1
248 104 100 0 0 1
248 94 100 0 0 1
481 507 0 0 0 -1
471 507 0 0 0 -1
471 502 0 0 0 -1
481 502 0 0 0 -1
481 507 100 0 0 1
471 507 100 0 0 1
471 502 100 0 0 1
481 502 100 0 0 1
481 502 0 0 0 -1
471 502 0 0 0 -1
471 340 0 0 0 -1
481 340 0 0 0 -1
481 502 100 0 0 1
471 502 100 0 0 1
471 340 100 0 0 1
481 340 100 0 0 1
418 508 0 0 0 -1
408 508 0 0 0 -1
408 502 0 0 0 -1
418 502 0 0 0 -1
418 508 100 0 0 1
408 508 100 0 0 1
408 502 100 0 0 1
418 502 100 0 0 1
418 502 0 0 0 -1
408 502 0 0 0 -1
408 51 0 0 0 -1
418 51 0 0 0 -1
418 502 100 0 0 1
408 502 100 0 0 1
408 51 100 0 0 1
418 51 100 0 0 1
477 507 0 0 0 -1
467 507 0 0 0 -1
467 502 0 0 0 -1
477 502 0 0 0 -1
477 507 100 0 0 1
467 507 100 0 0 1
467 502 100 0 0 1
477 502 100 0 0 1
477 502 0 0 0 -1
467 502 0 0 0 -1
467 280 0 0 0 -1
477 280 0 0 0 -1
477 502 100 0 0 1
467 502 100 0 0 1
467 280 100 0 0 1
477 280 100 0 0 1
713 228 0 0 0 -1
703 228 0 0 0 -1
703 57 0 0 0 -1
713 57 0 0 0 -1
713 228 100 0 0 1
703 228 100 0 0 1
703 57 100 0 0 1
713 57 100 0 0 1
713 62 0 0 0 -1
703 57 0 0 0 -1
703 50 0 0 0 -1
713 50 0 0 0 -1
713 62 100 0 0 1
703 57 100 0 0 1
703 50 100 0 0 1
713 50 100 0 0 1
708 52 0 0 0 -1
713 62 0 0 0 -1
586 62 0 0 0 -1
586 52 0 0 0 -1
708 52 100 0 0 1
713 62 100 0 0 1
586 62 100 0 0 1
586 52 100 0 0 1
713 62 0 0 0 -1
708 52 0 0 0 -1
713 52 0 0 0 -1
713 62 0 0 0 -1
713 62 100 0 0 1
708 52 100 0 0 1
713 52 100 0 0 1
713 62 100 0 0 1
703 57 0 0 0 -1
713 62 0 0 0 -1
713 506 0 0 0 -1
703 506 0 0 0 -1
703 57 100 0 0 1
713 62 100 0 0 1
713 506 100 0 0 1
703 506 100 0 0 1
122 62 0 0 0 -1
122 52 0 0 0 -1
213 52 0 0 0 -1
213 62 0 0 0 -1
122 62 100 0 0 1
122 52 100 0 0 1
213 52 100 0 0 1
213 62 100 0 0 1
213 62 0 0 0 -1
213 52 0 0 0 -1
234 52 0 0 0 -1
234 62 0 0 0 -1
213 62 100 0 0 1
213 52 100 0 0 1
234 52 100 0 0 1
234 62 100 0 0 1
470 139 0 0 0 -1
470 129 0 0 0 -1
612 129 0 0 0 -1
617 139 0 0 0 -1
470 139 100 0 0 1
470 129 100 0 0 1
612 129 100 0 0 1
617 139 100 0 0 1
617 139 0 0 0 -1
612 129 0 0 0 -1
703 129 0 0 0 -1
703 139 0 0 0 -1
617 139 100 0 0 1
612 129 100 0 0 1
703 129 100 0 0 1
703 139 100 0 0 1
617 139 0 0 0 -1
607 134 0 0 0 -1
607 54 0 0 0 -1
617 54 0 0 0 -1
617 139 100 0 0 1
607 134 100 0 0 1
607 54 100 0 0 1
617 54 100 0 0 1
423 507 0 0 0 -1
423 497 0 0 0 -1
423 507 100 0 0 1
423 497 100 0 0 1
411 63 0 0 0 -1
411 63 0 0 0 -1
411 63 100 0 0 1
411 63 100 0 0 1
713 62 0 0 0 -1
713 62 0 0 0 -1
713 62 100 0 0 1
713 62 100 0 0 1
617 139 0 0 0 -1
617 139 0 0 0 -1
617 139 100 0 0 1
617 139 100 0 0 1
4 0 1 2 3
4 4 5 6 7
4 8 9 10 11
4 12 13 14 15
4 16 17 18 19
4 20 21 22 23
4 24 25 26 27
4 28 29 30 31
4 32 33 34 35
4 36 37 38 39
4 40 41 42 43
4 44 45 46 47
4 48 49 50 51
4 52 53 54 55
4 56 57 58 59
4 60 61 62 63
4 64 65 66 67
4 68 69 70 71
4 72 73 74 75
4 76 77 78 79
4 80 81 82 83
4 84 85 86 87
4 88 89 90 91
4 92 93 94 95
4 96 97 98 99
4 100 101 102 103
4 104 105 106 107
4 108 109 110 111
4 112 113 114 115
4 116 117 118 119
4 120 121 122 123
4 124 125 126 127
4 128 129 130 131
4 132 133 134 135
4 136 137 138 139
4 140 141 142 143
4 144 145 146 147
4 148 149 150 151
4 152 153 154 155
4 156 157 158 159
4 160 161 162 163
4 164 165 166 167
4 168 169 170 171
4 172 173 174 175
4 176 177 178 179
4 180 181 182 183
4 184 185 186 187
4 188 189 190 191
4 192 193 194 195
4 196 197 198 199
4 200 201 202 203
4 204 205 206 207
4 208 209 210 211
4 212 213 214 215
4 216 217 218 219
4 220 221 222 223
4 224 225 226 227
4 228 229 230 231
4 232 233 234 235
4 236 237 238 239
4 240 241 242 243
4 244 245 246 247
4 248 249 250 251
4 252 253 254 255
4 256 257 258 259
4 260 261 262 263
4 264 265 266 267
4 268 269 270 271
4 272 273 274 275
4 276 277 278 279
4 280 281 282 283
4 284 285 286 287
4 288 289 290 291
4 292 293 294 295
4 296 297 298 299
4 300 301 302 303
4 304 305 306 307
4 308 309 310 311
4 312 313 314 315
4 316 317 318 319
4 320 321 322 323
4 324 325 326 327
4 328 329 330 331
4 332 333 334 335
4 336 337 338 339
4 340 341 342 343
4 344 345 346 347
4 348 349 350 351
4 352 353 354 355
4 356 357 358 359
4 360 361 362 363
4 364 365 366 367
4 368 369 370 371
4 372 373 374 375
4 376 377 378 379
4 380 381 382 383
4 384 385 386 387
4 388 389 390 391
4 392 393 394 395
4 396 397 398 399
4 400 401 402 403
4 404 405 406 407
4 408 409 410 411
4 412 413 414 415
4 416 417 418 419
4 420 421 422 423
4 424 425 426 427
4 428 429 430 431
4 432 433 434 435
4 436 437 438 439
4 440 441 442 443
4 444 445 446 447
4 448 449 450 451
4 452 453 454 455
4 456 457 458 459
4 460 461 462 463
4 464 465 466 467
4 468 469 470 471
4 472 473 474 475
4 476 477 478 479
4 480 481 482 483
4 484 485 486 487
4 488 489 490 491
4 492 493 494 495
4 496 497 498 499
4 500 501 502 503
4 504 505 506 507
4 508 509 510 511
4 512 513 514 515
4 516 517 518 519
4 520 521 522 523
4 524 525 526 527
4 528 529 530 531
4 532 533 534 535
4 536 537 538 539
4 540 541 542 543
4 544 545 546 547
4 548 549 550 551
4 552 553 554 555
4 556 557 558 559
4 560 561 562 563
4 564 565 566 567
4 568 569 570 571
4 572 573 574 575
4 576 577 578 579
4 580 581 582 583
4 584 585 586 587
4 588 589 590 591
4 592 593 594 595
4 596 597 598 599
4 600 601 602 603
4 604 605 606 607
4 608 609 610 611
4 612 613 614 615
4 616 617 618 619
4 620 621 622 623
4 624 625 626 627
4 628 629 630 631
4 632 633 634 635
4 636 637 638 639
4 640 641 642 643
4 644 645 646 647
4 648 649 650 651
4 652 653 654 655
4 656 657 658 659
4 660 661 662 663
4 664 665 666 667
4 668 669 670 671
4 672 673 674 675
4 676 677 678 679
4 680 681 682 683
4 684 685 686 687
4 688 689 690 691
4 692 693 694 695
4 696 697 698 699
4 700 701 702 703
4 704 705 706 707
4 708 709 710 711
4 712 713 714 715
4 716 717 718 719
4 720 721 722 723
4 724 725 726 727
4 728 729 730 731
4 732 733 734 735
4 736 737 738 739
4 740 741 742 743
4 744 745 746 747
4 748 749 750 751
4 752 753 754 755
4 756 757 758 759
4 760 761 762 763
4 764 765 766 767
4 768 769 770 771
4 772 773 774 775
4 776 777 778 779
4 780 781 782 783
4 784 785 786 787
4 788 789 790 791
4 792 793 794 795
4 796 797 798 799
4 800 801 802 803
4 804 805 806 807
4 808 809 810 811
4 812 813 814 815
4 816 817 818 819
4 820 821 822 823
4 824 825 826 827
4 828 829 830 831
4 832 833 834 835
4 836 837 838 839
4 840 841 842 843
4 844 845 846 847
4 848 849 850 851
4 852 853 854 855
4 856 857 858 859
4 860 861 862 863
4 864 865 866 867
4 868 869 870 871
4 872 873 874 875
4 876 877 878 879
4 880 881 882 883
4 884 885 886 887
4 888 889 890 891
4 892 893 894 895
4 896 897 898 899
4 900 901 902 903
4 904 905 906 907
4 908 909 910 911
4 912 913 914 915
4 916 917 918 919
4 920 921 922 923
4 924 925 926 927
4 928 929 930 931
4 932 933 934 935
4 936 937 938 939
4 940 941 942 943
4 944 945 946 947
4 948 949 950 951
4 952 953 954 955
4 956 957 958 959
4 960 961 962 963
4 964 965 966 967
4 968 969 970 971
4 972 973 974 975
4 976 977 978 979
4 980 981 982 983
4 984 985 986 987
4 988 989 990 991
4 992 993 994 995
4 996 997 998 999
4 1000 1001 1002 1003
4 1004 1005 1006 1007
4 1008 1009 1010 1011
4 1012 1013 1014 1015
4 1016 1017 1018 1019
4 1020 1021 1022 1023
4 1024 1025 1026 1027
4 1028 1029 1030 1031
4 1032 1033 1034 1035
4 1036 1037 1038 1039
4 1040 1041 1042 1043
4 1044 1045 1046 1047
4 1048 1049 1050 1051
4 1052 1053 1054 1055
4 1056 1057 1058 1059
4 1060 1061 1062 1063
4 1064 1065 1066 1067
4 1068 1069 1070 1071
4 1072 1073 1074 1075
4 1076 1077 1078 1079
4 1080 1081 1082 1083
4 1084 1085 1086 1087
4 1088 1089 1090 1091
4 1092 1093 1094 1095
4 1096 1097 1098 1099
4 1100 1101 1102 1103
4 1104 1105 1106 1107
4 1108 1109 1110 1111
4 1112 1113 1114 1115
4 1116 1117 1118 1119
4 1120 1121 1122 1123
4 1124 1125 1126 1127
4 1128 1129 1130 1131
4 1132 1133 1134 1135
4 1136 1137 1138 1139
4 1140 1141 1142 1143
4 1144 1145 1146 1147
4 1148 1149 1150 1151
4 1152 1153 1154 1155
4 1156 1157 1158 1159
4 1160 1161 1162 1163
4 1164 1165 1166 1167
4 1168 1169 1170 1171
4 1172 1173 1174 1175
4 1176 1177 1178 1179
4 1180 1181 1182 1183
4 1184 1185 1186 1187
4 1188 1189 1190 1191
4 1192 1193 1194 1195
4 1196 1197 1198 1199
4 1200 1201 1202 1203
4 1204 1205 1206 1207
4 1208 1209 1210 1211
4 1212 1213 1214 1215
4 1216 1217 1218 1219
4 1220 1221 1222 1223
4 1224 1225 1226 1227
4 1228 1229 1230 1231
4 1232 1233 1234 1235
4 1236 1237 1238 1239
4 1240 1241 1242 1243
4 1244 1245 1246 1247
