ply
format ascii 1.0
element vertex 474
property float x
property float y
property float z
property float nx
property float ny
property float nz
element quads 116
property list uchar int vertex_indices
element triads 2
property list uchar int vertex_indices
end_header
579 460 0 1 0 0
579 308 0 1 0 0
579 308 100 1 0 0
579 460 100 1 0 0
569 460 0 -1 -0 0
569 308 0 -1 -0 0
569 308 100 -1 -0 0
569 460 100 -1 -0 0
569 308 0 -1 0 0
569 526 0 -1 0 0
569 526 100 -1 0 0
569 308 100 -1 0 0
579 308 0 1 -0 0
579 526 0 1 -0 0
579 526 100 1 -0 0
579 308 100 1 -0 0
405 526 0 1 0 0
405 405 0 1 0 0
405 405 100 1 0 0
405 526 100 1 0 0
395 526 0 -1 -0 0
395 410 0 -1 -0 0
395 410 100 -1 -0 0
395 526 100 -1 -0 0
395 415 0 -1 0 0
395 455 0 -1 0 0
395 455 100 -1 0 0
395 415 100 -1 0 0
405 410 0 1 -0 0
405 455 0 1 -0 0
405 455 100 1 -0 0
405 410 100 1 -0 0
405 405 0 -0 -1 0
336 405 0 -0 -1 0
336 405 100 -0 -1 0
405 405 100 -0 -1 0
395 415 0 0 1 0
10379389766205440 400 0 0 1 0
10379389766205440 400 100 0 1 0
395 415 100 0 1 0
150 216 0 -0 1 0
468 216 0 -0 1 0
468 216 100 -0 1 0
150 216 100 -0 1 0
150 206 0 0 -1 0
468 206 0 0 -1 0
468 206 100 0 -1 0
150 206 100 0 -1 0
428 398 0 -0 1 0
572 398 0 -0 1 0
572 398 100 -0 1 0
428 398 100 -0 1 0
428 388 0 0 -1 0
572 388 0 0 -1 0
572 388 100 0 -1 0
428 388 100 0 -1 0
581 114 0 1 0 0
581 60 0 1 0 0
581 60 100 1 0 0
581 114 100 1 0 0
571 114 0 -1 -0 0
571 60 0 -1 -0 0
571 60 100 -1 -0 0
571 114 100 -1 -0 0
156 84 0 1 0 0
156 60 0 1 0 0
156 60 100 1 0 0
156 84 100 1 0 0
146 84 0 -1 -0 0
146 60 0 -1 -0 0
146 60 100 -1 -0 0
146 84 100 -1 -0 0
377 264 0 -0 1 0
425 264 0 -0 1 0
425 264 100 -0 1 0
377 264 100 -0 1 0
377 254 0 0 -1 0
425 254 0 0 -1 0
425 254 100 0 -1 0
377 254 100 0 -1 0
305 121 0 1 0 0
305 60 0 1 0 0
305 60 100 1 0 0
305 121 100 1 0 0
295 121 0 -1 -0 0
295 60 0 -1 -0 0
295 60 100 -1 -0 0
295 121 100 -1 -0 0
295 60 0 -1 0 0
295 119 0 -1 0 0
295 119 100 -1 0 0
295 60 100 -1 0 0
305 60 0 1 -0 0
305 119 0 1 -0 0
305 119 100 1 -0 0
305 60 100 1 -0 0
305 210 0 1 0 0
305 187 0 1 0 0
305 187 100 1 0 0
305 210 100 1 0 0
295 210 0 -1 -0 0
295 187 0 -1 -0 0
295 187 100 -1 -0 0
295 210 100 -1 -0 0
305 210 0 1 0 0
305 119 0 1 0 0
305 119 100 1 0 0
305 210 100 1 0 0
295 210 0 -1 -0 0
295 119 0 -1 -0 0
295 119 100 -1 -0 0
295 210 100 -1 -0 0
455 64 0 -0 1 0
516 64 0 -0 1 0
516 64 100 -0 1 0
455 64 100 -0 1 0
455 54 0 0 -1 0
516 54 0 0 -1 0
516 54 100 0 -1 0
455 54 100 0 -1 0
445 64 0 -0 1 0
507 64 0 -0 1 0
507 64 100 -0 1 0
445 64 100 -0 1 0
445 54 0 0 -1 0
507 54 0 0 -1 0
507 54 100 0 -1 0
445 54 100 0 -1 0
200 410 0 1 0 0
200 212 0 1 0 0
200 212 100 1 0 0
200 410 100 1 0 0
190 410 0 -1 -0 0
190 212 0 -1 -0 0
190 212 100 -1 -0 0
190 410 100 -1 -0 0
458 49 0 -0 1 0
514 49 0 -0 1 0
514 49 100 -0 1 0
458 49 100 -0 1 0
458 39 0 0 -1 0
514 39 0 0 -1 0
514 39 100 0 -1 0
458 39 100 0 -1 0
341 455 0 1 0 0
341 415 0 1 0 0
341 415 100 1 0 0
341 455 100 1 0 0
331 455 0 -1 -0 0
331 410 0 -1 -0 0
331 410 100 -1 -0 0
331 455 100 -1 -0 0
341 415 0 1 0 0
341 363 0 1 0 0
341 363 100 1 0 0
341 415 100 1 0 0
331 410 0 -1 -0 0
331 363 0 -1 -0 0
331 363 100 -1 -0 0
331 410 100 -1 -0 0
336 405 0 -0 -1 0
196 405 0 -0 -1 0
196 405 100 -0 -1 0
336 405 100 -0 -1 0
341 415 0 0 1 0
196 415 0 0 1 0
196 415 100 0 1 0
341 415 100 0 1 0
341 415 0 -0 1 0
342 415 0 -0 1 0
342 415 100 -0 1 0
341 415 100 -0 1 0
10379389766205440 400 0 0 -1 0
342 405 0 0 -1 0
342 405 100 0 -1 0
10379389766205440 400 100 0 -1 0
579 460 0 575.1907958984375 457.97369384765625 0
569 460 0 575.1907958984375 457.97369384765625 0
569 460 100 575.1907958984375 457.97369384765625 0
579 460 100 575.1907958984375 457.97369384765625 0
569 526 0 566.389892578125 524.587158203125 0
579 526 0 566.389892578125 524.587158203125 0
579 526 100 566.389892578125 524.587158203125 0
569 526 100 566.389892578125 524.587158203125 0
405 526 0 401.65289306640625 522.65289306640625 0
395 526 0 401.65289306640625 522.65289306640625 0
395 526 100 401.65289306640625 522.65289306640625 0
405 526 100 401.65289306640625 522.65289306640625 0
150 216 0 148.528305053710938 215.320755004882812 0
150 206 0 148.528305053710938 215.320755004882812 0
150 206 100 148.528305053710938 215.320755004882812 0
150 216 100 148.528305053710938 215.320755004882812 0
468 216 0 467.528289794921875 215.320755004882812 0
468 206 0 467.528289794921875 215.320755004882812 0
468 206 100 467.528289794921875 215.320755004882812 0
468 216 100 467.528289794921875 215.320755004882812 0
428 398 0 424.02777099609375 395.236114501953125 0
428 388 0 424.02777099609375 395.236114501953125 0
428 388 100 424.02777099609375 395.236114501953125 0
428 398 100 424.02777099609375 395.236114501953125 0
572 398 0 569.02777099609375 395.236114501953125 0
572 388 0 569.02777099609375 395.236114501953125 0
572 388 100 569.02777099609375 395.236114501953125 0
572 398 100 569.02777099609375 395.236114501953125 0
581 114 0 570.24072265625 112.888885498046875 0
571 114 0 570.24072265625 112.888885498046875 0
571 114 100 570.24072265625 112.888885498046875 0
581 114 100 570.24072265625 112.888885498046875 0
581 60 0 570.24072265625 57.8888893127441406 0
571 60 0 570.24072265625 57.8888893127441406 0
571 60 100 570.24072265625 57.8888893127441406 0
581 60 100 570.24072265625 57.8888893127441406 0
395 455 0 385.125 444.625 0
405 455 0 385.125 444.625 0
405 455 100 385.125 444.625 0
395 455 100 385.125 444.625 0
156 84 0 149.5 81.5 0
146 84 0 149.5 81.5 0
146 84 100 149.5 81.5 0
156 84 100 149.5 81.5 0
156 60 0 149.5 56.5 0
146 60 0 149.5 56.5 0
146 60 100 149.5 56.5 0
156 60 100 149.5 56.5 0
377 264 0 368.145843505859375 258.5 0
377 254 0 368.145843505859375 258.5 0
377 254 100 368.145843505859375 258.5 0
377 264 100 368.145843505859375 258.5 0
425 264 0 417.145843505859375 258.5 0
425 254 0 417.145843505859375 258.5 0
425 254 100 417.145843505859375 258.5 0
425 264 100 417.145843505859375 258.5 0
305 121 0 300 120.016395568847656 0
295 121 0 300 120.016395568847656 0
295 121 100 300 120.016395568847656 0
305 121 100 300 120.016395568847656 0
305 187 0 291.7391357421875 177.86956787109375 0
295 187 0 291.7391357421875 177.86956787109375 0
295 187 100 291.7391357421875 177.86956787109375 0
305 187 100 291.7391357421875 177.86956787109375 0
455 64 0 446.540985107421875 62.9508209228515625 0
455 54 0 446.540985107421875 62.9508209228515625 0
455 54 100 446.540985107421875 62.9508209228515625 0
455 64 100 446.540985107421875 62.9508209228515625 0
516 64 0 508.540985107421875 62.9508209228515625 0
516 54 0 508.540985107421875 62.9508209228515625 0
516 54 100 508.540985107421875 62.9508209228515625 0
516 64 100 508.540985107421875 62.9508209228515625 0
445 64 0 436.82257080078125 62.967742919921875 0
445 54 0 436.82257080078125 62.967742919921875 0
445 54 100 436.82257080078125 62.967742919921875 0
445 64 100 436.82257080078125 62.967742919921875 0
507 64 0 499.82257080078125 62.967742919921875 0
507 54 0 499.82257080078125 62.967742919921875 0
507 54 100 499.82257080078125 62.967742919921875 0
507 64 100 499.82257080078125 62.967742919921875 0
200 410 0 198.989898681640625 408.929290771484375 0
190 410 0 198.989898681640625 408.929290771484375 0
190 410 100 198.989898681640625 408.929290771484375 0
200 410 100 198.989898681640625 408.929290771484375 0
200 212 0 198.989898681640625 209.929290771484375 0
190 212 0 198.989898681640625 209.929290771484375 0
190 212 100 198.989898681640625 209.929290771484375 0
200 212 100 198.989898681640625 209.929290771484375 0
458 49 0 448.821441650390625 48.125 0
458 39 0 448.821441650390625 48.125 0
458 39 100 448.821441650390625 48.125 0
458 49 100 448.821441650390625 48.125 0
514 49 0 505.821441650390625 48.125 0
514 39 0 505.821441650390625 48.125 0
514 39 100 505.821441650390625 48.125 0
514 49 100 505.821441650390625 48.125 0
341 455 0 332.475006103515625 444.625 0
331 455 0 332.475006103515625 444.625 0
331 455 100 332.475006103515625 444.625 0
341 455 100 332.475006103515625 444.625 0
341 363 0 334.44232177734375 355.01922607421875 0
331 363 0 334.44232177734375 355.01922607421875 0
331 363 100 334.44232177734375 355.01922607421875 0
341 363 100 334.44232177734375 355.01922607421875 0
196 405 0 193.600006103515625 402.107147216796875 0
196 415 0 193.600006103515625 402.107147216796875 0
196 415 100 193.600006103515625 402.107147216796875 0
196 405 100 193.600006103515625 402.107147216796875 0
342 415 0 1 0 0
342 405 0 1 0 0
342 405 100 1 0 0
342 415 100 1 0 0
579 460 0 0 0 -1
569 460 0 0 0 -1
569 308 0 0 0 -1
579 308 0 0 0 -1
579 460 100 0 0 1
569 460 100 0 0 1
569 308 100 0 0 1
579 308 100 0 0 1
569 308 0 0 0 -1
579 308 0 0 0 -1
579 526 0 0 0 -1
569 526 0 0 0 -1
569 308 100 0 0 1
579 308 100 0 0 1
579 526 100 0 0 1
569 526 100 0 0 1
405 526 0 0 0 -1
395 526 0 0 0 -1
395 410 0 0 0 -1
405 405 0 0 0 -1
405 526 100 0 0 1
395 526 100 0 0 1
395 410 100 0 0 1
405 405 100 0 0 1
395 415 0 0 0 -1
405 410 0 0 0 -1
405 455 0 0 0 -1
395 455 0 0 0 -1
395 415 100 0 0 1
405 410 100 0 0 1
405 455 100 0 0 1
395 455 100 0 0 1
405 405 0 0 0 -1
395 415 0 0 0 -1
10379389766205440 400 0 0 0 -1
336 405 0 0 0 -1
405 405 100 0 0 1
395 415 100 0 0 1
10379389766205440 400 100 0 0 1
336 405 100 0 0 1
150 216 0 0 0 -1
150 206 0 0 0 -1
468 206 0 0 0 -1
468 216 0 0 0 -1
150 216 100 0 0 1
150 206 100 0 0 1
468 206 100 0 0 1
468 216 100 0 0 1
428 398 0 0 0 -1
428 388 0 0 0 -1
572 388 0 0 0 -1
572 398 0 0 0 -1
428 398 100 0 0 1
428 388 100 0 0 1
572 388 100 0 0 1
572 398 100 0 0 1
581 114 0 0 0 -1
571 114 0 0 0 -1
571 60 0 0 0 -1
581 60 0 0 0 -1
581 114 100 0 0 1
571 114 100 0 0 1
571 60 100 0 0 1
581 60 100 0 0 1
156 84 0 0 0 -1
146 84 0 0 0 -1
146 60 0 0 0 -1
156 60 0 0 0 -1
156 84 100 0 0 1
146 84 100 0 0 1
146 60 100 0 0 1
156 60 100 0 0 1
377 264 0 0 0 -1
377 254 0 0 0 -1
425 254 0 0 0 -1
425 264 0 0 0 -1
377 264 100 0 0 1
377 254 100 0 0 1
425 254 100 0 0 1
425 264 100 0 0 1
305 121 0 0 0 -1
295 121 0 0 0 -1
295 60 0 0 0 -1
305 60 0 0 0 -1
305 121 100 0 0 1
295 121 100 0 0 1
295 60 100 0 0 1
305 60 100 0 0 1
295 60 0 0 0 -1
305 60 0 0 0 -1
305 119 0 0 0 -1
295 119 0 0 0 -1
295 60 100 0 0 1
305 60 100 0 0 1
305 119 100 0 0 1
295 119 100 0 0 1
305 210 0 0 0 -1
295 210 0 0 0 -1
295 187 0 0 0 -1
305 187 0 0 0 -1
305 210 100 0 0 1
295 210 100 0 0 1
295 187 100 0 0 1
305 187 100 0 0 1
305 210 0 0 0 -1
295 210 0 0 0 -1
295 119 0 0 0 -1
305 119 0 0 0 -1
305 210 100 0 0 1
295 210 100 0 0 1
295 119 100 0 0 1
305 119 100 0 0 1
455 64 0 0 0 -1
455 54 0 0 0 -1
516 54 0 0 0 -1
516 64 0 0 0 -1
455 64 100 0 0 1
455 54 100 0 0 1
516 54 100 0 0 1
516 64 100 0 0 1
445 64 0 0 0 -1
445 54 0 0 0 -1
507 54 0 0 0 -1
507 64 0 0 0 -1
445 64 100 0 0 1
445 54 100 0 0 1
507 54 100 0 0 1
507 64 100 0 0 1
200 410 0 0 0 -1
190 410 0 0 0 -1
190 212 0 0 0 -1
200 212 0 0 0 -1
200 410 100 0 0 1
190 410 100 0 0 1
190 212 100 0 0 1
200 212 100 0 0 1
458 49 0 0 0 -1
458 39 0 0 0 -1
514 39 0 0 0 -1
514 49 0 0 0 -1
458 49 100 0 0 1
458 39 100 0 0 1
514 39 100 0 0 1
514 49 100 0 0 1
341 455 0 0 0 -1
331 455 0 0 0 -1
331 410 0 0 0 -1
341 415 0 0 0 -1
341 455 100 0 0 1
331 455 100 0 0 1
331 410 100 0 0 1
341 415 100 0 0 1
341 415 0 0 0 -1
331 410 0 0 0 -1
331 363 0 0 0 -1
341 363 0 0 0 -1
341 415 100 0 0 1
331 410 100 0 0 1
331 363 100 0 0 1
341 363 100 0 0 1
336 405 0 0 0 -1
341 415 0 0 0 -1
196 415 0 0 0 -1
196 405 0 0 0 -1
336 405 100 0 0 1
341 415 100 0 0 1
196 415 100 0 0 1
196 405 100 0 0 1
341 415 0 0 0 -1
10379389766205440 400 0 0 0 -1
342 405 0 0 0 -1
342 415 0 0 0 -1
341 415 100 0 0 1
10379389766205440 400 100 0 0 1
342 405 100 0 0 1
342 415 100 0 0 1
395 415 0 0 0 -1
405 405 0 0 0 -1
395 415 100 0 0 1
405 405 100 0 0 1
341 415 0 0 0 -1
10379389766205440 400 0 0 0 -1
341 415 0 0 0 -1
341 415 100 0 0 1
10379389766205440 400 100 0 0 1
341 415 100 0 0 1
4 0 1 2 3
4 4 5 6 7
4 8 9 10 11
4 12 13 14 15
4 16 17 18 19
4 20 21 22 23
4 24 25 26 27
4 28 29 30 31
4 32 33 34 35
4 36 37 38 39
4 40 41 42 43
4 44 45 46 47
4 48 49 50 51
4 52 53 54 55
4 56 57 58 59
4 60 61 62 63
4 64 65 66 67
4 68 69 70 71
4 72 73 74 75
4 76 77 78 79
4 80 81 82 83
4 84 85 86 87
4 88 89 90 91
4 92 93 94 95
4 96 97 98 99
4 100 101 102 103
4 104 105 106 107
4 108 109 110 111
4 112 113 114 115
4 116 117 118 119
4 120 121 122 123
4 124 125 126 127
4 128 129 130 131
4 132 133 134 135
4 136 137 138 139
4 140 141 142 143
4 144 145 146 147
4 148 149 150 151
4 152 153 154 155
4 156 157 158 159
4 160 161 162 163
4 164 165 166 167
4 168 169 170 171
4 172 173 174 175
4 176 177 178 179
4 180 181 182 183
4 184 185 186 187
4 188 189 190 191
4 192 193 194 195
4 196 197 198 199
4 200 201 202 203
4 204 205 206 207
4 208 209 210 211
4 212 213 214 215
4 216 217 218 219
4 220 221 222 223
4 224 225 226 227
4 228 229 230 231
4 232 233 234 235
4 236 237 238 239
4 240 241 242 243
4 244 245 246 247
4 248 249 250 251
4 252 253 254 255
4 256 257 258 259
4 260 261 262 263
4 264 265 266 267
4 268 269 270 271
4 272 273 274 275
4 276 277 278 279
4 280 281 282 283
4 284 285 286 287
4 288 289 290 291
4 292 293 294 295
4 296 297 298 299
4 300 301 302 303
4 304 305 306 307
4 308 309 310 311
4 312 313 314 315
4 316 317 318 319
4 320 321 322 323
4 324 325 326 327
4 328 329 330 331
4 332 333 334 335
4 336 337 338 339
4 340 341 342 343
4 344 345 346 347
4 348 349 350 351
4 352 353 354 355
4 356 357 358 359
4 360 361 362 363
4 364 365 366 367
4 368 369 370 371
4 372 373 374 375
4 376 377 378 379
4 380 381 382 383
4 384 385 386 387
4 388 389 390 391
4 392 393 394 395
4 396 397 398 399
4 400 401 402 403
4 404 405 406 407
4 408 409 410 411
4 412 413 414 415
4 416 417 418 419
4 420 421 422 423
4 424 425 426 427
4 428 429 430 431
4 432 433 434 435
4 436 437 438 439
4 440 441 442 443
4 444 445 446 447
4 448 449 450 451
4 452 453 454 455
4 456 457 458 459
4 460 461 462 463
3 468 469 470
3 471 472 473
