ply
format ascii 1.0
element vertex 376
property float x
property float y
property float z
property float nx
property float ny
property float nz
element quads 94
property list uchar int vertex_indices
end_header
202 388 0 1 0 0
202 235 0 1 0 0
202 235 100 1 0 0
202 388 100 1 0 0
192 388 0 -1 -0 0
192 235 0 -1 -0 0
192 235 100 -1 -0 0
192 388 100 -1 -0 0
376 339 0 -0 1 0
537 339 0 -0 1 0
537 339 100 -0 1 0
376 339 100 -0 1 0
376 329 0 0 -1 0
527 329 0 0 -1 0
527 329 100 0 -1 0
376 329 100 0 -1 0
537 339 0 1 0 0
537 168 0 1 0 0
537 168 100 1 0 0
537 339 100 1 0 0
527 329 0 -1 -0 0
527 168 0 -1 -0 0
527 168 100 -1 -0 0
527 329 100 -1 -0 0
534 285 0 -0 1 0
625 285 0 -0 1 0
625 285 100 -0 1 0
534 285 100 -0 1 0
534 275 0 0 -1 0
635 275 0 0 -1 0
635 275 100 0 -1 0
534 275 100 0 -1 0
625 285 0 -1 0 0
625 474 0 -1 0 0
625 474 100 -1 0 0
625 285 100 -1 0 0
635 275 0 1 -0 0
635 474 0 1 -0 0
635 474 100 1 -0 0
635 275 100 1 -0 0
376 338 0 -0 1 0
483 338 0 -0 1 0
483 338 100 -0 1 0
376 338 100 -0 1 0
376 328 0 0 -1 0
483 328 0 0 -1 0
483 328 100 0 -1 0
376 328 100 0 -1 0
376 338 0 -0 1 0
428 338 0 -0 1 0
428 338 100 -0 1 0
376 338 100 -0 1 0
376 328 0 0 -1 0
428 328 0 0 -1 0
428 328 100 0 -1 0
376 328 100 0 -1 0
381 383 0 1 0 0
381 332 0 1 0 0
381 332 100 1 0 0
381 383 100 1 0 0
371 383 0 -1 -0 0
371 332 0 -1 -0 0
371 332 100 -1 -0 0
371 383 100 -1 -0 0
371 332 0 -1 0 0
371 511 0 -1 0 0
371 511 100 -1 0 0
371 332 100 -1 0 0
381 332 0 1 -0 0
381 511 0 1 -0 0
381 511 100 1 -0 0
381 332 100 1 -0 0
198 485 0 -0 1 0
223 485 0 -0 1 0
223 485 100 -0 1 0
198 485 100 -0 1 0
198 475 0 0 -1 0
223 475 0 0 -1 0
223 475 100 0 -1 0
198 475 100 0 -1 0
537 510 0 1 0 0
537 473 0 1 0 0
537 473 100 1 0 0
537 510 100 1 0 0
527 510 0 -1 -0 0
527 473 0 -1 -0 0
527 473 100 -1 -0 0
527 510 100 -1 -0 0
280 324 0 1 0 0
280 238 0 1 0 0
280 238 100 1 0 0
280 324 100 1 0 0
270 324 0 -1 -0 0
270 238 0 -1 -0 0
270 238 100 -1 -0 0
270 324 100 -1 -0 0
202 480 0 1 0 0
202 80 0 1 0 0
202 80 100 1 0 0
202 480 100 1 0 0
192 480 0 -1 -0 0
192 80 0 -1 -0 0
192 80 100 -1 -0 0
192 480 100 -1 -0 0
304 480 0 1 0 0
304 380 0 1 0 0
304 380 100 1 0 0
304 480 100 1 0 0
294 480 0 -1 -0 0
294 380 0 -1 -0 0
294 380 100 -1 -0 0
294 480 100 -1 -0 0
308 121 0 -0 1 0
347 121 0 -0 1 0
347 121 100 -0 1 0
308 121 100 -0 1 0
308 111 0 0 -1 0
347 111 0 0 -1 0
347 111 100 0 -1 0
308 111 100 0 -1 0
274 485 0 -0 1 0
300 485 0 -0 1 0
300 485 100 -0 1 0
274 485 100 -0 1 0
274 475 0 0 -1 0
300 475 0 0 -1 0
300 475 100 0 -1 0
274 475 100 0 -1 0
311 151 0 1 0 0
311 81 0 1 0 0
311 81 100 1 0 0
311 151 100 1 0 0
301 151 0 -1 -0 0
301 81 0 -1 -0 0
301 81 100 -1 -0 0
301 151 100 -1 -0 0
202 388 0 200.679733276367188 386.46405029296875 0
192 388 0 200.679733276367188 386.46405029296875 0
192 388 100 200.679733276367188 386.46405029296875 0
202 388 100 200.679733276367188 386.46405029296875 0
202 235 0 200.679733276367188 232.46405029296875 0
192 235 0 200.679733276367188 232.46405029296875 0
192 235 100 200.679733276367188 232.46405029296875 0
202 235 100 200.679733276367188 232.46405029296875 0
376 339 0 372.664581298828125 336.8944091796875 0
376 329 0 372.664581298828125 336.8944091796875 0
376 329 100 372.664581298828125 336.8944091796875 0
376 339 100 372.664581298828125 336.8944091796875 0
534 285 0 527.13189697265625 281.868133544921875 0
534 275 0 527.13189697265625 281.868133544921875 0
534 275 100 527.13189697265625 281.868133544921875 0
534 285 100 527.13189697265625 281.868133544921875 0
483 338 0 479.485992431640625 334.84112548828125 0
483 328 0 479.485992431640625 334.84112548828125 0
483 328 100 479.485992431640625 334.84112548828125 0
483 338 100 479.485992431640625 334.84112548828125 0
381 383 0 373.5294189453125 376.490203857421875 0
371 383 0 373.5294189453125 376.490203857421875 0
371 383 100 373.5294189453125 376.490203857421875 0
381 383 100 373.5294189453125 376.490203857421875 0
198 485 0 189.080001831054688 465.600006103515625 0
198 475 0 189.080001831054688 465.600006103515625 0
198 475 100 189.080001831054688 465.600006103515625 0
198 485 100 189.080001831054688 465.600006103515625 0
223 485 0 215.080001831054688 465.600006103515625 0
223 475 0 215.080001831054688 465.600006103515625 0
223 475 100 215.080001831054688 465.600006103515625 0
223 485 100 215.080001831054688 465.600006103515625 0
537 510 0 522.48651123046875 497.216217041015625 0
527 510 0 522.48651123046875 497.216217041015625 0
527 510 100 522.48651123046875 497.216217041015625 0
537 510 100 522.48651123046875 497.216217041015625 0
537 473 0 522.48651123046875 459.216217041015625 0
527 473 0 522.48651123046875 459.216217041015625 0
527 473 100 522.48651123046875 459.216217041015625 0
537 473 100 522.48651123046875 459.216217041015625 0
280 324 0 276.744171142578125 321.2325439453125 0
270 324 0 276.744171142578125 321.2325439453125 0
270 324 100 276.744171142578125 321.2325439453125 0
280 324 100 276.744171142578125 321.2325439453125 0
280 238 0 276.744171142578125 234.232559204101562 0
270 238 0 276.744171142578125 234.232559204101562 0
270 238 100 276.744171142578125 234.232559204101562 0
280 238 100 276.744171142578125 234.232559204101562 0
202 480 0 201.4949951171875 479.79998779296875 0
192 480 0 201.4949951171875 479.79998779296875 0
192 480 100 201.4949951171875 479.79998779296875 0
202 480 100 201.4949951171875 479.79998779296875 0
202 80 0 201.4949951171875 78.8000030517578125 0
192 80 0 201.4949951171875 78.8000030517578125 0
192 80 100 201.4949951171875 78.8000030517578125 0
202 80 100 201.4949951171875 78.8000030517578125 0
625 474 0 621.693115234375 472.4920654296875 0
635 474 0 621.693115234375 472.4920654296875 0
635 474 100 621.693115234375 472.4920654296875 0
625 474 100 621.693115234375 472.4920654296875 0
537 168 0 533.859619140625 166.017547607421875 0
527 168 0 533.859619140625 166.017547607421875 0
527 168 100 533.859619140625 166.017547607421875 0
537 168 100 533.859619140625 166.017547607421875 0
371 511 0 368.9273681640625 509.145263671875 0
381 511 0 368.9273681640625 509.145263671875 0
381 511 100 368.9273681640625 509.145263671875 0
371 511 100 368.9273681640625 509.145263671875 0
304 480 0 300.959991455078125 476.20001220703125 0
294 480 0 300.959991455078125 476.20001220703125 0
294 480 100 300.959991455078125 476.20001220703125 0
304 480 100 300.959991455078125 476.20001220703125 0
304 380 0 300.959991455078125 375.20001220703125 0
294 380 0 300.959991455078125 375.20001220703125 0
294 380 100 300.959991455078125 375.20001220703125 0
304 380 100 300.959991455078125 375.20001220703125 0
428 338 0 420.76922607421875 331.5 0
428 328 0 420.76922607421875 331.5 0
428 328 100 420.76922607421875 331.5 0
428 338 100 420.76922607421875 331.5 0
308 121 0 299.102569580078125 117.897438049316406 0
308 111 0 299.102569580078125 117.897438049316406 0
308 111 100 299.102569580078125 117.897438049316406 0
308 121 100 299.102569580078125 117.897438049316406 0
347 121 0 339.102569580078125 117.897438049316406 0
347 111 0 339.102569580078125 117.897438049316406 0
347 111 100 339.102569580078125 117.897438049316406 0
347 121 100 339.102569580078125 117.897438049316406 0
274 485 0 262.4615478515625 466.346160888671875 0
274 475 0 262.4615478515625 466.346160888671875 0
274 475 100 262.4615478515625 466.346160888671875 0
274 485 100 262.4615478515625 466.346160888671875 0
300 485 0 289.4615478515625 466.346160888671875 0
300 475 0 289.4615478515625 466.346160888671875 0
300 475 100 289.4615478515625 466.346160888671875 0
300 485 100 289.4615478515625 466.346160888671875 0
311 151 0 306.55712890625 149.842849731445312 0
301 151 0 306.55712890625 149.842849731445312 0
301 151 100 306.55712890625 149.842849731445312 0
311 151 100 306.55712890625 149.842849731445312 0
311 81 0 306.55712890625 78.8428573608398438 0
301 81 0 306.55712890625 78.8428573608398438 0
301 81 100 306.55712890625 78.8428573608398438 0
311 81 100 306.55712890625 78.8428573608398438 0
202 388 0 0 0 -1
192 388 0 0 0 -1
192 235 0 0 0 -1
202 235 0 0 0 -1
202 388 100 0 0 1
192 388 100 0 0 1
192 235 100 0 0 1
202 235 100 0 0 1
376 339 0 0 0 -1
376 329 0 0 0 -1
527 329 0 0 0 -1
537 339 0 0 0 -1
376 339 100 0 0 1
376 329 100 0 0 1
527 329 100 0 0 1
537 339 100 0 0 1
537 339 0 0 0 -1
527 329 0 0 0 -1
527 168 0 0 0 -1
537 168 0 0 0 -1
537 339 100 0 0 1
527 329 100 0 0 1
527 168 100 0 0 1
537 168 100 0 0 1
534 285 0 0 0 -1
534 275 0 0 0 -1
635 275 0 0 0 -1
625 285 0 0 0 -1
534 285 100 0 0 1
534 275 100 0 0 1
635 275 100 0 0 1
625 285 100 0 0 1
625 285 0 0 0 -1
635 275 0 0 0 -1
635 474 0 0 0 -1
625 474 0 0 0 -1
625 285 100 0 0 1
635 275 100 0 0 1
635 474 100 0 0 1
625 474 100 0 0 1
376 338 0 0 0 -1
376 328 0 0 0 -1
483 328 0 0 0 -1
483 338 0 0 0 -1
376 338 100 0 0 1
376 328 100 0 0 1
483 328 100 0 0 1
483 338 100 0 0 1
376 338 0 0 0 -1
376 328 0 0 0 -1
428 328 0 0 0 -1
428 338 0 0 0 -1
376 338 100 0 0 1
376 328 100 0 0 1
428 328 100 0 0 1
428 338 100 0 0 1
381 383 0 0 0 -1
371 383 0 0 0 -1
371 332 0 0 0 -1
381 332 0 0 0 -1
381 383 100 0 0 1
371 383 100 0 0 1
371 332 100 0 0 1
381 332 100 0 0 1
371 332 0 0 0 -1
381 332 0 0 0 -1
381 511 0 0 0 -1
371 511 0 0 0 -1
371 332 100 0 0 1
381 332 100 0 0 1
381 511 100 0 0 1
371 511 100 0 0 1
198 485 0 0 0 -1
198 475 0 0 0 -1
223 475 0 0 0 -1
223 485 0 0 0 -1
198 485 100 0 0 1
198 475 100 0 0 1
223 475 100 0 0 1
223 485 100 0 0 1
537 510 0 0 0 -1
527 510 0 0 0 -1
527 473 0 0 0 -1
537 473 0 0 0 -1
537 510 100 0 0 1
527 510 100 0 0 1
527 473 100 0 0 1
537 473 100 0 0 1
280 324 0 0 0 -1
270 324 0 0 0 -1
270 238 0 0 0 -1
280 238 0 0 0 -1
280 324 100 0 0 1
270 324 100 0 0 1
270 238 100 0 0 1
280 238 100 0 0 1
202 480 0 0 0 -1
192 480 0 0 0 -1
192 80 0 0 0 -1
202 80 0 0 0 -1
202 480 100 0 0 1
192 480 100 0 0 1
192 80 100 0 0 1
202 80 100 0 0 1
304 480 0 0 0 -1
294 480 0 0 0 -1
294 380 0 0 0 -1
304 380 0 0 0 -1
304 480 100 0 0 1
294 480 100 0 0 1
294 380 100 0 0 1
304 380 100 0 0 1
308 121 0 0 0 -1
308 111 0 0 0 -1
347 111 0 0 0 -1
347 121 0 0 0 -1
308 121 100 0 0 1
308 111 100 0 0 1
347 111 100 0 0 1
347 121 100 0 0 1
274 485 0 0 0 -1
274 475 0 0 0 -1
300 475 0 0 0 -1
300 485 0 0 0 -1
274 485 100 0 0 1
274 475 100 0 0 1
300 475 100 0 0 1
300 485 100 0 0 1
311 151 0 0 0 -1
301 151 0 0 0 -1
301 81 0 0 0 -1
311 81 0 0 0 -1
311 151 100 0 0 1
301 151 100 0 0 1
301 81 100 0 0 1
311 81 100 0 0 1
4 0 1 2 3
4 4 5 6 7
4 8 9 10 11
4 12 13 14 15
4 16 17 18 19
4 20 21 22 23
4 24 25 26 27
4 28 29 30 31
4 32 33 34 35
4 36 37 38 39
4 40 41 42 43
4 44 45 46 47
4 48 49 50 51
4 52 53 54 55
4 56 57 58 59
4 60 61 62 63
4 64 65 66 67
4 68 69 70 71
4 72 73 74 75
4 76 77 78 79
4 80 81 82 83
4 84 85 86 87
4 88 89 90 91
4 92 93 94 95
4 96 97 98 99
4 100 101 102 103
4 104 105 106 107
4 108 109 110 111
4 112 113 114 115
4 116 117 118 119
4 120 121 122 123
4 124 125 126 127
4 128 129 130 131
4 132 133 134 135
4 136 137 138 139
4 140 141 142 143
4 144 145 146 147
4 148 149 150 151
4 152 153 154 155
4 156 157 158 159
4 160 161 162 163
4 164 165 166 167
4 168 169 170 171
4 172 173 174 175
4 176 177 178 179
4 180 181 182 183
4 184 185 186 187
4 188 189 190 191
4 192 193 194 195
4 196 197 198 199
4 200 201 202 203
4 204 205 206 207
4 208 209 210 211
4 212 213 214 215
4 216 217 218 219
4 220 221 222 223
4 224 225 226 227
4 228 229 230 231
4 232 233 234 235
4 236 237 238 239
4 240 241 242 243
4 244 245 246 247
4 248 249 250 251
4 252 253 254 255
4 256 257 258 259
4 260 261 262 263
4 264 265 266 267
4 268 269 270 271
4 272 273 274 275
4 276 277 278 279
4 280 281 282 283
4 284 285 286 287
4 288 289 290 291
4 292 293 294 295
4 296 297 298 299
4 300 301 302 303
4 304 305 306 307
4 308 309 310 311
4 312 313 314 315
4 316 317 318 319
4 320 321 322 323
4 324 325 326 327
4 328 329 330 331
4 332 333 334 335
4 336 337 338 339
4 340 341 342 343
4 344 345 346 347
4 348 349 350 351
4 352 353 354 355
4 356 357 358 359
4 360 361 362 363
4 364 365 366 367
4 368 369 370 371
4 372 373 374 375
