ply
format ascii 1.0
element vertex 304
property float x
property float y
property float z
property float nx
property float ny
property float nz
element quads 76
property list uchar int vertex_indices
end_header
661 440 0 1 0 0
661 114 0 1 0 0
661 114 100 1 0 0
661 440 100 1 0 0
651 440 0 -1 -0 0
651 114 0 -1 -0 0
651 114 100 -1 -0 0
651 440 100 -1 -0 0
651 114 0 -1 0 0
651 264 0 -1 0 0
651 264 100 -1 0 0
651 114 100 -1 0 0
661 114 0 1 -0 0
661 264 0 1 -0 0
661 264 100 1 -0 0
661 114 100 1 -0 0
176 255 0 1 0 0
176 176 0 1 0 0
176 176 100 1 0 0
176 255 100 1 0 0
166 255 0 -1 -0 0
166 176 0 -1 -0 0
166 176 100 -1 -0 0
166 255 100 -1 -0 0
459 256 0 1 0 0
459 112 0 1 0 0
459 112 100 1 0 0
459 256 100 1 0 0
449 256 0 -1 -0 0
449 112 0 -1 -0 0
449 112 100 -1 -0 0
449 256 100 -1 -0 0
244 212 0 1 0 0
244 170 0 1 0 0
244 170 100 1 0 0
244 212 100 1 0 0
234 212 0 -1 -0 0
234 170 0 -1 -0 0
234 170 100 -1 -0 0
234 212 100 -1 -0 0
168 323 0 -0 1 0
366 323 0 -0 1 0
366 323 100 -0 1 0
168 323 100 -0 1 0
168 313 0 0 -1 0
366 313 0 0 -1 0
366 313 100 0 -1 0
168 313 100 0 -1 0
449 119 0 -0 1 0
512 119 0 -0 1 0
512 119 100 -0 1 0
449 119 100 -0 1 0
449 109 0 0 -1 0
512 109 0 0 -1 0
512 109 100 0 -1 0
449 109 100 0 -1 0
368 261 0 -0 1 0
452 261 0 -0 1 0
452 261 100 -0 1 0
368 261 100 -0 1 0
368 251 0 0 -1 0
452 251 0 0 -1 0
452 251 100 0 -1 0
368 251 100 0 -1 0
440 445 0 -0 1 0
532 445 0 -0 1 0
532 445 100 -0 1 0
440 445 100 -0 1 0
440 435 0 0 -1 0
532 435 0 0 -1 0
532 435 100 0 -1 0
440 435 100 0 -1 0
583 445 0 -0 1 0
658 445 0 -0 1 0
658 445 100 -0 1 0
583 445 100 -0 1 0
583 435 0 0 -1 0
658 435 0 0 -1 0
658 435 100 0 -1 0
583 435 100 0 -1 0
244 436 0 1 0 0
244 318 0 1 0 0
244 318 100 1 0 0
244 436 100 1 0 0
234 436 0 -1 -0 0
234 318 0 -1 -0 0
234 318 100 -1 -0 0
234 436 100 -1 -0 0
370 262 0 1 0 0
370 114 0 1 0 0
370 114 100 1 0 0
370 262 100 1 0 0
360 262 0 -1 -0 0
360 114 0 -1 -0 0
360 114 100 -1 -0 0
360 262 100 -1 -0 0
176 440 0 1 0 0
176 308 0 1 0 0
176 308 100 1 0 0
176 440 100 1 0 0
166 440 0 -1 -0 0
166 308 0 -1 -0 0
166 308 100 -1 -0 0
166 440 100 -1 -0 0
661 440 0 658.972412109375 439.650299072265625 0
651 440 0 658.972412109375 439.650299072265625 0
651 440 100 658.972412109375 439.650299072265625 0
661 440 100 658.972412109375 439.650299072265625 0
176 255 0 173.77215576171875 252.77215576171875 0
166 255 0 173.77215576171875 252.77215576171875 0
166 255 100 173.77215576171875 252.77215576171875 0
176 255 100 173.77215576171875 252.77215576171875 0
176 176 0 173.77215576171875 172.77215576171875 0
166 176 0 173.77215576171875 172.77215576171875 0
166 176 100 173.77215576171875 172.77215576171875 0
176 176 100 173.77215576171875 172.77215576171875 0
459 256 0 455.8125 255.22222900390625 0
449 256 0 455.8125 255.22222900390625 0
449 256 100 455.8125 255.22222900390625 0
459 256 100 455.8125 255.22222900390625 0
459 112 0 455.8125 110.222221374511719 0
449 112 0 455.8125 110.222221374511719 0
449 112 100 455.8125 110.222221374511719 0
459 112 100 455.8125 110.222221374511719 0
651 264 0 646.65997314453125 263.239990234375 0
661 264 0 646.65997314453125 263.239990234375 0
661 264 100 646.65997314453125 263.239990234375 0
651 264 100 646.65997314453125 263.239990234375 0
244 212 0 238.190475463867188 207.952377319335938 0
234 212 0 238.190475463867188 207.952377319335938 0
234 212 100 238.190475463867188 207.952377319335938 0
244 212 100 238.190475463867188 207.952377319335938 0
244 170 0 238.190475463867188 164.952377319335938 0
234 170 0 238.190475463867188 164.952377319335938 0
234 170 100 238.190475463867188 164.952377319335938 0
244 170 100 238.190475463867188 164.952377319335938 0
168 323 0 166.151519775390625 321.368682861328125 0
168 313 0 166.151519775390625 321.368682861328125 0
168 313 100 166.151519775390625 321.368682861328125 0
168 323 100 166.151519775390625 321.368682861328125 0
366 323 0 365.151519775390625 321.368682861328125 0
366 313 0 365.151519775390625 321.368682861328125 0
366 313 100 365.151519775390625 321.368682861328125 0
366 323 100 365.151519775390625 321.368682861328125 0
449 119 0 440.873016357421875 117.111114501953125 0
449 109 0 440.873016357421875 117.111114501953125 0
449 109 100 440.873016357421875 117.111114501953125 0
449 119 100 440.873016357421875 117.111114501953125 0
512 119 0 504.873016357421875 117.111114501953125 0
512 109 0 504.873016357421875 117.111114501953125 0
512 109 100 504.873016357421875 117.111114501953125 0
512 119 100 504.873016357421875 117.111114501953125 0
368 261 0 362.619049072265625 257.892852783203125 0
368 251 0 362.619049072265625 257.892852783203125 0
368 251 100 362.619049072265625 257.892852783203125 0
368 261 100 362.619049072265625 257.892852783203125 0
452 261 0 447.619049072265625 257.892852783203125 0
452 251 0 447.619049072265625 257.892852783203125 0
452 251 100 447.619049072265625 257.892852783203125 0
452 261 100 447.619049072265625 257.892852783203125 0
440 445 0 434.217376708984375 440.163055419921875 0
440 435 0 434.217376708984375 440.163055419921875 0
440 435 100 434.217376708984375 440.163055419921875 0
440 445 100 434.217376708984375 440.163055419921875 0
532 445 0 527.2174072265625 440.163055419921875 0
532 435 0 527.2174072265625 440.163055419921875 0
532 435 100 527.2174072265625 440.163055419921875 0
532 445 100 527.2174072265625 440.163055419921875 0
583 445 0 574.2266845703125 439.066680908203125 0
583 435 0 574.2266845703125 439.066680908203125 0
583 435 100 574.2266845703125 439.066680908203125 0
583 445 100 574.2266845703125 439.066680908203125 0
658 445 0 650.2266845703125 439.066680908203125 0
658 435 0 650.2266845703125 439.066680908203125 0
658 435 100 650.2266845703125 439.066680908203125 0
658 445 100 650.2266845703125 439.066680908203125 0
244 436 0 241.932205200195312 433.305084228515625 0
234 436 0 241.932205200195312 433.305084228515625 0
234 436 100 241.932205200195312 433.305084228515625 0
244 436 100 241.932205200195312 433.305084228515625 0
244 318 0 241.932205200195312 314.305084228515625 0
234 318 0 241.932205200195312 314.305084228515625 0
234 318 100 241.932205200195312 314.305084228515625 0
244 318 100 241.932205200195312 314.305084228515625 0
370 262 0 367.5 261.229736328125 0
360 262 0 367.5 261.229736328125 0
360 262 100 367.5 261.229736328125 0
370 262 100 367.5 261.229736328125 0
370 114 0 367.5 112.229728698730469 0
360 114 0 367.5 112.229728698730469 0
360 114 100 367.5 112.229728698730469 0
370 114 100 367.5 112.229728698730469 0
176 440 0 174.666671752929688 437.666656494140625 0
166 440 0 174.666671752929688 437.666656494140625 0
166 440 100 174.666671752929688 437.666656494140625 0
176 440 100 174.666671752929688 437.666656494140625 0
176 308 0 174.666671752929688 304.666656494140625 0
166 308 0 174.666671752929688 304.666656494140625 0
166 308 100 174.666671752929688 304.666656494140625 0
176 308 100 174.666671752929688 304.666656494140625 0
661 440 0 0 0 -1
651 440 0 0 0 -1
651 114 0 0 0 -1
661 114 0 0 0 -1
661 440 100 0 0 1
651 440 100 0 0 1
651 114 100 0 0 1
661 114 100 0 0 1
651 114 0 0 0 -1
661 114 0 0 0 -1
661 264 0 0 0 -1
651 264 0 0 0 -1
651 114 100 0 0 1
661 114 100 0 0 1
661 264 100 0 0 1
651 264 100 0 0 1
176 255 0 0 0 -1
166 255 0 0 0 -1
166 176 0 0 0 -1
176 176 0 0 0 -1
176 255 100 0 0 1
166 255 100 0 0 1
166 176 100 0 0 1
176 176 100 0 0 1
459 256 0 0 0 -1
449 256 0 0 0 -1
449 112 0 0 0 -1
459 112 0 0 0 -1
459 256 100 0 0 1
449 256 100 0 0 1
449 112 100 0 0 1
459 112 100 0 0 1
244 212 0 0 0 -1
234 212 0 0 0 -1
234 170 0 0 0 -1
244 170 0 0 0 -1
244 212 100 0 0 1
234 212 100 0 0 1
234 170 100 0 0 1
244 170 100 0 0 1
168 323 0 0 0 -1
168 313 0 0 0 -1
366 313 0 0 0 -1
366 323 0 0 0 -1
168 323 100 0 0 1
168 313 100 0 0 1
366 313 100 0 0 1
366 323 100 0 0 1
449 119 0 0 0 -1
449 109 0 0 0 -1
512 109 0 0 0 -1
512 119 0 0 0 -1
449 119 100 0 0 1
449 109 100 0 0 1
512 109 100 0 0 1
512 119 100 0 0 1
368 261 0 0 0 -1
368 251 0 0 0 -1
452 251 0 0 0 -1
452 261 0 0 0 -1
368 261 100 0 0 1
368 251 100 0 0 1
452 251 100 0 0 1
452 261 100 0 0 1
440 445 0 0 0 -1
440 435 0 0 0 -1
532 435 0 0 0 -1
532 445 0 0 0 -1
440 445 100 0 0 1
440 435 100 0 0 1
532 435 100 0 0 1
532 445 100 0 0 1
583 445 0 0 0 -1
583 435 0 0 0 -1
658 435 0 0 0 -1
658 445 0 0 0 -1
583 445 100 0 0 1
583 435 100 0 0 1
658 435 100 0 0 1
658 445 100 0 0 1
244 436 0 0 0 -1
234 436 0 0 0 -1
234 318 0 0 0 -1
244 318 0 0 0 -1
244 436 100 0 0 1
234 436 100 0 0 1
234 318 100 0 0 1
244 318 100 0 0 1
370 262 0 0 0 -1
360 262 0 0 0 -1
360 114 0 0 0 -1
370 114 0 0 0 -1
370 262 100 0 0 1
360 262 100 0 0 1
360 114 100 0 0 1
370 114 100 0 0 1
176 440 0 0 0 -1
166 440 0 0 0 -1
166 308 0 0 0 -1
176 308 0 0 0 -1
176 440 100 0 0 1
166 440 100 0 0 1
166 308 100 0 0 1
176 308 100 0 0 1
4 0 1 2 3
4 4 5 6 7
4 8 9 10 11
4 12 13 14 15
4 16 17 18 19
4 20 21 22 23
4 24 25 26 27
4 28 29 30 31
4 32 33 34 35
4 36 37 38 39
4 40 41 42 43
4 44 45 46 47
4 48 49 50 51
4 52 53 54 55
4 56 57 58 59
4 60 61 62 63
4 64 65 66 67
4 68 69 70 71
4 72 73 74 75
4 76 77 78 79
4 80 81 82 83
4 84 85 86 87
4 88 89 90 91
4 92 93 94 95
4 96 97 98 99
4 100 101 102 103
4 104 105 106 107
4 108 109 110 111
4 112 113 114 115
4 116 117 118 119
4 120 121 122 123
4 124 125 126 127
4 128 129 130 131
4 132 133 134 135
4 136 137 138 139
4 140 141 142 143
4 144 145 146 147
4 148 149 150 151
4 152 153 154 155
4 156 157 158 159
4 160 161 162 163
4 164 165 166 167
4 168 169 170 171
4 172 173 174 175
4 176 177 178 179
4 180 181 182 183
4 184 185 186 187
4 188 189 190 191
4 192 193 194 195
4 196 197 198 199
4 200 201 202 203
4 204 205 206 207
4 208 209 210 211
4 212 213 214 215
4 216 217 218 219
4 220 221 222 223
4 224 225 226 227
4 228 229 230 231
4 232 233 234 235
4 236 237 238 239
4 240 241 242 243
4 244 245 246 247
4 248 249 250 251
4 252 253 254 255
4 256 257 258 259
4 260 261 262 263
4 264 265 266 267
4 268 269 270 271
4 272 273 274 275
4 276 277 278 279
4 280 281 282 283
4 284 285 286 287
4 288 289 290 291
4 292 293 294 295
4 296 297 298 299
4 300 301 302 303
