ply
format ascii 1.0
element vertex 628
property float x
property float y
property float z
property float nx
property float ny
property float nz
element quads 156
property list uchar int vertex_indices
end_header
481 190 0 1 0 0
481 35 0 1 0 0
481 35 100 1 0 0
481 190 100 1 0 0
471 190 0 -1 -0 0
471 35 0 -1 -0 0
471 35 100 -1 -0 0
471 190 100 -1 -0 0
167 367 0 1 0 0
167 248 0 1 0 0
167 248 100 1 0 0
167 367 100 1 0 0
157 367 0 -1 -0 0
157 248 0 -1 -0 0
157 248 100 -1 -0 0
157 367 100 -1 -0 0
686 198 0 1 0 0
686 129 0 1 0 0
686 129 100 1 0 0
686 198 100 1 0 0
676 198 0 -1 -0 0
676 129 0 -1 -0 0
676 129 100 -1 -0 0
676 198 100 -1 -0 0
686 379 0 1 0 0
686 289 0 1 0 0
686 289 100 1 0 0
686 379 100 1 0 0
676 379 0 -1 -0 0
676 289 0 -1 -0 0
676 289 100 -1 -0 0
676 379 100 -1 -0 0
354 429 0 1 0 0
354 269 0 1 0 0
354 269 100 1 0 0
354 429 100 1 0 0
344 429 0 -1 -0 0
344 269 0 -1 -0 0
344 269 100 -1 -0 0
344 429 100 -1 -0 0
256 248 0 1 0 0
256 153 0 1 0 0
256 153 100 1 0 0
256 248 100 1 0 0
246 248 0 -1 -0 0
246 153 0 -1 -0 0
246 153 100 -1 -0 0
246 248 100 -1 -0 0
477 139 0 -0 1 0
682 139 0 -0 1 0
682 139 100 -0 1 0
477 139 100 -0 1 0
477 129 0 0 -1 0
682 129 0 0 -1 0
682 129 100 0 -1 0
477 129 100 0 -1 0
602 441 0 1 0 0
602 365 0 1 0 0
602 365 100 1 0 0
602 441 100 1 0 0
592 441 0 -1 -0 0
592 365 0 -1 -0 0
592 365 100 -1 -0 0
592 441 100 -1 -0 0
529 527 0 1 0 0
529 446 0 1 0 0
529 446 100 1 0 0
529 527 100 1 0 0
519 537 0 -1 -0 0
519 436 0 -1 -0 0
519 436 100 -1 -0 0
519 537 100 -1 -0 0
519 537 0 -0 1 0
654 537 0 -0 1 0
654 537 100 -0 1 0
519 537 100 -0 1 0
529 527 0 0 -1 0
654 527 0 0 -1 0
654 527 100 0 -1 0
529 527 100 0 -1 0
529 446 0 -0 1 0
653 446 0 -0 1 0
653 446 100 -0 1 0
529 446 100 -0 1 0
519 436 0 0 -1 0
23573529299517440 448 0 0 -1 0
23573529299517440 448 100 0 -1 0
519 436 100 0 -1 0
255 371 0 -0 1 0
348 371 0 -0 1 0
348 371 100 -0 1 0
255 371 100 -0 1 0
255 361 0 0 -1 0
348 361 0 0 -1 0
348 361 100 0 -1 0
255 361 100 0 -1 0
313 366 0 1 0 0
313 269 0 1 0 0
313 269 100 1 0 0
313 366 100 1 0 0
303 366 0 -1 -0 0
303 269 0 -1 -0 0
303 269 100 -1 -0 0
303 366 100 -1 -0 0
147 248 0 1 0 0
147 158 0 1 0 0
147 158 100 1 0 0
147 248 100 1 0 0
137 248 0 -1 -0 0
137 148 0 -1 -0 0
137 148 100 -1 -0 0
137 248 100 -1 -0 0
147 158 0 -0 1 0
167 158 0 -0 1 0
167 158 100 -0 1 0
147 158 100 -0 1 0
137 148 0 0 -1 0
162 148 0 0 -1 0
162 148 100 0 -1 0
137 148 100 0 -1 0
653 436 0 -0 -1 0
542 436 0 -0 -1 0
542 436 100 -0 -1 0
653 436 100 -0 -1 0
23573529299517440 448 0 0 1 0
542 446 0 0 1 0
542 446 100 0 1 0
23573529299517440 448 100 0 1 0
477 371 0 -0 1 0
682 371 0 -0 1 0
682 371 100 -0 1 0
477 371 100 -0 1 0
477 361 0 0 -1 0
682 361 0 0 -1 0
682 361 100 0 -1 0
477 361 100 0 -1 0
286 414 0 1 0 0
286 368 0 1 0 0
286 368 100 1 0 0
286 414 100 1 0 0
276 414 0 -1 -0 0
276 368 0 -1 -0 0
276 368 100 -1 -0 0
276 414 100 -1 -0 0
142 182 0 -0 1 0
200 182 0 -0 1 0
200 182 100 -0 1 0
142 182 100 -0 1 0
142 172 0 0 -1 0
200 172 0 0 -1 0
200 172 100 0 -1 0
142 172 100 0 -1 0
205 182 0 1 0 0
205 153 0 1 0 0
205 153 100 1 0 0
205 182 100 1 0 0
195 182 0 -1 -0 0
195 153 0 -1 -0 0
195 153 100 -1 -0 0
195 182 100 -1 -0 0
205 249 0 1 0 0
205 228 0 1 0 0
205 228 100 1 0 0
205 249 100 1 0 0
195 249 0 -1 -0 0
195 228 0 -1 -0 0
195 228 100 -1 -0 0
195 249 100 -1 -0 0
309 298 0 -0 1 0
348 298 0 -0 1 0
348 298 100 -0 1 0
309 298 100 -0 1 0
309 288 0 0 -1 0
348 288 0 0 -1 0
348 288 100 0 -1 0
309 288 100 0 -1 0
549 347 0 1 0 0
549 308 0 1 0 0
549 308 100 1 0 0
549 347 100 1 0 0
539 347 0 -1 -0 0
539 308 0 -1 -0 0
539 308 100 -1 -0 0
539 347 100 -1 -0 0
349 25 0 -0 1 0
397 25 0 -0 1 0
397 25 100 -0 1 0
349 25 100 -0 1 0
349 15 0 0 -1 0
397 15 0 0 -1 0
397 15 100 0 -1 0
349 15 100 0 -1 0
348 37 0 -0 1 0
398 37 0 -0 1 0
398 37 100 -0 1 0
348 37 100 -0 1 0
348 27 0 0 -1 0
398 27 0 0 -1 0
398 27 100 0 -1 0
348 27 100 0 -1 0
167 177 0 1 0 0
167 158 0 1 0 0
167 158 100 1 0 0
167 177 100 1 0 0
157 177 0 -1 -0 0
157 153 0 -1 -0 0
157 153 100 -1 -0 0
157 177 100 -1 -0 0
167 158 0 1 0 0
167 35 0 1 0 0
167 35 100 1 0 0
167 158 100 1 0 0
157 153 0 -1 -0 0
157 35 0 -1 -0 0
157 35 100 -1 -0 0
157 153 100 -1 -0 0
167 158 0 -0 1 0
288 158 0 -0 1 0
288 158 100 -0 1 0
167 158 100 -0 1 0
162 148 0 0 -1 0
288 148 0 0 -1 0
288 148 100 0 -1 0
162 148 100 0 -1 0
481 190 0 477.896759033203125 189.774200439453125 0
471 190 0 477.896759033203125 189.774200439453125 0
471 190 100 477.896759033203125 189.774200439453125 0
481 190 100 477.896759033203125 189.774200439453125 0
481 35 0 477.896759033203125 33.7741928100585938 0
471 35 0 477.896759033203125 33.7741928100585938 0
471 35 100 477.896759033203125 33.7741928100585938 0
481 35 100 477.896759033203125 33.7741928100585938 0
167 367 0 165.596633911132812 364.91595458984375 0
157 367 0 165.596633911132812 364.91595458984375 0
157 367 100 165.596633911132812 364.91595458984375 0
167 367 100 165.596633911132812 364.91595458984375 0
167 248 0 165.596633911132812 244.915969848632812 0
157 248 0 165.596633911132812 244.915969848632812 0
157 248 100 165.596633911132812 244.915969848632812 0
167 248 100 165.596633911132812 244.915969848632812 0
686 198 0 676.0579833984375 196.13043212890625 0
676 198 0 676.0579833984375 196.13043212890625 0
676 198 100 676.0579833984375 196.13043212890625 0
686 198 100 676.0579833984375 196.13043212890625 0
686 129 0 676.0579833984375 126.13043212890625 0
676 129 0 676.0579833984375 126.13043212890625 0
676 129 100 676.0579833984375 126.13043212890625 0
686 129 100 676.0579833984375 126.13043212890625 0
686 379 0 678.3778076171875 375.78887939453125 0
676 379 0 678.3778076171875 375.78887939453125 0
676 379 100 678.3778076171875 375.78887939453125 0
686 379 100 678.3778076171875 375.78887939453125 0
686 289 0 678.3778076171875 284.78887939453125 0
676 289 0 678.3778076171875 284.78887939453125 0
676 289 100 678.3778076171875 284.78887939453125 0
686 289 100 678.3778076171875 284.78887939453125 0
354 429 0 351.787506103515625 427.318756103515625 0
344 429 0 351.787506103515625 427.318756103515625 0
344 429 100 351.787506103515625 427.318756103515625 0
354 429 100 351.787506103515625 427.318756103515625 0
354 269 0 351.787506103515625 266.318756103515625 0
344 269 0 351.787506103515625 266.318756103515625 0
344 269 100 351.787506103515625 266.318756103515625 0
354 269 100 351.787506103515625 266.318756103515625 0
256 248 0 253.305267333984375 246.389480590820312 0
246 248 0 253.305267333984375 246.389480590820312 0
246 248 100 253.305267333984375 246.389480590820312 0
256 248 100 253.305267333984375 246.389480590820312 0
256 153 0 253.305267333984375 150.389480590820312 0
246 153 0 253.305267333984375 150.389480590820312 0
246 153 100 253.305267333984375 150.389480590820312 0
256 153 100 253.305267333984375 150.389480590820312 0
477 139 0 473.67315673828125 138.321945190429688 0
477 129 0 473.67315673828125 138.321945190429688 0
477 129 100 473.67315673828125 138.321945190429688 0
477 139 100 473.67315673828125 138.321945190429688 0
682 139 0 679.67315673828125 138.321945190429688 0
682 129 0 679.67315673828125 138.321945190429688 0
682 129 100 679.67315673828125 138.321945190429688 0
682 139 100 679.67315673828125 138.321945190429688 0
602 441 0 594.07891845703125 436.197357177734375 0
592 441 0 594.07891845703125 436.197357177734375 0
592 441 100 594.07891845703125 436.197357177734375 0
602 441 100 594.07891845703125 436.197357177734375 0
602 365 0 594.07891845703125 359.197357177734375 0
592 365 0 594.07891845703125 359.197357177734375 0
592 365 100 594.07891845703125 359.197357177734375 0
602 365 100 594.07891845703125 359.197357177734375 0
255 371 0 251.258071899414062 367.0107421875 0
255 361 0 251.258071899414062 367.0107421875 0
255 361 100 251.258071899414062 367.0107421875 0
255 371 100 251.258071899414062 367.0107421875 0
348 371 0 345.258056640625 367.0107421875 0
348 361 0 345.258056640625 367.0107421875 0
348 361 100 345.258056640625 367.0107421875 0
348 371 100 345.258056640625 367.0107421875 0
654 537 0 650.15557861328125 533.022216796875 0
654 527 0 650.15557861328125 533.022216796875 0
654 527 100 650.15557861328125 533.022216796875 0
654 537 100 650.15557861328125 533.022216796875 0
313 366 0 309.773193359375 363.226806640625 0
303 366 0 309.773193359375 363.226806640625 0
303 366 100 309.773193359375 363.226806640625 0
313 366 100 309.773193359375 363.226806640625 0
313 269 0 309.773193359375 265.226806640625 0
303 269 0 309.773193359375 265.226806640625 0
303 269 100 309.773193359375 265.226806640625 0
313 269 100 309.773193359375 265.226806640625 0
147 248 0 145.366668701171875 246.24444580078125 0
137 248 0 145.366668701171875 246.24444580078125 0
137 248 100 145.366668701171875 246.24444580078125 0
147 248 100 145.366668701171875 246.24444580078125 0
477 371 0 473.67315673828125 369.19024658203125 0
477 361 0 473.67315673828125 369.19024658203125 0
477 361 100 473.67315673828125 369.19024658203125 0
477 371 100 473.67315673828125 369.19024658203125 0
682 371 0 679.67315673828125 369.19024658203125 0
682 361 0 679.67315673828125 369.19024658203125 0
682 361 100 679.67315673828125 369.19024658203125 0
682 371 100 679.67315673828125 369.19024658203125 0
286 414 0 279.782623291015625 406 0
276 414 0 279.782623291015625 406 0
276 414 100 279.782623291015625 406 0
286 414 100 279.782623291015625 406 0
286 368 0 279.782623291015625 359 0
276 368 0 279.782623291015625 359 0
276 368 100 279.782623291015625 359 0
286 368 100 279.782623291015625 359 0
142 182 0 138.551727294921875 178.862075805664062 0
142 172 0 138.551727294921875 178.862075805664062 0
142 172 100 138.551727294921875 178.862075805664062 0
142 182 100 138.551727294921875 178.862075805664062 0
200 182 0 197.551727294921875 178.862075805664062 0
200 172 0 197.551727294921875 178.862075805664062 0
200 172 100 197.551727294921875 178.862075805664062 0
200 182 100 197.551727294921875 178.862075805664062 0
205 182 0 197.9310302734375 176.724136352539062 0
195 182 0 197.9310302734375 176.724136352539062 0
195 182 100 197.9310302734375 176.724136352539062 0
205 182 100 197.9310302734375 176.724136352539062 0
205 153 0 197.9310302734375 146.724136352539062 0
195 153 0 197.9310302734375 146.724136352539062 0
195 153 100 197.9310302734375 146.724136352539062 0
205 153 100 197.9310302734375 146.724136352539062 0
205 249 0 195.23809814453125 238.142852783203125 0
195 249 0 195.23809814453125 238.142852783203125 0
195 249 100 195.23809814453125 238.142852783203125 0
205 249 100 195.23809814453125 238.142852783203125 0
205 228 0 195.23809814453125 216.142852783203125 0
195 228 0 195.23809814453125 216.142852783203125 0
195 228 100 195.23809814453125 216.142852783203125 0
205 228 100 195.23809814453125 216.142852783203125 0
309 298 0 300.076934814453125 290.358978271484375 0
309 288 0 300.076934814453125 290.358978271484375 0
309 288 100 300.076934814453125 290.358978271484375 0
309 298 100 300.076934814453125 290.358978271484375 0
348 298 0 340.076934814453125 290.358978271484375 0
348 288 0 340.076934814453125 290.358978271484375 0
348 288 100 340.076934814453125 290.358978271484375 0
348 298 100 340.076934814453125 290.358978271484375 0
549 347 0 534.923095703125 339.102569580078125 0
539 347 0 534.923095703125 339.102569580078125 0
539 347 100 534.923095703125 339.102569580078125 0
549 347 100 534.923095703125 339.102569580078125 0
549 308 0 534.923095703125 299.102569580078125 0
539 308 0 534.923095703125 299.102569580078125 0
539 308 100 534.923095703125 299.102569580078125 0
549 308 100 534.923095703125 299.102569580078125 0
542 436 0 536.11712646484375 432.07208251953125 0
542 446 0 536.11712646484375 432.07208251953125 0
542 446 100 536.11712646484375 432.07208251953125 0
542 436 100 536.11712646484375 432.07208251953125 0
349 25 0 340.729156494140625 24.4791660308837891 0
349 15 0 340.729156494140625 24.4791660308837891 0
349 15 100 340.729156494140625 24.4791660308837891 0
349 25 100 340.729156494140625 24.4791660308837891 0
397 25 0 389.729156494140625 24.4791660308837891 0
397 15 0 389.729156494140625 24.4791660308837891 0
397 15 100 389.729156494140625 24.4791660308837891 0
397 25 100 389.729156494140625 24.4791660308837891 0
348 37 0 340.040008544921875 36.2599983215332031 0
348 27 0 340.040008544921875 36.2599983215332031 0
348 27 100 340.040008544921875 36.2599983215332031 0
348 37 100 340.040008544921875 36.2599983215332031 0
398 37 0 391.040008544921875 36.2599983215332031 0
398 27 0 391.040008544921875 36.2599983215332031 0
398 27 100 391.040008544921875 36.2599983215332031 0
398 37 100 391.040008544921875 36.2599983215332031 0
167 177 0 158.210525512695312 168.6842041015625 0
157 177 0 158.210525512695312 168.6842041015625 0
157 177 100 158.210525512695312 168.6842041015625 0
167 177 100 158.210525512695312 168.6842041015625 0
167 35 0 165.64227294921875 33.7154464721679688 0
157 35 0 165.64227294921875 33.7154464721679688 0
157 35 100 165.64227294921875 33.7154464721679688 0
167 35 100 165.64227294921875 33.7154464721679688 0
288 158 0 286.619842529296875 156.6942138671875 0
288 148 0 286.619842529296875 156.6942138671875 0
288 148 100 286.619842529296875 156.6942138671875 0
288 158 100 286.619842529296875 156.6942138671875 0
481 190 0 0 0 -1
471 190 0 0 0 -1
471 35 0 0 0 -1
481 35 0 0 0 -1
481 190 100 0 0 1
471 190 100 0 0 1
471 35 100 0 0 1
481 35 100 0 0 1
167 367 0 0 0 -1
157 367 0 0 0 -1
157 248 0 0 0 -1
167 248 0 0 0 -1
167 367 100 0 0 1
157 367 100 0 0 1
157 248 100 0 0 1
167 248 100 0 0 1
686 198 0 0 0 -1
676 198 0 0 0 -1
676 129 0 0 0 -1
686 129 0 0 0 -1
686 198 100 0 0 1
676 198 100 0 0 1
676 129 100 0 0 1
686 129 100 0 0 1
686 379 0 0 0 -1
676 379 0 0 0 -1
676 289 0 0 0 -1
686 289 0 0 0 -1
686 379 100 0 0 1
676 379 100 0 0 1
676 289 100 0 0 1
686 289 100 0 0 1
354 429 0 0 0 -1
344 429 0 0 0 -1
344 269 0 0 0 -1
354 269 0 0 0 -1
354 429 100 0 0 1
344 429 100 0 0 1
344 269 100 0 0 1
354 269 100 0 0 1
256 248 0 0 0 -1
246 248 0 0 0 -1
246 153 0 0 0 -1
256 153 0 0 0 -1
256 248 100 0 0 1
246 248 100 0 0 1
246 153 100 0 0 1
256 153 100 0 0 1
477 139 0 0 0 -1
477 129 0 0 0 -1
682 129 0 0 0 -1
682 139 0 0 0 -1
477 139 100 0 0 1
477 129 100 0 0 1
682 129 100 0 0 1
682 139 100 0 0 1
602 441 0 0 0 -1
592 441 0 0 0 -1
592 365 0 0 0 -1
602 365 0 0 0 -1
602 441 100 0 0 1
592 441 100 0 0 1
592 365 100 0 0 1
602 365 100 0 0 1
529 527 0 0 0 -1
519 537 0 0 0 -1
519 436 0 0 0 -1
529 446 0 0 0 -1
529 527 100 0 0 1
519 537 100 0 0 1
519 436 100 0 0 1
529 446 100 0 0 1
519 537 0 0 0 -1
529 527 0 0 0 -1
654 527 0 0 0 -1
654 537 0 0 0 -1
519 537 100 0 0 1
529 527 100 0 0 1
654 527 100 0 0 1
654 537 100 0 0 1
529 446 0 0 0 -1
519 436 0 0 0 -1
23573529299517440 448 0 0 0 -1
653 446 0 0 0 -1
529 446 100 0 0 1
519 436 100 0 0 1
23573529299517440 448 100 0 0 1
653 446 100 0 0 1
255 371 0 0 0 -1
255 361 0 0 0 -1
348 361 0 0 0 -1
348 371 0 0 0 -1
255 371 100 0 0 1
255 361 100 0 0 1
348 361 100 0 0 1
348 371 100 0 0 1
313 366 0 0 0 -1
303 366 0 0 0 -1
303 269 0 0 0 -1
313 269 0 0 0 -1
313 366 100 0 0 1
303 366 100 0 0 1
303 269 100 0 0 1
313 269 100 0 0 1
147 248 0 0 0 -1
137 248 0 0 0 -1
137 148 0 0 0 -1
147 158 0 0 0 -1
147 248 100 0 0 1
137 248 100 0 0 1
137 148 100 0 0 1
147 158 100 0 0 1
147 158 0 0 0 -1
137 148 0 0 0 -1
162 148 0 0 0 -1
167 158 0 0 0 -1
147 158 100 0 0 1
137 148 100 0 0 1
162 148 100 0 0 1
167 158 100 0 0 1
653 436 0 0 0 -1
23573529299517440 448 0 0 0 -1
542 446 0 0 0 -1
542 436 0 0 0 -1
653 436 100 0 0 1
23573529299517440 448 100 0 0 1
542 446 100 0 0 1
542 436 100 0 0 1
477 371 0 0 0 -1
477 361 0 0 0 -1
682 361 0 0 0 -1
682 371 0 0 0 -1
477 371 100 0 0 1
477 361 100 0 0 1
682 361 100 0 0 1
682 371 100 0 0 1
286 414 0 0 0 -1
276 414 0 0 0 -1
276 368 0 0 0 -1
286 368 0 0 0 -1
286 414 100 0 0 1
276 414 100 0 0 1
276 368 100 0 0 1
286 368 100 0 0 1
142 182 0 0 0 -1
142 172 0 0 0 -1
200 172 0 0 0 -1
200 182 0 0 0 -1
142 182 100 0 0 1
142 172 100 0 0 1
200 172 100 0 0 1
200 182 100 0 0 1
205 182 0 0 0 -1
195 182 0 0 0 -1
195 153 0 0 0 -1
205 153 0 0 0 -1
205 182 100 0 0 1
195 182 100 0 0 1
195 153 100 0 0 1
205 153 100 0 0 1
205 249 0 0 0 -1
195 249 0 0 0 -1
195 228 0 0 0 -1
205 228 0 0 0 -1
205 249 100 0 0 1
195 249 100 0 0 1
195 228 100 0 0 1
205 228 100 0 0 1
309 298 0 0 0 -1
309 288 0 0 0 -1
348 288 0 0 0 -1
348 298 0 0 0 -1
309 298 100 0 0 1
309 288 100 0 0 1
348 288 100 0 0 1
348 298 100 0 0 1
549 347 0 0 0 -1
539 347 0 0 0 -1
539 308 0 0 0 -1
549 308 0 0 0 -1
549 347 100 0 0 1
539 347 100 0 0 1
539 308 100 0 0 1
549 308 100 0 0 1
349 25 0 0 0 -1
349 15 0 0 0 -1
397 15 0 0 0 -1
397 25 0 0 0 -1
349 25 100 0 0 1
349 15 100 0 0 1
397 15 100 0 0 1
397 25 100 0 0 1
348 37 0 0 0 -1
348 27 0 0 0 -1
398 27 0 0 0 -1
398 37 0 0 0 -1
348 37 100 0 0 1
348 27 100 0 0 1
398 27 100 0 0 1
398 37 100 0 0 1
167 177 0 0 0 -1
157 177 0 0 0 -1
157 153 0 0 0 -1
167 158 0 0 0 -1
167 177 100 0 0 1
157 177 100 0 0 1
157 153 100 0 0 1
167 158 100 0 0 1
167 158 0 0 0 -1
157 153 0 0 0 -1
157 35 0 0 0 -1
167 35 0 0 0 -1
167 158 100 0 0 1
157 153 100 0 0 1
157 35 100 0 0 1
167 35 100 0 0 1
167 158 0 0 0 -1
162 148 0 0 0 -1
288 148 0 0 0 -1
288 158 0 0 0 -1
167 158 100 0 0 1
162 148 100 0 0 1
288 148 100 0 0 1
288 158 100 0 0 1
167 158 0 0 0 -1
167 158 0 0 0 -1
167 158 100 0 0 1
167 158 100 0 0 1
4 0 1 2 3
4 4 5 6 7
4 8 9 10 11
4 12 13 14 15
4 16 17 18 19
4 20 21 22 23
4 24 25 26 27
4 28 29 30 31
4 32 33 34 35
4 36 37 38 39
4 40 41 42 43
4 44 45 46 47
4 48 49 50 51
4 52 53 54 55
4 56 57 58 59
4 60 61 62 63
4 64 65 66 67
4 68 69 70 71
4 72 73 74 75
4 76 77 78 79
4 80 81 82 83
4 84 85 86 87
4 88 89 90 91
4 92 93 94 95
4 96 97 98 99
4 100 101 102 103
4 104 105 106 107
4 108 109 110 111
4 112 113 114 115
4 116 117 118 119
4 120 121 122 123
4 124 125 126 127
4 128 129 130 131
4 132 133 134 135
4 136 137 138 139
4 140 141 142 143
4 144 145 146 147
4 148 149 150 151
4 152 153 154 155
4 156 157 158 159
4 160 161 162 163
4 164 165 166 167
4 168 169 170 171
4 172 173 174 175
4 176 177 178 179
4 180 181 182 183
4 184 185 186 187
4 188 189 190 191
4 192 193 194 195
4 196 197 198 199
4 200 201 202 203
4 204 205 206 207
4 208 209 210 211
4 212 213 214 215
4 216 217 218 219
4 220 221 222 223
4 224 225 226 227
4 228 229 230 231
4 232 233 234 235
4 236 237 238 239
4 240 241 242 243
4 244 245 246 247
4 248 249 250 251
4 252 253 254 255
4 256 257 258 259
4 260 261 262 263
4 264 265 266 267
4 268 269 270 271
4 272 273 274 275
4 276 277 278 279
4 280 281 282 283
4 284 285 286 287
4 288 289 290 291
4 292 293 294 295
4 296 297 298 299
4 300 301 302 303
4 304 305 306 307
4 308 309 310 311
4 312 313 314 315
4 316 317 318 319
4 320 321 322 323
4 324 325 326 327
4 328 329 330 331
4 332 333 334 335
4 336 337 338 339
4 340 341 342 343
4 344 345 346 347
4 348 349 350 351
4 352 353 354 355
4 356 357 358 359
4 360 361 362 363
4 364 365 366 367
4 368 369 370 371
4 372 373 374 375
4 376 377 378 379
4 380 381 382 383
4 384 385 386 387
4 388 389 390 391
4 392 393 394 395
4 396 397 398 399
4 400 401 402 403
4 404 405 406 407
4 408 409 410 411
4 412 413 414 415
4 416 417 418 419
4 420 421 422 423
4 424 425 426 427
4 428 429 430 431
4 432 433 434 435
4 436 437 438 439
4 440 441 442 443
4 444 445 446 447
4 448 449 450 451
4 452 453 454 455
4 456 457 458 459
4 460 461 462 463
4 464 465 466 467
4 468 469 470 471
4 472 473 474 475
4 476 477 478 479
4 480 481 482 483
4 484 485 486 487
4 488 489 490 491
4 492 493 494 495
4 496 497 498 499
4 500 501 502 503
4 504 505 506 507
4 508 509 510 511
4 512 513 514 515
4 516 517 518 519
4 520 521 522 523
4 524 525 526 527
4 528 529 530 531
4 532 533 534 535
4 536 537 538 539
4 540 541 542 543
4 544 545 546 547
4 548 549 550 551
4 552 553 554 555
4 556 557 558 559
4 560 561 562 563
4 564 565 566 567
4 568 569 570 571
4 572 573 574 575
4 576 577 578 579
4 580 581 582 583
4 584 585 586 587
4 588 589 590 591
4 592 593 594 595
4 596 597 598 599
4 600 601 602 603
4 604 605 606 607
4 608 609 610 611
4 612 613 614 615
4 616 617 618 619
4 620 621 622 623
