ply
format ascii 1.0
element vertex 556
property float x
property float y
property float z
property float nx
property float ny
property float nz
element quads 137
property list uchar int vertex_indices
end_header
697 311 0 1 0 0
697 1 0 1 0 0
697 1 100 1 0 0
697 311 100 1 0 0
687 301 0 -1 -0 0
687 11 0 -1 -0 0
687 11 100 -1 -0 0
687 301 100 -1 -0 0
687 301 0 -0 -1 0
501 301 0 -0 -1 0
501 301 100 -0 -1 0
687 301 100 -0 -1 0
697 311 0 0 1 0
511 311 0 0 1 0
511 311 100 0 1 0
697 311 100 0 1 0
697 1 0 -0 -1 0
667 1 0 -0 -1 0
667 1 100 -0 -1 0
697 1 100 -0 -1 0
687 11 0 0 1 0
667 11 0 0 1 0
667 11 100 0 1 0
687 11 100 0 1 0
142 304 0 1 0 0
142 275 0 1 0 0
142 275 100 1 0 0
142 304 100 1 0 0
132 304 0 -1 -0 0
132 275 0 -1 -0 0
132 275 100 -1 -0 0
132 304 100 -1 -0 0
430 400 0 1 0 0
430 243 0 1 0 0
430 243 100 1 0 0
430 400 100 1 0 0
420 400 0 -1 -0 0
420 253 0 -1 -0 0
420 253 100 -1 -0 0
420 400 100 -1 -0 0
430 243 0 -0 -1 0
319 243 0 -0 -1 0
319 243 100 -0 -1 0
430 243 100 -0 -1 0
420 253 0 0 1 0
319 253 0 0 1 0
319 253 100 0 1 0
420 253 100 0 1 0
353 250 0 1 0 0
353 172 0 1 0 0
353 172 100 1 0 0
353 250 100 1 0 0
343 250 0 -1 -0 0
343 172 0 -1 -0 0
343 172 100 -1 -0 0
343 250 100 -1 -0 0
321 302 0 1 0 0
321 243 0 1 0 0
321 243 100 1 0 0
321 302 100 1 0 0
311 302 0 -1 -0 0
311 243 0 -1 -0 0
311 243 100 -1 -0 0
311 302 100 -1 -0 0
253 172 0 1 0 0
253 135 0 1 0 0
253 135 100 1 0 0
253 172 100 1 0 0
243 172 0 -1 -0 0
243 135 0 -1 -0 0
243 135 100 -1 -0 0
243 172 100 -1 -0 0
163 542 0 1 0 0
163 305 0 1 0 0
163 305 100 1 0 0
163 542 100 1 0 0
153 542 0 -1 -0 0
153 305 0 -1 -0 0
153 305 100 -1 -0 0
153 542 100 -1 -0 0
254 13 0 -0 1 0
348 13 0 -0 1 0
348 13 100 -0 1 0
254 13 100 -0 1 0
254 3 0 0 -1 0
348 3 0 0 -1 0
348 3 100 0 -1 0
254 3 100 0 -1 0
447 137 0 1 0 0
447 5 0 1 0 0
447 5 100 1 0 0
447 137 100 1 0 0
437 137 0 -1 -0 0
437 5 0 -1 -0 0
437 5 100 -1 -0 0
437 137 100 -1 -0 0
501 301 0 -1 0 0
501 396 0 -1 0 0
501 396 100 -1 0 0
501 301 100 -1 0 0
511 311 0 1 -0 0
511 396 0 1 -0 0
511 396 100 1 -0 0
511 311 100 1 -0 0
136 310 0 -0 1 0
398 310 0 -0 1 0
398 310 100 -0 1 0
136 310 100 -0 1 0
136 300 0 0 -1 0
398 300 0 0 -1 0
398 300 100 0 -1 0
136 300 100 0 -1 0
398 310 0 -0 1 0
426 310 0 -0 1 0
426 310 100 -0 1 0
398 310 100 -0 1 0
398 300 0 0 -1 0
426 300 0 0 -1 0
426 300 100 0 -1 0
398 300 100 0 -1 0
136 139 0 -0 1 0
321 139 0 -0 1 0
321 139 100 -0 1 0
136 139 100 -0 1 0
136 129 0 0 -1 0
316 129 0 0 -1 0
316 129 100 0 -1 0
136 129 100 0 -1 0
321 139 0 -0 1 0
461 139 0 -0 1 0
461 139 100 -0 1 0
321 139 100 -0 1 0
316 129 0 0 -1 0
471 129 0 0 -1 0
471 129 100 0 -1 0
316 129 100 0 -1 0
311 134 0 -1 0 0
311 173 0 -1 0 0
311 173 100 -1 0 0
311 134 100 -1 0 0
321 139 0 1 -0 0
321 178 0 1 -0 0
321 178 100 1 -0 0
321 139 100 1 -0 0
321 139 0 1 0 0
321 63 0 1 0 0
321 63 100 1 0 0
321 139 100 1 0 0
311 134 0 -1 -0 0
311 63 0 -1 -0 0
311 63 100 -1 -0 0
311 134 100 -1 -0 0
461 139 0 -1 0 0
461 144 0 -1 0 0
461 144 100 -1 0 0
461 139 100 -1 0 0
471 129 0 1 -0 0
471 144 0 1 -0 0
471 144 100 1 -0 0
471 129 100 1 -0 0
316 168 0 -0 -1 0
248 168 0 -0 -1 0
248 168 100 -0 -1 0
316 168 100 -0 -1 0
321 178 0 0 1 0
248 178 0 0 1 0
248 178 100 0 1 0
321 178 100 0 1 0
321 178 0 -0 1 0
429 178 0 -0 1 0
429 178 100 -0 1 0
321 178 100 -0 1 0
316 168 0 0 -1 0
429 168 0 0 -1 0
429 168 100 0 -1 0
316 168 100 0 -1 0
311 173 0 -1 0 0
311 193 0 -1 0 0
311 193 100 -1 0 0
311 173 100 -1 0 0
321 178 0 1 -0 0
321 193 0 1 -0 0
321 193 100 1 -0 0
321 178 100 1 -0 0
321 173 0 1 0 0
321 132 0 1 0 0
321 132 100 1 0 0
321 173 100 1 0 0
311 173 0 -1 -0 0
311 132 0 -1 -0 0
311 132 100 -1 -0 0
311 173 100 -1 -0 0
447 185 0 1 0 0
447 134 0 1 0 0
447 134 100 1 0 0
447 185 100 1 0 0
437 185 0 -1 -0 0
437 134 0 -1 -0 0
437 134 100 -1 -0 0
437 185 100 -1 -0 0
447 134 0 1 0 0
447 88 0 1 0 0
447 88 100 1 0 0
447 134 100 1 0 0
437 134 0 -1 -0 0
437 88 0 -1 -0 0
437 88 100 -1 -0 0
437 134 100 -1 -0 0
471 246 0 1 0 0
471 144 0 1 0 0
471 144 100 1 0 0
471 246 100 1 0 0
461 246 0 -1 -0 0
461 144 0 -1 -0 0
461 144 100 -1 -0 0
461 246 100 -1 -0 0
142 304 0 137.10345458984375 294.517242431640625 0
132 304 0 137.10345458984375 294.517242431640625 0
132 304 100 137.10345458984375 294.517242431640625 0
142 304 100 137.10345458984375 294.517242431640625 0
142 275 0 137.10345458984375 264.517242431640625 0
132 275 0 137.10345458984375 264.517242431640625 0
132 275 100 137.10345458984375 264.517242431640625 0
142 275 100 137.10345458984375 264.517242431640625 0
430 400 0 427.261138916015625 398.452239990234375 0
420 400 0 427.261138916015625 398.452239990234375 0
420 400 100 427.261138916015625 398.452239990234375 0
430 400 100 427.261138916015625 398.452239990234375 0
353 250 0 348.474365234375 247.794876098632812 0
343 250 0 348.474365234375 247.794876098632812 0
343 250 100 348.474365234375 247.794876098632812 0
353 250 100 348.474365234375 247.794876098632812 0
353 172 0 348.474365234375 168.794876098632812 0
343 172 0 348.474365234375 168.794876098632812 0
343 172 100 348.474365234375 168.794876098632812 0
353 172 100 348.474365234375 168.794876098632812 0
667 1 0 643.76666259765625 0.966666638851165771 0
667 11 0 643.76666259765625 0.966666638851165771 0
667 11 100 643.76666259765625 0.966666638851165771 0
667 1 100 643.76666259765625 0.966666638851165771 0
321 302 0 315.559326171875 297.88134765625 0
311 302 0 315.559326171875 297.88134765625 0
311 302 100 315.559326171875 297.88134765625 0
321 302 100 315.559326171875 297.88134765625 0
321 243 0 315.559326171875 237.881362915039062 0
311 243 0 315.559326171875 237.881362915039062 0
311 243 100 315.559326171875 237.881362915039062 0
321 243 100 315.559326171875 237.881362915039062 0
253 172 0 246.162155151367188 168.351348876953125 0
243 172 0 246.162155151367188 168.351348876953125 0
243 172 100 246.162155151367188 168.351348876953125 0
253 172 100 246.162155151367188 168.351348876953125 0
253 135 0 246.162155151367188 130.351348876953125 0
243 135 0 246.162155151367188 130.351348876953125 0
243 135 100 246.162155151367188 130.351348876953125 0
253 135 100 246.162155151367188 130.351348876953125 0
163 542 0 162.312240600585938 540.71307373046875 0
153 542 0 162.312240600585938 540.71307373046875 0
153 542 100 162.312240600585938 540.71307373046875 0
163 542 100 162.312240600585938 540.71307373046875 0
163 305 0 162.312240600585938 302.71307373046875 0
153 305 0 162.312240600585938 302.71307373046875 0
153 305 100 162.312240600585938 302.71307373046875 0
163 305 100 162.312240600585938 302.71307373046875 0
254 13 0 250.297866821289062 12.8617019653320312 0
254 3 0 250.297866821289062 12.8617019653320312 0
254 3 100 250.297866821289062 12.8617019653320312 0
254 13 100 250.297866821289062 12.8617019653320312 0
348 13 0 345.297882080078125 12.8617019653320312 0
348 3 0 345.297882080078125 12.8617019653320312 0
348 3 100 345.297882080078125 12.8617019653320312 0
348 13 100 345.297882080078125 12.8617019653320312 0
447 137 0 443.6136474609375 136.962127685546875 0
437 137 0 443.6136474609375 136.962127685546875 0
437 137 100 443.6136474609375 136.962127685546875 0
447 137 100 443.6136474609375 136.962127685546875 0
447 5 0 443.6136474609375 3.96212124824523926 0
437 5 0 443.6136474609375 3.96212124824523926 0
437 5 100 443.6136474609375 3.96212124824523926 0
447 5 100 443.6136474609375 3.96212124824523926 0
501 396 0 495.726318359375 392.831573486328125 0
511 396 0 495.726318359375 392.831573486328125 0
511 396 100 495.726318359375 392.831573486328125 0
501 396 100 495.726318359375 392.831573486328125 0
319 243 0 315.126129150390625 240.810806274414062 0
319 253 0 315.126129150390625 240.810806274414062 0
319 253 100 315.126129150390625 240.810806274414062 0
319 243 100 315.126129150390625 240.810806274414062 0
136 310 0 134.480911254882812 308.816802978515625 0
136 300 0 134.480911254882812 308.816802978515625 0
136 300 100 134.480911254882812 308.816802978515625 0
136 310 100 134.480911254882812 308.816802978515625 0
426 310 0 411.78570556640625 298.928558349609375 0
426 300 0 411.78570556640625 298.928558349609375 0
426 300 100 411.78570556640625 298.928558349609375 0
426 310 100 411.78570556640625 298.928558349609375 0
136 139 0 134.264862060546875 138.248641967773438 0
136 129 0 134.264862060546875 138.248641967773438 0
136 129 100 134.264862060546875 138.248641967773438 0
136 139 100 134.264862060546875 138.248641967773438 0
321 63 0 316.77630615234375 61.171051025390625 0
311 63 0 316.77630615234375 61.171051025390625 0
311 63 100 316.77630615234375 61.171051025390625 0
321 63 100 316.77630615234375 61.171051025390625 0
447 185 0 438.23529052734375 182.372543334960938 0
437 185 0 438.23529052734375 182.372543334960938 0
437 185 100 438.23529052734375 182.372543334960938 0
447 185 100 438.23529052734375 182.372543334960938 0
447 88 0 437.282623291015625 85.0869598388671875 0
437 88 0 437.282623291015625 85.0869598388671875 0
437 88 100 437.282623291015625 85.0869598388671875 0
447 88 100 437.282623291015625 85.0869598388671875 0
248 168 0 243.352935791015625 165.5294189453125 0
248 178 0 243.352935791015625 165.5294189453125 0
248 178 100 243.352935791015625 165.5294189453125 0
248 168 100 243.352935791015625 165.5294189453125 0
429 178 0 426.02777099609375 176.351852416992188 0
429 168 0 426.02777099609375 176.351852416992188 0
429 168 100 426.02777099609375 176.351852416992188 0
429 178 100 426.02777099609375 176.351852416992188 0
311 193 0 295.45001220703125 184.350006103515625 0
321 193 0 295.45001220703125 184.350006103515625 0
321 193 100 295.45001220703125 184.350006103515625 0
311 193 100 295.45001220703125 184.350006103515625 0
321 132 0 313.170745849609375 127.780487060546875 0
311 132 0 313.170745849609375 127.780487060546875 0
311 132 100 313.170745849609375 127.780487060546875 0
321 132 100 313.170745849609375 127.780487060546875 0
471 246 0 466.382354736328125 244.588241577148438 0
461 246 0 466.382354736328125 244.588241577148438 0
461 246 100 466.382354736328125 244.588241577148438 0
471 246 100 466.382354736328125 244.588241577148438 0
697 311 0 0 0 -1
687 301 0 0 0 -1
687 11 0 0 0 -1
697 1 0 0 0 -1
697 311 100 0 0 1
687 301 100 0 0 1
687 11 100 0 0 1
697 1 100 0 0 1
687 301 0 0 0 -1
697 311 0 0 0 -1
511 311 0 0 0 -1
501 301 0 0 0 -1
687 301 100 0 0 1
697 311 100 0 0 1
511 311 100 0 0 1
501 301 100 0 0 1
697 1 0 0 0 -1
687 11 0 0 0 -1
667 11 0 0 0 -1
667 1 0 0 0 -1
697 1 100 0 0 1
687 11 100 0 0 1
667 11 100 0 0 1
667 1 100 0 0 1
142 304 0 0 0 -1
132 304 0 0 0 -1
132 275 0 0 0 -1
142 275 0 0 0 -1
142 304 100 0 0 1
132 304 100 0 0 1
132 275 100 0 0 1
142 275 100 0 0 1
430 400 0 0 0 -1
420 400 0 0 0 -1
420 253 0 0 0 -1
430 243 0 0 0 -1
430 400 100 0 0 1
420 400 100 0 0 1
420 253 100 0 0 1
430 243 100 0 0 1
430 243 0 0 0 -1
420 253 0 0 0 -1
319 253 0 0 0 -1
319 243 0 0 0 -1
430 243 100 0 0 1
420 253 100 0 0 1
319 253 100 0 0 1
319 243 100 0 0 1
353 250 0 0 0 -1
343 250 0 0 0 -1
343 172 0 0 0 -1
353 172 0 0 0 -1
353 250 100 0 0 1
343 250 100 0 0 1
343 172 100 0 0 1
353 172 100 0 0 1
321 302 0 0 0 -1
311 302 0 0 0 -1
311 243 0 0 0 -1
321 243 0 0 0 -1
321 302 100 0 0 1
311 302 100 0 0 1
311 243 100 0 0 1
321 243 100 0 0 1
253 172 0 0 0 -1
243 172 0 0 0 -1
243 135 0 0 0 -1
253 135 0 0 0 -1
253 172 100 0 0 1
243 172 100 0 0 1
243 135 100 0 0 1
253 135 100 0 0 1
163 542 0 0 0 -1
153 542 0 0 0 -1
153 305 0 0 0 -1
163 305 0 0 0 -1
163 542 100 0 0 1
153 542 100 0 0 1
153 305 100 0 0 1
163 305 100 0 0 1
254 13 0 0 0 -1
254 3 0 0 0 -1
348 3 0 0 0 -1
348 13 0 0 0 -1
254 13 100 0 0 1
254 3 100 0 0 1
348 3 100 0 0 1
348 13 100 0 0 1
447 137 0 0 0 -1
437 137 0 0 0 -1
437 5 0 0 0 -1
447 5 0 0 0 -1
447 137 100 0 0 1
437 137 100 0 0 1
437 5 100 0 0 1
447 5 100 0 0 1
501 301 0 0 0 -1
511 311 0 0 0 -1
511 396 0 0 0 -1
501 396 0 0 0 -1
501 301 100 0 0 1
511 311 100 0 0 1
511 396 100 0 0 1
501 396 100 0 0 1
136 310 0 0 0 -1
136 300 0 0 0 -1
398 300 0 0 0 -1
398 310 0 0 0 -1
136 310 100 0 0 1
136 300 100 0 0 1
398 300 100 0 0 1
398 310 100 0 0 1
398 310 0 0 0 -1
398 300 0 0 0 -1
426 300 0 0 0 -1
426 310 0 0 0 -1
398 310 100 0 0 1
398 300 100 0 0 1
426 300 100 0 0 1
426 310 100 0 0 1
136 139 0 0 0 -1
136 129 0 0 0 -1
316 129 0 0 0 -1
321 139 0 0 0 -1
136 139 100 0 0 1
136 129 100 0 0 1
316 129 100 0 0 1
321 139 100 0 0 1
321 139 0 0 0 -1
316 129 0 0 0 -1
471 129 0 0 0 -1
461 139 0 0 0 -1
321 139 100 0 0 1
316 129 100 0 0 1
471 129 100 0 0 1
461 139 100 0 0 1
311 134 0 0 0 -1
321 139 0 0 0 -1
321 178 0 0 0 -1
311 173 0 0 0 -1
311 134 100 0 0 1
321 139 100 0 0 1
321 178 100 0 0 1
311 173 100 0 0 1
321 139 0 0 0 -1
311 134 0 0 0 -1
311 63 0 0 0 -1
321 63 0 0 0 -1
321 139 100 0 0 1
311 134 100 0 0 1
311 63 100 0 0 1
321 63 100 0 0 1
461 139 0 0 0 -1
471 129 0 0 0 -1
471 144 0 0 0 -1
461 144 0 0 0 -1
461 139 100 0 0 1
471 129 100 0 0 1
471 144 100 0 0 1
461 144 100 0 0 1
316 168 0 0 0 -1
321 178 0 0 0 -1
248 178 0 0 0 -1
248 168 0 0 0 -1
316 168 100 0 0 1
321 178 100 0 0 1
248 178 100 0 0 1
248 168 100 0 0 1
321 178 0 0 0 -1
316 168 0 0 0 -1
429 168 0 0 0 -1
429 178 0 0 0 -1
321 178 100 0 0 1
316 168 100 0 0 1
429 168 100 0 0 1
429 178 100 0 0 1
311 173 0 0 0 -1
321 178 0 0 0 -1
321 193 0 0 0 -1
311 193 0 0 0 -1
311 173 100 0 0 1
321 178 100 0 0 1
321 193 100 0 0 1
311 193 100 0 0 1
321 173 0 0 0 -1
311 173 0 0 0 -1
311 132 0 0 0 -1
321 132 0 0 0 -1
321 173 100 0 0 1
311 173 100 0 0 1
311 132 100 0 0 1
321 132 100 0 0 1
447 185 0 0 0 -1
437 185 0 0 0 -1
437 134 0 0 0 -1
447 134 0 0 0 -1
447 185 100 0 0 1
437 185 100 0 0 1
437 134 100 0 0 1
447 134 100 0 0 1
447 134 0 0 0 -1
437 134 0 0 0 -1
437 88 0 0 0 -1
447 88 0 0 0 -1
447 134 100 0 0 1
437 134 100 0 0 1
437 88 100 0 0 1
447 88 100 0 0 1
471 246 0 0 0 -1
461 246 0 0 0 -1
461 144 0 0 0 -1
471 144 0 0 0 -1
471 246 100 0 0 1
461 246 100 0 0 1
461 144 100 0 0 1
471 144 100 0 0 1
321 139 0 0 0 -1
321 139 0 0 0 -1
321 139 100 0 0 1
321 139 100 0 0 1
321 178 0 0 0 -1
321 178 0 0 0 -1
321 178 100 0 0 1
321 178 100 0 0 1
4 0 1 2 3
4 4 5 6 7
4 8 9 10 11
4 12 13 14 15
4 16 17 18 19
4 20 21 22 23
4 24 25 26 27
4 28 29 30 31
4 32 33 34 35
4 36 37 38 39
4 40 41 42 43
4 44 45 46 47
4 48 49 50 51
4 52 53 54 55
4 56 57 58 59
4 60 61 62 63
4 64 65 66 67
4 68 69 70 71
4 72 73 74 75
4 76 77 78 79
4 80 81 82 83
4 84 85 86 87
4 88 89 90 91
4 92 93 94 95
4 96 97 98 99
4 100 101 102 103
4 104 105 106 107
4 108 109 110 111
4 112 113 114 115
4 116 117 118 119
4 120 121 122 123
4 124 125 126 127
4 128 129 130 131
4 132 133 134 135
4 136 137 138 139
4 140 141 142 143
4 144 145 146 147
4 148 149 150 151
4 152 153 154 155
4 156 157 158 159
4 160 161 162 163
4 164 165 166 167
4 168 169 170 171
4 172 173 174 175
4 176 177 178 179
4 180 181 182 183
4 184 185 186 187
4 188 189 190 191
4 192 193 194 195
4 196 197 198 199
4 200 201 202 203
4 204 205 206 207
4 208 209 210 211
4 212 213 214 215
4 216 217 218 219
4 220 221 222 223
4 224 225 226 227
4 228 229 230 231
4 232 233 234 235
4 236 237 238 239
4 240 241 242 243
4 244 245 246 247
4 248 249 250 251
4 252 253 254 255
4 256 257 258 259
4 260 261 262 263
4 264 265 266 267
4 268 269 270 271
4 272 273 274 275
4 276 277 278 279
4 280 281 282 283
4 284 285 286 287
4 288 289 290 291
4 292 293 294 295
4 296 297 298 299
4 300 301 302 303
4 304 305 306 307
4 308 309 310 311
4 312 313 314 315
4 316 317 318 319
4 320 321 322 323
4 324 325 326 327
4 328 329 330 331
4 332 333 334 335
4 336 337 338 339
4 340 341 342 343
4 344 345 346 347
4 348 349 350 351
4 352 353 354 355
4 356 357 358 359
4 360 361 362 363
4 364 365 366 367
4 368 369 370 371
4 372 373 374 375
4 376 377 378 379
4 380 381 382 383
4 384 385 386 387
4 388 389 390 391
4 392 393 394 395
4 396 397 398 399
4 400 401 402 403
4 404 405 406 407
4 408 409 410 411
4 412 413 414 415
4 416 417 418 419
4 420 421 422 423
4 424 425 426 427
4 428 429 430 431
4 432 433 434 435
4 436 437 438 439
4 440 441 442 443
4 444 445 446 447
4 448 449 450 451
4 452 453 454 455
4 456 457 458 459
4 460 461 462 463
4 464 465 466 467
4 468 469 470 471
4 472 473 474 475
4 476 477 478 479
4 480 481 482 483
4 484 485 486 487
4 488 489 490 491
4 492 493 494 495
4 496 497 498 499
4 500 501 502 503
4 504 505 506 507
4 508 509 510 511
4 512 513 514 515
4 516 517 518 519
4 520 521 522 523
4 524 525 526 527
4 528 529 530 531
4 532 533 534 535
4 536 537 538 539
4 540 541 542 543
4 544 545 546 547
