ply
format ascii 1.0
element vertex 232
property float x
property float y
property float z
property float nx
property float ny
property float nz
element quads 58
property list uchar int vertex_indices
end_header
829 455 0 1 0 0
829 193 0 1 0 0
829 193 100 1 0 0
829 455 100 1 0 0
819 455 0 -1 -0 0
819 203 0 -1 -0 0
819 203 100 -1 -0 0
819 455 100 -1 -0 0
829 193 0 -0 -1 0
512 193 0 -0 -1 0
512 193 100 -0 -1 0
829 193 100 -0 -1 0
819 203 0 0 1 0
512 203 0 0 1 0
512 203 100 0 1 0
819 203 100 0 1 0
158 150 0 1 0 0
158 97 0 1 0 0
158 97 100 1 0 0
158 150 100 1 0 0
148 150 0 -1 -0 0
148 97 0 -1 -0 0
148 97 100 -1 -0 0
148 150 100 -1 -0 0
398 463 0 1 0 0
398 411 0 1 0 0
398 411 100 1 0 0
398 463 100 1 0 0
388 463 0 -1 -0 0
388 411 0 -1 -0 0
388 411 100 -1 -0 0
388 463 100 -1 -0 0
388 467 0 -0 1 0
422 467 0 -0 1 0
422 467 100 -0 1 0
388 467 100 -0 1 0
388 457 0 0 -1 0
422 457 0 0 -1 0
422 457 100 0 -1 0
388 457 100 0 -1 0
44 242 0 1 0 0
44 195 0 1 0 0
44 195 100 1 0 0
44 242 100 1 0 0
34 242 0 -1 -0 0
34 195 0 -1 -0 0
34 195 100 -1 -0 0
34 242 100 -1 -0 0
124 433 0 -0 1 0
186 433 0 -0 1 0
186 433 100 -0 1 0
124 433 100 -0 1 0
124 423 0 0 -1 0
186 423 0 0 -1 0
186 423 100 0 -1 0
124 423 100 0 -1 0
244 102 0 -0 1 0
286 102 0 -0 1 0
286 102 100 -0 1 0
244 102 100 -0 1 0
244 92 0 0 -1 0
286 92 0 0 -1 0
286 92 100 0 -1 0
244 92 100 0 -1 0
340 102 0 -0 1 0
388 102 0 -0 1 0
388 102 100 -0 1 0
340 102 100 -0 1 0
340 92 0 0 -1 0
388 92 0 0 -1 0
388 92 100 0 -1 0
340 92 100 0 -1 0
90 102 0 -0 1 0
172 102 0 -0 1 0
172 102 100 -0 1 0
90 102 100 -0 1 0
90 92 0 0 -1 0
172 92 0 0 -1 0
172 92 100 0 -1 0
90 92 100 0 -1 0
829 455 0 825.83587646484375 454.26336669921875 0
819 455 0 825.83587646484375 454.26336669921875 0
819 455 100 825.83587646484375 454.26336669921875 0
829 455 100 825.83587646484375 454.26336669921875 0
512 193 0 509.384857177734375 192.39117431640625 0
512 203 0 509.384857177734375 192.39117431640625 0
512 203 100 509.384857177734375 192.39117431640625 0
512 193 100 509.384857177734375 192.39117431640625 0
158 150 0 155.018875122070312 148.169815063476562 0
148 150 0 155.018875122070312 148.169815063476562 0
148 150 100 155.018875122070312 148.169815063476562 0
158 150 100 155.018875122070312 148.169815063476562 0
158 97 0 155.018875122070312 94.1698150634765625 0
148 97 0 155.018875122070312 94.1698150634765625 0
148 97 100 155.018875122070312 94.1698150634765625 0
158 97 100 155.018875122070312 94.1698150634765625 0
398 463 0 390.346160888671875 455.096160888671875 0
388 463 0 390.346160888671875 455.096160888671875 0
388 463 100 390.346160888671875 455.096160888671875 0
398 463 100 390.346160888671875 455.096160888671875 0
398 411 0 390.346160888671875 402.096160888671875 0
388 411 0 390.346160888671875 402.096160888671875 0
388 411 100 390.346160888671875 402.096160888671875 0
398 411 100 390.346160888671875 402.096160888671875 0
388 467 0 375.588226318359375 453.26470947265625 0
388 457 0 375.588226318359375 453.26470947265625 0
388 457 100 375.588226318359375 453.26470947265625 0
388 467 100 375.588226318359375 453.26470947265625 0
422 467 0 410.588226318359375 453.26470947265625 0
422 457 0 410.588226318359375 453.26470947265625 0
422 457 100 410.588226318359375 453.26470947265625 0
422 467 100 410.588226318359375 453.26470947265625 0
44 242 0 43.0638313293457031 237.851058959960938 0
34 242 0 43.0638313293457031 237.851058959960938 0
34 242 100 43.0638313293457031 237.851058959960938 0
44 242 100 43.0638313293457031 237.851058959960938 0
44 195 0 43.0638313293457031 189.851058959960938 0
34 195 0 43.0638313293457031 189.851058959960938 0
34 195 100 43.0638313293457031 189.851058959960938 0
44 195 100 43.0638313293457031 189.851058959960938 0
124 433 0 121 426.016143798828125 0
124 423 0 121 426.016143798828125 0
124 423 100 121 426.016143798828125 0
124 433 100 121 426.016143798828125 0
186 433 0 184 426.016143798828125 0
186 423 0 184 426.016143798828125 0
186 423 100 184 426.016143798828125 0
186 433 100 184 426.016143798828125 0
244 102 0 237.190475463867188 99.5714263916015625 0
244 92 0 237.190475463867188 99.5714263916015625 0
244 92 100 237.190475463867188 99.5714263916015625 0
244 102 100 237.190475463867188 99.5714263916015625 0
286 102 0 280.19049072265625 99.5714263916015625 0
286 92 0 280.19049072265625 99.5714263916015625 0
286 92 100 280.19049072265625 99.5714263916015625 0
286 102 100 280.19049072265625 99.5714263916015625 0
340 102 0 331.916656494140625 99.875 0
340 92 0 331.916656494140625 99.875 0
340 92 100 331.916656494140625 99.875 0
340 102 100 331.916656494140625 99.875 0
388 102 0 380.916656494140625 99.875 0
388 92 0 380.916656494140625 99.875 0
388 92 100 380.916656494140625 99.875 0
388 102 100 380.916656494140625 99.875 0
90 102 0 87.902435302734375 100.756095886230469 0
90 92 0 87.902435302734375 100.756095886230469 0
90 92 100 87.902435302734375 100.756095886230469 0
90 102 100 87.902435302734375 100.756095886230469 0
172 102 0 170.902435302734375 100.756095886230469 0
172 92 0 170.902435302734375 100.756095886230469 0
172 92 100 170.902435302734375 100.756095886230469 0
172 102 100 170.902435302734375 100.756095886230469 0
829 455 0 0 0 -1
819 455 0 0 0 -1
819 203 0 0 0 -1
829 193 0 0 0 -1
829 455 100 0 0 1
819 455 100 0 0 1
819 203 100 0 0 1
829 193 100 0 0 1
829 193 0 0 0 -1
819 203 0 0 0 -1
512 203 0 0 0 -1
512 193 0 0 0 -1
829 193 100 0 0 1
819 203 100 0 0 1
512 203 100 0 0 1
512 193 100 0 0 1
158 150 0 0 0 -1
148 150 0 0 0 -1
148 97 0 0 0 -1
158 97 0 0 0 -1
158 150 100 0 0 1
148 150 100 0 0 1
148 97 100 0 0 1
158 97 100 0 0 1
398 463 0 0 0 -1
388 463 0 0 0 -1
388 411 0 0 0 -1
398 411 0 0 0 -1
398 463 100 0 0 1
388 463 100 0 0 1
388 411 100 0 0 1
398 411 100 0 0 1
388 467 0 0 0 -1
388 457 0 0 0 -1
422 457 0 0 0 -1
422 467 0 0 0 -1
388 467 100 0 0 1
388 457 100 0 0 1
422 457 100 0 0 1
422 467 100 0 0 1
44 242 0 0 0 -1
34 242 0 0 0 -1
34 195 0 0 0 -1
44 195 0 0 0 -1
44 242 100 0 0 1
34 242 100 0 0 1
34 195 100 0 0 1
44 195 100 0 0 1
124 433 0 0 0 -1
124 423 0 0 0 -1
186 423 0 0 0 -1
186 433 0 0 0 -1
124 433 100 0 0 1
124 423 100 0 0 1
186 423 100 0 0 1
186 433 100 0 0 1
244 102 0 0 0 -1
244 92 0 0 0 -1
286 92 0 0 0 -1
286 102 0 0 0 -1
244 102 100 0 0 1
244 92 100 0 0 1
286 92 100 0 0 1
286 102 100 0 0 1
340 102 0 0 0 -1
340 92 0 0 0 -1
388 92 0 0 0 -1
388 102 0 0 0 -1
340 102 100 0 0 1
340 92 100 0 0 1
388 92 100 0 0 1
388 102 100 0 0 1
90 102 0 0 0 -1
90 92 0 0 0 -1
172 92 0 0 0 -1
172 102 0 0 0 -1
90 102 100 0 0 1
90 92 100 0 0 1
172 92 100 0 0 1
172 102 100 0 0 1
4 0 1 2 3
4 4 5 6 7
4 8 9 10 11
4 12 13 14 15
4 16 17 18 19
4 20 21 22 23
4 24 25 26 27
4 28 29 30 31
4 32 33 34 35
4 36 37 38 39
4 40 41 42 43
4 44 45 46 47
4 48 49 50 51
4 52 53 54 55
4 56 57 58 59
4 60 61 62 63
4 64 65 66 67
4 68 69 70 71
4 72 73 74 75
4 76 77 78 79
4 80 81 82 83
4 84 85 86 87
4 88 89 90 91
4 92 93 94 95
4 96 97 98 99
4 100 101 102 103
4 104 105 106 107
4 108 109 110 111
4 112 113 114 115
4 116 117 118 119
4 120 121 122 123
4 124 125 126 127
4 128 129 130 131
4 132 133 134 135
4 136 137 138 139
4 140 141 142 143
4 144 145 146 147
4 148 149 150 151
4 152 153 154 155
4 156 157 158 159
4 160 161 162 163
4 164 165 166 167
4 168 169 170 171
4 172 173 174 175
4 176 177 178 179
4 180 181 182 183
4 184 185 186 187
4 188 189 190 191
4 192 193 194 195
4 196 197 198 199
4 200 201 202 203
4 204 205 206 207
4 208 209 210 211
4 212 213 214 215
4 216 217 218 219
4 220 221 222 223
4 224 225 226 227
4 228 229 230 231
