ply
format ascii 1.0
element vertex 548
property float x
property float y
property float z
property float nx
property float ny
property float nz
element quads 136
property list uchar int vertex_indices
end_header
172 285 0 -0 1 0
335 285 0 -0 1 0
335 285 100 -0 1 0
172 285 100 -0 1 0
172 275 0 0 -1 0
335 275 0 0 -1 0
335 275 100 0 -1 0
172 275 100 0 -1 0
573 467 0 1 0 0
573 280 0 1 0 0
573 280 100 1 0 0
573 467 100 1 0 0
563 467 0 -1 -0 0
563 280 0 -1 -0 0
563 280 100 -1 -0 0
563 467 100 -1 -0 0
233 533 0 1 0 0
233 447 0 1 0 0
233 447 100 1 0 0
233 533 100 1 0 0
223 533 0 -1 -0 0
223 447 0 -1 -0 0
223 447 100 -1 -0 0
223 533 100 -1 -0 0
548 154 0 1 0 0
548 85 0 1 0 0
548 85 100 1 0 0
548 154 100 1 0 0
538 154 0 -1 -0 0
538 85 0 -1 -0 0
538 85 100 -1 -0 0
538 154 100 -1 -0 0
177 441 0 1 0 0
177 282 0 1 0 0
177 282 100 1 0 0
177 441 100 1 0 0
167 451 0 -1 -0 0
167 282 0 -1 -0 0
167 282 100 -1 -0 0
167 451 100 -1 -0 0
167 451 0 -0 1 0
339 451 0 -0 1 0
339 451 100 -0 1 0
167 451 100 -0 1 0
177 441 0 0 -1 0
334 441 0 0 -1 0
334 441 100 0 -1 0
177 441 100 0 -1 0
615 149 0 1 0 0
615 85 0 1 0 0
615 85 100 1 0 0
615 149 100 1 0 0
605 159 0 -1 -0 0
605 85 0 -1 -0 0
605 85 100 -1 -0 0
605 159 100 -1 -0 0
605 159 0 -0 1 0
660 159 0 -0 1 0
660 159 100 -0 1 0
605 159 100 -0 1 0
615 149 0 0 -1 0
660 149 0 0 -1 0
660 149 100 0 -1 0
615 149 100 0 -1 0
496 280 0 1 0 0
496 154 0 1 0 0
496 154 100 1 0 0
496 280 100 1 0 0
486 280 0 -1 -0 0
486 154 0 -1 -0 0
486 154 100 -1 -0 0
486 280 100 -1 -0 0
451 467 0 1 0 0
451 320 0 1 0 0
451 320 100 1 0 0
451 467 100 1 0 0
441 467 0 -1 -0 0
441 320 0 -1 -0 0
441 320 100 -1 -0 0
441 467 100 -1 -0 0
341 449 0 1 0 0
341 382 0 1 0 0
341 382 100 1 0 0
341 449 100 1 0 0
331 449 0 -1 -0 0
331 382 0 -1 -0 0
331 382 100 -1 -0 0
331 449 100 -1 -0 0
208 538 0 -0 1 0
354 538 0 -0 1 0
354 538 100 -0 1 0
208 538 100 -0 1 0
208 528 0 0 -1 0
354 528 0 0 -1 0
354 528 100 0 -1 0
208 528 100 0 -1 0
336 389 0 -0 1 0
391 389 0 -0 1 0
391 389 100 -0 1 0
336 389 100 -0 1 0
336 379 0 0 -1 0
391 379 0 0 -1 0
391 379 100 0 -1 0
336 379 100 0 -1 0
567 451 0 -0 1 0
622 451 0 -0 1 0
622 451 100 -0 1 0
567 451 100 -0 1 0
567 441 0 0 -1 0
622 441 0 0 -1 0
622 441 100 0 -1 0
567 441 100 0 -1 0
567 358 0 -0 1 0
622 358 0 -0 1 0
622 358 100 -0 1 0
567 358 100 -0 1 0
567 348 0 0 -1 0
622 348 0 0 -1 0
622 348 100 0 -1 0
567 348 100 0 -1 0
446 324 0 -0 1 0
566 324 0 -0 1 0
566 324 100 -0 1 0
446 324 100 -0 1 0
446 314 0 0 -1 0
566 314 0 0 -1 0
566 314 100 0 -1 0
446 314 100 0 -1 0
392 377 0 -0 1 0
444 377 0 -0 1 0
444 377 100 -0 1 0
392 377 100 -0 1 0
392 367 0 0 -1 0
444 367 0 0 -1 0
444 367 100 0 -1 0
392 367 100 0 -1 0
452 159 0 -0 1 0
542 159 0 -0 1 0
542 159 100 -0 1 0
452 159 100 -0 1 0
452 149 0 0 -1 0
542 149 0 0 -1 0
542 149 100 0 -1 0
452 149 100 0 -1 0
548 318 0 1 0 0
548 282 0 1 0 0
548 282 100 1 0 0
548 318 100 1 0 0
538 318 0 -1 -0 0
538 282 0 -1 -0 0
538 282 100 -1 -0 0
538 318 100 -1 -0 0
395 404 0 1 0 0
395 352 0 1 0 0
395 352 100 1 0 0
395 404 100 1 0 0
385 404 0 -1 -0 0
385 352 0 -1 -0 0
385 352 100 -1 -0 0
385 404 100 -1 -0 0
485 236 0 1 0 0
485 170 0 1 0 0
485 170 100 1 0 0
485 236 100 1 0 0
475 236 0 -1 -0 0
475 170 0 -1 -0 0
475 170 100 -1 -0 0
475 236 100 -1 -0 0
339 533 0 1 0 0
339 451 0 1 0 0
339 451 100 1 0 0
339 533 100 1 0 0
329 533 0 -1 -0 0
329 446 0 -1 -0 0
329 446 100 -1 -0 0
329 533 100 -1 -0 0
339 451 0 1 0 0
339 271 0 1 0 0
339 271 100 1 0 0
339 451 100 1 0 0
329 446 0 -1 -0 0
329 271 0 -1 -0 0
329 271 100 -1 -0 0
329 446 100 -1 -0 0
339 451 0 -0 1 0
445 451 0 -0 1 0
445 451 100 -0 1 0
339 451 100 -0 1 0
334 441 0 0 -1 0
445 441 0 0 -1 0
445 441 100 0 -1 0
334 441 100 0 -1 0
172 285 0 169.944778442382812 283.25152587890625 0
172 275 0 169.944778442382812 283.25152587890625 0
172 275 100 169.944778442382812 283.25152587890625 0
172 285 100 169.944778442382812 283.25152587890625 0
335 285 0 333.944793701171875 283.25152587890625 0
335 275 0 333.944793701171875 283.25152587890625 0
335 275 100 333.944793701171875 283.25152587890625 0
335 285 100 333.944793701171875 283.25152587890625 0
573 467 0 569.93585205078125 465.502685546875 0
563 467 0 569.93585205078125 465.502685546875 0
563 467 100 569.93585205078125 465.502685546875 0
573 467 100 569.93585205078125 465.502685546875 0
573 280 0 569.93585205078125 277.502685546875 0
563 280 0 569.93585205078125 277.502685546875 0
563 280 100 569.93585205078125 277.502685546875 0
573 280 100 569.93585205078125 277.502685546875 0
233 533 0 230.290695190429688 527.80230712890625 0
223 533 0 230.290695190429688 527.80230712890625 0
223 533 100 230.290695190429688 527.80230712890625 0
233 533 100 230.290695190429688 527.80230712890625 0
233 447 0 230.290695190429688 440.802337646484375 0
223 447 0 230.290695190429688 440.802337646484375 0
223 447 100 230.290695190429688 440.802337646484375 0
233 447 100 230.290695190429688 440.802337646484375 0
548 154 0 540.0579833984375 152.768112182617188 0
538 154 0 540.0579833984375 152.768112182617188 0
538 154 100 540.0579833984375 152.768112182617188 0
548 154 100 540.0579833984375 152.768112182617188 0
548 85 0 540.0579833984375 82.7681121826171875 0
538 85 0 540.0579833984375 82.7681121826171875 0
538 85 100 540.0579833984375 82.7681121826171875 0
548 85 100 540.0579833984375 82.7681121826171875 0
177 282 0 175.886795043945312 279.226409912109375 0
167 282 0 175.886795043945312 279.226409912109375 0
167 282 100 175.886795043945312 279.226409912109375 0
177 282 100 175.886795043945312 279.226409912109375 0
615 85 0 605.390625 82.671875 0
605 85 0 605.390625 82.671875 0
605 85 100 605.390625 82.671875 0
615 85 100 605.390625 82.671875 0
496 280 0 492.063507080078125 278.77777099609375 0
486 280 0 492.063507080078125 278.77777099609375 0
486 280 100 492.063507080078125 278.77777099609375 0
496 280 100 492.063507080078125 278.77777099609375 0
496 154 0 492.063507080078125 151.77777099609375 0
486 154 0 492.063507080078125 151.77777099609375 0
486 154 100 492.063507080078125 151.77777099609375 0
496 154 100 492.063507080078125 151.77777099609375 0
451 467 0 447.931976318359375 464.8231201171875 0
441 467 0 447.931976318359375 464.8231201171875 0
441 467 100 447.931976318359375 464.8231201171875 0
451 467 100 447.931976318359375 464.8231201171875 0
451 320 0 447.931976318359375 316.8231201171875 0
441 320 0 447.931976318359375 316.8231201171875 0
441 320 100 447.931976318359375 316.8231201171875 0
451 320 100 447.931976318359375 316.8231201171875 0
341 449 0 335.91046142578125 443.298492431640625 0
331 449 0 335.91046142578125 443.298492431640625 0
331 449 100 335.91046142578125 443.298492431640625 0
341 449 100 335.91046142578125 443.298492431640625 0
341 382 0 335.91046142578125 375.298492431640625 0
331 382 0 335.91046142578125 375.298492431640625 0
331 382 100 335.91046142578125 375.298492431640625 0
341 382 100 335.91046142578125 375.298492431640625 0
208 538 0 205.575347900390625 534.3150634765625 0
208 528 0 205.575347900390625 534.3150634765625 0
208 528 100 205.575347900390625 534.3150634765625 0
208 538 100 205.575347900390625 534.3150634765625 0
354 538 0 352.575347900390625 534.3150634765625 0
354 528 0 352.575347900390625 534.3150634765625 0
354 528 100 352.575347900390625 534.3150634765625 0
354 538 100 352.575347900390625 534.3150634765625 0
336 389 0 328.890899658203125 381.927276611328125 0
336 379 0 328.890899658203125 381.927276611328125 0
336 379 100 328.890899658203125 381.927276611328125 0
336 389 100 328.890899658203125 381.927276611328125 0
391 389 0 384.890899658203125 381.927276611328125 0
391 379 0 384.890899658203125 381.927276611328125 0
391 379 100 384.890899658203125 381.927276611328125 0
391 389 100 384.890899658203125 381.927276611328125 0
567 451 0 555.69091796875 442.79998779296875 0
567 441 0 555.69091796875 442.79998779296875 0
567 441 100 555.69091796875 442.79998779296875 0
567 451 100 555.69091796875 442.79998779296875 0
622 451 0 611.69091796875 442.79998779296875 0
622 441 0 611.69091796875 442.79998779296875 0
622 441 100 611.69091796875 442.79998779296875 0
622 451 100 611.69091796875 442.79998779296875 0
567 358 0 555.69091796875 351.49090576171875 0
567 348 0 555.69091796875 351.49090576171875 0
567 348 100 555.69091796875 351.49090576171875 0
567 358 100 555.69091796875 351.49090576171875 0
622 358 0 611.69091796875 351.49090576171875 0
622 348 0 611.69091796875 351.49090576171875 0
622 348 100 611.69091796875 351.49090576171875 0
622 358 100 611.69091796875 351.49090576171875 0
660 159 0 649 156.109085083007812 0
660 149 0 649 156.109085083007812 0
660 149 100 649 156.109085083007812 0
660 159 100 649 156.109085083007812 0
446 324 0 441.2833251953125 321.29998779296875 0
446 314 0 441.2833251953125 321.29998779296875 0
446 314 100 441.2833251953125 321.29998779296875 0
446 324 100 441.2833251953125 321.29998779296875 0
566 324 0 562.2833251953125 321.29998779296875 0
566 314 0 562.2833251953125 321.29998779296875 0
566 314 100 562.2833251953125 321.29998779296875 0
566 324 100 562.2833251953125 321.29998779296875 0
392 377 0 383.4615478515625 369.75 0
392 367 0 383.4615478515625 369.75 0
392 367 100 383.4615478515625 369.75 0
392 377 100 383.4615478515625 369.75 0
444 377 0 436.4615478515625 369.75 0
444 367 0 436.4615478515625 369.75 0
444 367 100 436.4615478515625 369.75 0
444 377 100 436.4615478515625 369.75 0
452 159 0 445.977783203125 157.23333740234375 0
452 149 0 445.977783203125 157.23333740234375 0
452 149 100 445.977783203125 157.23333740234375 0
452 159 100 445.977783203125 157.23333740234375 0
542 159 0 536.977783203125 157.23333740234375 0
542 149 0 536.977783203125 157.23333740234375 0
542 149 100 536.977783203125 157.23333740234375 0
542 159 100 536.977783203125 157.23333740234375 0
548 318 0 532.77777099609375 310.166656494140625 0
538 318 0 532.77777099609375 310.166656494140625 0
538 318 100 532.77777099609375 310.166656494140625 0
548 318 100 532.77777099609375 310.166656494140625 0
548 282 0 532.77777099609375 273.166656494140625 0
538 282 0 532.77777099609375 273.166656494140625 0
538 282 100 532.77777099609375 273.166656494140625 0
548 282 100 532.77777099609375 273.166656494140625 0
395 404 0 387.403839111328125 397.23077392578125 0
385 404 0 387.403839111328125 397.23077392578125 0
385 404 100 387.403839111328125 397.23077392578125 0
395 404 100 387.403839111328125 397.23077392578125 0
395 352 0 387.403839111328125 344.23077392578125 0
385 352 0 387.403839111328125 344.23077392578125 0
385 352 100 387.403839111328125 344.23077392578125 0
395 352 100 387.403839111328125 344.23077392578125 0
485 236 0 477.651519775390625 233.424240112304688 0
475 236 0 477.651519775390625 233.424240112304688 0
475 236 100 477.651519775390625 233.424240112304688 0
485 236 100 477.651519775390625 233.424240112304688 0
485 170 0 477.651519775390625 166.424240112304688 0
475 170 0 477.651519775390625 166.424240112304688 0
475 170 100 477.651519775390625 166.424240112304688 0
485 170 100 477.651519775390625 166.424240112304688 0
339 533 0 334.8658447265625 527.5 0
329 533 0 334.8658447265625 527.5 0
329 533 100 334.8658447265625 527.5 0
339 533 100 334.8658447265625 527.5 0
339 271 0 337.116668701171875 268.49444580078125 0
329 271 0 337.116668701171875 268.49444580078125 0
329 271 100 337.116668701171875 268.49444580078125 0
339 271 100 337.116668701171875 268.49444580078125 0
445 451 0 441.8018798828125 446.745269775390625 0
445 441 0 441.8018798828125 446.745269775390625 0
445 441 100 441.8018798828125 446.745269775390625 0
445 451 100 441.8018798828125 446.745269775390625 0
172 285 0 0 0 -1
172 275 0 0 0 -1
335 275 0 0 0 -1
335 285 0 0 0 -1
172 285 100 0 0 1
172 275 100 0 0 1
335 275 100 0 0 1
335 285 100 0 0 1
573 467 0 0 0 -1
563 467 0 0 0 -1
563 280 0 0 0 -1
573 280 0 0 0 -1
573 467 100 0 0 1
563 467 100 0 0 1
563 280 100 0 0 1
573 280 100 0 0 1
233 533 0 0 0 -1
223 533 0 0 0 -1
223 447 0 0 0 -1
233 447 0 0 0 -1
233 533 100 0 0 1
223 533 100 0 0 1
223 447 100 0 0 1
233 447 100 0 0 1
548 154 0 0 0 -1
538 154 0 0 0 -1
538 85 0 0 0 -1
548 85 0 0 0 -1
548 154 100 0 0 1
538 154 100 0 0 1
538 85 100 0 0 1
548 85 100 0 0 1
177 441 0 0 0 -1
167 451 0 0 0 -1
167 282 0 0 0 -1
177 282 0 0 0 -1
177 441 100 0 0 1
167 451 100 0 0 1
167 282 100 0 0 1
177 282 100 0 0 1
167 451 0 0 0 -1
177 441 0 0 0 -1
334 441 0 0 0 -1
339 451 0 0 0 -1
167 451 100 0 0 1
177 441 100 0 0 1
334 441 100 0 0 1
339 451 100 0 0 1
615 149 0 0 0 -1
605 159 0 0 0 -1
605 85 0 0 0 -1
615 85 0 0 0 -1
615 149 100 0 0 1
605 159 100 0 0 1
605 85 100 0 0 1
615 85 100 0 0 1
605 159 0 0 0 -1
615 149 0 0 0 -1
660 149 0 0 0 -1
660 159 0 0 0 -1
605 159 100 0 0 1
615 149 100 0 0 1
660 149 100 0 0 1
660 159 100 0 0 1
496 280 0 0 0 -1
486 280 0 0 0 -1
486 154 0 0 0 -1
496 154 0 0 0 -1
496 280 100 0 0 1
486 280 100 0 0 1
486 154 100 0 0 1
496 154 100 0 0 1
451 467 0 0 0 -1
441 467 0 0 0 -1
441 320 0 0 0 -1
451 320 0 0 0 -1
451 467 100 0 0 1
441 467 100 0 0 1
441 320 100 0 0 1
451 320 100 0 0 1
341 449 0 0 0 -1
331 449 0 0 0 -1
331 382 0 0 0 -1
341 382 0 0 0 -1
341 449 100 0 0 1
331 449 100 0 0 1
331 382 100 0 0 1
341 382 100 0 0 1
208 538 0 0 0 -1
208 528 0 0 0 -1
354 528 0 0 0 -1
354 538 0 0 0 -1
208 538 100 0 0 1
208 528 100 0 0 1
354 528 100 0 0 1
354 538 100 0 0 1
336 389 0 0 0 -1
336 379 0 0 0 -1
391 379 0 0 0 -1
391 389 0 0 0 -1
336 389 100 0 0 1
336 379 100 0 0 1
391 379 100 0 0 1
391 389 100 0 0 1
567 451 0 0 0 -1
567 441 0 0 0 -1
622 441 0 0 0 -1
622 451 0 0 0 -1
567 451 100 0 0 1
567 441 100 0 0 1
622 441 100 0 0 1
622 451 100 0 0 1
567 358 0 0 0 -1
567 348 0 0 0 -1
622 348 0 0 0 -1
622 358 0 0 0 -1
567 358 100 0 0 1
567 348 100 0 0 1
622 348 100 0 0 1
622 358 100 0 0 1
446 324 0 0 0 -1
446 314 0 0 0 -1
566 314 0 0 0 -1
566 324 0 0 0 -1
446 324 100 0 0 1
446 314 100 0 0 1
566 314 100 0 0 1
566 324 100 0 0 1
392 377 0 0 0 -1
392 367 0 0 0 -1
444 367 0 0 0 -1
444 377 0 0 0 -1
392 377 100 0 0 1
392 367 100 0 0 1
444 367 100 0 0 1
444 377 100 0 0 1
452 159 0 0 0 -1
452 149 0 0 0 -1
542 149 0 0 0 -1
542 159 0 0 0 -1
452 159 100 0 0 1
452 149 100 0 0 1
542 149 100 0 0 1
542 159 100 0 0 1
548 318 0 0 0 -1
538 318 0 0 0 -1
538 282 0 0 0 -1
548 282 0 0 0 -1
548 318 100 0 0 1
538 318 100 0 0 1
538 282 100 0 0 1
548 282 100 0 0 1
395 404 0 0 0 -1
385 404 0 0 0 -1
385 352 0 0 0 -1
395 352 0 0 0 -1
395 404 100 0 0 1
385 404 100 0 0 1
385 352 100 0 0 1
395 352 100 0 0 1
485 236 0 0 0 -1
475 236 0 0 0 -1
475 170 0 0 0 -1
485 170 0 0 0 -1
485 236 100 0 0 1
475 236 100 0 0 1
475 170 100 0 0 1
485 170 100 0 0 1
339 533 0 0 0 -1
329 533 0 0 0 -1
329 446 0 0 0 -1
339 451 0 0 0 -1
339 533 100 0 0 1
329 533 100 0 0 1
329 446 100 0 0 1
339 451 100 0 0 1
339 451 0 0 0 -1
329 446 0 0 0 -1
329 271 0 0 0 -1
339 271 0 0 0 -1
339 451 100 0 0 1
329 446 100 0 0 1
329 271 100 0 0 1
339 271 100 0 0 1
339 451 0 0 0 -1
334 441 0 0 0 -1
445 441 0 0 0 -1
445 451 0 0 0 -1
339 451 100 0 0 1
334 441 100 0 0 1
445 441 100 0 0 1
445 451 100 0 0 1
339 451 0 0 0 -1
339 451 0 0 0 -1
339 451 100 0 0 1
339 451 100 0 0 1
4 0 1 2 3
4 4 5 6 7
4 8 9 10 11
4 12 13 14 15
4 16 17 18 19
4 20 21 22 23
4 24 25 26 27
4 28 29 30 31
4 32 33 34 35
4 36 37 38 39
4 40 41 42 43
4 44 45 46 47
4 48 49 50 51
4 52 53 54 55
4 56 57 58 59
4 60 61 62 63
4 64 65 66 67
4 68 69 70 71
4 72 73 74 75
4 76 77 78 79
4 80 81 82 83
4 84 85 86 87
4 88 89 90 91
4 92 93 94 95
4 96 97 98 99
4 100 101 102 103
4 104 105 106 107
4 108 109 110 111
4 112 113 114 115
4 116 117 118 119
4 120 121 122 123
4 124 125 126 127
4 128 129 130 131
4 132 133 134 135
4 136 137 138 139
4 140 141 142 143
4 144 145 146 147
4 148 149 150 151
4 152 153 154 155
4 156 157 158 159
4 160 161 162 163
4 164 165 166 167
4 168 169 170 171
4 172 173 174 175
4 176 177 178 179
4 180 181 182 183
4 184 185 186 187
4 188 189 190 191
4 192 193 194 195
4 196 197 198 199
4 200 201 202 203
4 204 205 206 207
4 208 209 210 211
4 212 213 214 215
4 216 217 218 219
4 220 221 222 223
4 224 225 226 227
4 228 229 230 231
4 232 233 234 235
4 236 237 238 239
4 240 241 242 243
4 244 245 246 247
4 248 249 250 251
4 252 253 254 255
4 256 257 258 259
4 260 261 262 263
4 264 265 266 267
4 268 269 270 271
4 272 273 274 275
4 276 277 278 279
4 280 281 282 283
4 284 285 286 287
4 288 289 290 291
4 292 293 294 295
4 296 297 298 299
4 300 301 302 303
4 304 305 306 307
4 308 309 310 311
4 312 313 314 315
4 316 317 318 319
4 320 321 322 323
4 324 325 326 327
4 328 329 330 331
4 332 333 334 335
4 336 337 338 339
4 340 341 342 343
4 344 345 346 347
4 348 349 350 351
4 352 353 354 355
4 356 357 358 359
4 360 361 362 363
4 364 365 366 367
4 368 369 370 371
4 372 373 374 375
4 376 377 378 379
4 380 381 382 383
4 384 385 386 387
4 388 389 390 391
4 392 393 394 395
4 396 397 398 399
4 400 401 402 403
4 404 405 406 407
4 408 409 410 411
4 412 413 414 415
4 416 417 418 419
4 420 421 422 423
4 424 425 426 427
4 428 429 430 431
4 432 433 434 435
4 436 437 438 439
4 440 441 442 443
4 444 445 446 447
4 448 449 450 451
4 452 453 454 455
4 456 457 458 459
4 460 461 462 463
4 464 465 466 467
4 468 469 470 471
4 472 473 474 475
4 476 477 478 479
4 480 481 482 483
4 484 485 486 487
4 488 489 490 491
4 492 493 494 495
4 496 497 498 499
4 500 501 502 503
4 504 505 506 507
4 508 509 510 511
4 512 513 514 515
4 516 517 518 519
4 520 521 522 523
4 524 525 526 527
4 528 529 530 531
4 532 533 534 535
4 536 537 538 539
4 540 541 542 543
