ply
format ascii 1.0
element vertex 296
property float x
property float y
property float z
property float nx
property float ny
property float nz
element quads 74
property list uchar int vertex_indices
end_header
412 321 0 1 0 0
412 237 0 1 0 0
412 237 100 1 0 0
412 321 100 1 0 0
402 321 0 -1 -0 0
402 237 0 -1 -0 0
402 237 100 -1 -0 0
402 321 100 -1 -0 0
460 416 0 1 0 0
460 269 0 1 0 0
460 269 100 1 0 0
460 416 100 1 0 0
450 416 0 -1 -0 0
450 269 0 -1 -0 0
450 269 100 -1 -0 0
450 416 100 -1 -0 0
236 323 0 -0 1 0
451 323 0 -0 1 0
451 323 100 -0 1 0
236 323 100 -0 1 0
236 313 0 0 -1 0
461 313 0 0 -1 0
461 313 100 0 -1 0
236 313 100 0 -1 0
451 323 0 -1 0 0
451 416 0 -1 0 0
451 416 100 -1 0 0
451 323 100 -1 0 0
461 313 0 1 -0 0
461 416 0 1 -0 0
461 416 100 1 -0 0
461 313 100 1 -0 0
456 368 0 -0 1 0
489 368 0 -0 1 0
489 368 100 -0 1 0
456 368 100 -0 1 0
456 358 0 0 -1 0
489 358 0 0 -1 0
489 358 100 0 -1 0
456 358 100 0 -1 0
548 368 0 -0 1 0
581 368 0 -0 1 0
581 368 100 -0 1 0
548 368 100 -0 1 0
548 358 0 0 -1 0
581 358 0 0 -1 0
581 358 100 0 -1 0
548 358 100 0 -1 0
351 11 0 -0 1 0
406 11 0 -0 1 0
406 11 100 -0 1 0
351 11 100 -0 1 0
351 1 0 0 -1 0
406 1 0 0 -1 0
406 1 100 0 -1 0
351 1 100 0 -1 0
236 12 0 -0 1 0
291 12 0 -0 1 0
291 12 100 -0 1 0
236 12 100 -0 1 0
236 2 0 0 -1 0
291 2 0 0 -1 0
291 2 100 0 -1 0
236 2 100 0 -1 0
412 142 0 1 0 0
412 108 0 1 0 0
412 108 100 1 0 0
412 142 100 1 0 0
402 142 0 -1 -0 0
402 108 0 -1 -0 0
402 108 100 -1 -0 0
402 142 100 -1 -0 0
588 314 0 1 0 0
588 226 0 1 0 0
588 226 100 1 0 0
588 314 100 1 0 0
578 314 0 -1 -0 0
578 226 0 -1 -0 0
578 226 100 -1 -0 0
578 314 100 -1 -0 0
404 117 0 -0 1 0
512 117 0 -0 1 0
512 117 100 -0 1 0
404 117 100 -0 1 0
404 107 0 0 -1 0
512 107 0 0 -1 0
512 107 100 0 -1 0
404 107 100 0 -1 0
382 117 0 -0 1 0
406 117 0 -0 1 0
406 117 100 -0 1 0
382 117 100 -0 1 0
382 107 0 0 -1 0
406 107 0 0 -1 0
406 107 100 0 -1 0
382 107 100 0 -1 0
406 117 0 -0 1 0
437 117 0 -0 1 0
437 117 100 -0 1 0
406 117 100 -0 1 0
406 107 0 0 -1 0
437 107 0 0 -1 0
437 107 100 0 -1 0
406 107 100 0 -1 0
412 321 0 407.095245361328125 318.178558349609375 0
402 321 0 407.095245361328125 318.178558349609375 0
402 321 100 407.095245361328125 318.178558349609375 0
412 321 100 407.095245361328125 318.178558349609375 0
412 237 0 407.095245361328125 233.178573608398438 0
402 237 0 407.095245361328125 233.178573608398438 0
402 237 100 407.095245361328125 233.178573608398438 0
412 237 100 407.095245361328125 233.178573608398438 0
460 416 0 456.870758056640625 414.170074462890625 0
450 416 0 456.870758056640625 414.170074462890625 0
450 416 100 456.870758056640625 414.170074462890625 0
460 416 100 456.870758056640625 414.170074462890625 0
460 269 0 456.870758056640625 266.170074462890625 0
450 269 0 456.870758056640625 266.170074462890625 0
450 269 100 456.870758056640625 266.170074462890625 0
460 269 100 456.870758056640625 266.170074462890625 0
236 323 0 233.902328491210938 321.4976806640625 0
236 313 0 233.902328491210938 321.4976806640625 0
236 313 100 233.902328491210938 321.4976806640625 0
236 323 100 233.902328491210938 321.4976806640625 0
456 368 0 441.18182373046875 356.848480224609375 0
456 358 0 441.18182373046875 356.848480224609375 0
456 358 100 441.18182373046875 356.848480224609375 0
456 368 100 441.18182373046875 356.848480224609375 0
489 368 0 475.18182373046875 356.848480224609375 0
489 358 0 475.18182373046875 356.848480224609375 0
489 358 100 475.18182373046875 356.848480224609375 0
489 368 100 475.18182373046875 356.848480224609375 0
451 416 0 446.150543212890625 412.526885986328125 0
461 416 0 446.150543212890625 412.526885986328125 0
461 416 100 446.150543212890625 412.526885986328125 0
451 416 100 446.150543212890625 412.526885986328125 0
548 368 0 530.3939208984375 356.848480224609375 0
548 358 0 530.3939208984375 356.848480224609375 0
548 358 100 530.3939208984375 356.848480224609375 0
548 368 100 530.3939208984375 356.848480224609375 0
581 368 0 564.3939208984375 356.848480224609375 0
581 358 0 564.3939208984375 356.848480224609375 0
581 358 100 564.3939208984375 356.848480224609375 0
581 368 100 564.3939208984375 356.848480224609375 0
351 11 0 343.618194580078125 10.8000001907348633 0
351 1 0 343.618194580078125 10.8000001907348633 0
351 1 100 343.618194580078125 10.8000001907348633 0
351 11 100 343.618194580078125 10.8000001907348633 0
406 11 0 399.618194580078125 10.8000001907348633 0
406 1 0 399.618194580078125 10.8000001907348633 0
406 1 100 399.618194580078125 10.8000001907348633 0
406 11 100 399.618194580078125 10.8000001907348633 0
236 12 0 230.709091186523438 11.7818183898925781 0
236 2 0 230.709091186523438 11.7818183898925781 0
236 2 100 230.709091186523438 11.7818183898925781 0
236 12 100 230.709091186523438 11.7818183898925781 0
291 12 0 286.709075927734375 11.7818183898925781 0
291 2 0 286.709075927734375 11.7818183898925781 0
291 2 100 286.709075927734375 11.7818183898925781 0
291 12 100 286.709075927734375 11.7818183898925781 0
412 142 0 399.882354736328125 138.823532104492188 0
402 142 0 399.882354736328125 138.823532104492188 0
402 142 100 399.882354736328125 138.823532104492188 0
412 142 100 399.882354736328125 138.823532104492188 0
412 108 0 399.882354736328125 103.823532104492188 0
402 108 0 399.882354736328125 103.823532104492188 0
402 108 100 399.882354736328125 103.823532104492188 0
412 108 100 399.882354736328125 103.823532104492188 0
588 314 0 581.31817626953125 311.43182373046875 0
578 314 0 581.31817626953125 311.43182373046875 0
578 314 100 581.31817626953125 311.43182373046875 0
588 314 100 581.31817626953125 311.43182373046875 0
588 226 0 581.31817626953125 222.43182373046875 0
578 226 0 581.31817626953125 222.43182373046875 0
578 226 100 581.31817626953125 222.43182373046875 0
588 226 100 581.31817626953125 222.43182373046875 0
404 117 0 399.259246826171875 115.916664123535156 0
404 107 0 399.259246826171875 115.916664123535156 0
404 107 100 399.259246826171875 115.916664123535156 0
404 117 100 399.259246826171875 115.916664123535156 0
512 117 0 508.259246826171875 115.916664123535156 0
512 107 0 508.259246826171875 115.916664123535156 0
512 107 100 508.259246826171875 115.916664123535156 0
512 117 100 508.259246826171875 115.916664123535156 0
382 117 0 365.083343505859375 112.125 0
382 107 0 365.083343505859375 112.125 0
382 107 100 365.083343505859375 112.125 0
382 117 100 365.083343505859375 112.125 0
437 117 0 423.903228759765625 113.225807189941406 0
437 107 0 423.903228759765625 113.225807189941406 0
437 107 100 423.903228759765625 113.225807189941406 0
437 117 100 423.903228759765625 113.225807189941406 0
412 321 0 0 0 -1
402 321 0 0 0 -1
402 237 0 0 0 -1
412 237 0 0 0 -1
412 321 100 0 0 1
402 321 100 0 0 1
402 237 100 0 0 1
412 237 100 0 0 1
460 416 0 0 0 -1
450 416 0 0 0 -1
450 269 0 0 0 -1
460 269 0 0 0 -1
460 416 100 0 0 1
450 416 100 0 0 1
450 269 100 0 0 1
460 269 100 0 0 1
236 323 0 0 0 -1
236 313 0 0 0 -1
461 313 0 0 0 -1
451 323 0 0 0 -1
236 323 100 0 0 1
236 313 100 0 0 1
461 313 100 0 0 1
451 323 100 0 0 1
451 323 0 0 0 -1
461 313 0 0 0 -1
461 416 0 0 0 -1
451 416 0 0 0 -1
451 323 100 0 0 1
461 313 100 0 0 1
461 416 100 0 0 1
451 416 100 0 0 1
456 368 0 0 0 -1
456 358 0 0 0 -1
489 358 0 0 0 -1
489 368 0 0 0 -1
456 368 100 0 0 1
456 358 100 0 0 1
489 358 100 0 0 1
489 368 100 0 0 1
548 368 0 0 0 -1
548 358 0 0 0 -1
581 358 0 0 0 -1
581 368 0 0 0 -1
548 368 100 0 0 1
548 358 100 0 0 1
581 358 100 0 0 1
581 368 100 0 0 1
351 11 0 0 0 -1
351 1 0 0 0 -1
406 1 0 0 0 -1
406 11 0 0 0 -1
351 11 100 0 0 1
351 1 100 0 0 1
406 1 100 0 0 1
406 11 100 0 0 1
236 12 0 0 0 -1
236 2 0 0 0 -1
291 2 0 0 0 -1
291 12 0 0 0 -1
236 12 100 0 0 1
236 2 100 0 0 1
291 2 100 0 0 1
291 12 100 0 0 1
412 142 0 0 0 -1
402 142 0 0 0 -1
402 108 0 0 0 -1
412 108 0 0 0 -1
412 142 100 0 0 1
402 142 100 0 0 1
402 108 100 0 0 1
412 108 100 0 0 1
588 314 0 0 0 -1
578 314 0 0 0 -1
578 226 0 0 0 -1
588 226 0 0 0 -1
588 314 100 0 0 1
578 314 100 0 0 1
578 226 100 0 0 1
588 226 100 0 0 1
404 117 0 0 0 -1
404 107 0 0 0 -1
512 107 0 0 0 -1
512 117 0 0 0 -1
404 117 100 0 0 1
404 107 100 0 0 1
512 107 100 0 0 1
512 117 100 0 0 1
382 117 0 0 0 -1
382 107 0 0 0 -1
406 107 0 0 0 -1
406 117 0 0 0 -1
382 117 100 0 0 1
382 107 100 0 0 1
406 107 100 0 0 1
406 117 100 0 0 1
406 117 0 0 0 -1
406 107 0 0 0 -1
437 107 0 0 0 -1
437 117 0 0 0 -1
406 117 100 0 0 1
406 107 100 0 0 1
437 107 100 0 0 1
437 117 100 0 0 1
4 0 1 2 3
4 4 5 6 7
4 8 9 10 11
4 12 13 14 15
4 16 17 18 19
4 20 21 22 23
4 24 25 26 27
4 28 29 30 31
4 32 33 34 35
4 36 37 38 39
4 40 41 42 43
4 44 45 46 47
4 48 49 50 51
4 52 53 54 55
4 56 57 58 59
4 60 61 62 63
4 64 65 66 67
4 68 69 70 71
4 72 73 74 75
4 76 77 78 79
4 80 81 82 83
4 84 85 86 87
4 88 89 90 91
4 92 93 94 95
4 96 97 98 99
4 100 101 102 103
4 104 105 106 107
4 108 109 110 111
4 112 113 114 115
4 116 117 118 119
4 120 121 122 123
4 124 125 126 127
4 128 129 130 131
4 132 133 134 135
4 136 137 138 139
4 140 141 142 143
4 144 145 146 147
4 148 149 150 151
4 152 153 154 155
4 156 157 158 159
4 160 161 162 163
4 164 165 166 167
4 168 169 170 171
4 172 173 174 175
4 176 177 178 179
4 180 181 182 183
4 184 185 186 187
4 188 189 190 191
4 192 193 194 195
4 196 197 198 199
4 200 201 202 203
4 204 205 206 207
4 208 209 210 211
4 212 213 214 215
4 216 217 218 219
4 220 221 222 223
4 224 225 226 227
4 228 229 230 231
4 232 233 234 235
4 236 237 238 239
4 240 241 242 243
4 244 245 246 247
4 248 249 250 251
4 252 253 254 255
4 256 257 258 259
4 260 261 262 263
4 264 265 266 267
4 268 269 270 271
4 272 273 274 275
4 276 277 278 279
4 280 281 282 283
4 284 285 286 287
4 288 289 290 291
4 292 293 294 295
