ply
format ascii 1.0
element vertex 336
property float x
property float y
property float z
property float nx
property float ny
property float nz
element quads 83
property list uchar int vertex_indices
end_header
559 471 0 1 0 0
559 157 0 1 0 0
559 157 100 1 0 0
559 471 100 1 0 0
549 471 0 -1 -0 0
549 157 0 -1 -0 0
549 157 100 -1 -0 0
549 471 100 -1 -0 0
559 335 0 1 0 0
559 46 0 1 0 0
559 46 100 1 0 0
559 335 100 1 0 0
549 335 0 -1 -0 0
549 51 0 -1 -0 0
549 51 100 -1 -0 0
549 335 100 -1 -0 0
559 41 0 -0 -1 0
249 41 0 -0 -1 0
249 41 100 -0 -1 0
559 41 100 -0 -1 0
549 51 0 0 1 0
259 51 0 0 1 0
259 51 100 0 1 0
549 51 100 0 1 0
549 46 0 -1 0 0
549 87 0 -1 0 0
549 87 100 -1 0 0
549 46 100 -1 0 0
559 41 0 1 -0 0
559 87 0 1 -0 0
559 87 100 1 -0 0
559 41 100 1 -0 0
259 317 0 1 0 0
259 51 0 1 0 0
259 51 100 1 0 0
259 317 100 1 0 0
249 317 0 -1 -0 0
249 41 0 -1 -0 0
249 41 100 -1 -0 0
249 317 100 -1 -0 0
501 306 0 1 0 0
501 41 0 1 0 0
501 41 100 1 0 0
501 306 100 1 0 0
491 306 0 -1 -0 0
491 51 0 -1 -0 0
491 51 100 -1 -0 0
491 306 100 -1 -0 0
501 41 0 -0 -1 0
382 41 0 -0 -1 0
382 41 100 -0 -1 0
501 41 100 -0 -1 0
491 51 0 0 1 0
382 51 0 0 1 0
382 51 100 0 1 0
491 51 100 0 1 0
499 306 0 1 0 0
499 107 0 1 0 0
499 107 100 1 0 0
499 306 100 1 0 0
489 306 0 -1 -0 0
489 107 0 -1 -0 0
489 107 100 -1 -0 0
489 306 100 -1 -0 0
434 117 0 1 0 0
434 46 0 1 0 0
434 46 100 1 0 0
434 117 100 1 0 0
424 117 0 -1 -0 0
424 46 0 -1 -0 0
424 46 100 -1 -0 0
424 117 100 -1 -0 0
324 265 0 -0 1 0
436 265 0 -0 1 0
436 265 100 -0 1 0
324 265 100 -0 1 0
324 255 0 0 -1 0
436 255 0 0 -1 0
436 255 100 0 -1 0
324 255 100 0 -1 0
375 295 0 -0 1 0
436 295 0 -0 1 0
436 295 100 -0 1 0
375 295 100 -0 1 0
375 285 0 0 -1 0
436 285 0 0 -1 0
436 285 100 0 -1 0
375 285 100 0 -1 0
496 203 0 -0 1 0
551 203 0 -0 1 0
551 203 100 -0 1 0
496 203 100 -0 1 0
496 193 0 0 -1 0
551 193 0 0 -1 0
551 193 100 0 -1 0
496 193 100 0 -1 0
483 332 0 1 0 0
483 306 0 1 0 0
483 306 100 1 0 0
483 332 100 1 0 0
473 332 0 -1 -0 0
473 306 0 -1 -0 0
473 306 100 -1 -0 0
473 332 100 -1 -0 0
523 476 0 -0 1 0
552 476 0 -0 1 0
552 476 100 -0 1 0
523 476 100 -0 1 0
523 466 0 0 -1 0
552 466 0 0 -1 0
552 466 100 0 -1 0
523 466 100 0 -1 0
405 435 0 -0 1 0
436 435 0 -0 1 0
436 435 100 -0 1 0
405 435 100 -0 1 0
405 425 0 0 -1 0
436 425 0 0 -1 0
436 425 100 0 -1 0
405 425 100 0 -1 0
559 471 0 557.2197265625 470.5 0
549 471 0 557.2197265625 470.5 0
549 471 100 557.2197265625 470.5 0
559 471 100 557.2197265625 470.5 0
559 157 0 557.2197265625 155.5 0
549 157 0 557.2197265625 155.5 0
549 157 100 557.2197265625 155.5 0
559 157 100 557.2197265625 155.5 0
559 335 0 557.06573486328125 334.8408203125 0
549 335 0 557.06573486328125 334.8408203125 0
549 335 100 557.06573486328125 334.8408203125 0
559 335 100 557.06573486328125 334.8408203125 0
259 317 0 258.02630615234375 316.808258056640625 0
249 317 0 258.02630615234375 316.808258056640625 0
249 317 100 258.02630615234375 316.808258056640625 0
259 317 100 258.02630615234375 316.808258056640625 0
501 306 0 499.10943603515625 305.84527587890625 0
491 306 0 499.10943603515625 305.84527587890625 0
491 306 100 499.10943603515625 305.84527587890625 0
501 306 100 499.10943603515625 305.84527587890625 0
499 306 0 496.492462158203125 305.462310791015625 0
489 306 0 496.492462158203125 305.462310791015625 0
489 306 100 496.492462158203125 305.462310791015625 0
499 306 100 496.492462158203125 305.462310791015625 0
499 107 0 496.492462158203125 105.462310791015625 0
489 107 0 496.492462158203125 105.462310791015625 0
489 107 100 496.492462158203125 105.462310791015625 0
499 107 100 496.492462158203125 105.462310791015625 0
434 117 0 427.8873291015625 116.35211181640625 0
424 117 0 427.8873291015625 116.35211181640625 0
424 117 100 427.8873291015625 116.35211181640625 0
434 117 100 427.8873291015625 116.35211181640625 0
434 46 0 427.8873291015625 44.35211181640625 0
424 46 0 427.8873291015625 44.35211181640625 0
424 46 100 427.8873291015625 44.35211181640625 0
434 46 100 427.8873291015625 44.35211181640625 0
324 265 0 320.107147216796875 262.633941650390625 0
324 255 0 320.107147216796875 262.633941650390625 0
324 255 100 320.107147216796875 262.633941650390625 0
324 265 100 320.107147216796875 262.633941650390625 0
436 265 0 433.107147216796875 262.633941650390625 0
436 255 0 433.107147216796875 262.633941650390625 0
436 255 100 433.107147216796875 262.633941650390625 0
436 265 100 433.107147216796875 262.633941650390625 0
375 295 0 367.852447509765625 290.1639404296875 0
375 285 0 367.852447509765625 290.1639404296875 0
375 285 100 367.852447509765625 290.1639404296875 0
375 295 100 367.852447509765625 290.1639404296875 0
436 295 0 429.852447509765625 290.1639404296875 0
436 285 0 429.852447509765625 290.1639404296875 0
436 285 100 429.852447509765625 290.1639404296875 0
436 295 100 429.852447509765625 290.1639404296875 0
496 203 0 485.9818115234375 199.309097290039062 0
496 193 0 485.9818115234375 199.309097290039062 0
496 193 100 485.9818115234375 199.309097290039062 0
496 203 100 485.9818115234375 199.309097290039062 0
551 203 0 541.9818115234375 199.309097290039062 0
551 193 0 541.9818115234375 199.309097290039062 0
551 193 100 541.9818115234375 199.309097290039062 0
551 203 100 541.9818115234375 199.309097290039062 0
483 332 0 464.423065185546875 320.23077392578125 0
473 332 0 464.423065185546875 320.23077392578125 0
473 332 100 464.423065185546875 320.23077392578125 0
483 332 100 464.423065185546875 320.23077392578125 0
483 306 0 464.423065185546875 293.23077392578125 0
473 306 0 464.423065185546875 293.23077392578125 0
473 306 100 464.423065185546875 293.23077392578125 0
483 306 100 464.423065185546875 293.23077392578125 0
382 41 0 377.7899169921875 40.6554603576660156 0
382 51 0 377.7899169921875 40.6554603576660156 0
382 51 100 377.7899169921875 40.6554603576660156 0
382 41 100 377.7899169921875 40.6554603576660156 0
549 87 0 535.6097412109375 85.8780517578125 0
559 87 0 535.6097412109375 85.8780517578125 0
559 87 100 535.6097412109375 85.8780517578125 0
549 87 100 535.6097412109375 85.8780517578125 0
523 476 0 503.96551513671875 459.586212158203125 0
523 466 0 503.96551513671875 459.586212158203125 0
523 466 100 503.96551513671875 459.586212158203125 0
523 476 100 503.96551513671875 459.586212158203125 0
552 476 0 533.96551513671875 459.586212158203125 0
552 466 0 533.96551513671875 459.586212158203125 0
552 466 100 533.96551513671875 459.586212158203125 0
552 476 100 533.96551513671875 459.586212158203125 0
405 435 0 390.93548583984375 420.967742919921875 0
405 425 0 390.93548583984375 420.967742919921875 0
405 425 100 390.93548583984375 420.967742919921875 0
405 435 100 390.93548583984375 420.967742919921875 0
436 435 0 422.93548583984375 420.967742919921875 0
436 425 0 422.93548583984375 420.967742919921875 0
436 425 100 422.93548583984375 420.967742919921875 0
436 435 100 422.93548583984375 420.967742919921875 0
559 471 0 0 0 -1
549 471 0 0 0 -1
549 157 0 0 0 -1
559 157 0 0 0 -1
559 471 100 0 0 1
549 471 100 0 0 1
549 157 100 0 0 1
559 157 100 0 0 1
559 335 0 0 0 -1
549 335 0 0 0 -1
549 51 0 0 0 -1
559 46 0 0 0 -1
559 335 100 0 0 1
549 335 100 0 0 1
549 51 100 0 0 1
559 46 100 0 0 1
559 41 0 0 0 -1
549 51 0 0 0 -1
259 51 0 0 0 -1
249 41 0 0 0 -1
559 41 100 0 0 1
549 51 100 0 0 1
259 51 100 0 0 1
249 41 100 0 0 1
549 46 0 0 0 -1
559 41 0 0 0 -1
559 87 0 0 0 -1
549 87 0 0 0 -1
549 46 100 0 0 1
559 41 100 0 0 1
559 87 100 0 0 1
549 87 100 0 0 1
259 317 0 0 0 -1
249 317 0 0 0 -1
249 41 0 0 0 -1
259 51 0 0 0 -1
259 317 100 0 0 1
249 317 100 0 0 1
249 41 100 0 0 1
259 51 100 0 0 1
501 306 0 0 0 -1
491 306 0 0 0 -1
491 51 0 0 0 -1
501 41 0 0 0 -1
501 306 100 0 0 1
491 306 100 0 0 1
491 51 100 0 0 1
501 41 100 0 0 1
501 41 0 0 0 -1
491 51 0 0 0 -1
382 51 0 0 0 -1
382 41 0 0 0 -1
501 41 100 0 0 1
491 51 100 0 0 1
382 51 100 0 0 1
382 41 100 0 0 1
499 306 0 0 0 -1
489 306 0 0 0 -1
489 107 0 0 0 -1
499 107 0 0 0 -1
499 306 100 0 0 1
489 306 100 0 0 1
489 107 100 0 0 1
499 107 100 0 0 1
434 117 0 0 0 -1
424 117 0 0 0 -1
424 46 0 0 0 -1
434 46 0 0 0 -1
434 117 100 0 0 1
424 117 100 0 0 1
424 46 100 0 0 1
434 46 100 0 0 1
324 265 0 0 0 -1
324 255 0 0 0 -1
436 255 0 0 0 -1
436 265 0 0 0 -1
324 265 100 0 0 1
324 255 100 0 0 1
436 255 100 0 0 1
436 265 100 0 0 1
375 295 0 0 0 -1
375 285 0 0 0 -1
436 285 0 0 0 -1
436 295 0 0 0 -1
375 295 100 0 0 1
375 285 100 0 0 1
436 285 100 0 0 1
436 295 100 0 0 1
496 203 0 0 0 -1
496 193 0 0 0 -1
551 193 0 0 0 -1
551 203 0 0 0 -1
496 203 100 0 0 1
496 193 100 0 0 1
551 193 100 0 0 1
551 203 100 0 0 1
483 332 0 0 0 -1
473 332 0 0 0 -1
473 306 0 0 0 -1
483 306 0 0 0 -1
483 332 100 0 0 1
473 332 100 0 0 1
473 306 100 0 0 1
483 306 100 0 0 1
523 476 0 0 0 -1
523 466 0 0 0 -1
552 466 0 0 0 -1
552 476 0 0 0 -1
523 476 100 0 0 1
523 466 100 0 0 1
552 466 100 0 0 1
552 476 100 0 0 1
405 435 0 0 0 -1
405 425 0 0 0 -1
436 425 0 0 0 -1
436 435 0 0 0 -1
405 435 100 0 0 1
405 425 100 0 0 1
436 425 100 0 0 1
436 435 100 0 0 1
549 51 0 0 0 -1
559 41 0 0 0 -1
549 51 100 0 0 1
559 41 100 0 0 1
4 0 1 2 3
4 4 5 6 7
4 8 9 10 11
4 12 13 14 15
4 16 17 18 19
4 20 21 22 23
4 24 25 26 27
4 28 29 30 31
4 32 33 34 35
4 36 37 38 39
4 40 41 42 43
4 44 45 46 47
4 48 49 50 51
4 52 53 54 55
4 56 57 58 59
4 60 61 62 63
4 64 65 66 67
4 68 69 70 71
4 72 73 74 75
4 76 77 78 79
4 80 81 82 83
4 84 85 86 87
4 88 89 90 91
4 92 93 94 95
4 96 97 98 99
4 100 101 102 103
4 104 105 106 107
4 108 109 110 111
4 112 113 114 115
4 116 117 118 119
4 120 121 122 123
4 124 125 126 127
4 128 129 130 131
4 132 133 134 135
4 136 137 138 139
4 140 141 142 143
4 144 145 146 147
4 148 149 150 151
4 152 153 154 155
4 156 157 158 159
4 160 161 162 163
4 164 165 166 167
4 168 169 170 171
4 172 173 174 175
4 176 177 178 179
4 180 181 182 183
4 184 185 186 187
4 188 189 190 191
4 192 193 194 195
4 196 197 198 199
4 200 201 202 203
4 204 205 206 207
4 208 209 210 211
4 212 213 214 215
4 216 217 218 219
4 220 221 222 223
4 224 225 226 227
4 228 229 230 231
4 232 233 234 235
4 236 237 238 239
4 240 241 242 243
4 244 245 246 247
4 248 249 250 251
4 252 253 254 255
4 256 257 258 259
4 260 261 262 263
4 264 265 266 267
4 268 269 270 271
4 272 273 274 275
4 276 277 278 279
4 280 281 282 283
4 284 285 286 287
4 288 289 290 291
4 292 293 294 295
4 296 297 298 299
4 300 301 302 303
4 304 305 306 307
4 308 309 310 311
4 312 313 314 315
4 316 317 318 319
4 320 321 322 323
4 324 325 326 327
4 328 329 330 331
