ply
format ascii 1.0
element vertex 1616
property float x
property float y
property float z
property float nx
property float ny
property float nz
element quads 401
property list uchar int vertex_indices
end_header
613 492 0 1 0 0
613 258 0 1 0 0
613 258 100 1 0 0
613 492 100 1 0 0
603 492 0 -1 -0 0
603 258 0 -1 -0 0
603 258 100 -1 -0 0
603 492 100 -1 -0 0
613 492 0 1 0 0
613 369 0 1 0 0
613 369 100 1 0 0
613 492 100 1 0 0
603 492 0 -1 -0 0
603 369 0 -1 -0 0
603 369 100 -1 -0 0
603 492 100 -1 -0 0
613 492 0 1 0 0
613 450 0 1 0 0
613 450 100 1 0 0
613 492 100 1 0 0
603 492 0 -1 -0 0
603 450 0 -1 -0 0
603 450 100 -1 -0 0
603 492 100 -1 -0 0
613 492 0 1 0 0
613 155 0 1 0 0
613 155 100 1 0 0
613 492 100 1 0 0
603 492 0 -1 -0 0
603 155 0 -1 -0 0
603 155 100 -1 -0 0
603 492 100 -1 -0 0
613 258 0 1 0 0
613 155 0 1 0 0
613 155 100 1 0 0
613 258 100 1 0 0
603 258 0 -1 -0 0
603 155 0 -1 -0 0
603 155 100 -1 -0 0
603 258 100 -1 -0 0
316 412 0 1 0 0
316 281 0 1 0 0
316 281 100 1 0 0
316 412 100 1 0 0
306 412 0 -1 -0 0
306 281 0 -1 -0 0
306 281 100 -1 -0 0
306 412 100 -1 -0 0
215 343 0 1 0 0
215 166 0 1 0 0
215 166 100 1 0 0
215 343 100 1 0 0
205 343 0 -1 -0 0
205 166 0 -1 -0 0
205 166 100 -1 -0 0
205 343 100 -1 -0 0
205 166 0 -1 0 0
205 425 0 -1 0 0
205 425 100 -1 0 0
205 166 100 -1 0 0
215 166 0 1 -0 0
215 420 0 1 -0 0
215 420 100 1 -0 0
215 166 100 1 -0 0
426 462 0 1 0 0
426 390 0 1 0 0
426 390 100 1 0 0
426 462 100 1 0 0
416 462 0 -1 -0 0
416 390 0 -1 -0 0
416 390 100 -1 -0 0
416 462 100 -1 -0 0
426 462 0 1 0 0
426 378 0 1 0 0
426 378 100 1 0 0
426 462 100 1 0 0
416 462 0 -1 -0 0
416 378 0 -1 -0 0
416 378 100 -1 -0 0
416 462 100 -1 -0 0
613 160 0 1 0 0
613 136 0 1 0 0
613 136 100 1 0 0
613 160 100 1 0 0
603 155 0 -1 -0 0
603 136 0 -1 -0 0
603 136 100 -1 -0 0
603 155 100 -1 -0 0
608 150 0 -0 -1 0
542 150 0 -0 -1 0
542 150 100 -0 -1 0
608 150 100 -0 -1 0
613 160 0 0 1 0
542 160 0 0 1 0
542 160 100 0 1 0
613 160 100 0 1 0
613 160 0 -0 1 0
635 160 0 -0 1 0
635 160 100 -0 1 0
613 160 100 -0 1 0
608 150 0 0 -1 0
635 150 0 0 -1 0
635 150 100 0 -1 0
608 150 100 0 -1 0
603 155 0 -1 0 0
603 388 0 -1 0 0
603 388 100 -1 0 0
603 155 100 -1 0 0
613 160 0 1 -0 0
613 388 0 1 -0 0
613 388 100 1 -0 0
613 160 100 1 -0 0
613 155 0 1 0 0
613 141 0 1 0 0
613 141 100 1 0 0
613 155 100 1 0 0
603 155 0 -1 -0 0
603 141 0 -1 -0 0
603 141 100 -1 -0 0
603 155 100 -1 -0 0
316 170 0 1 0 0
316 41 0 1 0 0
316 41 100 1 0 0
316 170 100 1 0 0
306 170 0 -1 -0 0
306 41 0 -1 -0 0
306 41 100 -1 -0 0
306 170 100 -1 -0 0
291 68 0 1 0 0
291 42 0 1 0 0
291 42 100 1 0 0
291 68 100 1 0 0
281 68 0 -1 -0 0
281 42 0 -1 -0 0
281 42 100 -1 -0 0
281 68 100 -1 -0 0
281 42 0 -1 0 0
281 66 0 -1 0 0
281 66 100 -1 0 0
281 42 100 -1 0 0
291 42 0 1 -0 0
291 66 0 1 -0 0
291 66 100 1 -0 0
291 42 100 1 -0 0
316 114 0 1 0 0
316 86 0 1 0 0
316 86 100 1 0 0
316 114 100 1 0 0
306 114 0 -1 -0 0
306 86 0 -1 -0 0
306 86 100 -1 -0 0
306 114 100 -1 -0 0
397 282 0 1 0 0
397 148 0 1 0 0
397 148 100 1 0 0
397 282 100 1 0 0
387 282 0 -1 -0 0
387 148 0 -1 -0 0
387 148 100 -1 -0 0
387 282 100 -1 -0 0
397 282 0 1 0 0
397 234 0 1 0 0
397 234 100 1 0 0
397 282 100 1 0 0
387 282 0 -1 -0 0
387 234 0 -1 -0 0
387 234 100 -1 -0 0
387 282 100 -1 -0 0
387 148 0 -1 0 0
387 196 0 -1 0 0
387 196 100 -1 0 0
387 148 100 -1 0 0
397 148 0 1 -0 0
397 196 0 1 -0 0
397 196 100 1 -0 0
397 148 100 1 -0 0
447 130 0 1 0 0
447 54 0 1 0 0
447 54 100 1 0 0
447 130 100 1 0 0
437 130 0 -1 -0 0
437 54 0 -1 -0 0
437 54 100 -1 -0 0
437 130 100 -1 -0 0
306 436 0 1 0 0
306 312 0 1 0 0
306 312 100 1 0 0
306 436 100 1 0 0
296 436 0 -1 -0 0
296 312 0 -1 -0 0
296 312 100 -1 -0 0
296 436 100 -1 -0 0
316 450 0 1 0 0
316 379 0 1 0 0
316 379 100 1 0 0
316 450 100 1 0 0
306 450 0 -1 -0 0
306 379 0 -1 -0 0
306 379 100 -1 -0 0
306 450 100 -1 -0 0
326 107 0 1 0 0
326 46 0 1 0 0
326 46 100 1 0 0
326 107 100 1 0 0
316 107 0 -1 -0 0
316 46 0 -1 -0 0
316 46 100 -1 -0 0
316 107 100 -1 -0 0
481 255 0 1 0 0
481 192 0 1 0 0
481 192 100 1 0 0
481 255 100 1 0 0
471 255 0 -1 -0 0
471 192 0 -1 -0 0
471 192 100 -1 -0 0
471 255 100 -1 -0 0
337 144 0 1 0 0
337 101 0 1 0 0
337 101 100 1 0 0
337 144 100 1 0 0
327 144 0 -1 -0 0
327 101 0 -1 -0 0
327 101 100 -1 -0 0
327 144 100 -1 -0 0
337 144 0 1 0 0
337 36 0 1 0 0
337 36 100 1 0 0
337 144 100 1 0 0
327 144 0 -1 -0 0
327 36 0 -1 -0 0
327 36 100 -1 -0 0
327 144 100 -1 -0 0
337 57 0 1 0 0
337 36 0 1 0 0
337 36 100 1 0 0
337 57 100 1 0 0
327 57 0 -1 -0 0
327 36 0 -1 -0 0
327 36 100 -1 -0 0
327 57 100 -1 -0 0
392 533 0 -0 1 0
424 533 0 -0 1 0
424 533 100 -0 1 0
392 533 100 -0 1 0
392 523 0 0 -1 0
424 523 0 0 -1 0
424 523 100 0 -1 0
392 523 100 0 -1 0
416 378 0 -1 0 0
416 448 0 -1 0 0
416 448 100 -1 0 0
416 378 100 -1 0 0
426 378 0 1 -0 0
426 448 0 1 -0 0
426 448 100 1 -0 0
426 378 100 1 -0 0
406 64 0 1 0 0
406 26 0 1 0 0
406 26 100 1 0 0
406 64 100 1 0 0
396 64 0 -1 -0 0
396 26 0 -1 -0 0
396 26 100 -1 -0 0
396 64 100 -1 -0 0
201 446 0 1 0 0
201 418 0 1 0 0
201 418 100 1 0 0
201 446 100 1 0 0
191 446 0 -1 -0 0
191 418 0 -1 -0 0
191 418 100 -1 -0 0
191 446 100 -1 -0 0
313 450 0 1 0 0
313 310 0 1 0 0
313 310 100 1 0 0
313 450 100 1 0 0
303 450 0 -1 -0 0
303 310 0 -1 -0 0
303 310 100 -1 -0 0
303 450 100 -1 -0 0
361 432 0 1 0 0
361 379 0 1 0 0
361 379 100 1 0 0
361 432 100 1 0 0
351 432 0 -1 -0 0
351 379 0 -1 -0 0
351 379 100 -1 -0 0
351 432 100 -1 -0 0
287 294 0 1 0 0
287 263 0 1 0 0
287 263 100 1 0 0
287 294 100 1 0 0
277 294 0 -1 -0 0
277 263 0 -1 -0 0
277 263 100 -1 -0 0
277 294 100 -1 -0 0
317 196 0 1 0 0
317 32 0 1 0 0
317 32 100 1 0 0
317 196 100 1 0 0
307 196 0 -1 -0 0
307 32 0 -1 -0 0
307 32 100 -1 -0 0
307 196 100 -1 -0 0
307 32 0 -1 0 0
307 102 0 -1 0 0
307 102 100 -1 0 0
307 32 100 -1 0 0
317 32 0 1 -0 0
317 102 0 1 -0 0
317 102 100 1 -0 0
317 32 100 1 -0 0
397 423 0 1 0 0
397 390 0 1 0 0
397 390 100 1 0 0
397 423 100 1 0 0
387 423 0 -1 -0 0
387 390 0 -1 -0 0
387 390 100 -1 -0 0
387 423 100 -1 -0 0
302 88 0 1 0 0
302 64 0 1 0 0
302 64 100 1 0 0
302 88 100 1 0 0
292 88 0 -1 -0 0
292 64 0 -1 -0 0
292 64 100 -1 -0 0
292 88 100 -1 -0 0
416 454 0 1 0 0
416 378 0 1 0 0
416 378 100 1 0 0
416 454 100 1 0 0
406 454 0 -1 -0 0
406 378 0 -1 -0 0
406 378 100 -1 -0 0
406 454 100 -1 -0 0
197 68 0 1 0 0
197 39 0 1 0 0
197 39 100 1 0 0
197 68 100 1 0 0
187 68 0 -1 -0 0
187 39 0 -1 -0 0
187 39 100 -1 -0 0
187 68 100 -1 -0 0
417 63 0 1 0 0
417 25 0 1 0 0
417 25 100 1 0 0
417 63 100 1 0 0
407 63 0 -1 -0 0
407 25 0 -1 -0 0
407 25 100 -1 -0 0
407 63 100 -1 -0 0
629 498 0 1 0 0
629 447 0 1 0 0
629 447 100 1 0 0
629 498 100 1 0 0
619 498 0 -1 -0 0
619 447 0 -1 -0 0
619 447 100 -1 -0 0
619 498 100 -1 -0 0
329 146 0 1 0 0
329 33 0 1 0 0
329 33 100 1 0 0
329 146 100 1 0 0
319 146 0 -1 -0 0
319 33 0 -1 -0 0
319 33 100 -1 -0 0
319 146 100 -1 -0 0
215 442 0 1 0 0
215 420 0 1 0 0
215 420 100 1 0 0
215 442 100 1 0 0
205 442 0 -1 -0 0
205 420 0 -1 -0 0
205 420 100 -1 -0 0
205 442 100 -1 -0 0
215 425 0 1 0 0
215 45 0 1 0 0
215 45 100 1 0 0
215 425 100 1 0 0
205 420 0 -1 -0 0
205 45 0 -1 -0 0
205 45 100 -1 -0 0
205 420 100 -1 -0 0
210 415 0 -0 -1 0
196 415 0 -0 -1 0
196 415 100 -0 -1 0
210 415 100 -0 -1 0
215 425 0 0 1 0
196 425 0 0 1 0
196 425 100 0 1 0
215 425 100 0 1 0
205 425 0 -0 1 0
303 425 0 -0 1 0
303 425 100 -0 1 0
205 425 100 -0 1 0
210 415 0 0 -1 0
303 415 0 0 -1 0
303 415 100 0 -1 0
210 415 100 0 -1 0
215 420 0 1 0 0
215 396 0 1 0 0
215 396 100 1 0 0
215 420 100 1 0 0
205 420 0 -1 -0 0
205 396 0 -1 -0 0
205 396 100 -1 -0 0
205 420 100 -1 -0 0
205 45 0 -1 0 0
205 66 0 -1 0 0
205 66 100 -1 0 0
205 45 100 -1 0 0
215 45 0 1 -0 0
215 66 0 1 -0 0
215 66 100 1 -0 0
215 45 100 1 -0 0
192 71 0 -0 1 0
205 71 0 -0 1 0
205 71 100 -0 1 0
192 71 100 -0 1 0
192 61 0 0 -1 0
210 61 0 0 -1 0
210 61 100 0 -1 0
192 61 100 0 -1 0
215 71 0 -0 1 0
303 71 0 -0 1 0
303 71 100 -0 1 0
215 71 100 -0 1 0
210 61 0 0 -1 0
303 61 0 0 -1 0
303 61 100 0 -1 0
210 61 100 0 -1 0
205 66 0 -1 0 0
205 248 0 -1 0 0
205 248 100 -1 0 0
205 66 100 -1 0 0
215 71 0 1 -0 0
215 248 0 1 -0 0
215 248 100 1 -0 0
215 71 100 1 -0 0
205 71 0 -1 0 0
205 101 0 -1 0 0
205 101 100 -1 0 0
205 71 100 -1 0 0
215 66 0 1 -0 0
215 101 0 1 -0 0
215 101 100 1 -0 0
215 66 100 1 -0 0
290 494 0 1 0 0
290 420 0 1 0 0
290 420 100 1 0 0
290 494 100 1 0 0
280 494 0 -1 -0 0
280 420 0 -1 -0 0
280 420 100 -1 -0 0
280 494 100 -1 -0 0
290 420 0 1 0 0
290 378 0 1 0 0
290 378 100 1 0 0
290 420 100 1 0 0
280 420 0 -1 -0 0
280 378 0 -1 -0 0
280 378 100 -1 -0 0
280 420 100 -1 -0 0
301 486 0 1 0 0
301 420 0 1 0 0
301 420 100 1 0 0
301 486 100 1 0 0
291 486 0 -1 -0 0
291 420 0 -1 -0 0
291 420 100 -1 -0 0
291 486 100 -1 -0 0
301 420 0 1 0 0
301 339 0 1 0 0
301 339 100 1 0 0
301 420 100 1 0 0
291 420 0 -1 -0 0
291 339 0 -1 -0 0
291 339 100 -1 -0 0
291 420 100 -1 -0 0
303 436 0 1 0 0
303 420 0 1 0 0
303 420 100 1 0 0
303 436 100 1 0 0
293 436 0 -1 -0 0
293 420 0 -1 -0 0
293 420 100 -1 -0 0
293 436 100 -1 -0 0
303 420 0 1 0 0
303 380 0 1 0 0
303 380 100 1 0 0
303 420 100 1 0 0
293 420 0 -1 -0 0
293 380 0 -1 -0 0
293 380 100 -1 -0 0
293 420 100 -1 -0 0
293 420 0 -1 0 0
293 486 0 -1 0 0
293 486 100 -1 0 0
293 420 100 -1 0 0
303 420 0 1 -0 0
303 486 0 1 -0 0
303 486 100 1 -0 0
303 420 100 1 -0 0
442 58 0 -0 1 0
544 58 0 -0 1 0
544 58 100 -0 1 0
442 58 100 -0 1 0
442 48 0 0 -1 0
544 48 0 0 -1 0
544 48 100 0 -1 0
442 48 100 0 -1 0
544 58 0 -0 1 0
564 58 0 -0 1 0
564 58 100 -0 1 0
544 58 100 -0 1 0
544 48 0 0 -1 0
564 48 0 0 -1 0
564 48 100 0 -1 0
544 48 100 0 -1 0
287 494 0 1 0 0
287 420 0 1 0 0
287 420 100 1 0 0
287 494 100 1 0 0
277 494 0 -1 -0 0
277 420 0 -1 -0 0
277 420 100 -1 -0 0
277 494 100 -1 -0 0
287 420 0 1 0 0
287 340 0 1 0 0
287 340 100 1 0 0
287 420 100 1 0 0
277 420 0 -1 -0 0
277 340 0 -1 -0 0
277 340 100 -1 -0 0
277 420 100 -1 -0 0
206 444 0 1 0 0
206 420 0 1 0 0
206 420 100 1 0 0
206 444 100 1 0 0
196 444 0 -1 -0 0
196 420 0 -1 -0 0
196 420 100 -1 -0 0
196 444 100 -1 -0 0
206 420 0 1 0 0
206 396 0 1 0 0
206 396 100 1 0 0
206 420 100 1 0 0
196 420 0 -1 -0 0
196 396 0 -1 -0 0
196 396 100 -1 -0 0
196 420 100 -1 -0 0
633 162 0 1 0 0
633 155 0 1 0 0
633 155 100 1 0 0
633 162 100 1 0 0
623 162 0 -1 -0 0
623 155 0 -1 -0 0
623 155 100 -1 -0 0
623 162 100 -1 -0 0
633 155 0 1 0 0
633 142 0 1 0 0
633 142 100 1 0 0
633 155 100 1 0 0
623 155 0 -1 -0 0
623 142 0 -1 -0 0
623 142 100 -1 -0 0
623 155 100 -1 -0 0
623 170 0 1 0 0
623 155 0 1 0 0
623 155 100 1 0 0
623 170 100 1 0 0
613 170 0 -1 -0 0
613 155 0 -1 -0 0
613 155 100 -1 -0 0
613 170 100 -1 -0 0
623 155 0 1 0 0
623 140 0 1 0 0
623 140 100 1 0 0
623 155 100 1 0 0
613 155 0 -1 -0 0
613 140 0 -1 -0 0
613 140 100 -1 -0 0
613 155 100 -1 -0 0
293 494 0 1 0 0
293 420 0 1 0 0
293 420 100 1 0 0
293 494 100 1 0 0
283 494 0 -1 -0 0
283 420 0 -1 -0 0
283 420 100 -1 -0 0
283 494 100 -1 -0 0
293 420 0 1 0 0
293 401 0 1 0 0
293 401 100 1 0 0
293 420 100 1 0 0
283 420 0 -1 -0 0
283 401 0 -1 -0 0
283 401 100 -1 -0 0
283 420 100 -1 -0 0
291 92 0 1 0 0
291 66 0 1 0 0
291 66 100 1 0 0
291 92 100 1 0 0
281 92 0 -1 -0 0
281 66 0 -1 -0 0
281 66 100 -1 -0 0
281 92 100 -1 -0 0
203 83 0 1 0 0
203 66 0 1 0 0
203 66 100 1 0 0
203 83 100 1 0 0
193 83 0 -1 -0 0
193 66 0 -1 -0 0
193 66 100 -1 -0 0
193 83 100 -1 -0 0
203 66 0 1 0 0
203 36 0 1 0 0
203 36 100 1 0 0
203 66 100 1 0 0
193 66 0 -1 -0 0
193 36 0 -1 -0 0
193 36 100 -1 -0 0
193 66 100 -1 -0 0
316 412 0 313.587799072265625 409.854949951171875 0
306 412 0 313.587799072265625 409.854949951171875 0
306 412 100 313.587799072265625 409.854949951171875 0
316 412 100 313.587799072265625 409.854949951171875 0
316 281 0 313.587799072265625 277.854949951171875 0
306 281 0 313.587799072265625 277.854949951171875 0
306 281 100 313.587799072265625 277.854949951171875 0
316 281 100 313.587799072265625 277.854949951171875 0
215 343 0 213.785308837890625 342.0621337890625 0
205 343 0 213.785308837890625 342.0621337890625 0
205 343 100 213.785308837890625 342.0621337890625 0
215 343 100 213.785308837890625 342.0621337890625 0
613 369 0 608.0162353515625 365 0
603 369 0 608.0162353515625 365 0
603 369 100 608.0162353515625 365 0
613 369 100 608.0162353515625 365 0
426 390 0 420.083343505859375 383.583343505859375 0
416 390 0 420.083343505859375 383.583343505859375 0
416 390 100 420.083343505859375 383.583343505859375 0
426 390 100 420.083343505859375 383.583343505859375 0
316 170 0 313.550384521484375 169.682174682617188 0
306 170 0 313.550384521484375 169.682174682617188 0
306 170 100 313.550384521484375 169.682174682617188 0
316 170 100 313.550384521484375 169.682174682617188 0
316 41 0 313.550384521484375 39.6821708679199219 0
306 41 0 313.550384521484375 39.6821708679199219 0
306 41 100 313.550384521484375 39.6821708679199219 0
316 41 100 313.550384521484375 39.6821708679199219 0
291 68 0 279.80767822265625 66.384613037109375 0
281 68 0 279.80767822265625 66.384613037109375 0
281 68 100 279.80767822265625 66.384613037109375 0
291 68 100 279.80767822265625 66.384613037109375 0
316 114 0 304.71429443359375 110.928573608398438 0
306 114 0 304.71429443359375 110.928573608398438 0
306 114 100 304.71429443359375 110.928573608398438 0
316 114 100 304.71429443359375 110.928573608398438 0
316 86 0 304.71429443359375 81.9285736083984375 0
306 86 0 304.71429443359375 81.9285736083984375 0
306 86 100 304.71429443359375 81.9285736083984375 0
316 86 100 304.71429443359375 81.9285736083984375 0
447 130 0 441.118408203125 129.289474487304688 0
437 130 0 441.118408203125 129.289474487304688 0
437 130 100 441.118408203125 129.289474487304688 0
447 130 100 441.118408203125 129.289474487304688 0
447 54 0 441.118408203125 52.2894744873046875 0
437 54 0 441.118408203125 52.2894744873046875 0
437 54 100 441.118408203125 52.2894744873046875 0
447 54 100 441.118408203125 52.2894744873046875 0
306 436 0 303.532257080078125 433.483856201171875 0
296 436 0 303.532257080078125 433.483856201171875 0
296 436 100 303.532257080078125 433.483856201171875 0
306 436 100 303.532257080078125 433.483856201171875 0
306 312 0 303.532257080078125 308.483856201171875 0
296 312 0 303.532257080078125 308.483856201171875 0
296 312 100 303.532257080078125 308.483856201171875 0
306 312 100 303.532257080078125 308.483856201171875 0
316 450 0 311.549285888671875 444.661956787109375 0
306 450 0 311.549285888671875 444.661956787109375 0
306 450 100 311.549285888671875 444.661956787109375 0
316 450 100 311.549285888671875 444.661956787109375 0
316 379 0 311.549285888671875 372.661956787109375 0
306 379 0 311.549285888671875 372.661956787109375 0
306 379 100 311.549285888671875 372.661956787109375 0
316 379 100 311.549285888671875 372.661956787109375 0
613 450 0 598.40478515625 438.28570556640625 0
603 450 0 598.40478515625 438.28570556640625 0
603 450 100 598.40478515625 438.28570556640625 0
613 450 100 598.40478515625 438.28570556640625 0
326 107 0 320.655731201171875 106.245903015136719 0
316 107 0 320.655731201171875 106.245903015136719 0
316 107 100 320.655731201171875 106.245903015136719 0
326 107 100 320.655731201171875 106.245903015136719 0
326 46 0 320.655731201171875 44.2459030151367188 0
316 46 0 320.655731201171875 44.2459030151367188 0
316 46 100 320.655731201171875 44.2459030151367188 0
326 46 100 320.655731201171875 44.2459030151367188 0
481 255 0 473.365081787109375 251.952377319335938 0
471 255 0 473.365081787109375 251.952377319335938 0
471 255 100 473.365081787109375 251.952377319335938 0
481 255 100 473.365081787109375 251.952377319335938 0
481 192 0 473.365081787109375 187.952377319335938 0
471 192 0 473.365081787109375 187.952377319335938 0
471 192 100 473.365081787109375 187.952377319335938 0
481 192 100 473.365081787109375 187.952377319335938 0
337 101 0 329.16278076171875 97.6511611938476562 0
327 101 0 329.16278076171875 97.6511611938476562 0
327 101 100 329.16278076171875 97.6511611938476562 0
337 101 100 329.16278076171875 97.6511611938476562 0
337 57 0 320.952392578125 55.2857131958007812 0
327 57 0 320.952392578125 55.2857131958007812 0
327 57 100 320.952392578125 55.2857131958007812 0
337 57 100 320.952392578125 55.2857131958007812 0
397 234 0 388.729156494140625 228.125 0
387 234 0 388.729156494140625 228.125 0
387 234 100 388.729156494140625 228.125 0
397 234 100 388.729156494140625 228.125 0
392 533 0 378.75 516.34375 0
392 523 0 378.75 516.34375 0
392 523 100 378.75 516.34375 0
392 533 100 378.75 516.34375 0
424 533 0 411.75 516.34375 0
424 523 0 411.75 516.34375 0
424 523 100 411.75 516.34375 0
424 533 100 411.75 516.34375 0
406 64 0 395.3157958984375 63.3157882690429688 0
396 64 0 395.3157958984375 63.3157882690429688 0
396 64 100 395.3157958984375 63.3157882690429688 0
406 64 100 395.3157958984375 63.3157882690429688 0
406 26 0 395.3157958984375 24.3157901763916016 0
396 26 0 395.3157958984375 24.3157901763916016 0
396 26 100 395.3157958984375 24.3157901763916016 0
406 26 100 395.3157958984375 24.3157901763916016 0
416 448 0 410.05712890625 442.600006103515625 0
426 448 0 410.05712890625 442.600006103515625 0
426 448 100 410.05712890625 442.600006103515625 0
416 448 100 410.05712890625 442.600006103515625 0
201 446 0 193.821426391601562 431.071441650390625 0
191 446 0 193.821426391601562 431.071441650390625 0
191 446 100 193.821426391601562 431.071441650390625 0
201 446 100 193.821426391601562 431.071441650390625 0
201 418 0 193.821426391601562 402.071441650390625 0
191 418 0 193.821426391601562 402.071441650390625 0
191 418 100 193.821426391601562 402.071441650390625 0
201 418 100 193.821426391601562 402.071441650390625 0
313 450 0 310.7642822265625 447.78570556640625 0
303 450 0 310.7642822265625 447.78570556640625 0
303 450 100 310.7642822265625 447.78570556640625 0
313 450 100 310.7642822265625 447.78570556640625 0
313 310 0 310.7642822265625 306.78570556640625 0
303 310 0 310.7642822265625 306.78570556640625 0
303 310 100 310.7642822265625 306.78570556640625 0
313 310 100 310.7642822265625 306.78570556640625 0
361 432 0 354.188690185546875 424.84906005859375 0
351 432 0 354.188690185546875 424.84906005859375 0
351 432 100 354.188690185546875 424.84906005859375 0
361 432 100 354.188690185546875 424.84906005859375 0
361 379 0 354.188690185546875 370.84906005859375 0
351 379 0 354.188690185546875 370.84906005859375 0
351 379 100 354.188690185546875 370.84906005859375 0
361 379 100 354.188690185546875 370.84906005859375 0
387 196 0 378.9375 192.916671752929688 0
397 196 0 378.9375 192.916671752929688 0
397 196 100 378.9375 192.916671752929688 0
387 196 100 378.9375 192.916671752929688 0
287 294 0 277.741943359375 285.516143798828125 0
277 294 0 277.741943359375 285.516143798828125 0
277 294 100 277.741943359375 285.516143798828125 0
287 294 100 277.741943359375 285.516143798828125 0
287 263 0 277.741943359375 253.516128540039062 0
277 263 0 277.741943359375 253.516128540039062 0
277 263 100 277.741943359375 253.516128540039062 0
287 263 100 277.741943359375 253.516128540039062 0
317 196 0 315.06707763671875 195.80487060546875 0
307 196 0 315.06707763671875 195.80487060546875 0
307 196 100 315.06707763671875 195.80487060546875 0
317 196 100 315.06707763671875 195.80487060546875 0
397 423 0 384.969696044921875 411.18182373046875 0
387 423 0 384.969696044921875 411.18182373046875 0
387 423 100 384.969696044921875 411.18182373046875 0
397 423 100 384.969696044921875 411.18182373046875 0
397 390 0 384.969696044921875 377.18182373046875 0
387 390 0 384.969696044921875 377.18182373046875 0
387 390 100 384.969696044921875 377.18182373046875 0
397 390 100 384.969696044921875 377.18182373046875 0
307 102 0 302.614288330078125 101.542854309082031 0
317 102 0 302.614288330078125 101.542854309082031 0
317 102 100 302.614288330078125 101.542854309082031 0
307 102 100 302.614288330078125 101.542854309082031 0
302 88 0 289.416656494140625 85.3333358764648438 0
292 88 0 289.416656494140625 85.3333358764648438 0
292 88 100 289.416656494140625 85.3333358764648438 0
302 88 100 289.416656494140625 85.3333358764648438 0
302 64 0 289.416656494140625 60.3333320617675781 0
292 64 0 289.416656494140625 60.3333320617675781 0
292 64 100 289.416656494140625 60.3333320617675781 0
302 64 100 289.416656494140625 60.3333320617675781 0
416 454 0 410.52630615234375 449.02630615234375 0
406 454 0 410.52630615234375 449.02630615234375 0
406 454 100 410.52630615234375 449.02630615234375 0
416 454 100 410.52630615234375 449.02630615234375 0
416 378 0 410.52630615234375 372.02630615234375 0
406 378 0 410.52630615234375 372.02630615234375 0
406 378 100 410.52630615234375 372.02630615234375 0
416 378 100 410.52630615234375 372.02630615234375 0
197 68 0 190.206893920898438 66.6551742553710938 0
187 68 0 190.206893920898438 66.6551742553710938 0
187 68 100 190.206893920898438 66.6551742553710938 0
197 68 100 190.206893920898438 66.6551742553710938 0
197 39 0 190.206893920898438 36.6551742553710938 0
187 39 0 190.206893920898438 36.6551742553710938 0
187 39 100 190.206893920898438 36.6551742553710938 0
197 39 100 190.206893920898438 36.6551742553710938 0
417 63 0 406.02630615234375 62.3421058654785156 0
407 63 0 406.02630615234375 62.3421058654785156 0
407 63 100 406.02630615234375 62.3421058654785156 0
417 63 100 406.02630615234375 62.3421058654785156 0
417 25 0 406.02630615234375 23.3421058654785156 0
407 25 0 406.02630615234375 23.3421058654785156 0
407 25 100 406.02630615234375 23.3421058654785156 0
417 25 100 406.02630615234375 23.3421058654785156 0
629 498 0 616.66668701171875 489.23529052734375 0
619 498 0 616.66668701171875 489.23529052734375 0
619 498 100 616.66668701171875 489.23529052734375 0
629 498 100 616.66668701171875 489.23529052734375 0
629 447 0 616.66668701171875 437.23529052734375 0
619 447 0 616.66668701171875 437.23529052734375 0
619 447 100 616.66668701171875 437.23529052734375 0
629 447 100 616.66668701171875 437.23529052734375 0
329 146 0 326.0885009765625 145.707962036132812 0
319 146 0 326.0885009765625 145.707962036132812 0
319 146 100 326.0885009765625 145.707962036132812 0
329 146 100 326.0885009765625 145.707962036132812 0
329 33 0 326.0885009765625 31.7079639434814453 0
319 33 0 326.0885009765625 31.7079639434814453 0
319 33 100 326.0885009765625 31.7079639434814453 0
329 33 100 326.0885009765625 31.7079639434814453 0
215 442 0 205.227279663085938 422.909088134765625 0
205 442 0 205.227279663085938 422.909088134765625 0
205 442 100 205.227279663085938 422.909088134765625 0
215 442 100 205.227279663085938 422.909088134765625 0
196 415 0 181 385.357147216796875 0
196 425 0 181 385.357147216796875 0
196 425 100 181 385.357147216796875 0
196 415 100 181 385.357147216796875 0
303 425 0 300.908172607421875 420.66326904296875 0
303 415 0 300.908172607421875 420.66326904296875 0
303 415 100 300.908172607421875 420.66326904296875 0
303 425 100 300.908172607421875 420.66326904296875 0
192 71 0 176.23077392578125 65.5384597778320312 0
192 61 0 176.23077392578125 65.5384597778320312 0
192 61 100 176.23077392578125 65.5384597778320312 0
192 71 100 176.23077392578125 65.5384597778320312 0
303 71 0 300.55682373046875 70.1931838989257812 0
303 61 0 300.55682373046875 70.1931838989257812 0
303 61 100 300.55682373046875 70.1931838989257812 0
303 71 100 300.55682373046875 70.1931838989257812 0
613 136 0 587.45831298828125 129.333328247070312 0
603 136 0 587.45831298828125 129.333328247070312 0
603 136 100 587.45831298828125 129.333328247070312 0
613 136 100 587.45831298828125 129.333328247070312 0
542 150 0 532.78790283203125 147.727279663085938 0
542 160 0 532.78790283203125 147.727279663085938 0
542 160 100 532.78790283203125 147.727279663085938 0
542 150 100 532.78790283203125 147.727279663085938 0
635 160 0 607.1363525390625 152.727279663085938 0
635 150 0 607.1363525390625 152.727279663085938 0
635 150 100 607.1363525390625 152.727279663085938 0
635 160 100 607.1363525390625 152.727279663085938 0
603 388 0 600.4119873046875 387.33477783203125 0
613 388 0 600.4119873046875 387.33477783203125 0
613 388 100 600.4119873046875 387.33477783203125 0
603 388 100 600.4119873046875 387.33477783203125 0
613 141 0 569.21429443359375 129.928573608398438 0
603 141 0 569.21429443359375 129.928573608398438 0
603 141 100 569.21429443359375 129.928573608398438 0
613 141 100 569.21429443359375 129.928573608398438 0
205 248 0 203.873626708984375 247.637359619140625 0
215 248 0 203.873626708984375 247.637359619140625 0
215 248 100 203.873626708984375 247.637359619140625 0
205 248 100 203.873626708984375 247.637359619140625 0
290 494 0 286.081085205078125 488.324310302734375 0
280 494 0 286.081085205078125 488.324310302734375 0
280 494 100 286.081085205078125 488.324310302734375 0
290 494 100 286.081085205078125 488.324310302734375 0
290 378 0 283.095245361328125 368 0
280 378 0 283.095245361328125 368 0
280 378 100 283.095245361328125 368 0
290 378 100 283.095245361328125 368 0
301 486 0 296.43939208984375 479.6363525390625 0
291 486 0 296.43939208984375 479.6363525390625 0
291 486 100 296.43939208984375 479.6363525390625 0
301 486 100 296.43939208984375 479.6363525390625 0
301 339 0 297.283935546875 333.8148193359375 0
291 339 0 297.283935546875 333.8148193359375 0
291 339 100 297.283935546875 333.8148193359375 0
301 339 100 297.283935546875 333.8148193359375 0
303 436 0 284.0625 409.75 0
293 436 0 284.0625 409.75 0
293 436 100 284.0625 409.75 0
303 436 100 284.0625 409.75 0
303 380 0 295.42498779296875 369.5 0
293 380 0 295.42498779296875 369.5 0
293 380 100 295.42498779296875 369.5 0
303 380 100 295.42498779296875 369.5 0
205 101 0 198.166671752929688 98.633331298828125 0
215 101 0 198.166671752929688 98.633331298828125 0
215 101 100 198.166671752929688 98.633331298828125 0
205 101 100 198.166671752929688 98.633331298828125 0
442 58 0 436.666656494140625 57.4313735961914062 0
442 48 0 436.666656494140625 57.4313735961914062 0
442 48 100 436.666656494140625 57.4313735961914062 0
442 58 100 436.666656494140625 57.4313735961914062 0
564 58 0 536.79998779296875 55.0999984741210938 0
564 48 0 536.79998779296875 55.0999984741210938 0
564 48 100 536.79998779296875 55.0999984741210938 0
564 58 100 536.79998779296875 55.0999984741210938 0
215 396 0 206.041671752929688 378.5 0
205 396 0 206.041671752929688 378.5 0
205 396 100 206.041671752929688 378.5 0
215 396 100 206.041671752929688 378.5 0
287 494 0 283.121612548828125 488.324310302734375 0
277 494 0 283.121612548828125 488.324310302734375 0
277 494 100 283.121612548828125 488.324310302734375 0
287 494 100 283.121612548828125 488.324310302734375 0
287 340 0 283.412506103515625 334.75 0
277 340 0 283.412506103515625 334.75 0
277 340 100 283.412506103515625 334.75 0
287 340 100 283.412506103515625 334.75 0
206 444 0 197.416671752929688 426.5 0
196 444 0 197.416671752929688 426.5 0
196 444 100 197.416671752929688 426.5 0
206 444 100 197.416671752929688 426.5 0
206 396 0 197.416671752929688 378.5 0
196 396 0 197.416671752929688 378.5 0
196 396 100 197.416671752929688 378.5 0
206 396 100 197.416671752929688 378.5 0
633 162 0 542.5714111328125 139.857147216796875 0
623 162 0 542.5714111328125 139.857147216796875 0
623 162 100 542.5714111328125 139.857147216796875 0
633 162 100 542.5714111328125 139.857147216796875 0
633 142 0 584.30767822265625 130.076919555664062 0
623 142 0 584.30767822265625 130.076919555664062 0
623 142 100 584.30767822265625 130.076919555664062 0
633 142 100 584.30767822265625 130.076919555664062 0
623 170 0 581.4666748046875 159.666671752929688 0
613 170 0 581.4666748046875 159.666671752929688 0
613 170 100 581.4666748046875 159.666671752929688 0
623 170 100 581.4666748046875 159.666671752929688 0
623 140 0 581.4666748046875 129.666671752929688 0
613 140 0 581.4666748046875 129.666671752929688 0
613 140 100 581.4666748046875 129.666671752929688 0
623 140 100 581.4666748046875 129.666671752929688 0
293 494 0 289.04052734375 488.324310302734375 0
283 494 0 289.04052734375 488.324310302734375 0
283 494 100 289.04052734375 488.324310302734375 0
293 494 100 289.04052734375 488.324310302734375 0
293 401 0 277.578948974609375 378.894744873046875 0
283 401 0 277.578948974609375 378.894744873046875 0
283 401 100 277.578948974609375 378.894744873046875 0
293 401 100 277.578948974609375 378.894744873046875 0
293 486 0 288.56060791015625 479.6363525390625 0
303 486 0 288.56060791015625 479.6363525390625 0
303 486 100 288.56060791015625 479.6363525390625 0
293 486 100 288.56060791015625 479.6363525390625 0
291 92 0 279.80767822265625 89.4615402221679688 0
281 92 0 279.80767822265625 89.4615402221679688 0
281 92 100 279.80767822265625 89.4615402221679688 0
291 92 100 279.80767822265625 89.4615402221679688 0
203 83 0 191.058822631835938 79.117645263671875 0
193 83 0 191.058822631835938 79.117645263671875 0
193 83 100 191.058822631835938 79.117645263671875 0
203 83 100 191.058822631835938 79.117645263671875 0
203 36 0 196.23333740234375 33.7999992370605469 0
193 36 0 196.23333740234375 33.7999992370605469 0
193 36 100 196.23333740234375 33.7999992370605469 0
203 36 100 196.23333740234375 33.7999992370605469 0
613 492 0 0 0 -1
603 492 0 0 0 -1
603 258 0 0 0 -1
613 258 0 0 0 -1
613 492 100 0 0 1
603 492 100 0 0 1
603 258 100 0 0 1
613 258 100 0 0 1
613 492 0 0 0 -1
603 492 0 0 0 -1
603 369 0 0 0 -1
613 369 0 0 0 -1
613 492 100 0 0 1
603 492 100 0 0 1
603 369 100 0 0 1
613 369 100 0 0 1
613 492 0 0 0 -1
603 492 0 0 0 -1
603 450 0 0 0 -1
613 450 0 0 0 -1
613 492 100 0 0 1
603 492 100 0 0 1
603 450 100 0 0 1
613 450 100 0 0 1
613 492 0 0 0 -1
603 492 0 0 0 -1
603 155 0 0 0 -1
613 155 0 0 0 -1
613 492 100 0 0 1
603 492 100 0 0 1
603 155 100 0 0 1
613 155 100 0 0 1
613 258 0 0 0 -1
603 258 0 0 0 -1
603 155 0 0 0 -1
613 155 0 0 0 -1
613 258 100 0 0 1
603 258 100 0 0 1
603 155 100 0 0 1
613 155 100 0 0 1
316 412 0 0 0 -1
306 412 0 0 0 -1
306 281 0 0 0 -1
316 281 0 0 0 -1
316 412 100 0 0 1
306 412 100 0 0 1
306 281 100 0 0 1
316 281 100 0 0 1
215 343 0 0 0 -1
205 343 0 0 0 -1
205 166 0 0 0 -1
215 166 0 0 0 -1
215 343 100 0 0 1
205 343 100 0 0 1
205 166 100 0 0 1
215 166 100 0 0 1
205 166 0 0 0 -1
215 166 0 0 0 -1
215 420 0 0 0 -1
205 425 0 0 0 -1
205 166 100 0 0 1
215 166 100 0 0 1
215 420 100 0 0 1
205 425 100 0 0 1
426 462 0 0 0 -1
416 462 0 0 0 -1
416 390 0 0 0 -1
426 390 0 0 0 -1
426 462 100 0 0 1
416 462 100 0 0 1
416 390 100 0 0 1
426 390 100 0 0 1
426 462 0 0 0 -1
416 462 0 0 0 -1
416 378 0 0 0 -1
426 378 0 0 0 -1
426 462 100 0 0 1
416 462 100 0 0 1
416 378 100 0 0 1
426 378 100 0 0 1
613 160 0 0 0 -1
603 155 0 0 0 -1
603 136 0 0 0 -1
613 136 0 0 0 -1
613 160 100 0 0 1
603 155 100 0 0 1
603 136 100 0 0 1
613 136 100 0 0 1
608 150 0 0 0 -1
613 160 0 0 0 -1
542 160 0 0 0 -1
542 150 0 0 0 -1
608 150 100 0 0 1
613 160 100 0 0 1
542 160 100 0 0 1
542 150 100 0 0 1
613 160 0 0 0 -1
608 150 0 0 0 -1
635 150 0 0 0 -1
635 160 0 0 0 -1
613 160 100 0 0 1
608 150 100 0 0 1
635 150 100 0 0 1
635 160 100 0 0 1
603 155 0 0 0 -1
613 160 0 0 0 -1
613 388 0 0 0 -1
603 388 0 0 0 -1
603 155 100 0 0 1
613 160 100 0 0 1
613 388 100 0 0 1
603 388 100 0 0 1
613 155 0 0 0 -1
603 155 0 0 0 -1
603 141 0 0 0 -1
613 141 0 0 0 -1
613 155 100 0 0 1
603 155 100 0 0 1
603 141 100 0 0 1
613 141 100 0 0 1
316 170 0 0 0 -1
306 170 0 0 0 -1
306 41 0 0 0 -1
316 41 0 0 0 -1
316 170 100 0 0 1
306 170 100 0 0 1
306 41 100 0 0 1
316 41 100 0 0 1
291 68 0 0 0 -1
281 68 0 0 0 -1
281 42 0 0 0 -1
291 42 0 0 0 -1
291 68 100 0 0 1
281 68 100 0 0 1
281 42 100 0 0 1
291 42 100 0 0 1
281 42 0 0 0 -1
291 42 0 0 0 -1
291 66 0 0 0 -1
281 66 0 0 0 -1
281 42 100 0 0 1
291 42 100 0 0 1
291 66 100 0 0 1
281 66 100 0 0 1
316 114 0 0 0 -1
306 114 0 0 0 -1
306 86 0 0 0 -1
316 86 0 0 0 -1
316 114 100 0 0 1
306 114 100 0 0 1
306 86 100 0 0 1
316 86 100 0 0 1
397 282 0 0 0 -1
387 282 0 0 0 -1
387 148 0 0 0 -1
397 148 0 0 0 -1
397 282 100 0 0 1
387 282 100 0 0 1
387 148 100 0 0 1
397 148 100 0 0 1
397 282 0 0 0 -1
387 282 0 0 0 -1
387 234 0 0 0 -1
397 234 0 0 0 -1
397 282 100 0 0 1
387 282 100 0 0 1
387 234 100 0 0 1
397 234 100 0 0 1
387 148 0 0 0 -1
397 148 0 0 0 -1
397 196 0 0 0 -1
387 196 0 0 0 -1
387 148 100 0 0 1
397 148 100 0 0 1
397 196 100 0 0 1
387 196 100 0 0 1
447 130 0 0 0 -1
437 130 0 0 0 -1
437 54 0 0 0 -1
447 54 0 0 0 -1
447 130 100 0 0 1
437 130 100 0 0 1
437 54 100 0 0 1
447 54 100 0 0 1
306 436 0 0 0 -1
296 436 0 0 0 -1
296 312 0 0 0 -1
306 312 0 0 0 -1
306 436 100 0 0 1
296 436 100 0 0 1
296 312 100 0 0 1
306 312 100 0 0 1
316 450 0 0 0 -1
306 450 0 0 0 -1
306 379 0 0 0 -1
316 379 0 0 0 -1
316 450 100 0 0 1
306 450 100 0 0 1
306 379 100 0 0 1
316 379 100 0 0 1
326 107 0 0 0 -1
316 107 0 0 0 -1
316 46 0 0 0 -1
326 46 0 0 0 -1
326 107 100 0 0 1
316 107 100 0 0 1
316 46 100 0 0 1
326 46 100 0 0 1
481 255 0 0 0 -1
471 255 0 0 0 -1
471 192 0 0 0 -1
481 192 0 0 0 -1
481 255 100 0 0 1
471 255 100 0 0 1
471 192 100 0 0 1
481 192 100 0 0 1
337 144 0 0 0 -1
327 144 0 0 0 -1
327 101 0 0 0 -1
337 101 0 0 0 -1
337 144 100 0 0 1
327 144 100 0 0 1
327 101 100 0 0 1
337 101 100 0 0 1
337 144 0 0 0 -1
327 144 0 0 0 -1
327 36 0 0 0 -1
337 36 0 0 0 -1
337 144 100 0 0 1
327 144 100 0 0 1
327 36 100 0 0 1
337 36 100 0 0 1
337 57 0 0 0 -1
327 57 0 0 0 -1
327 36 0 0 0 -1
337 36 0 0 0 -1
337 57 100 0 0 1
327 57 100 0 0 1
327 36 100 0 0 1
337 36 100 0 0 1
392 533 0 0 0 -1
392 523 0 0 0 -1
424 523 0 0 0 -1
424 533 0 0 0 -1
392 533 100 0 0 1
392 523 100 0 0 1
424 523 100 0 0 1
424 533 100 0 0 1
416 378 0 0 0 -1
426 378 0 0 0 -1
426 448 0 0 0 -1
416 448 0 0 0 -1
416 378 100 0 0 1
426 378 100 0 0 1
426 448 100 0 0 1
416 448 100 0 0 1
406 64 0 0 0 -1
396 64 0 0 0 -1
396 26 0 0 0 -1
406 26 0 0 0 -1
406 64 100 0 0 1
396 64 100 0 0 1
396 26 100 0 0 1
406 26 100 0 0 1
201 446 0 0 0 -1
191 446 0 0 0 -1
191 418 0 0 0 -1
201 418 0 0 0 -1
201 446 100 0 0 1
191 446 100 0 0 1
191 418 100 0 0 1
201 418 100 0 0 1
313 450 0 0 0 -1
303 450 0 0 0 -1
303 310 0 0 0 -1
313 310 0 0 0 -1
313 450 100 0 0 1
303 450 100 0 0 1
303 310 100 0 0 1
313 310 100 0 0 1
361 432 0 0 0 -1
351 432 0 0 0 -1
351 379 0 0 0 -1
361 379 0 0 0 -1
361 432 100 0 0 1
351 432 100 0 0 1
351 379 100 0 0 1
361 379 100 0 0 1
287 294 0 0 0 -1
277 294 0 0 0 -1
277 263 0 0 0 -1
287 263 0 0 0 -1
287 294 100 0 0 1
277 294 100 0 0 1
277 263 100 0 0 1
287 263 100 0 0 1
317 196 0 0 0 -1
307 196 0 0 0 -1
307 32 0 0 0 -1
317 32 0 0 0 -1
317 196 100 0 0 1
307 196 100 0 0 1
307 32 100 0 0 1
317 32 100 0 0 1
307 32 0 0 0 -1
317 32 0 0 0 -1
317 102 0 0 0 -1
307 102 0 0 0 -1
307 32 100 0 0 1
317 32 100 0 0 1
317 102 100 0 0 1
307 102 100 0 0 1
397 423 0 0 0 -1
387 423 0 0 0 -1
387 390 0 0 0 -1
397 390 0 0 0 -1
397 423 100 0 0 1
387 423 100 0 0 1
387 390 100 0 0 1
397 390 100 0 0 1
302 88 0 0 0 -1
292 88 0 0 0 -1
292 64 0 0 0 -1
302 64 0 0 0 -1
302 88 100 0 0 1
292 88 100 0 0 1
292 64 100 0 0 1
302 64 100 0 0 1
416 454 0 0 0 -1
406 454 0 0 0 -1
406 378 0 0 0 -1
416 378 0 0 0 -1
416 454 100 0 0 1
406 454 100 0 0 1
406 378 100 0 0 1
416 378 100 0 0 1
197 68 0 0 0 -1
187 68 0 0 0 -1
187 39 0 0 0 -1
197 39 0 0 0 -1
197 68 100 0 0 1
187 68 100 0 0 1
187 39 100 0 0 1
197 39 100 0 0 1
417 63 0 0 0 -1
407 63 0 0 0 -1
407 25 0 0 0 -1
417 25 0 0 0 -1
417 63 100 0 0 1
407 63 100 0 0 1
407 25 100 0 0 1
417 25 100 0 0 1
629 498 0 0 0 -1
619 498 0 0 0 -1
619 447 0 0 0 -1
629 447 0 0 0 -1
629 498 100 0 0 1
619 498 100 0 0 1
619 447 100 0 0 1
629 447 100 0 0 1
329 146 0 0 0 -1
319 146 0 0 0 -1
319 33 0 0 0 -1
329 33 0 0 0 -1
329 146 100 0 0 1
319 146 100 0 0 1
319 33 100 0 0 1
329 33 100 0 0 1
215 442 0 0 0 -1
205 442 0 0 0 -1
205 420 0 0 0 -1
215 420 0 0 0 -1
215 442 100 0 0 1
205 442 100 0 0 1
205 420 100 0 0 1
215 420 100 0 0 1
215 425 0 0 0 -1
205 420 0 0 0 -1
205 45 0 0 0 -1
215 45 0 0 0 -1
215 425 100 0 0 1
205 420 100 0 0 1
205 45 100 0 0 1
215 45 100 0 0 1
210 415 0 0 0 -1
215 425 0 0 0 -1
196 425 0 0 0 -1
196 415 0 0 0 -1
210 415 100 0 0 1
215 425 100 0 0 1
196 425 100 0 0 1
196 415 100 0 0 1
205 425 0 0 0 -1
210 415 0 0 0 -1
303 415 0 0 0 -1
303 425 0 0 0 -1
205 425 100 0 0 1
210 415 100 0 0 1
303 415 100 0 0 1
303 425 100 0 0 1
215 420 0 0 0 -1
205 420 0 0 0 -1
205 396 0 0 0 -1
215 396 0 0 0 -1
215 420 100 0 0 1
205 420 100 0 0 1
205 396 100 0 0 1
215 396 100 0 0 1
205 45 0 0 0 -1
215 45 0 0 0 -1
215 66 0 0 0 -1
205 66 0 0 0 -1
205 45 100 0 0 1
215 45 100 0 0 1
215 66 100 0 0 1
205 66 100 0 0 1
192 71 0 0 0 -1
192 61 0 0 0 -1
210 61 0 0 0 -1
205 71 0 0 0 -1
192 71 100 0 0 1
192 61 100 0 0 1
210 61 100 0 0 1
205 71 100 0 0 1
215 71 0 0 0 -1
210 61 0 0 0 -1
303 61 0 0 0 -1
303 71 0 0 0 -1
215 71 100 0 0 1
210 61 100 0 0 1
303 61 100 0 0 1
303 71 100 0 0 1
205 66 0 0 0 -1
215 71 0 0 0 -1
215 248 0 0 0 -1
205 248 0 0 0 -1
205 66 100 0 0 1
215 71 100 0 0 1
215 248 100 0 0 1
205 248 100 0 0 1
205 71 0 0 0 -1
215 66 0 0 0 -1
215 101 0 0 0 -1
205 101 0 0 0 -1
205 71 100 0 0 1
215 66 100 0 0 1
215 101 100 0 0 1
205 101 100 0 0 1
290 494 0 0 0 -1
280 494 0 0 0 -1
280 420 0 0 0 -1
290 420 0 0 0 -1
290 494 100 0 0 1
280 494 100 0 0 1
280 420 100 0 0 1
290 420 100 0 0 1
290 420 0 0 0 -1
280 420 0 0 0 -1
280 378 0 0 0 -1
290 378 0 0 0 -1
290 420 100 0 0 1
280 420 100 0 0 1
280 378 100 0 0 1
290 378 100 0 0 1
301 486 0 0 0 -1
291 486 0 0 0 -1
291 420 0 0 0 -1
301 420 0 0 0 -1
301 486 100 0 0 1
291 486 100 0 0 1
291 420 100 0 0 1
301 420 100 0 0 1
301 420 0 0 0 -1
291 420 0 0 0 -1
291 339 0 0 0 -1
301 339 0 0 0 -1
301 420 100 0 0 1
291 420 100 0 0 1
291 339 100 0 0 1
301 339 100 0 0 1
303 436 0 0 0 -1
293 436 0 0 0 -1
293 420 0 0 0 -1
303 420 0 0 0 -1
303 436 100 0 0 1
293 436 100 0 0 1
293 420 100 0 0 1
303 420 100 0 0 1
303 420 0 0 0 -1
293 420 0 0 0 -1
293 380 0 0 0 -1
303 380 0 0 0 -1
303 420 100 0 0 1
293 420 100 0 0 1
293 380 100 0 0 1
303 380 100 0 0 1
293 420 0 0 0 -1
303 420 0 0 0 -1
303 486 0 0 0 -1
293 486 0 0 0 -1
293 420 100 0 0 1
303 420 100 0 0 1
303 486 100 0 0 1
293 486 100 0 0 1
442 58 0 0 0 -1
442 48 0 0 0 -1
544 48 0 0 0 -1
544 58 0 0 0 -1
442 58 100 0 0 1
442 48 100 0 0 1
544 48 100 0 0 1
544 58 100 0 0 1
544 58 0 0 0 -1
544 48 0 0 0 -1
564 48 0 0 0 -1
564 58 0 0 0 -1
544 58 100 0 0 1
544 48 100 0 0 1
564 48 100 0 0 1
564 58 100 0 0 1
287 494 0 0 0 -1
277 494 0 0 0 -1
277 420 0 0 0 -1
287 420 0 0 0 -1
287 494 100 0 0 1
277 494 100 0 0 1
277 420 100 0 0 1
287 420 100 0 0 1
287 420 0 0 0 -1
277 420 0 0 0 -1
277 340 0 0 0 -1
287 340 0 0 0 -1
287 420 100 0 0 1
277 420 100 0 0 1
277 340 100 0 0 1
287 340 100 0 0 1
206 444 0 0 0 -1
196 444 0 0 0 -1
196 420 0 0 0 -1
206 420 0 0 0 -1
206 444 100 0 0 1
196 444 100 0 0 1
196 420 100 0 0 1
206 420 100 0 0 1
206 420 0 0 0 -1
196 420 0 0 0 -1
196 396 0 0 0 -1
206 396 0 0 0 -1
206 420 100 0 0 1
196 420 100 0 0 1
196 396 100 0 0 1
206 396 100 0 0 1
633 162 0 0 0 -1
623 162 0 0 0 -1
623 155 0 0 0 -1
633 155 0 0 0 -1
633 162 100 0 0 1
623 162 100 0 0 1
623 155 100 0 0 1
633 155 100 0 0 1
633 155 0 0 0 -1
623 155 0 0 0 -1
623 142 0 0 0 -1
633 142 0 0 0 -1
633 155 100 0 0 1
623 155 100 0 0 1
623 142 100 0 0 1
633 142 100 0 0 1
623 170 0 0 0 -1
613 170 0 0 0 -1
613 155 0 0 0 -1
623 155 0 0 0 -1
623 170 100 0 0 1
613 170 100 0 0 1
613 155 100 0 0 1
623 155 100 0 0 1
623 155 0 0 0 -1
613 155 0 0 0 -1
613 140 0 0 0 -1
623 140 0 0 0 -1
623 155 100 0 0 1
613 155 100 0 0 1
613 140 100 0 0 1
623 140 100 0 0 1
293 494 0 0 0 -1
283 494 0 0 0 -1
283 420 0 0 0 -1
293 420 0 0 0 -1
293 494 100 0 0 1
283 494 100 0 0 1
283 420 100 0 0 1
293 420 100 0 0 1
293 420 0 0 0 -1
283 420 0 0 0 -1
283 401 0 0 0 -1
293 401 0 0 0 -1
293 420 100 0 0 1
283 420 100 0 0 1
283 401 100 0 0 1
293 401 100 0 0 1
291 92 0 0 0 -1
281 92 0 0 0 -1
281 66 0 0 0 -1
291 66 0 0 0 -1
291 92 100 0 0 1
281 92 100 0 0 1
281 66 100 0 0 1
291 66 100 0 0 1
203 83 0 0 0 -1
193 83 0 0 0 -1
193 66 0 0 0 -1
203 66 0 0 0 -1
203 83 100 0 0 1
193 83 100 0 0 1
193 66 100 0 0 1
203 66 100 0 0 1
203 66 0 0 0 -1
193 66 0 0 0 -1
193 36 0 0 0 -1
203 36 0 0 0 -1
203 66 100 0 0 1
193 66 100 0 0 1
193 36 100 0 0 1
203 36 100 0 0 1
613 160 0 0 0 -1
613 160 0 0 0 -1
613 160 100 0 0 1
613 160 100 0 0 1
215 425 0 0 0 -1
205 425 0 0 0 -1
215 425 100 0 0 1
205 425 100 0 0 1
215 71 0 0 0 -1
205 71 0 0 0 -1
215 71 100 0 0 1
205 71 100 0 0 1
4 0 1 2 3
4 4 5 6 7
4 8 9 10 11
4 12 13 14 15
4 16 17 18 19
4 20 21 22 23
4 24 25 26 27
4 28 29 30 31
4 32 33 34 35
4 36 37 38 39
4 40 41 42 43
4 44 45 46 47
4 48 49 50 51
4 52 53 54 55
4 56 57 58 59
4 60 61 62 63
4 64 65 66 67
4 68 69 70 71
4 72 73 74 75
4 76 77 78 79
4 80 81 82 83
4 84 85 86 87
4 88 89 90 91
4 92 93 94 95
4 96 97 98 99
4 100 101 102 103
4 104 105 106 107
4 108 109 110 111
4 112 113 114 115
4 116 117 118 119
4 120 121 122 123
4 124 125 126 127
4 128 129 130 131
4 132 133 134 135
4 136 137 138 139
4 140 141 142 143
4 144 145 146 147
4 148 149 150 151
4 152 153 154 155
4 156 157 158 159
4 160 161 162 163
4 164 165 166 167
4 168 169 170 171
4 172 173 174 175
4 176 177 178 179
4 180 181 182 183
4 184 185 186 187
4 188 189 190 191
4 192 193 194 195
4 196 197 198 199
4 200 201 202 203
4 204 205 206 207
4 208 209 210 211
4 212 213 214 215
4 216 217 218 219
4 220 221 222 223
4 224 225 226 227
4 228 229 230 231
4 232 233 234 235
4 236 237 238 239
4 240 241 242 243
4 244 245 246 247
4 248 249 250 251
4 252 253 254 255
4 256 257 258 259
4 260 261 262 263
4 264 265 266 267
4 268 269 270 271
4 272 273 274 275
4 276 277 278 279
4 280 281 282 283
4 284 285 286 287
4 288 289 290 291
4 292 293 294 295
4 296 297 298 299
4 300 301 302 303
4 304 305 306 307
4 308 309 310 311
4 312 313 314 315
4 316 317 318 319
4 320 321 322 323
4 324 325 326 327
4 328 329 330 331
4 332 333 334 335
4 336 337 338 339
4 340 341 342 343
4 344 345 346 347
4 348 349 350 351
4 352 353 354 355
4 356 357 358 359
4 360 361 362 363
4 364 365 366 367
4 368 369 370 371
4 372 373 374 375
4 376 377 378 379
4 380 381 382 383
4 384 385 386 387
4 388 389 390 391
4 392 393 394 395
4 396 397 398 399
4 400 401 402 403
4 404 405 406 407
4 408 409 410 411
4 412 413 414 415
4 416 417 418 419
4 420 421 422 423
4 424 425 426 427
4 428 429 430 431
4 432 433 434 435
4 436 437 438 439
4 440 441 442 443
4 444 445 446 447
4 448 449 450 451
4 452 453 454 455
4 456 457 458 459
4 460 461 462 463
4 464 465 466 467
4 468 469 470 471
4 472 473 474 475
4 476 477 478 479
4 480 481 482 483
4 484 485 486 487
4 488 489 490 491
4 492 493 494 495
4 496 497 498 499
4 500 501 502 503
4 504 505 506 507
4 508 509 510 511
4 512 513 514 515
4 516 517 518 519
4 520 521 522 523
4 524 525 526 527
4 528 529 530 531
4 532 533 534 535
4 536 537 538 539
4 540 541 542 543
4 544 545 546 547
4 548 549 550 551
4 552 553 554 555
4 556 557 558 559
4 560 561 562 563
4 564 565 566 567
4 568 569 570 571
4 572 573 574 575
4 576 577 578 579
4 580 581 582 583
4 584 585 586 587
4 588 589 590 591
4 592 593 594 595
4 596 597 598 599
4 600 601 602 603
4 604 605 606 607
4 608 609 610 611
4 612 613 614 615
4 616 617 618 619
4 620 621 622 623
4 624 625 626 627
4 628 629 630 631
4 632 633 634 635
4 636 637 638 639
4 640 641 642 643
4 644 645 646 647
4 648 649 650 651
4 652 653 654 655
4 656 657 658 659
4 660 661 662 663
4 664 665 666 667
4 668 669 670 671
4 672 673 674 675
4 676 677 678 679
4 680 681 682 683
4 684 685 686 687
4 688 689 690 691
4 692 693 694 695
4 696 697 698 699
4 700 701 702 703
4 704 705 706 707
4 708 709 710 711
4 712 713 714 715
4 716 717 718 719
4 720 721 722 723
4 724 725 726 727
4 728 729 730 731
4 732 733 734 735
4 736 737 738 739
4 740 741 742 743
4 744 745 746 747
4 748 749 750 751
4 752 753 754 755
4 756 757 758 759
4 760 761 762 763
4 764 765 766 767
4 768 769 770 771
4 772 773 774 775
4 776 777 778 779
4 780 781 782 783
4 784 785 786 787
4 788 789 790 791
4 792 793 794 795
4 796 797 798 799
4 800 801 802 803
4 804 805 806 807
4 808 809 810 811
4 812 813 814 815
4 816 817 818 819
4 820 821 822 823
4 824 825 826 827
4 828 829 830 831
4 832 833 834 835
4 836 837 838 839
4 840 841 842 843
4 844 845 846 847
4 848 849 850 851
4 852 853 854 855
4 856 857 858 859
4 860 861 862 863
4 864 865 866 867
4 868 869 870 871
4 872 873 874 875
4 876 877 878 879
4 880 881 882 883
4 884 885 886 887
4 888 889 890 891
4 892 893 894 895
4 896 897 898 899
4 900 901 902 903
4 904 905 906 907
4 908 909 910 911
4 912 913 914 915
4 916 917 918 919
4 920 921 922 923
4 924 925 926 927
4 928 929 930 931
4 932 933 934 935
4 936 937 938 939
4 940 941 942 943
4 944 945 946 947
4 948 949 950 951
4 952 953 954 955
4 956 957 958 959
4 960 961 962 963
4 964 965 966 967
4 968 969 970 971
4 972 973 974 975
4 976 977 978 979
4 980 981 982 983
4 984 985 986 987
4 988 989 990 991
4 992 993 994 995
4 996 997 998 999
4 1000 1001 1002 1003
4 1004 1005 1006 1007
4 1008 1009 1010 1011
4 1012 1013 1014 1015
4 1016 1017 1018 1019
4 1020 1021 1022 1023
4 1024 1025 1026 1027
4 1028 1029 1030 1031
4 1032 1033 1034 1035
4 1036 1037 1038 1039
4 1040 1041 1042 1043
4 1044 1045 1046 1047
4 1048 1049 1050 1051
4 1052 1053 1054 1055
4 1056 1057 1058 1059
4 1060 1061 1062 1063
4 1064 1065 1066 1067
4 1068 1069 1070 1071
4 1072 1073 1074 1075
4 1076 1077 1078 1079
4 1080 1081 1082 1083
4 1084 1085 1086 1087
4 1088 1089 1090 1091
4 1092 1093 1094 1095
4 1096 1097 1098 1099
4 1100 1101 1102 1103
4 1104 1105 1106 1107
4 1108 1109 1110 1111
4 1112 1113 1114 1115
4 1116 1117 1118 1119
4 1120 1121 1122 1123
4 1124 1125 1126 1127
4 1128 1129 1130 1131
4 1132 1133 1134 1135
4 1136 1137 1138 1139
4 1140 1141 1142 1143
4 1144 1145 1146 1147
4 1148 1149 1150 1151
4 1152 1153 1154 1155
4 1156 1157 1158 1159
4 1160 1161 1162 1163
4 1164 1165 1166 1167
4 1168 1169 1170 1171
4 1172 1173 1174 1175
4 1176 1177 1178 1179
4 1180 1181 1182 1183
4 1184 1185 1186 1187
4 1188 1189 1190 1191
4 1192 1193 1194 1195
4 1196 1197 1198 1199
4 1200 1201 1202 1203
4 1204 1205 1206 1207
4 1208 1209 1210 1211
4 1212 1213 1214 1215
4 1216 1217 1218 1219
4 1220 1221 1222 1223
4 1224 1225 1226 1227
4 1228 1229 1230 1231
4 1232 1233 1234 1235
4 1236 1237 1238 1239
4 1240 1241 1242 1243
4 1244 1245 1246 1247
4 1248 1249 1250 1251
4 1252 1253 1254 1255
4 1256 1257 1258 1259
4 1260 1261 1262 1263
4 1264 1265 1266 1267
4 1268 1269 1270 1271
4 1272 1273 1274 1275
4 1276 1277 1278 1279
4 1280 1281 1282 1283
4 1284 1285 1286 1287
4 1288 1289 1290 1291
4 1292 1293 1294 1295
4 1296 1297 1298 1299
4 1300 1301 1302 1303
4 1304 1305 1306 1307
4 1308 1309 1310 1311
4 1312 1313 1314 1315
4 1316 1317 1318 1319
4 1320 1321 1322 1323
4 1324 1325 1326 1327
4 1328 1329 1330 1331
4 1332 1333 1334 1335
4 1336 1337 1338 1339
4 1340 1341 1342 1343
4 1344 1345 1346 1347
4 1348 1349 1350 1351
4 1352 1353 1354 1355
4 1356 1357 1358 1359
4 1360 1361 1362 1363
4 1364 1365 1366 1367
4 1368 1369 1370 1371
4 1372 1373 1374 1375
4 1376 1377 1378 1379
4 1380 1381 1382 1383
4 1384 1385 1386 1387
4 1388 1389 1390 1391
4 1392 1393 1394 1395
4 1396 1397 1398 1399
4 1400 1401 1402 1403
4 1404 1405 1406 1407
4 1408 1409 1410 1411
4 1412 1413 1414 1415
4 1416 1417 1418 1419
4 1420 1421 1422 1423
4 1424 1425 1426 1427
4 1428 1429 1430 1431
4 1432 1433 1434 1435
4 1436 1437 1438 1439
4 1440 1441 1442 1443
4 1444 1445 1446 1447
4 1448 1449 1450 1451
4 1452 1453 1454 1455
4 1456 1457 1458 1459
4 1460 1461 1462 1463
4 1464 1465 1466 1467
4 1468 1469 1470 1471
4 1472 1473 1474 1475
4 1476 1477 1478 1479
4 1480 1481 1482 1483
4 1484 1485 1486 1487
4 1488 1489 1490 1491
4 1492 1493 1494 1495
4 1496 1497 1498 1499
4 1500 1501 1502 1503
4 1504 1505 1506 1507
4 1508 1509 1510 1511
4 1512 1513 1514 1515
4 1516 1517 1518 1519
4 1520 1521 1522 1523
4 1524 1525 1526 1527
4 1528 1529 1530 1531
4 1532 1533 1534 1535
4 1536 1537 1538 1539
4 1540 1541 1542 1543
4 1544 1545 1546 1547
4 1548 1549 1550 1551
4 1552 1553 1554 1555
4 1556 1557 1558 1559
4 1560 1561 1562 1563
4 1564 1565 1566 1567
4 1568 1569 1570 1571
4 1572 1573 1574 1575
4 1576 1577 1578 1579
4 1580 1581 1582 1583
4 1584 1585 1586 1587
4 1588 1589 1590 1591
4 1592 1593 1594 1595
4 1596 1597 1598 1599
4 1600 1601 1602 1603
