ply
format ascii 1.0
element vertex 492
property float x
property float y
property float z
property float nx
property float ny
property float nz
element quads 122
property list uchar int vertex_indices
end_header
286 330 0 1 0 0
286 60 0 1 0 0
286 60 100 1 0 0
286 330 100 1 0 0
276 330 0 -1 -0 0
276 60 0 -1 -0 0
276 60 100 -1 -0 0
276 330 100 -1 -0 0
286 330 0 1 0 0
286 72 0 1 0 0
286 72 100 1 0 0
286 330 100 1 0 0
276 330 0 -1 -0 0
276 72 0 -1 -0 0
276 72 100 -1 -0 0
276 330 100 -1 -0 0
276 60 0 -1 0 0
276 86 0 -1 0 0
276 86 100 -1 0 0
276 60 100 -1 0 0
286 60 0 1 -0 0
286 86 0 1 -0 0
286 86 100 1 -0 0
286 60 100 1 -0 0
491 540 0 1 0 0
491 421 0 1 0 0
491 421 100 1 0 0
491 540 100 1 0 0
481 545 0 -1 -0 0
481 421 0 -1 -0 0
481 421 100 -1 -0 0
481 545 100 -1 -0 0
491 535 0 1 0 0
491 503 0 1 0 0
491 503 100 1 0 0
491 535 100 1 0 0
481 540 0 -1 -0 0
481 503 0 -1 -0 0
481 503 100 -1 -0 0
481 540 100 -1 -0 0
481 545 0 -0 1 0
550 545 0 -0 1 0
550 545 100 -0 1 0
481 545 100 -0 1 0
491 535 0 0 -1 0
550 535 0 0 -1 0
550 535 100 0 -1 0
491 535 100 0 -1 0
653 357 0 1 0 0
653 16 0 1 0 0
653 16 100 1 0 0
653 357 100 1 0 0
643 357 0 -1 -0 0
643 16 0 -1 -0 0
643 16 100 -1 -0 0
643 357 100 -1 -0 0
653 357 0 1 0 0
653 324 0 1 0 0
653 324 100 1 0 0
653 357 100 1 0 0
643 357 0 -1 -0 0
643 324 0 -1 -0 0
643 324 100 -1 -0 0
643 357 100 -1 -0 0
643 16 0 -1 0 0
643 105 0 -1 0 0
643 105 100 -1 0 0
643 16 100 -1 0 0
653 16 0 1 -0 0
653 105 0 1 -0 0
653 105 100 1 -0 0
653 16 100 1 -0 0
643 16 0 -1 0 0
643 89 0 -1 0 0
643 89 100 -1 0 0
643 16 100 -1 0 0
653 16 0 1 -0 0
653 89 0 1 -0 0
653 89 100 1 -0 0
653 16 100 1 -0 0
178 425 0 1 0 0
178 204 0 1 0 0
178 204 100 1 0 0
178 425 100 1 0 0
168 425 0 -1 -0 0
168 204 0 -1 -0 0
168 204 100 -1 -0 0
168 425 100 -1 -0 0
486 535 0 -0 1 0
650 535 0 -0 1 0
650 535 100 -0 1 0
486 535 100 -0 1 0
486 525 0 0 -1 0
650 525 0 0 -1 0
650 525 100 0 -1 0
486 525 100 0 -1 0
486 535 0 -0 1 0
552 535 0 -0 1 0
552 535 100 -0 1 0
486 535 100 -0 1 0
486 525 0 0 -1 0
552 525 0 0 -1 0
552 525 100 0 -1 0
486 525 100 0 -1 0
174 103 0 -0 1 0
279 103 0 -0 1 0
279 103 100 -0 1 0
174 103 100 -0 1 0
174 93 0 0 -1 0
279 93 0 0 -1 0
279 93 100 0 -1 0
174 93 100 0 -1 0
178 225 0 1 0 0
178 172 0 1 0 0
178 172 100 1 0 0
178 225 100 1 0 0
168 225 0 -1 -0 0
168 172 0 -1 -0 0
168 172 100 -1 -0 0
168 225 100 -1 -0 0
256 435 0 1 0 0
256 389 0 1 0 0
256 389 100 1 0 0
256 435 100 1 0 0
246 435 0 -1 -0 0
246 389 0 -1 -0 0
246 389 100 -1 -0 0
246 435 100 -1 -0 0
533 324 0 1 0 0
533 259 0 1 0 0
533 259 100 1 0 0
533 324 100 1 0 0
523 324 0 -1 -0 0
523 259 0 -1 -0 0
523 259 100 -1 -0 0
523 324 100 -1 -0 0
491 326 0 1 0 0
491 230 0 1 0 0
491 230 100 1 0 0
491 326 100 1 0 0
481 326 0 -1 -0 0
481 230 0 -1 -0 0
481 230 100 -1 -0 0
481 326 100 -1 -0 0
252 427 0 -0 1 0
341 427 0 -0 1 0
341 427 100 -0 1 0
252 427 100 -0 1 0
252 417 0 0 -1 0
341 417 0 0 -1 0
341 417 100 0 -1 0
252 417 100 0 -1 0
405 328 0 1 0 0
405 308 0 1 0 0
405 308 100 1 0 0
405 328 100 1 0 0
395 328 0 -1 -0 0
395 308 0 -1 -0 0
395 308 100 -1 -0 0
395 328 100 -1 -0 0
405 328 0 1 0 0
405 263 0 1 0 0
405 263 100 1 0 0
405 328 100 1 0 0
395 328 0 -1 -0 0
395 263 0 -1 -0 0
395 263 100 -1 -0 0
395 328 100 -1 -0 0
291 330 0 1 0 0
291 172 0 1 0 0
291 172 100 1 0 0
291 330 100 1 0 0
281 330 0 -1 -0 0
281 172 0 -1 -0 0
281 172 100 -1 -0 0
281 330 100 -1 -0 0
403 336 0 1 0 0
403 291 0 1 0 0
403 291 100 1 0 0
403 336 100 1 0 0
393 336 0 -1 -0 0
393 291 0 -1 -0 0
393 291 100 -1 -0 0
393 336 100 -1 -0 0
491 421 0 486.87396240234375 416.462188720703125 0
481 421 0 486.87396240234375 416.462188720703125 0
481 421 100 486.87396240234375 416.462188720703125 0
491 421 100 486.87396240234375 416.462188720703125 0
178 425 0 177.194564819335938 424.076934814453125 0
168 425 0 177.194564819335938 424.076934814453125 0
168 425 100 177.194564819335938 424.076934814453125 0
178 425 100 177.194564819335938 424.076934814453125 0
178 204 0 177.194564819335938 202.076919555664062 0
168 204 0 177.194564819335938 202.076919555664062 0
168 204 100 177.194564819335938 202.076919555664062 0
178 204 100 177.194564819335938 202.076919555664062 0
286 72 0 284.8914794921875 70.7209320068359375 0
276 72 0 284.8914794921875 70.7209320068359375 0
276 72 100 284.8914794921875 70.7209320068359375 0
286 72 100 284.8914794921875 70.7209320068359375 0
650 535 0 647.03656005859375 531.73779296875 0
650 525 0 647.03656005859375 531.73779296875 0
650 525 100 647.03656005859375 531.73779296875 0
650 535 100 647.03656005859375 531.73779296875 0
174 103 0 171.342849731445312 102.019050598144531 0
174 93 0 171.342849731445312 102.019050598144531 0
174 93 100 171.342849731445312 102.019050598144531 0
174 103 100 171.342849731445312 102.019050598144531 0
279 103 0 277.342864990234375 102.019050598144531 0
279 93 0 277.342864990234375 102.019050598144531 0
279 93 100 277.342864990234375 102.019050598144531 0
279 103 100 277.342864990234375 102.019050598144531 0
276 86 0 265.384613037109375 83.6923065185546875 0
286 86 0 265.384613037109375 83.6923065185546875 0
286 86 100 265.384613037109375 83.6923065185546875 0
276 86 100 265.384613037109375 83.6923065185546875 0
178 225 0 174.641510009765625 221.754714965820312 0
168 225 0 174.641510009765625 221.754714965820312 0
168 225 100 174.641510009765625 221.754714965820312 0
178 225 100 174.641510009765625 221.754714965820312 0
178 172 0 174.641510009765625 167.754714965820312 0
168 172 0 174.641510009765625 167.754714965820312 0
168 172 100 174.641510009765625 167.754714965820312 0
178 172 100 174.641510009765625 167.754714965820312 0
256 435 0 250.434783935546875 426.543487548828125 0
246 435 0 250.434783935546875 426.543487548828125 0
246 435 100 250.434783935546875 426.543487548828125 0
256 435 100 250.434783935546875 426.543487548828125 0
256 389 0 250.434783935546875 379.543487548828125 0
246 389 0 250.434783935546875 379.543487548828125 0
246 389 100 250.434783935546875 379.543487548828125 0
256 389 100 250.434783935546875 379.543487548828125 0
643 105 0 635.7752685546875 104.820220947265625 0
653 105 0 635.7752685546875 104.820220947265625 0
653 105 100 635.7752685546875 104.820220947265625 0
643 105 100 635.7752685546875 104.820220947265625 0
491 503 0 475.65625 486.28125 0
481 503 0 475.65625 486.28125 0
481 503 100 475.65625 486.28125 0
491 503 100 475.65625 486.28125 0
533 324 0 524.79998779296875 320.015380859375 0
523 324 0 524.79998779296875 320.015380859375 0
523 324 100 524.79998779296875 320.015380859375 0
533 324 100 524.79998779296875 320.015380859375 0
533 259 0 524.79998779296875 254.015380859375 0
523 259 0 524.79998779296875 254.015380859375 0
523 259 100 524.79998779296875 254.015380859375 0
533 259 100 524.79998779296875 254.015380859375 0
491 326 0 485.885406494140625 323.604156494140625 0
481 326 0 485.885406494140625 323.604156494140625 0
481 326 100 485.885406494140625 323.604156494140625 0
491 326 100 485.885406494140625 323.604156494140625 0
491 230 0 485.885406494140625 226.604171752929688 0
481 230 0 485.885406494140625 226.604171752929688 0
481 230 100 485.885406494140625 226.604171752929688 0
491 230 100 485.885406494140625 226.604171752929688 0
653 324 0 633.21209716796875 313.18182373046875 0
643 324 0 633.21209716796875 313.18182373046875 0
643 324 100 633.21209716796875 313.18182373046875 0
653 324 100 633.21209716796875 313.18182373046875 0
643 89 0 634.1917724609375 88.78082275390625 0
653 89 0 634.1917724609375 88.78082275390625 0
653 89 100 634.1917724609375 88.78082275390625 0
643 89 100 634.1917724609375 88.78082275390625 0
252 427 0 248.168533325195312 422.202239990234375 0
252 417 0 248.168533325195312 422.202239990234375 0
252 417 100 248.168533325195312 422.202239990234375 0
252 427 100 248.168533325195312 422.202239990234375 0
341 427 0 338.168548583984375 422.202239990234375 0
341 417 0 338.168548583984375 422.202239990234375 0
341 417 100 338.168548583984375 422.202239990234375 0
341 427 100 338.168548583984375 422.202239990234375 0
405 308 0 384.75 291.600006103515625 0
395 308 0 384.75 291.600006103515625 0
395 308 100 384.75 291.600006103515625 0
405 308 100 384.75 291.600006103515625 0
552 535 0 544.6363525390625 526.8939208984375 0
552 525 0 544.6363525390625 526.8939208984375 0
552 525 100 544.6363525390625 526.8939208984375 0
552 535 100 544.6363525390625 526.8939208984375 0
550 545 0 543.02899169921875 537.1014404296875 0
550 535 0 543.02899169921875 537.1014404296875 0
550 535 100 543.02899169921875 537.1014404296875 0
550 545 100 543.02899169921875 537.1014404296875 0
405 263 0 398.76922607421875 257.953857421875 0
395 263 0 398.76922607421875 257.953857421875 0
395 263 100 398.76922607421875 257.953857421875 0
405 263 100 398.76922607421875 257.953857421875 0
291 330 0 289.158233642578125 328.911407470703125 0
281 330 0 289.158233642578125 328.911407470703125 0
281 330 100 289.158233642578125 328.911407470703125 0
291 330 100 289.158233642578125 328.911407470703125 0
291 172 0 289.158233642578125 169.911392211914062 0
281 172 0 289.158233642578125 169.911392211914062 0
281 172 100 289.158233642578125 169.911392211914062 0
291 172 100 289.158233642578125 169.911392211914062 0
403 336 0 394.04443359375 329.5333251953125 0
393 336 0 394.04443359375 329.5333251953125 0
393 336 100 394.04443359375 329.5333251953125 0
403 336 100 394.04443359375 329.5333251953125 0
403 291 0 394.04443359375 283.5333251953125 0
393 291 0 394.04443359375 283.5333251953125 0
393 291 100 394.04443359375 283.5333251953125 0
403 291 100 394.04443359375 283.5333251953125 0
286 330 0 0 0 -1
276 330 0 0 0 -1
276 60 0 0 0 -1
286 60 0 0 0 -1
286 330 100 0 0 1
276 330 100 0 0 1
276 60 100 0 0 1
286 60 100 0 0 1
286 330 0 0 0 -1
276 330 0 0 0 -1
276 72 0 0 0 -1
286 72 0 0 0 -1
286 330 100 0 0 1
276 330 100 0 0 1
276 72 100 0 0 1
286 72 100 0 0 1
276 60 0 0 0 -1
286 60 0 0 0 -1
286 86 0 0 0 -1
276 86 0 0 0 -1
276 60 100 0 0 1
286 60 100 0 0 1
286 86 100 0 0 1
276 86 100 0 0 1
491 540 0 0 0 -1
481 545 0 0 0 -1
481 421 0 0 0 -1
491 421 0 0 0 -1
491 540 100 0 0 1
481 545 100 0 0 1
481 421 100 0 0 1
491 421 100 0 0 1
491 535 0 0 0 -1
481 540 0 0 0 -1
481 503 0 0 0 -1
491 503 0 0 0 -1
491 535 100 0 0 1
481 540 100 0 0 1
481 503 100 0 0 1
491 503 100 0 0 1
481 545 0 0 0 -1
491 535 0 0 0 -1
550 535 0 0 0 -1
550 545 0 0 0 -1
481 545 100 0 0 1
491 535 100 0 0 1
550 535 100 0 0 1
550 545 100 0 0 1
653 357 0 0 0 -1
643 357 0 0 0 -1
643 16 0 0 0 -1
653 16 0 0 0 -1
653 357 100 0 0 1
643 357 100 0 0 1
643 16 100 0 0 1
653 16 100 0 0 1
653 357 0 0 0 -1
643 357 0 0 0 -1
643 324 0 0 0 -1
653 324 0 0 0 -1
653 357 100 0 0 1
643 357 100 0 0 1
643 324 100 0 0 1
653 324 100 0 0 1
643 16 0 0 0 -1
653 16 0 0 0 -1
653 105 0 0 0 -1
643 105 0 0 0 -1
643 16 100 0 0 1
653 16 100 0 0 1
653 105 100 0 0 1
643 105 100 0 0 1
643 16 0 0 0 -1
653 16 0 0 0 -1
653 89 0 0 0 -1
643 89 0 0 0 -1
643 16 100 0 0 1
653 16 100 0 0 1
653 89 100 0 0 1
643 89 100 0 0 1
178 425 0 0 0 -1
168 425 0 0 0 -1
168 204 0 0 0 -1
178 204 0 0 0 -1
178 425 100 0 0 1
168 425 100 0 0 1
168 204 100 0 0 1
178 204 100 0 0 1
486 535 0 0 0 -1
486 525 0 0 0 -1
650 525 0 0 0 -1
650 535 0 0 0 -1
486 535 100 0 0 1
486 525 100 0 0 1
650 525 100 0 0 1
650 535 100 0 0 1
486 535 0 0 0 -1
486 525 0 0 0 -1
552 525 0 0 0 -1
552 535 0 0 0 -1
486 535 100 0 0 1
486 525 100 0 0 1
552 525 100 0 0 1
552 535 100 0 0 1
174 103 0 0 0 -1
174 93 0 0 0 -1
279 93 0 0 0 -1
279 103 0 0 0 -1
174 103 100 0 0 1
174 93 100 0 0 1
279 93 100 0 0 1
279 103 100 0 0 1
178 225 0 0 0 -1
168 225 0 0 0 -1
168 172 0 0 0 -1
178 172 0 0 0 -1
178 225 100 0 0 1
168 225 100 0 0 1
168 172 100 0 0 1
178 172 100 0 0 1
256 435 0 0 0 -1
246 435 0 0 0 -1
246 389 0 0 0 -1
256 389 0 0 0 -1
256 435 100 0 0 1
246 435 100 0 0 1
246 389 100 0 0 1
256 389 100 0 0 1
533 324 0 0 0 -1
523 324 0 0 0 -1
523 259 0 0 0 -1
533 259 0 0 0 -1
533 324 100 0 0 1
523 324 100 0 0 1
523 259 100 0 0 1
533 259 100 0 0 1
491 326 0 0 0 -1
481 326 0 0 0 -1
481 230 0 0 0 -1
491 230 0 0 0 -1
491 326 100 0 0 1
481 326 100 0 0 1
481 230 100 0 0 1
491 230 100 0 0 1
252 427 0 0 0 -1
252 417 0 0 0 -1
341 417 0 0 0 -1
341 427 0 0 0 -1
252 427 100 0 0 1
252 417 100 0 0 1
341 417 100 0 0 1
341 427 100 0 0 1
405 328 0 0 0 -1
395 328 0 0 0 -1
395 308 0 0 0 -1
405 308 0 0 0 -1
405 328 100 0 0 1
395 328 100 0 0 1
395 308 100 0 0 1
405 308 100 0 0 1
405 328 0 0 0 -1
395 328 0 0 0 -1
395 263 0 0 0 -1
405 263 0 0 0 -1
405 328 100 0 0 1
395 328 100 0 0 1
395 263 100 0 0 1
405 263 100 0 0 1
291 330 0 0 0 -1
281 330 0 0 0 -1
281 172 0 0 0 -1
291 172 0 0 0 -1
291 330 100 0 0 1
281 330 100 0 0 1
281 172 100 0 0 1
291 172 100 0 0 1
403 336 0 0 0 -1
393 336 0 0 0 -1
393 291 0 0 0 -1
403 291 0 0 0 -1
403 336 100 0 0 1
393 336 100 0 0 1
393 291 100 0 0 1
403 291 100 0 0 1
491 535 0 0 0 -1
481 545 0 0 0 -1
491 535 100 0 0 1
481 545 100 0 0 1
4 0 1 2 3
4 4 5 6 7
4 8 9 10 11
4 12 13 14 15
4 16 17 18 19
4 20 21 22 23
4 24 25 26 27
4 28 29 30 31
4 32 33 34 35
4 36 37 38 39
4 40 41 42 43
4 44 45 46 47
4 48 49 50 51
4 52 53 54 55
4 56 57 58 59
4 60 61 62 63
4 64 65 66 67
4 68 69 70 71
4 72 73 74 75
4 76 77 78 79
4 80 81 82 83
4 84 85 86 87
4 88 89 90 91
4 92 93 94 95
4 96 97 98 99
4 100 101 102 103
4 104 105 106 107
4 108 109 110 111
4 112 113 114 115
4 116 117 118 119
4 120 121 122 123
4 124 125 126 127
4 128 129 130 131
4 132 133 134 135
4 136 137 138 139
4 140 141 142 143
4 144 145 146 147
4 148 149 150 151
4 152 153 154 155
4 156 157 158 159
4 160 161 162 163
4 164 165 166 167
4 168 169 170 171
4 172 173 174 175
4 176 177 178 179
4 180 181 182 183
4 184 185 186 187
4 188 189 190 191
4 192 193 194 195
4 196 197 198 199
4 200 201 202 203
4 204 205 206 207
4 208 209 210 211
4 212 213 214 215
4 216 217 218 219
4 220 221 222 223
4 224 225 226 227
4 228 229 230 231
4 232 233 234 235
4 236 237 238 239
4 240 241 242 243
4 244 245 246 247
4 248 249 250 251
4 252 253 254 255
4 256 257 258 259
4 260 261 262 263
4 264 265 266 267
4 268 269 270 271
4 272 273 274 275
4 276 277 278 279
4 280 281 282 283
4 284 285 286 287
4 288 289 290 291
4 292 293 294 295
4 296 297 298 299
4 300 301 302 303
4 304 305 306 307
4 308 309 310 311
4 312 313 314 315
4 316 317 318 319
4 320 321 322 323
4 324 325 326 327
4 328 329 330 331
4 332 333 334 335
4 336 337 338 339
4 340 341 342 343
4 344 345 346 347
4 348 349 350 351
4 352 353 354 355
4 356 357 358 359
4 360 361 362 363
4 364 365 366 367
4 368 369 370 371
4 372 373 374 375
4 376 377 378 379
4 380 381 382 383
4 384 385 386 387
4 388 389 390 391
4 392 393 394 395
4 396 397 398 399
4 400 401 402 403
4 404 405 406 407
4 408 409 410 411
4 412 413 414 415
4 416 417 418 419
4 420 421 422 423
4 424 425 426 427
4 428 429 430 431
4 432 433 434 435
4 436 437 438 439
4 440 441 442 443
4 444 445 446 447
4 448 449 450 451
4 452 453 454 455
4 456 457 458 459
4 460 461 462 463
4 464 465 466 467
4 468 469 470 471
4 472 473 474 475
4 476 477 478 479
4 480 481 482 483
4 484 485 486 487
