ply
format ascii 1.0
element vertex 520
property float x
property float y
property float z
property float nx
property float ny
property float nz
element quads 130
property list uchar int vertex_indices
end_header
325 508 0 1 0 0
325 162 0 1 0 0
325 162 100 1 0 0
325 508 100 1 0 0
315 508 0 -1 -0 0
315 162 0 -1 -0 0
315 162 100 -1 -0 0
315 508 100 -1 -0 0
325 508 0 1 0 0
325 357 0 1 0 0
325 357 100 1 0 0
325 508 100 1 0 0
315 508 0 -1 -0 0
315 357 0 -1 -0 0
315 357 100 -1 -0 0
315 508 100 -1 -0 0
80 168 0 -0 1 0
600 168 0 -0 1 0
600 168 100 -0 1 0
80 168 100 -0 1 0
80 158 0 0 -1 0
600 158 0 0 -1 0
600 158 100 0 -1 0
80 158 100 0 -1 0
80 168 0 -0 1 0
566 168 0 -0 1 0
566 168 100 -0 1 0
80 168 100 -0 1 0
80 158 0 0 -1 0
566 158 0 0 -1 0
566 158 100 0 -1 0
80 158 100 0 -1 0
80 168 0 -0 1 0
237 168 0 -0 1 0
237 168 100 -0 1 0
80 168 100 -0 1 0
80 158 0 0 -1 0
237 158 0 0 -1 0
237 158 100 0 -1 0
80 158 100 0 -1 0
600 158 0 -0 -1 0
140 158 0 -0 -1 0
140 158 100 -0 -1 0
600 158 100 -0 -1 0
600 168 0 0 1 0
140 168 0 0 1 0
140 168 100 0 1 0
600 168 100 0 1 0
600 158 0 -0 -1 0
532 158 0 -0 -1 0
532 158 100 -0 -1 0
600 158 100 -0 -1 0
600 168 0 0 1 0
532 168 0 0 1 0
532 168 100 0 1 0
600 168 100 0 1 0
81 241 0 -0 1 0
318 241 0 -0 1 0
318 241 100 -0 1 0
81 241 100 -0 1 0
81 231 0 0 -1 0
318 231 0 0 -1 0
318 231 100 0 -1 0
81 231 100 0 -1 0
318 231 0 -0 -1 0
222 231 0 -0 -1 0
222 231 100 -0 -1 0
318 231 100 -0 -1 0
318 241 0 0 1 0
222 241 0 0 1 0
222 241 100 0 1 0
318 241 100 0 1 0
564 303 0 1 0 0
564 161 0 1 0 0
564 161 100 1 0 0
564 303 100 1 0 0
554 303 0 -1 -0 0
554 161 0 -1 -0 0
554 161 100 -1 -0 0
554 303 100 -1 -0 0
366 323 0 -0 1 0
488 323 0 -0 1 0
488 323 100 -0 1 0
366 323 100 -0 1 0
366 313 0 0 -1 0
488 313 0 0 -1 0
488 313 100 0 -1 0
366 313 100 0 -1 0
488 323 0 -0 1 0
526 323 0 -0 1 0
526 323 100 -0 1 0
488 323 100 -0 1 0
488 313 0 0 -1 0
526 313 0 0 -1 0
526 313 100 0 -1 0
488 313 100 0 -1 0
665 167 0 -0 1 0
708 167 0 -0 1 0
708 167 100 -0 1 0
665 167 100 -0 1 0
665 157 0 0 -1 0
708 157 0 0 -1 0
708 157 100 0 -1 0
665 157 100 0 -1 0
399 387 0 1 0 0
399 320 0 1 0 0
399 320 100 1 0 0
399 387 100 1 0 0
389 387 0 -1 -0 0
389 320 0 -1 -0 0
389 320 100 -1 -0 0
389 387 100 -1 -0 0
671 307 0 -0 1 0
706 307 0 -0 1 0
706 307 100 -0 1 0
671 307 100 -0 1 0
671 297 0 0 -1 0
706 297 0 0 -1 0
706 297 100 0 -1 0
671 297 100 0 -1 0
348 168 0 -0 1 0
471 168 0 -0 1 0
471 168 100 -0 1 0
348 168 100 -0 1 0
348 158 0 0 -1 0
471 158 0 0 -1 0
471 158 100 0 -1 0
348 158 100 0 -1 0
322 460 0 -0 1 0
344 460 0 -0 1 0
344 460 100 -0 1 0
322 460 100 -0 1 0
322 450 0 0 -1 0
344 450 0 0 -1 0
344 450 100 0 -1 0
322 450 100 0 -1 0
394 454 0 1 0 0
394 392 0 1 0 0
394 392 100 1 0 0
394 454 100 1 0 0
384 454 0 -1 -0 0
384 392 0 -1 -0 0
384 392 100 -1 -0 0
384 454 100 -1 -0 0
85 508 0 1 0 0
85 164 0 1 0 0
85 164 100 1 0 0
85 508 100 1 0 0
75 508 0 -1 -0 0
75 164 0 -1 -0 0
75 164 100 -1 -0 0
75 508 100 -1 -0 0
322 461 0 -0 1 0
528 461 0 -0 1 0
528 461 100 -0 1 0
322 461 100 -0 1 0
322 451 0 0 -1 0
528 451 0 0 -1 0
528 451 100 0 -1 0
322 451 100 0 -1 0
741 434 0 1 0 0
741 374 0 1 0 0
741 374 100 1 0 0
741 434 100 1 0 0
731 434 0 -1 -0 0
731 374 0 -1 -0 0
731 374 100 -1 -0 0
731 434 100 -1 -0 0
725 435 0 1 0 0
725 374 0 1 0 0
725 374 100 1 0 0
725 435 100 1 0 0
715 435 0 -1 -0 0
715 374 0 -1 -0 0
715 374 100 -1 -0 0
715 435 100 -1 -0 0
532 456 0 1 0 0
532 302 0 1 0 0
532 302 100 1 0 0
532 456 100 1 0 0
522 456 0 -1 -0 0
522 302 0 -1 -0 0
522 302 100 -1 -0 0
522 456 100 -1 -0 0
532 302 0 1 0 0
532 290 0 1 0 0
532 290 100 1 0 0
532 302 100 1 0 0
522 302 0 -1 -0 0
522 290 0 -1 -0 0
522 290 100 -1 -0 0
522 302 100 -1 -0 0
325 162 0 324.060699462890625 160.53179931640625 0
315 162 0 324.060699462890625 160.53179931640625 0
315 162 100 324.060699462890625 160.53179931640625 0
325 162 100 324.060699462890625 160.53179931640625 0
140 158 0 138.695648193359375 157.656524658203125 0
140 168 0 138.695648193359375 157.656524658203125 0
140 168 100 138.695648193359375 157.656524658203125 0
140 158 100 138.695648193359375 157.656524658203125 0
81 241 0 79.6582260131835938 239.983123779296875 0
81 231 0 79.6582260131835938 239.983123779296875 0
81 231 100 79.6582260131835938 239.983123779296875 0
81 241 100 79.6582260131835938 239.983123779296875 0
566 168 0 565.83538818359375 167.654327392578125 0
566 158 0 565.83538818359375 167.654327392578125 0
566 158 100 565.83538818359375 167.654327392578125 0
566 168 100 565.83538818359375 167.654327392578125 0
564 303 0 560.0281982421875 301.8662109375 0
554 303 0 560.0281982421875 301.8662109375 0
554 303 100 560.0281982421875 301.8662109375 0
564 303 100 560.0281982421875 301.8662109375 0
564 161 0 560.0281982421875 158.866195678710938 0
554 161 0 560.0281982421875 158.866195678710938 0
554 161 100 560.0281982421875 158.866195678710938 0
564 161 100 560.0281982421875 158.866195678710938 0
366 323 0 362 320.352447509765625 0
366 313 0 362 320.352447509765625 0
366 313 100 362 320.352447509765625 0
366 323 100 362 320.352447509765625 0
237 168 0 236.490447998046875 166.929931640625 0
237 158 0 236.490447998046875 166.929931640625 0
237 158 100 236.490447998046875 166.929931640625 0
237 168 100 236.490447998046875 166.929931640625 0
665 167 0 648.534912109375 163.11627197265625 0
665 157 0 648.534912109375 163.11627197265625 0
665 157 100 648.534912109375 163.11627197265625 0
665 167 100 648.534912109375 163.11627197265625 0
708 167 0 692.534912109375 163.11627197265625 0
708 157 0 692.534912109375 163.11627197265625 0
708 157 100 692.534912109375 163.11627197265625 0
708 167 100 692.534912109375 163.11627197265625 0
325 357 0 322.847686767578125 353.635772705078125 0
315 357 0 322.847686767578125 353.635772705078125 0
315 357 100 322.847686767578125 353.635772705078125 0
325 357 100 322.847686767578125 353.635772705078125 0
399 387 0 393.044769287109375 382.223876953125 0
389 387 0 393.044769287109375 382.223876953125 0
389 387 100 393.044769287109375 382.223876953125 0
399 387 100 393.044769287109375 382.223876953125 0
399 320 0 393.044769287109375 314.223876953125 0
389 320 0 393.044769287109375 314.223876953125 0
389 320 100 393.044769287109375 314.223876953125 0
399 320 100 393.044769287109375 314.223876953125 0
671 307 0 650.82855224609375 298.22857666015625 0
671 297 0 650.82855224609375 298.22857666015625 0
671 297 100 650.82855224609375 298.22857666015625 0
671 307 100 650.82855224609375 298.22857666015625 0
706 307 0 686.82855224609375 298.22857666015625 0
706 297 0 686.82855224609375 298.22857666015625 0
706 297 100 686.82855224609375 298.22857666015625 0
706 307 100 686.82855224609375 298.22857666015625 0
532 158 0 523.17645263671875 155.676467895507812 0
532 168 0 523.17645263671875 155.676467895507812 0
532 168 100 523.17645263671875 155.676467895507812 0
532 158 100 523.17645263671875 155.676467895507812 0
348 168 0 344.170745849609375 166.634140014648438 0
348 158 0 344.170745849609375 166.634140014648438 0
348 158 100 344.170745849609375 166.634140014648438 0
348 168 100 344.170745849609375 166.634140014648438 0
471 168 0 468.170745849609375 166.634140014648438 0
471 158 0 468.170745849609375 166.634140014648438 0
471 158 100 468.170745849609375 166.634140014648438 0
471 168 100 468.170745849609375 166.634140014648438 0
222 231 0 218.6875 228.59375 0
222 241 0 218.6875 228.59375 0
222 241 100 218.6875 228.59375 0
222 231 100 218.6875 228.59375 0
322 460 0 306.3636474609375 439.090911865234375 0
322 450 0 306.3636474609375 439.090911865234375 0
322 450 100 306.3636474609375 439.090911865234375 0
322 460 100 306.3636474609375 439.090911865234375 0
344 460 0 329.3636474609375 439.090911865234375 0
344 450 0 329.3636474609375 439.090911865234375 0
344 450 100 329.3636474609375 439.090911865234375 0
344 460 100 329.3636474609375 439.090911865234375 0
394 454 0 387.645172119140625 447.67742919921875 0
384 454 0 387.645172119140625 447.67742919921875 0
384 454 100 387.645172119140625 447.67742919921875 0
394 454 100 387.645172119140625 447.67742919921875 0
394 392 0 387.645172119140625 384.67742919921875 0
384 392 0 387.645172119140625 384.67742919921875 0
384 392 100 387.645172119140625 384.67742919921875 0
394 392 100 387.645172119140625 384.67742919921875 0
85 508 0 84.7529067993164062 507.52325439453125 0
75 508 0 84.7529067993164062 507.52325439453125 0
75 508 100 84.7529067993164062 507.52325439453125 0
85 508 100 84.7529067993164062 507.52325439453125 0
85 164 0 84.7529067993164062 162.52325439453125 0
75 164 0 84.7529067993164062 162.52325439453125 0
75 164 100 84.7529067993164062 162.52325439453125 0
85 164 100 84.7529067993164062 162.52325439453125 0
322 461 0 319.4368896484375 458.76214599609375 0
322 451 0 319.4368896484375 458.76214599609375 0
322 451 100 319.4368896484375 458.76214599609375 0
322 461 100 319.4368896484375 458.76214599609375 0
528 461 0 526.4368896484375 458.76214599609375 0
528 451 0 526.4368896484375 458.76214599609375 0
528 451 100 526.4368896484375 458.76214599609375 0
528 461 100 526.4368896484375 458.76214599609375 0
741 434 0 728.6500244140625 427.76666259765625 0
731 434 0 728.6500244140625 427.76666259765625 0
731 434 100 728.6500244140625 427.76666259765625 0
741 434 100 728.6500244140625 427.76666259765625 0
741 374 0 728.6500244140625 366.76666259765625 0
731 374 0 728.6500244140625 366.76666259765625 0
731 374 100 728.6500244140625 366.76666259765625 0
741 374 100 728.6500244140625 366.76666259765625 0
526 323 0 513.15789794921875 314.5 0
526 313 0 513.15789794921875 314.5 0
526 313 100 513.15789794921875 314.5 0
526 323 100 513.15789794921875 314.5 0
725 435 0 713.11474609375 428.868865966796875 0
715 435 0 713.11474609375 428.868865966796875 0
715 435 100 713.11474609375 428.868865966796875 0
725 435 100 713.11474609375 428.868865966796875 0
725 374 0 713.11474609375 366.868865966796875 0
715 374 0 713.11474609375 366.868865966796875 0
715 374 100 713.11474609375 366.868865966796875 0
725 374 100 713.11474609375 366.868865966796875 0
532 456 0 528.54547119140625 454.038970947265625 0
522 456 0 528.54547119140625 454.038970947265625 0
522 456 100 528.54547119140625 454.038970947265625 0
532 456 100 528.54547119140625 454.038970947265625 0
532 290 0 487.666656494140625 264.833343505859375 0
522 290 0 487.666656494140625 264.833343505859375 0
522 290 100 487.666656494140625 264.833343505859375 0
532 290 100 487.666656494140625 264.833343505859375 0
325 508 0 0 0 -1
315 508 0 0 0 -1
315 162 0 0 0 -1
325 162 0 0 0 -1
325 508 100 0 0 1
315 508 100 0 0 1
315 162 100 0 0 1
325 162 100 0 0 1
325 508 0 0 0 -1
315 508 0 0 0 -1
315 357 0 0 0 -1
325 357 0 0 0 -1
325 508 100 0 0 1
315 508 100 0 0 1
315 357 100 0 0 1
325 357 100 0 0 1
80 168 0 0 0 -1
80 158 0 0 0 -1
600 158 0 0 0 -1
600 168 0 0 0 -1
80 168 100 0 0 1
80 158 100 0 0 1
600 158 100 0 0 1
600 168 100 0 0 1
80 168 0 0 0 -1
80 158 0 0 0 -1
566 158 0 0 0 -1
566 168 0 0 0 -1
80 168 100 0 0 1
80 158 100 0 0 1
566 158 100 0 0 1
566 168 100 0 0 1
80 168 0 0 0 -1
80 158 0 0 0 -1
237 158 0 0 0 -1
237 168 0 0 0 -1
80 168 100 0 0 1
80 158 100 0 0 1
237 158 100 0 0 1
237 168 100 0 0 1
600 158 0 0 0 -1
600 168 0 0 0 -1
140 168 0 0 0 -1
140 158 0 0 0 -1
600 158 100 0 0 1
600 168 100 0 0 1
140 168 100 0 0 1
140 158 100 0 0 1
600 158 0 0 0 -1
600 168 0 0 0 -1
532 168 0 0 0 -1
532 158 0 0 0 -1
600 158 100 0 0 1
600 168 100 0 0 1
532 168 100 0 0 1
532 158 100 0 0 1
81 241 0 0 0 -1
81 231 0 0 0 -1
318 231 0 0 0 -1
318 241 0 0 0 -1
81 241 100 0 0 1
81 231 100 0 0 1
318 231 100 0 0 1
318 241 100 0 0 1
318 231 0 0 0 -1
318 241 0 0 0 -1
222 241 0 0 0 -1
222 231 0 0 0 -1
318 231 100 0 0 1
318 241 100 0 0 1
222 241 100 0 0 1
222 231 100 0 0 1
564 303 0 0 0 -1
554 303 0 0 0 -1
554 161 0 0 0 -1
564 161 0 0 0 -1
564 303 100 0 0 1
554 303 100 0 0 1
554 161 100 0 0 1
564 161 100 0 0 1
366 323 0 0 0 -1
366 313 0 0 0 -1
488 313 0 0 0 -1
488 323 0 0 0 -1
366 323 100 0 0 1
366 313 100 0 0 1
488 313 100 0 0 1
488 323 100 0 0 1
488 323 0 0 0 -1
488 313 0 0 0 -1
526 313 0 0 0 -1
526 323 0 0 0 -1
488 323 100 0 0 1
488 313 100 0 0 1
526 313 100 0 0 1
526 323 100 0 0 1
665 167 0 0 0 -1
665 157 0 0 0 -1
708 157 0 0 0 -1
708 167 0 0 0 -1
665 167 100 0 0 1
665 157 100 0 0 1
708 157 100 0 0 1
708 167 100 0 0 1
399 387 0 0 0 -1
389 387 0 0 0 -1
389 320 0 0 0 -1
399 320 0 0 0 -1
399 387 100 0 0 1
389 387 100 0 0 1
389 320 100 0 0 1
399 320 100 0 0 1
671 307 0 0 0 -1
671 297 0 0 0 -1
706 297 0 0 0 -1
706 307 0 0 0 -1
671 307 100 0 0 1
671 297 100 0 0 1
706 297 100 0 0 1
706 307 100 0 0 1
348 168 0 0 0 -1
348 158 0 0 0 -1
471 158 0 0 0 -1
471 168 0 0 0 -1
348 168 100 0 0 1
348 158 100 0 0 1
471 158 100 0 0 1
471 168 100 0 0 1
322 460 0 0 0 -1
322 450 0 0 0 -1
344 450 0 0 0 -1
344 460 0 0 0 -1
322 460 100 0 0 1
322 450 100 0 0 1
344 450 100 0 0 1
344 460 100 0 0 1
394 454 0 0 0 -1
384 454 0 0 0 -1
384 392 0 0 0 -1
394 392 0 0 0 -1
394 454 100 0 0 1
384 454 100 0 0 1
384 392 100 0 0 1
394 392 100 0 0 1
85 508 0 0 0 -1
75 508 0 0 0 -1
75 164 0 0 0 -1
85 164 0 0 0 -1
85 508 100 0 0 1
75 508 100 0 0 1
75 164 100 0 0 1
85 164 100 0 0 1
322 461 0 0 0 -1
322 451 0 0 0 -1
528 451 0 0 0 -1
528 461 0 0 0 -1
322 461 100 0 0 1
322 451 100 0 0 1
528 451 100 0 0 1
528 461 100 0 0 1
741 434 0 0 0 -1
731 434 0 0 0 -1
731 374 0 0 0 -1
741 374 0 0 0 -1
741 434 100 0 0 1
731 434 100 0 0 1
731 374 100 0 0 1
741 374 100 0 0 1
725 435 0 0 0 -1
715 435 0 0 0 -1
715 374 0 0 0 -1
725 374 0 0 0 -1
725 435 100 0 0 1
715 435 100 0 0 1
715 374 100 0 0 1
725 374 100 0 0 1
532 456 0 0 0 -1
522 456 0 0 0 -1
522 302 0 0 0 -1
532 302 0 0 0 -1
532 456 100 0 0 1
522 456 100 0 0 1
522 302 100 0 0 1
532 302 100 0 0 1
532 302 0 0 0 -1
522 302 0 0 0 -1
522 290 0 0 0 -1
532 290 0 0 0 -1
532 302 100 0 0 1
522 302 100 0 0 1
522 290 100 0 0 1
532 290 100 0 0 1
4 0 1 2 3
4 4 5 6 7
4 8 9 10 11
4 12 13 14 15
4 16 17 18 19
4 20 21 22 23
4 24 25 26 27
4 28 29 30 31
4 32 33 34 35
4 36 37 38 39
4 40 41 42 43
4 44 45 46 47
4 48 49 50 51
4 52 53 54 55
4 56 57 58 59
4 60 61 62 63
4 64 65 66 67
4 68 69 70 71
4 72 73 74 75
4 76 77 78 79
4 80 81 82 83
4 84 85 86 87
4 88 89 90 91
4 92 93 94 95
4 96 97 98 99
4 100 101 102 103
4 104 105 106 107
4 108 109 110 111
4 112 113 114 115
4 116 117 118 119
4 120 121 122 123
4 124 125 126 127
4 128 129 130 131
4 132 133 134 135
4 136 137 138 139
4 140 141 142 143
4 144 145 146 147
4 148 149 150 151
4 152 153 154 155
4 156 157 158 159
4 160 161 162 163
4 164 165 166 167
4 168 169 170 171
4 172 173 174 175
4 176 177 178 179
4 180 181 182 183
4 184 185 186 187
4 188 189 190 191
4 192 193 194 195
4 196 197 198 199
4 200 201 202 203
4 204 205 206 207
4 208 209 210 211
4 212 213 214 215
4 216 217 218 219
4 220 221 222 223
4 224 225 226 227
4 228 229 230 231
4 232 233 234 235
4 236 237 238 239
4 240 241 242 243
4 244 245 246 247
4 248 249 250 251
4 252 253 254 255
4 256 257 258 259
4 260 261 262 263
4 264 265 266 267
4 268 269 270 271
4 272 273 274 275
4 276 277 278 279
4 280 281 282 283
4 284 285 286 287
4 288 289 290 291
4 292 293 294 295
4 296 297 298 299
4 300 301 302 303
4 304 305 306 307
4 308 309 310 311
4 312 313 314 315
4 316 317 318 319
4 320 321 322 323
4 324 325 326 327
4 328 329 330 331
4 332 333 334 335
4 336 337 338 339
4 340 341 342 343
4 344 345 346 347
4 348 349 350 351
4 352 353 354 355
4 356 357 358 359
4 360 361 362 363
4 364 365 366 367
4 368 369 370 371
4 372 373 374 375
4 376 377 378 379
4 380 381 382 383
4 384 385 386 387
4 388 389 390 391
4 392 393 394 395
4 396 397 398 399
4 400 401 402 403
4 404 405 406 407
4 408 409 410 411
4 412 413 414 415
4 416 417 418 419
4 420 421 422 423
4 424 425 426 427
4 428 429 430 431
4 432 433 434 435
4 436 437 438 439
4 440 441 442 443
4 444 445 446 447
4 448 449 450 451
4 452 453 454 455
4 456 457 458 459
4 460 461 462 463
4 464 465 466 467
4 468 469 470 471
4 472 473 474 475
4 476 477 478 479
4 480 481 482 483
4 484 485 486 487
4 488 489 490 491
4 492 493 494 495
4 496 497 498 499
4 500 501 502 503
4 504 505 506 507
4 508 509 510 511
4 512 513 514 515
4 516 517 518 519
