ply
format ascii 1.0
element vertex 396
property float x
property float y
property float z
property float nx
property float ny
property float nz
element quads 98
property list uchar int vertex_indices
end_header
231 391 0 1 0 0
231 144 0 1 0 0
231 144 100 1 0 0
231 391 100 1 0 0
221 391 0 -1 -0 0
221 144 0 -1 -0 0
221 144 100 -1 -0 0
221 391 100 -1 -0 0
73 59 0 -0 1 0
241 59 0 -0 1 0
241 59 100 -0 1 0
73 59 100 -0 1 0
63 49 0 0 -1 0
251 49 0 0 -1 0
251 49 100 0 -1 0
63 49 100 0 -1 0
63 49 0 -1 0 0
63 390 0 -1 0 0
63 390 100 -1 0 0
63 49 100 -1 0 0
73 59 0 1 -0 0
73 390 0 1 -0 0
73 390 100 1 -0 0
73 59 100 1 -0 0
241 59 0 -1 0 0
241 146 0 -1 0 0
241 146 100 -1 0 0
241 59 100 -1 0 0
251 49 0 1 -0 0
251 146 0 1 -0 0
251 146 100 1 -0 0
251 49 100 1 -0 0
136 149 0 -0 1 0
345 149 0 -0 1 0
345 149 100 -0 1 0
136 149 100 -0 1 0
136 139 0 0 -1 0
335 139 0 0 -1 0
335 139 100 0 -1 0
136 139 100 0 -1 0
345 149 0 1 0 0
345 54 0 1 0 0
345 54 100 1 0 0
345 149 100 1 0 0
335 139 0 -1 -0 0
335 54 0 -1 -0 0
335 54 100 -1 -0 0
335 139 100 -1 -0 0
68 124 0 -0 1 0
138 124 0 -0 1 0
138 124 100 -0 1 0
68 124 100 -0 1 0
68 114 0 0 -1 0
138 114 0 0 -1 0
138 114 100 0 -1 0
68 114 100 0 -1 0
68 194 0 -0 1 0
138 194 0 -0 1 0
138 194 100 -0 1 0
68 194 100 -0 1 0
68 184 0 0 -1 0
138 184 0 0 -1 0
138 184 100 0 -1 0
68 184 100 0 -1 0
228 326 0 -0 1 0
269 326 0 -0 1 0
269 326 100 -0 1 0
228 326 100 -0 1 0
228 316 0 0 -1 0
269 316 0 0 -1 0
269 316 100 0 -1 0
228 316 100 0 -1 0
68 60 0 -0 1 0
100 60 0 -0 1 0
100 60 100 -0 1 0
68 60 100 -0 1 0
68 50 0 0 -1 0
100 50 0 0 -1 0
100 50 100 0 -1 0
68 50 100 0 -1 0
68 69 0 -0 1 0
100 69 0 -0 1 0
100 69 100 -0 1 0
68 69 100 -0 1 0
68 59 0 0 -1 0
100 59 0 0 -1 0
100 59 100 0 -1 0
68 59 100 0 -1 0
317 285 0 1 0 0
317 147 0 1 0 0
317 147 100 1 0 0
317 285 100 1 0 0
307 285 0 -1 -0 0
307 147 0 -1 -0 0
307 147 100 -1 -0 0
307 285 100 -1 -0 0
491 390 0 1 0 0
491 54 0 1 0 0
491 54 100 1 0 0
491 390 100 1 0 0
481 390 0 -1 -0 0
481 54 0 -1 -0 0
481 54 100 -1 -0 0
481 390 100 -1 -0 0
68 396 0 -0 1 0
344 396 0 -0 1 0
344 396 100 -0 1 0
68 396 100 -0 1 0
68 386 0 0 -1 0
344 386 0 0 -1 0
344 386 100 0 -1 0
68 386 100 0 -1 0
348 285 0 1 0 0
348 245 0 1 0 0
348 245 100 1 0 0
348 285 100 1 0 0
338 285 0 -1 -0 0
338 240 0 -1 -0 0
338 240 100 -1 -0 0
338 285 100 -1 -0 0
348 245 0 1 0 0
348 207 0 1 0 0
348 207 100 1 0 0
348 245 100 1 0 0
338 240 0 -1 -0 0
338 207 0 -1 -0 0
338 207 100 -1 -0 0
338 240 100 -1 -0 0
343 235 0 -0 -1 0
311 235 0 -0 -1 0
311 235 100 -0 -1 0
343 235 100 -0 -1 0
348 245 0 0 1 0
311 245 0 0 1 0
311 245 100 0 1 0
348 245 100 0 1 0
348 245 0 -0 1 0
425 245 0 -0 1 0
425 245 100 -0 1 0
348 245 100 -0 1 0
343 235 0 0 -1 0
425 235 0 0 -1 0
425 235 100 0 -1 0
343 235 100 0 -1 0
231 391 0 230.064773559570312 390.4169921875 0
221 391 0 230.064773559570312 390.4169921875 0
221 391 100 230.064773559570312 390.4169921875 0
231 391 100 230.064773559570312 390.4169921875 0
231 144 0 230.064773559570312 142.417007446289062 0
221 144 0 230.064773559570312 142.417007446289062 0
221 144 100 230.064773559570312 142.417007446289062 0
231 144 100 230.064773559570312 142.417007446289062 0
136 149 0 134.349288940429688 148.287078857421875 0
136 139 0 134.349288940429688 148.287078857421875 0
136 139 100 134.349288940429688 148.287078857421875 0
136 149 100 134.349288940429688 148.287078857421875 0
68 124 0 66.0285720825195312 122.228569030761719 0
68 114 0 66.0285720825195312 122.228569030761719 0
68 114 100 66.0285720825195312 122.228569030761719 0
68 124 100 66.0285720825195312 122.228569030761719 0
138 124 0 137.028564453125 122.228569030761719 0
138 114 0 137.028564453125 122.228569030761719 0
138 114 100 137.028564453125 122.228569030761719 0
138 124 100 137.028564453125 122.228569030761719 0
68 194 0 66.0285720825195312 191.22857666015625 0
68 184 0 66.0285720825195312 191.22857666015625 0
68 184 100 66.0285720825195312 191.22857666015625 0
68 194 100 66.0285720825195312 191.22857666015625 0
138 194 0 137.028564453125 191.22857666015625 0
138 184 0 137.028564453125 191.22857666015625 0
138 184 100 137.028564453125 191.22857666015625 0
138 194 100 137.028564453125 191.22857666015625 0
228 326 0 221.43902587890625 318.04876708984375 0
228 316 0 221.43902587890625 318.04876708984375 0
228 316 100 221.43902587890625 318.04876708984375 0
228 326 100 221.43902587890625 318.04876708984375 0
269 326 0 263.43902587890625 318.04876708984375 0
269 316 0 263.43902587890625 318.04876708984375 0
269 316 100 263.43902587890625 318.04876708984375 0
269 326 100 263.43902587890625 318.04876708984375 0
68 60 0 64.875 58.125 0
68 50 0 64.875 58.125 0
68 50 100 64.875 58.125 0
68 60 100 64.875 58.125 0
100 60 0 97.875 58.125 0
100 50 0 97.875 58.125 0
100 50 100 97.875 58.125 0
100 60 100 97.875 58.125 0
68 69 0 64.875 66.84375 0
68 59 0 64.875 66.84375 0
68 59 100 64.875 66.84375 0
68 69 100 64.875 66.84375 0
100 69 0 97.875 66.84375 0
100 59 0 97.875 66.84375 0
100 59 100 97.875 66.84375 0
100 69 100 97.875 66.84375 0
317 285 0 314.702911376953125 283.934783935546875 0
307 285 0 314.702911376953125 283.934783935546875 0
307 285 100 314.702911376953125 283.934783935546875 0
317 285 100 314.702911376953125 283.934783935546875 0
317 147 0 314.702911376953125 144.934783935546875 0
307 147 0 314.702911376953125 144.934783935546875 0
307 147 100 314.702911376953125 144.934783935546875 0
317 147 100 314.702911376953125 144.934783935546875 0
491 390 0 489.5386962890625 389.83929443359375 0
481 390 0 489.5386962890625 389.83929443359375 0
481 390 100 489.5386962890625 389.83929443359375 0
491 390 100 489.5386962890625 389.83929443359375 0
491 54 0 489.5386962890625 52.8392868041992188 0
481 54 0 489.5386962890625 52.8392868041992188 0
481 54 100 489.5386962890625 52.8392868041992188 0
491 54 100 489.5386962890625 52.8392868041992188 0
63 390 0 62.8152503967285156 389.856292724609375 0
73 390 0 62.8152503967285156 389.856292724609375 0
73 390 100 62.8152503967285156 389.856292724609375 0
63 390 100 62.8152503967285156 389.856292724609375 0
345 54 0 341.368408203125 52.43157958984375 0
335 54 0 341.368408203125 52.43157958984375 0
335 54 100 341.368408203125 52.43157958984375 0
345 54 100 341.368408203125 52.43157958984375 0
68 396 0 66.7536239624023438 394.565216064453125 0
68 386 0 66.7536239624023438 394.565216064453125 0
68 386 100 66.7536239624023438 394.565216064453125 0
68 396 100 66.7536239624023438 394.565216064453125 0
344 396 0 343.753631591796875 394.565216064453125 0
344 386 0 343.753631591796875 394.565216064453125 0
344 386 100 343.753631591796875 394.565216064453125 0
344 396 100 343.753631591796875 394.565216064453125 0
241 146 0 238.229888916015625 145.32183837890625 0
251 146 0 238.229888916015625 145.32183837890625 0
251 146 100 238.229888916015625 145.32183837890625 0
241 146 100 238.229888916015625 145.32183837890625 0
348 285 0 339.29998779296875 278.875 0
338 285 0 339.29998779296875 278.875 0
338 285 100 339.29998779296875 278.875 0
348 285 100 339.29998779296875 278.875 0
348 207 0 338.84210205078125 200.552627563476562 0
338 207 0 338.84210205078125 200.552627563476562 0
338 207 100 338.84210205078125 200.552627563476562 0
348 207 100 338.84210205078125 200.552627563476562 0
311 235 0 300.28125 227.65625 0
311 245 0 300.28125 227.65625 0
311 245 100 300.28125 227.65625 0
311 235 100 300.28125 227.65625 0
425 245 0 420.48052978515625 241.81817626953125 0
425 235 0 420.48052978515625 241.81817626953125 0
425 235 100 420.48052978515625 241.81817626953125 0
425 245 100 420.48052978515625 241.81817626953125 0
231 391 0 0 0 -1
221 391 0 0 0 -1
221 144 0 0 0 -1
231 144 0 0 0 -1
231 391 100 0 0 1
221 391 100 0 0 1
221 144 100 0 0 1
231 144 100 0 0 1
73 59 0 0 0 -1
63 49 0 0 0 -1
251 49 0 0 0 -1
241 59 0 0 0 -1
73 59 100 0 0 1
63 49 100 0 0 1
251 49 100 0 0 1
241 59 100 0 0 1
63 49 0 0 0 -1
73 59 0 0 0 -1
73 390 0 0 0 -1
63 390 0 0 0 -1
63 49 100 0 0 1
73 59 100 0 0 1
73 390 100 0 0 1
63 390 100 0 0 1
241 59 0 0 0 -1
251 49 0 0 0 -1
251 146 0 0 0 -1
241 146 0 0 0 -1
241 59 100 0 0 1
251 49 100 0 0 1
251 146 100 0 0 1
241 146 100 0 0 1
136 149 0 0 0 -1
136 139 0 0 0 -1
335 139 0 0 0 -1
345 149 0 0 0 -1
136 149 100 0 0 1
136 139 100 0 0 1
335 139 100 0 0 1
345 149 100 0 0 1
345 149 0 0 0 -1
335 139 0 0 0 -1
335 54 0 0 0 -1
345 54 0 0 0 -1
345 149 100 0 0 1
335 139 100 0 0 1
335 54 100 0 0 1
345 54 100 0 0 1
68 124 0 0 0 -1
68 114 0 0 0 -1
138 114 0 0 0 -1
138 124 0 0 0 -1
68 124 100 0 0 1
68 114 100 0 0 1
138 114 100 0 0 1
138 124 100 0 0 1
68 194 0 0 0 -1
68 184 0 0 0 -1
138 184 0 0 0 -1
138 194 0 0 0 -1
68 194 100 0 0 1
68 184 100 0 0 1
138 184 100 0 0 1
138 194 100 0 0 1
228 326 0 0 0 -1
228 316 0 0 0 -1
269 316 0 0 0 -1
269 326 0 0 0 -1
228 326 100 0 0 1
228 316 100 0 0 1
269 316 100 0 0 1
269 326 100 0 0 1
68 60 0 0 0 -1
68 50 0 0 0 -1
100 50 0 0 0 -1
100 60 0 0 0 -1
68 60 100 0 0 1
68 50 100 0 0 1
100 50 100 0 0 1
100 60 100 0 0 1
68 69 0 0 0 -1
68 59 0 0 0 -1
100 59 0 0 0 -1
100 69 0 0 0 -1
68 69 100 0 0 1
68 59 100 0 0 1
100 59 100 0 0 1
100 69 100 0 0 1
317 285 0 0 0 -1
307 285 0 0 0 -1
307 147 0 0 0 -1
317 147 0 0 0 -1
317 285 100 0 0 1
307 285 100 0 0 1
307 147 100 0 0 1
317 147 100 0 0 1
491 390 0 0 0 -1
481 390 0 0 0 -1
481 54 0 0 0 -1
491 54 0 0 0 -1
491 390 100 0 0 1
481 390 100 0 0 1
481 54 100 0 0 1
491 54 100 0 0 1
68 396 0 0 0 -1
68 386 0 0 0 -1
344 386 0 0 0 -1
344 396 0 0 0 -1
68 396 100 0 0 1
68 386 100 0 0 1
344 386 100 0 0 1
344 396 100 0 0 1
348 285 0 0 0 -1
338 285 0 0 0 -1
338 240 0 0 0 -1
348 245 0 0 0 -1
348 285 100 0 0 1
338 285 100 0 0 1
338 240 100 0 0 1
348 245 100 0 0 1
348 245 0 0 0 -1
338 240 0 0 0 -1
338 207 0 0 0 -1
348 207 0 0 0 -1
348 245 100 0 0 1
338 240 100 0 0 1
338 207 100 0 0 1
348 207 100 0 0 1
343 235 0 0 0 -1
348 245 0 0 0 -1
311 245 0 0 0 -1
311 235 0 0 0 -1
343 235 100 0 0 1
348 245 100 0 0 1
311 245 100 0 0 1
311 235 100 0 0 1
348 245 0 0 0 -1
343 235 0 0 0 -1
425 235 0 0 0 -1
425 245 0 0 0 -1
348 245 100 0 0 1
343 235 100 0 0 1
425 235 100 0 0 1
425 245 100 0 0 1
348 245 0 0 0 -1
348 245 0 0 0 -1
348 245 100 0 0 1
348 245 100 0 0 1
4 0 1 2 3
4 4 5 6 7
4 8 9 10 11
4 12 13 14 15
4 16 17 18 19
4 20 21 22 23
4 24 25 26 27
4 28 29 30 31
4 32 33 34 35
4 36 37 38 39
4 40 41 42 43
4 44 45 46 47
4 48 49 50 51
4 52 53 54 55
4 56 57 58 59
4 60 61 62 63
4 64 65 66 67
4 68 69 70 71
4 72 73 74 75
4 76 77 78 79
4 80 81 82 83
4 84 85 86 87
4 88 89 90 91
4 92 93 94 95
4 96 97 98 99
4 100 101 102 103
4 104 105 106 107
4 108 109 110 111
4 112 113 114 115
4 116 117 118 119
4 120 121 122 123
4 124 125 126 127
4 128 129 130 131
4 132 133 134 135
4 136 137 138 139
4 140 141 142 143
4 144 145 146 147
4 148 149 150 151
4 152 153 154 155
4 156 157 158 159
4 160 161 162 163
4 164 165 166 167
4 168 169 170 171
4 172 173 174 175
4 176 177 178 179
4 180 181 182 183
4 184 185 186 187
4 188 189 190 191
4 192 193 194 195
4 196 197 198 199
4 200 201 202 203
4 204 205 206 207
4 208 209 210 211
4 212 213 214 215
4 216 217 218 219
4 220 221 222 223
4 224 225 226 227
4 228 229 230 231
4 232 233 234 235
4 236 237 238 239
4 240 241 242 243
4 244 245 246 247
4 248 249 250 251
4 252 253 254 255
4 256 257 258 259
4 260 261 262 263
4 264 265 266 267
4 268 269 270 271
4 272 273 274 275
4 276 277 278 279
4 280 281 282 283
4 284 285 286 287
4 288 289 290 291
4 292 293 294 295
4 296 297 298 299
4 300 301 302 303
4 304 305 306 307
4 308 309 310 311
4 312 313 314 315
4 316 317 318 319
4 320 321 322 323
4 324 325 326 327
4 328 329 330 331
4 332 333 334 335
4 336 337 338 339
4 340 341 342 343
4 344 345 346 347
4 348 349 350 351
4 352 353 354 355
4 356 357 358 359
4 360 361 362 363
4 364 365 366 367
4 368 369 370 371
4 372 373 374 375
4 376 377 378 379
4 380 381 382 383
4 384 385 386 387
4 388 389 390 391
