ply
format ascii 1.0
element vertex 336
property float x
property float y
property float z
property float nx
property float ny
property float nz
element quads 84
property list uchar int vertex_indices
end_header
773 452 0 1 0 0
773 185 0 1 0 0
773 185 100 1 0 0
773 452 100 1 0 0
763 452 0 -1 -0 0
763 195 0 -1 -0 0
763 195 100 -1 -0 0
763 452 100 -1 -0 0
773 185 0 -0 -1 0
370 185 0 -0 -1 0
370 185 100 -0 -1 0
773 185 100 -0 -1 0
763 195 0 0 1 0
370 195 0 0 1 0
370 195 100 0 1 0
763 195 100 0 1 0
413 473 0 1 0 0
413 348 0 1 0 0
413 348 100 1 0 0
413 473 100 1 0 0
403 473 0 -1 -0 0
403 348 0 -1 -0 0
403 348 100 -1 -0 0
403 473 100 -1 -0 0
409 89 0 -0 1 0
550 89 0 -0 1 0
550 89 100 -0 1 0
409 89 100 -0 1 0
409 79 0 0 -1 0
560 79 0 0 -1 0
560 79 100 0 -1 0
409 79 100 0 -1 0
550 89 0 -1 0 0
550 189 0 -1 0 0
550 189 100 -1 0 0
550 89 100 -1 0 0
560 79 0 1 -0 0
560 189 0 1 -0 0
560 189 100 1 -0 0
560 79 100 1 -0 0
621 258 0 1 0 0
621 192 0 1 0 0
621 192 100 1 0 0
621 258 100 1 0 0
611 258 0 -1 -0 0
611 192 0 -1 -0 0
611 192 100 -1 -0 0
611 258 100 -1 -0 0
132 286 0 1 0 0
132 233 0 1 0 0
132 233 100 1 0 0
132 286 100 1 0 0
122 286 0 -1 -0 0
122 233 0 -1 -0 0
122 233 100 -1 -0 0
122 286 100 -1 -0 0
388 352 0 1 0 0
388 275 0 1 0 0
388 275 100 1 0 0
388 352 100 1 0 0
378 352 0 -1 -0 0
378 275 0 -1 -0 0
378 275 100 -1 -0 0
378 352 100 -1 -0 0
202 255 0 1 0 0
202 219 0 1 0 0
202 219 100 1 0 0
202 255 100 1 0 0
192 255 0 -1 -0 0
192 219 0 -1 -0 0
192 219 100 -1 -0 0
192 255 100 -1 -0 0
202 128 0 1 0 0
202 102 0 1 0 0
202 102 100 1 0 0
202 128 100 1 0 0
192 128 0 -1 -0 0
192 102 0 -1 -0 0
192 102 100 -1 -0 0
192 128 100 -1 -0 0
475 257 0 1 0 0
475 192 0 1 0 0
475 192 100 1 0 0
475 257 100 1 0 0
465 257 0 -1 -0 0
465 192 0 -1 -0 0
465 192 100 -1 -0 0
465 257 100 -1 -0 0
296 173 0 1 0 0
296 148 0 1 0 0
296 148 100 1 0 0
296 173 100 1 0 0
286 173 0 -1 -0 0
286 148 0 -1 -0 0
286 148 100 -1 -0 0
286 173 100 -1 -0 0
153 234 0 1 0 0
153 68 0 1 0 0
153 68 100 1 0 0
153 234 100 1 0 0
143 234 0 -1 -0 0
143 68 0 -1 -0 0
143 68 100 -1 -0 0
143 234 100 -1 -0 0
153 234 0 1 0 0
153 168 0 1 0 0
153 168 100 1 0 0
153 234 100 1 0 0
143 234 0 -1 -0 0
143 168 0 -1 -0 0
143 168 100 -1 -0 0
143 234 100 -1 -0 0
296 90 0 1 0 0
296 34 0 1 0 0
296 34 100 1 0 0
296 90 100 1 0 0
286 90 0 -1 -0 0
286 34 0 -1 -0 0
286 34 100 -1 -0 0
286 90 100 -1 -0 0
773 452 0 770.1048583984375 451.30712890625 0
763 452 0 770.1048583984375 451.30712890625 0
763 452 100 770.1048583984375 451.30712890625 0
773 452 100 770.1048583984375 451.30712890625 0
413 473 0 409.696014404296875 470.21600341796875 0
403 473 0 409.696014404296875 470.21600341796875 0
403 473 100 409.696014404296875 470.21600341796875 0
413 473 100 409.696014404296875 470.21600341796875 0
413 348 0 409.696014404296875 344.21600341796875 0
403 348 0 409.696014404296875 344.21600341796875 0
403 348 100 409.696014404296875 344.21600341796875 0
413 348 100 409.696014404296875 344.21600341796875 0
370 185 0 368.081878662109375 184.540939331054688 0
370 195 0 368.081878662109375 184.540939331054688 0
370 195 100 368.081878662109375 184.540939331054688 0
370 185 100 368.081878662109375 184.540939331054688 0
409 89 0 405.09930419921875 88.3687973022460938 0
409 79 0 405.09930419921875 88.3687973022460938 0
409 79 100 405.09930419921875 88.3687973022460938 0
409 89 100 405.09930419921875 88.3687973022460938 0
621 258 0 611.59088134765625 255.090911865234375 0
611 258 0 611.59088134765625 255.090911865234375 0
611 258 100 611.59088134765625 255.090911865234375 0
621 258 100 611.59088134765625 255.090911865234375 0
621 192 0 611.59088134765625 188.090911865234375 0
611 192 0 611.59088134765625 188.090911865234375 0
611 192 100 611.59088134765625 188.090911865234375 0
621 192 100 611.59088134765625 188.090911865234375 0
132 286 0 129.509429931640625 281.603759765625 0
122 286 0 129.509429931640625 281.603759765625 0
122 286 100 129.509429931640625 281.603759765625 0
132 286 100 129.509429931640625 281.603759765625 0
132 233 0 129.509429931640625 227.603775024414062 0
122 233 0 129.509429931640625 227.603775024414062 0
122 233 100 129.509429931640625 227.603775024414062 0
132 233 100 129.509429931640625 227.603775024414062 0
388 352 0 382.961029052734375 348.428558349609375 0
378 352 0 382.961029052734375 348.428558349609375 0
378 352 100 382.961029052734375 348.428558349609375 0
388 352 100 382.961029052734375 348.428558349609375 0
388 275 0 382.961029052734375 270.428558349609375 0
378 275 0 382.961029052734375 270.428558349609375 0
378 275 100 382.961029052734375 270.428558349609375 0
388 275 100 382.961029052734375 270.428558349609375 0
550 189 0 544.5 188.110000610351562 0
560 189 0 544.5 188.110000610351562 0
560 189 100 544.5 188.110000610351562 0
550 189 100 544.5 188.110000610351562 0
202 255 0 196.388885498046875 248.916671752929688 0
192 255 0 196.388885498046875 248.916671752929688 0
192 255 100 196.388885498046875 248.916671752929688 0
202 255 100 196.388885498046875 248.916671752929688 0
202 219 0 196.388885498046875 211.916671752929688 0
192 219 0 196.388885498046875 211.916671752929688 0
192 219 100 196.388885498046875 211.916671752929688 0
202 219 100 196.388885498046875 211.916671752929688 0
202 128 0 194.23077392578125 124.076919555664062 0
192 128 0 194.23077392578125 124.076919555664062 0
192 128 100 194.23077392578125 124.076919555664062 0
202 128 100 194.23077392578125 124.076919555664062 0
202 102 0 194.23077392578125 97.0769195556640625 0
192 102 0 194.23077392578125 97.0769195556640625 0
192 102 100 194.23077392578125 97.0769195556640625 0
202 102 100 194.23077392578125 97.0769195556640625 0
475 257 0 467.69232177734375 254.046157836914062 0
465 257 0 467.69232177734375 254.046157836914062 0
465 257 100 467.69232177734375 254.046157836914062 0
475 257 100 467.69232177734375 254.046157836914062 0
475 192 0 467.69232177734375 188.046157836914062 0
465 192 0 467.69232177734375 188.046157836914062 0
465 192 100 467.69232177734375 188.046157836914062 0
475 192 100 467.69232177734375 188.046157836914062 0
296 173 0 284.160003662109375 167.080001831054688 0
286 173 0 284.160003662109375 167.080001831054688 0
286 173 100 284.160003662109375 167.080001831054688 0
296 173 100 284.160003662109375 167.080001831054688 0
296 148 0 284.160003662109375 141.080001831054688 0
286 148 0 284.160003662109375 141.080001831054688 0
286 148 100 284.160003662109375 141.080001831054688 0
296 148 100 284.160003662109375 141.080001831054688 0
153 68 0 152.07830810546875 66.590362548828125 0
143 68 0 152.07830810546875 66.590362548828125 0
143 68 100 152.07830810546875 66.590362548828125 0
153 68 100 152.07830810546875 66.590362548828125 0
153 168 0 150.68182373046875 164.454544067382812 0
143 168 0 150.68182373046875 164.454544067382812 0
143 168 100 150.68182373046875 164.454544067382812 0
153 168 100 150.68182373046875 164.454544067382812 0
296 90 0 290.71429443359375 89.3928604125976562 0
286 90 0 290.71429443359375 89.3928604125976562 0
286 90 100 290.71429443359375 89.3928604125976562 0
296 90 100 290.71429443359375 89.3928604125976562 0
296 34 0 290.71429443359375 32.3928565979003906 0
286 34 0 290.71429443359375 32.3928565979003906 0
286 34 100 290.71429443359375 32.3928565979003906 0
296 34 100 290.71429443359375 32.3928565979003906 0
773 452 0 0 0 -1
763 452 0 0 0 -1
763 195 0 0 0 -1
773 185 0 0 0 -1
773 452 100 0 0 1
763 452 100 0 0 1
763 195 100 0 0 1
773 185 100 0 0 1
773 185 0 0 0 -1
763 195 0 0 0 -1
370 195 0 0 0 -1
370 185 0 0 0 -1
773 185 100 0 0 1
763 195 100 0 0 1
370 195 100 0 0 1
370 185 100 0 0 1
413 473 0 0 0 -1
403 473 0 0 0 -1
403 348 0 0 0 -1
413 348 0 0 0 -1
413 473 100 0 0 1
403 473 100 0 0 1
403 348 100 0 0 1
413 348 100 0 0 1
409 89 0 0 0 -1
409 79 0 0 0 -1
560 79 0 0 0 -1
550 89 0 0 0 -1
409 89 100 0 0 1
409 79 100 0 0 1
560 79 100 0 0 1
550 89 100 0 0 1
550 89 0 0 0 -1
560 79 0 0 0 -1
560 189 0 0 0 -1
550 189 0 0 0 -1
550 89 100 0 0 1
560 79 100 0 0 1
560 189 100 0 0 1
550 189 100 0 0 1
621 258 0 0 0 -1
611 258 0 0 0 -1
611 192 0 0 0 -1
621 192 0 0 0 -1
621 258 100 0 0 1
611 258 100 0 0 1
611 192 100 0 0 1
621 192 100 0 0 1
132 286 0 0 0 -1
122 286 0 0 0 -1
122 233 0 0 0 -1
132 233 0 0 0 -1
132 286 100 0 0 1
122 286 100 0 0 1
122 233 100 0 0 1
132 233 100 0 0 1
388 352 0 0 0 -1
378 352 0 0 0 -1
378 275 0 0 0 -1
388 275 0 0 0 -1
388 352 100 0 0 1
378 352 100 0 0 1
378 275 100 0 0 1
388 275 100 0 0 1
202 255 0 0 0 -1
192 255 0 0 0 -1
192 219 0 0 0 -1
202 219 0 0 0 -1
202 255 100 0 0 1
192 255 100 0 0 1
192 219 100 0 0 1
202 219 100 0 0 1
202 128 0 0 0 -1
192 128 0 0 0 -1
192 102 0 0 0 -1
202 102 0 0 0 -1
202 128 100 0 0 1
192 128 100 0 0 1
192 102 100 0 0 1
202 102 100 0 0 1
475 257 0 0 0 -1
465 257 0 0 0 -1
465 192 0 0 0 -1
475 192 0 0 0 -1
475 257 100 0 0 1
465 257 100 0 0 1
465 192 100 0 0 1
475 192 100 0 0 1
296 173 0 0 0 -1
286 173 0 0 0 -1
286 148 0 0 0 -1
296 148 0 0 0 -1
296 173 100 0 0 1
286 173 100 0 0 1
286 148 100 0 0 1
296 148 100 0 0 1
153 234 0 0 0 -1
143 234 0 0 0 -1
143 68 0 0 0 -1
153 68 0 0 0 -1
153 234 100 0 0 1
143 234 100 0 0 1
143 68 100 0 0 1
153 68 100 0 0 1
153 234 0 0 0 -1
143 234 0 0 0 -1
143 168 0 0 0 -1
153 168 0 0 0 -1
153 234 100 0 0 1
143 234 100 0 0 1
143 168 100 0 0 1
153 168 100 0 0 1
296 90 0 0 0 -1
286 90 0 0 0 -1
286 34 0 0 0 -1
296 34 0 0 0 -1
296 90 100 0 0 1
286 90 100 0 0 1
286 34 100 0 0 1
296 34 100 0 0 1
4 0 1 2 3
4 4 5 6 7
4 8 9 10 11
4 12 13 14 15
4 16 17 18 19
4 20 21 22 23
4 24 25 26 27
4 28 29 30 31
4 32 33 34 35
4 36 37 38 39
4 40 41 42 43
4 44 45 46 47
4 48 49 50 51
4 52 53 54 55
4 56 57 58 59
4 60 61 62 63
4 64 65 66 67
4 68 69 70 71
4 72 73 74 75
4 76 77 78 79
4 80 81 82 83
4 84 85 86 87
4 88 89 90 91
4 92 93 94 95
4 96 97 98 99
4 100 101 102 103
4 104 105 106 107
4 108 109 110 111
4 112 113 114 115
4 116 117 118 119
4 120 121 122 123
4 124 125 126 127
4 128 129 130 131
4 132 133 134 135
4 136 137 138 139
4 140 141 142 143
4 144 145 146 147
4 148 149 150 151
4 152 153 154 155
4 156 157 158 159
4 160 161 162 163
4 164 165 166 167
4 168 169 170 171
4 172 173 174 175
4 176 177 178 179
4 180 181 182 183
4 184 185 186 187
4 188 189 190 191
4 192 193 194 195
4 196 197 198 199
4 200 201 202 203
4 204 205 206 207
4 208 209 210 211
4 212 213 214 215
4 216 217 218 219
4 220 221 222 223
4 224 225 226 227
4 228 229 230 231
4 232 233 234 235
4 236 237 238 239
4 240 241 242 243
4 244 245 246 247
4 248 249 250 251
4 252 253 254 255
4 256 257 258 259
4 260 261 262 263
4 264 265 266 267
4 268 269 270 271
4 272 273 274 275
4 276 277 278 279
4 280 281 282 283
4 284 285 286 287
4 288 289 290 291
4 292 293 294 295
4 296 297 298 299
4 300 301 302 303
4 304 305 306 307
4 308 309 310 311
4 312 313 314 315
4 316 317 318 319
4 320 321 322 323
4 324 325 326 327
4 328 329 330 331
4 332 333 334 335
