ply
format ascii 1.0
element vertex 1476
property float x
property float y
property float z
property float nx
property float ny
property float nz
element quads 362
property list uchar int vertex_indices
element triads 4
property list uchar int vertex_indices
end_header
800 444 0 1 0 0
800 220 0 1 0 0
800 220 100 1 0 0
800 444 100 1 0 0
790 444 0 -1 -0 0
790 220 0 -1 -0 0
790 220 100 -1 -0 0
790 444 100 -1 -0 0
800 444 0 1 0 0
800 140 0 1 0 0
800 140 100 1 0 0
800 444 100 1 0 0
790 444 0 -1 -0 0
790 140 0 -1 -0 0
790 140 100 -1 -0 0
790 444 100 -1 -0 0
800 444 0 1 0 0
800 296 0 1 0 0
800 296 100 1 0 0
800 444 100 1 0 0
790 444 0 -1 -0 0
790 296 0 -1 -0 0
790 296 100 -1 -0 0
790 444 100 -1 -0 0
800 444 0 1 0 0
800 360 0 1 0 0
800 360 100 1 0 0
800 444 100 1 0 0
790 444 0 -1 -0 0
790 360 0 -1 -0 0
790 360 100 -1 -0 0
790 444 100 -1 -0 0
790 140 0 -1 0 0
790 313 0 -1 0 0
790 313 100 -1 0 0
790 140 100 -1 0 0
800 140 0 1 -0 0
800 313 0 1 -0 0
800 313 100 1 -0 0
800 140 100 1 -0 0
790 140 0 -1 0 0
790 374 0 -1 0 0
790 374 100 -1 0 0
790 140 100 -1 0 0
800 140 0 1 -0 0
800 374 0 1 -0 0
800 374 100 1 -0 0
800 140 100 1 -0 0
790 140 0 -1 0 0
790 251 0 -1 0 0
790 251 100 -1 0 0
790 140 100 -1 0 0
800 140 0 1 -0 0
800 251 0 1 -0 0
800 251 100 1 -0 0
800 140 100 1 -0 0
43 385 0 1 0 0
43 190 0 1 0 0
43 190 100 1 0 0
43 385 100 1 0 0
33 385 0 -1 -0 0
33 180 0 -1 -0 0
33 180 100 -1 -0 0
33 385 100 -1 -0 0
38 190 0 -0 1 0
121 190 0 -0 1 0
121 190 100 -0 1 0
38 190 100 -0 1 0
33 180 0 0 -1 0
121 180 0 0 -1 0
121 180 100 0 -1 0
33 180 100 0 -1 0
43 190 0 -0 1 0
189 190 0 -0 1 0
189 190 100 -0 1 0
43 190 100 -0 1 0
38 180 0 0 -1 0
184 180 0 0 -1 0
184 180 100 0 -1 0
38 180 100 0 -1 0
42 278 0 1 0 0
42 150 0 1 0 0
42 150 100 1 0 0
42 278 100 1 0 0
32 278 0 -1 -0 0
32 150 0 -1 -0 0
32 150 100 -1 -0 0
32 278 100 -1 -0 0
32 150 0 -1 0 0
32 203 0 -1 0 0
32 203 100 -1 0 0
32 150 100 -1 0 0
42 150 0 1 -0 0
42 203 0 1 -0 0
42 203 100 1 -0 0
42 150 100 1 -0 0
32 150 0 -1 0 0
32 380 0 -1 0 0
32 380 100 -1 0 0
32 150 100 -1 0 0
42 150 0 1 -0 0
42 380 0 1 -0 0
42 380 100 1 -0 0
42 150 100 1 -0 0
189 436 0 1 0 0
189 291 0 1 0 0
189 291 100 1 0 0
189 436 100 1 0 0
179 436 0 -1 -0 0
179 291 0 -1 -0 0
179 291 100 -1 -0 0
179 436 100 -1 -0 0
189 436 0 1 0 0
189 185 0 1 0 0
189 185 100 1 0 0
189 436 100 1 0 0
179 436 0 -1 -0 0
179 185 0 -1 -0 0
179 185 100 -1 -0 0
179 436 100 -1 -0 0
494 144 0 1 0 0
494 105 0 1 0 0
494 105 100 1 0 0
494 144 100 1 0 0
484 144 0 -1 -0 0
484 105 0 -1 -0 0
484 105 100 -1 -0 0
484 144 100 -1 -0 0
42 385 0 1 0 0
42 283 0 1 0 0
42 283 100 1 0 0
42 385 100 1 0 0
32 385 0 -1 -0 0
32 283 0 -1 -0 0
32 283 100 -1 -0 0
32 385 100 -1 -0 0
637 406 0 1 0 0
637 347 0 1 0 0
637 347 100 1 0 0
637 406 100 1 0 0
627 406 0 -1 -0 0
627 357 0 -1 -0 0
627 357 100 -1 -0 0
627 406 100 -1 -0 0
632 347 0 -0 -1 0
532 347 0 -0 -1 0
532 347 100 -0 -1 0
632 347 100 -0 -1 0
627 357 0 0 1 0
532 357 0 0 1 0
532 357 100 0 1 0
627 357 100 0 1 0
637 347 0 -0 -1 0
467 347 0 -0 -1 0
467 347 100 -0 -1 0
637 347 100 -0 -1 0
632 357 0 0 1 0
467 357 0 0 1 0
467 357 100 0 1 0
632 357 100 0 1 0
295 436 0 1 0 0
295 340 0 1 0 0
295 340 100 1 0 0
295 436 100 1 0 0
285 436 0 -1 -0 0
285 340 0 -1 -0 0
285 340 100 -1 -0 0
285 436 100 -1 -0 0
295 436 0 1 0 0
295 378 0 1 0 0
295 378 100 1 0 0
295 436 100 1 0 0
285 436 0 -1 -0 0
285 378 0 -1 -0 0
285 378 100 -1 -0 0
285 436 100 -1 -0 0
295 436 0 1 0 0
295 185 0 1 0 0
295 185 100 1 0 0
295 436 100 1 0 0
285 436 0 -1 -0 0
285 185 0 -1 -0 0
285 185 100 -1 -0 0
285 436 100 -1 -0 0
189 103 0 -0 1 0
283 103 0 -0 1 0
283 103 100 -0 1 0
189 103 100 -0 1 0
179 93 0 0 -1 0
-76701931153653760 104 0 0 -1 0
-76701931153653760 104 100 0 -1 0
179 93 100 0 -1 0
179 93 0 -1 0 0
179 185 0 -1 0 0
179 185 100 -1 0 0
179 93 100 -1 0 0
189 103 0 1 -0 0
189 190 0 1 -0 0
189 190 100 1 -0 0
189 103 100 1 -0 0
293 93 0 -0 -1 0
223 93 0 -0 -1 0
223 93 100 -0 -1 0
293 93 100 -0 -1 0
-76701931153653760 104 0 0 1 0
223 103 0 0 1 0
223 103 100 0 1 0
-76701931153653760 104 100 0 1 0
283 103 0 -1 0 0
283 185 0 -1 0 0
283 185 100 -1 0 0
283 103 100 -1 0 0
293 93 0 1 -0 0
293 185 0 1 -0 0
293 185 100 1 -0 0
293 93 100 1 -0 0
436 147 0 -0 1 0
680 147 0 -0 1 0
680 147 100 -0 1 0
436 147 100 -0 1 0
436 137 0 0 -1 0
680 137 0 0 -1 0
680 137 100 0 -1 0
436 137 100 0 -1 0
436 147 0 -0 1 0
590 147 0 -0 1 0
590 147 100 -0 1 0
436 147 100 -0 1 0
436 137 0 0 -1 0
590 137 0 0 -1 0
590 137 100 0 -1 0
436 137 100 0 -1 0
399 436 0 1 0 0
399 317 0 1 0 0
399 317 100 1 0 0
399 436 100 1 0 0
389 436 0 -1 -0 0
389 317 0 -1 -0 0
389 317 100 -1 -0 0
389 436 100 -1 -0 0
399 436 0 1 0 0
399 302 0 1 0 0
399 302 100 1 0 0
399 436 100 1 0 0
389 436 0 -1 -0 0
389 302 0 -1 -0 0
389 302 100 -1 -0 0
389 436 100 -1 -0 0
736 449 0 -0 1 0
794 449 0 -0 1 0
794 449 100 -0 1 0
736 449 100 -0 1 0
736 439 0 0 -1 0
794 439 0 0 -1 0
794 439 100 0 -1 0
736 439 100 0 -1 0
736 439 0 -0 -1 0
636 439 0 -0 -1 0
636 439 100 -0 -1 0
736 439 100 -0 -1 0
736 449 0 0 1 0
636 449 0 0 1 0
636 449 100 0 1 0
736 449 100 0 1 0
794 439 0 -0 -1 0
636 439 0 -0 -1 0
636 439 100 -0 -1 0
794 439 100 -0 -1 0
794 449 0 0 1 0
636 449 0 0 1 0
636 449 100 0 1 0
794 449 100 0 1 0
537 141 0 1 0 0
537 105 0 1 0 0
537 105 100 1 0 0
537 141 100 1 0 0
527 141 0 -1 -0 0
527 105 0 -1 -0 0
527 105 100 -1 -0 0
527 141 100 -1 -0 0
185 168 0 -0 1 0
287 168 0 -0 1 0
287 168 100 -0 1 0
185 168 100 -0 1 0
185 158 0 0 -1 0
287 158 0 0 -1 0
287 158 100 0 -1 0
185 158 100 0 -1 0
494 375 0 1 0 0
494 354 0 1 0 0
494 354 100 1 0 0
494 375 100 1 0 0
484 375 0 -1 -0 0
484 354 0 -1 -0 0
484 354 100 -1 -0 0
484 375 100 -1 -0 0
484 354 0 -1 0 0
484 382 0 -1 0 0
484 382 100 -1 0 0
484 354 100 -1 0 0
494 354 0 1 -0 0
494 387 0 1 -0 0
494 387 100 1 -0 0
494 354 100 1 -0 0
436 149 0 -0 1 0
490 149 0 -0 1 0
490 149 100 -0 1 0
436 149 100 -0 1 0
436 139 0 0 -1 0
490 139 0 0 -1 0
490 139 100 0 -1 0
436 139 100 0 -1 0
184 440 0 -0 1 0
210 440 0 -0 1 0
210 440 100 -0 1 0
184 440 100 -0 1 0
184 430 0 0 -1 0
210 430 0 0 -1 0
210 430 100 0 -1 0
184 430 100 0 -1 0
90 438 0 1 0 0
90 411 0 1 0 0
90 411 100 1 0 0
90 438 100 1 0 0
80 438 0 -1 -0 0
80 411 0 -1 -0 0
80 411 100 -1 -0 0
80 438 100 -1 -0 0
90 438 0 1 0 0
90 380 0 1 0 0
90 380 100 1 0 0
90 438 100 1 0 0
80 438 0 -1 -0 0
80 380 0 -1 -0 0
80 380 100 -1 -0 0
80 438 100 -1 -0 0
535 219 0 -0 1 0
655 219 0 -0 1 0
655 219 100 -0 1 0
535 219 100 -0 1 0
535 209 0 0 -1 0
655 209 0 0 -1 0
655 209 100 0 -1 0
535 209 100 0 -1 0
290 233 0 -0 1 0
362 233 0 -0 1 0
362 233 100 -0 1 0
290 233 100 -0 1 0
290 223 0 0 -1 0
362 223 0 0 -1 0
362 223 100 0 -1 0
290 223 100 0 -1 0
290 233 0 -0 1 0
436 233 0 -0 1 0
436 233 100 -0 1 0
290 233 100 -0 1 0
290 223 0 0 -1 0
436 223 0 0 -1 0
436 223 100 0 -1 0
290 223 100 0 -1 0
472 329 0 1 0 0
472 304 0 1 0 0
472 304 100 1 0 0
472 329 100 1 0 0
462 329 0 -1 -0 0
462 304 0 -1 -0 0
462 304 100 -1 -0 0
462 329 100 -1 -0 0
594 142 0 1 0 0
594 105 0 1 0 0
594 105 100 1 0 0
594 142 100 1 0 0
584 142 0 -1 -0 0
584 105 0 -1 -0 0
584 105 100 -1 -0 0
584 142 100 -1 -0 0
638 139 0 1 0 0
638 104 0 1 0 0
638 104 100 1 0 0
638 139 100 1 0 0
628 139 0 -1 -0 0
628 104 0 -1 -0 0
628 104 100 -1 -0 0
628 139 100 -1 -0 0
795 176 0 1 0 0
795 142 0 1 0 0
795 142 100 1 0 0
795 176 100 1 0 0
785 176 0 -1 -0 0
785 142 0 -1 -0 0
785 142 100 -1 -0 0
785 176 100 -1 -0 0
140 387 0 -0 1 0
183 387 0 -0 1 0
183 387 100 -0 1 0
140 387 100 -0 1 0
140 377 0 0 -1 0
183 377 0 0 -1 0
183 377 100 0 -1 0
140 377 100 0 -1 0
397 436 0 1 0 0
397 387 0 1 0 0
397 387 100 1 0 0
397 436 100 1 0 0
387 436 0 -1 -0 0
387 377 0 -1 -0 0
387 377 100 -1 -0 0
387 436 100 -1 -0 0
397 387 0 -0 1 0
494 387 0 -0 1 0
494 387 100 -0 1 0
397 387 100 -0 1 0
387 377 0 0 -1 0
489 377 0 0 -1 0
489 377 100 0 -1 0
387 377 100 0 -1 0
294 385 0 -0 1 0
338 385 0 -0 1 0
338 385 100 -0 1 0
294 385 100 -0 1 0
294 375 0 0 -1 0
338 375 0 0 -1 0
338 375 100 0 -1 0
294 375 100 0 -1 0
145 437 0 1 0 0
145 380 0 1 0 0
145 380 100 1 0 0
145 437 100 1 0 0
135 437 0 -1 -0 0
135 380 0 -1 -0 0
135 380 100 -1 -0 0
135 437 100 -1 -0 0
535 210 0 -0 1 0
732 210 0 -0 1 0
732 210 100 -0 1 0
535 210 100 -0 1 0
535 200 0 0 -1 0
732 200 0 0 -1 0
732 200 100 0 -1 0
535 200 100 0 -1 0
537 390 0 1 0 0
537 354 0 1 0 0
537 354 100 1 0 0
537 390 100 1 0 0
527 390 0 -1 -0 0
527 354 0 -1 -0 0
527 354 100 -1 -0 0
527 390 100 -1 -0 0
293 436 0 1 0 0
293 185 0 1 0 0
293 185 100 1 0 0
293 436 100 1 0 0
283 436 0 -1 -0 0
283 185 0 -1 -0 0
283 185 100 -1 -0 0
283 436 100 -1 -0 0
283 185 0 -1 0 0
283 378 0 -1 0 0
283 378 100 -1 0 0
283 185 100 -1 0 0
293 185 0 1 -0 0
293 378 0 1 -0 0
293 378 100 1 -0 0
293 185 100 1 -0 0
283 185 0 -1 0 0
283 255 0 -1 0 0
283 255 100 -1 0 0
283 185 100 -1 0 0
293 185 0 1 -0 0
293 255 0 1 -0 0
293 255 100 1 -0 0
293 185 100 1 -0 0
283 185 0 -1 0 0
283 228 0 -1 0 0
283 228 100 -1 0 0
283 185 100 -1 0 0
293 185 0 1 -0 0
293 228 0 1 -0 0
293 228 100 1 -0 0
293 185 100 1 -0 0
184 190 0 -0 1 0
232 190 0 -0 1 0
232 190 100 -0 1 0
184 190 100 -0 1 0
184 180 0 0 -1 0
232 180 0 0 -1 0
232 180 100 0 -1 0
184 180 100 0 -1 0
189 180 0 -0 -1 0
140 180 0 -0 -1 0
140 180 100 -0 -1 0
189 180 100 -0 -1 0
184 190 0 0 1 0
140 190 0 0 1 0
140 190 100 0 1 0
184 190 100 0 1 0
179 185 0 -1 0 0
179 285 0 -1 0 0
179 285 100 -1 0 0
179 185 100 -1 0 0
189 180 0 1 -0 0
189 285 0 1 -0 0
189 285 100 1 -0 0
189 180 100 1 -0 0
295 185 0 1 0 0
295 176 0 1 0 0
295 176 100 1 0 0
295 185 100 1 0 0
285 185 0 -1 -0 0
285 176 0 -1 -0 0
285 176 100 -1 -0 0
285 185 100 -1 -0 0
472 381 0 1 0 0
472 358 0 1 0 0
472 358 100 1 0 0
472 381 100 1 0 0
462 381 0 -1 -0 0
462 353 0 -1 -0 0
462 353 100 -1 -0 0
462 381 100 -1 -0 0
472 358 0 1 0 0
472 270 0 1 0 0
472 270 100 1 0 0
472 358 100 1 0 0
462 353 0 -1 -0 0
462 270 0 -1 -0 0
462 270 100 -1 -0 0
462 353 100 -1 -0 0
467 348 0 -0 -1 0
439 348 0 -0 -1 0
439 348 100 -0 -1 0
467 348 100 -0 -1 0
472 358 0 0 1 0
439 358 0 0 1 0
439 358 100 0 1 0
472 358 100 0 1 0
472 358 0 -0 1 0
568 358 0 -0 1 0
568 358 100 -0 1 0
472 358 100 -0 1 0
467 348 0 0 -1 0
568 348 0 0 -1 0
568 348 100 0 -1 0
467 348 100 0 -1 0
439 357 0 -0 1 0
467 357 0 -0 1 0
467 357 100 -0 1 0
439 357 100 -0 1 0
439 347 0 0 -1 0
467 347 0 0 -1 0
467 347 100 0 -1 0
439 347 100 0 -1 0
436 233 0 -0 1 0
466 233 0 -0 1 0
466 233 100 -0 1 0
436 233 100 -0 1 0
436 223 0 0 -1 0
466 223 0 0 -1 0
466 223 100 0 -1 0
436 223 100 0 -1 0
494 391 0 1 0 0
494 387 0 1 0 0
494 387 100 1 0 0
494 391 100 1 0 0
484 391 0 -1 -0 0
484 382 0 -1 -0 0
484 382 100 -1 -0 0
484 391 100 -1 -0 0
494 387 0 -0 1 0
535 387 0 -0 1 0
535 387 100 -0 1 0
494 387 100 -0 1 0
489 377 0 0 -1 0
535 377 0 0 -1 0
535 377 100 0 -1 0
489 377 100 0 -1 0
800 220 0 796.4285888671875 218.017852783203125 0
790 220 0 796.4285888671875 218.017852783203125 0
790 220 100 796.4285888671875 218.017852783203125 0
800 220 100 796.4285888671875 218.017852783203125 0
790 313 0 785.43353271484375 312.190765380859375 0
800 313 0 785.43353271484375 312.190765380859375 0
800 313 100 785.43353271484375 312.190765380859375 0
790 313 100 785.43353271484375 312.190765380859375 0
43 385 0 42.7794876098632812 384.025634765625 0
33 385 0 42.7794876098632812 384.025634765625 0
33 385 100 42.7794876098632812 384.025634765625 0
43 385 100 42.7794876098632812 384.025634765625 0
790 374 0 786.6239013671875 373.401702880859375 0
800 374 0 786.6239013671875 373.401702880859375 0
800 374 100 786.6239013671875 373.401702880859375 0
790 374 100 786.6239013671875 373.401702880859375 0
800 296 0 794.5946044921875 293 0
790 296 0 794.5946044921875 293 0
790 296 100 794.5946044921875 293 0
800 296 100 794.5946044921875 293 0
42 278 0 41.671875 276.828125 0
32 278 0 41.671875 276.828125 0
32 278 100 41.671875 276.828125 0
42 278 100 41.671875 276.828125 0
800 360 0 790.4761962890625 354.71429443359375 0
790 360 0 790.4761962890625 354.71429443359375 0
790 360 100 790.4761962890625 354.71429443359375 0
800 360 100 790.4761962890625 354.71429443359375 0
790 251 0 782.88287353515625 249.738739013671875 0
800 251 0 782.88287353515625 249.738739013671875 0
800 251 100 782.88287353515625 249.738739013671875 0
790 251 100 782.88287353515625 249.738739013671875 0
189 291 0 187.696548461914062 287.99310302734375 0
179 291 0 187.696548461914062 287.99310302734375 0
179 291 100 187.696548461914062 287.99310302734375 0
189 291 100 187.696548461914062 287.99310302734375 0
494 144 0 481.333343505859375 141.307693481445312 0
484 144 0 481.333343505859375 141.307693481445312 0
484 144 100 481.333343505859375 141.307693481445312 0
494 144 100 481.333343505859375 141.307693481445312 0
494 105 0 481.333343505859375 101.307693481445312 0
484 105 0 481.333343505859375 101.307693481445312 0
484 105 100 481.333343505859375 101.307693481445312 0
494 105 100 481.333343505859375 101.307693481445312 0
42 385 0 41.5882339477539062 382.225494384765625 0
32 385 0 41.5882339477539062 382.225494384765625 0
32 385 100 41.5882339477539062 382.225494384765625 0
42 385 100 41.5882339477539062 382.225494384765625 0
42 283 0 41.5882339477539062 279.225494384765625 0
32 283 0 41.5882339477539062 279.225494384765625 0
32 283 100 41.5882339477539062 279.225494384765625 0
42 283 100 41.5882339477539062 279.225494384765625 0
637 406 0 626.203369140625 400.11865234375 0
627 406 0 626.203369140625 400.11865234375 0
627 406 100 626.203369140625 400.11865234375 0
637 406 100 626.203369140625 400.11865234375 0
295 340 0 291.927093505859375 335.458343505859375 0
285 340 0 291.927093505859375 335.458343505859375 0
285 340 100 291.927093505859375 335.458343505859375 0
295 340 100 291.927093505859375 335.458343505859375 0
680 147 0 678.213134765625 146.397537231445312 0
680 137 0 678.213134765625 146.397537231445312 0
680 137 100 678.213134765625 146.397537231445312 0
680 147 100 678.213134765625 146.397537231445312 0
399 317 0 395.647064208984375 313.33612060546875 0
389 317 0 395.647064208984375 313.33612060546875 0
389 317 100 395.647064208984375 313.33612060546875 0
399 317 100 395.647064208984375 313.33612060546875 0
399 302 0 396.02239990234375 298.74627685546875 0
389 302 0 396.02239990234375 298.74627685546875 0
389 302 100 396.02239990234375 298.74627685546875 0
399 302 100 396.02239990234375 298.74627685546875 0
590 147 0 587.1688232421875 146.045455932617188 0
590 137 0 587.1688232421875 146.045455932617188 0
590 137 100 587.1688232421875 146.045455932617188 0
590 147 100 587.1688232421875 146.045455932617188 0
32 203 0 31.3962268829345703 200.169815063476562 0
42 203 0 31.3962268829345703 200.169815063476562 0
42 203 100 31.3962268829345703 200.169815063476562 0
32 203 100 31.3962268829345703 200.169815063476562 0
537 141 0 522.08331298828125 138.083328247070312 0
527 141 0 522.08331298828125 138.083328247070312 0
527 141 100 522.08331298828125 138.083328247070312 0
537 141 100 522.08331298828125 138.083328247070312 0
537 105 0 522.08331298828125 101.083335876464844 0
527 105 0 522.08331298828125 101.083335876464844 0
527 105 100 522.08331298828125 101.083335876464844 0
537 105 100 522.08331298828125 101.083335876464844 0
185 168 0 182.186279296875 166.352935791015625 0
185 158 0 182.186279296875 166.352935791015625 0
185 158 100 182.186279296875 166.352935791015625 0
185 168 100 182.186279296875 166.352935791015625 0
287 168 0 285.186279296875 166.352935791015625 0
287 158 0 285.186279296875 166.352935791015625 0
287 158 100 285.186279296875 166.352935791015625 0
287 168 100 285.186279296875 166.352935791015625 0
121 190 0 120.542167663574219 187.710845947265625 0
121 180 0 120.542167663574219 187.710845947265625 0
121 180 100 120.542167663574219 187.710845947265625 0
121 190 100 120.542167663574219 187.710845947265625 0
532 347 0 525.67999267578125 343.529998779296875 0
532 357 0 525.67999267578125 343.529998779296875 0
532 357 100 525.67999267578125 343.529998779296875 0
532 347 100 525.67999267578125 343.529998779296875 0
494 375 0 470.4761962890625 358.142852783203125 0
484 375 0 470.4761962890625 358.142852783203125 0
484 375 100 470.4761962890625 358.142852783203125 0
494 375 100 470.4761962890625 358.142852783203125 0
436 149 0 426.925933837890625 146.240737915039062 0
436 139 0 426.925933837890625 146.240737915039062 0
436 139 100 426.925933837890625 146.240737915039062 0
436 149 100 426.925933837890625 146.240737915039062 0
490 149 0 481.925933837890625 146.240737915039062 0
490 139 0 481.925933837890625 146.240737915039062 0
490 139 100 481.925933837890625 146.240737915039062 0
490 149 100 481.925933837890625 146.240737915039062 0
184 440 0 175.923080444335938 423.076934814453125 0
184 430 0 175.923080444335938 423.076934814453125 0
184 430 100 175.923080444335938 423.076934814453125 0
184 440 100 175.923080444335938 423.076934814453125 0
210 440 0 202.923080444335938 423.076934814453125 0
210 430 0 202.923080444335938 423.076934814453125 0
210 430 100 202.923080444335938 423.076934814453125 0
210 440 100 202.923080444335938 423.076934814453125 0
90 411 0 86.6666641235351562 394.77777099609375 0
80 411 0 86.6666641235351562 394.77777099609375 0
80 411 100 86.6666641235351562 394.77777099609375 0
90 411 100 86.6666641235351562 394.77777099609375 0
535 219 0 529.54168701171875 217.175003051757812 0
535 209 0 529.54168701171875 217.175003051757812 0
535 209 100 529.54168701171875 217.175003051757812 0
535 219 100 529.54168701171875 217.175003051757812 0
655 219 0 650.54168701171875 217.175003051757812 0
655 209 0 650.54168701171875 217.175003051757812 0
655 209 100 650.54168701171875 217.175003051757812 0
655 219 100 650.54168701171875 217.175003051757812 0
362 233 0 357.97222900390625 229.763885498046875 0
362 223 0 357.97222900390625 229.763885498046875 0
362 223 100 357.97222900390625 229.763885498046875 0
362 233 100 357.97222900390625 229.763885498046875 0
223 93 0 218.814285278320312 91.6714248657226562 0
223 103 0 218.814285278320312 91.6714248657226562 0
223 103 100 218.814285278320312 91.6714248657226562 0
223 93 100 218.814285278320312 91.6714248657226562 0
472 329 0 453.1199951171875 316.839996337890625 0
462 329 0 453.1199951171875 316.839996337890625 0
462 329 100 453.1199951171875 316.839996337890625 0
472 329 100 453.1199951171875 316.839996337890625 0
472 304 0 453.1199951171875 290.839996337890625 0
462 304 0 453.1199951171875 290.839996337890625 0
462 304 100 453.1199951171875 290.839996337890625 0
472 304 100 453.1199951171875 290.839996337890625 0
594 142 0 577.9459228515625 139.162155151367188 0
584 142 0 577.9459228515625 139.162155151367188 0
584 142 100 577.9459228515625 139.162155151367188 0
594 142 100 577.9459228515625 139.162155151367188 0
594 105 0 577.9459228515625 101.162162780761719 0
584 105 0 577.9459228515625 101.162162780761719 0
584 105 100 577.9459228515625 101.162162780761719 0
594 105 100 577.9459228515625 101.162162780761719 0
638 139 0 619.77142333984375 136.028564453125 0
628 139 0 619.77142333984375 136.028564453125 0
628 139 100 619.77142333984375 136.028564453125 0
638 139 100 619.77142333984375 136.028564453125 0
638 104 0 619.77142333984375 100.028572082519531 0
628 104 0 619.77142333984375 100.028572082519531 0
628 104 100 619.77142333984375 100.028572082519531 0
638 104 100 619.77142333984375 100.028572082519531 0
795 176 0 771.61767578125 171.823532104492188 0
785 176 0 771.61767578125 171.823532104492188 0
785 176 100 771.61767578125 171.823532104492188 0
795 176 100 771.61767578125 171.823532104492188 0
795 142 0 771.61767578125 136.823532104492188 0
785 142 0 771.61767578125 136.823532104492188 0
785 142 100 771.61767578125 136.823532104492188 0
795 142 100 771.61767578125 136.823532104492188 0
32 380 0 31.860870361328125 379.34783935546875 0
42 380 0 31.860870361328125 379.34783935546875 0
42 380 100 31.860870361328125 379.34783935546875 0
32 380 100 31.860870361328125 379.34783935546875 0
140 387 0 135.744186401367188 378 0
140 377 0 135.744186401367188 378 0
140 377 100 135.744186401367188 378 0
140 387 100 135.744186401367188 378 0
183 387 0 179.744186401367188 378 0
183 377 0 179.744186401367188 378 0
183 377 100 179.744186401367188 378 0
183 387 100 179.744186401367188 378 0
397 436 0 388.89794921875 428.10205078125 0
387 436 0 388.89794921875 428.10205078125 0
387 436 100 388.89794921875 428.10205078125 0
397 436 100 388.89794921875 428.10205078125 0
294 385 0 286.31817626953125 376.25 0
294 375 0 286.31817626953125 376.25 0
294 375 100 286.31817626953125 376.25 0
294 385 100 286.31817626953125 376.25 0
338 385 0 331.31817626953125 376.25 0
338 375 0 331.31817626953125 376.25 0
338 375 100 331.31817626953125 376.25 0
338 385 100 331.31817626953125 376.25 0
295 378 0 289.913787841796875 370.482757568359375 0
285 378 0 289.913787841796875 370.482757568359375 0
285 378 100 289.913787841796875 370.482757568359375 0
295 378 100 289.913787841796875 370.482757568359375 0
145 437 0 142.456146240234375 430.333343505859375 0
135 437 0 142.456146240234375 430.333343505859375 0
135 437 100 142.456146240234375 430.333343505859375 0
145 437 100 142.456146240234375 430.333343505859375 0
145 380 0 142.456146240234375 372.333343505859375 0
135 380 0 142.456146240234375 372.333343505859375 0
135 380 100 142.456146240234375 372.333343505859375 0
145 380 100 142.456146240234375 372.333343505859375 0
90 380 0 88.448272705078125 372.448272705078125 0
80 380 0 88.448272705078125 372.448272705078125 0
80 380 100 88.448272705078125 372.448272705078125 0
90 380 100 88.448272705078125 372.448272705078125 0
535 210 0 531.28424072265625 208.934005737304688 0
535 200 0 531.28424072265625 208.934005737304688 0
535 200 100 531.28424072265625 208.934005737304688 0
535 210 100 531.28424072265625 208.934005737304688 0
732 210 0 729.28424072265625 208.934005737304688 0
732 200 0 729.28424072265625 208.934005737304688 0
732 200 100 729.28424072265625 208.934005737304688 0
732 210 100 729.28424072265625 208.934005737304688 0
537 390 0 522.08331298828125 380.166656494140625 0
527 390 0 522.08331298828125 380.166656494140625 0
527 390 100 522.08331298828125 380.166656494140625 0
537 390 100 522.08331298828125 380.166656494140625 0
537 354 0 522.08331298828125 343.166656494140625 0
527 354 0 522.08331298828125 343.166656494140625 0
527 354 100 522.08331298828125 343.166656494140625 0
537 354 100 522.08331298828125 343.166656494140625 0
293 436 0 291.832672119140625 435.262939453125 0
283 436 0 291.832672119140625 435.262939453125 0
283 436 100 291.832672119140625 435.262939453125 0
293 436 100 291.832672119140625 435.262939453125 0
283 378 0 281.53369140625 377.04144287109375 0
293 378 0 281.53369140625 377.04144287109375 0
293 378 100 281.53369140625 377.04144287109375 0
283 378 100 281.53369140625 377.04144287109375 0
232 190 0 228.166671752929688 186.041671752929688 0
232 180 0 228.166671752929688 186.041671752929688 0
232 180 100 228.166671752929688 186.041671752929688 0
232 190 100 228.166671752929688 186.041671752929688 0
140 180 0 136.142852783203125 176.3265380859375 0
140 190 0 136.142852783203125 176.3265380859375 0
140 190 100 136.142852783203125 176.3265380859375 0
140 180 100 136.142852783203125 176.3265380859375 0
295 176 0 262.22222900390625 155.444442749023438 0
285 176 0 262.22222900390625 155.444442749023438 0
285 176 100 262.22222900390625 155.444442749023438 0
295 176 100 262.22222900390625 155.444442749023438 0
179 285 0 177.210006713867188 283.149993896484375 0
189 285 0 177.210006713867188 283.149993896484375 0
189 285 100 177.210006713867188 283.149993896484375 0
179 285 100 177.210006713867188 283.149993896484375 0
283 255 0 278.9571533203125 252.357147216796875 0
293 255 0 278.9571533203125 252.357147216796875 0
293 255 100 278.9571533203125 252.357147216796875 0
283 255 100 278.9571533203125 252.357147216796875 0
472 381 0 451.478271484375 365.434783935546875 0
462 381 0 451.478271484375 365.434783935546875 0
462 381 100 451.478271484375 365.434783935546875 0
472 381 100 451.478271484375 365.434783935546875 0
472 270 0 466.6363525390625 265.93182373046875 0
462 270 0 466.6363525390625 265.93182373046875 0
462 270 100 466.6363525390625 265.93182373046875 0
472 270 100 466.6363525390625 265.93182373046875 0
439 348 0 422.321441650390625 335.571441650390625 0
439 358 0 422.321441650390625 335.571441650390625 0
439 358 100 422.321441650390625 335.571441650390625 0
439 348 100 422.321441650390625 335.571441650390625 0
568 358 0 563.08331298828125 354.270843505859375 0
568 348 0 563.08331298828125 354.270843505859375 0
568 348 100 563.08331298828125 354.270843505859375 0
568 358 100 563.08331298828125 354.270843505859375 0
439 357 0 422.321441650390625 344.25 0
439 347 0 422.321441650390625 344.25 0
439 347 100 422.321441650390625 344.25 0
439 357 100 422.321441650390625 344.25 0
466 233 0 451.4666748046875 225.23333740234375 0
466 223 0 451.4666748046875 225.23333740234375 0
466 223 100 451.4666748046875 225.23333740234375 0
466 233 100 451.4666748046875 225.23333740234375 0
283 228 0 276.418609619140625 223.697677612304688 0
293 228 0 276.418609619140625 223.697677612304688 0
293 228 100 276.418609619140625 223.697677612304688 0
283 228 100 276.418609619140625 223.697677612304688 0
494 391 0 370.5 294.25 0
484 391 0 370.5 294.25 0
484 391 100 370.5 294.25 0
494 391 100 370.5 294.25 0
535 387 0 522.95123291015625 377.56097412109375 0
535 377 0 522.95123291015625 377.56097412109375 0
535 377 100 522.95123291015625 377.56097412109375 0
535 387 100 522.95123291015625 377.56097412109375 0
800 444 0 0 0 -1
790 444 0 0 0 -1
790 220 0 0 0 -1
800 220 0 0 0 -1
800 444 100 0 0 1
790 444 100 0 0 1
790 220 100 0 0 1
800 220 100 0 0 1
800 444 0 0 0 -1
790 444 0 0 0 -1
790 140 0 0 0 -1
800 140 0 0 0 -1
800 444 100 0 0 1
790 444 100 0 0 1
790 140 100 0 0 1
800 140 100 0 0 1
800 444 0 0 0 -1
790 444 0 0 0 -1
790 296 0 0 0 -1
800 296 0 0 0 -1
800 444 100 0 0 1
790 444 100 0 0 1
790 296 100 0 0 1
800 296 100 0 0 1
800 444 0 0 0 -1
790 444 0 0 0 -1
790 360 0 0 0 -1
800 360 0 0 0 -1
800 444 100 0 0 1
790 444 100 0 0 1
790 360 100 0 0 1
800 360 100 0 0 1
790 140 0 0 0 -1
800 140 0 0 0 -1
800 313 0 0 0 -1
790 313 0 0 0 -1
790 140 100 0 0 1
800 140 100 0 0 1
800 313 100 0 0 1
790 313 100 0 0 1
790 140 0 0 0 -1
800 140 0 0 0 -1
800 374 0 0 0 -1
790 374 0 0 0 -1
790 140 100 0 0 1
800 140 100 0 0 1
800 374 100 0 0 1
790 374 100 0 0 1
790 140 0 0 0 -1
800 140 0 0 0 -1
800 251 0 0 0 -1
790 251 0 0 0 -1
790 140 100 0 0 1
800 140 100 0 0 1
800 251 100 0 0 1
790 251 100 0 0 1
43 385 0 0 0 -1
33 385 0 0 0 -1
33 180 0 0 0 -1
43 190 0 0 0 -1
43 385 100 0 0 1
33 385 100 0 0 1
33 180 100 0 0 1
43 190 100 0 0 1
38 190 0 0 0 -1
33 180 0 0 0 -1
121 180 0 0 0 -1
121 190 0 0 0 -1
38 190 100 0 0 1
33 180 100 0 0 1
121 180 100 0 0 1
121 190 100 0 0 1
43 190 0 0 0 -1
38 180 0 0 0 -1
184 180 0 0 0 -1
189 190 0 0 0 -1
43 190 100 0 0 1
38 180 100 0 0 1
184 180 100 0 0 1
189 190 100 0 0 1
42 278 0 0 0 -1
32 278 0 0 0 -1
32 150 0 0 0 -1
42 150 0 0 0 -1
42 278 100 0 0 1
32 278 100 0 0 1
32 150 100 0 0 1
42 150 100 0 0 1
32 150 0 0 0 -1
42 150 0 0 0 -1
42 203 0 0 0 -1
32 203 0 0 0 -1
32 150 100 0 0 1
42 150 100 0 0 1
42 203 100 0 0 1
32 203 100 0 0 1
32 150 0 0 0 -1
42 150 0 0 0 -1
42 380 0 0 0 -1
32 380 0 0 0 -1
32 150 100 0 0 1
42 150 100 0 0 1
42 380 100 0 0 1
32 380 100 0 0 1
189 436 0 0 0 -1
179 436 0 0 0 -1
179 291 0 0 0 -1
189 291 0 0 0 -1
189 436 100 0 0 1
179 436 100 0 0 1
179 291 100 0 0 1
189 291 100 0 0 1
189 436 0 0 0 -1
179 436 0 0 0 -1
179 185 0 0 0 -1
189 185 0 0 0 -1
189 436 100 0 0 1
179 436 100 0 0 1
179 185 100 0 0 1
189 185 100 0 0 1
494 144 0 0 0 -1
484 144 0 0 0 -1
484 105 0 0 0 -1
494 105 0 0 0 -1
494 144 100 0 0 1
484 144 100 0 0 1
484 105 100 0 0 1
494 105 100 0 0 1
42 385 0 0 0 -1
32 385 0 0 0 -1
32 283 0 0 0 -1
42 283 0 0 0 -1
42 385 100 0 0 1
32 385 100 0 0 1
32 283 100 0 0 1
42 283 100 0 0 1
637 406 0 0 0 -1
627 406 0 0 0 -1
627 357 0 0 0 -1
637 347 0 0 0 -1
637 406 100 0 0 1
627 406 100 0 0 1
627 357 100 0 0 1
637 347 100 0 0 1
632 347 0 0 0 -1
627 357 0 0 0 -1
532 357 0 0 0 -1
532 347 0 0 0 -1
632 347 100 0 0 1
627 357 100 0 0 1
532 357 100 0 0 1
532 347 100 0 0 1
637 347 0 0 0 -1
632 357 0 0 0 -1
467 357 0 0 0 -1
467 347 0 0 0 -1
637 347 100 0 0 1
632 357 100 0 0 1
467 357 100 0 0 1
467 347 100 0 0 1
295 436 0 0 0 -1
285 436 0 0 0 -1
285 340 0 0 0 -1
295 340 0 0 0 -1
295 436 100 0 0 1
285 436 100 0 0 1
285 340 100 0 0 1
295 340 100 0 0 1
295 436 0 0 0 -1
285 436 0 0 0 -1
285 378 0 0 0 -1
295 378 0 0 0 -1
295 436 100 0 0 1
285 436 100 0 0 1
285 378 100 0 0 1
295 378 100 0 0 1
295 436 0 0 0 -1
285 436 0 0 0 -1
285 185 0 0 0 -1
295 185 0 0 0 -1
295 436 100 0 0 1
285 436 100 0 0 1
285 185 100 0 0 1
295 185 100 0 0 1
189 103 0 0 0 -1
179 93 0 0 0 -1
-76701931153653760 104 0 0 0 -1
283 103 0 0 0 -1
189 103 100 0 0 1
179 93 100 0 0 1
-76701931153653760 104 100 0 0 1
283 103 100 0 0 1
179 93 0 0 0 -1
189 103 0 0 0 -1
189 190 0 0 0 -1
179 185 0 0 0 -1
179 93 100 0 0 1
189 103 100 0 0 1
189 190 100 0 0 1
179 185 100 0 0 1
293 93 0 0 0 -1
-76701931153653760 104 0 0 0 -1
223 103 0 0 0 -1
223 93 0 0 0 -1
293 93 100 0 0 1
-76701931153653760 104 100 0 0 1
223 103 100 0 0 1
223 93 100 0 0 1
283 103 0 0 0 -1
293 93 0 0 0 -1
293 185 0 0 0 -1
283 185 0 0 0 -1
283 103 100 0 0 1
293 93 100 0 0 1
293 185 100 0 0 1
283 185 100 0 0 1
436 147 0 0 0 -1
436 137 0 0 0 -1
680 137 0 0 0 -1
680 147 0 0 0 -1
436 147 100 0 0 1
436 137 100 0 0 1
680 137 100 0 0 1
680 147 100 0 0 1
436 147 0 0 0 -1
436 137 0 0 0 -1
590 137 0 0 0 -1
590 147 0 0 0 -1
436 147 100 0 0 1
436 137 100 0 0 1
590 137 100 0 0 1
590 147 100 0 0 1
399 436 0 0 0 -1
389 436 0 0 0 -1
389 317 0 0 0 -1
399 317 0 0 0 -1
399 436 100 0 0 1
389 436 100 0 0 1
389 317 100 0 0 1
399 317 100 0 0 1
399 436 0 0 0 -1
389 436 0 0 0 -1
389 302 0 0 0 -1
399 302 0 0 0 -1
399 436 100 0 0 1
389 436 100 0 0 1
389 302 100 0 0 1
399 302 100 0 0 1
736 449 0 0 0 -1
736 439 0 0 0 -1
794 439 0 0 0 -1
794 449 0 0 0 -1
736 449 100 0 0 1
736 439 100 0 0 1
794 439 100 0 0 1
794 449 100 0 0 1
736 439 0 0 0 -1
736 449 0 0 0 -1
636 449 0 0 0 -1
636 439 0 0 0 -1
736 439 100 0 0 1
736 449 100 0 0 1
636 449 100 0 0 1
636 439 100 0 0 1
794 439 0 0 0 -1
794 449 0 0 0 -1
636 449 0 0 0 -1
636 439 0 0 0 -1
794 439 100 0 0 1
794 449 100 0 0 1
636 449 100 0 0 1
636 439 100 0 0 1
537 141 0 0 0 -1
527 141 0 0 0 -1
527 105 0 0 0 -1
537 105 0 0 0 -1
537 141 100 0 0 1
527 141 100 0 0 1
527 105 100 0 0 1
537 105 100 0 0 1
185 168 0 0 0 -1
185 158 0 0 0 -1
287 158 0 0 0 -1
287 168 0 0 0 -1
185 168 100 0 0 1
185 158 100 0 0 1
287 158 100 0 0 1
287 168 100 0 0 1
494 375 0 0 0 -1
484 375 0 0 0 -1
484 354 0 0 0 -1
494 354 0 0 0 -1
494 375 100 0 0 1
484 375 100 0 0 1
484 354 100 0 0 1
494 354 100 0 0 1
484 354 0 0 0 -1
494 354 0 0 0 -1
494 387 0 0 0 -1
484 382 0 0 0 -1
484 354 100 0 0 1
494 354 100 0 0 1
494 387 100 0 0 1
484 382 100 0 0 1
436 149 0 0 0 -1
436 139 0 0 0 -1
490 139 0 0 0 -1
490 149 0 0 0 -1
436 149 100 0 0 1
436 139 100 0 0 1
490 139 100 0 0 1
490 149 100 0 0 1
184 440 0 0 0 -1
184 430 0 0 0 -1
210 430 0 0 0 -1
210 440 0 0 0 -1
184 440 100 0 0 1
184 430 100 0 0 1
210 430 100 0 0 1
210 440 100 0 0 1
90 438 0 0 0 -1
80 438 0 0 0 -1
80 411 0 0 0 -1
90 411 0 0 0 -1
90 438 100 0 0 1
80 438 100 0 0 1
80 411 100 0 0 1
90 411 100 0 0 1
90 438 0 0 0 -1
80 438 0 0 0 -1
80 380 0 0 0 -1
90 380 0 0 0 -1
90 438 100 0 0 1
80 438 100 0 0 1
80 380 100 0 0 1
90 380 100 0 0 1
535 219 0 0 0 -1
535 209 0 0 0 -1
655 209 0 0 0 -1
655 219 0 0 0 -1
535 219 100 0 0 1
535 209 100 0 0 1
655 209 100 0 0 1
655 219 100 0 0 1
290 233 0 0 0 -1
290 223 0 0 0 -1
362 223 0 0 0 -1
362 233 0 0 0 -1
290 233 100 0 0 1
290 223 100 0 0 1
362 223 100 0 0 1
362 233 100 0 0 1
290 233 0 0 0 -1
290 223 0 0 0 -1
436 223 0 0 0 -1
436 233 0 0 0 -1
290 233 100 0 0 1
290 223 100 0 0 1
436 223 100 0 0 1
436 233 100 0 0 1
472 329 0 0 0 -1
462 329 0 0 0 -1
462 304 0 0 0 -1
472 304 0 0 0 -1
472 329 100 0 0 1
462 329 100 0 0 1
462 304 100 0 0 1
472 304 100 0 0 1
594 142 0 0 0 -1
584 142 0 0 0 -1
584 105 0 0 0 -1
594 105 0 0 0 -1
594 142 100 0 0 1
584 142 100 0 0 1
584 105 100 0 0 1
594 105 100 0 0 1
638 139 0 0 0 -1
628 139 0 0 0 -1
628 104 0 0 0 -1
638 104 0 0 0 -1
638 139 100 0 0 1
628 139 100 0 0 1
628 104 100 0 0 1
638 104 100 0 0 1
795 176 0 0 0 -1
785 176 0 0 0 -1
785 142 0 0 0 -1
795 142 0 0 0 -1
795 176 100 0 0 1
785 176 100 0 0 1
785 142 100 0 0 1
795 142 100 0 0 1
140 387 0 0 0 -1
140 377 0 0 0 -1
183 377 0 0 0 -1
183 387 0 0 0 -1
140 387 100 0 0 1
140 377 100 0 0 1
183 377 100 0 0 1
183 387 100 0 0 1
397 436 0 0 0 -1
387 436 0 0 0 -1
387 377 0 0 0 -1
397 387 0 0 0 -1
397 436 100 0 0 1
387 436 100 0 0 1
387 377 100 0 0 1
397 387 100 0 0 1
397 387 0 0 0 -1
387 377 0 0 0 -1
489 377 0 0 0 -1
494 387 0 0 0 -1
397 387 100 0 0 1
387 377 100 0 0 1
489 377 100 0 0 1
494 387 100 0 0 1
294 385 0 0 0 -1
294 375 0 0 0 -1
338 375 0 0 0 -1
338 385 0 0 0 -1
294 385 100 0 0 1
294 375 100 0 0 1
338 375 100 0 0 1
338 385 100 0 0 1
145 437 0 0 0 -1
135 437 0 0 0 -1
135 380 0 0 0 -1
145 380 0 0 0 -1
145 437 100 0 0 1
135 437 100 0 0 1
135 380 100 0 0 1
145 380 100 0 0 1
535 210 0 0 0 -1
535 200 0 0 0 -1
732 200 0 0 0 -1
732 210 0 0 0 -1
535 210 100 0 0 1
535 200 100 0 0 1
732 200 100 0 0 1
732 210 100 0 0 1
537 390 0 0 0 -1
527 390 0 0 0 -1
527 354 0 0 0 -1
537 354 0 0 0 -1
537 390 100 0 0 1
527 390 100 0 0 1
527 354 100 0 0 1
537 354 100 0 0 1
293 436 0 0 0 -1
283 436 0 0 0 -1
283 185 0 0 0 -1
293 185 0 0 0 -1
293 436 100 0 0 1
283 436 100 0 0 1
283 185 100 0 0 1
293 185 100 0 0 1
283 185 0 0 0 -1
293 185 0 0 0 -1
293 378 0 0 0 -1
283 378 0 0 0 -1
283 185 100 0 0 1
293 185 100 0 0 1
293 378 100 0 0 1
283 378 100 0 0 1
283 185 0 0 0 -1
293 185 0 0 0 -1
293 255 0 0 0 -1
283 255 0 0 0 -1
283 185 100 0 0 1
293 185 100 0 0 1
293 255 100 0 0 1
283 255 100 0 0 1
283 185 0 0 0 -1
293 185 0 0 0 -1
293 228 0 0 0 -1
283 228 0 0 0 -1
283 185 100 0 0 1
293 185 100 0 0 1
293 228 100 0 0 1
283 228 100 0 0 1
184 190 0 0 0 -1
184 180 0 0 0 -1
232 180 0 0 0 -1
232 190 0 0 0 -1
184 190 100 0 0 1
184 180 100 0 0 1
232 180 100 0 0 1
232 190 100 0 0 1
189 180 0 0 0 -1
184 190 0 0 0 -1
140 190 0 0 0 -1
140 180 0 0 0 -1
189 180 100 0 0 1
184 190 100 0 0 1
140 190 100 0 0 1
140 180 100 0 0 1
179 185 0 0 0 -1
189 180 0 0 0 -1
189 285 0 0 0 -1
179 285 0 0 0 -1
179 185 100 0 0 1
189 180 100 0 0 1
189 285 100 0 0 1
179 285 100 0 0 1
295 185 0 0 0 -1
285 185 0 0 0 -1
285 176 0 0 0 -1
295 176 0 0 0 -1
295 185 100 0 0 1
285 185 100 0 0 1
285 176 100 0 0 1
295 176 100 0 0 1
472 381 0 0 0 -1
462 381 0 0 0 -1
462 353 0 0 0 -1
472 358 0 0 0 -1
472 381 100 0 0 1
462 381 100 0 0 1
462 353 100 0 0 1
472 358 100 0 0 1
472 358 0 0 0 -1
462 353 0 0 0 -1
462 270 0 0 0 -1
472 270 0 0 0 -1
472 358 100 0 0 1
462 353 100 0 0 1
462 270 100 0 0 1
472 270 100 0 0 1
467 348 0 0 0 -1
472 358 0 0 0 -1
439 358 0 0 0 -1
439 348 0 0 0 -1
467 348 100 0 0 1
472 358 100 0 0 1
439 358 100 0 0 1
439 348 100 0 0 1
472 358 0 0 0 -1
467 348 0 0 0 -1
568 348 0 0 0 -1
568 358 0 0 0 -1
472 358 100 0 0 1
467 348 100 0 0 1
568 348 100 0 0 1
568 358 100 0 0 1
439 357 0 0 0 -1
439 347 0 0 0 -1
467 347 0 0 0 -1
467 357 0 0 0 -1
439 357 100 0 0 1
439 347 100 0 0 1
467 347 100 0 0 1
467 357 100 0 0 1
436 233 0 0 0 -1
436 223 0 0 0 -1
466 223 0 0 0 -1
466 233 0 0 0 -1
436 233 100 0 0 1
436 223 100 0 0 1
466 223 100 0 0 1
466 233 100 0 0 1
494 391 0 0 0 -1
484 391 0 0 0 -1
484 382 0 0 0 -1
494 387 0 0 0 -1
494 391 100 0 0 1
484 391 100 0 0 1
484 382 100 0 0 1
494 387 100 0 0 1
494 387 0 0 0 -1
489 377 0 0 0 -1
535 377 0 0 0 -1
535 387 0 0 0 -1
494 387 100 0 0 1
489 377 100 0 0 1
535 377 100 0 0 1
535 387 100 0 0 1
33 180 0 0 0 -1
43 190 0 0 0 -1
33 180 100 0 0 1
43 190 100 0 0 1
627 357 0 0 0 -1
637 347 0 0 0 -1
627 357 100 0 0 1
637 347 100 0 0 1
-76701931153653760 104 0 0 0 -1
293 93 0 0 0 -1
283 103 0 0 0 -1
-76701931153653760 104 100 0 0 1
293 93 100 0 0 1
283 103 100 0 0 1
179 185 0 0 0 -1
189 190 0 0 0 -1
189 180 0 0 0 -1
179 185 100 0 0 1
189 190 100 0 0 1
189 180 100 0 0 1
472 358 0 0 0 -1
472 358 0 0 0 -1
472 358 100 0 0 1
472 358 100 0 0 1
494 387 0 0 0 -1
494 387 0 0 0 -1
494 387 100 0 0 1
494 387 100 0 0 1
4 0 1 2 3
4 4 5 6 7
4 8 9 10 11
4 12 13 14 15
4 16 17 18 19
4 20 21 22 23
4 24 25 26 27
4 28 29 30 31
4 32 33 34 35
4 36 37 38 39
4 40 41 42 43
4 44 45 46 47
4 48 49 50 51
4 52 53 54 55
4 56 57 58 59
4 60 61 62 63
4 64 65 66 67
4 68 69 70 71
4 72 73 74 75
4 76 77 78 79
4 80 81 82 83
4 84 85 86 87
4 88 89 90 91
4 92 93 94 95
4 96 97 98 99
4 100 101 102 103
4 104 105 106 107
4 108 109 110 111
4 112 113 114 115
4 116 117 118 119
4 120 121 122 123
4 124 125 126 127
4 128 129 130 131
4 132 133 134 135
4 136 137 138 139
4 140 141 142 143
4 144 145 146 147
4 148 149 150 151
4 152 153 154 155
4 156 157 158 159
4 160 161 162 163
4 164 165 166 167
4 168 169 170 171
4 172 173 174 175
4 176 177 178 179
4 180 181 182 183
4 184 185 186 187
4 188 189 190 191
4 192 193 194 195
4 196 197 198 199
4 200 201 202 203
4 204 205 206 207
4 208 209 210 211
4 212 213 214 215
4 216 217 218 219
4 220 221 222 223
4 224 225 226 227
4 228 229 230 231
4 232 233 234 235
4 236 237 238 239
4 240 241 242 243
4 244 245 246 247
4 248 249 250 251
4 252 253 254 255
4 256 257 258 259
4 260 261 262 263
4 264 265 266 267
4 268 269 270 271
4 272 273 274 275
4 276 277 278 279
4 280 281 282 283
4 284 285 286 287
4 288 289 290 291
4 292 293 294 295
4 296 297 298 299
4 300 301 302 303
4 304 305 306 307
4 308 309 310 311
4 312 313 314 315
4 316 317 318 319
4 320 321 322 323
4 324 325 326 327
4 328 329 330 331
4 332 333 334 335
4 336 337 338 339
4 340 341 342 343
4 344 345 346 347
4 348 349 350 351
4 352 353 354 355
4 356 357 358 359
4 360 361 362 363
4 364 365 366 367
4 368 369 370 371
4 372 373 374 375
4 376 377 378 379
4 380 381 382 383
4 384 385 386 387
4 388 389 390 391
4 392 393 394 395
4 396 397 398 399
4 400 401 402 403
4 404 405 406 407
4 408 409 410 411
4 412 413 414 415
4 416 417 418 419
4 420 421 422 423
4 424 425 426 427
4 428 429 430 431
4 432 433 434 435
4 436 437 438 439
4 440 441 442 443
4 444 445 446 447
4 448 449 450 451
4 452 453 454 455
4 456 457 458 459
4 460 461 462 463
4 464 465 466 467
4 468 469 470 471
4 472 473 474 475
4 476 477 478 479
4 480 481 482 483
4 484 485 486 487
4 488 489 490 491
4 492 493 494 495
4 496 497 498 499
4 500 501 502 503
4 504 505 506 507
4 508 509 510 511
4 512 513 514 515
4 516 517 518 519
4 520 521 522 523
4 524 525 526 527
4 528 529 530 531
4 532 533 534 535
4 536 537 538 539
4 540 541 542 543
4 544 545 546 547
4 548 549 550 551
4 552 553 554 555
4 556 557 558 559
4 560 561 562 563
4 564 565 566 567
4 568 569 570 571
4 572 573 574 575
4 576 577 578 579
4 580 581 582 583
4 584 585 586 587
4 588 589 590 591
4 592 593 594 595
4 596 597 598 599
4 600 601 602 603
4 604 605 606 607
4 608 609 610 611
4 612 613 614 615
4 616 617 618 619
4 620 621 622 623
4 624 625 626 627
4 628 629 630 631
4 632 633 634 635
4 636 637 638 639
4 640 641 642 643
4 644 645 646 647
4 648 649 650 651
4 652 653 654 655
4 656 657 658 659
4 660 661 662 663
4 664 665 666 667
4 668 669 670 671
4 672 673 674 675
4 676 677 678 679
4 680 681 682 683
4 684 685 686 687
4 688 689 690 691
4 692 693 694 695
4 696 697 698 699
4 700 701 702 703
4 704 705 706 707
4 708 709 710 711
4 712 713 714 715
4 716 717 718 719
4 720 721 722 723
4 724 725 726 727
4 728 729 730 731
4 732 733 734 735
4 736 737 738 739
4 740 741 742 743
4 744 745 746 747
4 748 749 750 751
4 752 753 754 755
4 756 757 758 759
4 760 761 762 763
4 764 765 766 767
4 768 769 770 771
4 772 773 774 775
4 776 777 778 779
4 780 781 782 783
4 784 785 786 787
4 788 789 790 791
4 792 793 794 795
4 796 797 798 799
4 800 801 802 803
4 804 805 806 807
4 808 809 810 811
4 812 813 814 815
4 816 817 818 819
4 820 821 822 823
4 824 825 826 827
4 828 829 830 831
4 832 833 834 835
4 836 837 838 839
4 840 841 842 843
4 844 845 846 847
4 848 849 850 851
4 852 853 854 855
4 856 857 858 859
4 860 861 862 863
4 864 865 866 867
4 868 869 870 871
4 872 873 874 875
4 876 877 878 879
4 880 881 882 883
4 884 885 886 887
4 888 889 890 891
4 892 893 894 895
4 896 897 898 899
4 900 901 902 903
4 904 905 906 907
4 908 909 910 911
4 912 913 914 915
4 916 917 918 919
4 920 921 922 923
4 924 925 926 927
4 928 929 930 931
4 932 933 934 935
4 936 937 938 939
4 940 941 942 943
4 944 945 946 947
4 948 949 950 951
4 952 953 954 955
4 956 957 958 959
4 960 961 962 963
4 964 965 966 967
4 968 969 970 971
4 972 973 974 975
4 976 977 978 979
4 980 981 982 983
4 984 985 986 987
4 988 989 990 991
4 992 993 994 995
4 996 997 998 999
4 1000 1001 1002 1003
4 1004 1005 1006 1007
4 1008 1009 1010 1011
4 1012 1013 1014 1015
4 1016 1017 1018 1019
4 1020 1021 1022 1023
4 1024 1025 1026 1027
4 1028 1029 1030 1031
4 1032 1033 1034 1035
4 1036 1037 1038 1039
4 1040 1041 1042 1043
4 1044 1045 1046 1047
4 1048 1049 1050 1051
4 1052 1053 1054 1055
4 1056 1057 1058 1059
4 1060 1061 1062 1063
4 1064 1065 1066 1067
4 1068 1069 1070 1071
4 1072 1073 1074 1075
4 1076 1077 1078 1079
4 1080 1081 1082 1083
4 1084 1085 1086 1087
4 1088 1089 1090 1091
4 1092 1093 1094 1095
4 1096 1097 1098 1099
4 1100 1101 1102 1103
4 1104 1105 1106 1107
4 1108 1109 1110 1111
4 1112 1113 1114 1115
4 1116 1117 1118 1119
4 1120 1121 1122 1123
4 1124 1125 1126 1127
4 1128 1129 1130 1131
4 1132 1133 1134 1135
4 1136 1137 1138 1139
4 1140 1141 1142 1143
4 1144 1145 1146 1147
4 1148 1149 1150 1151
4 1152 1153 1154 1155
4 1156 1157 1158 1159
4 1160 1161 1162 1163
4 1164 1165 1166 1167
4 1168 1169 1170 1171
4 1172 1173 1174 1175
4 1176 1177 1178 1179
4 1180 1181 1182 1183
4 1184 1185 1186 1187
4 1188 1189 1190 1191
4 1192 1193 1194 1195
4 1196 1197 1198 1199
4 1200 1201 1202 1203
4 1204 1205 1206 1207
4 1208 1209 1210 1211
4 1212 1213 1214 1215
4 1216 1217 1218 1219
4 1220 1221 1222 1223
4 1224 1225 1226 1227
4 1228 1229 1230 1231
4 1232 1233 1234 1235
4 1236 1237 1238 1239
4 1240 1241 1242 1243
4 1244 1245 1246 1247
4 1248 1249 1250 1251
4 1252 1253 1254 1255
4 1256 1257 1258 1259
4 1260 1261 1262 1263
4 1264 1265 1266 1267
4 1268 1269 1270 1271
4 1272 1273 1274 1275
4 1276 1277 1278 1279
4 1280 1281 1282 1283
4 1284 1285 1286 1287
4 1288 1289 1290 1291
4 1292 1293 1294 1295
4 1296 1297 1298 1299
4 1300 1301 1302 1303
4 1304 1305 1306 1307
4 1308 1309 1310 1311
4 1312 1313 1314 1315
4 1316 1317 1318 1319
4 1320 1321 1322 1323
4 1324 1325 1326 1327
4 1328 1329 1330 1331
4 1332 1333 1334 1335
4 1336 1337 1338 1339
4 1340 1341 1342 1343
4 1344 1345 1346 1347
4 1348 1349 1350 1351
4 1352 1353 1354 1355
4 1356 1357 1358 1359
4 1360 1361 1362 1363
4 1364 1365 1366 1367
4 1368 1369 1370 1371
4 1372 1373 1374 1375
4 1376 1377 1378 1379
4 1380 1381 1382 1383
4 1384 1385 1386 1387
4 1388 1389 1390 1391
4 1392 1393 1394 1395
4 1396 1397 1398 1399
4 1400 1401 1402 1403
4 1404 1405 1406 1407
4 1408 1409 1410 1411
4 1412 1413 1414 1415
4 1416 1417 1418 1419
4 1420 1421 1422 1423
4 1424 1425 1426 1427
4 1428 1429 1430 1431
4 1432 1433 1434 1435
4 1436 1437 1438 1439
4 1440 1441 1442 1443
4 1444 1445 1446 1447
3 1456 1457 1458
3 1459 1460 1461
3 1462 1463 1464
3 1465 1466 1467
