ply
format ascii 1.0
element vertex 208
property float x
property float y
property float z
property float nx
property float ny
property float nz
element quads 50
property list uchar int vertex_indices
end_header
332 29 0 -0 1 0
557 29 0 -0 1 0
557 29 100 -0 1 0
332 29 100 -0 1 0
332 19 0 0 -1 0
562 19 0 0 -1 0
562 19 100 0 -1 0
332 19 100 0 -1 0
567 19 0 -0 -1 0
263 19 0 -0 -1 0
263 19 100 -0 -1 0
567 19 100 -0 -1 0
562 29 0 0 1 0
273 29 0 0 1 0
273 29 100 0 1 0
562 29 100 0 1 0
557 29 0 -1 0 0
557 385 0 -1 0 0
557 385 100 -1 0 0
557 29 100 -1 0 0
567 19 0 1 -0 0
567 395 0 1 -0 0
567 395 100 1 -0 0
567 19 100 1 -0 0
263 395 0 -0 1 0
567 395 0 -0 1 0
567 395 100 -0 1 0
263 395 100 -0 1 0
273 385 0 0 -1 0
562 385 0 0 -1 0
562 385 100 0 -1 0
273 385 100 0 -1 0
273 385 0 1 0 0
273 29 0 1 0 0
273 29 100 1 0 0
273 385 100 1 0 0
263 395 0 -1 -0 0
263 19 0 -1 -0 0
263 19 100 -1 -0 0
263 395 100 -1 -0 0
557 385 0 -0 -1 0
340 385 0 -0 -1 0
340 385 100 -0 -1 0
557 385 100 -0 -1 0
562 395 0 0 1 0
340 395 0 0 1 0
340 395 100 0 1 0
562 395 100 0 1 0
485 190 0 -0 1 0
561 190 0 -0 1 0
561 190 100 -0 1 0
485 190 100 -0 1 0
485 180 0 0 -1 0
561 180 0 0 -1 0
561 180 100 0 -1 0
485 180 100 0 -1 0
445 70 0 1 0 0
445 26 0 1 0 0
445 26 100 1 0 0
445 70 100 1 0 0
435 70 0 -1 -0 0
435 26 0 -1 -0 0
435 26 100 -1 -0 0
435 70 100 -1 -0 0
508 281 0 -0 1 0
561 281 0 -0 1 0
561 281 100 -0 1 0
508 281 100 -0 1 0
508 271 0 0 -1 0
561 271 0 0 -1 0
561 271 100 0 -1 0
508 271 100 0 -1 0
386 193 0 -0 1 0
436 193 0 -0 1 0
436 193 100 -0 1 0
386 193 100 -0 1 0
386 183 0 0 -1 0
436 183 0 0 -1 0
436 183 100 0 -1 0
386 183 100 0 -1 0
332 29 0 329.524444580078125 28.8711109161376953 0
332 19 0 329.524444580078125 28.8711109161376953 0
332 19 100 329.524444580078125 28.8711109161376953 0
332 29 100 329.524444580078125 28.8711109161376953 0
340 385 0 337.43316650390625 383.225799560546875 0
340 395 0 337.43316650390625 383.225799560546875 0
340 395 100 337.43316650390625 383.225799560546875 0
340 385 100 337.43316650390625 383.225799560546875 0
485 190 0 477.618408203125 187.5 0
485 180 0 477.618408203125 187.5 0
485 180 100 477.618408203125 187.5 0
485 190 100 477.618408203125 187.5 0
561 190 0 554.618408203125 187.5 0
561 180 0 554.618408203125 187.5 0
561 180 100 554.618408203125 187.5 0
561 190 100 554.618408203125 187.5 0
445 70 0 434.8863525390625 69.409088134765625 0
435 70 0 434.8863525390625 69.409088134765625 0
435 70 100 434.8863525390625 69.409088134765625 0
445 70 100 434.8863525390625 69.409088134765625 0
445 26 0 434.8863525390625 24.4090900421142578 0
435 26 0 434.8863525390625 24.4090900421142578 0
435 26 100 434.8863525390625 24.4090900421142578 0
445 26 100 434.8863525390625 24.4090900421142578 0
508 281 0 497.41510009765625 275.6981201171875 0
508 271 0 497.41510009765625 275.6981201171875 0
508 271 100 497.41510009765625 275.6981201171875 0
508 281 100 497.41510009765625 275.6981201171875 0
561 281 0 551.41510009765625 275.6981201171875 0
561 271 0 551.41510009765625 275.6981201171875 0
561 271 100 551.41510009765625 275.6981201171875 0
561 281 100 551.41510009765625 275.6981201171875 0
386 193 0 377.279998779296875 189.139999389648438 0
386 183 0 377.279998779296875 189.139999389648438 0
386 183 100 377.279998779296875 189.139999389648438 0
386 193 100 377.279998779296875 189.139999389648438 0
436 193 0 428.279998779296875 189.139999389648438 0
436 183 0 428.279998779296875 189.139999389648438 0
436 183 100 428.279998779296875 189.139999389648438 0
436 193 100 428.279998779296875 189.139999389648438 0
332 29 0 0 0 -1
332 19 0 0 0 -1
562 19 0 0 0 -1
557 29 0 0 0 -1
332 29 100 0 0 1
332 19 100 0 0 1
562 19 100 0 0 1
557 29 100 0 0 1
567 19 0 0 0 -1
562 29 0 0 0 -1
273 29 0 0 0 -1
263 19 0 0 0 -1
567 19 100 0 0 1
562 29 100 0 0 1
273 29 100 0 0 1
263 19 100 0 0 1
557 29 0 0 0 -1
567 19 0 0 0 -1
567 395 0 0 0 -1
557 385 0 0 0 -1
557 29 100 0 0 1
567 19 100 0 0 1
567 395 100 0 0 1
557 385 100 0 0 1
263 395 0 0 0 -1
273 385 0 0 0 -1
562 385 0 0 0 -1
567 395 0 0 0 -1
263 395 100 0 0 1
273 385 100 0 0 1
562 385 100 0 0 1
567 395 100 0 0 1
273 385 0 0 0 -1
263 395 0 0 0 -1
263 19 0 0 0 -1
273 29 0 0 0 -1
273 385 100 0 0 1
263 395 100 0 0 1
263 19 100 0 0 1
273 29 100 0 0 1
557 385 0 0 0 -1
562 395 0 0 0 -1
340 395 0 0 0 -1
340 385 0 0 0 -1
557 385 100 0 0 1
562 395 100 0 0 1
340 395 100 0 0 1
340 385 100 0 0 1
485 190 0 0 0 -1
485 180 0 0 0 -1
561 180 0 0 0 -1
561 190 0 0 0 -1
485 190 100 0 0 1
485 180 100 0 0 1
561 180 100 0 0 1
561 190 100 0 0 1
445 70 0 0 0 -1
435 70 0 0 0 -1
435 26 0 0 0 -1
445 26 0 0 0 -1
445 70 100 0 0 1
435 70 100 0 0 1
435 26 100 0 0 1
445 26 100 0 0 1
508 281 0 0 0 -1
508 271 0 0 0 -1
561 271 0 0 0 -1
561 281 0 0 0 -1
508 281 100 0 0 1
508 271 100 0 0 1
561 271 100 0 0 1
561 281 100 0 0 1
386 193 0 0 0 -1
386 183 0 0 0 -1
436 183 0 0 0 -1
436 193 0 0 0 -1
386 193 100 0 0 1
386 183 100 0 0 1
436 183 100 0 0 1
436 193 100 0 0 1
567 19 0 0 0 -1
557 29 0 0 0 -1
567 19 100 0 0 1
557 29 100 0 0 1
557 385 0 0 0 -1
567 395 0 0 0 -1
557 385 100 0 0 1
567 395 100 0 0 1
4 0 1 2 3
4 4 5 6 7
4 8 9 10 11
4 12 13 14 15
4 16 17 18 19
4 20 21 22 23
4 24 25 26 27
4 28 29 30 31
4 32 33 34 35
4 36 37 38 39
4 40 41 42 43
4 44 45 46 47
4 48 49 50 51
4 52 53 54 55
4 56 57 58 59
4 60 61 62 63
4 64 65 66 67
4 68 69 70 71
4 72 73 74 75
4 76 77 78 79
4 80 81 82 83
4 84 85 86 87
4 88 89 90 91
4 92 93 94 95
4 96 97 98 99
4 100 101 102 103
4 104 105 106 107
4 108 109 110 111
4 112 113 114 115
4 116 117 118 119
4 120 121 122 123
4 124 125 126 127
4 128 129 130 131
4 132 133 134 135
4 136 137 138 139
4 140 141 142 143
4 144 145 146 147
4 148 149 150 151
4 152 153 154 155
4 156 157 158 159
4 160 161 162 163
4 164 165 166 167
4 168 169 170 171
4 172 173 174 175
4 176 177 178 179
4 180 181 182 183
4 184 185 186 187
4 188 189 190 191
4 192 193 194 195
4 196 197 198 199
