ply
format ascii 1.0
element vertex 520
property float x
property float y
property float z
property float nx
property float ny
property float nz
element quads 129
property list uchar int vertex_indices
end_header
318 337 0 -0 1 0
423 337 0 -0 1 0
423 337 100 -0 1 0
318 337 100 -0 1 0
318 327 0 0 -1 0
433 327 0 0 -1 0
433 327 100 0 -1 0
318 327 100 0 -1 0
423 337 0 -1 0 0
423 340 0 -1 0 0
423 340 100 -1 0 0
423 337 100 -1 0 0
433 327 0 1 -0 0
433 340 0 1 -0 0
433 340 100 1 -0 0
433 327 100 1 -0 0
307 432 0 -0 1 0
347 432 0 -0 1 0
347 432 100 -0 1 0
307 432 100 -0 1 0
307 422 0 0 -1 0
347 422 0 0 -1 0
347 422 100 0 -1 0
307 422 100 0 -1 0
136 484 0 1 0 0
136 427 0 1 0 0
136 427 100 1 0 0
136 484 100 1 0 0
126 484 0 -1 -0 0
126 427 0 -1 -0 0
126 427 100 -1 -0 0
126 484 100 -1 -0 0
399 432 0 -0 1 0
423 432 0 -0 1 0
423 432 100 -0 1 0
399 432 100 -0 1 0
399 422 0 0 -1 0
433 422 0 0 -1 0
433 422 100 0 -1 0
399 422 100 0 -1 0
423 432 0 -1 0 0
423 485 0 -1 0 0
423 485 100 -1 0 0
423 432 100 -1 0 0
433 422 0 1 -0 0
433 485 0 1 -0 0
433 485 100 1 -0 0
433 422 100 1 -0 0
137 174 0 -0 1 0
203 174 0 -0 1 0
203 174 100 -0 1 0
137 174 100 -0 1 0
127 164 0 0 -1 0
203 164 0 0 -1 0
203 164 100 0 -1 0
127 164 100 0 -1 0
127 164 0 -1 0 0
127 484 0 -1 0 0
127 484 100 -1 0 0
127 164 100 -1 0 0
137 174 0 1 -0 0
137 484 0 1 -0 0
137 484 100 1 -0 0
137 174 100 1 -0 0
133 338 0 -0 1 0
243 338 0 -0 1 0
243 338 100 -0 1 0
133 338 100 -0 1 0
133 328 0 0 -1 0
243 328 0 0 -1 0
243 328 100 0 -1 0
133 328 100 0 -1 0
420 210 0 1 0 0
420 117 0 1 0 0
420 117 100 1 0 0
420 210 100 1 0 0
410 210 0 -1 -0 0
410 117 0 -1 -0 0
410 117 100 -1 -0 0
410 210 100 -1 -0 0
420 210 0 1 0 0
420 57 0 1 0 0
420 57 100 1 0 0
420 210 100 1 0 0
410 210 0 -1 -0 0
410 57 0 -1 -0 0
410 57 100 -1 -0 0
410 210 100 -1 -0 0
419 210 0 1 0 0
419 170 0 1 0 0
419 170 100 1 0 0
419 210 100 1 0 0
409 210 0 -1 -0 0
409 170 0 -1 -0 0
409 170 100 -1 -0 0
409 210 100 -1 -0 0
420 484 0 1 0 0
420 427 0 1 0 0
420 427 100 1 0 0
420 484 100 1 0 0
410 484 0 -1 -0 0
410 427 0 -1 -0 0
410 427 100 -1 -0 0
410 484 100 -1 -0 0
574 277 0 -0 1 0
708 277 0 -0 1 0
708 277 100 -0 1 0
574 277 100 -0 1 0
574 267 0 0 -1 0
708 267 0 0 -1 0
708 267 100 0 -1 0
574 267 100 0 -1 0
136 278 0 1 0 0
136 223 0 1 0 0
136 223 100 1 0 0
136 278 100 1 0 0
126 278 0 -1 -0 0
126 223 0 -1 -0 0
126 223 100 -1 -0 0
126 278 100 -1 -0 0
214 432 0 -0 1 0
256 432 0 -0 1 0
256 432 100 -0 1 0
214 432 100 -0 1 0
214 422 0 0 -1 0
256 422 0 0 -1 0
256 422 100 0 -1 0
214 422 100 0 -1 0
148 277 0 1 0 0
148 224 0 1 0 0
148 224 100 1 0 0
148 277 100 1 0 0
138 277 0 -1 -0 0
138 224 0 -1 -0 0
138 224 100 -1 -0 0
138 277 100 -1 -0 0
149 484 0 1 0 0
149 427 0 1 0 0
149 427 100 1 0 0
149 484 100 1 0 0
139 484 0 -1 -0 0
139 427 0 -1 -0 0
139 427 100 -1 -0 0
139 484 100 -1 -0 0
434 532 0 1 0 0
434 345 0 1 0 0
434 345 100 1 0 0
434 532 100 1 0 0
424 532 0 -1 -0 0
424 340 0 -1 -0 0
424 340 100 -1 -0 0
424 532 100 -1 -0 0
434 345 0 1 0 0
434 284 0 1 0 0
434 284 100 1 0 0
434 345 100 1 0 0
424 340 0 -1 -0 0
424 284 0 -1 -0 0
424 284 100 -1 -0 0
424 340 100 -1 -0 0
429 335 0 -0 -1 0
416 335 0 -0 -1 0
416 335 100 -0 -1 0
429 335 100 -0 -1 0
434 345 0 0 1 0
416 345 0 0 1 0
416 345 100 0 1 0
434 345 100 0 1 0
434 345 0 -0 1 0
572 345 0 -0 1 0
572 345 100 -0 1 0
434 345 100 -0 1 0
429 335 0 0 -1 0
572 335 0 0 -1 0
572 335 100 0 -1 0
429 335 100 0 -1 0
433 532 0 1 0 0
433 340 0 1 0 0
433 340 100 1 0 0
433 532 100 1 0 0
423 532 0 -1 -0 0
423 340 0 -1 -0 0
423 340 100 -1 -0 0
423 532 100 -1 -0 0
423 340 0 -1 0 0
423 352 0 -1 0 0
423 352 100 -1 0 0
423 340 100 -1 0 0
433 340 0 1 -0 0
433 352 0 1 -0 0
433 352 100 1 -0 0
433 340 100 1 -0 0
318 337 0 313.971435546875 333.79046630859375 0
318 327 0 313.971435546875 333.79046630859375 0
318 327 100 313.971435546875 333.79046630859375 0
318 337 100 313.971435546875 333.79046630859375 0
307 432 0 298.32501220703125 421.20001220703125 0
307 422 0 298.32501220703125 421.20001220703125 0
307 422 100 298.32501220703125 421.20001220703125 0
307 432 100 298.32501220703125 421.20001220703125 0
347 432 0 339.32501220703125 421.20001220703125 0
347 422 0 339.32501220703125 421.20001220703125 0
347 422 100 339.32501220703125 421.20001220703125 0
347 432 100 339.32501220703125 421.20001220703125 0
136 484 0 133.614028930664062 476.508758544921875 0
126 484 0 133.614028930664062 476.508758544921875 0
126 484 100 133.614028930664062 476.508758544921875 0
136 484 100 133.614028930664062 476.508758544921875 0
136 427 0 133.614028930664062 418.508758544921875 0
126 427 0 133.614028930664062 418.508758544921875 0
126 427 100 133.614028930664062 418.508758544921875 0
136 427 100 133.614028930664062 418.508758544921875 0
399 432 0 381.375 414 0
399 422 0 381.375 414 0
399 422 100 381.375 414 0
399 432 100 381.375 414 0
203 174 0 200.924240112304688 171.363632202148438 0
203 164 0 200.924240112304688 171.363632202148438 0
203 164 100 200.924240112304688 171.363632202148438 0
203 174 100 200.924240112304688 171.363632202148438 0
133 338 0 130.790908813476562 334.927276611328125 0
133 328 0 130.790908813476562 334.927276611328125 0
133 328 100 130.790908813476562 334.927276611328125 0
133 338 100 130.790908813476562 334.927276611328125 0
243 338 0 241.790908813476562 334.927276611328125 0
243 328 0 241.790908813476562 334.927276611328125 0
243 328 100 241.790908813476562 334.927276611328125 0
243 338 100 241.790908813476562 334.927276611328125 0
420 117 0 415.483856201171875 114.741935729980469 0
410 117 0 415.483856201171875 114.741935729980469 0
410 117 100 415.483856201171875 114.741935729980469 0
420 117 100 415.483856201171875 114.741935729980469 0
420 57 0 417.254913330078125 55.6274528503417969 0
410 57 0 417.254913330078125 55.6274528503417969 0
410 57 100 417.254913330078125 55.6274528503417969 0
420 57 100 417.254913330078125 55.6274528503417969 0
423 485 0 415.01885986328125 476.84906005859375 0
433 485 0 415.01885986328125 476.84906005859375 0
433 485 100 415.01885986328125 476.84906005859375 0
423 485 100 415.01885986328125 476.84906005859375 0
419 210 0 408.524993896484375 205.75 0
409 210 0 408.524993896484375 205.75 0
409 210 100 408.524993896484375 205.75 0
419 210 100 408.524993896484375 205.75 0
419 170 0 408.524993896484375 164.75 0
409 170 0 408.524993896484375 164.75 0
409 170 100 408.524993896484375 164.75 0
419 170 100 408.524993896484375 164.75 0
420 484 0 412.631591796875 476.508758544921875 0
410 484 0 412.631591796875 476.508758544921875 0
410 484 100 412.631591796875 476.508758544921875 0
420 484 100 412.631591796875 476.508758544921875 0
420 427 0 412.631591796875 418.508758544921875 0
410 427 0 412.631591796875 418.508758544921875 0
410 427 100 412.631591796875 418.508758544921875 0
420 427 100 412.631591796875 418.508758544921875 0
127 484 0 126.603126525878906 483.48748779296875 0
137 484 0 126.603126525878906 483.48748779296875 0
137 484 100 126.603126525878906 483.48748779296875 0
127 484 100 126.603126525878906 483.48748779296875 0
574 277 0 568.7164306640625 274.932830810546875 0
574 267 0 568.7164306640625 274.932830810546875 0
574 267 100 568.7164306640625 274.932830810546875 0
574 277 100 568.7164306640625 274.932830810546875 0
708 277 0 703.7164306640625 274.932830810546875 0
708 267 0 703.7164306640625 274.932830810546875 0
708 267 100 703.7164306640625 274.932830810546875 0
708 277 100 703.7164306640625 274.932830810546875 0
136 278 0 133.527267456054688 273.945465087890625 0
126 278 0 133.527267456054688 273.945465087890625 0
126 278 100 133.527267456054688 273.945465087890625 0
136 278 100 133.527267456054688 273.945465087890625 0
136 223 0 133.527267456054688 217.945449829101562 0
126 223 0 133.527267456054688 217.945449829101562 0
126 223 100 133.527267456054688 217.945449829101562 0
136 223 100 133.527267456054688 217.945449829101562 0
214 432 0 207.904754638671875 421.71429443359375 0
214 422 0 207.904754638671875 421.71429443359375 0
214 422 100 207.904754638671875 421.71429443359375 0
214 432 100 207.904754638671875 421.71429443359375 0
256 432 0 250.904754638671875 421.71429443359375 0
256 422 0 250.904754638671875 421.71429443359375 0
256 422 100 250.904754638671875 421.71429443359375 0
256 432 100 250.904754638671875 421.71429443359375 0
148 277 0 145.207550048828125 272.773590087890625 0
138 277 0 145.207550048828125 272.773590087890625 0
138 277 100 145.207550048828125 272.773590087890625 0
148 277 100 145.207550048828125 272.773590087890625 0
148 224 0 145.207550048828125 218.773590087890625 0
138 224 0 145.207550048828125 218.773590087890625 0
138 224 100 145.207550048828125 218.773590087890625 0
148 224 100 145.207550048828125 218.773590087890625 0
149 484 0 146.385971069335938 476.508758544921875 0
139 484 0 146.385971069335938 476.508758544921875 0
139 484 100 146.385971069335938 476.508758544921875 0
149 484 100 146.385971069335938 476.508758544921875 0
149 427 0 146.385971069335938 418.508758544921875 0
139 427 0 146.385971069335938 418.508758544921875 0
139 427 100 146.385971069335938 418.508758544921875 0
149 427 100 146.385971069335938 418.508758544921875 0
434 532 0 431.67913818359375 530.15509033203125 0
424 532 0 431.67913818359375 530.15509033203125 0
424 532 100 431.67913818359375 530.15509033203125 0
434 532 100 431.67913818359375 530.15509033203125 0
434 284 0 426.88525390625 278.344268798828125 0
424 284 0 426.88525390625 278.344268798828125 0
424 284 100 426.88525390625 278.344268798828125 0
434 284 100 426.88525390625 278.344268798828125 0
416 335 0 383 309.23077392578125 0
416 345 0 383 309.23077392578125 0
416 345 100 383 309.23077392578125 0
416 335 100 383 309.23077392578125 0
572 345 0 568.8551025390625 342.5 0
572 335 0 568.8551025390625 342.5 0
572 335 100 568.8551025390625 342.5 0
572 345 100 568.8551025390625 342.5 0
433 532 0 430.744781494140625 530.22918701171875 0
423 532 0 430.744781494140625 530.22918701171875 0
423 532 100 430.744781494140625 530.22918701171875 0
433 532 100 430.744781494140625 530.22918701171875 0
423 352 0 387.75 323.666656494140625 0
433 352 0 387.75 323.666656494140625 0
433 352 100 387.75 323.666656494140625 0
423 352 100 387.75 323.666656494140625 0
318 337 0 0 0 -1
318 327 0 0 0 -1
433 327 0 0 0 -1
423 337 0 0 0 -1
318 337 100 0 0 1
318 327 100 0 0 1
433 327 100 0 0 1
423 337 100 0 0 1
423 337 0 0 0 -1
433 327 0 0 0 -1
433 340 0 0 0 -1
423 340 0 0 0 -1
423 337 100 0 0 1
433 327 100 0 0 1
433 340 100 0 0 1
423 340 100 0 0 1
307 432 0 0 0 -1
307 422 0 0 0 -1
347 422 0 0 0 -1
347 432 0 0 0 -1
307 432 100 0 0 1
307 422 100 0 0 1
347 422 100 0 0 1
347 432 100 0 0 1
136 484 0 0 0 -1
126 484 0 0 0 -1
126 427 0 0 0 -1
136 427 0 0 0 -1
136 484 100 0 0 1
126 484 100 0 0 1
126 427 100 0 0 1
136 427 100 0 0 1
399 432 0 0 0 -1
399 422 0 0 0 -1
433 422 0 0 0 -1
423 432 0 0 0 -1
399 432 100 0 0 1
399 422 100 0 0 1
433 422 100 0 0 1
423 432 100 0 0 1
423 432 0 0 0 -1
433 422 0 0 0 -1
433 485 0 0 0 -1
423 485 0 0 0 -1
423 432 100 0 0 1
433 422 100 0 0 1
433 485 100 0 0 1
423 485 100 0 0 1
137 174 0 0 0 -1
127 164 0 0 0 -1
203 164 0 0 0 -1
203 174 0 0 0 -1
137 174 100 0 0 1
127 164 100 0 0 1
203 164 100 0 0 1
203 174 100 0 0 1
127 164 0 0 0 -1
137 174 0 0 0 -1
137 484 0 0 0 -1
127 484 0 0 0 -1
127 164 100 0 0 1
137 174 100 0 0 1
137 484 100 0 0 1
127 484 100 0 0 1
133 338 0 0 0 -1
133 328 0 0 0 -1
243 328 0 0 0 -1
243 338 0 0 0 -1
133 338 100 0 0 1
133 328 100 0 0 1
243 328 100 0 0 1
243 338 100 0 0 1
420 210 0 0 0 -1
410 210 0 0 0 -1
410 117 0 0 0 -1
420 117 0 0 0 -1
420 210 100 0 0 1
410 210 100 0 0 1
410 117 100 0 0 1
420 117 100 0 0 1
420 210 0 0 0 -1
410 210 0 0 0 -1
410 57 0 0 0 -1
420 57 0 0 0 -1
420 210 100 0 0 1
410 210 100 0 0 1
410 57 100 0 0 1
420 57 100 0 0 1
419 210 0 0 0 -1
409 210 0 0 0 -1
409 170 0 0 0 -1
419 170 0 0 0 -1
419 210 100 0 0 1
409 210 100 0 0 1
409 170 100 0 0 1
419 170 100 0 0 1
420 484 0 0 0 -1
410 484 0 0 0 -1
410 427 0 0 0 -1
420 427 0 0 0 -1
420 484 100 0 0 1
410 484 100 0 0 1
410 427 100 0 0 1
420 427 100 0 0 1
574 277 0 0 0 -1
574 267 0 0 0 -1
708 267 0 0 0 -1
708 277 0 0 0 -1
574 277 100 0 0 1
574 267 100 0 0 1
708 267 100 0 0 1
708 277 100 0 0 1
136 278 0 0 0 -1
126 278 0 0 0 -1
126 223 0 0 0 -1
136 223 0 0 0 -1
136 278 100 0 0 1
126 278 100 0 0 1
126 223 100 0 0 1
136 223 100 0 0 1
214 432 0 0 0 -1
214 422 0 0 0 -1
256 422 0 0 0 -1
256 432 0 0 0 -1
214 432 100 0 0 1
214 422 100 0 0 1
256 422 100 0 0 1
256 432 100 0 0 1
148 277 0 0 0 -1
138 277 0 0 0 -1
138 224 0 0 0 -1
148 224 0 0 0 -1
148 277 100 0 0 1
138 277 100 0 0 1
138 224 100 0 0 1
148 224 100 0 0 1
149 484 0 0 0 -1
139 484 0 0 0 -1
139 427 0 0 0 -1
149 427 0 0 0 -1
149 484 100 0 0 1
139 484 100 0 0 1
139 427 100 0 0 1
149 427 100 0 0 1
434 532 0 0 0 -1
424 532 0 0 0 -1
424 340 0 0 0 -1
434 345 0 0 0 -1
434 532 100 0 0 1
424 532 100 0 0 1
424 340 100 0 0 1
434 345 100 0 0 1
434 345 0 0 0 -1
424 340 0 0 0 -1
424 284 0 0 0 -1
434 284 0 0 0 -1
434 345 100 0 0 1
424 340 100 0 0 1
424 284 100 0 0 1
434 284 100 0 0 1
429 335 0 0 0 -1
434 345 0 0 0 -1
416 345 0 0 0 -1
416 335 0 0 0 -1
429 335 100 0 0 1
434 345 100 0 0 1
416 345 100 0 0 1
416 335 100 0 0 1
434 345 0 0 0 -1
429 335 0 0 0 -1
572 335 0 0 0 -1
572 345 0 0 0 -1
434 345 100 0 0 1
429 335 100 0 0 1
572 335 100 0 0 1
572 345 100 0 0 1
433 532 0 0 0 -1
423 532 0 0 0 -1
423 340 0 0 0 -1
433 340 0 0 0 -1
433 532 100 0 0 1
423 532 100 0 0 1
423 340 100 0 0 1
433 340 100 0 0 1
423 340 0 0 0 -1
433 340 0 0 0 -1
433 352 0 0 0 -1
423 352 0 0 0 -1
423 340 100 0 0 1
433 340 100 0 0 1
433 352 100 0 0 1
423 352 100 0 0 1
434 345 0 0 0 -1
434 345 0 0 0 -1
434 345 100 0 0 1
434 345 100 0 0 1
4 0 1 2 3
4 4 5 6 7
4 8 9 10 11
4 12 13 14 15
4 16 17 18 19
4 20 21 22 23
4 24 25 26 27
4 28 29 30 31
4 32 33 34 35
4 36 37 38 39
4 40 41 42 43
4 44 45 46 47
4 48 49 50 51
4 52 53 54 55
4 56 57 58 59
4 60 61 62 63
4 64 65 66 67
4 68 69 70 71
4 72 73 74 75
4 76 77 78 79
4 80 81 82 83
4 84 85 86 87
4 88 89 90 91
4 92 93 94 95
4 96 97 98 99
4 100 101 102 103
4 104 105 106 107
4 108 109 110 111
4 112 113 114 115
4 116 117 118 119
4 120 121 122 123
4 124 125 126 127
4 128 129 130 131
4 132 133 134 135
4 136 137 138 139
4 140 141 142 143
4 144 145 146 147
4 148 149 150 151
4 152 153 154 155
4 156 157 158 159
4 160 161 162 163
4 164 165 166 167
4 168 169 170 171
4 172 173 174 175
4 176 177 178 179
4 180 181 182 183
4 184 185 186 187
4 188 189 190 191
4 192 193 194 195
4 196 197 198 199
4 200 201 202 203
4 204 205 206 207
4 208 209 210 211
4 212 213 214 215
4 216 217 218 219
4 220 221 222 223
4 224 225 226 227
4 228 229 230 231
4 232 233 234 235
4 236 237 238 239
4 240 241 242 243
4 244 245 246 247
4 248 249 250 251
4 252 253 254 255
4 256 257 258 259
4 260 261 262 263
4 264 265 266 267
4 268 269 270 271
4 272 273 274 275
4 276 277 278 279
4 280 281 282 283
4 284 285 286 287
4 288 289 290 291
4 292 293 294 295
4 296 297 298 299
4 300 301 302 303
4 304 305 306 307
4 308 309 310 311
4 312 313 314 315
4 316 317 318 319
4 320 321 322 323
4 324 325 326 327
4 328 329 330 331
4 332 333 334 335
4 336 337 338 339
4 340 341 342 343
4 344 345 346 347
4 348 349 350 351
4 352 353 354 355
4 356 357 358 359
4 360 361 362 363
4 364 365 366 367
4 368 369 370 371
4 372 373 374 375
4 376 377 378 379
4 380 381 382 383
4 384 385 386 387
4 388 389 390 391
4 392 393 394 395
4 396 397 398 399
4 400 401 402 403
4 404 405 406 407
4 408 409 410 411
4 412 413 414 415
4 416 417 418 419
4 420 421 422 423
4 424 425 426 427
4 428 429 430 431
4 432 433 434 435
4 436 437 438 439
4 440 441 442 443
4 444 445 446 447
4 448 449 450 451
4 452 453 454 455
4 456 457 458 459
4 460 461 462 463
4 464 465 466 467
4 468 469 470 471
4 472 473 474 475
4 476 477 478 479
4 480 481 482 483
4 484 485 486 487
4 488 489 490 491
4 492 493 494 495
4 496 497 498 499
4 500 501 502 503
4 504 505 506 507
4 508 509 510 511
4 512 513 514 515
