ply
format ascii 1.0
element vertex 464
property float x
property float y
property float z
property float nx
property float ny
property float nz
element quads 116
property list uchar int vertex_indices
end_header
419 187 0 1 0 0
419 149 0 1 0 0
419 149 100 1 0 0
419 187 100 1 0 0
409 187 0 -1 -0 0
409 149 0 -1 -0 0
409 149 100 -1 -0 0
409 187 100 -1 -0 0
421 496 0 1 0 0
421 296 0 1 0 0
421 296 100 1 0 0
421 496 100 1 0 0
411 496 0 -1 -0 0
411 306 0 -1 -0 0
411 306 100 -1 -0 0
411 496 100 -1 -0 0
421 496 0 1 0 0
421 376 0 1 0 0
421 376 100 1 0 0
421 496 100 1 0 0
411 496 0 -1 -0 0
411 376 0 -1 -0 0
411 376 100 -1 -0 0
411 496 100 -1 -0 0
421 296 0 -0 -1 0
308 296 0 -0 -1 0
308 296 100 -0 -1 0
421 296 100 -0 -1 0
411 306 0 0 1 0
308 306 0 0 1 0
308 306 100 0 1 0
411 306 100 0 1 0
411 376 0 -1 0 0
411 425 0 -1 0 0
411 425 100 -1 0 0
411 376 100 -1 0 0
421 376 0 1 -0 0
421 425 0 1 -0 0
421 425 100 1 -0 0
421 376 100 1 -0 0
368 304 0 1 0 0
368 149 0 1 0 0
368 149 100 1 0 0
368 304 100 1 0 0
358 304 0 -1 -0 0
358 149 0 -1 -0 0
358 149 100 -1 -0 0
358 304 100 -1 -0 0
308 306 0 -0 1 0
505 306 0 -0 1 0
505 306 100 -0 1 0
308 306 100 -0 1 0
308 296 0 0 -1 0
505 296 0 0 -1 0
505 296 100 0 -1 0
308 296 100 0 -1 0
310 226 0 -0 1 0
365 226 0 -0 1 0
365 226 100 -0 1 0
310 226 100 -0 1 0
310 216 0 0 -1 0
365 216 0 0 -1 0
365 216 100 0 -1 0
310 216 100 0 -1 0
364 192 0 -0 1 0
416 192 0 -0 1 0
416 192 100 -0 1 0
364 192 100 -0 1 0
364 182 0 0 -1 0
416 182 0 0 -1 0
416 182 100 0 -1 0
364 182 100 0 -1 0
314 300 0 1 0 0
314 208 0 1 0 0
314 208 100 1 0 0
314 300 100 1 0 0
304 300 0 -1 -0 0
304 208 0 -1 -0 0
304 208 100 -1 -0 0
304 300 100 -1 -0 0
240 133 0 -0 1 0
299 133 0 -0 1 0
299 133 100 -0 1 0
240 133 100 -0 1 0
240 123 0 0 -1 0
289 123 0 0 -1 0
289 123 100 0 -1 0
240 123 100 0 -1 0
299 133 0 1 0 0
299 16 0 1 0 0
299 16 100 1 0 0
299 133 100 1 0 0
289 123 0 -1 -0 0
289 16 0 -1 -0 0
289 16 100 -1 -0 0
289 123 100 -1 -0 0
236 233 0 -0 1 0
298 233 0 -0 1 0
298 233 100 -0 1 0
236 233 100 -0 1 0
236 223 0 0 -1 0
298 223 0 0 -1 0
298 223 100 0 -1 0
236 223 100 0 -1 0
220 499 0 -0 1 0
252 499 0 -0 1 0
252 499 100 -0 1 0
220 499 100 -0 1 0
220 489 0 0 -1 0
252 489 0 0 -1 0
252 489 100 0 -1 0
220 489 100 0 -1 0
290 128 0 1 0 0
290 64 0 1 0 0
290 64 100 1 0 0
290 128 100 1 0 0
280 128 0 -1 -0 0
280 64 0 -1 -0 0
280 64 100 -1 -0 0
280 128 100 -1 -0 0
616 346 0 1 0 0
616 139 0 1 0 0
616 139 100 1 0 0
616 346 100 1 0 0
606 346 0 -1 -0 0
606 139 0 -1 -0 0
606 139 100 -1 -0 0
606 346 100 -1 -0 0
436 533 0 -0 1 0
462 533 0 -0 1 0
462 533 100 -0 1 0
436 533 100 -0 1 0
436 523 0 0 -1 0
462 523 0 0 -1 0
462 523 100 0 -1 0
436 523 100 0 -1 0
315 300 0 1 0 0
315 224 0 1 0 0
315 224 100 1 0 0
315 300 100 1 0 0
305 300 0 -1 -0 0
305 224 0 -1 -0 0
305 224 100 -1 -0 0
305 300 100 -1 -0 0
551 530 0 1 0 0
551 387 0 1 0 0
551 387 100 1 0 0
551 530 100 1 0 0
541 530 0 -1 -0 0
541 387 0 -1 -0 0
541 387 100 -1 -0 0
541 530 100 -1 -0 0
421 71 0 1 0 0
421 16 0 1 0 0
421 16 100 1 0 0
421 71 100 1 0 0
411 71 0 -1 -0 0
411 16 0 -1 -0 0
411 16 100 -1 -0 0
411 71 100 -1 -0 0
442 530 0 1 0 0
442 491 0 1 0 0
442 491 100 1 0 0
442 530 100 1 0 0
432 530 0 -1 -0 0
432 491 0 -1 -0 0
432 491 100 -1 -0 0
432 530 100 -1 -0 0
419 187 0 407.97369384765625 183.078948974609375 0
409 187 0 407.97369384765625 183.078948974609375 0
409 187 100 407.97369384765625 183.078948974609375 0
419 187 100 407.97369384765625 183.078948974609375 0
419 149 0 407.97369384765625 144.078948974609375 0
409 149 0 407.97369384765625 144.078948974609375 0
409 149 100 407.97369384765625 144.078948974609375 0
419 149 100 407.97369384765625 144.078948974609375 0
368 304 0 365.62579345703125 303.0386962890625 0
358 304 0 365.62579345703125 303.0386962890625 0
358 304 100 365.62579345703125 303.0386962890625 0
368 304 100 365.62579345703125 303.0386962890625 0
368 149 0 365.62579345703125 147.038711547851562 0
358 149 0 365.62579345703125 147.038711547851562 0
358 149 100 365.62579345703125 147.038711547851562 0
368 149 100 365.62579345703125 147.038711547851562 0
505 306 0 503.436553955078125 304.446685791015625 0
505 296 0 503.436553955078125 304.446685791015625 0
505 296 100 503.436553955078125 304.446685791015625 0
505 306 100 503.436553955078125 304.446685791015625 0
310 226 0 303.3636474609375 221.890914916992188 0
310 216 0 303.3636474609375 221.890914916992188 0
310 216 100 303.3636474609375 221.890914916992188 0
310 226 100 303.3636474609375 221.890914916992188 0
365 226 0 359.3636474609375 221.890914916992188 0
365 216 0 359.3636474609375 221.890914916992188 0
365 216 100 359.3636474609375 221.890914916992188 0
365 226 100 359.3636474609375 221.890914916992188 0
364 192 0 356 188.307693481445312 0
364 182 0 356 188.307693481445312 0
364 182 100 356 188.307693481445312 0
364 192 100 356 188.307693481445312 0
416 192 0 409 188.307693481445312 0
416 182 0 409 188.307693481445312 0
416 182 100 409 188.307693481445312 0
416 192 100 409 188.307693481445312 0
314 300 0 310.586944580078125 297.7391357421875 0
304 300 0 310.586944580078125 297.7391357421875 0
304 300 100 310.586944580078125 297.7391357421875 0
314 300 100 310.586944580078125 297.7391357421875 0
314 208 0 310.586944580078125 204.7391357421875 0
304 208 0 310.586944580078125 204.7391357421875 0
304 208 100 310.586944580078125 204.7391357421875 0
314 208 100 310.586944580078125 204.7391357421875 0
240 133 0 234.932205200195312 130.745758056640625 0
240 123 0 234.932205200195312 130.745758056640625 0
240 123 100 234.932205200195312 130.745758056640625 0
240 133 100 234.932205200195312 130.745758056640625 0
236 233 0 231.19354248046875 229.241928100585938 0
236 223 0 231.19354248046875 229.241928100585938 0
236 223 100 231.19354248046875 229.241928100585938 0
236 233 100 231.19354248046875 229.241928100585938 0
298 233 0 294.19354248046875 229.241928100585938 0
298 223 0 294.19354248046875 229.241928100585938 0
298 223 100 294.19354248046875 229.241928100585938 0
298 233 100 294.19354248046875 229.241928100585938 0
220 499 0 212.125 483.40625 0
220 489 0 212.125 483.40625 0
220 489 100 212.125 483.40625 0
220 499 100 212.125 483.40625 0
252 499 0 245.125 483.40625 0
252 489 0 245.125 483.40625 0
252 489 100 245.125 483.40625 0
252 499 100 245.125 483.40625 0
411 425 0 402.61224365234375 417.3265380859375 0
421 425 0 402.61224365234375 417.3265380859375 0
421 425 100 402.61224365234375 417.3265380859375 0
411 425 100 402.61224365234375 417.3265380859375 0
290 128 0 285.46875 127 0
280 128 0 285.46875 127 0
280 128 100 285.46875 127 0
290 128 100 285.46875 127 0
290 64 0 285.46875 62 0
280 64 0 285.46875 62 0
280 64 100 285.46875 62 0
290 64 100 285.46875 62 0
616 346 0 613.024169921875 345.3284912109375 0
606 346 0 613.024169921875 345.3284912109375 0
606 346 100 613.024169921875 345.3284912109375 0
616 346 100 613.024169921875 345.3284912109375 0
616 139 0 613.024169921875 137.328506469726562 0
606 139 0 613.024169921875 137.328506469726562 0
606 139 100 613.024169921875 137.328506469726562 0
616 139 100 613.024169921875 137.328506469726562 0
299 16 0 296.4444580078125 14.8632478713989258 0
289 16 0 296.4444580078125 14.8632478713989258 0
289 16 100 296.4444580078125 14.8632478713989258 0
299 16 100 296.4444580078125 14.8632478713989258 0
436 533 0 418.23077392578125 512.5 0
436 523 0 418.23077392578125 512.5 0
436 523 100 418.23077392578125 512.5 0
436 533 100 418.23077392578125 512.5 0
462 533 0 445.23077392578125 512.5 0
462 523 0 445.23077392578125 512.5 0
462 523 100 445.23077392578125 512.5 0
462 533 100 445.23077392578125 512.5 0
315 300 0 310.855255126953125 297.052642822265625 0
305 300 0 310.855255126953125 297.052642822265625 0
305 300 100 310.855255126953125 297.052642822265625 0
315 300 100 310.855255126953125 297.052642822265625 0
315 224 0 310.855255126953125 220.052627563476562 0
305 224 0 310.855255126953125 220.052627563476562 0
305 224 100 310.855255126953125 220.052627563476562 0
315 224 100 310.855255126953125 220.052627563476562 0
551 530 0 547.1468505859375 527.293701171875 0
541 530 0 547.1468505859375 527.293701171875 0
541 530 100 547.1468505859375 527.293701171875 0
551 530 100 547.1468505859375 527.293701171875 0
551 387 0 547.1468505859375 383.293701171875 0
541 387 0 547.1468505859375 383.293701171875 0
541 387 100 547.1468505859375 383.293701171875 0
551 387 100 547.1468505859375 383.293701171875 0
421 71 0 413.345458984375 70.7090911865234375 0
411 71 0 413.345458984375 70.7090911865234375 0
411 71 100 413.345458984375 70.7090911865234375 0
421 71 100 413.345458984375 70.7090911865234375 0
421 16 0 413.345458984375 14.7090911865234375 0
411 16 0 413.345458984375 14.7090911865234375 0
411 16 100 413.345458984375 14.7090911865234375 0
421 16 100 413.345458984375 14.7090911865234375 0
442 530 0 430.666656494140625 517.4102783203125 0
432 530 0 430.666656494140625 517.4102783203125 0
432 530 100 430.666656494140625 517.4102783203125 0
442 530 100 430.666656494140625 517.4102783203125 0
442 491 0 430.666656494140625 477.410247802734375 0
432 491 0 430.666656494140625 477.410247802734375 0
432 491 100 430.666656494140625 477.410247802734375 0
442 491 100 430.666656494140625 477.410247802734375 0
419 187 0 0 0 -1
409 187 0 0 0 -1
409 149 0 0 0 -1
419 149 0 0 0 -1
419 187 100 0 0 1
409 187 100 0 0 1
409 149 100 0 0 1
419 149 100 0 0 1
421 496 0 0 0 -1
411 496 0 0 0 -1
411 306 0 0 0 -1
421 296 0 0 0 -1
421 496 100 0 0 1
411 496 100 0 0 1
411 306 100 0 0 1
421 296 100 0 0 1
421 496 0 0 0 -1
411 496 0 0 0 -1
411 376 0 0 0 -1
421 376 0 0 0 -1
421 496 100 0 0 1
411 496 100 0 0 1
411 376 100 0 0 1
421 376 100 0 0 1
421 296 0 0 0 -1
411 306 0 0 0 -1
308 306 0 0 0 -1
308 296 0 0 0 -1
421 296 100 0 0 1
411 306 100 0 0 1
308 306 100 0 0 1
308 296 100 0 0 1
411 376 0 0 0 -1
421 376 0 0 0 -1
421 425 0 0 0 -1
411 425 0 0 0 -1
411 376 100 0 0 1
421 376 100 0 0 1
421 425 100 0 0 1
411 425 100 0 0 1
368 304 0 0 0 -1
358 304 0 0 0 -1
358 149 0 0 0 -1
368 149 0 0 0 -1
368 304 100 0 0 1
358 304 100 0 0 1
358 149 100 0 0 1
368 149 100 0 0 1
308 306 0 0 0 -1
308 296 0 0 0 -1
505 296 0 0 0 -1
505 306 0 0 0 -1
308 306 100 0 0 1
308 296 100 0 0 1
505 296 100 0 0 1
505 306 100 0 0 1
310 226 0 0 0 -1
310 216 0 0 0 -1
365 216 0 0 0 -1
365 226 0 0 0 -1
310 226 100 0 0 1
310 216 100 0 0 1
365 216 100 0 0 1
365 226 100 0 0 1
364 192 0 0 0 -1
364 182 0 0 0 -1
416 182 0 0 0 -1
416 192 0 0 0 -1
364 192 100 0 0 1
364 182 100 0 0 1
416 182 100 0 0 1
416 192 100 0 0 1
314 300 0 0 0 -1
304 300 0 0 0 -1
304 208 0 0 0 -1
314 208 0 0 0 -1
314 300 100 0 0 1
304 300 100 0 0 1
304 208 100 0 0 1
314 208 100 0 0 1
240 133 0 0 0 -1
240 123 0 0 0 -1
289 123 0 0 0 -1
299 133 0 0 0 -1
240 133 100 0 0 1
240 123 100 0 0 1
289 123 100 0 0 1
299 133 100 0 0 1
299 133 0 0 0 -1
289 123 0 0 0 -1
289 16 0 0 0 -1
299 16 0 0 0 -1
299 133 100 0 0 1
289 123 100 0 0 1
289 16 100 0 0 1
299 16 100 0 0 1
236 233 0 0 0 -1
236 223 0 0 0 -1
298 223 0 0 0 -1
298 233 0 0 0 -1
236 233 100 0 0 1
236 223 100 0 0 1
298 223 100 0 0 1
298 233 100 0 0 1
220 499 0 0 0 -1
220 489 0 0 0 -1
252 489 0 0 0 -1
252 499 0 0 0 -1
220 499 100 0 0 1
220 489 100 0 0 1
252 489 100 0 0 1
252 499 100 0 0 1
290 128 0 0 0 -1
280 128 0 0 0 -1
280 64 0 0 0 -1
290 64 0 0 0 -1
290 128 100 0 0 1
280 128 100 0 0 1
280 64 100 0 0 1
290 64 100 0 0 1
616 346 0 0 0 -1
606 346 0 0 0 -1
606 139 0 0 0 -1
616 139 0 0 0 -1
616 346 100 0 0 1
606 346 100 0 0 1
606 139 100 0 0 1
616 139 100 0 0 1
436 533 0 0 0 -1
436 523 0 0 0 -1
462 523 0 0 0 -1
462 533 0 0 0 -1
436 533 100 0 0 1
436 523 100 0 0 1
462 523 100 0 0 1
462 533 100 0 0 1
315 300 0 0 0 -1
305 300 0 0 0 -1
305 224 0 0 0 -1
315 224 0 0 0 -1
315 300 100 0 0 1
305 300 100 0 0 1
305 224 100 0 0 1
315 224 100 0 0 1
551 530 0 0 0 -1
541 530 0 0 0 -1
541 387 0 0 0 -1
551 387 0 0 0 -1
551 530 100 0 0 1
541 530 100 0 0 1
541 387 100 0 0 1
551 387 100 0 0 1
421 71 0 0 0 -1
411 71 0 0 0 -1
411 16 0 0 0 -1
421 16 0 0 0 -1
421 71 100 0 0 1
411 71 100 0 0 1
411 16 100 0 0 1
421 16 100 0 0 1
442 530 0 0 0 -1
432 530 0 0 0 -1
432 491 0 0 0 -1
442 491 0 0 0 -1
442 530 100 0 0 1
432 530 100 0 0 1
432 491 100 0 0 1
442 491 100 0 0 1
4 0 1 2 3
4 4 5 6 7
4 8 9 10 11
4 12 13 14 15
4 16 17 18 19
4 20 21 22 23
4 24 25 26 27
4 28 29 30 31
4 32 33 34 35
4 36 37 38 39
4 40 41 42 43
4 44 45 46 47
4 48 49 50 51
4 52 53 54 55
4 56 57 58 59
4 60 61 62 63
4 64 65 66 67
4 68 69 70 71
4 72 73 74 75
4 76 77 78 79
4 80 81 82 83
4 84 85 86 87
4 88 89 90 91
4 92 93 94 95
4 96 97 98 99
4 100 101 102 103
4 104 105 106 107
4 108 109 110 111
4 112 113 114 115
4 116 117 118 119
4 120 121 122 123
4 124 125 126 127
4 128 129 130 131
4 132 133 134 135
4 136 137 138 139
4 140 141 142 143
4 144 145 146 147
4 148 149 150 151
4 152 153 154 155
4 156 157 158 159
4 160 161 162 163
4 164 165 166 167
4 168 169 170 171
4 172 173 174 175
4 176 177 178 179
4 180 181 182 183
4 184 185 186 187
4 188 189 190 191
4 192 193 194 195
4 196 197 198 199
4 200 201 202 203
4 204 205 206 207
4 208 209 210 211
4 212 213 214 215
4 216 217 218 219
4 220 221 222 223
4 224 225 226 227
4 228 229 230 231
4 232 233 234 235
4 236 237 238 239
4 240 241 242 243
4 244 245 246 247
4 248 249 250 251
4 252 253 254 255
4 256 257 258 259
4 260 261 262 263
4 264 265 266 267
4 268 269 270 271
4 272 273 274 275
4 276 277 278 279
4 280 281 282 283
4 284 285 286 287
4 288 289 290 291
4 292 293 294 295
4 296 297 298 299
4 300 301 302 303
4 304 305 306 307
4 308 309 310 311
4 312 313 314 315
4 316 317 318 319
4 320 321 322 323
4 324 325 326 327
4 328 329 330 331
4 332 333 334 335
4 336 337 338 339
4 340 341 342 343
4 344 345 346 347
4 348 349 350 351
4 352 353 354 355
4 356 357 358 359
4 360 361 362 363
4 364 365 366 367
4 368 369 370 371
4 372 373 374 375
4 376 377 378 379
4 380 381 382 383
4 384 385 386 387
4 388 389 390 391
4 392 393 394 395
4 396 397 398 399
4 400 401 402 403
4 404 405 406 407
4 408 409 410 411
4 412 413 414 415
4 416 417 418 419
4 420 421 422 423
4 424 425 426 427
4 428 429 430 431
4 432 433 434 435
4 436 437 438 439
4 440 441 442 443
4 444 445 446 447
4 448 449 450 451
4 452 453 454 455
4 456 457 458 459
4 460 461 462 463
