ply
format ascii 1.0
element vertex 312
property float x
property float y
property float z
property float nx
property float ny
property float nz
element quads 76
property list uchar int vertex_indices
end_header
185 429 0 1 0 0
185 125 0 1 0 0
185 125 100 1 0 0
185 429 100 1 0 0
175 439 0 -1 -0 0
175 120 0 -1 -0 0
175 120 100 -1 -0 0
175 439 100 -1 -0 0
175 439 0 -0 1 0
201 439 0 -0 1 0
201 439 100 -0 1 0
175 439 100 -0 1 0
185 429 0 0 -1 0
201 429 0 0 -1 0
201 429 100 0 -1 0
185 429 100 0 -1 0
175 115 0 -1 0 0
175 266 0 -1 0 0
175 266 100 -1 0 0
175 115 100 -1 0 0
185 120 0 1 -0 0
185 266 0 1 -0 0
185 266 100 1 -0 0
185 120 100 1 -0 0
185 125 0 -0 1 0
424 125 0 -0 1 0
424 125 100 -0 1 0
185 125 100 -0 1 0
175 115 0 0 -1 0
424 115 0 0 -1 0
424 115 100 0 -1 0
175 115 100 0 -1 0
635 435 0 1 0 0
635 362 0 1 0 0
635 362 100 1 0 0
635 435 100 1 0 0
625 435 0 -1 -0 0
625 362 0 -1 -0 0
625 362 100 -1 -0 0
625 435 100 -1 -0 0
376 435 0 1 0 0
376 230 0 1 0 0
376 230 100 1 0 0
376 435 100 1 0 0
366 435 0 -1 -0 0
366 230 0 -1 -0 0
366 230 100 -1 -0 0
366 435 100 -1 -0 0
257 235 0 -0 1 0
413 235 0 -0 1 0
413 235 100 -0 1 0
257 235 100 -0 1 0
257 225 0 0 -1 0
418 225 0 0 -1 0
418 225 100 0 -1 0
257 225 100 0 -1 0
423 225 0 -0 -1 0
366 225 0 -0 -1 0
366 225 100 -0 -1 0
423 225 100 -0 -1 0
418 235 0 0 1 0
366 235 0 0 1 0
366 235 100 0 1 0
418 235 100 0 1 0
413 235 0 -1 0 0
413 304 0 -1 0 0
413 304 100 -1 0 0
413 235 100 -1 0 0
423 225 0 1 -0 0
423 304 0 1 -0 0
423 304 100 1 -0 0
423 225 100 1 -0 0
307 229 0 1 0 0
307 123 0 1 0 0
307 123 100 1 0 0
307 229 100 1 0 0
297 229 0 -1 -0 0
297 123 0 -1 -0 0
297 123 100 -1 -0 0
297 229 100 -1 -0 0
307 229 0 1 0 0
307 194 0 1 0 0
307 194 100 1 0 0
307 229 100 1 0 0
297 229 0 -1 -0 0
297 194 0 -1 -0 0
297 194 100 -1 -0 0
297 229 100 -1 -0 0
264 158 0 1 0 0
264 122 0 1 0 0
264 122 100 1 0 0
264 158 100 1 0 0
254 158 0 -1 -0 0
254 122 0 -1 -0 0
254 122 100 -1 -0 0
254 158 100 -1 -0 0
254 122 0 -1 0 0
254 263 0 -1 0 0
254 263 100 -1 0 0
254 122 100 -1 0 0
264 122 0 1 -0 0
264 263 0 1 -0 0
264 263 100 1 -0 0
264 122 100 1 -0 0
631 284 0 1 0 0
631 113 0 1 0 0
631 113 100 1 0 0
631 284 100 1 0 0
621 284 0 -1 -0 0
621 123 0 -1 -0 0
621 123 100 -1 -0 0
621 284 100 -1 -0 0
631 113 0 -0 -1 0
472 113 0 -0 -1 0
472 113 100 -0 -1 0
631 113 100 -0 -1 0
621 123 0 0 1 0
472 123 0 0 1 0
472 123 100 0 1 0
621 123 100 0 1 0
635 435 0 626.3013916015625 430.041107177734375 0
625 435 0 626.3013916015625 430.041107177734375 0
625 435 100 626.3013916015625 430.041107177734375 0
635 435 100 626.3013916015625 430.041107177734375 0
635 362 0 626.3013916015625 356.041107177734375 0
625 362 0 626.3013916015625 356.041107177734375 0
625 362 100 626.3013916015625 356.041107177734375 0
635 362 100 626.3013916015625 356.041107177734375 0
376 435 0 374.165863037109375 433.8780517578125 0
366 435 0 374.165863037109375 433.8780517578125 0
366 435 100 374.165863037109375 433.8780517578125 0
376 435 100 374.165863037109375 433.8780517578125 0
376 230 0 374.165863037109375 227.8780517578125 0
366 230 0 374.165863037109375 227.8780517578125 0
366 230 100 374.165863037109375 227.8780517578125 0
376 230 100 374.165863037109375 227.8780517578125 0
257 235 0 254.352569580078125 233.49359130859375 0
257 225 0 254.352569580078125 233.49359130859375 0
257 225 100 254.352569580078125 233.49359130859375 0
257 235 100 254.352569580078125 233.49359130859375 0
307 123 0 304.103759765625 120.839622497558594 0
297 123 0 304.103759765625 120.839622497558594 0
297 123 100 304.103759765625 120.839622497558594 0
307 123 100 304.103759765625 120.839622497558594 0
201 439 0 194.26922607421875 422.115386962890625 0
201 429 0 194.26922607421875 422.115386962890625 0
201 429 100 194.26922607421875 422.115386962890625 0
201 439 100 194.26922607421875 422.115386962890625 0
366 225 0 358.578948974609375 221.052627563476562 0
366 235 0 358.578948974609375 221.052627563476562 0
366 235 100 358.578948974609375 221.052627563476562 0
366 225 100 358.578948974609375 221.052627563476562 0
264 158 0 256.666656494140625 154.611114501953125 0
254 158 0 256.666656494140625 154.611114501953125 0
254 158 100 256.666656494140625 154.611114501953125 0
264 158 100 256.666656494140625 154.611114501953125 0
307 194 0 298.22857666015625 187.457138061523438 0
297 194 0 298.22857666015625 187.457138061523438 0
297 194 100 298.22857666015625 187.457138061523438 0
307 194 100 298.22857666015625 187.457138061523438 0
631 284 0 627.3099365234375 283.33917236328125 0
621 284 0 627.3099365234375 283.33917236328125 0
621 284 100 627.3099365234375 283.33917236328125 0
631 284 100 627.3099365234375 283.33917236328125 0
175 266 0 173.841064453125 265.2384033203125 0
185 266 0 173.841064453125 265.2384033203125 0
185 266 100 173.841064453125 265.2384033203125 0
175 266 100 173.841064453125 265.2384033203125 0
424 125 0 423.2259521484375 124.47698974609375 0
424 115 0 423.2259521484375 124.47698974609375 0
424 115 100 423.2259521484375 124.47698974609375 0
424 125 100 423.2259521484375 124.47698974609375 0
254 263 0 252.198577880859375 262.134765625 0
264 263 0 252.198577880859375 262.134765625 0
264 263 100 252.198577880859375 262.134765625 0
254 263 100 252.198577880859375 262.134765625 0
413 304 0 407.014495849609375 300.594207763671875 0
423 304 0 407.014495849609375 300.594207763671875 0
423 304 100 407.014495849609375 300.594207763671875 0
413 304 100 407.014495849609375 300.594207763671875 0
472 113 0 468.03143310546875 112.289306640625 0
472 123 0 468.03143310546875 112.289306640625 0
472 123 100 468.03143310546875 112.289306640625 0
472 113 100 468.03143310546875 112.289306640625 0
185 429 0 0 0 -1
175 439 0 0 0 -1
175 120 0 0 0 -1
185 125 0 0 0 -1
185 429 100 0 0 1
175 439 100 0 0 1
175 120 100 0 0 1
185 125 100 0 0 1
175 439 0 0 0 -1
185 429 0 0 0 -1
201 429 0 0 0 -1
201 439 0 0 0 -1
175 439 100 0 0 1
185 429 100 0 0 1
201 429 100 0 0 1
201 439 100 0 0 1
175 115 0 0 0 -1
185 120 0 0 0 -1
185 266 0 0 0 -1
175 266 0 0 0 -1
175 115 100 0 0 1
185 120 100 0 0 1
185 266 100 0 0 1
175 266 100 0 0 1
185 125 0 0 0 -1
175 115 0 0 0 -1
424 115 0 0 0 -1
424 125 0 0 0 -1
185 125 100 0 0 1
175 115 100 0 0 1
424 115 100 0 0 1
424 125 100 0 0 1
635 435 0 0 0 -1
625 435 0 0 0 -1
625 362 0 0 0 -1
635 362 0 0 0 -1
635 435 100 0 0 1
625 435 100 0 0 1
625 362 100 0 0 1
635 362 100 0 0 1
376 435 0 0 0 -1
366 435 0 0 0 -1
366 230 0 0 0 -1
376 230 0 0 0 -1
376 435 100 0 0 1
366 435 100 0 0 1
366 230 100 0 0 1
376 230 100 0 0 1
257 235 0 0 0 -1
257 225 0 0 0 -1
418 225 0 0 0 -1
413 235 0 0 0 -1
257 235 100 0 0 1
257 225 100 0 0 1
418 225 100 0 0 1
413 235 100 0 0 1
423 225 0 0 0 -1
418 235 0 0 0 -1
366 235 0 0 0 -1
366 225 0 0 0 -1
423 225 100 0 0 1
418 235 100 0 0 1
366 235 100 0 0 1
366 225 100 0 0 1
413 235 0 0 0 -1
423 225 0 0 0 -1
423 304 0 0 0 -1
413 304 0 0 0 -1
413 235 100 0 0 1
423 225 100 0 0 1
423 304 100 0 0 1
413 304 100 0 0 1
307 229 0 0 0 -1
297 229 0 0 0 -1
297 123 0 0 0 -1
307 123 0 0 0 -1
307 229 100 0 0 1
297 229 100 0 0 1
297 123 100 0 0 1
307 123 100 0 0 1
307 229 0 0 0 -1
297 229 0 0 0 -1
297 194 0 0 0 -1
307 194 0 0 0 -1
307 229 100 0 0 1
297 229 100 0 0 1
297 194 100 0 0 1
307 194 100 0 0 1
264 158 0 0 0 -1
254 158 0 0 0 -1
254 122 0 0 0 -1
264 122 0 0 0 -1
264 158 100 0 0 1
254 158 100 0 0 1
254 122 100 0 0 1
264 122 100 0 0 1
254 122 0 0 0 -1
264 122 0 0 0 -1
264 263 0 0 0 -1
254 263 0 0 0 -1
254 122 100 0 0 1
264 122 100 0 0 1
264 263 100 0 0 1
254 263 100 0 0 1
631 284 0 0 0 -1
621 284 0 0 0 -1
621 123 0 0 0 -1
631 113 0 0 0 -1
631 284 100 0 0 1
621 284 100 0 0 1
621 123 100 0 0 1
631 113 100 0 0 1
631 113 0 0 0 -1
621 123 0 0 0 -1
472 123 0 0 0 -1
472 113 0 0 0 -1
631 113 100 0 0 1
621 123 100 0 0 1
472 123 100 0 0 1
472 113 100 0 0 1
175 115 0 0 0 -1
185 125 0 0 0 -1
175 115 100 0 0 1
185 125 100 0 0 1
423 225 0 0 0 -1
413 235 0 0 0 -1
423 225 100 0 0 1
413 235 100 0 0 1
4 0 1 2 3
4 4 5 6 7
4 8 9 10 11
4 12 13 14 15
4 16 17 18 19
4 20 21 22 23
4 24 25 26 27
4 28 29 30 31
4 32 33 34 35
4 36 37 38 39
4 40 41 42 43
4 44 45 46 47
4 48 49 50 51
4 52 53 54 55
4 56 57 58 59
4 60 61 62 63
4 64 65 66 67
4 68 69 70 71
4 72 73 74 75
4 76 77 78 79
4 80 81 82 83
4 84 85 86 87
4 88 89 90 91
4 92 93 94 95
4 96 97 98 99
4 100 101 102 103
4 104 105 106 107
4 108 109 110 111
4 112 113 114 115
4 116 117 118 119
4 120 121 122 123
4 124 125 126 127
4 128 129 130 131
4 132 133 134 135
4 136 137 138 139
4 140 141 142 143
4 144 145 146 147
4 148 149 150 151
4 152 153 154 155
4 156 157 158 159
4 160 161 162 163
4 164 165 166 167
4 168 169 170 171
4 172 173 174 175
4 176 177 178 179
4 180 181 182 183
4 184 185 186 187
4 188 189 190 191
4 192 193 194 195
4 196 197 198 199
4 200 201 202 203
4 204 205 206 207
4 208 209 210 211
4 212 213 214 215
4 216 217 218 219
4 220 221 222 223
4 224 225 226 227
4 228 229 230 231
4 232 233 234 235
4 236 237 238 239
4 240 241 242 243
4 244 245 246 247
4 248 249 250 251
4 252 253 254 255
4 256 257 258 259
4 260 261 262 263
4 264 265 266 267
4 268 269 270 271
4 272 273 274 275
4 276 277 278 279
4 280 281 282 283
4 284 285 286 287
4 288 289 290 291
4 292 293 294 295
4 296 297 298 299
4 300 301 302 303
