ply
format ascii 1.0
element vertex 408
property float x
property float y
property float z
property float nx
property float ny
property float nz
element quads 102
property list uchar int vertex_indices
end_header
265 448 0 1 0 0
265 158 0 1 0 0
265 158 100 1 0 0
265 448 100 1 0 0
255 448 0 -1 -0 0
255 158 0 -1 -0 0
255 158 100 -1 -0 0
255 448 100 -1 -0 0
255 158 0 -1 0 0
255 282 0 -1 0 0
255 282 100 -1 0 0
255 158 100 -1 0 0
265 158 0 1 -0 0
265 282 0 1 -0 0
265 282 100 1 -0 0
265 158 100 1 -0 0
637 448 0 1 0 0
637 158 0 1 0 0
637 158 100 1 0 0
637 448 100 1 0 0
627 448 0 -1 -0 0
627 158 0 -1 -0 0
627 158 100 -1 -0 0
627 448 100 -1 -0 0
513 280 0 1 0 0
513 157 0 1 0 0
513 157 100 1 0 0
513 280 100 1 0 0
503 280 0 -1 -0 0
503 157 0 -1 -0 0
503 157 100 -1 -0 0
503 280 100 -1 -0 0
503 449 0 1 0 0
503 318 0 1 0 0
503 318 100 1 0 0
503 449 100 1 0 0
493 449 0 -1 -0 0
493 318 0 -1 -0 0
493 318 100 -1 -0 0
493 449 100 -1 -0 0
493 318 0 -1 0 0
493 357 0 -1 0 0
493 357 100 -1 0 0
493 318 100 -1 0 0
503 318 0 1 -0 0
503 357 0 1 -0 0
503 357 100 1 -0 0
503 318 100 1 -0 0
638 448 0 1 0 0
638 330 0 1 0 0
638 330 100 1 0 0
638 448 100 1 0 0
628 448 0 -1 -0 0
628 330 0 -1 -0 0
628 330 100 -1 -0 0
628 448 100 -1 -0 0
467 369 0 1 0 0
467 318 0 1 0 0
467 318 100 1 0 0
467 369 100 1 0 0
457 369 0 -1 -0 0
457 318 0 -1 -0 0
457 318 100 -1 -0 0
457 369 100 -1 -0 0
352 162 0 1 0 0
352 136 0 1 0 0
352 136 100 1 0 0
352 162 100 1 0 0
342 162 0 -1 -0 0
342 136 0 -1 -0 0
342 136 100 -1 -0 0
342 162 100 -1 -0 0
582 307 0 -0 1 0
630 307 0 -0 1 0
630 307 100 -0 1 0
582 307 100 -0 1 0
582 297 0 0 -1 0
630 297 0 0 -1 0
630 297 100 0 -1 0
582 297 100 0 -1 0
549 406 0 1 0 0
549 371 0 1 0 0
549 371 100 1 0 0
549 406 100 1 0 0
539 406 0 -1 -0 0
539 371 0 -1 -0 0
539 371 100 -1 -0 0
539 406 100 -1 -0 0
549 326 0 1 0 0
549 278 0 1 0 0
549 278 100 1 0 0
549 326 100 1 0 0
539 326 0 -1 -0 0
539 278 0 -1 -0 0
539 278 100 -1 -0 0
539 326 100 -1 -0 0
477 275 0 1 0 0
477 258 0 1 0 0
477 258 100 1 0 0
477 275 100 1 0 0
467 285 0 -1 -0 0
467 258 0 -1 -0 0
467 258 100 -1 -0 0
467 285 100 -1 -0 0
467 285 0 -0 1 0
580 285 0 -0 1 0
580 285 100 -0 1 0
467 285 100 -0 1 0
477 275 0 0 -1 0
580 275 0 0 -1 0
580 275 100 0 -1 0
477 275 100 0 -1 0
451 162 0 1 0 0
451 136 0 1 0 0
451 136 100 1 0 0
451 162 100 1 0 0
441 162 0 -1 -0 0
441 136 0 -1 -0 0
441 136 100 -1 -0 0
441 162 100 -1 -0 0
414 204 0 1 0 0
414 162 0 1 0 0
414 162 100 1 0 0
414 204 100 1 0 0
404 204 0 -1 -0 0
404 162 0 -1 -0 0
404 162 100 -1 -0 0
404 204 100 -1 -0 0
233 390 0 1 0 0
233 338 0 1 0 0
233 338 100 1 0 0
233 390 100 1 0 0
223 390 0 -1 -0 0
223 338 0 -1 -0 0
223 338 100 -1 -0 0
223 390 100 -1 -0 0
481 452 0 -0 1 0
528 452 0 -0 1 0
528 452 100 -0 1 0
481 452 100 -0 1 0
481 442 0 0 -1 0
528 442 0 0 -1 0
528 442 100 0 -1 0
481 442 100 0 -1 0
265 448 0 264.086212158203125 447.455169677734375 0
255 448 0 264.086212158203125 447.455169677734375 0
255 448 100 264.086212158203125 447.455169677734375 0
265 448 100 264.086212158203125 447.455169677734375 0
637 448 0 634.803466796875 447.455169677734375 0
627 448 0 634.803466796875 447.455169677734375 0
627 448 100 634.803466796875 447.455169677734375 0
637 448 100 634.803466796875 447.455169677734375 0
637 158 0 634.803466796875 156.455169677734375 0
627 158 0 634.803466796875 156.455169677734375 0
627 158 100 634.803466796875 156.455169677734375 0
637 158 100 634.803466796875 156.455169677734375 0
513 280 0 508.829254150390625 278.72357177734375 0
503 280 0 508.829254150390625 278.72357177734375 0
503 280 100 508.829254150390625 278.72357177734375 0
513 280 100 508.829254150390625 278.72357177734375 0
513 157 0 508.829254150390625 154.72357177734375 0
503 157 0 508.829254150390625 154.72357177734375 0
503 157 100 508.829254150390625 154.72357177734375 0
513 157 100 508.829254150390625 154.72357177734375 0
503 449 0 499.160308837890625 446.572509765625 0
493 449 0 499.160308837890625 446.572509765625 0
493 449 100 499.160308837890625 446.572509765625 0
503 449 100 499.160308837890625 446.572509765625 0
638 448 0 632.59320068359375 445.203399658203125 0
628 448 0 632.59320068359375 445.203399658203125 0
628 448 100 632.59320068359375 445.203399658203125 0
638 448 100 632.59320068359375 445.203399658203125 0
638 330 0 632.59320068359375 326.203399658203125 0
628 330 0 632.59320068359375 326.203399658203125 0
628 330 100 632.59320068359375 326.203399658203125 0
638 330 100 632.59320068359375 326.203399658203125 0
467 369 0 457.8431396484375 362.76470947265625 0
457 369 0 457.8431396484375 362.76470947265625 0
457 369 100 457.8431396484375 362.76470947265625 0
467 369 100 457.8431396484375 362.76470947265625 0
467 318 0 457.8431396484375 310.76470947265625 0
457 318 0 457.8431396484375 310.76470947265625 0
457 318 100 457.8431396484375 310.76470947265625 0
467 318 100 457.8431396484375 310.76470947265625 0
493 357 0 480.358978271484375 348.846160888671875 0
503 357 0 480.358978271484375 348.846160888671875 0
503 357 100 480.358978271484375 348.846160888671875 0
493 357 100 480.358978271484375 348.846160888671875 0
255 282 0 252.94354248046875 280.725799560546875 0
265 282 0 252.94354248046875 280.725799560546875 0
265 282 100 252.94354248046875 280.725799560546875 0
255 282 100 252.94354248046875 280.725799560546875 0
352 162 0 338.4615478515625 156.76922607421875 0
342 162 0 338.4615478515625 156.76922607421875 0
342 162 100 338.4615478515625 156.76922607421875 0
352 162 100 338.4615478515625 156.76922607421875 0
352 136 0 338.4615478515625 129.76922607421875 0
342 136 0 338.4615478515625 129.76922607421875 0
342 136 100 338.4615478515625 129.76922607421875 0
352 136 100 338.4615478515625 129.76922607421875 0
582 307 0 568.875 300.604156494140625 0
582 297 0 568.875 300.604156494140625 0
582 297 100 568.875 300.604156494140625 0
582 307 100 568.875 300.604156494140625 0
630 307 0 617.875 300.604156494140625 0
630 297 0 617.875 300.604156494140625 0
630 297 100 617.875 300.604156494140625 0
630 307 100 617.875 300.604156494140625 0
549 406 0 533.31427001953125 395.399993896484375 0
539 406 0 533.31427001953125 395.399993896484375 0
539 406 100 533.31427001953125 395.399993896484375 0
549 406 100 533.31427001953125 395.399993896484375 0
549 371 0 533.31427001953125 359.399993896484375 0
539 371 0 533.31427001953125 359.399993896484375 0
539 371 100 533.31427001953125 359.399993896484375 0
549 371 100 533.31427001953125 359.399993896484375 0
549 326 0 537.5625 320.208343505859375 0
539 326 0 537.5625 320.208343505859375 0
539 326 100 537.5625 320.208343505859375 0
549 326 100 537.5625 320.208343505859375 0
549 278 0 537.5625 271.208343505859375 0
539 278 0 537.5625 271.208343505859375 0
539 278 100 537.5625 271.208343505859375 0
549 278 100 537.5625 271.208343505859375 0
477 258 0 448.941162109375 241.823532104492188 0
467 258 0 448.941162109375 241.823532104492188 0
467 258 100 448.941162109375 241.823532104492188 0
477 258 100 448.941162109375 241.823532104492188 0
451 162 0 433.653839111328125 156.76922607421875 0
441 162 0 433.653839111328125 156.76922607421875 0
441 162 100 433.653839111328125 156.76922607421875 0
451 162 100 433.653839111328125 156.76922607421875 0
451 136 0 433.653839111328125 129.76922607421875 0
441 136 0 433.653839111328125 129.76922607421875 0
441 136 100 433.653839111328125 129.76922607421875 0
451 136 100 433.653839111328125 129.76922607421875 0
580 285 0 575.86724853515625 282.477874755859375 0
580 275 0 575.86724853515625 282.477874755859375 0
580 275 100 575.86724853515625 282.477874755859375 0
580 285 100 575.86724853515625 282.477874755859375 0
414 204 0 404.142852783203125 200.142852783203125 0
404 204 0 404.142852783203125 200.142852783203125 0
404 204 100 404.142852783203125 200.142852783203125 0
414 204 100 404.142852783203125 200.142852783203125 0
414 162 0 404.142852783203125 157.142852783203125 0
404 162 0 404.142852783203125 157.142852783203125 0
404 162 100 404.142852783203125 157.142852783203125 0
414 162 100 404.142852783203125 157.142852783203125 0
233 390 0 228.51922607421875 383.5 0
223 390 0 228.51922607421875 383.5 0
223 390 100 228.51922607421875 383.5 0
233 390 100 228.51922607421875 383.5 0
233 338 0 228.51922607421875 330.5 0
223 338 0 228.51922607421875 330.5 0
223 338 100 228.51922607421875 330.5 0
233 338 100 228.51922607421875 330.5 0
481 452 0 469.765960693359375 442.382965087890625 0
481 442 0 469.765960693359375 442.382965087890625 0
481 442 100 469.765960693359375 442.382965087890625 0
481 452 100 469.765960693359375 442.382965087890625 0
528 452 0 517.76593017578125 442.382965087890625 0
528 442 0 517.76593017578125 442.382965087890625 0
528 442 100 517.76593017578125 442.382965087890625 0
528 452 100 517.76593017578125 442.382965087890625 0
265 448 0 0 0 -1
255 448 0 0 0 -1
255 158 0 0 0 -1
265 158 0 0 0 -1
265 448 100 0 0 1
255 448 100 0 0 1
255 158 100 0 0 1
265 158 100 0 0 1
255 158 0 0 0 -1
265 158 0 0 0 -1
265 282 0 0 0 -1
255 282 0 0 0 -1
255 158 100 0 0 1
265 158 100 0 0 1
265 282 100 0 0 1
255 282 100 0 0 1
637 448 0 0 0 -1
627 448 0 0 0 -1
627 158 0 0 0 -1
637 158 0 0 0 -1
637 448 100 0 0 1
627 448 100 0 0 1
627 158 100 0 0 1
637 158 100 0 0 1
513 280 0 0 0 -1
503 280 0 0 0 -1
503 157 0 0 0 -1
513 157 0 0 0 -1
513 280 100 0 0 1
503 280 100 0 0 1
503 157 100 0 0 1
513 157 100 0 0 1
503 449 0 0 0 -1
493 449 0 0 0 -1
493 318 0 0 0 -1
503 318 0 0 0 -1
503 449 100 0 0 1
493 449 100 0 0 1
493 318 100 0 0 1
503 318 100 0 0 1
493 318 0 0 0 -1
503 318 0 0 0 -1
503 357 0 0 0 -1
493 357 0 0 0 -1
493 318 100 0 0 1
503 318 100 0 0 1
503 357 100 0 0 1
493 357 100 0 0 1
638 448 0 0 0 -1
628 448 0 0 0 -1
628 330 0 0 0 -1
638 330 0 0 0 -1
638 448 100 0 0 1
628 448 100 0 0 1
628 330 100 0 0 1
638 330 100 0 0 1
467 369 0 0 0 -1
457 369 0 0 0 -1
457 318 0 0 0 -1
467 318 0 0 0 -1
467 369 100 0 0 1
457 369 100 0 0 1
457 318 100 0 0 1
467 318 100 0 0 1
352 162 0 0 0 -1
342 162 0 0 0 -1
342 136 0 0 0 -1
352 136 0 0 0 -1
352 162 100 0 0 1
342 162 100 0 0 1
342 136 100 0 0 1
352 136 100 0 0 1
582 307 0 0 0 -1
582 297 0 0 0 -1
630 297 0 0 0 -1
630 307 0 0 0 -1
582 307 100 0 0 1
582 297 100 0 0 1
630 297 100 0 0 1
630 307 100 0 0 1
549 406 0 0 0 -1
539 406 0 0 0 -1
539 371 0 0 0 -1
549 371 0 0 0 -1
549 406 100 0 0 1
539 406 100 0 0 1
539 371 100 0 0 1
549 371 100 0 0 1
549 326 0 0 0 -1
539 326 0 0 0 -1
539 278 0 0 0 -1
549 278 0 0 0 -1
549 326 100 0 0 1
539 326 100 0 0 1
539 278 100 0 0 1
549 278 100 0 0 1
477 275 0 0 0 -1
467 285 0 0 0 -1
467 258 0 0 0 -1
477 258 0 0 0 -1
477 275 100 0 0 1
467 285 100 0 0 1
467 258 100 0 0 1
477 258 100 0 0 1
467 285 0 0 0 -1
477 275 0 0 0 -1
580 275 0 0 0 -1
580 285 0 0 0 -1
467 285 100 0 0 1
477 275 100 0 0 1
580 275 100 0 0 1
580 285 100 0 0 1
451 162 0 0 0 -1
441 162 0 0 0 -1
441 136 0 0 0 -1
451 136 0 0 0 -1
451 162 100 0 0 1
441 162 100 0 0 1
441 136 100 0 0 1
451 136 100 0 0 1
414 204 0 0 0 -1
404 204 0 0 0 -1
404 162 0 0 0 -1
414 162 0 0 0 -1
414 204 100 0 0 1
404 204 100 0 0 1
404 162 100 0 0 1
414 162 100 0 0 1
233 390 0 0 0 -1
223 390 0 0 0 -1
223 338 0 0 0 -1
233 338 0 0 0 -1
233 390 100 0 0 1
223 390 100 0 0 1
223 338 100 0 0 1
233 338 100 0 0 1
481 452 0 0 0 -1
481 442 0 0 0 -1
528 442 0 0 0 -1
528 452 0 0 0 -1
481 452 100 0 0 1
481 442 100 0 0 1
528 442 100 0 0 1
528 452 100 0 0 1
4 0 1 2 3
4 4 5 6 7
4 8 9 10 11
4 12 13 14 15
4 16 17 18 19
4 20 21 22 23
4 24 25 26 27
4 28 29 30 31
4 32 33 34 35
4 36 37 38 39
4 40 41 42 43
4 44 45 46 47
4 48 49 50 51
4 52 53 54 55
4 56 57 58 59
4 60 61 62 63
4 64 65 66 67
4 68 69 70 71
4 72 73 74 75
4 76 77 78 79
4 80 81 82 83
4 84 85 86 87
4 88 89 90 91
4 92 93 94 95
4 96 97 98 99
4 100 101 102 103
4 104 105 106 107
4 108 109 110 111
4 112 113 114 115
4 116 117 118 119
4 120 121 122 123
4 124 125 126 127
4 128 129 130 131
4 132 133 134 135
4 136 137 138 139
4 140 141 142 143
4 144 145 146 147
4 148 149 150 151
4 152 153 154 155
4 156 157 158 159
4 160 161 162 163
4 164 165 166 167
4 168 169 170 171
4 172 173 174 175
4 176 177 178 179
4 180 181 182 183
4 184 185 186 187
4 188 189 190 191
4 192 193 194 195
4 196 197 198 199
4 200 201 202 203
4 204 205 206 207
4 208 209 210 211
4 212 213 214 215
4 216 217 218 219
4 220 221 222 223
4 224 225 226 227
4 228 229 230 231
4 232 233 234 235
4 236 237 238 239
4 240 241 242 243
4 244 245 246 247
4 248 249 250 251
4 252 253 254 255
4 256 257 258 259
4 260 261 262 263
4 264 265 266 267
4 268 269 270 271
4 272 273 274 275
4 276 277 278 279
4 280 281 282 283
4 284 285 286 287
4 288 289 290 291
4 292 293 294 295
4 296 297 298 299
4 300 301 302 303
4 304 305 306 307
4 308 309 310 311
4 312 313 314 315
4 316 317 318 319
4 320 321 322 323
4 324 325 326 327
4 328 329 330 331
4 332 333 334 335
4 336 337 338 339
4 340 341 342 343
4 344 345 346 347
4 348 349 350 351
4 352 353 354 355
4 356 357 358 359
4 360 361 362 363
4 364 365 366 367
4 368 369 370 371
4 372 373 374 375
4 376 377 378 379
4 380 381 382 383
4 384 385 386 387
4 388 389 390 391
4 392 393 394 395
4 396 397 398 399
4 400 401 402 403
4 404 405 406 407
