ply
format ascii 1.0
element vertex 376
property float x
property float y
property float z
property float nx
property float ny
property float nz
element quads 93
property list uchar int vertex_indices
end_header
190 319 0 1 0 0
190 255 0 1 0 0
190 255 100 1 0 0
190 319 100 1 0 0
180 319 0 -1 -0 0
180 255 0 -1 -0 0
180 255 100 -1 -0 0
180 319 100 -1 -0 0
555 240 0 1 0 0
555 196 0 1 0 0
555 196 100 1 0 0
555 240 100 1 0 0
545 240 0 -1 -0 0
545 196 0 -1 -0 0
545 196 100 -1 -0 0
545 240 100 -1 -0 0
281 262 0 1 0 0
281 188 0 1 0 0
281 188 100 1 0 0
281 262 100 1 0 0
271 262 0 -1 -0 0
271 188 0 -1 -0 0
271 188 100 -1 -0 0
271 262 100 -1 -0 0
681 247 0 1 0 0
681 118 0 1 0 0
681 118 100 1 0 0
681 247 100 1 0 0
671 237 0 -1 -0 0
671 118 0 -1 -0 0
671 118 100 -1 -0 0
671 237 100 -1 -0 0
671 237 0 -0 -1 0
550 237 0 -0 -1 0
550 237 100 -0 -1 0
671 237 100 -0 -1 0
681 247 0 0 1 0
550 247 0 0 1 0
550 247 100 0 1 0
681 247 100 0 1 0
393 90 0 1 0 0
393 37 0 1 0 0
393 37 100 1 0 0
393 90 100 1 0 0
383 90 0 -1 -0 0
383 37 0 -1 -0 0
383 37 100 -1 -0 0
383 90 100 -1 -0 0
550 202 0 -0 1 0
676 202 0 -0 1 0
676 202 100 -0 1 0
550 202 100 -0 1 0
550 192 0 0 -1 0
676 192 0 0 -1 0
676 192 100 0 -1 0
550 192 100 0 -1 0
676 192 0 -0 -1 0
549 192 0 -0 -1 0
549 192 100 -0 -1 0
676 192 100 -0 -1 0
676 202 0 0 1 0
554 202 0 0 1 0
554 202 100 0 1 0
676 202 100 0 1 0
157 106 0 1 0 0
157 52 0 1 0 0
157 52 100 1 0 0
157 106 100 1 0 0
147 106 0 -1 -0 0
147 52 0 -1 -0 0
147 52 100 -1 -0 0
147 106 100 -1 -0 0
148 298 0 -0 1 0
184 298 0 -0 1 0
184 298 100 -0 1 0
148 298 100 -0 1 0
148 288 0 0 -1 0
184 288 0 0 -1 0
184 288 100 0 -1 0
148 288 100 0 -1 0
500 294 0 1 0 0
500 262 0 1 0 0
500 262 100 1 0 0
500 294 100 1 0 0
490 294 0 -1 -0 0
490 262 0 -1 -0 0
490 262 100 -1 -0 0
490 294 100 -1 -0 0
393 230 0 1 0 0
393 162 0 1 0 0
393 162 100 1 0 0
393 230 100 1 0 0
383 230 0 -1 -0 0
383 162 0 -1 -0 0
383 162 100 -1 -0 0
383 230 100 -1 -0 0
155 294 0 1 0 0
155 256 0 1 0 0
155 256 100 1 0 0
155 294 100 1 0 0
145 294 0 -1 -0 0
145 256 0 -1 -0 0
145 256 100 -1 -0 0
145 294 100 -1 -0 0
554 296 0 1 0 0
554 197 0 1 0 0
554 197 100 1 0 0
554 296 100 1 0 0
544 296 0 -1 -0 0
544 197 0 -1 -0 0
544 197 100 -1 -0 0
544 296 100 -1 -0 0
554 202 0 1 0 0
554 118 0 1 0 0
554 118 100 1 0 0
554 202 100 1 0 0
544 197 0 -1 -0 0
544 118 0 -1 -0 0
544 118 100 -1 -0 0
544 197 100 -1 -0 0
549 192 0 -0 -1 0
540 192 0 -0 -1 0
540 192 100 -0 -1 0
549 192 100 -0 -1 0
554 202 0 0 1 0
540 202 0 0 1 0
540 202 100 0 1 0
554 202 100 0 1 0
544 197 0 -1 0 0
544 240 0 -1 0 0
544 240 100 -1 0 0
544 197 100 -1 0 0
554 202 0 1 -0 0
554 240 0 1 -0 0
554 240 100 1 -0 0
554 202 100 1 -0 0
190 319 0 187.03125 315.015625 0
180 319 0 187.03125 315.015625 0
180 319 100 187.03125 315.015625 0
190 319 100 187.03125 315.015625 0
190 255 0 187.03125 250.015625 0
180 255 0 187.03125 250.015625 0
180 255 100 187.03125 250.015625 0
190 255 100 187.03125 250.015625 0
555 240 0 542.3863525390625 235.545455932617188 0
545 240 0 542.3863525390625 235.545455932617188 0
545 240 100 542.3863525390625 235.545455932617188 0
555 240 100 542.3863525390625 235.545455932617188 0
555 196 0 542.3863525390625 190.545455932617188 0
545 196 0 542.3863525390625 190.545455932617188 0
545 196 100 542.3863525390625 190.545455932617188 0
555 196 100 542.3863525390625 190.545455932617188 0
281 262 0 277.20269775390625 259.45947265625 0
271 262 0 277.20269775390625 259.45947265625 0
271 262 100 277.20269775390625 259.45947265625 0
281 262 100 277.20269775390625 259.45947265625 0
281 188 0 277.20269775390625 184.459457397460938 0
271 188 0 277.20269775390625 184.459457397460938 0
271 188 100 277.20269775390625 184.459457397460938 0
281 188 100 277.20269775390625 184.459457397460938 0
681 118 0 675.720947265625 116.085273742675781 0
671 118 0 675.720947265625 116.085273742675781 0
671 118 100 675.720947265625 116.085273742675781 0
681 118 100 675.720947265625 116.085273742675781 0
393 90 0 385.58489990234375 89.3018875122070312 0
383 90 0 385.58489990234375 89.3018875122070312 0
383 90 100 385.58489990234375 89.3018875122070312 0
393 90 100 385.58489990234375 89.3018875122070312 0
393 37 0 385.58489990234375 35.3018875122070312 0
383 37 0 385.58489990234375 35.3018875122070312 0
383 37 100 385.58489990234375 35.3018875122070312 0
393 37 100 385.58489990234375 35.3018875122070312 0
550 202 0 544.63494873046875 200.396820068359375 0
550 192 0 544.63494873046875 200.396820068359375 0
550 192 100 544.63494873046875 200.396820068359375 0
550 202 100 544.63494873046875 200.396820068359375 0
157 106 0 154.09259033203125 105.037040710449219 0
147 106 0 154.09259033203125 105.037040710449219 0
147 106 100 154.09259033203125 105.037040710449219 0
157 106 100 154.09259033203125 105.037040710449219 0
157 52 0 154.09259033203125 50.0370368957519531 0
147 52 0 154.09259033203125 50.0370368957519531 0
147 52 100 154.09259033203125 50.0370368957519531 0
157 52 100 154.09259033203125 50.0370368957519531 0
148 298 0 142.888885498046875 289.72222900390625 0
148 288 0 142.888885498046875 289.72222900390625 0
148 288 100 142.888885498046875 289.72222900390625 0
148 298 100 142.888885498046875 289.72222900390625 0
184 298 0 179.888885498046875 289.72222900390625 0
184 288 0 179.888885498046875 289.72222900390625 0
184 288 100 179.888885498046875 289.72222900390625 0
184 298 100 179.888885498046875 289.72222900390625 0
500 294 0 484.375 285.8125 0
490 294 0 484.375 285.8125 0
490 294 100 484.375 285.8125 0
500 294 100 484.375 285.8125 0
500 262 0 484.375 252.8125 0
490 262 0 484.375 252.8125 0
490 262 100 484.375 252.8125 0
500 262 100 484.375 252.8125 0
393 230 0 387.2205810546875 227.617645263671875 0
383 230 0 387.2205810546875 227.617645263671875 0
383 230 100 387.2205810546875 227.617645263671875 0
393 230 100 387.2205810546875 227.617645263671875 0
393 162 0 387.2205810546875 158.617645263671875 0
383 162 0 387.2205810546875 158.617645263671875 0
383 162 100 387.2205810546875 158.617645263671875 0
393 162 100 387.2205810546875 158.617645263671875 0
550 237 0 544.45452880859375 235.04132080078125 0
550 247 0 544.45452880859375 235.04132080078125 0
550 247 100 544.45452880859375 235.04132080078125 0
550 237 100 544.45452880859375 235.04132080078125 0
155 294 0 150.921051025390625 287.263153076171875 0
145 294 0 150.921051025390625 287.263153076171875 0
145 294 100 150.921051025390625 287.263153076171875 0
155 294 100 150.921051025390625 287.263153076171875 0
155 256 0 150.921051025390625 248.263153076171875 0
145 256 0 150.921051025390625 248.263153076171875 0
145 256 100 150.921051025390625 248.263153076171875 0
155 256 100 150.921051025390625 248.263153076171875 0
554 296 0 548.404052734375 294.010101318359375 0
544 296 0 548.404052734375 294.010101318359375 0
544 296 100 548.404052734375 294.010101318359375 0
554 296 100 548.404052734375 294.010101318359375 0
554 118 0 547.40478515625 115.595237731933594 0
544 118 0 547.40478515625 115.595237731933594 0
544 118 100 547.40478515625 115.595237731933594 0
554 118 100 547.40478515625 115.595237731933594 0
540 192 0 479 170.666671752929688 0
540 202 0 479 170.666671752929688 0
540 202 100 479 170.666671752929688 0
540 192 100 479 170.666671752929688 0
544 240 0 531.34881591796875 235.418609619140625 0
554 240 0 531.34881591796875 235.418609619140625 0
554 240 100 531.34881591796875 235.418609619140625 0
544 240 100 531.34881591796875 235.418609619140625 0
190 319 0 0 0 -1
180 319 0 0 0 -1
180 255 0 0 0 -1
190 255 0 0 0 -1
190 319 100 0 0 1
180 319 100 0 0 1
180 255 100 0 0 1
190 255 100 0 0 1
555 240 0 0 0 -1
545 240 0 0 0 -1
545 196 0 0 0 -1
555 196 0 0 0 -1
555 240 100 0 0 1
545 240 100 0 0 1
545 196 100 0 0 1
555 196 100 0 0 1
281 262 0 0 0 -1
271 262 0 0 0 -1
271 188 0 0 0 -1
281 188 0 0 0 -1
281 262 100 0 0 1
271 262 100 0 0 1
271 188 100 0 0 1
281 188 100 0 0 1
681 247 0 0 0 -1
671 237 0 0 0 -1
671 118 0 0 0 -1
681 118 0 0 0 -1
681 247 100 0 0 1
671 237 100 0 0 1
671 118 100 0 0 1
681 118 100 0 0 1
671 237 0 0 0 -1
681 247 0 0 0 -1
550 247 0 0 0 -1
550 237 0 0 0 -1
671 237 100 0 0 1
681 247 100 0 0 1
550 247 100 0 0 1
550 237 100 0 0 1
393 90 0 0 0 -1
383 90 0 0 0 -1
383 37 0 0 0 -1
393 37 0 0 0 -1
393 90 100 0 0 1
383 90 100 0 0 1
383 37 100 0 0 1
393 37 100 0 0 1
550 202 0 0 0 -1
550 192 0 0 0 -1
676 192 0 0 0 -1
676 202 0 0 0 -1
550 202 100 0 0 1
550 192 100 0 0 1
676 192 100 0 0 1
676 202 100 0 0 1
676 192 0 0 0 -1
676 202 0 0 0 -1
554 202 0 0 0 -1
549 192 0 0 0 -1
676 192 100 0 0 1
676 202 100 0 0 1
554 202 100 0 0 1
549 192 100 0 0 1
157 106 0 0 0 -1
147 106 0 0 0 -1
147 52 0 0 0 -1
157 52 0 0 0 -1
157 106 100 0 0 1
147 106 100 0 0 1
147 52 100 0 0 1
157 52 100 0 0 1
148 298 0 0 0 -1
148 288 0 0 0 -1
184 288 0 0 0 -1
184 298 0 0 0 -1
148 298 100 0 0 1
148 288 100 0 0 1
184 288 100 0 0 1
184 298 100 0 0 1
500 294 0 0 0 -1
490 294 0 0 0 -1
490 262 0 0 0 -1
500 262 0 0 0 -1
500 294 100 0 0 1
490 294 100 0 0 1
490 262 100 0 0 1
500 262 100 0 0 1
393 230 0 0 0 -1
383 230 0 0 0 -1
383 162 0 0 0 -1
393 162 0 0 0 -1
393 230 100 0 0 1
383 230 100 0 0 1
383 162 100 0 0 1
393 162 100 0 0 1
155 294 0 0 0 -1
145 294 0 0 0 -1
145 256 0 0 0 -1
155 256 0 0 0 -1
155 294 100 0 0 1
145 294 100 0 0 1
145 256 100 0 0 1
155 256 100 0 0 1
554 296 0 0 0 -1
544 296 0 0 0 -1
544 197 0 0 0 -1
554 197 0 0 0 -1
554 296 100 0 0 1
544 296 100 0 0 1
544 197 100 0 0 1
554 197 100 0 0 1
554 202 0 0 0 -1
544 197 0 0 0 -1
544 118 0 0 0 -1
554 118 0 0 0 -1
554 202 100 0 0 1
544 197 100 0 0 1
544 118 100 0 0 1
554 118 100 0 0 1
549 192 0 0 0 -1
554 202 0 0 0 -1
540 202 0 0 0 -1
540 192 0 0 0 -1
549 192 100 0 0 1
554 202 100 0 0 1
540 202 100 0 0 1
540 192 100 0 0 1
544 197 0 0 0 -1
554 202 0 0 0 -1
554 240 0 0 0 -1
544 240 0 0 0 -1
544 197 100 0 0 1
554 202 100 0 0 1
554 240 100 0 0 1
544 240 100 0 0 1
554 202 0 0 0 -1
554 202 0 0 0 -1
554 202 100 0 0 1
554 202 100 0 0 1
4 0 1 2 3
4 4 5 6 7
4 8 9 10 11
4 12 13 14 15
4 16 17 18 19
4 20 21 22 23
4 24 25 26 27
4 28 29 30 31
4 32 33 34 35
4 36 37 38 39
4 40 41 42 43
4 44 45 46 47
4 48 49 50 51
4 52 53 54 55
4 56 57 58 59
4 60 61 62 63
4 64 65 66 67
4 68 69 70 71
4 72 73 74 75
4 76 77 78 79
4 80 81 82 83
4 84 85 86 87
4 88 89 90 91
4 92 93 94 95
4 96 97 98 99
4 100 101 102 103
4 104 105 106 107
4 108 109 110 111
4 112 113 114 115
4 116 117 118 119
4 120 121 122 123
4 124 125 126 127
4 128 129 130 131
4 132 133 134 135
4 136 137 138 139
4 140 141 142 143
4 144 145 146 147
4 148 149 150 151
4 152 153 154 155
4 156 157 158 159
4 160 161 162 163
4 164 165 166 167
4 168 169 170 171
4 172 173 174 175
4 176 177 178 179
4 180 181 182 183
4 184 185 186 187
4 188 189 190 191
4 192 193 194 195
4 196 197 198 199
4 200 201 202 203
4 204 205 206 207
4 208 209 210 211
4 212 213 214 215
4 216 217 218 219
4 220 221 222 223
4 224 225 226 227
4 228 229 230 231
4 232 233 234 235
4 236 237 238 239
4 240 241 242 243
4 244 245 246 247
4 248 249 250 251
4 252 253 254 255
4 256 257 258 259
4 260 261 262 263
4 264 265 266 267
4 268 269 270 271
4 272 273 274 275
4 276 277 278 279
4 280 281 282 283
4 284 285 286 287
4 288 289 290 291
4 292 293 294 295
4 296 297 298 299
4 300 301 302 303
4 304 305 306 307
4 308 309 310 311
4 312 313 314 315
4 316 317 318 319
4 320 321 322 323
4 324 325 326 327
4 328 329 330 331
4 332 333 334 335
4 336 337 338 339
4 340 341 342 343
4 344 345 346 347
4 348 349 350 351
4 352 353 354 355
4 356 357 358 359
4 360 361 362 363
4 364 365 366 367
4 368 369 370 371
