ply
format ascii 1.0
element vertex 404
property float x
property float y
property float z
property float nx
property float ny
property float nz
element quads 100
property list uchar int vertex_indices
end_header
452 214 0 1 0 0
452 154 0 1 0 0
452 154 100 1 0 0
452 214 100 1 0 0
442 214 0 -1 -0 0
442 154 0 -1 -0 0
442 154 100 -1 -0 0
442 214 100 -1 -0 0
533 453 0 -0 1 0
616 453 0 -0 1 0
616 453 100 -0 1 0
533 453 100 -0 1 0
533 443 0 0 -1 0
616 443 0 0 -1 0
616 443 100 0 -1 0
533 443 100 0 -1 0
504 218 0 -0 1 0
616 218 0 -0 1 0
616 218 100 -0 1 0
504 218 100 -0 1 0
504 208 0 0 -1 0
616 208 0 0 -1 0
616 208 100 0 -1 0
504 208 100 0 -1 0
623 38 0 1 0 0
623 0 0 1 0 0
623 0 100 1 0 0
623 38 100 1 0 0
613 38 0 -1 -0 0
613 0 0 -1 -0 0
613 0 100 -1 -0 0
613 38 100 -1 -0 0
613 0 0 -1 0 0
613 452 0 -1 0 0
613 452 100 -1 0 0
613 0 100 -1 0 0
623 0 0 1 -0 0
623 452 0 1 -0 0
623 452 100 1 -0 0
623 0 100 1 -0 0
410 443 0 1 0 0
410 260 0 1 0 0
410 260 100 1 0 0
410 443 100 1 0 0
400 443 0 -1 -0 0
400 260 0 -1 -0 0
400 260 100 -1 -0 0
400 443 100 -1 -0 0
400 260 0 -1 0 0
400 452 0 -1 0 0
400 452 100 -1 0 0
400 260 100 -1 0 0
410 260 0 1 -0 0
410 452 0 1 -0 0
410 452 100 1 -0 0
410 260 100 1 -0 0
508 281 0 -0 1 0
544 281 0 -0 1 0
544 281 100 -0 1 0
508 281 100 -0 1 0
508 271 0 0 -1 0
544 271 0 0 -1 0
544 271 100 0 -1 0
508 271 100 0 -1 0
408 282 0 -0 1 0
458 282 0 -0 1 0
458 282 100 -0 1 0
408 282 100 -0 1 0
408 272 0 0 -1 0
458 272 0 0 -1 0
458 272 100 0 -1 0
408 272 100 0 -1 0
405 98 0 -0 1 0
446 98 0 -0 1 0
446 98 100 -0 1 0
405 98 100 -0 1 0
405 88 0 0 -1 0
446 88 0 0 -1 0
446 88 100 0 -1 0
405 88 100 0 -1 0
194 235 0 -0 1 0
269 235 0 -0 1 0
269 235 100 -0 1 0
194 235 100 -0 1 0
194 225 0 0 -1 0
269 225 0 0 -1 0
269 225 100 0 -1 0
194 225 100 0 -1 0
408 301 0 -0 1 0
455 301 0 -0 1 0
455 301 100 -0 1 0
408 301 100 -0 1 0
408 291 0 0 -1 0
455 291 0 0 -1 0
455 291 100 0 -1 0
408 291 100 0 -1 0
195 452 0 1 0 0
195 0 0 1 0 0
195 0 100 1 0 0
195 452 100 1 0 0
185 452 0 -1 -0 0
185 0 0 -1 -0 0
185 0 100 -1 -0 0
185 452 100 -1 -0 0
410 174 0 1 0 0
410 86 0 1 0 0
410 86 100 1 0 0
410 174 100 1 0 0
400 174 0 -1 -0 0
400 86 0 -1 -0 0
400 86 100 -1 -0 0
400 174 100 -1 -0 0
452 101 0 1 0 0
452 10 0 1 0 0
452 10 100 1 0 0
452 101 100 1 0 0
442 101 0 -1 -0 0
442 5 0 -1 -0 0
442 5 100 -1 -0 0
442 101 100 -1 -0 0
452 10 0 1 0 0
452 0 0 1 0 0
452 0 100 1 0 0
452 10 100 1 0 0
442 5 0 -1 -0 0
442 0 0 -1 -0 0
442 0 100 -1 -0 0
442 5 100 -1 -0 0
447 0 0 -0 -1 0
300 0 0 -0 -1 0
300 0 100 -0 -1 0
447 0 100 -0 -1 0
452 10 0 0 1 0
300 10 0 0 1 0
300 10 100 0 1 0
452 10 100 0 1 0
452 10 0 -0 1 0
504 10 0 -0 1 0
504 10 100 -0 1 0
452 10 100 -0 1 0
447 0 0 0 -1 0
504 0 0 0 -1 0
504 0 100 0 -1 0
447 0 100 0 -1 0
452 214 0 444.4666748046875 211.433334350585938 0
442 214 0 444.4666748046875 211.433334350585938 0
442 214 100 444.4666748046875 211.433334350585938 0
452 214 100 444.4666748046875 211.433334350585938 0
452 154 0 444.4666748046875 150.433334350585938 0
442 154 0 444.4666748046875 150.433334350585938 0
442 154 100 444.4666748046875 150.433334350585938 0
452 154 100 444.4666748046875 150.433334350585938 0
533 453 0 525.57830810546875 447.54217529296875 0
533 443 0 525.57830810546875 447.54217529296875 0
533 443 100 525.57830810546875 447.54217529296875 0
533 453 100 525.57830810546875 447.54217529296875 0
616 453 0 609.57830810546875 447.54217529296875 0
616 443 0 609.57830810546875 447.54217529296875 0
616 443 100 609.57830810546875 447.54217529296875 0
616 453 100 609.57830810546875 447.54217529296875 0
504 218 0 498.5 216.053573608398438 0
504 208 0 498.5 216.053573608398438 0
504 208 100 498.5 216.053573608398438 0
504 218 100 498.5 216.053573608398438 0
616 218 0 611.5 216.053573608398438 0
616 208 0 611.5 216.053573608398438 0
616 208 100 611.5 216.053573608398438 0
616 218 100 611.5 216.053573608398438 0
623 38 0 606.60528564453125 38 0
613 38 0 606.60528564453125 38 0
613 38 100 606.60528564453125 38 0
623 38 100 606.60528564453125 38 0
410 443 0 407.759552001953125 441.5792236328125 0
400 443 0 407.759552001953125 441.5792236328125 0
400 443 100 407.759552001953125 441.5792236328125 0
410 443 100 407.759552001953125 441.5792236328125 0
508 281 0 492.888885498046875 273.1944580078125 0
508 271 0 492.888885498046875 273.1944580078125 0
508 271 100 492.888885498046875 273.1944580078125 0
508 281 100 492.888885498046875 273.1944580078125 0
544 281 0 529.888916015625 273.1944580078125 0
544 271 0 529.888916015625 273.1944580078125 0
544 271 100 529.888916015625 273.1944580078125 0
544 281 100 529.888916015625 273.1944580078125 0
408 282 0 398.839996337890625 276.3599853515625 0
408 272 0 398.839996337890625 276.3599853515625 0
408 272 100 398.839996337890625 276.3599853515625 0
408 282 100 398.839996337890625 276.3599853515625 0
458 282 0 449.839996337890625 276.3599853515625 0
458 272 0 449.839996337890625 276.3599853515625 0
458 272 100 449.839996337890625 276.3599853515625 0
458 282 100 449.839996337890625 276.3599853515625 0
405 98 0 394.1219482421875 95.6097564697265625 0
405 88 0 394.1219482421875 95.6097564697265625 0
405 88 100 394.1219482421875 95.6097564697265625 0
405 98 100 394.1219482421875 95.6097564697265625 0
446 98 0 436.1219482421875 95.6097564697265625 0
446 88 0 436.1219482421875 95.6097564697265625 0
446 88 100 436.1219482421875 95.6097564697265625 0
446 98 100 436.1219482421875 95.6097564697265625 0
194 235 0 190.413330078125 231.866668701171875 0
194 225 0 190.413330078125 231.866668701171875 0
194 225 100 190.413330078125 231.866668701171875 0
194 235 100 190.413330078125 231.866668701171875 0
269 235 0 266.413330078125 231.866668701171875 0
269 225 0 266.413330078125 231.866668701171875 0
269 225 100 266.413330078125 231.866668701171875 0
269 235 100 266.413330078125 231.866668701171875 0
408 301 0 398.31915283203125 294.595733642578125 0
408 291 0 398.31915283203125 294.595733642578125 0
408 291 100 398.31915283203125 294.595733642578125 0
408 301 100 398.31915283203125 294.595733642578125 0
455 301 0 446.31915283203125 294.595733642578125 0
455 291 0 446.31915283203125 294.595733642578125 0
455 291 100 446.31915283203125 294.595733642578125 0
455 301 100 446.31915283203125 294.595733642578125 0
195 452 0 194.568588256835938 452 0
185 452 0 194.568588256835938 452 0
185 452 100 194.568588256835938 452 0
195 452 100 194.568588256835938 452 0
195 0 0 194.568588256835938 -1 0
185 0 0 194.568588256835938 -1 0
185 0 100 194.568588256835938 -1 0
195 0 100 194.568588256835938 -1 0
613 452 0 611.643798828125 452 0
623 452 0 611.643798828125 452 0
623 452 100 611.643798828125 452 0
613 452 100 611.643798828125 452 0
400 452 0 397.916656494140625 450.645843505859375 0
410 452 0 397.916656494140625 450.645843505859375 0
410 452 100 397.916656494140625 450.645843505859375 0
400 452 100 397.916656494140625 450.645843505859375 0
410 174 0 405.340911865234375 173.022720336914062 0
400 174 0 405.340911865234375 173.022720336914062 0
400 174 100 405.340911865234375 173.022720336914062 0
410 174 100 405.340911865234375 173.022720336914062 0
410 86 0 405.340911865234375 84.0227279663085938 0
400 86 0 405.340911865234375 84.0227279663085938 0
400 86 100 405.340911865234375 84.0227279663085938 0
410 86 100 405.340911865234375 84.0227279663085938 0
452 101 0 447.032958984375 100.890106201171875 0
442 101 0 447.032958984375 100.890106201171875 0
442 101 100 447.032958984375 100.890106201171875 0
452 101 100 447.032958984375 100.890106201171875 0
452 0 0 406.79998779296875 -1 0
442 0 0 406.79998779296875 -1 0
442 0 100 406.79998779296875 -1 0
452 0 100 406.79998779296875 -1 0
300 0 0 296.959197998046875 0 0
300 10 0 296.959197998046875 0 0
300 10 100 296.959197998046875 0 0
300 0 100 296.959197998046875 0 0
504 10 0 495.30767822265625 9.80769252777099609 0
504 0 0 495.30767822265625 9.80769252777099609 0
504 0 100 495.30767822265625 9.80769252777099609 0
504 10 100 495.30767822265625 9.80769252777099609 0
452 214 0 0 0 -1
442 214 0 0 0 -1
442 154 0 0 0 -1
452 154 0 0 0 -1
452 214 100 0 0 1
442 214 100 0 0 1
442 154 100 0 0 1
452 154 100 0 0 1
533 453 0 0 0 -1
533 443 0 0 0 -1
616 443 0 0 0 -1
616 453 0 0 0 -1
533 453 100 0 0 1
533 443 100 0 0 1
616 443 100 0 0 1
616 453 100 0 0 1
504 218 0 0 0 -1
504 208 0 0 0 -1
616 208 0 0 0 -1
616 218 0 0 0 -1
504 218 100 0 0 1
504 208 100 0 0 1
616 208 100 0 0 1
616 218 100 0 0 1
623 38 0 0 0 -1
613 38 0 0 0 -1
613 0 0 0 0 -1
623 0 0 0 0 -1
623 38 100 0 0 1
613 38 100 0 0 1
613 0 100 0 0 1
623 0 100 0 0 1
613 0 0 0 0 -1
623 0 0 0 0 -1
623 452 0 0 0 -1
613 452 0 0 0 -1
613 0 100 0 0 1
623 0 100 0 0 1
623 452 100 0 0 1
613 452 100 0 0 1
410 443 0 0 0 -1
400 443 0 0 0 -1
400 260 0 0 0 -1
410 260 0 0 0 -1
410 443 100 0 0 1
400 443 100 0 0 1
400 260 100 0 0 1
410 260 100 0 0 1
400 260 0 0 0 -1
410 260 0 0 0 -1
410 452 0 0 0 -1
400 452 0 0 0 -1
400 260 100 0 0 1
410 260 100 0 0 1
410 452 100 0 0 1
400 452 100 0 0 1
508 281 0 0 0 -1
508 271 0 0 0 -1
544 271 0 0 0 -1
544 281 0 0 0 -1
508 281 100 0 0 1
508 271 100 0 0 1
544 271 100 0 0 1
544 281 100 0 0 1
408 282 0 0 0 -1
408 272 0 0 0 -1
458 272 0 0 0 -1
458 282 0 0 0 -1
408 282 100 0 0 1
408 272 100 0 0 1
458 272 100 0 0 1
458 282 100 0 0 1
405 98 0 0 0 -1
405 88 0 0 0 -1
446 88 0 0 0 -1
446 98 0 0 0 -1
405 98 100 0 0 1
405 88 100 0 0 1
446 88 100 0 0 1
446 98 100 0 0 1
194 235 0 0 0 -1
194 225 0 0 0 -1
269 225 0 0 0 -1
269 235 0 0 0 -1
194 235 100 0 0 1
194 225 100 0 0 1
269 225 100 0 0 1
269 235 100 0 0 1
408 301 0 0 0 -1
408 291 0 0 0 -1
455 291 0 0 0 -1
455 301 0 0 0 -1
408 301 100 0 0 1
408 291 100 0 0 1
455 291 100 0 0 1
455 301 100 0 0 1
195 452 0 0 0 -1
185 452 0 0 0 -1
185 0 0 0 0 -1
195 0 0 0 0 -1
195 452 100 0 0 1
185 452 100 0 0 1
185 0 100 0 0 1
195 0 100 0 0 1
410 174 0 0 0 -1
400 174 0 0 0 -1
400 86 0 0 0 -1
410 86 0 0 0 -1
410 174 100 0 0 1
400 174 100 0 0 1
400 86 100 0 0 1
410 86 100 0 0 1
452 101 0 0 0 -1
442 101 0 0 0 -1
442 5 0 0 0 -1
452 10 0 0 0 -1
452 101 100 0 0 1
442 101 100 0 0 1
442 5 100 0 0 1
452 10 100 0 0 1
452 10 0 0 0 -1
442 5 0 0 0 -1
442 0 0 0 0 -1
452 0 0 0 0 -1
452 10 100 0 0 1
442 5 100 0 0 1
442 0 100 0 0 1
452 0 100 0 0 1
447 0 0 0 0 -1
452 10 0 0 0 -1
300 10 0 0 0 -1
300 0 0 0 0 -1
447 0 100 0 0 1
452 10 100 0 0 1
300 10 100 0 0 1
300 0 100 0 0 1
452 10 0 0 0 -1
447 0 0 0 0 -1
504 0 0 0 0 -1
504 10 0 0 0 -1
452 10 100 0 0 1
447 0 100 0 0 1
504 0 100 0 0 1
504 10 100 0 0 1
452 10 0 0 0 -1
452 10 0 0 0 -1
452 10 100 0 0 1
452 10 100 0 0 1
4 0 1 2 3
4 4 5 6 7
4 8 9 10 11
4 12 13 14 15
4 16 17 18 19
4 20 21 22 23
4 24 25 26 27
4 28 29 30 31
4 32 33 34 35
4 36 37 38 39
4 40 41 42 43
4 44 45 46 47
4 48 49 50 51
4 52 53 54 55
4 56 57 58 59
4 60 61 62 63
4 64 65 66 67
4 68 69 70 71
4 72 73 74 75
4 76 77 78 79
4 80 81 82 83
4 84 85 86 87
4 88 89 90 91
4 92 93 94 95
4 96 97 98 99
4 100 101 102 103
4 104 105 106 107
4 108 109 110 111
4 112 113 114 115
4 116 117 118 119
4 120 121 122 123
4 124 125 126 127
4 128 129 130 131
4 132 133 134 135
4 136 137 138 139
4 140 141 142 143
4 144 145 146 147
4 148 149 150 151
4 152 153 154 155
4 156 157 158 159
4 160 161 162 163
4 164 165 166 167
4 168 169 170 171
4 172 173 174 175
4 176 177 178 179
4 180 181 182 183
4 184 185 186 187
4 188 189 190 191
4 192 193 194 195
4 196 197 198 199
4 200 201 202 203
4 204 205 206 207
4 208 209 210 211
4 212 213 214 215
4 216 217 218 219
4 220 221 222 223
4 224 225 226 227
4 228 229 230 231
4 232 233 234 235
4 236 237 238 239
4 240 241 242 243
4 244 245 246 247
4 248 249 250 251
4 252 253 254 255
4 256 257 258 259
4 260 261 262 263
4 264 265 266 267
4 268 269 270 271
4 272 273 274 275
4 276 277 278 279
4 280 281 282 283
4 284 285 286 287
4 288 289 290 291
4 292 293 294 295
4 296 297 298 299
4 300 301 302 303
4 304 305 306 307
4 308 309 310 311
4 312 313 314 315
4 316 317 318 319
4 320 321 322 323
4 324 325 326 327
4 328 329 330 331
4 332 333 334 335
4 336 337 338 339
4 340 341 342 343
4 344 345 346 347
4 348 349 350 351
4 352 353 354 355
4 356 357 358 359
4 360 361 362 363
4 364 365 366 367
4 368 369 370 371
4 372 373 374 375
4 376 377 378 379
4 380 381 382 383
4 384 385 386 387
4 388 389 390 391
4 392 393 394 395
4 396 397 398 399
