ply
format ascii 1.0
element vertex 672
property float x
property float y
property float z
property float nx
property float ny
property float nz
element quads 168
property list uchar int vertex_indices
end_header
208 168 0 1 0 0
208 29 0 1 0 0
208 29 100 1 0 0
208 168 100 1 0 0
198 168 0 -1 -0 0
198 29 0 -1 -0 0
198 29 100 -1 -0 0
198 168 100 -1 -0 0
412 194 0 1 0 0
412 30 0 1 0 0
412 30 100 1 0 0
412 194 100 1 0 0
402 194 0 -1 -0 0
402 30 0 -1 -0 0
402 30 100 -1 -0 0
402 194 100 -1 -0 0
353 456 0 1 0 0
353 307 0 1 0 0
353 307 100 1 0 0
353 456 100 1 0 0
343 456 0 -1 -0 0
343 307 0 -1 -0 0
343 307 100 -1 -0 0
343 456 100 -1 -0 0
353 456 0 1 0 0
353 398 0 1 0 0
353 398 100 1 0 0
353 456 100 1 0 0
343 456 0 -1 -0 0
343 398 0 -1 -0 0
343 398 100 -1 -0 0
343 456 100 -1 -0 0
400 36 0 -0 1 0
690 36 0 -0 1 0
690 36 100 -0 1 0
400 36 100 -0 1 0
400 26 0 0 -1 0
690 26 0 0 -1 0
690 26 100 0 -1 0
400 26 100 0 -1 0
400 36 0 -0 1 0
610 36 0 -0 1 0
610 36 100 -0 1 0
400 36 100 -0 1 0
400 26 0 0 -1 0
610 26 0 0 -1 0
610 26 100 0 -1 0
400 26 100 0 -1 0
690 26 0 -0 -1 0
521 26 0 -0 -1 0
521 26 100 -0 -1 0
690 26 100 -0 -1 0
690 36 0 0 1 0
521 36 0 0 1 0
521 36 100 0 1 0
690 36 100 0 1 0
548 315 0 -0 1 0
691 315 0 -0 1 0
691 315 100 -0 1 0
548 315 100 -0 1 0
548 305 0 0 -1 0
691 305 0 0 -1 0
691 305 100 0 -1 0
548 305 100 0 -1 0
691 305 0 -0 -1 0
622 305 0 -0 -1 0
622 305 100 -0 -1 0
691 305 100 -0 -1 0
691 315 0 0 1 0
622 315 0 0 1 0
622 315 100 0 1 0
691 315 100 0 1 0
178 461 0 -0 1 0
372 461 0 -0 1 0
372 461 100 -0 1 0
178 461 100 -0 1 0
178 451 0 0 -1 0
372 451 0 0 -1 0
372 451 100 0 -1 0
178 451 100 0 -1 0
178 461 0 -0 1 0
350 461 0 -0 1 0
350 461 100 -0 1 0
178 461 100 -0 1 0
178 451 0 0 -1 0
350 451 0 0 -1 0
350 451 100 0 -1 0
178 451 100 0 -1 0
372 451 0 -0 -1 0
256 451 0 -0 -1 0
256 451 100 -0 -1 0
372 451 100 -0 -1 0
372 461 0 0 1 0
256 461 0 0 1 0
256 461 100 0 1 0
372 461 100 0 1 0
156 315 0 -0 1 0
394 315 0 -0 1 0
394 315 100 -0 1 0
156 315 100 -0 1 0
156 305 0 0 -1 0
394 305 0 0 -1 0
394 305 100 0 -1 0
156 305 100 0 -1 0
156 315 0 -0 1 0
227 315 0 -0 1 0
227 315 100 -0 1 0
156 315 100 -0 1 0
156 305 0 0 -1 0
227 305 0 0 -1 0
227 305 100 0 -1 0
156 305 100 0 -1 0
394 305 0 -0 -1 0
177 305 0 -0 -1 0
177 305 100 -0 -1 0
394 305 100 -0 -1 0
394 315 0 0 1 0
177 315 0 0 1 0
177 315 100 0 1 0
394 315 100 0 1 0
646 198 0 -0 1 0
689 198 0 -0 1 0
689 198 100 -0 1 0
646 198 100 -0 1 0
646 188 0 0 -1 0
689 188 0 0 -1 0
689 188 100 0 -1 0
646 188 100 0 -1 0
497 198 0 -0 1 0
588 198 0 -0 1 0
588 198 100 -0 1 0
497 198 100 -0 1 0
497 188 0 0 -1 0
588 188 0 0 -1 0
588 188 100 0 -1 0
497 188 100 0 -1 0
344 103 0 -0 1 0
406 103 0 -0 1 0
406 103 100 -0 1 0
344 103 100 -0 1 0
344 93 0 0 -1 0
406 93 0 0 -1 0
406 93 100 0 -1 0
344 93 100 0 -1 0
520 229 0 1 0 0
520 196 0 1 0 0
520 196 100 1 0 0
520 229 100 1 0 0
510 229 0 -1 -0 0
510 196 0 -1 -0 0
510 196 100 -1 -0 0
510 229 100 -1 -0 0
510 196 0 -1 0 0
510 231 0 -1 0 0
510 231 100 -1 0 0
510 196 100 -1 0 0
520 196 0 1 -0 0
520 231 0 1 -0 0
520 231 100 1 -0 0
520 196 100 1 -0 0
489 377 0 -0 1 0
546 377 0 -0 1 0
546 377 100 -0 1 0
489 377 100 -0 1 0
489 367 0 0 -1 0
546 367 0 0 -1 0
546 367 100 0 -1 0
489 367 100 0 -1 0
156 103 0 -0 1 0
204 103 0 -0 1 0
204 103 100 -0 1 0
156 103 100 -0 1 0
156 93 0 0 -1 0
204 93 0 0 -1 0
204 93 100 0 -1 0
156 93 100 0 -1 0
208 455 0 1 0 0
208 308 0 1 0 0
208 308 100 1 0 0
208 455 100 1 0 0
198 455 0 -1 -0 0
198 308 0 -1 -0 0
198 308 100 -1 -0 0
198 455 100 -1 -0 0
331 308 0 1 0 0
331 239 0 1 0 0
331 239 100 1 0 0
331 308 100 1 0 0
321 308 0 -1 -0 0
321 229 0 -1 -0 0
321 229 100 -1 -0 0
321 308 100 -1 -0 0
331 239 0 -0 1 0
394 239 0 -0 1 0
394 239 100 -0 1 0
331 239 100 -0 1 0
321 229 0 0 -1 0
394 229 0 0 -1 0
394 229 100 0 -1 0
321 229 100 0 -1 0
130 142 0 1 0 0
130 78 0 1 0 0
130 78 100 1 0 0
130 142 100 1 0 0
120 142 0 -1 -0 0
120 78 0 -1 -0 0
120 78 100 -1 -0 0
120 142 100 -1 -0 0
287 308 0 1 0 0
287 168 0 1 0 0
287 168 100 1 0 0
287 308 100 1 0 0
277 308 0 -1 -0 0
277 168 0 -1 -0 0
277 168 100 -1 -0 0
277 308 100 -1 -0 0
509 232 0 1 0 0
509 196 0 1 0 0
509 196 100 1 0 0
509 232 100 1 0 0
499 232 0 -1 -0 0
499 196 0 -1 -0 0
499 196 100 -1 -0 0
499 232 100 -1 -0 0
502 239 0 -0 1 0
546 239 0 -0 1 0
546 239 100 -0 1 0
502 239 100 -0 1 0
502 229 0 0 -1 0
546 229 0 0 -1 0
546 229 100 0 -1 0
502 229 100 0 -1 0
552 372 0 1 0 0
552 231 0 1 0 0
552 231 100 1 0 0
552 372 100 1 0 0
542 372 0 -1 -0 0
542 231 0 -1 -0 0
542 231 100 -1 -0 0
542 372 100 -1 -0 0
552 231 0 1 0 0
552 193 0 1 0 0
552 193 100 1 0 0
552 231 100 1 0 0
542 231 0 -1 -0 0
542 193 0 -1 -0 0
542 193 100 -1 -0 0
542 231 100 -1 -0 0
520 238 0 1 0 0
520 231 0 1 0 0
520 231 100 1 0 0
520 238 100 1 0 0
510 238 0 -1 -0 0
510 231 0 -1 -0 0
510 231 100 -1 -0 0
510 238 100 -1 -0 0
208 168 0 206.50360107421875 167.791366577148438 0
198 168 0 206.50360107421875 167.791366577148438 0
198 168 100 206.50360107421875 167.791366577148438 0
208 168 100 206.50360107421875 167.791366577148438 0
208 29 0 206.50360107421875 27.7913665771484375 0
198 29 0 206.50360107421875 27.7913665771484375 0
198 29 100 206.50360107421875 27.7913665771484375 0
208 29 100 206.50360107421875 27.7913665771484375 0
412 194 0 409.48779296875 193.81707763671875 0
402 194 0 409.48779296875 193.81707763671875 0
402 194 100 409.48779296875 193.81707763671875 0
412 194 100 409.48779296875 193.81707763671875 0
412 30 0 409.48779296875 28.8170738220214844 0
402 30 0 409.48779296875 28.8170738220214844 0
402 30 100 409.48779296875 28.8170738220214844 0
412 30 100 409.48779296875 28.8170738220214844 0
353 307 0 350.630859375 303.939605712890625 0
343 307 0 350.630859375 303.939605712890625 0
343 307 100 350.630859375 303.939605712890625 0
353 307 100 350.630859375 303.939605712890625 0
353 398 0 346.913787841796875 390.137939453125 0
343 398 0 346.913787841796875 390.137939453125 0
343 398 100 346.913787841796875 390.137939453125 0
353 398 100 346.913787841796875 390.137939453125 0
548 315 0 543.1678466796875 312.797210693359375 0
548 305 0 543.1678466796875 312.797210693359375 0
548 305 100 543.1678466796875 312.797210693359375 0
548 315 100 543.1678466796875 312.797210693359375 0
610 36 0 608.09521484375 35.8285713195800781 0
610 26 0 608.09521484375 35.8285713195800781 0
610 26 100 608.09521484375 35.8285713195800781 0
610 36 100 608.09521484375 35.8285713195800781 0
646 198 0 629.97674560546875 193.395355224609375 0
646 188 0 629.97674560546875 193.395355224609375 0
646 188 100 629.97674560546875 193.395355224609375 0
646 198 100 629.97674560546875 193.395355224609375 0
689 198 0 673.97674560546875 193.395355224609375 0
689 188 0 673.97674560546875 193.395355224609375 0
689 188 100 673.97674560546875 193.395355224609375 0
689 198 100 673.97674560546875 193.395355224609375 0
521 26 0 516.91717529296875 25.8461532592773438 0
521 36 0 516.91717529296875 25.8461532592773438 0
521 36 100 516.91717529296875 25.8461532592773438 0
521 26 100 516.91717529296875 25.8461532592773438 0
177 305 0 175.184326171875 303.594482421875 0
177 315 0 175.184326171875 303.594482421875 0
177 315 100 175.184326171875 303.594482421875 0
177 305 100 175.184326171875 303.594482421875 0
350 461 0 348.965118408203125 458.31976318359375 0
350 451 0 348.965118408203125 458.31976318359375 0
350 451 100 348.965118408203125 458.31976318359375 0
350 461 100 348.965118408203125 458.31976318359375 0
622 305 0 611.98553466796875 300.5797119140625 0
622 315 0 611.98553466796875 300.5797119140625 0
622 315 100 611.98553466796875 300.5797119140625 0
622 305 100 611.98553466796875 300.5797119140625 0
256 451 0 252.793106079101562 447.112060546875 0
256 461 0 252.793106079101562 447.112060546875 0
256 461 100 252.793106079101562 447.112060546875 0
256 451 100 252.793106079101562 447.112060546875 0
497 198 0 490.5384521484375 195.824172973632812 0
497 188 0 490.5384521484375 195.824172973632812 0
497 188 100 490.5384521484375 195.824172973632812 0
497 198 100 490.5384521484375 195.824172973632812 0
588 198 0 582.5384521484375 195.824172973632812 0
588 188 0 582.5384521484375 195.824172973632812 0
588 188 100 582.5384521484375 195.824172973632812 0
588 198 100 582.5384521484375 195.824172973632812 0
227 315 0 224.802810668945312 310.563385009765625 0
227 305 0 224.802810668945312 310.563385009765625 0
227 305 100 224.802810668945312 310.563385009765625 0
227 315 100 224.802810668945312 310.563385009765625 0
344 103 0 337.45159912109375 101.338706970214844 0
344 93 0 337.45159912109375 101.338706970214844 0
344 93 100 337.45159912109375 101.338706970214844 0
344 103 100 337.45159912109375 101.338706970214844 0
406 103 0 400.45159912109375 101.338706970214844 0
406 93 0 400.45159912109375 101.338706970214844 0
406 93 100 400.45159912109375 101.338706970214844 0
406 103 100 400.45159912109375 101.338706970214844 0
520 229 0 504.242431640625 223.06060791015625 0
510 229 0 504.242431640625 223.06060791015625 0
510 229 100 504.242431640625 223.06060791015625 0
520 229 100 504.242431640625 223.06060791015625 0
489 377 0 479.421051025390625 370.385955810546875 0
489 367 0 479.421051025390625 370.385955810546875 0
489 367 100 479.421051025390625 370.385955810546875 0
489 377 100 479.421051025390625 370.385955810546875 0
546 377 0 537.42108154296875 370.385955810546875 0
546 367 0 537.42108154296875 370.385955810546875 0
546 367 100 537.42108154296875 370.385955810546875 0
546 377 100 537.42108154296875 370.385955810546875 0
156 103 0 151.75 100.854164123535156 0
156 93 0 151.75 100.854164123535156 0
156 93 100 151.75 100.854164123535156 0
156 103 100 151.75 100.854164123535156 0
204 103 0 200.75 100.854164123535156 0
204 93 0 200.75 100.854164123535156 0
204 93 100 200.75 100.854164123535156 0
204 103 100 200.75 100.854164123535156 0
208 455 0 206.585037231445312 452.904754638671875 0
198 455 0 206.585037231445312 452.904754638671875 0
198 455 100 206.585037231445312 452.904754638671875 0
208 455 100 206.585037231445312 452.904754638671875 0
208 308 0 206.585037231445312 304.904754638671875 0
198 308 0 206.585037231445312 304.904754638671875 0
198 308 100 206.585037231445312 304.904754638671875 0
208 308 100 206.585037231445312 304.904754638671875 0
331 308 0 326.202911376953125 304.536224365234375 0
321 308 0 326.202911376953125 304.536224365234375 0
321 308 100 326.202911376953125 304.536224365234375 0
331 308 100 326.202911376953125 304.536224365234375 0
130 142 0 127.96875 140.78125 0
120 142 0 127.96875 140.78125 0
120 142 100 127.96875 140.78125 0
130 142 100 127.96875 140.78125 0
130 78 0 127.96875 75.78125 0
120 78 0 127.96875 75.78125 0
120 78 100 127.96875 75.78125 0
130 78 100 127.96875 75.78125 0
287 308 0 284.95001220703125 306.79998779296875 0
277 308 0 284.95001220703125 306.79998779296875 0
277 308 100 284.95001220703125 306.79998779296875 0
287 308 100 284.95001220703125 306.79998779296875 0
287 168 0 284.95001220703125 165.800003051757812 0
277 168 0 284.95001220703125 165.800003051757812 0
277 168 100 284.95001220703125 165.800003051757812 0
287 168 100 284.95001220703125 165.800003051757812 0
394 239 0 388.74603271484375 235.206344604492188 0
394 229 0 388.74603271484375 235.206344604492188 0
394 229 100 388.74603271484375 235.206344604492188 0
394 239 100 388.74603271484375 235.206344604492188 0
509 232 0 494.861114501953125 226.555557250976562 0
499 232 0 494.861114501953125 226.555557250976562 0
499 232 100 494.861114501953125 226.555557250976562 0
509 232 100 494.861114501953125 226.555557250976562 0
509 196 0 494.861114501953125 189.555557250976562 0
499 196 0 494.861114501953125 189.555557250976562 0
499 196 100 494.861114501953125 189.555557250976562 0
509 196 100 494.861114501953125 189.555557250976562 0
502 239 0 489.590911865234375 233.56817626953125 0
502 229 0 489.590911865234375 233.56817626953125 0
502 229 100 489.590911865234375 233.56817626953125 0
502 239 100 489.590911865234375 233.56817626953125 0
546 239 0 534.59088134765625 233.56817626953125 0
546 229 0 534.59088134765625 233.56817626953125 0
546 229 100 534.59088134765625 233.56817626953125 0
546 239 100 534.59088134765625 233.56817626953125 0
552 372 0 548.0850830078125 370.3616943359375 0
542 372 0 548.0850830078125 370.3616943359375 0
542 372 100 548.0850830078125 370.3616943359375 0
552 372 100 548.0850830078125 370.3616943359375 0
552 193 0 537.47369384765625 186.921051025390625 0
542 193 0 537.47369384765625 186.921051025390625 0
542 193 100 537.47369384765625 186.921051025390625 0
552 193 100 537.47369384765625 186.921051025390625 0
520 238 0 445.71429443359375 205 0
510 238 0 445.71429443359375 205 0
510 238 100 445.71429443359375 205 0
520 238 100 445.71429443359375 205 0
208 168 0 0 0 -1
198 168 0 0 0 -1
198 29 0 0 0 -1
208 29 0 0 0 -1
208 168 100 0 0 1
198 168 100 0 0 1
198 29 100 0 0 1
208 29 100 0 0 1
412 194 0 0 0 -1
402 194 0 0 0 -1
402 30 0 0 0 -1
412 30 0 0 0 -1
412 194 100 0 0 1
402 194 100 0 0 1
402 30 100 0 0 1
412 30 100 0 0 1
353 456 0 0 0 -1
343 456 0 0 0 -1
343 307 0 0 0 -1
353 307 0 0 0 -1
353 456 100 0 0 1
343 456 100 0 0 1
343 307 100 0 0 1
353 307 100 0 0 1
353 456 0 0 0 -1
343 456 0 0 0 -1
343 398 0 0 0 -1
353 398 0 0 0 -1
353 456 100 0 0 1
343 456 100 0 0 1
343 398 100 0 0 1
353 398 100 0 0 1
400 36 0 0 0 -1
400 26 0 0 0 -1
690 26 0 0 0 -1
690 36 0 0 0 -1
400 36 100 0 0 1
400 26 100 0 0 1
690 26 100 0 0 1
690 36 100 0 0 1
400 36 0 0 0 -1
400 26 0 0 0 -1
610 26 0 0 0 -1
610 36 0 0 0 -1
400 36 100 0 0 1
400 26 100 0 0 1
610 26 100 0 0 1
610 36 100 0 0 1
690 26 0 0 0 -1
690 36 0 0 0 -1
521 36 0 0 0 -1
521 26 0 0 0 -1
690 26 100 0 0 1
690 36 100 0 0 1
521 36 100 0 0 1
521 26 100 0 0 1
548 315 0 0 0 -1
548 305 0 0 0 -1
691 305 0 0 0 -1
691 315 0 0 0 -1
548 315 100 0 0 1
548 305 100 0 0 1
691 305 100 0 0 1
691 315 100 0 0 1
691 305 0 0 0 -1
691 315 0 0 0 -1
622 315 0 0 0 -1
622 305 0 0 0 -1
691 305 100 0 0 1
691 315 100 0 0 1
622 315 100 0 0 1
622 305 100 0 0 1
178 461 0 0 0 -1
178 451 0 0 0 -1
372 451 0 0 0 -1
372 461 0 0 0 -1
178 461 100 0 0 1
178 451 100 0 0 1
372 451 100 0 0 1
372 461 100 0 0 1
178 461 0 0 0 -1
178 451 0 0 0 -1
350 451 0 0 0 -1
350 461 0 0 0 -1
178 461 100 0 0 1
178 451 100 0 0 1
350 451 100 0 0 1
350 461 100 0 0 1
372 451 0 0 0 -1
372 461 0 0 0 -1
256 461 0 0 0 -1
256 451 0 0 0 -1
372 451 100 0 0 1
372 461 100 0 0 1
256 461 100 0 0 1
256 451 100 0 0 1
156 315 0 0 0 -1
156 305 0 0 0 -1
394 305 0 0 0 -1
394 315 0 0 0 -1
156 315 100 0 0 1
156 305 100 0 0 1
394 305 100 0 0 1
394 315 100 0 0 1
156 315 0 0 0 -1
156 305 0 0 0 -1
227 305 0 0 0 -1
227 315 0 0 0 -1
156 315 100 0 0 1
156 305 100 0 0 1
227 305 100 0 0 1
227 315 100 0 0 1
394 305 0 0 0 -1
394 315 0 0 0 -1
177 315 0 0 0 -1
177 305 0 0 0 -1
394 305 100 0 0 1
394 315 100 0 0 1
177 315 100 0 0 1
177 305 100 0 0 1
646 198 0 0 0 -1
646 188 0 0 0 -1
689 188 0 0 0 -1
689 198 0 0 0 -1
646 198 100 0 0 1
646 188 100 0 0 1
689 188 100 0 0 1
689 198 100 0 0 1
497 198 0 0 0 -1
497 188 0 0 0 -1
588 188 0 0 0 -1
588 198 0 0 0 -1
497 198 100 0 0 1
497 188 100 0 0 1
588 188 100 0 0 1
588 198 100 0 0 1
344 103 0 0 0 -1
344 93 0 0 0 -1
406 93 0 0 0 -1
406 103 0 0 0 -1
344 103 100 0 0 1
344 93 100 0 0 1
406 93 100 0 0 1
406 103 100 0 0 1
520 229 0 0 0 -1
510 229 0 0 0 -1
510 196 0 0 0 -1
520 196 0 0 0 -1
520 229 100 0 0 1
510 229 100 0 0 1
510 196 100 0 0 1
520 196 100 0 0 1
510 196 0 0 0 -1
520 196 0 0 0 -1
520 231 0 0 0 -1
510 231 0 0 0 -1
510 196 100 0 0 1
520 196 100 0 0 1
520 231 100 0 0 1
510 231 100 0 0 1
489 377 0 0 0 -1
489 367 0 0 0 -1
546 367 0 0 0 -1
546 377 0 0 0 -1
489 377 100 0 0 1
489 367 100 0 0 1
546 367 100 0 0 1
546 377 100 0 0 1
156 103 0 0 0 -1
156 93 0 0 0 -1
204 93 0 0 0 -1
204 103 0 0 0 -1
156 103 100 0 0 1
156 93 100 0 0 1
204 93 100 0 0 1
204 103 100 0 0 1
208 455 0 0 0 -1
198 455 0 0 0 -1
198 308 0 0 0 -1
208 308 0 0 0 -1
208 455 100 0 0 1
198 455 100 0 0 1
198 308 100 0 0 1
208 308 100 0 0 1
331 308 0 0 0 -1
321 308 0 0 0 -1
321 229 0 0 0 -1
331 239 0 0 0 -1
331 308 100 0 0 1
321 308 100 0 0 1
321 229 100 0 0 1
331 239 100 0 0 1
331 239 0 0 0 -1
321 229 0 0 0 -1
394 229 0 0 0 -1
394 239 0 0 0 -1
331 239 100 0 0 1
321 229 100 0 0 1
394 229 100 0 0 1
394 239 100 0 0 1
130 142 0 0 0 -1
120 142 0 0 0 -1
120 78 0 0 0 -1
130 78 0 0 0 -1
130 142 100 0 0 1
120 142 100 0 0 1
120 78 100 0 0 1
130 78 100 0 0 1
287 308 0 0 0 -1
277 308 0 0 0 -1
277 168 0 0 0 -1
287 168 0 0 0 -1
287 308 100 0 0 1
277 308 100 0 0 1
277 168 100 0 0 1
287 168 100 0 0 1
509 232 0 0 0 -1
499 232 0 0 0 -1
499 196 0 0 0 -1
509 196 0 0 0 -1
509 232 100 0 0 1
499 232 100 0 0 1
499 196 100 0 0 1
509 196 100 0 0 1
502 239 0 0 0 -1
502 229 0 0 0 -1
546 229 0 0 0 -1
546 239 0 0 0 -1
502 239 100 0 0 1
502 229 100 0 0 1
546 229 100 0 0 1
546 239 100 0 0 1
552 372 0 0 0 -1
542 372 0 0 0 -1
542 231 0 0 0 -1
552 231 0 0 0 -1
552 372 100 0 0 1
542 372 100 0 0 1
542 231 100 0 0 1
552 231 100 0 0 1
552 231 0 0 0 -1
542 231 0 0 0 -1
542 193 0 0 0 -1
552 193 0 0 0 -1
552 231 100 0 0 1
542 231 100 0 0 1
542 193 100 0 0 1
552 193 100 0 0 1
520 238 0 0 0 -1
510 238 0 0 0 -1
510 231 0 0 0 -1
520 231 0 0 0 -1
520 238 100 0 0 1
510 238 100 0 0 1
510 231 100 0 0 1
520 231 100 0 0 1
4 0 1 2 3
4 4 5 6 7
4 8 9 10 11
4 12 13 14 15
4 16 17 18 19
4 20 21 22 23
4 24 25 26 27
4 28 29 30 31
4 32 33 34 35
4 36 37 38 39
4 40 41 42 43
4 44 45 46 47
4 48 49 50 51
4 52 53 54 55
4 56 57 58 59
4 60 61 62 63
4 64 65 66 67
4 68 69 70 71
4 72 73 74 75
4 76 77 78 79
4 80 81 82 83
4 84 85 86 87
4 88 89 90 91
4 92 93 94 95
4 96 97 98 99
4 100 101 102 103
4 104 105 106 107
4 108 109 110 111
4 112 113 114 115
4 116 117 118 119
4 120 121 122 123
4 124 125 126 127
4 128 129 130 131
4 132 133 134 135
4 136 137 138 139
4 140 141 142 143
4 144 145 146 147
4 148 149 150 151
4 152 153 154 155
4 156 157 158 159
4 160 161 162 163
4 164 165 166 167
4 168 169 170 171
4 172 173 174 175
4 176 177 178 179
4 180 181 182 183
4 184 185 186 187
4 188 189 190 191
4 192 193 194 195
4 196 197 198 199
4 200 201 202 203
4 204 205 206 207
4 208 209 210 211
4 212 213 214 215
4 216 217 218 219
4 220 221 222 223
4 224 225 226 227
4 228 229 230 231
4 232 233 234 235
4 236 237 238 239
4 240 241 242 243
4 244 245 246 247
4 248 249 250 251
4 252 253 254 255
4 256 257 258 259
4 260 261 262 263
4 264 265 266 267
4 268 269 270 271
4 272 273 274 275
4 276 277 278 279
4 280 281 282 283
4 284 285 286 287
4 288 289 290 291
4 292 293 294 295
4 296 297 298 299
4 300 301 302 303
4 304 305 306 307
4 308 309 310 311
4 312 313 314 315
4 316 317 318 319
4 320 321 322 323
4 324 325 326 327
4 328 329 330 331
4 332 333 334 335
4 336 337 338 339
4 340 341 342 343
4 344 345 346 347
4 348 349 350 351
4 352 353 354 355
4 356 357 358 359
4 360 361 362 363
4 364 365 366 367
4 368 369 370 371
4 372 373 374 375
4 376 377 378 379
4 380 381 382 383
4 384 385 386 387
4 388 389 390 391
4 392 393 394 395
4 396 397 398 399
4 400 401 402 403
4 404 405 406 407
4 408 409 410 411
4 412 413 414 415
4 416 417 418 419
4 420 421 422 423
4 424 425 426 427
4 428 429 430 431
4 432 433 434 435
4 436 437 438 439
4 440 441 442 443
4 444 445 446 447
4 448 449 450 451
4 452 453 454 455
4 456 457 458 459
4 460 461 462 463
4 464 465 466 467
4 468 469 470 471
4 472 473 474 475
4 476 477 478 479
4 480 481 482 483
4 484 485 486 487
4 488 489 490 491
4 492 493 494 495
4 496 497 498 499
4 500 501 502 503
4 504 505 506 507
4 508 509 510 511
4 512 513 514 515
4 516 517 518 519
4 520 521 522 523
4 524 525 526 527
4 528 529 530 531
4 532 533 534 535
4 536 537 538 539
4 540 541 542 543
4 544 545 546 547
4 548 549 550 551
4 552 553 554 555
4 556 557 558 559
4 560 561 562 563
4 564 565 566 567
4 568 569 570 571
4 572 573 574 575
4 576 577 578 579
4 580 581 582 583
4 584 585 586 587
4 588 589 590 591
4 592 593 594 595
4 596 597 598 599
4 600 601 602 603
4 604 605 606 607
4 608 609 610 611
4 612 613 614 615
4 616 617 618 619
4 620 621 622 623
4 624 625 626 627
4 628 629 630 631
4 632 633 634 635
4 636 637 638 639
4 640 641 642 643
4 644 645 646 647
4 648 649 650 651
4 652 653 654 655
4 656 657 658 659
4 660 661 662 663
4 664 665 666 667
4 668 669 670 671
