ply
format ascii 1.0
element vertex 376
property float x
property float y
property float z
property float nx
property float ny
property float nz
element quads 94
property list uchar int vertex_indices
end_header
99 526 0 1 0 0
99 33 0 1 0 0
99 33 100 1 0 0
99 526 100 1 0 0
89 526 0 -1 -0 0
89 33 0 -1 -0 0
89 33 100 -1 -0 0
89 526 100 -1 -0 0
415 529 0 1 0 0
415 206 0 1 0 0
415 206 100 1 0 0
415 529 100 1 0 0
405 529 0 -1 -0 0
405 206 0 -1 -0 0
405 206 100 -1 -0 0
405 529 100 -1 -0 0
194 94 0 -0 1 0
309 94 0 -0 1 0
309 94 100 -0 1 0
194 94 100 -0 1 0
194 84 0 0 -1 0
309 84 0 0 -1 0
309 84 100 0 -1 0
194 84 100 0 -1 0
105 154 0 -0 1 0
312 154 0 -0 1 0
312 154 100 -0 1 0
105 154 100 -0 1 0
105 144 0 0 -1 0
312 144 0 0 -1 0
312 144 100 0 -1 0
105 144 100 0 -1 0
656 39 0 -0 1 0
717 39 0 -0 1 0
717 39 100 -0 1 0
656 39 100 -0 1 0
656 29 0 0 -1 0
717 29 0 0 -1 0
717 29 100 0 -1 0
656 29 100 0 -1 0
575 205 0 1 0 0
575 171 0 1 0 0
575 171 100 1 0 0
575 205 100 1 0 0
565 205 0 -1 -0 0
565 171 0 -1 -0 0
565 171 100 -1 -0 0
565 205 100 -1 -0 0
107 526 0 1 0 0
107 33 0 1 0 0
107 33 100 1 0 0
107 526 100 1 0 0
97 526 0 -1 -0 0
97 33 0 -1 -0 0
97 33 100 -1 -0 0
97 526 100 -1 -0 0
727 526 0 1 0 0
727 34 0 1 0 0
727 34 100 1 0 0
727 526 100 1 0 0
717 526 0 -1 -0 0
717 34 0 -1 -0 0
717 34 100 -1 -0 0
717 526 100 -1 -0 0
440 42 0 -0 1 0
470 42 0 -0 1 0
470 42 100 -0 1 0
440 42 100 -0 1 0
440 32 0 0 -1 0
470 32 0 0 -1 0
470 32 100 0 -1 0
440 32 100 0 -1 0
271 525 0 -0 1 0
338 525 0 -0 1 0
338 525 100 -0 1 0
271 525 100 -0 1 0
271 515 0 0 -1 0
338 515 0 0 -1 0
338 515 100 0 -1 0
271 515 100 0 -1 0
105 523 0 -0 1 0
172 523 0 -0 1 0
172 523 100 -0 1 0
105 523 100 -0 1 0
105 513 0 0 -1 0
172 513 0 0 -1 0
172 513 100 0 -1 0
105 513 100 0 -1 0
411 525 0 -0 1 0
435 525 0 -0 1 0
435 525 100 -0 1 0
411 525 100 -0 1 0
411 515 0 0 -1 0
435 515 0 0 -1 0
435 515 100 0 -1 0
411 515 100 0 -1 0
200 88 0 1 0 0
200 44 0 1 0 0
200 44 100 1 0 0
200 88 100 1 0 0
190 88 0 -1 -0 0
190 44 0 -1 -0 0
190 44 100 -1 -0 0
190 88 100 -1 -0 0
516 43 0 -0 1 0
606 43 0 -0 1 0
606 43 100 -0 1 0
516 43 100 -0 1 0
516 33 0 0 -1 0
606 33 0 0 -1 0
606 33 100 0 -1 0
516 33 100 0 -1 0
105 43 0 -0 1 0
310 43 0 -0 1 0
310 43 100 -0 1 0
105 43 100 -0 1 0
105 33 0 0 -1 0
310 33 0 0 -1 0
310 33 100 0 -1 0
105 33 100 0 -1 0
310 43 0 -0 1 0
342 43 0 -0 1 0
342 43 100 -0 1 0
310 43 100 -0 1 0
310 33 0 0 -1 0
342 33 0 0 -1 0
342 33 100 0 -1 0
310 33 100 0 -1 0
99 526 0 98.7991867065429688 525.93304443359375 0
89 526 0 98.7991867065429688 525.93304443359375 0
89 526 100 98.7991867065429688 525.93304443359375 0
99 526 100 98.7991867065429688 525.93304443359375 0
99 33 0 98.7991867065429688 31.9330635070800781 0
89 33 0 98.7991867065429688 31.9330635070800781 0
89 33 100 98.7991867065429688 31.9330635070800781 0
99 33 100 98.7991867065429688 31.9330635070800781 0
415 529 0 413.715179443359375 528.36224365234375 0
405 529 0 413.715179443359375 528.36224365234375 0
405 529 100 413.715179443359375 528.36224365234375 0
415 529 100 413.715179443359375 528.36224365234375 0
415 206 0 413.715179443359375 204.362228393554688 0
405 206 0 413.715179443359375 204.362228393554688 0
405 206 100 413.715179443359375 204.362228393554688 0
415 206 100 413.715179443359375 204.362228393554688 0
194 94 0 191.31304931640625 93.1826095581054688 0
194 84 0 191.31304931640625 93.1826095581054688 0
194 84 100 191.31304931640625 93.1826095581054688 0
194 94 100 191.31304931640625 93.1826095581054688 0
309 94 0 307.31304931640625 93.1826095581054688 0
309 84 0 307.31304931640625 93.1826095581054688 0
309 84 100 307.31304931640625 93.1826095581054688 0
309 94 100 307.31304931640625 93.1826095581054688 0
105 154 0 103.492752075195312 153.25604248046875 0
105 144 0 103.492752075195312 153.25604248046875 0
105 144 100 103.492752075195312 153.25604248046875 0
105 154 100 103.492752075195312 153.25604248046875 0
312 154 0 311.492767333984375 153.25604248046875 0
312 144 0 311.492767333984375 153.25604248046875 0
312 144 100 311.492767333984375 153.25604248046875 0
312 154 100 311.492767333984375 153.25604248046875 0
656 39 0 644.24591064453125 38.36065673828125 0
656 29 0 644.24591064453125 38.36065673828125 0
656 29 100 644.24591064453125 38.36065673828125 0
656 39 100 644.24591064453125 38.36065673828125 0
717 39 0 706.24591064453125 38.36065673828125 0
717 29 0 706.24591064453125 38.36065673828125 0
717 29 100 706.24591064453125 38.36065673828125 0
717 39 100 706.24591064453125 38.36065673828125 0
575 205 0 558.0882568359375 199.9705810546875 0
565 205 0 558.0882568359375 199.9705810546875 0
565 205 100 558.0882568359375 199.9705810546875 0
575 205 100 558.0882568359375 199.9705810546875 0
575 171 0 558.0882568359375 164.9705810546875 0
565 171 0 558.0882568359375 164.9705810546875 0
565 171 100 558.0882568359375 164.9705810546875 0
575 171 100 558.0882568359375 164.9705810546875 0
107 526 0 106.782958984375 525.93304443359375 0
97 526 0 106.782958984375 525.93304443359375 0
97 526 100 106.782958984375 525.93304443359375 0
107 526 100 106.782958984375 525.93304443359375 0
107 33 0 106.782958984375 31.9330635070800781 0
97 33 0 106.782958984375 31.9330635070800781 0
97 33 100 106.782958984375 31.9330635070800781 0
107 33 100 106.782958984375 31.9330635070800781 0
727 526 0 725.5223388671875 525.930908203125 0
717 526 0 725.5223388671875 525.930908203125 0
717 526 100 725.5223388671875 525.930908203125 0
727 526 100 725.5223388671875 525.930908203125 0
727 34 0 725.5223388671875 32.9308929443359375 0
717 34 0 725.5223388671875 32.9308929443359375 0
717 34 100 725.5223388671875 32.9308929443359375 0
727 34 100 725.5223388671875 32.9308929443359375 0
440 42 0 424.333343505859375 40.5999984741210938 0
440 32 0 424.333343505859375 40.5999984741210938 0
440 32 100 424.333343505859375 40.5999984741210938 0
440 42 100 424.333343505859375 40.5999984741210938 0
470 42 0 455.333343505859375 40.5999984741210938 0
470 32 0 455.333343505859375 40.5999984741210938 0
470 32 100 455.333343505859375 40.5999984741210938 0
470 42 100 455.333343505859375 40.5999984741210938 0
271 525 0 265.955230712890625 517.1641845703125 0
271 515 0 265.955230712890625 517.1641845703125 0
271 515 100 265.955230712890625 517.1641845703125 0
271 525 100 265.955230712890625 517.1641845703125 0
338 525 0 333.955230712890625 517.1641845703125 0
338 515 0 333.955230712890625 517.1641845703125 0
338 515 100 333.955230712890625 517.1641845703125 0
338 525 100 333.955230712890625 517.1641845703125 0
105 523 0 102.432838439941406 515.19403076171875 0
105 513 0 102.432838439941406 515.19403076171875 0
105 513 100 102.432838439941406 515.19403076171875 0
105 523 100 102.432838439941406 515.19403076171875 0
172 523 0 170.432830810546875 515.19403076171875 0
172 513 0 170.432830810546875 515.19403076171875 0
172 513 100 170.432830810546875 515.19403076171875 0
172 523 100 170.432830810546875 515.19403076171875 0
411 525 0 392.875 503.125 0
411 515 0 392.875 503.125 0
411 515 100 392.875 503.125 0
411 525 100 392.875 503.125 0
435 525 0 417.875 503.125 0
435 515 0 417.875 503.125 0
435 515 100 417.875 503.125 0
435 525 100 417.875 503.125 0
200 88 0 195.454544067382812 87 0
190 88 0 195.454544067382812 87 0
190 88 100 195.454544067382812 87 0
200 88 100 195.454544067382812 87 0
200 44 0 195.454544067382812 42 0
190 44 0 195.454544067382812 42 0
190 44 100 195.454544067382812 42 0
200 44 100 195.454544067382812 42 0
516 43 0 509.26666259765625 42.5222206115722656 0
516 33 0 509.26666259765625 42.5222206115722656 0
516 33 100 509.26666259765625 42.5222206115722656 0
516 43 100 509.26666259765625 42.5222206115722656 0
606 43 0 600.26666259765625 42.5222206115722656 0
606 33 0 600.26666259765625 42.5222206115722656 0
606 33 100 600.26666259765625 42.5222206115722656 0
606 43 100 600.26666259765625 42.5222206115722656 0
105 43 0 103.487808227539062 42.7902450561523438 0
105 33 0 103.487808227539062 42.7902450561523438 0
105 33 100 103.487808227539062 42.7902450561523438 0
105 43 100 103.487808227539062 42.7902450561523438 0
342 43 0 332.3125 41.65625 0
342 33 0 332.3125 41.65625 0
342 33 100 332.3125 41.65625 0
342 43 100 332.3125 41.65625 0
99 526 0 0 0 -1
89 526 0 0 0 -1
89 33 0 0 0 -1
99 33 0 0 0 -1
99 526 100 0 0 1
89 526 100 0 0 1
89 33 100 0 0 1
99 33 100 0 0 1
415 529 0 0 0 -1
405 529 0 0 0 -1
405 206 0 0 0 -1
415 206 0 0 0 -1
415 529 100 0 0 1
405 529 100 0 0 1
405 206 100 0 0 1
415 206 100 0 0 1
194 94 0 0 0 -1
194 84 0 0 0 -1
309 84 0 0 0 -1
309 94 0 0 0 -1
194 94 100 0 0 1
194 84 100 0 0 1
309 84 100 0 0 1
309 94 100 0 0 1
105 154 0 0 0 -1
105 144 0 0 0 -1
312 144 0 0 0 -1
312 154 0 0 0 -1
105 154 100 0 0 1
105 144 100 0 0 1
312 144 100 0 0 1
312 154 100 0 0 1
656 39 0 0 0 -1
656 29 0 0 0 -1
717 29 0 0 0 -1
717 39 0 0 0 -1
656 39 100 0 0 1
656 29 100 0 0 1
717 29 100 0 0 1
717 39 100 0 0 1
575 205 0 0 0 -1
565 205 0 0 0 -1
565 171 0 0 0 -1
575 171 0 0 0 -1
575 205 100 0 0 1
565 205 100 0 0 1
565 171 100 0 0 1
575 171 100 0 0 1
107 526 0 0 0 -1
97 526 0 0 0 -1
97 33 0 0 0 -1
107 33 0 0 0 -1
107 526 100 0 0 1
97 526 100 0 0 1
97 33 100 0 0 1
107 33 100 0 0 1
727 526 0 0 0 -1
717 526 0 0 0 -1
717 34 0 0 0 -1
727 34 0 0 0 -1
727 526 100 0 0 1
717 526 100 0 0 1
717 34 100 0 0 1
727 34 100 0 0 1
440 42 0 0 0 -1
440 32 0 0 0 -1
470 32 0 0 0 -1
470 42 0 0 0 -1
440 42 100 0 0 1
440 32 100 0 0 1
470 32 100 0 0 1
470 42 100 0 0 1
271 525 0 0 0 -1
271 515 0 0 0 -1
338 515 0 0 0 -1
338 525 0 0 0 -1
271 525 100 0 0 1
271 515 100 0 0 1
338 515 100 0 0 1
338 525 100 0 0 1
105 523 0 0 0 -1
105 513 0 0 0 -1
172 513 0 0 0 -1
172 523 0 0 0 -1
105 523 100 0 0 1
105 513 100 0 0 1
172 513 100 0 0 1
172 523 100 0 0 1
411 525 0 0 0 -1
411 515 0 0 0 -1
435 515 0 0 0 -1
435 525 0 0 0 -1
411 525 100 0 0 1
411 515 100 0 0 1
435 515 100 0 0 1
435 525 100 0 0 1
200 88 0 0 0 -1
190 88 0 0 0 -1
190 44 0 0 0 -1
200 44 0 0 0 -1
200 88 100 0 0 1
190 88 100 0 0 1
190 44 100 0 0 1
200 44 100 0 0 1
516 43 0 0 0 -1
516 33 0 0 0 -1
606 33 0 0 0 -1
606 43 0 0 0 -1
516 43 100 0 0 1
516 33 100 0 0 1
606 33 100 0 0 1
606 43 100 0 0 1
105 43 0 0 0 -1
105 33 0 0 0 -1
310 33 0 0 0 -1
310 43 0 0 0 -1
105 43 100 0 0 1
105 33 100 0 0 1
310 33 100 0 0 1
310 43 100 0 0 1
310 43 0 0 0 -1
310 33 0 0 0 -1
342 33 0 0 0 -1
342 43 0 0 0 -1
310 43 100 0 0 1
310 33 100 0 0 1
342 33 100 0 0 1
342 43 100 0 0 1
4 0 1 2 3
4 4 5 6 7
4 8 9 10 11
4 12 13 14 15
4 16 17 18 19
4 20 21 22 23
4 24 25 26 27
4 28 29 30 31
4 32 33 34 35
4 36 37 38 39
4 40 41 42 43
4 44 45 46 47
4 48 49 50 51
4 52 53 54 55
4 56 57 58 59
4 60 61 62 63
4 64 65 66 67
4 68 69 70 71
4 72 73 74 75
4 76 77 78 79
4 80 81 82 83
4 84 85 86 87
4 88 89 90 91
4 92 93 94 95
4 96 97 98 99
4 100 101 102 103
4 104 105 106 107
4 108 109 110 111
4 112 113 114 115
4 116 117 118 119
4 120 121 122 123
4 124 125 126 127
4 128 129 130 131
4 132 133 134 135
4 136 137 138 139
4 140 141 142 143
4 144 145 146 147
4 148 149 150 151
4 152 153 154 155
4 156 157 158 159
4 160 161 162 163
4 164 165 166 167
4 168 169 170 171
4 172 173 174 175
4 176 177 178 179
4 180 181 182 183
4 184 185 186 187
4 188 189 190 191
4 192 193 194 195
4 196 197 198 199
4 200 201 202 203
4 204 205 206 207
4 208 209 210 211
4 212 213 214 215
4 216 217 218 219
4 220 221 222 223
4 224 225 226 227
4 228 229 230 231
4 232 233 234 235
4 236 237 238 239
4 240 241 242 243
4 244 245 246 247
4 248 249 250 251
4 252 253 254 255
4 256 257 258 259
4 260 261 262 263
4 264 265 266 267
4 268 269 270 271
4 272 273 274 275
4 276 277 278 279
4 280 281 282 283
4 284 285 286 287
4 288 289 290 291
4 292 293 294 295
4 296 297 298 299
4 300 301 302 303
4 304 305 306 307
4 308 309 310 311
4 312 313 314 315
4 316 317 318 319
4 320 321 322 323
4 324 325 326 327
4 328 329 330 331
4 332 333 334 335
4 336 337 338 339
4 340 341 342 343
4 344 345 346 347
4 348 349 350 351
4 352 353 354 355
4 356 357 358 359
4 360 361 362 363
4 364 365 366 367
4 368 369 370 371
4 372 373 374 375
