ply
format ascii 1.0
element vertex 248
property float x
property float y
property float z
property float nx
property float ny
property float nz
element quads 62
property list uchar int vertex_indices
end_header
492 280 0 1 0 0
492 228 0 1 0 0
492 228 100 1 0 0
492 280 100 1 0 0
482 280 0 -1 -0 0
482 228 0 -1 -0 0
482 228 100 -1 -0 0
482 280 100 -1 -0 0
439 342 0 1 0 0
439 246 0 1 0 0
439 246 100 1 0 0
439 342 100 1 0 0
429 342 0 -1 -0 0
429 246 0 -1 -0 0
429 246 100 -1 -0 0
429 342 100 -1 -0 0
647 191 0 1 0 0
647 121 0 1 0 0
647 121 100 1 0 0
647 191 100 1 0 0
637 191 0 -1 -0 0
637 121 0 -1 -0 0
637 121 100 -1 -0 0
637 191 100 -1 -0 0
387 415 0 -0 1 0
429 415 0 -0 1 0
429 415 100 -0 1 0
387 415 100 -0 1 0
387 405 0 0 -1 0
439 405 0 0 -1 0
439 405 100 0 -1 0
387 405 100 0 -1 0
429 415 0 -1 0 0
429 466 0 -1 0 0
429 466 100 -1 0 0
429 415 100 -1 0 0
439 405 0 1 -0 0
439 466 0 1 -0 0
439 466 100 1 -0 0
439 405 100 1 -0 0
305 337 0 1 0 0
305 246 0 1 0 0
305 246 100 1 0 0
305 337 100 1 0 0
295 337 0 -1 -0 0
295 246 0 -1 -0 0
295 246 100 -1 -0 0
295 337 100 -1 -0 0
508 213 0 -0 1 0
578 213 0 -0 1 0
578 213 100 -0 1 0
508 213 100 -0 1 0
508 203 0 0 -1 0
578 203 0 0 -1 0
578 203 100 0 -1 0
508 203 100 0 -1 0
189 324 0 1 0 0
189 247 0 1 0 0
189 247 100 1 0 0
189 324 100 1 0 0
179 324 0 -1 -0 0
179 247 0 -1 -0 0
179 247 100 -1 -0 0
179 324 100 -1 -0 0
356 90 0 -0 1 0
396 90 0 -0 1 0
396 90 100 -0 1 0
356 90 100 -0 1 0
356 80 0 0 -1 0
396 80 0 0 -1 0
396 80 100 0 -1 0
356 80 100 0 -1 0
364 376 0 1 0 0
364 342 0 1 0 0
364 342 100 1 0 0
364 376 100 1 0 0
354 376 0 -1 -0 0
354 342 0 -1 -0 0
354 342 100 -1 -0 0
354 376 100 -1 -0 0
364 342 0 1 0 0
364 319 0 1 0 0
364 319 100 1 0 0
364 342 100 1 0 0
354 342 0 -1 -0 0
354 319 0 -1 -0 0
354 319 100 -1 -0 0
354 342 100 -1 -0 0
492 280 0 482.5384521484375 275.615386962890625 0
482 280 0 482.5384521484375 275.615386962890625 0
482 280 100 482.5384521484375 275.615386962890625 0
492 280 100 482.5384521484375 275.615386962890625 0
492 228 0 482.5384521484375 222.615386962890625 0
482 228 0 482.5384521484375 222.615386962890625 0
482 228 100 482.5384521484375 222.615386962890625 0
492 228 100 482.5384521484375 222.615386962890625 0
439 342 0 434.427093505859375 339.4375 0
429 342 0 434.427093505859375 339.4375 0
429 342 100 434.427093505859375 339.4375 0
439 342 100 434.427093505859375 339.4375 0
439 246 0 434.427093505859375 242.4375 0
429 246 0 434.427093505859375 242.4375 0
429 246 100 434.427093505859375 242.4375 0
439 246 100 434.427093505859375 242.4375 0
647 191 0 637.75714111328125 189.27142333984375 0
637 191 0 637.75714111328125 189.27142333984375 0
637 191 100 637.75714111328125 189.27142333984375 0
647 191 100 637.75714111328125 189.27142333984375 0
647 121 0 637.75714111328125 118.271430969238281 0
637 121 0 637.75714111328125 118.271430969238281 0
637 121 100 637.75714111328125 118.271430969238281 0
647 121 100 637.75714111328125 118.271430969238281 0
387 415 0 376.78570556640625 405.119049072265625 0
387 405 0 376.78570556640625 405.119049072265625 0
387 405 100 376.78570556640625 405.119049072265625 0
387 415 100 376.78570556640625 405.119049072265625 0
305 337 0 301.648345947265625 334.29669189453125 0
295 337 0 301.648345947265625 334.29669189453125 0
295 337 100 301.648345947265625 334.29669189453125 0
305 337 100 301.648345947265625 334.29669189453125 0
305 246 0 301.648345947265625 242.296707153320312 0
295 246 0 301.648345947265625 242.296707153320312 0
295 246 100 301.648345947265625 242.296707153320312 0
305 246 100 301.648345947265625 242.296707153320312 0
429 466 0 420.588226318359375 457.86273193359375 0
439 466 0 420.588226318359375 457.86273193359375 0
439 466 100 420.588226318359375 457.86273193359375 0
429 466 100 420.588226318359375 457.86273193359375 0
508 213 0 499.74285888671875 209.957138061523438 0
508 203 0 499.74285888671875 209.957138061523438 0
508 203 100 499.74285888671875 209.957138061523438 0
508 213 100 499.74285888671875 209.957138061523438 0
578 213 0 570.74285888671875 209.957138061523438 0
578 203 0 570.74285888671875 209.957138061523438 0
578 203 100 570.74285888671875 209.957138061523438 0
578 213 100 570.74285888671875 209.957138061523438 0
189 324 0 186.545455932617188 320.792205810546875 0
179 324 0 186.545455932617188 320.792205810546875 0
179 324 100 186.545455932617188 320.792205810546875 0
189 324 100 186.545455932617188 320.792205810546875 0
189 247 0 186.545455932617188 242.792205810546875 0
179 247 0 186.545455932617188 242.792205810546875 0
179 247 100 186.545455932617188 242.792205810546875 0
189 247 100 186.545455932617188 242.792205810546875 0
356 90 0 346.100006103515625 87.75 0
356 80 0 346.100006103515625 87.75 0
356 80 100 346.100006103515625 87.75 0
356 90 100 346.100006103515625 87.75 0
396 90 0 387.100006103515625 87.75 0
396 80 0 387.100006103515625 87.75 0
396 80 100 387.100006103515625 87.75 0
396 90 100 387.100006103515625 87.75 0
364 376 0 353.29412841796875 365.941162109375 0
354 376 0 353.29412841796875 365.941162109375 0
354 376 100 353.29412841796875 365.941162109375 0
364 376 100 353.29412841796875 365.941162109375 0
364 319 0 348.173919677734375 304.13043212890625 0
354 319 0 348.173919677734375 304.13043212890625 0
354 319 100 348.173919677734375 304.13043212890625 0
364 319 100 348.173919677734375 304.13043212890625 0
492 280 0 0 0 -1
482 280 0 0 0 -1
482 228 0 0 0 -1
492 228 0 0 0 -1
492 280 100 0 0 1
482 280 100 0 0 1
482 228 100 0 0 1
492 228 100 0 0 1
439 342 0 0 0 -1
429 342 0 0 0 -1
429 246 0 0 0 -1
439 246 0 0 0 -1
439 342 100 0 0 1
429 342 100 0 0 1
429 246 100 0 0 1
439 246 100 0 0 1
647 191 0 0 0 -1
637 191 0 0 0 -1
637 121 0 0 0 -1
647 121 0 0 0 -1
647 191 100 0 0 1
637 191 100 0 0 1
637 121 100 0 0 1
647 121 100 0 0 1
387 415 0 0 0 -1
387 405 0 0 0 -1
439 405 0 0 0 -1
429 415 0 0 0 -1
387 415 100 0 0 1
387 405 100 0 0 1
439 405 100 0 0 1
429 415 100 0 0 1
429 415 0 0 0 -1
439 405 0 0 0 -1
439 466 0 0 0 -1
429 466 0 0 0 -1
429 415 100 0 0 1
439 405 100 0 0 1
439 466 100 0 0 1
429 466 100 0 0 1
305 337 0 0 0 -1
295 337 0 0 0 -1
295 246 0 0 0 -1
305 246 0 0 0 -1
305 337 100 0 0 1
295 337 100 0 0 1
295 246 100 0 0 1
305 246 100 0 0 1
508 213 0 0 0 -1
508 203 0 0 0 -1
578 203 0 0 0 -1
578 213 0 0 0 -1
508 213 100 0 0 1
508 203 100 0 0 1
578 203 100 0 0 1
578 213 100 0 0 1
189 324 0 0 0 -1
179 324 0 0 0 -1
179 247 0 0 0 -1
189 247 0 0 0 -1
189 324 100 0 0 1
179 324 100 0 0 1
179 247 100 0 0 1
189 247 100 0 0 1
356 90 0 0 0 -1
356 80 0 0 0 -1
396 80 0 0 0 -1
396 90 0 0 0 -1
356 90 100 0 0 1
356 80 100 0 0 1
396 80 100 0 0 1
396 90 100 0 0 1
364 376 0 0 0 -1
354 376 0 0 0 -1
354 342 0 0 0 -1
364 342 0 0 0 -1
364 376 100 0 0 1
354 376 100 0 0 1
354 342 100 0 0 1
364 342 100 0 0 1
364 342 0 0 0 -1
354 342 0 0 0 -1
354 319 0 0 0 -1
364 319 0 0 0 -1
364 342 100 0 0 1
354 342 100 0 0 1
354 319 100 0 0 1
364 319 100 0 0 1
4 0 1 2 3
4 4 5 6 7
4 8 9 10 11
4 12 13 14 15
4 16 17 18 19
4 20 21 22 23
4 24 25 26 27
4 28 29 30 31
4 32 33 34 35
4 36 37 38 39
4 40 41 42 43
4 44 45 46 47
4 48 49 50 51
4 52 53 54 55
4 56 57 58 59
4 60 61 62 63
4 64 65 66 67
4 68 69 70 71
4 72 73 74 75
4 76 77 78 79
4 80 81 82 83
4 84 85 86 87
4 88 89 90 91
4 92 93 94 95
4 96 97 98 99
4 100 101 102 103
4 104 105 106 107
4 108 109 110 111
4 112 113 114 115
4 116 117 118 119
4 120 121 122 123
4 124 125 126 127
4 128 129 130 131
4 132 133 134 135
4 136 137 138 139
4 140 141 142 143
4 144 145 146 147
4 148 149 150 151
4 152 153 154 155
4 156 157 158 159
4 160 161 162 163
4 164 165 166 167
4 168 169 170 171
4 172 173 174 175
4 176 177 178 179
4 180 181 182 183
4 184 185 186 187
4 188 189 190 191
4 192 193 194 195
4 196 197 198 199
4 200 201 202 203
4 204 205 206 207
4 208 209 210 211
4 212 213 214 215
4 216 217 218 219
4 220 221 222 223
4 224 225 226 227
4 228 229 230 231
4 232 233 234 235
4 236 237 238 239
4 240 241 242 243
4 244 245 246 247
