ply
format ascii 1.0
element vertex 284
property float x
property float y
property float z
property float nx
property float ny
property float nz
element quads 71
property list uchar int vertex_indices
end_header
243 406 0 1 0 0
243 244 0 1 0 0
243 244 100 1 0 0
243 406 100 1 0 0
233 406 0 -1 -0 0
233 244 0 -1 -0 0
233 244 100 -1 -0 0
233 406 100 -1 -0 0
243 406 0 1 0 0
243 152 0 1 0 0
243 152 100 1 0 0
243 406 100 1 0 0
233 406 0 -1 -0 0
233 152 0 -1 -0 0
233 152 100 -1 -0 0
233 406 100 -1 -0 0
243 406 0 1 0 0
243 315 0 1 0 0
243 315 100 1 0 0
243 406 100 1 0 0
233 406 0 -1 -0 0
233 315 0 -1 -0 0
233 315 100 -1 -0 0
233 406 100 -1 -0 0
587 330 0 1 0 0
587 274 0 1 0 0
587 274 100 1 0 0
587 330 100 1 0 0
577 330 0 -1 -0 0
577 274 0 -1 -0 0
577 274 100 -1 -0 0
577 330 100 -1 -0 0
527 326 0 1 0 0
527 278 0 1 0 0
527 278 100 1 0 0
527 326 100 1 0 0
517 326 0 -1 -0 0
517 278 0 -1 -0 0
517 278 100 -1 -0 0
517 326 100 -1 -0 0
369 312 0 1 0 0
369 251 0 1 0 0
369 251 100 1 0 0
369 312 100 1 0 0
359 312 0 -1 -0 0
359 241 0 -1 -0 0
359 241 100 -1 -0 0
359 312 100 -1 -0 0
369 251 0 -0 1 0
452 251 0 -0 1 0
452 251 100 -0 1 0
369 251 100 -0 1 0
359 241 0 0 -1 0
452 241 0 0 -1 0
452 241 100 0 -1 0
359 241 100 0 -1 0
321 431 0 -0 1 0
396 431 0 -0 1 0
396 431 100 -0 1 0
321 431 100 -0 1 0
321 421 0 0 -1 0
396 421 0 0 -1 0
396 421 100 0 -1 0
321 421 100 0 -1 0
324 159 0 -0 1 0
624 159 0 -0 1 0
624 159 100 -0 1 0
324 159 100 -0 1 0
324 149 0 0 -1 0
624 149 0 0 -1 0
624 149 100 0 -1 0
324 149 100 0 -1 0
399 331 0 -0 1 0
524 331 0 -0 1 0
524 331 100 -0 1 0
399 331 100 -0 1 0
399 321 0 0 -1 0
524 321 0 0 -1 0
524 321 100 0 -1 0
399 321 100 0 -1 0
227 359 0 1 0 0
227 318 0 1 0 0
227 318 100 1 0 0
227 359 100 1 0 0
217 359 0 -1 -0 0
217 318 0 -1 -0 0
217 318 100 -1 -0 0
217 359 100 -1 -0 0
402 426 0 1 0 0
402 274 0 1 0 0
402 274 100 1 0 0
402 426 100 1 0 0
392 426 0 -1 -0 0
392 274 0 -1 -0 0
392 274 100 -1 -0 0
392 426 100 -1 -0 0
402 274 0 1 0 0
402 246 0 1 0 0
402 246 100 1 0 0
402 274 100 1 0 0
392 274 0 -1 -0 0
392 246 0 -1 -0 0
392 246 100 -1 -0 0
392 274 100 -1 -0 0
243 244 0 241.5 241.493820190429688 0
233 244 0 241.5 241.493820190429688 0
233 244 100 241.5 241.493820190429688 0
243 244 100 241.5 241.493820190429688 0
587 330 0 576.51788330078125 325.107147216796875 0
577 330 0 576.51788330078125 325.107147216796875 0
577 330 100 576.51788330078125 325.107147216796875 0
587 330 100 576.51788330078125 325.107147216796875 0
587 274 0 576.51788330078125 268.107147216796875 0
577 274 0 576.51788330078125 268.107147216796875 0
577 274 100 576.51788330078125 268.107147216796875 0
587 274 100 576.51788330078125 268.107147216796875 0
527 326 0 516.02081298828125 320.208343505859375 0
517 326 0 516.02081298828125 320.208343505859375 0
517 326 100 516.02081298828125 320.208343505859375 0
527 326 100 516.02081298828125 320.208343505859375 0
527 278 0 516.02081298828125 271.208343505859375 0
517 278 0 516.02081298828125 271.208343505859375 0
517 278 100 516.02081298828125 271.208343505859375 0
527 278 100 516.02081298828125 271.208343505859375 0
369 312 0 362.9508056640625 307.88525390625 0
359 312 0 362.9508056640625 307.88525390625 0
359 312 100 362.9508056640625 307.88525390625 0
369 312 100 362.9508056640625 307.88525390625 0
321 431 0 315.720001220703125 425.253326416015625 0
321 421 0 315.720001220703125 425.253326416015625 0
321 421 100 315.720001220703125 425.253326416015625 0
321 431 100 315.720001220703125 425.253326416015625 0
396 431 0 391.720001220703125 425.253326416015625 0
396 421 0 391.720001220703125 425.253326416015625 0
396 421 100 391.720001220703125 425.253326416015625 0
396 431 100 391.720001220703125 425.253326416015625 0
243 152 0 242.043304443359375 150.401580810546875 0
233 152 0 242.043304443359375 150.401580810546875 0
233 152 100 242.043304443359375 150.401580810546875 0
243 152 100 242.043304443359375 150.401580810546875 0
324 159 0 321.920013427734375 158.470001220703125 0
324 149 0 321.920013427734375 158.470001220703125 0
324 149 100 321.920013427734375 158.470001220703125 0
324 159 100 321.920013427734375 158.470001220703125 0
624 159 0 622.91998291015625 158.470001220703125 0
624 149 0 622.91998291015625 158.470001220703125 0
624 149 100 622.91998291015625 158.470001220703125 0
624 159 100 622.91998291015625 158.470001220703125 0
399 331 0 394.808013916015625 328.35198974609375 0
399 321 0 394.808013916015625 328.35198974609375 0
399 321 100 394.808013916015625 328.35198974609375 0
399 331 100 394.808013916015625 328.35198974609375 0
524 331 0 520.8079833984375 328.35198974609375 0
524 321 0 520.8079833984375 328.35198974609375 0
524 321 100 520.8079833984375 328.35198974609375 0
524 331 100 520.8079833984375 328.35198974609375 0
452 251 0 447.554229736328125 247.975906372070312 0
452 241 0 447.554229736328125 247.975906372070312 0
452 241 100 447.554229736328125 247.975906372070312 0
452 251 100 447.554229736328125 247.975906372070312 0
227 359 0 221.463409423828125 351.243896484375 0
217 359 0 221.463409423828125 351.243896484375 0
217 359 100 221.463409423828125 351.243896484375 0
227 359 100 221.463409423828125 351.243896484375 0
227 318 0 221.463409423828125 309.243896484375 0
217 318 0 221.463409423828125 309.243896484375 0
217 318 100 221.463409423828125 309.243896484375 0
227 318 100 221.463409423828125 309.243896484375 0
243 315 0 240.329666137695312 310.5384521484375 0
233 315 0 240.329666137695312 310.5384521484375 0
233 315 100 240.329666137695312 310.5384521484375 0
243 315 100 240.329666137695312 310.5384521484375 0
402 426 0 399.355255126953125 424.197357177734375 0
392 426 0 399.355255126953125 424.197357177734375 0
392 426 100 399.355255126953125 424.197357177734375 0
402 426 100 399.355255126953125 424.197357177734375 0
402 246 0 387.642852783203125 236.214279174804688 0
392 246 0 387.642852783203125 236.214279174804688 0
392 246 100 387.642852783203125 236.214279174804688 0
402 246 100 387.642852783203125 236.214279174804688 0
243 406 0 0 0 -1
233 406 0 0 0 -1
233 244 0 0 0 -1
243 244 0 0 0 -1
243 406 100 0 0 1
233 406 100 0 0 1
233 244 100 0 0 1
243 244 100 0 0 1
243 406 0 0 0 -1
233 406 0 0 0 -1
233 152 0 0 0 -1
243 152 0 0 0 -1
243 406 100 0 0 1
233 406 100 0 0 1
233 152 100 0 0 1
243 152 100 0 0 1
243 406 0 0 0 -1
233 406 0 0 0 -1
233 315 0 0 0 -1
243 315 0 0 0 -1
243 406 100 0 0 1
233 406 100 0 0 1
233 315 100 0 0 1
243 315 100 0 0 1
587 330 0 0 0 -1
577 330 0 0 0 -1
577 274 0 0 0 -1
587 274 0 0 0 -1
587 330 100 0 0 1
577 330 100 0 0 1
577 274 100 0 0 1
587 274 100 0 0 1
527 326 0 0 0 -1
517 326 0 0 0 -1
517 278 0 0 0 -1
527 278 0 0 0 -1
527 326 100 0 0 1
517 326 100 0 0 1
517 278 100 0 0 1
527 278 100 0 0 1
369 312 0 0 0 -1
359 312 0 0 0 -1
359 241 0 0 0 -1
369 251 0 0 0 -1
369 312 100 0 0 1
359 312 100 0 0 1
359 241 100 0 0 1
369 251 100 0 0 1
369 251 0 0 0 -1
359 241 0 0 0 -1
452 241 0 0 0 -1
452 251 0 0 0 -1
369 251 100 0 0 1
359 241 100 0 0 1
452 241 100 0 0 1
452 251 100 0 0 1
321 431 0 0 0 -1
321 421 0 0 0 -1
396 421 0 0 0 -1
396 431 0 0 0 -1
321 431 100 0 0 1
321 421 100 0 0 1
396 421 100 0 0 1
396 431 100 0 0 1
324 159 0 0 0 -1
324 149 0 0 0 -1
624 149 0 0 0 -1
624 159 0 0 0 -1
324 159 100 0 0 1
324 149 100 0 0 1
624 149 100 0 0 1
624 159 100 0 0 1
399 331 0 0 0 -1
399 321 0 0 0 -1
524 321 0 0 0 -1
524 331 0 0 0 -1
399 331 100 0 0 1
399 321 100 0 0 1
524 321 100 0 0 1
524 331 100 0 0 1
227 359 0 0 0 -1
217 359 0 0 0 -1
217 318 0 0 0 -1
227 318 0 0 0 -1
227 359 100 0 0 1
217 359 100 0 0 1
217 318 100 0 0 1
227 318 100 0 0 1
402 426 0 0 0 -1
392 426 0 0 0 -1
392 274 0 0 0 -1
402 274 0 0 0 -1
402 426 100 0 0 1
392 426 100 0 0 1
392 274 100 0 0 1
402 274 100 0 0 1
402 274 0 0 0 -1
392 274 0 0 0 -1
392 246 0 0 0 -1
402 246 0 0 0 -1
402 274 100 0 0 1
392 274 100 0 0 1
392 246 100 0 0 1
402 246 100 0 0 1
4 0 1 2 3
4 4 5 6 7
4 8 9 10 11
4 12 13 14 15
4 16 17 18 19
4 20 21 22 23
4 24 25 26 27
4 28 29 30 31
4 32 33 34 35
4 36 37 38 39
4 40 41 42 43
4 44 45 46 47
4 48 49 50 51
4 52 53 54 55
4 56 57 58 59
4 60 61 62 63
4 64 65 66 67
4 68 69 70 71
4 72 73 74 75
4 76 77 78 79
4 80 81 82 83
4 84 85 86 87
4 88 89 90 91
4 92 93 94 95
4 96 97 98 99
4 100 101 102 103
4 104 105 106 107
4 108 109 110 111
4 112 113 114 115
4 116 117 118 119
4 120 121 122 123
4 124 125 126 127
4 128 129 130 131
4 132 133 134 135
4 136 137 138 139
4 140 141 142 143
4 144 145 146 147
4 148 149 150 151
4 152 153 154 155
4 156 157 158 159
4 160 161 162 163
4 164 165 166 167
4 168 169 170 171
4 172 173 174 175
4 176 177 178 179
4 180 181 182 183
4 184 185 186 187
4 188 189 190 191
4 192 193 194 195
4 196 197 198 199
4 200 201 202 203
4 204 205 206 207
4 208 209 210 211
4 212 213 214 215
4 216 217 218 219
4 220 221 222 223
4 224 225 226 227
4 228 229 230 231
4 232 233 234 235
4 236 237 238 239
4 240 241 242 243
4 244 245 246 247
4 248 249 250 251
4 252 253 254 255
4 256 257 258 259
4 260 261 262 263
4 264 265 266 267
4 268 269 270 271
4 272 273 274 275
4 276 277 278 279
4 280 281 282 283
