ply
format ascii 1.0
element vertex 1122
property float x
property float y
property float z
property float nx
property float ny
property float nz
element quads 276
property list uchar int vertex_indices
element triads 2
property list uchar int vertex_indices
end_header
811 234 0 1 0 0
811 132 0 1 0 0
811 132 100 1 0 0
811 234 100 1 0 0
801 234 0 -1 -0 0
801 137 0 -1 -0 0
801 137 100 -1 -0 0
801 234 100 -1 -0 0
811 127 0 -0 -1 0
554 127 0 -0 -1 0
554 127 100 -0 -1 0
811 127 100 -0 -1 0
801 137 0 0 1 0
554 137 0 0 1 0
554 137 100 0 1 0
801 137 100 0 1 0
801 132 0 -1 0 0
801 382 0 -1 0 0
801 382 100 -1 0 0
801 132 100 -1 0 0
811 127 0 1 -0 0
811 382 0 1 -0 0
811 382 100 1 -0 0
811 127 100 1 -0 0
28 340 0 1 0 0
28 86 0 1 0 0
28 86 100 1 0 0
28 340 100 1 0 0
18 340 0 -1 -0 0
18 86 0 -1 -0 0
18 86 100 -1 -0 0
18 340 100 -1 -0 0
18 86 0 -1 0 0
18 139 0 -1 0 0
18 139 100 -1 0 0
18 86 100 -1 0 0
28 86 0 1 -0 0
28 139 0 1 -0 0
28 139 100 1 -0 0
28 86 100 1 -0 0
90 159 0 1 0 0
90 96 0 1 0 0
90 96 100 1 0 0
90 159 100 1 0 0
80 159 0 -1 -0 0
80 96 0 -1 -0 0
80 96 100 -1 -0 0
80 159 100 -1 -0 0
28 484 0 1 0 0
28 293 0 1 0 0
28 293 100 1 0 0
28 484 100 1 0 0
18 484 0 -1 -0 0
18 293 0 -1 -0 0
18 293 100 -1 -0 0
18 484 100 -1 -0 0
361 243 0 -0 1 0
556 243 0 -0 1 0
556 243 100 -0 1 0
361 243 100 -0 1 0
361 233 0 0 -1 0
556 233 0 0 -1 0
556 233 100 0 -1 0
361 233 100 0 -1 0
556 233 0 -0 -1 0
225 233 0 -0 -1 0
225 233 100 -0 -1 0
556 233 100 -0 -1 0
556 243 0 0 1 0
230 243 0 0 1 0
230 243 100 0 1 0
556 243 100 0 1 0
563 265 0 1 0 0
563 88 0 1 0 0
563 88 100 1 0 0
563 265 100 1 0 0
553 265 0 -1 -0 0
553 88 0 -1 -0 0
553 88 100 -1 -0 0
553 265 100 -1 -0 0
553 88 0 -1 0 0
553 238 0 -1 0 0
553 238 100 -1 0 0
553 88 100 -1 0 0
563 88 0 1 -0 0
563 238 0 1 -0 0
563 238 100 1 -0 0
563 88 100 1 -0 0
553 88 0 -1 0 0
553 384 0 -1 0 0
553 384 100 -1 0 0
553 88 100 -1 0 0
563 88 0 1 -0 0
563 384 0 1 -0 0
563 384 100 1 -0 0
563 88 100 1 -0 0
26 346 0 -0 1 0
189 346 0 -0 1 0
189 346 100 -0 1 0
26 346 100 -0 1 0
26 336 0 0 -1 0
189 336 0 0 -1 0
189 336 100 0 -1 0
26 336 100 0 -1 0
370 287 0 1 0 0
370 234 0 1 0 0
370 234 100 1 0 0
370 287 100 1 0 0
360 287 0 -1 -0 0
360 234 0 -1 -0 0
360 234 100 -1 -0 0
360 287 100 -1 -0 0
370 287 0 1 0 0
370 238 0 1 0 0
370 238 100 1 0 0
370 287 100 1 0 0
360 287 0 -1 -0 0
360 238 0 -1 -0 0
360 238 100 -1 -0 0
360 287 100 -1 -0 0
230 448 0 1 0 0
230 352 0 1 0 0
230 352 100 1 0 0
230 448 100 1 0 0
220 448 0 -1 -0 0
220 352 0 -1 -0 0
220 352 100 -1 -0 0
220 448 100 -1 -0 0
220 352 0 -1 0 0
220 485 0 -1 0 0
220 485 100 -1 0 0
220 352 100 -1 0 0
230 352 0 1 -0 0
230 485 0 1 -0 0
230 485 100 1 -0 0
230 352 100 1 -0 0
24 487 0 -0 1 0
221 487 0 -0 1 0
221 487 100 -0 1 0
24 487 100 -0 1 0
24 477 0 0 -1 0
221 477 0 0 -1 0
221 477 100 0 -1 0
24 477 100 0 -1 0
24 487 0 -0 1 0
171 487 0 -0 1 0
171 487 100 -0 1 0
24 487 100 -0 1 0
24 477 0 0 -1 0
171 477 0 0 -1 0
171 477 100 0 -1 0
24 477 100 0 -1 0
473 90 0 -0 1 0
553 90 0 -0 1 0
553 90 100 -0 1 0
473 90 100 -0 1 0
473 80 0 0 -1 0
553 80 0 0 -1 0
553 80 100 0 -1 0
473 80 100 0 -1 0
370 406 0 1 0 0
370 353 0 1 0 0
370 353 100 1 0 0
370 406 100 1 0 0
360 406 0 -1 -0 0
360 353 0 -1 -0 0
360 353 100 -1 -0 0
360 406 100 -1 -0 0
54 486 0 1 0 0
54 428 0 1 0 0
54 428 100 1 0 0
54 486 100 1 0 0
44 486 0 -1 -0 0
44 428 0 -1 -0 0
44 428 100 -1 -0 0
44 486 100 -1 -0 0
654 370 0 -0 1 0
806 370 0 -0 1 0
806 370 100 -0 1 0
654 370 100 -0 1 0
654 360 0 0 -1 0
806 360 0 0 -1 0
806 360 100 0 -1 0
654 360 100 0 -1 0
542 383 0 1 0 0
542 328 0 1 0 0
542 328 100 1 0 0
542 383 100 1 0 0
532 383 0 -1 -0 0
532 328 0 -1 -0 0
532 328 100 -1 -0 0
532 383 100 -1 -0 0
43 486 0 1 0 0
43 459 0 1 0 0
43 459 100 1 0 0
43 486 100 1 0 0
33 486 0 -1 -0 0
33 459 0 -1 -0 0
33 459 100 -1 -0 0
33 486 100 -1 -0 0
90 308 0 1 0 0
90 285 0 1 0 0
90 285 100 1 0 0
90 308 100 1 0 0
80 308 0 -1 -0 0
80 285 0 -1 -0 0
80 285 100 -1 -0 0
80 308 100 -1 -0 0
227 411 0 -0 1 0
364 411 0 -0 1 0
364 411 100 -0 1 0
227 411 100 -0 1 0
227 401 0 0 -1 0
364 401 0 0 -1 0
364 401 100 0 -1 0
227 401 100 0 -1 0
54 111 0 1 0 0
54 85 0 1 0 0
54 85 100 1 0 0
54 111 100 1 0 0
44 111 0 -1 -0 0
44 85 0 -1 -0 0
44 85 100 -1 -0 0
44 111 100 -1 -0 0
372 90 0 -0 1 0
403 90 0 -0 1 0
403 90 100 -0 1 0
372 90 100 -0 1 0
372 80 0 0 -1 0
403 80 0 0 -1 0
403 80 100 0 -1 0
372 80 100 0 -1 0
455 386 0 -0 1 0
593 386 0 -0 1 0
593 386 100 -0 1 0
455 386 100 -0 1 0
455 376 0 0 -1 0
593 376 0 0 -1 0
593 376 100 0 -1 0
455 376 100 0 -1 0
437 286 0 1 0 0
437 239 0 1 0 0
437 239 100 1 0 0
437 286 100 1 0 0
427 286 0 -1 -0 0
427 239 0 -1 -0 0
427 239 100 -1 -0 0
427 286 100 -1 -0 0
172 196 0 1 0 0
172 135 0 1 0 0
172 135 100 1 0 0
172 196 100 1 0 0
162 196 0 -1 -0 0
162 135 0 -1 -0 0
162 135 100 -1 -0 0
162 196 100 -1 -0 0
26 343 0 -0 1 0
146 343 0 -0 1 0
146 343 100 -0 1 0
26 343 100 -0 1 0
26 333 0 0 -1 0
146 333 0 0 -1 0
146 333 100 0 -1 0
26 333 100 0 -1 0
90 340 0 1 0 0
90 238 0 1 0 0
90 238 100 1 0 0
90 340 100 1 0 0
80 340 0 -1 -0 0
80 238 0 -1 -0 0
80 238 100 -1 -0 0
80 340 100 -1 -0 0
114 90 0 -0 1 0
202 90 0 -0 1 0
202 90 100 -0 1 0
114 90 100 -0 1 0
114 80 0 0 -1 0
202 80 0 0 -1 0
202 80 100 0 -1 0
114 80 100 0 -1 0
485 194 0 1 0 0
485 88 0 1 0 0
485 88 100 1 0 0
485 194 100 1 0 0
475 204 0 -1 -0 0
475 88 0 -1 -0 0
475 88 100 -1 -0 0
475 204 100 -1 -0 0
475 204 0 -0 1 0
542 204 0 -0 1 0
542 204 100 -0 1 0
475 204 100 -0 1 0
485 194 0 0 -1 0
537 194 0 0 -1 0
537 194 100 0 -1 0
485 194 100 0 -1 0
26 243 0 -0 1 0
230 243 0 -0 1 0
230 243 100 -0 1 0
26 243 100 -0 1 0
26 233 0 0 -1 0
225 233 0 0 -1 0
225 233 100 0 -1 0
26 233 100 0 -1 0
220 238 0 -1 0 0
220 297 0 -1 0 0
220 297 100 -1 0 0
220 238 100 -1 0 0
230 243 0 1 -0 0
230 297 0 1 -0 0
230 297 100 1 -0 0
230 243 100 1 -0 0
230 243 0 1 0 0
230 197 0 1 0 0
230 197 100 1 0 0
230 243 100 1 0 0
220 238 0 -1 -0 0
220 197 0 -1 -0 0
220 197 100 -1 -0 0
220 238 100 -1 -0 0
370 238 0 1 0 0
370 197 0 1 0 0
370 197 100 1 0 0
370 238 100 1 0 0
360 238 0 -1 -0 0
360 197 0 -1 -0 0
360 197 100 -1 -0 0
360 238 100 -1 -0 0
153 338 0 1 0 0
153 238 0 1 0 0
153 238 100 1 0 0
153 338 100 1 0 0
143 338 0 -1 -0 0
143 238 0 -1 -0 0
143 238 100 -1 -0 0
143 338 100 -1 -0 0
153 238 0 1 0 0
153 198 0 1 0 0
153 198 100 1 0 0
153 238 100 1 0 0
143 238 0 -1 -0 0
143 198 0 -1 -0 0
143 198 100 -1 -0 0
143 238 100 -1 -0 0
139 204 0 -0 1 0
300 204 0 -0 1 0
300 204 100 -0 1 0
139 204 100 -0 1 0
139 194 0 0 -1 0
295 194 0 0 -1 0
295 194 100 0 -1 0
139 194 100 0 -1 0
300 204 0 -0 1 0
389 204 0 -0 1 0
389 204 100 -0 1 0
300 204 100 -0 1 0
295 194 0 0 -1 0
389 194 0 0 -1 0
389 194 100 0 -1 0
295 194 100 0 -1 0
290 199 0 -1 0 0
290 235 0 -1 0 0
290 235 100 -1 0 0
290 199 100 -1 0 0
300 204 0 1 -0 0
300 235 0 1 -0 0
300 235 100 1 -0 0
300 204 100 1 -0 0
300 204 0 1 0 0
300 86 0 1 0 0
300 86 100 1 0 0
300 204 100 1 0 0
290 199 0 -1 -0 0
290 86 0 -1 -0 0
290 86 100 -1 -0 0
290 199 100 -1 -0 0
194 242 0 -0 1 0
225 242 0 -0 1 0
225 242 100 -0 1 0
194 242 100 -0 1 0
194 232 0 0 -1 0
225 232 0 0 -1 0
225 232 100 0 -1 0
194 232 100 0 -1 0
225 242 0 -0 1 0
390 242 0 -0 1 0
390 242 100 -0 1 0
225 242 100 -0 1 0
225 232 0 0 -1 0
390 232 0 0 -1 0
390 232 100 0 -1 0
225 232 100 0 -1 0
542 226 0 1 0 0
542 204 0 1 0 0
542 204 100 1 0 0
542 226 100 1 0 0
532 226 0 -1 -0 0
532 199 0 -1 -0 0
532 199 100 -1 -0 0
532 226 100 -1 -0 0
542 204 0 1 0 0
542 160 0 1 0 0
542 160 100 1 0 0
542 204 100 1 0 0
532 199 0 -1 -0 0
532 160 0 -1 -0 0
532 160 100 -1 -0 0
532 199 100 -1 -0 0
542 204 0 -0 1 0
554 204 0 -0 1 0
554 204 100 -0 1 0
542 204 100 -0 1 0
537 194 0 0 -1 0
554 194 0 0 -1 0
554 194 100 0 -1 0
537 194 100 0 -1 0
811 234 0 803.04901123046875 232.705886840820312 0
801 234 0 803.04901123046875 232.705886840820312 0
801 234 100 803.04901123046875 232.705886840820312 0
811 234 100 803.04901123046875 232.705886840820312 0
28 340 0 27.8897628784179688 339.661407470703125 0
18 340 0 27.8897628784179688 339.661407470703125 0
18 340 100 27.8897628784179688 339.661407470703125 0
28 340 100 27.8897628784179688 339.661407470703125 0
90 159 0 88.5714263916015625 157.4761962890625 0
80 159 0 88.5714263916015625 157.4761962890625 0
80 159 100 88.5714263916015625 157.4761962890625 0
90 159 100 88.5714263916015625 157.4761962890625 0
90 96 0 88.5714263916015625 93.4761886596679688 0
80 96 0 88.5714263916015625 93.4761886596679688 0
80 96 100 88.5714263916015625 93.4761886596679688 0
90 96 100 88.5714263916015625 93.4761886596679688 0
554 127 0 550.8443603515625 126.505836486816406 0
554 137 0 550.8443603515625 126.505836486816406 0
554 137 100 550.8443603515625 126.505836486816406 0
554 127 100 550.8443603515625 126.505836486816406 0
801 382 0 797.7960205078125 381.47198486328125 0
811 382 0 797.7960205078125 381.47198486328125 0
811 382 100 797.7960205078125 381.47198486328125 0
801 382 100 797.7960205078125 381.47198486328125 0
28 484 0 27.8534030914306641 482.465972900390625 0
18 484 0 27.8534030914306641 482.465972900390625 0
18 484 100 27.8534030914306641 482.465972900390625 0
28 484 100 27.8534030914306641 482.465972900390625 0
28 293 0 27.8534030914306641 290.465972900390625 0
18 293 0 27.8534030914306641 290.465972900390625 0
18 293 100 27.8534030914306641 290.465972900390625 0
28 293 100 27.8534030914306641 290.465972900390625 0
361 243 0 358.148712158203125 241.75384521484375 0
361 233 0 358.148712158203125 241.75384521484375 0
361 233 100 358.148712158203125 241.75384521484375 0
361 243 100 358.148712158203125 241.75384521484375 0
563 265 0 559.8192138671875 264.502838134765625 0
553 265 0 559.8192138671875 264.502838134765625 0
553 265 100 559.8192138671875 264.502838134765625 0
563 265 100 559.8192138671875 264.502838134765625 0
26 346 0 24.8404903411865234 343.877288818359375 0
26 336 0 24.8404903411865234 343.877288818359375 0
26 336 100 24.8404903411865234 343.877288818359375 0
26 346 100 24.8404903411865234 343.877288818359375 0
189 346 0 188.840484619140625 343.877288818359375 0
189 336 0 188.840484619140625 343.877288818359375 0
189 336 100 188.840484619140625 343.877288818359375 0
189 346 100 188.840484619140625 343.877288818359375 0
370 234 0 363.01885986328125 228.58489990234375 0
360 234 0 363.01885986328125 228.58489990234375 0
360 234 100 363.01885986328125 228.58489990234375 0
370 234 100 363.01885986328125 228.58489990234375 0
553 238 0 549.3133544921875 237.413330078125 0
563 238 0 549.3133544921875 237.413330078125 0
563 238 100 549.3133544921875 237.413330078125 0
553 238 100 549.3133544921875 237.413330078125 0
230 448 0 227.604171752929688 444.333343505859375 0
220 448 0 227.604171752929688 444.333343505859375 0
220 448 100 227.604171752929688 444.333343505859375 0
230 448 100 227.604171752929688 444.333343505859375 0
221 487 0 220.878173828125 484.527923583984375 0
221 477 0 220.878173828125 484.527923583984375 0
221 477 100 220.878173828125 484.527923583984375 0
221 487 100 220.878173828125 484.527923583984375 0
473 90 0 466.087493896484375 88.875 0
473 80 0 466.087493896484375 88.875 0
473 80 100 466.087493896484375 88.875 0
473 90 100 466.087493896484375 88.875 0
553 90 0 547.0875244140625 88.875 0
553 80 0 547.0875244140625 88.875 0
553 80 100 547.0875244140625 88.875 0
553 90 100 547.0875244140625 88.875 0
370 406 0 363.01885986328125 399.339630126953125 0
360 406 0 363.01885986328125 399.339630126953125 0
360 406 100 363.01885986328125 399.339630126953125 0
370 406 100 363.01885986328125 399.339630126953125 0
370 353 0 363.01885986328125 345.339630126953125 0
360 353 0 363.01885986328125 345.339630126953125 0
360 353 100 363.01885986328125 345.339630126953125 0
370 353 100 363.01885986328125 345.339630126953125 0
54 486 0 53.0689659118652344 478.620697021484375 0
44 486 0 53.0689659118652344 478.620697021484375 0
44 486 100 53.0689659118652344 478.620697021484375 0
54 486 100 53.0689659118652344 478.620697021484375 0
54 428 0 53.0689659118652344 419.620697021484375 0
44 428 0 53.0689659118652344 419.620697021484375 0
44 428 100 53.0689659118652344 419.620697021484375 0
54 428 100 53.0689659118652344 419.620697021484375 0
654 370 0 648.6973876953125 367.5657958984375 0
654 360 0 648.6973876953125 367.5657958984375 0
654 360 100 648.6973876953125 367.5657958984375 0
654 370 100 648.6973876953125 367.5657958984375 0
806 370 0 801.6973876953125 367.5657958984375 0
806 360 0 801.6973876953125 367.5657958984375 0
806 360 100 801.6973876953125 367.5657958984375 0
806 370 100 801.6973876953125 367.5657958984375 0
542 383 0 532.14544677734375 377.036376953125 0
532 383 0 532.14544677734375 377.036376953125 0
532 383 100 532.14544677734375 377.036376953125 0
542 383 100 532.14544677734375 377.036376953125 0
542 328 0 532.14544677734375 321.036376953125 0
532 328 0 532.14544677734375 321.036376953125 0
532 328 100 532.14544677734375 321.036376953125 0
542 328 100 532.14544677734375 321.036376953125 0
18 139 0 17.6603775024414062 137.377365112304688 0
28 139 0 17.6603775024414062 137.377365112304688 0
28 139 100 17.6603775024414062 137.377365112304688 0
18 139 100 17.6603775024414062 137.377365112304688 0
43 486 0 41.4074058532714844 469 0
33 486 0 41.4074058532714844 469 0
33 486 100 41.4074058532714844 469 0
43 486 100 41.4074058532714844 469 0
43 459 0 41.4074058532714844 441 0
33 459 0 41.4074058532714844 441 0
33 459 100 41.4074058532714844 441 0
43 459 100 41.4074058532714844 441 0
90 308 0 86.0869598388671875 295.60870361328125 0
80 308 0 86.0869598388671875 295.60870361328125 0
80 308 100 86.0869598388671875 295.60870361328125 0
90 308 100 86.0869598388671875 295.60870361328125 0
90 285 0 86.0869598388671875 271.60870361328125 0
80 285 0 86.0869598388671875 271.60870361328125 0
80 285 100 86.0869598388671875 271.60870361328125 0
90 285 100 86.0869598388671875 271.60870361328125 0
227 411 0 224.343063354492188 408 0
227 401 0 224.343063354492188 408 0
227 401 100 224.343063354492188 408 0
227 411 100 224.343063354492188 408 0
364 411 0 362.34307861328125 408 0
364 401 0 362.34307861328125 408 0
364 401 100 362.34307861328125 408 0
364 411 100 362.34307861328125 408 0
171 487 0 170.83673095703125 483.68707275390625 0
171 477 0 170.83673095703125 483.68707275390625 0
171 477 100 170.83673095703125 483.68707275390625 0
171 487 100 170.83673095703125 483.68707275390625 0
54 111 0 51.9230766296386719 107.730766296386719 0
44 111 0 51.9230766296386719 107.730766296386719 0
44 111 100 51.9230766296386719 107.730766296386719 0
54 111 100 51.9230766296386719 107.730766296386719 0
54 85 0 51.9230766296386719 80.7307662963867188 0
44 85 0 51.9230766296386719 80.7307662963867188 0
44 85 100 51.9230766296386719 80.7307662963867188 0
54 85 100 51.9230766296386719 80.7307662963867188 0
372 90 0 359 87.096771240234375 0
372 80 0 359 87.096771240234375 0
372 80 100 359 87.096771240234375 0
372 90 100 359 87.096771240234375 0
403 90 0 391 87.096771240234375 0
403 80 0 391 87.096771240234375 0
403 80 100 391 87.096771240234375 0
403 90 100 391 87.096771240234375 0
455 386 0 450.702911376953125 383.202911376953125 0
455 376 0 450.702911376953125 383.202911376953125 0
455 376 100 450.702911376953125 383.202911376953125 0
455 386 100 450.702911376953125 383.202911376953125 0
593 386 0 589.702880859375 383.202911376953125 0
593 376 0 589.702880859375 383.202911376953125 0
593 376 100 589.702880859375 383.202911376953125 0
593 386 100 589.702880859375 383.202911376953125 0
553 384 0 551.13177490234375 383.70269775390625 0
563 384 0 551.13177490234375 383.70269775390625 0
563 384 100 551.13177490234375 383.70269775390625 0
553 384 100 551.13177490234375 383.70269775390625 0
220 485 0 218.345870971679688 482.3533935546875 0
230 485 0 218.345870971679688 482.3533935546875 0
230 485 100 218.345870971679688 482.3533935546875 0
220 485 100 218.345870971679688 482.3533935546875 0
437 286 0 427.702117919921875 280.914886474609375 0
427 286 0 427.702117919921875 280.914886474609375 0
427 286 100 427.702117919921875 280.914886474609375 0
437 286 100 427.702117919921875 280.914886474609375 0
437 239 0 427.702117919921875 232.914886474609375 0
427 239 0 427.702117919921875 232.914886474609375 0
427 239 100 427.702117919921875 232.914886474609375 0
437 239 100 427.702117919921875 232.914886474609375 0
172 196 0 169.180328369140625 193.786880493164062 0
162 196 0 169.180328369140625 193.786880493164062 0
162 196 100 169.180328369140625 193.786880493164062 0
172 196 100 169.180328369140625 193.786880493164062 0
172 135 0 169.180328369140625 131.786880493164062 0
162 135 0 169.180328369140625 131.786880493164062 0
162 135 100 169.180328369140625 131.786880493164062 0
172 135 100 169.180328369140625 131.786880493164062 0
26 343 0 24.7833328247070312 340.14166259765625 0
26 333 0 24.7833328247070312 340.14166259765625 0
26 333 100 24.7833328247070312 340.14166259765625 0
26 343 100 24.7833328247070312 340.14166259765625 0
146 343 0 145.783340454101562 340.14166259765625 0
146 333 0 145.783340454101562 340.14166259765625 0
146 333 100 145.783340454101562 340.14166259765625 0
146 343 100 145.783340454101562 340.14166259765625 0
90 340 0 89.117645263671875 337.666656494140625 0
80 340 0 89.117645263671875 337.666656494140625 0
80 340 100 89.117645263671875 337.666656494140625 0
90 340 100 89.117645263671875 337.666656494140625 0
90 238 0 89.117645263671875 234.666671752929688 0
80 238 0 89.117645263671875 234.666671752929688 0
80 238 100 89.117645263671875 234.666671752929688 0
90 238 100 89.117645263671875 234.666671752929688 0
114 90 0 111.704544067382812 88.9772720336914062 0
114 80 0 111.704544067382812 88.9772720336914062 0
114 80 100 111.704544067382812 88.9772720336914062 0
114 90 100 111.704544067382812 88.9772720336914062 0
202 90 0 200.704544067382812 88.9772720336914062 0
202 80 0 200.704544067382812 88.9772720336914062 0
202 80 100 200.704544067382812 88.9772720336914062 0
202 90 100 200.704544067382812 88.9772720336914062 0
485 88 0 480.424530029296875 86.1698150634765625 0
475 88 0 480.424530029296875 86.1698150634765625 0
475 88 100 480.424530029296875 86.1698150634765625 0
485 88 100 480.424530029296875 86.1698150634765625 0
26 243 0 24.8725490570068359 241.808822631835938 0
26 233 0 24.8725490570068359 241.808822631835938 0
26 233 100 24.8725490570068359 241.808822631835938 0
26 243 100 24.8725490570068359 241.808822631835938 0
220 297 0 216.27117919921875 292.966094970703125 0
230 297 0 216.27117919921875 292.966094970703125 0
230 297 100 216.27117919921875 292.966094970703125 0
220 297 100 216.27117919921875 292.966094970703125 0
230 197 0 225 191.717391967773438 0
220 197 0 225 191.717391967773438 0
220 197 100 225 191.717391967773438 0
230 197 100 225 191.717391967773438 0
370 197 0 360.975616455078125 191.19512939453125 0
360 197 0 360.975616455078125 191.19512939453125 0
360 197 100 360.975616455078125 191.19512939453125 0
370 197 100 360.975616455078125 191.19512939453125 0
153 338 0 151.470001220703125 335.6199951171875 0
143 338 0 151.470001220703125 335.6199951171875 0
143 338 100 151.470001220703125 335.6199951171875 0
153 338 100 151.470001220703125 335.6199951171875 0
153 198 0 149.175003051757812 192.050003051757812 0
143 198 0 149.175003051757812 192.050003051757812 0
143 198 100 149.175003051757812 192.050003051757812 0
153 198 100 149.175003051757812 192.050003051757812 0
139 204 0 137.136642456054688 202.732925415039062 0
139 194 0 137.136642456054688 202.732925415039062 0
139 194 100 137.136642456054688 202.732925415039062 0
139 204 100 137.136642456054688 202.732925415039062 0
389 204 0 385.62921142578125 201.707870483398438 0
389 194 0 385.62921142578125 201.707870483398438 0
389 194 100 385.62921142578125 201.707870483398438 0
389 204 100 385.62921142578125 201.707870483398438 0
290 235 0 281.9444580078125 229.47222900390625 0
300 235 0 281.9444580078125 229.47222900390625 0
300 235 100 281.9444580078125 229.47222900390625 0
290 235 100 281.9444580078125 229.47222900390625 0
300 86 0 297.4576416015625 84.2711868286132812 0
290 86 0 297.4576416015625 84.2711868286132812 0
290 86 100 297.4576416015625 84.2711868286132812 0
300 86 100 297.4576416015625 84.2711868286132812 0
194 242 0 186.741928100585938 234.19354248046875 0
194 232 0 186.741928100585938 234.19354248046875 0
194 232 100 186.741928100585938 234.19354248046875 0
194 242 100 186.741928100585938 234.19354248046875 0
390 242 0 388.6363525390625 240.533340454101562 0
390 232 0 388.6363525390625 240.533340454101562 0
390 232 100 388.6363525390625 240.533340454101562 0
390 242 100 388.6363525390625 240.533340454101562 0
542 226 0 517.3636474609375 216.727279663085938 0
532 226 0 517.3636474609375 216.727279663085938 0
532 226 100 517.3636474609375 216.727279663085938 0
542 226 100 517.3636474609375 216.727279663085938 0
542 160 0 529.68182373046875 155.363632202148438 0
532 160 0 529.68182373046875 155.363632202148438 0
532 160 100 529.68182373046875 155.363632202148438 0
542 160 100 529.68182373046875 155.363632202148438 0
554 204 0 508.833343505859375 187 0
554 194 0 508.833343505859375 187 0
554 194 100 508.833343505859375 187 0
554 204 100 508.833343505859375 187 0
811 234 0 0 0 -1
801 234 0 0 0 -1
801 137 0 0 0 -1
811 132 0 0 0 -1
811 234 100 0 0 1
801 234 100 0 0 1
801 137 100 0 0 1
811 132 100 0 0 1
811 127 0 0 0 -1
801 137 0 0 0 -1
554 137 0 0 0 -1
554 127 0 0 0 -1
811 127 100 0 0 1
801 137 100 0 0 1
554 137 100 0 0 1
554 127 100 0 0 1
801 132 0 0 0 -1
811 127 0 0 0 -1
811 382 0 0 0 -1
801 382 0 0 0 -1
801 132 100 0 0 1
811 127 100 0 0 1
811 382 100 0 0 1
801 382 100 0 0 1
28 340 0 0 0 -1
18 340 0 0 0 -1
18 86 0 0 0 -1
28 86 0 0 0 -1
28 340 100 0 0 1
18 340 100 0 0 1
18 86 100 0 0 1
28 86 100 0 0 1
18 86 0 0 0 -1
28 86 0 0 0 -1
28 139 0 0 0 -1
18 139 0 0 0 -1
18 86 100 0 0 1
28 86 100 0 0 1
28 139 100 0 0 1
18 139 100 0 0 1
90 159 0 0 0 -1
80 159 0 0 0 -1
80 96 0 0 0 -1
90 96 0 0 0 -1
90 159 100 0 0 1
80 159 100 0 0 1
80 96 100 0 0 1
90 96 100 0 0 1
28 484 0 0 0 -1
18 484 0 0 0 -1
18 293 0 0 0 -1
28 293 0 0 0 -1
28 484 100 0 0 1
18 484 100 0 0 1
18 293 100 0 0 1
28 293 100 0 0 1
361 243 0 0 0 -1
361 233 0 0 0 -1
556 233 0 0 0 -1
556 243 0 0 0 -1
361 243 100 0 0 1
361 233 100 0 0 1
556 233 100 0 0 1
556 243 100 0 0 1
556 233 0 0 0 -1
556 243 0 0 0 -1
230 243 0 0 0 -1
225 233 0 0 0 -1
556 233 100 0 0 1
556 243 100 0 0 1
230 243 100 0 0 1
225 233 100 0 0 1
563 265 0 0 0 -1
553 265 0 0 0 -1
553 88 0 0 0 -1
563 88 0 0 0 -1
563 265 100 0 0 1
553 265 100 0 0 1
553 88 100 0 0 1
563 88 100 0 0 1
553 88 0 0 0 -1
563 88 0 0 0 -1
563 238 0 0 0 -1
553 238 0 0 0 -1
553 88 100 0 0 1
563 88 100 0 0 1
563 238 100 0 0 1
553 238 100 0 0 1
553 88 0 0 0 -1
563 88 0 0 0 -1
563 384 0 0 0 -1
553 384 0 0 0 -1
553 88 100 0 0 1
563 88 100 0 0 1
563 384 100 0 0 1
553 384 100 0 0 1
26 346 0 0 0 -1
26 336 0 0 0 -1
189 336 0 0 0 -1
189 346 0 0 0 -1
26 346 100 0 0 1
26 336 100 0 0 1
189 336 100 0 0 1
189 346 100 0 0 1
370 287 0 0 0 -1
360 287 0 0 0 -1
360 234 0 0 0 -1
370 234 0 0 0 -1
370 287 100 0 0 1
360 287 100 0 0 1
360 234 100 0 0 1
370 234 100 0 0 1
370 287 0 0 0 -1
360 287 0 0 0 -1
360 238 0 0 0 -1
370 238 0 0 0 -1
370 287 100 0 0 1
360 287 100 0 0 1
360 238 100 0 0 1
370 238 100 0 0 1
230 448 0 0 0 -1
220 448 0 0 0 -1
220 352 0 0 0 -1
230 352 0 0 0 -1
230 448 100 0 0 1
220 448 100 0 0 1
220 352 100 0 0 1
230 352 100 0 0 1
220 352 0 0 0 -1
230 352 0 0 0 -1
230 485 0 0 0 -1
220 485 0 0 0 -1
220 352 100 0 0 1
230 352 100 0 0 1
230 485 100 0 0 1
220 485 100 0 0 1
24 487 0 0 0 -1
24 477 0 0 0 -1
221 477 0 0 0 -1
221 487 0 0 0 -1
24 487 100 0 0 1
24 477 100 0 0 1
221 477 100 0 0 1
221 487 100 0 0 1
24 487 0 0 0 -1
24 477 0 0 0 -1
171 477 0 0 0 -1
171 487 0 0 0 -1
24 487 100 0 0 1
24 477 100 0 0 1
171 477 100 0 0 1
171 487 100 0 0 1
473 90 0 0 0 -1
473 80 0 0 0 -1
553 80 0 0 0 -1
553 90 0 0 0 -1
473 90 100 0 0 1
473 80 100 0 0 1
553 80 100 0 0 1
553 90 100 0 0 1
370 406 0 0 0 -1
360 406 0 0 0 -1
360 353 0 0 0 -1
370 353 0 0 0 -1
370 406 100 0 0 1
360 406 100 0 0 1
360 353 100 0 0 1
370 353 100 0 0 1
54 486 0 0 0 -1
44 486 0 0 0 -1
44 428 0 0 0 -1
54 428 0 0 0 -1
54 486 100 0 0 1
44 486 100 0 0 1
44 428 100 0 0 1
54 428 100 0 0 1
654 370 0 0 0 -1
654 360 0 0 0 -1
806 360 0 0 0 -1
806 370 0 0 0 -1
654 370 100 0 0 1
654 360 100 0 0 1
806 360 100 0 0 1
806 370 100 0 0 1
542 383 0 0 0 -1
532 383 0 0 0 -1
532 328 0 0 0 -1
542 328 0 0 0 -1
542 383 100 0 0 1
532 383 100 0 0 1
532 328 100 0 0 1
542 328 100 0 0 1
43 486 0 0 0 -1
33 486 0 0 0 -1
33 459 0 0 0 -1
43 459 0 0 0 -1
43 486 100 0 0 1
33 486 100 0 0 1
33 459 100 0 0 1
43 459 100 0 0 1
90 308 0 0 0 -1
80 308 0 0 0 -1
80 285 0 0 0 -1
90 285 0 0 0 -1
90 308 100 0 0 1
80 308 100 0 0 1
80 285 100 0 0 1
90 285 100 0 0 1
227 411 0 0 0 -1
227 401 0 0 0 -1
364 401 0 0 0 -1
364 411 0 0 0 -1
227 411 100 0 0 1
227 401 100 0 0 1
364 401 100 0 0 1
364 411 100 0 0 1
54 111 0 0 0 -1
44 111 0 0 0 -1
44 85 0 0 0 -1
54 85 0 0 0 -1
54 111 100 0 0 1
44 111 100 0 0 1
44 85 100 0 0 1
54 85 100 0 0 1
372 90 0 0 0 -1
372 80 0 0 0 -1
403 80 0 0 0 -1
403 90 0 0 0 -1
372 90 100 0 0 1
372 80 100 0 0 1
403 80 100 0 0 1
403 90 100 0 0 1
455 386 0 0 0 -1
455 376 0 0 0 -1
593 376 0 0 0 -1
593 386 0 0 0 -1
455 386 100 0 0 1
455 376 100 0 0 1
593 376 100 0 0 1
593 386 100 0 0 1
437 286 0 0 0 -1
427 286 0 0 0 -1
427 239 0 0 0 -1
437 239 0 0 0 -1
437 286 100 0 0 1
427 286 100 0 0 1
427 239 100 0 0 1
437 239 100 0 0 1
172 196 0 0 0 -1
162 196 0 0 0 -1
162 135 0 0 0 -1
172 135 0 0 0 -1
172 196 100 0 0 1
162 196 100 0 0 1
162 135 100 0 0 1
172 135 100 0 0 1
26 343 0 0 0 -1
26 333 0 0 0 -1
146 333 0 0 0 -1
146 343 0 0 0 -1
26 343 100 0 0 1
26 333 100 0 0 1
146 333 100 0 0 1
146 343 100 0 0 1
90 340 0 0 0 -1
80 340 0 0 0 -1
80 238 0 0 0 -1
90 238 0 0 0 -1
90 340 100 0 0 1
80 340 100 0 0 1
80 238 100 0 0 1
90 238 100 0 0 1
114 90 0 0 0 -1
114 80 0 0 0 -1
202 80 0 0 0 -1
202 90 0 0 0 -1
114 90 100 0 0 1
114 80 100 0 0 1
202 80 100 0 0 1
202 90 100 0 0 1
485 194 0 0 0 -1
475 204 0 0 0 -1
475 88 0 0 0 -1
485 88 0 0 0 -1
485 194 100 0 0 1
475 204 100 0 0 1
475 88 100 0 0 1
485 88 100 0 0 1
475 204 0 0 0 -1
485 194 0 0 0 -1
537 194 0 0 0 -1
542 204 0 0 0 -1
475 204 100 0 0 1
485 194 100 0 0 1
537 194 100 0 0 1
542 204 100 0 0 1
26 243 0 0 0 -1
26 233 0 0 0 -1
225 233 0 0 0 -1
230 243 0 0 0 -1
26 243 100 0 0 1
26 233 100 0 0 1
225 233 100 0 0 1
230 243 100 0 0 1
220 238 0 0 0 -1
230 243 0 0 0 -1
230 297 0 0 0 -1
220 297 0 0 0 -1
220 238 100 0 0 1
230 243 100 0 0 1
230 297 100 0 0 1
220 297 100 0 0 1
230 243 0 0 0 -1
220 238 0 0 0 -1
220 197 0 0 0 -1
230 197 0 0 0 -1
230 243 100 0 0 1
220 238 100 0 0 1
220 197 100 0 0 1
230 197 100 0 0 1
370 238 0 0 0 -1
360 238 0 0 0 -1
360 197 0 0 0 -1
370 197 0 0 0 -1
370 238 100 0 0 1
360 238 100 0 0 1
360 197 100 0 0 1
370 197 100 0 0 1
153 338 0 0 0 -1
143 338 0 0 0 -1
143 238 0 0 0 -1
153 238 0 0 0 -1
153 338 100 0 0 1
143 338 100 0 0 1
143 238 100 0 0 1
153 238 100 0 0 1
153 238 0 0 0 -1
143 238 0 0 0 -1
143 198 0 0 0 -1
153 198 0 0 0 -1
153 238 100 0 0 1
143 238 100 0 0 1
143 198 100 0 0 1
153 198 100 0 0 1
139 204 0 0 0 -1
139 194 0 0 0 -1
295 194 0 0 0 -1
300 204 0 0 0 -1
139 204 100 0 0 1
139 194 100 0 0 1
295 194 100 0 0 1
300 204 100 0 0 1
300 204 0 0 0 -1
295 194 0 0 0 -1
389 194 0 0 0 -1
389 204 0 0 0 -1
300 204 100 0 0 1
295 194 100 0 0 1
389 194 100 0 0 1
389 204 100 0 0 1
290 199 0 0 0 -1
300 204 0 0 0 -1
300 235 0 0 0 -1
290 235 0 0 0 -1
290 199 100 0 0 1
300 204 100 0 0 1
300 235 100 0 0 1
290 235 100 0 0 1
300 204 0 0 0 -1
290 199 0 0 0 -1
290 86 0 0 0 -1
300 86 0 0 0 -1
300 204 100 0 0 1
290 199 100 0 0 1
290 86 100 0 0 1
300 86 100 0 0 1
194 242 0 0 0 -1
194 232 0 0 0 -1
225 232 0 0 0 -1
225 242 0 0 0 -1
194 242 100 0 0 1
194 232 100 0 0 1
225 232 100 0 0 1
225 242 100 0 0 1
225 242 0 0 0 -1
225 232 0 0 0 -1
390 232 0 0 0 -1
390 242 0 0 0 -1
225 242 100 0 0 1
225 232 100 0 0 1
390 232 100 0 0 1
390 242 100 0 0 1
542 226 0 0 0 -1
532 226 0 0 0 -1
532 199 0 0 0 -1
542 204 0 0 0 -1
542 226 100 0 0 1
532 226 100 0 0 1
532 199 100 0 0 1
542 204 100 0 0 1
542 204 0 0 0 -1
532 199 0 0 0 -1
532 160 0 0 0 -1
542 160 0 0 0 -1
542 204 100 0 0 1
532 199 100 0 0 1
532 160 100 0 0 1
542 160 100 0 0 1
542 204 0 0 0 -1
537 194 0 0 0 -1
554 194 0 0 0 -1
554 204 0 0 0 -1
542 204 100 0 0 1
537 194 100 0 0 1
554 194 100 0 0 1
554 204 100 0 0 1
801 137 0 0 0 -1
811 127 0 0 0 -1
801 137 100 0 0 1
811 127 100 0 0 1
230 243 0 0 0 -1
230 243 0 0 0 -1
230 243 100 0 0 1
230 243 100 0 0 1
300 204 0 0 0 -1
300 204 0 0 0 -1
300 204 100 0 0 1
300 204 100 0 0 1
542 204 0 0 0 -1
537 194 0 0 0 -1
542 204 0 0 0 -1
542 204 100 0 0 1
537 194 100 0 0 1
542 204 100 0 0 1
4 0 1 2 3
4 4 5 6 7
4 8 9 10 11
4 12 13 14 15
4 16 17 18 19
4 20 21 22 23
4 24 25 26 27
4 28 29 30 31
4 32 33 34 35
4 36 37 38 39
4 40 41 42 43
4 44 45 46 47
4 48 49 50 51
4 52 53 54 55
4 56 57 58 59
4 60 61 62 63
4 64 65 66 67
4 68 69 70 71
4 72 73 74 75
4 76 77 78 79
4 80 81 82 83
4 84 85 86 87
4 88 89 90 91
4 92 93 94 95
4 96 97 98 99
4 100 101 102 103
4 104 105 106 107
4 108 109 110 111
4 112 113 114 115
4 116 117 118 119
4 120 121 122 123
4 124 125 126 127
4 128 129 130 131
4 132 133 134 135
4 136 137 138 139
4 140 141 142 143
4 144 145 146 147
4 148 149 150 151
4 152 153 154 155
4 156 157 158 159
4 160 161 162 163
4 164 165 166 167
4 168 169 170 171
4 172 173 174 175
4 176 177 178 179
4 180 181 182 183
4 184 185 186 187
4 188 189 190 191
4 192 193 194 195
4 196 197 198 199
4 200 201 202 203
4 204 205 206 207
4 208 209 210 211
4 212 213 214 215
4 216 217 218 219
4 220 221 222 223
4 224 225 226 227
4 228 229 230 231
4 232 233 234 235
4 236 237 238 239
4 240 241 242 243
4 244 245 246 247
4 248 249 250 251
4 252 253 254 255
4 256 257 258 259
4 260 261 262 263
4 264 265 266 267
4 268 269 270 271
4 272 273 274 275
4 276 277 278 279
4 280 281 282 283
4 284 285 286 287
4 288 289 290 291
4 292 293 294 295
4 296 297 298 299
4 300 301 302 303
4 304 305 306 307
4 308 309 310 311
4 312 313 314 315
4 316 317 318 319
4 320 321 322 323
4 324 325 326 327
4 328 329 330 331
4 332 333 334 335
4 336 337 338 339
4 340 341 342 343
4 344 345 346 347
4 348 349 350 351
4 352 353 354 355
4 356 357 358 359
4 360 361 362 363
4 364 365 366 367
4 368 369 370 371
4 372 373 374 375
4 376 377 378 379
4 380 381 382 383
4 384 385 386 387
4 388 389 390 391
4 392 393 394 395
4 396 397 398 399
4 400 401 402 403
4 404 405 406 407
4 408 409 410 411
4 412 413 414 415
4 416 417 418 419
4 420 421 422 423
4 424 425 426 427
4 428 429 430 431
4 432 433 434 435
4 436 437 438 439
4 440 441 442 443
4 444 445 446 447
4 448 449 450 451
4 452 453 454 455
4 456 457 458 459
4 460 461 462 463
4 464 465 466 467
4 468 469 470 471
4 472 473 474 475
4 476 477 478 479
4 480 481 482 483
4 484 485 486 487
4 488 489 490 491
4 492 493 494 495
4 496 497 498 499
4 500 501 502 503
4 504 505 506 507
4 508 509 510 511
4 512 513 514 515
4 516 517 518 519
4 520 521 522 523
4 524 525 526 527
4 528 529 530 531
4 532 533 534 535
4 536 537 538 539
4 540 541 542 543
4 544 545 546 547
4 548 549 550 551
4 552 553 554 555
4 556 557 558 559
4 560 561 562 563
4 564 565 566 567
4 568 569 570 571
4 572 573 574 575
4 576 577 578 579
4 580 581 582 583
4 584 585 586 587
4 588 589 590 591
4 592 593 594 595
4 596 597 598 599
4 600 601 602 603
4 604 605 606 607
4 608 609 610 611
4 612 613 614 615
4 616 617 618 619
4 620 621 622 623
4 624 625 626 627
4 628 629 630 631
4 632 633 634 635
4 636 637 638 639
4 640 641 642 643
4 644 645 646 647
4 648 649 650 651
4 652 653 654 655
4 656 657 658 659
4 660 661 662 663
4 664 665 666 667
4 668 669 670 671
4 672 673 674 675
4 676 677 678 679
4 680 681 682 683
4 684 685 686 687
4 688 689 690 691
4 692 693 694 695
4 696 697 698 699
4 700 701 702 703
4 704 705 706 707
4 708 709 710 711
4 712 713 714 715
4 716 717 718 719
4 720 721 722 723
4 724 725 726 727
4 728 729 730 731
4 732 733 734 735
4 736 737 738 739
4 740 741 742 743
4 744 745 746 747
4 748 749 750 751
4 752 753 754 755
4 756 757 758 759
4 760 761 762 763
4 764 765 766 767
4 768 769 770 771
4 772 773 774 775
4 776 777 778 779
4 780 781 782 783
4 784 785 786 787
4 788 789 790 791
4 792 793 794 795
4 796 797 798 799
4 800 801 802 803
4 804 805 806 807
4 808 809 810 811
4 812 813 814 815
4 816 817 818 819
4 820 821 822 823
4 824 825 826 827
4 828 829 830 831
4 832 833 834 835
4 836 837 838 839
4 840 841 842 843
4 844 845 846 847
4 848 849 850 851
4 852 853 854 855
4 856 857 858 859
4 860 861 862 863
4 864 865 866 867
4 868 869 870 871
4 872 873 874 875
4 876 877 878 879
4 880 881 882 883
4 884 885 886 887
4 888 889 890 891
4 892 893 894 895
4 896 897 898 899
4 900 901 902 903
4 904 905 906 907
4 908 909 910 911
4 912 913 914 915
4 916 917 918 919
4 920 921 922 923
4 924 925 926 927
4 928 929 930 931
4 932 933 934 935
4 936 937 938 939
4 940 941 942 943
4 944 945 946 947
4 948 949 950 951
4 952 953 954 955
4 956 957 958 959
4 960 961 962 963
4 964 965 966 967
4 968 969 970 971
4 972 973 974 975
4 976 977 978 979
4 980 981 982 983
4 984 985 986 987
4 988 989 990 991
4 992 993 994 995
4 996 997 998 999
4 1000 1001 1002 1003
4 1004 1005 1006 1007
4 1008 1009 1010 1011
4 1012 1013 1014 1015
4 1016 1017 1018 1019
4 1020 1021 1022 1023
4 1024 1025 1026 1027
4 1028 1029 1030 1031
4 1032 1033 1034 1035
4 1036 1037 1038 1039
4 1040 1041 1042 1043
4 1044 1045 1046 1047
4 1048 1049 1050 1051
4 1052 1053 1054 1055
4 1056 1057 1058 1059
4 1060 1061 1062 1063
4 1064 1065 1066 1067
4 1068 1069 1070 1071
4 1072 1073 1074 1075
4 1076 1077 1078 1079
4 1080 1081 1082 1083
4 1084 1085 1086 1087
4 1088 1089 1090 1091
4 1092 1093 1094 1095
4 1096 1097 1098 1099
4 1100 1101 1102 1103
3 1116 1117 1118
3 1119 1120 1121
