ply
format ascii 1.0
element vertex 748
property float x
property float y
property float z
property float nx
property float ny
property float nz
element quads 184
property list uchar int vertex_indices
end_header
578 458 0 1 0 0
578 212 0 1 0 0
578 212 100 1 0 0
578 458 100 1 0 0
568 458 0 -1 -0 0
568 212 0 -1 -0 0
568 212 100 -1 -0 0
568 458 100 -1 -0 0
578 458 0 1 0 0
578 320 0 1 0 0
578 320 100 1 0 0
578 458 100 1 0 0
568 458 0 -1 -0 0
568 320 0 -1 -0 0
568 320 100 -1 -0 0
568 458 100 -1 -0 0
568 212 0 -1 0 0
568 434 0 -1 0 0
568 434 100 -1 0 0
568 212 100 -1 0 0
578 212 0 1 -0 0
578 434 0 1 -0 0
578 434 100 1 -0 0
578 212 100 1 -0 0
568 212 0 -1 0 0
568 297 0 -1 0 0
568 297 100 -1 0 0
568 212 100 -1 0 0
578 212 0 1 -0 0
578 297 0 1 -0 0
578 297 100 1 -0 0
578 212 100 1 -0 0
711 334 0 1 0 0
711 96 0 1 0 0
711 96 100 1 0 0
711 334 100 1 0 0
701 334 0 -1 -0 0
701 101 0 -1 -0 0
701 101 100 -1 -0 0
701 334 100 -1 -0 0
711 91 0 -0 -1 0
432 91 0 -0 -1 0
432 91 100 -0 -1 0
711 91 100 -0 -1 0
701 101 0 0 1 0
432 101 0 0 1 0
432 101 100 0 1 0
701 101 100 0 1 0
701 96 0 -1 0 0
701 246 0 -1 0 0
701 246 100 -1 0 0
701 96 100 -1 0 0
711 91 0 1 -0 0
711 246 0 1 -0 0
711 246 100 1 -0 0
711 91 100 1 -0 0
701 96 0 -1 0 0
701 146 0 -1 0 0
701 146 100 -1 0 0
701 96 100 -1 0 0
711 96 0 1 -0 0
711 146 0 1 -0 0
711 146 100 1 -0 0
711 96 100 1 -0 0
711 424 0 1 0 0
711 205 0 1 0 0
711 205 100 1 0 0
711 424 100 1 0 0
701 424 0 -1 -0 0
701 215 0 -1 -0 0
701 215 100 -1 -0 0
701 424 100 -1 -0 0
711 205 0 -0 -1 0
341 205 0 -0 -1 0
341 205 100 -0 -1 0
711 205 100 -0 -1 0
701 215 0 0 1 0
341 215 0 0 1 0
341 215 100 0 1 0
701 215 100 0 1 0
345 494 0 1 0 0
345 337 0 1 0 0
345 337 100 1 0 0
345 494 100 1 0 0
335 494 0 -1 -0 0
335 337 0 -1 -0 0
335 337 100 -1 -0 0
335 494 100 -1 -0 0
345 494 0 1 0 0
345 243 0 1 0 0
345 243 100 1 0 0
345 494 100 1 0 0
335 494 0 -1 -0 0
335 248 0 -1 -0 0
335 248 100 -1 -0 0
335 494 100 -1 -0 0
341 352 0 -0 1 0
425 352 0 -0 1 0
425 352 100 -0 1 0
341 352 100 -0 1 0
341 342 0 0 -1 0
425 342 0 0 -1 0
425 342 100 0 -1 0
341 342 100 0 -1 0
423 366 0 -0 1 0
572 366 0 -0 1 0
572 366 100 -0 1 0
423 366 100 -0 1 0
423 356 0 0 -1 0
572 356 0 0 -1 0
572 356 100 0 -1 0
423 356 100 0 -1 0
710 432 0 1 0 0
710 303 0 1 0 0
710 303 100 1 0 0
710 432 100 1 0 0
700 432 0 -1 -0 0
700 303 0 -1 -0 0
700 303 100 -1 -0 0
700 432 100 -1 -0 0
432 101 0 -0 1 0
616 101 0 -0 1 0
616 101 100 -0 1 0
432 101 100 -0 1 0
432 91 0 0 -1 0
616 91 0 0 -1 0
616 91 100 0 -1 0
432 91 100 0 -1 0
432 101 0 -0 1 0
666 101 0 -0 1 0
666 101 100 -0 1 0
432 101 100 -0 1 0
432 91 0 0 -1 0
666 91 0 0 -1 0
666 91 100 0 -1 0
432 91 100 0 -1 0
574 437 0 -0 1 0
704 437 0 -0 1 0
704 437 100 -0 1 0
574 437 100 -0 1 0
574 427 0 0 -1 0
704 427 0 0 -1 0
704 427 100 0 -1 0
574 427 100 0 -1 0
345 252 0 1 0 0
345 96 0 1 0 0
345 96 100 1 0 0
345 252 100 1 0 0
335 252 0 -1 -0 0
335 96 0 -1 -0 0
335 96 100 -1 -0 0
335 252 100 -1 -0 0
335 96 0 -1 0 0
335 248 0 -1 0 0
335 248 100 -1 0 0
335 96 100 -1 0 0
345 96 0 1 -0 0
345 253 0 1 -0 0
345 253 100 1 -0 0
345 96 100 1 -0 0
467 463 0 -0 1 0
572 463 0 -0 1 0
572 463 100 -0 1 0
467 463 100 -0 1 0
457 453 0 0 -1 0
572 453 0 0 -1 0
572 453 100 0 -1 0
457 453 100 0 -1 0
457 453 0 -1 0 0
457 491 0 -1 0 0
457 491 100 -1 0 0
457 453 100 -1 0 0
467 463 0 1 -0 0
467 501 0 1 -0 0
467 501 100 1 -0 0
467 463 100 1 -0 0
492 210 0 1 0 0
492 98 0 1 0 0
492 98 100 1 0 0
492 210 100 1 0 0
482 210 0 -1 -0 0
482 98 0 -1 -0 0
482 98 100 -1 -0 0
482 210 100 -1 -0 0
492 210 0 1 0 0
492 147 0 1 0 0
492 147 100 1 0 0
492 210 100 1 0 0
482 210 0 -1 -0 0
482 147 0 -1 -0 0
482 147 100 -1 -0 0
482 210 100 -1 -0 0
429 375 0 1 0 0
429 243 0 1 0 0
429 243 100 1 0 0
429 375 100 1 0 0
419 375 0 -1 -0 0
419 248 0 -1 -0 0
419 248 100 -1 -0 0
419 375 100 -1 -0 0
429 375 0 1 0 0
429 310 0 1 0 0
429 310 100 1 0 0
429 375 100 1 0 0
419 375 0 -1 -0 0
419 310 0 -1 -0 0
419 310 100 -1 -0 0
419 375 100 -1 -0 0
419 253 0 -1 0 0
419 280 0 -1 0 0
419 280 100 -1 0 0
419 253 100 -1 0 0
429 248 0 1 -0 0
429 280 0 1 -0 0
429 280 100 1 -0 0
429 248 100 1 -0 0
429 243 0 -0 -1 0
340 243 0 -0 -1 0
340 243 100 -0 -1 0
429 243 100 -0 -1 0
419 253 0 0 1 0
340 253 0 0 1 0
340 253 100 0 1 0
419 253 100 0 1 0
468 210 0 1 0 0
468 98 0 1 0 0
468 98 100 1 0 0
468 210 100 1 0 0
458 210 0 -1 -0 0
458 98 0 -1 -0 0
458 98 100 -1 -0 0
458 210 100 -1 -0 0
458 98 0 -1 0 0
458 158 0 -1 0 0
458 158 100 -1 0 0
458 98 100 -1 0 0
468 98 0 1 -0 0
468 158 0 1 -0 0
468 158 100 1 -0 0
468 98 100 1 -0 0
457 491 0 -0 -1 0
340 491 0 -0 -1 0
340 491 100 -0 -1 0
457 491 100 -0 -1 0
467 501 0 0 1 0
340 501 0 0 1 0
340 501 100 0 1 0
467 501 100 0 1 0
468 393 0 1 0 0
468 360 0 1 0 0
468 360 100 1 0 0
468 393 100 1 0 0
458 393 0 -1 -0 0
458 360 0 -1 -0 0
458 360 100 -1 -0 0
458 393 100 -1 -0 0
613 211 0 1 0 0
613 96 0 1 0 0
613 96 100 1 0 0
613 211 100 1 0 0
603 211 0 -1 -0 0
603 96 0 -1 -0 0
603 96 100 -1 -0 0
603 211 100 -1 -0 0
345 378 0 1 0 0
345 248 0 1 0 0
345 248 100 1 0 0
345 378 100 1 0 0
335 378 0 -1 -0 0
335 248 0 -1 -0 0
335 248 100 -1 -0 0
335 378 100 -1 -0 0
340 243 0 -0 -1 0
335 243 0 -0 -1 0
335 243 100 -0 -1 0
340 243 100 -0 -1 0
345 253 0 0 1 0
335 253 0 0 1 0
335 253 100 0 1 0
345 253 100 0 1 0
345 243 0 -0 -1 0
122 243 0 -0 -1 0
122 243 100 -0 -1 0
345 243 100 -0 -1 0
340 253 0 0 1 0
122 253 0 0 1 0
122 253 100 0 1 0
340 253 100 0 1 0
345 248 0 1 0 0
345 205 0 1 0 0
345 205 100 1 0 0
345 248 100 1 0 0
335 248 0 -1 -0 0
335 205 0 -1 -0 0
335 205 100 -1 -0 0
335 248 100 -1 -0 0
711 334 0 708.01263427734375 333.596649169921875 0
701 334 0 708.01263427734375 333.596649169921875 0
701 334 100 708.01263427734375 333.596649169921875 0
711 334 100 708.01263427734375 333.596649169921875 0
711 424 0 707.75341796875 423.063934326171875 0
701 424 0 707.75341796875 423.063934326171875 0
701 424 100 707.75341796875 423.063934326171875 0
711 424 100 707.75341796875 423.063934326171875 0
345 337 0 342.80255126953125 333.853515625 0
335 337 0 342.80255126953125 333.853515625 0
335 337 100 342.80255126953125 333.853515625 0
345 337 100 342.80255126953125 333.853515625 0
568 434 0 565.44146728515625 433.0450439453125 0
578 434 0 565.44146728515625 433.0450439453125 0
578 434 100 565.44146728515625 433.0450439453125 0
568 434 100 565.44146728515625 433.0450439453125 0
341 352 0 335.94049072265625 347.80950927734375 0
341 342 0 335.94049072265625 347.80950927734375 0
341 342 100 335.94049072265625 347.80950927734375 0
341 352 100 335.94049072265625 347.80950927734375 0
425 352 0 420.94049072265625 347.80950927734375 0
425 342 0 420.94049072265625 347.80950927734375 0
425 342 100 420.94049072265625 347.80950927734375 0
425 352 100 420.94049072265625 347.80950927734375 0
423 366 0 419.16107177734375 363.543609619140625 0
423 356 0 419.16107177734375 363.543609619140625 0
423 356 100 419.16107177734375 363.543609619140625 0
423 366 100 419.16107177734375 363.543609619140625 0
572 366 0 569.16107177734375 363.543609619140625 0
572 356 0 569.16107177734375 363.543609619140625 0
572 356 100 569.16107177734375 363.543609619140625 0
572 366 100 569.16107177734375 363.543609619140625 0
710 432 0 704.49609375 429.651153564453125 0
700 432 0 704.49609375 429.651153564453125 0
700 432 100 704.49609375 429.651153564453125 0
710 432 100 704.49609375 429.651153564453125 0
710 303 0 704.49609375 299.651153564453125 0
700 303 0 704.49609375 299.651153564453125 0
700 303 100 704.49609375 299.651153564453125 0
710 303 100 704.49609375 299.651153564453125 0
341 205 0 339.078369140625 204.445953369140625 0
341 215 0 339.078369140625 204.445953369140625 0
341 215 100 339.078369140625 204.445953369140625 0
341 205 100 339.078369140625 204.445953369140625 0
578 320 0 573.81158447265625 316.68115234375 0
568 320 0 573.81158447265625 316.68115234375 0
568 320 100 573.81158447265625 316.68115234375 0
578 320 100 573.81158447265625 316.68115234375 0
701 246 0 696.32666015625 245.360000610351562 0
711 246 0 696.32666015625 245.360000610351562 0
711 246 100 696.32666015625 245.360000610351562 0
701 246 100 696.32666015625 245.360000610351562 0
616 101 0 613.65216064453125 100.451087951660156 0
616 91 0 613.65216064453125 100.451087951660156 0
616 91 100 613.65216064453125 100.451087951660156 0
616 101 100 613.65216064453125 100.451087951660156 0
574 437 0 568.5845947265625 433.638458251953125 0
574 427 0 568.5845947265625 433.638458251953125 0
574 427 100 568.5845947265625 433.638458251953125 0
574 437 100 568.5845947265625 433.638458251953125 0
704 437 0 699.5845947265625 433.638458251953125 0
704 427 0 699.5845947265625 433.638458251953125 0
704 427 100 699.5845947265625 433.638458251953125 0
704 437 100 699.5845947265625 433.638458251953125 0
345 252 0 342.7884521484375 251.384613037109375 0
335 252 0 342.7884521484375 251.384613037109375 0
335 252 100 342.7884521484375 251.384613037109375 0
345 252 100 342.7884521484375 251.384613037109375 0
666 101 0 664.15386962890625 100.568374633789062 0
666 91 0 664.15386962890625 100.568374633789062 0
666 91 100 664.15386962890625 100.568374633789062 0
666 101 100 664.15386962890625 100.568374633789062 0
572 463 0 567.5523681640625 458.590484619140625 0
572 453 0 567.5523681640625 458.590484619140625 0
572 453 100 567.5523681640625 458.590484619140625 0
572 463 100 567.5523681640625 458.590484619140625 0
492 98 0 487.607147216796875 96.125 0
482 98 0 487.607147216796875 96.125 0
482 98 100 487.607147216796875 96.125 0
492 98 100 487.607147216796875 96.125 0
568 297 0 561.317626953125 294.505889892578125 0
578 297 0 561.317626953125 294.505889892578125 0
578 297 100 561.317626953125 294.505889892578125 0
568 297 100 561.317626953125 294.505889892578125 0
468 210 0 463.821441650390625 209.125 0
458 210 0 463.821441650390625 209.125 0
458 210 100 463.821441650390625 209.125 0
468 210 100 463.821441650390625 209.125 0
492 147 0 484.19049072265625 143.666671752929688 0
482 147 0 484.19049072265625 143.666671752929688 0
482 147 100 484.19049072265625 143.666671752929688 0
492 147 100 484.19049072265625 143.666671752929688 0
701 146 0 686.97998046875 144.080001831054688 0
711 146 0 686.97998046875 144.080001831054688 0
711 146 100 686.97998046875 144.080001831054688 0
701 146 100 686.97998046875 144.080001831054688 0
429 310 0 422.399993896484375 304.23077392578125 0
419 310 0 422.399993896484375 304.23077392578125 0
419 310 100 422.399993896484375 304.23077392578125 0
429 310 100 422.399993896484375 304.23077392578125 0
468 393 0 453.81817626953125 382.090911865234375 0
458 393 0 453.81817626953125 382.090911865234375 0
458 393 100 453.81817626953125 382.090911865234375 0
468 393 100 453.81817626953125 382.090911865234375 0
468 360 0 453.81817626953125 348.090911865234375 0
458 360 0 453.81817626953125 348.090911865234375 0
458 360 100 453.81817626953125 348.090911865234375 0
468 360 100 453.81817626953125 348.090911865234375 0
340 491 0 336.094024658203125 486.80340576171875 0
340 501 0 336.094024658203125 486.80340576171875 0
340 501 100 336.094024658203125 486.80340576171875 0
340 491 100 336.094024658203125 486.80340576171875 0
419 280 0 403.481475830078125 270.629638671875 0
429 280 0 403.481475830078125 270.629638671875 0
429 280 100 403.481475830078125 270.629638671875 0
419 280 100 403.481475830078125 270.629638671875 0
613 211 0 607.6695556640625 210.16522216796875 0
603 211 0 607.6695556640625 210.16522216796875 0
603 211 100 607.6695556640625 210.16522216796875 0
613 211 100 607.6695556640625 210.16522216796875 0
613 96 0 607.6695556640625 94.1652145385742188 0
603 96 0 607.6695556640625 94.1652145385742188 0
603 96 100 607.6695556640625 94.1652145385742188 0
613 96 100 607.6695556640625 94.1652145385742188 0
458 158 0 450.366668701171875 156.366668701171875 0
468 158 0 450.366668701171875 156.366668701171875 0
468 158 100 450.366668701171875 156.366668701171875 0
458 158 100 450.366668701171875 156.366668701171875 0
345 378 0 342.346160888671875 376.092315673828125 0
335 378 0 342.346160888671875 376.092315673828125 0
335 378 100 342.346160888671875 376.092315673828125 0
345 378 100 342.346160888671875 376.092315673828125 0
335 243 0 267 194.399993896484375 0
335 253 0 267 194.399993896484375 0
335 253 100 267 194.399993896484375 0
335 243 100 267 194.399993896484375 0
122 243 0 120.452911376953125 241.910308837890625 0
122 253 0 120.452911376953125 241.910308837890625 0
122 253 100 120.452911376953125 241.910308837890625 0
122 243 100 120.452911376953125 241.910308837890625 0
345 205 0 336.97674560546875 199.232559204101562 0
335 205 0 336.97674560546875 199.232559204101562 0
335 205 100 336.97674560546875 199.232559204101562 0
345 205 100 336.97674560546875 199.232559204101562 0
578 458 0 0 0 -1
568 458 0 0 0 -1
568 212 0 0 0 -1
578 212 0 0 0 -1
578 458 100 0 0 1
568 458 100 0 0 1
568 212 100 0 0 1
578 212 100 0 0 1
578 458 0 0 0 -1
568 458 0 0 0 -1
568 320 0 0 0 -1
578 320 0 0 0 -1
578 458 100 0 0 1
568 458 100 0 0 1
568 320 100 0 0 1
578 320 100 0 0 1
568 212 0 0 0 -1
578 212 0 0 0 -1
578 434 0 0 0 -1
568 434 0 0 0 -1
568 212 100 0 0 1
578 212 100 0 0 1
578 434 100 0 0 1
568 434 100 0 0 1
568 212 0 0 0 -1
578 212 0 0 0 -1
578 297 0 0 0 -1
568 297 0 0 0 -1
568 212 100 0 0 1
578 212 100 0 0 1
578 297 100 0 0 1
568 297 100 0 0 1
711 334 0 0 0 -1
701 334 0 0 0 -1
701 101 0 0 0 -1
711 96 0 0 0 -1
711 334 100 0 0 1
701 334 100 0 0 1
701 101 100 0 0 1
711 96 100 0 0 1
711 91 0 0 0 -1
701 101 0 0 0 -1
432 101 0 0 0 -1
432 91 0 0 0 -1
711 91 100 0 0 1
701 101 100 0 0 1
432 101 100 0 0 1
432 91 100 0 0 1
701 96 0 0 0 -1
711 91 0 0 0 -1
711 246 0 0 0 -1
701 246 0 0 0 -1
701 96 100 0 0 1
711 91 100 0 0 1
711 246 100 0 0 1
701 246 100 0 0 1
701 96 0 0 0 -1
711 96 0 0 0 -1
711 146 0 0 0 -1
701 146 0 0 0 -1
701 96 100 0 0 1
711 96 100 0 0 1
711 146 100 0 0 1
701 146 100 0 0 1
711 424 0 0 0 -1
701 424 0 0 0 -1
701 215 0 0 0 -1
711 205 0 0 0 -1
711 424 100 0 0 1
701 424 100 0 0 1
701 215 100 0 0 1
711 205 100 0 0 1
711 205 0 0 0 -1
701 215 0 0 0 -1
341 215 0 0 0 -1
341 205 0 0 0 -1
711 205 100 0 0 1
701 215 100 0 0 1
341 215 100 0 0 1
341 205 100 0 0 1
345 494 0 0 0 -1
335 494 0 0 0 -1
335 337 0 0 0 -1
345 337 0 0 0 -1
345 494 100 0 0 1
335 494 100 0 0 1
335 337 100 0 0 1
345 337 100 0 0 1
345 494 0 0 0 -1
335 494 0 0 0 -1
335 248 0 0 0 -1
345 243 0 0 0 -1
345 494 100 0 0 1
335 494 100 0 0 1
335 248 100 0 0 1
345 243 100 0 0 1
341 352 0 0 0 -1
341 342 0 0 0 -1
425 342 0 0 0 -1
425 352 0 0 0 -1
341 352 100 0 0 1
341 342 100 0 0 1
425 342 100 0 0 1
425 352 100 0 0 1
423 366 0 0 0 -1
423 356 0 0 0 -1
572 356 0 0 0 -1
572 366 0 0 0 -1
423 366 100 0 0 1
423 356 100 0 0 1
572 356 100 0 0 1
572 366 100 0 0 1
710 432 0 0 0 -1
700 432 0 0 0 -1
700 303 0 0 0 -1
710 303 0 0 0 -1
710 432 100 0 0 1
700 432 100 0 0 1
700 303 100 0 0 1
710 303 100 0 0 1
432 101 0 0 0 -1
432 91 0 0 0 -1
616 91 0 0 0 -1
616 101 0 0 0 -1
432 101 100 0 0 1
432 91 100 0 0 1
616 91 100 0 0 1
616 101 100 0 0 1
432 101 0 0 0 -1
432 91 0 0 0 -1
666 91 0 0 0 -1
666 101 0 0 0 -1
432 101 100 0 0 1
432 91 100 0 0 1
666 91 100 0 0 1
666 101 100 0 0 1
574 437 0 0 0 -1
574 427 0 0 0 -1
704 427 0 0 0 -1
704 437 0 0 0 -1
574 437 100 0 0 1
574 427 100 0 0 1
704 427 100 0 0 1
704 437 100 0 0 1
345 252 0 0 0 -1
335 252 0 0 0 -1
335 96 0 0 0 -1
345 96 0 0 0 -1
345 252 100 0 0 1
335 252 100 0 0 1
335 96 100 0 0 1
345 96 100 0 0 1
335 96 0 0 0 -1
345 96 0 0 0 -1
345 253 0 0 0 -1
335 248 0 0 0 -1
335 96 100 0 0 1
345 96 100 0 0 1
345 253 100 0 0 1
335 248 100 0 0 1
467 463 0 0 0 -1
457 453 0 0 0 -1
572 453 0 0 0 -1
572 463 0 0 0 -1
467 463 100 0 0 1
457 453 100 0 0 1
572 453 100 0 0 1
572 463 100 0 0 1
457 453 0 0 0 -1
467 463 0 0 0 -1
467 501 0 0 0 -1
457 491 0 0 0 -1
457 453 100 0 0 1
467 463 100 0 0 1
467 501 100 0 0 1
457 491 100 0 0 1
492 210 0 0 0 -1
482 210 0 0 0 -1
482 98 0 0 0 -1
492 98 0 0 0 -1
492 210 100 0 0 1
482 210 100 0 0 1
482 98 100 0 0 1
492 98 100 0 0 1
492 210 0 0 0 -1
482 210 0 0 0 -1
482 147 0 0 0 -1
492 147 0 0 0 -1
492 210 100 0 0 1
482 210 100 0 0 1
482 147 100 0 0 1
492 147 100 0 0 1
429 375 0 0 0 -1
419 375 0 0 0 -1
419 248 0 0 0 -1
429 243 0 0 0 -1
429 375 100 0 0 1
419 375 100 0 0 1
419 248 100 0 0 1
429 243 100 0 0 1
429 375 0 0 0 -1
419 375 0 0 0 -1
419 310 0 0 0 -1
429 310 0 0 0 -1
429 375 100 0 0 1
419 375 100 0 0 1
419 310 100 0 0 1
429 310 100 0 0 1
419 253 0 0 0 -1
429 248 0 0 0 -1
429 280 0 0 0 -1
419 280 0 0 0 -1
419 253 100 0 0 1
429 248 100 0 0 1
429 280 100 0 0 1
419 280 100 0 0 1
429 243 0 0 0 -1
419 253 0 0 0 -1
340 253 0 0 0 -1
340 243 0 0 0 -1
429 243 100 0 0 1
419 253 100 0 0 1
340 253 100 0 0 1
340 243 100 0 0 1
468 210 0 0 0 -1
458 210 0 0 0 -1
458 98 0 0 0 -1
468 98 0 0 0 -1
468 210 100 0 0 1
458 210 100 0 0 1
458 98 100 0 0 1
468 98 100 0 0 1
458 98 0 0 0 -1
468 98 0 0 0 -1
468 158 0 0 0 -1
458 158 0 0 0 -1
458 98 100 0 0 1
468 98 100 0 0 1
468 158 100 0 0 1
458 158 100 0 0 1
457 491 0 0 0 -1
467 501 0 0 0 -1
340 501 0 0 0 -1
340 491 0 0 0 -1
457 491 100 0 0 1
467 501 100 0 0 1
340 501 100 0 0 1
340 491 100 0 0 1
468 393 0 0 0 -1
458 393 0 0 0 -1
458 360 0 0 0 -1
468 360 0 0 0 -1
468 393 100 0 0 1
458 393 100 0 0 1
458 360 100 0 0 1
468 360 100 0 0 1
613 211 0 0 0 -1
603 211 0 0 0 -1
603 96 0 0 0 -1
613 96 0 0 0 -1
613 211 100 0 0 1
603 211 100 0 0 1
603 96 100 0 0 1
613 96 100 0 0 1
345 378 0 0 0 -1
335 378 0 0 0 -1
335 248 0 0 0 -1
345 248 0 0 0 -1
345 378 100 0 0 1
335 378 100 0 0 1
335 248 100 0 0 1
345 248 100 0 0 1
340 243 0 0 0 -1
345 253 0 0 0 -1
335 253 0 0 0 -1
335 243 0 0 0 -1
340 243 100 0 0 1
345 253 100 0 0 1
335 253 100 0 0 1
335 243 100 0 0 1
345 243 0 0 0 -1
340 253 0 0 0 -1
122 253 0 0 0 -1
122 243 0 0 0 -1
345 243 100 0 0 1
340 253 100 0 0 1
122 253 100 0 0 1
122 243 100 0 0 1
345 248 0 0 0 -1
335 248 0 0 0 -1
335 205 0 0 0 -1
345 205 0 0 0 -1
345 248 100 0 0 1
335 248 100 0 0 1
335 205 100 0 0 1
345 205 100 0 0 1
701 101 0 0 0 -1
711 91 0 0 0 -1
701 101 100 0 0 1
711 91 100 0 0 1
419 253 0 0 0 -1
429 243 0 0 0 -1
419 253 100 0 0 1
429 243 100 0 0 1
345 253 0 0 0 -1
345 243 0 0 0 -1
345 253 100 0 0 1
345 243 100 0 0 1
4 0 1 2 3
4 4 5 6 7
4 8 9 10 11
4 12 13 14 15
4 16 17 18 19
4 20 21 22 23
4 24 25 26 27
4 28 29 30 31
4 32 33 34 35
4 36 37 38 39
4 40 41 42 43
4 44 45 46 47
4 48 49 50 51
4 52 53 54 55
4 56 57 58 59
4 60 61 62 63
4 64 65 66 67
4 68 69 70 71
4 72 73 74 75
4 76 77 78 79
4 80 81 82 83
4 84 85 86 87
4 88 89 90 91
4 92 93 94 95
4 96 97 98 99
4 100 101 102 103
4 104 105 106 107
4 108 109 110 111
4 112 113 114 115
4 116 117 118 119
4 120 121 122 123
4 124 125 126 127
4 128 129 130 131
4 132 133 134 135
4 136 137 138 139
4 140 141 142 143
4 144 145 146 147
4 148 149 150 151
4 152 153 154 155
4 156 157 158 159
4 160 161 162 163
4 164 165 166 167
4 168 169 170 171
4 172 173 174 175
4 176 177 178 179
4 180 181 182 183
4 184 185 186 187
4 188 189 190 191
4 192 193 194 195
4 196 197 198 199
4 200 201 202 203
4 204 205 206 207
4 208 209 210 211
4 212 213 214 215
4 216 217 218 219
4 220 221 222 223
4 224 225 226 227
4 228 229 230 231
4 232 233 234 235
4 236 237 238 239
4 240 241 242 243
4 244 245 246 247
4 248 249 250 251
4 252 253 254 255
4 256 257 258 259
4 260 261 262 263
4 264 265 266 267
4 268 269 270 271
4 272 273 274 275
4 276 277 278 279
4 280 281 282 283
4 284 285 286 287
4 288 289 290 291
4 292 293 294 295
4 296 297 298 299
4 300 301 302 303
4 304 305 306 307
4 308 309 310 311
4 312 313 314 315
4 316 317 318 319
4 320 321 322 323
4 324 325 326 327
4 328 329 330 331
4 332 333 334 335
4 336 337 338 339
4 340 341 342 343
4 344 345 346 347
4 348 349 350 351
4 352 353 354 355
4 356 357 358 359
4 360 361 362 363
4 364 365 366 367
4 368 369 370 371
4 372 373 374 375
4 376 377 378 379
4 380 381 382 383
4 384 385 386 387
4 388 389 390 391
4 392 393 394 395
4 396 397 398 399
4 400 401 402 403
4 404 405 406 407
4 408 409 410 411
4 412 413 414 415
4 416 417 418 419
4 420 421 422 423
4 424 425 426 427
4 428 429 430 431
4 432 433 434 435
4 436 437 438 439
4 440 441 442 443
4 444 445 446 447
4 448 449 450 451
4 452 453 454 455
4 456 457 458 459
4 460 461 462 463
4 464 465 466 467
4 468 469 470 471
4 472 473 474 475
4 476 477 478 479
4 480 481 482 483
4 484 485 486 487
4 488 489 490 491
4 492 493 494 495
4 496 497 498 499
4 500 501 502 503
4 504 505 506 507
4 508 509 510 511
4 512 513 514 515
4 516 517 518 519
4 520 521 522 523
4 524 525 526 527
4 528 529 530 531
4 532 533 534 535
4 536 537 538 539
4 540 541 542 543
4 544 545 546 547
4 548 549 550 551
4 552 553 554 555
4 556 557 558 559
4 560 561 562 563
4 564 565 566 567
4 568 569 570 571
4 572 573 574 575
4 576 577 578 579
4 580 581 582 583
4 584 585 586 587
4 588 589 590 591
4 592 593 594 595
4 596 597 598 599
4 600 601 602 603
4 604 605 606 607
4 608 609 610 611
4 612 613 614 615
4 616 617 618 619
4 620 621 622 623
4 624 625 626 627
4 628 629 630 631
4 632 633 634 635
4 636 637 638 639
4 640 641 642 643
4 644 645 646 647
4 648 649 650 651
4 652 653 654 655
4 656 657 658 659
4 660 661 662 663
4 664 665 666 667
4 668 669 670 671
4 672 673 674 675
4 676 677 678 679
4 680 681 682 683
4 684 685 686 687
4 688 689 690 691
4 692 693 694 695
4 696 697 698 699
4 700 701 702 703
4 704 705 706 707
4 708 709 710 711
4 712 713 714 715
4 716 717 718 719
4 720 721 722 723
4 724 725 726 727
4 728 729 730 731
4 732 733 734 735
