ply
format ascii 1.0
element vertex 724
property float x
property float y
property float z
property float nx
property float ny
property float nz
element quads 180
property list uchar int vertex_indices
end_header
301 478 0 1 0 0
301 260 0 1 0 0
301 260 100 1 0 0
301 478 100 1 0 0
291 468 0 -1 -0 0
291 260 0 -1 -0 0
291 260 100 -1 -0 0
291 468 100 -1 -0 0
291 468 0 -0 -1 0
182 468 0 -0 -1 0
182 468 100 -0 -1 0
291 468 100 -0 -1 0
301 478 0 0 1 0
182 478 0 0 1 0
182 478 100 0 1 0
301 478 100 0 1 0
757 477 0 1 0 0
757 209 0 1 0 0
757 209 100 1 0 0
757 477 100 1 0 0
747 467 0 -1 -0 0
747 219 0 -1 -0 0
747 219 100 -1 -0 0
747 467 100 -1 -0 0
747 467 0 -0 -1 0
587 467 0 -0 -1 0
587 467 100 -0 -1 0
747 467 100 -0 -1 0
757 477 0 0 1 0
587 477 0 0 1 0
587 477 100 0 1 0
757 477 100 0 1 0
757 209 0 -0 -1 0
602 209 0 -0 -1 0
602 209 100 -0 -1 0
757 209 100 -0 -1 0
747 219 0 0 1 0
612 219 0 0 1 0
612 219 100 0 1 0
747 219 100 0 1 0
81 281 0 1 0 0
81 18 0 1 0 0
81 18 100 1 0 0
81 281 100 1 0 0
71 281 0 -1 -0 0
71 18 0 -1 -0 0
71 18 100 -1 -0 0
71 281 100 -1 -0 0
635 472 0 1 0 0
635 214 0 1 0 0
635 214 100 1 0 0
635 472 100 1 0 0
625 472 0 -1 -0 0
625 214 0 -1 -0 0
625 214 100 -1 -0 0
625 472 100 -1 -0 0
625 214 0 -1 0 0
625 310 0 -1 0 0
625 310 100 -1 0 0
625 214 100 -1 0 0
635 214 0 1 -0 0
635 310 0 1 -0 0
635 310 100 1 -0 0
635 214 100 1 -0 0
171 222 0 1 0 0
171 17 0 1 0 0
171 17 100 1 0 0
171 222 100 1 0 0
161 222 0 -1 -0 0
161 17 0 -1 -0 0
161 17 100 -1 -0 0
161 222 100 -1 -0 0
76 227 0 -0 1 0
258 227 0 -0 1 0
258 227 100 -0 1 0
76 227 100 -0 1 0
76 217 0 0 -1 0
258 217 0 0 -1 0
258 217 100 0 -1 0
76 217 100 0 -1 0
339 355 0 1 0 0
339 260 0 1 0 0
339 260 100 1 0 0
339 355 100 1 0 0
329 355 0 -1 -0 0
329 260 0 -1 -0 0
329 260 100 -1 -0 0
329 355 100 -1 -0 0
167 171 0 -0 1 0
291 171 0 -0 1 0
291 171 100 -0 1 0
167 171 100 -0 1 0
167 161 0 0 -1 0
301 161 0 0 -1 0
301 161 100 0 -1 0
167 161 100 0 -1 0
291 171 0 -1 0 0
291 213 0 -1 0 0
291 213 100 -1 0 0
291 171 100 -1 0 0
301 161 0 1 -0 0
301 213 0 1 -0 0
301 213 100 1 -0 0
301 161 100 1 -0 0
491 371 0 1 0 0
491 299 0 1 0 0
491 299 100 1 0 0
491 371 100 1 0 0
481 371 0 -1 -0 0
481 299 0 -1 -0 0
481 299 100 -1 -0 0
481 371 100 -1 -0 0
75 497 0 -0 1 0
182 497 0 -0 1 0
182 497 100 -0 1 0
75 497 100 -0 1 0
75 487 0 0 -1 0
182 487 0 0 -1 0
182 487 100 0 -1 0
75 487 100 0 -1 0
372 478 0 -0 1 0
538 478 0 -0 1 0
538 478 100 -0 1 0
372 478 100 -0 1 0
372 468 0 0 -1 0
538 468 0 0 -1 0
538 468 100 0 -1 0
372 468 100 0 -1 0
602 209 0 -1 0 0
602 263 0 -1 0 0
602 263 100 -1 0 0
602 209 100 -1 0 0
612 219 0 1 -0 0
612 268 0 1 -0 0
612 268 100 1 -0 0
612 219 100 1 -0 0
603 472 0 1 0 0
603 425 0 1 0 0
603 425 100 1 0 0
603 472 100 1 0 0
593 472 0 -1 -0 0
593 425 0 -1 -0 0
593 425 100 -1 -0 0
593 472 100 -1 -0 0
204 221 0 1 0 0
204 170 0 1 0 0
204 170 100 1 0 0
204 221 100 1 0 0
194 221 0 -1 -0 0
194 170 0 -1 -0 0
194 170 100 -1 -0 0
194 221 100 -1 -0 0
257 217 0 -0 1 0
367 217 0 -0 1 0
367 217 100 -0 1 0
257 217 100 -0 1 0
257 207 0 0 -1 0
377 207 0 0 -1 0
377 207 100 0 -1 0
257 207 100 0 -1 0
367 217 0 -1 0 0
367 472 0 -1 0 0
367 472 100 -1 0 0
367 217 100 -1 0 0
377 207 0 1 -0 0
377 472 0 1 -0 0
377 472 100 1 -0 0
377 207 100 1 -0 0
631 323 0 -0 1 0
752 323 0 -0 1 0
752 323 100 -0 1 0
631 323 100 -0 1 0
631 313 0 0 -1 0
752 313 0 0 -1 0
752 313 100 0 -1 0
631 313 100 0 -1 0
295 360 0 -0 1 0
371 360 0 -0 1 0
371 360 100 -0 1 0
295 360 100 -0 1 0
295 350 0 0 -1 0
371 350 0 0 -1 0
371 350 100 0 -1 0
295 350 100 0 -1 0
483 430 0 -0 1 0
535 430 0 -0 1 0
535 430 100 -0 1 0
483 430 100 -0 1 0
483 420 0 0 -1 0
535 420 0 0 -1 0
535 420 100 0 -1 0
483 420 100 0 -1 0
631 374 0 -0 1 0
752 374 0 -0 1 0
752 374 100 -0 1 0
631 374 100 -0 1 0
631 364 0 0 -1 0
752 364 0 0 -1 0
752 364 100 0 -1 0
631 364 100 0 -1 0
589 430 0 -0 1 0
629 430 0 -0 1 0
629 430 100 -0 1 0
589 430 100 -0 1 0
589 420 0 0 -1 0
629 420 0 0 -1 0
629 420 100 0 -1 0
589 420 100 0 -1 0
374 368 0 -0 1 0
485 368 0 -0 1 0
485 368 100 -0 1 0
374 368 100 -0 1 0
374 358 0 0 -1 0
485 358 0 0 -1 0
485 358 100 0 -1 0
374 358 100 0 -1 0
491 472 0 1 0 0
491 416 0 1 0 0
491 416 100 1 0 0
491 472 100 1 0 0
481 472 0 -1 -0 0
481 416 0 -1 -0 0
481 416 100 -1 -0 0
481 472 100 -1 -0 0
295 420 0 -0 1 0
371 420 0 -0 1 0
371 420 100 -0 1 0
295 420 100 -0 1 0
295 410 0 0 -1 0
371 410 0 0 -1 0
371 410 100 0 -1 0
295 410 100 0 -1 0
631 304 0 1 0 0
631 260 0 1 0 0
631 260 100 1 0 0
631 304 100 1 0 0
621 304 0 -1 -0 0
621 260 0 -1 -0 0
621 260 100 -1 -0 0
621 304 100 -1 -0 0
612 268 0 1 0 0
612 268 0 1 0 0
612 268 100 1 0 0
612 268 100 1 0 0
602 268 0 -1 -0 0
602 263 0 -1 -0 0
602 263 100 -1 -0 0
602 268 100 -1 -0 0
607 258 0 -0 -1 0
584 258 0 -0 -1 0
584 258 100 -0 -1 0
607 258 100 -0 -1 0
612 268 0 0 1 0
584 268 0 0 1 0
584 268 100 0 1 0
612 268 100 0 1 0
612 268 0 -0 1 0
621 268 0 -0 1 0
621 268 100 -0 1 0
612 268 100 -0 1 0
607 258 0 0 -1 0
621 258 0 0 -1 0
621 258 100 0 -1 0
607 258 100 0 -1 0
301 260 0 299.6192626953125 257.807342529296875 0
291 260 0 299.6192626953125 257.807342529296875 0
291 260 100 299.6192626953125 257.807342529296875 0
301 260 100 299.6192626953125 257.807342529296875 0
81 281 0 80.6920166015625 280.931549072265625 0
71 281 0 80.6920166015625 280.931549072265625 0
71 281 100 80.6920166015625 280.931549072265625 0
81 281 100 80.6920166015625 280.931549072265625 0
81 18 0 80.6920166015625 16.9315586090087891 0
71 18 0 80.6920166015625 16.9315586090087891 0
71 18 100 80.6920166015625 16.9315586090087891 0
81 18 100 80.6920166015625 16.9315586090087891 0
635 472 0 632.53875732421875 471.1705322265625 0
625 472 0 632.53875732421875 471.1705322265625 0
625 472 100 632.53875732421875 471.1705322265625 0
635 472 100 632.53875732421875 471.1705322265625 0
171 222 0 170.165847778320312 221.917068481445312 0
161 222 0 170.165847778320312 221.917068481445312 0
161 222 100 170.165847778320312 221.917068481445312 0
171 222 100 170.165847778320312 221.917068481445312 0
171 17 0 170.165847778320312 15.9170732498168945 0
161 17 0 170.165847778320312 15.9170732498168945 0
161 17 100 170.165847778320312 15.9170732498168945 0
171 17 100 170.165847778320312 15.9170732498168945 0
76 227 0 74.5824203491210938 225.75274658203125 0
76 217 0 74.5824203491210938 225.75274658203125 0
76 217 100 74.5824203491210938 225.75274658203125 0
76 227 100 74.5824203491210938 225.75274658203125 0
258 227 0 257.582427978515625 225.75274658203125 0
258 217 0 257.582427978515625 225.75274658203125 0
258 217 100 257.582427978515625 225.75274658203125 0
258 227 100 257.582427978515625 225.75274658203125 0
339 355 0 335.43157958984375 352.263153076171875 0
329 355 0 335.43157958984375 352.263153076171875 0
329 355 100 335.43157958984375 352.263153076171875 0
339 355 100 335.43157958984375 352.263153076171875 0
339 260 0 335.43157958984375 256.263153076171875 0
329 260 0 335.43157958984375 256.263153076171875 0
329 260 100 335.43157958984375 256.263153076171875 0
339 260 100 335.43157958984375 256.263153076171875 0
167 171 0 164.653228759765625 169.6209716796875 0
167 161 0 164.653228759765625 169.6209716796875 0
167 161 100 164.653228759765625 169.6209716796875 0
167 171 100 164.653228759765625 169.6209716796875 0
491 371 0 484.1805419921875 366.84722900390625 0
481 371 0 484.1805419921875 366.84722900390625 0
481 371 100 484.1805419921875 366.84722900390625 0
491 371 100 484.1805419921875 366.84722900390625 0
491 299 0 484.1805419921875 293.84722900390625 0
481 299 0 484.1805419921875 293.84722900390625 0
481 299 100 484.1805419921875 293.84722900390625 0
491 299 100 484.1805419921875 293.84722900390625 0
75 497 0 73.2990646362304688 492.355133056640625 0
75 487 0 73.2990646362304688 492.355133056640625 0
75 487 100 73.2990646362304688 492.355133056640625 0
75 497 100 73.2990646362304688 492.355133056640625 0
182 497 0 181.299072265625 492.355133056640625 0
182 487 0 181.299072265625 492.355133056640625 0
182 487 100 181.299072265625 492.355133056640625 0
182 497 100 181.299072265625 492.355133056640625 0
182 468 0 179.330276489257812 463.7064208984375 0
182 478 0 179.330276489257812 463.7064208984375 0
182 478 100 179.330276489257812 463.7064208984375 0
182 468 100 179.330276489257812 463.7064208984375 0
372 478 0 368.759033203125 475.1204833984375 0
372 468 0 368.759033203125 475.1204833984375 0
372 468 100 368.759033203125 475.1204833984375 0
372 478 100 368.759033203125 475.1204833984375 0
538 478 0 535.759033203125 475.1204833984375 0
538 468 0 535.759033203125 475.1204833984375 0
538 468 100 535.759033203125 475.1204833984375 0
538 478 100 535.759033203125 475.1204833984375 0
587 467 0 582.33123779296875 464.08123779296875 0
587 477 0 582.33123779296875 464.08123779296875 0
587 477 100 582.33123779296875 464.08123779296875 0
587 467 100 582.33123779296875 464.08123779296875 0
603 472 0 590.17022705078125 462.95745849609375 0
593 472 0 590.17022705078125 462.95745849609375 0
593 472 100 590.17022705078125 462.95745849609375 0
603 472 100 590.17022705078125 462.95745849609375 0
603 425 0 590.17022705078125 414.95745849609375 0
593 425 0 590.17022705078125 414.95745849609375 0
593 425 100 590.17022705078125 414.95745849609375 0
603 425 100 590.17022705078125 414.95745849609375 0
204 221 0 200 217.666671752929688 0
194 221 0 200 217.666671752929688 0
194 221 100 200 217.666671752929688 0
204 221 100 200 217.666671752929688 0
204 170 0 200 165.666671752929688 0
194 170 0 200 165.666671752929688 0
194 170 100 200 165.666671752929688 0
204 170 100 200 165.666671752929688 0
257 217 0 253.66363525390625 215.027267456054688 0
257 207 0 253.66363525390625 215.027267456054688 0
257 207 100 253.66363525390625 215.027267456054688 0
257 217 100 253.66363525390625 215.027267456054688 0
631 323 0 624.78509521484375 320.33056640625 0
631 313 0 624.78509521484375 320.33056640625 0
631 313 100 624.78509521484375 320.33056640625 0
631 323 100 624.78509521484375 320.33056640625 0
752 323 0 746.78509521484375 320.33056640625 0
752 313 0 746.78509521484375 320.33056640625 0
752 313 100 746.78509521484375 320.33056640625 0
752 323 100 746.78509521484375 320.33056640625 0
295 360 0 290.118408203125 355.263153076171875 0
295 350 0 290.118408203125 355.263153076171875 0
295 350 100 290.118408203125 355.263153076171875 0
295 360 100 290.118408203125 355.263153076171875 0
371 360 0 367.118408203125 355.263153076171875 0
371 350 0 367.118408203125 355.263153076171875 0
371 350 100 367.118408203125 355.263153076171875 0
371 360 100 367.118408203125 355.263153076171875 0
483 430 0 472.7115478515625 421.73077392578125 0
483 420 0 472.7115478515625 421.73077392578125 0
483 420 100 472.7115478515625 421.73077392578125 0
483 430 100 472.7115478515625 421.73077392578125 0
535 430 0 525.7115478515625 421.73077392578125 0
535 420 0 525.7115478515625 421.73077392578125 0
535 420 100 525.7115478515625 421.73077392578125 0
535 430 100 525.7115478515625 421.73077392578125 0
631 374 0 624.78509521484375 370.909088134765625 0
631 364 0 624.78509521484375 370.909088134765625 0
631 364 100 624.78509521484375 370.909088134765625 0
631 374 100 624.78509521484375 370.909088134765625 0
752 374 0 746.78509521484375 370.909088134765625 0
752 364 0 746.78509521484375 370.909088134765625 0
752 364 100 746.78509521484375 370.909088134765625 0
752 374 100 746.78509521484375 370.909088134765625 0
589 430 0 573.2750244140625 419.25 0
589 420 0 573.2750244140625 419.25 0
589 420 100 573.2750244140625 419.25 0
589 430 100 573.2750244140625 419.25 0
629 430 0 614.2750244140625 419.25 0
629 420 0 614.2750244140625 419.25 0
629 420 100 614.2750244140625 419.25 0
629 430 100 614.2750244140625 419.25 0
374 368 0 369.630645751953125 364.6846923828125 0
374 358 0 369.630645751953125 364.6846923828125 0
374 358 100 369.630645751953125 364.6846923828125 0
374 368 100 369.630645751953125 364.6846923828125 0
485 368 0 481.630645751953125 364.6846923828125 0
485 358 0 481.630645751953125 364.6846923828125 0
485 358 100 481.630645751953125 364.6846923828125 0
485 368 100 481.630645751953125 364.6846923828125 0
291 213 0 284.071441650390625 208.928573608398438 0
301 213 0 284.071441650390625 208.928573608398438 0
301 213 100 284.071441650390625 208.928573608398438 0
291 213 100 284.071441650390625 208.928573608398438 0
491 472 0 482.232147216796875 464.571441650390625 0
481 472 0 482.232147216796875 464.571441650390625 0
481 472 100 482.232147216796875 464.571441650390625 0
491 472 100 482.232147216796875 464.571441650390625 0
491 416 0 482.232147216796875 407.571441650390625 0
481 416 0 482.232147216796875 407.571441650390625 0
481 416 100 482.232147216796875 407.571441650390625 0
491 416 100 482.232147216796875 407.571441650390625 0
295 420 0 290.118408203125 414.47369384765625 0
295 410 0 290.118408203125 414.47369384765625 0
295 410 100 290.118408203125 414.47369384765625 0
295 420 100 290.118408203125 414.47369384765625 0
371 420 0 367.118408203125 414.47369384765625 0
371 410 0 367.118408203125 414.47369384765625 0
371 410 100 367.118408203125 414.47369384765625 0
371 420 100 367.118408203125 414.47369384765625 0
367 472 0 365.560791015625 471.149017333984375 0
377 472 0 365.560791015625 471.149017333984375 0
377 472 100 365.560791015625 471.149017333984375 0
367 472 100 365.560791015625 471.149017333984375 0
625 310 0 618.48956298828125 307.770843505859375 0
635 310 0 618.48956298828125 307.770843505859375 0
635 310 100 618.48956298828125 307.770843505859375 0
625 310 100 618.48956298828125 307.770843505859375 0
631 304 0 616.65911865234375 298.090911865234375 0
621 304 0 616.65911865234375 298.090911865234375 0
621 304 100 616.65911865234375 298.090911865234375 0
631 304 100 616.65911865234375 298.090911865234375 0
631 260 0 616.65911865234375 253.090911865234375 0
621 260 0 616.65911865234375 253.090911865234375 0
621 260 100 616.65911865234375 253.090911865234375 0
631 260 100 616.65911865234375 253.090911865234375 0
612 268 0 -inf -inf 0
602 268 0 -inf -inf 0
602 268 100 -inf -inf 0
612 268 100 -inf -inf 0
584 258 0 557.60870361328125 246.782608032226562 0
584 268 0 557.60870361328125 246.782608032226562 0
584 268 100 557.60870361328125 246.782608032226562 0
584 258 100 557.60870361328125 246.782608032226562 0
621 268 0 553 238.22222900390625 0
621 258 0 553 238.22222900390625 0
621 258 100 553 238.22222900390625 0
621 268 100 553 238.22222900390625 0
301 478 0 0 0 -1
291 468 0 0 0 -1
291 260 0 0 0 -1
301 260 0 0 0 -1
301 478 100 0 0 1
291 468 100 0 0 1
291 260 100 0 0 1
301 260 100 0 0 1
291 468 0 0 0 -1
301 478 0 0 0 -1
182 478 0 0 0 -1
182 468 0 0 0 -1
291 468 100 0 0 1
301 478 100 0 0 1
182 478 100 0 0 1
182 468 100 0 0 1
757 477 0 0 0 -1
747 467 0 0 0 -1
747 219 0 0 0 -1
757 209 0 0 0 -1
757 477 100 0 0 1
747 467 100 0 0 1
747 219 100 0 0 1
757 209 100 0 0 1
747 467 0 0 0 -1
757 477 0 0 0 -1
587 477 0 0 0 -1
587 467 0 0 0 -1
747 467 100 0 0 1
757 477 100 0 0 1
587 477 100 0 0 1
587 467 100 0 0 1
757 209 0 0 0 -1
747 219 0 0 0 -1
612 219 0 0 0 -1
602 209 0 0 0 -1
757 209 100 0 0 1
747 219 100 0 0 1
612 219 100 0 0 1
602 209 100 0 0 1
81 281 0 0 0 -1
71 281 0 0 0 -1
71 18 0 0 0 -1
81 18 0 0 0 -1
81 281 100 0 0 1
71 281 100 0 0 1
71 18 100 0 0 1
81 18 100 0 0 1
635 472 0 0 0 -1
625 472 0 0 0 -1
625 214 0 0 0 -1
635 214 0 0 0 -1
635 472 100 0 0 1
625 472 100 0 0 1
625 214 100 0 0 1
635 214 100 0 0 1
625 214 0 0 0 -1
635 214 0 0 0 -1
635 310 0 0 0 -1
625 310 0 0 0 -1
625 214 100 0 0 1
635 214 100 0 0 1
635 310 100 0 0 1
625 310 100 0 0 1
171 222 0 0 0 -1
161 222 0 0 0 -1
161 17 0 0 0 -1
171 17 0 0 0 -1
171 222 100 0 0 1
161 222 100 0 0 1
161 17 100 0 0 1
171 17 100 0 0 1
76 227 0 0 0 -1
76 217 0 0 0 -1
258 217 0 0 0 -1
258 227 0 0 0 -1
76 227 100 0 0 1
76 217 100 0 0 1
258 217 100 0 0 1
258 227 100 0 0 1
339 355 0 0 0 -1
329 355 0 0 0 -1
329 260 0 0 0 -1
339 260 0 0 0 -1
339 355 100 0 0 1
329 355 100 0 0 1
329 260 100 0 0 1
339 260 100 0 0 1
167 171 0 0 0 -1
167 161 0 0 0 -1
301 161 0 0 0 -1
291 171 0 0 0 -1
167 171 100 0 0 1
167 161 100 0 0 1
301 161 100 0 0 1
291 171 100 0 0 1
291 171 0 0 0 -1
301 161 0 0 0 -1
301 213 0 0 0 -1
291 213 0 0 0 -1
291 171 100 0 0 1
301 161 100 0 0 1
301 213 100 0 0 1
291 213 100 0 0 1
491 371 0 0 0 -1
481 371 0 0 0 -1
481 299 0 0 0 -1
491 299 0 0 0 -1
491 371 100 0 0 1
481 371 100 0 0 1
481 299 100 0 0 1
491 299 100 0 0 1
75 497 0 0 0 -1
75 487 0 0 0 -1
182 487 0 0 0 -1
182 497 0 0 0 -1
75 497 100 0 0 1
75 487 100 0 0 1
182 487 100 0 0 1
182 497 100 0 0 1
372 478 0 0 0 -1
372 468 0 0 0 -1
538 468 0 0 0 -1
538 478 0 0 0 -1
372 478 100 0 0 1
372 468 100 0 0 1
538 468 100 0 0 1
538 478 100 0 0 1
602 209 0 0 0 -1
612 219 0 0 0 -1
612 268 0 0 0 -1
602 263 0 0 0 -1
602 209 100 0 0 1
612 219 100 0 0 1
612 268 100 0 0 1
602 263 100 0 0 1
603 472 0 0 0 -1
593 472 0 0 0 -1
593 425 0 0 0 -1
603 425 0 0 0 -1
603 472 100 0 0 1
593 472 100 0 0 1
593 425 100 0 0 1
603 425 100 0 0 1
204 221 0 0 0 -1
194 221 0 0 0 -1
194 170 0 0 0 -1
204 170 0 0 0 -1
204 221 100 0 0 1
194 221 100 0 0 1
194 170 100 0 0 1
204 170 100 0 0 1
257 217 0 0 0 -1
257 207 0 0 0 -1
377 207 0 0 0 -1
367 217 0 0 0 -1
257 217 100 0 0 1
257 207 100 0 0 1
377 207 100 0 0 1
367 217 100 0 0 1
367 217 0 0 0 -1
377 207 0 0 0 -1
377 472 0 0 0 -1
367 472 0 0 0 -1
367 217 100 0 0 1
377 207 100 0 0 1
377 472 100 0 0 1
367 472 100 0 0 1
631 323 0 0 0 -1
631 313 0 0 0 -1
752 313 0 0 0 -1
752 323 0 0 0 -1
631 323 100 0 0 1
631 313 100 0 0 1
752 313 100 0 0 1
752 323 100 0 0 1
295 360 0 0 0 -1
295 350 0 0 0 -1
371 350 0 0 0 -1
371 360 0 0 0 -1
295 360 100 0 0 1
295 350 100 0 0 1
371 350 100 0 0 1
371 360 100 0 0 1
483 430 0 0 0 -1
483 420 0 0 0 -1
535 420 0 0 0 -1
535 430 0 0 0 -1
483 430 100 0 0 1
483 420 100 0 0 1
535 420 100 0 0 1
535 430 100 0 0 1
631 374 0 0 0 -1
631 364 0 0 0 -1
752 364 0 0 0 -1
752 374 0 0 0 -1
631 374 100 0 0 1
631 364 100 0 0 1
752 364 100 0 0 1
752 374 100 0 0 1
589 430 0 0 0 -1
589 420 0 0 0 -1
629 420 0 0 0 -1
629 430 0 0 0 -1
589 430 100 0 0 1
589 420 100 0 0 1
629 420 100 0 0 1
629 430 100 0 0 1
374 368 0 0 0 -1
374 358 0 0 0 -1
485 358 0 0 0 -1
485 368 0 0 0 -1
374 368 100 0 0 1
374 358 100 0 0 1
485 358 100 0 0 1
485 368 100 0 0 1
491 472 0 0 0 -1
481 472 0 0 0 -1
481 416 0 0 0 -1
491 416 0 0 0 -1
491 472 100 0 0 1
481 472 100 0 0 1
481 416 100 0 0 1
491 416 100 0 0 1
295 420 0 0 0 -1
295 410 0 0 0 -1
371 410 0 0 0 -1
371 420 0 0 0 -1
295 420 100 0 0 1
295 410 100 0 0 1
371 410 100 0 0 1
371 420 100 0 0 1
631 304 0 0 0 -1
621 304 0 0 0 -1
621 260 0 0 0 -1
631 260 0 0 0 -1
631 304 100 0 0 1
621 304 100 0 0 1
621 260 100 0 0 1
631 260 100 0 0 1
612 268 0 0 0 -1
602 268 0 0 0 -1
602 263 0 0 0 -1
612 268 0 0 0 -1
612 268 100 0 0 1
602 268 100 0 0 1
602 263 100 0 0 1
612 268 100 0 0 1
607 258 0 0 0 -1
612 268 0 0 0 -1
584 268 0 0 0 -1
584 258 0 0 0 -1
607 258 100 0 0 1
612 268 100 0 0 1
584 268 100 0 0 1
584 258 100 0 0 1
612 268 0 0 0 -1
607 258 0 0 0 -1
621 258 0 0 0 -1
621 268 0 0 0 -1
612 268 100 0 0 1
607 258 100 0 0 1
621 258 100 0 0 1
621 268 100 0 0 1
612 268 0 0 0 -1
612 268 0 0 0 -1
612 268 100 0 0 1
612 268 100 0 0 1
4 0 1 2 3
4 4 5 6 7
4 8 9 10 11
4 12 13 14 15
4 16 17 18 19
4 20 21 22 23
4 24 25 26 27
4 28 29 30 31
4 32 33 34 35
4 36 37 38 39
4 40 41 42 43
4 44 45 46 47
4 48 49 50 51
4 52 53 54 55
4 56 57 58 59
4 60 61 62 63
4 64 65 66 67
4 68 69 70 71
4 72 73 74 75
4 76 77 78 79
4 80 81 82 83
4 84 85 86 87
4 88 89 90 91
4 92 93 94 95
4 96 97 98 99
4 100 101 102 103
4 104 105 106 107
4 108 109 110 111
4 112 113 114 115
4 116 117 118 119
4 120 121 122 123
4 124 125 126 127
4 128 129 130 131
4 132 133 134 135
4 136 137 138 139
4 140 141 142 143
4 144 145 146 147
4 148 149 150 151
4 152 153 154 155
4 156 157 158 159
4 160 161 162 163
4 164 165 166 167
4 168 169 170 171
4 172 173 174 175
4 176 177 178 179
4 180 181 182 183
4 184 185 186 187
4 188 189 190 191
4 192 193 194 195
4 196 197 198 199
4 200 201 202 203
4 204 205 206 207
4 208 209 210 211
4 212 213 214 215
4 216 217 218 219
4 220 221 222 223
4 224 225 226 227
4 228 229 230 231
4 232 233 234 235
4 236 237 238 239
4 240 241 242 243
4 244 245 246 247
4 248 249 250 251
4 252 253 254 255
4 256 257 258 259
4 260 261 262 263
4 264 265 266 267
4 268 269 270 271
4 272 273 274 275
4 276 277 278 279
4 280 281 282 283
4 284 285 286 287
4 288 289 290 291
4 292 293 294 295
4 296 297 298 299
4 300 301 302 303
4 304 305 306 307
4 308 309 310 311
4 312 313 314 315
4 316 317 318 319
4 320 321 322 323
4 324 325 326 327
4 328 329 330 331
4 332 333 334 335
4 336 337 338 339
4 340 341 342 343
4 344 345 346 347
4 348 349 350 351
4 352 353 354 355
4 356 357 358 359
4 360 361 362 363
4 364 365 366 367
4 368 369 370 371
4 372 373 374 375
4 376 377 378 379
4 380 381 382 383
4 384 385 386 387
4 388 389 390 391
4 392 393 394 395
4 396 397 398 399
4 400 401 402 403
4 404 405 406 407
4 408 409 410 411
4 412 413 414 415
4 416 417 418 419
4 420 421 422 423
4 424 425 426 427
4 428 429 430 431
4 432 433 434 435
4 436 437 438 439
4 440 441 442 443
4 444 445 446 447
4 448 449 450 451
4 452 453 454 455
4 456 457 458 459
4 460 461 462 463
4 464 465 466 467
4 468 469 470 471
4 472 473 474 475
4 476 477 478 479
4 480 481 482 483
4 484 485 486 487
4 488 489 490 491
4 492 493 494 495
4 496 497 498 499
4 500 501 502 503
4 504 505 506 507
4 508 509 510 511
4 512 513 514 515
4 516 517 518 519
4 520 521 522 523
4 524 525 526 527
4 528 529 530 531
4 532 533 534 535
4 536 537 538 539
4 540 541 542 543
4 544 545 546 547
4 548 549 550 551
4 552 553 554 555
4 556 557 558 559
4 560 561 562 563
4 564 565 566 567
4 568 569 570 571
4 572 573 574 575
4 576 577 578 579
4 580 581 582 583
4 584 585 586 587
4 588 589 590 591
4 592 593 594 595
4 596 597 598 599
4 600 601 602 603
4 604 605 606 607
4 608 609 610 611
4 612 613 614 615
4 616 617 618 619
4 620 621 622 623
4 624 625 626 627
4 628 629 630 631
4 632 633 634 635
4 636 637 638 639
4 640 641 642 643
4 644 645 646 647
4 648 649 650 651
4 652 653 654 655
4 656 657 658 659
4 660 661 662 663
4 664 665 666 667
4 668 669 670 671
4 672 673 674 675
4 676 677 678 679
4 680 681 682 683
4 684 685 686 687
4 688 689 690 691
4 692 693 694 695
4 696 697 698 699
4 700 701 702 703
4 704 705 706 707
4 708 709 710 711
4 712 713 714 715
4 716 717 718 719
