ply
format ascii 1.0
element vertex 176
property float x
property float y
property float z
property float nx
property float ny
property float nz
element quads 44
property list uchar int vertex_indices
end_header
147 418 0 1 0 0
147 166 0 1 0 0
147 166 100 1 0 0
147 418 100 1 0 0
137 418 0 -1 -0 0
137 166 0 -1 -0 0
137 166 100 -1 -0 0
137 418 100 -1 -0 0
137 166 0 -1 0 0
137 308 0 -1 0 0
137 308 100 -1 0 0
137 166 100 -1 0 0
147 166 0 1 -0 0
147 308 0 1 -0 0
147 308 100 1 -0 0
147 166 100 1 -0 0
382 376 0 1 0 0
382 213 0 1 0 0
382 213 100 1 0 0
382 376 100 1 0 0
372 376 0 -1 -0 0
372 213 0 -1 -0 0
372 213 100 -1 -0 0
372 376 100 -1 -0 0
146 308 0 1 0 0
146 233 0 1 0 0
146 233 100 1 0 0
146 308 100 1 0 0
136 308 0 -1 -0 0
136 233 0 -1 -0 0
136 233 100 -1 -0 0
136 308 100 -1 -0 0
253 502 0 1 0 0
253 377 0 1 0 0
253 377 100 1 0 0
253 502 100 1 0 0
243 502 0 -1 -0 0
243 377 0 -1 -0 0
243 377 100 -1 -0 0
243 502 100 -1 -0 0
243 377 0 -1 0 0
243 439 0 -1 0 0
243 439 100 -1 0 0
243 377 100 -1 0 0
253 377 0 1 -0 0
253 439 0 1 -0 0
253 439 100 1 -0 0
253 377 100 1 -0 0
346 169 0 1 0 0
346 109 0 1 0 0
346 109 100 1 0 0
346 169 100 1 0 0
336 169 0 -1 -0 0
336 109 0 -1 -0 0
336 109 100 -1 -0 0
336 169 100 -1 -0 0
462 343 0 1 0 0
462 213 0 1 0 0
462 213 100 1 0 0
462 343 100 1 0 0
452 343 0 -1 -0 0
452 213 0 -1 -0 0
452 213 100 -1 -0 0
452 343 100 -1 -0 0
147 418 0 146.416671752929688 417.341278076171875 0
137 418 0 146.416671752929688 417.341278076171875 0
137 418 100 146.416671752929688 417.341278076171875 0
147 418 100 146.416671752929688 417.341278076171875 0
137 308 0 136.03521728515625 306.83099365234375 0
147 308 0 136.03521728515625 306.83099365234375 0
147 308 100 136.03521728515625 306.83099365234375 0
137 308 100 136.03521728515625 306.83099365234375 0
382 376 0 379.65643310546875 374.6932373046875 0
372 376 0 379.65643310546875 374.6932373046875 0
372 376 100 379.65643310546875 374.6932373046875 0
382 376 100 379.65643310546875 374.6932373046875 0
382 213 0 379.65643310546875 210.693252563476562 0
372 213 0 379.65643310546875 210.693252563476562 0
372 213 100 379.65643310546875 210.693252563476562 0
382 213 100 379.65643310546875 210.693252563476562 0
146 308 0 144.053329467773438 304.893341064453125 0
136 308 0 144.053329467773438 304.893341064453125 0
136 308 100 144.053329467773438 304.893341064453125 0
146 308 100 144.053329467773438 304.893341064453125 0
146 233 0 144.053329467773438 228.893325805664062 0
136 233 0 144.053329467773438 228.893325805664062 0
136 233 100 144.053329467773438 228.893325805664062 0
146 233 100 144.053329467773438 228.893325805664062 0
253 502 0 250.975997924804688 498.9840087890625 0
243 502 0 250.975997924804688 498.9840087890625 0
243 502 100 250.975997924804688 498.9840087890625 0
253 502 100 250.975997924804688 498.9840087890625 0
346 169 0 340.23333740234375 167.183334350585938 0
336 169 0 340.23333740234375 167.183334350585938 0
336 169 100 340.23333740234375 167.183334350585938 0
346 169 100 340.23333740234375 167.183334350585938 0
346 109 0 340.23333740234375 106.183334350585938 0
336 109 0 340.23333740234375 106.183334350585938 0
336 109 100 340.23333740234375 106.183334350585938 0
346 109 100 340.23333740234375 106.183334350585938 0
462 343 0 458.4461669921875 341.361541748046875 0
452 343 0 458.4461669921875 341.361541748046875 0
452 343 100 458.4461669921875 341.361541748046875 0
462 343 100 458.4461669921875 341.361541748046875 0
462 213 0 458.4461669921875 210.361541748046875 0
452 213 0 458.4461669921875 210.361541748046875 0
452 213 100 458.4461669921875 210.361541748046875 0
462 213 100 458.4461669921875 210.361541748046875 0
243 439 0 239.080642700195312 432.919342041015625 0
253 439 0 239.080642700195312 432.919342041015625 0
253 439 100 239.080642700195312 432.919342041015625 0
243 439 100 239.080642700195312 432.919342041015625 0
147 418 0 0 0 -1
137 418 0 0 0 -1
137 166 0 0 0 -1
147 166 0 0 0 -1
147 418 100 0 0 1
137 418 100 0 0 1
137 166 100 0 0 1
147 166 100 0 0 1
137 166 0 0 0 -1
147 166 0 0 0 -1
147 308 0 0 0 -1
137 308 0 0 0 -1
137 166 100 0 0 1
147 166 100 0 0 1
147 308 100 0 0 1
137 308 100 0 0 1
382 376 0 0 0 -1
372 376 0 0 0 -1
372 213 0 0 0 -1
382 213 0 0 0 -1
382 376 100 0 0 1
372 376 100 0 0 1
372 213 100 0 0 1
382 213 100 0 0 1
146 308 0 0 0 -1
136 308 0 0 0 -1
136 233 0 0 0 -1
146 233 0 0 0 -1
146 308 100 0 0 1
136 308 100 0 0 1
136 233 100 0 0 1
146 233 100 0 0 1
253 502 0 0 0 -1
243 502 0 0 0 -1
243 377 0 0 0 -1
253 377 0 0 0 -1
253 502 100 0 0 1
243 502 100 0 0 1
243 377 100 0 0 1
253 377 100 0 0 1
243 377 0 0 0 -1
253 377 0 0 0 -1
253 439 0 0 0 -1
243 439 0 0 0 -1
243 377 100 0 0 1
253 377 100 0 0 1
253 439 100 0 0 1
243 439 100 0 0 1
346 169 0 0 0 -1
336 169 0 0 0 -1
336 109 0 0 0 -1
346 109 0 0 0 -1
346 169 100 0 0 1
336 169 100 0 0 1
336 109 100 0 0 1
346 109 100 0 0 1
462 343 0 0 0 -1
452 343 0 0 0 -1
452 213 0 0 0 -1
462 213 0 0 0 -1
462 343 100 0 0 1
452 343 100 0 0 1
452 213 100 0 0 1
462 213 100 0 0 1
4 0 1 2 3
4 4 5 6 7
4 8 9 10 11
4 12 13 14 15
4 16 17 18 19
4 20 21 22 23
4 24 25 26 27
4 28 29 30 31
4 32 33 34 35
4 36 37 38 39
4 40 41 42 43
4 44 45 46 47
4 48 49 50 51
4 52 53 54 55
4 56 57 58 59
4 60 61 62 63
4 64 65 66 67
4 68 69 70 71
4 72 73 74 75
4 76 77 78 79
4 80 81 82 83
4 84 85 86 87
4 88 89 90 91
4 92 93 94 95
4 96 97 98 99
4 100 101 102 103
4 104 105 106 107
4 108 109 110 111
4 112 113 114 115
4 116 117 118 119
4 120 121 122 123
4 124 125 126 127
4 128 129 130 131
4 132 133 134 135
4 136 137 138 139
4 140 141 142 143
4 144 145 146 147
4 148 149 150 151
4 152 153 154 155
4 156 157 158 159
4 160 161 162 163
4 164 165 166 167
4 168 169 170 171
4 172 173 174 175
