ply
format ascii 1.0
element vertex 760
property float x
property float y
property float z
property float nx
property float ny
property float nz
element quads 189
property list uchar int vertex_indices
end_header
467 179 0 1 0 0
467 36 0 1 0 0
467 36 100 1 0 0
467 179 100 1 0 0
457 179 0 -1 -0 0
457 36 0 -1 -0 0
457 36 100 -1 -0 0
457 179 100 -1 -0 0
457 36 0 -1 0 0
457 361 0 -1 0 0
457 361 100 -1 0 0
457 36 100 -1 0 0
467 36 0 1 -0 0
467 361 0 1 -0 0
467 361 100 1 -0 0
467 36 100 1 -0 0
457 36 0 -1 0 0
457 326 0 -1 0 0
457 326 100 -1 0 0
457 36 100 -1 0 0
467 36 0 1 -0 0
467 326 0 1 -0 0
467 326 100 1 -0 0
467 36 100 1 -0 0
457 36 0 -1 0 0
457 62 0 -1 0 0
457 62 100 -1 0 0
457 36 100 -1 0 0
467 36 0 1 -0 0
467 62 0 1 -0 0
467 62 100 1 -0 0
467 36 100 1 -0 0
669 538 0 1 0 0
669 294 0 1 0 0
669 294 100 1 0 0
669 538 100 1 0 0
659 538 0 -1 -0 0
659 294 0 -1 -0 0
659 294 100 -1 -0 0
659 538 100 -1 -0 0
669 538 0 1 0 0
669 500 0 1 0 0
669 500 100 1 0 0
669 538 100 1 0 0
659 538 0 -1 -0 0
659 500 0 -1 -0 0
659 500 100 -1 -0 0
659 538 100 -1 -0 0
295 323 0 1 0 0
295 168 0 1 0 0
295 168 100 1 0 0
295 323 100 1 0 0
285 323 0 -1 -0 0
285 178 0 -1 -0 0
285 178 100 -1 -0 0
285 323 100 -1 -0 0
290 168 0 -0 -1 0
225 168 0 -0 -1 0
225 168 100 -0 -1 0
290 168 100 -0 -1 0
285 178 0 0 1 0
225 178 0 0 1 0
225 178 100 0 1 0
285 178 100 0 1 0
295 168 0 -0 -1 0
240 168 0 -0 -1 0
240 168 100 -0 -1 0
295 168 100 -0 -1 0
290 178 0 0 1 0
240 178 0 0 1 0
240 178 100 0 1 0
290 178 100 0 1 0
669 241 0 1 0 0
669 62 0 1 0 0
669 62 100 1 0 0
669 241 100 1 0 0
659 241 0 -1 -0 0
659 62 0 -1 -0 0
659 62 100 -1 -0 0
659 241 100 -1 -0 0
174 444 0 1 0 0
174 227 0 1 0 0
174 227 100 1 0 0
174 444 100 1 0 0
164 444 0 -1 -0 0
164 227 0 -1 -0 0
164 227 100 -1 -0 0
164 444 100 -1 -0 0
174 444 0 1 0 0
174 313 0 1 0 0
174 313 100 1 0 0
174 444 100 1 0 0
164 444 0 -1 -0 0
164 313 0 -1 -0 0
164 313 100 -1 -0 0
164 444 100 -1 -0 0
465 538 0 1 0 0
465 309 0 1 0 0
465 309 100 1 0 0
465 538 100 1 0 0
455 538 0 -1 -0 0
455 309 0 -1 -0 0
455 309 100 -1 -0 0
455 538 100 -1 -0 0
425 319 0 1 0 0
425 176 0 1 0 0
425 176 100 1 0 0
425 319 100 1 0 0
415 319 0 -1 -0 0
415 176 0 -1 -0 0
415 176 100 -1 -0 0
415 319 100 -1 -0 0
415 176 0 -1 0 0
415 268 0 -1 0 0
415 268 100 -1 0 0
415 176 100 -1 0 0
425 176 0 1 -0 0
425 268 0 1 -0 0
425 268 100 1 -0 0
425 176 100 1 -0 0
465 332 0 1 0 0
465 142 0 1 0 0
465 142 100 1 0 0
465 332 100 1 0 0
455 332 0 -1 -0 0
455 142 0 -1 -0 0
455 142 100 -1 -0 0
455 332 100 -1 -0 0
465 332 0 1 0 0
465 283 0 1 0 0
465 283 100 1 0 0
465 332 100 1 0 0
455 332 0 -1 -0 0
455 273 0 -1 -0 0
455 273 100 -1 -0 0
455 332 100 -1 -0 0
462 337 0 -0 1 0
665 337 0 -0 1 0
665 337 100 -0 1 0
462 337 100 -0 1 0
462 327 0 0 -1 0
665 327 0 0 -1 0
665 327 100 0 -1 0
462 327 100 0 -1 0
665 327 0 -0 -1 0
492 327 0 -0 -1 0
492 327 100 -0 -1 0
665 327 100 -0 -1 0
665 337 0 0 1 0
492 337 0 0 1 0
492 337 100 0 1 0
665 337 100 0 1 0
415 41 0 -0 1 0
522 41 0 -0 1 0
522 41 100 -0 1 0
415 41 100 -0 1 0
415 31 0 0 -1 0
522 31 0 0 -1 0
522 31 100 0 -1 0
415 31 100 0 -1 0
465 283 0 -0 1 0
552 283 0 -0 1 0
552 283 100 -0 1 0
465 283 100 -0 1 0
455 273 0 0 -1 0
552 273 0 0 -1 0
552 273 100 0 -1 0
455 273 100 0 -1 0
302 286 0 1 0 0
302 205 0 1 0 0
302 205 100 1 0 0
302 286 100 1 0 0
292 286 0 -1 -0 0
292 205 0 -1 -0 0
292 205 100 -1 -0 0
292 286 100 -1 -0 0
467 538 0 1 0 0
467 231 0 1 0 0
467 231 100 1 0 0
467 538 100 1 0 0
457 538 0 -1 -0 0
457 221 0 -1 -0 0
457 221 100 -1 -0 0
457 538 100 -1 -0 0
467 231 0 -0 1 0
538 231 0 -0 1 0
538 231 100 -0 1 0
467 231 100 -0 1 0
457 221 0 0 -1 0
538 221 0 0 -1 0
538 221 100 0 -1 0
457 221 100 0 -1 0
492 335 0 -0 1 0
554 335 0 -0 1 0
554 335 100 -0 1 0
492 335 100 -0 1 0
492 325 0 0 -1 0
554 325 0 0 -1 0
554 325 100 0 -1 0
492 325 100 0 -1 0
421 268 0 1 0 0
421 218 0 1 0 0
421 218 100 1 0 0
421 268 100 1 0 0
411 268 0 -1 -0 0
411 218 0 -1 -0 0
411 218 100 -1 -0 0
411 268 100 -1 -0 0
309 275 0 1 0 0
309 223 0 1 0 0
309 223 100 1 0 0
309 275 100 1 0 0
299 275 0 -1 -0 0
299 223 0 -1 -0 0
299 223 100 -1 -0 0
299 275 100 -1 -0 0
354 449 0 -0 1 0
381 449 0 -0 1 0
381 449 100 -0 1 0
354 449 100 -0 1 0
354 439 0 0 -1 0
381 439 0 0 -1 0
381 439 100 0 -1 0
354 439 100 0 -1 0
174 320 0 1 0 0
174 239 0 1 0 0
174 239 100 1 0 0
174 320 100 1 0 0
164 320 0 -1 -0 0
164 239 0 -1 -0 0
164 239 100 -1 -0 0
164 320 100 -1 -0 0
358 444 0 1 0 0
358 356 0 1 0 0
358 356 100 1 0 0
358 444 100 1 0 0
348 444 0 -1 -0 0
348 356 0 -1 -0 0
348 356 100 -1 -0 0
348 444 100 -1 -0 0
564 210 0 -0 1 0
664 210 0 -0 1 0
664 210 100 -0 1 0
564 210 100 -0 1 0
564 200 0 0 -1 0
664 200 0 0 -1 0
664 200 100 0 -1 0
564 200 100 0 -1 0
557 330 0 1 0 0
557 240 0 1 0 0
557 240 100 1 0 0
557 330 100 1 0 0
547 330 0 -1 -0 0
547 240 0 -1 -0 0
547 240 100 -1 -0 0
547 330 100 -1 -0 0
297 312 0 1 0 0
297 204 0 1 0 0
297 204 100 1 0 0
297 312 100 1 0 0
287 312 0 -1 -0 0
287 204 0 -1 -0 0
287 204 100 -1 -0 0
287 312 100 -1 -0 0
528 330 0 1 0 0
528 278 0 1 0 0
528 278 100 1 0 0
528 330 100 1 0 0
518 330 0 -1 -0 0
518 278 0 -1 -0 0
518 278 100 -1 -0 0
518 330 100 -1 -0 0
293 287 0 -0 1 0
405 287 0 -0 1 0
405 287 100 -0 1 0
293 287 100 -0 1 0
293 277 0 0 -1 0
405 277 0 0 -1 0
405 277 100 0 -1 0
293 277 100 0 -1 0
467 179 0 463.7342529296875 178.748245239257812 0
457 179 0 463.7342529296875 178.748245239257812 0
457 179 100 463.7342529296875 178.748245239257812 0
467 179 100 463.7342529296875 178.748245239257812 0
669 294 0 666.2581787109375 291.795074462890625 0
659 294 0 666.2581787109375 291.795074462890625 0
659 294 100 666.2581787109375 291.795074462890625 0
669 294 100 666.2581787109375 291.795074462890625 0
457 361 0 455.593841552734375 360.88922119140625 0
467 361 0 455.593841552734375 360.88922119140625 0
467 361 100 455.593841552734375 360.88922119140625 0
457 361 100 455.593841552734375 360.88922119140625 0
295 323 0 293.096771240234375 321.9161376953125 0
285 323 0 293.096771240234375 321.9161376953125 0
285 323 100 293.096771240234375 321.9161376953125 0
295 323 100 293.096771240234375 321.9161376953125 0
669 241 0 665.2625732421875 240.65362548828125 0
659 241 0 665.2625732421875 240.65362548828125 0
659 241 100 665.2625732421875 240.65362548828125 0
669 241 100 665.2625732421875 240.65362548828125 0
669 62 0 665.2625732421875 60.6536331176757812 0
659 62 0 665.2625732421875 60.6536331176757812 0
659 62 100 665.2625732421875 60.6536331176757812 0
669 62 100 665.2625732421875 60.6536331176757812 0
457 326 0 455.42413330078125 325.8758544921875 0
467 326 0 455.42413330078125 325.8758544921875 0
467 326 100 455.42413330078125 325.8758544921875 0
457 326 100 455.42413330078125 325.8758544921875 0
174 227 0 173.198150634765625 224.95391845703125 0
164 227 0 173.198150634765625 224.95391845703125 0
164 227 100 173.198150634765625 224.95391845703125 0
174 227 100 173.198150634765625 224.95391845703125 0
465 538 0 462.96942138671875 536.650634765625 0
455 538 0 462.96942138671875 536.650634765625 0
455 538 100 462.96942138671875 536.650634765625 0
465 538 100 462.96942138671875 536.650634765625 0
465 309 0 462.96942138671875 306.650665283203125 0
455 309 0 462.96942138671875 306.650665283203125 0
455 309 100 462.96942138671875 306.650665283203125 0
465 309 100 462.96942138671875 306.650665283203125 0
425 319 0 422.027984619140625 317.76922607421875 0
415 319 0 422.027984619140625 317.76922607421875 0
415 319 100 422.027984619140625 317.76922607421875 0
425 319 100 422.027984619140625 317.76922607421875 0
465 142 0 462.552642822265625 140.25262451171875 0
455 142 0 462.552642822265625 140.25262451171875 0
455 142 100 462.552642822265625 140.25262451171875 0
465 142 100 462.552642822265625 140.25262451171875 0
462 337 0 458.724151611328125 335.33990478515625 0
462 327 0 458.724151611328125 335.33990478515625 0
462 327 100 458.724151611328125 335.33990478515625 0
462 337 100 458.724151611328125 335.33990478515625 0
415 41 0 410.121490478515625 40.6168212890625 0
415 31 0 410.121490478515625 40.6168212890625 0
415 31 100 410.121490478515625 40.6168212890625 0
415 41 100 410.121490478515625 40.6168212890625 0
522 41 0 518.12152099609375 40.6168212890625 0
522 31 0 518.12152099609375 40.6168212890625 0
522 31 100 518.12152099609375 40.6168212890625 0
522 41 100 518.12152099609375 40.6168212890625 0
552 283 0 546.6551513671875 279.74713134765625 0
552 273 0 546.6551513671875 279.74713134765625 0
552 273 100 546.6551513671875 279.74713134765625 0
552 283 100 546.6551513671875 279.74713134765625 0
492 327 0 488.15606689453125 325.109832763671875 0
492 337 0 488.15606689453125 325.109832763671875 0
492 337 100 488.15606689453125 325.109832763671875 0
492 327 100 488.15606689453125 325.109832763671875 0
174 313 0 172.6717529296875 309.610687255859375 0
164 313 0 172.6717529296875 309.610687255859375 0
164 313 100 172.6717529296875 309.610687255859375 0
174 313 100 172.6717529296875 309.610687255859375 0
302 286 0 298.2716064453125 283.469146728515625 0
292 286 0 298.2716064453125 283.469146728515625 0
292 286 100 298.2716064453125 283.469146728515625 0
302 286 100 298.2716064453125 283.469146728515625 0
302 205 0 298.2716064453125 201.469131469726562 0
292 205 0 298.2716064453125 201.469131469726562 0
292 205 100 298.2716064453125 201.469131469726562 0
302 205 100 298.2716064453125 201.469131469726562 0
225 168 0 220.538467407226562 165.415390014648438 0
225 178 0 220.538467407226562 165.415390014648438 0
225 178 100 220.538467407226562 165.415390014648438 0
225 168 100 220.538467407226562 165.415390014648438 0
669 500 0 651.39471435546875 485.84210205078125 0
659 500 0 651.39471435546875 485.84210205078125 0
659 500 100 651.39471435546875 485.84210205078125 0
669 500 100 651.39471435546875 485.84210205078125 0
467 538 0 465.47882080078125 537.24755859375 0
457 538 0 465.47882080078125 537.24755859375 0
457 538 100 465.47882080078125 537.24755859375 0
467 538 100 465.47882080078125 537.24755859375 0
492 335 0 483.06451416015625 329.596771240234375 0
492 325 0 483.06451416015625 329.596771240234375 0
492 325 100 483.06451416015625 329.596771240234375 0
492 335 100 483.06451416015625 329.596771240234375 0
554 335 0 546.06451416015625 329.596771240234375 0
554 325 0 546.06451416015625 329.596771240234375 0
554 325 100 546.06451416015625 329.596771240234375 0
554 335 100 546.06451416015625 329.596771240234375 0
421 268 0 412.579986572265625 263.6400146484375 0
411 268 0 412.579986572265625 263.6400146484375 0
411 268 100 412.579986572265625 263.6400146484375 0
421 268 100 412.579986572265625 263.6400146484375 0
421 218 0 412.579986572265625 212.639999389648438 0
411 218 0 412.579986572265625 212.639999389648438 0
411 218 100 412.579986572265625 212.639999389648438 0
421 218 100 412.579986572265625 212.639999389648438 0
240 168 0 234.636367797851562 164.945449829101562 0
240 178 0 234.636367797851562 164.945449829101562 0
240 178 100 234.636367797851562 164.945449829101562 0
240 168 100 234.636367797851562 164.945449829101562 0
538 231 0 531.42254638671875 227.746475219726562 0
538 221 0 531.42254638671875 227.746475219726562 0
538 221 100 531.42254638671875 227.746475219726562 0
538 231 100 531.42254638671875 227.746475219726562 0
309 275 0 303.05767822265625 270.7115478515625 0
299 275 0 303.05767822265625 270.7115478515625 0
299 275 100 303.05767822265625 270.7115478515625 0
309 275 100 303.05767822265625 270.7115478515625 0
309 223 0 303.05767822265625 217.711532592773438 0
299 223 0 303.05767822265625 217.711532592773438 0
299 223 100 303.05767822265625 217.711532592773438 0
309 223 100 303.05767822265625 217.711532592773438 0
354 449 0 339.888885498046875 432.370361328125 0
354 439 0 339.888885498046875 432.370361328125 0
354 439 100 339.888885498046875 432.370361328125 0
354 449 100 339.888885498046875 432.370361328125 0
381 449 0 367.888885498046875 432.370361328125 0
381 439 0 367.888885498046875 432.370361328125 0
381 439 100 367.888885498046875 432.370361328125 0
381 449 100 367.888885498046875 432.370361328125 0
174 320 0 171.851852416992188 317.04937744140625 0
164 320 0 171.851852416992188 317.04937744140625 0
164 320 100 171.851852416992188 317.04937744140625 0
174 320 100 171.851852416992188 317.04937744140625 0
174 239 0 171.851852416992188 235.04937744140625 0
164 239 0 171.851852416992188 235.04937744140625 0
164 239 100 171.851852416992188 235.04937744140625 0
174 239 100 171.851852416992188 235.04937744140625 0
358 444 0 353.93182373046875 439.954559326171875 0
348 444 0 353.93182373046875 439.954559326171875 0
348 444 100 353.93182373046875 439.954559326171875 0
358 444 100 353.93182373046875 439.954559326171875 0
358 356 0 353.93182373046875 350.954559326171875 0
348 356 0 353.93182373046875 350.954559326171875 0
348 356 100 353.93182373046875 350.954559326171875 0
358 356 100 353.93182373046875 350.954559326171875 0
564 210 0 557.3599853515625 207.899993896484375 0
564 200 0 557.3599853515625 207.899993896484375 0
564 200 100 557.3599853515625 207.899993896484375 0
564 210 100 557.3599853515625 207.899993896484375 0
664 210 0 658.3599853515625 207.899993896484375 0
664 200 0 658.3599853515625 207.899993896484375 0
664 200 100 658.3599853515625 207.899993896484375 0
664 210 100 658.3599853515625 207.899993896484375 0
557 330 0 550.81109619140625 327.333343505859375 0
547 330 0 550.81109619140625 327.333343505859375 0
547 330 100 550.81109619140625 327.333343505859375 0
557 330 100 550.81109619140625 327.333343505859375 0
557 240 0 550.81109619140625 236.333328247070312 0
547 240 0 550.81109619140625 236.333328247070312 0
547 240 100 550.81109619140625 236.333328247070312 0
557 240 100 550.81109619140625 236.333328247070312 0
457 62 0 439.423065185546875 60.6153831481933594 0
467 62 0 439.423065185546875 60.6153831481933594 0
467 62 100 439.423065185546875 60.6153831481933594 0
457 62 100 439.423065185546875 60.6153831481933594 0
297 312 0 294.25 310.111114501953125 0
287 312 0 294.25 310.111114501953125 0
287 312 100 294.25 310.111114501953125 0
297 312 100 294.25 310.111114501953125 0
297 204 0 294.25 201.111114501953125 0
287 204 0 294.25 201.111114501953125 0
287 204 100 294.25 201.111114501953125 0
297 204 100 294.25 201.111114501953125 0
415 268 0 410.4891357421875 266.086944580078125 0
425 268 0 410.4891357421875 266.086944580078125 0
425 268 100 410.4891357421875 266.086944580078125 0
415 268 100 410.4891357421875 266.086944580078125 0
528 330 0 517.84613037109375 324.653839111328125 0
518 330 0 517.84613037109375 324.653839111328125 0
518 330 100 517.84613037109375 324.653839111328125 0
528 330 100 517.84613037109375 324.653839111328125 0
528 278 0 517.84613037109375 271.653839111328125 0
518 278 0 517.84613037109375 271.653839111328125 0
518 278 100 517.84613037109375 271.653839111328125 0
528 278 100 517.84613037109375 271.653839111328125 0
293 287 0 289.383941650390625 284.4375 0
293 277 0 289.383941650390625 284.4375 0
293 277 100 289.383941650390625 284.4375 0
293 287 100 289.383941650390625 284.4375 0
405 287 0 402.383941650390625 284.4375 0
405 277 0 402.383941650390625 284.4375 0
405 277 100 402.383941650390625 284.4375 0
405 287 100 402.383941650390625 284.4375 0
467 179 0 0 0 -1
457 179 0 0 0 -1
457 36 0 0 0 -1
467 36 0 0 0 -1
467 179 100 0 0 1
457 179 100 0 0 1
457 36 100 0 0 1
467 36 100 0 0 1
457 36 0 0 0 -1
467 36 0 0 0 -1
467 361 0 0 0 -1
457 361 0 0 0 -1
457 36 100 0 0 1
467 36 100 0 0 1
467 361 100 0 0 1
457 361 100 0 0 1
457 36 0 0 0 -1
467 36 0 0 0 -1
467 326 0 0 0 -1
457 326 0 0 0 -1
457 36 100 0 0 1
467 36 100 0 0 1
467 326 100 0 0 1
457 326 100 0 0 1
457 36 0 0 0 -1
467 36 0 0 0 -1
467 62 0 0 0 -1
457 62 0 0 0 -1
457 36 100 0 0 1
467 36 100 0 0 1
467 62 100 0 0 1
457 62 100 0 0 1
669 538 0 0 0 -1
659 538 0 0 0 -1
659 294 0 0 0 -1
669 294 0 0 0 -1
669 538 100 0 0 1
659 538 100 0 0 1
659 294 100 0 0 1
669 294 100 0 0 1
669 538 0 0 0 -1
659 538 0 0 0 -1
659 500 0 0 0 -1
669 500 0 0 0 -1
669 538 100 0 0 1
659 538 100 0 0 1
659 500 100 0 0 1
669 500 100 0 0 1
295 323 0 0 0 -1
285 323 0 0 0 -1
285 178 0 0 0 -1
295 168 0 0 0 -1
295 323 100 0 0 1
285 323 100 0 0 1
285 178 100 0 0 1
295 168 100 0 0 1
290 168 0 0 0 -1
285 178 0 0 0 -1
225 178 0 0 0 -1
225 168 0 0 0 -1
290 168 100 0 0 1
285 178 100 0 0 1
225 178 100 0 0 1
225 168 100 0 0 1
295 168 0 0 0 -1
290 178 0 0 0 -1
240 178 0 0 0 -1
240 168 0 0 0 -1
295 168 100 0 0 1
290 178 100 0 0 1
240 178 100 0 0 1
240 168 100 0 0 1
669 241 0 0 0 -1
659 241 0 0 0 -1
659 62 0 0 0 -1
669 62 0 0 0 -1
669 241 100 0 0 1
659 241 100 0 0 1
659 62 100 0 0 1
669 62 100 0 0 1
174 444 0 0 0 -1
164 444 0 0 0 -1
164 227 0 0 0 -1
174 227 0 0 0 -1
174 444 100 0 0 1
164 444 100 0 0 1
164 227 100 0 0 1
174 227 100 0 0 1
174 444 0 0 0 -1
164 444 0 0 0 -1
164 313 0 0 0 -1
174 313 0 0 0 -1
174 444 100 0 0 1
164 444 100 0 0 1
164 313 100 0 0 1
174 313 100 0 0 1
465 538 0 0 0 -1
455 538 0 0 0 -1
455 309 0 0 0 -1
465 309 0 0 0 -1
465 538 100 0 0 1
455 538 100 0 0 1
455 309 100 0 0 1
465 309 100 0 0 1
425 319 0 0 0 -1
415 319 0 0 0 -1
415 176 0 0 0 -1
425 176 0 0 0 -1
425 319 100 0 0 1
415 319 100 0 0 1
415 176 100 0 0 1
425 176 100 0 0 1
415 176 0 0 0 -1
425 176 0 0 0 -1
425 268 0 0 0 -1
415 268 0 0 0 -1
415 176 100 0 0 1
425 176 100 0 0 1
425 268 100 0 0 1
415 268 100 0 0 1
465 332 0 0 0 -1
455 332 0 0 0 -1
455 142 0 0 0 -1
465 142 0 0 0 -1
465 332 100 0 0 1
455 332 100 0 0 1
455 142 100 0 0 1
465 142 100 0 0 1
465 332 0 0 0 -1
455 332 0 0 0 -1
455 273 0 0 0 -1
465 283 0 0 0 -1
465 332 100 0 0 1
455 332 100 0 0 1
455 273 100 0 0 1
465 283 100 0 0 1
462 337 0 0 0 -1
462 327 0 0 0 -1
665 327 0 0 0 -1
665 337 0 0 0 -1
462 337 100 0 0 1
462 327 100 0 0 1
665 327 100 0 0 1
665 337 100 0 0 1
665 327 0 0 0 -1
665 337 0 0 0 -1
492 337 0 0 0 -1
492 327 0 0 0 -1
665 327 100 0 0 1
665 337 100 0 0 1
492 337 100 0 0 1
492 327 100 0 0 1
415 41 0 0 0 -1
415 31 0 0 0 -1
522 31 0 0 0 -1
522 41 0 0 0 -1
415 41 100 0 0 1
415 31 100 0 0 1
522 31 100 0 0 1
522 41 100 0 0 1
465 283 0 0 0 -1
455 273 0 0 0 -1
552 273 0 0 0 -1
552 283 0 0 0 -1
465 283 100 0 0 1
455 273 100 0 0 1
552 273 100 0 0 1
552 283 100 0 0 1
302 286 0 0 0 -1
292 286 0 0 0 -1
292 205 0 0 0 -1
302 205 0 0 0 -1
302 286 100 0 0 1
292 286 100 0 0 1
292 205 100 0 0 1
302 205 100 0 0 1
467 538 0 0 0 -1
457 538 0 0 0 -1
457 221 0 0 0 -1
467 231 0 0 0 -1
467 538 100 0 0 1
457 538 100 0 0 1
457 221 100 0 0 1
467 231 100 0 0 1
467 231 0 0 0 -1
457 221 0 0 0 -1
538 221 0 0 0 -1
538 231 0 0 0 -1
467 231 100 0 0 1
457 221 100 0 0 1
538 221 100 0 0 1
538 231 100 0 0 1
492 335 0 0 0 -1
492 325 0 0 0 -1
554 325 0 0 0 -1
554 335 0 0 0 -1
492 335 100 0 0 1
492 325 100 0 0 1
554 325 100 0 0 1
554 335 100 0 0 1
421 268 0 0 0 -1
411 268 0 0 0 -1
411 218 0 0 0 -1
421 218 0 0 0 -1
421 268 100 0 0 1
411 268 100 0 0 1
411 218 100 0 0 1
421 218 100 0 0 1
309 275 0 0 0 -1
299 275 0 0 0 -1
299 223 0 0 0 -1
309 223 0 0 0 -1
309 275 100 0 0 1
299 275 100 0 0 1
299 223 100 0 0 1
309 223 100 0 0 1
354 449 0 0 0 -1
354 439 0 0 0 -1
381 439 0 0 0 -1
381 449 0 0 0 -1
354 449 100 0 0 1
354 439 100 0 0 1
381 439 100 0 0 1
381 449 100 0 0 1
174 320 0 0 0 -1
164 320 0 0 0 -1
164 239 0 0 0 -1
174 239 0 0 0 -1
174 320 100 0 0 1
164 320 100 0 0 1
164 239 100 0 0 1
174 239 100 0 0 1
358 444 0 0 0 -1
348 444 0 0 0 -1
348 356 0 0 0 -1
358 356 0 0 0 -1
358 444 100 0 0 1
348 444 100 0 0 1
348 356 100 0 0 1
358 356 100 0 0 1
564 210 0 0 0 -1
564 200 0 0 0 -1
664 200 0 0 0 -1
664 210 0 0 0 -1
564 210 100 0 0 1
564 200 100 0 0 1
664 200 100 0 0 1
664 210 100 0 0 1
557 330 0 0 0 -1
547 330 0 0 0 -1
547 240 0 0 0 -1
557 240 0 0 0 -1
557 330 100 0 0 1
547 330 100 0 0 1
547 240 100 0 0 1
557 240 100 0 0 1
297 312 0 0 0 -1
287 312 0 0 0 -1
287 204 0 0 0 -1
297 204 0 0 0 -1
297 312 100 0 0 1
287 312 100 0 0 1
287 204 100 0 0 1
297 204 100 0 0 1
528 330 0 0 0 -1
518 330 0 0 0 -1
518 278 0 0 0 -1
528 278 0 0 0 -1
528 330 100 0 0 1
518 330 100 0 0 1
518 278 100 0 0 1
528 278 100 0 0 1
293 287 0 0 0 -1
293 277 0 0 0 -1
405 277 0 0 0 -1
405 287 0 0 0 -1
293 287 100 0 0 1
293 277 100 0 0 1
405 277 100 0 0 1
405 287 100 0 0 1
285 178 0 0 0 -1
295 168 0 0 0 -1
285 178 100 0 0 1
295 168 100 0 0 1
4 0 1 2 3
4 4 5 6 7
4 8 9 10 11
4 12 13 14 15
4 16 17 18 19
4 20 21 22 23
4 24 25 26 27
4 28 29 30 31
4 32 33 34 35
4 36 37 38 39
4 40 41 42 43
4 44 45 46 47
4 48 49 50 51
4 52 53 54 55
4 56 57 58 59
4 60 61 62 63
4 64 65 66 67
4 68 69 70 71
4 72 73 74 75
4 76 77 78 79
4 80 81 82 83
4 84 85 86 87
4 88 89 90 91
4 92 93 94 95
4 96 97 98 99
4 100 101 102 103
4 104 105 106 107
4 108 109 110 111
4 112 113 114 115
4 116 117 118 119
4 120 121 122 123
4 124 125 126 127
4 128 129 130 131
4 132 133 134 135
4 136 137 138 139
4 140 141 142 143
4 144 145 146 147
4 148 149 150 151
4 152 153 154 155
4 156 157 158 159
4 160 161 162 163
4 164 165 166 167
4 168 169 170 171
4 172 173 174 175
4 176 177 178 179
4 180 181 182 183
4 184 185 186 187
4 188 189 190 191
4 192 193 194 195
4 196 197 198 199
4 200 201 202 203
4 204 205 206 207
4 208 209 210 211
4 212 213 214 215
4 216 217 218 219
4 220 221 222 223
4 224 225 226 227
4 228 229 230 231
4 232 233 234 235
4 236 237 238 239
4 240 241 242 243
4 244 245 246 247
4 248 249 250 251
4 252 253 254 255
4 256 257 258 259
4 260 261 262 263
4 264 265 266 267
4 268 269 270 271
4 272 273 274 275
4 276 277 278 279
4 280 281 282 283
4 284 285 286 287
4 288 289 290 291
4 292 293 294 295
4 296 297 298 299
4 300 301 302 303
4 304 305 306 307
4 308 309 310 311
4 312 313 314 315
4 316 317 318 319
4 320 321 322 323
4 324 325 326 327
4 328 329 330 331
4 332 333 334 335
4 336 337 338 339
4 340 341 342 343
4 344 345 346 347
4 348 349 350 351
4 352 353 354 355
4 356 357 358 359
4 360 361 362 363
4 364 365 366 367
4 368 369 370 371
4 372 373 374 375
4 376 377 378 379
4 380 381 382 383
4 384 385 386 387
4 388 389 390 391
4 392 393 394 395
4 396 397 398 399
4 400 401 402 403
4 404 405 406 407
4 408 409 410 411
4 412 413 414 415
4 416 417 418 419
4 420 421 422 423
4 424 425 426 427
4 428 429 430 431
4 432 433 434 435
4 436 437 438 439
4 440 441 442 443
4 444 445 446 447
4 448 449 450 451
4 452 453 454 455
4 456 457 458 459
4 460 461 462 463
4 464 465 466 467
4 468 469 470 471
4 472 473 474 475
4 476 477 478 479
4 480 481 482 483
4 484 485 486 487
4 488 489 490 491
4 492 493 494 495
4 496 497 498 499
4 500 501 502 503
4 504 505 506 507
4 508 509 510 511
4 512 513 514 515
4 516 517 518 519
4 520 521 522 523
4 524 525 526 527
4 528 529 530 531
4 532 533 534 535
4 536 537 538 539
4 540 541 542 543
4 544 545 546 547
4 548 549 550 551
4 552 553 554 555
4 556 557 558 559
4 560 561 562 563
4 564 565 566 567
4 568 569 570 571
4 572 573 574 575
4 576 577 578 579
4 580 581 582 583
4 584 585 586 587
4 588 589 590 591
4 592 593 594 595
4 596 597 598 599
4 600 601 602 603
4 604 605 606 607
4 608 609 610 611
4 612 613 614 615
4 616 617 618 619
4 620 621 622 623
4 624 625 626 627
4 628 629 630 631
4 632 633 634 635
4 636 637 638 639
4 640 641 642 643
4 644 645 646 647
4 648 649 650 651
4 652 653 654 655
4 656 657 658 659
4 660 661 662 663
4 664 665 666 667
4 668 669 670 671
4 672 673 674 675
4 676 677 678 679
4 680 681 682 683
4 684 685 686 687
4 688 689 690 691
4 692 693 694 695
4 696 697 698 699
4 700 701 702 703
4 704 705 706 707
4 708 709 710 711
4 712 713 714 715
4 716 717 718 719
4 720 721 722 723
4 724 725 726 727
4 728 729 730 731
4 732 733 734 735
4 736 737 738 739
4 740 741 742 743
4 744 745 746 747
4 748 749 750 751
4 752 753 754 755
