ply
format ascii 1.0
element vertex 584
property float x
property float y
property float z
property float nx
property float ny
property float nz
element quads 145
property list uchar int vertex_indices
end_header
751 547 0 1 0 0
751 474 0 1 0 0
751 474 100 1 0 0
751 547 100 1 0 0
741 537 0 -1 -0 0
741 474 0 -1 -0 0
741 474 100 -1 -0 0
741 537 100 -1 -0 0
741 537 0 -0 -1 0
634 537 0 -0 -1 0
634 537 100 -0 -1 0
741 537 100 -0 -1 0
751 547 0 0 1 0
634 547 0 0 1 0
634 547 100 0 1 0
751 547 100 0 1 0
403 453 0 1 0 0
403 338 0 1 0 0
403 338 100 1 0 0
403 453 100 1 0 0
393 453 0 -1 -0 0
393 338 0 -1 -0 0
393 338 100 -1 -0 0
393 453 100 -1 -0 0
591 192.804000854492188 0 -0.0399680398404598236 0.999200940132141113 0
741 198.804000854492188 0 -0.0399680398404598236 0.999200940132141113 0
741 198.804000854492188 100 -0.0399680398404598236 0.999200940132141113 0
591 192.804000854492188 100 -0.0399680398404598236 0.999200940132141113 0
601 183.195999145507812 0 0.0399680398404598236 -0.999200940132141113 0
751 189.195999145507812 0 0.0399680398404598236 -0.999200940132141113 0
751 189.195999145507812 100 0.0399680398404598236 -0.999200940132141113 0
601 183.195999145507812 100 0.0399680398404598236 -0.999200940132141113 0
601 183.195999145507812 0 1 0 0
601 156 0 1 0 0
601 156 100 1 0 0
601 183.195999145507812 100 1 0 0
591 192.804000854492188 0 -1 -0 0
591 156 0 -1 -0 0
591 156 100 -1 -0 0
591 192.804000854492188 100 -1 -0 0
741 194 0 -1 0 0
741 272 0 -1 0 0
741 272 100 -1 0 0
741 194 100 -1 0 0
751 189.195999145507812 0 1 -0 0
751 272 0 1 -0 0
751 272 100 1 -0 0
751 189.195999145507812 100 1 -0 0
741 198.804000854492188 0 -1 0 0
741 306 0 -1 0 0
741 306 100 -1 0 0
741 198.804000854492188 100 -1 0 0
751 194 0 1 -0 0
751 306 0 1 -0 0
751 306 100 1 -0 0
751 194 100 1 -0 0
531 315 0 1 0 0
531 284 0 1 0 0
531 284 100 1 0 0
531 315 100 1 0 0
521 315 0 -1 -0 0
521 284 0 -1 -0 0
521 284 100 -1 -0 0
521 315 100 -1 -0 0
173 410 0 1 0 0
173 306 0 1 0 0
173 306 100 1 0 0
173 410 100 1 0 0
163 410 0 -1 -0 0
163 306 0 -1 -0 0
163 306 100 -1 -0 0
163 410 100 -1 -0 0
173 410 0 1 0 0
173 326 0 1 0 0
173 326 100 1 0 0
173 410 100 1 0 0
163 410 0 -1 -0 0
163 326 0 -1 -0 0
163 326 100 -1 -0 0
163 410 100 -1 -0 0
426 203 0 1 0 0
426 140 0 1 0 0
426 140 100 1 0 0
426 203 100 1 0 0
416 203 0 -1 -0 0
416 140 0 -1 -0 0
416 140 100 -1 -0 0
416 203 100 -1 -0 0
426 203 0 1 0 0
426 151 0 1 0 0
426 151 100 1 0 0
426 203 100 1 0 0
416 203 0 -1 -0 0
416 151 0 -1 -0 0
416 151 100 -1 -0 0
416 203 100 -1 -0 0
526 522 0 -0 1 0
640 522 0 -0 1 0
640 522 100 -0 1 0
526 522 100 -0 1 0
526 512 0 0 -1 0
640 512 0 0 -1 0
640 512 100 0 -1 0
526 512 100 0 -1 0
526 522 0 -0 1 0
559 522 0 -0 1 0
559 522 100 -0 1 0
526 522 100 -0 1 0
526 512 0 0 -1 0
559 512 0 0 -1 0
559 512 100 0 -1 0
526 512 100 0 -1 0
640 512 0 -0 -1 0
610 512 0 -0 -1 0
610 512 100 -0 -1 0
640 512 100 -0 -1 0
640 522 0 0 1 0
610 522 0 0 1 0
610 522 100 0 1 0
640 522 100 0 1 0
526 290 0 -0 1 0
596 290 0 -0 1 0
596 290 100 -0 1 0
526 290 100 -0 1 0
526 280 0 0 -1 0
596 280 0 0 -1 0
596 280 100 0 -1 0
526 280 100 0 -1 0
651 269 0 1 0 0
651 194 0 1 0 0
651 194 100 1 0 0
651 269 100 1 0 0
641 269 0 -1 -0 0
641 194 0 -1 -0 0
641 194 100 -1 -0 0
641 269 100 -1 -0 0
591 156 0 -1 0 0
591 215 0 -1 0 0
591 215 100 -1 0 0
591 156 100 -1 0 0
601 156 0 1 -0 0
601 215 0 1 -0 0
601 215 100 1 -0 0
601 156 100 1 -0 0
372 46 0 -0 1 0
424 46 0 -0 1 0
424 46 100 -0 1 0
372 46 100 -0 1 0
372 36 0 0 -1 0
424 36 0 0 -1 0
424 36 100 0 -1 0
372 36 100 0 -1 0
301 405 0 1 0 0
301 338 0 1 0 0
301 338 100 1 0 0
301 405 100 1 0 0
291 405 0 -1 -0 0
291 338 0 -1 -0 0
291 338 100 -1 -0 0
291 405 100 -1 -0 0
71 260 0 1 0 0
71 36 0 1 0 0
71 36 100 1 0 0
71 260 100 1 0 0
61 260 0 -1 -0 0
61 36 0 -1 -0 0
61 36 100 -1 -0 0
61 260 100 -1 -0 0
230 46 0 -0 1 0
304 46 0 -0 1 0
304 46 100 -0 1 0
230 46 100 -0 1 0
230 36 0 0 -1 0
304 36 0 0 -1 0
304 36 100 0 -1 0
230 36 100 0 -1 0
259 232 0 1 0 0
259 108 0 1 0 0
259 108 100 1 0 0
259 232 100 1 0 0
249 232 0 -1 -0 0
249 108 0 -1 -0 0
249 108 100 -1 -0 0
249 232 100 -1 -0 0
69 388 0 1 0 0
69 322 0 1 0 0
69 322 100 1 0 0
69 388 100 1 0 0
59 388 0 -1 -0 0
59 322 0 -1 -0 0
59 322 100 -1 -0 0
59 388 100 -1 -0 0
240 160 0 1 0 0
240 108 0 1 0 0
240 108 100 1 0 0
240 160 100 1 0 0
230 160 0 -1 -0 0
230 108 0 -1 -0 0
230 108 100 -1 -0 0
230 160 100 -1 -0 0
199 447 0 -0 1 0
259 447 0 -0 1 0
259 447 100 -0 1 0
199 447 100 -0 1 0
199 437 0 0 -1 0
259 437 0 0 -1 0
259 437 100 0 -1 0
199 437 100 0 -1 0
251 169 0 1 0 0
251 108 0 1 0 0
251 108 100 1 0 0
251 169 100 1 0 0
241 169 0 -1 -0 0
241 108 0 -1 -0 0
241 108 100 -1 -0 0
241 169 100 -1 -0 0
751 474 0 740.71234130859375 466.5068359375 0
741 474 0 740.71234130859375 466.5068359375 0
741 474 100 740.71234130859375 466.5068359375 0
751 474 100 740.71234130859375 466.5068359375 0
403 453 0 399.49566650390625 450.060882568359375 0
393 453 0 399.49566650390625 450.060882568359375 0
393 453 100 399.49566650390625 450.060882568359375 0
403 453 100 399.49566650390625 450.060882568359375 0
403 338 0 399.49566650390625 334.060882568359375 0
393 338 0 399.49566650390625 334.060882568359375 0
393 338 100 399.49566650390625 334.060882568359375 0
403 338 100 399.49566650390625 334.060882568359375 0
531 315 0 513.8709716796875 305.838714599609375 0
521 315 0 513.8709716796875 305.838714599609375 0
521 315 100 513.8709716796875 305.838714599609375 0
531 315 100 513.8709716796875 305.838714599609375 0
531 284 0 513.8709716796875 273.838714599609375 0
521 284 0 513.8709716796875 273.838714599609375 0
521 284 100 513.8709716796875 273.838714599609375 0
531 284 100 513.8709716796875 273.838714599609375 0
173 306 0 171.336532592773438 302.05767822265625 0
163 306 0 171.336532592773438 302.05767822265625 0
163 306 100 171.336532592773438 302.05767822265625 0
173 306 100 171.336532592773438 302.05767822265625 0
426 140 0 419.23809814453125 136.77777099609375 0
416 140 0 419.23809814453125 136.77777099609375 0
416 140 100 419.23809814453125 136.77777099609375 0
426 140 100 419.23809814453125 136.77777099609375 0
426 151 0 417.80767822265625 147.096160888671875 0
416 151 0 417.80767822265625 147.096160888671875 0
416 151 100 417.80767822265625 147.096160888671875 0
426 151 100 417.80767822265625 147.096160888671875 0
526 290 0 517.4857177734375 285.857147216796875 0
526 280 0 517.4857177734375 285.857147216796875 0
526 280 100 517.4857177734375 285.857147216796875 0
526 290 100 517.4857177734375 285.857147216796875 0
596 290 0 588.4857177734375 285.857147216796875 0
596 280 0 588.4857177734375 285.857147216796875 0
596 280 100 588.4857177734375 285.857147216796875 0
596 290 100 588.4857177734375 285.857147216796875 0
651 269 0 642.32000732421875 266.413330078125 0
641 269 0 642.32000732421875 266.413330078125 0
641 269 100 642.32000732421875 266.413330078125 0
651 269 100 642.32000732421875 266.413330078125 0
651 194 0 642.32000732421875 190.413330078125 0
641 194 0 642.32000732421875 190.413330078125 0
641 194 100 642.32000732421875 190.413330078125 0
651 194 100 642.32000732421875 190.413330078125 0
173 326 0 170.940475463867188 321.119049072265625 0
163 326 0 170.940475463867188 321.119049072265625 0
163 326 100 170.940475463867188 321.119049072265625 0
173 326 100 170.940475463867188 321.119049072265625 0
741 272 0 731.5 269.5128173828125 0
751 272 0 731.5 269.5128173828125 0
751 272 100 731.5 269.5128173828125 0
741 272 100 731.5 269.5128173828125 0
372 46 0 363.846160888671875 45.1153831481933594 0
372 36 0 363.846160888671875 45.1153831481933594 0
372 36 100 363.846160888671875 45.1153831481933594 0
372 46 100 363.846160888671875 45.1153831481933594 0
424 46 0 416.846160888671875 45.1153831481933594 0
424 36 0 416.846160888671875 45.1153831481933594 0
424 36 100 416.846160888671875 45.1153831481933594 0
424 46 100 416.846160888671875 45.1153831481933594 0
301 405 0 296.507476806640625 399.955230712890625 0
291 405 0 296.507476806640625 399.955230712890625 0
291 405 100 296.507476806640625 399.955230712890625 0
301 405 100 296.507476806640625 399.955230712890625 0
301 338 0 296.507476806640625 331.955230712890625 0
291 338 0 296.507476806640625 331.955230712890625 0
291 338 100 296.507476806640625 331.955230712890625 0
301 338 100 296.507476806640625 331.955230712890625 0
71 260 0 70.6830368041992188 259.83929443359375 0
61 260 0 70.6830368041992188 259.83929443359375 0
61 260 100 70.6830368041992188 259.83929443359375 0
71 260 100 70.6830368041992188 259.83929443359375 0
71 36 0 70.6830368041992188 34.8392868041992188 0
61 36 0 70.6830368041992188 34.8392868041992188 0
61 36 100 70.6830368041992188 34.8392868041992188 0
71 36 100 70.6830368041992188 34.8392868041992188 0
230 46 0 225.891891479492188 45.3783798217773438 0
230 36 0 225.891891479492188 45.3783798217773438 0
230 36 100 225.891891479492188 45.3783798217773438 0
230 46 100 225.891891479492188 45.3783798217773438 0
304 46 0 300.89190673828125 45.3783798217773438 0
304 36 0 300.89190673828125 45.3783798217773438 0
304 36 100 300.89190673828125 45.3783798217773438 0
304 46 100 300.89190673828125 45.3783798217773438 0
259 232 0 256.911285400390625 231.1290283203125 0
249 232 0 256.911285400390625 231.1290283203125 0
249 232 100 256.911285400390625 231.1290283203125 0
259 232 100 256.911285400390625 231.1290283203125 0
259 108 0 256.911285400390625 106.129035949707031 0
249 108 0 256.911285400390625 106.129035949707031 0
249 108 100 256.911285400390625 106.129035949707031 0
259 108 100 256.911285400390625 106.129035949707031 0
634 537 0 627.07476806640625 531.9813232421875 0
634 547 0 627.07476806640625 531.9813232421875 0
634 547 100 627.07476806640625 531.9813232421875 0
634 537 100 627.07476806640625 531.9813232421875 0
559 522 0 543.06060791015625 506.18182373046875 0
559 512 0 543.06060791015625 506.18182373046875 0
559 512 100 543.06060791015625 506.18182373046875 0
559 522 100 543.06060791015625 506.18182373046875 0
741 306 0 734.08740234375 304.145416259765625 0
751 306 0 734.08740234375 304.145416259765625 0
751 306 100 734.08740234375 304.145416259765625 0
741 306 100 734.08740234375 304.145416259765625 0
610 512 0 588.66668701171875 494.933319091796875 0
610 522 0 588.66668701171875 494.933319091796875 0
610 522 100 588.66668701171875 494.933319091796875 0
610 512 100 588.66668701171875 494.933319091796875 0
69 388 0 67.9545440673828125 383.1212158203125 0
59 388 0 67.9545440673828125 383.1212158203125 0
59 388 100 67.9545440673828125 383.1212158203125 0
69 388 100 67.9545440673828125 383.1212158203125 0
69 322 0 67.9545440673828125 316.1212158203125 0
59 322 0 67.9545440673828125 316.1212158203125 0
59 322 100 67.9545440673828125 316.1212158203125 0
69 322 100 67.9545440673828125 316.1212158203125 0
240 160 0 235.384613037109375 157.923080444335938 0
230 160 0 235.384613037109375 157.923080444335938 0
230 160 100 235.384613037109375 157.923080444335938 0
240 160 100 235.384613037109375 157.923080444335938 0
240 108 0 235.384613037109375 104.923080444335938 0
230 108 0 235.384613037109375 104.923080444335938 0
230 108 100 235.384613037109375 104.923080444335938 0
240 108 100 235.384613037109375 104.923080444335938 0
591 215 0 580.9830322265625 212.355926513671875 0
601 215 0 580.9830322265625 212.355926513671875 0
601 215 100 580.9830322265625 212.355926513671875 0
591 215 100 580.9830322265625 212.355926513671875 0
199 447 0 194.683334350585938 439.54998779296875 0
199 437 0 194.683334350585938 439.54998779296875 0
199 437 100 194.683334350585938 439.54998779296875 0
199 447 100 194.683334350585938 439.54998779296875 0
259 447 0 255.683334350585938 439.54998779296875 0
259 437 0 255.683334350585938 439.54998779296875 0
259 437 100 255.683334350585938 439.54998779296875 0
259 447 100 255.683334350585938 439.54998779296875 0
251 169 0 246.885238647460938 167.229507446289062 0
241 169 0 246.885238647460938 167.229507446289062 0
241 169 100 246.885238647460938 167.229507446289062 0
251 169 100 246.885238647460938 167.229507446289062 0
251 108 0 246.885238647460938 105.229507446289062 0
241 108 0 246.885238647460938 105.229507446289062 0
241 108 100 246.885238647460938 105.229507446289062 0
251 108 100 246.885238647460938 105.229507446289062 0
751 547 0 0 0 -1
741 537 0 0 0 -1
741 474 0 0 0 -1
751 474 0 0 0 -1
751 547 100 0 0 1
741 537 100 0 0 1
741 474 100 0 0 1
751 474 100 0 0 1
741 537 0 0 0 -1
751 547 0 0 0 -1
634 547 0 0 0 -1
634 537 0 0 0 -1
741 537 100 0 0 1
751 547 100 0 0 1
634 547 100 0 0 1
634 537 100 0 0 1
403 453 0 0 0 -1
393 453 0 0 0 -1
393 338 0 0 0 -1
403 338 0 0 0 -1
403 453 100 0 0 1
393 453 100 0 0 1
393 338 100 0 0 1
403 338 100 0 0 1
591 192.804000854492188 0 0 0 -1
601 183.195999145507812 0 0 0 -1
751 189.195999145507812 0 0 0 -1
741 198.804000854492188 0 0 0 -1
591 192.804000854492188 100 0 0 1
601 183.195999145507812 100 0 0 1
751 189.195999145507812 100 0 0 1
741 198.804000854492188 100 0 0 1
601 183.195999145507812 0 0 0 -1
591 192.804000854492188 0 0 0 -1
591 156 0 0 0 -1
601 156 0 0 0 -1
601 183.195999145507812 100 0 0 1
591 192.804000854492188 100 0 0 1
591 156 100 0 0 1
601 156 100 0 0 1
741 194 0 0 0 -1
751 189.195999145507812 0 0 0 -1
751 272 0 0 0 -1
741 272 0 0 0 -1
741 194 100 0 0 1
751 189.195999145507812 100 0 0 1
751 272 100 0 0 1
741 272 100 0 0 1
741 198.804000854492188 0 0 0 -1
751 194 0 0 0 -1
751 306 0 0 0 -1
741 306 0 0 0 -1
741 198.804000854492188 100 0 0 1
751 194 100 0 0 1
751 306 100 0 0 1
741 306 100 0 0 1
531 315 0 0 0 -1
521 315 0 0 0 -1
521 284 0 0 0 -1
531 284 0 0 0 -1
531 315 100 0 0 1
521 315 100 0 0 1
521 284 100 0 0 1
531 284 100 0 0 1
173 410 0 0 0 -1
163 410 0 0 0 -1
163 306 0 0 0 -1
173 306 0 0 0 -1
173 410 100 0 0 1
163 410 100 0 0 1
163 306 100 0 0 1
173 306 100 0 0 1
173 410 0 0 0 -1
163 410 0 0 0 -1
163 326 0 0 0 -1
173 326 0 0 0 -1
173 410 100 0 0 1
163 410 100 0 0 1
163 326 100 0 0 1
173 326 100 0 0 1
426 203 0 0 0 -1
416 203 0 0 0 -1
416 140 0 0 0 -1
426 140 0 0 0 -1
426 203 100 0 0 1
416 203 100 0 0 1
416 140 100 0 0 1
426 140 100 0 0 1
426 203 0 0 0 -1
416 203 0 0 0 -1
416 151 0 0 0 -1
426 151 0 0 0 -1
426 203 100 0 0 1
416 203 100 0 0 1
416 151 100 0 0 1
426 151 100 0 0 1
526 522 0 0 0 -1
526 512 0 0 0 -1
640 512 0 0 0 -1
640 522 0 0 0 -1
526 522 100 0 0 1
526 512 100 0 0 1
640 512 100 0 0 1
640 522 100 0 0 1
526 522 0 0 0 -1
526 512 0 0 0 -1
559 512 0 0 0 -1
559 522 0 0 0 -1
526 522 100 0 0 1
526 512 100 0 0 1
559 512 100 0 0 1
559 522 100 0 0 1
640 512 0 0 0 -1
640 522 0 0 0 -1
610 522 0 0 0 -1
610 512 0 0 0 -1
640 512 100 0 0 1
640 522 100 0 0 1
610 522 100 0 0 1
610 512 100 0 0 1
526 290 0 0 0 -1
526 280 0 0 0 -1
596 280 0 0 0 -1
596 290 0 0 0 -1
526 290 100 0 0 1
526 280 100 0 0 1
596 280 100 0 0 1
596 290 100 0 0 1
651 269 0 0 0 -1
641 269 0 0 0 -1
641 194 0 0 0 -1
651 194 0 0 0 -1
651 269 100 0 0 1
641 269 100 0 0 1
641 194 100 0 0 1
651 194 100 0 0 1
591 156 0 0 0 -1
601 156 0 0 0 -1
601 215 0 0 0 -1
591 215 0 0 0 -1
591 156 100 0 0 1
601 156 100 0 0 1
601 215 100 0 0 1
591 215 100 0 0 1
372 46 0 0 0 -1
372 36 0 0 0 -1
424 36 0 0 0 -1
424 46 0 0 0 -1
372 46 100 0 0 1
372 36 100 0 0 1
424 36 100 0 0 1
424 46 100 0 0 1
301 405 0 0 0 -1
291 405 0 0 0 -1
291 338 0 0 0 -1
301 338 0 0 0 -1
301 405 100 0 0 1
291 405 100 0 0 1
291 338 100 0 0 1
301 338 100 0 0 1
71 260 0 0 0 -1
61 260 0 0 0 -1
61 36 0 0 0 -1
71 36 0 0 0 -1
71 260 100 0 0 1
61 260 100 0 0 1
61 36 100 0 0 1
71 36 100 0 0 1
230 46 0 0 0 -1
230 36 0 0 0 -1
304 36 0 0 0 -1
304 46 0 0 0 -1
230 46 100 0 0 1
230 36 100 0 0 1
304 36 100 0 0 1
304 46 100 0 0 1
259 232 0 0 0 -1
249 232 0 0 0 -1
249 108 0 0 0 -1
259 108 0 0 0 -1
259 232 100 0 0 1
249 232 100 0 0 1
249 108 100 0 0 1
259 108 100 0 0 1
69 388 0 0 0 -1
59 388 0 0 0 -1
59 322 0 0 0 -1
69 322 0 0 0 -1
69 388 100 0 0 1
59 388 100 0 0 1
59 322 100 0 0 1
69 322 100 0 0 1
240 160 0 0 0 -1
230 160 0 0 0 -1
230 108 0 0 0 -1
240 108 0 0 0 -1
240 160 100 0 0 1
230 160 100 0 0 1
230 108 100 0 0 1
240 108 100 0 0 1
199 447 0 0 0 -1
199 437 0 0 0 -1
259 437 0 0 0 -1
259 447 0 0 0 -1
199 447 100 0 0 1
199 437 100 0 0 1
259 437 100 0 0 1
259 447 100 0 0 1
251 169 0 0 0 -1
241 169 0 0 0 -1
241 108 0 0 0 -1
251 108 0 0 0 -1
251 169 100 0 0 1
241 169 100 0 0 1
241 108 100 0 0 1
251 108 100 0 0 1
751 189.195999145507812 0 0 0 -1
741 198.804000854492188 0 0 0 -1
751 189.195999145507812 100 0 0 1
741 198.804000854492188 100 0 0 1
4 0 1 2 3
4 4 5 6 7
4 8 9 10 11
4 12 13 14 15
4 16 17 18 19
4 20 21 22 23
4 24 25 26 27
4 28 29 30 31
4 32 33 34 35
4 36 37 38 39
4 40 41 42 43
4 44 45 46 47
4 48 49 50 51
4 52 53 54 55
4 56 57 58 59
4 60 61 62 63
4 64 65 66 67
4 68 69 70 71
4 72 73 74 75
4 76 77 78 79
4 80 81 82 83
4 84 85 86 87
4 88 89 90 91
4 92 93 94 95
4 96 97 98 99
4 100 101 102 103
4 104 105 106 107
4 108 109 110 111
4 112 113 114 115
4 116 117 118 119
4 120 121 122 123
4 124 125 126 127
4 128 129 130 131
4 132 133 134 135
4 136 137 138 139
4 140 141 142 143
4 144 145 146 147
4 148 149 150 151
4 152 153 154 155
4 156 157 158 159
4 160 161 162 163
4 164 165 166 167
4 168 169 170 171
4 172 173 174 175
4 176 177 178 179
4 180 181 182 183
4 184 185 186 187
4 188 189 190 191
4 192 193 194 195
4 196 197 198 199
4 200 201 202 203
4 204 205 206 207
4 208 209 210 211
4 212 213 214 215
4 216 217 218 219
4 220 221 222 223
4 224 225 226 227
4 228 229 230 231
4 232 233 234 235
4 236 237 238 239
4 240 241 242 243
4 244 245 246 247
4 248 249 250 251
4 252 253 254 255
4 256 257 258 259
4 260 261 262 263
4 264 265 266 267
4 268 269 270 271
4 272 273 274 275
4 276 277 278 279
4 280 281 282 283
4 284 285 286 287
4 288 289 290 291
4 292 293 294 295
4 296 297 298 299
4 300 301 302 303
4 304 305 306 307
4 308 309 310 311
4 312 313 314 315
4 316 317 318 319
4 320 321 322 323
4 324 325 326 327
4 328 329 330 331
4 332 333 334 335
4 336 337 338 339
4 340 341 342 343
4 344 345 346 347
4 348 349 350 351
4 352 353 354 355
4 356 357 358 359
4 360 361 362 363
4 364 365 366 367
4 368 369 370 371
4 372 373 374 375
4 376 377 378 379
4 380 381 382 383
4 384 385 386 387
4 388 389 390 391
4 392 393 394 395
4 396 397 398 399
4 400 401 402 403
4 404 405 406 407
4 408 409 410 411
4 412 413 414 415
4 416 417 418 419
4 420 421 422 423
4 424 425 426 427
4 428 429 430 431
4 432 433 434 435
4 436 437 438 439
4 440 441 442 443
4 444 445 446 447
4 448 449 450 451
4 452 453 454 455
4 456 457 458 459
4 460 461 462 463
4 464 465 466 467
4 468 469 470 471
4 472 473 474 475
4 476 477 478 479
4 480 481 482 483
4 484 485 486 487
4 488 489 490 491
4 492 493 494 495
4 496 497 498 499
4 500 501 502 503
4 504 505 506 507
4 508 509 510 511
4 512 513 514 515
4 516 517 518 519
4 520 521 522 523
4 524 525 526 527
4 528 529 530 531
4 532 533 534 535
4 536 537 538 539
4 540 541 542 543
4 544 545 546 547
4 548 549 550 551
4 552 553 554 555
4 556 557 558 559
4 560 561 562 563
4 564 565 566 567
4 568 569 570 571
4 572 573 574 575
4 576 577 578 579
