ply
format ascii 1.0
element vertex 748
property float x
property float y
property float z
property float nx
property float ny
property float nz
element quads 186
property list uchar int vertex_indices
end_header
479 228 0 1 0 0
479 140 0 1 0 0
479 140 100 1 0 0
479 228 100 1 0 0
469 228 0 -1 -0 0
469 140 0 -1 -0 0
469 140 100 -1 -0 0
469 228 100 -1 -0 0
404 21 0 -0 1 0
693 21 0 -0 1 0
693 21 100 -0 1 0
404 21 100 -0 1 0
404 11 0 0 -1 0
698 11 0 0 -1 0
698 11 100 0 -1 0
404 11 100 0 -1 0
703 11 0 -0 -1 0
482 11 0 -0 -1 0
482 11 100 -0 -1 0
703 11 100 -0 -1 0
698 21 0 0 1 0
482 21 0 0 1 0
482 21 100 0 1 0
698 21 100 0 1 0
693 21 0 -1 0 0
693 93 0 -1 0 0
693 93 100 -1 0 0
693 21 100 -1 0 0
703 11 0 1 -0 0
703 93 0 1 -0 0
703 93 100 1 -0 0
703 11 100 1 -0 0
137 284 0 1 0 0
137 14 0 1 0 0
137 14 100 1 0 0
137 284 100 1 0 0
127 284 0 -1 -0 0
127 14 0 -1 -0 0
127 14 100 -1 -0 0
127 284 100 -1 -0 0
474 227 0 -0 1 0
694 227 0 -0 1 0
694 227 100 -0 1 0
474 227 100 -0 1 0
474 217 0 0 -1 0
694 217 0 0 -1 0
694 217 100 0 -1 0
474 217 100 0 -1 0
694 217 0 -0 -1 0
542 217 0 -0 -1 0
542 217 100 -0 -1 0
694 217 100 -0 -1 0
694 227 0 0 1 0
542 227 0 0 1 0
542 227 100 0 1 0
694 227 100 0 1 0
703 191 0 1 0 0
703 162 0 1 0 0
703 162 100 1 0 0
703 191 100 1 0 0
693 191 0 -1 -0 0
693 162 0 -1 -0 0
693 162 100 -1 -0 0
693 191 100 -1 -0 0
329 149 0 -0 1 0
413 149 0 -0 1 0
413 149 100 -0 1 0
329 149 100 -0 1 0
329 139 0 0 -1 0
413 139 0 0 -1 0
413 139 100 0 -1 0
329 139 100 0 -1 0
331 96 0 1 0 0
331 12 0 1 0 0
331 12 100 1 0 0
331 96 100 1 0 0
321 96 0 -1 -0 0
321 12 0 -1 -0 0
321 12 100 -1 -0 0
321 96 100 -1 -0 0
321 12 0 -1 0 0
321 53 0 -1 0 0
321 53 100 -1 0 0
321 12 100 -1 0 0
331 12 0 1 -0 0
331 53 0 1 -0 0
331 53 100 1 -0 0
331 12 100 1 -0 0
321 12 0 -1 0 0
321 161 0 -1 0 0
321 161 100 -1 0 0
321 12 100 -1 0 0
331 12 0 1 -0 0
331 161 0 1 -0 0
331 161 100 1 -0 0
331 12 100 1 -0 0
155 20 0 -0 1 0
336 20 0 -0 1 0
336 20 100 -0 1 0
155 20 100 -0 1 0
155 10 0 0 -1 0
336 10 0 0 -1 0
336 10 100 0 -1 0
155 10 100 0 -1 0
336 10 0 -0 -1 0
132 10 0 -0 -1 0
132 10 100 -0 -1 0
336 10 100 -0 -1 0
336 20 0 0 1 0
132 20 0 0 1 0
132 20 100 0 1 0
336 20 100 0 1 0
479 128 0 1 0 0
479 76 0 1 0 0
479 76 100 1 0 0
479 128 100 1 0 0
469 128 0 -1 -0 0
469 76 0 -1 -0 0
469 76 100 -1 -0 0
469 128 100 -1 -0 0
642 188 0 -0 1 0
694 188 0 -0 1 0
694 188 100 -0 1 0
642 188 100 -0 1 0
642 178 0 0 -1 0
694 178 0 0 -1 0
694 178 100 0 -1 0
642 178 100 0 -1 0
320 20 0 -0 1 0
404 20 0 -0 1 0
404 20 100 -0 1 0
320 20 100 -0 1 0
320 10 0 0 -1 0
404 10 0 0 -1 0
404 10 100 0 -1 0
320 10 100 0 -1 0
404 20 0 -0 1 0
434 20 0 -0 1 0
434 20 100 -0 1 0
404 20 100 -0 1 0
404 10 0 0 -1 0
434 10 0 0 -1 0
434 10 100 0 -1 0
404 10 100 0 -1 0
548 224 0 1 0 0
548 172 0 1 0 0
548 172 100 1 0 0
548 224 100 1 0 0
538 224 0 -1 -0 0
538 172 0 -1 -0 0
538 172 100 -1 -0 0
538 224 100 -1 -0 0
548 224 0 1 0 0
548 76 0 1 0 0
548 76 100 1 0 0
548 224 100 1 0 0
538 224 0 -1 -0 0
538 76 0 -1 -0 0
538 76 100 -1 -0 0
538 224 100 -1 -0 0
542 227 0 -0 1 0
646 227 0 -0 1 0
646 227 100 -0 1 0
542 227 100 -0 1 0
542 217 0 0 -1 0
646 217 0 0 -1 0
646 217 100 0 -1 0
542 217 100 0 -1 0
611 467 0 -0 1 0
696 467 0 -0 1 0
696 467 100 -0 1 0
611 467 100 -0 1 0
611 457 0 0 -1 0
696 457 0 0 -1 0
696 457 100 0 -1 0
611 457 100 0 -1 0
423 60 0 1 0 0
423 14 0 1 0 0
423 14 100 1 0 0
423 60 100 1 0 0
413 60 0 -1 -0 0
413 14 0 -1 -0 0
413 14 100 -1 -0 0
413 60 100 -1 -0 0
542 225 0 -0 1 0
595 225 0 -0 1 0
595 225 100 -0 1 0
542 225 100 -0 1 0
542 215 0 0 -1 0
595 215 0 0 -1 0
595 215 100 0 -1 0
542 215 100 0 -1 0
476 465 0 -0 1 0
499 465 0 -0 1 0
499 465 100 -0 1 0
476 465 100 -0 1 0
476 455 0 0 -1 0
499 455 0 0 -1 0
499 455 100 0 -1 0
476 455 100 0 -1 0
476 465 0 -0 1 0
562 465 0 -0 1 0
562 465 100 -0 1 0
476 465 100 -0 1 0
476 455 0 0 -1 0
562 455 0 0 -1 0
562 455 100 0 -1 0
476 455 100 0 -1 0
210 228 0 1 0 0
210 191 0 1 0 0
210 191 100 1 0 0
210 228 100 1 0 0
200 228 0 -1 -0 0
200 191 0 -1 -0 0
200 191 100 -1 -0 0
200 228 100 -1 -0 0
427 288 0 -0 1 0
472 288 0 -0 1 0
472 288 100 -0 1 0
427 288 100 -0 1 0
427 278 0 0 -1 0
472 278 0 0 -1 0
472 278 100 0 -1 0
427 278 100 0 -1 0
315 288 0 -0 1 0
379 288 0 -0 1 0
379 288 100 -0 1 0
315 288 100 -0 1 0
315 278 0 0 -1 0
379 278 0 0 -1 0
379 278 100 0 -1 0
315 278 100 0 -1 0
479 460 0 1 0 0
479 277 0 1 0 0
479 277 100 1 0 0
479 460 100 1 0 0
469 460 0 -1 -0 0
469 277 0 -1 -0 0
469 277 100 -1 -0 0
469 460 100 -1 -0 0
345 185 0 -0 1 0
414 185 0 -0 1 0
414 185 100 -0 1 0
345 185 100 -0 1 0
345 175 0 0 -1 0
414 175 0 0 -1 0
414 175 100 0 -1 0
345 175 100 0 -1 0
319 412 0 1 0 0
319 251 0 1 0 0
319 251 100 1 0 0
319 412 100 1 0 0
309 412 0 -1 -0 0
309 251 0 -1 -0 0
309 251 100 -1 -0 0
309 412 100 -1 -0 0
133 234 0 -0 1 0
255 234 0 -0 1 0
255 234 100 -0 1 0
133 234 100 -0 1 0
133 224 0 0 -1 0
255 224 0 0 -1 0
255 224 100 0 -1 0
133 224 100 0 -1 0
255 414 0 -0 1 0
360 414 0 -0 1 0
360 414 100 -0 1 0
255 414 100 -0 1 0
255 404 0 0 -1 0
360 404 0 0 -1 0
360 404 100 0 -1 0
255 404 100 0 -1 0
479 228 0 473.55682373046875 226.409088134765625 0
469 228 0 473.55682373046875 226.409088134765625 0
469 228 100 473.55682373046875 226.409088134765625 0
479 228 100 473.55682373046875 226.409088134765625 0
479 140 0 473.55682373046875 137.409088134765625 0
469 140 0 473.55682373046875 137.409088134765625 0
469 140 100 473.55682373046875 137.409088134765625 0
479 140 100 473.55682373046875 137.409088134765625 0
404 21 0 401.602081298828125 20.9273357391357422 0
404 11 0 401.602081298828125 20.9273357391357422 0
404 11 100 401.602081298828125 20.9273357391357422 0
404 21 100 401.602081298828125 20.9273357391357422 0
137 284 0 136.492599487304688 283.948150634765625 0
127 284 0 136.492599487304688 283.948150634765625 0
127 284 100 136.492599487304688 283.948150634765625 0
137 284 100 136.492599487304688 283.948150634765625 0
137 14 0 136.492599487304688 12.9481477737426758 0
127 14 0 136.492599487304688 12.9481477737426758 0
127 14 100 136.492599487304688 12.9481477737426758 0
137 14 100 136.492599487304688 12.9481477737426758 0
482 11 0 478.819000244140625 10.950225830078125 0
482 21 0 478.819000244140625 10.950225830078125 0
482 21 100 478.819000244140625 10.950225830078125 0
482 11 100 478.819000244140625 10.950225830078125 0
474 227 0 470.845458984375 225.968185424804688 0
474 217 0 470.845458984375 225.968185424804688 0
474 217 100 470.845458984375 225.968185424804688 0
474 227 100 470.845458984375 225.968185424804688 0
703 191 0 678.75860595703125 185.413787841796875 0
693 191 0 678.75860595703125 185.413787841796875 0
693 191 100 678.75860595703125 185.413787841796875 0
703 191 100 678.75860595703125 185.413787841796875 0
703 162 0 678.75860595703125 155.413787841796875 0
693 162 0 678.75860595703125 155.413787841796875 0
693 162 100 678.75860595703125 155.413787841796875 0
703 162 100 678.75860595703125 155.413787841796875 0
329 149 0 324.083343505859375 147.2261962890625 0
329 139 0 324.083343505859375 147.2261962890625 0
329 139 100 324.083343505859375 147.2261962890625 0
329 149 100 324.083343505859375 147.2261962890625 0
413 149 0 409.083343505859375 147.2261962890625 0
413 139 0 409.083343505859375 147.2261962890625 0
413 139 100 409.083343505859375 147.2261962890625 0
413 149 100 409.083343505859375 147.2261962890625 0
331 96 0 327.05950927734375 95.8571395874023438 0
321 96 0 327.05950927734375 95.8571395874023438 0
321 96 100 327.05950927734375 95.8571395874023438 0
331 96 100 327.05950927734375 95.8571395874023438 0
155 20 0 153.143646240234375 19.8895034790039062 0
155 10 0 153.143646240234375 19.8895034790039062 0
155 10 100 153.143646240234375 19.8895034790039062 0
155 20 100 153.143646240234375 19.8895034790039062 0
479 128 0 469.7884521484375 126.538459777832031 0
469 128 0 469.7884521484375 126.538459777832031 0
469 128 100 469.7884521484375 126.538459777832031 0
479 128 100 469.7884521484375 126.538459777832031 0
479 76 0 469.7884521484375 73.5384597778320312 0
469 76 0 469.7884521484375 73.5384597778320312 0
469 76 100 469.7884521484375 73.5384597778320312 0
479 76 100 469.7884521484375 73.5384597778320312 0
642 188 0 628.65386962890625 184.384613037109375 0
642 178 0 628.65386962890625 184.384613037109375 0
642 178 100 628.65386962890625 184.384613037109375 0
642 188 100 628.65386962890625 184.384613037109375 0
694 188 0 681.65386962890625 184.384613037109375 0
694 178 0 681.65386962890625 184.384613037109375 0
694 178 100 681.65386962890625 184.384613037109375 0
694 188 100 681.65386962890625 184.384613037109375 0
320 20 0 315.19049072265625 19.7619056701660156 0
320 10 0 315.19049072265625 19.7619056701660156 0
320 10 100 315.19049072265625 19.7619056701660156 0
320 20 100 315.19049072265625 19.7619056701660156 0
548 172 0 537.4615478515625 167.692306518554688 0
538 172 0 537.4615478515625 167.692306518554688 0
538 172 100 537.4615478515625 167.692306518554688 0
548 172 100 537.4615478515625 167.692306518554688 0
693 93 0 683.375 92.7083358764648438 0
703 93 0 683.375 92.7083358764648438 0
703 93 100 683.375 92.7083358764648438 0
693 93 100 683.375 92.7083358764648438 0
611 467 0 602.811767578125 461.505889892578125 0
611 457 0 602.811767578125 461.505889892578125 0
611 457 100 602.811767578125 461.505889892578125 0
611 467 100 602.811767578125 461.505889892578125 0
696 467 0 688.811767578125 461.505889892578125 0
696 457 0 688.811767578125 461.505889892578125 0
696 457 100 688.811767578125 461.505889892578125 0
696 467 100 688.811767578125 461.505889892578125 0
423 60 0 413.804351806640625 59.6956520080566406 0
413 60 0 413.804351806640625 59.6956520080566406 0
413 60 100 413.804351806640625 59.6956520080566406 0
423 60 100 413.804351806640625 59.6956520080566406 0
423 14 0 413.804351806640625 12.6956520080566406 0
413 14 0 413.804351806640625 12.6956520080566406 0
413 14 100 413.804351806640625 12.6956520080566406 0
423 14 100 413.804351806640625 12.6956520080566406 0
542 225 0 530.7735595703125 220.754714965820312 0
542 215 0 530.7735595703125 220.754714965820312 0
542 215 100 530.7735595703125 220.754714965820312 0
542 225 100 530.7735595703125 220.754714965820312 0
595 225 0 584.7735595703125 220.754714965820312 0
595 215 0 584.7735595703125 220.754714965820312 0
595 215 100 584.7735595703125 220.754714965820312 0
595 225 100 584.7735595703125 220.754714965820312 0
499 465 0 478.304351806640625 444.782623291015625 0
499 455 0 478.304351806640625 444.782623291015625 0
499 455 100 478.304351806640625 444.782623291015625 0
499 465 100 478.304351806640625 444.782623291015625 0
210 228 0 204.324325561523438 222.837844848632812 0
200 228 0 204.324325561523438 222.837844848632812 0
200 228 100 204.324325561523438 222.837844848632812 0
210 228 100 204.324325561523438 222.837844848632812 0
210 191 0 204.324325561523438 184.837844848632812 0
200 191 0 204.324325561523438 184.837844848632812 0
200 191 100 204.324325561523438 184.837844848632812 0
210 191 100 204.324325561523438 184.837844848632812 0
646 227 0 640.7884521484375 224.817306518554688 0
646 217 0 640.7884521484375 224.817306518554688 0
646 217 100 640.7884521484375 224.817306518554688 0
646 227 100 640.7884521484375 224.817306518554688 0
434 20 0 420.5333251953125 19.3333339691162109 0
434 10 0 420.5333251953125 19.3333339691162109 0
434 10 100 420.5333251953125 19.3333339691162109 0
434 20 100 420.5333251953125 19.3333339691162109 0
427 288 0 416.5111083984375 281.600006103515625 0
427 278 0 416.5111083984375 281.600006103515625 0
427 278 100 416.5111083984375 281.600006103515625 0
427 288 100 416.5111083984375 281.600006103515625 0
472 288 0 462.5111083984375 281.600006103515625 0
472 278 0 462.5111083984375 281.600006103515625 0
472 278 100 462.5111083984375 281.600006103515625 0
472 288 100 462.5111083984375 281.600006103515625 0
321 53 0 313.170745849609375 52.7073173522949219 0
331 53 0 313.170745849609375 52.7073173522949219 0
331 53 100 313.170745849609375 52.7073173522949219 0
321 53 100 313.170745849609375 52.7073173522949219 0
321 161 0 318.84564208984375 160.919464111328125 0
331 161 0 318.84564208984375 160.919464111328125 0
331 161 100 318.84564208984375 160.919464111328125 0
321 161 100 318.84564208984375 160.919464111328125 0
315 288 0 309.078125 283.5 0
315 278 0 309.078125 283.5 0
315 278 100 309.078125 283.5 0
315 288 100 309.078125 283.5 0
379 288 0 374.078125 283.5 0
379 278 0 374.078125 283.5 0
379 278 100 374.078125 283.5 0
379 288 100 374.078125 283.5 0
548 76 0 544.29730224609375 74.4864883422851562 0
538 76 0 544.29730224609375 74.4864883422851562 0
538 76 100 544.29730224609375 74.4864883422851562 0
548 76 100 544.29730224609375 74.4864883422851562 0
132 10 0 130.352935791015625 9.95098018646240234 0
132 20 0 130.352935791015625 9.95098018646240234 0
132 20 100 130.352935791015625 9.95098018646240234 0
132 10 100 130.352935791015625 9.95098018646240234 0
479 460 0 476.38250732421875 458.486328125 0
469 460 0 476.38250732421875 458.486328125 0
469 460 100 476.38250732421875 458.486328125 0
479 460 100 476.38250732421875 458.486328125 0
479 277 0 476.38250732421875 274.486328125 0
469 277 0 476.38250732421875 274.486328125 0
469 277 100 476.38250732421875 274.486328125 0
479 277 100 476.38250732421875 274.486328125 0
562 465 0 556.465087890625 459.593017578125 0
562 455 0 556.465087890625 459.593017578125 0
562 455 100 556.465087890625 459.593017578125 0
562 465 100 556.465087890625 459.593017578125 0
345 185 0 339 182.31884765625 0
345 175 0 339 182.31884765625 0
345 175 100 339 182.31884765625 0
345 185 100 339 182.31884765625 0
414 185 0 409 182.31884765625 0
414 175 0 409 182.31884765625 0
414 175 100 409 182.31884765625 0
414 185 100 409 182.31884765625 0
319 412 0 317.018646240234375 410.44097900390625 0
309 412 0 317.018646240234375 410.44097900390625 0
309 412 100 317.018646240234375 410.44097900390625 0
319 412 100 317.018646240234375 410.44097900390625 0
319 251 0 317.018646240234375 248.440994262695312 0
309 251 0 317.018646240234375 248.440994262695312 0
309 251 100 317.018646240234375 248.440994262695312 0
319 251 100 317.018646240234375 248.440994262695312 0
133 234 0 130.909835815429688 232.08197021484375 0
133 224 0 130.909835815429688 232.08197021484375 0
133 224 100 130.909835815429688 232.08197021484375 0
133 234 100 130.909835815429688 232.08197021484375 0
255 234 0 253.909835815429688 232.08197021484375 0
255 224 0 253.909835815429688 232.08197021484375 0
255 224 100 253.909835815429688 232.08197021484375 0
255 234 100 253.909835815429688 232.08197021484375 0
255 414 0 251.571426391601562 410.05712890625 0
255 404 0 251.571426391601562 410.05712890625 0
255 404 100 251.571426391601562 410.05712890625 0
255 414 100 251.571426391601562 410.05712890625 0
360 414 0 357.571441650390625 410.05712890625 0
360 404 0 357.571441650390625 410.05712890625 0
360 404 100 357.571441650390625 410.05712890625 0
360 414 100 357.571441650390625 410.05712890625 0
479 228 0 0 0 -1
469 228 0 0 0 -1
469 140 0 0 0 -1
479 140 0 0 0 -1
479 228 100 0 0 1
469 228 100 0 0 1
469 140 100 0 0 1
479 140 100 0 0 1
404 21 0 0 0 -1
404 11 0 0 0 -1
698 11 0 0 0 -1
693 21 0 0 0 -1
404 21 100 0 0 1
404 11 100 0 0 1
698 11 100 0 0 1
693 21 100 0 0 1
703 11 0 0 0 -1
698 21 0 0 0 -1
482 21 0 0 0 -1
482 11 0 0 0 -1
703 11 100 0 0 1
698 21 100 0 0 1
482 21 100 0 0 1
482 11 100 0 0 1
693 21 0 0 0 -1
703 11 0 0 0 -1
703 93 0 0 0 -1
693 93 0 0 0 -1
693 21 100 0 0 1
703 11 100 0 0 1
703 93 100 0 0 1
693 93 100 0 0 1
137 284 0 0 0 -1
127 284 0 0 0 -1
127 14 0 0 0 -1
137 14 0 0 0 -1
137 284 100 0 0 1
127 284 100 0 0 1
127 14 100 0 0 1
137 14 100 0 0 1
474 227 0 0 0 -1
474 217 0 0 0 -1
694 217 0 0 0 -1
694 227 0 0 0 -1
474 227 100 0 0 1
474 217 100 0 0 1
694 217 100 0 0 1
694 227 100 0 0 1
694 217 0 0 0 -1
694 227 0 0 0 -1
542 227 0 0 0 -1
542 217 0 0 0 -1
694 217 100 0 0 1
694 227 100 0 0 1
542 227 100 0 0 1
542 217 100 0 0 1
703 191 0 0 0 -1
693 191 0 0 0 -1
693 162 0 0 0 -1
703 162 0 0 0 -1
703 191 100 0 0 1
693 191 100 0 0 1
693 162 100 0 0 1
703 162 100 0 0 1
329 149 0 0 0 -1
329 139 0 0 0 -1
413 139 0 0 0 -1
413 149 0 0 0 -1
329 149 100 0 0 1
329 139 100 0 0 1
413 139 100 0 0 1
413 149 100 0 0 1
331 96 0 0 0 -1
321 96 0 0 0 -1
321 12 0 0 0 -1
331 12 0 0 0 -1
331 96 100 0 0 1
321 96 100 0 0 1
321 12 100 0 0 1
331 12 100 0 0 1
321 12 0 0 0 -1
331 12 0 0 0 -1
331 53 0 0 0 -1
321 53 0 0 0 -1
321 12 100 0 0 1
331 12 100 0 0 1
331 53 100 0 0 1
321 53 100 0 0 1
321 12 0 0 0 -1
331 12 0 0 0 -1
331 161 0 0 0 -1
321 161 0 0 0 -1
321 12 100 0 0 1
331 12 100 0 0 1
331 161 100 0 0 1
321 161 100 0 0 1
155 20 0 0 0 -1
155 10 0 0 0 -1
336 10 0 0 0 -1
336 20 0 0 0 -1
155 20 100 0 0 1
155 10 100 0 0 1
336 10 100 0 0 1
336 20 100 0 0 1
336 10 0 0 0 -1
336 20 0 0 0 -1
132 20 0 0 0 -1
132 10 0 0 0 -1
336 10 100 0 0 1
336 20 100 0 0 1
132 20 100 0 0 1
132 10 100 0 0 1
479 128 0 0 0 -1
469 128 0 0 0 -1
469 76 0 0 0 -1
479 76 0 0 0 -1
479 128 100 0 0 1
469 128 100 0 0 1
469 76 100 0 0 1
479 76 100 0 0 1
642 188 0 0 0 -1
642 178 0 0 0 -1
694 178 0 0 0 -1
694 188 0 0 0 -1
642 188 100 0 0 1
642 178 100 0 0 1
694 178 100 0 0 1
694 188 100 0 0 1
320 20 0 0 0 -1
320 10 0 0 0 -1
404 10 0 0 0 -1
404 20 0 0 0 -1
320 20 100 0 0 1
320 10 100 0 0 1
404 10 100 0 0 1
404 20 100 0 0 1
404 20 0 0 0 -1
404 10 0 0 0 -1
434 10 0 0 0 -1
434 20 0 0 0 -1
404 20 100 0 0 1
404 10 100 0 0 1
434 10 100 0 0 1
434 20 100 0 0 1
548 224 0 0 0 -1
538 224 0 0 0 -1
538 172 0 0 0 -1
548 172 0 0 0 -1
548 224 100 0 0 1
538 224 100 0 0 1
538 172 100 0 0 1
548 172 100 0 0 1
548 224 0 0 0 -1
538 224 0 0 0 -1
538 76 0 0 0 -1
548 76 0 0 0 -1
548 224 100 0 0 1
538 224 100 0 0 1
538 76 100 0 0 1
548 76 100 0 0 1
542 227 0 0 0 -1
542 217 0 0 0 -1
646 217 0 0 0 -1
646 227 0 0 0 -1
542 227 100 0 0 1
542 217 100 0 0 1
646 217 100 0 0 1
646 227 100 0 0 1
611 467 0 0 0 -1
611 457 0 0 0 -1
696 457 0 0 0 -1
696 467 0 0 0 -1
611 467 100 0 0 1
611 457 100 0 0 1
696 457 100 0 0 1
696 467 100 0 0 1
423 60 0 0 0 -1
413 60 0 0 0 -1
413 14 0 0 0 -1
423 14 0 0 0 -1
423 60 100 0 0 1
413 60 100 0 0 1
413 14 100 0 0 1
423 14 100 0 0 1
542 225 0 0 0 -1
542 215 0 0 0 -1
595 215 0 0 0 -1
595 225 0 0 0 -1
542 225 100 0 0 1
542 215 100 0 0 1
595 215 100 0 0 1
595 225 100 0 0 1
476 465 0 0 0 -1
476 455 0 0 0 -1
499 455 0 0 0 -1
499 465 0 0 0 -1
476 465 100 0 0 1
476 455 100 0 0 1
499 455 100 0 0 1
499 465 100 0 0 1
476 465 0 0 0 -1
476 455 0 0 0 -1
562 455 0 0 0 -1
562 465 0 0 0 -1
476 465 100 0 0 1
476 455 100 0 0 1
562 455 100 0 0 1
562 465 100 0 0 1
210 228 0 0 0 -1
200 228 0 0 0 -1
200 191 0 0 0 -1
210 191 0 0 0 -1
210 228 100 0 0 1
200 228 100 0 0 1
200 191 100 0 0 1
210 191 100 0 0 1
427 288 0 0 0 -1
427 278 0 0 0 -1
472 278 0 0 0 -1
472 288 0 0 0 -1
427 288 100 0 0 1
427 278 100 0 0 1
472 278 100 0 0 1
472 288 100 0 0 1
315 288 0 0 0 -1
315 278 0 0 0 -1
379 278 0 0 0 -1
379 288 0 0 0 -1
315 288 100 0 0 1
315 278 100 0 0 1
379 278 100 0 0 1
379 288 100 0 0 1
479 460 0 0 0 -1
469 460 0 0 0 -1
469 277 0 0 0 -1
479 277 0 0 0 -1
479 460 100 0 0 1
469 460 100 0 0 1
469 277 100 0 0 1
479 277 100 0 0 1
345 185 0 0 0 -1
345 175 0 0 0 -1
414 175 0 0 0 -1
414 185 0 0 0 -1
345 185 100 0 0 1
345 175 100 0 0 1
414 175 100 0 0 1
414 185 100 0 0 1
319 412 0 0 0 -1
309 412 0 0 0 -1
309 251 0 0 0 -1
319 251 0 0 0 -1
319 412 100 0 0 1
309 412 100 0 0 1
309 251 100 0 0 1
319 251 100 0 0 1
133 234 0 0 0 -1
133 224 0 0 0 -1
255 224 0 0 0 -1
255 234 0 0 0 -1
133 234 100 0 0 1
133 224 100 0 0 1
255 224 100 0 0 1
255 234 100 0 0 1
255 414 0 0 0 -1
255 404 0 0 0 -1
360 404 0 0 0 -1
360 414 0 0 0 -1
255 414 100 0 0 1
255 404 100 0 0 1
360 404 100 0 0 1
360 414 100 0 0 1
703 11 0 0 0 -1
693 21 0 0 0 -1
703 11 100 0 0 1
693 21 100 0 0 1
4 0 1 2 3
4 4 5 6 7
4 8 9 10 11
4 12 13 14 15
4 16 17 18 19
4 20 21 22 23
4 24 25 26 27
4 28 29 30 31
4 32 33 34 35
4 36 37 38 39
4 40 41 42 43
4 44 45 46 47
4 48 49 50 51
4 52 53 54 55
4 56 57 58 59
4 60 61 62 63
4 64 65 66 67
4 68 69 70 71
4 72 73 74 75
4 76 77 78 79
4 80 81 82 83
4 84 85 86 87
4 88 89 90 91
4 92 93 94 95
4 96 97 98 99
4 100 101 102 103
4 104 105 106 107
4 108 109 110 111
4 112 113 114 115
4 116 117 118 119
4 120 121 122 123
4 124 125 126 127
4 128 129 130 131
4 132 133 134 135
4 136 137 138 139
4 140 141 142 143
4 144 145 146 147
4 148 149 150 151
4 152 153 154 155
4 156 157 158 159
4 160 161 162 163
4 164 165 166 167
4 168 169 170 171
4 172 173 174 175
4 176 177 178 179
4 180 181 182 183
4 184 185 186 187
4 188 189 190 191
4 192 193 194 195
4 196 197 198 199
4 200 201 202 203
4 204 205 206 207
4 208 209 210 211
4 212 213 214 215
4 216 217 218 219
4 220 221 222 223
4 224 225 226 227
4 228 229 230 231
4 232 233 234 235
4 236 237 238 239
4 240 241 242 243
4 244 245 246 247
4 248 249 250 251
4 252 253 254 255
4 256 257 258 259
4 260 261 262 263
4 264 265 266 267
4 268 269 270 271
4 272 273 274 275
4 276 277 278 279
4 280 281 282 283
4 284 285 286 287
4 288 289 290 291
4 292 293 294 295
4 296 297 298 299
4 300 301 302 303
4 304 305 306 307
4 308 309 310 311
4 312 313 314 315
4 316 317 318 319
4 320 321 322 323
4 324 325 326 327
4 328 329 330 331
4 332 333 334 335
4 336 337 338 339
4 340 341 342 343
4 344 345 346 347
4 348 349 350 351
4 352 353 354 355
4 356 357 358 359
4 360 361 362 363
4 364 365 366 367
4 368 369 370 371
4 372 373 374 375
4 376 377 378 379
4 380 381 382 383
4 384 385 386 387
4 388 389 390 391
4 392 393 394 395
4 396 397 398 399
4 400 401 402 403
4 404 405 406 407
4 408 409 410 411
4 412 413 414 415
4 416 417 418 419
4 420 421 422 423
4 424 425 426 427
4 428 429 430 431
4 432 433 434 435
4 436 437 438 439
4 440 441 442 443
4 444 445 446 447
4 448 449 450 451
4 452 453 454 455
4 456 457 458 459
4 460 461 462 463
4 464 465 466 467
4 468 469 470 471
4 472 473 474 475
4 476 477 478 479
4 480 481 482 483
4 484 485 486 487
4 488 489 490 491
4 492 493 494 495
4 496 497 498 499
4 500 501 502 503
4 504 505 506 507
4 508 509 510 511
4 512 513 514 515
4 516 517 518 519
4 520 521 522 523
4 524 525 526 527
4 528 529 530 531
4 532 533 534 535
4 536 537 538 539
4 540 541 542 543
4 544 545 546 547
4 548 549 550 551
4 552 553 554 555
4 556 557 558 559
4 560 561 562 563
4 564 565 566 567
4 568 569 570 571
4 572 573 574 575
4 576 577 578 579
4 580 581 582 583
4 584 585 586 587
4 588 589 590 591
4 592 593 594 595
4 596 597 598 599
4 600 601 602 603
4 604 605 606 607
4 608 609 610 611
4 612 613 614 615
4 616 617 618 619
4 620 621 622 623
4 624 625 626 627
4 628 629 630 631
4 632 633 634 635
4 636 637 638 639
4 640 641 642 643
4 644 645 646 647
4 648 649 650 651
4 652 653 654 655
4 656 657 658 659
4 660 661 662 663
4 664 665 666 667
4 668 669 670 671
4 672 673 674 675
4 676 677 678 679
4 680 681 682 683
4 684 685 686 687
4 688 689 690 691
4 692 693 694 695
4 696 697 698 699
4 700 701 702 703
4 704 705 706 707
4 708 709 710 711
4 712 713 714 715
4 716 717 718 719
4 720 721 722 723
4 724 725 726 727
4 728 729 730 731
4 732 733 734 735
4 736 737 738 739
4 740 741 742 743
