ply
format ascii 1.0
element quads 48
property int x
property int y
property int z
property int nx
property int ny
property int nz
end_header
160 115 0 -1 0 0
160 36 0 -1 0 0
160 115 5 -1 0 1
160 36 5 -1 0 1
162 116 0 1 0 0
162 36 0 1 0 0
162 116 5 1 0 1
162 36 5 1 0 1
15 115 0 -1 0 0
15 67 0 -1 0 0
15 115 5 -1 0 1
15 67 5 -1 0 1
16 10 0 0 1 0
133 10 0 0 1 0
3 10 5 0 1 1
16 10 5 0 1 1
15 12 0 0 -1 0
136 12 0 0 -1 0
4 12 5 0 -1 1
15 12 5 0 -1 1
128 116 0 0 -1 0
180 116 0 0 -1 0
5 116 5 0 -1 1
128 116 5 0 -1 1
17 116 0 1 0 0
17 14 0 1 0 0
17 116 5 1 0 1
17 14 5 1 0 1
40 66 0 1 0 0
40 14 0 1 0 0
40 66 5 1 0 1
40 14 5 1 0 1
128 112 0 0 1 0
180 112 0 0 1 0
8 112 5 0 1 1
128 112 5 0 1 1
18 116 0 0 -1 0
72 116 0 0 -1 0
9 116 5 0 -1 1
18 116 5 0 -1 1
12 112 0 0 1 0
72 112 0 0 1 0
10 112 5 0 1 1
12 112 5 0 1 1
38 69 0 -1 0 0
38 11 0 -1 0 0
38 69 5 -1 0 1
38 11 5 -1 0 1
